<?xml version="1.0" encoding="UTF-8" standalone="no"?>
<!DOCTYPE svg PUBLIC "-//W3C//DTD SVG 1.1//EN"
 "http://www.w3.org/Graphics/SVG/1.1/DTD/svg11.dtd">
<!-- Generated by graphviz version 2.43.0 (0)
 -->
<!-- Title: ArgumentMapper.hpp Pages: 1 -->
<svg width="1133pt" height="374pt"
 viewBox="0.00 0.00 1133.00 374.00" xmlns="http://www.w3.org/2000/svg" xmlns:xlink="http://www.w3.org/1999/xlink">
<g id="graph0" class="graph" transform="scale(1 1) rotate(0) translate(4 370)">
<title>ArgumentMapper.hpp</title>
<polygon fill="white" stroke="transparent" points="-4,4 -4,-370 1129,-370 1129,4 -4,4"/>
<!-- Node1 -->
<g id="node1" class="node">
<title>Node1</title>
<g id="a_node1"><a xlink:title=" ">
<polygon fill="#bfbfbf" stroke="black" points="610.5,-346.5 610.5,-365.5 732.5,-365.5 732.5,-346.5 610.5,-346.5"/>
<text text-anchor="middle" x="671.5" y="-353.5" font-family="Helvetica,sans-Serif" font-size="10.00">ArgumentMapper.hpp</text>
</a>
</g>
</g>
<!-- Node2 -->
<g id="node2" class="node">
<title>Node2</title>
<g id="a_node2"><a xlink:href="typedefs_8hpp.html" target="_top" xlink:title=" ">
<polygon fill="white" stroke="black" points="0,-201.5 0,-231.5 119,-231.5 119,-201.5 0,-201.5"/>
<text text-anchor="start" x="8" y="-219.5" font-family="Helvetica,sans-Serif" font-size="10.00">packages/macros/inc</text>
<text text-anchor="middle" x="59.5" y="-208.5" font-family="Helvetica,sans-Serif" font-size="10.00">/typedefs.hpp</text>
</a>
</g>
</g>
<!-- Node1&#45;&gt;Node2 -->
<g id="edge1" class="edge">
<title>Node1&#45;&gt;Node2</title>
<path fill="none" stroke="midnightblue" d="M610.42,-348.37C549.48,-341.16 453.38,-328.18 371.5,-310 277.98,-289.23 171.47,-255.39 110.21,-234.91"/>
<polygon fill="midnightblue" stroke="midnightblue" points="111,-231.49 100.4,-231.62 108.77,-238.12 111,-231.49"/>
</g>
<!-- Node4 -->
<g id="node4" class="node">
<title>Node4</title>
<g id="a_node4"><a xlink:href="exceptions_8hpp.html" target="_top" xlink:title=" ">
<polygon fill="white" stroke="black" points="381,-274 381,-304 500,-304 500,-274 381,-274"/>
<text text-anchor="start" x="389" y="-292" font-family="Helvetica,sans-Serif" font-size="10.00">packages/macros/inc</text>
<text text-anchor="middle" x="440.5" y="-281" font-family="Helvetica,sans-Serif" font-size="10.00">/exceptions.hpp</text>
</a>
</g>
</g>
<!-- Node1&#45;&gt;Node4 -->
<g id="edge3" class="edge">
<title>Node1&#45;&gt;Node4</title>
<path fill="none" stroke="midnightblue" d="M640.41,-346.48C607.78,-337.5 554.99,-322.91 509.5,-310 505.93,-308.99 502.26,-307.94 498.56,-306.88"/>
<polygon fill="midnightblue" stroke="midnightblue" points="499.31,-303.45 488.74,-304.06 497.38,-310.18 499.31,-303.45"/>
</g>
<!-- Node21 -->
<g id="node21" class="node">
<title>Node21</title>
<g id="a_node21"><a xlink:href="Size_8hpp.html" target="_top" xlink:title=" ">
<polygon fill="white" stroke="black" points="518.5,-268.5 518.5,-309.5 666.5,-309.5 666.5,-268.5 518.5,-268.5"/>
<text text-anchor="start" x="526.5" y="-297.5" font-family="Helvetica,sans-Serif" font-size="10.00">packages/compile_time</text>
<text text-anchor="start" x="526.5" y="-286.5" font-family="Helvetica,sans-Serif" font-size="10.00">/packages/parameter_pack</text>
<text text-anchor="middle" x="592.5" y="-275.5" font-family="Helvetica,sans-Serif" font-size="10.00">/inc/Size.hpp</text>
</a>
</g>
</g>
<!-- Node1&#45;&gt;Node21 -->
<g id="edge23" class="edge">
<title>Node1&#45;&gt;Node21</title>
<path fill="none" stroke="midnightblue" d="M660.85,-346.23C651.43,-338.49 637.2,-326.78 624.16,-316.05"/>
<polygon fill="midnightblue" stroke="midnightblue" points="626.2,-313.19 616.25,-309.54 621.75,-318.6 626.2,-313.19"/>
</g>
<!-- Node22 -->
<g id="node22" class="node">
<title>Node22</title>
<g id="a_node22"><a xlink:href="functional_8hpp.html" target="_top" xlink:title=" ">
<polygon fill="white" stroke="black" points="684.5,-268.5 684.5,-309.5 816.5,-309.5 816.5,-268.5 684.5,-268.5"/>
<text text-anchor="start" x="692.5" y="-297.5" font-family="Helvetica,sans-Serif" font-size="10.00">packages/compile_time</text>
<text text-anchor="start" x="692.5" y="-286.5" font-family="Helvetica,sans-Serif" font-size="10.00">/packages/concepts/inc</text>
<text text-anchor="middle" x="750.5" y="-275.5" font-family="Helvetica,sans-Serif" font-size="10.00">/functional.hpp</text>
</a>
</g>
</g>
<!-- Node1&#45;&gt;Node22 -->
<g id="edge25" class="edge">
<title>Node1&#45;&gt;Node22</title>
<path fill="none" stroke="midnightblue" d="M682.15,-346.23C691.57,-338.49 705.8,-326.78 718.84,-316.05"/>
<polygon fill="midnightblue" stroke="midnightblue" points="721.25,-318.6 726.75,-309.54 716.8,-313.19 721.25,-318.6"/>
</g>
<!-- Node25 -->
<g id="node25" class="node">
<title>Node25</title>
<g id="a_node25"><a xlink:title=" ">
<polygon fill="white" stroke="#bfbfbf" points="862,-140 862,-159 903,-159 903,-140 862,-140"/>
<text text-anchor="middle" x="882.5" y="-147" font-family="Helvetica,sans-Serif" font-size="10.00">tuple</text>
</a>
</g>
</g>
<!-- Node1&#45;&gt;Node25 -->
<g id="edge34" class="edge">
<title>Node1&#45;&gt;Node25</title>
<path fill="none" stroke="midnightblue" d="M732.76,-348.64C763.4,-342.79 799.41,-331.56 825.5,-310 868.69,-274.31 879.16,-203.39 881.7,-169.45"/>
<polygon fill="midnightblue" stroke="midnightblue" points="885.21,-169.3 882.3,-159.11 878.22,-168.89 885.21,-169.3"/>
</g>
<!-- Node26 -->
<g id="node26" class="node">
<title>Node26</title>
<g id="a_node26"><a xlink:title=" ">
<polygon fill="white" stroke="#bfbfbf" points="948,-268.5 948,-309.5 1125,-309.5 1125,-268.5 948,-268.5"/>
<text text-anchor="start" x="956" y="-297.5" font-family="Helvetica,sans-Serif" font-size="10.00">packages/compile_time</text>
<text text-anchor="start" x="956" y="-286.5" font-family="Helvetica,sans-Serif" font-size="10.00">/packages/parameter_pack</text>
<text text-anchor="middle" x="1036.5" y="-275.5" font-family="Helvetica,sans-Serif" font-size="10.00">/impl/ArgumentMapper_impl.hpp</text>
</a>
</g>
</g>
<!-- Node1&#45;&gt;Node26 -->
<g id="edge35" class="edge">
<title>Node1&#45;&gt;Node26</title>
<path fill="none" stroke="midnightblue" d="M723.46,-346.49C776.56,-337.7 861.37,-323.42 934.5,-310 935.59,-309.8 936.68,-309.6 937.78,-309.4"/>
<polygon fill="midnightblue" stroke="midnightblue" points="938.6,-312.8 947.79,-307.53 937.32,-305.92 938.6,-312.8"/>
</g>
<!-- Node3 -->
<g id="node3" class="node">
<title>Node3</title>
<g id="a_node3"><a xlink:title=" ">
<polygon fill="white" stroke="#bfbfbf" points="46.5,-140 46.5,-159 104.5,-159 104.5,-140 46.5,-140"/>
<text text-anchor="middle" x="75.5" y="-147" font-family="Helvetica,sans-Serif" font-size="10.00">memory</text>
</a>
</g>
</g>
<!-- Node2&#45;&gt;Node3 -->
<g id="edge2" class="edge">
<title>Node2&#45;&gt;Node3</title>
<path fill="none" stroke="midnightblue" d="M62.97,-201.4C65.29,-191.96 68.37,-179.45 70.9,-169.19"/>
<polygon fill="midnightblue" stroke="midnightblue" points="74.37,-169.74 73.36,-159.19 67.57,-168.07 74.37,-169.74"/>
</g>
<!-- Node5 -->
<g id="node5" class="node">
<title>Node5</title>
<g id="a_node5"><a xlink:href="exception_8hpp.html" target="_top" xlink:title=" ">
<polygon fill="white" stroke="black" points="278,-201.5 278,-231.5 397,-231.5 397,-201.5 278,-201.5"/>
<text text-anchor="start" x="286" y="-219.5" font-family="Helvetica,sans-Serif" font-size="10.00">packages/exceptions</text>
<text text-anchor="middle" x="337.5" y="-208.5" font-family="Helvetica,sans-Serif" font-size="10.00">/inc/exception.hpp</text>
</a>
</g>
</g>
<!-- Node4&#45;&gt;Node5 -->
<g id="edge4" class="edge">
<title>Node4&#45;&gt;Node5</title>
<path fill="none" stroke="midnightblue" d="M419.66,-273.73C404.34,-263.25 383.33,-248.87 366.4,-237.28"/>
<polygon fill="midnightblue" stroke="midnightblue" points="368.19,-234.26 357.96,-231.5 364.24,-240.04 368.19,-234.26"/>
</g>
<!-- Node8 -->
<g id="node8" class="node">
<title>Node8</title>
<g id="a_node8"><a xlink:href="detail_8hpp.html" target="_top" xlink:title=" ">
<polygon fill="white" stroke="black" points="200,-0.5 200,-30.5 319,-30.5 319,-0.5 200,-0.5"/>
<text text-anchor="start" x="208" y="-18.5" font-family="Helvetica,sans-Serif" font-size="10.00">packages/macros/inc</text>
<text text-anchor="middle" x="259.5" y="-7.5" font-family="Helvetica,sans-Serif" font-size="10.00">/detail.hpp</text>
</a>
</g>
</g>
<!-- Node4&#45;&gt;Node8 -->
<g id="edge20" class="edge">
<title>Node4&#45;&gt;Node8</title>
<path fill="none" stroke="midnightblue" d="M380.97,-281.81C313.73,-271.14 208.22,-242.32 166.5,-165 151.64,-137.46 188.32,-67.24 188.5,-67 197.52,-54.75 210.42,-44.33 222.75,-36.19"/>
<polygon fill="midnightblue" stroke="midnightblue" points="224.94,-38.95 231.56,-30.68 221.23,-33.02 224.94,-38.95"/>
</g>
<!-- Node19 -->
<g id="node19" class="node">
<title>Node19</title>
<g id="a_node19"><a xlink:title=" ">
<polygon fill="white" stroke="#bfbfbf" points="415.5,-207 415.5,-226 471.5,-226 471.5,-207 415.5,-207"/>
<text text-anchor="middle" x="443.5" y="-214" font-family="Helvetica,sans-Serif" font-size="10.00">sstream</text>
</a>
</g>
</g>
<!-- Node4&#45;&gt;Node19 -->
<g id="edge21" class="edge">
<title>Node4&#45;&gt;Node19</title>
<path fill="none" stroke="midnightblue" d="M441.11,-273.73C441.56,-263 442.19,-248.19 442.69,-236.46"/>
<polygon fill="midnightblue" stroke="midnightblue" points="446.19,-236.53 443.12,-226.39 439.2,-236.24 446.19,-236.53"/>
</g>
<!-- Node20 -->
<g id="node20" class="node">
<title>Node20</title>
<g id="a_node20"><a xlink:title=" ">
<polygon fill="white" stroke="#bfbfbf" points="498.5,-207 498.5,-226 558.5,-226 558.5,-207 498.5,-207"/>
<text text-anchor="middle" x="528.5" y="-214" font-family="Helvetica,sans-Serif" font-size="10.00">concepts</text>
</a>
</g>
</g>
<!-- Node4&#45;&gt;Node20 -->
<g id="edge22" class="edge">
<title>Node4&#45;&gt;Node20</title>
<path fill="none" stroke="midnightblue" d="M458.31,-273.73C473.09,-261.89 494.06,-245.09 509.23,-232.94"/>
<polygon fill="midnightblue" stroke="midnightblue" points="511.78,-235.38 517.4,-226.39 507.41,-229.91 511.78,-235.38"/>
</g>
<!-- Node5&#45;&gt;Node3 -->
<g id="edge18" class="edge">
<title>Node5&#45;&gt;Node3</title>
<path fill="none" stroke="midnightblue" d="M280.97,-201.48C230.73,-189.01 158.6,-171.12 114.52,-160.18"/>
<polygon fill="midnightblue" stroke="midnightblue" points="115.31,-156.77 104.76,-157.76 113.62,-163.56 115.31,-156.77"/>
</g>
<!-- Node6 -->
<g id="node6" class="node">
<title>Node6</title>
<g id="a_node6"><a xlink:href="types_8hpp.html" target="_top" xlink:title=" ">
<polygon fill="white" stroke="black" points="527.5,-134.5 527.5,-164.5 637.5,-164.5 637.5,-134.5 527.5,-134.5"/>
<text text-anchor="start" x="535.5" y="-152.5" font-family="Helvetica,sans-Serif" font-size="10.00">packages/types/inc</text>
<text text-anchor="middle" x="582.5" y="-141.5" font-family="Helvetica,sans-Serif" font-size="10.00">/types.hpp</text>
</a>
</g>
</g>
<!-- Node5&#45;&gt;Node6 -->
<g id="edge5" class="edge">
<title>Node5&#45;&gt;Node6</title>
<path fill="none" stroke="midnightblue" d="M390.36,-201.48C428.23,-191.43 479.39,-177.86 519.4,-167.24"/>
<polygon fill="midnightblue" stroke="midnightblue" points="520.54,-170.56 529.31,-164.61 518.75,-163.79 520.54,-170.56"/>
</g>
<!-- Node11 -->
<g id="node11" class="node">
<title>Node11</title>
<g id="a_node11"><a xlink:title=" ">
<polygon fill="white" stroke="#bfbfbf" points="197.5,-73 197.5,-92 241.5,-92 241.5,-73 197.5,-73"/>
<text text-anchor="middle" x="219.5" y="-80" font-family="Helvetica,sans-Serif" font-size="10.00">string</text>
</a>
</g>
</g>
<!-- Node5&#45;&gt;Node11 -->
<g id="edge16" class="edge">
<title>Node5&#45;&gt;Node11</title>
<path fill="none" stroke="midnightblue" d="M314.72,-201.41C300.9,-192.16 283.49,-179.17 270.5,-165 252.49,-145.36 237.11,-118.51 228.08,-101.09"/>
<polygon fill="midnightblue" stroke="midnightblue" points="231.15,-99.41 223.53,-92.05 224.9,-102.56 231.15,-99.41"/>
</g>
<!-- Node16 -->
<g id="node16" class="node">
<title>Node16</title>
<g id="a_node16"><a xlink:title=" ">
<polygon fill="white" stroke="#bfbfbf" points="444,-140 444,-159 509,-159 509,-140 444,-140"/>
<text text-anchor="middle" x="476.5" y="-147" font-family="Helvetica,sans-Serif" font-size="10.00">stdexcept</text>
</a>
</g>
</g>
<!-- Node5&#45;&gt;Node16 -->
<g id="edge15" class="edge">
<title>Node5&#45;&gt;Node16</title>
<path fill="none" stroke="midnightblue" d="M367.66,-201.4C391.94,-190.04 425.78,-174.22 449.25,-163.24"/>
<polygon fill="midnightblue" stroke="midnightblue" points="450.73,-166.41 458.31,-159.01 447.77,-160.07 450.73,-166.41"/>
</g>
<!-- Node17 -->
<g id="node17" class="node">
<title>Node17</title>
<g id="a_node17"><a xlink:title=" ">
<polygon fill="white" stroke="#bfbfbf" points="176,-140 176,-159 223,-159 223,-140 176,-140"/>
<text text-anchor="middle" x="199.5" y="-147" font-family="Helvetica,sans-Serif" font-size="10.00">deque</text>
</a>
</g>
</g>
<!-- Node5&#45;&gt;Node17 -->
<g id="edge17" class="edge">
<title>Node5&#45;&gt;Node17</title>
<path fill="none" stroke="midnightblue" d="M307.56,-201.4C283.56,-190.09 250.16,-174.36 226.87,-163.39"/>
<polygon fill="midnightblue" stroke="midnightblue" points="228.1,-160.1 217.56,-159.01 225.12,-166.43 228.1,-160.1"/>
</g>
<!-- Node18 -->
<g id="node18" class="node">
<title>Node18</title>
<g id="a_node18"><a xlink:title=" ">
<polygon fill="white" stroke="#bfbfbf" points="279.5,-134.5 279.5,-164.5 425.5,-164.5 425.5,-134.5 279.5,-134.5"/>
<text text-anchor="start" x="287.5" y="-152.5" font-family="Helvetica,sans-Serif" font-size="10.00">packages/exceptions</text>
<text text-anchor="middle" x="352.5" y="-141.5" font-family="Helvetica,sans-Serif" font-size="10.00">/impl/exceptions_impl.hpp</text>
</a>
</g>
</g>
<!-- Node5&#45;&gt;Node18 -->
<g id="edge19" class="edge">
<title>Node5&#45;&gt;Node18</title>
<path fill="none" stroke="midnightblue" d="M340.75,-201.4C342.56,-193.56 344.86,-183.6 346.95,-174.57"/>
<polygon fill="midnightblue" stroke="midnightblue" points="350.41,-175.11 349.25,-164.58 343.59,-173.53 350.41,-175.11"/>
</g>
<!-- Node7 -->
<g id="node7" class="node">
<title>Node7</title>
<g id="a_node7"><a xlink:href="debug_8hpp.html" target="_top" xlink:title=" ">
<polygon fill="white" stroke="black" points="397,-67.5 397,-97.5 516,-97.5 516,-67.5 397,-67.5"/>
<text text-anchor="start" x="405" y="-85.5" font-family="Helvetica,sans-Serif" font-size="10.00">packages/macros/inc</text>
<text text-anchor="middle" x="456.5" y="-74.5" font-family="Helvetica,sans-Serif" font-size="10.00">/debug.hpp</text>
</a>
</g>
</g>
<!-- Node6&#45;&gt;Node7 -->
<g id="edge6" class="edge">
<title>Node6&#45;&gt;Node7</title>
<path fill="none" stroke="midnightblue" d="M555.16,-134.4C536.91,-124.98 512.72,-112.5 492.86,-102.26"/>
<polygon fill="midnightblue" stroke="midnightblue" points="494.28,-99.05 483.79,-97.58 491.07,-105.27 494.28,-99.05"/>
</g>
<!-- Node10 -->
<g id="node10" class="node">
<title>Node10</title>
<g id="a_node10"><a xlink:title=" ">
<polygon fill="white" stroke="#bfbfbf" points="534,-73 534,-92 587,-92 587,-73 534,-73"/>
<text text-anchor="middle" x="560.5" y="-80" font-family="Helvetica,sans-Serif" font-size="10.00">cstddef</text>
</a>
</g>
</g>
<!-- Node6&#45;&gt;Node10 -->
<g id="edge9" class="edge">
<title>Node6&#45;&gt;Node10</title>
<path fill="none" stroke="midnightblue" d="M577.73,-134.4C574.5,-124.86 570.21,-112.18 566.71,-101.86"/>
<polygon fill="midnightblue" stroke="midnightblue" points="569.96,-100.54 563.44,-92.19 563.33,-102.79 569.96,-100.54"/>
</g>
<!-- Node6&#45;&gt;Node11 -->
<g id="edge10" class="edge">
<title>Node6&#45;&gt;Node11</title>
<path fill="none" stroke="midnightblue" d="M527.25,-135.84C523.95,-135.19 520.69,-134.57 517.5,-134 399.63,-112.95 365.38,-131.75 250.5,-98 248.62,-97.45 246.71,-96.8 244.81,-96.08"/>
<polygon fill="midnightblue" stroke="midnightblue" points="246.12,-92.84 235.55,-92.13 243.37,-99.28 246.12,-92.84"/>
</g>
<!-- Node12 -->
<g id="node12" class="node">
<title>Node12</title>
<g id="a_node12"><a xlink:title=" ">
<polygon fill="white" stroke="#bfbfbf" points="809,-73 809,-92 878,-92 878,-73 809,-73"/>
<text text-anchor="middle" x="843.5" y="-80" font-family="Helvetica,sans-Serif" font-size="10.00">type_traits</text>
</a>
</g>
</g>
<!-- Node6&#45;&gt;Node12 -->
<g id="edge11" class="edge">
<title>Node6&#45;&gt;Node12</title>
<path fill="none" stroke="midnightblue" d="M637.6,-136.38C691.7,-124.36 770.37,-106.55 800.5,-98 803.51,-97.15 806.62,-96.21 809.73,-95.23"/>
<polygon fill="midnightblue" stroke="midnightblue" points="811.1,-98.47 819.52,-92.05 808.93,-91.81 811.1,-98.47"/>
</g>
<!-- Node13 -->
<g id="node13" class="node">
<title>Node13</title>
<g id="a_node13"><a xlink:title=" ">
<polygon fill="white" stroke="#bfbfbf" points="605.5,-73 605.5,-92 655.5,-92 655.5,-73 605.5,-73"/>
<text text-anchor="middle" x="630.5" y="-80" font-family="Helvetica,sans-Serif" font-size="10.00">climits</text>
</a>
</g>
</g>
<!-- Node6&#45;&gt;Node13 -->
<g id="edge12" class="edge">
<title>Node6&#45;&gt;Node13</title>
<path fill="none" stroke="midnightblue" d="M592.92,-134.4C600.33,-124.36 610.31,-110.84 618.13,-100.25"/>
<polygon fill="midnightblue" stroke="midnightblue" points="620.95,-102.32 624.08,-92.19 615.32,-98.16 620.95,-102.32"/>
</g>
<!-- Node14 -->
<g id="node14" class="node">
<title>Node14</title>
<g id="a_node14"><a xlink:title=" ">
<polygon fill="white" stroke="#bfbfbf" points="674,-67.5 674,-97.5 791,-97.5 791,-67.5 674,-67.5"/>
<text text-anchor="start" x="682" y="-85.5" font-family="Helvetica,sans-Serif" font-size="10.00">packages/types/impl</text>
<text text-anchor="middle" x="732.5" y="-74.5" font-family="Helvetica,sans-Serif" font-size="10.00">/types_impl.hpp</text>
</a>
</g>
</g>
<!-- Node6&#45;&gt;Node14 -->
<g id="edge13" class="edge">
<title>Node6&#45;&gt;Node14</title>
<path fill="none" stroke="midnightblue" d="M615.05,-134.4C637.26,-124.77 666.88,-111.94 690.81,-101.56"/>
<polygon fill="midnightblue" stroke="midnightblue" points="692.23,-104.76 700.02,-97.58 689.45,-98.34 692.23,-104.76"/>
</g>
<!-- Node15 -->
<g id="node15" class="node">
<title>Node15</title>
<g id="a_node15"><a xlink:href="logging_8hpp.html" target="_top" xlink:title=" ">
<polygon fill="white" stroke="black" points="260,-67.5 260,-97.5 379,-97.5 379,-67.5 260,-67.5"/>
<text text-anchor="start" x="268" y="-85.5" font-family="Helvetica,sans-Serif" font-size="10.00">packages/macros/inc</text>
<text text-anchor="middle" x="319.5" y="-74.5" font-family="Helvetica,sans-Serif" font-size="10.00">/logging.hpp</text>
</a>
</g>
</g>
<!-- Node6&#45;&gt;Node15 -->
<g id="edge14" class="edge">
<title>Node6&#45;&gt;Node15</title>
<path fill="none" stroke="midnightblue" d="M527.37,-134.87C486.28,-124.72 429.98,-110.81 386.33,-100.02"/>
<polygon fill="midnightblue" stroke="midnightblue" points="386.92,-96.56 376.38,-97.56 385.25,-103.35 386.92,-96.56"/>
</g>
<!-- Node7&#45;&gt;Node8 -->
<g id="edge7" class="edge">
<title>Node7&#45;&gt;Node8</title>
<path fill="none" stroke="midnightblue" d="M413.75,-67.4C383.81,-57.52 343.61,-44.25 311.76,-33.74"/>
<polygon fill="midnightblue" stroke="midnightblue" points="312.76,-30.39 302.16,-30.58 310.56,-37.03 312.76,-30.39"/>
</g>
<!-- Node9 -->
<g id="node9" class="node">
<title>Node9</title>
<g id="a_node9"><a xlink:title=" ">
<polygon fill="white" stroke="#bfbfbf" points="426.5,-6 426.5,-25 486.5,-25 486.5,-6 426.5,-6"/>
<text text-anchor="middle" x="456.5" y="-13" font-family="Helvetica,sans-Serif" font-size="10.00">iostream</text>
</a>
</g>
</g>
<!-- Node7&#45;&gt;Node9 -->
<g id="edge8" class="edge">
<title>Node7&#45;&gt;Node9</title>
<path fill="none" stroke="midnightblue" d="M456.5,-67.4C456.5,-58.06 456.5,-45.71 456.5,-35.52"/>
<polygon fill="midnightblue" stroke="midnightblue" points="460,-35.19 456.5,-25.19 453,-35.19 460,-35.19"/>
</g>
<!-- Node21&#45;&gt;Node6 -->
<g id="edge24" class="edge">
<title>Node21&#45;&gt;Node6</title>
<path fill="none" stroke="midnightblue" d="M591.07,-268.3C589.27,-243.63 586.2,-201.38 584.26,-174.75"/>
<polygon fill="midnightblue" stroke="midnightblue" points="587.75,-174.43 583.53,-164.72 580.77,-174.94 587.75,-174.43"/>
</g>
<!-- Node22&#45;&gt;Node12 -->
<g id="edge32" class="edge">
<title>Node22&#45;&gt;Node12</title>
<path fill="none" stroke="midnightblue" d="M710.98,-268.45C697.14,-259.41 683.15,-247.25 675.5,-232 669.33,-219.68 670.37,-213.79 675.5,-201 690.82,-162.78 706.23,-158.27 739.5,-134 761.44,-118 789.23,-104.81 810.57,-95.92"/>
<polygon fill="midnightblue" stroke="midnightblue" points="811.92,-99.15 819.87,-92.15 809.29,-92.67 811.92,-99.15"/>
</g>
<!-- Node22&#45;&gt;Node20 -->
<g id="edge30" class="edge">
<title>Node22&#45;&gt;Node20</title>
<path fill="none" stroke="midnightblue" d="M688.96,-268.46C649.18,-255.83 598.77,-239.81 565.16,-229.14"/>
<polygon fill="midnightblue" stroke="midnightblue" points="565.9,-225.7 555.31,-226.01 563.78,-232.38 565.9,-225.7"/>
</g>
<!-- Node23 -->
<g id="node23" class="node">
<title>Node23</title>
<g id="a_node23"><a xlink:href="FunctionTraits_8hpp.html" target="_top" xlink:title=" ">
<polygon fill="white" stroke="black" points="685,-201.5 685,-231.5 816,-231.5 816,-201.5 685,-201.5"/>
<text text-anchor="start" x="693" y="-219.5" font-family="Helvetica,sans-Serif" font-size="10.00">packages/stl_extension</text>
<text text-anchor="middle" x="750.5" y="-208.5" font-family="Helvetica,sans-Serif" font-size="10.00">/inc/FunctionTraits.hpp</text>
</a>
</g>
</g>
<!-- Node22&#45;&gt;Node23 -->
<g id="edge26" class="edge">
<title>Node22&#45;&gt;Node23</title>
<path fill="none" stroke="midnightblue" d="M750.5,-268.36C750.5,-260.23 750.5,-250.7 750.5,-242.11"/>
<polygon fill="midnightblue" stroke="midnightblue" points="754,-241.89 750.5,-231.89 747,-241.89 754,-241.89"/>
</g>
<!-- Node24 -->
<g id="node24" class="node">
<title>Node24</title>
<g id="a_node24"><a xlink:title=" ">
<polygon fill="white" stroke="#bfbfbf" points="749,-140 749,-159 814,-159 814,-140 749,-140"/>
<text text-anchor="middle" x="781.5" y="-147" font-family="Helvetica,sans-Serif" font-size="10.00">functional</text>
</a>
</g>
</g>
<!-- Node22&#45;&gt;Node24 -->
<g id="edge31" class="edge">
<title>Node22&#45;&gt;Node24</title>
<path fill="none" stroke="midnightblue" d="M790.02,-268.45C803.86,-259.41 817.85,-247.25 825.5,-232 831.67,-219.68 830.33,-213.9 825.5,-201 820.4,-187.39 809.79,-175.03 800.27,-165.94"/>
<polygon fill="midnightblue" stroke="midnightblue" points="802.45,-163.2 792.67,-159.13 797.78,-168.41 802.45,-163.2"/>
</g>
<!-- Node22&#45;&gt;Node25 -->
<g id="edge33" class="edge">
<title>Node22&#45;&gt;Node25</title>
<path fill="none" stroke="midnightblue" d="M792.99,-268.29C809.64,-259.03 827.95,-246.76 841.5,-232 858.53,-213.45 870.22,-186.5 876.64,-168.74"/>
<polygon fill="midnightblue" stroke="midnightblue" points="880.03,-169.63 879.95,-159.03 873.41,-167.37 880.03,-169.63"/>
</g>
<!-- Node23&#45;&gt;Node6 -->
<g id="edge27" class="edge">
<title>Node23&#45;&gt;Node6</title>
<path fill="none" stroke="midnightblue" d="M714.05,-201.4C688.95,-191.69 655.41,-178.71 628.48,-168.29"/>
<polygon fill="midnightblue" stroke="midnightblue" points="629.47,-164.92 618.88,-164.58 626.95,-171.45 629.47,-164.92"/>
</g>
<!-- Node23&#45;&gt;Node24 -->
<g id="edge28" class="edge">
<title>Node23&#45;&gt;Node24</title>
<path fill="none" stroke="midnightblue" d="M757.23,-201.4C761.82,-191.76 767.95,-178.91 772.9,-168.54"/>
<polygon fill="midnightblue" stroke="midnightblue" points="776.21,-169.73 777.35,-159.19 769.89,-166.71 776.21,-169.73"/>
</g>
<!-- Node23&#45;&gt;Node25 -->
<g id="edge29" class="edge">
<title>Node23&#45;&gt;Node25</title>
<path fill="none" stroke="midnightblue" d="M779.14,-201.4C802,-190.14 833.76,-174.5 856.02,-163.54"/>
<polygon fill="midnightblue" stroke="midnightblue" points="857.8,-166.56 865.22,-159.01 854.71,-160.28 857.8,-166.56"/>
</g>
</g>
</svg>
