<?xml version="1.0" encoding="UTF-8" standalone="no"?>
<!DOCTYPE svg PUBLIC "-//W3C//DTD SVG 1.1//EN"
 "http://www.w3.org/Graphics/SVG/1.1/DTD/svg11.dtd">
<!-- Generated by graphviz version 2.43.0 (0)
 -->
<!-- Title: ArgumentMapper.hpp Pages: 1 -->
<svg width="1133pt" height="368pt"
 viewBox="0.00 0.00 1133.00 368.00" xmlns="http://www.w3.org/2000/svg" xmlns:xlink="http://www.w3.org/1999/xlink">
<g id="graph0" class="graph" transform="scale(1 1) rotate(0) translate(4 364)">
<title>ArgumentMapper.hpp</title>
<!-- Node1 -->
<g id="Node000001" class="node">
<title>Node1</title>
<g id="a_Node000001"><a xlink:title=" ">
<polygon fill="#999999" stroke="#666666" points="732.5,-360 610.5,-360 610.5,-341 732.5,-341 732.5,-360"/>
<text text-anchor="middle" x="671.5" y="-348" font-family="Helvetica,sans-Serif" font-size="10.00">ArgumentMapper.hpp</text>
</a>
</g>
</g>
<!-- Node2 -->
<g id="Node000002" class="node">
<title>Node2</title>
<g id="a_Node000002"><a xlink:href="typedefs_8hpp.html" target="_top" xlink:title=" ">
<polygon fill="white" stroke="#666666" points="119,-228 0,-228 0,-198 119,-198 119,-228"/>
<text text-anchor="start" x="8" y="-216" font-family="Helvetica,sans-Serif" font-size="10.00">packages/macros/inc</text>
<text text-anchor="middle" x="59.5" y="-205" font-family="Helvetica,sans-Serif" font-size="10.00">/typedefs.hpp</text>
</a>
</g>
</g>
<!-- Node1&#45;&gt;Node2 -->
<g id="edge1_Node000001_Node000002" class="edge">
<title>Node1&#45;&gt;Node2</title>
<g id="a_edge1_Node000001_Node000002"><a xlink:title=" ">
<path fill="none" stroke="#63b8ff" d="M610.44,-342.92C549.5,-335.77 453.41,-322.93 371.5,-305 278.3,-284.6 172.11,-251.45 110.74,-231.29"/>
<polygon fill="#63b8ff" stroke="#63b8ff" points="111.51,-227.86 100.92,-228.05 109.32,-234.51 111.51,-227.86"/>
</a>
</g>
</g>
<!-- Node4 -->
<g id="Node000004" class="node">
<title>Node4</title>
<g id="a_Node000004"><a xlink:href="exceptions_8hpp.html" target="_top" xlink:title=" ">
<polygon fill="white" stroke="#666666" points="500,-299.5 381,-299.5 381,-269.5 500,-269.5 500,-299.5"/>
<text text-anchor="start" x="389" y="-287.5" font-family="Helvetica,sans-Serif" font-size="10.00">packages/macros/inc</text>
<text text-anchor="middle" x="440.5" y="-276.5" font-family="Helvetica,sans-Serif" font-size="10.00">/exceptions.hpp</text>
</a>
</g>
</g>
<!-- Node1&#45;&gt;Node4 -->
<g id="edge3_Node000001_Node000004" class="edge">
<title>Node1&#45;&gt;Node4</title>
<g id="a_edge3_Node000001_Node000004"><a xlink:title=" ">
<path fill="none" stroke="#63b8ff" d="M640.12,-340.95C607.47,-332.04 554.88,-317.64 509.5,-305 506.38,-304.13 503.19,-303.24 499.96,-302.33"/>
<polygon fill="#63b8ff" stroke="#63b8ff" points="500.81,-298.94 490.24,-299.6 498.92,-305.68 500.81,-298.94"/>
</a>
</g>
</g>
<!-- Node21 -->
<g id="Node000021" class="node">
<title>Node21</title>
<g id="a_Node000021"><a xlink:href="Size_8hpp.html" target="_top" xlink:title=" ">
<polygon fill="white" stroke="#666666" points="666.5,-305 518.5,-305 518.5,-264 666.5,-264 666.5,-305"/>
<text text-anchor="start" x="526.5" y="-293" font-family="Helvetica,sans-Serif" font-size="10.00">packages/compile_time</text>
<text text-anchor="start" x="526.5" y="-282" font-family="Helvetica,sans-Serif" font-size="10.00">/packages/parameter_pack</text>
<text text-anchor="middle" x="592.5" y="-271" font-family="Helvetica,sans-Serif" font-size="10.00">/inc/Size.hpp</text>
</a>
</g>
</g>
<!-- Node1&#45;&gt;Node21 -->
<g id="edge23_Node000001_Node000021" class="edge">
<title>Node1&#45;&gt;Node21</title>
<g id="a_edge23_Node000001_Node000021"><a xlink:title=" ">
<path fill="none" stroke="#63b8ff" d="M660.85,-340.87C651.5,-333.3 637.41,-321.89 624.45,-311.39"/>
<polygon fill="#63b8ff" stroke="#63b8ff" points="626.55,-308.58 616.58,-305.01 622.15,-314.02 626.55,-308.58"/>
</a>
</g>
</g>
<!-- Node22 -->
<g id="Node000022" class="node">
<title>Node22</title>
<g id="a_Node000022"><a xlink:href="functional_8hpp.html" target="_top" xlink:title=" ">
<polygon fill="white" stroke="#666666" points="816.5,-305 684.5,-305 684.5,-264 816.5,-264 816.5,-305"/>
<text text-anchor="start" x="692.5" y="-293" font-family="Helvetica,sans-Serif" font-size="10.00">packages/compile_time</text>
<text text-anchor="start" x="692.5" y="-282" font-family="Helvetica,sans-Serif" font-size="10.00">/packages/concepts/inc</text>
<text text-anchor="middle" x="750.5" y="-271" font-family="Helvetica,sans-Serif" font-size="10.00">/functional.hpp</text>
</a>
</g>
</g>
<!-- Node1&#45;&gt;Node22 -->
<g id="edge25_Node000001_Node000022" class="edge">
<title>Node1&#45;&gt;Node22</title>
<g id="a_edge25_Node000001_Node000022"><a xlink:title=" ">
<path fill="none" stroke="#63b8ff" d="M682.15,-340.87C691.5,-333.3 705.59,-321.89 718.55,-311.39"/>
<polygon fill="#63b8ff" stroke="#63b8ff" points="720.85,-314.02 726.42,-305.01 716.45,-308.58 720.85,-314.02"/>
</a>
</g>
</g>
<!-- Node25 -->
<g id="Node000025" class="node">
<title>Node25</title>
<g id="a_Node000025"><a xlink:title=" ">
<polygon fill="#e0e0e0" stroke="#999999" points="903,-156.5 862,-156.5 862,-137.5 903,-137.5 903,-156.5"/>
<text text-anchor="middle" x="882.5" y="-144.5" font-family="Helvetica,sans-Serif" font-size="10.00">tuple</text>
</a>
</g>
</g>
<!-- Node1&#45;&gt;Node25 -->
<g id="edge34_Node000001_Node000025" class="edge">
<title>Node1&#45;&gt;Node25</title>
<g id="a_edge34_Node000001_Node000025"><a xlink:title=" ">
<path fill="none" stroke="#63b8ff" d="M732.51,-343.6C763.27,-337.92 799.46,-326.79 825.5,-305 867.67,-269.71 878.64,-200.55 881.5,-167.06"/>
<polygon fill="#63b8ff" stroke="#63b8ff" points="885.01,-167.04 882.21,-156.82 878.02,-166.56 885.01,-167.04"/>
</a>
</g>
</g>
<!-- Node26 -->
<g id="Node000026" class="node">
<title>Node26</title>
<g id="a_Node000026"><a xlink:title=" ">
<polygon fill="#e0e0e0" stroke="#999999" points="1125,-305 948,-305 948,-264 1125,-264 1125,-305"/>
<text text-anchor="start" x="956" y="-293" font-family="Helvetica,sans-Serif" font-size="10.00">packages/compile_time</text>
<text text-anchor="start" x="956" y="-282" font-family="Helvetica,sans-Serif" font-size="10.00">/packages/parameter_pack</text>
<text text-anchor="middle" x="1036.5" y="-271" font-family="Helvetica,sans-Serif" font-size="10.00">/impl/ArgumentMapper_impl.hpp</text>
</a>
</g>
</g>
<!-- Node1&#45;&gt;Node26 -->
<g id="edge35_Node000001_Node000026" class="edge">
<title>Node1&#45;&gt;Node26</title>
<g id="a_edge35_Node000001_Node000026"><a xlink:title=" ">
<path fill="none" stroke="#63b8ff" d="M723.95,-340.96C777.08,-332.24 861.58,-318.14 934.5,-305 935.59,-304.8 936.68,-304.61 937.78,-304.41"/>
<polygon fill="#63b8ff" stroke="#63b8ff" points="938.58,-307.82 947.79,-302.58 937.32,-300.93 938.58,-307.82"/>
</a>
</g>
</g>
<!-- Node3 -->
<g id="Node000003" class="node">
<title>Node3</title>
<g id="a_Node000003"><a xlink:title=" ">
<polygon fill="#e0e0e0" stroke="#999999" points="104.5,-156.5 46.5,-156.5 46.5,-137.5 104.5,-137.5 104.5,-156.5"/>
<text text-anchor="middle" x="75.5" y="-144.5" font-family="Helvetica,sans-Serif" font-size="10.00">memory</text>
</a>
</g>
</g>
<!-- Node2&#45;&gt;Node3 -->
<g id="edge2_Node000002_Node000003" class="edge">
<title>Node2&#45;&gt;Node3</title>
<g id="a_edge2_Node000002_Node000003"><a xlink:title=" ">
<path fill="none" stroke="#63b8ff" d="M63.05,-197.8C65.35,-188.6 68.37,-176.53 70.86,-166.58"/>
<polygon fill="#63b8ff" stroke="#63b8ff" points="74.26,-167.39 73.29,-156.84 67.47,-165.7 74.26,-167.39"/>
</a>
</g>
</g>
<!-- Node5 -->
<g id="Node000005" class="node">
<title>Node5</title>
<g id="a_Node000005"><a xlink:href="exception_8hpp.html" target="_top" xlink:title=" ">
<polygon fill="white" stroke="#666666" points="397,-228 278,-228 278,-198 397,-198 397,-228"/>
<text text-anchor="start" x="286" y="-216" font-family="Helvetica,sans-Serif" font-size="10.00">packages/exceptions</text>
<text text-anchor="middle" x="337.5" y="-205" font-family="Helvetica,sans-Serif" font-size="10.00">/inc/exception.hpp</text>
</a>
</g>
</g>
<!-- Node4&#45;&gt;Node5 -->
<g id="edge4_Node000004_Node000005" class="edge">
<title>Node4&#45;&gt;Node5</title>
<g id="a_edge4_Node000004_Node000005"><a xlink:title=" ">
<path fill="none" stroke="#63b8ff" d="M419.66,-269.44C404.44,-259.17 383.61,-245.11 366.73,-233.72"/>
<polygon fill="#63b8ff" stroke="#63b8ff" points="368.56,-230.74 358.31,-228.04 364.64,-236.54 368.56,-230.74"/>
</a>
</g>
</g>
<!-- Node8 -->
<g id="Node000008" class="node">
<title>Node8</title>
<g id="a_Node000008"><a xlink:href="detail_8hpp.html" target="_top" xlink:title=" ">
<polygon fill="white" stroke="#666666" points="319,-30 200,-30 200,0 319,0 319,-30"/>
<text text-anchor="start" x="208" y="-18" font-family="Helvetica,sans-Serif" font-size="10.00">packages/macros/inc</text>
<text text-anchor="middle" x="259.5" y="-7" font-family="Helvetica,sans-Serif" font-size="10.00">/detail.hpp</text>
</a>
</g>
</g>
<!-- Node4&#45;&gt;Node8 -->
<g id="edge20_Node000004_Node000008" class="edge">
<title>Node4&#45;&gt;Node8</title>
<g id="a_edge20_Node000004_Node000008"><a xlink:title=" ">
<path fill="none" stroke="#63b8ff" d="M380.74,-277.57C313.54,-267.2 208.34,-238.91 166.5,-162 151.74,-134.87 187.83,-66.91 188.5,-66 197.48,-53.93 210.24,-43.67 222.48,-35.65"/>
<polygon fill="#63b8ff" stroke="#63b8ff" points="224.59,-38.46 231.24,-30.21 220.89,-32.51 224.59,-38.46"/>
</a>
</g>
</g>
<!-- Node19 -->
<g id="Node000019" class="node">
<title>Node19</title>
<g id="a_Node000019"><a xlink:title=" ">
<polygon fill="#e0e0e0" stroke="#999999" points="471.5,-222.5 415.5,-222.5 415.5,-203.5 471.5,-203.5 471.5,-222.5"/>
<text text-anchor="middle" x="443.5" y="-210.5" font-family="Helvetica,sans-Serif" font-size="10.00">sstream</text>
</a>
</g>
</g>
<!-- Node4&#45;&gt;Node19 -->
<g id="edge21_Node000004_Node000019" class="edge">
<title>Node4&#45;&gt;Node19</title>
<g id="a_edge21_Node000004_Node000019"><a xlink:title=" ">
<path fill="none" stroke="#63b8ff" d="M441.11,-269.44C441.56,-258.96 442.18,-244.55 442.68,-233.05"/>
<polygon fill="#63b8ff" stroke="#63b8ff" points="446.19,-232.91 443.12,-222.77 439.19,-232.61 446.19,-232.91"/>
</a>
</g>
</g>
<!-- Node20 -->
<g id="Node000020" class="node">
<title>Node20</title>
<g id="a_Node000020"><a xlink:title=" ">
<polygon fill="#e0e0e0" stroke="#999999" points="558.5,-222.5 498.5,-222.5 498.5,-203.5 558.5,-203.5 558.5,-222.5"/>
<text text-anchor="middle" x="528.5" y="-210.5" font-family="Helvetica,sans-Serif" font-size="10.00">concepts</text>
</a>
</g>
</g>
<!-- Node4&#45;&gt;Node20 -->
<g id="edge22_Node000004_Node000020" class="edge">
<title>Node4&#45;&gt;Node20</title>
<g id="a_edge22_Node000004_Node000020"><a xlink:title=" ">
<path fill="none" stroke="#63b8ff" d="M458.31,-269.44C473.09,-257.76 494.06,-241.2 509.23,-229.22"/>
<polygon fill="#63b8ff" stroke="#63b8ff" points="511.72,-231.71 517.4,-222.77 507.38,-226.22 511.72,-231.71"/>
</a>
</g>
</g>
<!-- Node5&#45;&gt;Node3 -->
<g id="edge18_Node000005_Node000003" class="edge">
<title>Node5&#45;&gt;Node3</title>
<g id="a_edge18_Node000005_Node000003"><a xlink:title=" ">
<path fill="none" stroke="#63b8ff" d="M280,-197.95C229.8,-185.69 158.3,-168.23 114.51,-157.53"/>
<polygon fill="#63b8ff" stroke="#63b8ff" points="115.08,-154.06 104.53,-155.09 113.42,-160.86 115.08,-154.06"/>
</a>
</g>
</g>
<!-- Node6 -->
<g id="Node000006" class="node">
<title>Node6</title>
<g id="a_Node000006"><a xlink:href="types_8hpp.html" target="_top" xlink:title=" ">
<polygon fill="white" stroke="#666666" points="637.5,-162 527.5,-162 527.5,-132 637.5,-132 637.5,-162"/>
<text text-anchor="start" x="535.5" y="-150" font-family="Helvetica,sans-Serif" font-size="10.00">packages/types/inc</text>
<text text-anchor="middle" x="582.5" y="-139" font-family="Helvetica,sans-Serif" font-size="10.00">/types.hpp</text>
</a>
</g>
</g>
<!-- Node5&#45;&gt;Node6 -->
<g id="edge5_Node000005_Node000006" class="edge">
<title>Node5&#45;&gt;Node6</title>
<g id="a_edge5_Node000005_Node000006"><a xlink:title=" ">
<path fill="none" stroke="#63b8ff" d="M391.27,-197.95C428.92,-188.12 479.39,-174.93 519.03,-164.58"/>
<polygon fill="#63b8ff" stroke="#63b8ff" points="520.07,-167.93 528.86,-162.01 518.3,-161.15 520.07,-167.93"/>
</a>
</g>
</g>
<!-- Node11 -->
<g id="Node000011" class="node">
<title>Node11</title>
<g id="a_Node000011"><a xlink:title=" ">
<polygon fill="#e0e0e0" stroke="#999999" points="241.5,-90.5 197.5,-90.5 197.5,-71.5 241.5,-71.5 241.5,-90.5"/>
<text text-anchor="middle" x="219.5" y="-78.5" font-family="Helvetica,sans-Serif" font-size="10.00">string</text>
</a>
</g>
</g>
<!-- Node5&#45;&gt;Node11 -->
<g id="edge16_Node000005_Node000011" class="edge">
<title>Node5&#45;&gt;Node11</title>
<g id="a_edge16_Node000005_Node000011"><a xlink:title=" ">
<path fill="none" stroke="#63b8ff" d="M314.43,-197.84C300.68,-188.7 283.44,-175.93 270.5,-162 252.69,-142.83 237.35,-116.66 228.27,-99.54"/>
<polygon fill="#63b8ff" stroke="#63b8ff" points="231.37,-97.92 223.67,-90.64 225.15,-101.13 231.37,-97.92"/>
</a>
</g>
</g>
<!-- Node16 -->
<g id="Node000016" class="node">
<title>Node16</title>
<g id="a_Node000016"><a xlink:title=" ">
<polygon fill="#e0e0e0" stroke="#999999" points="509,-156.5 444,-156.5 444,-137.5 509,-137.5 509,-156.5"/>
<text text-anchor="middle" x="476.5" y="-144.5" font-family="Helvetica,sans-Serif" font-size="10.00">stdexcept</text>
</a>
</g>
</g>
<!-- Node5&#45;&gt;Node16 -->
<g id="edge15_Node000005_Node000016" class="edge">
<title>Node5&#45;&gt;Node16</title>
<g id="a_edge15_Node000005_Node000016"><a xlink:title=" ">
<path fill="none" stroke="#63b8ff" d="M368,-197.95C392.06,-186.88 425.33,-171.56 448.66,-160.82"/>
<polygon fill="#63b8ff" stroke="#63b8ff" points="450.38,-163.88 458,-156.52 447.45,-157.52 450.38,-163.88"/>
</a>
</g>
</g>
<!-- Node17 -->
<g id="Node000017" class="node">
<title>Node17</title>
<g id="a_Node000017"><a xlink:title=" ">
<polygon fill="#e0e0e0" stroke="#999999" points="223,-156.5 176,-156.5 176,-137.5 223,-137.5 223,-156.5"/>
<text text-anchor="middle" x="199.5" y="-144.5" font-family="Helvetica,sans-Serif" font-size="10.00">deque</text>
</a>
</g>
</g>
<!-- Node5&#45;&gt;Node17 -->
<g id="edge17_Node000005_Node000017" class="edge">
<title>Node5&#45;&gt;Node17</title>
<g id="a_edge17_Node000005_Node000017"><a xlink:title=" ">
<path fill="none" stroke="#63b8ff" d="M307.22,-197.95C283.33,-186.88 250.3,-171.56 227.14,-160.82"/>
<polygon fill="#63b8ff" stroke="#63b8ff" points="228.41,-157.55 217.87,-156.52 225.46,-163.9 228.41,-157.55"/>
</a>
</g>
</g>
<!-- Node18 -->
<g id="Node000018" class="node">
<title>Node18</title>
<g id="a_Node000018"><a xlink:title=" ">
<polygon fill="#e0e0e0" stroke="#999999" points="425.5,-162 279.5,-162 279.5,-132 425.5,-132 425.5,-162"/>
<text text-anchor="start" x="287.5" y="-150" font-family="Helvetica,sans-Serif" font-size="10.00">packages/exceptions</text>
<text text-anchor="middle" x="352.5" y="-139" font-family="Helvetica,sans-Serif" font-size="10.00">/impl/exceptions_impl.hpp</text>
</a>
</g>
</g>
<!-- Node5&#45;&gt;Node18 -->
<g id="edge19_Node000005_Node000018" class="edge">
<title>Node5&#45;&gt;Node18</title>
<g id="a_edge19_Node000005_Node000018"><a xlink:title=" ">
<path fill="none" stroke="#63b8ff" d="M340.83,-197.8C342.6,-190.26 344.82,-180.78 346.84,-172.13"/>
<polygon fill="#63b8ff" stroke="#63b8ff" points="350.31,-172.7 349.18,-162.16 343.49,-171.1 350.31,-172.7"/>
</a>
</g>
</g>
<!-- Node7 -->
<g id="Node000007" class="node">
<title>Node7</title>
<g id="a_Node000007"><a xlink:href="debug_8hpp.html" target="_top" xlink:title=" ">
<polygon fill="white" stroke="#666666" points="516,-96 397,-96 397,-66 516,-66 516,-96"/>
<text text-anchor="start" x="405" y="-84" font-family="Helvetica,sans-Serif" font-size="10.00">packages/macros/inc</text>
<text text-anchor="middle" x="456.5" y="-73" font-family="Helvetica,sans-Serif" font-size="10.00">/debug.hpp</text>
</a>
</g>
</g>
<!-- Node6&#45;&gt;Node7 -->
<g id="edge6_Node000006_Node000007" class="edge">
<title>Node6&#45;&gt;Node7</title>
<g id="a_edge6_Node000006_Node000007"><a xlink:title=" ">
<path fill="none" stroke="#63b8ff" d="M554.85,-131.95C536.71,-122.74 512.8,-110.6 493.09,-100.59"/>
<polygon fill="#63b8ff" stroke="#63b8ff" points="494.59,-97.42 484.09,-96.01 491.42,-103.66 494.59,-97.42"/>
</a>
</g>
</g>
<!-- Node10 -->
<g id="Node000010" class="node">
<title>Node10</title>
<g id="a_Node000010"><a xlink:title=" ">
<polygon fill="#e0e0e0" stroke="#999999" points="587,-90.5 534,-90.5 534,-71.5 587,-71.5 587,-90.5"/>
<text text-anchor="middle" x="560.5" y="-78.5" font-family="Helvetica,sans-Serif" font-size="10.00">cstddef</text>
</a>
</g>
</g>
<!-- Node6&#45;&gt;Node10 -->
<g id="edge9_Node000006_Node000010" class="edge">
<title>Node6&#45;&gt;Node10</title>
<g id="a_edge9_Node000006_Node000010"><a xlink:title=" ">
<path fill="none" stroke="#63b8ff" d="M577.62,-131.8C574.46,-122.6 570.31,-110.53 566.89,-100.58"/>
<polygon fill="#63b8ff" stroke="#63b8ff" points="570.1,-99.16 563.54,-90.84 563.48,-101.44 570.1,-99.16"/>
</a>
</g>
</g>
<!-- Node6&#45;&gt;Node11 -->
<g id="edge10_Node000006_Node000011" class="edge">
<title>Node6&#45;&gt;Node11</title>
<g id="a_edge10_Node000006_Node000011"><a xlink:title=" ">
<path fill="none" stroke="#63b8ff" d="M527.24,-133.79C523.95,-133.16 520.68,-132.56 517.5,-132 399.55,-111.38 365.61,-128.99 250.5,-96 248.86,-95.53 247.2,-94.99 245.54,-94.4"/>
<polygon fill="#63b8ff" stroke="#63b8ff" points="246.8,-91.13 236.22,-90.62 244.17,-97.62 246.8,-91.13"/>
</a>
</g>
</g>
<!-- Node12 -->
<g id="Node000012" class="node">
<title>Node12</title>
<g id="a_Node000012"><a xlink:title=" ">
<polygon fill="#e0e0e0" stroke="#999999" points="878,-90.5 809,-90.5 809,-71.5 878,-71.5 878,-90.5"/>
<text text-anchor="middle" x="843.5" y="-78.5" font-family="Helvetica,sans-Serif" font-size="10.00">type_traits</text>
</a>
</g>
</g>
<!-- Node6&#45;&gt;Node12 -->
<g id="edge11_Node000006_Node000012" class="edge">
<title>Node6&#45;&gt;Node12</title>
<g id="a_edge11_Node000006_Node000012"><a xlink:title=" ">
<path fill="none" stroke="#63b8ff" d="M637.94,-134.71C682.21,-125.36 745.68,-111.18 800.5,-96 803.27,-95.23 806.12,-94.4 808.98,-93.54"/>
<polygon fill="#63b8ff" stroke="#63b8ff" points="810.11,-96.85 818.6,-90.52 808.01,-90.17 810.11,-96.85"/>
</a>
</g>
</g>
<!-- Node13 -->
<g id="Node000013" class="node">
<title>Node13</title>
<g id="a_Node000013"><a xlink:title=" ">
<polygon fill="#e0e0e0" stroke="#999999" points="655.5,-90.5 605.5,-90.5 605.5,-71.5 655.5,-71.5 655.5,-90.5"/>
<text text-anchor="middle" x="630.5" y="-78.5" font-family="Helvetica,sans-Serif" font-size="10.00">climits</text>
</a>
</g>
</g>
<!-- Node6&#45;&gt;Node13 -->
<g id="edge12_Node000006_Node000013" class="edge">
<title>Node6&#45;&gt;Node13</title>
<g id="a_edge12_Node000006_Node000013"><a xlink:title=" ">
<path fill="none" stroke="#63b8ff" d="M593.15,-131.8C600.42,-122.11 610.07,-109.24 617.74,-99.01"/>
<polygon fill="#63b8ff" stroke="#63b8ff" points="620.67,-100.94 623.87,-90.84 615.07,-96.74 620.67,-100.94"/>
</a>
</g>
</g>
<!-- Node14 -->
<g id="Node000014" class="node">
<title>Node14</title>
<g id="a_Node000014"><a xlink:title=" ">
<polygon fill="#e0e0e0" stroke="#999999" points="791,-96 674,-96 674,-66 791,-66 791,-96"/>
<text text-anchor="start" x="682" y="-84" font-family="Helvetica,sans-Serif" font-size="10.00">packages/types/impl</text>
<text text-anchor="middle" x="732.5" y="-73" font-family="Helvetica,sans-Serif" font-size="10.00">/types_impl.hpp</text>
</a>
</g>
</g>
<!-- Node6&#45;&gt;Node14 -->
<g id="edge13_Node000006_Node000014" class="edge">
<title>Node6&#45;&gt;Node14</title>
<g id="a_edge13_Node000006_Node000014"><a xlink:title=" ">
<path fill="none" stroke="#63b8ff" d="M615.42,-131.95C637.4,-122.58 666.51,-110.16 690.21,-100.05"/>
<polygon fill="#63b8ff" stroke="#63b8ff" points="691.83,-103.16 699.66,-96.01 689.09,-96.72 691.83,-103.16"/>
</a>
</g>
</g>
<!-- Node15 -->
<g id="Node000015" class="node">
<title>Node15</title>
<g id="a_Node000015"><a xlink:href="logging_8hpp.html" target="_top" xlink:title=" ">
<polygon fill="white" stroke="#666666" points="379,-96 260,-96 260,-66 379,-66 379,-96"/>
<text text-anchor="start" x="268" y="-84" font-family="Helvetica,sans-Serif" font-size="10.00">packages/macros/inc</text>
<text text-anchor="middle" x="319.5" y="-73" font-family="Helvetica,sans-Serif" font-size="10.00">/logging.hpp</text>
</a>
</g>
</g>
<!-- Node6&#45;&gt;Node15 -->
<g id="edge14_Node000006_Node000015" class="edge">
<title>Node6&#45;&gt;Node15</title>
<g id="a_edge14_Node000006_Node000015"><a xlink:title=" ">
<path fill="none" stroke="#63b8ff" d="M527.37,-132.58C486.56,-122.65 430.75,-109.07 387.23,-98.48"/>
<polygon fill="#63b8ff" stroke="#63b8ff" points="387.84,-95.03 377.29,-96.06 386.18,-101.83 387.84,-95.03"/>
</a>
</g>
</g>
<!-- Node7&#45;&gt;Node8 -->
<g id="edge7_Node000007_Node000008" class="edge">
<title>Node7&#45;&gt;Node8</title>
<g id="a_edge7_Node000007_Node000008"><a xlink:title=" ">
<path fill="none" stroke="#63b8ff" d="M413.27,-65.95C383.5,-56.28 343.78,-43.38 312.16,-33.11"/>
<polygon fill="#63b8ff" stroke="#63b8ff" points="313.22,-29.77 302.63,-30.01 311.06,-36.43 313.22,-29.77"/>
</a>
</g>
</g>
<!-- Node9 -->
<g id="Node000009" class="node">
<title>Node9</title>
<g id="a_Node000009"><a xlink:title=" ">
<polygon fill="#e0e0e0" stroke="#999999" points="486.5,-24.5 426.5,-24.5 426.5,-5.5 486.5,-5.5 486.5,-24.5"/>
<text text-anchor="middle" x="456.5" y="-12.5" font-family="Helvetica,sans-Serif" font-size="10.00">iostream</text>
</a>
</g>
</g>
<!-- Node7&#45;&gt;Node9 -->
<g id="edge8_Node000007_Node000009" class="edge">
<title>Node7&#45;&gt;Node9</title>
<g id="a_edge8_Node000007_Node000009"><a xlink:title=" ">
<path fill="none" stroke="#63b8ff" d="M456.5,-65.8C456.5,-56.7 456.5,-44.79 456.5,-34.9"/>
<polygon fill="#63b8ff" stroke="#63b8ff" points="460,-34.84 456.5,-24.84 453,-34.84 460,-34.84"/>
</a>
</g>
</g>
<!-- Node21&#45;&gt;Node6 -->
<g id="edge24_Node000021_Node000006" class="edge">
<title>Node21&#45;&gt;Node6</title>
<g id="a_edge24_Node000021_Node000006"><a xlink:title=" ">
<path fill="none" stroke="#63b8ff" d="M591.05,-263.8C589.26,-239.65 586.24,-198.72 584.31,-172.55"/>
<polygon fill="#63b8ff" stroke="#63b8ff" points="587.78,-172.04 583.56,-162.33 580.8,-172.56 587.78,-172.04"/>
</a>
</g>
</g>
<!-- Node22&#45;&gt;Node12 -->
<g id="edge32_Node000022_Node000012" class="edge">
<title>Node22&#45;&gt;Node12</title>
<g id="a_edge32_Node000022_Node000012"><a xlink:title=" ">
<path fill="none" stroke="#63b8ff" d="M710.6,-263.95C696.88,-255.02 683.08,-243.04 675.5,-228 669.5,-216.09 670.49,-210.36 675.5,-198 697.91,-142.69 763.53,-109.95 805.81,-94.03"/>
<polygon fill="#63b8ff" stroke="#63b8ff" points="807.03,-97.31 815.24,-90.61 804.64,-90.73 807.03,-97.31"/>
</a>
</g>
</g>
<!-- Node22&#45;&gt;Node20 -->
<g id="edge30_Node000022_Node000020" class="edge">
<title>Node22&#45;&gt;Node20</title>
<g id="a_edge30_Node000022_Node000020"><a xlink:title=" ">
<path fill="none" stroke="#63b8ff" d="M688.07,-263.96C648.55,-251.58 598.81,-236.01 565.46,-225.57"/>
<polygon fill="#63b8ff" stroke="#63b8ff" points="566.25,-222.15 555.66,-222.5 564.16,-228.83 566.25,-222.15"/>
</a>
</g>
</g>
<!-- Node23 -->
<g id="Node000023" class="node">
<title>Node23</title>
<g id="a_Node000023"><a xlink:href="FunctionTraits_8hpp.html" target="_top" xlink:title=" ">
<polygon fill="white" stroke="#666666" points="816,-228 685,-228 685,-198 816,-198 816,-228"/>
<text text-anchor="start" x="693" y="-216" font-family="Helvetica,sans-Serif" font-size="10.00">packages/stl_extension</text>
<text text-anchor="middle" x="750.5" y="-205" font-family="Helvetica,sans-Serif" font-size="10.00">/inc/FunctionTraits.hpp</text>
</a>
</g>
</g>
<!-- Node22&#45;&gt;Node23 -->
<g id="edge26_Node000022_Node000023" class="edge">
<title>Node22&#45;&gt;Node23</title>
<g id="a_edge26_Node000022_Node000023"><a xlink:title=" ">
<path fill="none" stroke="#63b8ff" d="M750.5,-263.77C750.5,-255.85 750.5,-246.63 750.5,-238.3"/>
<polygon fill="#63b8ff" stroke="#63b8ff" points="754,-238.04 750.5,-228.04 747,-238.04 754,-238.04"/>
</a>
</g>
</g>
<!-- Node24 -->
<g id="Node000024" class="node">
<title>Node24</title>
<g id="a_Node000024"><a xlink:title=" ">
<polygon fill="#e0e0e0" stroke="#999999" points="814,-156.5 749,-156.5 749,-137.5 814,-137.5 814,-156.5"/>
<text text-anchor="middle" x="781.5" y="-144.5" font-family="Helvetica,sans-Serif" font-size="10.00">functional</text>
</a>
</g>
</g>
<!-- Node22&#45;&gt;Node24 -->
<g id="edge31_Node000022_Node000024" class="edge">
<title>Node22&#45;&gt;Node24</title>
<g id="a_edge31_Node000022_Node000024"><a xlink:title=" ">
<path fill="none" stroke="#63b8ff" d="M790.4,-263.95C804.12,-255.02 817.92,-243.04 825.5,-228 836.97,-205.25 816.7,-179.54 800.02,-163.55"/>
<polygon fill="#63b8ff" stroke="#63b8ff" points="802.04,-160.65 792.27,-156.53 797.34,-165.84 802.04,-160.65"/>
</a>
</g>
</g>
<!-- Node22&#45;&gt;Node25 -->
<g id="edge33_Node000022_Node000025" class="edge">
<title>Node22&#45;&gt;Node25</title>
<g id="a_edge33_Node000022_Node000025"><a xlink:title=" ">
<path fill="none" stroke="#63b8ff" d="M792.4,-263.83C808.84,-254.64 826.97,-242.49 840.5,-228 857.43,-209.86 869.47,-183.6 876.2,-166.17"/>
<polygon fill="#63b8ff" stroke="#63b8ff" points="879.55,-167.21 879.71,-156.62 872.98,-164.8 879.55,-167.21"/>
</a>
</g>
</g>
<!-- Node23&#45;&gt;Node6 -->
<g id="edge27_Node000023_Node000006" class="edge">
<title>Node23&#45;&gt;Node6</title>
<g id="a_edge27_Node000023_Node000006"><a xlink:title=" ">
<path fill="none" stroke="#63b8ff" d="M713.63,-197.95C688.68,-188.45 655.54,-175.82 628.81,-165.64"/>
<polygon fill="#63b8ff" stroke="#63b8ff" points="629.87,-162.3 619.28,-162.01 627.38,-168.84 629.87,-162.3"/>
</a>
</g>
</g>
<!-- Node23&#45;&gt;Node24 -->
<g id="edge28_Node000023_Node000024" class="edge">
<title>Node23&#45;&gt;Node24</title>
<g id="a_edge28_Node000023_Node000024"><a xlink:title=" ">
<path fill="none" stroke="#63b8ff" d="M757.38,-197.8C761.93,-188.41 767.93,-176.02 772.81,-165.95"/>
<polygon fill="#63b8ff" stroke="#63b8ff" points="776.01,-167.37 777.22,-156.84 769.71,-164.32 776.01,-167.37"/>
</a>
</g>
</g>
<!-- Node23&#45;&gt;Node25 -->
<g id="edge29_Node000023_Node000025" class="edge">
<title>Node23&#45;&gt;Node25</title>
<g id="a_edge29_Node000023_Node000025"><a xlink:title=" ">
<path fill="none" stroke="#63b8ff" d="M779.47,-197.95C802.21,-186.93 833.62,-171.7 855.77,-160.96"/>
<polygon fill="#63b8ff" stroke="#63b8ff" points="857.46,-164.03 864.93,-156.52 854.41,-157.73 857.46,-164.03"/>
</a>
</g>
</g>
</g>
</svg>
