<?xml version="1.0" encoding="UTF-8" standalone="no"?>
<!DOCTYPE svg PUBLIC "-//W3C//DTD SVG 1.1//EN"
 "http://www.w3.org/Graphics/SVG/1.1/DTD/svg11.dtd">
<!-- Generated by graphviz version 2.43.0 (0)
 -->
<!-- Title: assertions.hpp Pages: 1 -->
<svg width="959pt" height="296pt"
 viewBox="0.00 0.00 958.50 296.00" xmlns="http://www.w3.org/2000/svg" xmlns:xlink="http://www.w3.org/1999/xlink">
<g id="graph0" class="graph" transform="scale(1 1) rotate(0) translate(4 292)">
<title>assertions.hpp</title>
<polygon fill="white" stroke="transparent" points="-4,4 -4,-292 954.5,-292 954.5,4 -4,4"/>
<!-- Node1 -->
<g id="node1" class="node">
<title>Node1</title>
<g id="a_node1"><a xlink:title=" ">
<polygon fill="#bfbfbf" stroke="black" points="708.5,-268.5 708.5,-287.5 796.5,-287.5 796.5,-268.5 708.5,-268.5"/>
<text text-anchor="middle" x="752.5" y="-275.5" font-family="Helvetica,sans-Serif" font-size="10.00">assertions.hpp</text>
</a>
</g>
</g>
<!-- Node2 -->
<g id="node2" class="node">
<title>Node2</title>
<g id="a_node2"><a xlink:href="exception_8hpp.html" target="_top" xlink:title=" ">
<polygon fill="white" stroke="black" points="374,-201.5 374,-231.5 493,-231.5 493,-201.5 374,-201.5"/>
<text text-anchor="start" x="382" y="-219.5" font-family="Helvetica,sans-Serif" font-size="10.00">packages/exceptions</text>
<text text-anchor="middle" x="433.5" y="-208.5" font-family="Helvetica,sans-Serif" font-size="10.00">/inc/exception.hpp</text>
</a>
</g>
</g>
<!-- Node1&#45;&gt;Node2 -->
<g id="edge1" class="edge">
<title>Node1&#45;&gt;Node2</title>
<path fill="none" stroke="midnightblue" d="M708.48,-268.79C655.46,-258.9 565.73,-242.16 503.25,-230.51"/>
<polygon fill="midnightblue" stroke="midnightblue" points="503.55,-227.01 493.08,-228.61 502.27,-233.89 503.55,-227.01"/>
</g>
<!-- Node5 -->
<g id="node5" class="node">
<title>Node5</title>
<g id="a_node5"><a xlink:href="detail_8hpp.html" target="_top" xlink:title=" ">
<polygon fill="white" stroke="black" points="636,-0.5 636,-30.5 755,-30.5 755,-0.5 636,-0.5"/>
<text text-anchor="start" x="644" y="-18.5" font-family="Helvetica,sans-Serif" font-size="10.00">packages/macros/inc</text>
<text text-anchor="middle" x="695.5" y="-7.5" font-family="Helvetica,sans-Serif" font-size="10.00">/detail.hpp</text>
</a>
</g>
</g>
<!-- Node1&#45;&gt;Node5 -->
<g id="edge17" class="edge">
<title>Node1&#45;&gt;Node5</title>
<path fill="none" stroke="midnightblue" d="M759.13,-268.27C765.27,-259.61 773.96,-245.67 777.5,-232 780.96,-218.66 778.92,-214.7 777.5,-201 774.37,-170.74 774.37,-162.41 763.5,-134 750.05,-98.82 726.89,-61.78 711.39,-38.91"/>
<polygon fill="midnightblue" stroke="midnightblue" points="714.22,-36.84 705.67,-30.59 708.45,-40.81 714.22,-36.84"/>
</g>
<!-- Node8 -->
<g id="node8" class="node">
<title>Node8</title>
<g id="a_node8"><a xlink:title=" ">
<polygon fill="white" stroke="#bfbfbf" points="636.5,-73 636.5,-92 680.5,-92 680.5,-73 636.5,-73"/>
<text text-anchor="middle" x="658.5" y="-80" font-family="Helvetica,sans-Serif" font-size="10.00">string</text>
</a>
</g>
</g>
<!-- Node1&#45;&gt;Node8 -->
<g id="edge22" class="edge">
<title>Node1&#45;&gt;Node8</title>
<path fill="none" stroke="midnightblue" d="M708.24,-271.47C683.58,-265.88 654.85,-254.63 639.5,-232 612.23,-191.78 634.92,-131.11 649.15,-101.3"/>
<polygon fill="midnightblue" stroke="midnightblue" points="652.39,-102.64 653.73,-92.13 646.13,-99.51 652.39,-102.64"/>
</g>
<!-- Node17 -->
<g id="node17" class="node">
<title>Node17</title>
<g id="a_node17"><a xlink:href="cmake__variables_8hpp.html" target="_top" xlink:title=" ">
<polygon fill="white" stroke="black" points="648.5,-207 648.5,-226 768.5,-226 768.5,-207 648.5,-207"/>
<text text-anchor="middle" x="708.5" y="-214" font-family="Helvetica,sans-Serif" font-size="10.00">cmake_variables.hpp</text>
</a>
</g>
</g>
<!-- Node1&#45;&gt;Node17 -->
<g id="edge18" class="edge">
<title>Node1&#45;&gt;Node17</title>
<path fill="none" stroke="midnightblue" d="M746.2,-268.48C739.6,-259.55 729.06,-245.31 720.81,-234.14"/>
<polygon fill="midnightblue" stroke="midnightblue" points="723.55,-231.97 714.79,-226.01 717.92,-236.13 723.55,-231.97"/>
</g>
<!-- Node19 -->
<g id="node19" class="node">
<title>Node19</title>
<g id="a_node19"><a xlink:title=" ">
<polygon fill="white" stroke="#bfbfbf" points="824.5,-207 824.5,-226 880.5,-226 880.5,-207 824.5,-207"/>
<text text-anchor="middle" x="852.5" y="-214" font-family="Helvetica,sans-Serif" font-size="10.00">sstream</text>
</a>
</g>
</g>
<!-- Node1&#45;&gt;Node19 -->
<g id="edge21" class="edge">
<title>Node1&#45;&gt;Node19</title>
<path fill="none" stroke="midnightblue" d="M766.83,-268.48C783.16,-258.75 810.1,-242.73 829.41,-231.24"/>
<polygon fill="midnightblue" stroke="midnightblue" points="831.39,-234.13 838.2,-226.01 827.82,-228.11 831.39,-234.13"/>
</g>
<!-- Node20 -->
<g id="node20" class="node">
<title>Node20</title>
<g id="a_node20"><a xlink:title=" ">
<polygon fill="white" stroke="#bfbfbf" points="898.5,-207 898.5,-226 950.5,-226 950.5,-207 898.5,-207"/>
<text text-anchor="middle" x="924.5" y="-214" font-family="Helvetica,sans-Serif" font-size="10.00">cassert</text>
</a>
</g>
</g>
<!-- Node1&#45;&gt;Node20 -->
<g id="edge23" class="edge">
<title>Node1&#45;&gt;Node20</title>
<path fill="none" stroke="midnightblue" d="M780.53,-268.47C808.37,-259.85 852.18,-245.84 889.5,-232 891.35,-231.31 893.25,-230.59 895.15,-229.85"/>
<polygon fill="midnightblue" stroke="midnightblue" points="896.64,-233.02 904.61,-226.04 894.03,-226.53 896.64,-233.02"/>
</g>
<!-- Node3 -->
<g id="node3" class="node">
<title>Node3</title>
<g id="a_node3"><a xlink:href="types_8hpp.html" target="_top" xlink:title=" ">
<polygon fill="white" stroke="black" points="295.5,-134.5 295.5,-164.5 405.5,-164.5 405.5,-134.5 295.5,-134.5"/>
<text text-anchor="start" x="303.5" y="-152.5" font-family="Helvetica,sans-Serif" font-size="10.00">packages/types/inc</text>
<text text-anchor="middle" x="350.5" y="-141.5" font-family="Helvetica,sans-Serif" font-size="10.00">/types.hpp</text>
</a>
</g>
</g>
<!-- Node2&#45;&gt;Node3 -->
<g id="edge2" class="edge">
<title>Node2&#45;&gt;Node3</title>
<path fill="none" stroke="midnightblue" d="M415.49,-201.4C404.07,-192.45 389.11,-180.74 376.42,-170.8"/>
<polygon fill="midnightblue" stroke="midnightblue" points="378.51,-167.99 368.47,-164.58 374.19,-173.5 378.51,-167.99"/>
</g>
<!-- Node2&#45;&gt;Node8 -->
<g id="edge13" class="edge">
<title>Node2&#45;&gt;Node8</title>
<path fill="none" stroke="midnightblue" d="M432.53,-201.2C432.13,-182.96 434.4,-151.65 452.5,-134 509.04,-78.86 551.41,-122.45 626.5,-98 628.37,-97.39 630.28,-96.71 632.18,-95.97"/>
<polygon fill="midnightblue" stroke="midnightblue" points="633.65,-99.15 641.51,-92.04 630.93,-92.7 633.65,-99.15"/>
</g>
<!-- Node13 -->
<g id="node13" class="node">
<title>Node13</title>
<g id="a_node13"><a xlink:title=" ">
<polygon fill="white" stroke="#bfbfbf" points="462,-140 462,-159 527,-159 527,-140 462,-140"/>
<text text-anchor="middle" x="494.5" y="-147" font-family="Helvetica,sans-Serif" font-size="10.00">stdexcept</text>
</a>
</g>
</g>
<!-- Node2&#45;&gt;Node13 -->
<g id="edge12" class="edge">
<title>Node2&#45;&gt;Node13</title>
<path fill="none" stroke="midnightblue" d="M446.74,-201.4C456.34,-191.16 469.35,-177.3 479.37,-166.62"/>
<polygon fill="midnightblue" stroke="midnightblue" points="482.05,-168.88 486.34,-159.19 476.95,-164.09 482.05,-168.88"/>
</g>
<!-- Node14 -->
<g id="node14" class="node">
<title>Node14</title>
<g id="a_node14"><a xlink:title=" ">
<polygon fill="white" stroke="#bfbfbf" points="545,-140 545,-159 592,-159 592,-140 545,-140"/>
<text text-anchor="middle" x="568.5" y="-147" font-family="Helvetica,sans-Serif" font-size="10.00">deque</text>
</a>
</g>
</g>
<!-- Node2&#45;&gt;Node14 -->
<g id="edge14" class="edge">
<title>Node2&#45;&gt;Node14</title>
<path fill="none" stroke="midnightblue" d="M462.79,-201.4C486.27,-190.09 518.94,-174.36 541.73,-163.39"/>
<polygon fill="midnightblue" stroke="midnightblue" points="543.34,-166.5 550.83,-159.01 540.3,-160.19 543.34,-166.5"/>
</g>
<!-- Node15 -->
<g id="node15" class="node">
<title>Node15</title>
<g id="a_node15"><a xlink:title=" ">
<polygon fill="white" stroke="#bfbfbf" points="55.5,-140 55.5,-159 113.5,-159 113.5,-140 55.5,-140"/>
<text text-anchor="middle" x="84.5" y="-147" font-family="Helvetica,sans-Serif" font-size="10.00">memory</text>
</a>
</g>
</g>
<!-- Node2&#45;&gt;Node15 -->
<g id="edge15" class="edge">
<title>Node2&#45;&gt;Node15</title>
<path fill="none" stroke="midnightblue" d="M373.99,-209.48C310.83,-202.26 208.47,-188.12 122.5,-165 119.84,-164.29 117.11,-163.45 114.4,-162.55"/>
<polygon fill="midnightblue" stroke="midnightblue" points="115.35,-159.18 104.76,-159.1 112.99,-165.77 115.35,-159.18"/>
</g>
<!-- Node16 -->
<g id="node16" class="node">
<title>Node16</title>
<g id="a_node16"><a xlink:title=" ">
<polygon fill="white" stroke="#bfbfbf" points="131.5,-134.5 131.5,-164.5 277.5,-164.5 277.5,-134.5 131.5,-134.5"/>
<text text-anchor="start" x="139.5" y="-152.5" font-family="Helvetica,sans-Serif" font-size="10.00">packages/exceptions</text>
<text text-anchor="middle" x="204.5" y="-141.5" font-family="Helvetica,sans-Serif" font-size="10.00">/impl/exceptions_impl.hpp</text>
</a>
</g>
</g>
<!-- Node2&#45;&gt;Node16 -->
<g id="edge16" class="edge">
<title>Node2&#45;&gt;Node16</title>
<path fill="none" stroke="midnightblue" d="M384.09,-201.48C348.85,-191.47 301.28,-177.97 263.96,-167.38"/>
<polygon fill="midnightblue" stroke="midnightblue" points="264.79,-163.97 254.21,-164.61 262.88,-170.71 264.79,-163.97"/>
</g>
<!-- Node4 -->
<g id="node4" class="node">
<title>Node4</title>
<g id="a_node4"><a xlink:href="debug_8hpp.html" target="_top" xlink:title=" ">
<polygon fill="white" stroke="black" points="428,-67.5 428,-97.5 547,-97.5 547,-67.5 428,-67.5"/>
<text text-anchor="start" x="436" y="-85.5" font-family="Helvetica,sans-Serif" font-size="10.00">packages/macros/inc</text>
<text text-anchor="middle" x="487.5" y="-74.5" font-family="Helvetica,sans-Serif" font-size="10.00">/debug.hpp</text>
</a>
</g>
</g>
<!-- Node3&#45;&gt;Node4 -->
<g id="edge3" class="edge">
<title>Node3&#45;&gt;Node4</title>
<path fill="none" stroke="midnightblue" d="M380.23,-134.4C400.24,-124.9 426.85,-112.28 448.55,-101.98"/>
<polygon fill="midnightblue" stroke="midnightblue" points="450.3,-105.03 457.83,-97.58 447.3,-98.7 450.3,-105.03"/>
</g>
<!-- Node7 -->
<g id="node7" class="node">
<title>Node7</title>
<g id="a_node7"><a xlink:title=" ">
<polygon fill="white" stroke="#bfbfbf" points="565,-73 565,-92 618,-92 618,-73 565,-73"/>
<text text-anchor="middle" x="591.5" y="-80" font-family="Helvetica,sans-Serif" font-size="10.00">cstddef</text>
</a>
</g>
</g>
<!-- Node3&#45;&gt;Node7 -->
<g id="edge6" class="edge">
<title>Node3&#45;&gt;Node7</title>
<path fill="none" stroke="midnightblue" d="M405.51,-135.87C456.31,-124.05 527.94,-106.89 555.5,-98 557.64,-97.31 559.83,-96.55 562.02,-95.76"/>
<polygon fill="midnightblue" stroke="midnightblue" points="563.41,-98.98 571.5,-92.14 560.91,-92.44 563.41,-98.98"/>
</g>
<!-- Node3&#45;&gt;Node8 -->
<g id="edge7" class="edge">
<title>Node3&#45;&gt;Node8</title>
<path fill="none" stroke="midnightblue" d="M405.83,-136.7C410.45,-135.76 415.05,-134.85 419.5,-134 511.21,-116.4 537.26,-125.49 626.5,-98 628.38,-97.42 630.29,-96.76 632.2,-96.04"/>
<polygon fill="midnightblue" stroke="midnightblue" points="633.66,-99.23 641.54,-92.15 630.96,-92.77 633.66,-99.23"/>
</g>
<!-- Node9 -->
<g id="node9" class="node">
<title>Node9</title>
<g id="a_node9"><a xlink:title=" ">
<polygon fill="white" stroke="#bfbfbf" points="0,-73 0,-92 69,-92 69,-73 0,-73"/>
<text text-anchor="middle" x="34.5" y="-80" font-family="Helvetica,sans-Serif" font-size="10.00">type_traits</text>
</a>
</g>
</g>
<!-- Node3&#45;&gt;Node9 -->
<g id="edge8" class="edge">
<title>Node3&#45;&gt;Node9</title>
<path fill="none" stroke="midnightblue" d="M295.38,-135.82C292.38,-135.19 289.4,-134.58 286.5,-134 194.5,-115.63 169.52,-120.74 78.5,-98 75.12,-97.16 71.62,-96.18 68.15,-95.15"/>
<polygon fill="midnightblue" stroke="midnightblue" points="69.11,-91.78 58.52,-92.12 67.01,-98.46 69.11,-91.78"/>
</g>
<!-- Node10 -->
<g id="node10" class="node">
<title>Node10</title>
<g id="a_node10"><a xlink:title=" ">
<polygon fill="white" stroke="#bfbfbf" points="87.5,-73 87.5,-92 137.5,-92 137.5,-73 87.5,-73"/>
<text text-anchor="middle" x="112.5" y="-80" font-family="Helvetica,sans-Serif" font-size="10.00">climits</text>
</a>
</g>
</g>
<!-- Node3&#45;&gt;Node10 -->
<g id="edge9" class="edge">
<title>Node3&#45;&gt;Node10</title>
<path fill="none" stroke="midnightblue" d="M295.24,-135.87C244.68,-124.13 173.75,-107.12 146.5,-98 144.58,-97.36 142.62,-96.66 140.66,-95.92"/>
<polygon fill="midnightblue" stroke="midnightblue" points="141.58,-92.51 131,-92.02 138.97,-99.01 141.58,-92.51"/>
</g>
<!-- Node11 -->
<g id="node11" class="node">
<title>Node11</title>
<g id="a_node11"><a xlink:title=" ">
<polygon fill="white" stroke="#bfbfbf" points="156,-67.5 156,-97.5 273,-97.5 273,-67.5 156,-67.5"/>
<text text-anchor="start" x="164" y="-85.5" font-family="Helvetica,sans-Serif" font-size="10.00">packages/types/impl</text>
<text text-anchor="middle" x="214.5" y="-74.5" font-family="Helvetica,sans-Serif" font-size="10.00">/types_impl.hpp</text>
</a>
</g>
</g>
<!-- Node3&#45;&gt;Node11 -->
<g id="edge10" class="edge">
<title>Node3&#45;&gt;Node11</title>
<path fill="none" stroke="midnightblue" d="M320.99,-134.4C301.12,-124.9 274.71,-112.28 253.16,-101.98"/>
<polygon fill="midnightblue" stroke="midnightblue" points="254.48,-98.73 243.95,-97.58 251.47,-105.05 254.48,-98.73"/>
</g>
<!-- Node12 -->
<g id="node12" class="node">
<title>Node12</title>
<g id="a_node12"><a xlink:href="logging_8hpp.html" target="_top" xlink:title=" ">
<polygon fill="white" stroke="black" points="291,-67.5 291,-97.5 410,-97.5 410,-67.5 291,-67.5"/>
<text text-anchor="start" x="299" y="-85.5" font-family="Helvetica,sans-Serif" font-size="10.00">packages/macros/inc</text>
<text text-anchor="middle" x="350.5" y="-74.5" font-family="Helvetica,sans-Serif" font-size="10.00">/logging.hpp</text>
</a>
</g>
</g>
<!-- Node3&#45;&gt;Node12 -->
<g id="edge11" class="edge">
<title>Node3&#45;&gt;Node12</title>
<path fill="none" stroke="midnightblue" d="M350.5,-134.4C350.5,-126.64 350.5,-116.81 350.5,-107.86"/>
<polygon fill="midnightblue" stroke="midnightblue" points="354,-107.58 350.5,-97.58 347,-107.58 354,-107.58"/>
</g>
<!-- Node4&#45;&gt;Node5 -->
<g id="edge4" class="edge">
<title>Node4&#45;&gt;Node5</title>
<path fill="none" stroke="midnightblue" d="M532.38,-67.48C564.12,-57.56 606.86,-44.2 640.63,-33.65"/>
<polygon fill="midnightblue" stroke="midnightblue" points="641.84,-36.93 650.35,-30.61 639.76,-30.25 641.84,-36.93"/>
</g>
<!-- Node6 -->
<g id="node6" class="node">
<title>Node6</title>
<g id="a_node6"><a xlink:title=" ">
<polygon fill="white" stroke="#bfbfbf" points="457.5,-6 457.5,-25 517.5,-25 517.5,-6 457.5,-6"/>
<text text-anchor="middle" x="487.5" y="-13" font-family="Helvetica,sans-Serif" font-size="10.00">iostream</text>
</a>
</g>
</g>
<!-- Node4&#45;&gt;Node6 -->
<g id="edge5" class="edge">
<title>Node4&#45;&gt;Node6</title>
<path fill="none" stroke="midnightblue" d="M487.5,-67.4C487.5,-58.06 487.5,-45.71 487.5,-35.52"/>
<polygon fill="midnightblue" stroke="midnightblue" points="491,-35.19 487.5,-25.19 484,-35.19 491,-35.19"/>
</g>
<!-- Node17&#45;&gt;Node8 -->
<g id="edge20" class="edge">
<title>Node17&#45;&gt;Node8</title>
<path fill="none" stroke="midnightblue" d="M701.85,-206.67C694.83,-196.94 683.91,-180.61 677.5,-165 669.07,-144.47 663.93,-119.43 661.16,-102.56"/>
<polygon fill="midnightblue" stroke="midnightblue" points="664.57,-101.71 659.61,-92.35 657.65,-102.76 664.57,-101.71"/>
</g>
<!-- Node18 -->
<g id="node18" class="node">
<title>Node18</title>
<g id="a_node18"><a xlink:title=" ">
<polygon fill="white" stroke="#bfbfbf" points="686.5,-140 686.5,-159 754.5,-159 754.5,-140 686.5,-140"/>
<text text-anchor="middle" x="720.5" y="-147" font-family="Helvetica,sans-Serif" font-size="10.00">filesystem</text>
</a>
</g>
</g>
<!-- Node17&#45;&gt;Node18 -->
<g id="edge19" class="edge">
<title>Node17&#45;&gt;Node18</title>
<path fill="none" stroke="midnightblue" d="M710.12,-206.73C711.88,-197.18 714.76,-181.62 717.03,-169.28"/>
<polygon fill="midnightblue" stroke="midnightblue" points="720.53,-169.6 718.91,-159.13 713.65,-168.33 720.53,-169.6"/>
</g>
</g>
</svg>
