<?xml version="1.0" encoding="UTF-8" standalone="no"?>
<!DOCTYPE svg PUBLIC "-//W3C//DTD SVG 1.1//EN"
 "http://www.w3.org/Graphics/SVG/1.1/DTD/svg11.dtd">
<!-- Generated by graphviz version 2.43.0 (0)
 -->
<!-- Title: base.hpp Pages: 1 -->
<!--zoomable 664 -->
<svg id="main" version="1.1" xmlns="http://www.w3.org/2000/svg" xmlns:xlink="http://www.w3.org/1999/xlink" xml:space="preserve" onload="init(evt)">
<style type="text/css"><![CDATA[
.edge:hover path { stroke: red; }
.edge:hover polygon { stroke: red; fill: red; }
]]></style>
<script type="text/javascript"><![CDATA[
var edges = document.getElementsByTagName('g');
if (edges && edges.length) {
  for (var i=0;i<edges.length;i++) {
    if (edges[i].id.substr(0,4)=='edge') {
      edges[i].setAttribute('class','edge');
    }
  }
}
]]></script>
        <defs>
                <circle id="rim" cx="0" cy="0" r="7"/>
                <circle id="rim2" cx="0" cy="0" r="3.5"/>
                <g id="zoomPlus">
                        <use xlink:href="#rim" fill="#404040">
                                <set attributeName="fill" to="#808080" begin="zoomplus.mouseover" end="zoomplus.mouseout"/>
                        </use>
                        <path d="M-4,0h8M0,-4v8" fill="none" stroke="white" stroke-width="1.5" pointer-events="none"/>
                </g>
                <g id="zoomMin">
                        <use xlink:href="#rim" fill="#404040">
                                <set attributeName="fill" to="#808080" begin="zoomminus.mouseover" end="zoomminus.mouseout"/>
                        </use>
                        <path d="M-4,0h8" fill="none" stroke="white" stroke-width="1.5" pointer-events="none"/>
                </g>
                <g id="dirArrow">
                        <path fill="none" stroke="white" stroke-width="1.5" d="M0,-3.0v7 M-2.5,-0.5L0,-3.0L2.5,-0.5"/>
                </g>
               <g id="resetDef">
                       <use xlink:href="#rim2" fill="#404040">
                               <set attributeName="fill" to="#808080" begin="reset.mouseover" end="reset.mouseout"/>
                       </use>
               </g>
        </defs>

<script type="text/javascript">
var viewWidth = 1290;
var viewHeight = 664;
var sectionId = 'dynsection-0';
</script>
<script xlink:href="svgpan.js"/>
<svg id="graph" class="graph">
<g id="viewport">
<title>base.hpp</title>
<polygon fill="white" stroke="transparent" points="-4,4 -4,-660 1285.72,-660 1285.72,4 -4,4"/>
<!-- Node1 -->
<g id="node1" class="node">
<title>Node1</title>
<g id="a_node1"><a xlink:title=" ">
<polygon fill="#bfbfbf" stroke="black" points="1032.22,-636.5 1032.22,-655.5 1093.22,-655.5 1093.22,-636.5 1032.22,-636.5"/>
<text text-anchor="middle" x="1062.72" y="-643.5" font-family="Helvetica,sans-Serif" font-size="10.00">base.hpp</text>
</a>
</g>
</g>
<!-- Node2 -->
<g id="node2" class="node">
<title>Node2</title>
<g id="a_node2"><a xlink:href="basic__concepts_8hpp.html" target="_top" xlink:title=" ">
<polygon fill="white" stroke="black" points="631.72,-201.5 631.72,-242.5 763.72,-242.5 763.72,-201.5 631.72,-201.5"/>
<text text-anchor="start" x="639.72" y="-230.5" font-family="Helvetica,sans-Serif" font-size="10.00">packages/compile_time</text>
<text text-anchor="start" x="639.72" y="-219.5" font-family="Helvetica,sans-Serif" font-size="10.00">/packages/concepts/inc</text>
<text text-anchor="middle" x="697.72" y="-208.5" font-family="Helvetica,sans-Serif" font-size="10.00">/basic_concepts.hpp</text>
</a>
</g>
</g>
<!-- Node1&#45;&gt;Node2 -->
<g id="edge1" class="edge">
<title>Node1&#45;&gt;Node2</title>
<path fill="none" stroke="midnightblue" d="M1031.92,-642.8C932.22,-634.83 624.72,-603.39 624.72,-518.5 624.72,-518.5 624.72,-518.5 624.72,-377 624.72,-329.07 653.96,-280.13 675.43,-250.65"/>
<polygon fill="midnightblue" stroke="midnightblue" points="678.33,-252.61 681.52,-242.51 672.72,-248.42 678.33,-252.61"/>
</g>
<!-- Node3 -->
<g id="node3" class="node">
<title>Node3</title>
<g id="a_node3"><a xlink:href="types_8hpp.html" target="_top" xlink:title=" ">
<polygon fill="white" stroke="black" points="806.72,-134.5 806.72,-164.5 916.72,-164.5 916.72,-134.5 806.72,-134.5"/>
<text text-anchor="start" x="814.72" y="-152.5" font-family="Helvetica,sans-Serif" font-size="10.00">packages/types/inc</text>
<text text-anchor="middle" x="861.72" y="-141.5" font-family="Helvetica,sans-Serif" font-size="10.00">/types.hpp</text>
</a>
</g>
</g>
<!-- Node1&#45;&gt;Node3 -->
<g id="edge16" class="edge">
<title>Node1&#45;&gt;Node3</title>
<path fill="none" stroke="midnightblue" d="M1067.82,-636.45C1079.21,-616.52 1105.72,-565.12 1105.72,-518.5 1105.72,-518.5 1105.72,-518.5 1105.72,-299 1105.72,-254.55 1116.83,-232.75 1085.72,-201 1063.88,-178.7 984.94,-164.79 926.93,-157.34"/>
<polygon fill="midnightblue" stroke="midnightblue" points="927.08,-153.84 916.73,-156.07 926.22,-160.78 927.08,-153.84"/>
</g>
<!-- Node16 -->
<g id="node16" class="node">
<title>Node16</title>
<g id="a_node16"><a xlink:href="StaticArray_8hpp.html" target="_top" xlink:title=" ">
<polygon fill="white" stroke="black" points="903.22,-569.5 903.22,-599.5 1034.22,-599.5 1034.22,-569.5 903.22,-569.5"/>
<text text-anchor="start" x="911.22" y="-587.5" font-family="Helvetica,sans-Serif" font-size="10.00">packages/stl_extension</text>
<text text-anchor="middle" x="968.72" y="-576.5" font-family="Helvetica,sans-Serif" font-size="10.00">/inc/StaticArray.hpp</text>
</a>
</g>
</g>
<!-- Node1&#45;&gt;Node16 -->
<g id="edge17" class="edge">
<title>Node1&#45;&gt;Node16</title>
<path fill="none" stroke="midnightblue" d="M1049.25,-636.48C1036.28,-628.27 1016.21,-615.56 999.35,-604.88"/>
<polygon fill="midnightblue" stroke="midnightblue" points="1001.2,-601.91 990.87,-599.52 997.45,-607.83 1001.2,-601.91"/>
</g>
<!-- Node38 -->
<g id="node38" class="node">
<title>Node38</title>
<g id="a_node38"><a xlink:title=" ">
<polygon fill="white" stroke="#bfbfbf" points="991.72,-508 991.72,-527 1033.72,-527 1033.72,-508 991.72,-508"/>
<text text-anchor="middle" x="1012.72" y="-515" font-family="Helvetica,sans-Serif" font-size="10.00">array</text>
</a>
</g>
</g>
<!-- Node1&#45;&gt;Node38 -->
<g id="edge58" class="edge">
<title>Node1&#45;&gt;Node38</title>
<path fill="none" stroke="midnightblue" d="M1061.25,-636.31C1058.64,-621.92 1052.53,-592.41 1042.72,-569 1037.82,-557.29 1030.59,-545.03 1024.45,-535.52"/>
<polygon fill="midnightblue" stroke="midnightblue" points="1027.27,-533.43 1018.81,-527.05 1021.44,-537.31 1027.27,-533.43"/>
</g>
<!-- Node39 -->
<g id="node39" class="node">
<title>Node39</title>
<g id="a_node39"><a xlink:title=" ">
<polygon fill="white" stroke="#bfbfbf" points="1134.22,-569.5 1134.22,-599.5 1255.22,-599.5 1255.22,-569.5 1134.22,-569.5"/>
<text text-anchor="start" x="1142.22" y="-587.5" font-family="Helvetica,sans-Serif" font-size="10.00">packages/maths/impl</text>
<text text-anchor="middle" x="1194.72" y="-576.5" font-family="Helvetica,sans-Serif" font-size="10.00">/base_impl.hpp</text>
</a>
</g>
</g>
<!-- Node1&#45;&gt;Node39 -->
<g id="edge59" class="edge">
<title>Node1&#45;&gt;Node39</title>
<path fill="none" stroke="midnightblue" d="M1081.63,-636.48C1100.51,-627.96 1130.12,-614.62 1154.3,-603.72"/>
<polygon fill="midnightblue" stroke="midnightblue" points="1155.93,-606.82 1163.61,-599.52 1153.06,-600.44 1155.93,-606.82"/>
</g>
<!-- Node2&#45;&gt;Node3 -->
<g id="edge2" class="edge">
<title>Node2&#45;&gt;Node3</title>
<path fill="none" stroke="midnightblue" d="M743.4,-201.36C767.31,-191.08 796.38,-178.59 819.72,-168.55"/>
<polygon fill="midnightblue" stroke="midnightblue" points="821.21,-171.72 829.01,-164.56 818.45,-165.29 821.21,-171.72"/>
</g>
<!-- Node9 -->
<g id="node9" class="node">
<title>Node9</title>
<g id="a_node9"><a xlink:title=" ">
<polygon fill="white" stroke="#bfbfbf" points="1106.22,-73 1106.22,-92 1175.22,-92 1175.22,-73 1106.22,-73"/>
<text text-anchor="middle" x="1140.72" y="-80" font-family="Helvetica,sans-Serif" font-size="10.00">type_traits</text>
</a>
</g>
</g>
<!-- Node2&#45;&gt;Node9 -->
<g id="edge13" class="edge">
<title>Node2&#45;&gt;Node9</title>
<path fill="none" stroke="midnightblue" d="M764.15,-206.92C809.95,-196.68 872.01,-181.71 925.72,-165 993.15,-144.02 1070.06,-113.12 1111.15,-96.02"/>
<polygon fill="midnightblue" stroke="midnightblue" points="1112.68,-99.18 1120.55,-92.09 1109.98,-92.72 1112.68,-99.18"/>
</g>
<!-- Node13 -->
<g id="node13" class="node">
<title>Node13</title>
<g id="a_node13"><a xlink:title=" ">
<polygon fill="white" stroke="#bfbfbf" points="596.72,-140 596.72,-159 656.72,-159 656.72,-140 596.72,-140"/>
<text text-anchor="middle" x="626.72" y="-147" font-family="Helvetica,sans-Serif" font-size="10.00">concepts</text>
</a>
</g>
</g>
<!-- Node2&#45;&gt;Node13 -->
<g id="edge12" class="edge">
<title>Node2&#45;&gt;Node13</title>
<path fill="none" stroke="midnightblue" d="M677.94,-201.36C666.83,-190.32 653.13,-176.72 642.7,-166.37"/>
<polygon fill="midnightblue" stroke="midnightblue" points="645.02,-163.74 635.46,-159.17 640.09,-168.7 645.02,-163.74"/>
</g>
<!-- Node14 -->
<g id="node14" class="node">
<title>Node14</title>
<g id="a_node14"><a xlink:title=" ">
<polygon fill="white" stroke="#bfbfbf" points="738.72,-140 738.72,-159 788.72,-159 788.72,-140 738.72,-140"/>
<text text-anchor="middle" x="763.72" y="-147" font-family="Helvetica,sans-Serif" font-size="10.00">cstdint</text>
</a>
</g>
</g>
<!-- Node2&#45;&gt;Node14 -->
<g id="edge14" class="edge">
<title>Node2&#45;&gt;Node14</title>
<path fill="none" stroke="midnightblue" d="M716.11,-201.36C726.34,-190.43 738.92,-176.99 748.58,-166.67"/>
<polygon fill="midnightblue" stroke="midnightblue" points="751.32,-168.87 755.6,-159.17 746.21,-164.08 751.32,-168.87"/>
</g>
<!-- Node15 -->
<g id="node15" class="node">
<title>Node15</title>
<g id="a_node15"><a xlink:title=" ">
<polygon fill="white" stroke="#bfbfbf" points="675.22,-140 675.22,-159 720.22,-159 720.22,-140 675.22,-140"/>
<text text-anchor="middle" x="697.72" y="-147" font-family="Helvetica,sans-Serif" font-size="10.00">utility</text>
</a>
</g>
</g>
<!-- Node2&#45;&gt;Node15 -->
<g id="edge15" class="edge">
<title>Node2&#45;&gt;Node15</title>
<path fill="none" stroke="midnightblue" d="M697.72,-201.36C697.72,-191.3 697.72,-179.1 697.72,-169.18"/>
<polygon fill="midnightblue" stroke="midnightblue" points="701.22,-169.17 697.72,-159.17 694.22,-169.17 701.22,-169.17"/>
</g>
<!-- Node4 -->
<g id="node4" class="node">
<title>Node4</title>
<g id="a_node4"><a xlink:href="debug_8hpp.html" target="_top" xlink:title=" ">
<polygon fill="white" stroke="black" points="898.22,-67.5 898.22,-97.5 1017.22,-97.5 1017.22,-67.5 898.22,-67.5"/>
<text text-anchor="start" x="906.22" y="-85.5" font-family="Helvetica,sans-Serif" font-size="10.00">packages/macros/inc</text>
<text text-anchor="middle" x="957.72" y="-74.5" font-family="Helvetica,sans-Serif" font-size="10.00">/debug.hpp</text>
</a>
</g>
</g>
<!-- Node3&#45;&gt;Node4 -->
<g id="edge3" class="edge">
<title>Node3&#45;&gt;Node4</title>
<path fill="none" stroke="midnightblue" d="M882.55,-134.4C896.01,-125.28 913.72,-113.29 928.57,-103.24"/>
<polygon fill="midnightblue" stroke="midnightblue" points="930.61,-106.08 936.93,-97.58 926.69,-100.28 930.61,-106.08"/>
</g>
<!-- Node7 -->
<g id="node7" class="node">
<title>Node7</title>
<g id="a_node7"><a xlink:title=" ">
<polygon fill="white" stroke="#bfbfbf" points="1035.22,-73 1035.22,-92 1088.22,-92 1088.22,-73 1035.22,-73"/>
<text text-anchor="middle" x="1061.72" y="-80" font-family="Helvetica,sans-Serif" font-size="10.00">cstddef</text>
</a>
</g>
</g>
<!-- Node3&#45;&gt;Node7 -->
<g id="edge6" class="edge">
<title>Node3&#45;&gt;Node7</title>
<path fill="none" stroke="midnightblue" d="M911.23,-134.44C943.96,-124.85 987.68,-111.49 1025.72,-98 1027.63,-97.32 1029.58,-96.61 1031.54,-95.87"/>
<polygon fill="midnightblue" stroke="midnightblue" points="1033.22,-98.97 1041.27,-92.08 1030.69,-92.45 1033.22,-98.97"/>
</g>
<!-- Node8 -->
<g id="node8" class="node">
<title>Node8</title>
<g id="a_node8"><a xlink:title=" ">
<polygon fill="white" stroke="#bfbfbf" points="495.72,-73 495.72,-92 539.72,-92 539.72,-73 495.72,-73"/>
<text text-anchor="middle" x="517.72" y="-80" font-family="Helvetica,sans-Serif" font-size="10.00">string</text>
</a>
</g>
</g>
<!-- Node3&#45;&gt;Node8 -->
<g id="edge7" class="edge">
<title>Node3&#45;&gt;Node8</title>
<path fill="none" stroke="midnightblue" d="M806.62,-135.73C803.61,-135.12 800.63,-134.54 797.72,-134 687.77,-113.63 655.85,-130.03 548.72,-98 546.84,-97.44 544.93,-96.78 543.03,-96.06"/>
<polygon fill="midnightblue" stroke="midnightblue" points="544.35,-92.82 533.78,-92.1 541.6,-99.25 544.35,-92.82"/>
</g>
<!-- Node3&#45;&gt;Node9 -->
<g id="edge8" class="edge">
<title>Node3&#45;&gt;Node9</title>
<path fill="none" stroke="midnightblue" d="M916.73,-138.4C964.61,-129.2 1035.71,-114.56 1096.72,-98 1099.9,-97.14 1103.2,-96.18 1106.48,-95.18"/>
<polygon fill="midnightblue" stroke="midnightblue" points="1107.72,-98.45 1116.19,-92.1 1105.6,-91.78 1107.72,-98.45"/>
</g>
<!-- Node10 -->
<g id="node10" class="node">
<title>Node10</title>
<g id="a_node10"><a xlink:title=" ">
<polygon fill="white" stroke="#bfbfbf" points="557.72,-73 557.72,-92 607.72,-92 607.72,-73 557.72,-73"/>
<text text-anchor="middle" x="582.72" y="-80" font-family="Helvetica,sans-Serif" font-size="10.00">climits</text>
</a>
</g>
</g>
<!-- Node3&#45;&gt;Node10 -->
<g id="edge9" class="edge">
<title>Node3&#45;&gt;Node10</title>
<path fill="none" stroke="midnightblue" d="M806.58,-135.91C803.59,-135.26 800.62,-134.62 797.72,-134 717.5,-116.94 695.08,-122.22 616.72,-98 614.58,-97.34 612.39,-96.59 610.2,-95.78"/>
<polygon fill="midnightblue" stroke="midnightblue" points="611.4,-92.49 600.81,-92.03 608.8,-98.99 611.4,-92.49"/>
</g>
<!-- Node11 -->
<g id="node11" class="node">
<title>Node11</title>
<g id="a_node11"><a xlink:title=" ">
<polygon fill="white" stroke="#bfbfbf" points="626.22,-67.5 626.22,-97.5 743.22,-97.5 743.22,-67.5 626.22,-67.5"/>
<text text-anchor="start" x="634.22" y="-85.5" font-family="Helvetica,sans-Serif" font-size="10.00">packages/types/impl</text>
<text text-anchor="middle" x="684.72" y="-74.5" font-family="Helvetica,sans-Serif" font-size="10.00">/types_impl.hpp</text>
</a>
</g>
</g>
<!-- Node3&#45;&gt;Node11 -->
<g id="edge10" class="edge">
<title>Node3&#45;&gt;Node11</title>
<path fill="none" stroke="midnightblue" d="M823.31,-134.4C796.76,-124.64 761.23,-111.59 732.79,-101.15"/>
<polygon fill="midnightblue" stroke="midnightblue" points="733.65,-97.74 723.05,-97.58 731.23,-104.31 733.65,-97.74"/>
</g>
<!-- Node12 -->
<g id="node12" class="node">
<title>Node12</title>
<g id="a_node12"><a xlink:href="logging_8hpp.html" target="_top" xlink:title=" ">
<polygon fill="white" stroke="black" points="761.22,-67.5 761.22,-97.5 880.22,-97.5 880.22,-67.5 761.22,-67.5"/>
<text text-anchor="start" x="769.22" y="-85.5" font-family="Helvetica,sans-Serif" font-size="10.00">packages/macros/inc</text>
<text text-anchor="middle" x="820.72" y="-74.5" font-family="Helvetica,sans-Serif" font-size="10.00">/logging.hpp</text>
</a>
</g>
</g>
<!-- Node3&#45;&gt;Node12 -->
<g id="edge11" class="edge">
<title>Node3&#45;&gt;Node12</title>
<path fill="none" stroke="midnightblue" d="M852.82,-134.4C847.61,-126.13 840.91,-115.51 834.98,-106.1"/>
<polygon fill="midnightblue" stroke="midnightblue" points="837.9,-104.17 829.6,-97.58 831.97,-107.9 837.9,-104.17"/>
</g>
<!-- Node5 -->
<g id="node5" class="node">
<title>Node5</title>
<g id="a_node5"><a xlink:href="detail_8hpp.html" target="_top" xlink:title=" ">
<polygon fill="white" stroke="black" points="401.22,-0.5 401.22,-30.5 520.22,-30.5 520.22,-0.5 401.22,-0.5"/>
<text text-anchor="start" x="409.22" y="-18.5" font-family="Helvetica,sans-Serif" font-size="10.00">packages/macros/inc</text>
<text text-anchor="middle" x="460.72" y="-7.5" font-family="Helvetica,sans-Serif" font-size="10.00">/detail.hpp</text>
</a>
</g>
</g>
<!-- Node4&#45;&gt;Node5 -->
<g id="edge4" class="edge">
<title>Node4&#45;&gt;Node5</title>
<path fill="none" stroke="midnightblue" d="M897.94,-68.6C894.83,-68.03 891.74,-67.49 888.72,-67 763.13,-46.44 615.5,-30.91 530.55,-22.8"/>
<polygon fill="midnightblue" stroke="midnightblue" points="530.79,-19.31 520.5,-21.85 530.13,-26.27 530.79,-19.31"/>
</g>
<!-- Node6 -->
<g id="node6" class="node">
<title>Node6</title>
<g id="a_node6"><a xlink:title=" ">
<polygon fill="white" stroke="#bfbfbf" points="927.72,-6 927.72,-25 987.72,-25 987.72,-6 927.72,-6"/>
<text text-anchor="middle" x="957.72" y="-13" font-family="Helvetica,sans-Serif" font-size="10.00">iostream</text>
</a>
</g>
</g>
<!-- Node4&#45;&gt;Node6 -->
<g id="edge5" class="edge">
<title>Node4&#45;&gt;Node6</title>
<path fill="none" stroke="midnightblue" d="M957.72,-67.4C957.72,-58.06 957.72,-45.71 957.72,-35.52"/>
<polygon fill="midnightblue" stroke="midnightblue" points="961.22,-35.19 957.72,-25.19 954.22,-35.19 961.22,-35.19"/>
</g>
<!-- Node17 -->
<g id="node17" class="node">
<title>Node17</title>
<g id="a_node17"><a xlink:href="STLContainerBase_8hpp.html" target="_top" xlink:title=" ">
<polygon fill="white" stroke="black" points="742.72,-502.5 742.72,-532.5 888.72,-532.5 888.72,-502.5 742.72,-502.5"/>
<text text-anchor="start" x="750.72" y="-520.5" font-family="Helvetica,sans-Serif" font-size="10.00">packages/stl_extension</text>
<text text-anchor="middle" x="815.72" y="-509.5" font-family="Helvetica,sans-Serif" font-size="10.00">/inc/STLContainerBase.hpp</text>
</a>
</g>
</g>
<!-- Node16&#45;&gt;Node17 -->
<g id="edge18" class="edge">
<title>Node16&#45;&gt;Node17</title>
<path fill="none" stroke="midnightblue" d="M935.52,-569.4C912.87,-559.77 882.66,-546.94 858.24,-536.56"/>
<polygon fill="midnightblue" stroke="midnightblue" points="859.43,-533.27 848.85,-532.58 856.69,-539.71 859.43,-533.27"/>
</g>
<!-- Node16&#45;&gt;Node38 -->
<g id="edge57" class="edge">
<title>Node16&#45;&gt;Node38</title>
<path fill="none" stroke="midnightblue" d="M978.27,-569.4C984.99,-559.46 994.03,-546.11 1001.16,-535.57"/>
<polygon fill="midnightblue" stroke="midnightblue" points="1004.13,-537.44 1006.84,-527.19 998.33,-533.51 1004.13,-537.44"/>
</g>
<!-- Node17&#45;&gt;Node3 -->
<g id="edge32" class="edge">
<title>Node17&#45;&gt;Node3</title>
<path fill="none" stroke="midnightblue" d="M781.03,-502.34C765.76,-494.15 749.35,-482.21 740.72,-466 717.96,-423.24 728.03,-403.75 740.72,-357 760.77,-283.12 814.63,-208.63 843.25,-172.67"/>
<polygon fill="midnightblue" stroke="midnightblue" points="846.06,-174.76 849.62,-164.78 840.61,-170.37 846.06,-174.76"/>
</g>
<!-- Node18 -->
<g id="node18" class="node">
<title>Node18</title>
<g id="a_node18"><a xlink:href="container__concepts_8hpp.html" target="_top" xlink:title=" ">
<polygon fill="white" stroke="black" points="864.22,-357.5 864.22,-398.5 999.22,-398.5 999.22,-357.5 864.22,-357.5"/>
<text text-anchor="start" x="872.22" y="-386.5" font-family="Helvetica,sans-Serif" font-size="10.00">packages/compile_time</text>
<text text-anchor="start" x="872.22" y="-375.5" font-family="Helvetica,sans-Serif" font-size="10.00">/packages/concepts/inc</text>
<text text-anchor="middle" x="931.72" y="-364.5" font-family="Helvetica,sans-Serif" font-size="10.00">/container_concepts.hpp</text>
</a>
</g>
</g>
<!-- Node17&#45;&gt;Node18 -->
<g id="edge19" class="edge">
<title>Node17&#45;&gt;Node18</title>
<path fill="none" stroke="midnightblue" d="M888.9,-511.55C919.97,-505.39 953.41,-492.49 972.72,-466 986.03,-447.75 973.82,-424.49 959.35,-406.61"/>
<polygon fill="midnightblue" stroke="midnightblue" points="961.81,-404.1 952.62,-398.82 956.51,-408.68 961.81,-404.1"/>
</g>
<!-- Node25 -->
<g id="node25" class="node">
<title>Node25</title>
<g id="a_node25"><a xlink:href="typedefs_8hpp.html" target="_top" xlink:title=" ">
<polygon fill="white" stroke="black" points="197.22,-435.5 197.22,-465.5 316.22,-465.5 316.22,-435.5 197.22,-435.5"/>
<text text-anchor="start" x="205.22" y="-453.5" font-family="Helvetica,sans-Serif" font-size="10.00">packages/macros/inc</text>
<text text-anchor="middle" x="256.72" y="-442.5" font-family="Helvetica,sans-Serif" font-size="10.00">/typedefs.hpp</text>
</a>
</g>
</g>
<!-- Node17&#45;&gt;Node25 -->
<g id="edge30" class="edge">
<title>Node17&#45;&gt;Node25</title>
<path fill="none" stroke="midnightblue" d="M742.64,-508C634.41,-495.42 432.89,-471.98 326.56,-459.62"/>
<polygon fill="midnightblue" stroke="midnightblue" points="326.91,-456.14 316.57,-458.46 326.1,-463.09 326.91,-456.14"/>
</g>
<!-- Node26 -->
<g id="node26" class="node">
<title>Node26</title>
<g id="a_node26"><a xlink:href="exceptions_8hpp.html" target="_top" xlink:title=" ">
<polygon fill="white" stroke="black" points="263.22,-285 263.22,-315 382.22,-315 382.22,-285 263.22,-285"/>
<text text-anchor="start" x="271.22" y="-303" font-family="Helvetica,sans-Serif" font-size="10.00">packages/macros/inc</text>
<text text-anchor="middle" x="322.72" y="-292" font-family="Helvetica,sans-Serif" font-size="10.00">/exceptions.hpp</text>
</a>
</g>
</g>
<!-- Node17&#45;&gt;Node26 -->
<g id="edge33" class="edge">
<title>Node17&#45;&gt;Node26</title>
<path fill="none" stroke="midnightblue" d="M759.34,-502.5C688.95,-483.89 565.86,-447.62 467.72,-399 423.06,-376.87 376.1,-342.87 348.13,-321.29"/>
<polygon fill="midnightblue" stroke="midnightblue" points="350.12,-318.4 340.08,-315.02 345.81,-323.93 350.12,-318.4"/>
</g>
<!-- Node32 -->
<g id="node32" class="node">
<title>Node32</title>
<g id="a_node32"><a xlink:href="resize_8hpp.html" target="_top" xlink:title=" ">
<polygon fill="white" stroke="black" points="750.22,-435.5 750.22,-465.5 881.22,-465.5 881.22,-435.5 750.22,-435.5"/>
<text text-anchor="start" x="758.22" y="-453.5" font-family="Helvetica,sans-Serif" font-size="10.00">packages/stl_extension</text>
<text text-anchor="middle" x="815.72" y="-442.5" font-family="Helvetica,sans-Serif" font-size="10.00">/inc/resize.hpp</text>
</a>
</g>
</g>
<!-- Node17&#45;&gt;Node32 -->
<g id="edge44" class="edge">
<title>Node17&#45;&gt;Node32</title>
<path fill="none" stroke="midnightblue" d="M815.72,-502.4C815.72,-494.64 815.72,-484.81 815.72,-475.86"/>
<polygon fill="midnightblue" stroke="midnightblue" points="819.22,-475.58 815.72,-465.58 812.22,-475.58 819.22,-475.58"/>
</g>
<!-- Node37 -->
<g id="node37" class="node">
<title>Node37</title>
<g id="a_node37"><a xlink:title=" ">
<polygon fill="white" stroke="#bfbfbf" points="899.72,-441 899.72,-460 963.72,-460 963.72,-441 899.72,-441"/>
<text text-anchor="middle" x="931.72" y="-448" font-family="Helvetica,sans-Serif" font-size="10.00">algorithm</text>
</a>
</g>
</g>
<!-- Node17&#45;&gt;Node37 -->
<g id="edge56" class="edge">
<title>Node17&#45;&gt;Node37</title>
<path fill="none" stroke="midnightblue" d="M840.89,-502.4C860.7,-491.29 888.14,-475.92 907.66,-464.98"/>
<polygon fill="midnightblue" stroke="midnightblue" points="909.53,-467.95 916.54,-460.01 906.1,-461.84 909.53,-467.95"/>
</g>
<!-- Node19 -->
<g id="node19" class="node">
<title>Node19</title>
<g id="a_node19"><a xlink:href="iterator__concepts_8hpp.html" target="_top" xlink:title=" ">
<polygon fill="white" stroke="black" points="865.72,-279.5 865.72,-320.5 997.72,-320.5 997.72,-279.5 865.72,-279.5"/>
<text text-anchor="start" x="873.72" y="-308.5" font-family="Helvetica,sans-Serif" font-size="10.00">packages/compile_time</text>
<text text-anchor="start" x="873.72" y="-297.5" font-family="Helvetica,sans-Serif" font-size="10.00">/packages/concepts/inc</text>
<text text-anchor="middle" x="931.72" y="-286.5" font-family="Helvetica,sans-Serif" font-size="10.00">/iterator_concepts.hpp</text>
</a>
</g>
</g>
<!-- Node18&#45;&gt;Node19 -->
<g id="edge20" class="edge">
<title>Node18&#45;&gt;Node19</title>
<path fill="none" stroke="midnightblue" d="M931.72,-357.43C931.72,-349.27 931.72,-339.62 931.72,-330.63"/>
<polygon fill="midnightblue" stroke="midnightblue" points="935.22,-330.51 931.72,-320.51 928.22,-330.51 935.22,-330.51"/>
</g>
<!-- Node19&#45;&gt;Node2 -->
<g id="edge21" class="edge">
<title>Node19&#45;&gt;Node2</title>
<path fill="none" stroke="midnightblue" d="M871.46,-279.43C839.66,-269.1 800.49,-256.38 767.39,-245.63"/>
<polygon fill="midnightblue" stroke="midnightblue" points="768.37,-242.27 757.78,-242.51 766.21,-248.92 768.37,-242.27"/>
</g>
<!-- Node20 -->
<g id="node20" class="node">
<title>Node20</title>
<g id="a_node20"><a xlink:href="Size_8hpp.html" target="_top" xlink:title=" ">
<polygon fill="white" stroke="black" points="857.72,-201.5 857.72,-242.5 1005.72,-242.5 1005.72,-201.5 857.72,-201.5"/>
<text text-anchor="start" x="865.72" y="-230.5" font-family="Helvetica,sans-Serif" font-size="10.00">packages/compile_time</text>
<text text-anchor="start" x="865.72" y="-219.5" font-family="Helvetica,sans-Serif" font-size="10.00">/packages/parameter_pack</text>
<text text-anchor="middle" x="931.72" y="-208.5" font-family="Helvetica,sans-Serif" font-size="10.00">/inc/Size.hpp</text>
</a>
</g>
</g>
<!-- Node19&#45;&gt;Node20 -->
<g id="edge22" class="edge">
<title>Node19&#45;&gt;Node20</title>
<path fill="none" stroke="midnightblue" d="M931.72,-279.43C931.72,-271.27 931.72,-261.62 931.72,-252.63"/>
<polygon fill="midnightblue" stroke="midnightblue" points="935.22,-252.51 931.72,-242.51 928.22,-252.51 935.22,-252.51"/>
</g>
<!-- Node21 -->
<g id="node21" class="node">
<title>Node21</title>
<g id="a_node21"><a xlink:href="Select_8hpp.html" target="_top" xlink:title=" ">
<polygon fill="white" stroke="black" points="1133.72,-201.5 1133.72,-242.5 1281.72,-242.5 1281.72,-201.5 1133.72,-201.5"/>
<text text-anchor="start" x="1141.72" y="-230.5" font-family="Helvetica,sans-Serif" font-size="10.00">packages/compile_time</text>
<text text-anchor="start" x="1141.72" y="-219.5" font-family="Helvetica,sans-Serif" font-size="10.00">/packages/parameter_pack</text>
<text text-anchor="middle" x="1207.72" y="-208.5" font-family="Helvetica,sans-Serif" font-size="10.00">/inc/Select.hpp</text>
</a>
</g>
</g>
<!-- Node19&#45;&gt;Node21 -->
<g id="edge24" class="edge">
<title>Node19&#45;&gt;Node21</title>
<path fill="none" stroke="midnightblue" d="M997.83,-280.8C1036.66,-270.1 1086.02,-256.51 1127.12,-245.19"/>
<polygon fill="midnightblue" stroke="midnightblue" points="1128.13,-248.55 1136.84,-242.52 1126.27,-241.8 1128.13,-248.55"/>
</g>
<!-- Node23 -->
<g id="node23" class="node">
<title>Node23</title>
<g id="a_node23"><a xlink:title=" ">
<polygon fill="white" stroke="#bfbfbf" points="1024.22,-212.5 1024.22,-231.5 1077.22,-231.5 1077.22,-212.5 1024.22,-212.5"/>
<text text-anchor="middle" x="1050.72" y="-219.5" font-family="Helvetica,sans-Serif" font-size="10.00">iterator</text>
</a>
</g>
</g>
<!-- Node19&#45;&gt;Node23 -->
<g id="edge28" class="edge">
<title>Node19&#45;&gt;Node23</title>
<path fill="none" stroke="midnightblue" d="M962.37,-279.43C983.1,-266.18 1010.01,-249 1028.66,-237.09"/>
<polygon fill="midnightblue" stroke="midnightblue" points="1030.79,-239.88 1037.33,-231.55 1027.02,-233.98 1030.79,-239.88"/>
</g>
<!-- Node24 -->
<g id="node24" class="node">
<title>Node24</title>
<g id="a_node24"><a xlink:title=" ">
<polygon fill="white" stroke="#bfbfbf" points="374.72,-140 374.72,-159 432.72,-159 432.72,-140 374.72,-140"/>
<text text-anchor="middle" x="403.72" y="-147" font-family="Helvetica,sans-Serif" font-size="10.00">memory</text>
</a>
</g>
</g>
<!-- Node19&#45;&gt;Node24 -->
<g id="edge29" class="edge">
<title>Node19&#45;&gt;Node24</title>
<path fill="none" stroke="midnightblue" d="M865.61,-293.3C801.93,-286.36 703.61,-271.8 622.72,-243 586.36,-230.05 581.93,-216.81 546.72,-201 512.13,-185.46 471.2,-171.42 442.01,-162.12"/>
<polygon fill="midnightblue" stroke="midnightblue" points="442.8,-158.69 432.21,-159.03 440.69,-165.37 442.8,-158.69"/>
</g>
<!-- Node20&#45;&gt;Node3 -->
<g id="edge23" class="edge">
<title>Node20&#45;&gt;Node3</title>
<path fill="none" stroke="midnightblue" d="M912.22,-201.36C903.16,-192.23 892.35,-181.35 883.07,-172"/>
<polygon fill="midnightblue" stroke="midnightblue" points="885.54,-169.52 876.01,-164.89 880.57,-174.45 885.54,-169.52"/>
</g>
<!-- Node21&#45;&gt;Node3 -->
<g id="edge25" class="edge">
<title>Node21&#45;&gt;Node3</title>
<path fill="none" stroke="midnightblue" d="M1133.34,-203.93C1128.73,-202.92 1124.17,-201.94 1119.72,-201 1054.31,-187.17 979.28,-172.63 927.06,-162.72"/>
<polygon fill="midnightblue" stroke="midnightblue" points="927.41,-159.23 916.93,-160.81 926.1,-166.11 927.41,-159.23"/>
</g>
<!-- Node21&#45;&gt;Node9 -->
<g id="edge26" class="edge">
<title>Node21&#45;&gt;Node9</title>
<path fill="none" stroke="midnightblue" d="M1197.32,-201.4C1191.7,-190.7 1184.71,-177.18 1178.72,-165 1168.1,-143.4 1156.48,-118.24 1148.93,-101.66"/>
<polygon fill="midnightblue" stroke="midnightblue" points="1151.92,-99.78 1144.6,-92.12 1145.54,-102.67 1151.92,-99.78"/>
</g>
<!-- Node22 -->
<g id="node22" class="node">
<title>Node22</title>
<g id="a_node22"><a xlink:title=" ">
<polygon fill="white" stroke="#bfbfbf" points="1187.22,-140 1187.22,-159 1228.22,-159 1228.22,-140 1187.22,-140"/>
<text text-anchor="middle" x="1207.72" y="-147" font-family="Helvetica,sans-Serif" font-size="10.00">tuple</text>
</a>
</g>
</g>
<!-- Node21&#45;&gt;Node22 -->
<g id="edge27" class="edge">
<title>Node21&#45;&gt;Node22</title>
<path fill="none" stroke="midnightblue" d="M1207.72,-201.36C1207.72,-191.3 1207.72,-179.1 1207.72,-169.18"/>
<polygon fill="midnightblue" stroke="midnightblue" points="1211.22,-169.17 1207.72,-159.17 1204.22,-169.17 1211.22,-169.17"/>
</g>
<!-- Node25&#45;&gt;Node24 -->
<g id="edge31" class="edge">
<title>Node25&#45;&gt;Node24</title>
<path fill="none" stroke="midnightblue" d="M243.49,-435.24C207.24,-394.42 112.89,-275.32 172.72,-201 175.75,-197.23 299.46,-171.66 364.56,-158.41"/>
<polygon fill="midnightblue" stroke="midnightblue" points="365.37,-161.82 374.48,-156.4 363.98,-154.96 365.37,-161.82"/>
</g>
<!-- Node26&#45;&gt;Node5 -->
<g id="edge41" class="edge">
<title>Node26&#45;&gt;Node5</title>
<path fill="none" stroke="midnightblue" d="M262.96,-290.79C154.61,-273.42 -56.75,-226.73 14.72,-134 60.45,-74.67 277.57,-39.3 391.13,-24.56"/>
<polygon fill="midnightblue" stroke="midnightblue" points="391.65,-28.02 401.12,-23.28 390.76,-21.08 391.65,-28.02"/>
</g>
<!-- Node26&#45;&gt;Node13 -->
<g id="edge43" class="edge">
<title>Node26&#45;&gt;Node13</title>
<path fill="none" stroke="midnightblue" d="M322.08,-284.97C321.94,-263.54 325.05,-222.85 348.72,-201 382.74,-169.58 517.8,-157.04 586.35,-152.62"/>
<polygon fill="midnightblue" stroke="midnightblue" points="586.59,-156.11 596.36,-152 586.16,-149.12 586.59,-156.11"/>
</g>
<!-- Node27 -->
<g id="node27" class="node">
<title>Node27</title>
<g id="a_node27"><a xlink:href="exception_8hpp.html" target="_top" xlink:title=" ">
<polygon fill="white" stroke="black" points="182.22,-207 182.22,-237 301.22,-237 301.22,-207 182.22,-207"/>
<text text-anchor="start" x="190.22" y="-225" font-family="Helvetica,sans-Serif" font-size="10.00">packages/exceptions</text>
<text text-anchor="middle" x="241.72" y="-214" font-family="Helvetica,sans-Serif" font-size="10.00">/inc/exception.hpp</text>
</a>
</g>
</g>
<!-- Node26&#45;&gt;Node27 -->
<g id="edge34" class="edge">
<title>Node26&#45;&gt;Node27</title>
<path fill="none" stroke="midnightblue" d="M307.49,-284.7C295.38,-273.35 278.26,-257.28 264.52,-244.39"/>
<polygon fill="midnightblue" stroke="midnightblue" points="266.58,-241.52 256.89,-237.23 261.79,-246.63 266.58,-241.52"/>
</g>
<!-- Node31 -->
<g id="node31" class="node">
<title>Node31</title>
<g id="a_node31"><a xlink:title=" ">
<polygon fill="white" stroke="#bfbfbf" points="357.72,-212.5 357.72,-231.5 413.72,-231.5 413.72,-212.5 357.72,-212.5"/>
<text text-anchor="middle" x="385.72" y="-219.5" font-family="Helvetica,sans-Serif" font-size="10.00">sstream</text>
</a>
</g>
</g>
<!-- Node26&#45;&gt;Node31 -->
<g id="edge42" class="edge">
<title>Node26&#45;&gt;Node31</title>
<path fill="none" stroke="midnightblue" d="M334.57,-284.7C345.21,-271.87 360.84,-253.02 372.02,-239.53"/>
<polygon fill="midnightblue" stroke="midnightblue" points="374.93,-241.5 378.62,-231.56 369.55,-237.03 374.93,-241.5"/>
</g>
<!-- Node27&#45;&gt;Node3 -->
<g id="edge35" class="edge">
<title>Node27&#45;&gt;Node3</title>
<path fill="none" stroke="midnightblue" d="M301.25,-208.73C316.66,-205.87 333.27,-203.06 348.72,-201 543.87,-175.01 598.03,-194.52 796.48,-165.04"/>
<polygon fill="midnightblue" stroke="midnightblue" points="797.29,-168.45 806.66,-163.5 796.25,-161.53 797.29,-168.45"/>
</g>
<!-- Node27&#45;&gt;Node8 -->
<g id="edge37" class="edge">
<title>Node27&#45;&gt;Node8</title>
<path fill="none" stroke="midnightblue" d="M264.8,-206.91C282.38,-195.96 307,-180.13 327.72,-165 345.32,-152.15 346.62,-144.5 365.72,-134 404.47,-112.7 453.73,-98.38 485.49,-90.58"/>
<polygon fill="midnightblue" stroke="midnightblue" points="486.63,-93.91 495.55,-88.19 485.01,-87.1 486.63,-93.91"/>
</g>
<!-- Node27&#45;&gt;Node24 -->
<g id="edge39" class="edge">
<title>Node27&#45;&gt;Node24</title>
<path fill="none" stroke="midnightblue" d="M274.11,-206.9C303.52,-194.11 346.48,-175.41 374.77,-163.1"/>
<polygon fill="midnightblue" stroke="midnightblue" points="376.34,-166.23 384.11,-159.03 373.55,-159.81 376.34,-166.23"/>
</g>
<!-- Node28 -->
<g id="node28" class="node">
<title>Node28</title>
<g id="a_node28"><a xlink:title=" ">
<polygon fill="white" stroke="#bfbfbf" points="24.22,-140 24.22,-159 89.22,-159 89.22,-140 24.22,-140"/>
<text text-anchor="middle" x="56.72" y="-147" font-family="Helvetica,sans-Serif" font-size="10.00">stdexcept</text>
</a>
</g>
</g>
<!-- Node27&#45;&gt;Node28 -->
<g id="edge36" class="edge">
<title>Node27&#45;&gt;Node28</title>
<path fill="none" stroke="midnightblue" d="M204.73,-206.9C170.71,-193.94 120.79,-174.92 88.53,-162.62"/>
<polygon fill="midnightblue" stroke="midnightblue" points="89.7,-159.32 79.11,-159.03 87.21,-165.87 89.7,-159.32"/>
</g>
<!-- Node29 -->
<g id="node29" class="node">
<title>Node29</title>
<g id="a_node29"><a xlink:title=" ">
<polygon fill="white" stroke="#bfbfbf" points="107.22,-140 107.22,-159 154.22,-159 154.22,-140 107.22,-140"/>
<text text-anchor="middle" x="130.72" y="-147" font-family="Helvetica,sans-Serif" font-size="10.00">deque</text>
</a>
</g>
</g>
<!-- Node27&#45;&gt;Node29 -->
<g id="edge38" class="edge">
<title>Node27&#45;&gt;Node29</title>
<path fill="none" stroke="midnightblue" d="M219.53,-206.9C200.08,-194.55 171.98,-176.71 152.63,-164.41"/>
<polygon fill="midnightblue" stroke="midnightblue" points="154.47,-161.44 144.16,-159.03 150.72,-167.35 154.47,-161.44"/>
</g>
<!-- Node30 -->
<g id="node30" class="node">
<title>Node30</title>
<g id="a_node30"><a xlink:title=" ">
<polygon fill="white" stroke="#bfbfbf" points="172.72,-134.5 172.72,-164.5 318.72,-164.5 318.72,-134.5 172.72,-134.5"/>
<text text-anchor="start" x="180.72" y="-152.5" font-family="Helvetica,sans-Serif" font-size="10.00">packages/exceptions</text>
<text text-anchor="middle" x="245.72" y="-141.5" font-family="Helvetica,sans-Serif" font-size="10.00">/impl/exceptions_impl.hpp</text>
</a>
</g>
</g>
<!-- Node27&#45;&gt;Node30 -->
<g id="edge40" class="edge">
<title>Node27&#45;&gt;Node30</title>
<path fill="none" stroke="midnightblue" d="M242.53,-206.73C243.05,-197.56 243.74,-185.41 244.35,-174.74"/>
<polygon fill="midnightblue" stroke="midnightblue" points="247.84,-174.93 244.91,-164.75 240.85,-174.53 247.84,-174.93"/>
</g>
<!-- Node32&#45;&gt;Node3 -->
<g id="edge54" class="edge">
<title>Node32&#45;&gt;Node3</title>
<path fill="none" stroke="midnightblue" d="M817,-435.39C820.56,-397.33 831.53,-289.43 848.72,-201 850.42,-192.25 852.74,-182.76 854.94,-174.4"/>
<polygon fill="midnightblue" stroke="midnightblue" points="858.37,-175.11 857.62,-164.55 851.62,-173.28 858.37,-175.11"/>
</g>
<!-- Node32&#45;&gt;Node18 -->
<g id="edge53" class="edge">
<title>Node32&#45;&gt;Node18</title>
<path fill="none" stroke="midnightblue" d="M838.92,-435.4C853.67,-426.44 873.19,-414.58 890.51,-404.04"/>
<polygon fill="midnightblue" stroke="midnightblue" points="892.61,-406.86 899.34,-398.68 888.98,-400.88 892.61,-406.86"/>
</g>
<!-- Node33 -->
<g id="node33" class="node">
<title>Node33</title>
<g id="a_node33"><a xlink:href="checks_8hpp.html" target="_top" xlink:title=" ">
<polygon fill="white" stroke="black" points="477.22,-363 477.22,-393 596.22,-393 596.22,-363 477.22,-363"/>
<text text-anchor="start" x="485.22" y="-381" font-family="Helvetica,sans-Serif" font-size="10.00">packages/macros/inc</text>
<text text-anchor="middle" x="536.72" y="-370" font-family="Helvetica,sans-Serif" font-size="10.00">/checks.hpp</text>
</a>
</g>
</g>
<!-- Node32&#45;&gt;Node33 -->
<g id="edge45" class="edge">
<title>Node32&#45;&gt;Node33</title>
<path fill="none" stroke="midnightblue" d="M760.27,-435.49C714.87,-424.02 650.53,-407.76 602.53,-395.63"/>
<polygon fill="midnightblue" stroke="midnightblue" points="603.1,-392.16 592.55,-393.11 601.39,-398.95 603.1,-392.16"/>
</g>
<!-- Node36 -->
<g id="node36" class="node">
<title>Node36</title>
<g id="a_node36"><a xlink:title=" ">
<polygon fill="white" stroke="#bfbfbf" points="749.72,-368.5 749.72,-387.5 801.72,-387.5 801.72,-368.5 749.72,-368.5"/>
<text text-anchor="middle" x="775.72" y="-375.5" font-family="Helvetica,sans-Serif" font-size="10.00">cassert</text>
</a>
</g>
</g>
<!-- Node32&#45;&gt;Node36 -->
<g id="edge55" class="edge">
<title>Node32&#45;&gt;Node36</title>
<path fill="none" stroke="midnightblue" d="M807.63,-435.23C801.35,-424.17 792.61,-408.77 785.87,-396.88"/>
<polygon fill="midnightblue" stroke="midnightblue" points="788.75,-394.86 780.77,-387.89 782.66,-398.32 788.75,-394.86"/>
</g>
<!-- Node33&#45;&gt;Node5 -->
<g id="edge48" class="edge">
<title>Node33&#45;&gt;Node5</title>
<path fill="none" stroke="midnightblue" d="M510.57,-362.96C495.34,-353.3 477.29,-338.98 467.72,-321 442.05,-272.79 453.25,-104.08 458.53,-40.76"/>
<polygon fill="midnightblue" stroke="midnightblue" points="462.04,-40.8 459.41,-30.54 455.07,-40.2 462.04,-40.8"/>
</g>
<!-- Node33&#45;&gt;Node26 -->
<g id="edge47" class="edge">
<title>Node33&#45;&gt;Node26</title>
<path fill="none" stroke="midnightblue" d="M497.22,-362.97C461.97,-350.45 410.19,-332.06 372.19,-318.57"/>
<polygon fill="midnightblue" stroke="midnightblue" points="372.95,-315.12 362.35,-315.07 370.61,-321.72 372.95,-315.12"/>
</g>
<!-- Node33&#45;&gt;Node27 -->
<g id="edge46" class="edge">
<title>Node33&#45;&gt;Node27</title>
<path fill="none" stroke="midnightblue" d="M477.02,-373.24C403.11,-367.28 283.34,-352.88 253.72,-321 235.47,-301.36 235.04,-269.14 237.47,-247.04"/>
<polygon fill="midnightblue" stroke="midnightblue" points="240.94,-247.48 238.83,-237.1 234.01,-246.54 240.94,-247.48"/>
</g>
<!-- Node33&#45;&gt;Node31 -->
<g id="edge52" class="edge">
<title>Node33&#45;&gt;Node31</title>
<path fill="none" stroke="midnightblue" d="M499.17,-362.97C478.15,-353.63 452.65,-339.63 434.72,-321 412.48,-297.89 398.28,-262.71 391.18,-241.38"/>
<polygon fill="midnightblue" stroke="midnightblue" points="394.45,-240.12 388.11,-231.63 387.77,-242.22 394.45,-240.12"/>
</g>
<!-- Node34 -->
<g id="node34" class="node">
<title>Node34</title>
<g id="a_node34"><a xlink:href="cmake__variables_8hpp.html" target="_top" xlink:title=" ">
<polygon fill="white" stroke="black" points="476.72,-290.5 476.72,-309.5 596.72,-309.5 596.72,-290.5 476.72,-290.5"/>
<text text-anchor="middle" x="536.72" y="-297.5" font-family="Helvetica,sans-Serif" font-size="10.00">cmake_variables.hpp</text>
</a>
</g>
</g>
<!-- Node33&#45;&gt;Node34 -->
<g id="edge49" class="edge">
<title>Node33&#45;&gt;Node34</title>
<path fill="none" stroke="midnightblue" d="M536.72,-362.7C536.72,-350.6 536.72,-333.15 536.72,-319.89"/>
<polygon fill="midnightblue" stroke="midnightblue" points="540.22,-319.56 536.72,-309.56 533.22,-319.56 540.22,-319.56"/>
</g>
<!-- Node34&#45;&gt;Node8 -->
<g id="edge51" class="edge">
<title>Node34&#45;&gt;Node8</title>
<path fill="none" stroke="midnightblue" d="M538.76,-290.33C541.22,-279.38 545.22,-259.92 546.72,-243 548.37,-224.41 548.97,-219.53 546.72,-201 542.38,-165.33 530.9,-124.88 523.75,-101.96"/>
<polygon fill="midnightblue" stroke="midnightblue" points="527.02,-100.67 520.64,-92.21 520.35,-102.8 527.02,-100.67"/>
</g>
<!-- Node35 -->
<g id="node35" class="node">
<title>Node35</title>
<g id="a_node35"><a xlink:title=" ">
<polygon fill="white" stroke="#bfbfbf" points="469.72,-212.5 469.72,-231.5 537.72,-231.5 537.72,-212.5 469.72,-212.5"/>
<text text-anchor="middle" x="503.72" y="-219.5" font-family="Helvetica,sans-Serif" font-size="10.00">filesystem</text>
</a>
</g>
</g>
<!-- Node34&#45;&gt;Node35 -->
<g id="edge50" class="edge">
<title>Node34&#45;&gt;Node35</title>
<path fill="none" stroke="midnightblue" d="M532.94,-290.28C527.76,-278.37 518.36,-256.72 511.62,-241.19"/>
<polygon fill="midnightblue" stroke="midnightblue" points="514.66,-239.4 507.46,-231.62 508.23,-242.18 514.66,-239.4"/>
</g>
</g>
</svg>
        <g id="navigator" transform="translate(0 0)" fill="#404254">
                <rect fill="#f2f5e9" fill-opacity="0.5" stroke="#606060" stroke-width=".5" x="0" y="0" width="60" height="60"/>
                <use id="zoomplus" xlink:href="#zoomPlus" x="17" y="9" onmousedown="handleZoom(evt,'in')"/>
                <use id="zoomminus" xlink:href="#zoomMin" x="42" y="9" onmousedown="handleZoom(evt,'out')"/>
                <use id="reset" xlink:href="#resetDef" x="30" y="36" onmousedown="handleReset()"/>
                <g id="arrowUp" xlink:href="#dirArrow" transform="translate(30 24)" onmousedown="handlePan(0,-1)">
                  <use xlink:href="#rim" fill="#404040">
                        <set attributeName="fill" to="#808080" begin="arrowUp.mouseover" end="arrowUp.mouseout"/>
                  </use>
                  <path fill="none" stroke="white" stroke-width="1.5" d="M0,-3.0v7 M-2.5,-0.5L0,-3.0L2.5,-0.5"/>
                </g>
                <g id="arrowRight" xlink:href="#dirArrow" transform="rotate(90) translate(36 -43)" onmousedown="handlePan(1,0)">
                  <use xlink:href="#rim" fill="#404040">
                        <set attributeName="fill" to="#808080" begin="arrowRight.mouseover" end="arrowRight.mouseout"/>
                  </use>
                  <path fill="none" stroke="white" stroke-width="1.5" d="M0,-3.0v7 M-2.5,-0.5L0,-3.0L2.5,-0.5"/>
                </g>
                <g id="arrowDown" xlink:href="#dirArrow" transform="rotate(180) translate(-30 -48)" onmousedown="handlePan(0,1)">
                  <use xlink:href="#rim" fill="#404040">
                        <set attributeName="fill" to="#808080" begin="arrowDown.mouseover" end="arrowDown.mouseout"/>
                  </use>
                  <path fill="none" stroke="white" stroke-width="1.5" d="M0,-3.0v7 M-2.5,-0.5L0,-3.0L2.5,-0.5"/>
                </g>
                <g id="arrowLeft" xlink:href="#dirArrow" transform="rotate(270) translate(-36 17)" onmousedown="handlePan(-1,0)">
                  <use xlink:href="#rim" fill="#404040">
                        <set attributeName="fill" to="#808080" begin="arrowLeft.mouseover" end="arrowLeft.mouseout"/>
                  </use>
                  <path fill="none" stroke="white" stroke-width="1.5" d="M0,-3.0v7 M-2.5,-0.5L0,-3.0L2.5,-0.5"/>
                </g>
        </g>
        <svg viewBox="0 0 15 15" width="100%" height="30px" preserveAspectRatio="xMaxYMin meet">
         <g id="arrow_out" transform="scale(0.3 0.3)">
          <a xlink:href="base_8hpp__incl_org.svg" target="_base">
           <rect id="button" ry="5" rx="5" y="6" x="6" height="38" width="38"
                fill="#f2f5e9" fill-opacity="0.5" stroke="#606060" stroke-width="1.0"/>
           <path id="arrow"
             d="M 11.500037,31.436501 C 11.940474,20.09759 22.043105,11.32322 32.158766,21.979434 L 37.068811,17.246167 C 37.068811,17.246167 37.088388,32 37.088388,32 L 22.160133,31.978069 C 22.160133,31.978069 26.997745,27.140456 26.997745,27.140456 C 18.528582,18.264221 13.291696,25.230495 11.500037,31.436501 z"
             style="fill:#404040;"/>
          </a>
         </g>
        </svg>
</svg>
