<?xml version="1.0" encoding="UTF-8" standalone="no"?>
<!DOCTYPE svg PUBLIC "-//W3C//DTD SVG 1.1//EN"
 "http://www.w3.org/Graphics/SVG/1.1/DTD/svg11.dtd">
<!-- Generated by graphviz version 2.43.0 (0)
 -->
<!-- Title: base.hpp Pages: 1 -->
<!--zoomable 654 -->

<svg id="main" version="1.1" xmlns="http://www.w3.org/2000/svg" xmlns:xlink="http://www.w3.org/1999/xlink" xml:space="preserve" onload="init(evt)">
<style type="text/css"><![CDATA[
.node, .edge {opacity: 0.7;}
.node.selected, .edge.selected {opacity: 1;}
.edge:hover path { stroke: red; }
.edge:hover polygon { stroke: red; fill: red; }
]]></style>

<defs>
  <circle id="rim" cx="0" cy="0" r="7"/>
  <circle id="rim2" cx="0" cy="0" r="3.5"/>
  <g id="zoomPlus">
    <use xlink:href="#rim" fill="#404040"><set attributeName="fill" to="#808080" begin="zoomplus.mouseover" end="zoomplus.mouseout"/></use>
    <path d="M-4,0h8M0,-4v8" fill="none" stroke="white" stroke-width="1.5" pointer-events="none"/>
  </g>
  <g id="zoomMin">
    <use xlink:href="#rim" fill="#404040"><set attributeName="fill" to="#808080" begin="zoomminus.mouseover" end="zoomminus.mouseout"/></use>
    <path d="M-4,0h8" fill="none" stroke="white" stroke-width="1.5" pointer-events="none"/>
  </g>
  <g id="arrowUp" transform="translate(30 24)">
    <use xlink:href="#rim"/>
    <path pointer-events="none" fill="none" stroke="white" stroke-width="1.5" d="M0,-3.0v7 M-2.5,-0.5L0,-3.0L2.5,-0.5"/>
  </g>
  <g id="arrowRight" transform="rotate(90) translate(36 -43)">
    <use xlink:href="#rim"/>
    <path pointer-events="none" fill="none" stroke="white" stroke-width="1.5" d="M0,-3.0v7 M-2.5,-0.5L0,-3.0L2.5,-0.5"/>
  </g>
  <g id="arrowDown" transform="rotate(180) translate(-30 -48)">
    <use xlink:href="#rim"/>
    <path pointer-events="none" fill="none" stroke="white" stroke-width="1.5" d="M0,-3.0v7 M-2.5,-0.5L0,-3.0L2.5,-0.5"/>
  </g>
  <g id="arrowLeft" transform="rotate(270) translate(-36 17)">
    <use xlink:href="#rim"/>
    <path pointer-events="none" fill="none" stroke="white" stroke-width="1.5" d="M0,-3.0v7 M-2.5,-0.5L0,-3.0L2.5,-0.5"/>
  </g>
  <g id="resetDef">
    <use xlink:href="#rim2" fill="#404040"><set attributeName="fill" to="#808080" begin="reset.mouseover" end="reset.mouseout"/></use>
  </g>
</defs>
<script type="application/ecmascript">
var viewWidth = 1173;
var viewHeight = 654;
var sectionId = 'dynsection-0';
</script>
<script type="application/ecmascript" xlink:href="svg.min.js"/>
<svg id="graph" class="graph">
<g id="viewport">
<title>base.hpp</title>
<!-- Node1 -->
<g id="Node000001" class="node">
<title>Node1</title>
<g id="a_Node000001"><a xlink:title=" ">
<polygon fill="#999999" stroke="#666666" points="505.5,-646 444.5,-646 444.5,-627 505.5,-627 505.5,-646"/>
<text text-anchor="middle" x="475" y="-634" font-family="Helvetica,sans-Serif" font-size="10.00">base.hpp</text>
</a>
</g>
</g>
<!-- Node2 -->
<g id="Node000002" class="node">
<title>Node2</title>
<g id="a_Node000002"><a xlink:href="basic__concepts_8hpp.html" target="_top" xlink:title=" ">
<polygon fill="white" stroke="#666666" points="182,-239 50,-239 50,-198 182,-198 182,-239"/>
<text text-anchor="start" x="58" y="-227" font-family="Helvetica,sans-Serif" font-size="10.00">packages/compile_time</text>
<text text-anchor="start" x="58" y="-216" font-family="Helvetica,sans-Serif" font-size="10.00">/packages/concepts/inc</text>
<text text-anchor="middle" x="116" y="-205" font-family="Helvetica,sans-Serif" font-size="10.00">/basic_concepts.hpp</text>
</a>
</g>
</g>
<!-- Node1&#45;&gt;Node2 -->
<g id="edge1_Node000001_Node000002" class="edge">
<title>Node1&#45;&gt;Node2</title>
<g id="a_edge1_Node000001_Node000002"><a xlink:title=" ">
<path fill="none" stroke="#63b8ff" d="M444.31,-633.73C380.62,-629.55 236.61,-617.39 196,-591 160.44,-567.89 144,-553.41 144,-511 144,-511 144,-511 144,-371.5 144,-328.53 133.05,-279.85 124.84,-249.41"/>
<polygon fill="#63b8ff" stroke="#63b8ff" points="128.12,-248.15 122.08,-239.45 121.38,-250.02 128.12,-248.15"/>
</a>
</g>
</g>
<!-- Node3 -->
<g id="Node000003" class="node">
<title>Node3</title>
<g id="a_Node000003"><a xlink:href="types_8hpp.html" target="_top" xlink:title=" ">
<polygon fill="white" stroke="#666666" points="442,-162 332,-162 332,-132 442,-132 442,-162"/>
<text text-anchor="start" x="340" y="-150" font-family="Helvetica,sans-Serif" font-size="10.00">packages/types/inc</text>
<text text-anchor="middle" x="387" y="-139" font-family="Helvetica,sans-Serif" font-size="10.00">/types.hpp</text>
</a>
</g>
</g>
<!-- Node1&#45;&gt;Node3 -->
<g id="edge16_Node000001_Node000003" class="edge">
<title>Node1&#45;&gt;Node3</title>
<g id="a_edge16_Node000001_Node000003"><a xlink:title=" ">
<path fill="none" stroke="#63b8ff" d="M444.34,-634.91C374.59,-631.79 210,-613.55 210,-511 210,-511 210,-511 210,-294.5 210,-249.17 211.02,-230.13 243,-198 264.03,-176.87 294.44,-164.65 321.9,-157.6"/>
<polygon fill="#63b8ff" stroke="#63b8ff" points="322.95,-160.95 331.86,-155.22 321.33,-154.14 322.95,-160.95"/>
</a>
</g>
</g>
<!-- Node16 -->
<g id="Node000016" class="node">
<title>Node16</title>
<g id="a_Node000016"><a xlink:href="StaticArray_8hpp.html" target="_top" xlink:title=" ">
<polygon fill="white" stroke="#666666" points="540.5,-591 409.5,-591 409.5,-561 540.5,-561 540.5,-591"/>
<text text-anchor="start" x="417.5" y="-579" font-family="Helvetica,sans-Serif" font-size="10.00">packages/stl_extension</text>
<text text-anchor="middle" x="475" y="-568" font-family="Helvetica,sans-Serif" font-size="10.00">/inc/StaticArray.hpp</text>
</a>
</g>
</g>
<!-- Node1&#45;&gt;Node16 -->
<g id="edge17_Node000001_Node000016" class="edge">
<title>Node1&#45;&gt;Node16</title>
<g id="a_edge17_Node000001_Node000016"><a xlink:title=" ">
<path fill="none" stroke="#63b8ff" d="M475,-626.87C475,-620.11 475,-610.35 475,-601.26"/>
<polygon fill="#63b8ff" stroke="#63b8ff" points="478.5,-601.11 475,-591.11 471.5,-601.11 478.5,-601.11"/>
</a>
</g>
</g>
<!-- Node37 -->
<g id="Node000037" class="node">
<title>Node37</title>
<g id="a_Node000037"><a xlink:title=" ">
<polygon fill="#e0e0e0" stroke="#999999" points="608,-519.5 566,-519.5 566,-500.5 608,-500.5 608,-519.5"/>
<text text-anchor="middle" x="587" y="-507.5" font-family="Helvetica,sans-Serif" font-size="10.00">array</text>
</a>
</g>
</g>
<!-- Node1&#45;&gt;Node37 -->
<g id="edge56_Node000001_Node000037" class="edge">
<title>Node1&#45;&gt;Node37</title>
<g id="a_edge56_Node000001_Node000037"><a xlink:title=" ">
<path fill="none" stroke="#63b8ff" d="M496.78,-626.85C513.18,-619.41 535.29,-607.3 550,-591 566.06,-573.2 576.32,-547.22 581.87,-529.74"/>
<polygon fill="#63b8ff" stroke="#63b8ff" points="585.37,-530.24 584.84,-519.66 578.66,-528.26 585.37,-530.24"/>
</a>
</g>
</g>
<!-- Node38 -->
<g id="Node000038" class="node">
<title>Node38</title>
<g id="a_Node000038"><a xlink:title=" ">
<polygon fill="#e0e0e0" stroke="#999999" points="718.5,-591 597.5,-591 597.5,-561 718.5,-561 718.5,-591"/>
<text text-anchor="start" x="605.5" y="-579" font-family="Helvetica,sans-Serif" font-size="10.00">packages/maths/impl</text>
<text text-anchor="middle" x="658" y="-568" font-family="Helvetica,sans-Serif" font-size="10.00">/base_impl.hpp</text>
</a>
</g>
</g>
<!-- Node1&#45;&gt;Node38 -->
<g id="edge57_Node000001_Node000038" class="edge">
<title>Node1&#45;&gt;Node38</title>
<g id="a_edge57_Node000001_Node000038"><a xlink:title=" ">
<path fill="none" stroke="#63b8ff" d="M501.61,-626.99C528.41,-618.43 570.5,-604.97 604.27,-594.18"/>
<polygon fill="#63b8ff" stroke="#63b8ff" points="605.54,-597.44 614,-591.06 603.41,-590.78 605.54,-597.44"/>
</a>
</g>
</g>
<!-- Node2&#45;&gt;Node3 -->
<g id="edge2_Node000002_Node000003" class="edge">
<title>Node2&#45;&gt;Node3</title>
<g id="a_edge2_Node000002_Node000003"><a xlink:title=" ">
<path fill="none" stroke="#63b8ff" d="M182.29,-200.5C224.94,-189.56 280.1,-175.42 322.41,-164.56"/>
<polygon fill="#63b8ff" stroke="#63b8ff" points="323.51,-167.9 332.32,-162.02 321.77,-161.12 323.51,-167.9"/>
</a>
</g>
</g>
<!-- Node9 -->
<g id="Node000009" class="node">
<title>Node9</title>
<g id="a_Node000009"><a xlink:title=" ">
<polygon fill="#e0e0e0" stroke="#999999" points="74.5,-90.5 5.5,-90.5 5.5,-71.5 74.5,-71.5 74.5,-90.5"/>
<text text-anchor="middle" x="40" y="-78.5" font-family="Helvetica,sans-Serif" font-size="10.00">type_traits</text>
</a>
</g>
</g>
<!-- Node2&#45;&gt;Node9 -->
<g id="edge13_Node000002_Node000009" class="edge">
<title>Node2&#45;&gt;Node9</title>
<g id="a_edge13_Node000002_Node000009"><a xlink:title=" ">
<path fill="none" stroke="#63b8ff" d="M123.23,-197.82C128.65,-179.56 133.36,-152.24 122,-132 112.22,-114.58 93.63,-102.51 76.62,-94.61"/>
<polygon fill="#63b8ff" stroke="#63b8ff" points="77.97,-91.38 67.4,-90.63 75.2,-97.8 77.97,-91.38"/>
</a>
</g>
</g>
<!-- Node13 -->
<g id="Node000013" class="node">
<title>Node13</title>
<g id="a_Node000013"><a xlink:title=" ">
<polygon fill="#e0e0e0" stroke="#999999" points="587,-156.5 527,-156.5 527,-137.5 587,-137.5 587,-156.5"/>
<text text-anchor="middle" x="557" y="-144.5" font-family="Helvetica,sans-Serif" font-size="10.00">concepts</text>
</a>
</g>
</g>
<!-- Node2&#45;&gt;Node13 -->
<g id="edge12_Node000002_Node000013" class="edge">
<title>Node2&#45;&gt;Node13</title>
<g id="a_edge12_Node000002_Node000013"><a xlink:title=" ">
<path fill="none" stroke="#63b8ff" d="M182.02,-207.1C274.74,-192.48 440.67,-166.33 516.81,-154.33"/>
<polygon fill="#63b8ff" stroke="#63b8ff" points="517.61,-157.75 526.94,-152.74 516.52,-150.84 517.61,-157.75"/>
</a>
</g>
</g>
<!-- Node14 -->
<g id="Node000014" class="node">
<title>Node14</title>
<g id="a_Node000014"><a xlink:title=" ">
<polygon fill="#e0e0e0" stroke="#999999" points="50,-156.5 0,-156.5 0,-137.5 50,-137.5 50,-156.5"/>
<text text-anchor="middle" x="25" y="-144.5" font-family="Helvetica,sans-Serif" font-size="10.00">cstdint</text>
</a>
</g>
</g>
<!-- Node2&#45;&gt;Node14 -->
<g id="edge14_Node000002_Node000014" class="edge">
<title>Node2&#45;&gt;Node14</title>
<g id="a_edge14_Node000002_Node000014"><a xlink:title=" ">
<path fill="none" stroke="#63b8ff" d="M90.17,-197.77C75.68,-186.71 57.91,-173.13 44.58,-162.96"/>
<polygon fill="#63b8ff" stroke="#63b8ff" points="46.62,-160.11 36.55,-156.82 42.37,-165.67 46.62,-160.11"/>
</a>
</g>
</g>
<!-- Node15 -->
<g id="Node000015" class="node">
<title>Node15</title>
<g id="a_Node000015"><a xlink:title=" ">
<polygon fill="#e0e0e0" stroke="#999999" points="113.5,-156.5 68.5,-156.5 68.5,-137.5 113.5,-137.5 113.5,-156.5"/>
<text text-anchor="middle" x="91" y="-144.5" font-family="Helvetica,sans-Serif" font-size="10.00">utility</text>
</a>
</g>
</g>
<!-- Node2&#45;&gt;Node15 -->
<g id="edge15_Node000002_Node000015" class="edge">
<title>Node2&#45;&gt;Node15</title>
<g id="a_edge15_Node000002_Node000015"><a xlink:title=" ">
<path fill="none" stroke="#63b8ff" d="M108.9,-197.77C105.34,-187.87 101.05,-175.95 97.57,-166.26"/>
<polygon fill="#63b8ff" stroke="#63b8ff" points="100.85,-165.04 94.17,-156.82 94.26,-167.41 100.85,-165.04"/>
</a>
</g>
</g>
<!-- Node4 -->
<g id="Node000004" class="node">
<title>Node4</title>
<g id="a_Node000004"><a xlink:href="debug_8hpp.html" target="_top" xlink:title=" ">
<polygon fill="white" stroke="#666666" points="483.5,-96 364.5,-96 364.5,-66 483.5,-66 483.5,-96"/>
<text text-anchor="start" x="372.5" y="-84" font-family="Helvetica,sans-Serif" font-size="10.00">packages/macros/inc</text>
<text text-anchor="middle" x="424" y="-73" font-family="Helvetica,sans-Serif" font-size="10.00">/debug.hpp</text>
</a>
</g>
</g>
<!-- Node3&#45;&gt;Node4 -->
<g id="edge3_Node000003_Node000004" class="edge">
<title>Node3&#45;&gt;Node4</title>
<g id="a_edge3_Node000003_Node000004"><a xlink:title=" ">
<path fill="none" stroke="#63b8ff" d="M395.21,-131.8C399.76,-123.92 405.53,-113.95 410.71,-104.99"/>
<polygon fill="#63b8ff" stroke="#63b8ff" points="413.84,-106.57 415.81,-96.16 407.78,-103.07 413.84,-106.57"/>
</a>
</g>
</g>
<!-- Node7 -->
<g id="Node000007" class="node">
<title>Node7</title>
<g id="a_Node000007"><a xlink:title=" ">
<polygon fill="#e0e0e0" stroke="#999999" points="554.5,-90.5 501.5,-90.5 501.5,-71.5 554.5,-71.5 554.5,-90.5"/>
<text text-anchor="middle" x="528" y="-78.5" font-family="Helvetica,sans-Serif" font-size="10.00">cstddef</text>
</a>
</g>
</g>
<!-- Node3&#45;&gt;Node7 -->
<g id="edge6_Node000003_Node000007" class="edge">
<title>Node3&#45;&gt;Node7</title>
<g id="a_edge6_Node000003_Node000007"><a xlink:title=" ">
<path fill="none" stroke="#63b8ff" d="M417.94,-131.95C442.45,-120.83 476.39,-105.42 500.08,-94.67"/>
<polygon fill="#63b8ff" stroke="#63b8ff" points="501.58,-97.84 509.24,-90.52 498.68,-91.46 501.58,-97.84"/>
</a>
</g>
</g>
<!-- Node8 -->
<g id="Node000008" class="node">
<title>Node8</title>
<g id="a_Node000008"><a xlink:title=" ">
<polygon fill="#e0e0e0" stroke="#999999" points="685,-90.5 641,-90.5 641,-71.5 685,-71.5 685,-90.5"/>
<text text-anchor="middle" x="663" y="-78.5" font-family="Helvetica,sans-Serif" font-size="10.00">string</text>
</a>
</g>
</g>
<!-- Node3&#45;&gt;Node8 -->
<g id="edge7_Node000003_Node000008" class="edge">
<title>Node3&#45;&gt;Node8</title>
<g id="a_edge7_Node000003_Node000008"><a xlink:title=" ">
<path fill="none" stroke="#63b8ff" d="M442.39,-138.31C492.65,-130.49 568.39,-116.57 632,-96 633.44,-95.53 634.9,-95.02 636.37,-94.48"/>
<polygon fill="#63b8ff" stroke="#63b8ff" points="637.98,-97.6 645.89,-90.55 635.31,-91.13 637.98,-97.6"/>
</a>
</g>
</g>
<!-- Node3&#45;&gt;Node9 -->
<g id="edge8_Node000003_Node000009" class="edge">
<title>Node3&#45;&gt;Node9</title>
<g id="a_edge8_Node000003_Node000009"><a xlink:title=" ">
<path fill="none" stroke="#63b8ff" d="M331.85,-139.49C270.56,-131.66 168.88,-116.91 83,-96 80.04,-95.28 77,-94.46 73.96,-93.58"/>
<polygon fill="#63b8ff" stroke="#63b8ff" points="74.96,-90.23 64.37,-90.65 72.91,-96.92 74.96,-90.23"/>
</a>
</g>
</g>
<!-- Node10 -->
<g id="Node000010" class="node">
<title>Node10</title>
<g id="a_Node000010"><a xlink:title=" ">
<polygon fill="#e0e0e0" stroke="#999999" points="623,-90.5 573,-90.5 573,-71.5 623,-71.5 623,-90.5"/>
<text text-anchor="middle" x="598" y="-78.5" font-family="Helvetica,sans-Serif" font-size="10.00">climits</text>
</a>
</g>
</g>
<!-- Node3&#45;&gt;Node10 -->
<g id="edge9_Node000003_Node000010" class="edge">
<title>Node3&#45;&gt;Node10</title>
<g id="a_edge9_Node000003_Node000010"><a xlink:title=" ">
<path fill="none" stroke="#63b8ff" d="M442.12,-132.18C477.31,-122.93 523.71,-109.93 564,-96 565.62,-95.44 567.27,-94.84 568.93,-94.23"/>
<polygon fill="#63b8ff" stroke="#63b8ff" points="570.33,-97.44 578.37,-90.53 567.78,-90.92 570.33,-97.44"/>
</a>
</g>
</g>
<!-- Node11 -->
<g id="Node000011" class="node">
<title>Node11</title>
<g id="a_Node000011"><a xlink:title=" ">
<polygon fill="#e0e0e0" stroke="#999999" points="209.5,-96 92.5,-96 92.5,-66 209.5,-66 209.5,-96"/>
<text text-anchor="start" x="100.5" y="-84" font-family="Helvetica,sans-Serif" font-size="10.00">packages/types/impl</text>
<text text-anchor="middle" x="151" y="-73" font-family="Helvetica,sans-Serif" font-size="10.00">/types_impl.hpp</text>
</a>
</g>
</g>
<!-- Node3&#45;&gt;Node11 -->
<g id="edge10_Node000003_Node000011" class="edge">
<title>Node3&#45;&gt;Node11</title>
<g id="a_edge10_Node000003_Node000011"><a xlink:title=" ">
<path fill="none" stroke="#63b8ff" d="M335.21,-131.95C299.09,-122.16 250.73,-109.05 212.62,-98.71"/>
<polygon fill="#63b8ff" stroke="#63b8ff" points="213.24,-95.25 202.67,-96.01 211.41,-102.01 213.24,-95.25"/>
</a>
</g>
</g>
<!-- Node12 -->
<g id="Node000012" class="node">
<title>Node12</title>
<g id="a_Node000012"><a xlink:href="logging_8hpp.html" target="_top" xlink:title=" ">
<polygon fill="white" stroke="#666666" points="346.5,-96 227.5,-96 227.5,-66 346.5,-66 346.5,-96"/>
<text text-anchor="start" x="235.5" y="-84" font-family="Helvetica,sans-Serif" font-size="10.00">packages/macros/inc</text>
<text text-anchor="middle" x="287" y="-73" font-family="Helvetica,sans-Serif" font-size="10.00">/logging.hpp</text>
</a>
</g>
</g>
<!-- Node3&#45;&gt;Node12 -->
<g id="edge11_Node000003_Node000012" class="edge">
<title>Node3&#45;&gt;Node12</title>
<g id="a_edge11_Node000003_Node000012"><a xlink:title=" ">
<path fill="none" stroke="#63b8ff" d="M364.81,-131.8C350.95,-122.93 332.93,-111.39 317.71,-101.66"/>
<polygon fill="#63b8ff" stroke="#63b8ff" points="319.44,-98.61 309.13,-96.16 315.67,-104.5 319.44,-98.61"/>
</a>
</g>
</g>
<!-- Node5 -->
<g id="Node000005" class="node">
<title>Node5</title>
<g id="a_Node000005"><a xlink:href="detail_8hpp.html" target="_top" xlink:title=" ">
<polygon fill="white" stroke="#666666" points="772.5,-30 653.5,-30 653.5,0 772.5,0 772.5,-30"/>
<text text-anchor="start" x="661.5" y="-18" font-family="Helvetica,sans-Serif" font-size="10.00">packages/macros/inc</text>
<text text-anchor="middle" x="713" y="-7" font-family="Helvetica,sans-Serif" font-size="10.00">/detail.hpp</text>
</a>
</g>
</g>
<!-- Node4&#45;&gt;Node5 -->
<g id="edge4_Node000004_Node000005" class="edge">
<title>Node4&#45;&gt;Node5</title>
<g id="a_edge4_Node000004_Node000005"><a xlink:title=" ">
<path fill="none" stroke="#63b8ff" d="M483.53,-66.82C529.91,-56.55 594.39,-42.27 643.2,-31.46"/>
<polygon fill="#63b8ff" stroke="#63b8ff" points="644.04,-34.86 653.05,-29.28 642.53,-28.02 644.04,-34.86"/>
</a>
</g>
</g>
<!-- Node6 -->
<g id="Node000006" class="node">
<title>Node6</title>
<g id="a_Node000006"><a xlink:title=" ">
<polygon fill="#e0e0e0" stroke="#999999" points="454,-24.5 394,-24.5 394,-5.5 454,-5.5 454,-24.5"/>
<text text-anchor="middle" x="424" y="-12.5" font-family="Helvetica,sans-Serif" font-size="10.00">iostream</text>
</a>
</g>
</g>
<!-- Node4&#45;&gt;Node6 -->
<g id="edge5_Node000004_Node000006" class="edge">
<title>Node4&#45;&gt;Node6</title>
<g id="a_edge5_Node000004_Node000006"><a xlink:title=" ">
<path fill="none" stroke="#63b8ff" d="M424,-65.8C424,-56.7 424,-44.79 424,-34.9"/>
<polygon fill="#63b8ff" stroke="#63b8ff" points="427.5,-34.84 424,-24.84 420.5,-34.84 427.5,-34.84"/>
</a>
</g>
</g>
<!-- Node17 -->
<g id="Node000017" class="node">
<title>Node17</title>
<g id="a_Node000017"><a xlink:href="STLContainerBase_8hpp.html" target="_top" xlink:title=" ">
<polygon fill="white" stroke="#666666" points="548,-525 402,-525 402,-495 548,-495 548,-525"/>
<text text-anchor="start" x="410" y="-513" font-family="Helvetica,sans-Serif" font-size="10.00">packages/stl_extension</text>
<text text-anchor="middle" x="475" y="-502" font-family="Helvetica,sans-Serif" font-size="10.00">/inc/STLContainerBase.hpp</text>
</a>
</g>
</g>
<!-- Node16&#45;&gt;Node17 -->
<g id="edge18_Node000016_Node000017" class="edge">
<title>Node16&#45;&gt;Node17</title>
<g id="a_edge18_Node000016_Node000017"><a xlink:title=" ">
<path fill="none" stroke="#63b8ff" d="M475,-560.8C475,-553.34 475,-543.99 475,-535.41"/>
<polygon fill="#63b8ff" stroke="#63b8ff" points="478.5,-535.16 475,-525.16 471.5,-535.16 478.5,-535.16"/>
</a>
</g>
</g>
<!-- Node16&#45;&gt;Node37 -->
<g id="edge55_Node000016_Node000037" class="edge">
<title>Node16&#45;&gt;Node37</title>
<g id="a_edge55_Node000016_Node000037"><a xlink:title=" ">
<path fill="none" stroke="#63b8ff" d="M499.58,-560.95C518.53,-550.13 544.58,-535.24 563.3,-524.54"/>
<polygon fill="#63b8ff" stroke="#63b8ff" points="565.15,-527.52 572.09,-519.52 561.68,-521.44 565.15,-527.52"/>
</a>
</g>
</g>
<!-- Node17&#45;&gt;Node3 -->
<g id="edge32_Node000017_Node000003" class="edge">
<title>Node17&#45;&gt;Node3</title>
<g id="a_edge32_Node000017_Node000003"><a xlink:title=" ">
<path fill="none" stroke="#63b8ff" d="M401.93,-496.81C335.57,-481.07 248,-446.48 248,-373.5 248,-373.5 248,-373.5 248,-294.5 248,-250.79 239.34,-231.85 267,-198 280.99,-180.88 301.86,-169.54 322.28,-162.06"/>
<polygon fill="#63b8ff" stroke="#63b8ff" points="323.57,-165.32 331.92,-158.79 321.32,-158.69 323.57,-165.32"/>
</a>
</g>
</g>
<!-- Node18 -->
<g id="Node000018" class="node">
<title>Node18</title>
<g id="a_Node000018"><a xlink:href="container__concepts_8hpp.html" target="_top" xlink:title=" ">
<polygon fill="white" stroke="#666666" points="495.5,-393 360.5,-393 360.5,-352 495.5,-352 495.5,-393"/>
<text text-anchor="start" x="368.5" y="-381" font-family="Helvetica,sans-Serif" font-size="10.00">packages/compile_time</text>
<text text-anchor="start" x="368.5" y="-370" font-family="Helvetica,sans-Serif" font-size="10.00">/packages/concepts/inc</text>
<text text-anchor="middle" x="428" y="-359" font-family="Helvetica,sans-Serif" font-size="10.00">/container_concepts.hpp</text>
</a>
</g>
</g>
<!-- Node17&#45;&gt;Node18 -->
<g id="edge19_Node000017_Node000018" class="edge">
<title>Node17&#45;&gt;Node18</title>
<g id="a_edge19_Node000017_Node000018"><a xlink:title=" ">
<path fill="none" stroke="#63b8ff" d="M466.55,-494.98C460.94,-485.18 453.76,-471.64 449,-459 442.24,-441.05 437.06,-420.15 433.54,-403.5"/>
<polygon fill="#63b8ff" stroke="#63b8ff" points="436.88,-402.36 431.46,-393.26 430.02,-403.75 436.88,-402.36"/>
</a>
</g>
</g>
<!-- Node25 -->
<g id="Node000025" class="node">
<title>Node25</title>
<g id="a_Node000025"><a xlink:href="typedefs_8hpp.html" target="_top" xlink:title=" ">
<polygon fill="white" stroke="#666666" points="1164.5,-459 1045.5,-459 1045.5,-429 1164.5,-429 1164.5,-459"/>
<text text-anchor="start" x="1053.5" y="-447" font-family="Helvetica,sans-Serif" font-size="10.00">packages/macros/inc</text>
<text text-anchor="middle" x="1105" y="-436" font-family="Helvetica,sans-Serif" font-size="10.00">/typedefs.hpp</text>
</a>
</g>
</g>
<!-- Node17&#45;&gt;Node25 -->
<g id="edge30_Node000017_Node000025" class="edge">
<title>Node17&#45;&gt;Node25</title>
<g id="a_edge30_Node000017_Node000025"><a xlink:title=" ">
<path fill="none" stroke="#63b8ff" d="M548.27,-496.18C551.22,-495.77 554.14,-495.37 557,-495 739.3,-471.51 786.02,-476.41 969,-459 990.62,-456.94 1014.16,-454.57 1035.49,-452.36"/>
<polygon fill="#63b8ff" stroke="#63b8ff" points="1035.85,-455.85 1045.44,-451.33 1035.13,-448.88 1035.85,-455.85"/>
</a>
</g>
</g>
<!-- Node26 -->
<g id="Node000026" class="node">
<title>Node26</title>
<g id="a_Node000026"><a xlink:href="exceptions_8hpp.html" target="_top" xlink:title=" ">
<polygon fill="white" stroke="#666666" points="1051.5,-310.5 932.5,-310.5 932.5,-280.5 1051.5,-280.5 1051.5,-310.5"/>
<text text-anchor="start" x="940.5" y="-298.5" font-family="Helvetica,sans-Serif" font-size="10.00">packages/macros/inc</text>
<text text-anchor="middle" x="992" y="-287.5" font-family="Helvetica,sans-Serif" font-size="10.00">/exceptions.hpp</text>
</a>
</g>
</g>
<!-- Node17&#45;&gt;Node26 -->
<g id="edge33_Node000017_Node000026" class="edge">
<title>Node17&#45;&gt;Node26</title>
<g id="a_edge33_Node000017_Node000026"><a xlink:title=" ">
<path fill="none" stroke="#63b8ff" d="M547.08,-494.91C653.23,-473.28 845.43,-430.45 905,-393 935.55,-373.8 961.89,-340.91 977.35,-318.95"/>
<polygon fill="#63b8ff" stroke="#63b8ff" points="980.34,-320.78 983.11,-310.55 974.57,-316.82 980.34,-320.78"/>
</a>
</g>
</g>
<!-- Node32 -->
<g id="Node000032" class="node">
<title>Node32</title>
<g id="a_Node000032"><a xlink:href="resize_8hpp.html" target="_top" xlink:title=" ">
<polygon fill="white" stroke="#666666" points="588.5,-459 457.5,-459 457.5,-429 588.5,-429 588.5,-459"/>
<text text-anchor="start" x="465.5" y="-447" font-family="Helvetica,sans-Serif" font-size="10.00">packages/stl_extension</text>
<text text-anchor="middle" x="523" y="-436" font-family="Helvetica,sans-Serif" font-size="10.00">/inc/resize.hpp</text>
</a>
</g>
</g>
<!-- Node17&#45;&gt;Node32 -->
<g id="edge44_Node000017_Node000032" class="edge">
<title>Node17&#45;&gt;Node32</title>
<g id="a_edge44_Node000017_Node000032"><a xlink:title=" ">
<path fill="none" stroke="#63b8ff" d="M485.65,-494.8C491.68,-486.76 499.36,-476.53 506.18,-467.43"/>
<polygon fill="#63b8ff" stroke="#63b8ff" points="509.18,-469.26 512.38,-459.16 503.58,-465.06 509.18,-469.26"/>
</a>
</g>
</g>
<!-- Node36 -->
<g id="Node000036" class="node">
<title>Node36</title>
<g id="a_Node000036"><a xlink:title=" ">
<polygon fill="#e0e0e0" stroke="#999999" points="671,-453.5 607,-453.5 607,-434.5 671,-434.5 671,-453.5"/>
<text text-anchor="middle" x="639" y="-441.5" font-family="Helvetica,sans-Serif" font-size="10.00">algorithm</text>
</a>
</g>
</g>
<!-- Node17&#45;&gt;Node36 -->
<g id="edge54_Node000017_Node000036" class="edge">
<title>Node17&#45;&gt;Node36</title>
<g id="a_edge54_Node000017_Node000036"><a xlink:title=" ">
<path fill="none" stroke="#63b8ff" d="M510.99,-494.95C539.88,-483.68 580.03,-468.01 607.62,-457.25"/>
<polygon fill="#63b8ff" stroke="#63b8ff" points="609.13,-460.41 617.17,-453.52 606.59,-453.89 609.13,-460.41"/>
</a>
</g>
</g>
<!-- Node19 -->
<g id="Node000019" class="node">
<title>Node19</title>
<g id="a_Node000019"><a xlink:href="iterator__concepts_8hpp.html" target="_top" xlink:title=" ">
<polygon fill="white" stroke="#666666" points="495,-316 363,-316 363,-275 495,-275 495,-316"/>
<text text-anchor="start" x="371" y="-304" font-family="Helvetica,sans-Serif" font-size="10.00">packages/compile_time</text>
<text text-anchor="start" x="371" y="-293" font-family="Helvetica,sans-Serif" font-size="10.00">/packages/concepts/inc</text>
<text text-anchor="middle" x="429" y="-282" font-family="Helvetica,sans-Serif" font-size="10.00">/iterator_concepts.hpp</text>
</a>
</g>
</g>
<!-- Node18&#45;&gt;Node19 -->
<g id="edge20_Node000018_Node000019" class="edge">
<title>Node18&#45;&gt;Node19</title>
<g id="a_edge20_Node000018_Node000019"><a xlink:title=" ">
<path fill="none" stroke="#63b8ff" d="M428.26,-351.79C428.37,-343.96 428.49,-334.77 428.6,-326.16"/>
<polygon fill="#63b8ff" stroke="#63b8ff" points="432.11,-326.12 428.74,-316.07 425.11,-326.03 432.11,-326.12"/>
</a>
</g>
</g>
<!-- Node19&#45;&gt;Node2 -->
<g id="edge21_Node000019_Node000002" class="edge">
<title>Node19&#45;&gt;Node2</title>
<g id="a_edge21_Node000019_Node000002"><a xlink:title=" ">
<path fill="none" stroke="#63b8ff" d="M362.62,-278.59C312.64,-266.62 244.04,-250.18 191.89,-237.68"/>
<polygon fill="#63b8ff" stroke="#63b8ff" points="192.56,-234.24 182.01,-235.32 190.92,-241.05 192.56,-234.24"/>
</a>
</g>
</g>
<!-- Node20 -->
<g id="Node000020" class="node">
<title>Node20</title>
<g id="a_Node000020"><a xlink:href="Size_8hpp.html" target="_top" xlink:title=" ">
<polygon fill="white" stroke="#666666" points="424,-239 276,-239 276,-198 424,-198 424,-239"/>
<text text-anchor="start" x="284" y="-227" font-family="Helvetica,sans-Serif" font-size="10.00">packages/compile_time</text>
<text text-anchor="start" x="284" y="-216" font-family="Helvetica,sans-Serif" font-size="10.00">/packages/parameter_pack</text>
<text text-anchor="middle" x="350" y="-205" font-family="Helvetica,sans-Serif" font-size="10.00">/inc/Size.hpp</text>
</a>
</g>
</g>
<!-- Node19&#45;&gt;Node20 -->
<g id="edge22_Node000019_Node000020" class="edge">
<title>Node19&#45;&gt;Node20</title>
<g id="a_edge22_Node000019_Node000020"><a xlink:title=" ">
<path fill="none" stroke="#63b8ff" d="M408.24,-274.79C398.99,-266.01 387.95,-255.53 377.98,-246.07"/>
<polygon fill="#63b8ff" stroke="#63b8ff" points="380.28,-243.42 370.62,-239.07 375.46,-248.5 380.28,-243.42"/>
</a>
</g>
</g>
<!-- Node21 -->
<g id="Node000021" class="node">
<title>Node21</title>
<g id="a_Node000021"><a xlink:href="Select_8hpp.html" target="_top" xlink:title=" ">
<polygon fill="white" stroke="#666666" points="700,-239 552,-239 552,-198 700,-198 700,-239"/>
<text text-anchor="start" x="560" y="-227" font-family="Helvetica,sans-Serif" font-size="10.00">packages/compile_time</text>
<text text-anchor="start" x="560" y="-216" font-family="Helvetica,sans-Serif" font-size="10.00">/packages/parameter_pack</text>
<text text-anchor="middle" x="626" y="-205" font-family="Helvetica,sans-Serif" font-size="10.00">/inc/Select.hpp</text>
</a>
</g>
</g>
<!-- Node19&#45;&gt;Node21 -->
<g id="edge24_Node000019_Node000021" class="edge">
<title>Node19&#45;&gt;Node21</title>
<g id="a_edge24_Node000019_Node000021"><a xlink:title=" ">
<path fill="none" stroke="#63b8ff" d="M480.25,-274.99C506.25,-265.09 538.01,-253 565.24,-242.63"/>
<polygon fill="#63b8ff" stroke="#63b8ff" points="566.57,-245.87 574.67,-239.04 564.08,-239.33 566.57,-245.87"/>
</a>
</g>
</g>
<!-- Node23 -->
<g id="Node000023" class="node">
<title>Node23</title>
<g id="a_Node000023"><a xlink:title=" ">
<polygon fill="#e0e0e0" stroke="#999999" points="495.5,-228 442.5,-228 442.5,-209 495.5,-209 495.5,-228"/>
<text text-anchor="middle" x="469" y="-216" font-family="Helvetica,sans-Serif" font-size="10.00">iterator</text>
</a>
</g>
</g>
<!-- Node19&#45;&gt;Node23 -->
<g id="edge28_Node000019_Node000023" class="edge">
<title>Node19&#45;&gt;Node23</title>
<g id="a_edge28_Node000019_Node000023"><a xlink:title=" ">
<path fill="none" stroke="#63b8ff" d="M439.51,-274.79C445.74,-263.11 453.57,-248.43 459.6,-237.13"/>
<polygon fill="#63b8ff" stroke="#63b8ff" points="462.72,-238.71 464.34,-228.24 456.55,-235.41 462.72,-238.71"/>
</a>
</g>
</g>
<!-- Node24 -->
<g id="Node000024" class="node">
<title>Node24</title>
<g id="a_Node000024"><a xlink:title=" ">
<polygon fill="#e0e0e0" stroke="#999999" points="1112,-156.5 1054,-156.5 1054,-137.5 1112,-137.5 1112,-156.5"/>
<text text-anchor="middle" x="1083" y="-144.5" font-family="Helvetica,sans-Serif" font-size="10.00">memory</text>
</a>
</g>
</g>
<!-- Node19&#45;&gt;Node24 -->
<g id="edge29_Node000019_Node000024" class="edge">
<title>Node19&#45;&gt;Node24</title>
<g id="a_edge29_Node000019_Node000024"><a xlink:title=" ">
<path fill="none" stroke="#63b8ff" d="M495.19,-291.55C616.38,-285.49 869.01,-269.54 951,-239 980.92,-227.85 983.72,-216.13 1010,-198 1027.49,-185.94 1047.38,-172.31 1061.98,-162.34"/>
<polygon fill="#63b8ff" stroke="#63b8ff" points="1064.04,-165.18 1070.32,-156.65 1060.09,-159.39 1064.04,-165.18"/>
</a>
</g>
</g>
<!-- Node20&#45;&gt;Node3 -->
<g id="edge23_Node000020_Node000003" class="edge">
<title>Node20&#45;&gt;Node3</title>
<g id="a_edge23_Node000020_Node000003"><a xlink:title=" ">
<path fill="none" stroke="#63b8ff" d="M360.5,-197.77C364.96,-189.4 370.18,-179.59 374.81,-170.9"/>
<polygon fill="#63b8ff" stroke="#63b8ff" points="377.92,-172.51 379.53,-162.04 371.74,-169.22 377.92,-172.51"/>
</a>
</g>
</g>
<!-- Node21&#45;&gt;Node3 -->
<g id="edge25_Node000021_Node000003" class="edge">
<title>Node21&#45;&gt;Node3</title>
<g id="a_edge25_Node000021_Node000003"><a xlink:title=" ">
<path fill="none" stroke="#63b8ff" d="M558.79,-197.96C522.98,-187.54 479.36,-174.86 445.03,-164.88"/>
<polygon fill="#63b8ff" stroke="#63b8ff" points="445.74,-161.44 435.16,-162 443.78,-168.16 445.74,-161.44"/>
</a>
</g>
</g>
<!-- Node21&#45;&gt;Node13 -->
<g id="edge27_Node000021_Node000013" class="edge">
<title>Node21&#45;&gt;Node13</title>
<g id="a_edge27_Node000021_Node000013"><a xlink:title=" ">
<path fill="none" stroke="#63b8ff" d="M606.41,-197.77C595.85,-187.13 582.98,-174.16 573.02,-164.13"/>
<polygon fill="#63b8ff" stroke="#63b8ff" points="575.29,-161.45 565.76,-156.82 570.32,-166.38 575.29,-161.45"/>
</a>
</g>
</g>
<!-- Node22 -->
<g id="Node000022" class="node">
<title>Node22</title>
<g id="a_Node000022"><a xlink:title=" ">
<polygon fill="#e0e0e0" stroke="#999999" points="646.5,-156.5 605.5,-156.5 605.5,-137.5 646.5,-137.5 646.5,-156.5"/>
<text text-anchor="middle" x="626" y="-144.5" font-family="Helvetica,sans-Serif" font-size="10.00">tuple</text>
</a>
</g>
</g>
<!-- Node21&#45;&gt;Node22 -->
<g id="edge26_Node000021_Node000022" class="edge">
<title>Node21&#45;&gt;Node22</title>
<g id="a_edge26_Node000021_Node000022"><a xlink:title=" ">
<path fill="none" stroke="#63b8ff" d="M626,-197.77C626,-188.08 626,-176.46 626,-166.88"/>
<polygon fill="#63b8ff" stroke="#63b8ff" points="629.5,-166.82 626,-156.82 622.5,-166.82 629.5,-166.82"/>
</a>
</g>
</g>
<!-- Node25&#45;&gt;Node24 -->
<g id="edge31_Node000025_Node000024" class="edge">
<title>Node25&#45;&gt;Node24</title>
<g id="a_edge31_Node000025_Node000024"><a xlink:title=" ">
<path fill="none" stroke="#63b8ff" d="M1109,-428.77C1119.08,-390.44 1142.93,-282.25 1117,-198 1113.21,-185.68 1105.23,-173.68 1097.96,-164.52"/>
<polygon fill="#63b8ff" stroke="#63b8ff" points="1100.49,-162.09 1091.36,-156.7 1095.13,-166.6 1100.49,-162.09"/>
</a>
</g>
</g>
<!-- Node26&#45;&gt;Node5 -->
<g id="edge41_Node000026_Node000005" class="edge">
<title>Node26&#45;&gt;Node5</title>
<g id="a_edge41_Node000026_Node000005"><a xlink:title=" ">
<path fill="none" stroke="#63b8ff" d="M996.27,-280.24C1003.09,-259.64 1018.24,-221.46 1043,-198 1070.71,-171.74 1100.42,-194.16 1121,-162 1128.19,-150.77 1129.04,-142.64 1121,-132 1080.26,-78.06 888.14,-41.83 782.7,-25.65"/>
<polygon fill="#63b8ff" stroke="#63b8ff" points="783.19,-22.18 772.78,-24.14 782.14,-29.1 783.19,-22.18"/>
</a>
</g>
</g>
<!-- Node26&#45;&gt;Node13 -->
<g id="edge43_Node000026_Node000013" class="edge">
<title>Node26&#45;&gt;Node13</title>
<g id="a_edge43_Node000026_Node000013"><a xlink:title=" ">
<path fill="none" stroke="#63b8ff" d="M943.73,-280.45C907.75,-269.73 857.53,-254.26 814,-239 766.72,-222.42 756.2,-214.78 709,-198 659.74,-180.48 646.57,-178.64 597,-162 594.9,-161.3 592.75,-160.56 590.57,-159.82"/>
<polygon fill="#63b8ff" stroke="#63b8ff" points="591.67,-156.5 581.08,-156.54 589.39,-163.11 591.67,-156.5"/>
</a>
</g>
</g>
<!-- Node27 -->
<g id="Node000027" class="node">
<title>Node27</title>
<g id="a_Node000027"><a xlink:href="exception_8hpp.html" target="_top" xlink:title=" ">
<polygon fill="white" stroke="#666666" points="941.5,-233.5 822.5,-233.5 822.5,-203.5 941.5,-203.5 941.5,-233.5"/>
<text text-anchor="start" x="830.5" y="-221.5" font-family="Helvetica,sans-Serif" font-size="10.00">packages/exceptions</text>
<text text-anchor="middle" x="882" y="-210.5" font-family="Helvetica,sans-Serif" font-size="10.00">/inc/exception.hpp</text>
</a>
</g>
</g>
<!-- Node26&#45;&gt;Node27 -->
<g id="edge34_Node000026_Node000027" class="edge">
<title>Node26&#45;&gt;Node27</title>
<g id="a_edge34_Node000026_Node000027"><a xlink:title=" ">
<path fill="none" stroke="#63b8ff" d="M971.31,-280.39C954.26,-268.77 929.87,-252.14 910.89,-239.2"/>
<polygon fill="#63b8ff" stroke="#63b8ff" points="912.83,-236.29 902.6,-233.54 908.89,-242.07 912.83,-236.29"/>
</a>
</g>
</g>
<!-- Node31 -->
<g id="Node000031" class="node">
<title>Node31</title>
<g id="a_Node000031"><a xlink:title=" ">
<polygon fill="#e0e0e0" stroke="#999999" points="1108,-228 1052,-228 1052,-209 1108,-209 1108,-228"/>
<text text-anchor="middle" x="1080" y="-216" font-family="Helvetica,sans-Serif" font-size="10.00">sstream</text>
</a>
</g>
</g>
<!-- Node26&#45;&gt;Node31 -->
<g id="edge42_Node000026_Node000031" class="edge">
<title>Node26&#45;&gt;Node31</title>
<g id="a_edge42_Node000026_Node000031"><a xlink:title=" ">
<path fill="none" stroke="#63b8ff" d="M1008.55,-280.39C1023.68,-267.5 1046,-248.48 1061.66,-235.13"/>
<polygon fill="#63b8ff" stroke="#63b8ff" points="1064.25,-237.53 1069.59,-228.37 1059.71,-232.2 1064.25,-237.53"/>
</a>
</g>
</g>
<!-- Node27&#45;&gt;Node3 -->
<g id="edge35_Node000027_Node000003" class="edge">
<title>Node27&#45;&gt;Node3</title>
<g id="a_edge35_Node000027_Node000003"><a xlink:title=" ">
<path fill="none" stroke="#63b8ff" d="M822.29,-209.12C728.91,-196.01 549.01,-170.75 452.3,-157.17"/>
<polygon fill="#63b8ff" stroke="#63b8ff" points="452.75,-153.7 442.36,-155.77 451.77,-160.63 452.75,-153.7"/>
</a>
</g>
</g>
<!-- Node27&#45;&gt;Node8 -->
<g id="edge37_Node000027_Node000008" class="edge">
<title>Node27&#45;&gt;Node8</title>
<g id="a_edge37_Node000027_Node000008"><a xlink:title=" ">
<path fill="none" stroke="#63b8ff" d="M823.88,-203.46C794.62,-194.6 759.6,-181.16 732,-162 707.36,-144.9 686.05,-117.01 673.87,-99.09"/>
<polygon fill="#63b8ff" stroke="#63b8ff" points="676.78,-97.16 668.36,-90.74 670.94,-101.01 676.78,-97.16"/>
</a>
</g>
</g>
<!-- Node27&#45;&gt;Node24 -->
<g id="edge39_Node000027_Node000024" class="edge">
<title>Node27&#45;&gt;Node24</title>
<g id="a_edge39_Node000027_Node000024"><a xlink:title=" ">
<path fill="none" stroke="#63b8ff" d="M924.32,-203.41C957.28,-192.36 1004.14,-176.48 1045,-162 1046.84,-161.35 1048.73,-160.67 1050.63,-159.99"/>
<polygon fill="#63b8ff" stroke="#63b8ff" points="1051.93,-163.24 1060.13,-156.53 1049.53,-156.66 1051.93,-163.24"/>
</a>
</g>
</g>
<!-- Node28 -->
<g id="Node000028" class="node">
<title>Node28</title>
<g id="a_Node000028"><a xlink:title=" ">
<polygon fill="#e0e0e0" stroke="#999999" points="970.5,-156.5 905.5,-156.5 905.5,-137.5 970.5,-137.5 970.5,-156.5"/>
<text text-anchor="middle" x="938" y="-144.5" font-family="Helvetica,sans-Serif" font-size="10.00">stdexcept</text>
</a>
</g>
</g>
<!-- Node27&#45;&gt;Node28 -->
<g id="edge36_Node000027_Node000028" class="edge">
<title>Node27&#45;&gt;Node28</title>
<g id="a_edge36_Node000027_Node000028"><a xlink:title=" ">
<path fill="none" stroke="#63b8ff" d="M893.33,-203.44C902.39,-192.2 915.09,-176.43 924.64,-164.58"/>
<polygon fill="#63b8ff" stroke="#63b8ff" points="927.39,-166.75 930.94,-156.77 921.94,-162.36 927.39,-166.75"/>
</a>
</g>
</g>
<!-- Node29 -->
<g id="Node000029" class="node">
<title>Node29</title>
<g id="a_Node000029"><a xlink:title=" ">
<polygon fill="#e0e0e0" stroke="#999999" points="1035.5,-156.5 988.5,-156.5 988.5,-137.5 1035.5,-137.5 1035.5,-156.5"/>
<text text-anchor="middle" x="1012" y="-144.5" font-family="Helvetica,sans-Serif" font-size="10.00">deque</text>
</a>
</g>
</g>
<!-- Node27&#45;&gt;Node29 -->
<g id="edge38_Node000027_Node000029" class="edge">
<title>Node27&#45;&gt;Node29</title>
<g id="a_edge38_Node000027_Node000029"><a xlink:title=" ">
<path fill="none" stroke="#63b8ff" d="M908.31,-203.44C931.29,-191.15 964.41,-173.44 987,-161.37"/>
<polygon fill="#63b8ff" stroke="#63b8ff" points="988.81,-164.37 995.97,-156.57 985.5,-158.2 988.81,-164.37"/>
</a>
</g>
</g>
<!-- Node30 -->
<g id="Node000030" class="node">
<title>Node30</title>
<g id="a_Node000030"><a xlink:title=" ">
<polygon fill="#e0e0e0" stroke="#999999" points="887,-162 741,-162 741,-132 887,-132 887,-162"/>
<text text-anchor="start" x="749" y="-150" font-family="Helvetica,sans-Serif" font-size="10.00">packages/exceptions</text>
<text text-anchor="middle" x="814" y="-139" font-family="Helvetica,sans-Serif" font-size="10.00">/impl/exceptions_impl.hpp</text>
</a>
</g>
</g>
<!-- Node27&#45;&gt;Node30 -->
<g id="edge40_Node000027_Node000030" class="edge">
<title>Node27&#45;&gt;Node30</title>
<g id="a_edge40_Node000027_Node000030"><a xlink:title=" ">
<path fill="none" stroke="#63b8ff" d="M868.24,-203.44C858.65,-193.64 845.69,-180.39 834.85,-169.31"/>
<polygon fill="#63b8ff" stroke="#63b8ff" points="837.24,-166.74 827.74,-162.04 832.23,-171.64 837.24,-166.74"/>
</a>
</g>
</g>
<!-- Node32&#45;&gt;Node3 -->
<g id="edge52_Node000032_Node000003" class="edge">
<title>Node32&#45;&gt;Node3</title>
<g id="a_edge52_Node000032_Node000003"><a xlink:title=" ">
<path fill="none" stroke="#63b8ff" d="M526.58,-428.88C535.96,-388.47 557.04,-270.63 505,-198 492.25,-180.2 471.86,-168.7 451.59,-161.28"/>
<polygon fill="#63b8ff" stroke="#63b8ff" points="452.6,-157.92 442.01,-158.05 450.37,-164.56 452.6,-157.92"/>
</a>
</g>
</g>
<!-- Node32&#45;&gt;Node18 -->
<g id="edge51_Node000032_Node000018" class="edge">
<title>Node32&#45;&gt;Node18</title>
<g id="a_edge51_Node000032_Node000018"><a xlink:title=" ">
<path fill="none" stroke="#63b8ff" d="M503.78,-428.94C492.1,-420.4 476.85,-409.23 463.08,-399.17"/>
<polygon fill="#63b8ff" stroke="#63b8ff" points="464.89,-396.15 454.76,-393.07 460.76,-401.8 464.89,-396.15"/>
</a>
</g>
</g>
<!-- Node33 -->
<g id="Node000033" class="node">
<title>Node33</title>
<g id="a_Node000033"><a xlink:href="checks_8hpp.html" target="_top" xlink:title=" ">
<polygon fill="white" stroke="#666666" points="825.5,-387.5 706.5,-387.5 706.5,-357.5 825.5,-357.5 825.5,-387.5"/>
<text text-anchor="start" x="714.5" y="-375.5" font-family="Helvetica,sans-Serif" font-size="10.00">packages/macros/inc</text>
<text text-anchor="middle" x="766" y="-364.5" font-family="Helvetica,sans-Serif" font-size="10.00">/checks.hpp</text>
</a>
</g>
</g>
<!-- Node32&#45;&gt;Node33 -->
<g id="edge45_Node000032_Node000033" class="edge">
<title>Node32&#45;&gt;Node33</title>
<g id="a_edge45_Node000032_Node000033"><a xlink:title=" ">
<path fill="none" stroke="#63b8ff" d="M572.17,-428.94C611.21,-417.77 665.89,-402.13 707.23,-390.31"/>
<polygon fill="#63b8ff" stroke="#63b8ff" points="708.25,-393.66 716.9,-387.54 706.32,-386.93 708.25,-393.66"/>
</a>
</g>
</g>
<!-- Node35 -->
<g id="Node000035" class="node">
<title>Node35</title>
<g id="a_Node000035"><a xlink:title=" ">
<polygon fill="#e0e0e0" stroke="#999999" points="896,-382 844,-382 844,-363 896,-363 896,-382"/>
<text text-anchor="middle" x="870" y="-370" font-family="Helvetica,sans-Serif" font-size="10.00">cassert</text>
</a>
</g>
</g>
<!-- Node32&#45;&gt;Node35 -->
<g id="edge53_Node000032_Node000035" class="edge">
<title>Node32&#45;&gt;Node35</title>
<g id="a_edge53_Node000032_Node000035"><a xlink:title=" ">
<path fill="none" stroke="#63b8ff" d="M588.83,-430.58C591.93,-430.04 595,-429.51 598,-429 703.05,-411.22 734.19,-427.48 835,-393 839.49,-391.46 844.07,-389.36 848.38,-387.11"/>
<polygon fill="#63b8ff" stroke="#63b8ff" points="850.26,-390.06 857.22,-382.07 846.8,-383.98 850.26,-390.06"/>
</a>
</g>
</g>
<!-- Node33&#45;&gt;Node5 -->
<g id="edge48_Node000033_Node000005" class="edge">
<title>Node33&#45;&gt;Node5</title>
<g id="a_edge48_Node000033_Node000005"><a xlink:title=" ">
<path fill="none" stroke="#63b8ff" d="M763.54,-357.3C757.71,-323.51 742.77,-235.65 732,-162 725.74,-119.16 719.45,-69.11 715.9,-40.13"/>
<polygon fill="#63b8ff" stroke="#63b8ff" points="719.37,-39.62 714.69,-30.11 712.42,-40.46 719.37,-39.62"/>
</a>
</g>
</g>
<!-- Node33&#45;&gt;Node26 -->
<g id="edge47_Node000033_Node000026" class="edge">
<title>Node33&#45;&gt;Node26</title>
<g id="a_edge47_Node000033_Node000026"><a xlink:title=" ">
<path fill="none" stroke="#63b8ff" d="M808.24,-357.48C845.54,-345.1 900.04,-327.02 940.01,-313.75"/>
<polygon fill="#63b8ff" stroke="#63b8ff" points="941.19,-317.05 949.58,-310.58 938.99,-310.41 941.19,-317.05"/>
</a>
</g>
</g>
<!-- Node33&#45;&gt;Node27 -->
<g id="edge46_Node000033_Node000027" class="edge">
<title>Node33&#45;&gt;Node27</title>
<g id="a_edge46_Node000033_Node000027"><a xlink:title=" ">
<path fill="none" stroke="#63b8ff" d="M765.28,-357.3C764.99,-337.11 767.17,-299.83 785,-275 796.55,-258.91 814.32,-246.83 831.5,-238.11"/>
<polygon fill="#63b8ff" stroke="#63b8ff" points="833.43,-241.07 840.95,-233.62 830.42,-234.76 833.43,-241.07"/>
</a>
</g>
</g>
<!-- Node33&#45;&gt;Node31 -->
<g id="edge50_Node000033_Node000031" class="edge">
<title>Node33&#45;&gt;Node31</title>
<g id="a_edge50_Node000033_Node000031"><a xlink:title=" ">
<path fill="none" stroke="#63b8ff" d="M812.95,-357.44C820.3,-355.47 827.83,-353.58 835,-352 884.67,-341.07 1024.39,-351.3 1061,-316 1081.83,-295.92 1083.41,-260.14 1082.1,-238.24"/>
<polygon fill="#63b8ff" stroke="#63b8ff" points="1085.58,-237.88 1081.23,-228.21 1078.6,-238.48 1085.58,-237.88"/>
</a>
</g>
</g>
<!-- Node34 -->
<g id="Node000034" class="node">
<title>Node34</title>
<g id="a_Node000034"><a xlink:title=" ">
<polygon fill="#e0e0e0" stroke="#999999" points="914,-305 794,-305 794,-286 914,-286 914,-305"/>
<text text-anchor="middle" x="854" y="-293" font-family="Helvetica,sans-Serif" font-size="10.00">cmake_variables.hpp</text>
</a>
</g>
</g>
<!-- Node33&#45;&gt;Node34 -->
<g id="edge49_Node000033_Node000034" class="edge">
<title>Node33&#45;&gt;Node34</title>
<g id="a_edge49_Node000033_Node000034"><a xlink:title=" ">
<path fill="none" stroke="#63b8ff" d="M782.55,-357.39C797.68,-344.5 820,-325.48 835.66,-312.13"/>
<polygon fill="#63b8ff" stroke="#63b8ff" points="838.25,-314.53 843.59,-305.37 833.71,-309.2 838.25,-314.53"/>
</a>
</g>
</g>
</g>
</svg>

<g id="navigator" transform="translate(0 0)" fill="#404254">
  <rect fill="#f2f5e9" fill-opacity="0.5" stroke="#606060" stroke-width=".5" x="0" y="0" width="60" height="60"/>
  <use id="zoomplus" xlink:href="#zoomPlus" x="17" y="9" onmousedown="handleZoom(evt,'in')"/>
  <use id="zoomminus" xlink:href="#zoomMin" x="42" y="9" onmousedown="handleZoom(evt,'out')"/>
  <use id="reset" xlink:href="#resetDef" x="30" y="36" onmousedown="handleReset()"/>
   <use id="arrowup" xlink:href="#arrowUp" x="0" y="0" onmousedown="handlePan(0,-1)"/>
  <use id="arrowright" xlink:href="#arrowRight" x="0" y="0" onmousedown="handlePan(1,0)"/>
  <use id="arrowdown" xlink:href="#arrowDown" x="0" y="0" onmousedown="handlePan(0,1)"/>
  <use id="arrowleft" xlink:href="#arrowLeft" x="0" y="0" onmousedown="handlePan(-1,0)"/>
</g>
<svg viewBox="0 0 15 15" width="100%" height="30px" preserveAspectRatio="xMaxYMin meet">
 <g id="arrow_out" transform="scale(0.3 0.3)">
  <a xlink:href="base_8hpp__incl_org.svg" target="_base">
   <rect id="button" ry="5" rx="5" y="6" x="6" height="38" width="38"
        fill="#f2f5e9" fill-opacity="0.5" stroke="#606060" stroke-width="1.0"/>
   <path id="arrow"
     d="M 11.500037,31.436501 C 11.940474,20.09759 22.043105,11.32322 32.158766,21.979434 L 37.068811,17.246167 C 37.068811,17.246167 37.088388,32 37.088388,32 L 22.160133,31.978069 C 22.160133,31.978069 26.997745,27.140456 26.997745,27.140456 C 18.528582,18.264221 13.291696,25.230495 11.500037,31.436501 z"
     style="fill:#404040;"/>
  </a>
 </g>
</svg>

<style type='text/css'>
<![CDATA[
[data-mouse-over-selected='false'] { opacity: 0.7; }
[data-mouse-over-selected='true']  { opacity: 1.0; }
]]>
</style>
<script type="application/ecmascript"><![CDATA[
document.addEventListener('DOMContentLoaded', (event) => {
  highlightEdges();
  highlightAdjacentNodes();
});
]]></script>
</svg>
