<?xml version="1.0" encoding="UTF-8" standalone="no"?>
<!DOCTYPE svg PUBLIC "-//W3C//DTD SVG 1.1//EN"
 "http://www.w3.org/Graphics/SVG/1.1/DTD/svg11.dtd">
<!-- Generated by graphviz version 2.43.0 (0)
 -->
<!-- Title: checks.hpp Pages: 1 -->
<!--zoomable 420 -->
<svg id="main" version="1.1" xmlns="http://www.w3.org/2000/svg" xmlns:xlink="http://www.w3.org/1999/xlink" xml:space="preserve" onload="init(evt)">
<style type="text/css"><![CDATA[
.edge:hover path { stroke: red; }
.edge:hover polygon { stroke: red; fill: red; }
]]></style>
<script type="text/javascript"><![CDATA[
var edges = document.getElementsByTagName('g');
if (edges && edges.length) {
  for (var i=0;i<edges.length;i++) {
    if (edges[i].id.substr(0,4)=='edge') {
      edges[i].setAttribute('class','edge');
    }
  }
}
]]></script>
        <defs>
                <circle id="rim" cx="0" cy="0" r="7"/>
                <circle id="rim2" cx="0" cy="0" r="3.5"/>
                <g id="zoomPlus">
                        <use xlink:href="#rim" fill="#404040">
                                <set attributeName="fill" to="#808080" begin="zoomplus.mouseover" end="zoomplus.mouseout"/>
                        </use>
                        <path d="M-4,0h8M0,-4v8" fill="none" stroke="white" stroke-width="1.5" pointer-events="none"/>
                </g>
                <g id="zoomMin">
                        <use xlink:href="#rim" fill="#404040">
                                <set attributeName="fill" to="#808080" begin="zoomminus.mouseover" end="zoomminus.mouseout"/>
                        </use>
                        <path d="M-4,0h8" fill="none" stroke="white" stroke-width="1.5" pointer-events="none"/>
                </g>
                <g id="dirArrow">
                        <path fill="none" stroke="white" stroke-width="1.5" d="M0,-3.0v7 M-2.5,-0.5L0,-3.0L2.5,-0.5"/>
                </g>
               <g id="resetDef">
                       <use xlink:href="#rim2" fill="#404040">
                               <set attributeName="fill" to="#808080" begin="reset.mouseover" end="reset.mouseout"/>
                       </use>
               </g>
        </defs>

<script type="text/javascript">
var viewWidth = 1559;
var viewHeight = 420;
var sectionId = 'dynsection-1';
</script>
<script xlink:href="svgpan.js"/>
<svg id="graph" class="graph">
<g id="viewport">
<title>checks.hpp</title>
<polygon fill="white" stroke="transparent" points="-4,4 -4,-416 1554.5,-416 1554.5,4 -4,4"/>
<!-- Node1 -->
<g id="node1" class="node">
<title>Node1</title>
<g id="a_node1"><a xlink:title=" ">
<polygon fill="#bfbfbf" stroke="black" points="1151,-392.5 1151,-411.5 1222,-411.5 1222,-392.5 1151,-392.5"/>
<text text-anchor="middle" x="1186.5" y="-399.5" font-family="Helvetica,sans-Serif" font-size="10.00">checks.hpp</text>
</a>
</g>
</g>
<!-- Node2 -->
<g id="node2" class="node">
<title>Node2</title>
<g id="a_node2"><a xlink:href="json_8hpp.html" target="_top" xlink:title=" ">
<polygon fill="white" stroke="black" points="1492.5,-168.5 1492.5,-187.5 1550.5,-187.5 1550.5,-168.5 1492.5,-168.5"/>
<text text-anchor="middle" x="1521.5" y="-175.5" font-family="Helvetica,sans-Serif" font-size="10.00">json.hpp</text>
</a>
</g>
</g>
<!-- Node1&#45;&gt;Node2 -->
<g id="edge1" class="edge">
<title>Node1&#45;&gt;Node2</title>
<path fill="none" stroke="midnightblue" d="M1224.08,-389.16C1246.7,-381.29 1275.64,-369.85 1299.5,-356 1390.3,-303.28 1483.69,-215.76 1512.5,-187.84"/>
<polygon fill="midnightblue" stroke="midnightblue" points="1222.83,-385.89 1214.49,-392.42 1225.08,-392.52 1222.83,-385.89"/>
</g>
<!-- Node3 -->
<g id="node3" class="node">
<title>Node3</title>
<g id="a_node3"><a xlink:href="Serializer_8hpp.html" target="_top" xlink:title=" ">
<polygon fill="white" stroke="black" points="281,-336.5 281,-355.5 364,-355.5 364,-336.5 281,-336.5"/>
<text text-anchor="middle" x="322.5" y="-343.5" font-family="Helvetica,sans-Serif" font-size="10.00">Serializer.hpp</text>
</a>
</g>
</g>
<!-- Node1&#45;&gt;Node3 -->
<g id="edge2" class="edge">
<title>Node1&#45;&gt;Node3</title>
<path fill="none" stroke="midnightblue" d="M1140.43,-398.12C989.13,-388.66 508.9,-358.65 364.17,-349.6"/>
<polygon fill="midnightblue" stroke="midnightblue" points="1140.55,-401.63 1150.75,-398.77 1140.99,-394.65 1140.55,-401.63"/>
</g>
<!-- Node7 -->
<g id="node7" class="node">
<title>Node7</title>
<g id="a_node7"><a xlink:href="OutputStream_8hpp.html" target="_top" xlink:title=" ">
<polygon fill="white" stroke="black" points="552.5,-336.5 552.5,-355.5 658.5,-355.5 658.5,-336.5 552.5,-336.5"/>
<text text-anchor="middle" x="605.5" y="-343.5" font-family="Helvetica,sans-Serif" font-size="10.00">OutputStream.hpp</text>
</a>
</g>
</g>
<!-- Node1&#45;&gt;Node7 -->
<g id="edge6" class="edge">
<title>Node1&#45;&gt;Node7</title>
<path fill="none" stroke="midnightblue" d="M1140.5,-396.72C1034.1,-386.84 771.53,-362.43 658.57,-351.93"/>
<polygon fill="midnightblue" stroke="midnightblue" points="1140.31,-400.22 1150.59,-397.66 1140.96,-393.25 1140.31,-400.22"/>
</g>
<!-- Node26 -->
<g id="node26" class="node">
<title>Node26</title>
<g id="a_node26"><a xlink:href="getReference_8hpp.html" target="_top" xlink:title=" ">
<polygon fill="white" stroke="black" points="1187,-336.5 1187,-355.5 1290,-355.5 1290,-336.5 1187,-336.5"/>
<text text-anchor="middle" x="1238.5" y="-343.5" font-family="Helvetica,sans-Serif" font-size="10.00">getReference.hpp</text>
</a>
</g>
</g>
<!-- Node1&#45;&gt;Node26 -->
<g id="edge27" class="edge">
<title>Node1&#45;&gt;Node26</title>
<path fill="none" stroke="midnightblue" d="M1202.18,-384.72C1211.34,-375.2 1222.55,-363.56 1230.07,-355.75"/>
<polygon fill="midnightblue" stroke="midnightblue" points="1199.5,-382.45 1195.09,-392.08 1204.54,-387.31 1199.5,-382.45"/>
</g>
<!-- Node27 -->
<g id="node27" class="node">
<title>Node27</title>
<g id="a_node27"><a xlink:href="resize_8hpp.html" target="_top" xlink:title=" ">
<polygon fill="white" stroke="black" points="1102,-336.5 1102,-355.5 1169,-355.5 1169,-336.5 1102,-336.5"/>
<text text-anchor="middle" x="1135.5" y="-343.5" font-family="Helvetica,sans-Serif" font-size="10.00">resize.hpp</text>
</a>
</g>
</g>
<!-- Node1&#45;&gt;Node27 -->
<g id="edge28" class="edge">
<title>Node1&#45;&gt;Node27</title>
<path fill="none" stroke="midnightblue" d="M1171.12,-384.72C1162.13,-375.2 1151.14,-363.56 1143.76,-355.75"/>
<polygon fill="midnightblue" stroke="midnightblue" points="1168.67,-387.22 1178.08,-392.08 1173.76,-382.41 1168.67,-387.22"/>
</g>
<!-- Node42 -->
<g id="node42" class="node">
<title>Node42</title>
<g id="a_node42"><a xlink:href="zip_8hpp.html" target="_top" xlink:title=" ">
<polygon fill="white" stroke="black" points="1444.5,-336.5 1444.5,-355.5 1496.5,-355.5 1496.5,-336.5 1444.5,-336.5"/>
<text text-anchor="middle" x="1470.5" y="-343.5" font-family="Helvetica,sans-Serif" font-size="10.00">zip.hpp</text>
</a>
</g>
</g>
<!-- Node1&#45;&gt;Node42 -->
<g id="edge49" class="edge">
<title>Node1&#45;&gt;Node42</title>
<path fill="none" stroke="midnightblue" d="M1232.13,-393.13C1281.23,-384.54 1361.55,-370.11 1430.5,-356 1434.96,-355.09 1439.69,-354.07 1444.28,-353.05"/>
<polygon fill="midnightblue" stroke="midnightblue" points="1231.39,-389.71 1222.14,-394.87 1232.6,-396.6 1231.39,-389.71"/>
</g>
<!-- Node4 -->
<g id="node4" class="node">
<title>Node4</title>
<g id="a_node4"><a xlink:href="MPI_8hpp.html" target="_top" xlink:title=" ">
<polygon fill="white" stroke="black" points="150.5,-280.5 150.5,-299.5 206.5,-299.5 206.5,-280.5 150.5,-280.5"/>
<text text-anchor="middle" x="178.5" y="-287.5" font-family="Helvetica,sans-Serif" font-size="10.00">MPI.hpp</text>
</a>
</g>
</g>
<!-- Node3&#45;&gt;Node4 -->
<g id="edge3" class="edge">
<title>Node3&#45;&gt;Node4</title>
<path fill="none" stroke="midnightblue" d="M290.25,-332.91C263.18,-322.75 225.18,-308.51 201.21,-299.52"/>
<polygon fill="midnightblue" stroke="midnightblue" points="289.09,-336.21 299.68,-336.44 291.55,-329.66 289.09,-336.21"/>
</g>
<!-- Node5 -->
<g id="node5" class="node">
<title>Node5</title>
<g id="a_node5"><a xlink:href="CommOperation_8hpp.html" target="_top" xlink:title=" ">
<polygon fill="white" stroke="black" points="119.5,-224.5 119.5,-243.5 237.5,-243.5 237.5,-224.5 119.5,-224.5"/>
<text text-anchor="middle" x="178.5" y="-231.5" font-family="Helvetica,sans-Serif" font-size="10.00">CommOperation.hpp</text>
</a>
</g>
</g>
<!-- Node4&#45;&gt;Node5 -->
<g id="edge4" class="edge">
<title>Node4&#45;&gt;Node5</title>
<path fill="none" stroke="midnightblue" d="M178.5,-269.8C178.5,-260.91 178.5,-250.78 178.5,-243.75"/>
<polygon fill="midnightblue" stroke="midnightblue" points="175,-270.08 178.5,-280.08 182,-270.08 175,-270.08"/>
</g>
<!-- Node6 -->
<g id="node6" class="node">
<title>Node6</title>
<g id="a_node6"><a xlink:href="MPISingleton_8hpp.html" target="_top" xlink:title=" ">
<polygon fill="white" stroke="black" points="0,-224.5 0,-243.5 101,-243.5 101,-224.5 0,-224.5"/>
<text text-anchor="middle" x="50.5" y="-231.5" font-family="Helvetica,sans-Serif" font-size="10.00">MPISingleton.hpp</text>
</a>
</g>
</g>
<!-- Node4&#45;&gt;Node6 -->
<g id="edge5" class="edge">
<title>Node4&#45;&gt;Node6</title>
<path fill="none" stroke="midnightblue" d="M148.88,-276.5C124.88,-266.38 91.72,-252.39 70.69,-243.52"/>
<polygon fill="midnightblue" stroke="midnightblue" points="147.64,-279.78 158.22,-280.44 150.36,-273.33 147.64,-279.78"/>
</g>
<!-- Node8 -->
<g id="node8" class="node">
<title>Node8</title>
<g id="a_node8"><a xlink:href="ArgParse_8hpp.html" target="_top" xlink:title=" ">
<polygon fill="white" stroke="black" points="624.5,-168.5 624.5,-187.5 704.5,-187.5 704.5,-168.5 624.5,-168.5"/>
<text text-anchor="middle" x="664.5" y="-175.5" font-family="Helvetica,sans-Serif" font-size="10.00">ArgParse.hpp</text>
</a>
</g>
</g>
<!-- Node7&#45;&gt;Node8 -->
<g id="edge7" class="edge">
<title>Node7&#45;&gt;Node8</title>
<path fill="none" stroke="midnightblue" d="M623.76,-329.08C631.7,-321.14 640.34,-310.92 645.5,-300 663.84,-261.16 665.07,-208.28 664.77,-187.7"/>
<polygon fill="midnightblue" stroke="midnightblue" points="621.09,-326.79 616.22,-336.19 625.89,-331.88 621.09,-326.79"/>
</g>
<!-- Node16 -->
<g id="node16" class="node">
<title>Node16</title>
<g id="a_node16"><a xlink:href="FileOutputStream_8hpp.html" target="_top" xlink:title=" ">
<polygon fill="white" stroke="black" points="433,-280.5 433,-299.5 556,-299.5 556,-280.5 433,-280.5"/>
<text text-anchor="middle" x="494.5" y="-287.5" font-family="Helvetica,sans-Serif" font-size="10.00">FileOutputStream.hpp</text>
</a>
</g>
</g>
<!-- Node7&#45;&gt;Node16 -->
<g id="edge15" class="edge">
<title>Node7&#45;&gt;Node16</title>
<path fill="none" stroke="midnightblue" d="M578.49,-331.86C557.91,-321.85 530.16,-308.35 512.29,-299.65"/>
<polygon fill="midnightblue" stroke="midnightblue" points="577.14,-335.1 587.67,-336.32 580.2,-328.8 577.14,-335.1"/>
</g>
<!-- Node24 -->
<g id="node24" class="node">
<title>Node24</title>
<g id="a_node24"><a xlink:href="StreamInterceptor_8hpp.html" target="_top" xlink:title=" ">
<polygon fill="white" stroke="black" points="290,-280.5 290,-299.5 415,-299.5 415,-280.5 290,-280.5"/>
<text text-anchor="middle" x="352.5" y="-287.5" font-family="Helvetica,sans-Serif" font-size="10.00">StreamInterceptor.hpp</text>
</a>
</g>
</g>
<!-- Node7&#45;&gt;Node24 -->
<g id="edge25" class="edge">
<title>Node7&#45;&gt;Node24</title>
<path fill="none" stroke="midnightblue" d="M555.58,-334.35C507.77,-324.14 436.55,-308.94 392.4,-299.52"/>
<polygon fill="midnightblue" stroke="midnightblue" points="554.9,-337.78 565.41,-336.44 556.36,-330.93 554.9,-337.78"/>
</g>
<!-- Node25 -->
<g id="node25" class="node">
<title>Node25</title>
<g id="a_node25"><a xlink:href="Color_8hpp.html" target="_top" xlink:title=" ">
<polygon fill="white" stroke="black" points="574.5,-280.5 574.5,-299.5 636.5,-299.5 636.5,-280.5 574.5,-280.5"/>
<text text-anchor="middle" x="605.5" y="-287.5" font-family="Helvetica,sans-Serif" font-size="10.00">Color.hpp</text>
</a>
</g>
</g>
<!-- Node7&#45;&gt;Node25 -->
<g id="edge26" class="edge">
<title>Node7&#45;&gt;Node25</title>
<path fill="none" stroke="midnightblue" d="M605.5,-325.8C605.5,-316.91 605.5,-306.78 605.5,-299.75"/>
<polygon fill="midnightblue" stroke="midnightblue" points="602,-326.08 605.5,-336.08 609,-326.08 602,-326.08"/>
</g>
<!-- Node9 -->
<g id="node9" class="node">
<title>Node9</title>
<g id="a_node9"><a xlink:href="AbsArgument_8hpp.html" target="_top" xlink:title=" ">
<polygon fill="white" stroke="black" points="508.5,-112.5 508.5,-131.5 612.5,-131.5 612.5,-112.5 508.5,-112.5"/>
<text text-anchor="middle" x="560.5" y="-119.5" font-family="Helvetica,sans-Serif" font-size="10.00">AbsArgument.hpp</text>
</a>
</g>
</g>
<!-- Node8&#45;&gt;Node9 -->
<g id="edge8" class="edge">
<title>Node8&#45;&gt;Node9</title>
<path fill="none" stroke="midnightblue" d="M638.67,-163.59C619.44,-153.61 593.76,-140.27 577.17,-131.65"/>
<polygon fill="midnightblue" stroke="midnightblue" points="637.3,-166.82 647.79,-168.32 640.53,-160.61 637.3,-166.82"/>
</g>
<!-- Node14 -->
<g id="node14" class="node">
<title>Node14</title>
<g id="a_node14"><a xlink:href="container__extension_8hpp.html" target="_top" xlink:title=" ">
<polygon fill="white" stroke="black" points="631,-112.5 631,-131.5 768,-131.5 768,-112.5 631,-112.5"/>
<text text-anchor="middle" x="699.5" y="-119.5" font-family="Helvetica,sans-Serif" font-size="10.00">container_extension.hpp</text>
</a>
</g>
</g>
<!-- Node8&#45;&gt;Node14 -->
<g id="edge13" class="edge">
<title>Node8&#45;&gt;Node14</title>
<path fill="none" stroke="midnightblue" d="M675.8,-159.57C681.82,-150.27 688.97,-139.25 693.83,-131.75"/>
<polygon fill="midnightblue" stroke="midnightblue" points="672.78,-157.79 670.28,-168.08 678.66,-161.6 672.78,-157.79"/>
</g>
<!-- Node15 -->
<g id="node15" class="node">
<title>Node15</title>
<g id="a_node15"><a xlink:href="file__system__extension_8hpp.html" target="_top" xlink:title=" ">
<polygon fill="white" stroke="black" points="343,-112.5 343,-131.5 490,-131.5 490,-112.5 343,-112.5"/>
<text text-anchor="middle" x="416.5" y="-119.5" font-family="Helvetica,sans-Serif" font-size="10.00">file_system_extension.hpp</text>
</a>
</g>
</g>
<!-- Node8&#45;&gt;Node15 -->
<g id="edge14" class="edge">
<title>Node8&#45;&gt;Node15</title>
<path fill="none" stroke="midnightblue" d="M615.27,-166.28C568.41,-156.08 498.8,-140.92 455.61,-131.52"/>
<polygon fill="midnightblue" stroke="midnightblue" points="614.69,-169.74 625.2,-168.44 616.18,-162.9 614.69,-169.74"/>
</g>
<!-- Node10 -->
<g id="node10" class="node">
<title>Node10</title>
<g id="a_node10"><a xlink:href="AggregateArgument_8hpp.html" target="_top" xlink:title=" ">
<polygon fill="white" stroke="black" points="558.5,-56.5 558.5,-75.5 694.5,-75.5 694.5,-56.5 558.5,-56.5"/>
<text text-anchor="middle" x="626.5" y="-63.5" font-family="Helvetica,sans-Serif" font-size="10.00">AggregateArgument.hpp</text>
</a>
</g>
</g>
<!-- Node9&#45;&gt;Node10 -->
<g id="edge9" class="edge">
<title>Node9&#45;&gt;Node10</title>
<path fill="none" stroke="midnightblue" d="M579.05,-105.82C590.88,-96.15 605.79,-83.95 615.7,-75.83"/>
<polygon fill="midnightblue" stroke="midnightblue" points="576.63,-103.28 571.1,-112.32 581.06,-108.7 576.63,-103.28"/>
</g>
<!-- Node11 -->
<g id="node11" class="node">
<title>Node11</title>
<g id="a_node11"><a xlink:href="FlagArgument_8hpp.html" target="_top" xlink:title=" ">
<polygon fill="white" stroke="black" points="713,-56.5 713,-75.5 820,-75.5 820,-56.5 713,-56.5"/>
<text text-anchor="middle" x="766.5" y="-63.5" font-family="Helvetica,sans-Serif" font-size="10.00">FlagArgument.hpp</text>
</a>
</g>
</g>
<!-- Node9&#45;&gt;Node11 -->
<g id="edge10" class="edge">
<title>Node9&#45;&gt;Node11</title>
<path fill="none" stroke="midnightblue" d="M603.12,-109.83C642.01,-99.63 698.66,-84.78 734.01,-75.52"/>
<polygon fill="midnightblue" stroke="midnightblue" points="601.93,-106.52 593.14,-112.44 603.7,-113.29 601.93,-106.52"/>
</g>
<!-- Node12 -->
<g id="node12" class="node">
<title>Node12</title>
<g id="a_node12"><a xlink:href="KeywordArgument_8hpp.html" target="_top" xlink:title=" ">
<polygon fill="white" stroke="black" points="260.5,-56.5 260.5,-75.5 388.5,-75.5 388.5,-56.5 260.5,-56.5"/>
<text text-anchor="middle" x="324.5" y="-63.5" font-family="Helvetica,sans-Serif" font-size="10.00">KeywordArgument.hpp</text>
</a>
</g>
</g>
<!-- Node9&#45;&gt;Node12 -->
<g id="edge11" class="edge">
<title>Node9&#45;&gt;Node12</title>
<path fill="none" stroke="midnightblue" d="M513.09,-110.15C468.5,-99.95 402.65,-84.88 361.72,-75.52"/>
<polygon fill="midnightblue" stroke="midnightblue" points="512.58,-113.62 523.11,-112.44 514.14,-106.8 512.58,-113.62"/>
</g>
<!-- Node13 -->
<g id="node13" class="node">
<title>Node13</title>
<g id="a_node13"><a xlink:href="PositionalArgument_8hpp.html" target="_top" xlink:title=" ">
<polygon fill="white" stroke="black" points="406.5,-56.5 406.5,-75.5 540.5,-75.5 540.5,-56.5 406.5,-56.5"/>
<text text-anchor="middle" x="473.5" y="-63.5" font-family="Helvetica,sans-Serif" font-size="10.00">PositionalArgument.hpp</text>
</a>
</g>
</g>
<!-- Node9&#45;&gt;Node13 -->
<g id="edge12" class="edge">
<title>Node9&#45;&gt;Node13</title>
<path fill="none" stroke="midnightblue" d="M537.78,-106.9C521.83,-97 501,-84.07 487.44,-75.65"/>
<polygon fill="midnightblue" stroke="midnightblue" points="536.18,-110.02 546.52,-112.32 539.87,-104.08 536.18,-110.02"/>
</g>
<!-- Node17 -->
<g id="node17" class="node">
<title>Node17</title>
<g id="a_node17"><a xlink:href="Logger_8hpp.html" target="_top" xlink:title=" ">
<polygon fill="white" stroke="black" points="255.5,-224.5 255.5,-243.5 325.5,-243.5 325.5,-224.5 255.5,-224.5"/>
<text text-anchor="middle" x="290.5" y="-231.5" font-family="Helvetica,sans-Serif" font-size="10.00">Logger.hpp</text>
</a>
</g>
</g>
<!-- Node16&#45;&gt;Node17 -->
<g id="edge16" class="edge">
<title>Node16&#45;&gt;Node17</title>
<path fill="none" stroke="midnightblue" d="M452.3,-277.83C413.78,-267.63 357.68,-252.78 322.67,-243.52"/>
<polygon fill="midnightblue" stroke="midnightblue" points="451.61,-281.27 462.18,-280.44 453.4,-274.5 451.61,-281.27"/>
</g>
<!-- Node18 -->
<g id="node18" class="node">
<title>Node18</title>
<g id="a_node18"><a xlink:href="LogBlock_8hpp.html" target="_top" xlink:title=" ">
<polygon fill="white" stroke="black" points="132.5,-168.5 132.5,-187.5 214.5,-187.5 214.5,-168.5 132.5,-168.5"/>
<text text-anchor="middle" x="173.5" y="-175.5" font-family="Helvetica,sans-Serif" font-size="10.00">LogBlock.hpp</text>
</a>
</g>
</g>
<!-- Node17&#45;&gt;Node18 -->
<g id="edge17" class="edge">
<title>Node17&#45;&gt;Node18</title>
<path fill="none" stroke="midnightblue" d="M262.84,-220.23C240.95,-210.13 211,-196.31 191.95,-187.52"/>
<polygon fill="midnightblue" stroke="midnightblue" points="261.41,-223.43 271.96,-224.44 264.35,-217.08 261.41,-223.43"/>
</g>
<!-- Node19 -->
<g id="node19" class="node">
<title>Node19</title>
<g id="a_node19"><a xlink:href="Loggee_8hpp.html" target="_top" xlink:title=" ">
<polygon fill="white" stroke="black" points="68,-112.5 68,-131.5 141,-131.5 141,-112.5 68,-112.5"/>
<text text-anchor="middle" x="104.5" y="-119.5" font-family="Helvetica,sans-Serif" font-size="10.00">Loggee.hpp</text>
</a>
</g>
</g>
<!-- Node17&#45;&gt;Node19 -->
<g id="edge21" class="edge">
<title>Node17&#45;&gt;Node19</title>
<path fill="none" stroke="midnightblue" d="M245.47,-223.25C199.09,-212.83 132.35,-196.66 123.5,-188 108.04,-172.87 104.99,-145.91 104.5,-131.94"/>
<polygon fill="midnightblue" stroke="midnightblue" points="244.8,-226.69 255.32,-225.44 246.32,-219.85 244.8,-226.69"/>
</g>
<!-- Node22 -->
<g id="node22" class="node">
<title>Node22</title>
<g id="a_node22"><a xlink:href="LoggerSingleton_8hpp.html" target="_top" xlink:title=" ">
<polygon fill="white" stroke="black" points="232.5,-168.5 232.5,-187.5 348.5,-187.5 348.5,-168.5 232.5,-168.5"/>
<text text-anchor="middle" x="290.5" y="-175.5" font-family="Helvetica,sans-Serif" font-size="10.00">LoggerSingleton.hpp</text>
</a>
</g>
</g>
<!-- Node17&#45;&gt;Node22 -->
<g id="edge22" class="edge">
<title>Node17&#45;&gt;Node22</title>
<path fill="none" stroke="midnightblue" d="M290.5,-213.8C290.5,-204.91 290.5,-194.78 290.5,-187.75"/>
<polygon fill="midnightblue" stroke="midnightblue" points="287,-214.08 290.5,-224.08 294,-214.08 287,-214.08"/>
</g>
<!-- Node18&#45;&gt;Node19 -->
<g id="edge18" class="edge">
<title>Node18&#45;&gt;Node19</title>
<path fill="none" stroke="midnightblue" d="M154.46,-162.1C142.04,-152.38 126.26,-140.03 115.79,-131.83"/>
<polygon fill="midnightblue" stroke="midnightblue" points="152.38,-164.92 162.41,-168.32 156.7,-159.4 152.38,-164.92"/>
</g>
<!-- Node20 -->
<g id="node20" class="node">
<title>Node20</title>
<g id="a_node20"><a xlink:href="testing_8hpp.html" target="_top" xlink:title=" ">
<polygon fill="white" stroke="black" points="159,-112.5 159,-131.5 230,-131.5 230,-112.5 159,-112.5"/>
<text text-anchor="middle" x="194.5" y="-119.5" font-family="Helvetica,sans-Serif" font-size="10.00">testing.hpp</text>
</a>
</g>
</g>
<!-- Node18&#45;&gt;Node20 -->
<g id="edge19" class="edge">
<title>Node18&#45;&gt;Node20</title>
<path fill="none" stroke="midnightblue" d="M180.62,-158.69C184.16,-149.59 188.27,-139.01 191.1,-131.75"/>
<polygon fill="midnightblue" stroke="midnightblue" points="177.33,-157.49 176.97,-168.08 183.85,-160.03 177.33,-157.49"/>
</g>
<!-- Node21 -->
<g id="node21" class="node">
<title>Node21</title>
<g id="a_node21"><a xlink:href="essentials_8hpp.html" target="_top" xlink:title=" ">
<polygon fill="white" stroke="black" points="151,-56.5 151,-75.5 238,-75.5 238,-56.5 151,-56.5"/>
<text text-anchor="middle" x="194.5" y="-63.5" font-family="Helvetica,sans-Serif" font-size="10.00">essentials.hpp</text>
</a>
</g>
</g>
<!-- Node20&#45;&gt;Node21 -->
<g id="edge20" class="edge">
<title>Node20&#45;&gt;Node21</title>
<path fill="none" stroke="midnightblue" d="M194.5,-101.8C194.5,-92.91 194.5,-82.78 194.5,-75.75"/>
<polygon fill="midnightblue" stroke="midnightblue" points="191,-102.08 194.5,-112.08 198,-102.08 191,-102.08"/>
</g>
<!-- Node22&#45;&gt;Node20 -->
<g id="edge23" class="edge">
<title>Node22&#45;&gt;Node20</title>
<path fill="none" stroke="midnightblue" d="M265.93,-163.18C248.26,-153.24 224.99,-140.15 209.89,-131.65"/>
<polygon fill="midnightblue" stroke="midnightblue" points="264.64,-166.47 275.08,-168.32 268.08,-160.37 264.64,-166.47"/>
</g>
<!-- Node23 -->
<g id="node23" class="node">
<title>Node23</title>
<g id="a_node23"><a xlink:href="warning_8hpp.html" target="_top" xlink:title=" ">
<polygon fill="white" stroke="black" points="248,-112.5 248,-131.5 325,-131.5 325,-112.5 248,-112.5"/>
<text text-anchor="middle" x="286.5" y="-119.5" font-family="Helvetica,sans-Serif" font-size="10.00">warning.hpp</text>
</a>
</g>
</g>
<!-- Node22&#45;&gt;Node23 -->
<g id="edge24" class="edge">
<title>Node22&#45;&gt;Node23</title>
<path fill="none" stroke="midnightblue" d="M289.1,-158.1C288.44,-149.14 287.67,-138.86 287.15,-131.75"/>
<polygon fill="midnightblue" stroke="midnightblue" points="285.61,-158.37 289.84,-168.08 292.59,-157.85 285.61,-158.37"/>
</g>
<!-- Node28 -->
<g id="node28" class="node">
<title>Node28</title>
<g id="a_node28"><a xlink:href="STLContainerBase_8hpp.html" target="_top" xlink:title=" ">
<polygon fill="white" stroke="black" points="1072.5,-280.5 1072.5,-299.5 1198.5,-299.5 1198.5,-280.5 1072.5,-280.5"/>
<text text-anchor="middle" x="1135.5" y="-287.5" font-family="Helvetica,sans-Serif" font-size="10.00">STLContainerBase.hpp</text>
</a>
</g>
</g>
<!-- Node27&#45;&gt;Node28 -->
<g id="edge29" class="edge">
<title>Node27&#45;&gt;Node28</title>
<path fill="none" stroke="midnightblue" d="M1135.5,-325.8C1135.5,-316.91 1135.5,-306.78 1135.5,-299.75"/>
<polygon fill="midnightblue" stroke="midnightblue" points="1132,-326.08 1135.5,-336.08 1139,-326.08 1132,-326.08"/>
</g>
<!-- Node29 -->
<g id="node29" class="node">
<title>Node29</title>
<g id="a_node29"><a xlink:href="DynamicArray_8hpp.html" target="_top" xlink:title=" ">
<polygon fill="white" stroke="black" points="985.5,-224.5 985.5,-243.5 1091.5,-243.5 1091.5,-224.5 985.5,-224.5"/>
<text text-anchor="middle" x="1038.5" y="-231.5" font-family="Helvetica,sans-Serif" font-size="10.00">DynamicArray.hpp</text>
</a>
</g>
</g>
<!-- Node28&#45;&gt;Node29 -->
<g id="edge30" class="edge">
<title>Node28&#45;&gt;Node29</title>
<path fill="none" stroke="midnightblue" d="M1111.16,-275.45C1093.26,-265.48 1069.45,-252.23 1054.05,-243.65"/>
<polygon fill="midnightblue" stroke="midnightblue" points="1109.48,-278.52 1119.92,-280.32 1112.88,-272.4 1109.48,-278.52"/>
</g>
<!-- Node40 -->
<g id="node40" class="node">
<title>Node40</title>
<g id="a_node40"><a xlink:href="StaticArray_8hpp.html" target="_top" xlink:title=" ">
<polygon fill="white" stroke="black" points="1298.5,-224.5 1298.5,-243.5 1388.5,-243.5 1388.5,-224.5 1298.5,-224.5"/>
<text text-anchor="middle" x="1343.5" y="-231.5" font-family="Helvetica,sans-Serif" font-size="10.00">StaticArray.hpp</text>
</a>
</g>
</g>
<!-- Node28&#45;&gt;Node40 -->
<g id="edge45" class="edge">
<title>Node28&#45;&gt;Node40</title>
<path fill="none" stroke="midnightblue" d="M1178.28,-277.89C1217.56,-267.7 1274.93,-252.8 1310.7,-243.52"/>
<polygon fill="midnightblue" stroke="midnightblue" points="1177.26,-274.54 1168.46,-280.44 1179.02,-281.32 1177.26,-274.54"/>
</g>
<!-- Node29&#45;&gt;Node8 -->
<g id="edge31" class="edge">
<title>Node29&#45;&gt;Node8</title>
<path fill="none" stroke="midnightblue" d="M975.22,-223.86C897.92,-212.7 769.47,-194.16 704.6,-184.79"/>
<polygon fill="midnightblue" stroke="midnightblue" points="974.91,-227.36 985.31,-225.32 975.91,-220.43 974.91,-227.36"/>
</g>
<!-- Node30 -->
<g id="node30" class="node">
<title>Node30</title>
<g id="a_node30"><a xlink:href="ParallelFor_8hpp.html" target="_top" xlink:title=" ">
<polygon fill="white" stroke="black" points="972.5,-56.5 972.5,-75.5 1060.5,-75.5 1060.5,-56.5 972.5,-56.5"/>
<text text-anchor="middle" x="1016.5" y="-63.5" font-family="Helvetica,sans-Serif" font-size="10.00">ParallelFor.hpp</text>
</a>
</g>
</g>
<!-- Node29&#45;&gt;Node30 -->
<g id="edge32" class="edge">
<title>Node29&#45;&gt;Node30</title>
<path fill="none" stroke="midnightblue" d="M1011.83,-219.22C1000.25,-211.7 987.9,-201.2 981.5,-188 962.24,-148.25 995.16,-95.89 1009.91,-75.57"/>
<polygon fill="midnightblue" stroke="midnightblue" points="1010.05,-222.23 1020.42,-224.39 1013.66,-216.23 1010.05,-222.23"/>
</g>
<!-- Node31 -->
<g id="node31" class="node">
<title>Node31</title>
<g id="a_node31"><a xlink:href="ThreadLocal_8hpp.html" target="_top" xlink:title=" ">
<polygon fill="white" stroke="black" points="990,-168.5 990,-187.5 1087,-187.5 1087,-168.5 990,-168.5"/>
<text text-anchor="middle" x="1038.5" y="-175.5" font-family="Helvetica,sans-Serif" font-size="10.00">ThreadLocal.hpp</text>
</a>
</g>
</g>
<!-- Node29&#45;&gt;Node31 -->
<g id="edge33" class="edge">
<title>Node29&#45;&gt;Node31</title>
<path fill="none" stroke="midnightblue" d="M1038.5,-213.8C1038.5,-204.91 1038.5,-194.78 1038.5,-187.75"/>
<polygon fill="midnightblue" stroke="midnightblue" points="1035,-214.08 1038.5,-224.08 1042,-214.08 1035,-214.08"/>
</g>
<!-- Node32 -->
<g id="node32" class="node">
<title>Node32</title>
<g id="a_node32"><a xlink:href="ThreadPoolStorage_8hpp.html" target="_top" xlink:title=" ">
<polygon fill="white" stroke="black" points="1105.5,-168.5 1105.5,-187.5 1235.5,-187.5 1235.5,-168.5 1105.5,-168.5"/>
<text text-anchor="middle" x="1170.5" y="-175.5" font-family="Helvetica,sans-Serif" font-size="10.00">ThreadPoolStorage.hpp</text>
</a>
</g>
</g>
<!-- Node29&#45;&gt;Node32 -->
<g id="edge34" class="edge">
<title>Node29&#45;&gt;Node32</title>
<path fill="none" stroke="midnightblue" d="M1068.72,-220.64C1093.49,-210.5 1127.9,-196.43 1149.68,-187.52"/>
<polygon fill="midnightblue" stroke="midnightblue" points="1067.35,-217.42 1059.42,-224.44 1070,-223.9 1067.35,-217.42"/>
</g>
<!-- Node36 -->
<g id="node36" class="node">
<title>Node36</title>
<g id="a_node36"><a xlink:href="abstree_8hpp.html" target="_top" xlink:title=" ">
<polygon fill="white" stroke="black" points="1211.5,-56.5 1211.5,-75.5 1285.5,-75.5 1285.5,-56.5 1211.5,-56.5"/>
<text text-anchor="middle" x="1248.5" y="-63.5" font-family="Helvetica,sans-Serif" font-size="10.00">abstree.hpp</text>
</a>
</g>
</g>
<!-- Node29&#45;&gt;Node36 -->
<g id="edge42" class="edge">
<title>Node29&#45;&gt;Node36</title>
<path fill="none" stroke="midnightblue" d="M1101.88,-227.59C1155.51,-221.56 1226.45,-209.67 1244.5,-188 1272.07,-154.89 1258.05,-97.22 1251.37,-75.55"/>
<polygon fill="midnightblue" stroke="midnightblue" points="1101.32,-224.13 1091.75,-228.68 1102.07,-231.09 1101.32,-224.13"/>
</g>
<!-- Node37 -->
<g id="node37" class="node">
<title>Node37</title>
<g id="a_node37"><a xlink:href="ContiguousTree_8hpp.html" target="_top" xlink:title=" ">
<polygon fill="white" stroke="black" points="840,-56.5 840,-75.5 953,-75.5 953,-56.5 840,-56.5"/>
<text text-anchor="middle" x="896.5" y="-63.5" font-family="Helvetica,sans-Serif" font-size="10.00">ContiguousTree.hpp</text>
</a>
</g>
</g>
<!-- Node29&#45;&gt;Node37 -->
<g id="edge43" class="edge">
<title>Node29&#45;&gt;Node37</title>
<path fill="none" stroke="midnightblue" d="M975.12,-229.9C912.27,-225.34 822.29,-214.3 800.5,-188 766.11,-146.5 844.9,-95.57 880.35,-75.61"/>
<polygon fill="midnightblue" stroke="midnightblue" points="975.13,-233.41 985.35,-230.6 975.61,-226.43 975.13,-233.41"/>
</g>
<!-- Node38 -->
<g id="node38" class="node">
<title>Node38</title>
<g id="a_node38"><a xlink:href="UnstructuredView_8hpp.html" target="_top" xlink:title=" ">
<polygon fill="white" stroke="black" points="809.5,-168.5 809.5,-187.5 933.5,-187.5 933.5,-168.5 809.5,-168.5"/>
<text text-anchor="middle" x="871.5" y="-175.5" font-family="Helvetica,sans-Serif" font-size="10.00">UnstructuredView.hpp</text>
</a>
</g>
</g>
<!-- Node29&#45;&gt;Node38 -->
<g id="edge41" class="edge">
<title>Node29&#45;&gt;Node38</title>
<path fill="none" stroke="midnightblue" d="M1002.33,-221.3C970.86,-211.13 926.01,-196.62 897.84,-187.52"/>
<polygon fill="midnightblue" stroke="midnightblue" points="1001.45,-224.7 1012.04,-224.44 1003.6,-218.04 1001.45,-224.7"/>
</g>
<!-- Node39 -->
<g id="node39" class="node">
<title>Node39</title>
<g id="a_node39"><a xlink:href="stl__extension_8hpp.html" target="_top" xlink:title=" ">
<polygon fill="white" stroke="black" points="1292,-168.5 1292,-187.5 1395,-187.5 1395,-168.5 1292,-168.5"/>
<text text-anchor="middle" x="1343.5" y="-175.5" font-family="Helvetica,sans-Serif" font-size="10.00">stl_extension.hpp</text>
</a>
</g>
</g>
<!-- Node29&#45;&gt;Node39 -->
<g id="edge44" class="edge">
<title>Node29&#45;&gt;Node39</title>
<path fill="none" stroke="midnightblue" d="M1096.88,-222.66C1154.52,-212.46 1241.62,-197.04 1295.4,-187.52"/>
<polygon fill="midnightblue" stroke="midnightblue" points="1096.06,-219.25 1086.83,-224.44 1097.29,-226.15 1096.06,-219.25"/>
</g>
<!-- Node33 -->
<g id="node33" class="node">
<title>Node33</title>
<g id="a_node33"><a xlink:href="ThreadPool_8hpp.html" target="_top" xlink:title=" ">
<polygon fill="white" stroke="black" points="1089.5,-112.5 1089.5,-131.5 1181.5,-131.5 1181.5,-112.5 1089.5,-112.5"/>
<text text-anchor="middle" x="1135.5" y="-119.5" font-family="Helvetica,sans-Serif" font-size="10.00">ThreadPool.hpp</text>
</a>
</g>
</g>
<!-- Node32&#45;&gt;Node33 -->
<g id="edge35" class="edge">
<title>Node32&#45;&gt;Node33</title>
<path fill="none" stroke="midnightblue" d="M1159.2,-159.57C1153.18,-150.27 1146.03,-139.25 1141.17,-131.75"/>
<polygon fill="midnightblue" stroke="midnightblue" points="1156.34,-161.6 1164.72,-168.08 1162.22,-157.79 1156.34,-161.6"/>
</g>
<!-- Node33&#45;&gt;Node30 -->
<g id="edge36" class="edge">
<title>Node33&#45;&gt;Node30</title>
<path fill="none" stroke="midnightblue" d="M1107.36,-108.23C1085.1,-98.13 1054.64,-84.31 1035.27,-75.52"/>
<polygon fill="midnightblue" stroke="midnightblue" points="1106.09,-111.5 1116.64,-112.44 1108.98,-105.12 1106.09,-111.5"/>
</g>
<!-- Node34 -->
<g id="node34" class="node">
<title>Node34</title>
<g id="a_node34"><a xlink:href="ResourceLoader_8hpp.html" target="_top" xlink:title=" ">
<polygon fill="white" stroke="black" points="1078,-56.5 1078,-75.5 1193,-75.5 1193,-56.5 1078,-56.5"/>
<text text-anchor="middle" x="1135.5" y="-63.5" font-family="Helvetica,sans-Serif" font-size="10.00">ResourceLoader.hpp</text>
</a>
</g>
</g>
<!-- Node33&#45;&gt;Node34 -->
<g id="edge37" class="edge">
<title>Node33&#45;&gt;Node34</title>
<path fill="none" stroke="midnightblue" d="M1135.5,-101.8C1135.5,-92.91 1135.5,-82.78 1135.5,-75.75"/>
<polygon fill="midnightblue" stroke="midnightblue" points="1132,-102.08 1135.5,-112.08 1139,-102.08 1132,-102.08"/>
</g>
<!-- Node33&#45;&gt;Node36 -->
<g id="edge39" class="edge">
<title>Node33&#45;&gt;Node36</title>
<path fill="none" stroke="midnightblue" d="M1162.5,-108.1C1183.61,-98.01 1212.36,-84.27 1230.68,-75.52"/>
<polygon fill="midnightblue" stroke="midnightblue" points="1160.92,-104.97 1153.41,-112.44 1163.94,-111.29 1160.92,-104.97"/>
</g>
<!-- Node33&#45;&gt;Node37 -->
<g id="edge40" class="edge">
<title>Node33&#45;&gt;Node37</title>
<path fill="none" stroke="midnightblue" d="M1087.78,-110.22C1042.61,-100.01 975.73,-84.9 934.19,-75.52"/>
<polygon fill="midnightblue" stroke="midnightblue" points="1087.1,-113.65 1097.63,-112.44 1088.65,-106.83 1087.1,-113.65"/>
</g>
<!-- Node35 -->
<g id="node35" class="node">
<title>Node35</title>
<g id="a_node35"><a xlink:href="ResourceQueue_8hpp.html" target="_top" xlink:title=" ">
<polygon fill="white" stroke="black" points="1078.5,-0.5 1078.5,-19.5 1192.5,-19.5 1192.5,-0.5 1078.5,-0.5"/>
<text text-anchor="middle" x="1135.5" y="-7.5" font-family="Helvetica,sans-Serif" font-size="10.00">ResourceQueue.hpp</text>
</a>
</g>
</g>
<!-- Node34&#45;&gt;Node35 -->
<g id="edge38" class="edge">
<title>Node34&#45;&gt;Node35</title>
<path fill="none" stroke="midnightblue" d="M1135.5,-45.8C1135.5,-36.91 1135.5,-26.78 1135.5,-19.75"/>
<polygon fill="midnightblue" stroke="midnightblue" points="1132,-46.08 1135.5,-56.08 1139,-46.08 1132,-46.08"/>
</g>
<!-- Node40&#45;&gt;Node2 -->
<g id="edge46" class="edge">
<title>Node40&#45;&gt;Node2</title>
<path fill="none" stroke="midnightblue" d="M1381.62,-221.44C1415.18,-211.26 1463.27,-196.66 1493.43,-187.52"/>
<polygon fill="midnightblue" stroke="midnightblue" points="1380.26,-218.19 1371.7,-224.44 1382.29,-224.89 1380.26,-218.19"/>
</g>
<!-- Node40&#45;&gt;Node39 -->
<g id="edge48" class="edge">
<title>Node40&#45;&gt;Node39</title>
<path fill="none" stroke="midnightblue" d="M1343.5,-213.8C1343.5,-204.91 1343.5,-194.78 1343.5,-187.75"/>
<polygon fill="midnightblue" stroke="midnightblue" points="1340,-214.08 1343.5,-224.08 1347,-214.08 1340,-214.08"/>
</g>
<!-- Node41 -->
<g id="node41" class="node">
<title>Node41</title>
<g id="a_node41"><a xlink:href="base_8hpp.html" target="_top" xlink:title=" ">
<polygon fill="white" stroke="black" points="1413,-168.5 1413,-187.5 1474,-187.5 1474,-168.5 1413,-168.5"/>
<text text-anchor="middle" x="1443.5" y="-175.5" font-family="Helvetica,sans-Serif" font-size="10.00">base.hpp</text>
</a>
</g>
</g>
<!-- Node40&#45;&gt;Node41 -->
<g id="edge47" class="edge">
<title>Node40&#45;&gt;Node41</title>
<path fill="none" stroke="midnightblue" d="M1368.59,-219.45C1387.05,-209.48 1411.6,-196.23 1427.47,-187.65"/>
<polygon fill="midnightblue" stroke="midnightblue" points="1366.7,-216.49 1359.57,-224.32 1370.03,-222.65 1366.7,-216.49"/>
</g>
</g>
</svg>
        <g id="navigator" transform="translate(0 0)" fill="#404254">
                <rect fill="#f2f5e9" fill-opacity="0.5" stroke="#606060" stroke-width=".5" x="0" y="0" width="60" height="60"/>
                <use id="zoomplus" xlink:href="#zoomPlus" x="17" y="9" onmousedown="handleZoom(evt,'in')"/>
                <use id="zoomminus" xlink:href="#zoomMin" x="42" y="9" onmousedown="handleZoom(evt,'out')"/>
                <use id="reset" xlink:href="#resetDef" x="30" y="36" onmousedown="handleReset()"/>
                <g id="arrowUp" xlink:href="#dirArrow" transform="translate(30 24)" onmousedown="handlePan(0,-1)">
                  <use xlink:href="#rim" fill="#404040">
                        <set attributeName="fill" to="#808080" begin="arrowUp.mouseover" end="arrowUp.mouseout"/>
                  </use>
                  <path fill="none" stroke="white" stroke-width="1.5" d="M0,-3.0v7 M-2.5,-0.5L0,-3.0L2.5,-0.5"/>
                </g>
                <g id="arrowRight" xlink:href="#dirArrow" transform="rotate(90) translate(36 -43)" onmousedown="handlePan(1,0)">
                  <use xlink:href="#rim" fill="#404040">
                        <set attributeName="fill" to="#808080" begin="arrowRight.mouseover" end="arrowRight.mouseout"/>
                  </use>
                  <path fill="none" stroke="white" stroke-width="1.5" d="M0,-3.0v7 M-2.5,-0.5L0,-3.0L2.5,-0.5"/>
                </g>
                <g id="arrowDown" xlink:href="#dirArrow" transform="rotate(180) translate(-30 -48)" onmousedown="handlePan(0,1)">
                  <use xlink:href="#rim" fill="#404040">
                        <set attributeName="fill" to="#808080" begin="arrowDown.mouseover" end="arrowDown.mouseout"/>
                  </use>
                  <path fill="none" stroke="white" stroke-width="1.5" d="M0,-3.0v7 M-2.5,-0.5L0,-3.0L2.5,-0.5"/>
                </g>
                <g id="arrowLeft" xlink:href="#dirArrow" transform="rotate(270) translate(-36 17)" onmousedown="handlePan(-1,0)">
                  <use xlink:href="#rim" fill="#404040">
                        <set attributeName="fill" to="#808080" begin="arrowLeft.mouseover" end="arrowLeft.mouseout"/>
                  </use>
                  <path fill="none" stroke="white" stroke-width="1.5" d="M0,-3.0v7 M-2.5,-0.5L0,-3.0L2.5,-0.5"/>
                </g>
        </g>
        <svg viewBox="0 0 15 15" width="100%" height="30px" preserveAspectRatio="xMaxYMin meet">
         <g id="arrow_out" transform="scale(0.3 0.3)">
          <a xlink:href="checks_8hpp__dep__incl_org.svg" target="_base">
           <rect id="button" ry="5" rx="5" y="6" x="6" height="38" width="38"
                fill="#f2f5e9" fill-opacity="0.5" stroke="#606060" stroke-width="1.0"/>
           <path id="arrow"
             d="M 11.500037,31.436501 C 11.940474,20.09759 22.043105,11.32322 32.158766,21.979434 L 37.068811,17.246167 C 37.068811,17.246167 37.088388,32 37.088388,32 L 22.160133,31.978069 C 22.160133,31.978069 26.997745,27.140456 26.997745,27.140456 C 18.528582,18.264221 13.291696,25.230495 11.500037,31.436501 z"
             style="fill:#404040;"/>
          </a>
         </g>
        </svg>
</svg>
