<?xml version="1.0" encoding="UTF-8" standalone="no"?>
<!DOCTYPE svg PUBLIC "-//W3C//DTD SVG 1.1//EN"
 "http://www.w3.org/Graphics/SVG/1.1/DTD/svg11.dtd">
<!-- Generated by graphviz version 2.43.0 (0)
 -->
<!-- Title: checks.hpp Pages: 1 -->
<!--zoomable 357 -->

<svg id="main" version="1.1" xmlns="http://www.w3.org/2000/svg" xmlns:xlink="http://www.w3.org/1999/xlink" xml:space="preserve" onload="init(evt)">
<style type="text/css"><![CDATA[
.node, .edge {opacity: 0.7;}
.node.selected, .edge.selected {opacity: 1;}
.edge:hover path { stroke: red; }
.edge:hover polygon { stroke: red; fill: red; }
]]></style>

<defs>
  <circle id="rim" cx="0" cy="0" r="7"/>
  <circle id="rim2" cx="0" cy="0" r="3.5"/>
  <g id="zoomPlus">
    <use xlink:href="#rim" fill="#404040"><set attributeName="fill" to="#808080" begin="zoomplus.mouseover" end="zoomplus.mouseout"/></use>
    <path d="M-4,0h8M0,-4v8" fill="none" stroke="white" stroke-width="1.5" pointer-events="none"/>
  </g>
  <g id="zoomMin">
    <use xlink:href="#rim" fill="#404040"><set attributeName="fill" to="#808080" begin="zoomminus.mouseover" end="zoomminus.mouseout"/></use>
    <path d="M-4,0h8" fill="none" stroke="white" stroke-width="1.5" pointer-events="none"/>
  </g>
  <g id="arrowUp" transform="translate(30 24)">
    <use xlink:href="#rim"/>
    <path pointer-events="none" fill="none" stroke="white" stroke-width="1.5" d="M0,-3.0v7 M-2.5,-0.5L0,-3.0L2.5,-0.5"/>
  </g>
  <g id="arrowRight" transform="rotate(90) translate(36 -43)">
    <use xlink:href="#rim"/>
    <path pointer-events="none" fill="none" stroke="white" stroke-width="1.5" d="M0,-3.0v7 M-2.5,-0.5L0,-3.0L2.5,-0.5"/>
  </g>
  <g id="arrowDown" transform="rotate(180) translate(-30 -48)">
    <use xlink:href="#rim"/>
    <path pointer-events="none" fill="none" stroke="white" stroke-width="1.5" d="M0,-3.0v7 M-2.5,-0.5L0,-3.0L2.5,-0.5"/>
  </g>
  <g id="arrowLeft" transform="rotate(270) translate(-36 17)">
    <use xlink:href="#rim"/>
    <path pointer-events="none" fill="none" stroke="white" stroke-width="1.5" d="M0,-3.0v7 M-2.5,-0.5L0,-3.0L2.5,-0.5"/>
  </g>
  <g id="resetDef">
    <use xlink:href="#rim2" fill="#404040"><set attributeName="fill" to="#808080" begin="reset.mouseover" end="reset.mouseout"/></use>
  </g>
</defs>
<script type="application/ecmascript">
var viewWidth = 1063;
var viewHeight = 357;
var sectionId = 'dynsection-0';
</script>
<script type="application/ecmascript" xlink:href="svg.min.js"/>
<svg id="graph" class="graph">
<g id="viewport">
<title>checks.hpp</title>
<!-- Node1 -->
<g id="Node000001" class="node">
<title>Node1</title>
<g id="a_Node000001"><a xlink:title=" ">
<polygon fill="#999999" stroke="#666666" points="892.5,-349 821.5,-349 821.5,-330 892.5,-330 892.5,-349"/>
<text text-anchor="middle" x="857" y="-337" font-family="Helvetica,sans-Serif" font-size="10.00">checks.hpp</text>
</a>
</g>
</g>
<!-- Node2 -->
<g id="Node000002" class="node">
<title>Node2</title>
<g id="a_Node000002"><a xlink:href="exception_8hpp.html" target="_top" xlink:title=" ">
<polygon fill="white" stroke="#666666" points="332.5,-228 213.5,-228 213.5,-198 332.5,-198 332.5,-228"/>
<text text-anchor="start" x="221.5" y="-216" font-family="Helvetica,sans-Serif" font-size="10.00">packages/exceptions</text>
<text text-anchor="middle" x="273" y="-205" font-family="Helvetica,sans-Serif" font-size="10.00">/inc/exception.hpp</text>
</a>
</g>
</g>
<!-- Node1&#45;&gt;Node2 -->
<g id="edge1_Node000001_Node000002" class="edge">
<title>Node1&#45;&gt;Node2</title>
<g id="a_edge1_Node000001_Node000002"><a xlink:title=" ">
<path fill="none" stroke="#63b8ff" d="M821.35,-330.9C726.71,-310.72 467.86,-255.54 342.66,-228.85"/>
<polygon fill="#63b8ff" stroke="#63b8ff" points="343.29,-225.41 332.78,-226.75 341.84,-232.25 343.29,-225.41"/>
</a>
</g>
</g>
<!-- Node5 -->
<g id="Node000005" class="node">
<title>Node5</title>
<g id="a_Node000005"><a xlink:href="detail_8hpp.html" target="_top" xlink:title=" ">
<polygon fill="white" stroke="#666666" points="776.5,-30 657.5,-30 657.5,0 776.5,0 776.5,-30"/>
<text text-anchor="start" x="665.5" y="-18" font-family="Helvetica,sans-Serif" font-size="10.00">packages/macros/inc</text>
<text text-anchor="middle" x="717" y="-7" font-family="Helvetica,sans-Serif" font-size="10.00">/detail.hpp</text>
</a>
</g>
</g>
<!-- Node1&#45;&gt;Node5 -->
<g id="edge22_Node000001_Node000005" class="edge">
<title>Node1&#45;&gt;Node5</title>
<g id="a_edge22_Node000001_Node000005"><a xlink:title=" ">
<path fill="none" stroke="#63b8ff" d="M863.13,-329.92C876.48,-310.37 907,-260.59 907,-214 907,-214 907,-214 907,-146 907,-85.48 840.54,-51.08 786.23,-33.06"/>
<polygon fill="#63b8ff" stroke="#63b8ff" points="787.19,-29.7 776.6,-29.99 785.06,-36.37 787.19,-29.7"/>
</a>
</g>
</g>
<!-- Node17 -->
<g id="Node000017" class="node">
<title>Node17</title>
<g id="a_Node000017"><a xlink:href="exceptions_8hpp.html" target="_top" xlink:title=" ">
<polygon fill="white" stroke="#666666" points="828.5,-294 709.5,-294 709.5,-264 828.5,-264 828.5,-294"/>
<text text-anchor="start" x="717.5" y="-282" font-family="Helvetica,sans-Serif" font-size="10.00">packages/macros/inc</text>
<text text-anchor="middle" x="769" y="-271" font-family="Helvetica,sans-Serif" font-size="10.00">/exceptions.hpp</text>
</a>
</g>
</g>
<!-- Node1&#45;&gt;Node17 -->
<g id="edge17_Node000001_Node000017" class="edge">
<title>Node1&#45;&gt;Node17</title>
<g id="a_edge17_Node000001_Node000017"><a xlink:title=" ">
<path fill="none" stroke="#63b8ff" d="M844.02,-329.87C832.19,-322 814.27,-310.09 798.91,-299.89"/>
<polygon fill="#63b8ff" stroke="#63b8ff" points="800.5,-296.74 790.23,-294.11 796.62,-302.57 800.5,-296.74"/>
</a>
</g>
</g>
<!-- Node18 -->
<g id="Node000018" class="node">
<title>Node18</title>
<g id="a_Node000018"><a xlink:title=" ">
<polygon fill="#e0e0e0" stroke="#999999" points="879,-222.5 823,-222.5 823,-203.5 879,-203.5 879,-222.5"/>
<text text-anchor="middle" x="851" y="-210.5" font-family="Helvetica,sans-Serif" font-size="10.00">sstream</text>
</a>
</g>
</g>
<!-- Node1&#45;&gt;Node18 -->
<g id="edge24_Node000001_Node000018" class="edge">
<title>Node1&#45;&gt;Node18</title>
<g id="a_edge24_Node000001_Node000018"><a xlink:title=" ">
<path fill="none" stroke="#63b8ff" d="M856.59,-329.94C855.63,-310.04 853.23,-260.26 851.91,-232.85"/>
<polygon fill="#63b8ff" stroke="#63b8ff" points="855.39,-232.44 851.42,-222.62 848.4,-232.77 855.39,-232.44"/>
</a>
</g>
</g>
<!-- Node20 -->
<g id="Node000020" class="node">
<title>Node20</title>
<g id="a_Node000020"><a xlink:title=" ">
<polygon fill="#e0e0e0" stroke="#999999" points="1055,-288.5 935,-288.5 935,-269.5 1055,-269.5 1055,-288.5"/>
<text text-anchor="middle" x="995" y="-276.5" font-family="Helvetica,sans-Serif" font-size="10.00">cmake_variables.hpp</text>
</a>
</g>
</g>
<!-- Node1&#45;&gt;Node20 -->
<g id="edge23_Node000001_Node000020" class="edge">
<title>Node1&#45;&gt;Node20</title>
<g id="a_edge23_Node000001_Node000020"><a xlink:title=" ">
<path fill="none" stroke="#63b8ff" d="M877.07,-329.99C900.37,-320.12 939.01,-303.73 965.68,-292.43"/>
<polygon fill="#63b8ff" stroke="#63b8ff" points="967.07,-295.64 974.91,-288.52 964.34,-289.2 967.07,-295.64"/>
</a>
</g>
</g>
<!-- Node3 -->
<g id="Node000003" class="node">
<title>Node3</title>
<g id="a_Node000003"><a xlink:href="types_8hpp.html" target="_top" xlink:title=" ">
<polygon fill="white" stroke="#666666" points="534,-162 424,-162 424,-132 534,-132 534,-162"/>
<text text-anchor="start" x="432" y="-150" font-family="Helvetica,sans-Serif" font-size="10.00">packages/types/inc</text>
<text text-anchor="middle" x="479" y="-139" font-family="Helvetica,sans-Serif" font-size="10.00">/types.hpp</text>
</a>
</g>
</g>
<!-- Node2&#45;&gt;Node3 -->
<g id="edge2_Node000002_Node000003" class="edge">
<title>Node2&#45;&gt;Node3</title>
<g id="a_edge2_Node000002_Node000003"><a xlink:title=" ">
<path fill="none" stroke="#63b8ff" d="M318.21,-197.95C349.33,-188.28 390.87,-175.38 423.93,-165.11"/>
<polygon fill="#63b8ff" stroke="#63b8ff" points="425.39,-168.32 433.9,-162.01 423.31,-161.64 425.39,-168.32"/>
</a>
</g>
</g>
<!-- Node8 -->
<g id="Node000008" class="node">
<title>Node8</title>
<g id="a_Node000008"><a xlink:title=" ">
<polygon fill="#e0e0e0" stroke="#999999" points="44,-90.5 0,-90.5 0,-71.5 44,-71.5 44,-90.5"/>
<text text-anchor="middle" x="22" y="-78.5" font-family="Helvetica,sans-Serif" font-size="10.00">string</text>
</a>
</g>
</g>
<!-- Node2&#45;&gt;Node8 -->
<g id="edge13_Node000002_Node000008" class="edge">
<title>Node2&#45;&gt;Node8</title>
<g id="a_edge13_Node000002_Node000008"><a xlink:title=" ">
<path fill="none" stroke="#63b8ff" d="M213.42,-208.16C148.27,-202.61 49.9,-189.78 26,-162 11.58,-145.24 13.53,-118.44 17.08,-100.53"/>
<polygon fill="#63b8ff" stroke="#63b8ff" points="20.51,-101.24 19.36,-90.71 13.69,-99.65 20.51,-101.24"/>
</a>
</g>
</g>
<!-- Node13 -->
<g id="Node000013" class="node">
<title>Node13</title>
<g id="a_Node000013"><a xlink:title=" ">
<polygon fill="#e0e0e0" stroke="#999999" points="100.5,-156.5 35.5,-156.5 35.5,-137.5 100.5,-137.5 100.5,-156.5"/>
<text text-anchor="middle" x="68" y="-144.5" font-family="Helvetica,sans-Serif" font-size="10.00">stdexcept</text>
</a>
</g>
</g>
<!-- Node2&#45;&gt;Node13 -->
<g id="edge12_Node000002_Node000013" class="edge">
<title>Node2&#45;&gt;Node13</title>
<g id="a_edge12_Node000002_Node000013"><a xlink:title=" ">
<path fill="none" stroke="#63b8ff" d="M225.5,-197.97C192.69,-188.17 148.09,-174.63 109,-162 106.85,-161.3 104.64,-160.58 102.41,-159.84"/>
<polygon fill="#63b8ff" stroke="#63b8ff" points="103.27,-156.44 92.67,-156.57 101.04,-163.07 103.27,-156.44"/>
</a>
</g>
</g>
<!-- Node14 -->
<g id="Node000014" class="node">
<title>Node14</title>
<g id="a_Node000014"><a xlink:title=" ">
<polygon fill="#e0e0e0" stroke="#999999" points="165.5,-156.5 118.5,-156.5 118.5,-137.5 165.5,-137.5 165.5,-156.5"/>
<text text-anchor="middle" x="142" y="-144.5" font-family="Helvetica,sans-Serif" font-size="10.00">deque</text>
</a>
</g>
</g>
<!-- Node2&#45;&gt;Node14 -->
<g id="edge14_Node000002_Node000014" class="edge">
<title>Node2&#45;&gt;Node14</title>
<g id="a_edge14_Node000002_Node000014"><a xlink:title=" ">
<path fill="none" stroke="#63b8ff" d="M244.25,-197.95C221.68,-186.93 190.51,-171.7 168.53,-160.96"/>
<polygon fill="#63b8ff" stroke="#63b8ff" points="169.96,-157.76 159.43,-156.52 166.88,-164.05 169.96,-157.76"/>
</a>
</g>
</g>
<!-- Node15 -->
<g id="Node000015" class="node">
<title>Node15</title>
<g id="a_Node000015"><a xlink:title=" ">
<polygon fill="#e0e0e0" stroke="#999999" points="242,-156.5 184,-156.5 184,-137.5 242,-137.5 242,-156.5"/>
<text text-anchor="middle" x="213" y="-144.5" font-family="Helvetica,sans-Serif" font-size="10.00">memory</text>
</a>
</g>
</g>
<!-- Node2&#45;&gt;Node15 -->
<g id="edge15_Node000002_Node000015" class="edge">
<title>Node2&#45;&gt;Node15</title>
<g id="a_edge15_Node000002_Node000015"><a xlink:title=" ">
<path fill="none" stroke="#63b8ff" d="M259.68,-197.8C250.42,-187.92 238.05,-174.72 228.37,-164.39"/>
<polygon fill="#63b8ff" stroke="#63b8ff" points="230.68,-161.75 221.29,-156.84 225.58,-166.53 230.68,-161.75"/>
</a>
</g>
</g>
<!-- Node16 -->
<g id="Node000016" class="node">
<title>Node16</title>
<g id="a_Node000016"><a xlink:title=" ">
<polygon fill="#e0e0e0" stroke="#999999" points="406,-162 260,-162 260,-132 406,-132 406,-162"/>
<text text-anchor="start" x="268" y="-150" font-family="Helvetica,sans-Serif" font-size="10.00">packages/exceptions</text>
<text text-anchor="middle" x="333" y="-139" font-family="Helvetica,sans-Serif" font-size="10.00">/impl/exceptions_impl.hpp</text>
</a>
</g>
</g>
<!-- Node2&#45;&gt;Node16 -->
<g id="edge16_Node000002_Node000016" class="edge">
<title>Node2&#45;&gt;Node16</title>
<g id="a_edge16_Node000002_Node000016"><a xlink:title=" ">
<path fill="none" stroke="#63b8ff" d="M286.32,-197.8C294.08,-189.51 304.04,-178.89 312.76,-169.59"/>
<polygon fill="#63b8ff" stroke="#63b8ff" points="315.44,-171.85 319.72,-162.16 310.33,-167.07 315.44,-171.85"/>
</a>
</g>
</g>
<!-- Node4 -->
<g id="Node000004" class="node">
<title>Node4</title>
<g id="a_Node000004"><a xlink:href="debug_8hpp.html" target="_top" xlink:title=" ">
<polygon fill="white" stroke="#666666" points="189.5,-96 70.5,-96 70.5,-66 189.5,-66 189.5,-96"/>
<text text-anchor="start" x="78.5" y="-84" font-family="Helvetica,sans-Serif" font-size="10.00">packages/macros/inc</text>
<text text-anchor="middle" x="130" y="-73" font-family="Helvetica,sans-Serif" font-size="10.00">/debug.hpp</text>
</a>
</g>
</g>
<!-- Node3&#45;&gt;Node4 -->
<g id="edge3_Node000003_Node000004" class="edge">
<title>Node3&#45;&gt;Node4</title>
<g id="a_edge3_Node000003_Node000004"><a xlink:title=" ">
<path fill="none" stroke="#63b8ff" d="M423.88,-133.76C420.88,-133.15 417.9,-132.56 415,-132 322.51,-114.19 296.37,-113.69 199.71,-96.09"/>
<polygon fill="#63b8ff" stroke="#63b8ff" points="200.28,-92.63 189.81,-94.27 199.02,-99.52 200.28,-92.63"/>
</a>
</g>
</g>
<!-- Node7 -->
<g id="Node000007" class="node">
<title>Node7</title>
<g id="a_Node000007"><a xlink:title=" ">
<polygon fill="#e0e0e0" stroke="#999999" points="601.5,-90.5 548.5,-90.5 548.5,-71.5 601.5,-71.5 601.5,-90.5"/>
<text text-anchor="middle" x="575" y="-78.5" font-family="Helvetica,sans-Serif" font-size="10.00">cstddef</text>
</a>
</g>
</g>
<!-- Node3&#45;&gt;Node7 -->
<g id="edge6_Node000003_Node000007" class="edge">
<title>Node3&#45;&gt;Node7</title>
<g id="a_edge6_Node000003_Node000007"><a xlink:title=" ">
<path fill="none" stroke="#63b8ff" d="M500.31,-131.8C516.1,-121.27 537.54,-106.97 553.4,-96.4"/>
<polygon fill="#63b8ff" stroke="#63b8ff" points="555.63,-99.12 562.01,-90.66 551.75,-93.29 555.63,-99.12"/>
</a>
</g>
</g>
<!-- Node3&#45;&gt;Node8 -->
<g id="edge7_Node000003_Node000008" class="edge">
<title>Node3&#45;&gt;Node8</title>
<g id="a_edge7_Node000003_Node000008"><a xlink:title=" ">
<path fill="none" stroke="#63b8ff" d="M423.92,-133.53C420.91,-132.98 417.92,-132.47 415,-132 258.83,-107.06 215.23,-130.97 61,-96 58.17,-95.36 55.27,-94.57 52.38,-93.7"/>
<polygon fill="#63b8ff" stroke="#63b8ff" points="53.36,-90.34 42.77,-90.51 51.16,-96.98 53.36,-90.34"/>
</a>
</g>
</g>
<!-- Node9 -->
<g id="Node000009" class="node">
<title>Node9</title>
<g id="a_Node000009"><a xlink:title=" ">
<polygon fill="#e0e0e0" stroke="#999999" points="688.5,-90.5 619.5,-90.5 619.5,-71.5 688.5,-71.5 688.5,-90.5"/>
<text text-anchor="middle" x="654" y="-78.5" font-family="Helvetica,sans-Serif" font-size="10.00">type_traits</text>
</a>
</g>
</g>
<!-- Node3&#45;&gt;Node9 -->
<g id="edge8_Node000003_Node000009" class="edge">
<title>Node3&#45;&gt;Node9</title>
<g id="a_edge8_Node000003_Node000009"><a xlink:title=" ">
<path fill="none" stroke="#63b8ff" d="M517.4,-131.95C548.5,-120.58 591.83,-104.74 621.29,-93.96"/>
<polygon fill="#63b8ff" stroke="#63b8ff" points="622.52,-97.24 630.71,-90.52 620.12,-90.66 622.52,-97.24"/>
</a>
</g>
</g>
<!-- Node10 -->
<g id="Node000010" class="node">
<title>Node10</title>
<g id="a_Node000010"><a xlink:title=" ">
<polygon fill="#e0e0e0" stroke="#999999" points="258,-90.5 208,-90.5 208,-71.5 258,-71.5 258,-90.5"/>
<text text-anchor="middle" x="233" y="-78.5" font-family="Helvetica,sans-Serif" font-size="10.00">climits</text>
</a>
</g>
</g>
<!-- Node3&#45;&gt;Node10 -->
<g id="edge9_Node000003_Node000010" class="edge">
<title>Node3&#45;&gt;Node10</title>
<g id="a_edge9_Node000003_Node000010"><a xlink:title=" ">
<path fill="none" stroke="#63b8ff" d="M423.86,-133.9C371.49,-122.24 296.62,-105.06 268,-96 266.13,-95.41 264.21,-94.76 262.29,-94.08"/>
<polygon fill="#63b8ff" stroke="#63b8ff" points="263.4,-90.76 252.8,-90.51 260.93,-97.31 263.4,-90.76"/>
</a>
</g>
</g>
<!-- Node11 -->
<g id="Node000011" class="node">
<title>Node11</title>
<g id="a_Node000011"><a xlink:title=" ">
<polygon fill="#e0e0e0" stroke="#999999" points="393.5,-96 276.5,-96 276.5,-66 393.5,-66 393.5,-96"/>
<text text-anchor="start" x="284.5" y="-84" font-family="Helvetica,sans-Serif" font-size="10.00">packages/types/impl</text>
<text text-anchor="middle" x="335" y="-73" font-family="Helvetica,sans-Serif" font-size="10.00">/types_impl.hpp</text>
</a>
</g>
</g>
<!-- Node3&#45;&gt;Node11 -->
<g id="edge10_Node000003_Node000011" class="edge">
<title>Node3&#45;&gt;Node11</title>
<g id="a_edge10_Node000003_Node000011"><a xlink:title=" ">
<path fill="none" stroke="#63b8ff" d="M447.4,-131.95C426.39,-122.62 398.6,-110.27 375.91,-100.18"/>
<polygon fill="#63b8ff" stroke="#63b8ff" points="377.09,-96.88 366.53,-96.01 374.24,-103.27 377.09,-96.88"/>
</a>
</g>
</g>
<!-- Node12 -->
<g id="Node000012" class="node">
<title>Node12</title>
<g id="a_Node000012"><a xlink:href="logging_8hpp.html" target="_top" xlink:title=" ">
<polygon fill="white" stroke="#666666" points="530.5,-96 411.5,-96 411.5,-66 530.5,-66 530.5,-96"/>
<text text-anchor="start" x="419.5" y="-84" font-family="Helvetica,sans-Serif" font-size="10.00">packages/macros/inc</text>
<text text-anchor="middle" x="471" y="-73" font-family="Helvetica,sans-Serif" font-size="10.00">/logging.hpp</text>
</a>
</g>
</g>
<!-- Node3&#45;&gt;Node12 -->
<g id="edge11_Node000003_Node000012" class="edge">
<title>Node3&#45;&gt;Node12</title>
<g id="a_edge11_Node000003_Node000012"><a xlink:title=" ">
<path fill="none" stroke="#63b8ff" d="M477.22,-131.8C476.28,-124.26 475.1,-114.78 474.02,-106.13"/>
<polygon fill="#63b8ff" stroke="#63b8ff" points="477.48,-105.65 472.77,-96.16 470.54,-106.52 477.48,-105.65"/>
</a>
</g>
</g>
<!-- Node4&#45;&gt;Node5 -->
<g id="edge4_Node000004_Node000005" class="edge">
<title>Node4&#45;&gt;Node5</title>
<g id="a_edge4_Node000004_Node000005"><a xlink:title=" ">
<path fill="none" stroke="#63b8ff" d="M189.77,-67.48C192.89,-66.95 195.98,-66.45 199,-66 358.45,-42.19 547.28,-27.28 647.07,-20.43"/>
<polygon fill="#63b8ff" stroke="#63b8ff" points="647.58,-23.91 657.32,-19.74 647.11,-16.92 647.58,-23.91"/>
</a>
</g>
</g>
<!-- Node6 -->
<g id="Node000006" class="node">
<title>Node6</title>
<g id="a_Node000006"><a xlink:title=" ">
<polygon fill="#e0e0e0" stroke="#999999" points="160,-24.5 100,-24.5 100,-5.5 160,-5.5 160,-24.5"/>
<text text-anchor="middle" x="130" y="-12.5" font-family="Helvetica,sans-Serif" font-size="10.00">iostream</text>
</a>
</g>
</g>
<!-- Node4&#45;&gt;Node6 -->
<g id="edge5_Node000004_Node000006" class="edge">
<title>Node4&#45;&gt;Node6</title>
<g id="a_edge5_Node000004_Node000006"><a xlink:title=" ">
<path fill="none" stroke="#63b8ff" d="M130,-65.8C130,-56.7 130,-44.79 130,-34.9"/>
<polygon fill="#63b8ff" stroke="#63b8ff" points="133.5,-34.84 130,-24.84 126.5,-34.84 133.5,-34.84"/>
</a>
</g>
</g>
<!-- Node17&#45;&gt;Node2 -->
<g id="edge18_Node000017_Node000002" class="edge">
<title>Node17&#45;&gt;Node2</title>
<g id="a_edge18_Node000017_Node000002"><a xlink:title=" ">
<path fill="none" stroke="#63b8ff" d="M709.17,-270.28C616.97,-258.38 440.6,-235.63 342.74,-223"/>
<polygon fill="#63b8ff" stroke="#63b8ff" points="343.02,-219.51 332.65,-221.7 342.12,-226.45 343.02,-219.51"/>
</a>
</g>
</g>
<!-- Node17&#45;&gt;Node5 -->
<g id="edge19_Node000017_Node000005" class="edge">
<title>Node17&#45;&gt;Node5</title>
<g id="a_edge19_Node000017_Node000005"><a xlink:title=" ">
<path fill="none" stroke="#63b8ff" d="M756.79,-263.72C749.43,-254.24 740.6,-241.16 736,-228 713.31,-163.12 713.56,-80.59 715.4,-40.32"/>
<polygon fill="#63b8ff" stroke="#63b8ff" points="718.9,-40.31 715.94,-30.14 711.91,-39.94 718.9,-40.31"/>
</a>
</g>
</g>
<!-- Node17&#45;&gt;Node18 -->
<g id="edge20_Node000017_Node000018" class="edge">
<title>Node17&#45;&gt;Node18</title>
<g id="a_edge20_Node000017_Node000018"><a xlink:title=" ">
<path fill="none" stroke="#63b8ff" d="M787.2,-263.8C800.36,-253.53 818.11,-239.67 831.55,-229.18"/>
<polygon fill="#63b8ff" stroke="#63b8ff" points="833.94,-231.76 839.67,-222.84 829.63,-226.24 833.94,-231.76"/>
</a>
</g>
</g>
<!-- Node19 -->
<g id="Node000019" class="node">
<title>Node19</title>
<g id="a_Node000019"><a xlink:title=" ">
<polygon fill="#e0e0e0" stroke="#999999" points="805,-222.5 745,-222.5 745,-203.5 805,-203.5 805,-222.5"/>
<text text-anchor="middle" x="775" y="-210.5" font-family="Helvetica,sans-Serif" font-size="10.00">concepts</text>
</a>
</g>
</g>
<!-- Node17&#45;&gt;Node19 -->
<g id="edge21_Node000017_Node000019" class="edge">
<title>Node17&#45;&gt;Node19</title>
<g id="a_edge21_Node000017_Node000019"><a xlink:title=" ">
<path fill="none" stroke="#63b8ff" d="M770.33,-263.8C771.18,-254.7 772.3,-242.79 773.23,-232.9"/>
<polygon fill="#63b8ff" stroke="#63b8ff" points="776.72,-233.13 774.17,-222.84 769.75,-232.47 776.72,-233.13"/>
</a>
</g>
</g>
</g>
</svg>

<g id="navigator" transform="translate(0 0)" fill="#404254">
  <rect fill="#f2f5e9" fill-opacity="0.5" stroke="#606060" stroke-width=".5" x="0" y="0" width="60" height="60"/>
  <use id="zoomplus" xlink:href="#zoomPlus" x="17" y="9" onmousedown="handleZoom(evt,'in')"/>
  <use id="zoomminus" xlink:href="#zoomMin" x="42" y="9" onmousedown="handleZoom(evt,'out')"/>
  <use id="reset" xlink:href="#resetDef" x="30" y="36" onmousedown="handleReset()"/>
   <use id="arrowup" xlink:href="#arrowUp" x="0" y="0" onmousedown="handlePan(0,-1)"/>
  <use id="arrowright" xlink:href="#arrowRight" x="0" y="0" onmousedown="handlePan(1,0)"/>
  <use id="arrowdown" xlink:href="#arrowDown" x="0" y="0" onmousedown="handlePan(0,1)"/>
  <use id="arrowleft" xlink:href="#arrowLeft" x="0" y="0" onmousedown="handlePan(-1,0)"/>
</g>
<svg viewBox="0 0 15 15" width="100%" height="30px" preserveAspectRatio="xMaxYMin meet">
 <g id="arrow_out" transform="scale(0.3 0.3)">
  <a xlink:href="checks_8hpp__incl_org.svg" target="_base">
   <rect id="button" ry="5" rx="5" y="6" x="6" height="38" width="38"
        fill="#f2f5e9" fill-opacity="0.5" stroke="#606060" stroke-width="1.0"/>
   <path id="arrow"
     d="M 11.500037,31.436501 C 11.940474,20.09759 22.043105,11.32322 32.158766,21.979434 L 37.068811,17.246167 C 37.068811,17.246167 37.088388,32 37.088388,32 L 22.160133,31.978069 C 22.160133,31.978069 26.997745,27.140456 26.997745,27.140456 C 18.528582,18.264221 13.291696,25.230495 11.500037,31.436501 z"
     style="fill:#404040;"/>
  </a>
 </g>
</svg>

<style type='text/css'>
<![CDATA[
[data-mouse-over-selected='false'] { opacity: 0.7; }
[data-mouse-over-selected='true']  { opacity: 1.0; }
]]>
</style>
<script type="application/ecmascript"><![CDATA[
document.addEventListener('DOMContentLoaded', (event) => {
  highlightEdges();
  highlightAdjacentNodes();
});
]]></script>
</svg>
