<?xml version="1.0" encoding="UTF-8" standalone="no"?>
<!DOCTYPE svg PUBLIC "-//W3C//DTD SVG 1.1//EN"
 "http://www.w3.org/Graphics/SVG/1.1/DTD/svg11.dtd">
<!-- Generated by graphviz version 2.43.0 (0)
 -->
<!-- Title: checks.hpp Pages: 1 -->
<!--zoomable 363 -->
<svg id="main" version="1.1" xmlns="http://www.w3.org/2000/svg" xmlns:xlink="http://www.w3.org/1999/xlink" xml:space="preserve" onload="init(evt)">
<style type="text/css"><![CDATA[
.edge:hover path { stroke: red; }
.edge:hover polygon { stroke: red; fill: red; }
]]></style>
<script type="text/javascript"><![CDATA[
var edges = document.getElementsByTagName('g');
if (edges && edges.length) {
  for (var i=0;i<edges.length;i++) {
    if (edges[i].id.substr(0,4)=='edge') {
      edges[i].setAttribute('class','edge');
    }
  }
}
]]></script>
        <defs>
                <circle id="rim" cx="0" cy="0" r="7"/>
                <circle id="rim2" cx="0" cy="0" r="3.5"/>
                <g id="zoomPlus">
                        <use xlink:href="#rim" fill="#404040">
                                <set attributeName="fill" to="#808080" begin="zoomplus.mouseover" end="zoomplus.mouseout"/>
                        </use>
                        <path d="M-4,0h8M0,-4v8" fill="none" stroke="white" stroke-width="1.5" pointer-events="none"/>
                </g>
                <g id="zoomMin">
                        <use xlink:href="#rim" fill="#404040">
                                <set attributeName="fill" to="#808080" begin="zoomminus.mouseover" end="zoomminus.mouseout"/>
                        </use>
                        <path d="M-4,0h8" fill="none" stroke="white" stroke-width="1.5" pointer-events="none"/>
                </g>
                <g id="dirArrow">
                        <path fill="none" stroke="white" stroke-width="1.5" d="M0,-3.0v7 M-2.5,-0.5L0,-3.0L2.5,-0.5"/>
                </g>
               <g id="resetDef">
                       <use xlink:href="#rim2" fill="#404040">
                               <set attributeName="fill" to="#808080" begin="reset.mouseover" end="reset.mouseout"/>
                       </use>
               </g>
        </defs>

<script type="text/javascript">
var viewWidth = 912;
var viewHeight = 363;
var sectionId = 'dynsection-0';
</script>
<script xlink:href="svgpan.js"/>
<svg id="graph" class="graph">
<g id="viewport">
<title>checks.hpp</title>
<polygon fill="white" stroke="transparent" points="-4,4 -4,-359 907.72,-359 907.72,4 -4,4"/>
<!-- Node1 -->
<g id="node1" class="node">
<title>Node1</title>
<g id="a_node1"><a xlink:title=" ">
<polygon fill="#bfbfbf" stroke="black" points="688,-335.5 688,-354.5 759,-354.5 759,-335.5 688,-335.5"/>
<text text-anchor="middle" x="723.5" y="-342.5" font-family="Helvetica,sans-Serif" font-size="10.00">checks.hpp</text>
</a>
</g>
</g>
<!-- Node2 -->
<g id="node2" class="node">
<title>Node2</title>
<g id="a_node2"><a xlink:href="exception_8hpp.html" target="_top" xlink:title=" ">
<polygon fill="white" stroke="black" points="442,-201.5 442,-231.5 561,-231.5 561,-201.5 442,-201.5"/>
<text text-anchor="start" x="450" y="-219.5" font-family="Helvetica,sans-Serif" font-size="10.00">packages/exceptions</text>
<text text-anchor="middle" x="501.5" y="-208.5" font-family="Helvetica,sans-Serif" font-size="10.00">/inc/exception.hpp</text>
</a>
</g>
</g>
<!-- Node1&#45;&gt;Node2 -->
<g id="edge1" class="edge">
<title>Node1&#45;&gt;Node2</title>
<path fill="none" stroke="midnightblue" d="M687.84,-340.1C654.19,-335.03 603.53,-323.71 566.5,-299 543.96,-283.96 525.55,-258.64 514.16,-240.21"/>
<polygon fill="midnightblue" stroke="midnightblue" points="517.12,-238.34 508.99,-231.54 511.1,-241.92 517.12,-238.34"/>
</g>
<!-- Node5 -->
<g id="node5" class="node">
<title>Node5</title>
<g id="a_node5"><a xlink:href="detail_8hpp.html" target="_top" xlink:title=" ">
<polygon fill="white" stroke="black" points="758,-0.5 758,-30.5 877,-30.5 877,-0.5 758,-0.5"/>
<text text-anchor="start" x="766" y="-18.5" font-family="Helvetica,sans-Serif" font-size="10.00">packages/macros/inc</text>
<text text-anchor="middle" x="817.5" y="-7.5" font-family="Helvetica,sans-Serif" font-size="10.00">/detail.hpp</text>
</a>
</g>
</g>
<!-- Node1&#45;&gt;Node5 -->
<g id="edge22" class="edge">
<title>Node1&#45;&gt;Node5</title>
<path fill="none" stroke="midnightblue" d="M759.01,-343.37C794.49,-340.81 848.29,-331.35 880.5,-299 907.06,-272.33 903.5,-255.14 903.5,-217.5 903.5,-217.5 903.5,-217.5 903.5,-148.5 903.5,-103.39 867.8,-61.61 842.4,-37.6"/>
<polygon fill="midnightblue" stroke="midnightblue" points="844.64,-34.9 834.9,-30.73 839.92,-40.07 844.64,-34.9"/>
</g>
<!-- Node17 -->
<g id="node17" class="node">
<title>Node17</title>
<g id="a_node17"><a xlink:href="exceptions_8hpp.html" target="_top" xlink:title=" ">
<polygon fill="white" stroke="black" points="576,-268.5 576,-298.5 695,-298.5 695,-268.5 576,-268.5"/>
<text text-anchor="start" x="584" y="-286.5" font-family="Helvetica,sans-Serif" font-size="10.00">packages/macros/inc</text>
<text text-anchor="middle" x="635.5" y="-275.5" font-family="Helvetica,sans-Serif" font-size="10.00">/exceptions.hpp</text>
</a>
</g>
</g>
<!-- Node1&#45;&gt;Node17 -->
<g id="edge17" class="edge">
<title>Node1&#45;&gt;Node17</title>
<path fill="none" stroke="midnightblue" d="M710.89,-335.48C698.86,-327.34 680.3,-314.79 664.6,-304.18"/>
<polygon fill="midnightblue" stroke="midnightblue" points="666.48,-301.22 656.24,-298.52 662.56,-307.02 666.48,-301.22"/>
</g>
<!-- Node18 -->
<g id="node18" class="node">
<title>Node18</title>
<g id="a_node18"><a xlink:title=" ">
<polygon fill="white" stroke="#bfbfbf" points="695.5,-207 695.5,-226 751.5,-226 751.5,-207 695.5,-207"/>
<text text-anchor="middle" x="723.5" y="-214" font-family="Helvetica,sans-Serif" font-size="10.00">sstream</text>
</a>
</g>
</g>
<!-- Node1&#45;&gt;Node18 -->
<g id="edge26" class="edge">
<title>Node1&#45;&gt;Node18</title>
<path fill="none" stroke="midnightblue" d="M723.5,-335.31C723.5,-314.99 723.5,-264.05 723.5,-236.28"/>
<polygon fill="midnightblue" stroke="midnightblue" points="727,-236.26 723.5,-226.26 720,-236.26 727,-236.26"/>
</g>
<!-- Node20 -->
<g id="node20" class="node">
<title>Node20</title>
<g id="a_node20"><a xlink:href="cmake__variables_8hpp.html" target="_top" xlink:title=" ">
<polygon fill="white" stroke="black" points="751.5,-274 751.5,-293 871.5,-293 871.5,-274 751.5,-274"/>
<text text-anchor="middle" x="811.5" y="-281" font-family="Helvetica,sans-Serif" font-size="10.00">cmake_variables.hpp</text>
</a>
</g>
</g>
<!-- Node1&#45;&gt;Node20 -->
<g id="edge23" class="edge">
<title>Node1&#45;&gt;Node20</title>
<path fill="none" stroke="midnightblue" d="M736.11,-335.48C750.22,-325.93 773.33,-310.31 790.25,-298.87"/>
<polygon fill="midnightblue" stroke="midnightblue" points="792.59,-301.51 798.92,-293.01 788.67,-295.71 792.59,-301.51"/>
</g>
<!-- Node3 -->
<g id="node3" class="node">
<title>Node3</title>
<g id="a_node3"><a xlink:href="types_8hpp.html" target="_top" xlink:title=" ">
<polygon fill="white" stroke="black" points="213.5,-134.5 213.5,-164.5 323.5,-164.5 323.5,-134.5 213.5,-134.5"/>
<text text-anchor="start" x="221.5" y="-152.5" font-family="Helvetica,sans-Serif" font-size="10.00">packages/types/inc</text>
<text text-anchor="middle" x="268.5" y="-141.5" font-family="Helvetica,sans-Serif" font-size="10.00">/types.hpp</text>
</a>
</g>
</g>
<!-- Node2&#45;&gt;Node3 -->
<g id="edge2" class="edge">
<title>Node2&#45;&gt;Node3</title>
<path fill="none" stroke="midnightblue" d="M451.23,-201.48C415.37,-191.47 366.97,-177.97 329,-167.38"/>
<polygon fill="midnightblue" stroke="midnightblue" points="329.65,-163.93 319.08,-164.61 327.77,-170.67 329.65,-163.93"/>
</g>
<!-- Node8 -->
<g id="node8" class="node">
<title>Node8</title>
<g id="a_node8"><a xlink:title=" ">
<polygon fill="white" stroke="#bfbfbf" points="636.5,-73 636.5,-92 680.5,-92 680.5,-73 636.5,-73"/>
<text text-anchor="middle" x="658.5" y="-80" font-family="Helvetica,sans-Serif" font-size="10.00">string</text>
</a>
</g>
</g>
<!-- Node2&#45;&gt;Node8 -->
<g id="edge13" class="edge">
<title>Node2&#45;&gt;Node8</title>
<path fill="none" stroke="midnightblue" d="M554.92,-201.41C588.23,-191.6 626.89,-178 638.5,-165 653.86,-147.81 657.87,-120.73 658.7,-102.55"/>
<polygon fill="midnightblue" stroke="midnightblue" points="662.2,-102.38 658.87,-92.32 655.2,-102.26 662.2,-102.38"/>
</g>
<!-- Node13 -->
<g id="node13" class="node">
<title>Node13</title>
<g id="a_node13"><a xlink:title=" ">
<polygon fill="white" stroke="#bfbfbf" points="686,-140 686,-159 751,-159 751,-140 686,-140"/>
<text text-anchor="middle" x="718.5" y="-147" font-family="Helvetica,sans-Serif" font-size="10.00">stdexcept</text>
</a>
</g>
</g>
<!-- Node2&#45;&gt;Node13 -->
<g id="edge12" class="edge">
<title>Node2&#45;&gt;Node13</title>
<path fill="none" stroke="midnightblue" d="M549.17,-201.48C583.27,-191.42 630.25,-177.49 671.5,-165 674.61,-164.06 677.82,-163.08 681.06,-162.09"/>
<polygon fill="midnightblue" stroke="midnightblue" points="682.15,-165.42 690.68,-159.14 680.09,-158.73 682.15,-165.42"/>
</g>
<!-- Node14 -->
<g id="node14" class="node">
<title>Node14</title>
<g id="a_node14"><a xlink:title=" ">
<polygon fill="white" stroke="#bfbfbf" points="342,-140 342,-159 389,-159 389,-140 342,-140"/>
<text text-anchor="middle" x="365.5" y="-147" font-family="Helvetica,sans-Serif" font-size="10.00">deque</text>
</a>
</g>
</g>
<!-- Node2&#45;&gt;Node14 -->
<g id="edge14" class="edge">
<title>Node2&#45;&gt;Node14</title>
<path fill="none" stroke="midnightblue" d="M471.99,-201.4C448.34,-190.09 415.42,-174.36 392.47,-163.39"/>
<polygon fill="midnightblue" stroke="midnightblue" points="393.83,-160.16 383.3,-159.01 390.81,-166.48 393.83,-160.16"/>
</g>
<!-- Node15 -->
<g id="node15" class="node">
<title>Node15</title>
<g id="a_node15"><a xlink:title=" ">
<polygon fill="white" stroke="#bfbfbf" points="407.5,-140 407.5,-159 465.5,-159 465.5,-140 407.5,-140"/>
<text text-anchor="middle" x="436.5" y="-147" font-family="Helvetica,sans-Serif" font-size="10.00">memory</text>
</a>
</g>
</g>
<!-- Node2&#45;&gt;Node15 -->
<g id="edge15" class="edge">
<title>Node2&#45;&gt;Node15</title>
<path fill="none" stroke="midnightblue" d="M487.4,-201.4C477.06,-191.06 463.02,-177.02 452.31,-166.31"/>
<polygon fill="midnightblue" stroke="midnightblue" points="454.74,-163.79 445.19,-159.19 449.79,-168.74 454.74,-163.79"/>
</g>
<!-- Node16 -->
<g id="node16" class="node">
<title>Node16</title>
<g id="a_node16"><a xlink:title=" ">
<polygon fill="white" stroke="#bfbfbf" points="483.5,-134.5 483.5,-164.5 629.5,-164.5 629.5,-134.5 483.5,-134.5"/>
<text text-anchor="start" x="491.5" y="-152.5" font-family="Helvetica,sans-Serif" font-size="10.00">packages/exceptions</text>
<text text-anchor="middle" x="556.5" y="-141.5" font-family="Helvetica,sans-Serif" font-size="10.00">/impl/exceptions_impl.hpp</text>
</a>
</g>
</g>
<!-- Node2&#45;&gt;Node16 -->
<g id="edge16" class="edge">
<title>Node2&#45;&gt;Node16</title>
<path fill="none" stroke="midnightblue" d="M513.43,-201.4C520.64,-192.88 529.98,-181.85 538.11,-172.23"/>
<polygon fill="midnightblue" stroke="midnightblue" points="540.8,-174.47 544.59,-164.58 535.46,-169.95 540.8,-174.47"/>
</g>
<!-- Node4 -->
<g id="node4" class="node">
<title>Node4</title>
<g id="a_node4"><a xlink:href="debug_8hpp.html" target="_top" xlink:title=" ">
<polygon fill="white" stroke="black" points="208,-67.5 208,-97.5 327,-97.5 327,-67.5 208,-67.5"/>
<text text-anchor="start" x="216" y="-85.5" font-family="Helvetica,sans-Serif" font-size="10.00">packages/macros/inc</text>
<text text-anchor="middle" x="267.5" y="-74.5" font-family="Helvetica,sans-Serif" font-size="10.00">/debug.hpp</text>
</a>
</g>
</g>
<!-- Node3&#45;&gt;Node4 -->
<g id="edge3" class="edge">
<title>Node3&#45;&gt;Node4</title>
<path fill="none" stroke="midnightblue" d="M268.28,-134.4C268.16,-126.64 268.01,-116.81 267.87,-107.86"/>
<polygon fill="midnightblue" stroke="midnightblue" points="271.37,-107.52 267.72,-97.58 264.37,-107.63 271.37,-107.52"/>
</g>
<!-- Node7 -->
<g id="node7" class="node">
<title>Node7</title>
<g id="a_node7"><a xlink:title=" ">
<polygon fill="white" stroke="#bfbfbf" points="137,-73 137,-92 190,-92 190,-73 137,-73"/>
<text text-anchor="middle" x="163.5" y="-80" font-family="Helvetica,sans-Serif" font-size="10.00">cstddef</text>
</a>
</g>
</g>
<!-- Node3&#45;&gt;Node7 -->
<g id="edge6" class="edge">
<title>Node3&#45;&gt;Node7</title>
<path fill="none" stroke="midnightblue" d="M245.72,-134.4C227.95,-123.39 203.4,-108.2 185.76,-97.28"/>
<polygon fill="midnightblue" stroke="midnightblue" points="187.59,-94.29 177.24,-92.01 183.9,-100.25 187.59,-94.29"/>
</g>
<!-- Node3&#45;&gt;Node8 -->
<g id="edge7" class="edge">
<title>Node3&#45;&gt;Node8</title>
<path fill="none" stroke="midnightblue" d="M323.59,-135.65C326.6,-135.06 329.58,-134.51 332.5,-134 462.19,-111.43 499.76,-133.58 626.5,-98 628.65,-97.4 630.83,-96.67 633,-95.87"/>
<polygon fill="midnightblue" stroke="midnightblue" points="634.37,-99.09 642.25,-92.01 631.67,-92.63 634.37,-99.09"/>
</g>
<!-- Node9 -->
<g id="node9" class="node">
<title>Node9</title>
<g id="a_node9"><a xlink:title=" ">
<polygon fill="white" stroke="#bfbfbf" points="345,-73 345,-92 414,-92 414,-73 345,-73"/>
<text text-anchor="middle" x="379.5" y="-80" font-family="Helvetica,sans-Serif" font-size="10.00">type_traits</text>
</a>
</g>
</g>
<!-- Node3&#45;&gt;Node9 -->
<g id="edge8" class="edge">
<title>Node3&#45;&gt;Node9</title>
<path fill="none" stroke="midnightblue" d="M292.59,-134.4C311.46,-123.34 337.56,-108.06 356.22,-97.13"/>
<polygon fill="midnightblue" stroke="midnightblue" points="358.11,-100.08 364.97,-92.01 354.57,-94.04 358.11,-100.08"/>
</g>
<!-- Node10 -->
<g id="node10" class="node">
<title>Node10</title>
<g id="a_node10"><a xlink:title=" ">
<polygon fill="white" stroke="#bfbfbf" points="432.5,-73 432.5,-92 482.5,-92 482.5,-73 432.5,-73"/>
<text text-anchor="middle" x="457.5" y="-80" font-family="Helvetica,sans-Serif" font-size="10.00">climits</text>
</a>
</g>
</g>
<!-- Node3&#45;&gt;Node10 -->
<g id="edge9" class="edge">
<title>Node3&#45;&gt;Node10</title>
<path fill="none" stroke="midnightblue" d="M314.3,-134.48C345.09,-124.81 386.49,-111.34 422.5,-98 424.35,-97.31 426.25,-96.59 428.16,-95.85"/>
<polygon fill="midnightblue" stroke="midnightblue" points="429.64,-99.02 437.61,-92.04 427.03,-92.53 429.64,-99.02"/>
</g>
<!-- Node11 -->
<g id="node11" class="node">
<title>Node11</title>
<g id="a_node11"><a xlink:title=" ">
<polygon fill="white" stroke="#bfbfbf" points="501,-67.5 501,-97.5 618,-97.5 618,-67.5 501,-67.5"/>
<text text-anchor="start" x="509" y="-85.5" font-family="Helvetica,sans-Serif" font-size="10.00">packages/types/impl</text>
<text text-anchor="middle" x="559.5" y="-74.5" font-family="Helvetica,sans-Serif" font-size="10.00">/types_impl.hpp</text>
</a>
</g>
</g>
<!-- Node3&#45;&gt;Node11 -->
<g id="edge10" class="edge">
<title>Node3&#45;&gt;Node11</title>
<path fill="none" stroke="midnightblue" d="M323.65,-135.99C326.65,-135.32 329.61,-134.65 332.5,-134 385.6,-122.08 445.72,-108.71 490.75,-98.72"/>
<polygon fill="midnightblue" stroke="midnightblue" points="491.69,-102.1 500.69,-96.52 490.17,-95.26 491.69,-102.1"/>
</g>
<!-- Node12 -->
<g id="node12" class="node">
<title>Node12</title>
<g id="a_node12"><a xlink:href="logging_8hpp.html" target="_top" xlink:title=" ">
<polygon fill="white" stroke="black" points="0,-67.5 0,-97.5 119,-97.5 119,-67.5 0,-67.5"/>
<text text-anchor="start" x="8" y="-85.5" font-family="Helvetica,sans-Serif" font-size="10.00">packages/macros/inc</text>
<text text-anchor="middle" x="59.5" y="-74.5" font-family="Helvetica,sans-Serif" font-size="10.00">/logging.hpp</text>
</a>
</g>
</g>
<!-- Node3&#45;&gt;Node12 -->
<g id="edge11" class="edge">
<title>Node3&#45;&gt;Node12</title>
<path fill="none" stroke="midnightblue" d="M223.41,-134.48C191.52,-124.56 148.57,-111.2 114.64,-100.65"/>
<polygon fill="midnightblue" stroke="midnightblue" points="115.46,-97.24 104.87,-97.61 113.38,-103.92 115.46,-97.24"/>
</g>
<!-- Node4&#45;&gt;Node5 -->
<g id="edge4" class="edge">
<title>Node4&#45;&gt;Node5</title>
<path fill="none" stroke="midnightblue" d="M327.14,-68.41C329.96,-67.91 332.76,-67.43 335.5,-67 481.28,-43.89 653.6,-28.74 747.63,-21.49"/>
<polygon fill="midnightblue" stroke="midnightblue" points="748.17,-24.96 757.87,-20.71 747.63,-17.98 748.17,-24.96"/>
</g>
<!-- Node6 -->
<g id="node6" class="node">
<title>Node6</title>
<g id="a_node6"><a xlink:title=" ">
<polygon fill="white" stroke="#bfbfbf" points="237.5,-6 237.5,-25 297.5,-25 297.5,-6 237.5,-6"/>
<text text-anchor="middle" x="267.5" y="-13" font-family="Helvetica,sans-Serif" font-size="10.00">iostream</text>
</a>
</g>
</g>
<!-- Node4&#45;&gt;Node6 -->
<g id="edge5" class="edge">
<title>Node4&#45;&gt;Node6</title>
<path fill="none" stroke="midnightblue" d="M267.5,-67.4C267.5,-58.06 267.5,-45.71 267.5,-35.52"/>
<polygon fill="midnightblue" stroke="midnightblue" points="271,-35.19 267.5,-25.19 264,-35.19 271,-35.19"/>
</g>
<!-- Node17&#45;&gt;Node2 -->
<g id="edge18" class="edge">
<title>Node17&#45;&gt;Node2</title>
<path fill="none" stroke="midnightblue" d="M606.42,-268.4C586.85,-258.9 560.82,-246.28 539.59,-235.98"/>
<polygon fill="midnightblue" stroke="midnightblue" points="541.04,-232.79 530.52,-231.58 537.99,-239.09 541.04,-232.79"/>
</g>
<!-- Node17&#45;&gt;Node5 -->
<g id="edge19" class="edge">
<title>Node17&#45;&gt;Node5</title>
<path fill="none" stroke="midnightblue" d="M641.35,-268.46C649.32,-250.77 665.08,-220.36 686.5,-201 713.34,-176.74 735.04,-191.65 759.5,-165 792.31,-129.25 807.38,-72.81 813.63,-40.79"/>
<polygon fill="midnightblue" stroke="midnightblue" points="817.14,-41.03 815.48,-30.56 810.25,-39.78 817.14,-41.03"/>
</g>
<!-- Node17&#45;&gt;Node18 -->
<g id="edge20" class="edge">
<title>Node17&#45;&gt;Node18</title>
<path fill="none" stroke="midnightblue" d="M654.59,-268.4C669.08,-257.7 688.93,-243.03 703.61,-232.19"/>
<polygon fill="midnightblue" stroke="midnightblue" points="706.02,-234.76 711.98,-226.01 701.86,-229.13 706.02,-234.76"/>
</g>
<!-- Node19 -->
<g id="node19" class="node">
<title>Node19</title>
<g id="a_node19"><a xlink:title=" ">
<polygon fill="white" stroke="#bfbfbf" points="579.5,-207 579.5,-226 639.5,-226 639.5,-207 579.5,-207"/>
<text text-anchor="middle" x="609.5" y="-214" font-family="Helvetica,sans-Serif" font-size="10.00">concepts</text>
</a>
</g>
</g>
<!-- Node17&#45;&gt;Node19 -->
<g id="edge21" class="edge">
<title>Node17&#45;&gt;Node19</title>
<path fill="none" stroke="midnightblue" d="M629.86,-268.4C626.01,-258.76 620.87,-245.91 616.71,-235.54"/>
<polygon fill="midnightblue" stroke="midnightblue" points="619.94,-234.18 612.98,-226.19 613.44,-236.78 619.94,-234.18"/>
</g>
<!-- Node20&#45;&gt;Node8 -->
<g id="edge25" class="edge">
<title>Node20&#45;&gt;Node8</title>
<path fill="none" stroke="midnightblue" d="M809.42,-273.99C802.39,-245.8 778.91,-156.04 759.5,-134 741.3,-113.33 712.66,-100.14 690.52,-92.44"/>
<polygon fill="midnightblue" stroke="midnightblue" points="691.46,-89.07 680.86,-89.29 689.28,-95.72 691.46,-89.07"/>
</g>
<!-- Node21 -->
<g id="node21" class="node">
<title>Node21</title>
<g id="a_node21"><a xlink:title=" ">
<polygon fill="white" stroke="#bfbfbf" points="807.5,-207 807.5,-226 875.5,-226 875.5,-207 807.5,-207"/>
<text text-anchor="middle" x="841.5" y="-214" font-family="Helvetica,sans-Serif" font-size="10.00">filesystem</text>
</a>
</g>
</g>
<!-- Node20&#45;&gt;Node21 -->
<g id="edge24" class="edge">
<title>Node20&#45;&gt;Node21</title>
<path fill="none" stroke="midnightblue" d="M815.55,-273.73C820.04,-263.99 827.43,-247.98 833.18,-235.53"/>
<polygon fill="midnightblue" stroke="midnightblue" points="836.51,-236.67 837.52,-226.13 830.15,-233.74 836.51,-236.67"/>
</g>
</g>
</svg>
        <g id="navigator" transform="translate(0 0)" fill="#404254">
                <rect fill="#f2f5e9" fill-opacity="0.5" stroke="#606060" stroke-width=".5" x="0" y="0" width="60" height="60"/>
                <use id="zoomplus" xlink:href="#zoomPlus" x="17" y="9" onmousedown="handleZoom(evt,'in')"/>
                <use id="zoomminus" xlink:href="#zoomMin" x="42" y="9" onmousedown="handleZoom(evt,'out')"/>
                <use id="reset" xlink:href="#resetDef" x="30" y="36" onmousedown="handleReset()"/>
                <g id="arrowUp" xlink:href="#dirArrow" transform="translate(30 24)" onmousedown="handlePan(0,-1)">
                  <use xlink:href="#rim" fill="#404040">
                        <set attributeName="fill" to="#808080" begin="arrowUp.mouseover" end="arrowUp.mouseout"/>
                  </use>
                  <path fill="none" stroke="white" stroke-width="1.5" d="M0,-3.0v7 M-2.5,-0.5L0,-3.0L2.5,-0.5"/>
                </g>
                <g id="arrowRight" xlink:href="#dirArrow" transform="rotate(90) translate(36 -43)" onmousedown="handlePan(1,0)">
                  <use xlink:href="#rim" fill="#404040">
                        <set attributeName="fill" to="#808080" begin="arrowRight.mouseover" end="arrowRight.mouseout"/>
                  </use>
                  <path fill="none" stroke="white" stroke-width="1.5" d="M0,-3.0v7 M-2.5,-0.5L0,-3.0L2.5,-0.5"/>
                </g>
                <g id="arrowDown" xlink:href="#dirArrow" transform="rotate(180) translate(-30 -48)" onmousedown="handlePan(0,1)">
                  <use xlink:href="#rim" fill="#404040">
                        <set attributeName="fill" to="#808080" begin="arrowDown.mouseover" end="arrowDown.mouseout"/>
                  </use>
                  <path fill="none" stroke="white" stroke-width="1.5" d="M0,-3.0v7 M-2.5,-0.5L0,-3.0L2.5,-0.5"/>
                </g>
                <g id="arrowLeft" xlink:href="#dirArrow" transform="rotate(270) translate(-36 17)" onmousedown="handlePan(-1,0)">
                  <use xlink:href="#rim" fill="#404040">
                        <set attributeName="fill" to="#808080" begin="arrowLeft.mouseover" end="arrowLeft.mouseout"/>
                  </use>
                  <path fill="none" stroke="white" stroke-width="1.5" d="M0,-3.0v7 M-2.5,-0.5L0,-3.0L2.5,-0.5"/>
                </g>
        </g>
        <svg viewBox="0 0 15 15" width="100%" height="30px" preserveAspectRatio="xMaxYMin meet">
         <g id="arrow_out" transform="scale(0.3 0.3)">
          <a xlink:href="checks_8hpp__incl_org.svg" target="_base">
           <rect id="button" ry="5" rx="5" y="6" x="6" height="38" width="38"
                fill="#f2f5e9" fill-opacity="0.5" stroke="#606060" stroke-width="1.0"/>
           <path id="arrow"
             d="M 11.500037,31.436501 C 11.940474,20.09759 22.043105,11.32322 32.158766,21.979434 L 37.068811,17.246167 C 37.068811,17.246167 37.088388,32 37.088388,32 L 22.160133,31.978069 C 22.160133,31.978069 26.997745,27.140456 26.997745,27.140456 C 18.528582,18.264221 13.291696,25.230495 11.500037,31.436501 z"
             style="fill:#404040;"/>
          </a>
         </g>
        </svg>
</svg>
