<?xml version="1.0" encoding="UTF-8" standalone="no"?>
<!DOCTYPE svg PUBLIC "-//W3C//DTD SVG 1.1//EN"
 "http://www.w3.org/Graphics/SVG/1.1/DTD/svg11.dtd">
<!-- Generated by graphviz version 2.43.0 (0)
 -->
<!-- Title: checks.hpp Pages: 1 -->
<!--zoomable 412 -->

<svg id="main" version="1.1" xmlns="http://www.w3.org/2000/svg" xmlns:xlink="http://www.w3.org/1999/xlink" xml:space="preserve" onload="init(evt)">
<style type="text/css"><![CDATA[
.node, .edge {opacity: 0.7;}
.node.selected, .edge.selected {opacity: 1;}
.edge:hover path { stroke: red; }
.edge:hover polygon { stroke: red; fill: red; }
]]></style>

<defs>
  <circle id="rim" cx="0" cy="0" r="7"/>
  <circle id="rim2" cx="0" cy="0" r="3.5"/>
  <g id="zoomPlus">
    <use xlink:href="#rim" fill="#404040"><set attributeName="fill" to="#808080" begin="zoomplus.mouseover" end="zoomplus.mouseout"/></use>
    <path d="M-4,0h8M0,-4v8" fill="none" stroke="white" stroke-width="1.5" pointer-events="none"/>
  </g>
  <g id="zoomMin">
    <use xlink:href="#rim" fill="#404040"><set attributeName="fill" to="#808080" begin="zoomminus.mouseover" end="zoomminus.mouseout"/></use>
    <path d="M-4,0h8" fill="none" stroke="white" stroke-width="1.5" pointer-events="none"/>
  </g>
  <g id="arrowUp" transform="translate(30 24)">
    <use xlink:href="#rim"/>
    <path pointer-events="none" fill="none" stroke="white" stroke-width="1.5" d="M0,-3.0v7 M-2.5,-0.5L0,-3.0L2.5,-0.5"/>
  </g>
  <g id="arrowRight" transform="rotate(90) translate(36 -43)">
    <use xlink:href="#rim"/>
    <path pointer-events="none" fill="none" stroke="white" stroke-width="1.5" d="M0,-3.0v7 M-2.5,-0.5L0,-3.0L2.5,-0.5"/>
  </g>
  <g id="arrowDown" transform="rotate(180) translate(-30 -48)">
    <use xlink:href="#rim"/>
    <path pointer-events="none" fill="none" stroke="white" stroke-width="1.5" d="M0,-3.0v7 M-2.5,-0.5L0,-3.0L2.5,-0.5"/>
  </g>
  <g id="arrowLeft" transform="rotate(270) translate(-36 17)">
    <use xlink:href="#rim"/>
    <path pointer-events="none" fill="none" stroke="white" stroke-width="1.5" d="M0,-3.0v7 M-2.5,-0.5L0,-3.0L2.5,-0.5"/>
  </g>
  <g id="resetDef">
    <use xlink:href="#rim2" fill="#404040"><set attributeName="fill" to="#808080" begin="reset.mouseover" end="reset.mouseout"/></use>
  </g>
</defs>
<script type="application/ecmascript">
var viewWidth = 1985;
var viewHeight = 412;
var sectionId = 'dynsection-1';
</script>
<script type="application/ecmascript" xlink:href="svg.min.js"/>
<svg id="graph" class="graph">
<g id="viewport">
<title>checks.hpp</title>
<!-- Node1 -->
<g id="Node000001" class="node">
<title>Node1</title>
<g id="a_Node000001"><a xlink:title=" ">
<polygon fill="#999999" stroke="#666666" points="1613.5,-404 1542.5,-404 1542.5,-385 1613.5,-385 1613.5,-404"/>
<text text-anchor="middle" x="1578" y="-392" font-family="Helvetica,sans-Serif" font-size="10.00">checks.hpp</text>
</a>
</g>
</g>
<!-- Node2 -->
<g id="Node000002" class="node">
<title>Node2</title>
<g id="a_Node000002"><a xlink:href="OutputStream_8hpp.html" target="_top" xlink:title=" ">
<polygon fill="white" stroke="#666666" points="1575,-349 1469,-349 1469,-330 1575,-330 1575,-349"/>
<text text-anchor="middle" x="1522" y="-337" font-family="Helvetica,sans-Serif" font-size="10.00">OutputStream.hpp</text>
</a>
</g>
</g>
<!-- Node1&#45;&gt;Node2 -->
<g id="edge1_Node000001_Node000002" class="edge">
<title>Node1&#45;&gt;Node2</title>
<g id="a_edge1_Node000001_Node000002"><a xlink:title=" ">
<path fill="none" stroke="#63b8ff" d="M1561.67,-378.04C1551.74,-368.64 1539.41,-356.98 1531.16,-349.17"/>
<polygon fill="#63b8ff" stroke="#63b8ff" points="1559.33,-380.65 1569,-384.98 1564.15,-375.57 1559.33,-380.65"/>
</a>
</g>
</g>
<!-- Node21 -->
<g id="Node000021" class="node">
<title>Node21</title>
<g id="a_Node000021"><a xlink:href="Serializer_8hpp.html" target="_top" xlink:title=" ">
<polygon fill="white" stroke="#666666" points="1676.5,-349 1593.5,-349 1593.5,-330 1676.5,-330 1676.5,-349"/>
<text text-anchor="middle" x="1635" y="-337" font-family="Helvetica,sans-Serif" font-size="10.00">Serializer.hpp</text>
</a>
</g>
</g>
<!-- Node1&#45;&gt;Node21 -->
<g id="edge22_Node000001_Node000021" class="edge">
<title>Node1&#45;&gt;Node21</title>
<g id="a_edge22_Node000001_Node000021"><a xlink:title=" ">
<path fill="none" stroke="#63b8ff" d="M1594.62,-378.04C1604.73,-368.64 1617.28,-356.98 1625.68,-349.17"/>
<polygon fill="#63b8ff" stroke="#63b8ff" points="1592.1,-375.61 1587.16,-384.98 1596.86,-380.74 1592.1,-375.61"/>
</a>
</g>
</g>
<!-- Node25 -->
<g id="Node000025" class="node">
<title>Node25</title>
<g id="a_Node000025"><a xlink:href="getReference_8hpp.html" target="_top" xlink:title=" ">
<polygon fill="white" stroke="#666666" points="1797.5,-349 1694.5,-349 1694.5,-330 1797.5,-330 1797.5,-349"/>
<text text-anchor="middle" x="1746" y="-337" font-family="Helvetica,sans-Serif" font-size="10.00">getReference.hpp</text>
</a>
</g>
</g>
<!-- Node1&#45;&gt;Node25 -->
<g id="edge26_Node000001_Node000025" class="edge">
<title>Node1&#45;&gt;Node25</title>
<g id="a_edge26_Node000001_Node000025"><a xlink:title=" ">
<path fill="none" stroke="#63b8ff" d="M1614.68,-381.93C1646.06,-372.03 1690.51,-358.01 1718.8,-349.08"/>
<polygon fill="#63b8ff" stroke="#63b8ff" points="1613.48,-378.64 1604.99,-384.98 1615.58,-385.31 1613.48,-378.64"/>
</a>
</g>
</g>
<!-- Node26 -->
<g id="Node000026" class="node">
<title>Node26</title>
<g id="a_Node000026"><a xlink:href="json_8hpp.html" target="_top" xlink:title=" ">
<polygon fill="white" stroke="#666666" points="1492,-184 1434,-184 1434,-165 1492,-165 1492,-184"/>
<text text-anchor="middle" x="1463" y="-172" font-family="Helvetica,sans-Serif" font-size="10.00">json.hpp</text>
</a>
</g>
</g>
<!-- Node1&#45;&gt;Node26 -->
<g id="edge27_Node000001_Node000026" class="edge">
<title>Node1&#45;&gt;Node26</title>
<g id="a_edge27_Node000001_Node000026"><a xlink:title=" ">
<path fill="none" stroke="#63b8ff" d="M1532.28,-388.81C1506.47,-383.56 1476.22,-372.45 1460,-349 1423.5,-296.22 1449.81,-211.16 1459.69,-184.07"/>
<polygon fill="#63b8ff" stroke="#63b8ff" points="1531.82,-392.28 1542.28,-390.61 1533.05,-385.39 1531.82,-392.28"/>
</a>
</g>
</g>
<!-- Node27 -->
<g id="Node000027" class="node">
<title>Node27</title>
<g id="a_Node000027"><a xlink:href="resize_8hpp.html" target="_top" xlink:title=" ">
<polygon fill="white" stroke="#666666" points="1398.5,-349 1331.5,-349 1331.5,-330 1398.5,-330 1398.5,-349"/>
<text text-anchor="middle" x="1365" y="-337" font-family="Helvetica,sans-Serif" font-size="10.00">resize.hpp</text>
</a>
</g>
</g>
<!-- Node1&#45;&gt;Node27 -->
<g id="edge28_Node000001_Node000027" class="edge">
<title>Node1&#45;&gt;Node27</title>
<g id="a_edge28_Node000001_Node000027"><a xlink:title=" ">
<path fill="none" stroke="#63b8ff" d="M1533.99,-382.55C1493.84,-372.56 1435.36,-358.01 1398.79,-348.91"/>
<polygon fill="#63b8ff" stroke="#63b8ff" points="1533.23,-385.97 1543.78,-384.98 1534.92,-379.17 1533.23,-385.97"/>
</a>
</g>
</g>
<!-- Node42 -->
<g id="Node000042" class="node">
<title>Node42</title>
<g id="a_Node000042"><a xlink:href="zip_8hpp.html" target="_top" xlink:title=" ">
<polygon fill="white" stroke="#666666" points="1868,-349 1816,-349 1816,-330 1868,-330 1868,-349"/>
<text text-anchor="middle" x="1842" y="-337" font-family="Helvetica,sans-Serif" font-size="10.00">zip.hpp</text>
</a>
</g>
</g>
<!-- Node1&#45;&gt;Node42 -->
<g id="edge49_Node000001_Node000042" class="edge">
<title>Node1&#45;&gt;Node42</title>
<g id="a_edge49_Node000001_Node000042"><a xlink:title=" ">
<path fill="none" stroke="#63b8ff" d="M1623.83,-385.24C1670.15,-376.74 1743.73,-362.82 1807,-349 1809.81,-348.39 1812.74,-347.72 1815.66,-347.04"/>
<polygon fill="#63b8ff" stroke="#63b8ff" points="1623.01,-381.83 1613.8,-387.07 1624.27,-388.72 1623.01,-381.83"/>
</a>
</g>
</g>
<!-- Node3 -->
<g id="Node000003" class="node">
<title>Node3</title>
<g id="a_Node000003"><a xlink:href="ArgParse_8hpp.html" target="_top" xlink:title=" ">
<polygon fill="white" stroke="#666666" points="661,-184 581,-184 581,-165 661,-165 661,-184"/>
<text text-anchor="middle" x="621" y="-172" font-family="Helvetica,sans-Serif" font-size="10.00">ArgParse.hpp</text>
</a>
</g>
</g>
<!-- Node2&#45;&gt;Node3 -->
<g id="edge2_Node000002_Node000003" class="edge">
<title>Node2&#45;&gt;Node3</title>
<g id="a_edge2_Node000002_Node000003"><a xlink:title=" ">
<path fill="none" stroke="#63b8ff" d="M1458.88,-330.37C1344.13,-315.2 1093.9,-280.37 885,-239 800.61,-222.29 702.37,-197.13 652.92,-184.06"/>
<polygon fill="#63b8ff" stroke="#63b8ff" points="1458.52,-333.85 1468.89,-331.69 1459.44,-326.91 1458.52,-333.85"/>
</a>
</g>
</g>
<!-- Node11 -->
<g id="Node000011" class="node">
<title>Node11</title>
<g id="a_Node000011"><a xlink:href="Color_8hpp.html" target="_top" xlink:title=" ">
<polygon fill="white" stroke="#666666" points="1531,-294 1469,-294 1469,-275 1531,-275 1531,-294"/>
<text text-anchor="middle" x="1500" y="-282" font-family="Helvetica,sans-Serif" font-size="10.00">Color.hpp</text>
</a>
</g>
</g>
<!-- Node2&#45;&gt;Node11 -->
<g id="edge10_Node000002_Node000011" class="edge">
<title>Node2&#45;&gt;Node11</title>
<g id="a_edge10_Node000002_Node000011"><a xlink:title=" ">
<path fill="none" stroke="#63b8ff" d="M1514.42,-320.24C1510.74,-311.37 1506.49,-301.14 1503.57,-294.09"/>
<polygon fill="#63b8ff" stroke="#63b8ff" points="1511.3,-321.85 1518.37,-329.75 1517.77,-319.17 1511.3,-321.85"/>
</a>
</g>
</g>
<!-- Node12 -->
<g id="Node000012" class="node">
<title>Node12</title>
<g id="a_Node000012"><a xlink:href="FileOutputStream_8hpp.html" target="_top" xlink:title=" ">
<polygon fill="white" stroke="#666666" points="1672.5,-294 1549.5,-294 1549.5,-275 1672.5,-275 1672.5,-294"/>
<text text-anchor="middle" x="1611" y="-282" font-family="Helvetica,sans-Serif" font-size="10.00">FileOutputStream.hpp</text>
</a>
</g>
</g>
<!-- Node2&#45;&gt;Node12 -->
<g id="edge11_Node000002_Node000012" class="edge">
<title>Node2&#45;&gt;Node12</title>
<g id="a_edge11_Node000002_Node000012"><a xlink:title=" ">
<path fill="none" stroke="#63b8ff" d="M1545.18,-324.7C1561.39,-315.04 1582.55,-302.44 1596.44,-294.17"/>
<polygon fill="#63b8ff" stroke="#63b8ff" points="1543.1,-321.86 1536.3,-329.98 1546.68,-327.88 1543.1,-321.86"/>
</a>
</g>
</g>
<!-- Node20 -->
<g id="Node000020" class="node">
<title>Node20</title>
<g id="a_Node000020"><a xlink:href="StreamInterceptor_8hpp.html" target="_top" xlink:title=" ">
<polygon fill="white" stroke="#666666" points="1815.5,-294 1690.5,-294 1690.5,-275 1815.5,-275 1815.5,-294"/>
<text text-anchor="middle" x="1753" y="-282" font-family="Helvetica,sans-Serif" font-size="10.00">StreamInterceptor.hpp</text>
</a>
</g>
</g>
<!-- Node2&#45;&gt;Node20 -->
<g id="edge21_Node000002_Node000020" class="edge">
<title>Node2&#45;&gt;Node20</title>
<g id="a_edge21_Node000002_Node000020"><a xlink:title=" ">
<path fill="none" stroke="#63b8ff" d="M1569.11,-327.69C1612.39,-317.76 1675.69,-303.24 1715.59,-294.08"/>
<polygon fill="#63b8ff" stroke="#63b8ff" points="1568.08,-324.34 1559.11,-329.98 1569.64,-331.16 1568.08,-324.34"/>
</a>
</g>
</g>
<!-- Node4 -->
<g id="Node000004" class="node">
<title>Node4</title>
<g id="a_Node000004"><a xlink:href="AbsArgument_8hpp.html" target="_top" xlink:title=" ">
<polygon fill="white" stroke="#666666" points="374,-129 270,-129 270,-110 374,-110 374,-129"/>
<text text-anchor="middle" x="322" y="-117" font-family="Helvetica,sans-Serif" font-size="10.00">AbsArgument.hpp</text>
</a>
</g>
</g>
<!-- Node3&#45;&gt;Node4 -->
<g id="edge3_Node000003_Node000004" class="edge">
<title>Node3&#45;&gt;Node4</title>
<g id="a_edge3_Node000003_Node000004"><a xlink:title=" ">
<path fill="none" stroke="#63b8ff" d="M570.96,-164.63C515.09,-154.73 425.29,-138.81 370.18,-129.04"/>
<polygon fill="#63b8ff" stroke="#63b8ff" points="570.53,-168.11 580.99,-166.41 571.75,-161.22 570.53,-168.11"/>
</a>
</g>
</g>
<!-- Node9 -->
<g id="Node000009" class="node">
<title>Node9</title>
<g id="a_Node000009"><a xlink:href="container__extension_8hpp.html" target="_top" xlink:title=" ">
<polygon fill="white" stroke="#666666" points="529.5,-129 392.5,-129 392.5,-110 529.5,-110 529.5,-129"/>
<text text-anchor="middle" x="461" y="-117" font-family="Helvetica,sans-Serif" font-size="10.00">container_extension.hpp</text>
</a>
</g>
</g>
<!-- Node3&#45;&gt;Node9 -->
<g id="edge8_Node000003_Node000009" class="edge">
<title>Node3&#45;&gt;Node9</title>
<g id="a_edge8_Node000003_Node000009"><a xlink:title=" ">
<path fill="none" stroke="#63b8ff" d="M585.67,-161.8C555.81,-151.91 513.73,-137.97 486.91,-129.08"/>
<polygon fill="#63b8ff" stroke="#63b8ff" points="584.7,-165.16 595.29,-164.98 586.9,-158.52 584.7,-165.16"/>
</a>
</g>
</g>
<!-- Node10 -->
<g id="Node000010" class="node">
<title>Node10</title>
<g id="a_Node000010"><a xlink:href="file__system__extension_8hpp.html" target="_top" xlink:title=" ">
<polygon fill="white" stroke="#666666" points="694.5,-129 547.5,-129 547.5,-110 694.5,-110 694.5,-129"/>
<text text-anchor="middle" x="621" y="-117" font-family="Helvetica,sans-Serif" font-size="10.00">file_system_extension.hpp</text>
</a>
</g>
</g>
<!-- Node3&#45;&gt;Node10 -->
<g id="edge9_Node000003_Node000010" class="edge">
<title>Node3&#45;&gt;Node10</title>
<g id="a_edge9_Node000003_Node000010"><a xlink:title=" ">
<path fill="none" stroke="#63b8ff" d="M621,-154.66C621,-145.93 621,-135.99 621,-129.09"/>
<polygon fill="#63b8ff" stroke="#63b8ff" points="617.5,-154.75 621,-164.75 624.5,-154.75 617.5,-154.75"/>
</a>
</g>
</g>
<!-- Node5 -->
<g id="Node000005" class="node">
<title>Node5</title>
<g id="a_Node000005"><a xlink:href="AggregateArgument_8hpp.html" target="_top" xlink:title=" ">
<polygon fill="white" stroke="#666666" points="136,-74 0,-74 0,-55 136,-55 136,-74"/>
<text text-anchor="middle" x="68" y="-62" font-family="Helvetica,sans-Serif" font-size="10.00">AggregateArgument.hpp</text>
</a>
</g>
</g>
<!-- Node4&#45;&gt;Node5 -->
<g id="edge4_Node000004_Node000005" class="edge">
<title>Node4&#45;&gt;Node5</title>
<g id="a_edge4_Node000004_Node000005"><a xlink:title=" ">
<path fill="none" stroke="#63b8ff" d="M271.39,-107.94C223.78,-98.01 153.38,-83.31 109.13,-74.08"/>
<polygon fill="#63b8ff" stroke="#63b8ff" points="270.69,-111.37 281.19,-109.98 272.12,-104.52 270.69,-111.37"/>
</a>
</g>
</g>
<!-- Node6 -->
<g id="Node000006" class="node">
<title>Node6</title>
<g id="a_Node000006"><a xlink:href="FlagArgument_8hpp.html" target="_top" xlink:title=" ">
<polygon fill="white" stroke="#666666" points="261.5,-74 154.5,-74 154.5,-55 261.5,-55 261.5,-74"/>
<text text-anchor="middle" x="208" y="-62" font-family="Helvetica,sans-Serif" font-size="10.00">FlagArgument.hpp</text>
</a>
</g>
</g>
<!-- Node4&#45;&gt;Node6 -->
<g id="edge5_Node000004_Node000006" class="edge">
<title>Node4&#45;&gt;Node6</title>
<g id="a_edge5_Node000004_Node000006"><a xlink:title=" ">
<path fill="none" stroke="#63b8ff" d="M294.61,-105.77C273.58,-95.99 245.11,-82.75 226.65,-74.17"/>
<polygon fill="#63b8ff" stroke="#63b8ff" points="293.14,-108.94 303.68,-109.98 296.09,-102.6 293.14,-108.94"/>
</a>
</g>
</g>
<!-- Node7 -->
<g id="Node000007" class="node">
<title>Node7</title>
<g id="a_Node000007"><a xlink:href="KeywordArgument_8hpp.html" target="_top" xlink:title=" ">
<polygon fill="white" stroke="#666666" points="408,-74 280,-74 280,-55 408,-55 408,-74"/>
<text text-anchor="middle" x="344" y="-62" font-family="Helvetica,sans-Serif" font-size="10.00">KeywordArgument.hpp</text>
</a>
</g>
</g>
<!-- Node4&#45;&gt;Node7 -->
<g id="edge6_Node000004_Node000007" class="edge">
<title>Node4&#45;&gt;Node7</title>
<g id="a_edge6_Node000004_Node000007"><a xlink:title=" ">
<path fill="none" stroke="#63b8ff" d="M329.58,-100.24C333.26,-91.37 337.51,-81.14 340.43,-74.09"/>
<polygon fill="#63b8ff" stroke="#63b8ff" points="326.23,-99.17 325.63,-109.75 332.7,-101.85 326.23,-99.17"/>
</a>
</g>
</g>
<!-- Node8 -->
<g id="Node000008" class="node">
<title>Node8</title>
<g id="a_Node000008"><a xlink:href="PositionalArgument_8hpp.html" target="_top" xlink:title=" ">
<polygon fill="white" stroke="#666666" points="560,-74 426,-74 426,-55 560,-55 560,-74"/>
<text text-anchor="middle" x="493" y="-62" font-family="Helvetica,sans-Serif" font-size="10.00">PositionalArgument.hpp</text>
</a>
</g>
</g>
<!-- Node4&#45;&gt;Node8 -->
<g id="edge7_Node000004_Node000008" class="edge">
<title>Node4&#45;&gt;Node8</title>
<g id="a_edge7_Node000004_Node000008"><a xlink:title=" ">
<path fill="none" stroke="#63b8ff" d="M359.34,-106.93C391.28,-97.03 436.52,-83.01 465.31,-74.08"/>
<polygon fill="#63b8ff" stroke="#63b8ff" points="357.99,-103.68 349.47,-109.98 360.06,-110.37 357.99,-103.68"/>
</a>
</g>
</g>
<!-- Node13 -->
<g id="Node000013" class="node">
<title>Node13</title>
<g id="a_Node000013"><a xlink:href="Logger_8hpp.html" target="_top" xlink:title=" ">
<polygon fill="white" stroke="#666666" points="1646,-239 1576,-239 1576,-220 1646,-220 1646,-239"/>
<text text-anchor="middle" x="1611" y="-227" font-family="Helvetica,sans-Serif" font-size="10.00">Logger.hpp</text>
</a>
</g>
</g>
<!-- Node12&#45;&gt;Node13 -->
<g id="edge12_Node000012_Node000013" class="edge">
<title>Node12&#45;&gt;Node13</title>
<g id="a_edge12_Node000012_Node000013"><a xlink:title=" ">
<path fill="none" stroke="#63b8ff" d="M1611,-264.66C1611,-255.93 1611,-245.99 1611,-239.09"/>
<polygon fill="#63b8ff" stroke="#63b8ff" points="1607.5,-264.75 1611,-274.75 1614.5,-264.75 1607.5,-264.75"/>
</a>
</g>
</g>
<!-- Node14 -->
<g id="Node000014" class="node">
<title>Node14</title>
<g id="a_Node000014"><a xlink:href="LogBlock_8hpp.html" target="_top" xlink:title=" ">
<polygon fill="white" stroke="#666666" points="1652,-184 1570,-184 1570,-165 1652,-165 1652,-184"/>
<text text-anchor="middle" x="1611" y="-172" font-family="Helvetica,sans-Serif" font-size="10.00">LogBlock.hpp</text>
</a>
</g>
</g>
<!-- Node13&#45;&gt;Node14 -->
<g id="edge13_Node000013_Node000014" class="edge">
<title>Node13&#45;&gt;Node14</title>
<g id="a_edge13_Node000013_Node000014"><a xlink:title=" ">
<path fill="none" stroke="#63b8ff" d="M1611,-209.66C1611,-200.93 1611,-190.99 1611,-184.09"/>
<polygon fill="#63b8ff" stroke="#63b8ff" points="1607.5,-209.75 1611,-219.75 1614.5,-209.75 1607.5,-209.75"/>
</a>
</g>
</g>
<!-- Node15 -->
<g id="Node000015" class="node">
<title>Node15</title>
<g id="a_Node000015"><a xlink:href="Loggee_8hpp.html" target="_top" xlink:title=" ">
<polygon fill="white" stroke="#666666" points="1579.5,-129 1506.5,-129 1506.5,-110 1579.5,-110 1579.5,-129"/>
<text text-anchor="middle" x="1543" y="-117" font-family="Helvetica,sans-Serif" font-size="10.00">Loggee.hpp</text>
</a>
</g>
</g>
<!-- Node13&#45;&gt;Node15 -->
<g id="edge17_Node000013_Node000015" class="edge">
<title>Node13&#45;&gt;Node15</title>
<g id="a_edge17_Node000013_Node000015"><a xlink:title=" ">
<path fill="none" stroke="#63b8ff" d="M1589.31,-213.69C1579.39,-205.9 1568.26,-195.58 1561,-184 1550.05,-166.52 1545.6,-142.23 1543.92,-129.35"/>
<polygon fill="#63b8ff" stroke="#63b8ff" points="1587.48,-216.69 1597.59,-219.84 1591.66,-211.07 1587.48,-216.69"/>
</a>
</g>
</g>
<!-- Node18 -->
<g id="Node000018" class="node">
<title>Node18</title>
<g id="a_Node000018"><a xlink:href="LoggerSingleton_8hpp.html" target="_top" xlink:title=" ">
<polygon fill="white" stroke="#666666" points="1786,-184 1670,-184 1670,-165 1786,-165 1786,-184"/>
<text text-anchor="middle" x="1728" y="-172" font-family="Helvetica,sans-Serif" font-size="10.00">LoggerSingleton.hpp</text>
</a>
</g>
</g>
<!-- Node13&#45;&gt;Node18 -->
<g id="edge18_Node000013_Node000018" class="edge">
<title>Node13&#45;&gt;Node18</title>
<g id="a_edge18_Node000013_Node000018"><a xlink:title=" ">
<path fill="none" stroke="#63b8ff" d="M1639.11,-215.77C1660.69,-205.99 1689.91,-192.75 1708.86,-184.17"/>
<polygon fill="#63b8ff" stroke="#63b8ff" points="1637.46,-212.67 1629.8,-219.98 1640.35,-219.05 1637.46,-212.67"/>
</a>
</g>
</g>
<!-- Node14&#45;&gt;Node15 -->
<g id="edge14_Node000014_Node000015" class="edge">
<title>Node14&#45;&gt;Node15</title>
<g id="a_edge14_Node000014_Node000015"><a xlink:title=" ">
<path fill="none" stroke="#63b8ff" d="M1591.88,-158.6C1579.7,-149.11 1564.34,-137.13 1554.12,-129.17"/>
<polygon fill="#63b8ff" stroke="#63b8ff" points="1590.04,-161.6 1600.07,-164.98 1594.34,-156.08 1590.04,-161.6"/>
</a>
</g>
</g>
<!-- Node16 -->
<g id="Node000016" class="node">
<title>Node16</title>
<g id="a_Node000016"><a xlink:href="testing_8hpp.html" target="_top" xlink:title=" ">
<polygon fill="white" stroke="#666666" points="1669.5,-129 1598.5,-129 1598.5,-110 1669.5,-110 1669.5,-129"/>
<text text-anchor="middle" x="1634" y="-117" font-family="Helvetica,sans-Serif" font-size="10.00">testing.hpp</text>
</a>
</g>
</g>
<!-- Node14&#45;&gt;Node16 -->
<g id="edge15_Node000014_Node000016" class="edge">
<title>Node14&#45;&gt;Node16</title>
<g id="a_edge15_Node000014_Node000016"><a xlink:title=" ">
<path fill="none" stroke="#63b8ff" d="M1618.8,-155.53C1622.68,-146.6 1627.18,-136.22 1630.27,-129.09"/>
<polygon fill="#63b8ff" stroke="#63b8ff" points="1615.57,-154.18 1614.8,-164.75 1621.99,-156.97 1615.57,-154.18"/>
</a>
</g>
</g>
<!-- Node17 -->
<g id="Node000017" class="node">
<title>Node17</title>
<g id="a_Node000017"><a xlink:href="essentials_8hpp.html" target="_top" xlink:title=" ">
<polygon fill="white" stroke="#666666" points="1677.5,-74 1590.5,-74 1590.5,-55 1677.5,-55 1677.5,-74"/>
<text text-anchor="middle" x="1634" y="-62" font-family="Helvetica,sans-Serif" font-size="10.00">essentials.hpp</text>
</a>
</g>
</g>
<!-- Node16&#45;&gt;Node17 -->
<g id="edge16_Node000016_Node000017" class="edge">
<title>Node16&#45;&gt;Node17</title>
<g id="a_edge16_Node000016_Node000017"><a xlink:title=" ">
<path fill="none" stroke="#63b8ff" d="M1634,-99.66C1634,-90.93 1634,-80.99 1634,-74.09"/>
<polygon fill="#63b8ff" stroke="#63b8ff" points="1630.5,-99.75 1634,-109.75 1637.5,-99.75 1630.5,-99.75"/>
</a>
</g>
</g>
<!-- Node18&#45;&gt;Node16 -->
<g id="edge19_Node000018_Node000016" class="edge">
<title>Node18&#45;&gt;Node16</title>
<g id="a_edge19_Node000018_Node000016"><a xlink:title=" ">
<path fill="none" stroke="#63b8ff" d="M1704,-159.97C1686.81,-150.28 1664.19,-137.52 1649.38,-129.17"/>
<polygon fill="#63b8ff" stroke="#63b8ff" points="1702.47,-163.12 1712.9,-164.98 1705.91,-157.02 1702.47,-163.12"/>
</a>
</g>
</g>
<!-- Node19 -->
<g id="Node000019" class="node">
<title>Node19</title>
<g id="a_Node000019"><a xlink:href="warning_8hpp.html" target="_top" xlink:title=" ">
<polygon fill="white" stroke="#666666" points="1766.5,-129 1689.5,-129 1689.5,-110 1766.5,-110 1766.5,-129"/>
<text text-anchor="middle" x="1728" y="-117" font-family="Helvetica,sans-Serif" font-size="10.00">warning.hpp</text>
</a>
</g>
</g>
<!-- Node18&#45;&gt;Node19 -->
<g id="edge20_Node000018_Node000019" class="edge">
<title>Node18&#45;&gt;Node19</title>
<g id="a_edge20_Node000018_Node000019"><a xlink:title=" ">
<path fill="none" stroke="#63b8ff" d="M1728,-154.66C1728,-145.93 1728,-135.99 1728,-129.09"/>
<polygon fill="#63b8ff" stroke="#63b8ff" points="1724.5,-154.75 1728,-164.75 1731.5,-154.75 1724.5,-154.75"/>
</a>
</g>
</g>
<!-- Node22 -->
<g id="Node000022" class="node">
<title>Node22</title>
<g id="a_Node000022"><a xlink:href="MPI_8hpp.html" target="_top" xlink:title=" ">
<polygon fill="white" stroke="#666666" points="1890,-294 1834,-294 1834,-275 1890,-275 1890,-294"/>
<text text-anchor="middle" x="1862" y="-282" font-family="Helvetica,sans-Serif" font-size="10.00">MPI.hpp</text>
</a>
</g>
</g>
<!-- Node21&#45;&gt;Node22 -->
<g id="edge23_Node000021_Node000022" class="edge">
<title>Node21&#45;&gt;Node22</title>
<g id="a_edge23_Node000021_Node000022"><a xlink:title=" ">
<path fill="none" stroke="#63b8ff" d="M1681.45,-327.65C1727.25,-316.96 1795.76,-300.97 1833.86,-292.07"/>
<polygon fill="#63b8ff" stroke="#63b8ff" points="1680.41,-324.3 1671.47,-329.98 1682.01,-331.12 1680.41,-324.3"/>
</a>
</g>
</g>
<!-- Node23 -->
<g id="Node000023" class="node">
<title>Node23</title>
<g id="a_Node000023"><a xlink:href="CommOperation_8hpp.html" target="_top" xlink:title=" ">
<polygon fill="white" stroke="#666666" points="1857,-239 1739,-239 1739,-220 1857,-220 1857,-239"/>
<text text-anchor="middle" x="1798" y="-227" font-family="Helvetica,sans-Serif" font-size="10.00">CommOperation.hpp</text>
</a>
</g>
</g>
<!-- Node22&#45;&gt;Node23 -->
<g id="edge24_Node000022_Node000023" class="edge">
<title>Node22&#45;&gt;Node23</title>
<g id="a_edge24_Node000022_Node000023"><a xlink:title=" ">
<path fill="none" stroke="#63b8ff" d="M1844.01,-268.6C1832.54,-259.11 1818.09,-247.13 1808.47,-239.17"/>
<polygon fill="#63b8ff" stroke="#63b8ff" points="1841.78,-271.3 1851.72,-274.98 1846.25,-265.91 1841.78,-271.3"/>
</a>
</g>
</g>
<!-- Node24 -->
<g id="Node000024" class="node">
<title>Node24</title>
<g id="a_Node000024"><a xlink:href="MPISingleton_8hpp.html" target="_top" xlink:title=" ">
<polygon fill="white" stroke="#666666" points="1976.5,-239 1875.5,-239 1875.5,-220 1976.5,-220 1976.5,-239"/>
<text text-anchor="middle" x="1926" y="-227" font-family="Helvetica,sans-Serif" font-size="10.00">MPISingleton.hpp</text>
</a>
</g>
</g>
<!-- Node22&#45;&gt;Node24 -->
<g id="edge25_Node000022_Node000024" class="edge">
<title>Node22&#45;&gt;Node24</title>
<g id="a_edge25_Node000022_Node000024"><a xlink:title=" ">
<path fill="none" stroke="#63b8ff" d="M1879.99,-268.6C1891.46,-259.11 1905.91,-247.13 1915.53,-239.17"/>
<polygon fill="#63b8ff" stroke="#63b8ff" points="1877.75,-265.91 1872.28,-274.98 1882.22,-271.3 1877.75,-265.91"/>
</a>
</g>
</g>
<!-- Node28 -->
<g id="Node000028" class="node">
<title>Node28</title>
<g id="a_Node000028"><a xlink:href="STLContainerBase_8hpp.html" target="_top" xlink:title=" ">
<polygon fill="white" stroke="#666666" points="1413,-294 1287,-294 1287,-275 1413,-275 1413,-294"/>
<text text-anchor="middle" x="1350" y="-282" font-family="Helvetica,sans-Serif" font-size="10.00">STLContainerBase.hpp</text>
</a>
</g>
</g>
<!-- Node27&#45;&gt;Node28 -->
<g id="edge29_Node000027_Node000028" class="edge">
<title>Node27&#45;&gt;Node28</title>
<g id="a_edge29_Node000027_Node000028"><a xlink:title=" ">
<path fill="none" stroke="#63b8ff" d="M1359.75,-319.95C1357.26,-311.15 1354.4,-301.06 1352.43,-294.09"/>
<polygon fill="#63b8ff" stroke="#63b8ff" points="1356.43,-321.08 1362.52,-329.75 1363.17,-319.17 1356.43,-321.08"/>
</a>
</g>
</g>
<!-- Node29 -->
<g id="Node000029" class="node">
<title>Node29</title>
<g id="a_Node000029"><a xlink:href="DynamicArray_8hpp.html" target="_top" xlink:title=" ">
<polygon fill="white" stroke="#666666" points="1000,-239 894,-239 894,-220 1000,-220 1000,-239"/>
<text text-anchor="middle" x="947" y="-227" font-family="Helvetica,sans-Serif" font-size="10.00">DynamicArray.hpp</text>
</a>
</g>
</g>
<!-- Node28&#45;&gt;Node29 -->
<g id="edge30_Node000028_Node000029" class="edge">
<title>Node28&#45;&gt;Node29</title>
<g id="a_edge30_Node000028_Node000029"><a xlink:title=" ">
<path fill="none" stroke="#63b8ff" d="M1276.6,-273.85C1196.71,-263.34 1070.92,-246.8 1000.08,-237.48"/>
<polygon fill="#63b8ff" stroke="#63b8ff" points="1276.22,-277.33 1286.59,-275.16 1277.13,-270.39 1276.22,-277.33"/>
</a>
</g>
</g>
<!-- Node40 -->
<g id="Node000040" class="node">
<title>Node40</title>
<g id="a_Node000040"><a xlink:href="StaticArray_8hpp.html" target="_top" xlink:title=" ">
<polygon fill="white" stroke="#666666" points="1404,-239 1314,-239 1314,-220 1404,-220 1404,-239"/>
<text text-anchor="middle" x="1359" y="-227" font-family="Helvetica,sans-Serif" font-size="10.00">StaticArray.hpp</text>
</a>
</g>
</g>
<!-- Node28&#45;&gt;Node40 -->
<g id="edge45_Node000028_Node000040" class="edge">
<title>Node28&#45;&gt;Node40</title>
<g id="a_edge45_Node000028_Node000040"><a xlink:title=" ">
<path fill="none" stroke="#63b8ff" d="M1353.2,-264.66C1354.68,-255.93 1356.37,-245.99 1357.54,-239.09"/>
<polygon fill="#63b8ff" stroke="#63b8ff" points="1349.71,-264.3 1351.49,-274.75 1356.61,-265.48 1349.71,-264.3"/>
</a>
</g>
</g>
<!-- Node29&#45;&gt;Node3 -->
<g id="edge31_Node000029_Node000003" class="edge">
<title>Node29&#45;&gt;Node3</title>
<g id="a_edge31_Node000029_Node000003"><a xlink:title=" ">
<path fill="none" stroke="#63b8ff" d="M884.39,-218.32C818.67,-207.64 717.28,-191.15 661.41,-182.07"/>
<polygon fill="#63b8ff" stroke="#63b8ff" points="884.19,-221.83 894.62,-219.98 885.31,-214.93 884.19,-221.83"/>
</a>
</g>
</g>
<!-- Node30 -->
<g id="Node000030" class="node">
<title>Node30</title>
<g id="a_Node000030"><a xlink:href="ContiguousTree_8hpp.html" target="_top" xlink:title=" ">
<polygon fill="white" stroke="#666666" points="713.5,-74 600.5,-74 600.5,-55 713.5,-55 713.5,-74"/>
<text text-anchor="middle" x="657" y="-62" font-family="Helvetica,sans-Serif" font-size="10.00">ContiguousTree.hpp</text>
</a>
</g>
</g>
<!-- Node29&#45;&gt;Node30 -->
<g id="edge32_Node000029_Node000030" class="edge">
<title>Node29&#45;&gt;Node30</title>
<g id="a_edge32_Node000029_Node000030"><a xlink:title=" ">
<path fill="none" stroke="#63b8ff" d="M883.77,-220.71C832.06,-213.27 764.02,-200.73 742,-184 712.4,-161.51 725.31,-139.74 703,-110 692.6,-96.13 677.79,-82.64 667.81,-74.22"/>
<polygon fill="#63b8ff" stroke="#63b8ff" points="883.49,-224.2 893.88,-222.13 884.46,-217.27 883.49,-224.2"/>
</a>
</g>
</g>
<!-- Node31 -->
<g id="Node000031" class="node">
<title>Node31</title>
<g id="a_Node000031"><a xlink:href="ParallelFor_8hpp.html" target="_top" xlink:title=" ">
<polygon fill="white" stroke="#666666" points="953,-74 865,-74 865,-55 953,-55 953,-74"/>
<text text-anchor="middle" x="909" y="-62" font-family="Helvetica,sans-Serif" font-size="10.00">ParallelFor.hpp</text>
</a>
</g>
</g>
<!-- Node29&#45;&gt;Node31 -->
<g id="edge33_Node000029_Node000031" class="edge">
<title>Node29&#45;&gt;Node31</title>
<g id="a_edge33_Node000029_Node000031"><a xlink:title=" ">
<path fill="none" stroke="#63b8ff" d="M940.7,-210.01C938.12,-202.06 935.22,-192.63 933,-184 922.52,-143.35 913.77,-93.89 910.44,-74.19"/>
<polygon fill="#63b8ff" stroke="#63b8ff" points="937.46,-211.33 943.94,-219.71 944.1,-209.12 937.46,-211.33"/>
</a>
</g>
</g>
<!-- Node32 -->
<g id="Node000032" class="node">
<title>Node32</title>
<g id="a_Node000032"><a xlink:href="ThreadLocal_8hpp.html" target="_top" xlink:title=" ">
<polygon fill="white" stroke="#666666" points="1072.5,-184 975.5,-184 975.5,-165 1072.5,-165 1072.5,-184"/>
<text text-anchor="middle" x="1024" y="-172" font-family="Helvetica,sans-Serif" font-size="10.00">ThreadLocal.hpp</text>
</a>
</g>
</g>
<!-- Node29&#45;&gt;Node32 -->
<g id="edge34_Node000029_Node000032" class="edge">
<title>Node29&#45;&gt;Node32</title>
<g id="a_edge34_Node000029_Node000032"><a xlink:title=" ">
<path fill="none" stroke="#63b8ff" d="M967.85,-214.15C981.76,-204.57 999.61,-192.29 1011.4,-184.17"/>
<polygon fill="#63b8ff" stroke="#63b8ff" points="965.62,-211.43 959.37,-219.98 969.59,-217.2 965.62,-211.43"/>
</a>
</g>
</g>
<!-- Node33 -->
<g id="Node000033" class="node">
<title>Node33</title>
<g id="a_Node000033"><a xlink:href="ThreadPoolStorage_8hpp.html" target="_top" xlink:title=" ">
<polygon fill="white" stroke="#666666" points="881,-184 751,-184 751,-165 881,-165 881,-184"/>
<text text-anchor="middle" x="816" y="-172" font-family="Helvetica,sans-Serif" font-size="10.00">ThreadPoolStorage.hpp</text>
</a>
</g>
</g>
<!-- Node29&#45;&gt;Node33 -->
<g id="edge35_Node000029_Node000033" class="edge">
<title>Node29&#45;&gt;Node33</title>
<g id="a_edge35_Node000029_Node000033"><a xlink:title=" ">
<path fill="none" stroke="#63b8ff" d="M916.5,-216.16C892.25,-206.35 858.93,-192.87 837.43,-184.17"/>
<polygon fill="#63b8ff" stroke="#63b8ff" points="915.37,-219.48 925.95,-219.98 918,-212.99 915.37,-219.48"/>
</a>
</g>
</g>
<!-- Node37 -->
<g id="Node000037" class="node">
<title>Node37</title>
<g id="a_Node000037"><a xlink:href="abstree_8hpp.html" target="_top" xlink:title=" ">
<polygon fill="white" stroke="#666666" points="1045,-74 971,-74 971,-55 1045,-55 1045,-74"/>
<text text-anchor="middle" x="1008" y="-62" font-family="Helvetica,sans-Serif" font-size="10.00">abstree.hpp</text>
</a>
</g>
</g>
<!-- Node29&#45;&gt;Node37 -->
<g id="edge43_Node000029_Node000037" class="edge">
<title>Node29&#45;&gt;Node37</title>
<g id="a_edge43_Node000029_Node000037"><a xlink:title=" ">
<path fill="none" stroke="#63b8ff" d="M951.99,-209.9C955.55,-197.15 960.64,-179.91 966,-165 978.3,-130.77 996.08,-91.28 1003.97,-74.16"/>
<polygon fill="#63b8ff" stroke="#63b8ff" points="948.55,-209.21 949.29,-219.78 955.3,-211.05 948.55,-209.21"/>
</a>
</g>
</g>
<!-- Node38 -->
<g id="Node000038" class="node">
<title>Node38</title>
<g id="a_Node000038"><a xlink:href="UnstructuredView_8hpp.html" target="_top" xlink:title=" ">
<polygon fill="white" stroke="#666666" points="1215,-184 1091,-184 1091,-165 1215,-165 1215,-184"/>
<text text-anchor="middle" x="1153" y="-172" font-family="Helvetica,sans-Serif" font-size="10.00">UnstructuredView.hpp</text>
</a>
</g>
</g>
<!-- Node29&#45;&gt;Node38 -->
<g id="edge42_Node000029_Node000038" class="edge">
<title>Node29&#45;&gt;Node38</title>
<g id="a_edge42_Node000029_Node000038"><a xlink:title=" ">
<path fill="none" stroke="#63b8ff" d="M990,-217.44C1028.56,-207.52 1084.36,-193.16 1119.64,-184.08"/>
<polygon fill="#63b8ff" stroke="#63b8ff" points="988.91,-214.1 980.1,-219.98 990.65,-220.88 988.91,-214.1"/>
</a>
</g>
</g>
<!-- Node39 -->
<g id="Node000039" class="node">
<title>Node39</title>
<g id="a_Node000039"><a xlink:href="stl__extension_8hpp.html" target="_top" xlink:title=" ">
<polygon fill="white" stroke="#666666" points="1336.5,-184 1233.5,-184 1233.5,-165 1336.5,-165 1336.5,-184"/>
<text text-anchor="middle" x="1285" y="-172" font-family="Helvetica,sans-Serif" font-size="10.00">stl_extension.hpp</text>
</a>
</g>
</g>
<!-- Node29&#45;&gt;Node39 -->
<g id="edge44_Node000029_Node000039" class="edge">
<title>Node29&#45;&gt;Node39</title>
<g id="a_edge44_Node000029_Node000039"><a xlink:title=" ">
<path fill="none" stroke="#63b8ff" d="M1010.22,-218.59C1074.62,-208.49 1173.31,-193.01 1233.23,-183.62"/>
<polygon fill="#63b8ff" stroke="#63b8ff" points="1009.52,-215.15 1000.18,-220.16 1010.61,-222.07 1009.52,-215.15"/>
</a>
</g>
</g>
<!-- Node34 -->
<g id="Node000034" class="node">
<title>Node34</title>
<g id="a_Node000034"><a xlink:href="ThreadPool_8hpp.html" target="_top" xlink:title=" ">
<polygon fill="white" stroke="#666666" points="862,-129 770,-129 770,-110 862,-110 862,-129"/>
<text text-anchor="middle" x="816" y="-117" font-family="Helvetica,sans-Serif" font-size="10.00">ThreadPool.hpp</text>
</a>
</g>
</g>
<!-- Node33&#45;&gt;Node34 -->
<g id="edge36_Node000033_Node000034" class="edge">
<title>Node33&#45;&gt;Node34</title>
<g id="a_edge36_Node000033_Node000034"><a xlink:title=" ">
<path fill="none" stroke="#63b8ff" d="M816,-154.66C816,-145.93 816,-135.99 816,-129.09"/>
<polygon fill="#63b8ff" stroke="#63b8ff" points="812.5,-154.75 816,-164.75 819.5,-154.75 812.5,-154.75"/>
</a>
</g>
</g>
<!-- Node34&#45;&gt;Node30 -->
<g id="edge37_Node000034_Node000030" class="edge">
<title>Node34&#45;&gt;Node30</title>
<g id="a_edge37_Node000034_Node000030"><a xlink:title=" ">
<path fill="none" stroke="#63b8ff" d="M780.9,-106.8C751.22,-96.91 709.4,-82.97 682.75,-74.08"/>
<polygon fill="#63b8ff" stroke="#63b8ff" points="779.86,-110.14 790.45,-109.98 782.07,-103.5 779.86,-110.14"/>
</a>
</g>
</g>
<!-- Node34&#45;&gt;Node31 -->
<g id="edge38_Node000034_Node000031" class="edge">
<title>Node34&#45;&gt;Node31</title>
<g id="a_edge38_Node000034_Node000031"><a xlink:title=" ">
<path fill="none" stroke="#63b8ff" d="M839.75,-104.97C856.75,-95.28 879.13,-82.52 893.79,-74.17"/>
<polygon fill="#63b8ff" stroke="#63b8ff" points="837.9,-101.99 830.94,-109.98 841.36,-108.07 837.9,-101.99"/>
</a>
</g>
</g>
<!-- Node35 -->
<g id="Node000035" class="node">
<title>Node35</title>
<g id="a_Node000035"><a xlink:href="ResourceLoader_8hpp.html" target="_top" xlink:title=" ">
<polygon fill="white" stroke="#666666" points="846.5,-74 731.5,-74 731.5,-55 846.5,-55 846.5,-74"/>
<text text-anchor="middle" x="789" y="-62" font-family="Helvetica,sans-Serif" font-size="10.00">ResourceLoader.hpp</text>
</a>
</g>
</g>
<!-- Node34&#45;&gt;Node35 -->
<g id="edge39_Node000034_Node000035" class="edge">
<title>Node34&#45;&gt;Node35</title>
<g id="a_edge39_Node000034_Node000035"><a xlink:title=" ">
<path fill="none" stroke="#63b8ff" d="M806.99,-100.82C802.41,-91.82 797.05,-81.29 793.38,-74.09"/>
<polygon fill="#63b8ff" stroke="#63b8ff" points="803.88,-102.43 811.54,-109.75 810.12,-99.25 803.88,-102.43"/>
</a>
</g>
</g>
<!-- Node34&#45;&gt;Node37 -->
<g id="edge41_Node000034_Node000037" class="edge">
<title>Node34&#45;&gt;Node37</title>
<g id="a_edge41_Node000034_Node000037"><a xlink:title=" ">
<path fill="none" stroke="#63b8ff" d="M856.53,-107.31C892.46,-97.39 944.16,-83.12 976.91,-74.08"/>
<polygon fill="#63b8ff" stroke="#63b8ff" points="855.56,-103.95 846.85,-109.98 857.42,-110.7 855.56,-103.95"/>
</a>
</g>
</g>
<!-- Node36 -->
<g id="Node000036" class="node">
<title>Node36</title>
<g id="a_Node000036"><a xlink:href="ResourceQueue_8hpp.html" target="_top" xlink:title=" ">
<polygon fill="white" stroke="#666666" points="846,-19 732,-19 732,0 846,0 846,-19"/>
<text text-anchor="middle" x="789" y="-7" font-family="Helvetica,sans-Serif" font-size="10.00">ResourceQueue.hpp</text>
</a>
</g>
</g>
<!-- Node35&#45;&gt;Node36 -->
<g id="edge40_Node000035_Node000036" class="edge">
<title>Node35&#45;&gt;Node36</title>
<g id="a_edge40_Node000035_Node000036"><a xlink:title=" ">
<path fill="none" stroke="#63b8ff" d="M789,-44.66C789,-35.93 789,-25.99 789,-19.09"/>
<polygon fill="#63b8ff" stroke="#63b8ff" points="785.5,-44.75 789,-54.75 792.5,-44.75 785.5,-44.75"/>
</a>
</g>
</g>
<!-- Node40&#45;&gt;Node26 -->
<g id="edge47_Node000040_Node000026" class="edge">
<title>Node40&#45;&gt;Node26</title>
<g id="a_edge47_Node000040_Node000026"><a xlink:title=" ">
<path fill="none" stroke="#63b8ff" d="M1384.77,-215.37C1403.87,-205.63 1429.37,-192.64 1445.99,-184.17"/>
<polygon fill="#63b8ff" stroke="#63b8ff" points="1383.03,-212.33 1375.71,-219.98 1386.21,-218.56 1383.03,-212.33"/>
</a>
</g>
</g>
<!-- Node40&#45;&gt;Node39 -->
<g id="edge48_Node000040_Node000039" class="edge">
<title>Node40&#45;&gt;Node39</title>
<g id="a_edge48_Node000040_Node000039"><a xlink:title=" ">
<path fill="none" stroke="#63b8ff" d="M1338.97,-214.15C1325.59,-204.57 1308.44,-192.29 1297.11,-184.17"/>
<polygon fill="#63b8ff" stroke="#63b8ff" points="1336.94,-217.01 1347.11,-219.98 1341.02,-211.32 1336.94,-217.01"/>
</a>
</g>
</g>
<!-- Node41 -->
<g id="Node000041" class="node">
<title>Node41</title>
<g id="a_Node000041"><a xlink:href="base_8hpp.html" target="_top" xlink:title=" ">
<polygon fill="white" stroke="#666666" points="1415.5,-184 1354.5,-184 1354.5,-165 1415.5,-165 1415.5,-184"/>
<text text-anchor="middle" x="1385" y="-172" font-family="Helvetica,sans-Serif" font-size="10.00">base.hpp</text>
</a>
</g>
</g>
<!-- Node40&#45;&gt;Node41 -->
<g id="edge46_Node000040_Node000041" class="edge">
<title>Node40&#45;&gt;Node41</title>
<g id="a_edge46_Node000040_Node000041"><a xlink:title=" ">
<path fill="none" stroke="#63b8ff" d="M1367.82,-210.53C1372.2,-201.6 1377.29,-191.22 1380.79,-184.09"/>
<polygon fill="#63b8ff" stroke="#63b8ff" points="1364.56,-209.23 1363.29,-219.75 1370.84,-212.31 1364.56,-209.23"/>
</a>
</g>
</g>
</g>
</svg>

<g id="navigator" transform="translate(0 0)" fill="#404254">
  <rect fill="#f2f5e9" fill-opacity="0.5" stroke="#606060" stroke-width=".5" x="0" y="0" width="60" height="60"/>
  <use id="zoomplus" xlink:href="#zoomPlus" x="17" y="9" onmousedown="handleZoom(evt,'in')"/>
  <use id="zoomminus" xlink:href="#zoomMin" x="42" y="9" onmousedown="handleZoom(evt,'out')"/>
  <use id="reset" xlink:href="#resetDef" x="30" y="36" onmousedown="handleReset()"/>
   <use id="arrowup" xlink:href="#arrowUp" x="0" y="0" onmousedown="handlePan(0,-1)"/>
  <use id="arrowright" xlink:href="#arrowRight" x="0" y="0" onmousedown="handlePan(1,0)"/>
  <use id="arrowdown" xlink:href="#arrowDown" x="0" y="0" onmousedown="handlePan(0,1)"/>
  <use id="arrowleft" xlink:href="#arrowLeft" x="0" y="0" onmousedown="handlePan(-1,0)"/>
</g>
<svg viewBox="0 0 15 15" width="100%" height="30px" preserveAspectRatio="xMaxYMin meet">
 <g id="arrow_out" transform="scale(0.3 0.3)">
  <a xlink:href="checks_8hpp__dep__incl_org.svg" target="_base">
   <rect id="button" ry="5" rx="5" y="6" x="6" height="38" width="38"
        fill="#f2f5e9" fill-opacity="0.5" stroke="#606060" stroke-width="1.0"/>
   <path id="arrow"
     d="M 11.500037,31.436501 C 11.940474,20.09759 22.043105,11.32322 32.158766,21.979434 L 37.068811,17.246167 C 37.068811,17.246167 37.088388,32 37.088388,32 L 22.160133,31.978069 C 22.160133,31.978069 26.997745,27.140456 26.997745,27.140456 C 18.528582,18.264221 13.291696,25.230495 11.500037,31.436501 z"
     style="fill:#404040;"/>
  </a>
 </g>
</svg>

<style type='text/css'>
<![CDATA[
[data-mouse-over-selected='false'] { opacity: 0.7; }
[data-mouse-over-selected='true']  { opacity: 1.0; }
]]>
</style>
<script type="application/ecmascript"><![CDATA[
document.addEventListener('DOMContentLoaded', (event) => {
  highlightEdges();
  highlightAdjacentNodes();
});
]]></script>
</svg>
