<?xml version="1.0" encoding="UTF-8" standalone="no"?>
<!DOCTYPE svg PUBLIC "-//W3C//DTD SVG 1.1//EN"
 "http://www.w3.org/Graphics/SVG/1.1/DTD/svg11.dtd">
<!-- Generated by graphviz version 2.43.0 (0)
 -->
<!-- Title: cie::utils::LogBlock Pages: 1 -->
<svg width="605pt" height="800pt"
 viewBox="0.00 0.00 605.00 800.00" xmlns="http://www.w3.org/2000/svg" xmlns:xlink="http://www.w3.org/1999/xlink">
<g id="graph0" class="graph" transform="scale(1 1) rotate(0) translate(4 796)">
<title>cie::utils::LogBlock</title>
<!-- Node1 -->
<g id="Node000001" class="node">
<title>Node1</title>
<g id="a_Node000001"><a xlink:title=" ">
<polygon fill="#999999" stroke="transparent" points="344,-139 242,-139 242,0 344,0 344,-139"/>
<text text-anchor="start" x="247" y="-126.5" font-family="Helvetica,sans-Serif" font-size="10.00">cie::utils::LogBlock</text>
<text text-anchor="start" x="291" y="-111.5" font-family="Helvetica,sans-Serif" font-size="10.00"> </text>
<text text-anchor="start" x="251" y="-96.5" font-family="Helvetica,sans-Serif" font-size="10.00">+</text>
<text text-anchor="start" x="269" y="-96.5" font-family="Helvetica,sans-Serif" font-size="10.00">LogBlock()</text>
<text text-anchor="start" x="251" y="-81.5" font-family="Helvetica,sans-Serif" font-size="10.00">+</text>
<text text-anchor="start" x="269" y="-81.5" font-family="Helvetica,sans-Serif" font-size="10.00">LogBlock()</text>
<text text-anchor="start" x="251" y="-66.5" font-family="Helvetica,sans-Serif" font-size="10.00">+</text>
<text text-anchor="start" x="269" y="-66.5" font-family="Helvetica,sans-Serif" font-size="10.00">~LogBlock()</text>
<text text-anchor="start" x="251" y="-51.5" font-family="Helvetica,sans-Serif" font-size="10.00">+</text>
<text text-anchor="start" x="269" y="-51.5" font-family="Helvetica,sans-Serif" font-size="10.00">log()</text>
<text text-anchor="start" x="251" y="-36.5" font-family="Helvetica,sans-Serif" font-size="10.00">+</text>
<text text-anchor="start" x="269" y="-36.5" font-family="Helvetica,sans-Serif" font-size="10.00">warn()</text>
<text text-anchor="start" x="251" y="-21.5" font-family="Helvetica,sans-Serif" font-size="10.00">+</text>
<text text-anchor="start" x="269" y="-21.5" font-family="Helvetica,sans-Serif" font-size="10.00">error()</text>
<text text-anchor="start" x="251" y="-6.5" font-family="Helvetica,sans-Serif" font-size="10.00">+</text>
<text text-anchor="start" x="269" y="-6.5" font-family="Helvetica,sans-Serif" font-size="10.00">logElapsed()</text>
<polygon fill="#666666" stroke="#666666" points="242,-121.5 242,-121.5 344,-121.5 344,-121.5 242,-121.5"/>
<polygon fill="#666666" stroke="#666666" points="242,-106.5 242,-106.5 344,-106.5 344,-106.5 242,-106.5"/>
<polygon fill="none" stroke="#666666" points="242,0 242,-139 344,-139 344,0 242,0"/>
</a>
</g>
</g>
<!-- Node2 -->
<g id="Node000002" class="node">
<title>Node2</title>
<g id="a_Node000002"><a xlink:title=" ">
<polygon fill="white" stroke="transparent" points="38,-679.5 0,-679.5 0,-630.5 38,-630.5 38,-679.5"/>
<text text-anchor="start" x="5" y="-667" font-family="Helvetica,sans-Serif" font-size="10.00">string</text>
<text text-anchor="start" x="17" y="-652" font-family="Helvetica,sans-Serif" font-size="10.00"> </text>
<text text-anchor="start" x="17" y="-637" font-family="Helvetica,sans-Serif" font-size="10.00"> </text>
<polygon fill="#666666" stroke="#666666" points="0,-662 0,-662 38,-662 38,-662 0,-662"/>
<polygon fill="#666666" stroke="#666666" points="0,-647 0,-647 38,-647 38,-647 0,-647"/>
<polygon fill="none" stroke="#666666" points="0,-630.5 0,-679.5 38,-679.5 38,-630.5 0,-630.5"/>
</a>
</g>
</g>
<!-- Node2&#45;&gt;Node1 -->
<g id="edge1_Node000001_Node000002" class="edge">
<title>Node2&#45;&gt;Node1</title>
<g id="a_edge1_Node000001_Node000002"><a xlink:title=" ">
<path fill="none" stroke="#63b8ff" d="M21.93,-630.37C31.81,-558.21 69.01,-336.47 169,-186 186.1,-160.27 210.03,-136.22 232.31,-116.79"/>
<polygon fill="none" stroke="#63b8ff" points="232.61,-116.55 234.58,-109.61 241.74,-108.76 239.77,-115.7 232.61,-116.55"/>
</a>
</g>
<text text-anchor="middle" x="191.5" y="-320.5" font-family="Helvetica,sans-Serif" font-size="10.00" fill="grey"> #_name</text>
</g>
<!-- Node4 -->
<g id="Node000004" class="node">
<title>Node4</title>
<g id="a_Node000004"><a xlink:href="classcie_1_1utils_1_1Logger.html" target="_top" xlink:title=" ">
<polygon fill="white" stroke="transparent" points="362.5,-460 223.5,-460 223.5,-186 362.5,-186 362.5,-460"/>
<text text-anchor="start" x="253" y="-448" font-family="Helvetica,sans-Serif" font-size="10.00">cie::utils::Logger</text>
<text text-anchor="start" x="291.5" y="-433" font-family="Helvetica,sans-Serif" font-size="10.00"> </text>
<text text-anchor="start" x="228" y="-418" font-family="Helvetica,sans-Serif" font-size="10.00">+</text>
<text text-anchor="start" x="241" y="-418" font-family="Helvetica,sans-Serif" font-size="10.00">Logger()</text>
<text text-anchor="start" x="228" y="-403" font-family="Helvetica,sans-Serif" font-size="10.00">+</text>
<text text-anchor="start" x="241" y="-403" font-family="Helvetica,sans-Serif" font-size="10.00">Logger()</text>
<text text-anchor="start" x="228" y="-388" font-family="Helvetica,sans-Serif" font-size="10.00">+</text>
<text text-anchor="start" x="241" y="-388" font-family="Helvetica,sans-Serif" font-size="10.00">Logger()</text>
<text text-anchor="start" x="228" y="-373" font-family="Helvetica,sans-Serif" font-size="10.00">+</text>
<text text-anchor="start" x="241" y="-373" font-family="Helvetica,sans-Serif" font-size="10.00">~Logger()</text>
<text text-anchor="start" x="228" y="-358" font-family="Helvetica,sans-Serif" font-size="10.00">+</text>
<text text-anchor="start" x="241" y="-358" font-family="Helvetica,sans-Serif" font-size="10.00">write()</text>
<text text-anchor="start" x="228" y="-343" font-family="Helvetica,sans-Serif" font-size="10.00">+</text>
<text text-anchor="start" x="241" y="-343" font-family="Helvetica,sans-Serif" font-size="10.00">newBlock()</text>
<text text-anchor="start" x="228" y="-328" font-family="Helvetica,sans-Serif" font-size="10.00">+</text>
<text text-anchor="start" x="241" y="-328" font-family="Helvetica,sans-Serif" font-size="10.00">addStream()</text>
<text text-anchor="start" x="228" y="-313" font-family="Helvetica,sans-Serif" font-size="10.00">+</text>
<text text-anchor="start" x="241" y="-313" font-family="Helvetica,sans-Serif" font-size="10.00">removeStream()</text>
<text text-anchor="start" x="228" y="-298" font-family="Helvetica,sans-Serif" font-size="10.00">+</text>
<text text-anchor="start" x="241" y="-298" font-family="Helvetica,sans-Serif" font-size="10.00">forceFlush()</text>
<text text-anchor="start" x="228" y="-283" font-family="Helvetica,sans-Serif" font-size="10.00">+</text>
<text text-anchor="start" x="241" y="-283" font-family="Helvetica,sans-Serif" font-size="10.00">log()</text>
<text text-anchor="start" x="241" y="-268" font-family="Helvetica,sans-Serif" font-size="10.00">and 11 more...</text>
<text text-anchor="start" x="228" y="-253" font-family="Helvetica,sans-Serif" font-size="10.00">#</text>
<text text-anchor="start" x="241" y="-253" font-family="Helvetica,sans-Serif" font-size="10.00">streamInsertOperation()</text>
<text text-anchor="start" x="228" y="-238" font-family="Helvetica,sans-Serif" font-size="10.00">#</text>
<text text-anchor="start" x="241" y="-238" font-family="Helvetica,sans-Serif" font-size="10.00">flush()</text>
<text text-anchor="start" x="228" y="-223" font-family="Helvetica,sans-Serif" font-size="10.00">#</text>
<text text-anchor="start" x="241" y="-223" font-family="Helvetica,sans-Serif" font-size="10.00">preWrite()</text>
<text text-anchor="start" x="228" y="-208" font-family="Helvetica,sans-Serif" font-size="10.00">#</text>
<text text-anchor="start" x="241" y="-208" font-family="Helvetica,sans-Serif" font-size="10.00">postWrite()</text>
<text text-anchor="start" x="228" y="-193" font-family="Helvetica,sans-Serif" font-size="10.00">#</text>
<text text-anchor="start" x="241" y="-193" font-family="Helvetica,sans-Serif" font-size="10.00">directWriteToAll()</text>
<polygon fill="#666666" stroke="#666666" points="224,-443 224,-443 363,-443 363,-443 224,-443"/>
<polygon fill="#666666" stroke="#666666" points="224,-428 224,-428 363,-428 363,-428 224,-428"/>
<polygon fill="none" stroke="#666666" points="223.5,-186 223.5,-460 362.5,-460 362.5,-186 223.5,-186"/>
</a>
</g>
</g>
<!-- Node2&#45;&gt;Node4 -->
<g id="edge8_Node000004_Node000002" class="edge">
<title>Node2&#45;&gt;Node4</title>
<g id="a_edge8_Node000004_Node000002"><a xlink:title=" ">
<path fill="none" stroke="#63b8ff" d="M17.91,-630.3C17.78,-600.97 21.74,-550.88 47,-518 57.9,-503.81 68.04,-509.81 83,-500 128.83,-469.93 175.96,-431.27 213.92,-397.85"/>
<polygon fill="none" stroke="#63b8ff" points="214.39,-397.43 216.22,-390.46 223.37,-389.47 221.53,-396.44 214.39,-397.43"/>
</a>
</g>
<text text-anchor="middle" x="140.5" y="-492" font-family="Helvetica,sans-Serif" font-size="10.00" fill="grey"> #_lineEnd</text>
<text text-anchor="middle" x="140.5" y="-481" font-family="Helvetica,sans-Serif" font-size="10.00" fill="grey">#_prefix</text>
</g>
<!-- Node3 -->
<g id="Node000003" class="node">
<title>Node3</title>
<g id="a_Node000003"><a xlink:title=" ">
<polygon fill="white" stroke="transparent" points="419.5,-347.5 380.5,-347.5 380.5,-298.5 419.5,-298.5 419.5,-347.5"/>
<text text-anchor="start" x="386" y="-335" font-family="Helvetica,sans-Serif" font-size="10.00">size_t</text>
<text text-anchor="start" x="398.5" y="-320" font-family="Helvetica,sans-Serif" font-size="10.00"> </text>
<text text-anchor="start" x="398.5" y="-305" font-family="Helvetica,sans-Serif" font-size="10.00"> </text>
<polygon fill="#666666" stroke="#666666" points="381,-330 381,-330 420,-330 420,-330 381,-330"/>
<polygon fill="#666666" stroke="#666666" points="381,-315 381,-315 420,-315 420,-315 381,-315"/>
<polygon fill="none" stroke="#666666" points="380.5,-298.5 380.5,-347.5 419.5,-347.5 419.5,-298.5 380.5,-298.5"/>
</a>
</g>
</g>
<!-- Node3&#45;&gt;Node1 -->
<g id="edge2_Node000001_Node000003" class="edge">
<title>Node3&#45;&gt;Node1</title>
<g id="a_edge2_Node000001_Node000003"><a xlink:title=" ">
<path fill="none" stroke="#63b8ff" d="M397.66,-298.17C394.37,-270.43 386.99,-223.62 372,-186 366.43,-172.02 358.93,-158.05 350.76,-144.89"/>
<polygon fill="none" stroke="#63b8ff" points="350.58,-144.62 343.97,-141.74 344.09,-134.53 350.7,-137.41 350.58,-144.62"/>
</a>
</g>
<text text-anchor="middle" x="389" y="-160" font-family="Helvetica,sans-Serif" font-size="10.00" fill="grey"> #_timerID</text>
</g>
<!-- Node4&#45;&gt;Node1 -->
<g id="edge3_Node000001_Node000004" class="edge">
<title>Node4&#45;&gt;Node1</title>
<g id="a_edge3_Node000001_Node000004"><a xlink:title=" ">
<path fill="none" stroke="#63b8ff" d="M293,-185.94C293,-174.17 293,-162.52 293,-151.41"/>
<polygon fill="none" stroke="#63b8ff" points="293,-151.11 289,-145.11 293,-139.11 297,-145.11 293,-151.11"/>
</a>
</g>
<text text-anchor="middle" x="321.5" y="-160" font-family="Helvetica,sans-Serif" font-size="10.00" fill="grey"> #_r_logger</text>
</g>
<!-- Node5 -->
<g id="Node000005" class="node">
<title>Node5</title>
<g id="a_Node000005"><a xlink:href="classcie_1_1OutputStream.html" target="_top" xlink:title=" ">
<polygon fill="white" stroke="transparent" points="212,-792 56,-792 56,-518 212,-518 212,-792"/>
<text text-anchor="start" x="89.5" y="-780" font-family="Helvetica,sans-Serif" font-size="10.00">cie::OutputStream</text>
<text text-anchor="start" x="132" y="-765" font-family="Helvetica,sans-Serif" font-size="10.00"> </text>
<text text-anchor="start" x="60" y="-750" font-family="Helvetica,sans-Serif" font-size="10.00">+</text>
<text text-anchor="start" x="73" y="-750" font-family="Helvetica,sans-Serif" font-size="10.00">OutputStream()</text>
<text text-anchor="start" x="60" y="-735" font-family="Helvetica,sans-Serif" font-size="10.00">+</text>
<text text-anchor="start" x="73" y="-735" font-family="Helvetica,sans-Serif" font-size="10.00">OutputStream()</text>
<text text-anchor="start" x="60" y="-720" font-family="Helvetica,sans-Serif" font-size="10.00">+</text>
<text text-anchor="start" x="73" y="-720" font-family="Helvetica,sans-Serif" font-size="10.00">OutputStream()</text>
<text text-anchor="start" x="60" y="-705" font-family="Helvetica,sans-Serif" font-size="10.00">+</text>
<text text-anchor="start" x="73" y="-705" font-family="Helvetica,sans-Serif" font-size="10.00">OutputStream()</text>
<text text-anchor="start" x="60" y="-690" font-family="Helvetica,sans-Serif" font-size="10.00">+</text>
<text text-anchor="start" x="73" y="-690" font-family="Helvetica,sans-Serif" font-size="10.00">OutputStream()</text>
<text text-anchor="start" x="60" y="-675" font-family="Helvetica,sans-Serif" font-size="10.00">+</text>
<text text-anchor="start" x="73" y="-675" font-family="Helvetica,sans-Serif" font-size="10.00">operator=()</text>
<text text-anchor="start" x="60" y="-660" font-family="Helvetica,sans-Serif" font-size="10.00">+</text>
<text text-anchor="start" x="73" y="-660" font-family="Helvetica,sans-Serif" font-size="10.00">operator=()</text>
<text text-anchor="start" x="60" y="-645" font-family="Helvetica,sans-Serif" font-size="10.00">+</text>
<text text-anchor="start" x="73" y="-645" font-family="Helvetica,sans-Serif" font-size="10.00">~OutputStream()</text>
<text text-anchor="start" x="60" y="-630" font-family="Helvetica,sans-Serif" font-size="10.00">+</text>
<text text-anchor="start" x="73" y="-630" font-family="Helvetica,sans-Serif" font-size="10.00">write()</text>
<text text-anchor="start" x="60" y="-615" font-family="Helvetica,sans-Serif" font-size="10.00">+</text>
<text text-anchor="start" x="73" y="-615" font-family="Helvetica,sans-Serif" font-size="10.00">flush()</text>
<text text-anchor="start" x="60" y="-600" font-family="Helvetica,sans-Serif" font-size="10.00">+</text>
<text text-anchor="start" x="73" y="-600" font-family="Helvetica,sans-Serif" font-size="10.00">rdbuf()</text>
<text text-anchor="start" x="60" y="-585" font-family="Helvetica,sans-Serif" font-size="10.00">+</text>
<text text-anchor="start" x="73" y="-585" font-family="Helvetica,sans-Serif" font-size="10.00">rdbuf()</text>
<text text-anchor="start" x="60" y="-570" font-family="Helvetica,sans-Serif" font-size="10.00">#</text>
<text text-anchor="start" x="73" y="-570" font-family="Helvetica,sans-Serif" font-size="10.00">streamInsertOperation()</text>
<text text-anchor="start" x="60" y="-555" font-family="Helvetica,sans-Serif" font-size="10.00">#</text>
<text text-anchor="start" x="73" y="-555" font-family="Helvetica,sans-Serif" font-size="10.00">streamInsertOperation()</text>
<text text-anchor="start" x="60" y="-540" font-family="Helvetica,sans-Serif" font-size="10.00">#</text>
<text text-anchor="start" x="73" y="-540" font-family="Helvetica,sans-Serif" font-size="10.00">streamInsertOperation()</text>
<text text-anchor="start" x="60" y="-525" font-family="Helvetica,sans-Serif" font-size="10.00">#</text>
<text text-anchor="start" x="73" y="-525" font-family="Helvetica,sans-Serif" font-size="10.00">forwardToWrappedStream()</text>
<polygon fill="#666666" stroke="#666666" points="56,-775 56,-775 212,-775 212,-775 56,-775"/>
<polygon fill="#666666" stroke="#666666" points="56,-760 56,-760 212,-760 212,-760 56,-760"/>
<polygon fill="none" stroke="#666666" points="56,-518 56,-792 212,-792 212,-518 56,-518"/>
</a>
</g>
</g>
<!-- Node5&#45;&gt;Node4 -->
<g id="edge4_Node000004_Node000005" class="edge">
<title>Node5&#45;&gt;Node4</title>
<g id="a_edge4_Node000004_Node000005"><a xlink:title=" ">
<path fill="none" stroke="#63b8ff" d="M204.13,-508.44C211.88,-492.36 219.75,-476.04 227.43,-460.08"/>
<polygon fill="none" stroke="#63b8ff" points="200.78,-507.34 199.59,-517.87 207.08,-510.38 200.78,-507.34"/>
</a>
</g>
</g>
<!-- Node5&#45;&gt;Node5 -->
<g id="edge5_Node000005_Node000005" class="edge">
<title>Node5&#45;&gt;Node5</title>
<g id="a_edge5_Node000005_Node000005"><a xlink:title=" ">
<path fill="none" stroke="#63b8ff" d="M212.35,-682.61C222.94,-677.98 230,-668.78 230,-655 230,-646.39 227.24,-639.56 222.59,-634.53"/>
<polygon fill="none" stroke="#63b8ff" points="222.19,-634.25 214.98,-634.1 212.35,-627.39 219.56,-627.54 222.19,-634.25"/>
</a>
</g>
<text text-anchor="middle" x="245.5" y="-658" font-family="Helvetica,sans-Serif" font-size="10.00" fill="grey"> +cerr</text>
<text text-anchor="middle" x="245.5" y="-647" font-family="Helvetica,sans-Serif" font-size="10.00" fill="grey">+cout</text>
</g>
<!-- Node6 -->
<g id="Node000006" class="node">
<title>Node6</title>
<g id="a_Node000006"><a xlink:title=" ">
<polygon fill="white" stroke="transparent" points="399,-685 279,-685 279,-625 399,-625 399,-685"/>
<text text-anchor="start" x="284" y="-673" font-family="Helvetica,sans-Serif" font-size="10.00">deque&lt; OutputStream</text>
<text text-anchor="start" x="296" y="-662" font-family="Helvetica,sans-Serif" font-size="10.00">::SharedPointer &gt;</text>
<text text-anchor="start" x="337" y="-647" font-family="Helvetica,sans-Serif" font-size="10.00"> </text>
<text text-anchor="start" x="337" y="-632" font-family="Helvetica,sans-Serif" font-size="10.00"> </text>
<polygon fill="#666666" stroke="#666666" points="279,-657 279,-657 399,-657 399,-657 279,-657"/>
<polygon fill="#666666" stroke="#666666" points="279,-642 279,-642 399,-642 399,-642 279,-642"/>
<polygon fill="none" stroke="#666666" points="279,-625 279,-685 399,-685 399,-625 279,-625"/>
</a>
</g>
</g>
<!-- Node6&#45;&gt;Node4 -->
<g id="edge6_Node000004_Node000006" class="edge">
<title>Node6&#45;&gt;Node4</title>
<g id="a_edge6_Node000004_Node000006"><a xlink:title=" ">
<path fill="none" stroke="#63b8ff" d="M334.92,-624.71C330.09,-590.11 321.71,-529.94 313.7,-472.48"/>
<polygon fill="none" stroke="#63b8ff" points="313.65,-472.15 308.86,-466.76 311.99,-460.27 316.78,-465.66 313.65,-472.15"/>
</a>
</g>
<text text-anchor="middle" x="345.5" y="-486.5" font-family="Helvetica,sans-Serif" font-size="10.00" fill="grey"> #_streams</text>
</g>
<!-- Node7 -->
<g id="Node000007" class="node">
<title>Node7</title>
<g id="a_Node000007"><a xlink:title=" ">
<polygon fill="white" stroke="transparent" points="539,-679.5 417,-679.5 417,-630.5 539,-630.5 539,-679.5"/>
<text text-anchor="start" x="422" y="-667" font-family="Helvetica,sans-Serif" font-size="10.00">deque&lt; detail::Time &gt;</text>
<text text-anchor="start" x="476" y="-652" font-family="Helvetica,sans-Serif" font-size="10.00"> </text>
<text text-anchor="start" x="476" y="-637" font-family="Helvetica,sans-Serif" font-size="10.00"> </text>
<polygon fill="#666666" stroke="#666666" points="417,-662 417,-662 539,-662 539,-662 417,-662"/>
<polygon fill="#666666" stroke="#666666" points="417,-647 417,-647 539,-647 539,-647 417,-647"/>
<polygon fill="none" stroke="#666666" points="417,-630.5 417,-679.5 539,-679.5 539,-630.5 417,-630.5"/>
</a>
</g>
</g>
<!-- Node7&#45;&gt;Node4 -->
<g id="edge7_Node000004_Node000007" class="edge">
<title>Node7&#45;&gt;Node4</title>
<g id="a_edge7_Node000004_Node000007"><a xlink:title=" ">
<path fill="none" stroke="#63b8ff" d="M466.43,-630.11C452.99,-602.7 429.86,-556.59 408,-518 393.05,-491.6 387.62,-486.01 372,-460 370.94,-458.23 369.87,-456.45 368.79,-454.65"/>
<polygon fill="none" stroke="#63b8ff" points="368.74,-454.56 362.23,-451.45 362.6,-444.25 369.1,-447.36 368.74,-454.56"/>
</a>
</g>
<text text-anchor="middle" x="425.5" y="-486.5" font-family="Helvetica,sans-Serif" font-size="10.00" fill="grey"> #_timeLog</text>
</g>
<!-- Node8 -->
<g id="Node000008" class="node">
<title>Node8</title>
<g id="a_Node000008"><a xlink:title=" ">
<polygon fill="white" stroke="transparent" points="589,-679.5 557,-679.5 557,-630.5 589,-630.5 589,-679.5"/>
<text text-anchor="start" x="562" y="-667" font-family="Helvetica,sans-Serif" font-size="10.00">bool</text>
<text text-anchor="start" x="571" y="-652" font-family="Helvetica,sans-Serif" font-size="10.00"> </text>
<text text-anchor="start" x="571" y="-637" font-family="Helvetica,sans-Serif" font-size="10.00"> </text>
<polygon fill="#666666" stroke="#666666" points="557,-662 557,-662 589,-662 589,-662 557,-662"/>
<polygon fill="#666666" stroke="#666666" points="557,-647 557,-647 589,-647 589,-647 557,-647"/>
<polygon fill="none" stroke="#666666" points="557,-630.5 557,-679.5 589,-679.5 589,-630.5 557,-630.5"/>
</a>
</g>
</g>
<!-- Node8&#45;&gt;Node4 -->
<g id="edge9_Node000004_Node000008" class="edge">
<title>Node8&#45;&gt;Node4</title>
<g id="a_edge9_Node000004_Node000008"><a xlink:title=" ">
<path fill="none" stroke="#63b8ff" d="M574.93,-630.42C576.07,-600.97 573.62,-550.53 548,-518 520.91,-483.61 499.66,-491.45 458,-478 424.03,-467.03 406.76,-480.18 372.76,-459.37"/>
<polygon fill="none" stroke="#63b8ff" points="372.63,-459.28 365.42,-459.23 362.7,-452.55 369.91,-452.61 372.63,-459.28"/>
</a>
</g>
<text text-anchor="middle" x="563" y="-486.5" font-family="Helvetica,sans-Serif" font-size="10.00" fill="grey"> #_forceFlush</text>
</g>
</g>
</svg>
