<?xml version="1.0" encoding="UTF-8" standalone="no"?>
<!DOCTYPE svg PUBLIC "-//W3C//DTD SVG 1.1//EN"
 "http://www.w3.org/Graphics/SVG/1.1/DTD/svg11.dtd">
<!-- Generated by graphviz version 2.43.0 (0)
 -->
<!-- Title: cie::utils::ArgParse::ArgumentCount Pages: 1 -->
<svg width="189pt" height="154pt"
 viewBox="0.00 0.00 189.00 154.00" xmlns="http://www.w3.org/2000/svg" xmlns:xlink="http://www.w3.org/1999/xlink">
<g id="graph0" class="graph" transform="scale(1 1) rotate(0) translate(4 150)">
<title>cie::utils::ArgParse::ArgumentCount</title>
<polygon fill="white" stroke="transparent" points="-4,4 -4,-150 185,-150 185,4 -4,4"/>
<!-- Node1 -->
<g id="node1" class="node">
<title>Node1</title>
<g id="a_node1"><a xlink:title=" ">
<polygon fill="#bfbfbf" stroke="black" points="0,-0.5 0,-145.5 112,-145.5 112,-0.5 0,-0.5"/>
<text text-anchor="start" x="8" y="-133.5" font-family="Helvetica,sans-Serif" font-size="10.00">cie::utils::ArgParse</text>
<text text-anchor="middle" x="56" y="-122.5" font-family="Helvetica,sans-Serif" font-size="10.00">::ArgumentCount</text>
<polyline fill="none" stroke="black" points="0,-115.5 112,-115.5 "/>
<text text-anchor="middle" x="56" y="-103.5" font-family="Helvetica,sans-Serif" font-size="10.00"> </text>
<polyline fill="none" stroke="black" points="0,-96.5 112,-96.5 "/>
<text text-anchor="start" x="8" y="-84.5" font-family="Helvetica,sans-Serif" font-size="10.00">+ ArgumentCount()</text>
<text text-anchor="start" x="8" y="-73.5" font-family="Helvetica,sans-Serif" font-size="10.00">+ ArgumentCount()</text>
<text text-anchor="start" x="8" y="-62.5" font-family="Helvetica,sans-Serif" font-size="10.00">+ ArgumentCount()</text>
<text text-anchor="start" x="8" y="-51.5" font-family="Helvetica,sans-Serif" font-size="10.00">+ ArgumentCount()</text>
<text text-anchor="start" x="8" y="-40.5" font-family="Helvetica,sans-Serif" font-size="10.00">+ operator=()</text>
<text text-anchor="start" x="8" y="-29.5" font-family="Helvetica,sans-Serif" font-size="10.00">+ operator=()</text>
<text text-anchor="start" x="8" y="-18.5" font-family="Helvetica,sans-Serif" font-size="10.00">+ operator int()</text>
<text text-anchor="start" x="8" y="-7.5" font-family="Helvetica,sans-Serif" font-size="10.00">+ exactly()</text>
</a>
</g>
</g>
<!-- Node1&#45;&gt;Node1 -->
<g id="edge1" class="edge">
<title>Node1&#45;&gt;Node1</title>
<path fill="none" stroke="#404040" d="M112.15,-98.97C122.62,-95.77 130,-87.12 130,-73 130,-64.4 127.26,-57.82 122.75,-53.28"/>
<polygon fill="none" stroke="#404040" points="122.49,-53.12 115.29,-53.52 112.15,-47.03 119.35,-46.63 122.49,-53.12"/>
<text text-anchor="middle" x="155.5" y="-87" font-family="Helvetica,sans-Serif" font-size="10.00"> +Any</text>
<text text-anchor="middle" x="155.5" y="-76" font-family="Helvetica,sans-Serif" font-size="10.00">+NonZero</text>
<text text-anchor="middle" x="155.5" y="-65" font-family="Helvetica,sans-Serif" font-size="10.00">+None</text>
<text text-anchor="middle" x="155.5" y="-54" font-family="Helvetica,sans-Serif" font-size="10.00">+One</text>
</g>
</g>
</svg>
