<?xml version="1.0" encoding="UTF-8" standalone="no"?>
<!DOCTYPE svg PUBLIC "-//W3C//DTD SVG 1.1//EN"
 "http://www.w3.org/Graphics/SVG/1.1/DTD/svg11.dtd">
<!-- Generated by graphviz version 2.43.0 (0)
 -->
<!-- Title: cie::FileOutputStream Pages: 1 -->
<svg width="219pt" height="486pt"
 viewBox="0.00 0.00 219.00 486.00" xmlns="http://www.w3.org/2000/svg" xmlns:xlink="http://www.w3.org/1999/xlink">
<g id="graph0" class="graph" transform="scale(1 1) rotate(0) translate(4 482)">
<title>cie::FileOutputStream</title>
<polygon fill="white" stroke="transparent" points="-4,4 -4,-482 215,-482 215,4 -4,4"/>
<!-- Node1 -->
<g id="node1" class="node">
<title>Node1</title>
<g id="a_node1"><a xlink:title=" ">
<polygon fill="#bfbfbf" stroke="black" points="20,-0.5 20,-101.5 142,-101.5 142,-0.5 20,-0.5"/>
<text text-anchor="middle" x="81" y="-89.5" font-family="Helvetica,sans-Serif" font-size="10.00">cie::FileOutputStream</text>
<polyline fill="none" stroke="black" points="20,-82.5 142,-82.5 "/>
<text text-anchor="middle" x="81" y="-70.5" font-family="Helvetica,sans-Serif" font-size="10.00"> </text>
<polyline fill="none" stroke="black" points="20,-63.5 142,-63.5 "/>
<text text-anchor="start" x="28" y="-51.5" font-family="Helvetica,sans-Serif" font-size="10.00">+ FileOutputStream()</text>
<text text-anchor="start" x="28" y="-40.5" font-family="Helvetica,sans-Serif" font-size="10.00">+ FileOutputStream()</text>
<text text-anchor="start" x="28" y="-29.5" font-family="Helvetica,sans-Serif" font-size="10.00">+ FileOutputStream()</text>
<text text-anchor="start" x="28" y="-18.5" font-family="Helvetica,sans-Serif" font-size="10.00">+ operator=()</text>
<text text-anchor="start" x="28" y="-7.5" font-family="Helvetica,sans-Serif" font-size="10.00">+ operator=()</text>
</a>
</g>
</g>
<!-- Node2 -->
<g id="node2" class="node">
<title>Node2</title>
<g id="a_node2"><a xlink:href="classcie_1_1OutputStream.html" target="_top" xlink:title=" ">
<polygon fill="white" stroke="black" points="0,-139.5 0,-372.5 162,-372.5 162,-139.5 0,-139.5"/>
<text text-anchor="middle" x="81" y="-360.5" font-family="Helvetica,sans-Serif" font-size="10.00">cie::OutputStream</text>
<polyline fill="none" stroke="black" points="0,-353.5 162,-353.5 "/>
<text text-anchor="middle" x="81" y="-341.5" font-family="Helvetica,sans-Serif" font-size="10.00"> </text>
<polyline fill="none" stroke="black" points="0,-334.5 162,-334.5 "/>
<text text-anchor="start" x="8" y="-322.5" font-family="Helvetica,sans-Serif" font-size="10.00">+ OutputStream()</text>
<text text-anchor="start" x="8" y="-311.5" font-family="Helvetica,sans-Serif" font-size="10.00">+ OutputStream()</text>
<text text-anchor="start" x="8" y="-300.5" font-family="Helvetica,sans-Serif" font-size="10.00">+ OutputStream()</text>
<text text-anchor="start" x="8" y="-289.5" font-family="Helvetica,sans-Serif" font-size="10.00">+ OutputStream()</text>
<text text-anchor="start" x="8" y="-278.5" font-family="Helvetica,sans-Serif" font-size="10.00">+ OutputStream()</text>
<text text-anchor="start" x="8" y="-267.5" font-family="Helvetica,sans-Serif" font-size="10.00">+ operator=()</text>
<text text-anchor="start" x="8" y="-256.5" font-family="Helvetica,sans-Serif" font-size="10.00">+ operator=()</text>
<text text-anchor="start" x="8" y="-245.5" font-family="Helvetica,sans-Serif" font-size="10.00">+ ~OutputStream()</text>
<text text-anchor="start" x="8" y="-234.5" font-family="Helvetica,sans-Serif" font-size="10.00">+ write()</text>
<text text-anchor="start" x="8" y="-223.5" font-family="Helvetica,sans-Serif" font-size="10.00">+ flush()</text>
<text text-anchor="start" x="8" y="-212.5" font-family="Helvetica,sans-Serif" font-size="10.00">+ rdbuf()</text>
<text text-anchor="start" x="8" y="-201.5" font-family="Helvetica,sans-Serif" font-size="10.00">+ rdbuf()</text>
<text text-anchor="start" x="8" y="-190.5" font-family="Helvetica,sans-Serif" font-size="10.00">+ requires()</text>
<text text-anchor="start" x="8" y="-179.5" font-family="Helvetica,sans-Serif" font-size="10.00"># streamInsertOperation()</text>
<text text-anchor="start" x="8" y="-168.5" font-family="Helvetica,sans-Serif" font-size="10.00"># streamInsertOperation()</text>
<text text-anchor="start" x="8" y="-157.5" font-family="Helvetica,sans-Serif" font-size="10.00"># streamInsertOperation()</text>
<text text-anchor="start" x="8" y="-146.5" font-family="Helvetica,sans-Serif" font-size="10.00"># forwardToWrappedStream()</text>
</a>
</g>
</g>
<!-- Node2&#45;&gt;Node1 -->
<g id="edge1" class="edge">
<title>Node2&#45;&gt;Node1</title>
<path fill="none" stroke="midnightblue" d="M81,-129.16C81,-119.55 81,-110.25 81,-101.63"/>
<polygon fill="none" stroke="midnightblue" points="77.5,-129.27 81,-139.27 84.5,-129.27 77.5,-129.27"/>
</g>
<!-- Node2&#45;&gt;Node2 -->
<g id="edge3" class="edge">
<title>Node2&#45;&gt;Node2</title>
<path fill="none" stroke="#404040" d="M162.18,-278.16C172.89,-274.38 180,-266.99 180,-256 180,-249.3 177.36,-243.94 172.88,-239.92"/>
<polygon fill="none" stroke="#404040" points="172.61,-239.77 165.42,-240.29 162.18,-233.84 169.37,-233.33 172.61,-239.77"/>
<text text-anchor="middle" x="195.5" y="-259" font-family="Helvetica,sans-Serif" font-size="10.00"> +cerr</text>
<text text-anchor="middle" x="195.5" y="-248" font-family="Helvetica,sans-Serif" font-size="10.00">+cout</text>
</g>
<!-- Node3 -->
<g id="node3" class="node">
<title>Node3</title>
<g id="a_node3"><a xlink:title=" ">
<polygon fill="white" stroke="#bfbfbf" points="28,-420.5 28,-477.5 134,-477.5 134,-420.5 28,-420.5"/>
<text text-anchor="middle" x="81" y="-465.5" font-family="Helvetica,sans-Serif" font-size="10.00">const TMessage &amp;</text>
<polyline fill="none" stroke="#bfbfbf" points="28,-458.5 134,-458.5 "/>
<text text-anchor="middle" x="81" y="-446.5" font-family="Helvetica,sans-Serif" font-size="10.00"> </text>
<polyline fill="none" stroke="#bfbfbf" points="28,-439.5 134,-439.5 "/>
<text text-anchor="middle" x="81" y="-427.5" font-family="Helvetica,sans-Serif" font-size="10.00"> </text>
</a>
</g>
</g>
<!-- Node3&#45;&gt;Node2 -->
<g id="edge2" class="edge">
<title>Node3&#45;&gt;Node2</title>
<path fill="none" stroke="#404040" d="M81,-420.23C81,-410.17 81,-398.04 81,-385"/>
<polygon fill="none" stroke="#404040" points="81,-384.79 77,-378.79 81,-372.79 85,-378.79 81,-384.79"/>
<text text-anchor="middle" x="93.5" y="-394" font-family="Helvetica,sans-Serif" font-size="10.00"> +r_t</text>
</g>
</g>
</svg>
