<?xml version="1.0" encoding="UTF-8" standalone="no"?>
<!DOCTYPE svg PUBLIC "-//W3C//DTD SVG 1.1//EN"
 "http://www.w3.org/Graphics/SVG/1.1/DTD/svg11.dtd">
<!-- Generated by graphviz version 2.43.0 (0)
 -->
<!-- Title: cie::utils::ArgParse Pages: 1 -->
<svg width="298pt" height="531pt"
 viewBox="0.00 0.00 297.50 531.00" xmlns="http://www.w3.org/2000/svg" xmlns:xlink="http://www.w3.org/1999/xlink">
<g id="graph0" class="graph" transform="scale(1 1) rotate(0) translate(4 527)">
<title>cie::utils::ArgParse</title>
<!-- Node1 -->
<g id="Node000001" class="node">
<title>Node1</title>
<g id="a_Node000001"><a xlink:title=" ">
<polygon fill="#999999" stroke="transparent" points="185,-259 76,-259 76,0 185,0 185,-259"/>
<text text-anchor="start" x="85.5" y="-246.5" font-family="Helvetica,sans-Serif" font-size="10.00">cie::utils::ArgParse</text>
<text text-anchor="start" x="129" y="-231.5" font-family="Helvetica,sans-Serif" font-size="10.00"> </text>
<text text-anchor="start" x="80.5" y="-216.5" font-family="Helvetica,sans-Serif" font-size="10.00">+</text>
<text text-anchor="start" x="93.5" y="-216.5" font-family="Helvetica,sans-Serif" font-size="10.00">ArgParse()</text>
<text text-anchor="start" x="80.5" y="-201.5" font-family="Helvetica,sans-Serif" font-size="10.00">+</text>
<text text-anchor="start" x="93.5" y="-201.5" font-family="Helvetica,sans-Serif" font-size="10.00">ArgParse()</text>
<text text-anchor="start" x="80.5" y="-186.5" font-family="Helvetica,sans-Serif" font-size="10.00">+</text>
<text text-anchor="start" x="93.5" y="-186.5" font-family="Helvetica,sans-Serif" font-size="10.00">ArgParse()</text>
<text text-anchor="start" x="80.5" y="-171.5" font-family="Helvetica,sans-Serif" font-size="10.00">+</text>
<text text-anchor="start" x="93.5" y="-171.5" font-family="Helvetica,sans-Serif" font-size="10.00">ArgParse()</text>
<text text-anchor="start" x="80.5" y="-156.5" font-family="Helvetica,sans-Serif" font-size="10.00">+</text>
<text text-anchor="start" x="93.5" y="-156.5" font-family="Helvetica,sans-Serif" font-size="10.00">operator=()</text>
<text text-anchor="start" x="80.5" y="-141.5" font-family="Helvetica,sans-Serif" font-size="10.00">+</text>
<text text-anchor="start" x="93.5" y="-141.5" font-family="Helvetica,sans-Serif" font-size="10.00">~ArgParse()</text>
<text text-anchor="start" x="80.5" y="-126.5" font-family="Helvetica,sans-Serif" font-size="10.00">+</text>
<text text-anchor="start" x="93.5" y="-126.5" font-family="Helvetica,sans-Serif" font-size="10.00">has()</text>
<text text-anchor="start" x="80.5" y="-111.5" font-family="Helvetica,sans-Serif" font-size="10.00">+</text>
<text text-anchor="start" x="93.5" y="-111.5" font-family="Helvetica,sans-Serif" font-size="10.00">addPositional()</text>
<text text-anchor="start" x="80.5" y="-96.5" font-family="Helvetica,sans-Serif" font-size="10.00">+</text>
<text text-anchor="start" x="93.5" y="-96.5" font-family="Helvetica,sans-Serif" font-size="10.00">addKeyword()</text>
<text text-anchor="start" x="80.5" y="-81.5" font-family="Helvetica,sans-Serif" font-size="10.00">+</text>
<text text-anchor="start" x="93.5" y="-81.5" font-family="Helvetica,sans-Serif" font-size="10.00">addFlag()</text>
<text text-anchor="start" x="80.5" y="-66.5" font-family="Helvetica,sans-Serif" font-size="10.00">+</text>
<text text-anchor="start" x="93.5" y="-66.5" font-family="Helvetica,sans-Serif" font-size="10.00">addArgument()</text>
<text text-anchor="start" x="80.5" y="-51.5" font-family="Helvetica,sans-Serif" font-size="10.00">+</text>
<text text-anchor="start" x="93.5" y="-51.5" font-family="Helvetica,sans-Serif" font-size="10.00">parseArguments()</text>
<text text-anchor="start" x="80.5" y="-36.5" font-family="Helvetica,sans-Serif" font-size="10.00">+</text>
<text text-anchor="start" x="93.5" y="-36.5" font-family="Helvetica,sans-Serif" font-size="10.00">help()</text>
<text text-anchor="start" x="80.5" y="-21.5" font-family="Helvetica,sans-Serif" font-size="10.00">+</text>
<text text-anchor="start" x="93.5" y="-21.5" font-family="Helvetica,sans-Serif" font-size="10.00">help()</text>
<text text-anchor="start" x="80.5" y="-6.5" font-family="Helvetica,sans-Serif" font-size="10.00">+</text>
<text text-anchor="start" x="93.5" y="-6.5" font-family="Helvetica,sans-Serif" font-size="10.00">validatorFactory()</text>
<polygon fill="#666666" stroke="#666666" points="76.5,-241.5 76.5,-241.5 185.5,-241.5 185.5,-241.5 76.5,-241.5"/>
<polygon fill="#666666" stroke="#666666" points="76.5,-226.5 76.5,-226.5 185.5,-226.5 185.5,-226.5 76.5,-226.5"/>
<polygon fill="none" stroke="#666666" points="76,0 76,-259 185,-259 185,0 76,0"/>
</a>
</g>
</g>
<!-- Node2 -->
<g id="Node000002" class="node">
<title>Node2</title>
<g id="a_Node000002"><a xlink:href="classcie_1_1utils_1_1NamedObject.html" target="_top" xlink:title=" ">
<polygon fill="white" stroke="transparent" points="125,-523 0,-523 0,-339 125,-339 125,-523"/>
<text text-anchor="start" x="5.5" y="-511" font-family="Helvetica,sans-Serif" font-size="10.00">cie::utils::NamedObject</text>
<text text-anchor="start" x="61" y="-496" font-family="Helvetica,sans-Serif" font-size="10.00"> </text>
<text text-anchor="start" x="9.5" y="-481" font-family="Helvetica,sans-Serif" font-size="10.00">+</text>
<text text-anchor="start" x="27.5" y="-481" font-family="Helvetica,sans-Serif" font-size="10.00">NamedObject()</text>
<text text-anchor="start" x="9.5" y="-466" font-family="Helvetica,sans-Serif" font-size="10.00">+</text>
<text text-anchor="start" x="27.5" y="-466" font-family="Helvetica,sans-Serif" font-size="10.00">NamedObject()</text>
<text text-anchor="start" x="9.5" y="-451" font-family="Helvetica,sans-Serif" font-size="10.00">+</text>
<text text-anchor="start" x="27.5" y="-451" font-family="Helvetica,sans-Serif" font-size="10.00">NamedObject()</text>
<text text-anchor="start" x="9.5" y="-436" font-family="Helvetica,sans-Serif" font-size="10.00">+</text>
<text text-anchor="start" x="27.5" y="-436" font-family="Helvetica,sans-Serif" font-size="10.00">NamedObject()</text>
<text text-anchor="start" x="9.5" y="-421" font-family="Helvetica,sans-Serif" font-size="10.00">+</text>
<text text-anchor="start" x="27.5" y="-421" font-family="Helvetica,sans-Serif" font-size="10.00">operator=()</text>
<text text-anchor="start" x="9.5" y="-406" font-family="Helvetica,sans-Serif" font-size="10.00">+</text>
<text text-anchor="start" x="27.5" y="-406" font-family="Helvetica,sans-Serif" font-size="10.00">operator=()</text>
<text text-anchor="start" x="9.5" y="-391" font-family="Helvetica,sans-Serif" font-size="10.00">+</text>
<text text-anchor="start" x="27.5" y="-391" font-family="Helvetica,sans-Serif" font-size="10.00">name()</text>
<text text-anchor="start" x="9.5" y="-376" font-family="Helvetica,sans-Serif" font-size="10.00">+</text>
<text text-anchor="start" x="27.5" y="-376" font-family="Helvetica,sans-Serif" font-size="10.00">setName()</text>
<text text-anchor="start" x="9.5" y="-361" font-family="Helvetica,sans-Serif" font-size="10.00">+</text>
<text text-anchor="start" x="27.5" y="-361" font-family="Helvetica,sans-Serif" font-size="10.00">setName()</text>
<text text-anchor="start" x="9.5" y="-346" font-family="Helvetica,sans-Serif" font-size="10.00">+</text>
<text text-anchor="start" x="27.5" y="-346" font-family="Helvetica,sans-Serif" font-size="10.00">~NamedObject()</text>
<polygon fill="#666666" stroke="#666666" points="0.5,-506 0.5,-506 125.5,-506 125.5,-506 0.5,-506"/>
<polygon fill="#666666" stroke="#666666" points="0.5,-491 0.5,-491 125.5,-491 125.5,-491 0.5,-491"/>
<polygon fill="none" stroke="#666666" points="0,-339 0,-523 125,-523 125,-339 0,-339"/>
</a>
</g>
</g>
<!-- Node2&#45;&gt;Node1 -->
<g id="edge1_Node000001_Node000002" class="edge">
<title>Node2&#45;&gt;Node1</title>
<g id="a_edge1_Node000001_Node000002"><a xlink:title=" ">
<path fill="none" stroke="#8b1a1a" d="M85.41,-329.08C90.5,-306.66 95.97,-282.59 101.27,-259.22"/>
<polygon fill="none" stroke="#8b1a1a" points="81.98,-328.39 83.18,-338.92 88.81,-329.94 81.98,-328.39"/>
</a>
</g>
</g>
<!-- Node3 -->
<g id="Node000003" class="node">
<title>Node3</title>
<g id="a_Node000003"><a xlink:title=" ">
<polygon fill="white" stroke="transparent" points="256,-455.5 143,-455.5 143,-406.5 256,-406.5 256,-455.5"/>
<text text-anchor="start" x="148.5" y="-443" font-family="Helvetica,sans-Serif" font-size="10.00">static const Validator</text>
<text text-anchor="start" x="198" y="-428" font-family="Helvetica,sans-Serif" font-size="10.00"> </text>
<text text-anchor="start" x="198" y="-413" font-family="Helvetica,sans-Serif" font-size="10.00"> </text>
<polygon fill="#666666" stroke="#666666" points="143.5,-438 143.5,-438 256.5,-438 256.5,-438 143.5,-438"/>
<polygon fill="#666666" stroke="#666666" points="143.5,-423 143.5,-423 256.5,-423 256.5,-423 143.5,-423"/>
<polygon fill="none" stroke="#666666" points="143,-406.5 143,-455.5 256,-455.5 256,-406.5 143,-406.5"/>
</a>
</g>
</g>
<!-- Node3&#45;&gt;Node1 -->
<g id="edge2_Node000001_Node000003" class="edge">
<title>Node3&#45;&gt;Node1</title>
<g id="a_edge2_Node000001_Node000003"><a xlink:title=" ">
<path fill="none" stroke="#63b8ff" d="M194.09,-406.5C187.23,-376.76 174.87,-323.09 162.86,-270.94"/>
<polygon fill="none" stroke="#63b8ff" points="162.83,-270.84 157.59,-265.89 160.14,-259.14 165.38,-264.09 162.83,-270.84"/>
</a>
</g>
<text text-anchor="middle" x="231" y="-313" font-family="Helvetica,sans-Serif" font-size="10.00" fill="grey"> +defaultValidator</text>
<text text-anchor="middle" x="231" y="-302" font-family="Helvetica,sans-Serif" font-size="10.00" fill="grey">+directoryPathValidator</text>
<text text-anchor="middle" x="231" y="-291" font-family="Helvetica,sans-Serif" font-size="10.00" fill="grey">+filePathValidator</text>
<text text-anchor="middle" x="231" y="-280" font-family="Helvetica,sans-Serif" font-size="10.00" fill="grey">+pathValidator</text>
</g>
</g>
</svg>
