<?xml version="1.0" encoding="UTF-8" standalone="no"?>
<!DOCTYPE svg PUBLIC "-//W3C//DTD SVG 1.1//EN"
 "http://www.w3.org/Graphics/SVG/1.1/DTD/svg11.dtd">
<!-- Generated by graphviz version 2.43.0 (0)
 -->
<!-- Title: cie::utils::TransformView&lt; ContainerType, OutputType &gt; Pages: 1 -->
<svg width="402pt" height="248pt"
 viewBox="0.00 0.00 402.00 248.00" xmlns="http://www.w3.org/2000/svg" xmlns:xlink="http://www.w3.org/1999/xlink">
<g id="graph0" class="graph" transform="scale(1 1) rotate(0) translate(4 244)">
<title>cie::utils::TransformView&lt; ContainerType, OutputType &gt;</title>
<polygon fill="white" stroke="transparent" points="-4,4 -4,-244 398,-244 398,4 -4,4"/>
<!-- Node1 -->
<g id="node1" class="node">
<title>Node1</title>
<g id="a_node1"><a xlink:title=" ">
<polygon fill="#bfbfbf" stroke="black" points="121,-0.5 121,-90.5 291,-90.5 291,-0.5 121,-0.5"/>
<text text-anchor="start" x="129" y="-78.5" font-family="Helvetica,sans-Serif" font-size="10.00">cie::utils::TransformView</text>
<text text-anchor="middle" x="206" y="-67.5" font-family="Helvetica,sans-Serif" font-size="10.00">&lt; ContainerType, OutputType &gt;</text>
<polyline fill="none" stroke="black" points="121,-60.5 291,-60.5 "/>
<text text-anchor="middle" x="206" y="-48.5" font-family="Helvetica,sans-Serif" font-size="10.00"> </text>
<polyline fill="none" stroke="black" points="121,-41.5 291,-41.5 "/>
<text text-anchor="start" x="129" y="-29.5" font-family="Helvetica,sans-Serif" font-size="10.00">+ TransformView()</text>
<text text-anchor="start" x="129" y="-18.5" font-family="Helvetica,sans-Serif" font-size="10.00">+ operator=()</text>
<text text-anchor="start" x="129" y="-7.5" font-family="Helvetica,sans-Serif" font-size="10.00">+ operator=()</text>
</a>
</g>
</g>
<!-- Node2 -->
<g id="node2" class="node">
<title>Node2</title>
<g id="a_node2"><a xlink:href="classstd_1_1ranges_1_1transform__view.html" target="_top" xlink:title=" ">
<polygon fill="white" stroke="black" points="0,-127.5 0,-239.5 206,-239.5 206,-127.5 0,-127.5"/>
<text text-anchor="start" x="8" y="-227.5" font-family="Helvetica,sans-Serif" font-size="10.00">std::ranges::transform</text>
<text text-anchor="start" x="8" y="-216.5" font-family="Helvetica,sans-Serif" font-size="10.00">_view&lt; detail::TransformView</text>
<text text-anchor="start" x="8" y="-205.5" font-family="Helvetica,sans-Serif" font-size="10.00">Traits&lt; ContainerType, OutputType</text>
<text text-anchor="start" x="8" y="-194.5" font-family="Helvetica,sans-Serif" font-size="10.00"> &gt;::container_view_type, detail</text>
<text text-anchor="start" x="8" y="-183.5" font-family="Helvetica,sans-Serif" font-size="10.00">::TransformViewTraits&lt; ContainerType,</text>
<text text-anchor="middle" x="103" y="-172.5" font-family="Helvetica,sans-Serif" font-size="10.00"> OutputType &gt;::transform_type &gt;</text>
<polyline fill="none" stroke="black" points="0,-165.5 206,-165.5 "/>
<text text-anchor="middle" x="103" y="-153.5" font-family="Helvetica,sans-Serif" font-size="10.00"> </text>
<polyline fill="none" stroke="black" points="0,-146.5 206,-146.5 "/>
<text text-anchor="middle" x="103" y="-134.5" font-family="Helvetica,sans-Serif" font-size="10.00"> </text>
</a>
</g>
</g>
<!-- Node2&#45;&gt;Node1 -->
<g id="edge1" class="edge">
<title>Node2&#45;&gt;Node1</title>
<path fill="none" stroke="midnightblue" d="M151.01,-119.11C158.33,-109.44 165.75,-99.65 172.67,-90.51"/>
<polygon fill="none" stroke="midnightblue" points="148.14,-117.1 144.89,-127.18 153.72,-121.32 148.14,-117.1"/>
</g>
<!-- Node3 -->
<g id="node3" class="node">
<title>Node3</title>
<g id="a_node3"><a xlink:title=" ">
<polygon fill="white" stroke="#bfbfbf" points="224,-144 224,-223 394,-223 394,-144 224,-144"/>
<text text-anchor="start" x="232" y="-211" font-family="Helvetica,sans-Serif" font-size="10.00">cie::utils::detail</text>
<text text-anchor="start" x="232" y="-200" font-family="Helvetica,sans-Serif" font-size="10.00">::TransformViewTraits</text>
<text text-anchor="middle" x="309" y="-189" font-family="Helvetica,sans-Serif" font-size="10.00">&lt; ContainerType, OutputType &gt;</text>
<polyline fill="none" stroke="#bfbfbf" points="224,-182 394,-182 "/>
<text text-anchor="middle" x="309" y="-170" font-family="Helvetica,sans-Serif" font-size="10.00"> </text>
<polyline fill="none" stroke="#bfbfbf" points="224,-163 394,-163 "/>
<text text-anchor="middle" x="309" y="-151" font-family="Helvetica,sans-Serif" font-size="10.00"> </text>
</a>
</g>
</g>
<!-- Node3&#45;&gt;Node1 -->
<g id="edge2" class="edge">
<title>Node3&#45;&gt;Node1</title>
<path fill="none" stroke="midnightblue" d="M273.45,-135.57C262.51,-121.11 250.49,-105.25 239.68,-90.97"/>
<polygon fill="none" stroke="midnightblue" points="270.93,-138.03 279.76,-143.89 276.51,-133.81 270.93,-138.03"/>
</g>
</g>
</svg>
