<?xml version="1.0" encoding="UTF-8" standalone="no"?>
<!DOCTYPE svg PUBLIC "-//W3C//DTD SVG 1.1//EN"
 "http://www.w3.org/Graphics/SVG/1.1/DTD/svg11.dtd">
<!-- Generated by graphviz version 2.43.0 (0)
 -->
<!-- Title: cie::utils::StateIterator&lt; IteratorType &gt; Pages: 1 -->
<svg width="214pt" height="270pt"
 viewBox="0.00 0.00 213.50 270.00" xmlns="http://www.w3.org/2000/svg" xmlns:xlink="http://www.w3.org/1999/xlink">
<g id="graph0" class="graph" transform="scale(1 1) rotate(0) translate(4 266)">
<title>cie::utils::StateIterator&lt; IteratorType &gt;</title>
<polygon fill="white" stroke="transparent" points="-4,4 -4,-266 209.5,-266 209.5,4 -4,4"/>
<!-- Node1 -->
<g id="node1" class="node">
<title>Node1</title>
<g id="a_node1"><a xlink:title=" ">
<polygon fill="#bfbfbf" stroke="black" points="49.5,-0.5 49.5,-134.5 174.5,-134.5 174.5,-0.5 49.5,-0.5"/>
<text text-anchor="start" x="57.5" y="-122.5" font-family="Helvetica,sans-Serif" font-size="10.00">cie::utils::StateIterator</text>
<text text-anchor="middle" x="112" y="-111.5" font-family="Helvetica,sans-Serif" font-size="10.00">&lt; IteratorType &gt;</text>
<polyline fill="none" stroke="black" points="49.5,-104.5 174.5,-104.5 "/>
<text text-anchor="middle" x="112" y="-92.5" font-family="Helvetica,sans-Serif" font-size="10.00"> </text>
<polyline fill="none" stroke="black" points="49.5,-85.5 174.5,-85.5 "/>
<text text-anchor="start" x="57.5" y="-73.5" font-family="Helvetica,sans-Serif" font-size="10.00">+ StateIterator()</text>
<text text-anchor="start" x="57.5" y="-62.5" font-family="Helvetica,sans-Serif" font-size="10.00">+ operator=()</text>
<text text-anchor="start" x="57.5" y="-51.5" font-family="Helvetica,sans-Serif" font-size="10.00">+ StateIterator()</text>
<text text-anchor="start" x="57.5" y="-40.5" font-family="Helvetica,sans-Serif" font-size="10.00">+ reset()</text>
<text text-anchor="start" x="57.5" y="-29.5" font-family="Helvetica,sans-Serif" font-size="10.00">+ operator++()</text>
<text text-anchor="start" x="57.5" y="-18.5" font-family="Helvetica,sans-Serif" font-size="10.00">+ operator*()</text>
<text text-anchor="start" x="57.5" y="-7.5" font-family="Helvetica,sans-Serif" font-size="10.00"># StateIterator()</text>
</a>
</g>
</g>
<!-- Node2 -->
<g id="node2" class="node">
<title>Node2</title>
<g id="a_node2"><a xlink:title=" ">
<polygon fill="white" stroke="#bfbfbf" points="0,-193.5 0,-261.5 112,-261.5 112,-193.5 0,-193.5"/>
<text text-anchor="start" x="8" y="-249.5" font-family="Helvetica,sans-Serif" font-size="10.00">vector&lt; subiterator</text>
<text text-anchor="middle" x="56" y="-238.5" font-family="Helvetica,sans-Serif" font-size="10.00">_type &gt;</text>
<polyline fill="none" stroke="#bfbfbf" points="0,-231.5 112,-231.5 "/>
<text text-anchor="middle" x="56" y="-219.5" font-family="Helvetica,sans-Serif" font-size="10.00"> </text>
<polyline fill="none" stroke="#bfbfbf" points="0,-212.5 112,-212.5 "/>
<text text-anchor="middle" x="56" y="-200.5" font-family="Helvetica,sans-Serif" font-size="10.00"> </text>
</a>
</g>
</g>
<!-- Node2&#45;&gt;Node1 -->
<g id="edge1" class="edge">
<title>Node2&#45;&gt;Node1</title>
<path fill="none" stroke="#404040" d="M67.74,-193.38C72.64,-179.56 78.55,-162.87 84.44,-146.25"/>
<polygon fill="none" stroke="#404040" points="84.49,-146.11 82.73,-139.11 88.5,-134.79 90.27,-141.79 84.49,-146.11"/>
<text text-anchor="middle" x="102" y="-161.5" font-family="Helvetica,sans-Serif" font-size="10.00"> #_state</text>
</g>
<!-- Node3 -->
<g id="node3" class="node">
<title>Node3</title>
<g id="a_node3"><a xlink:title=" ">
<polygon fill="white" stroke="#bfbfbf" points="130.5,-199 130.5,-256 205.5,-256 205.5,-199 130.5,-199"/>
<text text-anchor="middle" x="168" y="-244" font-family="Helvetica,sans-Serif" font-size="10.00">IteratorType</text>
<polyline fill="none" stroke="#bfbfbf" points="130.5,-237 205.5,-237 "/>
<text text-anchor="middle" x="168" y="-225" font-family="Helvetica,sans-Serif" font-size="10.00"> </text>
<polyline fill="none" stroke="#bfbfbf" points="130.5,-218 205.5,-218 "/>
<text text-anchor="middle" x="168" y="-206" font-family="Helvetica,sans-Serif" font-size="10.00"> </text>
</a>
</g>
</g>
<!-- Node3&#45;&gt;Node1 -->
<g id="edge2" class="edge">
<title>Node3&#45;&gt;Node1</title>
<path fill="none" stroke="#404040" d="M158.25,-198.98C153,-184.19 146.25,-165.14 139.54,-146.2"/>
<polygon fill="none" stroke="#404040" points="139.5,-146.08 133.72,-141.76 135.49,-134.77 141.26,-139.09 139.5,-146.08"/>
<text text-anchor="middle" x="170" y="-167" font-family="Helvetica,sans-Serif" font-size="10.00"> #_begin</text>
<text text-anchor="middle" x="170" y="-156" font-family="Helvetica,sans-Serif" font-size="10.00">#_end</text>
</g>
</g>
</svg>
