<?xml version="1.0" encoding="UTF-8" standalone="no"?>
<!DOCTYPE svg PUBLIC "-//W3C//DTD SVG 1.1//EN"
 "http://www.w3.org/Graphics/SVG/1.1/DTD/svg11.dtd">
<!-- Generated by graphviz version 2.43.0 (0)
 -->
<!-- Title: cie::utils::Logger Pages: 1 -->
<!--zoomable 628 -->
<svg id="main" version="1.1" xmlns="http://www.w3.org/2000/svg" xmlns:xlink="http://www.w3.org/1999/xlink" xml:space="preserve" onload="init(evt)">
<style type="text/css"><![CDATA[
.edge:hover path { stroke: red; }
.edge:hover polygon { stroke: red; fill: red; }
]]></style>
<script type="text/javascript"><![CDATA[
var edges = document.getElementsByTagName('g');
if (edges && edges.length) {
  for (var i=0;i<edges.length;i++) {
    if (edges[i].id.substr(0,4)=='edge') {
      edges[i].setAttribute('class','edge');
    }
  }
}
]]></script>
        <defs>
                <circle id="rim" cx="0" cy="0" r="7"/>
                <circle id="rim2" cx="0" cy="0" r="3.5"/>
                <g id="zoomPlus">
                        <use xlink:href="#rim" fill="#404040">
                                <set attributeName="fill" to="#808080" begin="zoomplus.mouseover" end="zoomplus.mouseout"/>
                        </use>
                        <path d="M-4,0h8M0,-4v8" fill="none" stroke="white" stroke-width="1.5" pointer-events="none"/>
                </g>
                <g id="zoomMin">
                        <use xlink:href="#rim" fill="#404040">
                                <set attributeName="fill" to="#808080" begin="zoomminus.mouseover" end="zoomminus.mouseout"/>
                        </use>
                        <path d="M-4,0h8" fill="none" stroke="white" stroke-width="1.5" pointer-events="none"/>
                </g>
                <g id="dirArrow">
                        <path fill="none" stroke="white" stroke-width="1.5" d="M0,-3.0v7 M-2.5,-0.5L0,-3.0L2.5,-0.5"/>
                </g>
               <g id="resetDef">
                       <use xlink:href="#rim2" fill="#404040">
                               <set attributeName="fill" to="#808080" begin="reset.mouseover" end="reset.mouseout"/>
                       </use>
               </g>
        </defs>

<script type="text/javascript">
var viewWidth = 648;
var viewHeight = 628;
var sectionId = 'dynsection-1';
</script>
<script xlink:href="svgpan.js"/>
<svg id="graph" class="graph">
<g id="viewport">
<title>cie::utils::Logger</title>
<polygon fill="white" stroke="transparent" points="-4,4 -4,-624 644,-624 644,4 -4,4"/>
<!-- Node1 -->
<g id="node1" class="node">
<title>Node1</title>
<g id="a_node1"><a xlink:title=" ">
<polygon fill="#bfbfbf" stroke="black" points="310,-0.5 310,-222.5 456,-222.5 456,-0.5 310,-0.5"/>
<text text-anchor="middle" x="383" y="-210.5" font-family="Helvetica,sans-Serif" font-size="10.00">cie::utils::Logger</text>
<polyline fill="none" stroke="black" points="310,-203.5 456,-203.5 "/>
<text text-anchor="middle" x="383" y="-191.5" font-family="Helvetica,sans-Serif" font-size="10.00"> </text>
<polyline fill="none" stroke="black" points="310,-184.5 456,-184.5 "/>
<text text-anchor="start" x="318" y="-172.5" font-family="Helvetica,sans-Serif" font-size="10.00">+ Logger()</text>
<text text-anchor="start" x="318" y="-161.5" font-family="Helvetica,sans-Serif" font-size="10.00">+ Logger()</text>
<text text-anchor="start" x="318" y="-150.5" font-family="Helvetica,sans-Serif" font-size="10.00">+ Logger()</text>
<text text-anchor="start" x="318" y="-139.5" font-family="Helvetica,sans-Serif" font-size="10.00">+ ~Logger()</text>
<text text-anchor="start" x="318" y="-128.5" font-family="Helvetica,sans-Serif" font-size="10.00">+ write()</text>
<text text-anchor="start" x="318" y="-117.5" font-family="Helvetica,sans-Serif" font-size="10.00">+ newBlock()</text>
<text text-anchor="start" x="318" y="-106.5" font-family="Helvetica,sans-Serif" font-size="10.00">+ addStream()</text>
<text text-anchor="start" x="318" y="-95.5" font-family="Helvetica,sans-Serif" font-size="10.00">+ removeStream()</text>
<text text-anchor="start" x="318" y="-84.5" font-family="Helvetica,sans-Serif" font-size="10.00">+ forceFlush()</text>
<text text-anchor="start" x="318" y="-73.5" font-family="Helvetica,sans-Serif" font-size="10.00">+ log()</text>
<text text-anchor="start" x="318" y="-62.5" font-family="Helvetica,sans-Serif" font-size="10.00">and 11 more...</text>
<text text-anchor="start" x="318" y="-51.5" font-family="Helvetica,sans-Serif" font-size="10.00"># streamInsertOperation()</text>
<text text-anchor="start" x="318" y="-40.5" font-family="Helvetica,sans-Serif" font-size="10.00"># flush()</text>
<text text-anchor="start" x="318" y="-29.5" font-family="Helvetica,sans-Serif" font-size="10.00"># preWrite()</text>
<text text-anchor="start" x="318" y="-18.5" font-family="Helvetica,sans-Serif" font-size="10.00"># postWrite()</text>
<text text-anchor="start" x="318" y="-7.5" font-family="Helvetica,sans-Serif" font-size="10.00"># directWriteToAll()</text>
</a>
</g>
</g>
<!-- Node2 -->
<g id="node2" class="node">
<title>Node2</title>
<g id="a_node2"><a xlink:href="classcie_1_1OutputStream.html" target="_top" xlink:title=" ">
<polygon fill="white" stroke="black" points="0,-281.5 0,-514.5 162,-514.5 162,-281.5 0,-281.5"/>
<text text-anchor="middle" x="81" y="-502.5" font-family="Helvetica,sans-Serif" font-size="10.00">cie::OutputStream</text>
<polyline fill="none" stroke="black" points="0,-495.5 162,-495.5 "/>
<text text-anchor="middle" x="81" y="-483.5" font-family="Helvetica,sans-Serif" font-size="10.00"> </text>
<polyline fill="none" stroke="black" points="0,-476.5 162,-476.5 "/>
<text text-anchor="start" x="8" y="-464.5" font-family="Helvetica,sans-Serif" font-size="10.00">+ OutputStream()</text>
<text text-anchor="start" x="8" y="-453.5" font-family="Helvetica,sans-Serif" font-size="10.00">+ OutputStream()</text>
<text text-anchor="start" x="8" y="-442.5" font-family="Helvetica,sans-Serif" font-size="10.00">+ OutputStream()</text>
<text text-anchor="start" x="8" y="-431.5" font-family="Helvetica,sans-Serif" font-size="10.00">+ OutputStream()</text>
<text text-anchor="start" x="8" y="-420.5" font-family="Helvetica,sans-Serif" font-size="10.00">+ OutputStream()</text>
<text text-anchor="start" x="8" y="-409.5" font-family="Helvetica,sans-Serif" font-size="10.00">+ operator=()</text>
<text text-anchor="start" x="8" y="-398.5" font-family="Helvetica,sans-Serif" font-size="10.00">+ operator=()</text>
<text text-anchor="start" x="8" y="-387.5" font-family="Helvetica,sans-Serif" font-size="10.00">+ ~OutputStream()</text>
<text text-anchor="start" x="8" y="-376.5" font-family="Helvetica,sans-Serif" font-size="10.00">+ write()</text>
<text text-anchor="start" x="8" y="-365.5" font-family="Helvetica,sans-Serif" font-size="10.00">+ flush()</text>
<text text-anchor="start" x="8" y="-354.5" font-family="Helvetica,sans-Serif" font-size="10.00">+ rdbuf()</text>
<text text-anchor="start" x="8" y="-343.5" font-family="Helvetica,sans-Serif" font-size="10.00">+ rdbuf()</text>
<text text-anchor="start" x="8" y="-332.5" font-family="Helvetica,sans-Serif" font-size="10.00">+ requires()</text>
<text text-anchor="start" x="8" y="-321.5" font-family="Helvetica,sans-Serif" font-size="10.00"># streamInsertOperation()</text>
<text text-anchor="start" x="8" y="-310.5" font-family="Helvetica,sans-Serif" font-size="10.00"># streamInsertOperation()</text>
<text text-anchor="start" x="8" y="-299.5" font-family="Helvetica,sans-Serif" font-size="10.00"># streamInsertOperation()</text>
<text text-anchor="start" x="8" y="-288.5" font-family="Helvetica,sans-Serif" font-size="10.00"># forwardToWrappedStream()</text>
</a>
</g>
</g>
<!-- Node2&#45;&gt;Node1 -->
<g id="edge1" class="edge">
<title>Node2&#45;&gt;Node1</title>
<path fill="none" stroke="midnightblue" d="M169.69,-313.45C214.25,-271.47 267.59,-221.22 309.79,-181.47"/>
<polygon fill="none" stroke="midnightblue" points="167.21,-310.98 162.33,-320.38 172.01,-316.08 167.21,-310.98"/>
</g>
<!-- Node2&#45;&gt;Node2 -->
<g id="edge3" class="edge">
<title>Node2&#45;&gt;Node2</title>
<path fill="none" stroke="#404040" d="M162.18,-421.15C172.89,-417.2 180,-409.48 180,-398 180,-391 177.36,-385.4 172.88,-381.2"/>
<polygon fill="none" stroke="#404040" points="172.5,-380.98 165.3,-381.35 162.18,-374.85 169.38,-374.48 172.5,-380.98"/>
<text text-anchor="middle" x="195.5" y="-401" font-family="Helvetica,sans-Serif" font-size="10.00"> +cerr</text>
<text text-anchor="middle" x="195.5" y="-390" font-family="Helvetica,sans-Serif" font-size="10.00">+cout</text>
</g>
<!-- Node3 -->
<g id="node3" class="node">
<title>Node3</title>
<g id="a_node3"><a xlink:title=" ">
<polygon fill="white" stroke="#bfbfbf" points="28,-562.5 28,-619.5 134,-619.5 134,-562.5 28,-562.5"/>
<text text-anchor="middle" x="81" y="-607.5" font-family="Helvetica,sans-Serif" font-size="10.00">const TMessage &amp;</text>
<polyline fill="none" stroke="#bfbfbf" points="28,-600.5 134,-600.5 "/>
<text text-anchor="middle" x="81" y="-588.5" font-family="Helvetica,sans-Serif" font-size="10.00"> </text>
<polyline fill="none" stroke="#bfbfbf" points="28,-581.5 134,-581.5 "/>
<text text-anchor="middle" x="81" y="-569.5" font-family="Helvetica,sans-Serif" font-size="10.00"> </text>
</a>
</g>
</g>
<!-- Node3&#45;&gt;Node2 -->
<g id="edge2" class="edge">
<title>Node3&#45;&gt;Node2</title>
<path fill="none" stroke="#404040" d="M81,-562.23C81,-552.17 81,-540.04 81,-527"/>
<polygon fill="none" stroke="#404040" points="81,-526.79 77,-520.79 81,-514.79 85,-520.79 81,-526.79"/>
<text text-anchor="middle" x="93.5" y="-536" font-family="Helvetica,sans-Serif" font-size="10.00"> +r_t</text>
</g>
<!-- Node4 -->
<g id="node4" class="node">
<title>Node4</title>
<g id="a_node4"><a xlink:title=" ">
<polygon fill="white" stroke="#bfbfbf" points="229,-369.5 229,-426.5 357,-426.5 357,-369.5 229,-369.5"/>
<text text-anchor="middle" x="293" y="-414.5" font-family="Helvetica,sans-Serif" font-size="10.00">deque&lt; detail::Time &gt;</text>
<polyline fill="none" stroke="#bfbfbf" points="229,-407.5 357,-407.5 "/>
<text text-anchor="middle" x="293" y="-395.5" font-family="Helvetica,sans-Serif" font-size="10.00"> </text>
<polyline fill="none" stroke="#bfbfbf" points="229,-388.5 357,-388.5 "/>
<text text-anchor="middle" x="293" y="-376.5" font-family="Helvetica,sans-Serif" font-size="10.00"> </text>
</a>
</g>
</g>
<!-- Node4&#45;&gt;Node1 -->
<g id="edge4" class="edge">
<title>Node4&#45;&gt;Node1</title>
<path fill="none" stroke="#404040" d="M295.93,-369.41C299.79,-337.81 307.81,-284.76 322,-241 322.77,-238.61 323.58,-236.22 324.42,-233.81"/>
<polygon fill="none" stroke="#404040" points="324.43,-233.77 322.74,-226.76 328.55,-222.5 330.25,-229.51 324.43,-233.77"/>
<text text-anchor="middle" x="350.5" y="-249.5" font-family="Helvetica,sans-Serif" font-size="10.00"> #_timeLog</text>
</g>
<!-- Node5 -->
<g id="node5" class="node">
<title>Node5</title>
<g id="a_node5"><a xlink:title=" ">
<polygon fill="white" stroke="#bfbfbf" points="375,-369.5 375,-426.5 413,-426.5 413,-369.5 375,-369.5"/>
<text text-anchor="middle" x="394" y="-414.5" font-family="Helvetica,sans-Serif" font-size="10.00">bool</text>
<polyline fill="none" stroke="#bfbfbf" points="375,-407.5 413,-407.5 "/>
<text text-anchor="middle" x="394" y="-395.5" font-family="Helvetica,sans-Serif" font-size="10.00"> </text>
<polyline fill="none" stroke="#bfbfbf" points="375,-388.5 413,-388.5 "/>
<text text-anchor="middle" x="394" y="-376.5" font-family="Helvetica,sans-Serif" font-size="10.00"> </text>
</a>
</g>
</g>
<!-- Node5&#45;&gt;Node1 -->
<g id="edge5" class="edge">
<title>Node5&#45;&gt;Node1</title>
<path fill="none" stroke="#404040" d="M391.38,-369.31C388.95,-342.24 385.49,-299.83 384,-263 383.63,-253.82 383.34,-244.33 383.12,-234.77"/>
<polygon fill="none" stroke="#404040" points="383.11,-234.66 378.99,-228.74 382.87,-222.66 386.99,-228.58 383.11,-234.66"/>
<text text-anchor="middle" x="418" y="-249.5" font-family="Helvetica,sans-Serif" font-size="10.00"> #_forceFlush</text>
</g>
<!-- Node6 -->
<g id="node6" class="node">
<title>Node6</title>
<g id="a_node6"><a xlink:title=" ">
<polygon fill="white" stroke="#bfbfbf" points="452,-369.5 452,-426.5 496,-426.5 496,-369.5 452,-369.5"/>
<text text-anchor="middle" x="474" y="-414.5" font-family="Helvetica,sans-Serif" font-size="10.00">string</text>
<polyline fill="none" stroke="#bfbfbf" points="452,-407.5 496,-407.5 "/>
<text text-anchor="middle" x="474" y="-395.5" font-family="Helvetica,sans-Serif" font-size="10.00"> </text>
<polyline fill="none" stroke="#bfbfbf" points="452,-388.5 496,-388.5 "/>
<text text-anchor="middle" x="474" y="-376.5" font-family="Helvetica,sans-Serif" font-size="10.00"> </text>
</a>
</g>
</g>
<!-- Node6&#45;&gt;Node1 -->
<g id="edge6" class="edge">
<title>Node6&#45;&gt;Node1</title>
<path fill="none" stroke="#404040" d="M473.03,-369.29C471.25,-337.57 466.21,-284.41 452,-241 451.22,-238.6 450.39,-236.2 449.52,-233.79"/>
<polygon fill="none" stroke="#404040" points="449.49,-233.71 443.61,-229.54 445.2,-222.5 451.08,-226.68 449.49,-233.71"/>
<text text-anchor="middle" x="483.5" y="-255" font-family="Helvetica,sans-Serif" font-size="10.00"> #_lineEnd</text>
<text text-anchor="middle" x="483.5" y="-244" font-family="Helvetica,sans-Serif" font-size="10.00">#_prefix</text>
</g>
<!-- Node7 -->
<g id="node7" class="node">
<title>Node7</title>
<g id="a_node7"><a xlink:title=" ">
<polygon fill="white" stroke="#bfbfbf" points="514,-364 514,-432 640,-432 640,-364 514,-364"/>
<text text-anchor="start" x="522" y="-420" font-family="Helvetica,sans-Serif" font-size="10.00">deque&lt; OutputStream</text>
<text text-anchor="middle" x="577" y="-409" font-family="Helvetica,sans-Serif" font-size="10.00">::SharedPointer &gt;</text>
<polyline fill="none" stroke="#bfbfbf" points="514,-402 640,-402 "/>
<text text-anchor="middle" x="577" y="-390" font-family="Helvetica,sans-Serif" font-size="10.00"> </text>
<polyline fill="none" stroke="#bfbfbf" points="514,-383 640,-383 "/>
<text text-anchor="middle" x="577" y="-371" font-family="Helvetica,sans-Serif" font-size="10.00"> </text>
</a>
</g>
</g>
<!-- Node7&#45;&gt;Node1 -->
<g id="edge7" class="edge">
<title>Node7&#45;&gt;Node1</title>
<path fill="none" stroke="#404040" d="M567.93,-363.72C557.98,-330.75 539.9,-279.73 514,-241 500.15,-220.29 482.54,-200.24 464.75,-182.38"/>
<polygon fill="none" stroke="#404040" points="464.58,-182.21 457.5,-180.86 456.03,-173.8 463.11,-175.15 464.58,-182.21"/>
<text text-anchor="middle" x="553.5" y="-249.5" font-family="Helvetica,sans-Serif" font-size="10.00"> #_streams</text>
</g>
</g>
</svg>
        <g id="navigator" transform="translate(0 0)" fill="#404254">
                <rect fill="#f2f5e9" fill-opacity="0.5" stroke="#606060" stroke-width=".5" x="0" y="0" width="60" height="60"/>
                <use id="zoomplus" xlink:href="#zoomPlus" x="17" y="9" onmousedown="handleZoom(evt,'in')"/>
                <use id="zoomminus" xlink:href="#zoomMin" x="42" y="9" onmousedown="handleZoom(evt,'out')"/>
                <use id="reset" xlink:href="#resetDef" x="30" y="36" onmousedown="handleReset()"/>
                <g id="arrowUp" xlink:href="#dirArrow" transform="translate(30 24)" onmousedown="handlePan(0,-1)">
                  <use xlink:href="#rim" fill="#404040">
                        <set attributeName="fill" to="#808080" begin="arrowUp.mouseover" end="arrowUp.mouseout"/>
                  </use>
                  <path fill="none" stroke="white" stroke-width="1.5" d="M0,-3.0v7 M-2.5,-0.5L0,-3.0L2.5,-0.5"/>
                </g>
                <g id="arrowRight" xlink:href="#dirArrow" transform="rotate(90) translate(36 -43)" onmousedown="handlePan(1,0)">
                  <use xlink:href="#rim" fill="#404040">
                        <set attributeName="fill" to="#808080" begin="arrowRight.mouseover" end="arrowRight.mouseout"/>
                  </use>
                  <path fill="none" stroke="white" stroke-width="1.5" d="M0,-3.0v7 M-2.5,-0.5L0,-3.0L2.5,-0.5"/>
                </g>
                <g id="arrowDown" xlink:href="#dirArrow" transform="rotate(180) translate(-30 -48)" onmousedown="handlePan(0,1)">
                  <use xlink:href="#rim" fill="#404040">
                        <set attributeName="fill" to="#808080" begin="arrowDown.mouseover" end="arrowDown.mouseout"/>
                  </use>
                  <path fill="none" stroke="white" stroke-width="1.5" d="M0,-3.0v7 M-2.5,-0.5L0,-3.0L2.5,-0.5"/>
                </g>
                <g id="arrowLeft" xlink:href="#dirArrow" transform="rotate(270) translate(-36 17)" onmousedown="handlePan(-1,0)">
                  <use xlink:href="#rim" fill="#404040">
                        <set attributeName="fill" to="#808080" begin="arrowLeft.mouseover" end="arrowLeft.mouseout"/>
                  </use>
                  <path fill="none" stroke="white" stroke-width="1.5" d="M0,-3.0v7 M-2.5,-0.5L0,-3.0L2.5,-0.5"/>
                </g>
        </g>
        <svg viewBox="0 0 15 15" width="100%" height="30px" preserveAspectRatio="xMaxYMin meet">
         <g id="arrow_out" transform="scale(0.3 0.3)">
          <a xlink:href="classcie_1_1utils_1_1Logger__coll__graph_org.svg" target="_base">
           <rect id="button" ry="5" rx="5" y="6" x="6" height="38" width="38"
                fill="#f2f5e9" fill-opacity="0.5" stroke="#606060" stroke-width="1.0"/>
           <path id="arrow"
             d="M 11.500037,31.436501 C 11.940474,20.09759 22.043105,11.32322 32.158766,21.979434 L 37.068811,17.246167 C 37.068811,17.246167 37.088388,32 37.088388,32 L 22.160133,31.978069 C 22.160133,31.978069 26.997745,27.140456 26.997745,27.140456 C 18.528582,18.264221 13.291696,25.230495 11.500037,31.436501 z"
             style="fill:#404040;"/>
          </a>
         </g>
        </svg>
</svg>
