<?xml version="1.0" encoding="UTF-8" standalone="no"?>
<!DOCTYPE svg PUBLIC "-//W3C//DTD SVG 1.1//EN"
 "http://www.w3.org/Graphics/SVG/1.1/DTD/svg11.dtd">
<!-- Generated by graphviz version 2.43.0 (0)
 -->
<!-- Title: cie::Exception Pages: 1 -->
<!--zoomable 467 -->

<svg id="main" version="1.1" xmlns="http://www.w3.org/2000/svg" xmlns:xlink="http://www.w3.org/1999/xlink" xml:space="preserve" onload="init(evt)">
<style type="text/css"><![CDATA[
.node, .edge {opacity: 0.7;}
.node.selected, .edge.selected {opacity: 1;}
.edge:hover path { stroke: red; }
.edge:hover polygon { stroke: red; fill: red; }
]]></style>

<defs>
  <circle id="rim" cx="0" cy="0" r="7"/>
  <circle id="rim2" cx="0" cy="0" r="3.5"/>
  <g id="zoomPlus">
    <use xlink:href="#rim" fill="#404040"><set attributeName="fill" to="#808080" begin="zoomplus.mouseover" end="zoomplus.mouseout"/></use>
    <path d="M-4,0h8M0,-4v8" fill="none" stroke="white" stroke-width="1.5" pointer-events="none"/>
  </g>
  <g id="zoomMin">
    <use xlink:href="#rim" fill="#404040"><set attributeName="fill" to="#808080" begin="zoomminus.mouseover" end="zoomminus.mouseout"/></use>
    <path d="M-4,0h8" fill="none" stroke="white" stroke-width="1.5" pointer-events="none"/>
  </g>
  <g id="arrowUp" transform="translate(30 24)">
    <use xlink:href="#rim"/>
    <path pointer-events="none" fill="none" stroke="white" stroke-width="1.5" d="M0,-3.0v7 M-2.5,-0.5L0,-3.0L2.5,-0.5"/>
  </g>
  <g id="arrowRight" transform="rotate(90) translate(36 -43)">
    <use xlink:href="#rim"/>
    <path pointer-events="none" fill="none" stroke="white" stroke-width="1.5" d="M0,-3.0v7 M-2.5,-0.5L0,-3.0L2.5,-0.5"/>
  </g>
  <g id="arrowDown" transform="rotate(180) translate(-30 -48)">
    <use xlink:href="#rim"/>
    <path pointer-events="none" fill="none" stroke="white" stroke-width="1.5" d="M0,-3.0v7 M-2.5,-0.5L0,-3.0L2.5,-0.5"/>
  </g>
  <g id="arrowLeft" transform="rotate(270) translate(-36 17)">
    <use xlink:href="#rim"/>
    <path pointer-events="none" fill="none" stroke="white" stroke-width="1.5" d="M0,-3.0v7 M-2.5,-0.5L0,-3.0L2.5,-0.5"/>
  </g>
  <g id="resetDef">
    <use xlink:href="#rim2" fill="#404040"><set attributeName="fill" to="#808080" begin="reset.mouseover" end="reset.mouseout"/></use>
  </g>
</defs>
<script type="application/ecmascript">
var viewWidth = 1067;
var viewHeight = 467;
var sectionId = 'dynsection-0';
</script>
<script type="application/ecmascript" xlink:href="svg.min.js"/>
<svg id="graph" class="graph">
<g id="viewport">
<title>cie::Exception</title>
<!-- Node1 -->
<g id="Node000001" class="node">
<title>Node1</title>
<g id="a_Node000001"><a xlink:title=" ">
<polygon fill="#999999" stroke="transparent" points="576.5,-374 491.5,-374 491.5,-130 576.5,-130 576.5,-374"/>
<text text-anchor="start" x="500" y="-362" font-family="Helvetica,sans-Serif" font-size="10.00">cie::Exception</text>
<text text-anchor="start" x="532.5" y="-347" font-family="Helvetica,sans-Serif" font-size="10.00"> </text>
<text text-anchor="start" x="496" y="-332" font-family="Helvetica,sans-Serif" font-size="10.00">+</text>
<text text-anchor="start" x="509" y="-332" font-family="Helvetica,sans-Serif" font-size="10.00">Exception()</text>
<text text-anchor="start" x="496" y="-317" font-family="Helvetica,sans-Serif" font-size="10.00">+</text>
<text text-anchor="start" x="509" y="-317" font-family="Helvetica,sans-Serif" font-size="10.00">Exception()</text>
<text text-anchor="start" x="496" y="-302" font-family="Helvetica,sans-Serif" font-size="10.00">+</text>
<text text-anchor="start" x="509" y="-302" font-family="Helvetica,sans-Serif" font-size="10.00">Exception()</text>
<text text-anchor="start" x="496" y="-287" font-family="Helvetica,sans-Serif" font-size="10.00">+</text>
<text text-anchor="start" x="509" y="-287" font-family="Helvetica,sans-Serif" font-size="10.00">Exception()</text>
<text text-anchor="start" x="496" y="-272" font-family="Helvetica,sans-Serif" font-size="10.00">+</text>
<text text-anchor="start" x="509" y="-272" font-family="Helvetica,sans-Serif" font-size="10.00">Exception()</text>
<text text-anchor="start" x="496" y="-257" font-family="Helvetica,sans-Serif" font-size="10.00">+</text>
<text text-anchor="start" x="509" y="-257" font-family="Helvetica,sans-Serif" font-size="10.00">Exception()</text>
<text text-anchor="start" x="496" y="-242" font-family="Helvetica,sans-Serif" font-size="10.00">+</text>
<text text-anchor="start" x="509" y="-242" font-family="Helvetica,sans-Serif" font-size="10.00">Exception()</text>
<text text-anchor="start" x="496" y="-227" font-family="Helvetica,sans-Serif" font-size="10.00">+</text>
<text text-anchor="start" x="509" y="-227" font-family="Helvetica,sans-Serif" font-size="10.00">Exception()</text>
<text text-anchor="start" x="496" y="-212" font-family="Helvetica,sans-Serif" font-size="10.00">+</text>
<text text-anchor="start" x="509" y="-212" font-family="Helvetica,sans-Serif" font-size="10.00">operator=()</text>
<text text-anchor="start" x="496" y="-197" font-family="Helvetica,sans-Serif" font-size="10.00">+</text>
<text text-anchor="start" x="509" y="-197" font-family="Helvetica,sans-Serif" font-size="10.00">operator=()</text>
<text text-anchor="start" x="496" y="-182" font-family="Helvetica,sans-Serif" font-size="10.00">+</text>
<text text-anchor="start" x="509" y="-182" font-family="Helvetica,sans-Serif" font-size="10.00">~Exception()</text>
<text text-anchor="start" x="496" y="-167" font-family="Helvetica,sans-Serif" font-size="10.00">+</text>
<text text-anchor="start" x="509" y="-167" font-family="Helvetica,sans-Serif" font-size="10.00">what()</text>
<text text-anchor="start" x="496" y="-152" font-family="Helvetica,sans-Serif" font-size="10.00">+</text>
<text text-anchor="start" x="509" y="-152" font-family="Helvetica,sans-Serif" font-size="10.00">name()</text>
<text text-anchor="start" x="496" y="-137" font-family="Helvetica,sans-Serif" font-size="10.00">+</text>
<text text-anchor="start" x="509" y="-137" font-family="Helvetica,sans-Serif" font-size="10.00">stackLevel()</text>
<polygon fill="#666666" stroke="#666666" points="492,-357 492,-357 577,-357 577,-357 492,-357"/>
<polygon fill="#666666" stroke="#666666" points="492,-342 492,-342 577,-342 577,-342 492,-342"/>
<polygon fill="none" stroke="#666666" points="491.5,-130 491.5,-374 576.5,-374 576.5,-130 491.5,-130"/>
</a>
</g>
</g>
<!-- Node3 -->
<g id="Node000003" class="node">
<title>Node3</title>
<g id="a_Node000003"><a xlink:href="structcie_1_1AbstractCallException.html" target="_top" xlink:title=" ">
<polygon fill="white" stroke="transparent" points="138,-94 0,-94 0,0 138,0 138,-94"/>
<text text-anchor="start" x="5" y="-82" font-family="Helvetica,sans-Serif" font-size="10.00">cie::AbstractCallException</text>
<text text-anchor="start" x="67" y="-67" font-family="Helvetica,sans-Serif" font-size="10.00"> </text>
<text text-anchor="start" x="4.5" y="-52" font-family="Helvetica,sans-Serif" font-size="10.00">+</text>
<text text-anchor="start" x="18" y="-52" font-family="Helvetica,sans-Serif" font-size="10.00">AbstractCallException()</text>
<text text-anchor="start" x="4.5" y="-37" font-family="Helvetica,sans-Serif" font-size="10.00">+</text>
<text text-anchor="start" x="18" y="-37" font-family="Helvetica,sans-Serif" font-size="10.00">AbstractCallException()</text>
<text text-anchor="start" x="4.5" y="-22" font-family="Helvetica,sans-Serif" font-size="10.00">+</text>
<text text-anchor="start" x="18" y="-22" font-family="Helvetica,sans-Serif" font-size="10.00">AbstractCallException()</text>
<text text-anchor="start" x="4.5" y="-7" font-family="Helvetica,sans-Serif" font-size="10.00">+</text>
<text text-anchor="start" x="18" y="-7" font-family="Helvetica,sans-Serif" font-size="10.00">name()</text>
<polygon fill="#666666" stroke="#666666" points="0,-77 0,-77 138,-77 138,-77 0,-77"/>
<polygon fill="#666666" stroke="#666666" points="0,-62 0,-62 138,-62 138,-62 0,-62"/>
<polygon fill="none" stroke="#666666" points="0,0 0,-94 138,-94 138,0 0,0"/>
</a>
</g>
</g>
<!-- Node1&#45;&gt;Node3 -->
<g id="edge2_Node000001_Node000003" class="edge">
<title>Node1&#45;&gt;Node3</title>
<g id="a_edge2_Node000001_Node000003"><a xlink:title=" ">
<path fill="none" stroke="#63b8ff" d="M481.56,-232.53C406.14,-205.34 263.32,-151.5 147,-94 144.04,-92.54 141.04,-91 138.03,-89.42"/>
<polygon fill="none" stroke="#63b8ff" points="480.71,-235.94 491.3,-236.03 483.07,-229.35 480.71,-235.94"/>
</a>
</g>
</g>
<!-- Node4 -->
<g id="Node000004" class="node">
<title>Node4</title>
<g id="a_Node000004"><a xlink:href="structcie_1_1DivisionByZeroException.html" target="_top" xlink:title=" ">
<polygon fill="white" stroke="transparent" points="310,-94 156,-94 156,0 310,0 310,-94"/>
<text text-anchor="start" x="161" y="-82" font-family="Helvetica,sans-Serif" font-size="10.00">cie::DivisionByZeroException</text>
<text text-anchor="start" x="231" y="-67" font-family="Helvetica,sans-Serif" font-size="10.00"> </text>
<text text-anchor="start" x="160.5" y="-52" font-family="Helvetica,sans-Serif" font-size="10.00">+</text>
<text text-anchor="start" x="174" y="-52" font-family="Helvetica,sans-Serif" font-size="10.00">DivisionByZeroException()</text>
<text text-anchor="start" x="160.5" y="-37" font-family="Helvetica,sans-Serif" font-size="10.00">+</text>
<text text-anchor="start" x="174" y="-37" font-family="Helvetica,sans-Serif" font-size="10.00">DivisionByZeroException()</text>
<text text-anchor="start" x="160.5" y="-22" font-family="Helvetica,sans-Serif" font-size="10.00">+</text>
<text text-anchor="start" x="174" y="-22" font-family="Helvetica,sans-Serif" font-size="10.00">DivisionByZeroException()</text>
<text text-anchor="start" x="160.5" y="-7" font-family="Helvetica,sans-Serif" font-size="10.00">+</text>
<text text-anchor="start" x="174" y="-7" font-family="Helvetica,sans-Serif" font-size="10.00">name()</text>
<polygon fill="#666666" stroke="#666666" points="156,-77 156,-77 310,-77 310,-77 156,-77"/>
<polygon fill="#666666" stroke="#666666" points="156,-62 156,-62 310,-62 310,-62 156,-62"/>
<polygon fill="none" stroke="#666666" points="156,0 156,-94 310,-94 310,0 156,0"/>
</a>
</g>
</g>
<!-- Node1&#45;&gt;Node4 -->
<g id="edge3_Node000001_Node000004" class="edge">
<title>Node1&#45;&gt;Node4</title>
<g id="a_edge3_Node000001_Node000004"><a xlink:title=" ">
<path fill="none" stroke="#63b8ff" d="M482.79,-216.46C432.78,-182.73 356.35,-131.19 301.21,-94"/>
<polygon fill="none" stroke="#63b8ff" points="480.95,-219.44 491.19,-222.13 484.86,-213.64 480.95,-219.44"/>
</a>
</g>
</g>
<!-- Node5 -->
<g id="Node000005" class="node">
<title>Node5</title>
<g id="a_Node000005"><a xlink:href="structcie_1_1GeometryException.html" target="_top" xlink:title=" ">
<polygon fill="white" stroke="transparent" points="456,-94 328,-94 328,0 456,0 456,-94"/>
<text text-anchor="start" x="333" y="-82" font-family="Helvetica,sans-Serif" font-size="10.00">cie::GeometryException</text>
<text text-anchor="start" x="390" y="-67" font-family="Helvetica,sans-Serif" font-size="10.00"> </text>
<text text-anchor="start" x="332.5" y="-52" font-family="Helvetica,sans-Serif" font-size="10.00">+</text>
<text text-anchor="start" x="346" y="-52" font-family="Helvetica,sans-Serif" font-size="10.00">GeometryException()</text>
<text text-anchor="start" x="332.5" y="-37" font-family="Helvetica,sans-Serif" font-size="10.00">+</text>
<text text-anchor="start" x="346" y="-37" font-family="Helvetica,sans-Serif" font-size="10.00">GeometryException()</text>
<text text-anchor="start" x="332.5" y="-22" font-family="Helvetica,sans-Serif" font-size="10.00">+</text>
<text text-anchor="start" x="346" y="-22" font-family="Helvetica,sans-Serif" font-size="10.00">GeometryException()</text>
<text text-anchor="start" x="332.5" y="-7" font-family="Helvetica,sans-Serif" font-size="10.00">+</text>
<text text-anchor="start" x="346" y="-7" font-family="Helvetica,sans-Serif" font-size="10.00">name()</text>
<polygon fill="#666666" stroke="#666666" points="328,-77 328,-77 456,-77 456,-77 328,-77"/>
<polygon fill="#666666" stroke="#666666" points="328,-62 328,-62 456,-62 456,-62 328,-62"/>
<polygon fill="none" stroke="#666666" points="328,0 328,-94 456,-94 456,0 328,0"/>
</a>
</g>
</g>
<!-- Node1&#45;&gt;Node5 -->
<g id="edge4_Node000001_Node000005" class="edge">
<title>Node1&#45;&gt;Node5</title>
<g id="a_edge4_Node000001_Node000005"><a xlink:title=" ">
<path fill="none" stroke="#63b8ff" d="M485.49,-181.65C465.25,-152.71 442.29,-119.89 424.19,-94.02"/>
<polygon fill="none" stroke="#63b8ff" points="482.8,-183.91 491.4,-190.09 488.53,-179.89 482.8,-183.91"/>
</a>
</g>
</g>
<!-- Node6 -->
<g id="Node000006" class="node">
<title>Node6</title>
<g id="a_Node000006"><a xlink:href="structcie_1_1MemoryException.html" target="_top" xlink:title=" ">
<polygon fill="white" stroke="transparent" points="593.5,-94 474.5,-94 474.5,0 593.5,0 593.5,-94"/>
<text text-anchor="start" x="480" y="-82" font-family="Helvetica,sans-Serif" font-size="10.00">cie::MemoryException</text>
<text text-anchor="start" x="532.5" y="-67" font-family="Helvetica,sans-Serif" font-size="10.00"> </text>
<text text-anchor="start" x="479" y="-52" font-family="Helvetica,sans-Serif" font-size="10.00">+</text>
<text text-anchor="start" x="492" y="-52" font-family="Helvetica,sans-Serif" font-size="10.00">MemoryException()</text>
<text text-anchor="start" x="479" y="-37" font-family="Helvetica,sans-Serif" font-size="10.00">+</text>
<text text-anchor="start" x="492" y="-37" font-family="Helvetica,sans-Serif" font-size="10.00">MemoryException()</text>
<text text-anchor="start" x="479" y="-22" font-family="Helvetica,sans-Serif" font-size="10.00">+</text>
<text text-anchor="start" x="492" y="-22" font-family="Helvetica,sans-Serif" font-size="10.00">MemoryException()</text>
<text text-anchor="start" x="479" y="-7" font-family="Helvetica,sans-Serif" font-size="10.00">+</text>
<text text-anchor="start" x="492" y="-7" font-family="Helvetica,sans-Serif" font-size="10.00">name()</text>
<polygon fill="#666666" stroke="#666666" points="475,-77 475,-77 594,-77 594,-77 475,-77"/>
<polygon fill="#666666" stroke="#666666" points="475,-62 475,-62 594,-62 594,-62 475,-62"/>
<polygon fill="none" stroke="#666666" points="474.5,0 474.5,-94 593.5,-94 593.5,0 474.5,0"/>
</a>
</g>
</g>
<!-- Node1&#45;&gt;Node6 -->
<g id="edge5_Node000001_Node000006" class="edge">
<title>Node1&#45;&gt;Node6</title>
<g id="a_edge5_Node000001_Node000006"><a xlink:title=" ">
<path fill="none" stroke="#63b8ff" d="M534,-119.78C534,-110.86 534,-102.28 534,-94.34"/>
<polygon fill="none" stroke="#63b8ff" points="530.5,-119.98 534,-129.98 537.5,-119.98 530.5,-119.98"/>
</a>
</g>
</g>
<!-- Node7 -->
<g id="Node000007" class="node">
<title>Node7</title>
<g id="a_Node000007"><a xlink:href="structcie_1_1NotImplementedException.html" target="_top" xlink:title=" ">
<polygon fill="white" stroke="transparent" points="772.5,-94 611.5,-94 611.5,0 772.5,0 772.5,-94"/>
<text text-anchor="start" x="617" y="-82" font-family="Helvetica,sans-Serif" font-size="10.00">cie::NotImplementedException</text>
<text text-anchor="start" x="690.5" y="-67" font-family="Helvetica,sans-Serif" font-size="10.00"> </text>
<text text-anchor="start" x="616" y="-52" font-family="Helvetica,sans-Serif" font-size="10.00">+</text>
<text text-anchor="start" x="629" y="-52" font-family="Helvetica,sans-Serif" font-size="10.00">NotImplementedException()</text>
<text text-anchor="start" x="616" y="-37" font-family="Helvetica,sans-Serif" font-size="10.00">+</text>
<text text-anchor="start" x="629" y="-37" font-family="Helvetica,sans-Serif" font-size="10.00">NotImplementedException()</text>
<text text-anchor="start" x="616" y="-22" font-family="Helvetica,sans-Serif" font-size="10.00">+</text>
<text text-anchor="start" x="629" y="-22" font-family="Helvetica,sans-Serif" font-size="10.00">NotImplementedException()</text>
<text text-anchor="start" x="616" y="-7" font-family="Helvetica,sans-Serif" font-size="10.00">+</text>
<text text-anchor="start" x="629" y="-7" font-family="Helvetica,sans-Serif" font-size="10.00">name()</text>
<polygon fill="#666666" stroke="#666666" points="612,-77 612,-77 773,-77 773,-77 612,-77"/>
<polygon fill="#666666" stroke="#666666" points="612,-62 612,-62 773,-62 773,-62 612,-62"/>
<polygon fill="none" stroke="#666666" points="611.5,0 611.5,-94 772.5,-94 772.5,0 611.5,0"/>
</a>
</g>
</g>
<!-- Node1&#45;&gt;Node7 -->
<g id="edge6_Node000001_Node000007" class="edge">
<title>Node1&#45;&gt;Node7</title>
<g id="a_edge6_Node000001_Node000007"><a xlink:title=" ">
<path fill="none" stroke="#63b8ff" d="M582.78,-188.32C606.45,-157.91 634.38,-122.03 656.07,-94.17"/>
<polygon fill="none" stroke="#63b8ff" points="579.93,-186.29 576.55,-196.33 585.45,-190.59 579.93,-186.29"/>
</a>
</g>
</g>
<!-- Node8 -->
<g id="Node000008" class="node">
<title>Node8</title>
<g id="a_Node000008"><a xlink:href="structcie_1_1NullPtrException.html" target="_top" xlink:title=" ">
<polygon fill="white" stroke="transparent" points="903,-94 791,-94 791,0 903,0 903,-94"/>
<text text-anchor="start" x="796" y="-82" font-family="Helvetica,sans-Serif" font-size="10.00">cie::NullPtrException</text>
<text text-anchor="start" x="845" y="-67" font-family="Helvetica,sans-Serif" font-size="10.00"> </text>
<text text-anchor="start" x="795.5" y="-52" font-family="Helvetica,sans-Serif" font-size="10.00">+</text>
<text text-anchor="start" x="809" y="-52" font-family="Helvetica,sans-Serif" font-size="10.00">NullPtrException()</text>
<text text-anchor="start" x="795.5" y="-37" font-family="Helvetica,sans-Serif" font-size="10.00">+</text>
<text text-anchor="start" x="809" y="-37" font-family="Helvetica,sans-Serif" font-size="10.00">NullPtrException()</text>
<text text-anchor="start" x="795.5" y="-22" font-family="Helvetica,sans-Serif" font-size="10.00">+</text>
<text text-anchor="start" x="809" y="-22" font-family="Helvetica,sans-Serif" font-size="10.00">NullPtrException()</text>
<text text-anchor="start" x="795.5" y="-7" font-family="Helvetica,sans-Serif" font-size="10.00">+</text>
<text text-anchor="start" x="809" y="-7" font-family="Helvetica,sans-Serif" font-size="10.00">name()</text>
<polygon fill="#666666" stroke="#666666" points="791,-77 791,-77 903,-77 903,-77 791,-77"/>
<polygon fill="#666666" stroke="#666666" points="791,-62 791,-62 903,-62 903,-62 791,-62"/>
<polygon fill="none" stroke="#666666" points="791,0 791,-94 903,-94 903,0 791,0"/>
</a>
</g>
</g>
<!-- Node1&#45;&gt;Node8 -->
<g id="edge7_Node000001_Node000008" class="edge">
<title>Node1&#45;&gt;Node8</title>
<g id="a_edge7_Node000001_Node000008"><a xlink:title=" ">
<path fill="none" stroke="#63b8ff" d="M585.33,-219.58C635.83,-188.41 714.9,-138.94 782,-94 784.87,-92.08 787.8,-90.09 790.75,-88.07"/>
<polygon fill="none" stroke="#63b8ff" points="583.23,-216.76 576.55,-224.99 586.9,-222.72 583.23,-216.76"/>
</a>
</g>
</g>
<!-- Node9 -->
<g id="Node000009" class="node">
<title>Node9</title>
<g id="a_Node000009"><a xlink:href="structcie_1_1OutOfRangeException.html" target="_top" xlink:title=" ">
<polygon fill="white" stroke="transparent" points="1059,-94 921,-94 921,0 1059,0 1059,-94"/>
<text text-anchor="start" x="926" y="-82" font-family="Helvetica,sans-Serif" font-size="10.00">cie::OutOfRangeException</text>
<text text-anchor="start" x="988" y="-67" font-family="Helvetica,sans-Serif" font-size="10.00"> </text>
<text text-anchor="start" x="925.5" y="-52" font-family="Helvetica,sans-Serif" font-size="10.00">+</text>
<text text-anchor="start" x="939" y="-52" font-family="Helvetica,sans-Serif" font-size="10.00">OutOfRangeException()</text>
<text text-anchor="start" x="925.5" y="-37" font-family="Helvetica,sans-Serif" font-size="10.00">+</text>
<text text-anchor="start" x="939" y="-37" font-family="Helvetica,sans-Serif" font-size="10.00">OutOfRangeException()</text>
<text text-anchor="start" x="925.5" y="-22" font-family="Helvetica,sans-Serif" font-size="10.00">+</text>
<text text-anchor="start" x="939" y="-22" font-family="Helvetica,sans-Serif" font-size="10.00">OutOfRangeException()</text>
<text text-anchor="start" x="925.5" y="-7" font-family="Helvetica,sans-Serif" font-size="10.00">+</text>
<text text-anchor="start" x="939" y="-7" font-family="Helvetica,sans-Serif" font-size="10.00">name()</text>
<polygon fill="#666666" stroke="#666666" points="921,-77 921,-77 1059,-77 1059,-77 921,-77"/>
<polygon fill="#666666" stroke="#666666" points="921,-62 921,-62 1059,-62 1059,-62 921,-62"/>
<polygon fill="none" stroke="#666666" points="921,0 921,-94 1059,-94 1059,0 921,0"/>
</a>
</g>
</g>
<!-- Node1&#45;&gt;Node9 -->
<g id="edge8_Node000001_Node000009" class="edge">
<title>Node1&#45;&gt;Node9</title>
<g id="a_edge8_Node000001_Node000009"><a xlink:title=" ">
<path fill="none" stroke="#63b8ff" d="M586.07,-232.01C659.91,-204.5 798.69,-150.6 912,-94 914.95,-92.52 917.95,-90.98 920.95,-89.39"/>
<polygon fill="none" stroke="#63b8ff" points="584.68,-228.8 576.52,-235.56 587.12,-235.36 584.68,-228.8"/>
</a>
</g>
</g>
<!-- Node2 -->
<g id="Node000002" class="node">
<title>Node2</title>
<g id="a_Node000002"><a xlink:title=" ">
<polygon fill="white" stroke="transparent" points="574,-459 494,-459 494,-410 574,-410 574,-459"/>
<text text-anchor="start" x="499" y="-446.5" font-family="Helvetica,sans-Serif" font-size="10.00">std::exception</text>
<text text-anchor="start" x="532" y="-431.5" font-family="Helvetica,sans-Serif" font-size="10.00"> </text>
<text text-anchor="start" x="532" y="-416.5" font-family="Helvetica,sans-Serif" font-size="10.00"> </text>
<polygon fill="#666666" stroke="#666666" points="494,-441.5 494,-441.5 574,-441.5 574,-441.5 494,-441.5"/>
<polygon fill="#666666" stroke="#666666" points="494,-426.5 494,-426.5 574,-426.5 574,-426.5 494,-426.5"/>
<polygon fill="none" stroke="#666666" points="494,-410 494,-459 574,-459 574,-410 494,-410"/>
</a>
</g>
</g>
<!-- Node2&#45;&gt;Node1 -->
<g id="edge1_Node000001_Node000002" class="edge">
<title>Node2&#45;&gt;Node1</title>
<g id="a_edge1_Node000001_Node000002"><a xlink:title=" ">
<path fill="none" stroke="#63b8ff" d="M534,-399.65C534,-391.93 534,-383.29 534,-374.18"/>
<polygon fill="none" stroke="#63b8ff" points="530.5,-399.9 534,-409.9 537.5,-399.9 530.5,-399.9"/>
</a>
</g>
</g>
</g>
</svg>

<g id="navigator" transform="translate(0 0)" fill="#404254">
  <rect fill="#f2f5e9" fill-opacity="0.5" stroke="#606060" stroke-width=".5" x="0" y="0" width="60" height="60"/>
  <use id="zoomplus" xlink:href="#zoomPlus" x="17" y="9" onmousedown="handleZoom(evt,'in')"/>
  <use id="zoomminus" xlink:href="#zoomMin" x="42" y="9" onmousedown="handleZoom(evt,'out')"/>
  <use id="reset" xlink:href="#resetDef" x="30" y="36" onmousedown="handleReset()"/>
   <use id="arrowup" xlink:href="#arrowUp" x="0" y="0" onmousedown="handlePan(0,-1)"/>
  <use id="arrowright" xlink:href="#arrowRight" x="0" y="0" onmousedown="handlePan(1,0)"/>
  <use id="arrowdown" xlink:href="#arrowDown" x="0" y="0" onmousedown="handlePan(0,1)"/>
  <use id="arrowleft" xlink:href="#arrowLeft" x="0" y="0" onmousedown="handlePan(-1,0)"/>
</g>
<svg viewBox="0 0 15 15" width="100%" height="30px" preserveAspectRatio="xMaxYMin meet">
 <g id="arrow_out" transform="scale(0.3 0.3)">
  <a xlink:href="classcie_1_1Exception__inherit__graph_org.svg" target="_base">
   <rect id="button" ry="5" rx="5" y="6" x="6" height="38" width="38"
        fill="#f2f5e9" fill-opacity="0.5" stroke="#606060" stroke-width="1.0"/>
   <path id="arrow"
     d="M 11.500037,31.436501 C 11.940474,20.09759 22.043105,11.32322 32.158766,21.979434 L 37.068811,17.246167 C 37.068811,17.246167 37.088388,32 37.088388,32 L 22.160133,31.978069 C 22.160133,31.978069 26.997745,27.140456 26.997745,27.140456 C 18.528582,18.264221 13.291696,25.230495 11.500037,31.436501 z"
     style="fill:#404040;"/>
  </a>
 </g>
</svg>

<style type='text/css'>
<![CDATA[
[data-mouse-over-selected='false'] { opacity: 0.7; }
[data-mouse-over-selected='true']  { opacity: 1.0; }
]]>
</style>
<script type="application/ecmascript"><![CDATA[
document.addEventListener('DOMContentLoaded', (event) => {
  highlightEdges();
  highlightAdjacentNodes();
});
]]></script>
</svg>
