<?xml version="1.0" encoding="UTF-8" standalone="no"?>
<!DOCTYPE svg PUBLIC "-//W3C//DTD SVG 1.1//EN"
 "http://www.w3.org/Graphics/SVG/1.1/DTD/svg11.dtd">
<!-- Generated by graphviz version 2.43.0 (0)
 -->
<!-- Title: cie::utils::Profiler&lt; TTimeUnit &gt; Pages: 1 -->
<svg width="100pt" height="158pt"
 viewBox="0.00 0.00 100.00 158.00" xmlns="http://www.w3.org/2000/svg" xmlns:xlink="http://www.w3.org/1999/xlink">
<g id="graph0" class="graph" transform="scale(1 1) rotate(0) translate(4 154)">
<title>cie::utils::Profiler&lt; TTimeUnit &gt;</title>
<!-- Node1 -->
<g id="Node000001" class="node">
<title>Node1</title>
<g id="a_Node000001"><a xlink:title=" ">
<polygon fill="#999999" stroke="transparent" points="92,-150 0,-150 0,0 92,0 92,-150"/>
<text text-anchor="start" x="5" y="-138" font-family="Helvetica,sans-Serif" font-size="10.00">cie::utils::Profiler</text>
<text text-anchor="start" x="9" y="-127" font-family="Helvetica,sans-Serif" font-size="10.00">&lt; TTimeUnit &gt;</text>
<text text-anchor="start" x="44" y="-112" font-family="Helvetica,sans-Serif" font-size="10.00"> </text>
<text text-anchor="start" x="7" y="-97" font-family="Helvetica,sans-Serif" font-size="10.00">+</text>
<text text-anchor="start" x="23" y="-97" font-family="Helvetica,sans-Serif" font-size="10.00">Profiler()</text>
<text text-anchor="start" x="7" y="-82" font-family="Helvetica,sans-Serif" font-size="10.00">+</text>
<text text-anchor="start" x="23" y="-82" font-family="Helvetica,sans-Serif" font-size="10.00">Profiler()</text>
<text text-anchor="start" x="7" y="-67" font-family="Helvetica,sans-Serif" font-size="10.00">+</text>
<text text-anchor="start" x="23" y="-67" font-family="Helvetica,sans-Serif" font-size="10.00">Profiler()</text>
<text text-anchor="start" x="7" y="-52" font-family="Helvetica,sans-Serif" font-size="10.00">+</text>
<text text-anchor="start" x="23" y="-52" font-family="Helvetica,sans-Serif" font-size="10.00">~Profiler()</text>
<text text-anchor="start" x="7" y="-37" font-family="Helvetica,sans-Serif" font-size="10.00">+</text>
<text text-anchor="start" x="23" y="-37" font-family="Helvetica,sans-Serif" font-size="10.00">operator=()</text>
<text text-anchor="start" x="7" y="-22" font-family="Helvetica,sans-Serif" font-size="10.00">+</text>
<text text-anchor="start" x="23" y="-22" font-family="Helvetica,sans-Serif" font-size="10.00">create()</text>
<text text-anchor="start" x="7" y="-7" font-family="Helvetica,sans-Serif" font-size="10.00">+</text>
<text text-anchor="start" x="23" y="-7" font-family="Helvetica,sans-Serif" font-size="10.00">profile()</text>
<polygon fill="#666666" stroke="#666666" points="0,-122 0,-122 92,-122 92,-122 0,-122"/>
<polygon fill="#666666" stroke="#666666" points="0,-107 0,-107 92,-107 92,-107 0,-107"/>
<polygon fill="none" stroke="#666666" points="0,0 0,-150 92,-150 92,0 0,0"/>
</a>
</g>
</g>
</g>
</svg>
