<?xml version="1.0" encoding="UTF-8" standalone="no"?>
<!DOCTYPE svg PUBLIC "-//W3C//DTD SVG 1.1//EN"
 "http://www.w3.org/Graphics/SVG/1.1/DTD/svg11.dtd">
<!-- Generated by graphviz version 2.43.0 (0)
 -->
<!-- Title: cie::mp::DynamicIndexPartitionFactory Pages: 1 -->
<svg width="192pt" height="258pt"
 viewBox="0.00 0.00 192.00 258.00" xmlns="http://www.w3.org/2000/svg" xmlns:xlink="http://www.w3.org/1999/xlink">

<svg id="main" version="1.1" xmlns="http://www.w3.org/2000/svg" xmlns:xlink="http://www.w3.org/1999/xlink" xml:space="preserve" onload="init(evt)">
<style type="text/css"><![CDATA[
.node, .edge {opacity: 0.7;}
.node.selected, .edge.selected {opacity: 1;}
.edge:hover path { stroke: red; }
.edge:hover polygon { stroke: red; fill: red; }
]]></style>
<script type="application/ecmascript" xlink:href="svg.min.js"/>
<svg id="graph" class="graph">
<g id="graph0" class="graph" transform="scale(1 1) rotate(0) translate(4 254)">
<title>cie::mp::DynamicIndexPartitionFactory</title>
<!-- Node1 -->
<g id="Node000001" class="node">
<title>Node1</title>
<g id="a_Node000001"><a xlink:title=" ">
<polygon fill="#999999" stroke="transparent" points="184,-120 0,-120 0,0 184,0 184,-120"/>
<text text-anchor="start" x="15" y="-108" font-family="Helvetica,sans-Serif" font-size="10.00">cie::mp::DynamicIndexPartition</text>
<text text-anchor="start" x="74" y="-97" font-family="Helvetica,sans-Serif" font-size="10.00">Factory</text>
<text text-anchor="start" x="90" y="-82" font-family="Helvetica,sans-Serif" font-size="10.00"> </text>
<text text-anchor="start" x="4" y="-67" font-family="Helvetica,sans-Serif" font-size="10.00">+</text>
<text text-anchor="start" x="17" y="-67" font-family="Helvetica,sans-Serif" font-size="10.00">DynamicIndexPartitionFactory()</text>
<text text-anchor="start" x="4" y="-52" font-family="Helvetica,sans-Serif" font-size="10.00">+</text>
<text text-anchor="start" x="17" y="-52" font-family="Helvetica,sans-Serif" font-size="10.00">DynamicIndexPartitionFactory()</text>
<text text-anchor="start" x="4" y="-37" font-family="Helvetica,sans-Serif" font-size="10.00">+</text>
<text text-anchor="start" x="17" y="-37" font-family="Helvetica,sans-Serif" font-size="10.00">~DynamicIndexPartitionFactory()</text>
<text text-anchor="start" x="4" y="-22" font-family="Helvetica,sans-Serif" font-size="10.00">+</text>
<text text-anchor="start" x="17" y="-22" font-family="Helvetica,sans-Serif" font-size="10.00">size()</text>
<text text-anchor="start" x="4" y="-7" font-family="Helvetica,sans-Serif" font-size="10.00">+</text>
<text text-anchor="start" x="17" y="-7" font-family="Helvetica,sans-Serif" font-size="10.00">getPartition()</text>
<polygon fill="#666666" stroke="#666666" points="0,-92 0,-92 184,-92 184,-92 0,-92"/>
<polygon fill="#666666" stroke="#666666" points="0,-77 0,-77 184,-77 184,-77 0,-77"/>
<polygon fill="none" stroke="#666666" points="0,0 0,-120 184,-120 184,0 0,0"/>
</a>
</g>
</g>
<!-- Node2 -->
<g id="Node000002" class="node">
<title>Node2</title>
<g id="a_Node000002"><a xlink:href="structcie_1_1mp_1_1IndexPartitionFactory.html" target="_top" xlink:title=" ">
<polygon fill="white" stroke="transparent" points="169.5,-250 14.5,-250 14.5,-156 169.5,-156 169.5,-250"/>
<text text-anchor="start" x="20" y="-238" font-family="Helvetica,sans-Serif" font-size="10.00">cie::mp::IndexPartitionFactory</text>
<text text-anchor="start" x="90.5" y="-223" font-family="Helvetica,sans-Serif" font-size="10.00"> </text>
<text text-anchor="start" x="22.5" y="-208" font-family="Helvetica,sans-Serif" font-size="10.00">+</text>
<text text-anchor="start" x="39" y="-208" font-family="Helvetica,sans-Serif" font-size="10.00">size()</text>
<text text-anchor="start" x="22.5" y="-193" font-family="Helvetica,sans-Serif" font-size="10.00">+</text>
<text text-anchor="start" x="39" y="-193" font-family="Helvetica,sans-Serif" font-size="10.00">empty()</text>
<text text-anchor="start" x="22.5" y="-178" font-family="Helvetica,sans-Serif" font-size="10.00">+</text>
<text text-anchor="start" x="39" y="-178" font-family="Helvetica,sans-Serif" font-size="10.00">getPartition()</text>
<text text-anchor="start" x="22.5" y="-163" font-family="Helvetica,sans-Serif" font-size="10.00">+</text>
<text text-anchor="start" x="39" y="-163" font-family="Helvetica,sans-Serif" font-size="10.00">~IndexPartitionFactory()</text>
<polygon fill="#666666" stroke="#666666" points="15,-233 15,-233 170,-233 170,-233 15,-233"/>
<polygon fill="#666666" stroke="#666666" points="15,-218 15,-218 170,-218 170,-218 15,-218"/>
<polygon fill="none" stroke="#666666" points="14.5,-156 14.5,-250 169.5,-250 169.5,-156 14.5,-156"/>
</a>
</g>
</g>
<!-- Node2&#45;&gt;Node1 -->
<g id="edge1_Node000001_Node000002" class="edge">
<title>Node2&#45;&gt;Node1</title>
<g id="a_edge1_Node000001_Node000002"><a xlink:title=" ">
<path fill="none" stroke="#63b8ff" d="M92,-145.73C92,-137.31 92,-128.61 92,-120.13"/>
<polygon fill="none" stroke="#63b8ff" points="88.5,-145.83 92,-155.83 95.5,-145.83 88.5,-145.83"/>
</a>
</g>
</g>
</g>
</svg>
</svg>

<style type='text/css'>
<![CDATA[
[data-mouse-over-selected='false'] { opacity: 0.7; }
[data-mouse-over-selected='true']  { opacity: 1.0; }
]]>
</style>
<script type="application/ecmascript"><![CDATA[
document.addEventListener('DOMContentLoaded', (event) => {
  highlightEdges();
  highlightAdjacentNodes();
});
]]></script>
</svg>
