<?xml version="1.0" encoding="UTF-8" standalone="no"?>
<!DOCTYPE svg PUBLIC "-//W3C//DTD SVG 1.1//EN"
 "http://www.w3.org/Graphics/SVG/1.1/DTD/svg11.dtd">
<!-- Generated by graphviz version 2.43.0 (0)
 -->
<!-- Title: cie::utils::Logger Pages: 1 -->
<!--zoomable 614 -->

<svg id="main" version="1.1" xmlns="http://www.w3.org/2000/svg" xmlns:xlink="http://www.w3.org/1999/xlink" xml:space="preserve" onload="init(evt)">
<style type="text/css"><![CDATA[
.node, .edge {opacity: 0.7;}
.node.selected, .edge.selected {opacity: 1;}
.edge:hover path { stroke: red; }
.edge:hover polygon { stroke: red; fill: red; }
]]></style>

<defs>
  <circle id="rim" cx="0" cy="0" r="7"/>
  <circle id="rim2" cx="0" cy="0" r="3.5"/>
  <g id="zoomPlus">
    <use xlink:href="#rim" fill="#404040"><set attributeName="fill" to="#808080" begin="zoomplus.mouseover" end="zoomplus.mouseout"/></use>
    <path d="M-4,0h8M0,-4v8" fill="none" stroke="white" stroke-width="1.5" pointer-events="none"/>
  </g>
  <g id="zoomMin">
    <use xlink:href="#rim" fill="#404040"><set attributeName="fill" to="#808080" begin="zoomminus.mouseover" end="zoomminus.mouseout"/></use>
    <path d="M-4,0h8" fill="none" stroke="white" stroke-width="1.5" pointer-events="none"/>
  </g>
  <g id="arrowUp" transform="translate(30 24)">
    <use xlink:href="#rim"/>
    <path pointer-events="none" fill="none" stroke="white" stroke-width="1.5" d="M0,-3.0v7 M-2.5,-0.5L0,-3.0L2.5,-0.5"/>
  </g>
  <g id="arrowRight" transform="rotate(90) translate(36 -43)">
    <use xlink:href="#rim"/>
    <path pointer-events="none" fill="none" stroke="white" stroke-width="1.5" d="M0,-3.0v7 M-2.5,-0.5L0,-3.0L2.5,-0.5"/>
  </g>
  <g id="arrowDown" transform="rotate(180) translate(-30 -48)">
    <use xlink:href="#rim"/>
    <path pointer-events="none" fill="none" stroke="white" stroke-width="1.5" d="M0,-3.0v7 M-2.5,-0.5L0,-3.0L2.5,-0.5"/>
  </g>
  <g id="arrowLeft" transform="rotate(270) translate(-36 17)">
    <use xlink:href="#rim"/>
    <path pointer-events="none" fill="none" stroke="white" stroke-width="1.5" d="M0,-3.0v7 M-2.5,-0.5L0,-3.0L2.5,-0.5"/>
  </g>
  <g id="resetDef">
    <use xlink:href="#rim2" fill="#404040"><set attributeName="fill" to="#808080" begin="reset.mouseover" end="reset.mouseout"/></use>
  </g>
</defs>
<script type="application/ecmascript">
var viewWidth = 628;
var viewHeight = 614;
var sectionId = 'dynsection-1';
</script>
<script type="application/ecmascript" xlink:href="svg.min.js"/>
<svg id="graph" class="graph">
<g id="viewport">
<title>cie::utils::Logger</title>
<!-- Node1 -->
<g id="Node000001" class="node">
<title>Node1</title>
<g id="a_Node000001"><a xlink:title=" ">
<polygon fill="#999999" stroke="transparent" points="491.5,-274 352.5,-274 352.5,0 491.5,0 491.5,-274"/>
<text text-anchor="start" x="382" y="-262" font-family="Helvetica,sans-Serif" font-size="10.00">cie::utils::Logger</text>
<text text-anchor="start" x="420.5" y="-247" font-family="Helvetica,sans-Serif" font-size="10.00"> </text>
<text text-anchor="start" x="357" y="-232" font-family="Helvetica,sans-Serif" font-size="10.00">+</text>
<text text-anchor="start" x="370" y="-232" font-family="Helvetica,sans-Serif" font-size="10.00">Logger()</text>
<text text-anchor="start" x="357" y="-217" font-family="Helvetica,sans-Serif" font-size="10.00">+</text>
<text text-anchor="start" x="370" y="-217" font-family="Helvetica,sans-Serif" font-size="10.00">Logger()</text>
<text text-anchor="start" x="357" y="-202" font-family="Helvetica,sans-Serif" font-size="10.00">+</text>
<text text-anchor="start" x="370" y="-202" font-family="Helvetica,sans-Serif" font-size="10.00">Logger()</text>
<text text-anchor="start" x="357" y="-187" font-family="Helvetica,sans-Serif" font-size="10.00">+</text>
<text text-anchor="start" x="370" y="-187" font-family="Helvetica,sans-Serif" font-size="10.00">~Logger()</text>
<text text-anchor="start" x="357" y="-172" font-family="Helvetica,sans-Serif" font-size="10.00">+</text>
<text text-anchor="start" x="370" y="-172" font-family="Helvetica,sans-Serif" font-size="10.00">write()</text>
<text text-anchor="start" x="357" y="-157" font-family="Helvetica,sans-Serif" font-size="10.00">+</text>
<text text-anchor="start" x="370" y="-157" font-family="Helvetica,sans-Serif" font-size="10.00">newBlock()</text>
<text text-anchor="start" x="357" y="-142" font-family="Helvetica,sans-Serif" font-size="10.00">+</text>
<text text-anchor="start" x="370" y="-142" font-family="Helvetica,sans-Serif" font-size="10.00">addStream()</text>
<text text-anchor="start" x="357" y="-127" font-family="Helvetica,sans-Serif" font-size="10.00">+</text>
<text text-anchor="start" x="370" y="-127" font-family="Helvetica,sans-Serif" font-size="10.00">removeStream()</text>
<text text-anchor="start" x="357" y="-112" font-family="Helvetica,sans-Serif" font-size="10.00">+</text>
<text text-anchor="start" x="370" y="-112" font-family="Helvetica,sans-Serif" font-size="10.00">forceFlush()</text>
<text text-anchor="start" x="357" y="-97" font-family="Helvetica,sans-Serif" font-size="10.00">+</text>
<text text-anchor="start" x="370" y="-97" font-family="Helvetica,sans-Serif" font-size="10.00">log()</text>
<text text-anchor="start" x="370" y="-82" font-family="Helvetica,sans-Serif" font-size="10.00">and 11 more...</text>
<text text-anchor="start" x="357" y="-67" font-family="Helvetica,sans-Serif" font-size="10.00">#</text>
<text text-anchor="start" x="370" y="-67" font-family="Helvetica,sans-Serif" font-size="10.00">streamInsertOperation()</text>
<text text-anchor="start" x="357" y="-52" font-family="Helvetica,sans-Serif" font-size="10.00">#</text>
<text text-anchor="start" x="370" y="-52" font-family="Helvetica,sans-Serif" font-size="10.00">flush()</text>
<text text-anchor="start" x="357" y="-37" font-family="Helvetica,sans-Serif" font-size="10.00">#</text>
<text text-anchor="start" x="370" y="-37" font-family="Helvetica,sans-Serif" font-size="10.00">preWrite()</text>
<text text-anchor="start" x="357" y="-22" font-family="Helvetica,sans-Serif" font-size="10.00">#</text>
<text text-anchor="start" x="370" y="-22" font-family="Helvetica,sans-Serif" font-size="10.00">postWrite()</text>
<text text-anchor="start" x="357" y="-7" font-family="Helvetica,sans-Serif" font-size="10.00">#</text>
<text text-anchor="start" x="370" y="-7" font-family="Helvetica,sans-Serif" font-size="10.00">directWriteToAll()</text>
<polygon fill="#666666" stroke="#666666" points="353,-257 353,-257 492,-257 492,-257 353,-257"/>
<polygon fill="#666666" stroke="#666666" points="353,-242 353,-242 492,-242 492,-242 353,-242"/>
<polygon fill="none" stroke="#666666" points="352.5,0 352.5,-274 491.5,-274 491.5,0 352.5,0"/>
</a>
</g>
</g>
<!-- Node2 -->
<g id="Node000002" class="node">
<title>Node2</title>
<g id="a_Node000002"><a xlink:href="classcie_1_1OutputStream.html" target="_top" xlink:title=" ">
<polygon fill="white" stroke="transparent" points="156,-606 0,-606 0,-332 156,-332 156,-606"/>
<text text-anchor="start" x="33.5" y="-594" font-family="Helvetica,sans-Serif" font-size="10.00">cie::OutputStream</text>
<text text-anchor="start" x="76" y="-579" font-family="Helvetica,sans-Serif" font-size="10.00"> </text>
<text text-anchor="start" x="4" y="-564" font-family="Helvetica,sans-Serif" font-size="10.00">+</text>
<text text-anchor="start" x="17" y="-564" font-family="Helvetica,sans-Serif" font-size="10.00">OutputStream()</text>
<text text-anchor="start" x="4" y="-549" font-family="Helvetica,sans-Serif" font-size="10.00">+</text>
<text text-anchor="start" x="17" y="-549" font-family="Helvetica,sans-Serif" font-size="10.00">OutputStream()</text>
<text text-anchor="start" x="4" y="-534" font-family="Helvetica,sans-Serif" font-size="10.00">+</text>
<text text-anchor="start" x="17" y="-534" font-family="Helvetica,sans-Serif" font-size="10.00">OutputStream()</text>
<text text-anchor="start" x="4" y="-519" font-family="Helvetica,sans-Serif" font-size="10.00">+</text>
<text text-anchor="start" x="17" y="-519" font-family="Helvetica,sans-Serif" font-size="10.00">OutputStream()</text>
<text text-anchor="start" x="4" y="-504" font-family="Helvetica,sans-Serif" font-size="10.00">+</text>
<text text-anchor="start" x="17" y="-504" font-family="Helvetica,sans-Serif" font-size="10.00">OutputStream()</text>
<text text-anchor="start" x="4" y="-489" font-family="Helvetica,sans-Serif" font-size="10.00">+</text>
<text text-anchor="start" x="17" y="-489" font-family="Helvetica,sans-Serif" font-size="10.00">operator=()</text>
<text text-anchor="start" x="4" y="-474" font-family="Helvetica,sans-Serif" font-size="10.00">+</text>
<text text-anchor="start" x="17" y="-474" font-family="Helvetica,sans-Serif" font-size="10.00">operator=()</text>
<text text-anchor="start" x="4" y="-459" font-family="Helvetica,sans-Serif" font-size="10.00">+</text>
<text text-anchor="start" x="17" y="-459" font-family="Helvetica,sans-Serif" font-size="10.00">~OutputStream()</text>
<text text-anchor="start" x="4" y="-444" font-family="Helvetica,sans-Serif" font-size="10.00">+</text>
<text text-anchor="start" x="17" y="-444" font-family="Helvetica,sans-Serif" font-size="10.00">write()</text>
<text text-anchor="start" x="4" y="-429" font-family="Helvetica,sans-Serif" font-size="10.00">+</text>
<text text-anchor="start" x="17" y="-429" font-family="Helvetica,sans-Serif" font-size="10.00">flush()</text>
<text text-anchor="start" x="4" y="-414" font-family="Helvetica,sans-Serif" font-size="10.00">+</text>
<text text-anchor="start" x="17" y="-414" font-family="Helvetica,sans-Serif" font-size="10.00">rdbuf()</text>
<text text-anchor="start" x="4" y="-399" font-family="Helvetica,sans-Serif" font-size="10.00">+</text>
<text text-anchor="start" x="17" y="-399" font-family="Helvetica,sans-Serif" font-size="10.00">rdbuf()</text>
<text text-anchor="start" x="4" y="-384" font-family="Helvetica,sans-Serif" font-size="10.00">#</text>
<text text-anchor="start" x="17" y="-384" font-family="Helvetica,sans-Serif" font-size="10.00">streamInsertOperation()</text>
<text text-anchor="start" x="4" y="-369" font-family="Helvetica,sans-Serif" font-size="10.00">#</text>
<text text-anchor="start" x="17" y="-369" font-family="Helvetica,sans-Serif" font-size="10.00">streamInsertOperation()</text>
<text text-anchor="start" x="4" y="-354" font-family="Helvetica,sans-Serif" font-size="10.00">#</text>
<text text-anchor="start" x="17" y="-354" font-family="Helvetica,sans-Serif" font-size="10.00">streamInsertOperation()</text>
<text text-anchor="start" x="4" y="-339" font-family="Helvetica,sans-Serif" font-size="10.00">#</text>
<text text-anchor="start" x="17" y="-339" font-family="Helvetica,sans-Serif" font-size="10.00">forwardToWrappedStream()</text>
<polygon fill="#666666" stroke="#666666" points="0,-589 0,-589 156,-589 156,-589 0,-589"/>
<polygon fill="#666666" stroke="#666666" points="0,-574 0,-574 156,-574 156,-574 0,-574"/>
<polygon fill="none" stroke="#666666" points="0,-332 0,-606 156,-606 156,-332 0,-332"/>
</a>
</g>
</g>
<!-- Node2&#45;&gt;Node1 -->
<g id="edge1_Node000001_Node000002" class="edge">
<title>Node2&#45;&gt;Node1</title>
<g id="a_edge1_Node000001_Node000002"><a xlink:title=" ">
<path fill="none" stroke="#63b8ff" d="M163.38,-381.71C180.07,-365.11 197.5,-347.93 214,-332 259.46,-288.09 311.46,-239.59 352.1,-202.07"/>
<polygon fill="none" stroke="#63b8ff" points="160.9,-379.25 156.29,-388.78 165.84,-384.2 160.9,-379.25"/>
</a>
</g>
</g>
<!-- Node2&#45;&gt;Node2 -->
<g id="edge2_Node000002_Node000002" class="edge">
<title>Node2&#45;&gt;Node2</title>
<g id="a_edge2_Node000002_Node000002"><a xlink:title=" ">
<path fill="none" stroke="#63b8ff" d="M156.35,-496.61C166.94,-491.98 174,-482.78 174,-469 174,-460.39 171.24,-453.56 166.59,-448.53"/>
<polygon fill="none" stroke="#63b8ff" points="166.19,-448.25 158.98,-448.1 156.35,-441.39 163.56,-441.54 166.19,-448.25"/>
</a>
</g>
<text text-anchor="middle" x="189.5" y="-472" font-family="Helvetica,sans-Serif" font-size="10.00" fill="grey"> +cerr</text>
<text text-anchor="middle" x="189.5" y="-461" font-family="Helvetica,sans-Serif" font-size="10.00" fill="grey">+cout</text>
</g>
<!-- Node3 -->
<g id="Node000003" class="node">
<title>Node3</title>
<g id="a_Node000003"><a xlink:title=" ">
<polygon fill="white" stroke="transparent" points="343,-499 223,-499 223,-439 343,-439 343,-499"/>
<text text-anchor="start" x="228" y="-487" font-family="Helvetica,sans-Serif" font-size="10.00">deque&lt; OutputStream</text>
<text text-anchor="start" x="240" y="-476" font-family="Helvetica,sans-Serif" font-size="10.00">::SharedPointer &gt;</text>
<text text-anchor="start" x="281" y="-461" font-family="Helvetica,sans-Serif" font-size="10.00"> </text>
<text text-anchor="start" x="281" y="-446" font-family="Helvetica,sans-Serif" font-size="10.00"> </text>
<polygon fill="#666666" stroke="#666666" points="223,-471 223,-471 343,-471 343,-471 223,-471"/>
<polygon fill="#666666" stroke="#666666" points="223,-456 223,-456 343,-456 343,-456 223,-456"/>
<polygon fill="none" stroke="#666666" points="223,-439 223,-499 343,-499 343,-439 223,-439"/>
</a>
</g>
</g>
<!-- Node3&#45;&gt;Node1 -->
<g id="edge3_Node000001_Node000003" class="edge">
<title>Node3&#45;&gt;Node1</title>
<g id="a_edge3_Node000001_Node000003"><a xlink:title=" ">
<path fill="none" stroke="#63b8ff" d="M295.34,-438.71C310,-403.89 335.57,-343.19 359.91,-285.4"/>
<polygon fill="none" stroke="#63b8ff" points="359.94,-285.33 358.59,-278.24 364.6,-274.27 365.96,-281.35 359.94,-285.33"/>
</a>
</g>
<text text-anchor="middle" x="384.5" y="-300.5" font-family="Helvetica,sans-Serif" font-size="10.00" fill="grey"> #_streams</text>
</g>
<!-- Node4 -->
<g id="Node000004" class="node">
<title>Node4</title>
<g id="a_Node000004"><a xlink:title=" ">
<polygon fill="white" stroke="transparent" points="483,-493.5 361,-493.5 361,-444.5 483,-444.5 483,-493.5"/>
<text text-anchor="start" x="366" y="-481" font-family="Helvetica,sans-Serif" font-size="10.00">deque&lt; detail::Time &gt;</text>
<text text-anchor="start" x="420" y="-466" font-family="Helvetica,sans-Serif" font-size="10.00"> </text>
<text text-anchor="start" x="420" y="-451" font-family="Helvetica,sans-Serif" font-size="10.00"> </text>
<polygon fill="#666666" stroke="#666666" points="361,-476 361,-476 483,-476 483,-476 361,-476"/>
<polygon fill="#666666" stroke="#666666" points="361,-461 361,-461 483,-461 483,-461 361,-461"/>
<polygon fill="none" stroke="#666666" points="361,-444.5 361,-493.5 483,-493.5 483,-444.5 361,-444.5"/>
</a>
</g>
</g>
<!-- Node4&#45;&gt;Node1 -->
<g id="edge4_Node000001_Node000004" class="edge">
<title>Node4&#45;&gt;Node1</title>
<g id="a_edge4_Node000001_Node000004"><a xlink:title=" ">
<path fill="none" stroke="#63b8ff" d="M422,-444.27C422,-410.81 422,-347.05 422,-286.34"/>
<polygon fill="none" stroke="#63b8ff" points="422,-286.24 418,-280.24 422,-274.24 426,-280.24 422,-286.24"/>
</a>
</g>
<text text-anchor="middle" x="450.5" y="-300.5" font-family="Helvetica,sans-Serif" font-size="10.00" fill="grey"> #_timeLog</text>
</g>
<!-- Node5 -->
<g id="Node000005" class="node">
<title>Node5</title>
<g id="a_Node000005"><a xlink:title=" ">
<polygon fill="white" stroke="transparent" points="539,-493.5 501,-493.5 501,-444.5 539,-444.5 539,-493.5"/>
<text text-anchor="start" x="506" y="-481" font-family="Helvetica,sans-Serif" font-size="10.00">string</text>
<text text-anchor="start" x="518" y="-466" font-family="Helvetica,sans-Serif" font-size="10.00"> </text>
<text text-anchor="start" x="518" y="-451" font-family="Helvetica,sans-Serif" font-size="10.00"> </text>
<polygon fill="#666666" stroke="#666666" points="501,-476 501,-476 539,-476 539,-476 501,-476"/>
<polygon fill="#666666" stroke="#666666" points="501,-461 501,-461 539,-461 539,-461 501,-461"/>
<polygon fill="none" stroke="#666666" points="501,-444.5 501,-493.5 539,-493.5 539,-444.5 501,-444.5"/>
</a>
</g>
</g>
<!-- Node5&#45;&gt;Node1 -->
<g id="edge5_Node000001_Node000005" class="edge">
<title>Node5&#45;&gt;Node1</title>
<g id="a_edge5_Node000001_Node000005"><a xlink:title=" ">
<path fill="none" stroke="#63b8ff" d="M515.27,-444.39C509.81,-417.24 500.48,-371.35 492,-332 488.16,-314.19 488.37,-309.41 483,-292 482.35,-289.88 481.67,-287.74 480.99,-285.6"/>
<polygon fill="none" stroke="#63b8ff" points="480.94,-285.45 475.27,-281 477.19,-274.05 482.87,-278.5 480.94,-285.45"/>
</a>
</g>
<text text-anchor="middle" x="514.5" y="-306" font-family="Helvetica,sans-Serif" font-size="10.00" fill="grey"> #_lineEnd</text>
<text text-anchor="middle" x="514.5" y="-295" font-family="Helvetica,sans-Serif" font-size="10.00" fill="grey">#_prefix</text>
</g>
<!-- Node6 -->
<g id="Node000006" class="node">
<title>Node6</title>
<g id="a_Node000006"><a xlink:title=" ">
<polygon fill="white" stroke="transparent" points="603,-493.5 571,-493.5 571,-444.5 603,-444.5 603,-493.5"/>
<text text-anchor="start" x="576" y="-481" font-family="Helvetica,sans-Serif" font-size="10.00">bool</text>
<text text-anchor="start" x="585" y="-466" font-family="Helvetica,sans-Serif" font-size="10.00"> </text>
<text text-anchor="start" x="585" y="-451" font-family="Helvetica,sans-Serif" font-size="10.00"> </text>
<polygon fill="#666666" stroke="#666666" points="571,-476 571,-476 603,-476 603,-476 571,-476"/>
<polygon fill="#666666" stroke="#666666" points="571,-461 571,-461 603,-461 603,-461 571,-461"/>
<polygon fill="none" stroke="#666666" points="571,-444.5 571,-493.5 603,-493.5 603,-444.5 571,-444.5"/>
</a>
</g>
</g>
<!-- Node6&#45;&gt;Node1 -->
<g id="edge6_Node000001_Node000006" class="edge">
<title>Node6&#45;&gt;Node1</title>
<g id="a_edge6_Node000001_Node000006"><a xlink:title=" ">
<path fill="none" stroke="#63b8ff" d="M584.69,-444.4C580.55,-409.55 569.87,-342.96 545,-292 532.97,-267.36 516.42,-243.05 499.36,-221.29"/>
<polygon fill="none" stroke="#63b8ff" points="499.26,-221.17 492.39,-218.98 491.76,-211.8 498.63,-213.98 499.26,-221.17"/>
</a>
</g>
<text text-anchor="middle" x="586" y="-300.5" font-family="Helvetica,sans-Serif" font-size="10.00" fill="grey"> #_forceFlush</text>
</g>
</g>
</svg>

<g id="navigator" transform="translate(0 0)" fill="#404254">
  <rect fill="#f2f5e9" fill-opacity="0.5" stroke="#606060" stroke-width=".5" x="0" y="0" width="60" height="60"/>
  <use id="zoomplus" xlink:href="#zoomPlus" x="17" y="9" onmousedown="handleZoom(evt,'in')"/>
  <use id="zoomminus" xlink:href="#zoomMin" x="42" y="9" onmousedown="handleZoom(evt,'out')"/>
  <use id="reset" xlink:href="#resetDef" x="30" y="36" onmousedown="handleReset()"/>
   <use id="arrowup" xlink:href="#arrowUp" x="0" y="0" onmousedown="handlePan(0,-1)"/>
  <use id="arrowright" xlink:href="#arrowRight" x="0" y="0" onmousedown="handlePan(1,0)"/>
  <use id="arrowdown" xlink:href="#arrowDown" x="0" y="0" onmousedown="handlePan(0,1)"/>
  <use id="arrowleft" xlink:href="#arrowLeft" x="0" y="0" onmousedown="handlePan(-1,0)"/>
</g>
<svg viewBox="0 0 15 15" width="100%" height="30px" preserveAspectRatio="xMaxYMin meet">
 <g id="arrow_out" transform="scale(0.3 0.3)">
  <a xlink:href="classcie_1_1utils_1_1Logger__coll__graph_org.svg" target="_base">
   <rect id="button" ry="5" rx="5" y="6" x="6" height="38" width="38"
        fill="#f2f5e9" fill-opacity="0.5" stroke="#606060" stroke-width="1.0"/>
   <path id="arrow"
     d="M 11.500037,31.436501 C 11.940474,20.09759 22.043105,11.32322 32.158766,21.979434 L 37.068811,17.246167 C 37.068811,17.246167 37.088388,32 37.088388,32 L 22.160133,31.978069 C 22.160133,31.978069 26.997745,27.140456 26.997745,27.140456 C 18.528582,18.264221 13.291696,25.230495 11.500037,31.436501 z"
     style="fill:#404040;"/>
  </a>
 </g>
</svg>

<style type='text/css'>
<![CDATA[
[data-mouse-over-selected='false'] { opacity: 0.7; }
[data-mouse-over-selected='true']  { opacity: 1.0; }
]]>
</style>
<script type="application/ecmascript"><![CDATA[
document.addEventListener('DOMContentLoaded', (event) => {
  highlightEdges();
  highlightAdjacentNodes();
});
]]></script>
</svg>
