<?xml version="1.0" encoding="UTF-8" standalone="no"?>
<!DOCTYPE svg PUBLIC "-//W3C//DTD SVG 1.1//EN"
 "http://www.w3.org/Graphics/SVG/1.1/DTD/svg11.dtd">
<!-- Generated by graphviz version 2.43.0 (0)
 -->
<!-- Title: cie::Color Pages: 1 -->
<svg width="118pt" height="697pt"
 viewBox="0.00 0.00 118.00 697.00" xmlns="http://www.w3.org/2000/svg" xmlns:xlink="http://www.w3.org/1999/xlink">
<g id="graph0" class="graph" transform="scale(1 1) rotate(0) translate(4 693)">
<title>cie::Color</title>
<!-- Node1 -->
<g id="Node000001" class="node">
<title>Node1</title>
<g id="a_Node000001"><a xlink:title=" ">
<polygon fill="#999999" stroke="transparent" points="110,-689 0,-689 0,-430 110,-430 110,-689"/>
<text text-anchor="start" x="32" y="-676.5" font-family="Helvetica,sans-Serif" font-size="10.00">cie::Color</text>
<text text-anchor="start" x="53" y="-661.5" font-family="Helvetica,sans-Serif" font-size="10.00"> </text>
<text text-anchor="start" x="4" y="-646.5" font-family="Helvetica,sans-Serif" font-size="10.00">+</text>
<text text-anchor="start" x="17" y="-646.5" font-family="Helvetica,sans-Serif" font-size="10.00">Color()</text>
<text text-anchor="start" x="4" y="-631.5" font-family="Helvetica,sans-Serif" font-size="10.00">+</text>
<text text-anchor="start" x="17" y="-631.5" font-family="Helvetica,sans-Serif" font-size="10.00">Color()</text>
<text text-anchor="start" x="4" y="-616.5" font-family="Helvetica,sans-Serif" font-size="10.00">+</text>
<text text-anchor="start" x="17" y="-616.5" font-family="Helvetica,sans-Serif" font-size="10.00">Color()</text>
<text text-anchor="start" x="4" y="-601.5" font-family="Helvetica,sans-Serif" font-size="10.00">+</text>
<text text-anchor="start" x="17" y="-601.5" font-family="Helvetica,sans-Serif" font-size="10.00">Color()</text>
<text text-anchor="start" x="4" y="-586.5" font-family="Helvetica,sans-Serif" font-size="10.00">+</text>
<text text-anchor="start" x="17" y="-586.5" font-family="Helvetica,sans-Serif" font-size="10.00">Color()</text>
<text text-anchor="start" x="4" y="-571.5" font-family="Helvetica,sans-Serif" font-size="10.00">+</text>
<text text-anchor="start" x="17" y="-571.5" font-family="Helvetica,sans-Serif" font-size="10.00">Color()</text>
<text text-anchor="start" x="4" y="-556.5" font-family="Helvetica,sans-Serif" font-size="10.00">+</text>
<text text-anchor="start" x="17" y="-556.5" font-family="Helvetica,sans-Serif" font-size="10.00">operator=()</text>
<text text-anchor="start" x="4" y="-541.5" font-family="Helvetica,sans-Serif" font-size="10.00">+</text>
<text text-anchor="start" x="17" y="-541.5" font-family="Helvetica,sans-Serif" font-size="10.00">operator=()</text>
<text text-anchor="start" x="4" y="-526.5" font-family="Helvetica,sans-Serif" font-size="10.00">+</text>
<text text-anchor="start" x="17" y="-526.5" font-family="Helvetica,sans-Serif" font-size="10.00">~Color()</text>
<text text-anchor="start" x="4" y="-511.5" font-family="Helvetica,sans-Serif" font-size="10.00">+</text>
<text text-anchor="start" x="17" y="-511.5" font-family="Helvetica,sans-Serif" font-size="10.00">string()</text>
<text text-anchor="start" x="4" y="-496.5" font-family="Helvetica,sans-Serif" font-size="10.00">+</text>
<text text-anchor="start" x="17" y="-496.5" font-family="Helvetica,sans-Serif" font-size="10.00">ANSI()</text>
<text text-anchor="start" x="4" y="-481.5" font-family="Helvetica,sans-Serif" font-size="10.00">+</text>
<text text-anchor="start" x="17" y="-481.5" font-family="Helvetica,sans-Serif" font-size="10.00">ANSIBackground()</text>
<text text-anchor="start" x="4" y="-466.5" font-family="Helvetica,sans-Serif" font-size="10.00">+</text>
<text text-anchor="start" x="17" y="-466.5" font-family="Helvetica,sans-Serif" font-size="10.00">hex()</text>
<text text-anchor="start" x="4" y="-451.5" font-family="Helvetica,sans-Serif" font-size="10.00">#</text>
<text text-anchor="start" x="17" y="-451.5" font-family="Helvetica,sans-Serif" font-size="10.00">get()</text>
<text text-anchor="start" x="4" y="-436.5" font-family="Helvetica,sans-Serif" font-size="10.00">#</text>
<text text-anchor="start" x="17" y="-436.5" font-family="Helvetica,sans-Serif" font-size="10.00">set()</text>
<polygon fill="#666666" stroke="#666666" points="0,-671.5 0,-671.5 110,-671.5 110,-671.5 0,-671.5"/>
<polygon fill="#666666" stroke="#666666" points="0,-656.5 0,-656.5 110,-656.5 110,-656.5 0,-656.5"/>
<polygon fill="none" stroke="#666666" points="0,-430 0,-689 110,-689 110,-430 0,-430"/>
</a>
</g>
</g>
<!-- Node2 -->
<g id="Node000002" class="node">
<title>Node2</title>
<g id="a_Node000002"><a xlink:href="classcie_1_1RGBAColor.html" target="_top" xlink:title=" ">
<polygon fill="white" stroke="transparent" points="110,-394 0,-394 0,0 110,0 110,-394"/>
<text text-anchor="start" x="18" y="-382" font-family="Helvetica,sans-Serif" font-size="10.00">cie::RGBAColor</text>
<text text-anchor="start" x="4" y="-367" font-family="Helvetica,sans-Serif" font-size="10.00">+</text>
<text text-anchor="start" x="17" y="-367" font-family="Helvetica,sans-Serif" font-size="10.00">White</text>
<text text-anchor="start" x="4" y="-352" font-family="Helvetica,sans-Serif" font-size="10.00">+</text>
<text text-anchor="start" x="17" y="-352" font-family="Helvetica,sans-Serif" font-size="10.00">Black</text>
<text text-anchor="start" x="4" y="-337" font-family="Helvetica,sans-Serif" font-size="10.00">+</text>
<text text-anchor="start" x="17" y="-337" font-family="Helvetica,sans-Serif" font-size="10.00">TUMBlack</text>
<text text-anchor="start" x="4" y="-322" font-family="Helvetica,sans-Serif" font-size="10.00">+</text>
<text text-anchor="start" x="17" y="-322" font-family="Helvetica,sans-Serif" font-size="10.00">TUMBlue</text>
<text text-anchor="start" x="4" y="-307" font-family="Helvetica,sans-Serif" font-size="10.00">+</text>
<text text-anchor="start" x="17" y="-307" font-family="Helvetica,sans-Serif" font-size="10.00">TUMWebBlue</text>
<text text-anchor="start" x="4" y="-292" font-family="Helvetica,sans-Serif" font-size="10.00">+</text>
<text text-anchor="start" x="17" y="-292" font-family="Helvetica,sans-Serif" font-size="10.00">TUMLightBlue</text>
<text text-anchor="start" x="4" y="-277" font-family="Helvetica,sans-Serif" font-size="10.00">+</text>
<text text-anchor="start" x="17" y="-277" font-family="Helvetica,sans-Serif" font-size="10.00">TUMLighterBlue</text>
<text text-anchor="start" x="4" y="-262" font-family="Helvetica,sans-Serif" font-size="10.00">+</text>
<text text-anchor="start" x="17" y="-262" font-family="Helvetica,sans-Serif" font-size="10.00">TUMLightestBlue</text>
<text text-anchor="start" x="4" y="-247" font-family="Helvetica,sans-Serif" font-size="10.00">+</text>
<text text-anchor="start" x="17" y="-247" font-family="Helvetica,sans-Serif" font-size="10.00">TUMOrange</text>
<text text-anchor="start" x="4" y="-232" font-family="Helvetica,sans-Serif" font-size="10.00">+</text>
<text text-anchor="start" x="17" y="-232" font-family="Helvetica,sans-Serif" font-size="10.00">TUMGreen</text>
<text text-anchor="start" x="4" y="-217" font-family="Helvetica,sans-Serif" font-size="10.00">+</text>
<text text-anchor="start" x="17" y="-217" font-family="Helvetica,sans-Serif" font-size="10.00">TUMGray</text>
<text text-anchor="start" x="4" y="-202" font-family="Helvetica,sans-Serif" font-size="10.00">+</text>
<text text-anchor="start" x="17" y="-202" font-family="Helvetica,sans-Serif" font-size="10.00">TUMLightGray</text>
<text text-anchor="start" x="4" y="-187" font-family="Helvetica,sans-Serif" font-size="10.00">+</text>
<text text-anchor="start" x="17" y="-187" font-family="Helvetica,sans-Serif" font-size="10.00">Error</text>
<text text-anchor="start" x="4" y="-172" font-family="Helvetica,sans-Serif" font-size="10.00">+</text>
<text text-anchor="start" x="17" y="-172" font-family="Helvetica,sans-Serif" font-size="10.00">Warning</text>
<text text-anchor="start" x="4" y="-157" font-family="Helvetica,sans-Serif" font-size="10.00">+</text>
<text text-anchor="start" x="17" y="-157" font-family="Helvetica,sans-Serif" font-size="10.00">getRed()</text>
<text text-anchor="start" x="4" y="-142" font-family="Helvetica,sans-Serif" font-size="10.00">+</text>
<text text-anchor="start" x="17" y="-142" font-family="Helvetica,sans-Serif" font-size="10.00">getGreen()</text>
<text text-anchor="start" x="4" y="-127" font-family="Helvetica,sans-Serif" font-size="10.00">+</text>
<text text-anchor="start" x="17" y="-127" font-family="Helvetica,sans-Serif" font-size="10.00">getBlue()</text>
<text text-anchor="start" x="4" y="-112" font-family="Helvetica,sans-Serif" font-size="10.00">+</text>
<text text-anchor="start" x="17" y="-112" font-family="Helvetica,sans-Serif" font-size="10.00">getAlpha()</text>
<text text-anchor="start" x="4" y="-97" font-family="Helvetica,sans-Serif" font-size="10.00">+</text>
<text text-anchor="start" x="17" y="-97" font-family="Helvetica,sans-Serif" font-size="10.00">setRed()</text>
<text text-anchor="start" x="4" y="-82" font-family="Helvetica,sans-Serif" font-size="10.00">+</text>
<text text-anchor="start" x="17" y="-82" font-family="Helvetica,sans-Serif" font-size="10.00">setGreen()</text>
<text text-anchor="start" x="4" y="-67" font-family="Helvetica,sans-Serif" font-size="10.00">+</text>
<text text-anchor="start" x="17" y="-67" font-family="Helvetica,sans-Serif" font-size="10.00">setBlue()</text>
<text text-anchor="start" x="4" y="-52" font-family="Helvetica,sans-Serif" font-size="10.00">+</text>
<text text-anchor="start" x="17" y="-52" font-family="Helvetica,sans-Serif" font-size="10.00">setAlpha()</text>
<text text-anchor="start" x="4" y="-37" font-family="Helvetica,sans-Serif" font-size="10.00">+</text>
<text text-anchor="start" x="17" y="-37" font-family="Helvetica,sans-Serif" font-size="10.00">ANSI()</text>
<text text-anchor="start" x="4" y="-22" font-family="Helvetica,sans-Serif" font-size="10.00">+</text>
<text text-anchor="start" x="17" y="-22" font-family="Helvetica,sans-Serif" font-size="10.00">ANSIBackground()</text>
<text text-anchor="start" x="17" y="-7" font-family="Helvetica,sans-Serif" font-size="10.00">and 9 more...</text>
<polygon fill="#666666" stroke="#666666" points="0,-377 0,-377 110,-377 110,-377 0,-377"/>
<polygon fill="#666666" stroke="#666666" points="0,-167 0,-167 15,-167 15,-167 0,-167"/>
<polygon fill="#666666" stroke="#666666" points="15,-167 15,-167 110,-167 110,-167 15,-167"/>
<polygon fill="none" stroke="#666666" points="0,0 0,-394 110,-394 110,0 0,0"/>
</a>
</g>
</g>
<!-- Node1&#45;&gt;Node2 -->
<g id="edge1_Node000001_Node000002" class="edge">
<title>Node1&#45;&gt;Node2</title>
<g id="a_edge1_Node000001_Node000002"><a xlink:title=" ">
<path fill="none" stroke="#63b8ff" d="M55,-419.72C55,-411.34 55,-402.83 55,-394.28"/>
<polygon fill="none" stroke="#63b8ff" points="51.5,-419.88 55,-429.88 58.5,-419.88 51.5,-419.88"/>
</a>
</g>
</g>
</g>
</svg>
