<?xml version="1.0" encoding="UTF-8" standalone="no"?>
<!DOCTYPE svg PUBLIC "-//W3C//DTD SVG 1.1//EN"
 "http://www.w3.org/Graphics/SVG/1.1/DTD/svg11.dtd">
<!-- Generated by graphviz version 2.43.0 (0)
 -->
<!-- Title: cie::utils::Loggee Pages: 1 -->
<svg width="133pt" height="412pt"
 viewBox="0.00 0.00 133.00 412.00" xmlns="http://www.w3.org/2000/svg" xmlns:xlink="http://www.w3.org/1999/xlink">
<g id="graph0" class="graph" transform="scale(1 1) rotate(0) translate(4 408)">
<title>cie::utils::Loggee</title>
<!-- Node1 -->
<g id="Node000001" class="node">
<title>Node1</title>
<g id="a_Node000001"><a xlink:title=" ">
<polygon fill="#999999" stroke="transparent" points="109,-184 16,-184 16,0 109,0 109,-184"/>
<text text-anchor="start" x="21.5" y="-172" font-family="Helvetica,sans-Serif" font-size="10.00">cie::utils::Loggee</text>
<text text-anchor="start" x="61" y="-157" font-family="Helvetica,sans-Serif" font-size="10.00"> </text>
<text text-anchor="start" x="24.5" y="-142" font-family="Helvetica,sans-Serif" font-size="10.00">+</text>
<text text-anchor="start" x="41.5" y="-142" font-family="Helvetica,sans-Serif" font-size="10.00">Loggee()</text>
<text text-anchor="start" x="24.5" y="-127" font-family="Helvetica,sans-Serif" font-size="10.00">+</text>
<text text-anchor="start" x="41.5" y="-127" font-family="Helvetica,sans-Serif" font-size="10.00">~Loggee()</text>
<text text-anchor="start" x="24.5" y="-112" font-family="Helvetica,sans-Serif" font-size="10.00">+</text>
<text text-anchor="start" x="41.5" y="-112" font-family="Helvetica,sans-Serif" font-size="10.00">log()</text>
<text text-anchor="start" x="24.5" y="-97" font-family="Helvetica,sans-Serif" font-size="10.00">+</text>
<text text-anchor="start" x="41.5" y="-97" font-family="Helvetica,sans-Serif" font-size="10.00">logID()</text>
<text text-anchor="start" x="24.5" y="-82" font-family="Helvetica,sans-Serif" font-size="10.00">+</text>
<text text-anchor="start" x="41.5" y="-82" font-family="Helvetica,sans-Serif" font-size="10.00">tic()</text>
<text text-anchor="start" x="24.5" y="-67" font-family="Helvetica,sans-Serif" font-size="10.00">+</text>
<text text-anchor="start" x="41.5" y="-67" font-family="Helvetica,sans-Serif" font-size="10.00">toc()</text>
<text text-anchor="start" x="24.5" y="-52" font-family="Helvetica,sans-Serif" font-size="10.00">+</text>
<text text-anchor="start" x="41.5" y="-52" font-family="Helvetica,sans-Serif" font-size="10.00">toc()</text>
<text text-anchor="start" x="24.5" y="-37" font-family="Helvetica,sans-Serif" font-size="10.00">+</text>
<text text-anchor="start" x="41.5" y="-37" font-family="Helvetica,sans-Serif" font-size="10.00">newBlock()</text>
<text text-anchor="start" x="24.5" y="-22" font-family="Helvetica,sans-Serif" font-size="10.00">+</text>
<text text-anchor="start" x="41.5" y="-22" font-family="Helvetica,sans-Serif" font-size="10.00">separate()</text>
<text text-anchor="start" x="24.5" y="-7" font-family="Helvetica,sans-Serif" font-size="10.00">#</text>
<text text-anchor="start" x="41.5" y="-7" font-family="Helvetica,sans-Serif" font-size="10.00">logger()</text>
<polygon fill="#666666" stroke="#666666" points="16.5,-167 16.5,-167 109.5,-167 109.5,-167 16.5,-167"/>
<polygon fill="#666666" stroke="#666666" points="16.5,-152 16.5,-152 109.5,-152 109.5,-152 16.5,-152"/>
<polygon fill="none" stroke="#666666" points="16,0 16,-184 109,-184 109,0 16,0"/>
</a>
</g>
</g>
<!-- Node2 -->
<g id="Node000002" class="node">
<title>Node2</title>
<g id="a_Node000002"><a xlink:href="classcie_1_1utils_1_1NamedObject.html" target="_top" xlink:title=" ">
<polygon fill="white" stroke="transparent" points="125,-404 0,-404 0,-220 125,-220 125,-404"/>
<text text-anchor="start" x="5.5" y="-392" font-family="Helvetica,sans-Serif" font-size="10.00">cie::utils::NamedObject</text>
<text text-anchor="start" x="61" y="-377" font-family="Helvetica,sans-Serif" font-size="10.00"> </text>
<text text-anchor="start" x="9.5" y="-362" font-family="Helvetica,sans-Serif" font-size="10.00">+</text>
<text text-anchor="start" x="27.5" y="-362" font-family="Helvetica,sans-Serif" font-size="10.00">NamedObject()</text>
<text text-anchor="start" x="9.5" y="-347" font-family="Helvetica,sans-Serif" font-size="10.00">+</text>
<text text-anchor="start" x="27.5" y="-347" font-family="Helvetica,sans-Serif" font-size="10.00">NamedObject()</text>
<text text-anchor="start" x="9.5" y="-332" font-family="Helvetica,sans-Serif" font-size="10.00">+</text>
<text text-anchor="start" x="27.5" y="-332" font-family="Helvetica,sans-Serif" font-size="10.00">NamedObject()</text>
<text text-anchor="start" x="9.5" y="-317" font-family="Helvetica,sans-Serif" font-size="10.00">+</text>
<text text-anchor="start" x="27.5" y="-317" font-family="Helvetica,sans-Serif" font-size="10.00">NamedObject()</text>
<text text-anchor="start" x="9.5" y="-302" font-family="Helvetica,sans-Serif" font-size="10.00">+</text>
<text text-anchor="start" x="27.5" y="-302" font-family="Helvetica,sans-Serif" font-size="10.00">operator=()</text>
<text text-anchor="start" x="9.5" y="-287" font-family="Helvetica,sans-Serif" font-size="10.00">+</text>
<text text-anchor="start" x="27.5" y="-287" font-family="Helvetica,sans-Serif" font-size="10.00">operator=()</text>
<text text-anchor="start" x="9.5" y="-272" font-family="Helvetica,sans-Serif" font-size="10.00">+</text>
<text text-anchor="start" x="27.5" y="-272" font-family="Helvetica,sans-Serif" font-size="10.00">name()</text>
<text text-anchor="start" x="9.5" y="-257" font-family="Helvetica,sans-Serif" font-size="10.00">+</text>
<text text-anchor="start" x="27.5" y="-257" font-family="Helvetica,sans-Serif" font-size="10.00">setName()</text>
<text text-anchor="start" x="9.5" y="-242" font-family="Helvetica,sans-Serif" font-size="10.00">+</text>
<text text-anchor="start" x="27.5" y="-242" font-family="Helvetica,sans-Serif" font-size="10.00">setName()</text>
<text text-anchor="start" x="9.5" y="-227" font-family="Helvetica,sans-Serif" font-size="10.00">+</text>
<text text-anchor="start" x="27.5" y="-227" font-family="Helvetica,sans-Serif" font-size="10.00">~NamedObject()</text>
<polygon fill="#666666" stroke="#666666" points="0.5,-387 0.5,-387 125.5,-387 125.5,-387 0.5,-387"/>
<polygon fill="#666666" stroke="#666666" points="0.5,-372 0.5,-372 125.5,-372 125.5,-372 0.5,-372"/>
<polygon fill="none" stroke="#666666" points="0,-220 0,-404 125,-404 125,-220 0,-220"/>
</a>
</g>
</g>
<!-- Node2&#45;&gt;Node1 -->
<g id="edge1_Node000001_Node000002" class="edge">
<title>Node2&#45;&gt;Node1</title>
<g id="a_edge1_Node000001_Node000002"><a xlink:title=" ">
<path fill="none" stroke="#63b8ff" d="M62.5,-209.53C62.5,-201.07 62.5,-192.55 62.5,-184.17"/>
<polygon fill="none" stroke="#63b8ff" points="59,-209.81 62.5,-219.81 66,-209.81 59,-209.81"/>
</a>
</g>
</g>
</g>
</svg>
