<?xml version="1.0" encoding="UTF-8" standalone="no"?>
<!DOCTYPE svg PUBLIC "-//W3C//DTD SVG 1.1//EN"
 "http://www.w3.org/Graphics/SVG/1.1/DTD/svg11.dtd">
<!-- Generated by graphviz version 2.43.0 (0)
 -->
<!-- Title: modules.benchutils.Parser.InternalJSONParser Pages: 1 -->
<svg width="178pt" height="298pt"
 viewBox="0.00 0.00 178.00 298.00" xmlns="http://www.w3.org/2000/svg" xmlns:xlink="http://www.w3.org/1999/xlink">
<g id="graph0" class="graph" transform="scale(1 1) rotate(0) translate(4 294)">
<title>modules.benchutils.Parser.InternalJSONParser</title>
<polygon fill="white" stroke="transparent" points="-4,4 -4,-294 174,-294 174,4 -4,4"/>
<!-- Node1 -->
<g id="node1" class="node">
<title>Node1</title>
<g id="a_node1"><a xlink:title="Parses a stream generated from serializing a list of Result objects.">
<polygon fill="#bfbfbf" stroke="black" points="7,-0.5 7,-79.5 154,-79.5 154,-0.5 7,-0.5"/>
<text text-anchor="start" x="15" y="-67.5" font-family="Helvetica,sans-Serif" font-size="10.00">modules.benchutils.Parser.</text>
<text text-anchor="middle" x="80.5" y="-56.5" font-family="Helvetica,sans-Serif" font-size="10.00">InternalJSONParser</text>
<polyline fill="none" stroke="black" points="7,-49.5 154,-49.5 "/>
<text text-anchor="middle" x="80.5" y="-37.5" font-family="Helvetica,sans-Serif" font-size="10.00"> </text>
<polyline fill="none" stroke="black" points="7,-30.5 154,-30.5 "/>
<text text-anchor="start" x="15" y="-18.5" font-family="Helvetica,sans-Serif" font-size="10.00">+ name()</text>
<text text-anchor="start" x="15" y="-7.5" font-family="Helvetica,sans-Serif" font-size="10.00">+ __call__()</text>
</a>
</g>
</g>
<!-- Node2 -->
<g id="node2" class="node">
<title>Node2</title>
<g id="a_node2"><a xlink:href="classmodules_1_1benchutils_1_1Parser_1_1Parser.html" target="_top" xlink:title=" ">
<polygon fill="white" stroke="black" points="7,-116.5 7,-195.5 154,-195.5 154,-116.5 7,-116.5"/>
<text text-anchor="start" x="15" y="-183.5" font-family="Helvetica,sans-Serif" font-size="10.00">modules.benchutils.Parser.</text>
<text text-anchor="middle" x="80.5" y="-172.5" font-family="Helvetica,sans-Serif" font-size="10.00">Parser</text>
<polyline fill="none" stroke="black" points="7,-165.5 154,-165.5 "/>
<text text-anchor="middle" x="80.5" y="-153.5" font-family="Helvetica,sans-Serif" font-size="10.00"> </text>
<polyline fill="none" stroke="black" points="7,-146.5 154,-146.5 "/>
<text text-anchor="start" x="15" y="-134.5" font-family="Helvetica,sans-Serif" font-size="10.00">+ name()</text>
<text text-anchor="start" x="15" y="-123.5" font-family="Helvetica,sans-Serif" font-size="10.00">+ __call__()</text>
</a>
</g>
</g>
<!-- Node2&#45;&gt;Node1 -->
<g id="edge1" class="edge">
<title>Node2&#45;&gt;Node1</title>
<path fill="none" stroke="midnightblue" d="M80.5,-106.15C80.5,-97.26 80.5,-88.1 80.5,-79.56"/>
<polygon fill="none" stroke="midnightblue" points="77,-106.4 80.5,-116.4 84,-106.4 77,-106.4"/>
</g>
<!-- Node3 -->
<g id="node3" class="node">
<title>Node3</title>
<g id="a_node3"><a xlink:href="classmetaclass.html" target="_top" xlink:title=" ">
<polygon fill="white" stroke="black" points="0,-232.5 0,-289.5 67,-289.5 67,-232.5 0,-232.5"/>
<text text-anchor="middle" x="33.5" y="-277.5" font-family="Helvetica,sans-Serif" font-size="10.00">metaclass</text>
<polyline fill="none" stroke="black" points="0,-270.5 67,-270.5 "/>
<text text-anchor="middle" x="33.5" y="-258.5" font-family="Helvetica,sans-Serif" font-size="10.00"> </text>
<polyline fill="none" stroke="black" points="0,-251.5 67,-251.5 "/>
<text text-anchor="middle" x="33.5" y="-239.5" font-family="Helvetica,sans-Serif" font-size="10.00"> </text>
</a>
</g>
</g>
<!-- Node3&#45;&gt;Node2 -->
<g id="edge2" class="edge">
<title>Node3&#45;&gt;Node2</title>
<path fill="none" stroke="midnightblue" d="M50.25,-223.3C54.36,-214.29 58.77,-204.61 62.92,-195.52"/>
<polygon fill="none" stroke="midnightblue" points="47.06,-221.85 46.1,-232.4 53.43,-224.75 47.06,-221.85"/>
</g>
<!-- Node4 -->
<g id="node4" class="node">
<title>Node4</title>
<g id="a_node4"><a xlink:title=" ">
<polygon fill="white" stroke="#bfbfbf" points="85,-232.5 85,-289.5 170,-289.5 170,-232.5 85,-232.5"/>
<text text-anchor="middle" x="127.5" y="-277.5" font-family="Helvetica,sans-Serif" font-size="10.00">abc::ABCMeta</text>
<polyline fill="none" stroke="#bfbfbf" points="85,-270.5 170,-270.5 "/>
<text text-anchor="middle" x="127.5" y="-258.5" font-family="Helvetica,sans-Serif" font-size="10.00"> </text>
<polyline fill="none" stroke="#bfbfbf" points="85,-251.5 170,-251.5 "/>
<text text-anchor="middle" x="127.5" y="-239.5" font-family="Helvetica,sans-Serif" font-size="10.00"> </text>
</a>
</g>
</g>
<!-- Node4&#45;&gt;Node2 -->
<g id="edge3" class="edge">
<title>Node4&#45;&gt;Node2</title>
<path fill="none" stroke="midnightblue" d="M110.75,-223.3C106.64,-214.29 102.23,-204.61 98.08,-195.52"/>
<polygon fill="none" stroke="midnightblue" points="107.57,-224.75 114.9,-232.4 113.94,-221.85 107.57,-224.75"/>
</g>
</g>
</svg>
