<?xml version="1.0" encoding="UTF-8" standalone="no"?>
<!DOCTYPE svg PUBLIC "-//W3C//DTD SVG 1.1//EN"
 "http://www.w3.org/Graphics/SVG/1.1/DTD/svg11.dtd">
<!-- Generated by graphviz version 2.43.0 (0)
 -->
<!-- Title: cie::utils::Comparison&lt; TFloat &gt; Pages: 1 -->
<svg width="149pt" height="209pt"
 viewBox="0.00 0.00 149.00 209.00" xmlns="http://www.w3.org/2000/svg" xmlns:xlink="http://www.w3.org/1999/xlink">
<g id="graph0" class="graph" transform="scale(1 1) rotate(0) translate(4 205)">
<title>cie::utils::Comparison&lt; TFloat &gt;</title>
<!-- Node1 -->
<g id="Node000001" class="node">
<title>Node1</title>
<g id="a_Node000001"><a xlink:title=" ">
<polygon fill="#999999" stroke="transparent" points="128.5,-60 12.5,-60 12.5,0 128.5,0 128.5,-60"/>
<text text-anchor="start" x="17.5" y="-48" font-family="Helvetica,sans-Serif" font-size="10.00">cie::utils::Comparison</text>
<text text-anchor="start" x="43.5" y="-37" font-family="Helvetica,sans-Serif" font-size="10.00">&lt; TFloat &gt;</text>
<text text-anchor="start" x="68.5" y="-22" font-family="Helvetica,sans-Serif" font-size="10.00"> </text>
<text text-anchor="start" x="68.5" y="-7" font-family="Helvetica,sans-Serif" font-size="10.00"> </text>
<polygon fill="#666666" stroke="#666666" points="12.5,-32 12.5,-32 128.5,-32 128.5,-32 12.5,-32"/>
<polygon fill="#666666" stroke="#666666" points="12.5,-17 12.5,-17 128.5,-17 128.5,-17 12.5,-17"/>
<polygon fill="none" stroke="#666666" points="12.5,0 12.5,-60 128.5,-60 128.5,0 12.5,0"/>
</a>
</g>
</g>
<!-- Node2 -->
<g id="Node000002" class="node">
<title>Node2</title>
<g id="a_Node000002"><a xlink:href="classcie_1_1utils_1_1FloatComparison.html" target="_top" xlink:title=" ">
<polygon fill="white" stroke="transparent" points="141,-201 0,-201 0,-96 141,-96 141,-201"/>
<text text-anchor="start" x="5.5" y="-188.5" font-family="Helvetica,sans-Serif" font-size="10.00">cie::utils::FloatComparison</text>
<text text-anchor="start" x="44" y="-177.5" font-family="Helvetica,sans-Serif" font-size="10.00">&lt; TFloat &gt;</text>
<text text-anchor="start" x="69" y="-162.5" font-family="Helvetica,sans-Serif" font-size="10.00"> </text>
<text text-anchor="start" x="11.5" y="-147.5" font-family="Helvetica,sans-Serif" font-size="10.00">+</text>
<text text-anchor="start" x="31.5" y="-147.5" font-family="Helvetica,sans-Serif" font-size="10.00">FloatComparison()</text>
<text text-anchor="start" x="11.5" y="-132.5" font-family="Helvetica,sans-Serif" font-size="10.00">+</text>
<text text-anchor="start" x="31.5" y="-132.5" font-family="Helvetica,sans-Serif" font-size="10.00">FloatComparison()</text>
<text text-anchor="start" x="11.5" y="-117.5" font-family="Helvetica,sans-Serif" font-size="10.00">+</text>
<text text-anchor="start" x="31.5" y="-117.5" font-family="Helvetica,sans-Serif" font-size="10.00">equal()</text>
<text text-anchor="start" x="11.5" y="-102.5" font-family="Helvetica,sans-Serif" font-size="10.00">+</text>
<text text-anchor="start" x="31.5" y="-102.5" font-family="Helvetica,sans-Serif" font-size="10.00">less()</text>
<polygon fill="#666666" stroke="#666666" points="0.5,-172.5 0.5,-172.5 141.5,-172.5 141.5,-172.5 0.5,-172.5"/>
<polygon fill="#666666" stroke="#666666" points="0.5,-157.5 0.5,-157.5 141.5,-157.5 141.5,-157.5 0.5,-157.5"/>
<polygon fill="none" stroke="#666666" points="0,-96 0,-201 141,-201 141,-96 0,-96"/>
</a>
</g>
</g>
<!-- Node2&#45;&gt;Node1 -->
<g id="edge1_Node000001_Node000002" class="edge">
<title>Node2&#45;&gt;Node1</title>
<g id="a_edge1_Node000001_Node000002"><a xlink:title=" ">
<path fill="none" stroke="#63b8ff" d="M70.5,-85.71C70.5,-76.85 70.5,-68.09 70.5,-60.27"/>
<polygon fill="none" stroke="#63b8ff" points="67,-85.72 70.5,-95.72 74,-85.72 67,-85.72"/>
</a>
</g>
</g>
</g>
</svg>
