<?xml version="1.0" encoding="UTF-8" standalone="no"?>
<!DOCTYPE svg PUBLIC "-//W3C//DTD SVG 1.1//EN"
 "http://www.w3.org/Graphics/SVG/1.1/DTD/svg11.dtd">
<!-- Generated by graphviz version 2.43.0 (0)
 -->
<!-- Title: cie::mp::ParallelFor&lt; TIndex, TStorage &gt; Pages: 1 -->
<svg width="130pt" height="281pt"
 viewBox="0.00 0.00 130.00 281.00" xmlns="http://www.w3.org/2000/svg" xmlns:xlink="http://www.w3.org/1999/xlink">
<g id="graph0" class="graph" transform="scale(1 1) rotate(0) translate(4 277)">
<title>cie::mp::ParallelFor&lt; TIndex, TStorage &gt;</title>
<polygon fill="white" stroke="transparent" points="-4,4 -4,-277 126,-277 126,4 -4,4"/>
<!-- Node1 -->
<g id="node1" class="node">
<title>Node1</title>
<g id="a_node1"><a xlink:title="Parallel for construct with thread local storage.">
<polygon fill="#bfbfbf" stroke="black" points="0,-0.5 0,-167.5 122,-167.5 122,-0.5 0,-0.5"/>
<text text-anchor="start" x="8" y="-155.5" font-family="Helvetica,sans-Serif" font-size="10.00">cie::mp::ParallelFor</text>
<text text-anchor="middle" x="61" y="-144.5" font-family="Helvetica,sans-Serif" font-size="10.00">&lt; TIndex, TStorage &gt;</text>
<polyline fill="none" stroke="black" points="0,-137.5 122,-137.5 "/>
<text text-anchor="middle" x="61" y="-125.5" font-family="Helvetica,sans-Serif" font-size="10.00"> </text>
<polyline fill="none" stroke="black" points="0,-118.5 122,-118.5 "/>
<text text-anchor="start" x="8" y="-106.5" font-family="Helvetica,sans-Serif" font-size="10.00">+ ParallelFor()</text>
<text text-anchor="start" x="8" y="-95.5" font-family="Helvetica,sans-Serif" font-size="10.00">+ requires()</text>
<text text-anchor="start" x="8" y="-84.5" font-family="Helvetica,sans-Serif" font-size="10.00">+ firstPrivate()</text>
<text text-anchor="start" x="8" y="-73.5" font-family="Helvetica,sans-Serif" font-size="10.00">+ operator()()</text>
<text text-anchor="start" x="8" y="-62.5" font-family="Helvetica,sans-Serif" font-size="10.00">+ operator()()</text>
<text text-anchor="start" x="8" y="-51.5" font-family="Helvetica,sans-Serif" font-size="10.00">+ operator()()</text>
<text text-anchor="start" x="8" y="-40.5" font-family="Helvetica,sans-Serif" font-size="10.00">+ operator()()</text>
<text text-anchor="start" x="8" y="-29.5" font-family="Helvetica,sans-Serif" font-size="10.00">+ operator()()</text>
<text text-anchor="start" x="8" y="-18.5" font-family="Helvetica,sans-Serif" font-size="10.00">+ getPool()</text>
<text text-anchor="start" x="8" y="-7.5" font-family="Helvetica,sans-Serif" font-size="10.00">+ getPool()</text>
</a>
</g>
</g>
<!-- Node2 -->
<g id="node2" class="node">
<title>Node2</title>
<g id="a_node2"><a xlink:title=" ">
<polygon fill="white" stroke="#bfbfbf" points="30,-215.5 30,-272.5 92,-272.5 92,-215.5 30,-215.5"/>
<text text-anchor="middle" x="61" y="-260.5" font-family="Helvetica,sans-Serif" font-size="10.00">TArgs &amp;&amp;</text>
<polyline fill="none" stroke="#bfbfbf" points="30,-253.5 92,-253.5 "/>
<text text-anchor="middle" x="61" y="-241.5" font-family="Helvetica,sans-Serif" font-size="10.00"> </text>
<polyline fill="none" stroke="#bfbfbf" points="30,-234.5 92,-234.5 "/>
<text text-anchor="middle" x="61" y="-222.5" font-family="Helvetica,sans-Serif" font-size="10.00"> </text>
</a>
</g>
</g>
<!-- Node2&#45;&gt;Node1 -->
<g id="edge1" class="edge">
<title>Node2&#45;&gt;Node1</title>
<path fill="none" stroke="#404040" d="M61,-215.48C61,-205.12 61,-192.67 61,-179.63"/>
<polygon fill="none" stroke="#404040" points="61,-179.54 57,-173.54 61,-167.54 65,-173.54 61,-179.54"/>
<text text-anchor="middle" x="79.5" y="-189" font-family="Helvetica,sans-Serif" font-size="10.00"> +rArgs</text>
</g>
</g>
</svg>
