<?xml version="1.0" encoding="UTF-8" standalone="no"?>
<!DOCTYPE svg PUBLIC "-//W3C//DTD SVG 1.1//EN"
 "http://www.w3.org/Graphics/SVG/1.1/DTD/svg11.dtd">
<!-- Generated by graphviz version 2.43.0 (0)
 -->
<!-- Title: cie::utils::observer::Subject Pages: 1 -->
<svg width="270pt" height="310pt"
 viewBox="0.00 0.00 269.50 310.00" xmlns="http://www.w3.org/2000/svg" xmlns:xlink="http://www.w3.org/1999/xlink">

<svg id="main" version="1.1" xmlns="http://www.w3.org/2000/svg" xmlns:xlink="http://www.w3.org/1999/xlink" xml:space="preserve" onload="init(evt)">
<style type="text/css"><![CDATA[
.node, .edge {opacity: 0.7;}
.node.selected, .edge.selected {opacity: 1;}
.edge:hover path { stroke: red; }
.edge:hover polygon { stroke: red; fill: red; }
]]></style>
<script type="application/ecmascript" xlink:href="svg.min.js"/>
<svg id="graph" class="graph">
<g id="graph0" class="graph" transform="scale(1 1) rotate(0) translate(4 306)">
<title>cie::utils::observer::Subject</title>
<!-- Node1 -->
<g id="Node000001" class="node">
<title>Node1</title>
<g id="a_Node000001"><a xlink:title=" ">
<polygon fill="#999999" stroke="transparent" points="183.5,-195 77.5,-195 77.5,0 183.5,0 183.5,-195"/>
<text text-anchor="start" x="85" y="-182.5" font-family="Helvetica,sans-Serif" font-size="10.00">cie::utils::observer</text>
<text text-anchor="start" x="109" y="-171.5" font-family="Helvetica,sans-Serif" font-size="10.00">::Subject</text>
<text text-anchor="start" x="128.5" y="-156.5" font-family="Helvetica,sans-Serif" font-size="10.00"> </text>
<text text-anchor="start" x="81.5" y="-141.5" font-family="Helvetica,sans-Serif" font-size="10.00">+</text>
<text text-anchor="start" x="94.5" y="-141.5" font-family="Helvetica,sans-Serif" font-size="10.00">Subject()</text>
<text text-anchor="start" x="81.5" y="-126.5" font-family="Helvetica,sans-Serif" font-size="10.00">+</text>
<text text-anchor="start" x="94.5" y="-126.5" font-family="Helvetica,sans-Serif" font-size="10.00">Subject()</text>
<text text-anchor="start" x="81.5" y="-111.5" font-family="Helvetica,sans-Serif" font-size="10.00">+</text>
<text text-anchor="start" x="94.5" y="-111.5" font-family="Helvetica,sans-Serif" font-size="10.00">operator=()</text>
<text text-anchor="start" x="81.5" y="-96.5" font-family="Helvetica,sans-Serif" font-size="10.00">+</text>
<text text-anchor="start" x="94.5" y="-96.5" font-family="Helvetica,sans-Serif" font-size="10.00">~Subject()</text>
<text text-anchor="start" x="81.5" y="-81.5" font-family="Helvetica,sans-Serif" font-size="10.00">+</text>
<text text-anchor="start" x="94.5" y="-81.5" font-family="Helvetica,sans-Serif" font-size="10.00">notifyObservers()</text>
<text text-anchor="start" x="81.5" y="-66.5" font-family="Helvetica,sans-Serif" font-size="10.00">+</text>
<text text-anchor="start" x="94.5" y="-66.5" font-family="Helvetica,sans-Serif" font-size="10.00">attachObserver()</text>
<text text-anchor="start" x="81.5" y="-51.5" font-family="Helvetica,sans-Serif" font-size="10.00">+</text>
<text text-anchor="start" x="94.5" y="-51.5" font-family="Helvetica,sans-Serif" font-size="10.00">detachObserver()</text>
<text text-anchor="start" x="81.5" y="-36.5" font-family="Helvetica,sans-Serif" font-size="10.00">+</text>
<text text-anchor="start" x="94.5" y="-36.5" font-family="Helvetica,sans-Serif" font-size="10.00">observerID()</text>
<text text-anchor="start" x="81.5" y="-21.5" font-family="Helvetica,sans-Serif" font-size="10.00">+</text>
<text text-anchor="start" x="94.5" y="-21.5" font-family="Helvetica,sans-Serif" font-size="10.00">observers()</text>
<text text-anchor="start" x="81.5" y="-6.5" font-family="Helvetica,sans-Serif" font-size="10.00">+</text>
<text text-anchor="start" x="94.5" y="-6.5" font-family="Helvetica,sans-Serif" font-size="10.00">as()</text>
<polygon fill="#666666" stroke="#666666" points="77.5,-166.5 77.5,-166.5 183.5,-166.5 183.5,-166.5 77.5,-166.5"/>
<polygon fill="#666666" stroke="#666666" points="77.5,-151.5 77.5,-151.5 183.5,-151.5 183.5,-151.5 77.5,-151.5"/>
<polygon fill="none" stroke="#666666" points="77.5,0 77.5,-195 183.5,-195 183.5,0 77.5,0"/>
</a>
</g>
</g>
<!-- Node2 -->
<g id="Node000002" class="node">
<title>Node2</title>
<g id="a_Node000002"><a xlink:title=" ">
<polygon fill="white" stroke="transparent" points="121,-302 0,-302 0,-242 121,-242 121,-302"/>
<text text-anchor="start" x="5.5" y="-290" font-family="Helvetica,sans-Serif" font-size="10.00">std::enable_shared</text>
<text text-anchor="start" x="5.5" y="-279" font-family="Helvetica,sans-Serif" font-size="10.00">_from_this&lt; Subject &gt;</text>
<text text-anchor="start" x="59" y="-264" font-family="Helvetica,sans-Serif" font-size="10.00"> </text>
<text text-anchor="start" x="59" y="-249" font-family="Helvetica,sans-Serif" font-size="10.00"> </text>
<polygon fill="#666666" stroke="#666666" points="0.5,-274 0.5,-274 121.5,-274 121.5,-274 0.5,-274"/>
<polygon fill="#666666" stroke="#666666" points="0.5,-259 0.5,-259 121.5,-259 121.5,-259 0.5,-259"/>
<polygon fill="none" stroke="#666666" points="0,-242 0,-302 121,-302 121,-242 0,-242"/>
</a>
</g>
</g>
<!-- Node2&#45;&gt;Node1 -->
<g id="edge1_Node000001_Node000002" class="edge">
<title>Node2&#45;&gt;Node1</title>
<g id="a_edge1_Node000001_Node000002"><a xlink:title=" ">
<path fill="none" stroke="#63b8ff" d="M76.19,-232.32C80.74,-221.12 85.92,-208.36 91.23,-195.27"/>
<polygon fill="none" stroke="#63b8ff" points="72.89,-231.16 72.37,-241.74 79.38,-233.79 72.89,-231.16"/>
</a>
</g>
</g>
<!-- Node3 -->
<g id="Node000003" class="node">
<title>Node3</title>
<g id="a_Node000003"><a xlink:title=" ">
<polygon fill="white" stroke="transparent" points="261.5,-296.5 139.5,-296.5 139.5,-247.5 261.5,-247.5 261.5,-296.5"/>
<text text-anchor="start" x="144.5" y="-284" font-family="Helvetica,sans-Serif" font-size="10.00">vector&lt; ObserverPtr &gt;</text>
<text text-anchor="start" x="198.5" y="-269" font-family="Helvetica,sans-Serif" font-size="10.00"> </text>
<text text-anchor="start" x="198.5" y="-254" font-family="Helvetica,sans-Serif" font-size="10.00"> </text>
<polygon fill="#666666" stroke="#666666" points="139.5,-279 139.5,-279 261.5,-279 261.5,-279 139.5,-279"/>
<polygon fill="#666666" stroke="#666666" points="139.5,-264 139.5,-264 261.5,-264 261.5,-264 139.5,-264"/>
<polygon fill="none" stroke="#666666" points="139.5,-247.5 139.5,-296.5 261.5,-296.5 261.5,-247.5 139.5,-247.5"/>
</a>
</g>
</g>
<!-- Node3&#45;&gt;Node1 -->
<g id="edge2_Node000001_Node000003" class="edge">
<title>Node3&#45;&gt;Node1</title>
<g id="a_edge2_Node000001_Node000003"><a xlink:title=" ">
<path fill="none" stroke="#63b8ff" d="M190.91,-247.38C186.33,-236.09 180.49,-221.7 174.26,-206.33"/>
<polygon fill="none" stroke="#63b8ff" points="174.17,-206.12 168.21,-202.07 169.66,-195 175.62,-199.06 174.17,-206.12"/>
</a>
</g>
<text text-anchor="middle" x="212" y="-216" font-family="Helvetica,sans-Serif" font-size="10.00" fill="grey"> #_observers</text>
</g>
</g>
</svg>
</svg>

<style type='text/css'>
<![CDATA[
[data-mouse-over-selected='false'] { opacity: 0.7; }
[data-mouse-over-selected='true']  { opacity: 1.0; }
]]>
</style>
<script type="application/ecmascript"><![CDATA[
document.addEventListener('DOMContentLoaded', (event) => {
  highlightEdges();
  highlightAdjacentNodes();
});
]]></script>
</svg>
