<?xml version="1.0" encoding="UTF-8" standalone="no"?>
<!DOCTYPE svg PUBLIC "-//W3C//DTD SVG 1.1//EN"
 "http://www.w3.org/Graphics/SVG/1.1/DTD/svg11.dtd">
<!-- Generated by graphviz version 2.43.0 (0)
 -->
<!-- Title: cie::utils::AbsTree&lt; TSelf, TContainer, TStored, TArgs &gt; Pages: 1 -->
<svg width="192pt" height="314pt"
 viewBox="0.00 0.00 192.00 314.00" xmlns="http://www.w3.org/2000/svg" xmlns:xlink="http://www.w3.org/1999/xlink">
<g id="graph0" class="graph" transform="scale(1 1) rotate(0) translate(4 310)">
<title>cie::utils::AbsTree&lt; TSelf, TContainer, TStored, TArgs &gt;</title>
<polygon fill="white" stroke="transparent" points="-4,4 -4,-310 188,-310 188,4 -4,4"/>
<!-- Node1 -->
<g id="node1" class="node">
<title>Node1</title>
<g id="a_node1"><a xlink:title=" ">
<polygon fill="#bfbfbf" stroke="black" points="15.5,-0.5 15.5,-189.5 129.5,-189.5 129.5,-0.5 15.5,-0.5"/>
<text text-anchor="start" x="23.5" y="-177.5" font-family="Helvetica,sans-Serif" font-size="10.00">cie::utils::AbsTree</text>
<text text-anchor="start" x="23.5" y="-166.5" font-family="Helvetica,sans-Serif" font-size="10.00">&lt; TSelf, TContainer,</text>
<text text-anchor="middle" x="72.5" y="-155.5" font-family="Helvetica,sans-Serif" font-size="10.00"> TStored, TArgs &gt;</text>
<polyline fill="none" stroke="black" points="15.5,-148.5 129.5,-148.5 "/>
<text text-anchor="middle" x="72.5" y="-136.5" font-family="Helvetica,sans-Serif" font-size="10.00"> </text>
<polyline fill="none" stroke="black" points="15.5,-129.5 129.5,-129.5 "/>
<text text-anchor="start" x="23.5" y="-117.5" font-family="Helvetica,sans-Serif" font-size="10.00">+ AbsTree()</text>
<text text-anchor="start" x="23.5" y="-106.5" font-family="Helvetica,sans-Serif" font-size="10.00">+ AbsTree()</text>
<text text-anchor="start" x="23.5" y="-95.5" font-family="Helvetica,sans-Serif" font-size="10.00">+ AbsTree()</text>
<text text-anchor="start" x="23.5" y="-84.5" font-family="Helvetica,sans-Serif" font-size="10.00">+ AbsTree()</text>
<text text-anchor="start" x="23.5" y="-73.5" font-family="Helvetica,sans-Serif" font-size="10.00">+ operator=()</text>
<text text-anchor="start" x="23.5" y="-62.5" font-family="Helvetica,sans-Serif" font-size="10.00">+ operator=()</text>
<text text-anchor="start" x="23.5" y="-51.5" font-family="Helvetica,sans-Serif" font-size="10.00">+ ~AbsTree()</text>
<text text-anchor="start" x="23.5" y="-40.5" font-family="Helvetica,sans-Serif" font-size="10.00">+ visit()</text>
<text text-anchor="start" x="23.5" y="-29.5" font-family="Helvetica,sans-Serif" font-size="10.00">+ visit()</text>
<text text-anchor="start" x="23.5" y="-18.5" font-family="Helvetica,sans-Serif" font-size="10.00">+ visit()</text>
<text text-anchor="start" x="23.5" y="-7.5" font-family="Helvetica,sans-Serif" font-size="10.00">and 9 more...</text>
</a>
</g>
</g>
<!-- Node2 -->
<g id="node2" class="node">
<title>Node2</title>
<g id="a_node2"><a xlink:title=" ">
<polygon fill="white" stroke="#bfbfbf" points="0,-243 0,-300 45,-300 45,-243 0,-243"/>
<text text-anchor="middle" x="22.5" y="-288" font-family="Helvetica,sans-Serif" font-size="10.00">size_t</text>
<polyline fill="none" stroke="#bfbfbf" points="0,-281 45,-281 "/>
<text text-anchor="middle" x="22.5" y="-269" font-family="Helvetica,sans-Serif" font-size="10.00"> </text>
<polyline fill="none" stroke="#bfbfbf" points="0,-262 45,-262 "/>
<text text-anchor="middle" x="22.5" y="-250" font-family="Helvetica,sans-Serif" font-size="10.00"> </text>
</a>
</g>
</g>
<!-- Node2&#45;&gt;Node1 -->
<g id="edge1" class="edge">
<title>Node2&#45;&gt;Node1</title>
<path fill="none" stroke="#404040" d="M30.42,-242.85C33.78,-231.13 37.92,-216.67 42.29,-201.43"/>
<polygon fill="none" stroke="#404040" points="42.36,-201.2 40.17,-194.33 45.66,-189.66 47.86,-196.53 42.36,-201.2"/>
<text text-anchor="middle" x="61" y="-211" font-family="Helvetica,sans-Serif" font-size="10.00"> #_level</text>
</g>
<!-- Node3 -->
<g id="node3" class="node">
<title>Node3</title>
<g id="a_node3"><a xlink:title=" ">
<polygon fill="white" stroke="#bfbfbf" points="63,-237.5 63,-305.5 184,-305.5 184,-237.5 63,-237.5"/>
<text text-anchor="start" x="71" y="-293.5" font-family="Helvetica,sans-Serif" font-size="10.00">TContainer&lt; TStored,</text>
<text text-anchor="middle" x="123.5" y="-282.5" font-family="Helvetica,sans-Serif" font-size="10.00"> TArgs... &gt;</text>
<polyline fill="none" stroke="#bfbfbf" points="63,-275.5 184,-275.5 "/>
<text text-anchor="middle" x="123.5" y="-263.5" font-family="Helvetica,sans-Serif" font-size="10.00"> </text>
<polyline fill="none" stroke="#bfbfbf" points="63,-256.5 184,-256.5 "/>
<text text-anchor="middle" x="123.5" y="-244.5" font-family="Helvetica,sans-Serif" font-size="10.00"> </text>
</a>
</g>
</g>
<!-- Node3&#45;&gt;Node1 -->
<g id="edge2" class="edge">
<title>Node3&#45;&gt;Node1</title>
<path fill="none" stroke="#404040" d="M113.79,-237.27C110.71,-226.74 107.13,-214.49 103.39,-201.68"/>
<polygon fill="none" stroke="#404040" points="103.28,-201.32 97.76,-196.68 99.91,-189.8 105.44,-194.44 103.28,-201.32"/>
<text text-anchor="middle" x="135.5" y="-211" font-family="Helvetica,sans-Serif" font-size="10.00"> #_children</text>
</g>
</g>
</svg>
