<?xml version="1.0" encoding="UTF-8" standalone="no"?>
<!DOCTYPE svg PUBLIC "-//W3C//DTD SVG 1.1//EN"
 "http://www.w3.org/Graphics/SVG/1.1/DTD/svg11.dtd">
<!-- Generated by graphviz version 2.43.0 (0)
 -->
<!-- Title: cie::utils::IDObject&lt; TID &gt; Pages: 1 -->
<svg width="123pt" height="493pt"
 viewBox="0.00 0.00 123.00 493.00" xmlns="http://www.w3.org/2000/svg" xmlns:xlink="http://www.w3.org/1999/xlink">
<g id="graph0" class="graph" transform="scale(1 1) rotate(0) translate(4 489)">
<title>cie::utils::IDObject&lt; TID &gt;</title>
<!-- Node1 -->
<g id="Node000001" class="node">
<title>Node1</title>
<g id="a_Node000001"><a xlink:title=" ">
<polygon fill="#999999" stroke="transparent" points="107.5,-485 7.5,-485 7.5,-320 107.5,-320 107.5,-485"/>
<text text-anchor="start" x="12.5" y="-472.5" font-family="Helvetica,sans-Serif" font-size="10.00">cie::utils::IDObject</text>
<text text-anchor="start" x="37.5" y="-461.5" font-family="Helvetica,sans-Serif" font-size="10.00">&lt; TID &gt;</text>
<text text-anchor="start" x="16.5" y="-446.5" font-family="Helvetica,sans-Serif" font-size="10.00">#</text>
<text text-anchor="start" x="34.5" y="-446.5" font-family="Helvetica,sans-Serif" font-size="10.00">_id</text>
<text text-anchor="start" x="16.5" y="-431.5" font-family="Helvetica,sans-Serif" font-size="10.00">+</text>
<text text-anchor="start" x="34.5" y="-431.5" font-family="Helvetica,sans-Serif" font-size="10.00">IDObject()</text>
<text text-anchor="start" x="16.5" y="-416.5" font-family="Helvetica,sans-Serif" font-size="10.00">+</text>
<text text-anchor="start" x="34.5" y="-416.5" font-family="Helvetica,sans-Serif" font-size="10.00">IDObject()</text>
<text text-anchor="start" x="16.5" y="-401.5" font-family="Helvetica,sans-Serif" font-size="10.00">+</text>
<text text-anchor="start" x="34.5" y="-401.5" font-family="Helvetica,sans-Serif" font-size="10.00">IDObject()</text>
<text text-anchor="start" x="16.5" y="-386.5" font-family="Helvetica,sans-Serif" font-size="10.00">+</text>
<text text-anchor="start" x="34.5" y="-386.5" font-family="Helvetica,sans-Serif" font-size="10.00">IDObject()</text>
<text text-anchor="start" x="16.5" y="-371.5" font-family="Helvetica,sans-Serif" font-size="10.00">+</text>
<text text-anchor="start" x="34.5" y="-371.5" font-family="Helvetica,sans-Serif" font-size="10.00">operator=()</text>
<text text-anchor="start" x="16.5" y="-356.5" font-family="Helvetica,sans-Serif" font-size="10.00">+</text>
<text text-anchor="start" x="34.5" y="-356.5" font-family="Helvetica,sans-Serif" font-size="10.00">operator=()</text>
<text text-anchor="start" x="16.5" y="-341.5" font-family="Helvetica,sans-Serif" font-size="10.00">+</text>
<text text-anchor="start" x="34.5" y="-341.5" font-family="Helvetica,sans-Serif" font-size="10.00">setID()</text>
<text text-anchor="start" x="16.5" y="-326.5" font-family="Helvetica,sans-Serif" font-size="10.00">+</text>
<text text-anchor="start" x="34.5" y="-326.5" font-family="Helvetica,sans-Serif" font-size="10.00">getID()</text>
<polygon fill="#666666" stroke="#666666" points="7.5,-456.5 7.5,-456.5 107.5,-456.5 107.5,-456.5 7.5,-456.5"/>
<polygon fill="#666666" stroke="#666666" points="7.5,-441.5 7.5,-441.5 32.5,-441.5 32.5,-441.5 7.5,-441.5"/>
<polygon fill="#666666" stroke="#666666" points="32.5,-441.5 32.5,-441.5 107.5,-441.5 107.5,-441.5 32.5,-441.5"/>
<polygon fill="none" stroke="#666666" points="7.5,-320 7.5,-485 107.5,-485 107.5,-320 7.5,-320"/>
</a>
</g>
</g>
<!-- Node2 -->
<g id="Node000002" class="node">
<title>Node2</title>
<g id="a_Node000002"><a xlink:href="classcie_1_1utils_1_1IDObject.html" target="_top" xlink:title=" ">
<polygon fill="white" stroke="transparent" points="107.5,-273 7.5,-273 7.5,-108 107.5,-108 107.5,-273"/>
<text text-anchor="start" x="12.5" y="-260.5" font-family="Helvetica,sans-Serif" font-size="10.00">cie::utils::IDObject</text>
<text text-anchor="start" x="36" y="-249.5" font-family="Helvetica,sans-Serif" font-size="10.00">&lt; Size &gt;</text>
<text text-anchor="start" x="16.5" y="-234.5" font-family="Helvetica,sans-Serif" font-size="10.00">#</text>
<text text-anchor="start" x="34.5" y="-234.5" font-family="Helvetica,sans-Serif" font-size="10.00">_id</text>
<text text-anchor="start" x="16.5" y="-219.5" font-family="Helvetica,sans-Serif" font-size="10.00">+</text>
<text text-anchor="start" x="34.5" y="-219.5" font-family="Helvetica,sans-Serif" font-size="10.00">IDObject()</text>
<text text-anchor="start" x="16.5" y="-204.5" font-family="Helvetica,sans-Serif" font-size="10.00">+</text>
<text text-anchor="start" x="34.5" y="-204.5" font-family="Helvetica,sans-Serif" font-size="10.00">IDObject()</text>
<text text-anchor="start" x="16.5" y="-189.5" font-family="Helvetica,sans-Serif" font-size="10.00">+</text>
<text text-anchor="start" x="34.5" y="-189.5" font-family="Helvetica,sans-Serif" font-size="10.00">IDObject()</text>
<text text-anchor="start" x="16.5" y="-174.5" font-family="Helvetica,sans-Serif" font-size="10.00">+</text>
<text text-anchor="start" x="34.5" y="-174.5" font-family="Helvetica,sans-Serif" font-size="10.00">IDObject()</text>
<text text-anchor="start" x="16.5" y="-159.5" font-family="Helvetica,sans-Serif" font-size="10.00">+</text>
<text text-anchor="start" x="34.5" y="-159.5" font-family="Helvetica,sans-Serif" font-size="10.00">operator=()</text>
<text text-anchor="start" x="16.5" y="-144.5" font-family="Helvetica,sans-Serif" font-size="10.00">+</text>
<text text-anchor="start" x="34.5" y="-144.5" font-family="Helvetica,sans-Serif" font-size="10.00">operator=()</text>
<text text-anchor="start" x="16.5" y="-129.5" font-family="Helvetica,sans-Serif" font-size="10.00">+</text>
<text text-anchor="start" x="34.5" y="-129.5" font-family="Helvetica,sans-Serif" font-size="10.00">setID()</text>
<text text-anchor="start" x="16.5" y="-114.5" font-family="Helvetica,sans-Serif" font-size="10.00">+</text>
<text text-anchor="start" x="34.5" y="-114.5" font-family="Helvetica,sans-Serif" font-size="10.00">getID()</text>
<polygon fill="#666666" stroke="#666666" points="7.5,-244.5 7.5,-244.5 107.5,-244.5 107.5,-244.5 7.5,-244.5"/>
<polygon fill="#666666" stroke="#666666" points="7.5,-229.5 7.5,-229.5 32.5,-229.5 32.5,-229.5 7.5,-229.5"/>
<polygon fill="#666666" stroke="#666666" points="32.5,-229.5 32.5,-229.5 107.5,-229.5 107.5,-229.5 32.5,-229.5"/>
<polygon fill="none" stroke="#666666" points="7.5,-108 7.5,-273 107.5,-273 107.5,-108 7.5,-108"/>
</a>
</g>
</g>
<!-- Node1&#45;&gt;Node2 -->
<g id="edge1_Node000001_Node000002" class="edge">
<title>Node1&#45;&gt;Node2</title>
<g id="a_edge1_Node000001_Node000002"><a xlink:title=" ">
<path fill="none" stroke="orange" d="M57.5,-309.57C57.5,-297.42 57.5,-285.03 57.5,-273.07"/>
<polygon fill="orange" stroke="orange" points="54,-309.71 57.5,-319.71 61,-309.71 54,-309.71"/>
</a>
</g>
<text text-anchor="middle" x="80.5" y="-294" font-family="Helvetica,sans-Serif" font-size="10.00" fill="grey"> &lt; Size &gt;</text>
</g>
<!-- Node3 -->
<g id="Node000003" class="node">
<title>Node3</title>
<g id="a_Node000003"><a xlink:title=" ">
<polygon fill="white" stroke="transparent" points="115,-71 0,-71 0,0 115,0 115,-71"/>
<text text-anchor="start" x="5.5" y="-58.5" font-family="Helvetica,sans-Serif" font-size="10.00">cie::utils::detail</text>
<text text-anchor="start" x="5.5" y="-47.5" font-family="Helvetica,sans-Serif" font-size="10.00">::AggregateArgument</text>
<text text-anchor="start" x="20" y="-36.5" font-family="Helvetica,sans-Serif" font-size="10.00">&lt; TArgument &gt;</text>
<text text-anchor="start" x="56" y="-21.5" font-family="Helvetica,sans-Serif" font-size="10.00"> </text>
<text text-anchor="start" x="56" y="-6.5" font-family="Helvetica,sans-Serif" font-size="10.00"> </text>
<polygon fill="#666666" stroke="#666666" points="0.5,-31.5 0.5,-31.5 115.5,-31.5 115.5,-31.5 0.5,-31.5"/>
<polygon fill="#666666" stroke="#666666" points="0.5,-16.5 0.5,-16.5 115.5,-16.5 115.5,-16.5 0.5,-16.5"/>
<polygon fill="none" stroke="#666666" points="0,0 0,-71 115,-71 115,0 0,0"/>
</a>
</g>
</g>
<!-- Node2&#45;&gt;Node3 -->
<g id="edge2_Node000002_Node000003" class="edge">
<title>Node2&#45;&gt;Node3</title>
<g id="a_edge2_Node000002_Node000003"><a xlink:title=" ">
<path fill="none" stroke="#63b8ff" d="M57.5,-97.5C57.5,-88.26 57.5,-79.34 57.5,-71.3"/>
<polygon fill="none" stroke="#63b8ff" points="54,-97.62 57.5,-107.63 61,-97.63 54,-97.62"/>
</a>
</g>
</g>
</g>
</svg>
