<?xml version="1.0" encoding="UTF-8" standalone="no"?>
<!DOCTYPE svg PUBLIC "-//W3C//DTD SVG 1.1//EN"
 "http://www.w3.org/Graphics/SVG/1.1/DTD/svg11.dtd">
<!-- Generated by graphviz version 2.43.0 (0)
 -->
<!-- Title: modules.benchutils.Parser.GoogleTextParser Pages: 1 -->
<svg width="166pt" height="294pt"
 viewBox="0.00 0.00 166.00 294.00" xmlns="http://www.w3.org/2000/svg" xmlns:xlink="http://www.w3.org/1999/xlink">

<svg id="main" version="1.1" xmlns="http://www.w3.org/2000/svg" xmlns:xlink="http://www.w3.org/1999/xlink" xml:space="preserve" onload="init(evt)">
<style type="text/css"><![CDATA[
.node, .edge {opacity: 0.7;}
.node.selected, .edge.selected {opacity: 1;}
.edge:hover path { stroke: red; }
.edge:hover polygon { stroke: red; fill: red; }
]]></style>
<script type="application/ecmascript" xlink:href="svg.min.js"/>
<svg id="graph" class="graph">
<g id="graph0" class="graph" transform="scale(1 1) rotate(0) translate(4 290)">
<title>modules.benchutils.Parser.GoogleTextParser</title>
<!-- Node1 -->
<g id="Node000001" class="node">
<title>Node1</title>
<g id="a_Node000001"><a xlink:title="Parses google benchmark text output and packs them into a single Result object.">
<polygon fill="#999999" stroke="transparent" points="145,-90 4,-90 4,0 145,0 145,-90"/>
<text text-anchor="start" x="9.5" y="-78" font-family="Helvetica,sans-Serif" font-size="10.00">modules.benchutils.Parser.</text>
<text text-anchor="start" x="32.5" y="-67" font-family="Helvetica,sans-Serif" font-size="10.00">GoogleTextParser</text>
<text text-anchor="start" x="73" y="-52" font-family="Helvetica,sans-Serif" font-size="10.00"> </text>
<text text-anchor="start" x="27" y="-37" font-family="Helvetica,sans-Serif" font-size="10.00">+</text>
<text text-anchor="start" x="58.5" y="-37" font-family="Helvetica,sans-Serif" font-size="10.00">name()</text>
<text text-anchor="start" x="27" y="-22" font-family="Helvetica,sans-Serif" font-size="10.00">+</text>
<text text-anchor="start" x="58.5" y="-22" font-family="Helvetica,sans-Serif" font-size="10.00">__init__()</text>
<text text-anchor="start" x="27" y="-7" font-family="Helvetica,sans-Serif" font-size="10.00">+</text>
<text text-anchor="start" x="58.5" y="-7" font-family="Helvetica,sans-Serif" font-size="10.00">__call__()</text>
<polygon fill="#666666" stroke="#666666" points="4.5,-62 4.5,-62 145.5,-62 145.5,-62 4.5,-62"/>
<polygon fill="#666666" stroke="#666666" points="4.5,-47 4.5,-47 145.5,-47 145.5,-47 4.5,-47"/>
<polygon fill="none" stroke="#666666" points="4,0 4,-90 145,-90 145,0 4,0"/>
</a>
</g>
</g>
<!-- Node2 -->
<g id="Node000002" class="node">
<title>Node2</title>
<g id="a_Node000002"><a xlink:href="classmodules_1_1benchutils_1_1Parser_1_1Parser.html" target="_top" xlink:title=" ">
<polygon fill="white" stroke="transparent" points="145,-201 4,-201 4,-126 145,-126 145,-201"/>
<text text-anchor="start" x="9.5" y="-188.5" font-family="Helvetica,sans-Serif" font-size="10.00">modules.benchutils.Parser.</text>
<text text-anchor="start" x="59.5" y="-177.5" font-family="Helvetica,sans-Serif" font-size="10.00">Parser</text>
<text text-anchor="start" x="73" y="-162.5" font-family="Helvetica,sans-Serif" font-size="10.00"> </text>
<text text-anchor="start" x="27" y="-147.5" font-family="Helvetica,sans-Serif" font-size="10.00">+</text>
<text text-anchor="start" x="58.5" y="-147.5" font-family="Helvetica,sans-Serif" font-size="10.00">name()</text>
<text text-anchor="start" x="27" y="-132.5" font-family="Helvetica,sans-Serif" font-size="10.00">+</text>
<text text-anchor="start" x="58.5" y="-132.5" font-family="Helvetica,sans-Serif" font-size="10.00">__call__()</text>
<polygon fill="#666666" stroke="#666666" points="4.5,-172.5 4.5,-172.5 145.5,-172.5 145.5,-172.5 4.5,-172.5"/>
<polygon fill="#666666" stroke="#666666" points="4.5,-157.5 4.5,-157.5 145.5,-157.5 145.5,-157.5 4.5,-157.5"/>
<polygon fill="none" stroke="#666666" points="4,-126 4,-201 145,-201 145,-126 4,-126"/>
</a>
</g>
</g>
<!-- Node2&#45;&gt;Node1 -->
<g id="edge1_Node000001_Node000002" class="edge">
<title>Node2&#45;&gt;Node1</title>
<g id="a_edge1_Node000001_Node000002"><a xlink:title=" ">
<path fill="none" stroke="#63b8ff" d="M74.5,-115.85C74.5,-107.38 74.5,-98.58 74.5,-90.18"/>
<polygon fill="none" stroke="#63b8ff" points="71,-115.96 74.5,-125.96 78,-115.96 71,-115.96"/>
</a>
</g>
</g>
<!-- Node3 -->
<g id="Node000003" class="node">
<title>Node3</title>
<g id="a_Node000003"><a xlink:href="classmetaclass.html" target="_top" xlink:title=" ">
<polygon fill="white" stroke="transparent" points="61,-286 0,-286 0,-237 61,-237 61,-286"/>
<text text-anchor="start" x="5.5" y="-273.5" font-family="Helvetica,sans-Serif" font-size="10.00">metaclass</text>
<text text-anchor="start" x="29" y="-258.5" font-family="Helvetica,sans-Serif" font-size="10.00"> </text>
<text text-anchor="start" x="29" y="-243.5" font-family="Helvetica,sans-Serif" font-size="10.00"> </text>
<polygon fill="#666666" stroke="#666666" points="0.5,-268.5 0.5,-268.5 61.5,-268.5 61.5,-268.5 0.5,-268.5"/>
<polygon fill="#666666" stroke="#666666" points="0.5,-253.5 0.5,-253.5 61.5,-253.5 61.5,-253.5 0.5,-253.5"/>
<polygon fill="none" stroke="#666666" points="0,-237 0,-286 61,-286 61,-237 0,-237"/>
</a>
</g>
</g>
<!-- Node3&#45;&gt;Node2 -->
<g id="edge2_Node000002_Node000003" class="edge">
<title>Node3&#45;&gt;Node2</title>
<g id="a_edge2_Node000002_Node000003"><a xlink:title=" ">
<path fill="none" stroke="#63b8ff" d="M45.62,-227.5C49.53,-218.97 53.77,-209.74 57.75,-201.04"/>
<polygon fill="none" stroke="#63b8ff" points="42.36,-226.22 41.38,-236.77 48.72,-229.14 42.36,-226.22"/>
</a>
</g>
</g>
<!-- Node4 -->
<g id="Node000004" class="node">
<title>Node4</title>
<g id="a_Node000004"><a xlink:title=" ">
<polygon fill="white" stroke="transparent" points="158,-286 79,-286 79,-237 158,-237 158,-286"/>
<text text-anchor="start" x="84.5" y="-273.5" font-family="Helvetica,sans-Serif" font-size="10.00">abc::ABCMeta</text>
<text text-anchor="start" x="117" y="-258.5" font-family="Helvetica,sans-Serif" font-size="10.00"> </text>
<text text-anchor="start" x="117" y="-243.5" font-family="Helvetica,sans-Serif" font-size="10.00"> </text>
<polygon fill="#666666" stroke="#666666" points="79.5,-268.5 79.5,-268.5 158.5,-268.5 158.5,-268.5 79.5,-268.5"/>
<polygon fill="#666666" stroke="#666666" points="79.5,-253.5 79.5,-253.5 158.5,-253.5 158.5,-253.5 79.5,-253.5"/>
<polygon fill="none" stroke="#666666" points="79,-237 79,-286 158,-286 158,-237 79,-237"/>
</a>
</g>
</g>
<!-- Node4&#45;&gt;Node2 -->
<g id="edge3_Node000002_Node000004" class="edge">
<title>Node4&#45;&gt;Node2</title>
<g id="a_edge3_Node000002_Node000004"><a xlink:title=" ">
<path fill="none" stroke="#63b8ff" d="M103.38,-227.5C99.47,-218.97 95.23,-209.74 91.25,-201.04"/>
<polygon fill="none" stroke="#63b8ff" points="100.28,-229.14 107.62,-236.77 106.64,-226.22 100.28,-229.14"/>
</a>
</g>
</g>
</g>
</svg>
</svg>

<style type='text/css'>
<![CDATA[
[data-mouse-over-selected='false'] { opacity: 0.7; }
[data-mouse-over-selected='true']  { opacity: 1.0; }
]]>
</style>
<script type="application/ecmascript"><![CDATA[
document.addEventListener('DOMContentLoaded', (event) => {
  highlightEdges();
  highlightAdjacentNodes();
});
]]></script>
</svg>
