<?xml version="1.0" encoding="UTF-8" standalone="no"?>
<!DOCTYPE svg PUBLIC "-//W3C//DTD SVG 1.1//EN"
 "http://www.w3.org/Graphics/SVG/1.1/DTD/svg11.dtd">
<!-- Generated by graphviz version 2.43.0 (0)
 -->
<!-- Title: modules.benchutils.Parser.InternalJSONParser Pages: 1 -->
<svg width="166pt" height="279pt"
 viewBox="0.00 0.00 166.00 279.00" xmlns="http://www.w3.org/2000/svg" xmlns:xlink="http://www.w3.org/1999/xlink">

<svg id="main" version="1.1" xmlns="http://www.w3.org/2000/svg" xmlns:xlink="http://www.w3.org/1999/xlink" xml:space="preserve" onload="init(evt)">
<style type="text/css"><![CDATA[
.node, .edge {opacity: 0.7;}
.node.selected, .edge.selected {opacity: 1;}
.edge:hover path { stroke: red; }
.edge:hover polygon { stroke: red; fill: red; }
]]></style>
<script type="application/ecmascript" xlink:href="svg.min.js"/>
<svg id="graph" class="graph">
<g id="graph0" class="graph" transform="scale(1 1) rotate(0) translate(4 275)">
<title>modules.benchutils.Parser.InternalJSONParser</title>
<!-- Node1 -->
<g id="Node000001" class="node">
<title>Node1</title>
<g id="a_Node000001"><a xlink:title="Parses a stream generated from serializing a list of Result objects.">
<polygon fill="#999999" stroke="transparent" points="145,-75 4,-75 4,0 145,0 145,-75"/>
<text text-anchor="start" x="9.5" y="-62.5" font-family="Helvetica,sans-Serif" font-size="10.00">modules.benchutils.Parser.</text>
<text text-anchor="start" x="29" y="-51.5" font-family="Helvetica,sans-Serif" font-size="10.00">InternalJSONParser</text>
<text text-anchor="start" x="73" y="-36.5" font-family="Helvetica,sans-Serif" font-size="10.00"> </text>
<text text-anchor="start" x="27" y="-21.5" font-family="Helvetica,sans-Serif" font-size="10.00">+</text>
<text text-anchor="start" x="58.5" y="-21.5" font-family="Helvetica,sans-Serif" font-size="10.00">name()</text>
<text text-anchor="start" x="27" y="-6.5" font-family="Helvetica,sans-Serif" font-size="10.00">+</text>
<text text-anchor="start" x="58.5" y="-6.5" font-family="Helvetica,sans-Serif" font-size="10.00">__call__()</text>
<polygon fill="#666666" stroke="#666666" points="4.5,-46.5 4.5,-46.5 145.5,-46.5 145.5,-46.5 4.5,-46.5"/>
<polygon fill="#666666" stroke="#666666" points="4.5,-31.5 4.5,-31.5 145.5,-31.5 145.5,-31.5 4.5,-31.5"/>
<polygon fill="none" stroke="#666666" points="4,0 4,-75 145,-75 145,0 4,0"/>
</a>
</g>
</g>
<!-- Node2 -->
<g id="Node000002" class="node">
<title>Node2</title>
<g id="a_Node000002"><a xlink:href="classmodules_1_1benchutils_1_1Parser_1_1Parser.html" target="_top" xlink:title=" ">
<polygon fill="white" stroke="transparent" points="145,-186 4,-186 4,-111 145,-111 145,-186"/>
<text text-anchor="start" x="9.5" y="-173.5" font-family="Helvetica,sans-Serif" font-size="10.00">modules.benchutils.Parser.</text>
<text text-anchor="start" x="59.5" y="-162.5" font-family="Helvetica,sans-Serif" font-size="10.00">Parser</text>
<text text-anchor="start" x="73" y="-147.5" font-family="Helvetica,sans-Serif" font-size="10.00"> </text>
<text text-anchor="start" x="27" y="-132.5" font-family="Helvetica,sans-Serif" font-size="10.00">+</text>
<text text-anchor="start" x="58.5" y="-132.5" font-family="Helvetica,sans-Serif" font-size="10.00">name()</text>
<text text-anchor="start" x="27" y="-117.5" font-family="Helvetica,sans-Serif" font-size="10.00">+</text>
<text text-anchor="start" x="58.5" y="-117.5" font-family="Helvetica,sans-Serif" font-size="10.00">__call__()</text>
<polygon fill="#666666" stroke="#666666" points="4.5,-157.5 4.5,-157.5 145.5,-157.5 145.5,-157.5 4.5,-157.5"/>
<polygon fill="#666666" stroke="#666666" points="4.5,-142.5 4.5,-142.5 145.5,-142.5 145.5,-142.5 4.5,-142.5"/>
<polygon fill="none" stroke="#666666" points="4,-111 4,-186 145,-186 145,-111 4,-111"/>
</a>
</g>
</g>
<!-- Node2&#45;&gt;Node1 -->
<g id="edge1_Node000001_Node000002" class="edge">
<title>Node2&#45;&gt;Node1</title>
<g id="a_edge1_Node000001_Node000002"><a xlink:title=" ">
<path fill="none" stroke="#63b8ff" d="M74.5,-100.68C74.5,-92.15 74.5,-83.37 74.5,-75.19"/>
<polygon fill="none" stroke="#63b8ff" points="71,-100.9 74.5,-110.9 78,-100.9 71,-100.9"/>
</a>
</g>
</g>
<!-- Node3 -->
<g id="Node000003" class="node">
<title>Node3</title>
<g id="a_Node000003"><a xlink:href="classmetaclass.html" target="_top" xlink:title=" ">
<polygon fill="white" stroke="transparent" points="61,-271 0,-271 0,-222 61,-222 61,-271"/>
<text text-anchor="start" x="5.5" y="-258.5" font-family="Helvetica,sans-Serif" font-size="10.00">metaclass</text>
<text text-anchor="start" x="29" y="-243.5" font-family="Helvetica,sans-Serif" font-size="10.00"> </text>
<text text-anchor="start" x="29" y="-228.5" font-family="Helvetica,sans-Serif" font-size="10.00"> </text>
<polygon fill="#666666" stroke="#666666" points="0.5,-253.5 0.5,-253.5 61.5,-253.5 61.5,-253.5 0.5,-253.5"/>
<polygon fill="#666666" stroke="#666666" points="0.5,-238.5 0.5,-238.5 61.5,-238.5 61.5,-238.5 0.5,-238.5"/>
<polygon fill="none" stroke="#666666" points="0,-222 0,-271 61,-271 61,-222 0,-222"/>
</a>
</g>
</g>
<!-- Node3&#45;&gt;Node2 -->
<g id="edge2_Node000002_Node000003" class="edge">
<title>Node3&#45;&gt;Node2</title>
<g id="a_edge2_Node000002_Node000003"><a xlink:title=" ">
<path fill="none" stroke="#63b8ff" d="M45.62,-212.5C49.53,-203.97 53.77,-194.74 57.75,-186.04"/>
<polygon fill="none" stroke="#63b8ff" points="42.36,-211.22 41.38,-221.77 48.72,-214.14 42.36,-211.22"/>
</a>
</g>
</g>
<!-- Node4 -->
<g id="Node000004" class="node">
<title>Node4</title>
<g id="a_Node000004"><a xlink:title=" ">
<polygon fill="white" stroke="transparent" points="158,-271 79,-271 79,-222 158,-222 158,-271"/>
<text text-anchor="start" x="84.5" y="-258.5" font-family="Helvetica,sans-Serif" font-size="10.00">abc::ABCMeta</text>
<text text-anchor="start" x="117" y="-243.5" font-family="Helvetica,sans-Serif" font-size="10.00"> </text>
<text text-anchor="start" x="117" y="-228.5" font-family="Helvetica,sans-Serif" font-size="10.00"> </text>
<polygon fill="#666666" stroke="#666666" points="79.5,-253.5 79.5,-253.5 158.5,-253.5 158.5,-253.5 79.5,-253.5"/>
<polygon fill="#666666" stroke="#666666" points="79.5,-238.5 79.5,-238.5 158.5,-238.5 158.5,-238.5 79.5,-238.5"/>
<polygon fill="none" stroke="#666666" points="79,-222 79,-271 158,-271 158,-222 79,-222"/>
</a>
</g>
</g>
<!-- Node4&#45;&gt;Node2 -->
<g id="edge3_Node000002_Node000004" class="edge">
<title>Node4&#45;&gt;Node2</title>
<g id="a_edge3_Node000002_Node000004"><a xlink:title=" ">
<path fill="none" stroke="#63b8ff" d="M103.38,-212.5C99.47,-203.97 95.23,-194.74 91.25,-186.04"/>
<polygon fill="none" stroke="#63b8ff" points="100.28,-214.14 107.62,-221.77 106.64,-211.22 100.28,-214.14"/>
</a>
</g>
</g>
</g>
</svg>
</svg>

<style type='text/css'>
<![CDATA[
[data-mouse-over-selected='false'] { opacity: 0.7; }
[data-mouse-over-selected='true']  { opacity: 1.0; }
]]>
</style>
<script type="application/ecmascript"><![CDATA[
document.addEventListener('DOMContentLoaded', (event) => {
  highlightEdges();
  highlightAdjacentNodes();
});
]]></script>
</svg>
