<?xml version="1.0" encoding="UTF-8" standalone="no"?>
<!DOCTYPE svg PUBLIC "-//W3C//DTD SVG 1.1//EN"
 "http://www.w3.org/Graphics/SVG/1.1/DTD/svg11.dtd">
<!-- Generated by graphviz version 2.43.0 (0)
 -->
<!-- Title: cie::utils::StrongTypeDef&lt; T, Tag &gt; Pages: 1 -->
<svg width="231pt" height="315pt"
 viewBox="0.00 0.00 231.00 315.00" xmlns="http://www.w3.org/2000/svg" xmlns:xlink="http://www.w3.org/1999/xlink">
<g id="graph0" class="graph" transform="scale(1 1) rotate(0) translate(4 311)">
<title>cie::utils::StrongTypeDef&lt; T, Tag &gt;</title>
<polygon fill="white" stroke="transparent" points="-4,4 -4,-311 227,-311 227,4 -4,4"/>
<!-- Node1 -->
<g id="node1" class="node">
<title>Node1</title>
<g id="a_node1"><a xlink:title=" ">
<polygon fill="#bfbfbf" stroke="black" points="0,-0.5 0,-211.5 135,-211.5 135,-0.5 0,-0.5"/>
<text text-anchor="start" x="8" y="-199.5" font-family="Helvetica,sans-Serif" font-size="10.00">cie::utils::StrongTypeDef</text>
<text text-anchor="middle" x="67.5" y="-188.5" font-family="Helvetica,sans-Serif" font-size="10.00">&lt; T, Tag &gt;</text>
<polyline fill="none" stroke="black" points="0,-181.5 135,-181.5 "/>
<text text-anchor="middle" x="67.5" y="-169.5" font-family="Helvetica,sans-Serif" font-size="10.00"> </text>
<polyline fill="none" stroke="black" points="0,-162.5 135,-162.5 "/>
<text text-anchor="start" x="8" y="-150.5" font-family="Helvetica,sans-Serif" font-size="10.00">+ StrongTypeDef()</text>
<text text-anchor="start" x="8" y="-139.5" font-family="Helvetica,sans-Serif" font-size="10.00">+ StrongTypeDef()</text>
<text text-anchor="start" x="8" y="-128.5" font-family="Helvetica,sans-Serif" font-size="10.00">+ StrongTypeDef()</text>
<text text-anchor="start" x="8" y="-117.5" font-family="Helvetica,sans-Serif" font-size="10.00">+ StrongTypeDef()</text>
<text text-anchor="start" x="8" y="-106.5" font-family="Helvetica,sans-Serif" font-size="10.00">+ StrongTypeDef()</text>
<text text-anchor="start" x="8" y="-95.5" font-family="Helvetica,sans-Serif" font-size="10.00">+ operator const T &amp;()</text>
<text text-anchor="start" x="8" y="-84.5" font-family="Helvetica,sans-Serif" font-size="10.00">+ StrongTypeDef()</text>
<text text-anchor="start" x="8" y="-73.5" font-family="Helvetica,sans-Serif" font-size="10.00">+ StrongTypeDef()</text>
<text text-anchor="start" x="8" y="-62.5" font-family="Helvetica,sans-Serif" font-size="10.00">+ StrongTypeDef()</text>
<text text-anchor="start" x="8" y="-51.5" font-family="Helvetica,sans-Serif" font-size="10.00">+ operator=()</text>
<text text-anchor="start" x="8" y="-40.5" font-family="Helvetica,sans-Serif" font-size="10.00">+ operator T()</text>
<text text-anchor="start" x="8" y="-29.5" font-family="Helvetica,sans-Serif" font-size="10.00">+ operator const T &amp;()</text>
<text text-anchor="start" x="8" y="-18.5" font-family="Helvetica,sans-Serif" font-size="10.00">+ operator T&amp;()</text>
<text text-anchor="start" x="8" y="-7.5" font-family="Helvetica,sans-Serif" font-size="10.00">+ operator TT()</text>
</a>
</g>
</g>
<!-- Node1&#45;&gt;Node1 -->
<g id="edge2" class="edge">
<title>Node1&#45;&gt;Node1</title>
<path fill="none" stroke="#404040" d="M135.23,-127.31C145.8,-124.12 153,-117.02 153,-106 153,-99.46 150.46,-94.3 146.19,-90.51"/>
<polygon fill="none" stroke="#404040" points="145.83,-90.32 138.65,-91.04 135.23,-84.69 142.41,-83.98 145.83,-90.32"/>
<text text-anchor="middle" x="188" y="-103.5" font-family="Helvetica,sans-Serif" font-size="10.00"> +operator T&amp;</text>
</g>
<!-- Node2 -->
<g id="node2" class="node">
<title>Node2</title>
<g id="a_node2"><a xlink:title=" ">
<polygon fill="white" stroke="#bfbfbf" points="53,-249.5 53,-306.5 82,-306.5 82,-249.5 53,-249.5"/>
<text text-anchor="middle" x="67.5" y="-294.5" font-family="Helvetica,sans-Serif" font-size="10.00">T</text>
<polyline fill="none" stroke="#bfbfbf" points="53,-287.5 82,-287.5 "/>
<text text-anchor="middle" x="67.5" y="-275.5" font-family="Helvetica,sans-Serif" font-size="10.00"> </text>
<polyline fill="none" stroke="#bfbfbf" points="53,-268.5 82,-268.5 "/>
<text text-anchor="middle" x="67.5" y="-256.5" font-family="Helvetica,sans-Serif" font-size="10.00"> </text>
</a>
</g>
</g>
<!-- Node2&#45;&gt;Node1 -->
<g id="edge1" class="edge">
<title>Node2&#45;&gt;Node1</title>
<path fill="none" stroke="midnightblue" d="M67.5,-239.19C67.5,-230.8 67.5,-221.5 67.5,-211.84"/>
<polygon fill="none" stroke="midnightblue" points="64,-239.31 67.5,-249.31 71,-239.31 64,-239.31"/>
</g>
</g>
</svg>
