<?xml version="1.0" encoding="UTF-8" standalone="no"?>
<!DOCTYPE svg PUBLIC "-//W3C//DTD SVG 1.1//EN"
 "http://www.w3.org/Graphics/SVG/1.1/DTD/svg11.dtd">
<!-- Generated by graphviz version 2.43.0 (0)
 -->
<!-- Title: cie::io::JSONObject Pages: 1 -->
<svg width="162pt" height="721pt"
 viewBox="0.00 0.00 161.50 721.00" xmlns="http://www.w3.org/2000/svg" xmlns:xlink="http://www.w3.org/1999/xlink">
<g id="graph0" class="graph" transform="scale(1 1) rotate(0) translate(4 717)">
<title>cie::io::JSONObject</title>
<!-- Node1 -->
<g id="Node000001" class="node">
<title>Node1</title>
<g id="a_Node000001"><a xlink:title="Basic interface for a json parser.">
<polygon fill="#999999" stroke="transparent" points="114,-199 13,-199 13,0 114,0 114,-199"/>
<text text-anchor="start" x="18.5" y="-186.5" font-family="Helvetica,sans-Serif" font-size="10.00">cie::io::JSONObject</text>
<text text-anchor="start" x="62" y="-171.5" font-family="Helvetica,sans-Serif" font-size="10.00"> </text>
<text text-anchor="start" x="19.5" y="-156.5" font-family="Helvetica,sans-Serif" font-size="10.00">+</text>
<text text-anchor="start" x="34.5" y="-156.5" font-family="Helvetica,sans-Serif" font-size="10.00">JSONObject()</text>
<text text-anchor="start" x="19.5" y="-141.5" font-family="Helvetica,sans-Serif" font-size="10.00">+</text>
<text text-anchor="start" x="34.5" y="-141.5" font-family="Helvetica,sans-Serif" font-size="10.00">JSONObject()</text>
<text text-anchor="start" x="19.5" y="-126.5" font-family="Helvetica,sans-Serif" font-size="10.00">+</text>
<text text-anchor="start" x="34.5" y="-126.5" font-family="Helvetica,sans-Serif" font-size="10.00">JSONObject()</text>
<text text-anchor="start" x="19.5" y="-111.5" font-family="Helvetica,sans-Serif" font-size="10.00">+</text>
<text text-anchor="start" x="34.5" y="-111.5" font-family="Helvetica,sans-Serif" font-size="10.00">operator=()</text>
<text text-anchor="start" x="19.5" y="-96.5" font-family="Helvetica,sans-Serif" font-size="10.00">+</text>
<text text-anchor="start" x="34.5" y="-96.5" font-family="Helvetica,sans-Serif" font-size="10.00">JSONObject()</text>
<text text-anchor="start" x="19.5" y="-81.5" font-family="Helvetica,sans-Serif" font-size="10.00">+</text>
<text text-anchor="start" x="34.5" y="-81.5" font-family="Helvetica,sans-Serif" font-size="10.00">JSONObject()</text>
<text text-anchor="start" x="19.5" y="-66.5" font-family="Helvetica,sans-Serif" font-size="10.00">+</text>
<text text-anchor="start" x="34.5" y="-66.5" font-family="Helvetica,sans-Serif" font-size="10.00">JSONObject()</text>
<text text-anchor="start" x="19.5" y="-51.5" font-family="Helvetica,sans-Serif" font-size="10.00">+</text>
<text text-anchor="start" x="34.5" y="-51.5" font-family="Helvetica,sans-Serif" font-size="10.00">JSONObject()</text>
<text text-anchor="start" x="19.5" y="-36.5" font-family="Helvetica,sans-Serif" font-size="10.00">+</text>
<text text-anchor="start" x="34.5" y="-36.5" font-family="Helvetica,sans-Serif" font-size="10.00">JSONObject()</text>
<text text-anchor="start" x="19.5" y="-21.5" font-family="Helvetica,sans-Serif" font-size="10.00">+</text>
<text text-anchor="start" x="34.5" y="-21.5" font-family="Helvetica,sans-Serif" font-size="10.00">JSONObject()</text>
<text text-anchor="start" x="34.5" y="-6.5" font-family="Helvetica,sans-Serif" font-size="10.00">and 21 more...</text>
<polygon fill="#666666" stroke="#666666" points="13.5,-181.5 13.5,-181.5 114.5,-181.5 114.5,-181.5 13.5,-181.5"/>
<polygon fill="#666666" stroke="#666666" points="13.5,-166.5 13.5,-166.5 114.5,-166.5 114.5,-166.5 13.5,-166.5"/>
<polygon fill="none" stroke="#666666" points="13,0 13,-199 114,-199 114,0 13,0"/>
</a>
</g>
</g>
<!-- Node2 -->
<g id="Node000002" class="node">
<title>Node2</title>
<g id="a_Node000002"><a xlink:href="classcie_1_1utils_1_1RuntimeConst.html" target="_top" xlink:title=" ">
<polygon fill="white" stroke="transparent" points="127,-456 0,-456 0,-246 127,-246 127,-456"/>
<text text-anchor="start" x="5.5" y="-444" font-family="Helvetica,sans-Serif" font-size="10.00">cie::utils::RuntimeConst</text>
<text text-anchor="start" x="20.5" y="-433" font-family="Helvetica,sans-Serif" font-size="10.00">&lt; content_type &gt;</text>
<text text-anchor="start" x="62" y="-418" font-family="Helvetica,sans-Serif" font-size="10.00"> </text>
<text text-anchor="start" x="11.5" y="-403" font-family="Helvetica,sans-Serif" font-size="10.00">+</text>
<text text-anchor="start" x="31.5" y="-403" font-family="Helvetica,sans-Serif" font-size="10.00">RuntimeConst()</text>
<text text-anchor="start" x="11.5" y="-388" font-family="Helvetica,sans-Serif" font-size="10.00">+</text>
<text text-anchor="start" x="31.5" y="-388" font-family="Helvetica,sans-Serif" font-size="10.00">RuntimeConst()</text>
<text text-anchor="start" x="11.5" y="-373" font-family="Helvetica,sans-Serif" font-size="10.00">+</text>
<text text-anchor="start" x="31.5" y="-373" font-family="Helvetica,sans-Serif" font-size="10.00">RuntimeConst()</text>
<text text-anchor="start" x="11.5" y="-358" font-family="Helvetica,sans-Serif" font-size="10.00">+</text>
<text text-anchor="start" x="31.5" y="-358" font-family="Helvetica,sans-Serif" font-size="10.00">operator=()</text>
<text text-anchor="start" x="11.5" y="-343" font-family="Helvetica,sans-Serif" font-size="10.00">+</text>
<text text-anchor="start" x="31.5" y="-343" font-family="Helvetica,sans-Serif" font-size="10.00">operator=()</text>
<text text-anchor="start" x="11.5" y="-328" font-family="Helvetica,sans-Serif" font-size="10.00">+</text>
<text text-anchor="start" x="31.5" y="-328" font-family="Helvetica,sans-Serif" font-size="10.00">operator*()</text>
<text text-anchor="start" x="11.5" y="-313" font-family="Helvetica,sans-Serif" font-size="10.00">+</text>
<text text-anchor="start" x="31.5" y="-313" font-family="Helvetica,sans-Serif" font-size="10.00">operator*()</text>
<text text-anchor="start" x="11.5" y="-298" font-family="Helvetica,sans-Serif" font-size="10.00">+</text>
<text text-anchor="start" x="31.5" y="-298" font-family="Helvetica,sans-Serif" font-size="10.00">operator&#45;&gt;()</text>
<text text-anchor="start" x="11.5" y="-283" font-family="Helvetica,sans-Serif" font-size="10.00">+</text>
<text text-anchor="start" x="31.5" y="-283" font-family="Helvetica,sans-Serif" font-size="10.00">operator&#45;&gt;()</text>
<text text-anchor="start" x="11.5" y="-268" font-family="Helvetica,sans-Serif" font-size="10.00">+</text>
<text text-anchor="start" x="31.5" y="-268" font-family="Helvetica,sans-Serif" font-size="10.00">get()</text>
<text text-anchor="start" x="31.5" y="-253" font-family="Helvetica,sans-Serif" font-size="10.00">and 7 more...</text>
<polygon fill="#666666" stroke="#666666" points="0.5,-428 0.5,-428 127.5,-428 127.5,-428 0.5,-428"/>
<polygon fill="#666666" stroke="#666666" points="0.5,-413 0.5,-413 127.5,-413 127.5,-413 0.5,-413"/>
<polygon fill="none" stroke="#666666" points="0,-246 0,-456 127,-456 127,-246 0,-246"/>
</a>
</g>
</g>
<!-- Node2&#45;&gt;Node1 -->
<g id="edge1_Node000001_Node000002" class="edge">
<title>Node2&#45;&gt;Node1</title>
<g id="a_edge1_Node000001_Node000002"><a xlink:title=" ">
<path fill="none" stroke="#63b8ff" d="M63.5,-246C63.5,-234.48 63.5,-222.73 63.5,-211.14"/>
<polygon fill="none" stroke="#63b8ff" points="63.5,-211.14 59.5,-205.14 63.5,-199.14 67.5,-205.14 63.5,-211.14"/>
</a>
</g>
<text text-anchor="middle" x="98.5" y="-220" font-family="Helvetica,sans-Serif" font-size="10.00" fill="grey"> #_p_contents</text>
</g>
<!-- Node3 -->
<g id="Node000003" class="node">
<title>Node3</title>
<g id="a_Node000003"><a xlink:href="classcie_1_1utils_1_1RuntimeConst.html" target="_top" xlink:title=" ">
<polygon fill="white" stroke="transparent" points="127,-713 0,-713 0,-503 127,-503 127,-713"/>
<text text-anchor="start" x="5.5" y="-701" font-family="Helvetica,sans-Serif" font-size="10.00">cie::utils::RuntimeConst</text>
<text text-anchor="start" x="27.5" y="-690" font-family="Helvetica,sans-Serif" font-size="10.00">&lt; ValueType &gt;</text>
<text text-anchor="start" x="62" y="-675" font-family="Helvetica,sans-Serif" font-size="10.00"> </text>
<text text-anchor="start" x="11.5" y="-660" font-family="Helvetica,sans-Serif" font-size="10.00">+</text>
<text text-anchor="start" x="31.5" y="-660" font-family="Helvetica,sans-Serif" font-size="10.00">RuntimeConst()</text>
<text text-anchor="start" x="11.5" y="-645" font-family="Helvetica,sans-Serif" font-size="10.00">+</text>
<text text-anchor="start" x="31.5" y="-645" font-family="Helvetica,sans-Serif" font-size="10.00">RuntimeConst()</text>
<text text-anchor="start" x="11.5" y="-630" font-family="Helvetica,sans-Serif" font-size="10.00">+</text>
<text text-anchor="start" x="31.5" y="-630" font-family="Helvetica,sans-Serif" font-size="10.00">RuntimeConst()</text>
<text text-anchor="start" x="11.5" y="-615" font-family="Helvetica,sans-Serif" font-size="10.00">+</text>
<text text-anchor="start" x="31.5" y="-615" font-family="Helvetica,sans-Serif" font-size="10.00">operator=()</text>
<text text-anchor="start" x="11.5" y="-600" font-family="Helvetica,sans-Serif" font-size="10.00">+</text>
<text text-anchor="start" x="31.5" y="-600" font-family="Helvetica,sans-Serif" font-size="10.00">operator=()</text>
<text text-anchor="start" x="11.5" y="-585" font-family="Helvetica,sans-Serif" font-size="10.00">+</text>
<text text-anchor="start" x="31.5" y="-585" font-family="Helvetica,sans-Serif" font-size="10.00">operator*()</text>
<text text-anchor="start" x="11.5" y="-570" font-family="Helvetica,sans-Serif" font-size="10.00">+</text>
<text text-anchor="start" x="31.5" y="-570" font-family="Helvetica,sans-Serif" font-size="10.00">operator*()</text>
<text text-anchor="start" x="11.5" y="-555" font-family="Helvetica,sans-Serif" font-size="10.00">+</text>
<text text-anchor="start" x="31.5" y="-555" font-family="Helvetica,sans-Serif" font-size="10.00">operator&#45;&gt;()</text>
<text text-anchor="start" x="11.5" y="-540" font-family="Helvetica,sans-Serif" font-size="10.00">+</text>
<text text-anchor="start" x="31.5" y="-540" font-family="Helvetica,sans-Serif" font-size="10.00">operator&#45;&gt;()</text>
<text text-anchor="start" x="11.5" y="-525" font-family="Helvetica,sans-Serif" font-size="10.00">+</text>
<text text-anchor="start" x="31.5" y="-525" font-family="Helvetica,sans-Serif" font-size="10.00">get()</text>
<text text-anchor="start" x="31.5" y="-510" font-family="Helvetica,sans-Serif" font-size="10.00">and 7 more...</text>
<polygon fill="#666666" stroke="#666666" points="0.5,-685 0.5,-685 127.5,-685 127.5,-685 0.5,-685"/>
<polygon fill="#666666" stroke="#666666" points="0.5,-670 0.5,-670 127.5,-670 127.5,-670 0.5,-670"/>
<polygon fill="none" stroke="#666666" points="0,-503 0,-713 127,-713 127,-503 0,-503"/>
</a>
</g>
</g>
<!-- Node3&#45;&gt;Node2 -->
<g id="edge2_Node000002_Node000003" class="edge">
<title>Node3&#45;&gt;Node2</title>
<g id="a_edge2_Node000002_Node000003"><a xlink:title=" ">
<path fill="none" stroke="orange" d="M63.5,-492.73C63.5,-480.56 63.5,-468.22 63.5,-456.17"/>
<polygon fill="orange" stroke="orange" points="60,-492.91 63.5,-502.91 67,-492.91 60,-492.91"/>
</a>
</g>
<text text-anchor="middle" x="108.5" y="-477" font-family="Helvetica,sans-Serif" font-size="10.00" fill="grey"> &lt; content_type &gt;</text>
</g>
</g>
</svg>
