<?xml version="1.0" encoding="UTF-8" standalone="no"?>
<!DOCTYPE svg PUBLIC "-//W3C//DTD SVG 1.1//EN"
 "http://www.w3.org/Graphics/SVG/1.1/DTD/svg11.dtd">
<!-- Generated by graphviz version 2.43.0 (0)
 -->
<!-- Title: cie::ct::MatchTuple&lt; std::tuple&lt; Ts... &gt; &gt; Pages: 1 -->
<svg width="134pt" height="215pt"
 viewBox="0.00 0.00 134.00 215.00" xmlns="http://www.w3.org/2000/svg" xmlns:xlink="http://www.w3.org/1999/xlink">
<g id="graph0" class="graph" transform="scale(1 1) rotate(0) translate(4 211)">
<title>cie::ct::MatchTuple&lt; std::tuple&lt; Ts... &gt; &gt;</title>
<polygon fill="white" stroke="transparent" points="-4,4 -4,-211 130,-211 130,4 -4,4"/>
<!-- Node1 -->
<g id="node1" class="node">
<title>Node1</title>
<g id="a_node1"><a xlink:title=" ">
<polygon fill="#bfbfbf" stroke="black" points="0,-0.5 0,-68.5 126,-68.5 126,-0.5 0,-0.5"/>
<text text-anchor="start" x="8" y="-56.5" font-family="Helvetica,sans-Serif" font-size="10.00">cie::ct::MatchTuple</text>
<text text-anchor="middle" x="63" y="-45.5" font-family="Helvetica,sans-Serif" font-size="10.00">&lt; std::tuple&lt; Ts... &gt; &gt;</text>
<polyline fill="none" stroke="black" points="0,-38.5 126,-38.5 "/>
<text text-anchor="middle" x="63" y="-26.5" font-family="Helvetica,sans-Serif" font-size="10.00"> </text>
<polyline fill="none" stroke="black" points="0,-19.5 126,-19.5 "/>
<text text-anchor="middle" x="63" y="-7.5" font-family="Helvetica,sans-Serif" font-size="10.00"> </text>
</a>
</g>
</g>
<!-- Node2 -->
<g id="node2" class="node">
<title>Node2</title>
<g id="a_node2"><a xlink:title=" ">
<polygon fill="white" stroke="#bfbfbf" points="44,-149.5 44,-206.5 82,-206.5 82,-149.5 44,-149.5"/>
<text text-anchor="middle" x="63" y="-194.5" font-family="Helvetica,sans-Serif" font-size="10.00">bool</text>
<polyline fill="none" stroke="#bfbfbf" points="44,-187.5 82,-187.5 "/>
<text text-anchor="middle" x="63" y="-175.5" font-family="Helvetica,sans-Serif" font-size="10.00"> </text>
<polyline fill="none" stroke="#bfbfbf" points="44,-168.5 82,-168.5 "/>
<text text-anchor="middle" x="63" y="-156.5" font-family="Helvetica,sans-Serif" font-size="10.00"> </text>
</a>
</g>
</g>
<!-- Node2&#45;&gt;Node1 -->
<g id="edge1" class="edge">
<title>Node2&#45;&gt;Node1</title>
<path fill="none" stroke="#404040" d="M63,-149.38C63,-129.84 63,-103.19 63,-80.59"/>
<polygon fill="none" stroke="#404040" points="63,-80.52 59,-74.52 63,-68.52 67,-74.52 63,-80.52"/>
<text text-anchor="middle" x="88.5" y="-123" font-family="Helvetica,sans-Serif" font-size="10.00"> +All</text>
<text text-anchor="middle" x="88.5" y="-112" font-family="Helvetica,sans-Serif" font-size="10.00">+Any</text>
<text text-anchor="middle" x="88.5" y="-101" font-family="Helvetica,sans-Serif" font-size="10.00">+Identical</text>
<text text-anchor="middle" x="88.5" y="-90" font-family="Helvetica,sans-Serif" font-size="10.00">+None</text>
</g>
</g>
</svg>
