<?xml version="1.0" encoding="UTF-8" standalone="no"?>
<!DOCTYPE svg PUBLIC "-//W3C//DTD SVG 1.1//EN"
 "http://www.w3.org/Graphics/SVG/1.1/DTD/svg11.dtd">
<!-- Generated by graphviz version 2.43.0 (0)
 -->
<!-- Title: cie::utils::InternalStateIterator&lt; TContainer &gt; Pages: 1 -->
<svg width="229pt" height="453pt"
 viewBox="0.00 0.00 229.00 453.00" xmlns="http://www.w3.org/2000/svg" xmlns:xlink="http://www.w3.org/1999/xlink">
<g id="graph0" class="graph" transform="scale(1 1) rotate(0) translate(4 449)">
<title>cie::utils::InternalStateIterator&lt; TContainer &gt;</title>
<polygon fill="white" stroke="transparent" points="-4,4 -4,-449 225,-449 225,4 -4,4"/>
<!-- Node1 -->
<g id="node1" class="node">
<title>Node1</title>
<g id="a_node1"><a xlink:title=" ">
<polygon fill="#bfbfbf" stroke="black" points="15,-0.5 15,-68.5 149,-68.5 149,-0.5 15,-0.5"/>
<text text-anchor="start" x="23" y="-56.5" font-family="Helvetica,sans-Serif" font-size="10.00">cie::utils::InternalState</text>
<text text-anchor="middle" x="82" y="-45.5" font-family="Helvetica,sans-Serif" font-size="10.00">Iterator&lt; TContainer &gt;</text>
<polyline fill="none" stroke="black" points="15,-38.5 149,-38.5 "/>
<text text-anchor="start" x="23" y="-26.5" font-family="Helvetica,sans-Serif" font-size="10.00"># _dummyContainer</text>
<polyline fill="none" stroke="black" points="15,-19.5 149,-19.5 "/>
<text text-anchor="start" x="23" y="-7.5" font-family="Helvetica,sans-Serif" font-size="10.00">+ InternalStateIterator()</text>
</a>
</g>
</g>
<!-- Node2 -->
<g id="node2" class="node">
<title>Node2</title>
<g id="a_node2"><a xlink:title=" ">
<polygon fill="white" stroke="#bfbfbf" points="0,-106.5 0,-207.5 164,-207.5 164,-106.5 0,-106.5"/>
<text text-anchor="start" x="8" y="-195.5" font-family="Helvetica,sans-Serif" font-size="10.00">cie::utils::StateIterator</text>
<text text-anchor="start" x="8" y="-184.5" font-family="Helvetica,sans-Serif" font-size="10.00">&lt; std::vector&lt; detail::</text>
<text text-anchor="start" x="8" y="-173.5" font-family="Helvetica,sans-Serif" font-size="10.00">container_reference_wrapper</text>
<text text-anchor="start" x="8" y="-162.5" font-family="Helvetica,sans-Serif" font-size="10.00">&lt; const TContainer &gt; &gt;::const</text>
<text text-anchor="middle" x="82" y="-151.5" font-family="Helvetica,sans-Serif" font-size="10.00">_iterator &gt;</text>
<polyline fill="none" stroke="#bfbfbf" points="0,-144.5 164,-144.5 "/>
<text text-anchor="middle" x="82" y="-132.5" font-family="Helvetica,sans-Serif" font-size="10.00"> </text>
<polyline fill="none" stroke="#bfbfbf" points="0,-125.5 164,-125.5 "/>
<text text-anchor="middle" x="82" y="-113.5" font-family="Helvetica,sans-Serif" font-size="10.00"> </text>
</a>
</g>
</g>
<!-- Node2&#45;&gt;Node1 -->
<g id="edge1" class="edge">
<title>Node2&#45;&gt;Node1</title>
<path fill="none" stroke="midnightblue" d="M82,-96.07C82,-86.61 82,-77.14 82,-68.59"/>
<polygon fill="none" stroke="midnightblue" points="78.5,-96.29 82,-106.29 85.5,-96.29 78.5,-96.29"/>
</g>
<!-- Node3 -->
<g id="node3" class="node">
<title>Node3</title>
<g id="a_node3"><a xlink:href="classcie_1_1utils_1_1StateIterator.html" target="_top" xlink:title=" ">
<polygon fill="white" stroke="black" points="19.5,-288.5 19.5,-444.5 144.5,-444.5 144.5,-288.5 19.5,-288.5"/>
<text text-anchor="start" x="27.5" y="-432.5" font-family="Helvetica,sans-Serif" font-size="10.00">cie::utils::StateIterator</text>
<text text-anchor="middle" x="82" y="-421.5" font-family="Helvetica,sans-Serif" font-size="10.00">&lt; IteratorType &gt;</text>
<polyline fill="none" stroke="black" points="19.5,-414.5 144.5,-414.5 "/>
<text text-anchor="start" x="27.5" y="-402.5" font-family="Helvetica,sans-Serif" font-size="10.00"># _begin</text>
<text text-anchor="start" x="27.5" y="-391.5" font-family="Helvetica,sans-Serif" font-size="10.00"># _end</text>
<text text-anchor="start" x="27.5" y="-380.5" font-family="Helvetica,sans-Serif" font-size="10.00"># _state</text>
<polyline fill="none" stroke="black" points="19.5,-373.5 144.5,-373.5 "/>
<text text-anchor="start" x="27.5" y="-361.5" font-family="Helvetica,sans-Serif" font-size="10.00">+ StateIterator()</text>
<text text-anchor="start" x="27.5" y="-350.5" font-family="Helvetica,sans-Serif" font-size="10.00">+ operator=()</text>
<text text-anchor="start" x="27.5" y="-339.5" font-family="Helvetica,sans-Serif" font-size="10.00">+ StateIterator()</text>
<text text-anchor="start" x="27.5" y="-328.5" font-family="Helvetica,sans-Serif" font-size="10.00">+ reset()</text>
<text text-anchor="start" x="27.5" y="-317.5" font-family="Helvetica,sans-Serif" font-size="10.00">+ operator++()</text>
<text text-anchor="start" x="27.5" y="-306.5" font-family="Helvetica,sans-Serif" font-size="10.00">+ operator*()</text>
<text text-anchor="start" x="27.5" y="-295.5" font-family="Helvetica,sans-Serif" font-size="10.00"># StateIterator()</text>
</a>
</g>
</g>
<!-- Node3&#45;&gt;Node2 -->
<g id="edge2" class="edge">
<title>Node3&#45;&gt;Node2</title>
<path fill="none" stroke="orange" d="M82,-278.02C82,-253.98 82,-228.74 82,-207.64"/>
<polygon fill="orange" stroke="orange" points="78.5,-278.23 82,-288.23 85.5,-278.23 78.5,-278.23"/>
<text text-anchor="start" x="82" y="-262" font-family="Helvetica,sans-Serif" font-size="10.00"> &lt; std::vector&lt; detail</text>
<text text-anchor="start" x="82" y="-251" font-family="Helvetica,sans-Serif" font-size="10.00">::container_reference</text>
<text text-anchor="start" x="82" y="-240" font-family="Helvetica,sans-Serif" font-size="10.00">_wrapper&lt; const TContainer</text>
<text text-anchor="middle" x="151.5" y="-229" font-family="Helvetica,sans-Serif" font-size="10.00"> &gt; &gt;::const_iterator &gt;</text>
</g>
</g>
</svg>
