<?xml version="1.0" encoding="UTF-8" standalone="no"?>
<!DOCTYPE svg PUBLIC "-//W3C//DTD SVG 1.1//EN"
 "http://www.w3.org/Graphics/SVG/1.1/DTD/svg11.dtd">
<!-- Generated by graphviz version 2.43.0 (0)
 -->
<!-- Title: cie::mp::ThreadPoolStorage&lt; TStorage &gt; Pages: 1 -->
<!--zoomable 475 -->

<svg id="main" version="1.1" xmlns="http://www.w3.org/2000/svg" xmlns:xlink="http://www.w3.org/1999/xlink" xml:space="preserve" onload="init(evt)">
<style type="text/css"><![CDATA[
.node, .edge {opacity: 0.7;}
.node.selected, .edge.selected {opacity: 1;}
.edge:hover path { stroke: red; }
.edge:hover polygon { stroke: red; fill: red; }
]]></style>

<defs>
  <circle id="rim" cx="0" cy="0" r="7"/>
  <circle id="rim2" cx="0" cy="0" r="3.5"/>
  <g id="zoomPlus">
    <use xlink:href="#rim" fill="#404040"><set attributeName="fill" to="#808080" begin="zoomplus.mouseover" end="zoomplus.mouseout"/></use>
    <path d="M-4,0h8M0,-4v8" fill="none" stroke="white" stroke-width="1.5" pointer-events="none"/>
  </g>
  <g id="zoomMin">
    <use xlink:href="#rim" fill="#404040"><set attributeName="fill" to="#808080" begin="zoomminus.mouseover" end="zoomminus.mouseout"/></use>
    <path d="M-4,0h8" fill="none" stroke="white" stroke-width="1.5" pointer-events="none"/>
  </g>
  <g id="arrowUp" transform="translate(30 24)">
    <use xlink:href="#rim"/>
    <path pointer-events="none" fill="none" stroke="white" stroke-width="1.5" d="M0,-3.0v7 M-2.5,-0.5L0,-3.0L2.5,-0.5"/>
  </g>
  <g id="arrowRight" transform="rotate(90) translate(36 -43)">
    <use xlink:href="#rim"/>
    <path pointer-events="none" fill="none" stroke="white" stroke-width="1.5" d="M0,-3.0v7 M-2.5,-0.5L0,-3.0L2.5,-0.5"/>
  </g>
  <g id="arrowDown" transform="rotate(180) translate(-30 -48)">
    <use xlink:href="#rim"/>
    <path pointer-events="none" fill="none" stroke="white" stroke-width="1.5" d="M0,-3.0v7 M-2.5,-0.5L0,-3.0L2.5,-0.5"/>
  </g>
  <g id="arrowLeft" transform="rotate(270) translate(-36 17)">
    <use xlink:href="#rim"/>
    <path pointer-events="none" fill="none" stroke="white" stroke-width="1.5" d="M0,-3.0v7 M-2.5,-0.5L0,-3.0L2.5,-0.5"/>
  </g>
  <g id="resetDef">
    <use xlink:href="#rim2" fill="#404040"><set attributeName="fill" to="#808080" begin="reset.mouseover" end="reset.mouseout"/></use>
  </g>
</defs>
<script type="application/ecmascript">
var viewWidth = 317;
var viewHeight = 475;
var sectionId = 'dynsection-0';
</script>
<script type="application/ecmascript" xlink:href="svg.min.js"/>
<svg id="graph" class="graph">
<g id="viewport">
<title>cie::mp::ThreadPoolStorage&lt; TStorage &gt;</title>
<!-- Node1 -->
<g id="Node000001" class="node">
<title>Node1</title>
<g id="a_Node000001"><a xlink:title=" ">
<polygon fill="#999999" stroke="transparent" points="226,-467 81,-467 81,-257 226,-257 226,-467"/>
<text text-anchor="start" x="86.5" y="-455" font-family="Helvetica,sans-Serif" font-size="10.00">cie::mp::ThreadPoolStorage</text>
<text text-anchor="start" x="120.5" y="-444" font-family="Helvetica,sans-Serif" font-size="10.00">&lt; TStorage &gt;</text>
<text text-anchor="start" x="152" y="-429" font-family="Helvetica,sans-Serif" font-size="10.00"> </text>
<text text-anchor="start" x="91.5" y="-414" font-family="Helvetica,sans-Serif" font-size="10.00">+</text>
<text text-anchor="start" x="110.5" y="-414" font-family="Helvetica,sans-Serif" font-size="10.00">ThreadPoolStorage()</text>
<text text-anchor="start" x="91.5" y="-399" font-family="Helvetica,sans-Serif" font-size="10.00">+</text>
<text text-anchor="start" x="110.5" y="-399" font-family="Helvetica,sans-Serif" font-size="10.00">ThreadPoolStorage()</text>
<text text-anchor="start" x="91.5" y="-384" font-family="Helvetica,sans-Serif" font-size="10.00">+</text>
<text text-anchor="start" x="110.5" y="-384" font-family="Helvetica,sans-Serif" font-size="10.00">ThreadPoolStorage()</text>
<text text-anchor="start" x="91.5" y="-369" font-family="Helvetica,sans-Serif" font-size="10.00">+</text>
<text text-anchor="start" x="110.5" y="-369" font-family="Helvetica,sans-Serif" font-size="10.00">ThreadPoolStorage()</text>
<text text-anchor="start" x="91.5" y="-354" font-family="Helvetica,sans-Serif" font-size="10.00">+</text>
<text text-anchor="start" x="110.5" y="-354" font-family="Helvetica,sans-Serif" font-size="10.00">operator=()</text>
<text text-anchor="start" x="91.5" y="-339" font-family="Helvetica,sans-Serif" font-size="10.00">+</text>
<text text-anchor="start" x="110.5" y="-339" font-family="Helvetica,sans-Serif" font-size="10.00">operator=()</text>
<text text-anchor="start" x="91.5" y="-324" font-family="Helvetica,sans-Serif" font-size="10.00">+</text>
<text text-anchor="start" x="110.5" y="-324" font-family="Helvetica,sans-Serif" font-size="10.00">getLocalStorage()</text>
<text text-anchor="start" x="91.5" y="-309" font-family="Helvetica,sans-Serif" font-size="10.00">+</text>
<text text-anchor="start" x="110.5" y="-309" font-family="Helvetica,sans-Serif" font-size="10.00">getLocalStorage()</text>
<text text-anchor="start" x="91.5" y="-294" font-family="Helvetica,sans-Serif" font-size="10.00">+</text>
<text text-anchor="start" x="110.5" y="-294" font-family="Helvetica,sans-Serif" font-size="10.00">setLocalStorage()</text>
<text text-anchor="start" x="91.5" y="-279" font-family="Helvetica,sans-Serif" font-size="10.00">+</text>
<text text-anchor="start" x="110.5" y="-279" font-family="Helvetica,sans-Serif" font-size="10.00">setLocalStorage()</text>
<text text-anchor="start" x="110.5" y="-264" font-family="Helvetica,sans-Serif" font-size="10.00">and 9 more...</text>
<polygon fill="#666666" stroke="#666666" points="81.5,-439 81.5,-439 226.5,-439 226.5,-439 81.5,-439"/>
<polygon fill="#666666" stroke="#666666" points="81.5,-424 81.5,-424 226.5,-424 226.5,-424 81.5,-424"/>
<polygon fill="none" stroke="#666666" points="81,-257 81,-467 226,-467 226,-257 81,-257"/>
</a>
</g>
</g>
<!-- Node2 -->
<g id="Node000002" class="node">
<title>Node2</title>
<g id="a_Node000002"><a xlink:href="classcie_1_1mp_1_1ThreadPoolStorage.html" target="_top" xlink:title=" ">
<polygon fill="white" stroke="transparent" points="145,-210 0,-210 0,0 145,0 145,-210"/>
<text text-anchor="start" x="5.5" y="-198" font-family="Helvetica,sans-Serif" font-size="10.00">cie::mp::ThreadPoolStorage</text>
<text text-anchor="start" x="42.5" y="-187" font-family="Helvetica,sans-Serif" font-size="10.00">&lt; Storage &gt;</text>
<text text-anchor="start" x="71" y="-172" font-family="Helvetica,sans-Serif" font-size="10.00"> </text>
<text text-anchor="start" x="10.5" y="-157" font-family="Helvetica,sans-Serif" font-size="10.00">+</text>
<text text-anchor="start" x="29.5" y="-157" font-family="Helvetica,sans-Serif" font-size="10.00">ThreadPoolStorage()</text>
<text text-anchor="start" x="10.5" y="-142" font-family="Helvetica,sans-Serif" font-size="10.00">+</text>
<text text-anchor="start" x="29.5" y="-142" font-family="Helvetica,sans-Serif" font-size="10.00">ThreadPoolStorage()</text>
<text text-anchor="start" x="10.5" y="-127" font-family="Helvetica,sans-Serif" font-size="10.00">+</text>
<text text-anchor="start" x="29.5" y="-127" font-family="Helvetica,sans-Serif" font-size="10.00">ThreadPoolStorage()</text>
<text text-anchor="start" x="10.5" y="-112" font-family="Helvetica,sans-Serif" font-size="10.00">+</text>
<text text-anchor="start" x="29.5" y="-112" font-family="Helvetica,sans-Serif" font-size="10.00">ThreadPoolStorage()</text>
<text text-anchor="start" x="10.5" y="-97" font-family="Helvetica,sans-Serif" font-size="10.00">+</text>
<text text-anchor="start" x="29.5" y="-97" font-family="Helvetica,sans-Serif" font-size="10.00">operator=()</text>
<text text-anchor="start" x="10.5" y="-82" font-family="Helvetica,sans-Serif" font-size="10.00">+</text>
<text text-anchor="start" x="29.5" y="-82" font-family="Helvetica,sans-Serif" font-size="10.00">operator=()</text>
<text text-anchor="start" x="10.5" y="-67" font-family="Helvetica,sans-Serif" font-size="10.00">+</text>
<text text-anchor="start" x="29.5" y="-67" font-family="Helvetica,sans-Serif" font-size="10.00">getLocalStorage()</text>
<text text-anchor="start" x="10.5" y="-52" font-family="Helvetica,sans-Serif" font-size="10.00">+</text>
<text text-anchor="start" x="29.5" y="-52" font-family="Helvetica,sans-Serif" font-size="10.00">getLocalStorage()</text>
<text text-anchor="start" x="10.5" y="-37" font-family="Helvetica,sans-Serif" font-size="10.00">+</text>
<text text-anchor="start" x="29.5" y="-37" font-family="Helvetica,sans-Serif" font-size="10.00">setLocalStorage()</text>
<text text-anchor="start" x="10.5" y="-22" font-family="Helvetica,sans-Serif" font-size="10.00">+</text>
<text text-anchor="start" x="29.5" y="-22" font-family="Helvetica,sans-Serif" font-size="10.00">setLocalStorage()</text>
<text text-anchor="start" x="29.5" y="-7" font-family="Helvetica,sans-Serif" font-size="10.00">and 9 more...</text>
<polygon fill="#666666" stroke="#666666" points="0.5,-182 0.5,-182 145.5,-182 145.5,-182 0.5,-182"/>
<polygon fill="#666666" stroke="#666666" points="0.5,-167 0.5,-167 145.5,-167 145.5,-167 0.5,-167"/>
<polygon fill="none" stroke="#666666" points="0,0 0,-210 145,-210 145,0 0,0"/>
</a>
</g>
</g>
<!-- Node1&#45;&gt;Node2 -->
<g id="edge1_Node000001_Node000002" class="edge">
<title>Node1&#45;&gt;Node2</title>
<g id="a_edge1_Node000001_Node000002"><a xlink:title=" ">
<path fill="none" stroke="orange" d="M117.32,-247.1C113.41,-234.8 109.45,-222.34 105.59,-210.17"/>
<polygon fill="orange" stroke="orange" points="114.07,-248.44 120.44,-256.91 120.75,-246.32 114.07,-248.44"/>
</a>
</g>
<text text-anchor="middle" x="145.5" y="-231" font-family="Helvetica,sans-Serif" font-size="10.00" fill="grey"> &lt; Storage &gt;</text>
</g>
<!-- Node3 -->
<g id="Node000003" class="node">
<title>Node3</title>
<g id="a_Node000003"><a xlink:href="classcie_1_1mp_1_1ThreadPoolStorage.html" target="_top" xlink:title=" ">
<polygon fill="white" stroke="transparent" points="308,-210 163,-210 163,0 308,0 308,-210"/>
<text text-anchor="start" x="168.5" y="-198" font-family="Helvetica,sans-Serif" font-size="10.00">cie::mp::ThreadPoolStorage</text>
<text text-anchor="start" x="180.5" y="-187" font-family="Helvetica,sans-Serif" font-size="10.00">&lt; ThreadStorage&lt;&gt; &gt;</text>
<text text-anchor="start" x="234" y="-172" font-family="Helvetica,sans-Serif" font-size="10.00"> </text>
<text text-anchor="start" x="173.5" y="-157" font-family="Helvetica,sans-Serif" font-size="10.00">+</text>
<text text-anchor="start" x="192.5" y="-157" font-family="Helvetica,sans-Serif" font-size="10.00">ThreadPoolStorage()</text>
<text text-anchor="start" x="173.5" y="-142" font-family="Helvetica,sans-Serif" font-size="10.00">+</text>
<text text-anchor="start" x="192.5" y="-142" font-family="Helvetica,sans-Serif" font-size="10.00">ThreadPoolStorage()</text>
<text text-anchor="start" x="173.5" y="-127" font-family="Helvetica,sans-Serif" font-size="10.00">+</text>
<text text-anchor="start" x="192.5" y="-127" font-family="Helvetica,sans-Serif" font-size="10.00">ThreadPoolStorage()</text>
<text text-anchor="start" x="173.5" y="-112" font-family="Helvetica,sans-Serif" font-size="10.00">+</text>
<text text-anchor="start" x="192.5" y="-112" font-family="Helvetica,sans-Serif" font-size="10.00">ThreadPoolStorage()</text>
<text text-anchor="start" x="173.5" y="-97" font-family="Helvetica,sans-Serif" font-size="10.00">+</text>
<text text-anchor="start" x="192.5" y="-97" font-family="Helvetica,sans-Serif" font-size="10.00">operator=()</text>
<text text-anchor="start" x="173.5" y="-82" font-family="Helvetica,sans-Serif" font-size="10.00">+</text>
<text text-anchor="start" x="192.5" y="-82" font-family="Helvetica,sans-Serif" font-size="10.00">operator=()</text>
<text text-anchor="start" x="173.5" y="-67" font-family="Helvetica,sans-Serif" font-size="10.00">+</text>
<text text-anchor="start" x="192.5" y="-67" font-family="Helvetica,sans-Serif" font-size="10.00">getLocalStorage()</text>
<text text-anchor="start" x="173.5" y="-52" font-family="Helvetica,sans-Serif" font-size="10.00">+</text>
<text text-anchor="start" x="192.5" y="-52" font-family="Helvetica,sans-Serif" font-size="10.00">getLocalStorage()</text>
<text text-anchor="start" x="173.5" y="-37" font-family="Helvetica,sans-Serif" font-size="10.00">+</text>
<text text-anchor="start" x="192.5" y="-37" font-family="Helvetica,sans-Serif" font-size="10.00">setLocalStorage()</text>
<text text-anchor="start" x="173.5" y="-22" font-family="Helvetica,sans-Serif" font-size="10.00">+</text>
<text text-anchor="start" x="192.5" y="-22" font-family="Helvetica,sans-Serif" font-size="10.00">setLocalStorage()</text>
<text text-anchor="start" x="192.5" y="-7" font-family="Helvetica,sans-Serif" font-size="10.00">and 9 more...</text>
<polygon fill="#666666" stroke="#666666" points="163.5,-182 163.5,-182 308.5,-182 308.5,-182 163.5,-182"/>
<polygon fill="#666666" stroke="#666666" points="163.5,-167 163.5,-167 308.5,-167 308.5,-167 163.5,-167"/>
<polygon fill="none" stroke="#666666" points="163,0 163,-210 308,-210 308,0 163,0"/>
</a>
</g>
</g>
<!-- Node1&#45;&gt;Node3 -->
<g id="edge2_Node000001_Node000003" class="edge">
<title>Node1&#45;&gt;Node3</title>
<g id="a_edge2_Node000001_Node000003"><a xlink:title=" ">
<path fill="none" stroke="orange" d="M190.13,-247.1C194.08,-234.8 198.09,-222.34 202,-210.17"/>
<polygon fill="orange" stroke="orange" points="186.7,-246.32 186.97,-256.91 193.36,-248.47 186.7,-246.32"/>
</a>
</g>
<text text-anchor="middle" x="251.5" y="-231" font-family="Helvetica,sans-Serif" font-size="10.00" fill="grey"> &lt; ThreadStorage&lt;&gt; &gt;</text>
</g>
</g>
</svg>

<g id="navigator" transform="translate(0 0)" fill="#404254">
  <rect fill="#f2f5e9" fill-opacity="0.5" stroke="#606060" stroke-width=".5" x="0" y="0" width="60" height="60"/>
  <use id="zoomplus" xlink:href="#zoomPlus" x="17" y="9" onmousedown="handleZoom(evt,'in')"/>
  <use id="zoomminus" xlink:href="#zoomMin" x="42" y="9" onmousedown="handleZoom(evt,'out')"/>
  <use id="reset" xlink:href="#resetDef" x="30" y="36" onmousedown="handleReset()"/>
   <use id="arrowup" xlink:href="#arrowUp" x="0" y="0" onmousedown="handlePan(0,-1)"/>
  <use id="arrowright" xlink:href="#arrowRight" x="0" y="0" onmousedown="handlePan(1,0)"/>
  <use id="arrowdown" xlink:href="#arrowDown" x="0" y="0" onmousedown="handlePan(0,1)"/>
  <use id="arrowleft" xlink:href="#arrowLeft" x="0" y="0" onmousedown="handlePan(-1,0)"/>
</g>
<svg viewBox="0 0 15 15" width="100%" height="30px" preserveAspectRatio="xMaxYMin meet">
 <g id="arrow_out" transform="scale(0.3 0.3)">
  <a xlink:href="classcie_1_1mp_1_1ThreadPoolStorage__inherit__graph_org.svg" target="_base">
   <rect id="button" ry="5" rx="5" y="6" x="6" height="38" width="38"
        fill="#f2f5e9" fill-opacity="0.5" stroke="#606060" stroke-width="1.0"/>
   <path id="arrow"
     d="M 11.500037,31.436501 C 11.940474,20.09759 22.043105,11.32322 32.158766,21.979434 L 37.068811,17.246167 C 37.068811,17.246167 37.088388,32 37.088388,32 L 22.160133,31.978069 C 22.160133,31.978069 26.997745,27.140456 26.997745,27.140456 C 18.528582,18.264221 13.291696,25.230495 11.500037,31.436501 z"
     style="fill:#404040;"/>
  </a>
 </g>
</svg>

<style type='text/css'>
<![CDATA[
[data-mouse-over-selected='false'] { opacity: 0.7; }
[data-mouse-over-selected='true']  { opacity: 1.0; }
]]>
</style>
<script type="application/ecmascript"><![CDATA[
document.addEventListener('DOMContentLoaded', (event) => {
  highlightEdges();
  highlightAdjacentNodes();
});
]]></script>
</svg>
