<?xml version="1.0" encoding="UTF-8" standalone="no"?>
<!DOCTYPE svg PUBLIC "-//W3C//DTD SVG 1.1//EN"
 "http://www.w3.org/Graphics/SVG/1.1/DTD/svg11.dtd">
<!-- Generated by graphviz version 2.43.0 (0)
 -->
<!-- Title: cie::utils::StateIterator&lt; IteratorType &gt; Pages: 1 -->
<svg width="202pt" height="276pt"
 viewBox="0.00 0.00 201.50 276.00" xmlns="http://www.w3.org/2000/svg" xmlns:xlink="http://www.w3.org/1999/xlink">
<g id="graph0" class="graph" transform="scale(1 1) rotate(0) translate(4 272)">
<title>cie::utils::StateIterator&lt; IteratorType &gt;</title>
<!-- Node1 -->
<g id="Node000001" class="node">
<title>Node1</title>
<g id="a_Node000001"><a xlink:title=" ">
<polygon fill="#999999" stroke="transparent" points="147,-150 28,-150 28,0 147,0 147,-150"/>
<text text-anchor="start" x="33.5" y="-138" font-family="Helvetica,sans-Serif" font-size="10.00">cie::utils::StateIterator</text>
<text text-anchor="start" x="47" y="-127" font-family="Helvetica,sans-Serif" font-size="10.00">&lt; IteratorType &gt;</text>
<text text-anchor="start" x="86" y="-112" font-family="Helvetica,sans-Serif" font-size="10.00"> </text>
<text text-anchor="start" x="39.5" y="-97" font-family="Helvetica,sans-Serif" font-size="10.00">+</text>
<text text-anchor="start" x="59.5" y="-97" font-family="Helvetica,sans-Serif" font-size="10.00">StateIterator()</text>
<text text-anchor="start" x="39.5" y="-82" font-family="Helvetica,sans-Serif" font-size="10.00">+</text>
<text text-anchor="start" x="59.5" y="-82" font-family="Helvetica,sans-Serif" font-size="10.00">operator=()</text>
<text text-anchor="start" x="39.5" y="-67" font-family="Helvetica,sans-Serif" font-size="10.00">+</text>
<text text-anchor="start" x="59.5" y="-67" font-family="Helvetica,sans-Serif" font-size="10.00">StateIterator()</text>
<text text-anchor="start" x="39.5" y="-52" font-family="Helvetica,sans-Serif" font-size="10.00">+</text>
<text text-anchor="start" x="59.5" y="-52" font-family="Helvetica,sans-Serif" font-size="10.00">reset()</text>
<text text-anchor="start" x="39.5" y="-37" font-family="Helvetica,sans-Serif" font-size="10.00">+</text>
<text text-anchor="start" x="59.5" y="-37" font-family="Helvetica,sans-Serif" font-size="10.00">operator++()</text>
<text text-anchor="start" x="39.5" y="-22" font-family="Helvetica,sans-Serif" font-size="10.00">+</text>
<text text-anchor="start" x="59.5" y="-22" font-family="Helvetica,sans-Serif" font-size="10.00">operator*()</text>
<text text-anchor="start" x="39.5" y="-7" font-family="Helvetica,sans-Serif" font-size="10.00">#</text>
<text text-anchor="start" x="59.5" y="-7" font-family="Helvetica,sans-Serif" font-size="10.00">StateIterator()</text>
<polygon fill="#666666" stroke="#666666" points="28.5,-122 28.5,-122 147.5,-122 147.5,-122 28.5,-122"/>
<polygon fill="#666666" stroke="#666666" points="28.5,-107 28.5,-107 147.5,-107 147.5,-107 28.5,-107"/>
<polygon fill="none" stroke="#666666" points="28,0 28,-150 147,-150 147,0 28,0"/>
</a>
</g>
</g>
<!-- Node2 -->
<g id="Node000002" class="node">
<title>Node2</title>
<g id="a_Node000002"><a xlink:title=" ">
<polygon fill="white" stroke="transparent" points="69,-262.5 0,-262.5 0,-213.5 69,-213.5 69,-262.5"/>
<text text-anchor="start" x="5.5" y="-250" font-family="Helvetica,sans-Serif" font-size="10.00">IteratorType</text>
<text text-anchor="start" x="33" y="-235" font-family="Helvetica,sans-Serif" font-size="10.00"> </text>
<text text-anchor="start" x="33" y="-220" font-family="Helvetica,sans-Serif" font-size="10.00"> </text>
<polygon fill="#666666" stroke="#666666" points="0.5,-245 0.5,-245 69.5,-245 69.5,-245 0.5,-245"/>
<polygon fill="#666666" stroke="#666666" points="0.5,-230 0.5,-230 69.5,-230 69.5,-230 0.5,-230"/>
<polygon fill="none" stroke="#666666" points="0,-213.5 0,-262.5 69,-262.5 69,-213.5 0,-213.5"/>
</a>
</g>
</g>
<!-- Node2&#45;&gt;Node1 -->
<g id="edge1_Node000001_Node000002" class="edge">
<title>Node2&#45;&gt;Node1</title>
<g id="a_edge1_Node000001_Node000002"><a xlink:title=" ">
<path fill="none" stroke="#63b8ff" d="M42.32,-213.24C46.92,-199.27 53.05,-180.66 59.3,-161.66"/>
<polygon fill="none" stroke="#63b8ff" points="59.34,-161.54 57.42,-154.59 63.09,-150.14 65.02,-157.09 59.34,-161.54"/>
</a>
</g>
<text text-anchor="middle" x="78.5" y="-182" font-family="Helvetica,sans-Serif" font-size="10.00" fill="grey"> #_begin</text>
<text text-anchor="middle" x="78.5" y="-171" font-family="Helvetica,sans-Serif" font-size="10.00" fill="grey">#_end</text>
</g>
<!-- Node3 -->
<g id="Node000003" class="node">
<title>Node3</title>
<g id="a_Node000003"><a xlink:title=" ">
<polygon fill="white" stroke="transparent" points="193.5,-268 87.5,-268 87.5,-208 193.5,-208 193.5,-268"/>
<text text-anchor="start" x="92.5" y="-256" font-family="Helvetica,sans-Serif" font-size="10.00">vector&lt; subiterator</text>
<text text-anchor="start" x="121" y="-245" font-family="Helvetica,sans-Serif" font-size="10.00">_type &gt;</text>
<text text-anchor="start" x="138.5" y="-230" font-family="Helvetica,sans-Serif" font-size="10.00"> </text>
<text text-anchor="start" x="138.5" y="-215" font-family="Helvetica,sans-Serif" font-size="10.00"> </text>
<polygon fill="#666666" stroke="#666666" points="87.5,-240 87.5,-240 193.5,-240 193.5,-240 87.5,-240"/>
<polygon fill="#666666" stroke="#666666" points="87.5,-225 87.5,-225 193.5,-225 193.5,-225 87.5,-225"/>
<polygon fill="none" stroke="#666666" points="87.5,-208 87.5,-268 193.5,-268 193.5,-208 87.5,-208"/>
</a>
</g>
</g>
<!-- Node3&#45;&gt;Node1 -->
<g id="edge2_Node000001_Node000003" class="edge">
<title>Node3&#45;&gt;Node1</title>
<g id="a_edge2_Node000001_Node000003"><a xlink:title=" ">
<path fill="none" stroke="#63b8ff" d="M130.9,-207.84C126.56,-194.67 121.19,-178.33 115.71,-161.71"/>
<polygon fill="none" stroke="#63b8ff" points="115.67,-161.58 110,-157.13 111.92,-150.18 117.6,-154.63 115.67,-161.58"/>
</a>
</g>
<text text-anchor="middle" x="145.5" y="-176.5" font-family="Helvetica,sans-Serif" font-size="10.00" fill="grey"> #_state</text>
</g>
</g>
</svg>
