<?xml version="1.0" encoding="UTF-8" standalone="no"?>
<!DOCTYPE svg PUBLIC "-//W3C//DTD SVG 1.1//EN"
 "http://www.w3.org/Graphics/SVG/1.1/DTD/svg11.dtd">
<!-- Generated by graphviz version 2.43.0 (0)
 -->
<!-- Title: cie::OptionalRef&lt; TElement &gt; Pages: 1 -->
<svg width="172pt" height="314pt"
 viewBox="0.00 0.00 172.00 314.00" xmlns="http://www.w3.org/2000/svg" xmlns:xlink="http://www.w3.org/1999/xlink">
<g id="graph0" class="graph" transform="scale(1 1) rotate(0) translate(4 310)">
<title>cie::OptionalRef&lt; TElement &gt;</title>
<polygon fill="white" stroke="transparent" points="-4,4 -4,-310 168,-310 168,4 -4,4"/>
<!-- Node1 -->
<g id="node1" class="node">
<title>Node1</title>
<g id="a_node1"><a xlink:title=" ">
<polygon fill="#bfbfbf" stroke="black" points="0,-0.5 0,-200.5 164,-200.5 164,-0.5 0,-0.5"/>
<text text-anchor="middle" x="82" y="-188.5" font-family="Helvetica,sans-Serif" font-size="10.00">cie::OptionalRef&lt; TElement &gt;</text>
<polyline fill="none" stroke="black" points="0,-181.5 164,-181.5 "/>
<text text-anchor="middle" x="82" y="-169.5" font-family="Helvetica,sans-Serif" font-size="10.00"> </text>
<polyline fill="none" stroke="black" points="0,-162.5 164,-162.5 "/>
<text text-anchor="start" x="8" y="-150.5" font-family="Helvetica,sans-Serif" font-size="10.00">+ OptionalRef()</text>
<text text-anchor="start" x="8" y="-139.5" font-family="Helvetica,sans-Serif" font-size="10.00">+ OptionalRef()</text>
<text text-anchor="start" x="8" y="-128.5" font-family="Helvetica,sans-Serif" font-size="10.00">+ OptionalRef()</text>
<text text-anchor="start" x="8" y="-117.5" font-family="Helvetica,sans-Serif" font-size="10.00">+ OptionalRef()</text>
<text text-anchor="start" x="8" y="-106.5" font-family="Helvetica,sans-Serif" font-size="10.00">+ operator=()</text>
<text text-anchor="start" x="8" y="-95.5" font-family="Helvetica,sans-Serif" font-size="10.00">+ operator=()</text>
<text text-anchor="start" x="8" y="-84.5" font-family="Helvetica,sans-Serif" font-size="10.00">+ operator=()</text>
<text text-anchor="start" x="8" y="-73.5" font-family="Helvetica,sans-Serif" font-size="10.00">+ has_value()</text>
<text text-anchor="start" x="8" y="-62.5" font-family="Helvetica,sans-Serif" font-size="10.00">+ operator bool()</text>
<text text-anchor="start" x="8" y="-51.5" font-family="Helvetica,sans-Serif" font-size="10.00">+ value()</text>
<text text-anchor="start" x="8" y="-40.5" font-family="Helvetica,sans-Serif" font-size="10.00">+ operator*()</text>
<text text-anchor="start" x="8" y="-29.5" font-family="Helvetica,sans-Serif" font-size="10.00">+ reset()</text>
<text text-anchor="start" x="8" y="-18.5" font-family="Helvetica,sans-Serif" font-size="10.00">+ operator OptionalRef</text>
<text text-anchor="start" x="8" y="-7.5" font-family="Helvetica,sans-Serif" font-size="10.00">&lt; const TElement &gt;()</text>
</a>
</g>
</g>
<!-- Node2 -->
<g id="node2" class="node">
<title>Node2</title>
<g id="a_node2"><a xlink:title=" ">
<polygon fill="white" stroke="#bfbfbf" points="12,-248.5 12,-305.5 70,-305.5 70,-248.5 12,-248.5"/>
<text text-anchor="middle" x="41" y="-293.5" font-family="Helvetica,sans-Serif" font-size="10.00">uintptr_t</text>
<polyline fill="none" stroke="#bfbfbf" points="12,-286.5 70,-286.5 "/>
<text text-anchor="middle" x="41" y="-274.5" font-family="Helvetica,sans-Serif" font-size="10.00"> </text>
<polyline fill="none" stroke="#bfbfbf" points="12,-267.5 70,-267.5 "/>
<text text-anchor="middle" x="41" y="-255.5" font-family="Helvetica,sans-Serif" font-size="10.00"> </text>
</a>
</g>
</g>
<!-- Node2&#45;&gt;Node1 -->
<g id="edge1" class="edge">
<title>Node2&#45;&gt;Node1</title>
<path fill="none" stroke="#404040" d="M47.5,-248.35C49.91,-238.09 52.81,-225.73 55.9,-212.59"/>
<polygon fill="none" stroke="#404040" points="55.91,-212.55 53.39,-205.79 58.65,-200.87 61.17,-207.62 55.91,-212.55"/>
<text text-anchor="middle" x="77" y="-222" font-family="Helvetica,sans-Serif" font-size="10.00"> +integer</text>
</g>
<!-- Node3 -->
<g id="node3" class="node">
<title>Node3</title>
<g id="a_node3"><a xlink:title=" ">
<polygon fill="white" stroke="#bfbfbf" points="88.5,-248.5 88.5,-305.5 159.5,-305.5 159.5,-248.5 88.5,-248.5"/>
<text text-anchor="middle" x="124" y="-293.5" font-family="Helvetica,sans-Serif" font-size="10.00">TElement *</text>
<polyline fill="none" stroke="#bfbfbf" points="88.5,-286.5 159.5,-286.5 "/>
<text text-anchor="middle" x="124" y="-274.5" font-family="Helvetica,sans-Serif" font-size="10.00"> </text>
<polyline fill="none" stroke="#bfbfbf" points="88.5,-267.5 159.5,-267.5 "/>
<text text-anchor="middle" x="124" y="-255.5" font-family="Helvetica,sans-Serif" font-size="10.00"> </text>
</a>
</g>
</g>
<!-- Node3&#45;&gt;Node1 -->
<g id="edge2" class="edge">
<title>Node3&#45;&gt;Node1</title>
<path fill="none" stroke="#404040" d="M117.34,-248.35C114.88,-238.09 111.9,-225.73 108.74,-212.59"/>
<polygon fill="none" stroke="#404040" points="108.72,-212.53 103.43,-207.64 105.92,-200.87 111.21,-205.76 108.72,-212.53"/>
<text text-anchor="middle" x="135" y="-222" font-family="Helvetica,sans-Serif" font-size="10.00"> +pointer</text>
</g>
</g>
</svg>
