<?xml version="1.0" encoding="UTF-8" standalone="no"?>
<!DOCTYPE svg PUBLIC "-//W3C//DTD SVG 1.1//EN"
 "http://www.w3.org/Graphics/SVG/1.1/DTD/svg11.dtd">
<!-- Generated by graphviz version 2.43.0 (0)
 -->
<!-- Title: cie::utils::LogBlock Pages: 1 -->
<!--zoomable 799 -->
<svg id="main" version="1.1" xmlns="http://www.w3.org/2000/svg" xmlns:xlink="http://www.w3.org/1999/xlink" xml:space="preserve" onload="init(evt)">
<style type="text/css"><![CDATA[
.edge:hover path { stroke: red; }
.edge:hover polygon { stroke: red; fill: red; }
]]></style>
<script type="text/javascript"><![CDATA[
var edges = document.getElementsByTagName('g');
if (edges && edges.length) {
  for (var i=0;i<edges.length;i++) {
    if (edges[i].id.substr(0,4)=='edge') {
      edges[i].setAttribute('class','edge');
    }
  }
}
]]></script>
        <defs>
                <circle id="rim" cx="0" cy="0" r="7"/>
                <circle id="rim2" cx="0" cy="0" r="3.5"/>
                <g id="zoomPlus">
                        <use xlink:href="#rim" fill="#404040">
                                <set attributeName="fill" to="#808080" begin="zoomplus.mouseover" end="zoomplus.mouseout"/>
                        </use>
                        <path d="M-4,0h8M0,-4v8" fill="none" stroke="white" stroke-width="1.5" pointer-events="none"/>
                </g>
                <g id="zoomMin">
                        <use xlink:href="#rim" fill="#404040">
                                <set attributeName="fill" to="#808080" begin="zoomminus.mouseover" end="zoomminus.mouseout"/>
                        </use>
                        <path d="M-4,0h8" fill="none" stroke="white" stroke-width="1.5" pointer-events="none"/>
                </g>
                <g id="dirArrow">
                        <path fill="none" stroke="white" stroke-width="1.5" d="M0,-3.0v7 M-2.5,-0.5L0,-3.0L2.5,-0.5"/>
                </g>
               <g id="resetDef">
                       <use xlink:href="#rim2" fill="#404040">
                               <set attributeName="fill" to="#808080" begin="reset.mouseover" end="reset.mouseout"/>
                       </use>
               </g>
        </defs>

<script type="text/javascript">
var viewWidth = 630;
var viewHeight = 799;
var sectionId = 'dynsection-0';
</script>
<script xlink:href="svgpan.js"/>
<svg id="graph" class="graph">
<g id="viewport">
<title>cie::utils::LogBlock</title>
<polygon fill="white" stroke="transparent" points="-4,4 -4,-795 626,-795 626,4 -4,4"/>
<!-- Node1 -->
<g id="node1" class="node">
<title>Node1</title>
<g id="a_node1"><a xlink:title=" ">
<polygon fill="#bfbfbf" stroke="black" points="353,-0.5 353,-123.5 461,-123.5 461,-0.5 353,-0.5"/>
<text text-anchor="middle" x="407" y="-111.5" font-family="Helvetica,sans-Serif" font-size="10.00">cie::utils::LogBlock</text>
<polyline fill="none" stroke="black" points="353,-104.5 461,-104.5 "/>
<text text-anchor="middle" x="407" y="-92.5" font-family="Helvetica,sans-Serif" font-size="10.00"> </text>
<polyline fill="none" stroke="black" points="353,-85.5 461,-85.5 "/>
<text text-anchor="start" x="361" y="-73.5" font-family="Helvetica,sans-Serif" font-size="10.00">+ LogBlock()</text>
<text text-anchor="start" x="361" y="-62.5" font-family="Helvetica,sans-Serif" font-size="10.00">+ LogBlock()</text>
<text text-anchor="start" x="361" y="-51.5" font-family="Helvetica,sans-Serif" font-size="10.00">+ ~LogBlock()</text>
<text text-anchor="start" x="361" y="-40.5" font-family="Helvetica,sans-Serif" font-size="10.00">+ log()</text>
<text text-anchor="start" x="361" y="-29.5" font-family="Helvetica,sans-Serif" font-size="10.00">+ warn()</text>
<text text-anchor="start" x="361" y="-18.5" font-family="Helvetica,sans-Serif" font-size="10.00">+ error()</text>
<text text-anchor="start" x="361" y="-7.5" font-family="Helvetica,sans-Serif" font-size="10.00">+ logElapsed()</text>
</a>
</g>
</g>
<!-- Node2 -->
<g id="node2" class="node">
<title>Node2</title>
<g id="a_node2"><a xlink:title=" ">
<polygon fill="white" stroke="#bfbfbf" points="270.5,-254 270.5,-311 315.5,-311 315.5,-254 270.5,-254"/>
<text text-anchor="middle" x="293" y="-299" font-family="Helvetica,sans-Serif" font-size="10.00">size_t</text>
<polyline fill="none" stroke="#bfbfbf" points="270.5,-292 315.5,-292 "/>
<text text-anchor="middle" x="293" y="-280" font-family="Helvetica,sans-Serif" font-size="10.00"> </text>
<polyline fill="none" stroke="#bfbfbf" points="270.5,-273 315.5,-273 "/>
<text text-anchor="middle" x="293" y="-261" font-family="Helvetica,sans-Serif" font-size="10.00"> </text>
</a>
</g>
</g>
<!-- Node2&#45;&gt;Node1 -->
<g id="edge1" class="edge">
<title>Node2&#45;&gt;Node1</title>
<path fill="none" stroke="#404040" d="M298.1,-253.66C302.99,-230.66 311.64,-197.59 325,-171 331.4,-158.26 339.36,-145.51 347.78,-133.46"/>
<polygon fill="none" stroke="#404040" points="347.93,-133.26 348.19,-126.05 354.94,-123.52 354.68,-130.73 347.93,-133.26"/>
<text text-anchor="middle" x="369" y="-145" font-family="Helvetica,sans-Serif" font-size="10.00"> #_timerID</text>
</g>
<!-- Node3 -->
<g id="node3" class="node">
<title>Node3</title>
<g id="a_node3"><a xlink:href="classcie_1_1utils_1_1Logger.html" target="_top" xlink:title=" ">
<polygon fill="white" stroke="black" points="334,-171.5 334,-393.5 480,-393.5 480,-171.5 334,-171.5"/>
<text text-anchor="middle" x="407" y="-381.5" font-family="Helvetica,sans-Serif" font-size="10.00">cie::utils::Logger</text>
<polyline fill="none" stroke="black" points="334,-374.5 480,-374.5 "/>
<text text-anchor="middle" x="407" y="-362.5" font-family="Helvetica,sans-Serif" font-size="10.00"> </text>
<polyline fill="none" stroke="black" points="334,-355.5 480,-355.5 "/>
<text text-anchor="start" x="342" y="-343.5" font-family="Helvetica,sans-Serif" font-size="10.00">+ Logger()</text>
<text text-anchor="start" x="342" y="-332.5" font-family="Helvetica,sans-Serif" font-size="10.00">+ Logger()</text>
<text text-anchor="start" x="342" y="-321.5" font-family="Helvetica,sans-Serif" font-size="10.00">+ Logger()</text>
<text text-anchor="start" x="342" y="-310.5" font-family="Helvetica,sans-Serif" font-size="10.00">+ ~Logger()</text>
<text text-anchor="start" x="342" y="-299.5" font-family="Helvetica,sans-Serif" font-size="10.00">+ write()</text>
<text text-anchor="start" x="342" y="-288.5" font-family="Helvetica,sans-Serif" font-size="10.00">+ newBlock()</text>
<text text-anchor="start" x="342" y="-277.5" font-family="Helvetica,sans-Serif" font-size="10.00">+ addStream()</text>
<text text-anchor="start" x="342" y="-266.5" font-family="Helvetica,sans-Serif" font-size="10.00">+ removeStream()</text>
<text text-anchor="start" x="342" y="-255.5" font-family="Helvetica,sans-Serif" font-size="10.00">+ forceFlush()</text>
<text text-anchor="start" x="342" y="-244.5" font-family="Helvetica,sans-Serif" font-size="10.00">+ log()</text>
<text text-anchor="start" x="342" y="-233.5" font-family="Helvetica,sans-Serif" font-size="10.00">and 11 more...</text>
<text text-anchor="start" x="342" y="-222.5" font-family="Helvetica,sans-Serif" font-size="10.00"># streamInsertOperation()</text>
<text text-anchor="start" x="342" y="-211.5" font-family="Helvetica,sans-Serif" font-size="10.00"># flush()</text>
<text text-anchor="start" x="342" y="-200.5" font-family="Helvetica,sans-Serif" font-size="10.00"># preWrite()</text>
<text text-anchor="start" x="342" y="-189.5" font-family="Helvetica,sans-Serif" font-size="10.00"># postWrite()</text>
<text text-anchor="start" x="342" y="-178.5" font-family="Helvetica,sans-Serif" font-size="10.00"># directWriteToAll()</text>
</a>
</g>
</g>
<!-- Node3&#45;&gt;Node1 -->
<g id="edge2" class="edge">
<title>Node3&#45;&gt;Node1</title>
<path fill="none" stroke="#404040" d="M407,-171.29C407,-159.22 407,-147.16 407,-135.71"/>
<polygon fill="none" stroke="#404040" points="407,-135.55 403,-129.55 407,-123.55 411,-129.55 407,-135.55"/>
<text text-anchor="middle" x="435.5" y="-145" font-family="Helvetica,sans-Serif" font-size="10.00"> #_r_logger</text>
</g>
<!-- Node4 -->
<g id="node4" class="node">
<title>Node4</title>
<g id="a_node4"><a xlink:href="classcie_1_1OutputStream.html" target="_top" xlink:title=" ">
<polygon fill="white" stroke="black" points="202,-452.5 202,-685.5 364,-685.5 364,-452.5 202,-452.5"/>
<text text-anchor="middle" x="283" y="-673.5" font-family="Helvetica,sans-Serif" font-size="10.00">cie::OutputStream</text>
<polyline fill="none" stroke="black" points="202,-666.5 364,-666.5 "/>
<text text-anchor="middle" x="283" y="-654.5" font-family="Helvetica,sans-Serif" font-size="10.00"> </text>
<polyline fill="none" stroke="black" points="202,-647.5 364,-647.5 "/>
<text text-anchor="start" x="210" y="-635.5" font-family="Helvetica,sans-Serif" font-size="10.00">+ OutputStream()</text>
<text text-anchor="start" x="210" y="-624.5" font-family="Helvetica,sans-Serif" font-size="10.00">+ OutputStream()</text>
<text text-anchor="start" x="210" y="-613.5" font-family="Helvetica,sans-Serif" font-size="10.00">+ OutputStream()</text>
<text text-anchor="start" x="210" y="-602.5" font-family="Helvetica,sans-Serif" font-size="10.00">+ OutputStream()</text>
<text text-anchor="start" x="210" y="-591.5" font-family="Helvetica,sans-Serif" font-size="10.00">+ OutputStream()</text>
<text text-anchor="start" x="210" y="-580.5" font-family="Helvetica,sans-Serif" font-size="10.00">+ operator=()</text>
<text text-anchor="start" x="210" y="-569.5" font-family="Helvetica,sans-Serif" font-size="10.00">+ operator=()</text>
<text text-anchor="start" x="210" y="-558.5" font-family="Helvetica,sans-Serif" font-size="10.00">+ ~OutputStream()</text>
<text text-anchor="start" x="210" y="-547.5" font-family="Helvetica,sans-Serif" font-size="10.00">+ write()</text>
<text text-anchor="start" x="210" y="-536.5" font-family="Helvetica,sans-Serif" font-size="10.00">+ flush()</text>
<text text-anchor="start" x="210" y="-525.5" font-family="Helvetica,sans-Serif" font-size="10.00">+ rdbuf()</text>
<text text-anchor="start" x="210" y="-514.5" font-family="Helvetica,sans-Serif" font-size="10.00">+ rdbuf()</text>
<text text-anchor="start" x="210" y="-503.5" font-family="Helvetica,sans-Serif" font-size="10.00">+ requires()</text>
<text text-anchor="start" x="210" y="-492.5" font-family="Helvetica,sans-Serif" font-size="10.00"># streamInsertOperation()</text>
<text text-anchor="start" x="210" y="-481.5" font-family="Helvetica,sans-Serif" font-size="10.00"># streamInsertOperation()</text>
<text text-anchor="start" x="210" y="-470.5" font-family="Helvetica,sans-Serif" font-size="10.00"># streamInsertOperation()</text>
<text text-anchor="start" x="210" y="-459.5" font-family="Helvetica,sans-Serif" font-size="10.00"># forwardToWrappedStream()</text>
</a>
</g>
</g>
<!-- Node4&#45;&gt;Node3 -->
<g id="edge3" class="edge">
<title>Node4&#45;&gt;Node3</title>
<path fill="none" stroke="midnightblue" d="M337.61,-442.69C344.74,-426.34 352,-409.68 359.01,-393.6"/>
<polygon fill="none" stroke="midnightblue" points="334.22,-441.72 333.44,-452.28 340.64,-444.51 334.22,-441.72"/>
</g>
<!-- Node4&#45;&gt;Node4 -->
<g id="edge5" class="edge">
<title>Node4&#45;&gt;Node4</title>
<path fill="none" stroke="#404040" d="M364.18,-592.15C374.89,-588.2 382,-580.48 382,-569 382,-562 379.36,-556.4 374.88,-552.2"/>
<polygon fill="none" stroke="#404040" points="374.5,-551.98 367.3,-552.35 364.18,-545.85 371.38,-545.48 374.5,-551.98"/>
<text text-anchor="middle" x="397.5" y="-572" font-family="Helvetica,sans-Serif" font-size="10.00"> +cerr</text>
<text text-anchor="middle" x="397.5" y="-561" font-family="Helvetica,sans-Serif" font-size="10.00">+cout</text>
</g>
<!-- Node5 -->
<g id="node5" class="node">
<title>Node5</title>
<g id="a_node5"><a xlink:title=" ">
<polygon fill="white" stroke="#bfbfbf" points="230,-733.5 230,-790.5 336,-790.5 336,-733.5 230,-733.5"/>
<text text-anchor="middle" x="283" y="-778.5" font-family="Helvetica,sans-Serif" font-size="10.00">const TMessage &amp;</text>
<polyline fill="none" stroke="#bfbfbf" points="230,-771.5 336,-771.5 "/>
<text text-anchor="middle" x="283" y="-759.5" font-family="Helvetica,sans-Serif" font-size="10.00"> </text>
<polyline fill="none" stroke="#bfbfbf" points="230,-752.5 336,-752.5 "/>
<text text-anchor="middle" x="283" y="-740.5" font-family="Helvetica,sans-Serif" font-size="10.00"> </text>
</a>
</g>
</g>
<!-- Node5&#45;&gt;Node4 -->
<g id="edge4" class="edge">
<title>Node5&#45;&gt;Node4</title>
<path fill="none" stroke="#404040" d="M283,-733.23C283,-723.17 283,-711.04 283,-698"/>
<polygon fill="none" stroke="#404040" points="283,-697.79 279,-691.79 283,-685.79 287,-691.79 283,-697.79"/>
<text text-anchor="middle" x="295.5" y="-707" font-family="Helvetica,sans-Serif" font-size="10.00"> +r_t</text>
</g>
<!-- Node6 -->
<g id="node6" class="node">
<title>Node6</title>
<g id="a_node6"><a xlink:title=" ">
<polygon fill="white" stroke="#bfbfbf" points="0,-540.5 0,-597.5 128,-597.5 128,-540.5 0,-540.5"/>
<text text-anchor="middle" x="64" y="-585.5" font-family="Helvetica,sans-Serif" font-size="10.00">deque&lt; detail::Time &gt;</text>
<polyline fill="none" stroke="#bfbfbf" points="0,-578.5 128,-578.5 "/>
<text text-anchor="middle" x="64" y="-566.5" font-family="Helvetica,sans-Serif" font-size="10.00"> </text>
<polyline fill="none" stroke="#bfbfbf" points="0,-559.5 128,-559.5 "/>
<text text-anchor="middle" x="64" y="-547.5" font-family="Helvetica,sans-Serif" font-size="10.00"> </text>
</a>
</g>
</g>
<!-- Node6&#45;&gt;Node3 -->
<g id="edge6" class="edge">
<title>Node6&#45;&gt;Node3</title>
<path fill="none" stroke="#404040" d="M71.1,-540.31C81.95,-504.15 106.37,-441.94 152,-412 213.12,-371.89 253.08,-426.07 322.77,-393.5"/>
<polygon fill="none" stroke="#404040" points="323.1,-393.32 326.57,-387 333.74,-387.77 330.27,-394.09 323.1,-393.32"/>
<text text-anchor="middle" x="180.5" y="-420.5" font-family="Helvetica,sans-Serif" font-size="10.00"> #_timeLog</text>
</g>
<!-- Node7 -->
<g id="node7" class="node">
<title>Node7</title>
<g id="a_node7"><a xlink:title=" ">
<polygon fill="white" stroke="#bfbfbf" points="146,-540.5 146,-597.5 184,-597.5 184,-540.5 146,-540.5"/>
<text text-anchor="middle" x="165" y="-585.5" font-family="Helvetica,sans-Serif" font-size="10.00">bool</text>
<polyline fill="none" stroke="#bfbfbf" points="146,-578.5 184,-578.5 "/>
<text text-anchor="middle" x="165" y="-566.5" font-family="Helvetica,sans-Serif" font-size="10.00"> </text>
<polyline fill="none" stroke="#bfbfbf" points="146,-559.5 184,-559.5 "/>
<text text-anchor="middle" x="165" y="-547.5" font-family="Helvetica,sans-Serif" font-size="10.00"> </text>
</a>
</g>
</g>
<!-- Node7&#45;&gt;Node3 -->
<g id="edge7" class="edge">
<title>Node7&#45;&gt;Node3</title>
<path fill="none" stroke="#404040" d="M165.27,-540.31C166.88,-514.83 172.88,-477.29 193,-452 217.75,-420.89 236.41,-427.53 273,-412 295.13,-402.61 304.62,-408.22 324,-394 324.11,-393.92 324.21,-393.84 324.32,-393.77"/>
<polygon fill="none" stroke="#404040" points="324.57,-393.57 326.74,-386.69 333.93,-386.05 331.75,-392.93 324.57,-393.57"/>
<text text-anchor="middle" x="307" y="-420.5" font-family="Helvetica,sans-Serif" font-size="10.00"> #_forceFlush</text>
</g>
<!-- Node8 -->
<g id="node8" class="node">
<title>Node8</title>
<g id="a_node8"><a xlink:title=" ">
<polygon fill="white" stroke="#bfbfbf" points="575,-540.5 575,-597.5 619,-597.5 619,-540.5 575,-540.5"/>
<text text-anchor="middle" x="597" y="-585.5" font-family="Helvetica,sans-Serif" font-size="10.00">string</text>
<polyline fill="none" stroke="#bfbfbf" points="575,-578.5 619,-578.5 "/>
<text text-anchor="middle" x="597" y="-566.5" font-family="Helvetica,sans-Serif" font-size="10.00"> </text>
<polyline fill="none" stroke="#bfbfbf" points="575,-559.5 619,-559.5 "/>
<text text-anchor="middle" x="597" y="-547.5" font-family="Helvetica,sans-Serif" font-size="10.00"> </text>
</a>
</g>
</g>
<!-- Node8&#45;&gt;Node1 -->
<g id="edge10" class="edge">
<title>Node8&#45;&gt;Node1</title>
<path fill="none" stroke="#404040" d="M596.86,-540.29C596.16,-508.81 593.35,-456.08 583,-412 556.71,-300.08 544.05,-271.93 489,-171 482.13,-158.41 473.89,-145.69 465.31,-133.62"/>
<polygon fill="none" stroke="#404040" points="465.11,-133.35 458.35,-130.85 458.05,-123.65 464.81,-126.15 465.11,-133.35"/>
<text text-anchor="middle" x="599.5" y="-280" font-family="Helvetica,sans-Serif" font-size="10.00"> #_name</text>
</g>
<!-- Node8&#45;&gt;Node3 -->
<g id="edge8" class="edge">
<title>Node8&#45;&gt;Node3</title>
<path fill="none" stroke="#404040" d="M595.91,-540.26C593.57,-514.76 586.55,-477.2 566,-452 554.69,-438.14 543.97,-445.17 530,-434 519.72,-425.77 504.27,-408.58 487.77,-388.64"/>
<polygon fill="none" stroke="#404040" points="487.73,-388.59 480.83,-386.49 480.12,-379.31 487.02,-381.42 487.73,-388.59"/>
<text text-anchor="middle" x="556.5" y="-426" font-family="Helvetica,sans-Serif" font-size="10.00"> #_lineEnd</text>
<text text-anchor="middle" x="556.5" y="-415" font-family="Helvetica,sans-Serif" font-size="10.00">#_prefix</text>
</g>
<!-- Node9 -->
<g id="node9" class="node">
<title>Node9</title>
<g id="a_node9"><a xlink:title=" ">
<polygon fill="white" stroke="#bfbfbf" points="431,-535 431,-603 557,-603 557,-535 431,-535"/>
<text text-anchor="start" x="439" y="-591" font-family="Helvetica,sans-Serif" font-size="10.00">deque&lt; OutputStream</text>
<text text-anchor="middle" x="494" y="-580" font-family="Helvetica,sans-Serif" font-size="10.00">::SharedPointer &gt;</text>
<polyline fill="none" stroke="#bfbfbf" points="431,-573 557,-573 "/>
<text text-anchor="middle" x="494" y="-561" font-family="Helvetica,sans-Serif" font-size="10.00"> </text>
<polyline fill="none" stroke="#bfbfbf" points="431,-554 557,-554 "/>
<text text-anchor="middle" x="494" y="-542" font-family="Helvetica,sans-Serif" font-size="10.00"> </text>
</a>
</g>
</g>
<!-- Node9&#45;&gt;Node3 -->
<g id="edge9" class="edge">
<title>Node9&#45;&gt;Node3</title>
<path fill="none" stroke="#404040" d="M482.7,-534.8C473.59,-507.75 460.6,-468.53 450,-434 447.17,-424.77 444.29,-415.19 441.44,-405.56"/>
<polygon fill="none" stroke="#404040" points="441.36,-405.3 435.83,-400.67 437.98,-393.79 443.51,-398.41 441.36,-405.3"/>
<text text-anchor="middle" x="478.5" y="-420.5" font-family="Helvetica,sans-Serif" font-size="10.00"> #_streams</text>
</g>
</g>
</svg>
        <g id="navigator" transform="translate(0 0)" fill="#404254">
                <rect fill="#f2f5e9" fill-opacity="0.5" stroke="#606060" stroke-width=".5" x="0" y="0" width="60" height="60"/>
                <use id="zoomplus" xlink:href="#zoomPlus" x="17" y="9" onmousedown="handleZoom(evt,'in')"/>
                <use id="zoomminus" xlink:href="#zoomMin" x="42" y="9" onmousedown="handleZoom(evt,'out')"/>
                <use id="reset" xlink:href="#resetDef" x="30" y="36" onmousedown="handleReset()"/>
                <g id="arrowUp" xlink:href="#dirArrow" transform="translate(30 24)" onmousedown="handlePan(0,-1)">
                  <use xlink:href="#rim" fill="#404040">
                        <set attributeName="fill" to="#808080" begin="arrowUp.mouseover" end="arrowUp.mouseout"/>
                  </use>
                  <path fill="none" stroke="white" stroke-width="1.5" d="M0,-3.0v7 M-2.5,-0.5L0,-3.0L2.5,-0.5"/>
                </g>
                <g id="arrowRight" xlink:href="#dirArrow" transform="rotate(90) translate(36 -43)" onmousedown="handlePan(1,0)">
                  <use xlink:href="#rim" fill="#404040">
                        <set attributeName="fill" to="#808080" begin="arrowRight.mouseover" end="arrowRight.mouseout"/>
                  </use>
                  <path fill="none" stroke="white" stroke-width="1.5" d="M0,-3.0v7 M-2.5,-0.5L0,-3.0L2.5,-0.5"/>
                </g>
                <g id="arrowDown" xlink:href="#dirArrow" transform="rotate(180) translate(-30 -48)" onmousedown="handlePan(0,1)">
                  <use xlink:href="#rim" fill="#404040">
                        <set attributeName="fill" to="#808080" begin="arrowDown.mouseover" end="arrowDown.mouseout"/>
                  </use>
                  <path fill="none" stroke="white" stroke-width="1.5" d="M0,-3.0v7 M-2.5,-0.5L0,-3.0L2.5,-0.5"/>
                </g>
                <g id="arrowLeft" xlink:href="#dirArrow" transform="rotate(270) translate(-36 17)" onmousedown="handlePan(-1,0)">
                  <use xlink:href="#rim" fill="#404040">
                        <set attributeName="fill" to="#808080" begin="arrowLeft.mouseover" end="arrowLeft.mouseout"/>
                  </use>
                  <path fill="none" stroke="white" stroke-width="1.5" d="M0,-3.0v7 M-2.5,-0.5L0,-3.0L2.5,-0.5"/>
                </g>
        </g>
        <svg viewBox="0 0 15 15" width="100%" height="30px" preserveAspectRatio="xMaxYMin meet">
         <g id="arrow_out" transform="scale(0.3 0.3)">
          <a xlink:href="classcie_1_1utils_1_1LogBlock__coll__graph_org.svg" target="_base">
           <rect id="button" ry="5" rx="5" y="6" x="6" height="38" width="38"
                fill="#f2f5e9" fill-opacity="0.5" stroke="#606060" stroke-width="1.0"/>
           <path id="arrow"
             d="M 11.500037,31.436501 C 11.940474,20.09759 22.043105,11.32322 32.158766,21.979434 L 37.068811,17.246167 C 37.068811,17.246167 37.088388,32 37.088388,32 L 22.160133,31.978069 C 22.160133,31.978069 26.997745,27.140456 26.997745,27.140456 C 18.528582,18.264221 13.291696,25.230495 11.500037,31.436501 z"
             style="fill:#404040;"/>
          </a>
         </g>
        </svg>
</svg>
