<?xml version="1.0" encoding="UTF-8" standalone="no"?>
<!DOCTYPE svg PUBLIC "-//W3C//DTD SVG 1.1//EN"
 "http://www.w3.org/Graphics/SVG/1.1/DTD/svg11.dtd">
<!-- Generated by graphviz version 2.43.0 (0)
 -->
<!-- Title: cie::utils::observer::Observer Pages: 1 -->
<svg width="268pt" height="325pt"
 viewBox="0.00 0.00 268.00 325.00" xmlns="http://www.w3.org/2000/svg" xmlns:xlink="http://www.w3.org/1999/xlink">

<svg id="main" version="1.1" xmlns="http://www.w3.org/2000/svg" xmlns:xlink="http://www.w3.org/1999/xlink" xml:space="preserve" onload="init(evt)">
<style type="text/css"><![CDATA[
.node, .edge {opacity: 0.7;}
.node.selected, .edge.selected {opacity: 1;}
.edge:hover path { stroke: red; }
.edge:hover polygon { stroke: red; fill: red; }
]]></style>
<script type="application/ecmascript" xlink:href="svg.min.js"/>
<svg id="graph" class="graph">
<g id="graph0" class="graph" transform="scale(1 1) rotate(0) translate(4 321)">
<title>cie::utils::observer::Observer</title>
<!-- Node1 -->
<g id="Node000001" class="node">
<title>Node1</title>
<g id="a_Node000001"><a xlink:title=" ">
<polygon fill="#999999" stroke="transparent" points="190.5,-210 76.5,-210 76.5,0 190.5,0 190.5,-210"/>
<text text-anchor="start" x="88" y="-198" font-family="Helvetica,sans-Serif" font-size="10.00">cie::utils::observer</text>
<text text-anchor="start" x="108" y="-187" font-family="Helvetica,sans-Serif" font-size="10.00">::Observer</text>
<text text-anchor="start" x="131.5" y="-172" font-family="Helvetica,sans-Serif" font-size="10.00"> </text>
<text text-anchor="start" x="80.5" y="-157" font-family="Helvetica,sans-Serif" font-size="10.00">+</text>
<text text-anchor="start" x="93.5" y="-157" font-family="Helvetica,sans-Serif" font-size="10.00">Observer()</text>
<text text-anchor="start" x="80.5" y="-142" font-family="Helvetica,sans-Serif" font-size="10.00">+</text>
<text text-anchor="start" x="93.5" y="-142" font-family="Helvetica,sans-Serif" font-size="10.00">Observer()</text>
<text text-anchor="start" x="80.5" y="-127" font-family="Helvetica,sans-Serif" font-size="10.00">+</text>
<text text-anchor="start" x="93.5" y="-127" font-family="Helvetica,sans-Serif" font-size="10.00">Observer()</text>
<text text-anchor="start" x="80.5" y="-112" font-family="Helvetica,sans-Serif" font-size="10.00">+</text>
<text text-anchor="start" x="93.5" y="-112" font-family="Helvetica,sans-Serif" font-size="10.00">operator=()</text>
<text text-anchor="start" x="80.5" y="-97" font-family="Helvetica,sans-Serif" font-size="10.00">+</text>
<text text-anchor="start" x="93.5" y="-97" font-family="Helvetica,sans-Serif" font-size="10.00">~Observer()</text>
<text text-anchor="start" x="80.5" y="-82" font-family="Helvetica,sans-Serif" font-size="10.00">+</text>
<text text-anchor="start" x="93.5" y="-82" font-family="Helvetica,sans-Serif" font-size="10.00">onSubjectChange()</text>
<text text-anchor="start" x="80.5" y="-67" font-family="Helvetica,sans-Serif" font-size="10.00">+</text>
<text text-anchor="start" x="93.5" y="-67" font-family="Helvetica,sans-Serif" font-size="10.00">detach()</text>
<text text-anchor="start" x="80.5" y="-52" font-family="Helvetica,sans-Serif" font-size="10.00">+</text>
<text text-anchor="start" x="93.5" y="-52" font-family="Helvetica,sans-Serif" font-size="10.00">as()</text>
<text text-anchor="start" x="80.5" y="-37" font-family="Helvetica,sans-Serif" font-size="10.00">+</text>
<text text-anchor="start" x="93.5" y="-37" font-family="Helvetica,sans-Serif" font-size="10.00">setSubject()</text>
<text text-anchor="start" x="80.5" y="-22" font-family="Helvetica,sans-Serif" font-size="10.00">+</text>
<text text-anchor="start" x="93.5" y="-22" font-family="Helvetica,sans-Serif" font-size="10.00">subject()</text>
<text text-anchor="start" x="80.5" y="-7" font-family="Helvetica,sans-Serif" font-size="10.00">+</text>
<text text-anchor="start" x="93.5" y="-7" font-family="Helvetica,sans-Serif" font-size="10.00">subject()</text>
<polygon fill="#666666" stroke="#666666" points="76.5,-182 76.5,-182 190.5,-182 190.5,-182 76.5,-182"/>
<polygon fill="#666666" stroke="#666666" points="76.5,-167 76.5,-167 190.5,-167 190.5,-167 76.5,-167"/>
<polygon fill="none" stroke="#666666" points="76.5,0 76.5,-210 190.5,-210 190.5,0 76.5,0"/>
</a>
</g>
</g>
<!-- Node2 -->
<g id="Node000002" class="node">
<title>Node2</title>
<g id="a_Node000002"><a xlink:title=" ">
<polygon fill="white" stroke="transparent" points="129,-317 0,-317 0,-257 129,-257 129,-317"/>
<text text-anchor="start" x="5.5" y="-305" font-family="Helvetica,sans-Serif" font-size="10.00">std::enable_shared</text>
<text text-anchor="start" x="5.5" y="-294" font-family="Helvetica,sans-Serif" font-size="10.00">_from_this&lt; Observer &gt;</text>
<text text-anchor="start" x="63" y="-279" font-family="Helvetica,sans-Serif" font-size="10.00"> </text>
<text text-anchor="start" x="63" y="-264" font-family="Helvetica,sans-Serif" font-size="10.00"> </text>
<polygon fill="#666666" stroke="#666666" points="0.5,-289 0.5,-289 129.5,-289 129.5,-289 0.5,-289"/>
<polygon fill="#666666" stroke="#666666" points="0.5,-274 0.5,-274 129.5,-274 129.5,-274 0.5,-274"/>
<polygon fill="none" stroke="#666666" points="0,-257 0,-317 129,-317 129,-257 0,-257"/>
</a>
</g>
</g>
<!-- Node2&#45;&gt;Node1 -->
<g id="edge1_Node000001_Node000002" class="edge">
<title>Node2&#45;&gt;Node1</title>
<g id="a_edge1_Node000001_Node000002"><a xlink:title=" ">
<path fill="none" stroke="#63b8ff" d="M79.35,-247.27C83.64,-236.07 88.54,-223.28 93.61,-210.07"/>
<polygon fill="none" stroke="#63b8ff" points="76.05,-246.09 75.74,-256.68 82.59,-248.59 76.05,-246.09"/>
</a>
</g>
</g>
<!-- Node3 -->
<g id="Node000003" class="node">
<title>Node3</title>
<g id="a_Node000003"><a xlink:title=" ">
<polygon fill="white" stroke="transparent" points="260,-317 147,-317 147,-257 260,-257 260,-317"/>
<text text-anchor="start" x="152.5" y="-305" font-family="Helvetica,sans-Serif" font-size="10.00">weak_ptr&lt; cie::utils</text>
<text text-anchor="start" x="152.5" y="-294" font-family="Helvetica,sans-Serif" font-size="10.00">::observer::Subject &gt;</text>
<text text-anchor="start" x="202" y="-279" font-family="Helvetica,sans-Serif" font-size="10.00"> </text>
<text text-anchor="start" x="202" y="-264" font-family="Helvetica,sans-Serif" font-size="10.00"> </text>
<polygon fill="#666666" stroke="#666666" points="147.5,-289 147.5,-289 260.5,-289 260.5,-289 147.5,-289"/>
<polygon fill="#666666" stroke="#666666" points="147.5,-274 147.5,-274 260.5,-274 260.5,-274 147.5,-274"/>
<polygon fill="none" stroke="#666666" points="147,-257 147,-317 260,-317 260,-257 147,-257"/>
</a>
</g>
</g>
<!-- Node3&#45;&gt;Node1 -->
<g id="edge2_Node000001_Node000003" class="edge">
<title>Node3&#45;&gt;Node1</title>
<g id="a_edge2_Node000001_Node000003"><a xlink:title=" ">
<path fill="none" stroke="#63b8ff" d="M192.1,-256.68C188.14,-246.51 183.43,-234.4 178.43,-221.54"/>
<polygon fill="none" stroke="#63b8ff" points="178.32,-221.25 172.42,-217.11 173.97,-210.07 179.87,-214.21 178.32,-221.25"/>
</a>
</g>
<text text-anchor="middle" x="210.5" y="-231" font-family="Helvetica,sans-Serif" font-size="10.00" fill="grey"> #_subject</text>
</g>
</g>
</svg>
</svg>

<style type='text/css'>
<![CDATA[
[data-mouse-over-selected='false'] { opacity: 0.7; }
[data-mouse-over-selected='true']  { opacity: 1.0; }
]]>
</style>
<script type="application/ecmascript"><![CDATA[
document.addEventListener('DOMContentLoaded', (event) => {
  highlightEdges();
  highlightAdjacentNodes();
});
]]></script>
</svg>
