<?xml version="1.0" encoding="UTF-8" standalone="no"?>
<!DOCTYPE svg PUBLIC "-//W3C//DTD SVG 1.1//EN"
 "http://www.w3.org/Graphics/SVG/1.1/DTD/svg11.dtd">
<!-- Generated by graphviz version 2.43.0 (0)
 -->
<!-- Title: cie::StreamInterceptor Pages: 1 -->
<svg width="276pt" height="457pt"
 viewBox="0.00 0.00 276.00 457.00" xmlns="http://www.w3.org/2000/svg" xmlns:xlink="http://www.w3.org/1999/xlink">
<g id="graph0" class="graph" transform="scale(1 1) rotate(0) translate(4 453)">
<title>cie::StreamInterceptor</title>
<polygon fill="white" stroke="transparent" points="-4,4 -4,-453 272,-453 272,4 -4,4"/>
<!-- Node1 -->
<g id="node1" class="node">
<title>Node1</title>
<g id="a_node1"><a xlink:title=" ">
<polygon fill="#bfbfbf" stroke="black" points="49,-0.5 49,-156.5 181,-156.5 181,-0.5 49,-0.5"/>
<text text-anchor="middle" x="115" y="-144.5" font-family="Helvetica,sans-Serif" font-size="10.00">cie::StreamInterceptor</text>
<polyline fill="none" stroke="black" points="49,-137.5 181,-137.5 "/>
<text text-anchor="middle" x="115" y="-125.5" font-family="Helvetica,sans-Serif" font-size="10.00"> </text>
<polyline fill="none" stroke="black" points="49,-118.5 181,-118.5 "/>
<text text-anchor="start" x="57" y="-106.5" font-family="Helvetica,sans-Serif" font-size="10.00">+ StreamInterceptor()</text>
<text text-anchor="start" x="57" y="-95.5" font-family="Helvetica,sans-Serif" font-size="10.00">+ StreamInterceptor()</text>
<text text-anchor="start" x="57" y="-84.5" font-family="Helvetica,sans-Serif" font-size="10.00">+ StreamInterceptor()</text>
<text text-anchor="start" x="57" y="-73.5" font-family="Helvetica,sans-Serif" font-size="10.00">+ StreamInterceptor()</text>
<text text-anchor="start" x="57" y="-62.5" font-family="Helvetica,sans-Serif" font-size="10.00">+ operator=()</text>
<text text-anchor="start" x="57" y="-51.5" font-family="Helvetica,sans-Serif" font-size="10.00">+ operator=()</text>
<text text-anchor="start" x="57" y="-40.5" font-family="Helvetica,sans-Serif" font-size="10.00">+ ~StreamInterceptor()</text>
<text text-anchor="start" x="57" y="-29.5" font-family="Helvetica,sans-Serif" font-size="10.00"># overflow()</text>
<text text-anchor="start" x="57" y="-18.5" font-family="Helvetica,sans-Serif" font-size="10.00"># xsputn()</text>
<text text-anchor="start" x="57" y="-7.5" font-family="Helvetica,sans-Serif" font-size="10.00"># sync()</text>
</a>
</g>
</g>
<!-- Node2 -->
<g id="node2" class="node">
<title>Node2</title>
<g id="a_node2"><a xlink:title=" ">
<polygon fill="white" stroke="#bfbfbf" points="0,-292.5 0,-349.5 88,-349.5 88,-292.5 0,-292.5"/>
<text text-anchor="middle" x="44" y="-337.5" font-family="Helvetica,sans-Serif" font-size="10.00">std::streambuf</text>
<polyline fill="none" stroke="#bfbfbf" points="0,-330.5 88,-330.5 "/>
<text text-anchor="middle" x="44" y="-318.5" font-family="Helvetica,sans-Serif" font-size="10.00"> </text>
<polyline fill="none" stroke="#bfbfbf" points="0,-311.5 88,-311.5 "/>
<text text-anchor="middle" x="44" y="-299.5" font-family="Helvetica,sans-Serif" font-size="10.00"> </text>
</a>
</g>
</g>
<!-- Node2&#45;&gt;Node1 -->
<g id="edge1" class="edge">
<title>Node2&#45;&gt;Node1</title>
<path fill="none" stroke="midnightblue" d="M55.05,-282.57C64.94,-249.05 79.77,-198.84 92.2,-156.73"/>
<polygon fill="none" stroke="midnightblue" points="51.62,-281.83 52.14,-292.41 58.33,-283.81 51.62,-281.83"/>
</g>
<!-- Node3 -->
<g id="node3" class="node">
<title>Node3</title>
<g id="a_node3"><a xlink:href="classcie_1_1OutputStream.html" target="_top" xlink:title=" ">
<polygon fill="white" stroke="black" points="106,-193.5 106,-448.5 268,-448.5 268,-193.5 106,-193.5"/>
<text text-anchor="middle" x="187" y="-436.5" font-family="Helvetica,sans-Serif" font-size="10.00">cie::OutputStream</text>
<polyline fill="none" stroke="black" points="106,-429.5 268,-429.5 "/>
<text text-anchor="start" x="114" y="-417.5" font-family="Helvetica,sans-Serif" font-size="10.00">+ r_t</text>
<text text-anchor="start" x="114" y="-406.5" font-family="Helvetica,sans-Serif" font-size="10.00">+ cout</text>
<text text-anchor="start" x="114" y="-395.5" font-family="Helvetica,sans-Serif" font-size="10.00">+ cerr</text>
<polyline fill="none" stroke="black" points="106,-388.5 268,-388.5 "/>
<text text-anchor="start" x="114" y="-376.5" font-family="Helvetica,sans-Serif" font-size="10.00">+ OutputStream()</text>
<text text-anchor="start" x="114" y="-365.5" font-family="Helvetica,sans-Serif" font-size="10.00">+ OutputStream()</text>
<text text-anchor="start" x="114" y="-354.5" font-family="Helvetica,sans-Serif" font-size="10.00">+ OutputStream()</text>
<text text-anchor="start" x="114" y="-343.5" font-family="Helvetica,sans-Serif" font-size="10.00">+ OutputStream()</text>
<text text-anchor="start" x="114" y="-332.5" font-family="Helvetica,sans-Serif" font-size="10.00">+ OutputStream()</text>
<text text-anchor="start" x="114" y="-321.5" font-family="Helvetica,sans-Serif" font-size="10.00">+ operator=()</text>
<text text-anchor="start" x="114" y="-310.5" font-family="Helvetica,sans-Serif" font-size="10.00">+ operator=()</text>
<text text-anchor="start" x="114" y="-299.5" font-family="Helvetica,sans-Serif" font-size="10.00">+ ~OutputStream()</text>
<text text-anchor="start" x="114" y="-288.5" font-family="Helvetica,sans-Serif" font-size="10.00">+ write()</text>
<text text-anchor="start" x="114" y="-277.5" font-family="Helvetica,sans-Serif" font-size="10.00">+ flush()</text>
<text text-anchor="start" x="114" y="-266.5" font-family="Helvetica,sans-Serif" font-size="10.00">+ rdbuf()</text>
<text text-anchor="start" x="114" y="-255.5" font-family="Helvetica,sans-Serif" font-size="10.00">+ rdbuf()</text>
<text text-anchor="start" x="114" y="-244.5" font-family="Helvetica,sans-Serif" font-size="10.00">+ requires()</text>
<text text-anchor="start" x="114" y="-233.5" font-family="Helvetica,sans-Serif" font-size="10.00"># streamInsertOperation()</text>
<text text-anchor="start" x="114" y="-222.5" font-family="Helvetica,sans-Serif" font-size="10.00"># streamInsertOperation()</text>
<text text-anchor="start" x="114" y="-211.5" font-family="Helvetica,sans-Serif" font-size="10.00"># streamInsertOperation()</text>
<text text-anchor="start" x="114" y="-200.5" font-family="Helvetica,sans-Serif" font-size="10.00"># forwardToWrappedStream()</text>
</a>
</g>
</g>
<!-- Node3&#45;&gt;Node1 -->
<g id="edge2" class="edge">
<title>Node3&#45;&gt;Node1</title>
<path fill="none" stroke="midnightblue" d="M146.2,-183.72C143.43,-174.46 140.7,-165.33 138.07,-156.56"/>
<polygon fill="none" stroke="midnightblue" points="142.88,-184.84 149.1,-193.41 149.59,-182.83 142.88,-184.84"/>
</g>
</g>
</svg>
