<?xml version="1.0" encoding="UTF-8" standalone="no"?>
<!DOCTYPE svg PUBLIC "-//W3C//DTD SVG 1.1//EN"
 "http://www.w3.org/Graphics/SVG/1.1/DTD/svg11.dtd">
<!-- Generated by graphviz version 2.43.0 (0)
 -->
<!-- Title: cie::utils::TransformView&lt; ContainerType, OutputType &gt; Pages: 1 -->
<svg width="390pt" height="238pt"
 viewBox="0.00 0.00 390.00 238.00" xmlns="http://www.w3.org/2000/svg" xmlns:xlink="http://www.w3.org/1999/xlink">
<g id="graph0" class="graph" transform="scale(1 1) rotate(0) translate(4 234)">
<title>cie::utils::TransformView&lt; ContainerType, OutputType &gt;</title>
<!-- Node1 -->
<g id="Node000001" class="node">
<title>Node1</title>
<g id="a_Node000001"><a xlink:title=" ">
<polygon fill="#999999" stroke="transparent" points="282,-90 118,-90 118,0 282,0 282,-90"/>
<text text-anchor="start" x="123" y="-78" font-family="Helvetica,sans-Serif" font-size="10.00">cie::utils::TransformView</text>
<text text-anchor="start" x="123" y="-67" font-family="Helvetica,sans-Serif" font-size="10.00">&lt; ContainerType, OutputType &gt;</text>
<text text-anchor="start" x="198" y="-52" font-family="Helvetica,sans-Serif" font-size="10.00"> </text>
<text text-anchor="start" x="137.5" y="-37" font-family="Helvetica,sans-Serif" font-size="10.00">+</text>
<text text-anchor="start" x="166" y="-37" font-family="Helvetica,sans-Serif" font-size="10.00">TransformView()</text>
<text text-anchor="start" x="137.5" y="-22" font-family="Helvetica,sans-Serif" font-size="10.00">+</text>
<text text-anchor="start" x="166" y="-22" font-family="Helvetica,sans-Serif" font-size="10.00">operator=()</text>
<text text-anchor="start" x="137.5" y="-7" font-family="Helvetica,sans-Serif" font-size="10.00">+</text>
<text text-anchor="start" x="166" y="-7" font-family="Helvetica,sans-Serif" font-size="10.00">operator=()</text>
<polygon fill="#666666" stroke="#666666" points="118,-62 118,-62 282,-62 282,-62 118,-62"/>
<polygon fill="#666666" stroke="#666666" points="118,-47 118,-47 282,-47 282,-47 118,-47"/>
<polygon fill="none" stroke="#666666" points="118,0 118,-90 282,-90 282,0 118,0"/>
</a>
</g>
</g>
<!-- Node2 -->
<g id="Node000002" class="node">
<title>Node2</title>
<g id="a_Node000002"><a xlink:href="classstd_1_1ranges_1_1transform__view.html" target="_top" xlink:title=" ">
<polygon fill="white" stroke="transparent" points="200,-230 0,-230 0,-126 200,-126 200,-230"/>
<text text-anchor="start" x="5" y="-218" font-family="Helvetica,sans-Serif" font-size="10.00">std::ranges::transform</text>
<text text-anchor="start" x="5" y="-207" font-family="Helvetica,sans-Serif" font-size="10.00">_view&lt; detail::TransformView</text>
<text text-anchor="start" x="5" y="-196" font-family="Helvetica,sans-Serif" font-size="10.00">Traits&lt; ContainerType, OutputType</text>
<text text-anchor="start" x="5" y="-185" font-family="Helvetica,sans-Serif" font-size="10.00"> &gt;::container_view_type, detail</text>
<text text-anchor="start" x="5" y="-174" font-family="Helvetica,sans-Serif" font-size="10.00">::TransformViewTraits&lt; ContainerType,</text>
<text text-anchor="start" x="18.5" y="-163" font-family="Helvetica,sans-Serif" font-size="10.00"> OutputType &gt;::transform_type &gt;</text>
<text text-anchor="start" x="98" y="-148" font-family="Helvetica,sans-Serif" font-size="10.00"> </text>
<text text-anchor="start" x="98" y="-133" font-family="Helvetica,sans-Serif" font-size="10.00"> </text>
<polygon fill="#666666" stroke="#666666" points="0,-158 0,-158 200,-158 200,-158 0,-158"/>
<polygon fill="#666666" stroke="#666666" points="0,-143 0,-143 200,-143 200,-143 0,-143"/>
<polygon fill="none" stroke="#666666" points="0,-126 0,-230 200,-230 200,-126 0,-126"/>
</a>
</g>
</g>
<!-- Node2&#45;&gt;Node1 -->
<g id="edge1_Node000001_Node000002" class="edge">
<title>Node2&#45;&gt;Node1</title>
<g id="a_edge1_Node000001_Node000002"><a xlink:title=" ">
<path fill="none" stroke="#63b8ff" d="M145.12,-117.89C152.21,-108.61 159.42,-99.16 166.19,-90.29"/>
<polygon fill="none" stroke="#63b8ff" points="142.23,-115.9 138.95,-125.98 147.8,-120.15 142.23,-115.9"/>
</a>
</g>
</g>
<!-- Node3 -->
<g id="Node000003" class="node">
<title>Node3</title>
<g id="a_Node000003"><a xlink:title=" ">
<polygon fill="white" stroke="transparent" points="382,-213.5 218,-213.5 218,-142.5 382,-142.5 382,-213.5"/>
<text text-anchor="start" x="223" y="-201" font-family="Helvetica,sans-Serif" font-size="10.00">cie::utils::detail</text>
<text text-anchor="start" x="223" y="-190" font-family="Helvetica,sans-Serif" font-size="10.00">::TransformViewTraits</text>
<text text-anchor="start" x="223" y="-179" font-family="Helvetica,sans-Serif" font-size="10.00">&lt; ContainerType, OutputType &gt;</text>
<text text-anchor="start" x="298" y="-164" font-family="Helvetica,sans-Serif" font-size="10.00"> </text>
<text text-anchor="start" x="298" y="-149" font-family="Helvetica,sans-Serif" font-size="10.00"> </text>
<polygon fill="#666666" stroke="#666666" points="218,-174 218,-174 382,-174 382,-174 218,-174"/>
<polygon fill="#666666" stroke="#666666" points="218,-159 218,-159 382,-159 382,-159 218,-159"/>
<polygon fill="none" stroke="#666666" points="218,-142.5 218,-213.5 382,-213.5 382,-142.5 218,-142.5"/>
</a>
</g>
</g>
<!-- Node3&#45;&gt;Node1 -->
<g id="edge2_Node000001_Node000003" class="edge">
<title>Node3&#45;&gt;Node1</title>
<g id="a_edge2_Node000001_Node000003"><a xlink:title=" ">
<path fill="none" stroke="#63b8ff" d="M267.31,-134.17C256.59,-120.13 244.65,-104.49 233.84,-90.33"/>
<polygon fill="none" stroke="#63b8ff" points="264.61,-136.41 273.46,-142.24 270.18,-132.17 264.61,-136.41"/>
</a>
</g>
</g>
</g>
</svg>
