<?xml version="1.0" encoding="UTF-8" standalone="no"?>
<!DOCTYPE svg PUBLIC "-//W3C//DTD SVG 1.1//EN"
 "http://www.w3.org/Graphics/SVG/1.1/DTD/svg11.dtd">
<!-- Generated by graphviz version 2.43.0 (0)
 -->
<!-- Title: cie::utils::FloatComparison&lt; TFloat &gt; Pages: 1 -->
<svg width="155pt" height="204pt"
 viewBox="0.00 0.00 155.00 204.00" xmlns="http://www.w3.org/2000/svg" xmlns:xlink="http://www.w3.org/1999/xlink">
<g id="graph0" class="graph" transform="scale(1 1) rotate(0) translate(4 200)">
<title>cie::utils::FloatComparison&lt; TFloat &gt;</title>
<polygon fill="white" stroke="transparent" points="-4,4 -4,-200 151,-200 151,4 -4,4"/>
<!-- Node1 -->
<g id="node1" class="node">
<title>Node1</title>
<g id="a_node1"><a xlink:title=" ">
<polygon fill="#bfbfbf" stroke="black" points="0,-105.5 0,-195.5 147,-195.5 147,-105.5 0,-105.5"/>
<text text-anchor="start" x="8" y="-183.5" font-family="Helvetica,sans-Serif" font-size="10.00">cie::utils::FloatComparison</text>
<text text-anchor="middle" x="73.5" y="-172.5" font-family="Helvetica,sans-Serif" font-size="10.00">&lt; TFloat &gt;</text>
<polyline fill="none" stroke="black" points="0,-165.5 147,-165.5 "/>
<text text-anchor="middle" x="73.5" y="-153.5" font-family="Helvetica,sans-Serif" font-size="10.00"> </text>
<polyline fill="none" stroke="black" points="0,-146.5 147,-146.5 "/>
<text text-anchor="start" x="8" y="-134.5" font-family="Helvetica,sans-Serif" font-size="10.00">+ FloatComparison()</text>
<text text-anchor="start" x="8" y="-123.5" font-family="Helvetica,sans-Serif" font-size="10.00">+ FloatComparison()</text>
<text text-anchor="start" x="8" y="-112.5" font-family="Helvetica,sans-Serif" font-size="10.00">+ equal()</text>
</a>
</g>
</g>
<!-- Node2 -->
<g id="node2" class="node">
<title>Node2</title>
<g id="a_node2"><a xlink:href="classcie_1_1utils_1_1Comparison_3_01TFloat_01_4.html" target="_top" xlink:title=" ">
<polygon fill="white" stroke="black" points="12.5,-0.5 12.5,-68.5 134.5,-68.5 134.5,-0.5 12.5,-0.5"/>
<text text-anchor="start" x="20.5" y="-56.5" font-family="Helvetica,sans-Serif" font-size="10.00">cie::utils::Comparison</text>
<text text-anchor="middle" x="73.5" y="-45.5" font-family="Helvetica,sans-Serif" font-size="10.00">&lt; TFloat &gt;</text>
<polyline fill="none" stroke="black" points="12.5,-38.5 134.5,-38.5 "/>
<text text-anchor="middle" x="73.5" y="-26.5" font-family="Helvetica,sans-Serif" font-size="10.00"> </text>
<polyline fill="none" stroke="black" points="12.5,-19.5 134.5,-19.5 "/>
<text text-anchor="middle" x="73.5" y="-7.5" font-family="Helvetica,sans-Serif" font-size="10.00"> </text>
</a>
</g>
</g>
<!-- Node1&#45;&gt;Node2 -->
<g id="edge1" class="edge">
<title>Node1&#45;&gt;Node2</title>
<path fill="none" stroke="midnightblue" d="M73.5,-95.32C73.5,-86.28 73.5,-77.16 73.5,-68.85"/>
<polygon fill="none" stroke="midnightblue" points="70,-95.42 73.5,-105.42 77,-95.42 70,-95.42"/>
</g>
</g>
</svg>
