<?xml version="1.0" encoding="UTF-8" standalone="no"?>
<!DOCTYPE svg PUBLIC "-//W3C//DTD SVG 1.1//EN"
 "http://www.w3.org/Graphics/SVG/1.1/DTD/svg11.dtd">
<!-- Generated by graphviz version 2.43.0 (0)
 -->
<!-- Title: cie::mp::ThreadPool&lt; TStorage &gt; Pages: 1 -->
<svg width="148pt" height="505pt"
 viewBox="0.00 0.00 148.00 505.00" xmlns="http://www.w3.org/2000/svg" xmlns:xlink="http://www.w3.org/1999/xlink">
<g id="graph0" class="graph" transform="scale(1 1) rotate(0) translate(4 501)">
<title>cie::mp::ThreadPool&lt; TStorage &gt;</title>
<!-- Node1 -->
<g id="Node000001" class="node">
<title>Node1</title>
<g id="a_Node000001"><a xlink:title=" ">
<polygon fill="#999999" stroke="transparent" points="140,-497 0,-497 0,-272 140,-272 140,-497"/>
<text text-anchor="start" x="21.5" y="-484.5" font-family="Helvetica,sans-Serif" font-size="10.00">cie::mp::ThreadPool</text>
<text text-anchor="start" x="36.5" y="-473.5" font-family="Helvetica,sans-Serif" font-size="10.00">&lt; TStorage &gt;</text>
<text text-anchor="start" x="68" y="-458.5" font-family="Helvetica,sans-Serif" font-size="10.00"> </text>
<text text-anchor="start" x="4" y="-443.5" font-family="Helvetica,sans-Serif" font-size="10.00">+</text>
<text text-anchor="start" x="17" y="-443.5" font-family="Helvetica,sans-Serif" font-size="10.00">ThreadPool()</text>
<text text-anchor="start" x="4" y="-428.5" font-family="Helvetica,sans-Serif" font-size="10.00">+</text>
<text text-anchor="start" x="17" y="-428.5" font-family="Helvetica,sans-Serif" font-size="10.00">ThreadPool()</text>
<text text-anchor="start" x="4" y="-413.5" font-family="Helvetica,sans-Serif" font-size="10.00">+</text>
<text text-anchor="start" x="17" y="-413.5" font-family="Helvetica,sans-Serif" font-size="10.00">ThreadPool()</text>
<text text-anchor="start" x="4" y="-398.5" font-family="Helvetica,sans-Serif" font-size="10.00">+</text>
<text text-anchor="start" x="17" y="-398.5" font-family="Helvetica,sans-Serif" font-size="10.00">ThreadPool()</text>
<text text-anchor="start" x="4" y="-383.5" font-family="Helvetica,sans-Serif" font-size="10.00">+</text>
<text text-anchor="start" x="17" y="-383.5" font-family="Helvetica,sans-Serif" font-size="10.00">ThreadPool()</text>
<text text-anchor="start" x="4" y="-368.5" font-family="Helvetica,sans-Serif" font-size="10.00">+</text>
<text text-anchor="start" x="17" y="-368.5" font-family="Helvetica,sans-Serif" font-size="10.00">ThreadPool()</text>
<text text-anchor="start" x="4" y="-353.5" font-family="Helvetica,sans-Serif" font-size="10.00">+</text>
<text text-anchor="start" x="17" y="-353.5" font-family="Helvetica,sans-Serif" font-size="10.00">operator=()</text>
<text text-anchor="start" x="4" y="-338.5" font-family="Helvetica,sans-Serif" font-size="10.00">+</text>
<text text-anchor="start" x="17" y="-338.5" font-family="Helvetica,sans-Serif" font-size="10.00">operator=()</text>
<text text-anchor="start" x="4" y="-323.5" font-family="Helvetica,sans-Serif" font-size="10.00">+</text>
<text text-anchor="start" x="17" y="-323.5" font-family="Helvetica,sans-Serif" font-size="10.00">firstPrivate()</text>
<text text-anchor="start" x="4" y="-308.5" font-family="Helvetica,sans-Serif" font-size="10.00">+</text>
<text text-anchor="start" x="17" y="-308.5" font-family="Helvetica,sans-Serif" font-size="10.00">queueTLSJob()</text>
<text text-anchor="start" x="17" y="-293.5" font-family="Helvetica,sans-Serif" font-size="10.00">and 10 more...</text>
<text text-anchor="start" x="4" y="-278.5" font-family="Helvetica,sans-Serif" font-size="10.00">+</text>
<text text-anchor="start" x="17" y="-278.5" font-family="Helvetica,sans-Serif" font-size="10.00">maxNumberOfThreads()</text>
<polygon fill="#666666" stroke="#666666" points="0,-468.5 0,-468.5 140,-468.5 140,-468.5 0,-468.5"/>
<polygon fill="#666666" stroke="#666666" points="0,-453.5 0,-453.5 140,-453.5 140,-453.5 0,-453.5"/>
<polygon fill="none" stroke="#666666" points="0,-272 0,-497 140,-497 140,-272 0,-272"/>
</a>
</g>
</g>
<!-- Node2 -->
<g id="Node000002" class="node">
<title>Node2</title>
<g id="a_Node000002"><a xlink:href="classcie_1_1mp_1_1ThreadPool.html" target="_top" xlink:title=" ">
<polygon fill="white" stroke="transparent" points="140,-225 0,-225 0,0 140,0 140,-225"/>
<text text-anchor="start" x="21.5" y="-212.5" font-family="Helvetica,sans-Serif" font-size="10.00">cie::mp::ThreadPool</text>
<text text-anchor="start" x="39.5" y="-201.5" font-family="Helvetica,sans-Serif" font-size="10.00">&lt; Storage &gt;</text>
<text text-anchor="start" x="68" y="-186.5" font-family="Helvetica,sans-Serif" font-size="10.00"> </text>
<text text-anchor="start" x="4" y="-171.5" font-family="Helvetica,sans-Serif" font-size="10.00">+</text>
<text text-anchor="start" x="17" y="-171.5" font-family="Helvetica,sans-Serif" font-size="10.00">ThreadPool()</text>
<text text-anchor="start" x="4" y="-156.5" font-family="Helvetica,sans-Serif" font-size="10.00">+</text>
<text text-anchor="start" x="17" y="-156.5" font-family="Helvetica,sans-Serif" font-size="10.00">ThreadPool()</text>
<text text-anchor="start" x="4" y="-141.5" font-family="Helvetica,sans-Serif" font-size="10.00">+</text>
<text text-anchor="start" x="17" y="-141.5" font-family="Helvetica,sans-Serif" font-size="10.00">ThreadPool()</text>
<text text-anchor="start" x="4" y="-126.5" font-family="Helvetica,sans-Serif" font-size="10.00">+</text>
<text text-anchor="start" x="17" y="-126.5" font-family="Helvetica,sans-Serif" font-size="10.00">ThreadPool()</text>
<text text-anchor="start" x="4" y="-111.5" font-family="Helvetica,sans-Serif" font-size="10.00">+</text>
<text text-anchor="start" x="17" y="-111.5" font-family="Helvetica,sans-Serif" font-size="10.00">ThreadPool()</text>
<text text-anchor="start" x="4" y="-96.5" font-family="Helvetica,sans-Serif" font-size="10.00">+</text>
<text text-anchor="start" x="17" y="-96.5" font-family="Helvetica,sans-Serif" font-size="10.00">ThreadPool()</text>
<text text-anchor="start" x="4" y="-81.5" font-family="Helvetica,sans-Serif" font-size="10.00">+</text>
<text text-anchor="start" x="17" y="-81.5" font-family="Helvetica,sans-Serif" font-size="10.00">operator=()</text>
<text text-anchor="start" x="4" y="-66.5" font-family="Helvetica,sans-Serif" font-size="10.00">+</text>
<text text-anchor="start" x="17" y="-66.5" font-family="Helvetica,sans-Serif" font-size="10.00">operator=()</text>
<text text-anchor="start" x="4" y="-51.5" font-family="Helvetica,sans-Serif" font-size="10.00">+</text>
<text text-anchor="start" x="17" y="-51.5" font-family="Helvetica,sans-Serif" font-size="10.00">firstPrivate()</text>
<text text-anchor="start" x="4" y="-36.5" font-family="Helvetica,sans-Serif" font-size="10.00">+</text>
<text text-anchor="start" x="17" y="-36.5" font-family="Helvetica,sans-Serif" font-size="10.00">queueTLSJob()</text>
<text text-anchor="start" x="17" y="-21.5" font-family="Helvetica,sans-Serif" font-size="10.00">and 10 more...</text>
<text text-anchor="start" x="4" y="-6.5" font-family="Helvetica,sans-Serif" font-size="10.00">+</text>
<text text-anchor="start" x="17" y="-6.5" font-family="Helvetica,sans-Serif" font-size="10.00">maxNumberOfThreads()</text>
<polygon fill="#666666" stroke="#666666" points="0,-196.5 0,-196.5 140,-196.5 140,-196.5 0,-196.5"/>
<polygon fill="#666666" stroke="#666666" points="0,-181.5 0,-181.5 140,-181.5 140,-181.5 0,-181.5"/>
<polygon fill="none" stroke="#666666" points="0,0 0,-225 140,-225 140,0 0,0"/>
</a>
</g>
</g>
<!-- Node1&#45;&gt;Node2 -->
<g id="edge1_Node000001_Node000002" class="edge">
<title>Node1&#45;&gt;Node2</title>
<g id="a_edge1_Node000001_Node000002"><a xlink:title=" ">
<path fill="none" stroke="orange" d="M70,-261.59C70,-249.46 70,-237.2 70,-225.18"/>
<polygon fill="orange" stroke="orange" points="66.5,-261.73 70,-271.73 73.5,-261.73 66.5,-261.73"/>
</a>
</g>
<text text-anchor="middle" x="102" y="-246" font-family="Helvetica,sans-Serif" font-size="10.00" fill="grey"> &lt; Storage &gt;</text>
</g>
</g>
</svg>
