<?xml version="1.0" encoding="UTF-8" standalone="no"?>
<!DOCTYPE svg PUBLIC "-//W3C//DTD SVG 1.1//EN"
 "http://www.w3.org/Graphics/SVG/1.1/DTD/svg11.dtd">
<!-- Generated by graphviz version 2.43.0 (0)
 -->
<!-- Title: cie::utils::IDObject&lt; TID &gt; Pages: 1 -->
<svg width="129pt" height="464pt"
 viewBox="0.00 0.00 129.00 464.00" xmlns="http://www.w3.org/2000/svg" xmlns:xlink="http://www.w3.org/1999/xlink">
<g id="graph0" class="graph" transform="scale(1 1) rotate(0) translate(4 460)">
<title>cie::utils::IDObject&lt; TID &gt;</title>
<polygon fill="white" stroke="transparent" points="-4,4 -4,-460 125,-460 125,4 -4,4"/>
<!-- Node1 -->
<g id="node1" class="node">
<title>Node1</title>
<g id="a_node1"><a xlink:title=" ">
<polygon fill="#bfbfbf" stroke="black" points="7.5,-310.5 7.5,-455.5 113.5,-455.5 113.5,-310.5 7.5,-310.5"/>
<text text-anchor="start" x="15.5" y="-443.5" font-family="Helvetica,sans-Serif" font-size="10.00">cie::utils::IDObject</text>
<text text-anchor="middle" x="60.5" y="-432.5" font-family="Helvetica,sans-Serif" font-size="10.00">&lt; TID &gt;</text>
<polyline fill="none" stroke="black" points="7.5,-425.5 113.5,-425.5 "/>
<text text-anchor="start" x="15.5" y="-413.5" font-family="Helvetica,sans-Serif" font-size="10.00"># _id</text>
<polyline fill="none" stroke="black" points="7.5,-406.5 113.5,-406.5 "/>
<text text-anchor="start" x="15.5" y="-394.5" font-family="Helvetica,sans-Serif" font-size="10.00">+ IDObject()</text>
<text text-anchor="start" x="15.5" y="-383.5" font-family="Helvetica,sans-Serif" font-size="10.00">+ IDObject()</text>
<text text-anchor="start" x="15.5" y="-372.5" font-family="Helvetica,sans-Serif" font-size="10.00">+ IDObject()</text>
<text text-anchor="start" x="15.5" y="-361.5" font-family="Helvetica,sans-Serif" font-size="10.00">+ IDObject()</text>
<text text-anchor="start" x="15.5" y="-350.5" font-family="Helvetica,sans-Serif" font-size="10.00">+ operator=()</text>
<text text-anchor="start" x="15.5" y="-339.5" font-family="Helvetica,sans-Serif" font-size="10.00">+ operator=()</text>
<text text-anchor="start" x="15.5" y="-328.5" font-family="Helvetica,sans-Serif" font-size="10.00">+ setID()</text>
<text text-anchor="start" x="15.5" y="-317.5" font-family="Helvetica,sans-Serif" font-size="10.00">+ getID()</text>
</a>
</g>
</g>
<!-- Node2 -->
<g id="node2" class="node">
<title>Node2</title>
<g id="a_node2"><a xlink:href="classcie_1_1utils_1_1IDObject.html" target="_top" xlink:title=" ">
<polygon fill="white" stroke="black" points="7.5,-117.5 7.5,-262.5 113.5,-262.5 113.5,-117.5 7.5,-117.5"/>
<text text-anchor="start" x="15.5" y="-250.5" font-family="Helvetica,sans-Serif" font-size="10.00">cie::utils::IDObject</text>
<text text-anchor="middle" x="60.5" y="-239.5" font-family="Helvetica,sans-Serif" font-size="10.00">&lt; Size &gt;</text>
<polyline fill="none" stroke="black" points="7.5,-232.5 113.5,-232.5 "/>
<text text-anchor="start" x="15.5" y="-220.5" font-family="Helvetica,sans-Serif" font-size="10.00"># _id</text>
<polyline fill="none" stroke="black" points="7.5,-213.5 113.5,-213.5 "/>
<text text-anchor="start" x="15.5" y="-201.5" font-family="Helvetica,sans-Serif" font-size="10.00">+ IDObject()</text>
<text text-anchor="start" x="15.5" y="-190.5" font-family="Helvetica,sans-Serif" font-size="10.00">+ IDObject()</text>
<text text-anchor="start" x="15.5" y="-179.5" font-family="Helvetica,sans-Serif" font-size="10.00">+ IDObject()</text>
<text text-anchor="start" x="15.5" y="-168.5" font-family="Helvetica,sans-Serif" font-size="10.00">+ IDObject()</text>
<text text-anchor="start" x="15.5" y="-157.5" font-family="Helvetica,sans-Serif" font-size="10.00">+ operator=()</text>
<text text-anchor="start" x="15.5" y="-146.5" font-family="Helvetica,sans-Serif" font-size="10.00">+ operator=()</text>
<text text-anchor="start" x="15.5" y="-135.5" font-family="Helvetica,sans-Serif" font-size="10.00">+ setID()</text>
<text text-anchor="start" x="15.5" y="-124.5" font-family="Helvetica,sans-Serif" font-size="10.00">+ getID()</text>
</a>
</g>
</g>
<!-- Node1&#45;&gt;Node2 -->
<g id="edge1" class="edge">
<title>Node1&#45;&gt;Node2</title>
<path fill="none" stroke="orange" d="M60.5,-300.01C60.5,-287.62 60.5,-274.91 60.5,-262.75"/>
<polygon fill="orange" stroke="orange" points="57,-300.34 60.5,-310.34 64,-300.34 57,-300.34"/>
<text text-anchor="middle" x="83.5" y="-284" font-family="Helvetica,sans-Serif" font-size="10.00"> &lt; Size &gt;</text>
</g>
<!-- Node3 -->
<g id="node3" class="node">
<title>Node3</title>
<g id="a_node3"><a xlink:title=" ">
<polygon fill="white" stroke="#bfbfbf" points="0,-0.5 0,-79.5 121,-79.5 121,-0.5 0,-0.5"/>
<text text-anchor="start" x="8" y="-67.5" font-family="Helvetica,sans-Serif" font-size="10.00">cie::utils::detail</text>
<text text-anchor="start" x="8" y="-56.5" font-family="Helvetica,sans-Serif" font-size="10.00">::AggregateArgument</text>
<text text-anchor="middle" x="60.5" y="-45.5" font-family="Helvetica,sans-Serif" font-size="10.00">&lt; TArgument &gt;</text>
<polyline fill="none" stroke="#bfbfbf" points="0,-38.5 121,-38.5 "/>
<text text-anchor="middle" x="60.5" y="-26.5" font-family="Helvetica,sans-Serif" font-size="10.00"> </text>
<polyline fill="none" stroke="#bfbfbf" points="0,-19.5 121,-19.5 "/>
<text text-anchor="middle" x="60.5" y="-7.5" font-family="Helvetica,sans-Serif" font-size="10.00"> </text>
</a>
</g>
</g>
<!-- Node2&#45;&gt;Node3 -->
<g id="edge2" class="edge">
<title>Node2&#45;&gt;Node3</title>
<path fill="none" stroke="midnightblue" d="M60.5,-107.15C60.5,-97.58 60.5,-88.18 60.5,-79.61"/>
<polygon fill="none" stroke="midnightblue" points="57,-107.17 60.5,-117.17 64,-107.17 57,-107.17"/>
</g>
</g>
</svg>
