<?xml version="1.0" encoding="UTF-8" standalone="no"?>
<!DOCTYPE svg PUBLIC "-//W3C//DTD SVG 1.1//EN"
 "http://www.w3.org/Graphics/SVG/1.1/DTD/svg11.dtd">
<!-- Generated by graphviz version 2.43.0 (0)
 -->
<!-- Title: cie::RGBAColor Pages: 1 -->
<svg width="234pt" height="458pt"
 viewBox="0.00 0.00 234.00 458.00" xmlns="http://www.w3.org/2000/svg" xmlns:xlink="http://www.w3.org/1999/xlink">
<g id="graph0" class="graph" transform="scale(1 1) rotate(0) translate(4 454)">
<title>cie::RGBAColor</title>
<polygon fill="white" stroke="transparent" points="-4,4 -4,-454 230,-454 230,4 -4,4"/>
<!-- Node1 -->
<g id="node1" class="node">
<title>Node1</title>
<g id="a_node1"><a xlink:title=" ">
<polygon fill="#bfbfbf" stroke="black" points="0,-0.5 0,-200.5 116,-200.5 116,-0.5 0,-0.5"/>
<text text-anchor="middle" x="58" y="-188.5" font-family="Helvetica,sans-Serif" font-size="10.00">cie::RGBAColor</text>
<polyline fill="none" stroke="black" points="0,-181.5 116,-181.5 "/>
<text text-anchor="start" x="8" y="-169.5" font-family="Helvetica,sans-Serif" font-size="10.00">+ White</text>
<text text-anchor="start" x="8" y="-158.5" font-family="Helvetica,sans-Serif" font-size="10.00">+ TUMWebBlue</text>
<text text-anchor="start" x="8" y="-147.5" font-family="Helvetica,sans-Serif" font-size="10.00">+ TUMOrange</text>
<text text-anchor="start" x="8" y="-136.5" font-family="Helvetica,sans-Serif" font-size="10.00">+ Warning</text>
<polyline fill="none" stroke="black" points="0,-129.5 116,-129.5 "/>
<text text-anchor="start" x="8" y="-117.5" font-family="Helvetica,sans-Serif" font-size="10.00">+ getRed()</text>
<text text-anchor="start" x="8" y="-106.5" font-family="Helvetica,sans-Serif" font-size="10.00">+ getGreen()</text>
<text text-anchor="start" x="8" y="-95.5" font-family="Helvetica,sans-Serif" font-size="10.00">+ getBlue()</text>
<text text-anchor="start" x="8" y="-84.5" font-family="Helvetica,sans-Serif" font-size="10.00">+ getAlpha()</text>
<text text-anchor="start" x="8" y="-73.5" font-family="Helvetica,sans-Serif" font-size="10.00">+ setRed()</text>
<text text-anchor="start" x="8" y="-62.5" font-family="Helvetica,sans-Serif" font-size="10.00">+ setGreen()</text>
<text text-anchor="start" x="8" y="-51.5" font-family="Helvetica,sans-Serif" font-size="10.00">+ setBlue()</text>
<text text-anchor="start" x="8" y="-40.5" font-family="Helvetica,sans-Serif" font-size="10.00">+ setAlpha()</text>
<text text-anchor="start" x="8" y="-29.5" font-family="Helvetica,sans-Serif" font-size="10.00">+ ANSI()</text>
<text text-anchor="start" x="8" y="-18.5" font-family="Helvetica,sans-Serif" font-size="10.00">+ ANSIBackground()</text>
<text text-anchor="start" x="8" y="-7.5" font-family="Helvetica,sans-Serif" font-size="10.00">and 9 more...</text>
</a>
</g>
</g>
<!-- Node1&#45;&gt;Node1 -->
<g id="edge2" class="edge">
<title>Node1&#45;&gt;Node1</title>
<path fill="none" stroke="#404040" d="M116.31,-121.33C126.73,-118.62 134,-111.68 134,-100.5 134,-93.86 131.44,-88.72 127.17,-85.07"/>
<polygon fill="none" stroke="#404040" points="127.06,-85.01 119.91,-85.92 116.31,-79.67 123.46,-78.76 127.06,-85.01"/>
<text text-anchor="middle" x="180" y="-153" font-family="Helvetica,sans-Serif" font-size="10.00"> +Black</text>
<text text-anchor="middle" x="180" y="-142" font-family="Helvetica,sans-Serif" font-size="10.00">+Error</text>
<text text-anchor="middle" x="180" y="-131" font-family="Helvetica,sans-Serif" font-size="10.00">+TUMBlack</text>
<text text-anchor="middle" x="180" y="-120" font-family="Helvetica,sans-Serif" font-size="10.00">+TUMBlue</text>
<text text-anchor="middle" x="180" y="-109" font-family="Helvetica,sans-Serif" font-size="10.00">+TUMGray</text>
<text text-anchor="middle" x="180" y="-98" font-family="Helvetica,sans-Serif" font-size="10.00">+TUMGreen</text>
<text text-anchor="middle" x="180" y="-87" font-family="Helvetica,sans-Serif" font-size="10.00">+TUMLightBlue</text>
<text text-anchor="middle" x="180" y="-76" font-family="Helvetica,sans-Serif" font-size="10.00">+TUMLightGray</text>
<text text-anchor="middle" x="180" y="-65" font-family="Helvetica,sans-Serif" font-size="10.00">+TUMLighterBlue</text>
<text text-anchor="middle" x="180" y="-54" font-family="Helvetica,sans-Serif" font-size="10.00">+TUMLightestBlue</text>
<text text-anchor="middle" x="180" y="-43" font-family="Helvetica,sans-Serif" font-size="10.00">...</text>
</g>
<!-- Node2 -->
<g id="node2" class="node">
<title>Node2</title>
<g id="a_node2"><a xlink:href="classcie_1_1Color.html" target="_top" xlink:title=" ">
<polygon fill="white" stroke="black" points="0,-238.5 0,-449.5 116,-449.5 116,-238.5 0,-238.5"/>
<text text-anchor="middle" x="58" y="-437.5" font-family="Helvetica,sans-Serif" font-size="10.00">cie::Color</text>
<polyline fill="none" stroke="black" points="0,-430.5 116,-430.5 "/>
<text text-anchor="middle" x="58" y="-418.5" font-family="Helvetica,sans-Serif" font-size="10.00"> </text>
<polyline fill="none" stroke="black" points="0,-411.5 116,-411.5 "/>
<text text-anchor="start" x="8" y="-399.5" font-family="Helvetica,sans-Serif" font-size="10.00">+ Color()</text>
<text text-anchor="start" x="8" y="-388.5" font-family="Helvetica,sans-Serif" font-size="10.00">+ Color()</text>
<text text-anchor="start" x="8" y="-377.5" font-family="Helvetica,sans-Serif" font-size="10.00">+ Color()</text>
<text text-anchor="start" x="8" y="-366.5" font-family="Helvetica,sans-Serif" font-size="10.00">+ Color()</text>
<text text-anchor="start" x="8" y="-355.5" font-family="Helvetica,sans-Serif" font-size="10.00">+ Color()</text>
<text text-anchor="start" x="8" y="-344.5" font-family="Helvetica,sans-Serif" font-size="10.00">+ Color()</text>
<text text-anchor="start" x="8" y="-333.5" font-family="Helvetica,sans-Serif" font-size="10.00">+ operator=()</text>
<text text-anchor="start" x="8" y="-322.5" font-family="Helvetica,sans-Serif" font-size="10.00">+ operator=()</text>
<text text-anchor="start" x="8" y="-311.5" font-family="Helvetica,sans-Serif" font-size="10.00">+ ~Color()</text>
<text text-anchor="start" x="8" y="-300.5" font-family="Helvetica,sans-Serif" font-size="10.00">+ string()</text>
<text text-anchor="start" x="8" y="-289.5" font-family="Helvetica,sans-Serif" font-size="10.00">+ ANSI()</text>
<text text-anchor="start" x="8" y="-278.5" font-family="Helvetica,sans-Serif" font-size="10.00">+ ANSIBackground()</text>
<text text-anchor="start" x="8" y="-267.5" font-family="Helvetica,sans-Serif" font-size="10.00">+ hex()</text>
<text text-anchor="start" x="8" y="-256.5" font-family="Helvetica,sans-Serif" font-size="10.00"># requires()</text>
<text text-anchor="start" x="8" y="-245.5" font-family="Helvetica,sans-Serif" font-size="10.00"># requires()</text>
</a>
</g>
</g>
<!-- Node2&#45;&gt;Node1 -->
<g id="edge1" class="edge">
<title>Node2&#45;&gt;Node1</title>
<path fill="none" stroke="midnightblue" d="M58,-228.19C58,-219.05 58,-209.86 58,-200.84"/>
<polygon fill="none" stroke="midnightblue" points="54.5,-228.48 58,-238.48 61.5,-228.48 54.5,-228.48"/>
</g>
</g>
</svg>
