<?xml version="1.0" encoding="UTF-8" standalone="no"?>
<!DOCTYPE svg PUBLIC "-//W3C//DTD SVG 1.1//EN"
 "http://www.w3.org/Graphics/SVG/1.1/DTD/svg11.dtd">
<!-- Generated by graphviz version 2.43.0 (0)
 -->
<!-- Title: cie::StreamInterceptor Pages: 1 -->
<svg width="325pt" height="541pt"
 viewBox="0.00 0.00 325.00 541.00" xmlns="http://www.w3.org/2000/svg" xmlns:xlink="http://www.w3.org/1999/xlink">
<g id="graph0" class="graph" transform="scale(1 1) rotate(0) translate(4 537)">
<title>cie::StreamInterceptor</title>
<polygon fill="white" stroke="transparent" points="-4,4 -4,-537 321,-537 321,4 -4,4"/>
<!-- Node1 -->
<g id="node1" class="node">
<title>Node1</title>
<g id="a_node1"><a xlink:title=" ">
<polygon fill="#bfbfbf" stroke="black" points="20,-0.5 20,-156.5 152,-156.5 152,-0.5 20,-0.5"/>
<text text-anchor="middle" x="86" y="-144.5" font-family="Helvetica,sans-Serif" font-size="10.00">cie::StreamInterceptor</text>
<polyline fill="none" stroke="black" points="20,-137.5 152,-137.5 "/>
<text text-anchor="middle" x="86" y="-125.5" font-family="Helvetica,sans-Serif" font-size="10.00"> </text>
<polyline fill="none" stroke="black" points="20,-118.5 152,-118.5 "/>
<text text-anchor="start" x="28" y="-106.5" font-family="Helvetica,sans-Serif" font-size="10.00">+ StreamInterceptor()</text>
<text text-anchor="start" x="28" y="-95.5" font-family="Helvetica,sans-Serif" font-size="10.00">+ StreamInterceptor()</text>
<text text-anchor="start" x="28" y="-84.5" font-family="Helvetica,sans-Serif" font-size="10.00">+ StreamInterceptor()</text>
<text text-anchor="start" x="28" y="-73.5" font-family="Helvetica,sans-Serif" font-size="10.00">+ StreamInterceptor()</text>
<text text-anchor="start" x="28" y="-62.5" font-family="Helvetica,sans-Serif" font-size="10.00">+ operator=()</text>
<text text-anchor="start" x="28" y="-51.5" font-family="Helvetica,sans-Serif" font-size="10.00">+ operator=()</text>
<text text-anchor="start" x="28" y="-40.5" font-family="Helvetica,sans-Serif" font-size="10.00">+ ~StreamInterceptor()</text>
<text text-anchor="start" x="28" y="-29.5" font-family="Helvetica,sans-Serif" font-size="10.00"># overflow()</text>
<text text-anchor="start" x="28" y="-18.5" font-family="Helvetica,sans-Serif" font-size="10.00"># xsputn()</text>
<text text-anchor="start" x="28" y="-7.5" font-family="Helvetica,sans-Serif" font-size="10.00"># sync()</text>
</a>
</g>
</g>
<!-- Node2 -->
<g id="node2" class="node">
<title>Node2</title>
<g id="a_node2"><a xlink:title=" ">
<polygon fill="white" stroke="#bfbfbf" points="0,-282.5 0,-339.5 88,-339.5 88,-282.5 0,-282.5"/>
<text text-anchor="middle" x="44" y="-327.5" font-family="Helvetica,sans-Serif" font-size="10.00">std::streambuf</text>
<polyline fill="none" stroke="#bfbfbf" points="0,-320.5 88,-320.5 "/>
<text text-anchor="middle" x="44" y="-308.5" font-family="Helvetica,sans-Serif" font-size="10.00"> </text>
<polyline fill="none" stroke="#bfbfbf" points="0,-301.5 88,-301.5 "/>
<text text-anchor="middle" x="44" y="-289.5" font-family="Helvetica,sans-Serif" font-size="10.00"> </text>
</a>
</g>
</g>
<!-- Node2&#45;&gt;Node1 -->
<g id="edge1" class="edge">
<title>Node2&#45;&gt;Node1</title>
<path fill="none" stroke="midnightblue" d="M50.89,-272.16C56.59,-240.89 64.87,-195.48 71.95,-156.6"/>
<polygon fill="none" stroke="midnightblue" points="47.42,-271.73 49.07,-282.2 54.3,-272.99 47.42,-271.73"/>
</g>
<!-- Node3 -->
<g id="node3" class="node">
<title>Node3</title>
<g id="a_node3"><a xlink:href="classcie_1_1OutputStream.html" target="_top" xlink:title=" ">
<polygon fill="white" stroke="black" points="106,-194.5 106,-427.5 268,-427.5 268,-194.5 106,-194.5"/>
<text text-anchor="middle" x="187" y="-415.5" font-family="Helvetica,sans-Serif" font-size="10.00">cie::OutputStream</text>
<polyline fill="none" stroke="black" points="106,-408.5 268,-408.5 "/>
<text text-anchor="middle" x="187" y="-396.5" font-family="Helvetica,sans-Serif" font-size="10.00"> </text>
<polyline fill="none" stroke="black" points="106,-389.5 268,-389.5 "/>
<text text-anchor="start" x="114" y="-377.5" font-family="Helvetica,sans-Serif" font-size="10.00">+ OutputStream()</text>
<text text-anchor="start" x="114" y="-366.5" font-family="Helvetica,sans-Serif" font-size="10.00">+ OutputStream()</text>
<text text-anchor="start" x="114" y="-355.5" font-family="Helvetica,sans-Serif" font-size="10.00">+ OutputStream()</text>
<text text-anchor="start" x="114" y="-344.5" font-family="Helvetica,sans-Serif" font-size="10.00">+ OutputStream()</text>
<text text-anchor="start" x="114" y="-333.5" font-family="Helvetica,sans-Serif" font-size="10.00">+ OutputStream()</text>
<text text-anchor="start" x="114" y="-322.5" font-family="Helvetica,sans-Serif" font-size="10.00">+ operator=()</text>
<text text-anchor="start" x="114" y="-311.5" font-family="Helvetica,sans-Serif" font-size="10.00">+ operator=()</text>
<text text-anchor="start" x="114" y="-300.5" font-family="Helvetica,sans-Serif" font-size="10.00">+ ~OutputStream()</text>
<text text-anchor="start" x="114" y="-289.5" font-family="Helvetica,sans-Serif" font-size="10.00">+ write()</text>
<text text-anchor="start" x="114" y="-278.5" font-family="Helvetica,sans-Serif" font-size="10.00">+ flush()</text>
<text text-anchor="start" x="114" y="-267.5" font-family="Helvetica,sans-Serif" font-size="10.00">+ rdbuf()</text>
<text text-anchor="start" x="114" y="-256.5" font-family="Helvetica,sans-Serif" font-size="10.00">+ rdbuf()</text>
<text text-anchor="start" x="114" y="-245.5" font-family="Helvetica,sans-Serif" font-size="10.00">+ requires()</text>
<text text-anchor="start" x="114" y="-234.5" font-family="Helvetica,sans-Serif" font-size="10.00"># streamInsertOperation()</text>
<text text-anchor="start" x="114" y="-223.5" font-family="Helvetica,sans-Serif" font-size="10.00"># streamInsertOperation()</text>
<text text-anchor="start" x="114" y="-212.5" font-family="Helvetica,sans-Serif" font-size="10.00"># streamInsertOperation()</text>
<text text-anchor="start" x="114" y="-201.5" font-family="Helvetica,sans-Serif" font-size="10.00"># forwardToWrappedStream()</text>
</a>
</g>
</g>
<!-- Node3&#45;&gt;Node1 -->
<g id="edge2" class="edge">
<title>Node3&#45;&gt;Node1</title>
<path fill="none" stroke="midnightblue" d="M132.28,-185.12C128.04,-175.44 123.84,-165.86 119.8,-156.65"/>
<polygon fill="none" stroke="midnightblue" points="129.13,-186.66 136.35,-194.41 135.54,-183.85 129.13,-186.66"/>
</g>
<!-- Node3&#45;&gt;Node3 -->
<g id="edge4" class="edge">
<title>Node3&#45;&gt;Node3</title>
<path fill="none" stroke="#404040" d="M268.18,-333.16C278.89,-329.38 286,-321.99 286,-311 286,-304.3 283.36,-298.94 278.88,-294.92"/>
<polygon fill="none" stroke="#404040" points="278.61,-294.77 271.42,-295.29 268.18,-288.84 275.37,-288.33 278.61,-294.77"/>
<text text-anchor="middle" x="301.5" y="-314" font-family="Helvetica,sans-Serif" font-size="10.00"> +cerr</text>
<text text-anchor="middle" x="301.5" y="-303" font-family="Helvetica,sans-Serif" font-size="10.00">+cout</text>
</g>
<!-- Node4 -->
<g id="node4" class="node">
<title>Node4</title>
<g id="a_node4"><a xlink:title=" ">
<polygon fill="white" stroke="#bfbfbf" points="134,-475.5 134,-532.5 240,-532.5 240,-475.5 134,-475.5"/>
<text text-anchor="middle" x="187" y="-520.5" font-family="Helvetica,sans-Serif" font-size="10.00">const TMessage &amp;</text>
<polyline fill="none" stroke="#bfbfbf" points="134,-513.5 240,-513.5 "/>
<text text-anchor="middle" x="187" y="-501.5" font-family="Helvetica,sans-Serif" font-size="10.00"> </text>
<polyline fill="none" stroke="#bfbfbf" points="134,-494.5 240,-494.5 "/>
<text text-anchor="middle" x="187" y="-482.5" font-family="Helvetica,sans-Serif" font-size="10.00"> </text>
</a>
</g>
</g>
<!-- Node4&#45;&gt;Node3 -->
<g id="edge3" class="edge">
<title>Node4&#45;&gt;Node3</title>
<path fill="none" stroke="#404040" d="M187,-475.23C187,-465.17 187,-453.04 187,-440"/>
<polygon fill="none" stroke="#404040" points="187,-439.79 183,-433.79 187,-427.79 191,-433.79 187,-439.79"/>
<text text-anchor="middle" x="199.5" y="-449" font-family="Helvetica,sans-Serif" font-size="10.00"> +r_t</text>
</g>
</g>
</svg>
