<?xml version="1.0" encoding="UTF-8" standalone="no"?>
<!DOCTYPE svg PUBLIC "-//W3C//DTD SVG 1.1//EN"
 "http://www.w3.org/Graphics/SVG/1.1/DTD/svg11.dtd">
<!-- Generated by graphviz version 2.43.0 (0)
 -->
<!-- Title: cie::HierarchicalInteger&lt; Dim, TValue &gt; Pages: 1 -->
<svg width="225pt" height="457pt"
 viewBox="0.00 0.00 225.00 457.00" xmlns="http://www.w3.org/2000/svg" xmlns:xlink="http://www.w3.org/1999/xlink">
<g id="graph0" class="graph" transform="scale(1 1) rotate(0) translate(4 453)">
<title>cie::HierarchicalInteger&lt; Dim, TValue &gt;</title>
<polygon fill="white" stroke="transparent" points="-4,4 -4,-453 221,-453 221,4 -4,4"/>
<!-- Node1 -->
<g id="node1" class="node">
<title>Node1</title>
<g id="a_node1"><a xlink:title=" ">
<polygon fill="#bfbfbf" stroke="black" points="30.5,-0.5 30.5,-332.5 195.5,-332.5 195.5,-0.5 30.5,-0.5"/>
<text text-anchor="start" x="38.5" y="-320.5" font-family="Helvetica,sans-Serif" font-size="10.00">cie::HierarchicalInteger</text>
<text text-anchor="middle" x="113" y="-309.5" font-family="Helvetica,sans-Serif" font-size="10.00">&lt; Dim, TValue &gt;</text>
<polyline fill="none" stroke="black" points="30.5,-302.5 195.5,-302.5 "/>
<text text-anchor="middle" x="113" y="-290.5" font-family="Helvetica,sans-Serif" font-size="10.00"> </text>
<polyline fill="none" stroke="black" points="30.5,-283.5 195.5,-283.5 "/>
<text text-anchor="start" x="38.5" y="-271.5" font-family="Helvetica,sans-Serif" font-size="10.00">+ HierarchicalInteger()</text>
<text text-anchor="start" x="38.5" y="-260.5" font-family="Helvetica,sans-Serif" font-size="10.00">+ HierarchicalInteger()</text>
<text text-anchor="start" x="38.5" y="-249.5" font-family="Helvetica,sans-Serif" font-size="10.00">+ HierarchicalInteger()</text>
<text text-anchor="start" x="38.5" y="-238.5" font-family="Helvetica,sans-Serif" font-size="10.00">+ HierarchicalInteger()</text>
<text text-anchor="start" x="38.5" y="-227.5" font-family="Helvetica,sans-Serif" font-size="10.00">+ operator=()</text>
<text text-anchor="start" x="38.5" y="-216.5" font-family="Helvetica,sans-Serif" font-size="10.00">+ operator=()</text>
<text text-anchor="start" x="38.5" y="-205.5" font-family="Helvetica,sans-Serif" font-size="10.00">+ operator=()</text>
<text text-anchor="start" x="38.5" y="-194.5" font-family="Helvetica,sans-Serif" font-size="10.00">+ operator TValue()</text>
<text text-anchor="start" x="38.5" y="-183.5" font-family="Helvetica,sans-Serif" font-size="10.00">+ value()</text>
<text text-anchor="start" x="38.5" y="-172.5" font-family="Helvetica,sans-Serif" font-size="10.00">+ getCell()</text>
<text text-anchor="start" x="38.5" y="-161.5" font-family="Helvetica,sans-Serif" font-size="10.00">+ getParentCell()</text>
<text text-anchor="start" x="38.5" y="-150.5" font-family="Helvetica,sans-Serif" font-size="10.00">+ getLevel()</text>
<text text-anchor="start" x="38.5" y="-139.5" font-family="Helvetica,sans-Serif" font-size="10.00">+ getLocalNode()</text>
<text text-anchor="start" x="38.5" y="-128.5" font-family="Helvetica,sans-Serif" font-size="10.00">+ getLocalCell()</text>
<text text-anchor="start" x="38.5" y="-117.5" font-family="Helvetica,sans-Serif" font-size="10.00">+ getCell()</text>
<text text-anchor="start" x="38.5" y="-106.5" font-family="Helvetica,sans-Serif" font-size="10.00">+ getParentCell()</text>
<text text-anchor="start" x="38.5" y="-95.5" font-family="Helvetica,sans-Serif" font-size="10.00">+ getLevel()</text>
<text text-anchor="start" x="38.5" y="-84.5" font-family="Helvetica,sans-Serif" font-size="10.00">+ getLocalNode()</text>
<text text-anchor="start" x="38.5" y="-73.5" font-family="Helvetica,sans-Serif" font-size="10.00">+ getLocalCell()</text>
<text text-anchor="start" x="38.5" y="-62.5" font-family="Helvetica,sans-Serif" font-size="10.00">+ getLocal()</text>
<text text-anchor="start" x="38.5" y="-51.5" font-family="Helvetica,sans-Serif" font-size="10.00">+ fromLocal()</text>
<text text-anchor="start" x="38.5" y="-40.5" font-family="Helvetica,sans-Serif" font-size="10.00">+ numberOfCellsInLevel()</text>
<text text-anchor="start" x="38.5" y="-29.5" font-family="Helvetica,sans-Serif" font-size="10.00">+ numberOfNodesInLevel()</text>
<text text-anchor="start" x="38.5" y="-18.5" font-family="Helvetica,sans-Serif" font-size="10.00">+ numberOfCellsUpToLevel()</text>
<text text-anchor="start" x="38.5" y="-7.5" font-family="Helvetica,sans-Serif" font-size="10.00">+ numberOfNodesUpToLevel()</text>
</a>
</g>
</g>
<!-- Node2 -->
<g id="node2" class="node">
<title>Node2</title>
<g id="a_node2"><a xlink:title=" ">
<polygon fill="white" stroke="#bfbfbf" points="0,-380.5 0,-448.5 124,-448.5 124,-380.5 0,-380.5"/>
<text text-anchor="start" x="8" y="-436.5" font-family="Helvetica,sans-Serif" font-size="10.00">static constexpr const</text>
<text text-anchor="middle" x="62" y="-425.5" font-family="Helvetica,sans-Serif" font-size="10.00"> Level</text>
<polyline fill="none" stroke="#bfbfbf" points="0,-418.5 124,-418.5 "/>
<text text-anchor="middle" x="62" y="-406.5" font-family="Helvetica,sans-Serif" font-size="10.00"> </text>
<polyline fill="none" stroke="#bfbfbf" points="0,-399.5 124,-399.5 "/>
<text text-anchor="middle" x="62" y="-387.5" font-family="Helvetica,sans-Serif" font-size="10.00"> </text>
</a>
</g>
</g>
<!-- Node2&#45;&gt;Node1 -->
<g id="edge1" class="edge">
<title>Node2&#45;&gt;Node1</title>
<path fill="none" stroke="#404040" d="M68.88,-380.32C71.02,-369.98 73.55,-357.77 76.3,-344.51"/>
<polygon fill="none" stroke="#404040" points="76.33,-344.37 73.63,-337.68 78.77,-332.62 81.47,-339.3 76.33,-344.37"/>
<text text-anchor="middle" x="107" y="-354" font-family="Helvetica,sans-Serif" font-size="10.00"> +MaxLevels</text>
</g>
<!-- Node3 -->
<g id="node3" class="node">
<title>Node3</title>
<g id="a_node3"><a xlink:title=" ">
<polygon fill="white" stroke="#bfbfbf" points="142.5,-386 142.5,-443 187.5,-443 187.5,-386 142.5,-386"/>
<text text-anchor="middle" x="165" y="-431" font-family="Helvetica,sans-Serif" font-size="10.00">size_t</text>
<polyline fill="none" stroke="#bfbfbf" points="142.5,-424 187.5,-424 "/>
<text text-anchor="middle" x="165" y="-412" font-family="Helvetica,sans-Serif" font-size="10.00"> </text>
<polyline fill="none" stroke="#bfbfbf" points="142.5,-405 187.5,-405 "/>
<text text-anchor="middle" x="165" y="-393" font-family="Helvetica,sans-Serif" font-size="10.00"> </text>
</a>
</g>
</g>
<!-- Node3&#45;&gt;Node1 -->
<g id="edge2" class="edge">
<title>Node3&#45;&gt;Node1</title>
<path fill="none" stroke="#404040" d="M159.14,-385.76C156.74,-374.44 153.77,-360.36 150.48,-344.83"/>
<polygon fill="none" stroke="#404040" points="150.4,-344.43 145.25,-339.39 147.92,-332.69 153.07,-337.73 150.4,-344.43"/>
<text text-anchor="middle" x="185" y="-354" font-family="Helvetica,sans-Serif" font-size="10.00"> +Dimension</text>
</g>
</g>
</svg>
