<?xml version="1.0" encoding="UTF-8" standalone="no"?>
<!DOCTYPE svg PUBLIC "-//W3C//DTD SVG 1.1//EN"
 "http://www.w3.org/Graphics/SVG/1.1/DTD/svg11.dtd">
<!-- Generated by graphviz version 2.43.0 (0)
 -->
<!-- Title: cie::utils::NamedObject Pages: 1 -->
<svg width="383pt" height="532pt"
 viewBox="0.00 0.00 382.50 532.00" xmlns="http://www.w3.org/2000/svg" xmlns:xlink="http://www.w3.org/1999/xlink">
<g id="graph0" class="graph" transform="scale(1 1) rotate(0) translate(4 528)">
<title>cie::utils::NamedObject</title>
<!-- Node1 -->
<g id="Node000001" class="node">
<title>Node1</title>
<g id="a_Node000001"><a xlink:title=" ">
<polygon fill="#999999" stroke="transparent" points="257.5,-524 132.5,-524 132.5,-340 257.5,-340 257.5,-524"/>
<text text-anchor="start" x="138" y="-512" font-family="Helvetica,sans-Serif" font-size="10.00">cie::utils::NamedObject</text>
<text text-anchor="start" x="193.5" y="-497" font-family="Helvetica,sans-Serif" font-size="10.00"> </text>
<text text-anchor="start" x="142" y="-482" font-family="Helvetica,sans-Serif" font-size="10.00">+</text>
<text text-anchor="start" x="160" y="-482" font-family="Helvetica,sans-Serif" font-size="10.00">NamedObject()</text>
<text text-anchor="start" x="142" y="-467" font-family="Helvetica,sans-Serif" font-size="10.00">+</text>
<text text-anchor="start" x="160" y="-467" font-family="Helvetica,sans-Serif" font-size="10.00">NamedObject()</text>
<text text-anchor="start" x="142" y="-452" font-family="Helvetica,sans-Serif" font-size="10.00">+</text>
<text text-anchor="start" x="160" y="-452" font-family="Helvetica,sans-Serif" font-size="10.00">NamedObject()</text>
<text text-anchor="start" x="142" y="-437" font-family="Helvetica,sans-Serif" font-size="10.00">+</text>
<text text-anchor="start" x="160" y="-437" font-family="Helvetica,sans-Serif" font-size="10.00">NamedObject()</text>
<text text-anchor="start" x="142" y="-422" font-family="Helvetica,sans-Serif" font-size="10.00">+</text>
<text text-anchor="start" x="160" y="-422" font-family="Helvetica,sans-Serif" font-size="10.00">operator=()</text>
<text text-anchor="start" x="142" y="-407" font-family="Helvetica,sans-Serif" font-size="10.00">+</text>
<text text-anchor="start" x="160" y="-407" font-family="Helvetica,sans-Serif" font-size="10.00">operator=()</text>
<text text-anchor="start" x="142" y="-392" font-family="Helvetica,sans-Serif" font-size="10.00">+</text>
<text text-anchor="start" x="160" y="-392" font-family="Helvetica,sans-Serif" font-size="10.00">name()</text>
<text text-anchor="start" x="142" y="-377" font-family="Helvetica,sans-Serif" font-size="10.00">+</text>
<text text-anchor="start" x="160" y="-377" font-family="Helvetica,sans-Serif" font-size="10.00">setName()</text>
<text text-anchor="start" x="142" y="-362" font-family="Helvetica,sans-Serif" font-size="10.00">+</text>
<text text-anchor="start" x="160" y="-362" font-family="Helvetica,sans-Serif" font-size="10.00">setName()</text>
<text text-anchor="start" x="142" y="-347" font-family="Helvetica,sans-Serif" font-size="10.00">+</text>
<text text-anchor="start" x="160" y="-347" font-family="Helvetica,sans-Serif" font-size="10.00">~NamedObject()</text>
<polygon fill="#666666" stroke="#666666" points="133,-507 133,-507 258,-507 258,-507 133,-507"/>
<polygon fill="#666666" stroke="#666666" points="133,-492 133,-492 258,-492 258,-492 133,-492"/>
<polygon fill="none" stroke="#666666" points="132.5,-340 132.5,-524 257.5,-524 257.5,-340 132.5,-340"/>
</a>
</g>
</g>
<!-- Node2 -->
<g id="Node000002" class="node">
<title>Node2</title>
<g id="a_Node000002"><a xlink:href="classcie_1_1utils_1_1ArgParse.html" target="_top" xlink:title=" ">
<polygon fill="white" stroke="transparent" points="130,-304 0,-304 0,0 130,0 130,-304"/>
<text text-anchor="start" x="19.5" y="-292" font-family="Helvetica,sans-Serif" font-size="10.00">cie::utils::ArgParse</text>
<text text-anchor="start" x="4" y="-277" font-family="Helvetica,sans-Serif" font-size="10.00">+</text>
<text text-anchor="start" x="17" y="-277" font-family="Helvetica,sans-Serif" font-size="10.00">defaultValidator</text>
<text text-anchor="start" x="4" y="-262" font-family="Helvetica,sans-Serif" font-size="10.00">+</text>
<text text-anchor="start" x="17" y="-262" font-family="Helvetica,sans-Serif" font-size="10.00">pathValidator</text>
<text text-anchor="start" x="4" y="-247" font-family="Helvetica,sans-Serif" font-size="10.00">+</text>
<text text-anchor="start" x="17" y="-247" font-family="Helvetica,sans-Serif" font-size="10.00">directoryPathValidator</text>
<text text-anchor="start" x="4" y="-232" font-family="Helvetica,sans-Serif" font-size="10.00">+</text>
<text text-anchor="start" x="17" y="-232" font-family="Helvetica,sans-Serif" font-size="10.00">filePathValidator</text>
<text text-anchor="start" x="4" y="-217" font-family="Helvetica,sans-Serif" font-size="10.00">+</text>
<text text-anchor="start" x="17" y="-217" font-family="Helvetica,sans-Serif" font-size="10.00">ArgParse()</text>
<text text-anchor="start" x="4" y="-202" font-family="Helvetica,sans-Serif" font-size="10.00">+</text>
<text text-anchor="start" x="17" y="-202" font-family="Helvetica,sans-Serif" font-size="10.00">ArgParse()</text>
<text text-anchor="start" x="4" y="-187" font-family="Helvetica,sans-Serif" font-size="10.00">+</text>
<text text-anchor="start" x="17" y="-187" font-family="Helvetica,sans-Serif" font-size="10.00">ArgParse()</text>
<text text-anchor="start" x="4" y="-172" font-family="Helvetica,sans-Serif" font-size="10.00">+</text>
<text text-anchor="start" x="17" y="-172" font-family="Helvetica,sans-Serif" font-size="10.00">ArgParse()</text>
<text text-anchor="start" x="4" y="-157" font-family="Helvetica,sans-Serif" font-size="10.00">+</text>
<text text-anchor="start" x="17" y="-157" font-family="Helvetica,sans-Serif" font-size="10.00">operator=()</text>
<text text-anchor="start" x="4" y="-142" font-family="Helvetica,sans-Serif" font-size="10.00">+</text>
<text text-anchor="start" x="17" y="-142" font-family="Helvetica,sans-Serif" font-size="10.00">~ArgParse()</text>
<text text-anchor="start" x="4" y="-127" font-family="Helvetica,sans-Serif" font-size="10.00">+</text>
<text text-anchor="start" x="17" y="-127" font-family="Helvetica,sans-Serif" font-size="10.00">has()</text>
<text text-anchor="start" x="4" y="-112" font-family="Helvetica,sans-Serif" font-size="10.00">+</text>
<text text-anchor="start" x="17" y="-112" font-family="Helvetica,sans-Serif" font-size="10.00">addPositional()</text>
<text text-anchor="start" x="4" y="-97" font-family="Helvetica,sans-Serif" font-size="10.00">+</text>
<text text-anchor="start" x="17" y="-97" font-family="Helvetica,sans-Serif" font-size="10.00">addKeyword()</text>
<text text-anchor="start" x="4" y="-82" font-family="Helvetica,sans-Serif" font-size="10.00">+</text>
<text text-anchor="start" x="17" y="-82" font-family="Helvetica,sans-Serif" font-size="10.00">addFlag()</text>
<text text-anchor="start" x="4" y="-67" font-family="Helvetica,sans-Serif" font-size="10.00">+</text>
<text text-anchor="start" x="17" y="-67" font-family="Helvetica,sans-Serif" font-size="10.00">addArgument()</text>
<text text-anchor="start" x="4" y="-52" font-family="Helvetica,sans-Serif" font-size="10.00">+</text>
<text text-anchor="start" x="17" y="-52" font-family="Helvetica,sans-Serif" font-size="10.00">parseArguments()</text>
<text text-anchor="start" x="4" y="-37" font-family="Helvetica,sans-Serif" font-size="10.00">+</text>
<text text-anchor="start" x="17" y="-37" font-family="Helvetica,sans-Serif" font-size="10.00">help()</text>
<text text-anchor="start" x="4" y="-22" font-family="Helvetica,sans-Serif" font-size="10.00">+</text>
<text text-anchor="start" x="17" y="-22" font-family="Helvetica,sans-Serif" font-size="10.00">help()</text>
<text text-anchor="start" x="4" y="-7" font-family="Helvetica,sans-Serif" font-size="10.00">+</text>
<text text-anchor="start" x="17" y="-7" font-family="Helvetica,sans-Serif" font-size="10.00">validatorFactory()</text>
<polygon fill="#666666" stroke="#666666" points="0,-287 0,-287 130,-287 130,-287 0,-287"/>
<polygon fill="#666666" stroke="#666666" points="0,-227 0,-227 15,-227 15,-227 0,-227"/>
<polygon fill="#666666" stroke="#666666" points="15,-227 15,-227 130,-227 130,-227 15,-227"/>
<polygon fill="none" stroke="#666666" points="0,0 0,-304 130,-304 130,0 0,0"/>
</a>
</g>
</g>
<!-- Node1&#45;&gt;Node2 -->
<g id="edge1_Node000001_Node000002" class="edge">
<title>Node1&#45;&gt;Node2</title>
<g id="a_edge1_Node000001_Node000002"><a xlink:title=" ">
<path fill="none" stroke="#8b1a1a" d="M148.18,-330.88C142.28,-318.26 136.17,-305.19 130.05,-292.11"/>
<polygon fill="none" stroke="#8b1a1a" points="145.03,-332.4 152.43,-339.97 151.37,-329.43 145.03,-332.4"/>
</a>
</g>
</g>
<!-- Node3 -->
<g id="Node000003" class="node">
<title>Node3</title>
<g id="a_Node000003"><a xlink:href="classcie_1_1utils_1_1Loggee.html" target="_top" xlink:title=" ">
<polygon fill="white" stroke="transparent" points="241.5,-244 148.5,-244 148.5,-60 241.5,-60 241.5,-244"/>
<text text-anchor="start" x="154" y="-232" font-family="Helvetica,sans-Serif" font-size="10.00">cie::utils::Loggee</text>
<text text-anchor="start" x="193.5" y="-217" font-family="Helvetica,sans-Serif" font-size="10.00"> </text>
<text text-anchor="start" x="157" y="-202" font-family="Helvetica,sans-Serif" font-size="10.00">+</text>
<text text-anchor="start" x="174" y="-202" font-family="Helvetica,sans-Serif" font-size="10.00">Loggee()</text>
<text text-anchor="start" x="157" y="-187" font-family="Helvetica,sans-Serif" font-size="10.00">+</text>
<text text-anchor="start" x="174" y="-187" font-family="Helvetica,sans-Serif" font-size="10.00">~Loggee()</text>
<text text-anchor="start" x="157" y="-172" font-family="Helvetica,sans-Serif" font-size="10.00">+</text>
<text text-anchor="start" x="174" y="-172" font-family="Helvetica,sans-Serif" font-size="10.00">log()</text>
<text text-anchor="start" x="157" y="-157" font-family="Helvetica,sans-Serif" font-size="10.00">+</text>
<text text-anchor="start" x="174" y="-157" font-family="Helvetica,sans-Serif" font-size="10.00">logID()</text>
<text text-anchor="start" x="157" y="-142" font-family="Helvetica,sans-Serif" font-size="10.00">+</text>
<text text-anchor="start" x="174" y="-142" font-family="Helvetica,sans-Serif" font-size="10.00">tic()</text>
<text text-anchor="start" x="157" y="-127" font-family="Helvetica,sans-Serif" font-size="10.00">+</text>
<text text-anchor="start" x="174" y="-127" font-family="Helvetica,sans-Serif" font-size="10.00">toc()</text>
<text text-anchor="start" x="157" y="-112" font-family="Helvetica,sans-Serif" font-size="10.00">+</text>
<text text-anchor="start" x="174" y="-112" font-family="Helvetica,sans-Serif" font-size="10.00">toc()</text>
<text text-anchor="start" x="157" y="-97" font-family="Helvetica,sans-Serif" font-size="10.00">+</text>
<text text-anchor="start" x="174" y="-97" font-family="Helvetica,sans-Serif" font-size="10.00">newBlock()</text>
<text text-anchor="start" x="157" y="-82" font-family="Helvetica,sans-Serif" font-size="10.00">+</text>
<text text-anchor="start" x="174" y="-82" font-family="Helvetica,sans-Serif" font-size="10.00">separate()</text>
<text text-anchor="start" x="157" y="-67" font-family="Helvetica,sans-Serif" font-size="10.00">#</text>
<text text-anchor="start" x="174" y="-67" font-family="Helvetica,sans-Serif" font-size="10.00">logger()</text>
<polygon fill="#666666" stroke="#666666" points="149,-227 149,-227 242,-227 242,-227 149,-227"/>
<polygon fill="#666666" stroke="#666666" points="149,-212 149,-212 242,-212 242,-212 149,-212"/>
<polygon fill="none" stroke="#666666" points="148.5,-60 148.5,-244 241.5,-244 241.5,-60 148.5,-60"/>
</a>
</g>
</g>
<!-- Node1&#45;&gt;Node3 -->
<g id="edge2_Node000001_Node000003" class="edge">
<title>Node1&#45;&gt;Node3</title>
<g id="a_edge2_Node000001_Node000003"><a xlink:title=" ">
<path fill="none" stroke="#63b8ff" d="M195,-329.77C195,-301.79 195,-271.61 195,-244.23"/>
<polygon fill="none" stroke="#63b8ff" points="191.5,-329.97 195,-339.97 198.5,-329.97 191.5,-329.97"/>
</a>
</g>
</g>
<!-- Node4 -->
<g id="Node000004" class="node">
<title>Node4</title>
<g id="a_Node000004"><a xlink:title=" ">
<polygon fill="white" stroke="transparent" points="374.5,-187.5 259.5,-187.5 259.5,-116.5 374.5,-116.5 374.5,-187.5"/>
<text text-anchor="start" x="265" y="-175" font-family="Helvetica,sans-Serif" font-size="10.00">cie::utils::detail</text>
<text text-anchor="start" x="265" y="-164" font-family="Helvetica,sans-Serif" font-size="10.00">::AggregateArgument</text>
<text text-anchor="start" x="279.5" y="-153" font-family="Helvetica,sans-Serif" font-size="10.00">&lt; TArgument &gt;</text>
<text text-anchor="start" x="315.5" y="-138" font-family="Helvetica,sans-Serif" font-size="10.00"> </text>
<text text-anchor="start" x="315.5" y="-123" font-family="Helvetica,sans-Serif" font-size="10.00"> </text>
<polygon fill="#666666" stroke="#666666" points="260,-148 260,-148 375,-148 375,-148 260,-148"/>
<polygon fill="#666666" stroke="#666666" points="260,-133 260,-133 375,-133 375,-133 260,-133"/>
<polygon fill="none" stroke="#666666" points="259.5,-116.5 259.5,-187.5 374.5,-187.5 374.5,-116.5 259.5,-116.5"/>
</a>
</g>
</g>
<!-- Node1&#45;&gt;Node4 -->
<g id="edge3_Node000001_Node000004" class="edge">
<title>Node1&#45;&gt;Node4</title>
<g id="a_edge3_Node000001_Node000004"><a xlink:title=" ">
<path fill="none" stroke="#63b8ff" d="M239.01,-330.72C260.98,-280.65 286.15,-223.31 301.81,-187.62"/>
<polygon fill="none" stroke="#63b8ff" points="235.76,-329.41 234.95,-339.97 242.17,-332.22 235.76,-329.41"/>
</a>
</g>
</g>
</g>
</svg>
