<?xml version="1.0" encoding="UTF-8" standalone="no"?>
<!DOCTYPE svg PUBLIC "-//W3C//DTD SVG 1.1//EN"
 "http://www.w3.org/Graphics/SVG/1.1/DTD/svg11.dtd">
<!-- Generated by graphviz version 2.43.0 (0)
 -->
<!-- Title: cie::Exception Pages: 1 -->
<svg width="1109pt" height="430pt"
 viewBox="0.00 0.00 1109.00 430.00" xmlns="http://www.w3.org/2000/svg" xmlns:xlink="http://www.w3.org/1999/xlink">
<g id="graph0" class="graph" transform="scale(1 1) rotate(0) translate(4 426)">
<title>cie::Exception</title>
<polygon fill="white" stroke="transparent" points="-4,4 -4,-426 1105,-426 1105,4 -4,4"/>
<!-- Node1 -->
<g id="node1" class="node">
<title>Node1</title>
<g id="a_node1"><a xlink:title=" ">
<polygon fill="#bfbfbf" stroke="black" points="509,-127.5 509,-327.5 601,-327.5 601,-127.5 509,-127.5"/>
<text text-anchor="middle" x="555" y="-315.5" font-family="Helvetica,sans-Serif" font-size="10.00">cie::Exception</text>
<polyline fill="none" stroke="black" points="509,-308.5 601,-308.5 "/>
<text text-anchor="middle" x="555" y="-296.5" font-family="Helvetica,sans-Serif" font-size="10.00"> </text>
<polyline fill="none" stroke="black" points="509,-289.5 601,-289.5 "/>
<text text-anchor="start" x="517" y="-277.5" font-family="Helvetica,sans-Serif" font-size="10.00">+ Exception()</text>
<text text-anchor="start" x="517" y="-266.5" font-family="Helvetica,sans-Serif" font-size="10.00">+ Exception()</text>
<text text-anchor="start" x="517" y="-255.5" font-family="Helvetica,sans-Serif" font-size="10.00">+ Exception()</text>
<text text-anchor="start" x="517" y="-244.5" font-family="Helvetica,sans-Serif" font-size="10.00">+ Exception()</text>
<text text-anchor="start" x="517" y="-233.5" font-family="Helvetica,sans-Serif" font-size="10.00">+ Exception()</text>
<text text-anchor="start" x="517" y="-222.5" font-family="Helvetica,sans-Serif" font-size="10.00">+ Exception()</text>
<text text-anchor="start" x="517" y="-211.5" font-family="Helvetica,sans-Serif" font-size="10.00">+ Exception()</text>
<text text-anchor="start" x="517" y="-200.5" font-family="Helvetica,sans-Serif" font-size="10.00">+ Exception()</text>
<text text-anchor="start" x="517" y="-189.5" font-family="Helvetica,sans-Serif" font-size="10.00">+ operator=()</text>
<text text-anchor="start" x="517" y="-178.5" font-family="Helvetica,sans-Serif" font-size="10.00">+ operator=()</text>
<text text-anchor="start" x="517" y="-167.5" font-family="Helvetica,sans-Serif" font-size="10.00">+ ~Exception()</text>
<text text-anchor="start" x="517" y="-156.5" font-family="Helvetica,sans-Serif" font-size="10.00">+ what()</text>
<text text-anchor="start" x="517" y="-145.5" font-family="Helvetica,sans-Serif" font-size="10.00">+ name()</text>
<text text-anchor="start" x="517" y="-134.5" font-family="Helvetica,sans-Serif" font-size="10.00">+ stackLevel()</text>
</a>
</g>
</g>
<!-- Node3 -->
<g id="node3" class="node">
<title>Node3</title>
<g id="a_node3"><a xlink:href="structcie_1_1AbstractCallException.html" target="_top" xlink:title=" ">
<polygon fill="white" stroke="black" points="0,-0.5 0,-90.5 144,-90.5 144,-0.5 0,-0.5"/>
<text text-anchor="middle" x="72" y="-78.5" font-family="Helvetica,sans-Serif" font-size="10.00">cie::AbstractCallException</text>
<polyline fill="none" stroke="black" points="0,-71.5 144,-71.5 "/>
<text text-anchor="middle" x="72" y="-59.5" font-family="Helvetica,sans-Serif" font-size="10.00"> </text>
<polyline fill="none" stroke="black" points="0,-52.5 144,-52.5 "/>
<text text-anchor="start" x="8" y="-40.5" font-family="Helvetica,sans-Serif" font-size="10.00">+ AbstractCallException()</text>
<text text-anchor="start" x="8" y="-29.5" font-family="Helvetica,sans-Serif" font-size="10.00">+ AbstractCallException()</text>
<text text-anchor="start" x="8" y="-18.5" font-family="Helvetica,sans-Serif" font-size="10.00">+ AbstractCallException()</text>
<text text-anchor="start" x="8" y="-7.5" font-family="Helvetica,sans-Serif" font-size="10.00">+ name()</text>
</a>
</g>
</g>
<!-- Node1&#45;&gt;Node3 -->
<g id="edge2" class="edge">
<title>Node1&#45;&gt;Node3</title>
<path fill="none" stroke="midnightblue" d="M499.07,-211.07C420.32,-188.57 272.96,-143.67 153,-91 150.06,-89.71 147.09,-88.35 144.1,-86.94"/>
<polygon fill="none" stroke="midnightblue" points="498.21,-214.46 508.79,-213.83 500.13,-207.73 498.21,-214.46"/>
</g>
<!-- Node4 -->
<g id="node4" class="node">
<title>Node4</title>
<g id="a_node4"><a xlink:href="structcie_1_1DivisionByZeroException.html" target="_top" xlink:title=" ">
<polygon fill="white" stroke="black" points="162,-0.5 162,-90.5 322,-90.5 322,-0.5 162,-0.5"/>
<text text-anchor="middle" x="242" y="-78.5" font-family="Helvetica,sans-Serif" font-size="10.00">cie::DivisionByZeroException</text>
<polyline fill="none" stroke="black" points="162,-71.5 322,-71.5 "/>
<text text-anchor="middle" x="242" y="-59.5" font-family="Helvetica,sans-Serif" font-size="10.00"> </text>
<polyline fill="none" stroke="black" points="162,-52.5 322,-52.5 "/>
<text text-anchor="start" x="170" y="-40.5" font-family="Helvetica,sans-Serif" font-size="10.00">+ DivisionByZeroException()</text>
<text text-anchor="start" x="170" y="-29.5" font-family="Helvetica,sans-Serif" font-size="10.00">+ DivisionByZeroException()</text>
<text text-anchor="start" x="170" y="-18.5" font-family="Helvetica,sans-Serif" font-size="10.00">+ DivisionByZeroException()</text>
<text text-anchor="start" x="170" y="-7.5" font-family="Helvetica,sans-Serif" font-size="10.00">+ name()</text>
</a>
</g>
</g>
<!-- Node1&#45;&gt;Node4 -->
<g id="edge3" class="edge">
<title>Node1&#45;&gt;Node4</title>
<path fill="none" stroke="midnightblue" d="M500.04,-194.89C449.76,-165.98 374.89,-122.92 318.73,-90.63"/>
<polygon fill="none" stroke="midnightblue" points="498.4,-197.99 508.82,-199.94 501.89,-191.92 498.4,-197.99"/>
</g>
<!-- Node5 -->
<g id="node5" class="node">
<title>Node5</title>
<g id="a_node5"><a xlink:href="structcie_1_1GeometryException.html" target="_top" xlink:title=" ">
<polygon fill="white" stroke="black" points="340,-0.5 340,-90.5 474,-90.5 474,-0.5 340,-0.5"/>
<text text-anchor="middle" x="407" y="-78.5" font-family="Helvetica,sans-Serif" font-size="10.00">cie::GeometryException</text>
<polyline fill="none" stroke="black" points="340,-71.5 474,-71.5 "/>
<text text-anchor="middle" x="407" y="-59.5" font-family="Helvetica,sans-Serif" font-size="10.00"> </text>
<polyline fill="none" stroke="black" points="340,-52.5 474,-52.5 "/>
<text text-anchor="start" x="348" y="-40.5" font-family="Helvetica,sans-Serif" font-size="10.00">+ GeometryException()</text>
<text text-anchor="start" x="348" y="-29.5" font-family="Helvetica,sans-Serif" font-size="10.00">+ GeometryException()</text>
<text text-anchor="start" x="348" y="-18.5" font-family="Helvetica,sans-Serif" font-size="10.00">+ GeometryException()</text>
<text text-anchor="start" x="348" y="-7.5" font-family="Helvetica,sans-Serif" font-size="10.00">+ name()</text>
</a>
</g>
</g>
<!-- Node1&#45;&gt;Node5 -->
<g id="edge4" class="edge">
<title>Node1&#45;&gt;Node5</title>
<path fill="none" stroke="midnightblue" d="M502.44,-162.58C482.89,-138.8 461.15,-112.35 443.36,-90.72"/>
<polygon fill="none" stroke="midnightblue" points="499.93,-165.03 508.98,-170.53 505.34,-160.59 499.93,-165.03"/>
</g>
<!-- Node6 -->
<g id="node6" class="node">
<title>Node6</title>
<g id="a_node6"><a xlink:href="structcie_1_1MemoryException.html" target="_top" xlink:title=" ">
<polygon fill="white" stroke="black" points="492.5,-0.5 492.5,-90.5 617.5,-90.5 617.5,-0.5 492.5,-0.5"/>
<text text-anchor="middle" x="555" y="-78.5" font-family="Helvetica,sans-Serif" font-size="10.00">cie::MemoryException</text>
<polyline fill="none" stroke="black" points="492.5,-71.5 617.5,-71.5 "/>
<text text-anchor="middle" x="555" y="-59.5" font-family="Helvetica,sans-Serif" font-size="10.00"> </text>
<polyline fill="none" stroke="black" points="492.5,-52.5 617.5,-52.5 "/>
<text text-anchor="start" x="500.5" y="-40.5" font-family="Helvetica,sans-Serif" font-size="10.00">+ MemoryException()</text>
<text text-anchor="start" x="500.5" y="-29.5" font-family="Helvetica,sans-Serif" font-size="10.00">+ MemoryException()</text>
<text text-anchor="start" x="500.5" y="-18.5" font-family="Helvetica,sans-Serif" font-size="10.00">+ MemoryException()</text>
<text text-anchor="start" x="500.5" y="-7.5" font-family="Helvetica,sans-Serif" font-size="10.00">+ name()</text>
</a>
</g>
</g>
<!-- Node1&#45;&gt;Node6 -->
<g id="edge5" class="edge">
<title>Node1&#45;&gt;Node6</title>
<path fill="none" stroke="midnightblue" d="M555,-117.23C555,-108.04 555,-99.13 555,-90.92"/>
<polygon fill="none" stroke="midnightblue" points="551.5,-117.29 555,-127.29 558.5,-117.29 551.5,-117.29"/>
</g>
<!-- Node7 -->
<g id="node7" class="node">
<title>Node7</title>
<g id="a_node7"><a xlink:href="structcie_1_1NotImplementedException.html" target="_top" xlink:title=" ">
<polygon fill="white" stroke="black" points="635.5,-0.5 635.5,-90.5 802.5,-90.5 802.5,-0.5 635.5,-0.5"/>
<text text-anchor="middle" x="719" y="-78.5" font-family="Helvetica,sans-Serif" font-size="10.00">cie::NotImplementedException</text>
<polyline fill="none" stroke="black" points="635.5,-71.5 802.5,-71.5 "/>
<text text-anchor="middle" x="719" y="-59.5" font-family="Helvetica,sans-Serif" font-size="10.00"> </text>
<polyline fill="none" stroke="black" points="635.5,-52.5 802.5,-52.5 "/>
<text text-anchor="start" x="643.5" y="-40.5" font-family="Helvetica,sans-Serif" font-size="10.00">+ NotImplementedException()</text>
<text text-anchor="start" x="643.5" y="-29.5" font-family="Helvetica,sans-Serif" font-size="10.00">+ NotImplementedException()</text>
<text text-anchor="start" x="643.5" y="-18.5" font-family="Helvetica,sans-Serif" font-size="10.00">+ NotImplementedException()</text>
<text text-anchor="start" x="643.5" y="-7.5" font-family="Helvetica,sans-Serif" font-size="10.00">+ name()</text>
</a>
</g>
</g>
<!-- Node1&#45;&gt;Node7 -->
<g id="edge6" class="edge">
<title>Node1&#45;&gt;Node7</title>
<path fill="none" stroke="midnightblue" d="M608.12,-168.19C631.08,-142.99 657.51,-113.99 678.8,-90.62"/>
<polygon fill="none" stroke="midnightblue" points="605.27,-166.13 601.12,-175.88 610.44,-170.85 605.27,-166.13"/>
</g>
<!-- Node8 -->
<g id="node8" class="node">
<title>Node8</title>
<g id="a_node8"><a xlink:href="structcie_1_1NullPtrException.html" target="_top" xlink:title=" ">
<polygon fill="white" stroke="black" points="821,-0.5 821,-90.5 939,-90.5 939,-0.5 821,-0.5"/>
<text text-anchor="middle" x="880" y="-78.5" font-family="Helvetica,sans-Serif" font-size="10.00">cie::NullPtrException</text>
<polyline fill="none" stroke="black" points="821,-71.5 939,-71.5 "/>
<text text-anchor="middle" x="880" y="-59.5" font-family="Helvetica,sans-Serif" font-size="10.00"> </text>
<polyline fill="none" stroke="black" points="821,-52.5 939,-52.5 "/>
<text text-anchor="start" x="829" y="-40.5" font-family="Helvetica,sans-Serif" font-size="10.00">+ NullPtrException()</text>
<text text-anchor="start" x="829" y="-29.5" font-family="Helvetica,sans-Serif" font-size="10.00">+ NullPtrException()</text>
<text text-anchor="start" x="829" y="-18.5" font-family="Helvetica,sans-Serif" font-size="10.00">+ NullPtrException()</text>
<text text-anchor="start" x="829" y="-7.5" font-family="Helvetica,sans-Serif" font-size="10.00">+ name()</text>
</a>
</g>
</g>
<!-- Node1&#45;&gt;Node8 -->
<g id="edge7" class="edge">
<title>Node1&#45;&gt;Node8</title>
<path fill="none" stroke="midnightblue" d="M610.37,-199.21C662.98,-172.84 743.94,-131.09 812,-91 814.92,-89.28 817.89,-87.49 820.87,-85.67"/>
<polygon fill="none" stroke="midnightblue" points="608.59,-196.19 601.21,-203.79 611.72,-202.45 608.59,-196.19"/>
</g>
<!-- Node9 -->
<g id="node9" class="node">
<title>Node9</title>
<g id="a_node9"><a xlink:href="structcie_1_1OutOfRangeException.html" target="_top" xlink:title=" ">
<polygon fill="white" stroke="black" points="957,-0.5 957,-90.5 1101,-90.5 1101,-0.5 957,-0.5"/>
<text text-anchor="middle" x="1029" y="-78.5" font-family="Helvetica,sans-Serif" font-size="10.00">cie::OutOfRangeException</text>
<polyline fill="none" stroke="black" points="957,-71.5 1101,-71.5 "/>
<text text-anchor="middle" x="1029" y="-59.5" font-family="Helvetica,sans-Serif" font-size="10.00"> </text>
<polyline fill="none" stroke="black" points="957,-52.5 1101,-52.5 "/>
<text text-anchor="start" x="965" y="-40.5" font-family="Helvetica,sans-Serif" font-size="10.00">+ OutOfRangeException()</text>
<text text-anchor="start" x="965" y="-29.5" font-family="Helvetica,sans-Serif" font-size="10.00">+ OutOfRangeException()</text>
<text text-anchor="start" x="965" y="-18.5" font-family="Helvetica,sans-Serif" font-size="10.00">+ OutOfRangeException()</text>
<text text-anchor="start" x="965" y="-7.5" font-family="Helvetica,sans-Serif" font-size="10.00">+ name()</text>
</a>
</g>
</g>
<!-- Node1&#45;&gt;Node9 -->
<g id="edge8" class="edge">
<title>Node1&#45;&gt;Node9</title>
<path fill="none" stroke="midnightblue" d="M611.06,-210.47C688.36,-187.63 831.34,-142.71 948,-91 950.93,-89.7 953.9,-88.33 956.89,-86.91"/>
<polygon fill="none" stroke="midnightblue" points="609.66,-207.23 601.05,-213.41 611.64,-213.95 609.66,-207.23"/>
</g>
<!-- Node2 -->
<g id="node2" class="node">
<title>Node2</title>
<g id="a_node2"><a xlink:title=" ">
<polygon fill="white" stroke="#bfbfbf" points="512,-364.5 512,-421.5 598,-421.5 598,-364.5 512,-364.5"/>
<text text-anchor="middle" x="555" y="-409.5" font-family="Helvetica,sans-Serif" font-size="10.00">std::exception</text>
<polyline fill="none" stroke="#bfbfbf" points="512,-402.5 598,-402.5 "/>
<text text-anchor="middle" x="555" y="-390.5" font-family="Helvetica,sans-Serif" font-size="10.00"> </text>
<polyline fill="none" stroke="#bfbfbf" points="512,-383.5 598,-383.5 "/>
<text text-anchor="middle" x="555" y="-371.5" font-family="Helvetica,sans-Serif" font-size="10.00"> </text>
</a>
</g>
</g>
<!-- Node2&#45;&gt;Node1 -->
<g id="edge1" class="edge">
<title>Node2&#45;&gt;Node1</title>
<path fill="none" stroke="midnightblue" d="M555,-354.04C555,-345.87 555,-336.87 555,-327.55"/>
<polygon fill="none" stroke="midnightblue" points="551.5,-354.26 555,-364.26 558.5,-354.26 551.5,-354.26"/>
</g>
</g>
</svg>
