<?xml version="1.0" encoding="UTF-8" standalone="no"?>
<!DOCTYPE svg PUBLIC "-//W3C//DTD SVG 1.1//EN"
 "http://www.w3.org/Graphics/SVG/1.1/DTD/svg11.dtd">
<!-- Generated by graphviz version 2.43.0 (0)
 -->
<!-- Title: cie::utils::InternalStateIterator&lt; TContainer &gt; Pages: 1 -->
<!--zoomable 556 -->

<svg id="main" version="1.1" xmlns="http://www.w3.org/2000/svg" xmlns:xlink="http://www.w3.org/1999/xlink" xml:space="preserve" onload="init(evt)">
<style type="text/css"><![CDATA[
.node, .edge {opacity: 0.7;}
.node.selected, .edge.selected {opacity: 1;}
.edge:hover path { stroke: red; }
.edge:hover polygon { stroke: red; fill: red; }
]]></style>

<defs>
  <circle id="rim" cx="0" cy="0" r="7"/>
  <circle id="rim2" cx="0" cy="0" r="3.5"/>
  <g id="zoomPlus">
    <use xlink:href="#rim" fill="#404040"><set attributeName="fill" to="#808080" begin="zoomplus.mouseover" end="zoomplus.mouseout"/></use>
    <path d="M-4,0h8M0,-4v8" fill="none" stroke="white" stroke-width="1.5" pointer-events="none"/>
  </g>
  <g id="zoomMin">
    <use xlink:href="#rim" fill="#404040"><set attributeName="fill" to="#808080" begin="zoomminus.mouseover" end="zoomminus.mouseout"/></use>
    <path d="M-4,0h8" fill="none" stroke="white" stroke-width="1.5" pointer-events="none"/>
  </g>
  <g id="arrowUp" transform="translate(30 24)">
    <use xlink:href="#rim"/>
    <path pointer-events="none" fill="none" stroke="white" stroke-width="1.5" d="M0,-3.0v7 M-2.5,-0.5L0,-3.0L2.5,-0.5"/>
  </g>
  <g id="arrowRight" transform="rotate(90) translate(36 -43)">
    <use xlink:href="#rim"/>
    <path pointer-events="none" fill="none" stroke="white" stroke-width="1.5" d="M0,-3.0v7 M-2.5,-0.5L0,-3.0L2.5,-0.5"/>
  </g>
  <g id="arrowDown" transform="rotate(180) translate(-30 -48)">
    <use xlink:href="#rim"/>
    <path pointer-events="none" fill="none" stroke="white" stroke-width="1.5" d="M0,-3.0v7 M-2.5,-0.5L0,-3.0L2.5,-0.5"/>
  </g>
  <g id="arrowLeft" transform="rotate(270) translate(-36 17)">
    <use xlink:href="#rim"/>
    <path pointer-events="none" fill="none" stroke="white" stroke-width="1.5" d="M0,-3.0v7 M-2.5,-0.5L0,-3.0L2.5,-0.5"/>
  </g>
  <g id="resetDef">
    <use xlink:href="#rim2" fill="#404040"><set attributeName="fill" to="#808080" begin="reset.mouseover" end="reset.mouseout"/></use>
  </g>
</defs>
<script type="application/ecmascript">
var viewWidth = 365;
var viewHeight = 556;
var sectionId = 'dynsection-1';
</script>
<script type="application/ecmascript" xlink:href="svg.min.js"/>
<svg id="graph" class="graph">
<g id="viewport">
<title>cie::utils::InternalStateIterator&lt; TContainer &gt;</title>
<!-- Node1 -->
<g id="Node000001" class="node">
<title>Node1</title>
<g id="a_Node000001"><a xlink:title="Helper class for permutations.">
<polygon fill="#999999" stroke="transparent" points="263,-60 135,-60 135,0 263,0 263,-60"/>
<text text-anchor="start" x="143" y="-48" font-family="Helvetica,sans-Serif" font-size="10.00">cie::utils::InternalState</text>
<text text-anchor="start" x="143" y="-37" font-family="Helvetica,sans-Serif" font-size="10.00">Iterator&lt; TContainer &gt;</text>
<text text-anchor="start" x="197" y="-22" font-family="Helvetica,sans-Serif" font-size="10.00"> </text>
<text text-anchor="start" x="139" y="-7" font-family="Helvetica,sans-Serif" font-size="10.00">+</text>
<text text-anchor="start" x="152" y="-7" font-family="Helvetica,sans-Serif" font-size="10.00">InternalStateIterator()</text>
<polygon fill="#666666" stroke="#666666" points="135,-32 135,-32 263,-32 263,-32 135,-32"/>
<polygon fill="#666666" stroke="#666666" points="135,-17 135,-17 263,-17 263,-17 135,-17"/>
<polygon fill="none" stroke="#666666" points="135,0 135,-60 263,-60 263,0 135,0"/>
</a>
</g>
</g>
<!-- Node2 -->
<g id="Node000002" class="node">
<title>Node2</title>
<g id="a_Node000002"><a xlink:title=" ">
<polygon fill="white" stroke="transparent" points="193,-200 35,-200 35,-107 193,-107 193,-200"/>
<text text-anchor="start" x="40" y="-187.5" font-family="Helvetica,sans-Serif" font-size="10.00">cie::utils::StateIterator</text>
<text text-anchor="start" x="40" y="-176.5" font-family="Helvetica,sans-Serif" font-size="10.00">&lt; std::vector&lt; detail::</text>
<text text-anchor="start" x="40" y="-165.5" font-family="Helvetica,sans-Serif" font-size="10.00">container_reference_wrapper</text>
<text text-anchor="start" x="40" y="-154.5" font-family="Helvetica,sans-Serif" font-size="10.00">&lt; const TContainer &gt; &gt;::const</text>
<text text-anchor="start" x="87.5" y="-143.5" font-family="Helvetica,sans-Serif" font-size="10.00">_iterator &gt;</text>
<text text-anchor="start" x="112" y="-128.5" font-family="Helvetica,sans-Serif" font-size="10.00"> </text>
<text text-anchor="start" x="112" y="-113.5" font-family="Helvetica,sans-Serif" font-size="10.00"> </text>
<polygon fill="#666666" stroke="#666666" points="35,-138.5 35,-138.5 193,-138.5 193,-138.5 35,-138.5"/>
<polygon fill="#666666" stroke="#666666" points="35,-123.5 35,-123.5 193,-123.5 193,-123.5 35,-123.5"/>
<polygon fill="none" stroke="#666666" points="35,-107 35,-200 193,-200 193,-107 35,-107"/>
</a>
</g>
</g>
<!-- Node2&#45;&gt;Node1 -->
<g id="edge1_Node000001_Node000002" class="edge">
<title>Node2&#45;&gt;Node1</title>
<g id="a_edge1_Node000001_Node000002"><a xlink:title=" ">
<path fill="none" stroke="#63b8ff" d="M151.86,-98.38C161.04,-85.26 170.51,-71.73 178.53,-60.26"/>
<polygon fill="none" stroke="#63b8ff" points="148.76,-96.71 145.89,-106.91 154.49,-100.72 148.76,-96.71"/>
</a>
</g>
</g>
<!-- Node3 -->
<g id="Node000003" class="node">
<title>Node3</title>
<g id="a_Node000003"><a xlink:title=" ">
<polygon fill="white" stroke="transparent" points="78,-379.5 0,-379.5 0,-330.5 78,-330.5 78,-379.5"/>
<text text-anchor="start" x="5" y="-367" font-family="Helvetica,sans-Serif" font-size="10.00">const_iterator</text>
<text text-anchor="start" x="37" y="-352" font-family="Helvetica,sans-Serif" font-size="10.00"> </text>
<text text-anchor="start" x="37" y="-337" font-family="Helvetica,sans-Serif" font-size="10.00"> </text>
<polygon fill="#666666" stroke="#666666" points="0,-362 0,-362 78,-362 78,-362 0,-362"/>
<polygon fill="#666666" stroke="#666666" points="0,-347 0,-347 78,-347 78,-347 0,-347"/>
<polygon fill="none" stroke="#666666" points="0,-330.5 0,-379.5 78,-379.5 78,-330.5 0,-330.5"/>
</a>
</g>
</g>
<!-- Node3&#45;&gt;Node2 -->
<g id="edge2_Node000002_Node000003" class="edge">
<title>Node3&#45;&gt;Node2</title>
<g id="a_edge2_Node000002_Node000003"><a xlink:title=" ">
<path fill="none" stroke="#63b8ff" d="M37.72,-330.21C37.14,-302.09 39.15,-254.51 56,-218 57.14,-215.52 58.42,-213.07 59.8,-210.66"/>
<polygon fill="none" stroke="#63b8ff" points="59.95,-210.44 59.86,-203.23 66.48,-200.37 66.57,-207.58 59.95,-210.44"/>
</a>
</g>
<text text-anchor="middle" x="78" y="-243" font-family="Helvetica,sans-Serif" font-size="10.00" fill="grey"> #_begin</text>
<text text-anchor="middle" x="78" y="-232" font-family="Helvetica,sans-Serif" font-size="10.00" fill="grey">#_end</text>
</g>
<!-- Node4 -->
<g id="Node000004" class="node">
<title>Node4</title>
<g id="a_Node000004"><a xlink:title=" ">
<polygon fill="white" stroke="transparent" points="174,-548 68,-548 68,-488 174,-488 174,-548"/>
<text text-anchor="start" x="73" y="-536" font-family="Helvetica,sans-Serif" font-size="10.00">vector&lt; subiterator</text>
<text text-anchor="start" x="101.5" y="-525" font-family="Helvetica,sans-Serif" font-size="10.00">_type &gt;</text>
<text text-anchor="start" x="119" y="-510" font-family="Helvetica,sans-Serif" font-size="10.00"> </text>
<text text-anchor="start" x="119" y="-495" font-family="Helvetica,sans-Serif" font-size="10.00"> </text>
<polygon fill="#666666" stroke="#666666" points="68,-520 68,-520 174,-520 174,-520 68,-520"/>
<polygon fill="#666666" stroke="#666666" points="68,-505 68,-505 174,-505 174,-505 68,-505"/>
<polygon fill="none" stroke="#666666" points="68,-488 68,-548 174,-548 174,-488 68,-488"/>
</a>
</g>
</g>
<!-- Node4&#45;&gt;Node2 -->
<g id="edge3_Node000002_Node000004" class="edge">
<title>Node4&#45;&gt;Node2</title>
<g id="a_edge3_Node000002_Node000004"><a xlink:title=" ">
<path fill="none" stroke="#63b8ff" d="M120.44,-487.95C119.29,-428.22 116.63,-290.69 115.11,-212.19"/>
<polygon fill="none" stroke="#63b8ff" points="115.11,-212.11 111,-206.19 114.88,-200.12 119,-206.04 115.11,-212.11"/>
</a>
</g>
<text text-anchor="middle" x="141" y="-352.5" font-family="Helvetica,sans-Serif" font-size="10.00" fill="grey"> #_state</text>
</g>
<!-- Node5 -->
<g id="Node000005" class="node">
<title>Node5</title>
<g id="a_Node000005"><a xlink:href="classcie_1_1utils_1_1StateIterator.html" target="_top" xlink:title=" ">
<polygon fill="white" stroke="transparent" points="293.5,-430 174.5,-430 174.5,-280 293.5,-280 293.5,-430"/>
<text text-anchor="start" x="180" y="-418" font-family="Helvetica,sans-Serif" font-size="10.00">cie::utils::StateIterator</text>
<text text-anchor="start" x="193.5" y="-407" font-family="Helvetica,sans-Serif" font-size="10.00">&lt; IteratorType &gt;</text>
<text text-anchor="start" x="232.5" y="-392" font-family="Helvetica,sans-Serif" font-size="10.00"> </text>
<text text-anchor="start" x="186" y="-377" font-family="Helvetica,sans-Serif" font-size="10.00">+</text>
<text text-anchor="start" x="206" y="-377" font-family="Helvetica,sans-Serif" font-size="10.00">StateIterator()</text>
<text text-anchor="start" x="186" y="-362" font-family="Helvetica,sans-Serif" font-size="10.00">+</text>
<text text-anchor="start" x="206" y="-362" font-family="Helvetica,sans-Serif" font-size="10.00">operator=()</text>
<text text-anchor="start" x="186" y="-347" font-family="Helvetica,sans-Serif" font-size="10.00">+</text>
<text text-anchor="start" x="206" y="-347" font-family="Helvetica,sans-Serif" font-size="10.00">StateIterator()</text>
<text text-anchor="start" x="186" y="-332" font-family="Helvetica,sans-Serif" font-size="10.00">+</text>
<text text-anchor="start" x="206" y="-332" font-family="Helvetica,sans-Serif" font-size="10.00">reset()</text>
<text text-anchor="start" x="186" y="-317" font-family="Helvetica,sans-Serif" font-size="10.00">+</text>
<text text-anchor="start" x="206" y="-317" font-family="Helvetica,sans-Serif" font-size="10.00">operator++()</text>
<text text-anchor="start" x="186" y="-302" font-family="Helvetica,sans-Serif" font-size="10.00">+</text>
<text text-anchor="start" x="206" y="-302" font-family="Helvetica,sans-Serif" font-size="10.00">operator*()</text>
<text text-anchor="start" x="186" y="-287" font-family="Helvetica,sans-Serif" font-size="10.00">#</text>
<text text-anchor="start" x="206" y="-287" font-family="Helvetica,sans-Serif" font-size="10.00">StateIterator()</text>
<polygon fill="#666666" stroke="#666666" points="175,-402 175,-402 294,-402 294,-402 175,-402"/>
<polygon fill="#666666" stroke="#666666" points="175,-387 175,-387 294,-387 294,-387 175,-387"/>
<polygon fill="none" stroke="#666666" points="174.5,-280 174.5,-430 293.5,-430 293.5,-280 174.5,-280"/>
</a>
</g>
</g>
<!-- Node4&#45;&gt;Node5 -->
<g id="edge6_Node000005_Node000004" class="edge">
<title>Node4&#45;&gt;Node5</title>
<g id="a_edge6_Node000005_Node000004"><a xlink:title=" ">
<path fill="none" stroke="#63b8ff" d="M141.46,-487.84C150.98,-474.28 162.84,-457.39 174.86,-440.27"/>
<polygon fill="none" stroke="#63b8ff" points="175.04,-440.01 175.21,-432.8 181.93,-430.18 181.76,-437.39 175.04,-440.01"/>
</a>
</g>
<text text-anchor="middle" x="189" y="-456.5" font-family="Helvetica,sans-Serif" font-size="10.00" fill="grey"> #_state</text>
</g>
<!-- Node5&#45;&gt;Node2 -->
<g id="edge4_Node000002_Node000005" class="edge">
<title>Node5&#45;&gt;Node2</title>
<g id="a_edge4_Node000002_Node000005"><a xlink:title=" ">
<path fill="none" stroke="orange" d="M184.33,-271.43C169.64,-247 154.1,-221.16 141.37,-200"/>
<polygon fill="orange" stroke="orange" points="181.33,-273.23 189.49,-280 187.33,-269.62 181.33,-273.23"/>
</a>
</g>
<text text-anchor="start" x="178" y="-254" font-family="Helvetica,sans-Serif" font-size="10.00" fill="grey"> &lt; std::vector&lt; detail</text>
<text text-anchor="start" x="178" y="-243" font-family="Helvetica,sans-Serif" font-size="10.00" fill="grey">::container_reference</text>
<text text-anchor="start" x="178" y="-232" font-family="Helvetica,sans-Serif" font-size="10.00" fill="grey">_wrapper&lt; const TContainer</text>
<text text-anchor="middle" x="247.5" y="-221" font-family="Helvetica,sans-Serif" font-size="10.00" fill="grey"> &gt; &gt;::const_iterator &gt;</text>
</g>
<!-- Node6 -->
<g id="Node000006" class="node">
<title>Node6</title>
<g id="a_Node000006"><a xlink:title=" ">
<polygon fill="white" stroke="transparent" points="268.5,-542.5 199.5,-542.5 199.5,-493.5 268.5,-493.5 268.5,-542.5"/>
<text text-anchor="start" x="205" y="-530" font-family="Helvetica,sans-Serif" font-size="10.00">IteratorType</text>
<text text-anchor="start" x="232.5" y="-515" font-family="Helvetica,sans-Serif" font-size="10.00"> </text>
<text text-anchor="start" x="232.5" y="-500" font-family="Helvetica,sans-Serif" font-size="10.00"> </text>
<polygon fill="#666666" stroke="#666666" points="200,-525 200,-525 269,-525 269,-525 200,-525"/>
<polygon fill="#666666" stroke="#666666" points="200,-510 200,-510 269,-510 269,-510 200,-510"/>
<polygon fill="none" stroke="#666666" points="199.5,-493.5 199.5,-542.5 268.5,-542.5 268.5,-493.5 199.5,-493.5"/>
</a>
</g>
</g>
<!-- Node6&#45;&gt;Node5 -->
<g id="edge5_Node000005_Node000006" class="edge">
<title>Node6&#45;&gt;Node5</title>
<g id="a_edge5_Node000005_Node000006"><a xlink:title=" ">
<path fill="none" stroke="#63b8ff" d="M234,-493.24C234,-479.4 234,-461.01 234,-442.19"/>
<polygon fill="none" stroke="#63b8ff" points="234,-442.14 230,-436.14 234,-430.14 238,-436.14 234,-442.14"/>
</a>
</g>
<text text-anchor="middle" x="256" y="-462" font-family="Helvetica,sans-Serif" font-size="10.00" fill="grey"> #_begin</text>
<text text-anchor="middle" x="256" y="-451" font-family="Helvetica,sans-Serif" font-size="10.00" fill="grey">#_end</text>
</g>
<!-- Node7 -->
<g id="Node000007" class="node">
<title>Node7</title>
<g id="a_Node000007"><a xlink:title=" ">
<polygon fill="white" stroke="transparent" points="356.5,-189 211.5,-189 211.5,-118 356.5,-118 356.5,-189"/>
<text text-anchor="start" x="217" y="-176.5" font-family="Helvetica,sans-Serif" font-size="10.00">vector&lt; detail::container</text>
<text text-anchor="start" x="217" y="-165.5" font-family="Helvetica,sans-Serif" font-size="10.00">_reference_wrapper&lt; const</text>
<text text-anchor="start" x="245" y="-154.5" font-family="Helvetica,sans-Serif" font-size="10.00"> TContainer &gt; &gt;</text>
<text text-anchor="start" x="282.5" y="-139.5" font-family="Helvetica,sans-Serif" font-size="10.00"> </text>
<text text-anchor="start" x="282.5" y="-124.5" font-family="Helvetica,sans-Serif" font-size="10.00"> </text>
<polygon fill="#666666" stroke="#666666" points="212,-149.5 212,-149.5 357,-149.5 357,-149.5 212,-149.5"/>
<polygon fill="#666666" stroke="#666666" points="212,-134.5 212,-134.5 357,-134.5 357,-134.5 212,-134.5"/>
<polygon fill="none" stroke="#666666" points="211.5,-118 211.5,-189 356.5,-189 356.5,-118 211.5,-118"/>
</a>
</g>
</g>
<!-- Node7&#45;&gt;Node1 -->
<g id="edge7_Node000001_Node000007" class="edge">
<title>Node7&#45;&gt;Node1</title>
<g id="a_edge7_Node000001_Node000007"><a xlink:title=" ">
<path fill="none" stroke="#63b8ff" d="M259.64,-117.68C249.28,-102.87 237.14,-85.52 226.46,-70.26"/>
<polygon fill="none" stroke="#63b8ff" points="226.22,-69.91 219.5,-67.29 219.34,-60.08 226.06,-62.7 226.22,-69.91"/>
</a>
</g>
<text text-anchor="middle" x="290" y="-81" font-family="Helvetica,sans-Serif" font-size="10.00" fill="grey"> #_dummyContainer</text>
</g>
</g>
</svg>

<g id="navigator" transform="translate(0 0)" fill="#404254">
  <rect fill="#f2f5e9" fill-opacity="0.5" stroke="#606060" stroke-width=".5" x="0" y="0" width="60" height="60"/>
  <use id="zoomplus" xlink:href="#zoomPlus" x="17" y="9" onmousedown="handleZoom(evt,'in')"/>
  <use id="zoomminus" xlink:href="#zoomMin" x="42" y="9" onmousedown="handleZoom(evt,'out')"/>
  <use id="reset" xlink:href="#resetDef" x="30" y="36" onmousedown="handleReset()"/>
   <use id="arrowup" xlink:href="#arrowUp" x="0" y="0" onmousedown="handlePan(0,-1)"/>
  <use id="arrowright" xlink:href="#arrowRight" x="0" y="0" onmousedown="handlePan(1,0)"/>
  <use id="arrowdown" xlink:href="#arrowDown" x="0" y="0" onmousedown="handlePan(0,1)"/>
  <use id="arrowleft" xlink:href="#arrowLeft" x="0" y="0" onmousedown="handlePan(-1,0)"/>
</g>
<svg viewBox="0 0 15 15" width="100%" height="30px" preserveAspectRatio="xMaxYMin meet">
 <g id="arrow_out" transform="scale(0.3 0.3)">
  <a xlink:href="classcie_1_1utils_1_1InternalStateIterator__coll__graph_org.svg" target="_base">
   <rect id="button" ry="5" rx="5" y="6" x="6" height="38" width="38"
        fill="#f2f5e9" fill-opacity="0.5" stroke="#606060" stroke-width="1.0"/>
   <path id="arrow"
     d="M 11.500037,31.436501 C 11.940474,20.09759 22.043105,11.32322 32.158766,21.979434 L 37.068811,17.246167 C 37.068811,17.246167 37.088388,32 37.088388,32 L 22.160133,31.978069 C 22.160133,31.978069 26.997745,27.140456 26.997745,27.140456 C 18.528582,18.264221 13.291696,25.230495 11.500037,31.436501 z"
     style="fill:#404040;"/>
  </a>
 </g>
</svg>

<style type='text/css'>
<![CDATA[
[data-mouse-over-selected='false'] { opacity: 0.7; }
[data-mouse-over-selected='true']  { opacity: 1.0; }
]]>
</style>
<script type="application/ecmascript"><![CDATA[
document.addEventListener('DOMContentLoaded', (event) => {
  highlightEdges();
  highlightAdjacentNodes();
});
]]></script>
</svg>
