<?xml version="1.0" encoding="UTF-8" standalone="no"?>
<!DOCTYPE svg PUBLIC "-//W3C//DTD SVG 1.1//EN"
 "http://www.w3.org/Graphics/SVG/1.1/DTD/svg11.dtd">
<!-- Generated by graphviz version 2.43.0 (0)
 -->
<!-- Title: modules.benchutils.Parser.Parser Pages: 1 -->
<svg width="178pt" height="182pt"
 viewBox="0.00 0.00 178.00 182.00" xmlns="http://www.w3.org/2000/svg" xmlns:xlink="http://www.w3.org/1999/xlink">
<g id="graph0" class="graph" transform="scale(1 1) rotate(0) translate(4 178)">
<title>modules.benchutils.Parser.Parser</title>
<polygon fill="white" stroke="transparent" points="-4,4 -4,-178 174,-178 174,4 -4,4"/>
<!-- Node1 -->
<g id="node1" class="node">
<title>Node1</title>
<g id="a_node1"><a xlink:title=" ">
<polygon fill="#bfbfbf" stroke="black" points="7,-0.5 7,-79.5 154,-79.5 154,-0.5 7,-0.5"/>
<text text-anchor="start" x="15" y="-67.5" font-family="Helvetica,sans-Serif" font-size="10.00">modules.benchutils.Parser.</text>
<text text-anchor="middle" x="80.5" y="-56.5" font-family="Helvetica,sans-Serif" font-size="10.00">Parser</text>
<polyline fill="none" stroke="black" points="7,-49.5 154,-49.5 "/>
<text text-anchor="middle" x="80.5" y="-37.5" font-family="Helvetica,sans-Serif" font-size="10.00"> </text>
<polyline fill="none" stroke="black" points="7,-30.5 154,-30.5 "/>
<text text-anchor="start" x="15" y="-18.5" font-family="Helvetica,sans-Serif" font-size="10.00">+ name()</text>
<text text-anchor="start" x="15" y="-7.5" font-family="Helvetica,sans-Serif" font-size="10.00">+ __call__()</text>
</a>
</g>
</g>
<!-- Node2 -->
<g id="node2" class="node">
<title>Node2</title>
<g id="a_node2"><a xlink:href="classmetaclass.html" target="_top" xlink:title=" ">
<polygon fill="white" stroke="black" points="0,-116.5 0,-173.5 67,-173.5 67,-116.5 0,-116.5"/>
<text text-anchor="middle" x="33.5" y="-161.5" font-family="Helvetica,sans-Serif" font-size="10.00">metaclass</text>
<polyline fill="none" stroke="black" points="0,-154.5 67,-154.5 "/>
<text text-anchor="middle" x="33.5" y="-142.5" font-family="Helvetica,sans-Serif" font-size="10.00"> </text>
<polyline fill="none" stroke="black" points="0,-135.5 67,-135.5 "/>
<text text-anchor="middle" x="33.5" y="-123.5" font-family="Helvetica,sans-Serif" font-size="10.00"> </text>
</a>
</g>
</g>
<!-- Node2&#45;&gt;Node1 -->
<g id="edge1" class="edge">
<title>Node2&#45;&gt;Node1</title>
<path fill="none" stroke="midnightblue" d="M50.25,-107.3C54.36,-98.29 58.77,-88.61 62.92,-79.52"/>
<polygon fill="none" stroke="midnightblue" points="47.06,-105.85 46.1,-116.4 53.43,-108.75 47.06,-105.85"/>
</g>
<!-- Node3 -->
<g id="node3" class="node">
<title>Node3</title>
<g id="a_node3"><a xlink:title=" ">
<polygon fill="white" stroke="#bfbfbf" points="85,-116.5 85,-173.5 170,-173.5 170,-116.5 85,-116.5"/>
<text text-anchor="middle" x="127.5" y="-161.5" font-family="Helvetica,sans-Serif" font-size="10.00">abc::ABCMeta</text>
<polyline fill="none" stroke="#bfbfbf" points="85,-154.5 170,-154.5 "/>
<text text-anchor="middle" x="127.5" y="-142.5" font-family="Helvetica,sans-Serif" font-size="10.00"> </text>
<polyline fill="none" stroke="#bfbfbf" points="85,-135.5 170,-135.5 "/>
<text text-anchor="middle" x="127.5" y="-123.5" font-family="Helvetica,sans-Serif" font-size="10.00"> </text>
</a>
</g>
</g>
<!-- Node3&#45;&gt;Node1 -->
<g id="edge2" class="edge">
<title>Node3&#45;&gt;Node1</title>
<path fill="none" stroke="midnightblue" d="M110.75,-107.3C106.64,-98.29 102.23,-88.61 98.08,-79.52"/>
<polygon fill="none" stroke="midnightblue" points="107.57,-108.75 114.9,-116.4 113.94,-105.85 107.57,-108.75"/>
</g>
</g>
</svg>
