<?xml version="1.0" encoding="UTF-8" standalone="no"?>
<!DOCTYPE svg PUBLIC "-//W3C//DTD SVG 1.1//EN"
 "http://www.w3.org/Graphics/SVG/1.1/DTD/svg11.dtd">
<!-- Generated by graphviz version 2.43.0 (0)
 -->
<!-- Title: cie::utils::AbsTree&lt; TSelf, TContainer, TStored, TArgs &gt; Pages: 1 -->
<svg width="189pt" height="336pt"
 viewBox="0.00 0.00 188.50 336.00" xmlns="http://www.w3.org/2000/svg" xmlns:xlink="http://www.w3.org/1999/xlink">

<svg id="main" version="1.1" xmlns="http://www.w3.org/2000/svg" xmlns:xlink="http://www.w3.org/1999/xlink" xml:space="preserve" onload="init(evt)">
<style type="text/css"><![CDATA[
.node, .edge {opacity: 0.7;}
.node.selected, .edge.selected {opacity: 1;}
.edge:hover path { stroke: red; }
.edge:hover polygon { stroke: red; fill: red; }
]]></style>
<script type="application/ecmascript" xlink:href="svg.min.js"/>
<svg id="graph" class="graph">
<g id="graph0" class="graph" transform="scale(1 1) rotate(0) translate(4 332)">
<title>cie::utils::AbsTree&lt; TSelf, TContainer, TStored, TArgs &gt;</title>
<!-- Node1 -->
<g id="Node000001" class="node">
<title>Node1</title>
<g id="a_Node000001"><a xlink:title=" ">
<polygon fill="#999999" stroke="transparent" points="158.5,-221 50.5,-221 50.5,0 158.5,0 158.5,-221"/>
<text text-anchor="start" x="55.5" y="-208.5" font-family="Helvetica,sans-Serif" font-size="10.00">cie::utils::AbsTree</text>
<text text-anchor="start" x="55.5" y="-197.5" font-family="Helvetica,sans-Serif" font-size="10.00">&lt; TSelf, TContainer,</text>
<text text-anchor="start" x="62" y="-186.5" font-family="Helvetica,sans-Serif" font-size="10.00"> TStored, TArgs &gt;</text>
<text text-anchor="start" x="102.5" y="-171.5" font-family="Helvetica,sans-Serif" font-size="10.00"> </text>
<text text-anchor="start" x="58.5" y="-156.5" font-family="Helvetica,sans-Serif" font-size="10.00">+</text>
<text text-anchor="start" x="75.5" y="-156.5" font-family="Helvetica,sans-Serif" font-size="10.00">AbsTree()</text>
<text text-anchor="start" x="58.5" y="-141.5" font-family="Helvetica,sans-Serif" font-size="10.00">+</text>
<text text-anchor="start" x="75.5" y="-141.5" font-family="Helvetica,sans-Serif" font-size="10.00">AbsTree()</text>
<text text-anchor="start" x="58.5" y="-126.5" font-family="Helvetica,sans-Serif" font-size="10.00">+</text>
<text text-anchor="start" x="75.5" y="-126.5" font-family="Helvetica,sans-Serif" font-size="10.00">AbsTree()</text>
<text text-anchor="start" x="58.5" y="-111.5" font-family="Helvetica,sans-Serif" font-size="10.00">+</text>
<text text-anchor="start" x="75.5" y="-111.5" font-family="Helvetica,sans-Serif" font-size="10.00">AbsTree()</text>
<text text-anchor="start" x="58.5" y="-96.5" font-family="Helvetica,sans-Serif" font-size="10.00">+</text>
<text text-anchor="start" x="75.5" y="-96.5" font-family="Helvetica,sans-Serif" font-size="10.00">operator=()</text>
<text text-anchor="start" x="58.5" y="-81.5" font-family="Helvetica,sans-Serif" font-size="10.00">+</text>
<text text-anchor="start" x="75.5" y="-81.5" font-family="Helvetica,sans-Serif" font-size="10.00">operator=()</text>
<text text-anchor="start" x="58.5" y="-66.5" font-family="Helvetica,sans-Serif" font-size="10.00">+</text>
<text text-anchor="start" x="75.5" y="-66.5" font-family="Helvetica,sans-Serif" font-size="10.00">~AbsTree()</text>
<text text-anchor="start" x="58.5" y="-51.5" font-family="Helvetica,sans-Serif" font-size="10.00">+</text>
<text text-anchor="start" x="75.5" y="-51.5" font-family="Helvetica,sans-Serif" font-size="10.00">visit()</text>
<text text-anchor="start" x="58.5" y="-36.5" font-family="Helvetica,sans-Serif" font-size="10.00">+</text>
<text text-anchor="start" x="75.5" y="-36.5" font-family="Helvetica,sans-Serif" font-size="10.00">visit()</text>
<text text-anchor="start" x="58.5" y="-21.5" font-family="Helvetica,sans-Serif" font-size="10.00">+</text>
<text text-anchor="start" x="75.5" y="-21.5" font-family="Helvetica,sans-Serif" font-size="10.00">visit()</text>
<text text-anchor="start" x="75.5" y="-6.5" font-family="Helvetica,sans-Serif" font-size="10.00">and 11 more...</text>
<polygon fill="#666666" stroke="#666666" points="50.5,-181.5 50.5,-181.5 158.5,-181.5 158.5,-181.5 50.5,-181.5"/>
<polygon fill="#666666" stroke="#666666" points="50.5,-166.5 50.5,-166.5 158.5,-166.5 158.5,-166.5 50.5,-166.5"/>
<polygon fill="none" stroke="#666666" points="50.5,0 50.5,-221 158.5,-221 158.5,0 50.5,0"/>
</a>
</g>
</g>
<!-- Node2 -->
<g id="Node000002" class="node">
<title>Node2</title>
<g id="a_Node000002"><a xlink:title=" ">
<polygon fill="white" stroke="transparent" points="115,-328 0,-328 0,-268 115,-268 115,-328"/>
<text text-anchor="start" x="5.5" y="-316" font-family="Helvetica,sans-Serif" font-size="10.00">TContainer&lt; TStored,</text>
<text text-anchor="start" x="32.5" y="-305" font-family="Helvetica,sans-Serif" font-size="10.00"> TArgs... &gt;</text>
<text text-anchor="start" x="56" y="-290" font-family="Helvetica,sans-Serif" font-size="10.00"> </text>
<text text-anchor="start" x="56" y="-275" font-family="Helvetica,sans-Serif" font-size="10.00"> </text>
<polygon fill="#666666" stroke="#666666" points="0.5,-300 0.5,-300 115.5,-300 115.5,-300 0.5,-300"/>
<polygon fill="#666666" stroke="#666666" points="0.5,-285 0.5,-285 115.5,-285 115.5,-285 0.5,-285"/>
<polygon fill="none" stroke="#666666" points="0,-268 0,-328 115,-328 115,-268 0,-268"/>
</a>
</g>
</g>
<!-- Node2&#45;&gt;Node1 -->
<g id="edge1_Node000001_Node000002" class="edge">
<title>Node2&#45;&gt;Node1</title>
<g id="a_edge1_Node000001_Node000002"><a xlink:title=" ">
<path fill="none" stroke="#63b8ff" d="M64.95,-267.61C67.48,-257.6 70.5,-245.7 73.72,-233"/>
<polygon fill="none" stroke="#63b8ff" points="73.77,-232.78 71.37,-225.98 76.72,-221.15 79.12,-227.95 73.77,-232.78"/>
</a>
</g>
<text text-anchor="middle" x="99.5" y="-242" font-family="Helvetica,sans-Serif" font-size="10.00" fill="grey"> #_children</text>
</g>
<!-- Node3 -->
<g id="Node000003" class="node">
<title>Node3</title>
<g id="a_Node000003"><a xlink:title=" ">
<polygon fill="white" stroke="transparent" points="172,-322.5 133,-322.5 133,-273.5 172,-273.5 172,-322.5"/>
<text text-anchor="start" x="138.5" y="-310" font-family="Helvetica,sans-Serif" font-size="10.00">size_t</text>
<text text-anchor="start" x="151" y="-295" font-family="Helvetica,sans-Serif" font-size="10.00"> </text>
<text text-anchor="start" x="151" y="-280" font-family="Helvetica,sans-Serif" font-size="10.00"> </text>
<polygon fill="#666666" stroke="#666666" points="133.5,-305 133.5,-305 172.5,-305 172.5,-305 133.5,-305"/>
<polygon fill="#666666" stroke="#666666" points="133.5,-290 133.5,-290 172.5,-290 172.5,-290 133.5,-290"/>
<polygon fill="none" stroke="#666666" points="133,-273.5 133,-322.5 172,-322.5 172,-273.5 133,-273.5"/>
</a>
</g>
</g>
<!-- Node3&#45;&gt;Node1 -->
<g id="edge2_Node000001_Node000003" class="edge">
<title>Node3&#45;&gt;Node1</title>
<g id="a_edge2_Node000001_Node000003"><a xlink:title=" ">
<path fill="none" stroke="#63b8ff" d="M146.32,-273.13C143.48,-262.13 139.87,-248.18 135.96,-233.1"/>
<polygon fill="none" stroke="#63b8ff" points="135.94,-232.99 130.56,-228.18 132.93,-221.37 138.31,-226.18 135.94,-232.99"/>
</a>
</g>
<text text-anchor="middle" x="160" y="-242" font-family="Helvetica,sans-Serif" font-size="10.00" fill="grey"> #_level</text>
</g>
</g>
</svg>
</svg>

<style type='text/css'>
<![CDATA[
[data-mouse-over-selected='false'] { opacity: 0.7; }
[data-mouse-over-selected='true']  { opacity: 1.0; }
]]>
</style>
<script type="application/ecmascript"><![CDATA[
document.addEventListener('DOMContentLoaded', (event) => {
  highlightEdges();
  highlightAdjacentNodes();
});
]]></script>
</svg>
