<?xml version="1.0" encoding="UTF-8" standalone="no"?>
<!DOCTYPE svg PUBLIC "-//W3C//DTD SVG 1.1//EN"
 "http://www.w3.org/Graphics/SVG/1.1/DTD/svg11.dtd">
<!-- Generated by graphviz version 2.43.0 (0)
 -->
<!-- Title: cie::utils::InternalStateIterator&lt; TContainer &gt; Pages: 1 -->
<svg width="226pt" height="458pt"
 viewBox="0.00 0.00 226.00 458.00" xmlns="http://www.w3.org/2000/svg" xmlns:xlink="http://www.w3.org/1999/xlink">
<g id="graph0" class="graph" transform="scale(1 1) rotate(0) translate(4 454)">
<title>cie::utils::InternalStateIterator&lt; TContainer &gt;</title>
<!-- Node1 -->
<g id="Node000001" class="node">
<title>Node1</title>
<g id="a_Node000001"><a xlink:title="Helper class for permutations.">
<polygon fill="#999999" stroke="transparent" points="143,-60 15,-60 15,0 143,0 143,-60"/>
<text text-anchor="start" x="23" y="-48" font-family="Helvetica,sans-Serif" font-size="10.00">cie::utils::InternalState</text>
<text text-anchor="start" x="23" y="-37" font-family="Helvetica,sans-Serif" font-size="10.00">Iterator&lt; TContainer &gt;</text>
<text text-anchor="start" x="19" y="-22" font-family="Helvetica,sans-Serif" font-size="10.00">#</text>
<text text-anchor="start" x="32" y="-22" font-family="Helvetica,sans-Serif" font-size="10.00">_dummyContainer</text>
<text text-anchor="start" x="19" y="-7" font-family="Helvetica,sans-Serif" font-size="10.00">+</text>
<text text-anchor="start" x="32" y="-7" font-family="Helvetica,sans-Serif" font-size="10.00">InternalStateIterator()</text>
<polygon fill="#666666" stroke="#666666" points="15,-32 15,-32 143,-32 143,-32 15,-32"/>
<polygon fill="#666666" stroke="#666666" points="15,-17 15,-17 30,-17 30,-17 15,-17"/>
<polygon fill="#666666" stroke="#666666" points="30,-17 30,-17 143,-17 143,-17 30,-17"/>
<polygon fill="none" stroke="#666666" points="15,0 15,-60 143,-60 143,0 15,0"/>
</a>
</g>
</g>
<!-- Node2 -->
<g id="Node000002" class="node">
<title>Node2</title>
<g id="a_Node000002"><a xlink:title=" ">
<polygon fill="white" stroke="transparent" points="158,-190 0,-190 0,-97 158,-97 158,-190"/>
<text text-anchor="start" x="5" y="-177.5" font-family="Helvetica,sans-Serif" font-size="10.00">cie::utils::StateIterator</text>
<text text-anchor="start" x="5" y="-166.5" font-family="Helvetica,sans-Serif" font-size="10.00">&lt; std::vector&lt; detail::</text>
<text text-anchor="start" x="5" y="-155.5" font-family="Helvetica,sans-Serif" font-size="10.00">container_reference_wrapper</text>
<text text-anchor="start" x="5" y="-144.5" font-family="Helvetica,sans-Serif" font-size="10.00">&lt; const TContainer &gt; &gt;::const</text>
<text text-anchor="start" x="52.5" y="-133.5" font-family="Helvetica,sans-Serif" font-size="10.00">_iterator &gt;</text>
<text text-anchor="start" x="77" y="-118.5" font-family="Helvetica,sans-Serif" font-size="10.00"> </text>
<text text-anchor="start" x="77" y="-103.5" font-family="Helvetica,sans-Serif" font-size="10.00"> </text>
<polygon fill="#666666" stroke="#666666" points="0,-128.5 0,-128.5 158,-128.5 158,-128.5 0,-128.5"/>
<polygon fill="#666666" stroke="#666666" points="0,-113.5 0,-113.5 158,-113.5 158,-113.5 0,-113.5"/>
<polygon fill="none" stroke="#666666" points="0,-97 0,-190 158,-190 158,-97 0,-97"/>
</a>
</g>
</g>
<!-- Node2&#45;&gt;Node1 -->
<g id="edge1_Node000001_Node000002" class="edge">
<title>Node2&#45;&gt;Node1</title>
<g id="a_edge1_Node000001_Node000002"><a xlink:title=" ">
<path fill="none" stroke="#63b8ff" d="M79,-86.56C79,-77.43 79,-68.3 79,-60.16"/>
<polygon fill="none" stroke="#63b8ff" points="75.5,-86.83 79,-96.83 82.5,-86.83 75.5,-86.83"/>
</a>
</g>
</g>
<!-- Node3 -->
<g id="Node000003" class="node">
<title>Node3</title>
<g id="a_Node000003"><a xlink:href="classcie_1_1utils_1_1StateIterator.html" target="_top" xlink:title=" ">
<polygon fill="white" stroke="transparent" points="138.5,-450 19.5,-450 19.5,-270 138.5,-270 138.5,-450"/>
<text text-anchor="start" x="25" y="-438" font-family="Helvetica,sans-Serif" font-size="10.00">cie::utils::StateIterator</text>
<text text-anchor="start" x="38.5" y="-427" font-family="Helvetica,sans-Serif" font-size="10.00">&lt; IteratorType &gt;</text>
<text text-anchor="start" x="31" y="-412" font-family="Helvetica,sans-Serif" font-size="10.00">#</text>
<text text-anchor="start" x="51" y="-412" font-family="Helvetica,sans-Serif" font-size="10.00">_begin</text>
<text text-anchor="start" x="31" y="-397" font-family="Helvetica,sans-Serif" font-size="10.00">#</text>
<text text-anchor="start" x="51" y="-397" font-family="Helvetica,sans-Serif" font-size="10.00">_end</text>
<text text-anchor="start" x="31" y="-382" font-family="Helvetica,sans-Serif" font-size="10.00">#</text>
<text text-anchor="start" x="51" y="-382" font-family="Helvetica,sans-Serif" font-size="10.00">_state</text>
<text text-anchor="start" x="31" y="-367" font-family="Helvetica,sans-Serif" font-size="10.00">+</text>
<text text-anchor="start" x="51" y="-367" font-family="Helvetica,sans-Serif" font-size="10.00">StateIterator()</text>
<text text-anchor="start" x="31" y="-352" font-family="Helvetica,sans-Serif" font-size="10.00">+</text>
<text text-anchor="start" x="51" y="-352" font-family="Helvetica,sans-Serif" font-size="10.00">operator=()</text>
<text text-anchor="start" x="31" y="-337" font-family="Helvetica,sans-Serif" font-size="10.00">+</text>
<text text-anchor="start" x="51" y="-337" font-family="Helvetica,sans-Serif" font-size="10.00">StateIterator()</text>
<text text-anchor="start" x="31" y="-322" font-family="Helvetica,sans-Serif" font-size="10.00">+</text>
<text text-anchor="start" x="51" y="-322" font-family="Helvetica,sans-Serif" font-size="10.00">reset()</text>
<text text-anchor="start" x="31" y="-307" font-family="Helvetica,sans-Serif" font-size="10.00">+</text>
<text text-anchor="start" x="51" y="-307" font-family="Helvetica,sans-Serif" font-size="10.00">operator++()</text>
<text text-anchor="start" x="31" y="-292" font-family="Helvetica,sans-Serif" font-size="10.00">+</text>
<text text-anchor="start" x="51" y="-292" font-family="Helvetica,sans-Serif" font-size="10.00">operator*()</text>
<text text-anchor="start" x="31" y="-277" font-family="Helvetica,sans-Serif" font-size="10.00">#</text>
<text text-anchor="start" x="51" y="-277" font-family="Helvetica,sans-Serif" font-size="10.00">StateIterator()</text>
<polygon fill="#666666" stroke="#666666" points="20,-422 20,-422 139,-422 139,-422 20,-422"/>
<polygon fill="#666666" stroke="#666666" points="20,-377 20,-377 49,-377 49,-377 20,-377"/>
<polygon fill="#666666" stroke="#666666" points="49,-377 49,-377 139,-377 139,-377 49,-377"/>
<polygon fill="none" stroke="#666666" points="19.5,-270 19.5,-450 138.5,-450 138.5,-270 19.5,-270"/>
</a>
</g>
</g>
<!-- Node3&#45;&gt;Node2 -->
<g id="edge2_Node000002_Node000003" class="edge">
<title>Node3&#45;&gt;Node2</title>
<g id="a_edge2_Node000002_Node000003"><a xlink:title=" ">
<path fill="none" stroke="orange" d="M79,-259.89C79,-235.56 79,-210.67 79,-190.26"/>
<polygon fill="orange" stroke="orange" points="75.5,-259.9 79,-269.9 82.5,-259.9 75.5,-259.9"/>
</a>
</g>
<text text-anchor="start" x="79" y="-244" font-family="Helvetica,sans-Serif" font-size="10.00" fill="grey"> &lt; std::vector&lt; detail</text>
<text text-anchor="start" x="79" y="-233" font-family="Helvetica,sans-Serif" font-size="10.00" fill="grey">::container_reference</text>
<text text-anchor="start" x="79" y="-222" font-family="Helvetica,sans-Serif" font-size="10.00" fill="grey">_wrapper&lt; const TContainer</text>
<text text-anchor="middle" x="148.5" y="-211" font-family="Helvetica,sans-Serif" font-size="10.00" fill="grey"> &gt; &gt;::const_iterator &gt;</text>
</g>
</g>
</svg>
