<?xml version="1.0" encoding="UTF-8" standalone="no"?>
<!DOCTYPE svg PUBLIC "-//W3C//DTD SVG 1.1//EN"
 "http://www.w3.org/Graphics/SVG/1.1/DTD/svg11.dtd">
<!-- Generated by graphviz version 2.43.0 (0)
 -->
<!-- Title: cie::utils::InternalStateIterator&lt; TContainer &gt; Pages: 1 -->
<svg width="372pt" height="568pt"
 viewBox="0.00 0.00 371.50 568.00" xmlns="http://www.w3.org/2000/svg" xmlns:xlink="http://www.w3.org/1999/xlink">
<g id="graph0" class="graph" transform="scale(1 1) rotate(0) translate(4 564)">
<title>cie::utils::InternalStateIterator&lt; TContainer &gt;</title>
<polygon fill="white" stroke="transparent" points="-4,4 -4,-564 367.5,-564 367.5,4 -4,4"/>
<!-- Node1 -->
<g id="node1" class="node">
<title>Node1</title>
<g id="a_node1"><a xlink:title=" ">
<polygon fill="#bfbfbf" stroke="black" points="133,-0.5 133,-68.5 267,-68.5 267,-0.5 133,-0.5"/>
<text text-anchor="start" x="141" y="-56.5" font-family="Helvetica,sans-Serif" font-size="10.00">cie::utils::InternalState</text>
<text text-anchor="middle" x="200" y="-45.5" font-family="Helvetica,sans-Serif" font-size="10.00">Iterator&lt; TContainer &gt;</text>
<polyline fill="none" stroke="black" points="133,-38.5 267,-38.5 "/>
<text text-anchor="middle" x="200" y="-26.5" font-family="Helvetica,sans-Serif" font-size="10.00"> </text>
<polyline fill="none" stroke="black" points="133,-19.5 267,-19.5 "/>
<text text-anchor="start" x="141" y="-7.5" font-family="Helvetica,sans-Serif" font-size="10.00">+ InternalStateIterator()</text>
</a>
</g>
</g>
<!-- Node2 -->
<g id="node2" class="node">
<title>Node2</title>
<g id="a_node2"><a xlink:title=" ">
<polygon fill="white" stroke="#bfbfbf" points="30,-116.5 30,-217.5 194,-217.5 194,-116.5 30,-116.5"/>
<text text-anchor="start" x="38" y="-205.5" font-family="Helvetica,sans-Serif" font-size="10.00">cie::utils::StateIterator</text>
<text text-anchor="start" x="38" y="-194.5" font-family="Helvetica,sans-Serif" font-size="10.00">&lt; std::vector&lt; detail::</text>
<text text-anchor="start" x="38" y="-183.5" font-family="Helvetica,sans-Serif" font-size="10.00">container_reference_wrapper</text>
<text text-anchor="start" x="38" y="-172.5" font-family="Helvetica,sans-Serif" font-size="10.00">&lt; const TContainer &gt; &gt;::const</text>
<text text-anchor="middle" x="112" y="-161.5" font-family="Helvetica,sans-Serif" font-size="10.00">_iterator &gt;</text>
<polyline fill="none" stroke="#bfbfbf" points="30,-154.5 194,-154.5 "/>
<text text-anchor="middle" x="112" y="-142.5" font-family="Helvetica,sans-Serif" font-size="10.00"> </text>
<polyline fill="none" stroke="#bfbfbf" points="30,-135.5 194,-135.5 "/>
<text text-anchor="middle" x="112" y="-123.5" font-family="Helvetica,sans-Serif" font-size="10.00"> </text>
</a>
</g>
</g>
<!-- Node2&#45;&gt;Node1 -->
<g id="edge1" class="edge">
<title>Node2&#45;&gt;Node1</title>
<path fill="none" stroke="midnightblue" d="M151.14,-107.95C160.26,-94.43 169.66,-80.5 177.74,-68.51"/>
<polygon fill="none" stroke="midnightblue" points="148.21,-106.04 145.52,-116.29 154.01,-109.96 148.21,-106.04"/>
</g>
<!-- Node3 -->
<g id="node3" class="node">
<title>Node3</title>
<g id="a_node3"><a xlink:href="classcie_1_1utils_1_1StateIterator.html" target="_top" xlink:title=" ">
<polygon fill="white" stroke="black" points="49.5,-298.5 49.5,-432.5 174.5,-432.5 174.5,-298.5 49.5,-298.5"/>
<text text-anchor="start" x="57.5" y="-420.5" font-family="Helvetica,sans-Serif" font-size="10.00">cie::utils::StateIterator</text>
<text text-anchor="middle" x="112" y="-409.5" font-family="Helvetica,sans-Serif" font-size="10.00">&lt; IteratorType &gt;</text>
<polyline fill="none" stroke="black" points="49.5,-402.5 174.5,-402.5 "/>
<text text-anchor="middle" x="112" y="-390.5" font-family="Helvetica,sans-Serif" font-size="10.00"> </text>
<polyline fill="none" stroke="black" points="49.5,-383.5 174.5,-383.5 "/>
<text text-anchor="start" x="57.5" y="-371.5" font-family="Helvetica,sans-Serif" font-size="10.00">+ StateIterator()</text>
<text text-anchor="start" x="57.5" y="-360.5" font-family="Helvetica,sans-Serif" font-size="10.00">+ operator=()</text>
<text text-anchor="start" x="57.5" y="-349.5" font-family="Helvetica,sans-Serif" font-size="10.00">+ StateIterator()</text>
<text text-anchor="start" x="57.5" y="-338.5" font-family="Helvetica,sans-Serif" font-size="10.00">+ reset()</text>
<text text-anchor="start" x="57.5" y="-327.5" font-family="Helvetica,sans-Serif" font-size="10.00">+ operator++()</text>
<text text-anchor="start" x="57.5" y="-316.5" font-family="Helvetica,sans-Serif" font-size="10.00">+ operator*()</text>
<text text-anchor="start" x="57.5" y="-305.5" font-family="Helvetica,sans-Serif" font-size="10.00"># StateIterator()</text>
</a>
</g>
</g>
<!-- Node3&#45;&gt;Node2 -->
<g id="edge2" class="edge">
<title>Node3&#45;&gt;Node2</title>
<path fill="none" stroke="orange" d="M112,-288.2C112,-264.46 112,-238.92 112,-217.51"/>
<polygon fill="orange" stroke="orange" points="108.5,-288.25 112,-298.25 115.5,-288.25 108.5,-288.25"/>
<text text-anchor="start" x="112" y="-272" font-family="Helvetica,sans-Serif" font-size="10.00"> &lt; std::vector&lt; detail</text>
<text text-anchor="start" x="112" y="-261" font-family="Helvetica,sans-Serif" font-size="10.00">::container_reference</text>
<text text-anchor="start" x="112" y="-250" font-family="Helvetica,sans-Serif" font-size="10.00">_wrapper&lt; const TContainer</text>
<text text-anchor="middle" x="181.5" y="-239" font-family="Helvetica,sans-Serif" font-size="10.00"> &gt; &gt;::const_iterator &gt;</text>
</g>
<!-- Node4 -->
<g id="node4" class="node">
<title>Node4</title>
<g id="a_node4"><a xlink:title=" ">
<polygon fill="white" stroke="#bfbfbf" points="0,-491.5 0,-559.5 112,-559.5 112,-491.5 0,-491.5"/>
<text text-anchor="start" x="8" y="-547.5" font-family="Helvetica,sans-Serif" font-size="10.00">vector&lt; subiterator</text>
<text text-anchor="middle" x="56" y="-536.5" font-family="Helvetica,sans-Serif" font-size="10.00">_type &gt;</text>
<polyline fill="none" stroke="#bfbfbf" points="0,-529.5 112,-529.5 "/>
<text text-anchor="middle" x="56" y="-517.5" font-family="Helvetica,sans-Serif" font-size="10.00"> </text>
<polyline fill="none" stroke="#bfbfbf" points="0,-510.5 112,-510.5 "/>
<text text-anchor="middle" x="56" y="-498.5" font-family="Helvetica,sans-Serif" font-size="10.00"> </text>
</a>
</g>
</g>
<!-- Node4&#45;&gt;Node3 -->
<g id="edge3" class="edge">
<title>Node4&#45;&gt;Node3</title>
<path fill="none" stroke="#404040" d="M67.74,-491.38C72.64,-477.56 78.55,-460.87 84.44,-444.25"/>
<polygon fill="none" stroke="#404040" points="84.49,-444.11 82.73,-437.11 88.5,-432.79 90.27,-439.79 84.49,-444.11"/>
<text text-anchor="middle" x="102" y="-459.5" font-family="Helvetica,sans-Serif" font-size="10.00"> #_state</text>
</g>
<!-- Node5 -->
<g id="node5" class="node">
<title>Node5</title>
<g id="a_node5"><a xlink:title=" ">
<polygon fill="white" stroke="#bfbfbf" points="130.5,-497 130.5,-554 205.5,-554 205.5,-497 130.5,-497"/>
<text text-anchor="middle" x="168" y="-542" font-family="Helvetica,sans-Serif" font-size="10.00">IteratorType</text>
<polyline fill="none" stroke="#bfbfbf" points="130.5,-535 205.5,-535 "/>
<text text-anchor="middle" x="168" y="-523" font-family="Helvetica,sans-Serif" font-size="10.00"> </text>
<polyline fill="none" stroke="#bfbfbf" points="130.5,-516 205.5,-516 "/>
<text text-anchor="middle" x="168" y="-504" font-family="Helvetica,sans-Serif" font-size="10.00"> </text>
</a>
</g>
</g>
<!-- Node5&#45;&gt;Node3 -->
<g id="edge4" class="edge">
<title>Node5&#45;&gt;Node3</title>
<path fill="none" stroke="#404040" d="M158.25,-496.98C153,-482.19 146.25,-463.14 139.54,-444.2"/>
<polygon fill="none" stroke="#404040" points="139.5,-444.08 133.72,-439.76 135.49,-432.77 141.26,-437.09 139.5,-444.08"/>
<text text-anchor="middle" x="171" y="-465" font-family="Helvetica,sans-Serif" font-size="10.00"> #_begin</text>
<text text-anchor="middle" x="171" y="-454" font-family="Helvetica,sans-Serif" font-size="10.00">#_end</text>
</g>
<!-- Node6 -->
<g id="node6" class="node">
<title>Node6</title>
<g id="a_node6"><a xlink:title=" ">
<polygon fill="white" stroke="#bfbfbf" points="212.5,-127.5 212.5,-206.5 363.5,-206.5 363.5,-127.5 212.5,-127.5"/>
<text text-anchor="start" x="220.5" y="-194.5" font-family="Helvetica,sans-Serif" font-size="10.00">vector&lt; detail::container</text>
<text text-anchor="start" x="220.5" y="-183.5" font-family="Helvetica,sans-Serif" font-size="10.00">_reference_wrapper&lt; const</text>
<text text-anchor="middle" x="288" y="-172.5" font-family="Helvetica,sans-Serif" font-size="10.00"> TContainer &gt; &gt;</text>
<polyline fill="none" stroke="#bfbfbf" points="212.5,-165.5 363.5,-165.5 "/>
<text text-anchor="middle" x="288" y="-153.5" font-family="Helvetica,sans-Serif" font-size="10.00"> </text>
<polyline fill="none" stroke="#bfbfbf" points="212.5,-146.5 363.5,-146.5 "/>
<text text-anchor="middle" x="288" y="-134.5" font-family="Helvetica,sans-Serif" font-size="10.00"> </text>
</a>
</g>
</g>
<!-- Node6&#45;&gt;Node1 -->
<g id="edge5" class="edge">
<title>Node6&#45;&gt;Node1</title>
<path fill="none" stroke="#404040" d="M261.84,-127.2C251.53,-111.91 239.65,-94.3 229.08,-78.62"/>
<polygon fill="none" stroke="#404040" points="229.05,-78.59 222.38,-75.85 222.34,-68.64 229.02,-71.37 229.05,-78.59"/>
<text text-anchor="middle" x="293" y="-90" font-family="Helvetica,sans-Serif" font-size="10.00"> #_dummyContainer</text>
</g>
</g>
</svg>
