<?xml version="1.0" encoding="UTF-8" standalone="no"?>
<!DOCTYPE svg PUBLIC "-//W3C//DTD SVG 1.1//EN"
 "http://www.w3.org/Graphics/SVG/1.1/DTD/svg11.dtd">
<!-- Generated by graphviz version 2.43.0 (0)
 -->
<!-- Title: cie::OutputStream Pages: 1 -->
<!--zoomable 667 -->

<svg id="main" version="1.1" xmlns="http://www.w3.org/2000/svg" xmlns:xlink="http://www.w3.org/1999/xlink" xml:space="preserve" onload="init(evt)">
<style type="text/css"><![CDATA[
.node, .edge {opacity: 0.7;}
.node.selected, .edge.selected {opacity: 1;}
.edge:hover path { stroke: red; }
.edge:hover polygon { stroke: red; fill: red; }
]]></style>

<defs>
  <circle id="rim" cx="0" cy="0" r="7"/>
  <circle id="rim2" cx="0" cy="0" r="3.5"/>
  <g id="zoomPlus">
    <use xlink:href="#rim" fill="#404040"><set attributeName="fill" to="#808080" begin="zoomplus.mouseover" end="zoomplus.mouseout"/></use>
    <path d="M-4,0h8M0,-4v8" fill="none" stroke="white" stroke-width="1.5" pointer-events="none"/>
  </g>
  <g id="zoomMin">
    <use xlink:href="#rim" fill="#404040"><set attributeName="fill" to="#808080" begin="zoomminus.mouseover" end="zoomminus.mouseout"/></use>
    <path d="M-4,0h8" fill="none" stroke="white" stroke-width="1.5" pointer-events="none"/>
  </g>
  <g id="arrowUp" transform="translate(30 24)">
    <use xlink:href="#rim"/>
    <path pointer-events="none" fill="none" stroke="white" stroke-width="1.5" d="M0,-3.0v7 M-2.5,-0.5L0,-3.0L2.5,-0.5"/>
  </g>
  <g id="arrowRight" transform="rotate(90) translate(36 -43)">
    <use xlink:href="#rim"/>
    <path pointer-events="none" fill="none" stroke="white" stroke-width="1.5" d="M0,-3.0v7 M-2.5,-0.5L0,-3.0L2.5,-0.5"/>
  </g>
  <g id="arrowDown" transform="rotate(180) translate(-30 -48)">
    <use xlink:href="#rim"/>
    <path pointer-events="none" fill="none" stroke="white" stroke-width="1.5" d="M0,-3.0v7 M-2.5,-0.5L0,-3.0L2.5,-0.5"/>
  </g>
  <g id="arrowLeft" transform="rotate(270) translate(-36 17)">
    <use xlink:href="#rim"/>
    <path pointer-events="none" fill="none" stroke="white" stroke-width="1.5" d="M0,-3.0v7 M-2.5,-0.5L0,-3.0L2.5,-0.5"/>
  </g>
  <g id="resetDef">
    <use xlink:href="#rim2" fill="#404040"><set attributeName="fill" to="#808080" begin="reset.mouseover" end="reset.mouseout"/></use>
  </g>
</defs>
<script type="application/ecmascript">
var viewWidth = 426;
var viewHeight = 667;
var sectionId = 'dynsection-0';
</script>
<script type="application/ecmascript" xlink:href="svg.min.js"/>
<svg id="graph" class="graph">
<g id="viewport">
<title>cie::OutputStream</title>
<!-- Node1 -->
<g id="Node000001" class="node">
<title>Node1</title>
<g id="a_Node000001"><a xlink:title=" ">
<polygon fill="#999999" stroke="transparent" points="275,-659 119,-659 119,-370 275,-370 275,-659"/>
<text text-anchor="start" x="152.5" y="-646.5" font-family="Helvetica,sans-Serif" font-size="10.00">cie::OutputStream</text>
<text text-anchor="start" x="123" y="-631.5" font-family="Helvetica,sans-Serif" font-size="10.00">+</text>
<text text-anchor="start" x="136" y="-631.5" font-family="Helvetica,sans-Serif" font-size="10.00">cout</text>
<text text-anchor="start" x="123" y="-616.5" font-family="Helvetica,sans-Serif" font-size="10.00">+</text>
<text text-anchor="start" x="136" y="-616.5" font-family="Helvetica,sans-Serif" font-size="10.00">cerr</text>
<text text-anchor="start" x="123" y="-601.5" font-family="Helvetica,sans-Serif" font-size="10.00">+</text>
<text text-anchor="start" x="136" y="-601.5" font-family="Helvetica,sans-Serif" font-size="10.00">OutputStream()</text>
<text text-anchor="start" x="123" y="-586.5" font-family="Helvetica,sans-Serif" font-size="10.00">+</text>
<text text-anchor="start" x="136" y="-586.5" font-family="Helvetica,sans-Serif" font-size="10.00">OutputStream()</text>
<text text-anchor="start" x="123" y="-571.5" font-family="Helvetica,sans-Serif" font-size="10.00">+</text>
<text text-anchor="start" x="136" y="-571.5" font-family="Helvetica,sans-Serif" font-size="10.00">OutputStream()</text>
<text text-anchor="start" x="123" y="-556.5" font-family="Helvetica,sans-Serif" font-size="10.00">+</text>
<text text-anchor="start" x="136" y="-556.5" font-family="Helvetica,sans-Serif" font-size="10.00">OutputStream()</text>
<text text-anchor="start" x="123" y="-541.5" font-family="Helvetica,sans-Serif" font-size="10.00">+</text>
<text text-anchor="start" x="136" y="-541.5" font-family="Helvetica,sans-Serif" font-size="10.00">OutputStream()</text>
<text text-anchor="start" x="123" y="-526.5" font-family="Helvetica,sans-Serif" font-size="10.00">+</text>
<text text-anchor="start" x="136" y="-526.5" font-family="Helvetica,sans-Serif" font-size="10.00">operator=()</text>
<text text-anchor="start" x="123" y="-511.5" font-family="Helvetica,sans-Serif" font-size="10.00">+</text>
<text text-anchor="start" x="136" y="-511.5" font-family="Helvetica,sans-Serif" font-size="10.00">operator=()</text>
<text text-anchor="start" x="123" y="-496.5" font-family="Helvetica,sans-Serif" font-size="10.00">+</text>
<text text-anchor="start" x="136" y="-496.5" font-family="Helvetica,sans-Serif" font-size="10.00">~OutputStream()</text>
<text text-anchor="start" x="123" y="-481.5" font-family="Helvetica,sans-Serif" font-size="10.00">+</text>
<text text-anchor="start" x="136" y="-481.5" font-family="Helvetica,sans-Serif" font-size="10.00">write()</text>
<text text-anchor="start" x="123" y="-466.5" font-family="Helvetica,sans-Serif" font-size="10.00">+</text>
<text text-anchor="start" x="136" y="-466.5" font-family="Helvetica,sans-Serif" font-size="10.00">flush()</text>
<text text-anchor="start" x="123" y="-451.5" font-family="Helvetica,sans-Serif" font-size="10.00">+</text>
<text text-anchor="start" x="136" y="-451.5" font-family="Helvetica,sans-Serif" font-size="10.00">rdbuf()</text>
<text text-anchor="start" x="123" y="-436.5" font-family="Helvetica,sans-Serif" font-size="10.00">+</text>
<text text-anchor="start" x="136" y="-436.5" font-family="Helvetica,sans-Serif" font-size="10.00">rdbuf()</text>
<text text-anchor="start" x="123" y="-421.5" font-family="Helvetica,sans-Serif" font-size="10.00">#</text>
<text text-anchor="start" x="136" y="-421.5" font-family="Helvetica,sans-Serif" font-size="10.00">streamInsertOperation()</text>
<text text-anchor="start" x="123" y="-406.5" font-family="Helvetica,sans-Serif" font-size="10.00">#</text>
<text text-anchor="start" x="136" y="-406.5" font-family="Helvetica,sans-Serif" font-size="10.00">streamInsertOperation()</text>
<text text-anchor="start" x="123" y="-391.5" font-family="Helvetica,sans-Serif" font-size="10.00">#</text>
<text text-anchor="start" x="136" y="-391.5" font-family="Helvetica,sans-Serif" font-size="10.00">streamInsertOperation()</text>
<text text-anchor="start" x="123" y="-376.5" font-family="Helvetica,sans-Serif" font-size="10.00">#</text>
<text text-anchor="start" x="136" y="-376.5" font-family="Helvetica,sans-Serif" font-size="10.00">forwardToWrappedStream()</text>
<polygon fill="#666666" stroke="#666666" points="119,-641.5 119,-641.5 275,-641.5 275,-641.5 119,-641.5"/>
<polygon fill="#666666" stroke="#666666" points="119,-611.5 119,-611.5 134,-611.5 134,-611.5 119,-611.5"/>
<polygon fill="#666666" stroke="#666666" points="134,-611.5 134,-611.5 275,-611.5 275,-611.5 134,-611.5"/>
<polygon fill="none" stroke="#666666" points="119,-370 119,-659 275,-659 275,-370 119,-370"/>
</a>
</g>
</g>
<!-- Node2 -->
<g id="Node000002" class="node">
<title>Node2</title>
<g id="a_Node000002"><a xlink:href="classcie_1_1FileOutputStream.html" target="_top" xlink:title=" ">
<polygon fill="white" stroke="transparent" points="116,-221.5 0,-221.5 0,-112.5 116,-112.5 116,-221.5"/>
<text text-anchor="start" x="5" y="-209" font-family="Helvetica,sans-Serif" font-size="10.00">cie::FileOutputStream</text>
<text text-anchor="start" x="56" y="-194" font-family="Helvetica,sans-Serif" font-size="10.00"> </text>
<text text-anchor="start" x="4" y="-179" font-family="Helvetica,sans-Serif" font-size="10.00">+</text>
<text text-anchor="start" x="17" y="-179" font-family="Helvetica,sans-Serif" font-size="10.00">FileOutputStream()</text>
<text text-anchor="start" x="4" y="-164" font-family="Helvetica,sans-Serif" font-size="10.00">+</text>
<text text-anchor="start" x="17" y="-164" font-family="Helvetica,sans-Serif" font-size="10.00">FileOutputStream()</text>
<text text-anchor="start" x="4" y="-149" font-family="Helvetica,sans-Serif" font-size="10.00">+</text>
<text text-anchor="start" x="17" y="-149" font-family="Helvetica,sans-Serif" font-size="10.00">FileOutputStream()</text>
<text text-anchor="start" x="4" y="-134" font-family="Helvetica,sans-Serif" font-size="10.00">+</text>
<text text-anchor="start" x="17" y="-134" font-family="Helvetica,sans-Serif" font-size="10.00">operator=()</text>
<text text-anchor="start" x="4" y="-119" font-family="Helvetica,sans-Serif" font-size="10.00">+</text>
<text text-anchor="start" x="17" y="-119" font-family="Helvetica,sans-Serif" font-size="10.00">operator=()</text>
<polygon fill="#666666" stroke="#666666" points="0,-204 0,-204 116,-204 116,-204 0,-204"/>
<polygon fill="#666666" stroke="#666666" points="0,-189 0,-189 116,-189 116,-189 0,-189"/>
<polygon fill="none" stroke="#666666" points="0,-112.5 0,-221.5 116,-221.5 116,-112.5 0,-112.5"/>
</a>
</g>
</g>
<!-- Node1&#45;&gt;Node2 -->
<g id="edge1_Node000001_Node000002" class="edge">
<title>Node1&#45;&gt;Node2</title>
<g id="a_edge1_Node000001_Node000002"><a xlink:title=" ">
<path fill="none" stroke="#63b8ff" d="M135.41,-360.41C115.44,-310.77 94.58,-258.93 79.56,-221.58"/>
<polygon fill="none" stroke="#63b8ff" points="132.28,-362.01 139.26,-369.98 138.77,-359.39 132.28,-362.01"/>
</a>
</g>
</g>
<!-- Node3 -->
<g id="Node000003" class="node">
<title>Node3</title>
<g id="a_Node000003"><a xlink:href="classcie_1_1StreamInterceptor.html" target="_top" xlink:title=" ">
<polygon fill="white" stroke="transparent" points="260,-259 134,-259 134,-75 260,-75 260,-259"/>
<text text-anchor="start" x="142.5" y="-247" font-family="Helvetica,sans-Serif" font-size="10.00">cie::StreamInterceptor</text>
<text text-anchor="start" x="195" y="-232" font-family="Helvetica,sans-Serif" font-size="10.00"> </text>
<text text-anchor="start" x="138" y="-217" font-family="Helvetica,sans-Serif" font-size="10.00">+</text>
<text text-anchor="start" x="151" y="-217" font-family="Helvetica,sans-Serif" font-size="10.00">StreamInterceptor()</text>
<text text-anchor="start" x="138" y="-202" font-family="Helvetica,sans-Serif" font-size="10.00">+</text>
<text text-anchor="start" x="151" y="-202" font-family="Helvetica,sans-Serif" font-size="10.00">StreamInterceptor()</text>
<text text-anchor="start" x="138" y="-187" font-family="Helvetica,sans-Serif" font-size="10.00">+</text>
<text text-anchor="start" x="151" y="-187" font-family="Helvetica,sans-Serif" font-size="10.00">StreamInterceptor()</text>
<text text-anchor="start" x="138" y="-172" font-family="Helvetica,sans-Serif" font-size="10.00">+</text>
<text text-anchor="start" x="151" y="-172" font-family="Helvetica,sans-Serif" font-size="10.00">StreamInterceptor()</text>
<text text-anchor="start" x="138" y="-157" font-family="Helvetica,sans-Serif" font-size="10.00">+</text>
<text text-anchor="start" x="151" y="-157" font-family="Helvetica,sans-Serif" font-size="10.00">operator=()</text>
<text text-anchor="start" x="138" y="-142" font-family="Helvetica,sans-Serif" font-size="10.00">+</text>
<text text-anchor="start" x="151" y="-142" font-family="Helvetica,sans-Serif" font-size="10.00">operator=()</text>
<text text-anchor="start" x="138" y="-127" font-family="Helvetica,sans-Serif" font-size="10.00">+</text>
<text text-anchor="start" x="151" y="-127" font-family="Helvetica,sans-Serif" font-size="10.00">~StreamInterceptor()</text>
<text text-anchor="start" x="138" y="-112" font-family="Helvetica,sans-Serif" font-size="10.00">#</text>
<text text-anchor="start" x="151" y="-112" font-family="Helvetica,sans-Serif" font-size="10.00">overflow()</text>
<text text-anchor="start" x="138" y="-97" font-family="Helvetica,sans-Serif" font-size="10.00">#</text>
<text text-anchor="start" x="151" y="-97" font-family="Helvetica,sans-Serif" font-size="10.00">xsputn()</text>
<text text-anchor="start" x="138" y="-82" font-family="Helvetica,sans-Serif" font-size="10.00">#</text>
<text text-anchor="start" x="151" y="-82" font-family="Helvetica,sans-Serif" font-size="10.00">sync()</text>
<polygon fill="#666666" stroke="#666666" points="134,-242 134,-242 260,-242 260,-242 134,-242"/>
<polygon fill="#666666" stroke="#666666" points="134,-227 134,-227 260,-227 260,-227 134,-227"/>
<polygon fill="none" stroke="#666666" points="134,-75 134,-259 260,-259 260,-75 134,-75"/>
</a>
</g>
</g>
<!-- Node1&#45;&gt;Node3 -->
<g id="edge2_Node000001_Node000003" class="edge">
<title>Node1&#45;&gt;Node3</title>
<g id="a_edge2_Node000001_Node000003"><a xlink:title=" ">
<path fill="none" stroke="#63b8ff" d="M197,-359.82C197,-325.39 197,-289.94 197,-259.03"/>
<polygon fill="none" stroke="#63b8ff" points="193.5,-359.98 197,-369.98 200.5,-359.98 193.5,-359.98"/>
</a>
</g>
</g>
<!-- Node4 -->
<g id="Node000004" class="node">
<title>Node4</title>
<g id="a_Node000004"><a xlink:href="classcie_1_1utils_1_1Logger.html" target="_top" xlink:title=" ">
<polygon fill="white" stroke="transparent" points="417.5,-334 278.5,-334 278.5,0 417.5,0 417.5,-334"/>
<text text-anchor="start" x="308" y="-322" font-family="Helvetica,sans-Serif" font-size="10.00">cie::utils::Logger</text>
<text text-anchor="start" x="283" y="-307" font-family="Helvetica,sans-Serif" font-size="10.00">#</text>
<text text-anchor="start" x="296" y="-307" font-family="Helvetica,sans-Serif" font-size="10.00">_streams</text>
<text text-anchor="start" x="283" y="-292" font-family="Helvetica,sans-Serif" font-size="10.00">#</text>
<text text-anchor="start" x="296" y="-292" font-family="Helvetica,sans-Serif" font-size="10.00">_timeLog</text>
<text text-anchor="start" x="283" y="-277" font-family="Helvetica,sans-Serif" font-size="10.00">#</text>
<text text-anchor="start" x="296" y="-277" font-family="Helvetica,sans-Serif" font-size="10.00">_prefix</text>
<text text-anchor="start" x="283" y="-262" font-family="Helvetica,sans-Serif" font-size="10.00">#</text>
<text text-anchor="start" x="296" y="-262" font-family="Helvetica,sans-Serif" font-size="10.00">_lineEnd</text>
<text text-anchor="start" x="283" y="-247" font-family="Helvetica,sans-Serif" font-size="10.00">#</text>
<text text-anchor="start" x="296" y="-247" font-family="Helvetica,sans-Serif" font-size="10.00">_forceFlush</text>
<text text-anchor="start" x="283" y="-232" font-family="Helvetica,sans-Serif" font-size="10.00">+</text>
<text text-anchor="start" x="296" y="-232" font-family="Helvetica,sans-Serif" font-size="10.00">Logger()</text>
<text text-anchor="start" x="283" y="-217" font-family="Helvetica,sans-Serif" font-size="10.00">+</text>
<text text-anchor="start" x="296" y="-217" font-family="Helvetica,sans-Serif" font-size="10.00">Logger()</text>
<text text-anchor="start" x="283" y="-202" font-family="Helvetica,sans-Serif" font-size="10.00">+</text>
<text text-anchor="start" x="296" y="-202" font-family="Helvetica,sans-Serif" font-size="10.00">Logger()</text>
<text text-anchor="start" x="283" y="-187" font-family="Helvetica,sans-Serif" font-size="10.00">+</text>
<text text-anchor="start" x="296" y="-187" font-family="Helvetica,sans-Serif" font-size="10.00">~Logger()</text>
<text text-anchor="start" x="283" y="-172" font-family="Helvetica,sans-Serif" font-size="10.00">+</text>
<text text-anchor="start" x="296" y="-172" font-family="Helvetica,sans-Serif" font-size="10.00">write()</text>
<text text-anchor="start" x="283" y="-157" font-family="Helvetica,sans-Serif" font-size="10.00">+</text>
<text text-anchor="start" x="296" y="-157" font-family="Helvetica,sans-Serif" font-size="10.00">newBlock()</text>
<text text-anchor="start" x="283" y="-142" font-family="Helvetica,sans-Serif" font-size="10.00">+</text>
<text text-anchor="start" x="296" y="-142" font-family="Helvetica,sans-Serif" font-size="10.00">addStream()</text>
<text text-anchor="start" x="283" y="-127" font-family="Helvetica,sans-Serif" font-size="10.00">+</text>
<text text-anchor="start" x="296" y="-127" font-family="Helvetica,sans-Serif" font-size="10.00">removeStream()</text>
<text text-anchor="start" x="283" y="-112" font-family="Helvetica,sans-Serif" font-size="10.00">+</text>
<text text-anchor="start" x="296" y="-112" font-family="Helvetica,sans-Serif" font-size="10.00">forceFlush()</text>
<text text-anchor="start" x="283" y="-97" font-family="Helvetica,sans-Serif" font-size="10.00">+</text>
<text text-anchor="start" x="296" y="-97" font-family="Helvetica,sans-Serif" font-size="10.00">log()</text>
<text text-anchor="start" x="296" y="-82" font-family="Helvetica,sans-Serif" font-size="10.00">and 11 more...</text>
<text text-anchor="start" x="283" y="-67" font-family="Helvetica,sans-Serif" font-size="10.00">#</text>
<text text-anchor="start" x="296" y="-67" font-family="Helvetica,sans-Serif" font-size="10.00">streamInsertOperation()</text>
<text text-anchor="start" x="283" y="-52" font-family="Helvetica,sans-Serif" font-size="10.00">#</text>
<text text-anchor="start" x="296" y="-52" font-family="Helvetica,sans-Serif" font-size="10.00">flush()</text>
<text text-anchor="start" x="283" y="-37" font-family="Helvetica,sans-Serif" font-size="10.00">#</text>
<text text-anchor="start" x="296" y="-37" font-family="Helvetica,sans-Serif" font-size="10.00">preWrite()</text>
<text text-anchor="start" x="283" y="-22" font-family="Helvetica,sans-Serif" font-size="10.00">#</text>
<text text-anchor="start" x="296" y="-22" font-family="Helvetica,sans-Serif" font-size="10.00">postWrite()</text>
<text text-anchor="start" x="283" y="-7" font-family="Helvetica,sans-Serif" font-size="10.00">#</text>
<text text-anchor="start" x="296" y="-7" font-family="Helvetica,sans-Serif" font-size="10.00">directWriteToAll()</text>
<polygon fill="#666666" stroke="#666666" points="279,-317 279,-317 418,-317 418,-317 279,-317"/>
<polygon fill="#666666" stroke="#666666" points="279,-242 279,-242 294,-242 294,-242 279,-242"/>
<polygon fill="#666666" stroke="#666666" points="294,-242 294,-242 418,-242 418,-242 294,-242"/>
<polygon fill="none" stroke="#666666" points="278.5,0 278.5,-334 417.5,-334 417.5,0 278.5,0"/>
</a>
</g>
</g>
<!-- Node1&#45;&gt;Node4 -->
<g id="edge3_Node000001_Node000004" class="edge">
<title>Node1&#45;&gt;Node4</title>
<g id="a_edge3_Node000001_Node000004"><a xlink:title=" ">
<path fill="none" stroke="#63b8ff" d="M263.78,-360.7C268.63,-349.61 273.52,-338.42 278.38,-327.3"/>
<polygon fill="none" stroke="#63b8ff" points="260.52,-359.41 259.73,-369.98 266.94,-362.22 260.52,-359.41"/>
</a>
</g>
</g>
</g>
</svg>

<g id="navigator" transform="translate(0 0)" fill="#404254">
  <rect fill="#f2f5e9" fill-opacity="0.5" stroke="#606060" stroke-width=".5" x="0" y="0" width="60" height="60"/>
  <use id="zoomplus" xlink:href="#zoomPlus" x="17" y="9" onmousedown="handleZoom(evt,'in')"/>
  <use id="zoomminus" xlink:href="#zoomMin" x="42" y="9" onmousedown="handleZoom(evt,'out')"/>
  <use id="reset" xlink:href="#resetDef" x="30" y="36" onmousedown="handleReset()"/>
   <use id="arrowup" xlink:href="#arrowUp" x="0" y="0" onmousedown="handlePan(0,-1)"/>
  <use id="arrowright" xlink:href="#arrowRight" x="0" y="0" onmousedown="handlePan(1,0)"/>
  <use id="arrowdown" xlink:href="#arrowDown" x="0" y="0" onmousedown="handlePan(0,1)"/>
  <use id="arrowleft" xlink:href="#arrowLeft" x="0" y="0" onmousedown="handlePan(-1,0)"/>
</g>
<svg viewBox="0 0 15 15" width="100%" height="30px" preserveAspectRatio="xMaxYMin meet">
 <g id="arrow_out" transform="scale(0.3 0.3)">
  <a xlink:href="classcie_1_1OutputStream__inherit__graph_org.svg" target="_base">
   <rect id="button" ry="5" rx="5" y="6" x="6" height="38" width="38"
        fill="#f2f5e9" fill-opacity="0.5" stroke="#606060" stroke-width="1.0"/>
   <path id="arrow"
     d="M 11.500037,31.436501 C 11.940474,20.09759 22.043105,11.32322 32.158766,21.979434 L 37.068811,17.246167 C 37.068811,17.246167 37.088388,32 37.088388,32 L 22.160133,31.978069 C 22.160133,31.978069 26.997745,27.140456 26.997745,27.140456 C 18.528582,18.264221 13.291696,25.230495 11.500037,31.436501 z"
     style="fill:#404040;"/>
  </a>
 </g>
</svg>

<style type='text/css'>
<![CDATA[
[data-mouse-over-selected='false'] { opacity: 0.7; }
[data-mouse-over-selected='true']  { opacity: 1.0; }
]]>
</style>
<script type="application/ecmascript"><![CDATA[
document.addEventListener('DOMContentLoaded', (event) => {
  highlightEdges();
  highlightAdjacentNodes();
});
]]></script>
</svg>
