<?xml version="1.0" encoding="UTF-8" standalone="no"?>
<!DOCTYPE svg PUBLIC "-//W3C//DTD SVG 1.1//EN"
 "http://www.w3.org/Graphics/SVG/1.1/DTD/svg11.dtd">
<!-- Generated by graphviz version 2.43.0 (0)
 -->
<!-- Title: cie::utils::ArgParse Pages: 1 -->
<svg width="306pt" height="457pt"
 viewBox="0.00 0.00 305.50 457.00" xmlns="http://www.w3.org/2000/svg" xmlns:xlink="http://www.w3.org/1999/xlink">
<g id="graph0" class="graph" transform="scale(1 1) rotate(0) translate(4 453)">
<title>cie::utils::ArgParse</title>
<polygon fill="white" stroke="transparent" points="-4,4 -4,-453 301.5,-453 301.5,4 -4,4"/>
<!-- Node1 -->
<g id="node1" class="node">
<title>Node1</title>
<g id="a_node1"><a xlink:title=" ">
<polygon fill="#bfbfbf" stroke="black" points="78.5,-0.5 78.5,-211.5 194.5,-211.5 194.5,-0.5 78.5,-0.5"/>
<text text-anchor="middle" x="136.5" y="-199.5" font-family="Helvetica,sans-Serif" font-size="10.00">cie::utils::ArgParse</text>
<polyline fill="none" stroke="black" points="78.5,-192.5 194.5,-192.5 "/>
<text text-anchor="middle" x="136.5" y="-180.5" font-family="Helvetica,sans-Serif" font-size="10.00"> </text>
<polyline fill="none" stroke="black" points="78.5,-173.5 194.5,-173.5 "/>
<text text-anchor="start" x="86.5" y="-161.5" font-family="Helvetica,sans-Serif" font-size="10.00">+ ArgParse()</text>
<text text-anchor="start" x="86.5" y="-150.5" font-family="Helvetica,sans-Serif" font-size="10.00">+ ArgParse()</text>
<text text-anchor="start" x="86.5" y="-139.5" font-family="Helvetica,sans-Serif" font-size="10.00">+ ArgParse()</text>
<text text-anchor="start" x="86.5" y="-128.5" font-family="Helvetica,sans-Serif" font-size="10.00">+ ArgParse()</text>
<text text-anchor="start" x="86.5" y="-117.5" font-family="Helvetica,sans-Serif" font-size="10.00">+ operator=()</text>
<text text-anchor="start" x="86.5" y="-106.5" font-family="Helvetica,sans-Serif" font-size="10.00">+ ~ArgParse()</text>
<text text-anchor="start" x="86.5" y="-95.5" font-family="Helvetica,sans-Serif" font-size="10.00">+ has()</text>
<text text-anchor="start" x="86.5" y="-84.5" font-family="Helvetica,sans-Serif" font-size="10.00">+ addPositional()</text>
<text text-anchor="start" x="86.5" y="-73.5" font-family="Helvetica,sans-Serif" font-size="10.00">+ addKeyword()</text>
<text text-anchor="start" x="86.5" y="-62.5" font-family="Helvetica,sans-Serif" font-size="10.00">+ addFlag()</text>
<text text-anchor="start" x="86.5" y="-51.5" font-family="Helvetica,sans-Serif" font-size="10.00">+ addArgument()</text>
<text text-anchor="start" x="86.5" y="-40.5" font-family="Helvetica,sans-Serif" font-size="10.00">+ parseArguments()</text>
<text text-anchor="start" x="86.5" y="-29.5" font-family="Helvetica,sans-Serif" font-size="10.00">+ help()</text>
<text text-anchor="start" x="86.5" y="-18.5" font-family="Helvetica,sans-Serif" font-size="10.00">+ help()</text>
<text text-anchor="start" x="86.5" y="-7.5" font-family="Helvetica,sans-Serif" font-size="10.00">+ validatorFactory()</text>
</a>
</g>
</g>
<!-- Node2 -->
<g id="node2" class="node">
<title>Node2</title>
<g id="a_node2"><a xlink:href="classcie_1_1utils_1_1NamedObject.html" target="_top" xlink:title=" ">
<polygon fill="white" stroke="black" points="0,-292.5 0,-448.5 131,-448.5 131,-292.5 0,-292.5"/>
<text text-anchor="middle" x="65.5" y="-436.5" font-family="Helvetica,sans-Serif" font-size="10.00">cie::utils::NamedObject</text>
<polyline fill="none" stroke="black" points="0,-429.5 131,-429.5 "/>
<text text-anchor="middle" x="65.5" y="-417.5" font-family="Helvetica,sans-Serif" font-size="10.00"> </text>
<polyline fill="none" stroke="black" points="0,-410.5 131,-410.5 "/>
<text text-anchor="start" x="8" y="-398.5" font-family="Helvetica,sans-Serif" font-size="10.00">+ NamedObject()</text>
<text text-anchor="start" x="8" y="-387.5" font-family="Helvetica,sans-Serif" font-size="10.00">+ NamedObject()</text>
<text text-anchor="start" x="8" y="-376.5" font-family="Helvetica,sans-Serif" font-size="10.00">+ NamedObject()</text>
<text text-anchor="start" x="8" y="-365.5" font-family="Helvetica,sans-Serif" font-size="10.00">+ NamedObject()</text>
<text text-anchor="start" x="8" y="-354.5" font-family="Helvetica,sans-Serif" font-size="10.00">+ operator=()</text>
<text text-anchor="start" x="8" y="-343.5" font-family="Helvetica,sans-Serif" font-size="10.00">+ operator=()</text>
<text text-anchor="start" x="8" y="-332.5" font-family="Helvetica,sans-Serif" font-size="10.00">+ name()</text>
<text text-anchor="start" x="8" y="-321.5" font-family="Helvetica,sans-Serif" font-size="10.00">+ setName()</text>
<text text-anchor="start" x="8" y="-310.5" font-family="Helvetica,sans-Serif" font-size="10.00">+ setName()</text>
<text text-anchor="start" x="8" y="-299.5" font-family="Helvetica,sans-Serif" font-size="10.00">+ ~NamedObject()</text>
</a>
</g>
</g>
<!-- Node2&#45;&gt;Node1 -->
<g id="edge1" class="edge">
<title>Node2&#45;&gt;Node1</title>
<path fill="none" stroke="#8b1a1a" d="M89.1,-282.24C95.23,-259.59 101.89,-234.96 108.23,-211.51"/>
<polygon fill="none" stroke="#8b1a1a" points="85.65,-281.59 86.42,-292.16 92.41,-283.42 85.65,-281.59"/>
</g>
<!-- Node3 -->
<g id="node3" class="node">
<title>Node3</title>
<g id="a_node3"><a xlink:title=" ">
<polygon fill="white" stroke="#bfbfbf" points="149,-342 149,-399 268,-399 268,-342 149,-342"/>
<text text-anchor="middle" x="208.5" y="-387" font-family="Helvetica,sans-Serif" font-size="10.00">static const Validator</text>
<polyline fill="none" stroke="#bfbfbf" points="149,-380 268,-380 "/>
<text text-anchor="middle" x="208.5" y="-368" font-family="Helvetica,sans-Serif" font-size="10.00"> </text>
<polyline fill="none" stroke="#bfbfbf" points="149,-361 268,-361 "/>
<text text-anchor="middle" x="208.5" y="-349" font-family="Helvetica,sans-Serif" font-size="10.00"> </text>
</a>
</g>
</g>
<!-- Node3&#45;&gt;Node1 -->
<g id="edge2" class="edge">
<title>Node3&#45;&gt;Node1</title>
<path fill="none" stroke="#404040" d="M200.93,-341.9C193.14,-313.51 180.48,-267.34 168.43,-223.42"/>
<polygon fill="none" stroke="#404040" points="168.39,-223.28 162.95,-218.55 165.22,-211.71 170.66,-216.44 168.39,-223.28"/>
<text text-anchor="middle" x="239" y="-266" font-family="Helvetica,sans-Serif" font-size="10.00"> +defaultValidator</text>
<text text-anchor="middle" x="239" y="-255" font-family="Helvetica,sans-Serif" font-size="10.00">+directoryPathValidator</text>
<text text-anchor="middle" x="239" y="-244" font-family="Helvetica,sans-Serif" font-size="10.00">+filePathValidator</text>
<text text-anchor="middle" x="239" y="-233" font-family="Helvetica,sans-Serif" font-size="10.00">+pathValidator</text>
</g>
</g>
</svg>
