<?xml version="1.0" encoding="UTF-8" standalone="no"?>
<!DOCTYPE svg PUBLIC "-//W3C//DTD SVG 1.1//EN"
 "http://www.w3.org/Graphics/SVG/1.1/DTD/svg11.dtd">
<!-- Generated by graphviz version 2.43.0 (0)
 -->
<!-- Title: metaclass Pages: 1 -->
<svg width="485pt" height="309pt"
 viewBox="0.00 0.00 485.00 309.00" xmlns="http://www.w3.org/2000/svg" xmlns:xlink="http://www.w3.org/1999/xlink">
<g id="graph0" class="graph" transform="scale(1 1) rotate(0) translate(4 305)">
<title>metaclass</title>
<polygon fill="white" stroke="transparent" points="-4,4 -4,-305 481,-305 481,4 -4,4"/>
<!-- Node1 -->
<g id="node1" class="node">
<title>Node1</title>
<g id="a_node1"><a xlink:title=" ">
<polygon fill="#bfbfbf" stroke="black" points="205,-243.5 205,-300.5 272,-300.5 272,-243.5 205,-243.5"/>
<text text-anchor="middle" x="238.5" y="-288.5" font-family="Helvetica,sans-Serif" font-size="10.00">metaclass</text>
<polyline fill="none" stroke="black" points="205,-281.5 272,-281.5 "/>
<text text-anchor="middle" x="238.5" y="-269.5" font-family="Helvetica,sans-Serif" font-size="10.00"> </text>
<polyline fill="none" stroke="black" points="205,-262.5 272,-262.5 "/>
<text text-anchor="middle" x="238.5" y="-250.5" font-family="Helvetica,sans-Serif" font-size="10.00"> </text>
</a>
</g>
</g>
<!-- Node2 -->
<g id="node2" class="node">
<title>Node2</title>
<g id="a_node2"><a xlink:href="classmodules_1_1benchutils_1_1Parser_1_1Parser.html" target="_top" xlink:title=" ">
<polygon fill="white" stroke="black" points="165,-127.5 165,-206.5 312,-206.5 312,-127.5 165,-127.5"/>
<text text-anchor="start" x="173" y="-194.5" font-family="Helvetica,sans-Serif" font-size="10.00">modules.benchutils.Parser.</text>
<text text-anchor="middle" x="238.5" y="-183.5" font-family="Helvetica,sans-Serif" font-size="10.00">Parser</text>
<polyline fill="none" stroke="black" points="165,-176.5 312,-176.5 "/>
<text text-anchor="middle" x="238.5" y="-164.5" font-family="Helvetica,sans-Serif" font-size="10.00"> </text>
<polyline fill="none" stroke="black" points="165,-157.5 312,-157.5 "/>
<text text-anchor="start" x="173" y="-145.5" font-family="Helvetica,sans-Serif" font-size="10.00">+ name()</text>
<text text-anchor="start" x="173" y="-134.5" font-family="Helvetica,sans-Serif" font-size="10.00">+ __call__()</text>
</a>
</g>
</g>
<!-- Node1&#45;&gt;Node2 -->
<g id="edge1" class="edge">
<title>Node1&#45;&gt;Node2</title>
<path fill="none" stroke="midnightblue" d="M238.5,-233.16C238.5,-224.47 238.5,-215.23 238.5,-206.52"/>
<polygon fill="none" stroke="midnightblue" points="235,-233.4 238.5,-243.4 242,-233.4 235,-233.4"/>
</g>
<!-- Node3 -->
<g id="node3" class="node">
<title>Node3</title>
<g id="a_node3"><a xlink:href="classmodules_1_1benchutils_1_1Parser_1_1CIEProfilerParser.html" target="_top" xlink:title=" ">
<polygon fill="white" stroke="black" points="0,-6 0,-85 147,-85 147,-6 0,-6"/>
<text text-anchor="start" x="8" y="-73" font-family="Helvetica,sans-Serif" font-size="10.00">modules.benchutils.Parser.</text>
<text text-anchor="middle" x="73.5" y="-62" font-family="Helvetica,sans-Serif" font-size="10.00">CIEProfilerParser</text>
<polyline fill="none" stroke="black" points="0,-55 147,-55 "/>
<text text-anchor="middle" x="73.5" y="-43" font-family="Helvetica,sans-Serif" font-size="10.00"> </text>
<polyline fill="none" stroke="black" points="0,-36 147,-36 "/>
<text text-anchor="start" x="8" y="-24" font-family="Helvetica,sans-Serif" font-size="10.00">+ name()</text>
<text text-anchor="start" x="8" y="-13" font-family="Helvetica,sans-Serif" font-size="10.00">+ __call__()</text>
</a>
</g>
</g>
<!-- Node2&#45;&gt;Node3 -->
<g id="edge2" class="edge">
<title>Node2&#45;&gt;Node3</title>
<path fill="none" stroke="midnightblue" d="M176.5,-121.1C160.15,-109.25 142.65,-96.58 126.8,-85.1"/>
<polygon fill="none" stroke="midnightblue" points="174.78,-124.17 184.93,-127.2 178.88,-118.5 174.78,-124.17"/>
</g>
<!-- Node4 -->
<g id="node4" class="node">
<title>Node4</title>
<g id="a_node4"><a xlink:href="classmodules_1_1benchutils_1_1Parser_1_1GoogleTextParser.html" target="_top" xlink:title="Parses google benchmark text output and packs them into a single Result object.">
<polygon fill="white" stroke="black" points="165,-0.5 165,-90.5 312,-90.5 312,-0.5 165,-0.5"/>
<text text-anchor="start" x="173" y="-78.5" font-family="Helvetica,sans-Serif" font-size="10.00">modules.benchutils.Parser.</text>
<text text-anchor="middle" x="238.5" y="-67.5" font-family="Helvetica,sans-Serif" font-size="10.00">GoogleTextParser</text>
<polyline fill="none" stroke="black" points="165,-60.5 312,-60.5 "/>
<text text-anchor="middle" x="238.5" y="-48.5" font-family="Helvetica,sans-Serif" font-size="10.00"> </text>
<polyline fill="none" stroke="black" points="165,-41.5 312,-41.5 "/>
<text text-anchor="start" x="173" y="-29.5" font-family="Helvetica,sans-Serif" font-size="10.00">+ name()</text>
<text text-anchor="start" x="173" y="-18.5" font-family="Helvetica,sans-Serif" font-size="10.00">+ __init__()</text>
<text text-anchor="start" x="173" y="-7.5" font-family="Helvetica,sans-Serif" font-size="10.00">+ __call__()</text>
</a>
</g>
</g>
<!-- Node2&#45;&gt;Node4 -->
<g id="edge3" class="edge">
<title>Node2&#45;&gt;Node4</title>
<path fill="none" stroke="midnightblue" d="M238.5,-117.19C238.5,-108.49 238.5,-99.48 238.5,-90.91"/>
<polygon fill="none" stroke="midnightblue" points="235,-117.2 238.5,-127.2 242,-117.2 235,-117.2"/>
</g>
<!-- Node5 -->
<g id="node5" class="node">
<title>Node5</title>
<g id="a_node5"><a xlink:href="classmodules_1_1benchutils_1_1Parser_1_1InternalJSONParser.html" target="_top" xlink:title="Parses a stream generated from serializing a list of Result objects.">
<polygon fill="white" stroke="black" points="330,-6 330,-85 477,-85 477,-6 330,-6"/>
<text text-anchor="start" x="338" y="-73" font-family="Helvetica,sans-Serif" font-size="10.00">modules.benchutils.Parser.</text>
<text text-anchor="middle" x="403.5" y="-62" font-family="Helvetica,sans-Serif" font-size="10.00">InternalJSONParser</text>
<polyline fill="none" stroke="black" points="330,-55 477,-55 "/>
<text text-anchor="middle" x="403.5" y="-43" font-family="Helvetica,sans-Serif" font-size="10.00"> </text>
<polyline fill="none" stroke="black" points="330,-36 477,-36 "/>
<text text-anchor="start" x="338" y="-24" font-family="Helvetica,sans-Serif" font-size="10.00">+ name()</text>
<text text-anchor="start" x="338" y="-13" font-family="Helvetica,sans-Serif" font-size="10.00">+ __call__()</text>
</a>
</g>
</g>
<!-- Node2&#45;&gt;Node5 -->
<g id="edge4" class="edge">
<title>Node2&#45;&gt;Node5</title>
<path fill="none" stroke="midnightblue" d="M300.5,-121.1C316.85,-109.25 334.35,-96.58 350.2,-85.1"/>
<polygon fill="none" stroke="midnightblue" points="298.12,-118.5 292.07,-127.2 302.22,-124.17 298.12,-118.5"/>
</g>
</g>
</svg>
