<?xml version="1.0" encoding="UTF-8" standalone="no"?>
<!DOCTYPE svg PUBLIC "-//W3C//DTD SVG 1.1//EN"
 "http://www.w3.org/Graphics/SVG/1.1/DTD/svg11.dtd">
<!-- Generated by graphviz version 2.43.0 (0)
 -->
<!-- Title: cie::utils::Logger Pages: 1 -->
<svg width="628pt" height="614pt"
 viewBox="0.00 0.00 628.00 614.00" xmlns="http://www.w3.org/2000/svg" xmlns:xlink="http://www.w3.org/1999/xlink">
<g id="graph0" class="graph" transform="scale(1 1) rotate(0) translate(4 610)">
<title>cie::utils::Logger</title>
<!-- Node1 -->
<g id="Node000001" class="node">
<title>Node1</title>
<g id="a_Node000001"><a xlink:title=" ">
<polygon fill="#999999" stroke="transparent" points="491.5,-274 352.5,-274 352.5,0 491.5,0 491.5,-274"/>
<text text-anchor="start" x="382" y="-262" font-family="Helvetica,sans-Serif" font-size="10.00">cie::utils::Logger</text>
<text text-anchor="start" x="420.5" y="-247" font-family="Helvetica,sans-Serif" font-size="10.00"> </text>
<text text-anchor="start" x="357" y="-232" font-family="Helvetica,sans-Serif" font-size="10.00">+</text>
<text text-anchor="start" x="370" y="-232" font-family="Helvetica,sans-Serif" font-size="10.00">Logger()</text>
<text text-anchor="start" x="357" y="-217" font-family="Helvetica,sans-Serif" font-size="10.00">+</text>
<text text-anchor="start" x="370" y="-217" font-family="Helvetica,sans-Serif" font-size="10.00">Logger()</text>
<text text-anchor="start" x="357" y="-202" font-family="Helvetica,sans-Serif" font-size="10.00">+</text>
<text text-anchor="start" x="370" y="-202" font-family="Helvetica,sans-Serif" font-size="10.00">Logger()</text>
<text text-anchor="start" x="357" y="-187" font-family="Helvetica,sans-Serif" font-size="10.00">+</text>
<text text-anchor="start" x="370" y="-187" font-family="Helvetica,sans-Serif" font-size="10.00">~Logger()</text>
<text text-anchor="start" x="357" y="-172" font-family="Helvetica,sans-Serif" font-size="10.00">+</text>
<text text-anchor="start" x="370" y="-172" font-family="Helvetica,sans-Serif" font-size="10.00">write()</text>
<text text-anchor="start" x="357" y="-157" font-family="Helvetica,sans-Serif" font-size="10.00">+</text>
<text text-anchor="start" x="370" y="-157" font-family="Helvetica,sans-Serif" font-size="10.00">newBlock()</text>
<text text-anchor="start" x="357" y="-142" font-family="Helvetica,sans-Serif" font-size="10.00">+</text>
<text text-anchor="start" x="370" y="-142" font-family="Helvetica,sans-Serif" font-size="10.00">addStream()</text>
<text text-anchor="start" x="357" y="-127" font-family="Helvetica,sans-Serif" font-size="10.00">+</text>
<text text-anchor="start" x="370" y="-127" font-family="Helvetica,sans-Serif" font-size="10.00">removeStream()</text>
<text text-anchor="start" x="357" y="-112" font-family="Helvetica,sans-Serif" font-size="10.00">+</text>
<text text-anchor="start" x="370" y="-112" font-family="Helvetica,sans-Serif" font-size="10.00">forceFlush()</text>
<text text-anchor="start" x="357" y="-97" font-family="Helvetica,sans-Serif" font-size="10.00">+</text>
<text text-anchor="start" x="370" y="-97" font-family="Helvetica,sans-Serif" font-size="10.00">log()</text>
<text text-anchor="start" x="370" y="-82" font-family="Helvetica,sans-Serif" font-size="10.00">and 11 more...</text>
<text text-anchor="start" x="357" y="-67" font-family="Helvetica,sans-Serif" font-size="10.00">#</text>
<text text-anchor="start" x="370" y="-67" font-family="Helvetica,sans-Serif" font-size="10.00">streamInsertOperation()</text>
<text text-anchor="start" x="357" y="-52" font-family="Helvetica,sans-Serif" font-size="10.00">#</text>
<text text-anchor="start" x="370" y="-52" font-family="Helvetica,sans-Serif" font-size="10.00">flush()</text>
<text text-anchor="start" x="357" y="-37" font-family="Helvetica,sans-Serif" font-size="10.00">#</text>
<text text-anchor="start" x="370" y="-37" font-family="Helvetica,sans-Serif" font-size="10.00">preWrite()</text>
<text text-anchor="start" x="357" y="-22" font-family="Helvetica,sans-Serif" font-size="10.00">#</text>
<text text-anchor="start" x="370" y="-22" font-family="Helvetica,sans-Serif" font-size="10.00">postWrite()</text>
<text text-anchor="start" x="357" y="-7" font-family="Helvetica,sans-Serif" font-size="10.00">#</text>
<text text-anchor="start" x="370" y="-7" font-family="Helvetica,sans-Serif" font-size="10.00">directWriteToAll()</text>
<polygon fill="#666666" stroke="#666666" points="353,-257 353,-257 492,-257 492,-257 353,-257"/>
<polygon fill="#666666" stroke="#666666" points="353,-242 353,-242 492,-242 492,-242 353,-242"/>
<polygon fill="none" stroke="#666666" points="352.5,0 352.5,-274 491.5,-274 491.5,0 352.5,0"/>
</a>
</g>
</g>
<!-- Node2 -->
<g id="Node000002" class="node">
<title>Node2</title>
<g id="a_Node000002"><a xlink:href="classcie_1_1OutputStream.html" target="_top" xlink:title=" ">
<polygon fill="white" stroke="transparent" points="156,-606 0,-606 0,-332 156,-332 156,-606"/>
<text text-anchor="start" x="33.5" y="-594" font-family="Helvetica,sans-Serif" font-size="10.00">cie::OutputStream</text>
<text text-anchor="start" x="76" y="-579" font-family="Helvetica,sans-Serif" font-size="10.00"> </text>
<text text-anchor="start" x="4" y="-564" font-family="Helvetica,sans-Serif" font-size="10.00">+</text>
<text text-anchor="start" x="17" y="-564" font-family="Helvetica,sans-Serif" font-size="10.00">OutputStream()</text>
<text text-anchor="start" x="4" y="-549" font-family="Helvetica,sans-Serif" font-size="10.00">+</text>
<text text-anchor="start" x="17" y="-549" font-family="Helvetica,sans-Serif" font-size="10.00">OutputStream()</text>
<text text-anchor="start" x="4" y="-534" font-family="Helvetica,sans-Serif" font-size="10.00">+</text>
<text text-anchor="start" x="17" y="-534" font-family="Helvetica,sans-Serif" font-size="10.00">OutputStream()</text>
<text text-anchor="start" x="4" y="-519" font-family="Helvetica,sans-Serif" font-size="10.00">+</text>
<text text-anchor="start" x="17" y="-519" font-family="Helvetica,sans-Serif" font-size="10.00">OutputStream()</text>
<text text-anchor="start" x="4" y="-504" font-family="Helvetica,sans-Serif" font-size="10.00">+</text>
<text text-anchor="start" x="17" y="-504" font-family="Helvetica,sans-Serif" font-size="10.00">OutputStream()</text>
<text text-anchor="start" x="4" y="-489" font-family="Helvetica,sans-Serif" font-size="10.00">+</text>
<text text-anchor="start" x="17" y="-489" font-family="Helvetica,sans-Serif" font-size="10.00">operator=()</text>
<text text-anchor="start" x="4" y="-474" font-family="Helvetica,sans-Serif" font-size="10.00">+</text>
<text text-anchor="start" x="17" y="-474" font-family="Helvetica,sans-Serif" font-size="10.00">operator=()</text>
<text text-anchor="start" x="4" y="-459" font-family="Helvetica,sans-Serif" font-size="10.00">+</text>
<text text-anchor="start" x="17" y="-459" font-family="Helvetica,sans-Serif" font-size="10.00">~OutputStream()</text>
<text text-anchor="start" x="4" y="-444" font-family="Helvetica,sans-Serif" font-size="10.00">+</text>
<text text-anchor="start" x="17" y="-444" font-family="Helvetica,sans-Serif" font-size="10.00">write()</text>
<text text-anchor="start" x="4" y="-429" font-family="Helvetica,sans-Serif" font-size="10.00">+</text>
<text text-anchor="start" x="17" y="-429" font-family="Helvetica,sans-Serif" font-size="10.00">flush()</text>
<text text-anchor="start" x="4" y="-414" font-family="Helvetica,sans-Serif" font-size="10.00">+</text>
<text text-anchor="start" x="17" y="-414" font-family="Helvetica,sans-Serif" font-size="10.00">rdbuf()</text>
<text text-anchor="start" x="4" y="-399" font-family="Helvetica,sans-Serif" font-size="10.00">+</text>
<text text-anchor="start" x="17" y="-399" font-family="Helvetica,sans-Serif" font-size="10.00">rdbuf()</text>
<text text-anchor="start" x="4" y="-384" font-family="Helvetica,sans-Serif" font-size="10.00">#</text>
<text text-anchor="start" x="17" y="-384" font-family="Helvetica,sans-Serif" font-size="10.00">streamInsertOperation()</text>
<text text-anchor="start" x="4" y="-369" font-family="Helvetica,sans-Serif" font-size="10.00">#</text>
<text text-anchor="start" x="17" y="-369" font-family="Helvetica,sans-Serif" font-size="10.00">streamInsertOperation()</text>
<text text-anchor="start" x="4" y="-354" font-family="Helvetica,sans-Serif" font-size="10.00">#</text>
<text text-anchor="start" x="17" y="-354" font-family="Helvetica,sans-Serif" font-size="10.00">streamInsertOperation()</text>
<text text-anchor="start" x="4" y="-339" font-family="Helvetica,sans-Serif" font-size="10.00">#</text>
<text text-anchor="start" x="17" y="-339" font-family="Helvetica,sans-Serif" font-size="10.00">forwardToWrappedStream()</text>
<polygon fill="#666666" stroke="#666666" points="0,-589 0,-589 156,-589 156,-589 0,-589"/>
<polygon fill="#666666" stroke="#666666" points="0,-574 0,-574 156,-574 156,-574 0,-574"/>
<polygon fill="none" stroke="#666666" points="0,-332 0,-606 156,-606 156,-332 0,-332"/>
</a>
</g>
</g>
<!-- Node2&#45;&gt;Node1 -->
<g id="edge1_Node000001_Node000002" class="edge">
<title>Node2&#45;&gt;Node1</title>
<g id="a_edge1_Node000001_Node000002"><a xlink:title=" ">
<path fill="none" stroke="#63b8ff" d="M163.38,-381.71C180.07,-365.11 197.5,-347.93 214,-332 259.46,-288.09 311.46,-239.59 352.1,-202.07"/>
<polygon fill="none" stroke="#63b8ff" points="160.9,-379.25 156.29,-388.78 165.84,-384.2 160.9,-379.25"/>
</a>
</g>
</g>
<!-- Node2&#45;&gt;Node2 -->
<g id="edge2_Node000002_Node000002" class="edge">
<title>Node2&#45;&gt;Node2</title>
<g id="a_edge2_Node000002_Node000002"><a xlink:title=" ">
<path fill="none" stroke="#63b8ff" d="M156.35,-496.61C166.94,-491.98 174,-482.78 174,-469 174,-460.39 171.24,-453.56 166.59,-448.53"/>
<polygon fill="none" stroke="#63b8ff" points="166.19,-448.25 158.98,-448.1 156.35,-441.39 163.56,-441.54 166.19,-448.25"/>
</a>
</g>
<text text-anchor="middle" x="189.5" y="-472" font-family="Helvetica,sans-Serif" font-size="10.00" fill="grey"> +cerr</text>
<text text-anchor="middle" x="189.5" y="-461" font-family="Helvetica,sans-Serif" font-size="10.00" fill="grey">+cout</text>
</g>
<!-- Node3 -->
<g id="Node000003" class="node">
<title>Node3</title>
<g id="a_Node000003"><a xlink:title=" ">
<polygon fill="white" stroke="transparent" points="343,-499 223,-499 223,-439 343,-439 343,-499"/>
<text text-anchor="start" x="228" y="-487" font-family="Helvetica,sans-Serif" font-size="10.00">deque&lt; OutputStream</text>
<text text-anchor="start" x="240" y="-476" font-family="Helvetica,sans-Serif" font-size="10.00">::SharedPointer &gt;</text>
<text text-anchor="start" x="281" y="-461" font-family="Helvetica,sans-Serif" font-size="10.00"> </text>
<text text-anchor="start" x="281" y="-446" font-family="Helvetica,sans-Serif" font-size="10.00"> </text>
<polygon fill="#666666" stroke="#666666" points="223,-471 223,-471 343,-471 343,-471 223,-471"/>
<polygon fill="#666666" stroke="#666666" points="223,-456 223,-456 343,-456 343,-456 223,-456"/>
<polygon fill="none" stroke="#666666" points="223,-439 223,-499 343,-499 343,-439 223,-439"/>
</a>
</g>
</g>
<!-- Node3&#45;&gt;Node1 -->
<g id="edge3_Node000001_Node000003" class="edge">
<title>Node3&#45;&gt;Node1</title>
<g id="a_edge3_Node000001_Node000003"><a xlink:title=" ">
<path fill="none" stroke="#63b8ff" d="M295.34,-438.71C310,-403.89 335.57,-343.19 359.91,-285.4"/>
<polygon fill="none" stroke="#63b8ff" points="359.94,-285.33 358.59,-278.24 364.6,-274.27 365.96,-281.35 359.94,-285.33"/>
</a>
</g>
<text text-anchor="middle" x="384.5" y="-300.5" font-family="Helvetica,sans-Serif" font-size="10.00" fill="grey"> #_streams</text>
</g>
<!-- Node4 -->
<g id="Node000004" class="node">
<title>Node4</title>
<g id="a_Node000004"><a xlink:title=" ">
<polygon fill="white" stroke="transparent" points="483,-493.5 361,-493.5 361,-444.5 483,-444.5 483,-493.5"/>
<text text-anchor="start" x="366" y="-481" font-family="Helvetica,sans-Serif" font-size="10.00">deque&lt; detail::Time &gt;</text>
<text text-anchor="start" x="420" y="-466" font-family="Helvetica,sans-Serif" font-size="10.00"> </text>
<text text-anchor="start" x="420" y="-451" font-family="Helvetica,sans-Serif" font-size="10.00"> </text>
<polygon fill="#666666" stroke="#666666" points="361,-476 361,-476 483,-476 483,-476 361,-476"/>
<polygon fill="#666666" stroke="#666666" points="361,-461 361,-461 483,-461 483,-461 361,-461"/>
<polygon fill="none" stroke="#666666" points="361,-444.5 361,-493.5 483,-493.5 483,-444.5 361,-444.5"/>
</a>
</g>
</g>
<!-- Node4&#45;&gt;Node1 -->
<g id="edge4_Node000001_Node000004" class="edge">
<title>Node4&#45;&gt;Node1</title>
<g id="a_edge4_Node000001_Node000004"><a xlink:title=" ">
<path fill="none" stroke="#63b8ff" d="M422,-444.27C422,-410.81 422,-347.05 422,-286.34"/>
<polygon fill="none" stroke="#63b8ff" points="422,-286.24 418,-280.24 422,-274.24 426,-280.24 422,-286.24"/>
</a>
</g>
<text text-anchor="middle" x="450.5" y="-300.5" font-family="Helvetica,sans-Serif" font-size="10.00" fill="grey"> #_timeLog</text>
</g>
<!-- Node5 -->
<g id="Node000005" class="node">
<title>Node5</title>
<g id="a_Node000005"><a xlink:title=" ">
<polygon fill="white" stroke="transparent" points="539,-493.5 501,-493.5 501,-444.5 539,-444.5 539,-493.5"/>
<text text-anchor="start" x="506" y="-481" font-family="Helvetica,sans-Serif" font-size="10.00">string</text>
<text text-anchor="start" x="518" y="-466" font-family="Helvetica,sans-Serif" font-size="10.00"> </text>
<text text-anchor="start" x="518" y="-451" font-family="Helvetica,sans-Serif" font-size="10.00"> </text>
<polygon fill="#666666" stroke="#666666" points="501,-476 501,-476 539,-476 539,-476 501,-476"/>
<polygon fill="#666666" stroke="#666666" points="501,-461 501,-461 539,-461 539,-461 501,-461"/>
<polygon fill="none" stroke="#666666" points="501,-444.5 501,-493.5 539,-493.5 539,-444.5 501,-444.5"/>
</a>
</g>
</g>
<!-- Node5&#45;&gt;Node1 -->
<g id="edge5_Node000001_Node000005" class="edge">
<title>Node5&#45;&gt;Node1</title>
<g id="a_edge5_Node000001_Node000005"><a xlink:title=" ">
<path fill="none" stroke="#63b8ff" d="M515.27,-444.39C509.81,-417.24 500.48,-371.35 492,-332 488.16,-314.19 488.37,-309.41 483,-292 482.35,-289.88 481.67,-287.74 480.99,-285.6"/>
<polygon fill="none" stroke="#63b8ff" points="480.94,-285.45 475.27,-281 477.19,-274.05 482.87,-278.5 480.94,-285.45"/>
</a>
</g>
<text text-anchor="middle" x="514.5" y="-306" font-family="Helvetica,sans-Serif" font-size="10.00" fill="grey"> #_lineEnd</text>
<text text-anchor="middle" x="514.5" y="-295" font-family="Helvetica,sans-Serif" font-size="10.00" fill="grey">#_prefix</text>
</g>
<!-- Node6 -->
<g id="Node000006" class="node">
<title>Node6</title>
<g id="a_Node000006"><a xlink:title=" ">
<polygon fill="white" stroke="transparent" points="603,-493.5 571,-493.5 571,-444.5 603,-444.5 603,-493.5"/>
<text text-anchor="start" x="576" y="-481" font-family="Helvetica,sans-Serif" font-size="10.00">bool</text>
<text text-anchor="start" x="585" y="-466" font-family="Helvetica,sans-Serif" font-size="10.00"> </text>
<text text-anchor="start" x="585" y="-451" font-family="Helvetica,sans-Serif" font-size="10.00"> </text>
<polygon fill="#666666" stroke="#666666" points="571,-476 571,-476 603,-476 603,-476 571,-476"/>
<polygon fill="#666666" stroke="#666666" points="571,-461 571,-461 603,-461 603,-461 571,-461"/>
<polygon fill="none" stroke="#666666" points="571,-444.5 571,-493.5 603,-493.5 603,-444.5 571,-444.5"/>
</a>
</g>
</g>
<!-- Node6&#45;&gt;Node1 -->
<g id="edge6_Node000001_Node000006" class="edge">
<title>Node6&#45;&gt;Node1</title>
<g id="a_edge6_Node000001_Node000006"><a xlink:title=" ">
<path fill="none" stroke="#63b8ff" d="M584.69,-444.4C580.55,-409.55 569.87,-342.96 545,-292 532.97,-267.36 516.42,-243.05 499.36,-221.29"/>
<polygon fill="none" stroke="#63b8ff" points="499.26,-221.17 492.39,-218.98 491.76,-211.8 498.63,-213.98 499.26,-221.17"/>
</a>
</g>
<text text-anchor="middle" x="586" y="-300.5" font-family="Helvetica,sans-Serif" font-size="10.00" fill="grey"> #_forceFlush</text>
</g>
</g>
</svg>
