<?xml version="1.0" encoding="UTF-8" standalone="no"?>
<!DOCTYPE svg PUBLIC "-//W3C//DTD SVG 1.1//EN"
 "http://www.w3.org/Graphics/SVG/1.1/DTD/svg11.dtd">
<!-- Generated by graphviz version 2.43.0 (0)
 -->
<!-- Title: cie::utils::Comparison&lt; T &gt; Pages: 1 -->
<svg width="201pt" height="186pt"
 viewBox="0.00 0.00 200.50 186.00" xmlns="http://www.w3.org/2000/svg" xmlns:xlink="http://www.w3.org/1999/xlink">
<g id="graph0" class="graph" transform="scale(1 1) rotate(0) translate(4 182)">
<title>cie::utils::Comparison&lt; T &gt;</title>
<!-- Node1 -->
<g id="Node000001" class="node">
<title>Node1</title>
<g id="a_Node000001"><a xlink:title=" ">
<polygon fill="#999999" stroke="transparent" points="145,-178 0,-178 0,-129 145,-129 145,-178"/>
<text text-anchor="start" x="5.5" y="-165.5" font-family="Helvetica,sans-Serif" font-size="10.00">cie::utils::Comparison&lt; T &gt;</text>
<text text-anchor="start" x="71" y="-150.5" font-family="Helvetica,sans-Serif" font-size="10.00"> </text>
<text text-anchor="start" x="71" y="-135.5" font-family="Helvetica,sans-Serif" font-size="10.00"> </text>
<polygon fill="#666666" stroke="#666666" points="0.5,-160.5 0.5,-160.5 145.5,-160.5 145.5,-160.5 0.5,-160.5"/>
<polygon fill="#666666" stroke="#666666" points="0.5,-145.5 0.5,-145.5 145.5,-145.5 145.5,-145.5 0.5,-145.5"/>
<polygon fill="none" stroke="#666666" points="0,-129 0,-178 145,-178 145,-129 0,-129"/>
</a>
</g>
</g>
<!-- Node2 -->
<g id="Node000002" class="node">
<title>Node2</title>
<g id="a_Node000002"><a xlink:href="classcie_1_1utils_1_1Comparison.html" target="_top" xlink:title=" ">
<polygon fill="white" stroke="transparent" points="136,-71 9,-71 9,0 136,0 136,-71"/>
<text text-anchor="start" x="14.5" y="-58.5" font-family="Helvetica,sans-Serif" font-size="10.00">cie::utils::Comparison</text>
<text text-anchor="start" x="14.5" y="-47.5" font-family="Helvetica,sans-Serif" font-size="10.00">&lt; typename TContainer</text>
<text text-anchor="start" x="37" y="-36.5" font-family="Helvetica,sans-Serif" font-size="10.00">::value_type &gt;</text>
<text text-anchor="start" x="71" y="-21.5" font-family="Helvetica,sans-Serif" font-size="10.00"> </text>
<text text-anchor="start" x="71" y="-6.5" font-family="Helvetica,sans-Serif" font-size="10.00"> </text>
<polygon fill="#666666" stroke="#666666" points="9.5,-31.5 9.5,-31.5 136.5,-31.5 136.5,-31.5 9.5,-31.5"/>
<polygon fill="#666666" stroke="#666666" points="9.5,-16.5 9.5,-16.5 136.5,-16.5 136.5,-16.5 9.5,-16.5"/>
<polygon fill="none" stroke="#666666" points="9,0 9,-71 136,-71 136,0 9,0"/>
</a>
</g>
</g>
<!-- Node1&#45;&gt;Node2 -->
<g id="edge1_Node000001_Node000002" class="edge">
<title>Node1&#45;&gt;Node2</title>
<g id="a_edge1_Node000001_Node000002"><a xlink:title=" ">
<path fill="none" stroke="orange" d="M72.5,-118.44C72.5,-103.58 72.5,-86.17 72.5,-71.23"/>
<polygon fill="orange" stroke="orange" points="69,-118.75 72.5,-128.75 76,-118.75 69,-118.75"/>
</a>
</g>
<text text-anchor="start" x="72.5" y="-103" font-family="Helvetica,sans-Serif" font-size="10.00" fill="grey"> &lt; typename TContainer</text>
<text text-anchor="middle" x="132.5" y="-92" font-family="Helvetica,sans-Serif" font-size="10.00" fill="grey">::value_type &gt;</text>
</g>
</g>
</svg>
