<?xml version="1.0" encoding="UTF-8" standalone="no"?>
<!DOCTYPE svg PUBLIC "-//W3C//DTD SVG 1.1//EN"
 "http://www.w3.org/Graphics/SVG/1.1/DTD/svg11.dtd">
<!-- Generated by graphviz version 2.43.0 (0)
 -->
<!-- Title: cie::utils::TransformIterator&lt; TIterator, TTransform &gt; Pages: 1 -->
<svg width="159pt" height="270pt"
 viewBox="0.00 0.00 158.50 270.00" xmlns="http://www.w3.org/2000/svg" xmlns:xlink="http://www.w3.org/1999/xlink">
<g id="graph0" class="graph" transform="scale(1 1) rotate(0) translate(4 266)">
<title>cie::utils::TransformIterator&lt; TIterator, TTransform &gt;</title>
<polygon fill="white" stroke="transparent" points="-4,4 -4,-266 154.5,-266 154.5,4 -4,4"/>
<!-- Node1 -->
<g id="node1" class="node">
<title>Node1</title>
<g id="a_node1"><a xlink:title=" ">
<polygon fill="#bfbfbf" stroke="black" points="0,-0.5 0,-123.5 149,-123.5 149,-0.5 0,-0.5"/>
<text text-anchor="start" x="8" y="-111.5" font-family="Helvetica,sans-Serif" font-size="10.00">cie::utils::TransformIterator</text>
<text text-anchor="middle" x="74.5" y="-100.5" font-family="Helvetica,sans-Serif" font-size="10.00">&lt; TIterator, TTransform &gt;</text>
<polyline fill="none" stroke="black" points="0,-93.5 149,-93.5 "/>
<text text-anchor="middle" x="74.5" y="-81.5" font-family="Helvetica,sans-Serif" font-size="10.00"> </text>
<polyline fill="none" stroke="black" points="0,-74.5 149,-74.5 "/>
<text text-anchor="start" x="8" y="-62.5" font-family="Helvetica,sans-Serif" font-size="10.00">+ TransformIterator()</text>
<text text-anchor="start" x="8" y="-51.5" font-family="Helvetica,sans-Serif" font-size="10.00">+ TransformIterator()</text>
<text text-anchor="start" x="8" y="-40.5" font-family="Helvetica,sans-Serif" font-size="10.00">+ TransformIterator()</text>
<text text-anchor="start" x="8" y="-29.5" font-family="Helvetica,sans-Serif" font-size="10.00">+ operator=()</text>
<text text-anchor="start" x="8" y="-18.5" font-family="Helvetica,sans-Serif" font-size="10.00">+ operator=()</text>
<text text-anchor="start" x="8" y="-7.5" font-family="Helvetica,sans-Serif" font-size="10.00">+ operator*()</text>
</a>
</g>
</g>
<!-- Node2 -->
<g id="node2" class="node">
<title>Node2</title>
<g id="a_node2"><a xlink:title=" ">
<polygon fill="white" stroke="#bfbfbf" points="3.5,-171.5 3.5,-261.5 145.5,-261.5 145.5,-171.5 3.5,-171.5"/>
<text text-anchor="start" x="11.5" y="-249.5" font-family="Helvetica,sans-Serif" font-size="10.00">Ref&lt; cie::utils::Transform</text>
<text text-anchor="start" x="11.5" y="-238.5" font-family="Helvetica,sans-Serif" font-size="10.00">Iterator &gt; operator++()</text>
<text text-anchor="start" x="11.5" y="-227.5" font-family="Helvetica,sans-Serif" font-size="10.00"> noexcept requires std Ptr</text>
<text text-anchor="middle" x="74.5" y="-216.5" font-family="Helvetica,sans-Serif" font-size="10.00">&lt; const TTransform &gt;</text>
<polyline fill="none" stroke="#bfbfbf" points="3.5,-209.5 145.5,-209.5 "/>
<text text-anchor="middle" x="74.5" y="-197.5" font-family="Helvetica,sans-Serif" font-size="10.00"> </text>
<polyline fill="none" stroke="#bfbfbf" points="3.5,-190.5 145.5,-190.5 "/>
<text text-anchor="middle" x="74.5" y="-178.5" font-family="Helvetica,sans-Serif" font-size="10.00"> </text>
</a>
</g>
</g>
<!-- Node2&#45;&gt;Node1 -->
<g id="edge1" class="edge">
<title>Node2&#45;&gt;Node1</title>
<path fill="none" stroke="#404040" d="M74.5,-171.39C74.5,-160.24 74.5,-147.97 74.5,-135.81"/>
<polygon fill="none" stroke="#404040" points="74.5,-135.74 70.5,-129.74 74.5,-123.74 78.5,-129.74 74.5,-135.74"/>
<text text-anchor="middle" x="112.5" y="-145" font-family="Helvetica,sans-Serif" font-size="10.00"> +_p_transform</text>
</g>
</g>
</svg>
