<?xml version="1.0" encoding="UTF-8" standalone="no"?>
<!DOCTYPE svg PUBLIC "-//W3C//DTD SVG 1.1//EN"
 "http://www.w3.org/Graphics/SVG/1.1/DTD/svg11.dtd">
<!-- Generated by graphviz version 2.43.0 (0)
 -->
<!-- Title: cie::utils::StrongTypeDef&lt; T, Tag &gt; Pages: 1 -->
<svg width="231pt" height="293pt"
 viewBox="0.00 0.00 231.00 293.00" xmlns="http://www.w3.org/2000/svg" xmlns:xlink="http://www.w3.org/1999/xlink">
<g id="graph0" class="graph" transform="scale(1 1) rotate(0) translate(4 289)">
<title>cie::utils::StrongTypeDef&lt; T, Tag &gt;</title>
<polygon fill="white" stroke="transparent" points="-4,4 -4,-289 227,-289 227,4 -4,4"/>
<!-- Node1 -->
<g id="node1" class="node">
<title>Node1</title>
<g id="a_node1"><a xlink:title=" ">
<polygon fill="#bfbfbf" stroke="black" points="0,-0.5 0,-189.5 135,-189.5 135,-0.5 0,-0.5"/>
<text text-anchor="start" x="8" y="-177.5" font-family="Helvetica,sans-Serif" font-size="10.00">cie::utils::StrongTypeDef</text>
<text text-anchor="middle" x="67.5" y="-166.5" font-family="Helvetica,sans-Serif" font-size="10.00">&lt; T, Tag &gt;</text>
<polyline fill="none" stroke="black" points="0,-159.5 135,-159.5 "/>
<text text-anchor="middle" x="67.5" y="-147.5" font-family="Helvetica,sans-Serif" font-size="10.00"> </text>
<polyline fill="none" stroke="black" points="0,-140.5 135,-140.5 "/>
<text text-anchor="start" x="8" y="-128.5" font-family="Helvetica,sans-Serif" font-size="10.00">+ StrongTypeDef()</text>
<text text-anchor="start" x="8" y="-117.5" font-family="Helvetica,sans-Serif" font-size="10.00">+ StrongTypeDef()</text>
<text text-anchor="start" x="8" y="-106.5" font-family="Helvetica,sans-Serif" font-size="10.00">+ StrongTypeDef()</text>
<text text-anchor="start" x="8" y="-95.5" font-family="Helvetica,sans-Serif" font-size="10.00">+ StrongTypeDef()</text>
<text text-anchor="start" x="8" y="-84.5" font-family="Helvetica,sans-Serif" font-size="10.00">+ StrongTypeDef()</text>
<text text-anchor="start" x="8" y="-73.5" font-family="Helvetica,sans-Serif" font-size="10.00">+ operator const T &amp;()</text>
<text text-anchor="start" x="8" y="-62.5" font-family="Helvetica,sans-Serif" font-size="10.00">+ StrongTypeDef()</text>
<text text-anchor="start" x="8" y="-51.5" font-family="Helvetica,sans-Serif" font-size="10.00">+ StrongTypeDef()</text>
<text text-anchor="start" x="8" y="-40.5" font-family="Helvetica,sans-Serif" font-size="10.00">+ StrongTypeDef()</text>
<text text-anchor="start" x="8" y="-29.5" font-family="Helvetica,sans-Serif" font-size="10.00">+ operator=()</text>
<text text-anchor="start" x="8" y="-18.5" font-family="Helvetica,sans-Serif" font-size="10.00">+ operator T()</text>
<text text-anchor="start" x="8" y="-7.5" font-family="Helvetica,sans-Serif" font-size="10.00">+ operator T&amp;()</text>
</a>
</g>
</g>
<!-- Node1&#45;&gt;Node1 -->
<g id="edge2" class="edge">
<title>Node1&#45;&gt;Node1</title>
<path fill="none" stroke="#404040" d="M135.23,-114.25C145.8,-111.37 153,-104.95 153,-95 153,-89.09 150.46,-84.43 146.19,-81.01"/>
<polygon fill="none" stroke="#404040" points="146.05,-80.95 138.91,-81.96 135.23,-75.75 142.37,-74.75 146.05,-80.95"/>
<text text-anchor="middle" x="188" y="-92.5" font-family="Helvetica,sans-Serif" font-size="10.00"> +operator T&amp;</text>
</g>
<!-- Node2 -->
<g id="node2" class="node">
<title>Node2</title>
<g id="a_node2"><a xlink:title=" ">
<polygon fill="white" stroke="#bfbfbf" points="53,-227.5 53,-284.5 82,-284.5 82,-227.5 53,-227.5"/>
<text text-anchor="middle" x="67.5" y="-272.5" font-family="Helvetica,sans-Serif" font-size="10.00">T</text>
<polyline fill="none" stroke="#bfbfbf" points="53,-265.5 82,-265.5 "/>
<text text-anchor="middle" x="67.5" y="-253.5" font-family="Helvetica,sans-Serif" font-size="10.00"> </text>
<polyline fill="none" stroke="#bfbfbf" points="53,-246.5 82,-246.5 "/>
<text text-anchor="middle" x="67.5" y="-234.5" font-family="Helvetica,sans-Serif" font-size="10.00"> </text>
</a>
</g>
</g>
<!-- Node2&#45;&gt;Node1 -->
<g id="edge1" class="edge">
<title>Node2&#45;&gt;Node1</title>
<path fill="none" stroke="midnightblue" d="M67.5,-217.08C67.5,-208.6 67.5,-199.24 67.5,-189.6"/>
<polygon fill="none" stroke="midnightblue" points="64,-217.3 67.5,-227.3 71,-217.3 64,-217.3"/>
</g>
</g>
</svg>
