<?xml version="1.0" encoding="UTF-8" standalone="no"?>
<!DOCTYPE svg PUBLIC "-//W3C//DTD SVG 1.1//EN"
 "http://www.w3.org/Graphics/SVG/1.1/DTD/svg11.dtd">
<!-- Generated by graphviz version 2.43.0 (0)
 -->
<!-- Title: modules.benchutils.Parser.GoogleTextParser Pages: 1 -->
<svg width="178pt" height="309pt"
 viewBox="0.00 0.00 178.00 309.00" xmlns="http://www.w3.org/2000/svg" xmlns:xlink="http://www.w3.org/1999/xlink">
<g id="graph0" class="graph" transform="scale(1 1) rotate(0) translate(4 305)">
<title>modules.benchutils.Parser.GoogleTextParser</title>
<polygon fill="white" stroke="transparent" points="-4,4 -4,-305 174,-305 174,4 -4,4"/>
<!-- Node1 -->
<g id="node1" class="node">
<title>Node1</title>
<g id="a_node1"><a xlink:title="Parses google benchmark text output and packs them into a single Result object.">
<polygon fill="#bfbfbf" stroke="black" points="7,-0.5 7,-90.5 154,-90.5 154,-0.5 7,-0.5"/>
<text text-anchor="start" x="15" y="-78.5" font-family="Helvetica,sans-Serif" font-size="10.00">modules.benchutils.Parser.</text>
<text text-anchor="middle" x="80.5" y="-67.5" font-family="Helvetica,sans-Serif" font-size="10.00">GoogleTextParser</text>
<polyline fill="none" stroke="black" points="7,-60.5 154,-60.5 "/>
<text text-anchor="middle" x="80.5" y="-48.5" font-family="Helvetica,sans-Serif" font-size="10.00"> </text>
<polyline fill="none" stroke="black" points="7,-41.5 154,-41.5 "/>
<text text-anchor="start" x="15" y="-29.5" font-family="Helvetica,sans-Serif" font-size="10.00">+ name()</text>
<text text-anchor="start" x="15" y="-18.5" font-family="Helvetica,sans-Serif" font-size="10.00">+ __init__()</text>
<text text-anchor="start" x="15" y="-7.5" font-family="Helvetica,sans-Serif" font-size="10.00">+ __call__()</text>
</a>
</g>
</g>
<!-- Node2 -->
<g id="node2" class="node">
<title>Node2</title>
<g id="a_node2"><a xlink:href="classmodules_1_1benchutils_1_1Parser_1_1Parser.html" target="_top" xlink:title=" ">
<polygon fill="white" stroke="black" points="7,-127.5 7,-206.5 154,-206.5 154,-127.5 7,-127.5"/>
<text text-anchor="start" x="15" y="-194.5" font-family="Helvetica,sans-Serif" font-size="10.00">modules.benchutils.Parser.</text>
<text text-anchor="middle" x="80.5" y="-183.5" font-family="Helvetica,sans-Serif" font-size="10.00">Parser</text>
<polyline fill="none" stroke="black" points="7,-176.5 154,-176.5 "/>
<text text-anchor="middle" x="80.5" y="-164.5" font-family="Helvetica,sans-Serif" font-size="10.00"> </text>
<polyline fill="none" stroke="black" points="7,-157.5 154,-157.5 "/>
<text text-anchor="start" x="15" y="-145.5" font-family="Helvetica,sans-Serif" font-size="10.00">+ name()</text>
<text text-anchor="start" x="15" y="-134.5" font-family="Helvetica,sans-Serif" font-size="10.00">+ __call__()</text>
</a>
</g>
</g>
<!-- Node2&#45;&gt;Node1 -->
<g id="edge1" class="edge">
<title>Node2&#45;&gt;Node1</title>
<path fill="none" stroke="midnightblue" d="M80.5,-117.19C80.5,-108.49 80.5,-99.48 80.5,-90.91"/>
<polygon fill="none" stroke="midnightblue" points="77,-117.2 80.5,-127.2 84,-117.2 77,-117.2"/>
</g>
<!-- Node3 -->
<g id="node3" class="node">
<title>Node3</title>
<g id="a_node3"><a xlink:href="classmetaclass.html" target="_top" xlink:title=" ">
<polygon fill="white" stroke="black" points="0,-243.5 0,-300.5 67,-300.5 67,-243.5 0,-243.5"/>
<text text-anchor="middle" x="33.5" y="-288.5" font-family="Helvetica,sans-Serif" font-size="10.00">metaclass</text>
<polyline fill="none" stroke="black" points="0,-281.5 67,-281.5 "/>
<text text-anchor="middle" x="33.5" y="-269.5" font-family="Helvetica,sans-Serif" font-size="10.00"> </text>
<polyline fill="none" stroke="black" points="0,-262.5 67,-262.5 "/>
<text text-anchor="middle" x="33.5" y="-250.5" font-family="Helvetica,sans-Serif" font-size="10.00"> </text>
</a>
</g>
</g>
<!-- Node3&#45;&gt;Node2 -->
<g id="edge2" class="edge">
<title>Node3&#45;&gt;Node2</title>
<path fill="none" stroke="midnightblue" d="M50.25,-234.3C54.36,-225.29 58.77,-215.61 62.92,-206.52"/>
<polygon fill="none" stroke="midnightblue" points="47.06,-232.85 46.1,-243.4 53.43,-235.75 47.06,-232.85"/>
</g>
<!-- Node4 -->
<g id="node4" class="node">
<title>Node4</title>
<g id="a_node4"><a xlink:title=" ">
<polygon fill="white" stroke="#bfbfbf" points="85,-243.5 85,-300.5 170,-300.5 170,-243.5 85,-243.5"/>
<text text-anchor="middle" x="127.5" y="-288.5" font-family="Helvetica,sans-Serif" font-size="10.00">abc::ABCMeta</text>
<polyline fill="none" stroke="#bfbfbf" points="85,-281.5 170,-281.5 "/>
<text text-anchor="middle" x="127.5" y="-269.5" font-family="Helvetica,sans-Serif" font-size="10.00"> </text>
<polyline fill="none" stroke="#bfbfbf" points="85,-262.5 170,-262.5 "/>
<text text-anchor="middle" x="127.5" y="-250.5" font-family="Helvetica,sans-Serif" font-size="10.00"> </text>
</a>
</g>
</g>
<!-- Node4&#45;&gt;Node2 -->
<g id="edge3" class="edge">
<title>Node4&#45;&gt;Node2</title>
<path fill="none" stroke="midnightblue" d="M110.75,-234.3C106.64,-225.29 102.23,-215.61 98.08,-206.52"/>
<polygon fill="none" stroke="midnightblue" points="107.57,-235.75 114.9,-243.4 113.94,-232.85 107.57,-235.75"/>
</g>
</g>
</svg>
