<?xml version="1.0" encoding="UTF-8" standalone="no"?>
<!DOCTYPE svg PUBLIC "-//W3C//DTD SVG 1.1//EN"
 "http://www.w3.org/Graphics/SVG/1.1/DTD/svg11.dtd">
<!-- Generated by graphviz version 2.43.0 (0)
 -->
<!-- Title: cie::OutputStream Pages: 1 -->
<svg width="219pt" height="347pt"
 viewBox="0.00 0.00 219.00 347.00" xmlns="http://www.w3.org/2000/svg" xmlns:xlink="http://www.w3.org/1999/xlink">
<g id="graph0" class="graph" transform="scale(1 1) rotate(0) translate(4 343)">
<title>cie::OutputStream</title>
<polygon fill="white" stroke="transparent" points="-4,4 -4,-343 215,-343 215,4 -4,4"/>
<!-- Node1 -->
<g id="node1" class="node">
<title>Node1</title>
<g id="a_node1"><a xlink:title=" ">
<polygon fill="#bfbfbf" stroke="black" points="0,-0.5 0,-233.5 162,-233.5 162,-0.5 0,-0.5"/>
<text text-anchor="middle" x="81" y="-221.5" font-family="Helvetica,sans-Serif" font-size="10.00">cie::OutputStream</text>
<polyline fill="none" stroke="black" points="0,-214.5 162,-214.5 "/>
<text text-anchor="middle" x="81" y="-202.5" font-family="Helvetica,sans-Serif" font-size="10.00"> </text>
<polyline fill="none" stroke="black" points="0,-195.5 162,-195.5 "/>
<text text-anchor="start" x="8" y="-183.5" font-family="Helvetica,sans-Serif" font-size="10.00">+ OutputStream()</text>
<text text-anchor="start" x="8" y="-172.5" font-family="Helvetica,sans-Serif" font-size="10.00">+ OutputStream()</text>
<text text-anchor="start" x="8" y="-161.5" font-family="Helvetica,sans-Serif" font-size="10.00">+ OutputStream()</text>
<text text-anchor="start" x="8" y="-150.5" font-family="Helvetica,sans-Serif" font-size="10.00">+ OutputStream()</text>
<text text-anchor="start" x="8" y="-139.5" font-family="Helvetica,sans-Serif" font-size="10.00">+ OutputStream()</text>
<text text-anchor="start" x="8" y="-128.5" font-family="Helvetica,sans-Serif" font-size="10.00">+ operator=()</text>
<text text-anchor="start" x="8" y="-117.5" font-family="Helvetica,sans-Serif" font-size="10.00">+ operator=()</text>
<text text-anchor="start" x="8" y="-106.5" font-family="Helvetica,sans-Serif" font-size="10.00">+ ~OutputStream()</text>
<text text-anchor="start" x="8" y="-95.5" font-family="Helvetica,sans-Serif" font-size="10.00">+ write()</text>
<text text-anchor="start" x="8" y="-84.5" font-family="Helvetica,sans-Serif" font-size="10.00">+ flush()</text>
<text text-anchor="start" x="8" y="-73.5" font-family="Helvetica,sans-Serif" font-size="10.00">+ rdbuf()</text>
<text text-anchor="start" x="8" y="-62.5" font-family="Helvetica,sans-Serif" font-size="10.00">+ rdbuf()</text>
<text text-anchor="start" x="8" y="-51.5" font-family="Helvetica,sans-Serif" font-size="10.00">+ requires()</text>
<text text-anchor="start" x="8" y="-40.5" font-family="Helvetica,sans-Serif" font-size="10.00"># streamInsertOperation()</text>
<text text-anchor="start" x="8" y="-29.5" font-family="Helvetica,sans-Serif" font-size="10.00"># streamInsertOperation()</text>
<text text-anchor="start" x="8" y="-18.5" font-family="Helvetica,sans-Serif" font-size="10.00"># streamInsertOperation()</text>
<text text-anchor="start" x="8" y="-7.5" font-family="Helvetica,sans-Serif" font-size="10.00"># forwardToWrappedStream()</text>
</a>
</g>
</g>
<!-- Node1&#45;&gt;Node1 -->
<g id="edge2" class="edge">
<title>Node1&#45;&gt;Node1</title>
<path fill="none" stroke="#404040" d="M162.18,-140.15C172.89,-136.2 180,-128.48 180,-117 180,-110 177.36,-104.4 172.88,-100.2"/>
<polygon fill="none" stroke="#404040" points="172.5,-99.98 165.3,-100.35 162.18,-93.85 169.38,-93.48 172.5,-99.98"/>
<text text-anchor="middle" x="195.5" y="-120" font-family="Helvetica,sans-Serif" font-size="10.00"> +cerr</text>
<text text-anchor="middle" x="195.5" y="-109" font-family="Helvetica,sans-Serif" font-size="10.00">+cout</text>
</g>
<!-- Node2 -->
<g id="node2" class="node">
<title>Node2</title>
<g id="a_node2"><a xlink:title=" ">
<polygon fill="white" stroke="#bfbfbf" points="28,-281.5 28,-338.5 134,-338.5 134,-281.5 28,-281.5"/>
<text text-anchor="middle" x="81" y="-326.5" font-family="Helvetica,sans-Serif" font-size="10.00">const TMessage &amp;</text>
<polyline fill="none" stroke="#bfbfbf" points="28,-319.5 134,-319.5 "/>
<text text-anchor="middle" x="81" y="-307.5" font-family="Helvetica,sans-Serif" font-size="10.00"> </text>
<polyline fill="none" stroke="#bfbfbf" points="28,-300.5 134,-300.5 "/>
<text text-anchor="middle" x="81" y="-288.5" font-family="Helvetica,sans-Serif" font-size="10.00"> </text>
</a>
</g>
</g>
<!-- Node2&#45;&gt;Node1 -->
<g id="edge1" class="edge">
<title>Node2&#45;&gt;Node1</title>
<path fill="none" stroke="#404040" d="M81,-281.23C81,-271.17 81,-259.04 81,-246"/>
<polygon fill="none" stroke="#404040" points="81,-245.79 77,-239.79 81,-233.79 85,-239.79 81,-245.79"/>
<text text-anchor="middle" x="93.5" y="-255" font-family="Helvetica,sans-Serif" font-size="10.00"> +r_t</text>
</g>
</g>
</svg>
