<?xml version="1.0" encoding="UTF-8" standalone="no"?>
<!DOCTYPE svg PUBLIC "-//W3C//DTD SVG 1.1//EN"
 "http://www.w3.org/Graphics/SVG/1.1/DTD/svg11.dtd">
<!-- Generated by graphviz version 2.43.0 (0)
 -->
<!-- Title: cmake_variables.hpp Pages: 1 -->
<svg width="1538pt" height="476pt"
 viewBox="0.00 0.00 1538.00 476.00" xmlns="http://www.w3.org/2000/svg" xmlns:xlink="http://www.w3.org/1999/xlink">
<g id="graph0" class="graph" transform="scale(1 1) rotate(0) translate(4 472)">
<title>cmake_variables.hpp</title>
<polygon fill="white" stroke="transparent" points="-4,4 -4,-472 1534,-472 1534,4 -4,4"/>
<!-- Node1 -->
<g id="node1" class="node">
<title>Node1</title>
<g id="a_node1"><a xlink:title=" ">
<polygon fill="#bfbfbf" stroke="black" points="1124,-448.5 1124,-467.5 1244,-467.5 1244,-448.5 1124,-448.5"/>
<text text-anchor="middle" x="1184" y="-455.5" font-family="Helvetica,sans-Serif" font-size="10.00">cmake_variables.hpp</text>
</a>
</g>
</g>
<!-- Node2 -->
<g id="node2" class="node">
<title>Node2</title>
<g id="a_node2"><a xlink:href="assertions_8hpp.html" target="_top" xlink:title=" ">
<polygon fill="white" stroke="black" points="806,-392.5 806,-411.5 894,-411.5 894,-392.5 806,-392.5"/>
<text text-anchor="middle" x="850" y="-399.5" font-family="Helvetica,sans-Serif" font-size="10.00">assertions.hpp</text>
</a>
</g>
</g>
<!-- Node1&#45;&gt;Node2 -->
<g id="edge1" class="edge">
<title>Node1&#45;&gt;Node2</title>
<path fill="none" stroke="midnightblue" d="M1120.4,-446.89C1063.64,-437.83 978.25,-424.15 904,-412 900.81,-411.48 897.52,-410.94 894.2,-410.39"/>
<polygon fill="midnightblue" stroke="midnightblue" points="1119.88,-450.35 1130.31,-448.47 1120.98,-443.43 1119.88,-450.35"/>
</g>
<!-- Node3 -->
<g id="node3" class="node">
<title>Node3</title>
<g id="a_node3"><a xlink:href="checks_8hpp.html" target="_top" xlink:title=" ">
<polygon fill="white" stroke="black" points="912.5,-392.5 912.5,-411.5 983.5,-411.5 983.5,-392.5 912.5,-392.5"/>
<text text-anchor="middle" x="948" y="-399.5" font-family="Helvetica,sans-Serif" font-size="10.00">checks.hpp</text>
</a>
</g>
</g>
<!-- Node1&#45;&gt;Node3 -->
<g id="edge2" class="edge">
<title>Node1&#45;&gt;Node3</title>
<path fill="none" stroke="midnightblue" d="M1136.76,-446.19C1091.6,-435.86 1024.52,-420.51 983.68,-411.16"/>
<polygon fill="midnightblue" stroke="midnightblue" points="1136.08,-449.62 1146.61,-448.44 1137.64,-442.8 1136.08,-449.62"/>
</g>
<!-- Node22 -->
<g id="node22" class="node">
<title>Node22</title>
<g id="a_node22"><a xlink:href="testing_8hpp.html" target="_top" xlink:title=" ">
<polygon fill="white" stroke="black" points="1347.5,-112.5 1347.5,-131.5 1418.5,-131.5 1418.5,-112.5 1347.5,-112.5"/>
<text text-anchor="middle" x="1383" y="-119.5" font-family="Helvetica,sans-Serif" font-size="10.00">testing.hpp</text>
</a>
</g>
</g>
<!-- Node1&#45;&gt;Node22 -->
<g id="edge53" class="edge">
<title>Node1&#45;&gt;Node22</title>
<path fill="none" stroke="midnightblue" d="M1254.02,-447.94C1312.37,-436.01 1386,-408.72 1386,-347 1386,-347 1386,-347 1386,-233 1386,-195.17 1384.21,-150.06 1383.39,-131.56"/>
<polygon fill="midnightblue" stroke="midnightblue" points="1253.22,-444.53 1244.06,-449.87 1254.54,-451.41 1253.22,-444.53"/>
</g>
<!-- Node45 -->
<g id="node45" class="node">
<title>Node45</title>
<g id="a_node45"><a xlink:href="fileio_8hpp.html" target="_top" xlink:title=" ">
<polygon fill="white" stroke="black" points="1414,-392.5 1414,-411.5 1476,-411.5 1476,-392.5 1414,-392.5"/>
<text text-anchor="middle" x="1445" y="-399.5" font-family="Helvetica,sans-Serif" font-size="10.00">fileio.hpp</text>
</a>
</g>
</g>
<!-- Node1&#45;&gt;Node45 -->
<g id="edge52" class="edge">
<title>Node1&#45;&gt;Node45</title>
<path fill="none" stroke="midnightblue" d="M1235.25,-446.4C1288.29,-435.42 1369.47,-418.63 1413.67,-409.48"/>
<polygon fill="midnightblue" stroke="midnightblue" points="1234.44,-442.99 1225.36,-448.44 1235.86,-449.84 1234.44,-442.99"/>
</g>
<!-- Node4 -->
<g id="node4" class="node">
<title>Node4</title>
<g id="a_node4"><a xlink:href="json_8hpp.html" target="_top" xlink:title=" ">
<polygon fill="white" stroke="black" points="897,-168.5 897,-187.5 955,-187.5 955,-168.5 897,-168.5"/>
<text text-anchor="middle" x="926" y="-175.5" font-family="Helvetica,sans-Serif" font-size="10.00">json.hpp</text>
</a>
</g>
</g>
<!-- Node3&#45;&gt;Node4 -->
<g id="edge3" class="edge">
<title>Node3&#45;&gt;Node4</title>
<path fill="none" stroke="midnightblue" d="M956.06,-382.83C959.21,-374.78 962.43,-365.09 964,-356 973.97,-298.19 984.15,-279.1 964,-224 958.59,-209.21 945.94,-195.93 936.71,-187.7"/>
<polygon fill="midnightblue" stroke="midnightblue" points="952.74,-381.7 952.11,-392.28 959.19,-384.4 952.74,-381.7"/>
</g>
<!-- Node5 -->
<g id="node5" class="node">
<title>Node5</title>
<g id="a_node5"><a xlink:href="Serializer_8hpp.html" target="_top" xlink:title=" ">
<polygon fill="white" stroke="black" points="871.5,-336.5 871.5,-355.5 954.5,-355.5 954.5,-336.5 871.5,-336.5"/>
<text text-anchor="middle" x="913" y="-343.5" font-family="Helvetica,sans-Serif" font-size="10.00">Serializer.hpp</text>
</a>
</g>
</g>
<!-- Node3&#45;&gt;Node5 -->
<g id="edge4" class="edge">
<title>Node3&#45;&gt;Node5</title>
<path fill="none" stroke="midnightblue" d="M936.7,-383.57C930.68,-374.27 923.53,-363.25 918.67,-355.75"/>
<polygon fill="midnightblue" stroke="midnightblue" points="933.84,-385.6 942.22,-392.08 939.72,-381.79 933.84,-385.6"/>
</g>
<!-- Node9 -->
<g id="node9" class="node">
<title>Node9</title>
<g id="a_node9"><a xlink:href="OutputStream_8hpp.html" target="_top" xlink:title=" ">
<polygon fill="white" stroke="black" points="1011,-336.5 1011,-355.5 1117,-355.5 1117,-336.5 1011,-336.5"/>
<text text-anchor="middle" x="1064" y="-343.5" font-family="Helvetica,sans-Serif" font-size="10.00">OutputStream.hpp</text>
</a>
</g>
</g>
<!-- Node3&#45;&gt;Node9 -->
<g id="edge8" class="edge">
<title>Node3&#45;&gt;Node9</title>
<path fill="none" stroke="midnightblue" d="M975.72,-388.1C997.39,-378.01 1026.9,-364.27 1045.71,-355.52"/>
<polygon fill="midnightblue" stroke="midnightblue" points="973.97,-385.05 966.38,-392.44 976.92,-391.4 973.97,-385.05"/>
</g>
<!-- Node28 -->
<g id="node28" class="node">
<title>Node28</title>
<g id="a_node28"><a xlink:href="getReference_8hpp.html" target="_top" xlink:title=" ">
<polygon fill="white" stroke="black" points="594.5,-336.5 594.5,-355.5 697.5,-355.5 697.5,-336.5 594.5,-336.5"/>
<text text-anchor="middle" x="646" y="-343.5" font-family="Helvetica,sans-Serif" font-size="10.00">getReference.hpp</text>
</a>
</g>
</g>
<!-- Node3&#45;&gt;Node28 -->
<g id="edge29" class="edge">
<title>Node3&#45;&gt;Node28</title>
<path fill="none" stroke="midnightblue" d="M902.23,-391.89C824.8,-377.44 746.54,-363.95 696.78,-355.52"/>
<polygon fill="midnightblue" stroke="midnightblue" points="901.68,-395.35 912.15,-393.75 902.97,-388.47 901.68,-395.35"/>
</g>
<!-- Node29 -->
<g id="node29" class="node">
<title>Node29</title>
<g id="a_node29"><a xlink:href="resize_8hpp.html" target="_top" xlink:title=" ">
<polygon fill="white" stroke="black" points="786.5,-336.5 786.5,-355.5 853.5,-355.5 853.5,-336.5 786.5,-336.5"/>
<text text-anchor="middle" x="820" y="-343.5" font-family="Helvetica,sans-Serif" font-size="10.00">resize.hpp</text>
</a>
</g>
</g>
<!-- Node3&#45;&gt;Node29 -->
<g id="edge30" class="edge">
<title>Node3&#45;&gt;Node29</title>
<path fill="none" stroke="midnightblue" d="M918.38,-388.5C894.38,-378.38 861.22,-364.39 840.19,-355.52"/>
<polygon fill="midnightblue" stroke="midnightblue" points="917.14,-391.78 927.72,-392.44 919.86,-385.33 917.14,-391.78"/>
</g>
<!-- Node44 -->
<g id="node44" class="node">
<title>Node44</title>
<g id="a_node44"><a xlink:href="zip_8hpp.html" target="_top" xlink:title=" ">
<polygon fill="white" stroke="black" points="716,-336.5 716,-355.5 768,-355.5 768,-336.5 716,-336.5"/>
<text text-anchor="middle" x="742" y="-343.5" font-family="Helvetica,sans-Serif" font-size="10.00">zip.hpp</text>
</a>
</g>
</g>
<!-- Node3&#45;&gt;Node44 -->
<g id="edge51" class="edge">
<title>Node3&#45;&gt;Node44</title>
<path fill="none" stroke="midnightblue" d="M905.59,-389.88C864.32,-379.07 802.93,-362.97 768.28,-353.89"/>
<polygon fill="midnightblue" stroke="midnightblue" points="904.8,-393.29 915.36,-392.44 906.57,-386.52 904.8,-393.29"/>
</g>
<!-- Node6 -->
<g id="node6" class="node">
<title>Node6</title>
<g id="a_node6"><a xlink:href="MPI_8hpp.html" target="_top" xlink:title=" ">
<polygon fill="white" stroke="black" points="868,-280.5 868,-299.5 924,-299.5 924,-280.5 868,-280.5"/>
<text text-anchor="middle" x="896" y="-287.5" font-family="Helvetica,sans-Serif" font-size="10.00">MPI.hpp</text>
</a>
</g>
</g>
<!-- Node5&#45;&gt;Node6 -->
<g id="edge5" class="edge">
<title>Node5&#45;&gt;Node6</title>
<path fill="none" stroke="midnightblue" d="M907.14,-326.4C904.3,-317.36 901.02,-306.94 898.75,-299.75"/>
<polygon fill="midnightblue" stroke="midnightblue" points="903.85,-327.6 910.19,-336.08 910.53,-325.49 903.85,-327.6"/>
</g>
<!-- Node7 -->
<g id="node7" class="node">
<title>Node7</title>
<g id="a_node7"><a xlink:href="CommOperation_8hpp.html" target="_top" xlink:title=" ">
<polygon fill="white" stroke="black" points="837,-224.5 837,-243.5 955,-243.5 955,-224.5 837,-224.5"/>
<text text-anchor="middle" x="896" y="-231.5" font-family="Helvetica,sans-Serif" font-size="10.00">CommOperation.hpp</text>
</a>
</g>
</g>
<!-- Node6&#45;&gt;Node7 -->
<g id="edge6" class="edge">
<title>Node6&#45;&gt;Node7</title>
<path fill="none" stroke="midnightblue" d="M896,-269.8C896,-260.91 896,-250.78 896,-243.75"/>
<polygon fill="midnightblue" stroke="midnightblue" points="892.5,-270.08 896,-280.08 899.5,-270.08 892.5,-270.08"/>
</g>
<!-- Node8 -->
<g id="node8" class="node">
<title>Node8</title>
<g id="a_node8"><a xlink:href="MPISingleton_8hpp.html" target="_top" xlink:title=" ">
<polygon fill="white" stroke="black" points="717.5,-224.5 717.5,-243.5 818.5,-243.5 818.5,-224.5 717.5,-224.5"/>
<text text-anchor="middle" x="768" y="-231.5" font-family="Helvetica,sans-Serif" font-size="10.00">MPISingleton.hpp</text>
</a>
</g>
</g>
<!-- Node6&#45;&gt;Node8 -->
<g id="edge7" class="edge">
<title>Node6&#45;&gt;Node8</title>
<path fill="none" stroke="midnightblue" d="M866.38,-276.5C842.38,-266.38 809.22,-252.39 788.19,-243.52"/>
<polygon fill="midnightblue" stroke="midnightblue" points="865.14,-279.78 875.72,-280.44 867.86,-273.33 865.14,-279.78"/>
</g>
<!-- Node10 -->
<g id="node10" class="node">
<title>Node10</title>
<g id="a_node10"><a xlink:href="ArgParse_8hpp.html" target="_top" xlink:title=" ">
<polygon fill="white" stroke="black" points="523,-168.5 523,-187.5 603,-187.5 603,-168.5 523,-168.5"/>
<text text-anchor="middle" x="563" y="-175.5" font-family="Helvetica,sans-Serif" font-size="10.00">ArgParse.hpp</text>
</a>
</g>
</g>
<!-- Node9&#45;&gt;Node10 -->
<g id="edge9" class="edge">
<title>Node9&#45;&gt;Node10</title>
<path fill="none" stroke="midnightblue" d="M1000.51,-337.64C888.86,-323.66 663.21,-290.46 600,-244 580.54,-229.7 569.83,-201.86 565.42,-187.71"/>
<polygon fill="midnightblue" stroke="midnightblue" points="1000.27,-341.14 1010.62,-338.89 1001.13,-334.19 1000.27,-341.14"/>
</g>
<!-- Node18 -->
<g id="node18" class="node">
<title>Node18</title>
<g id="a_node18"><a xlink:href="FileOutputStream_8hpp.html" target="_top" xlink:title=" ">
<polygon fill="white" stroke="black" points="1234.5,-280.5 1234.5,-299.5 1357.5,-299.5 1357.5,-280.5 1234.5,-280.5"/>
<text text-anchor="middle" x="1296" y="-287.5" font-family="Helvetica,sans-Serif" font-size="10.00">FileOutputStream.hpp</text>
</a>
</g>
</g>
<!-- Node9&#45;&gt;Node18 -->
<g id="edge17" class="edge">
<title>Node9&#45;&gt;Node18</title>
<path fill="none" stroke="midnightblue" d="M1110.6,-334.15C1154.44,-323.95 1219.18,-308.88 1259.41,-299.52"/>
<polygon fill="midnightblue" stroke="midnightblue" points="1109.71,-330.77 1100.76,-336.44 1111.29,-337.59 1109.71,-330.77"/>
</g>
<!-- Node26 -->
<g id="node26" class="node">
<title>Node26</title>
<g id="a_node26"><a xlink:href="StreamInterceptor_8hpp.html" target="_top" xlink:title=" ">
<polygon fill="white" stroke="black" points="1091.5,-280.5 1091.5,-299.5 1216.5,-299.5 1216.5,-280.5 1091.5,-280.5"/>
<text text-anchor="middle" x="1154" y="-287.5" font-family="Helvetica,sans-Serif" font-size="10.00">StreamInterceptor.hpp</text>
</a>
</g>
</g>
<!-- Node9&#45;&gt;Node26 -->
<g id="edge27" class="edge">
<title>Node9&#45;&gt;Node26</title>
<path fill="none" stroke="midnightblue" d="M1087.04,-331.18C1103.6,-321.24 1125.42,-308.15 1139.58,-299.65"/>
<polygon fill="midnightblue" stroke="midnightblue" points="1085.23,-328.18 1078.46,-336.32 1088.84,-334.18 1085.23,-328.18"/>
</g>
<!-- Node27 -->
<g id="node27" class="node">
<title>Node27</title>
<g id="a_node27"><a xlink:href="Color_8hpp.html" target="_top" xlink:title=" ">
<polygon fill="white" stroke="black" points="1011,-280.5 1011,-299.5 1073,-299.5 1073,-280.5 1011,-280.5"/>
<text text-anchor="middle" x="1042" y="-287.5" font-family="Helvetica,sans-Serif" font-size="10.00">Color.hpp</text>
</a>
</g>
</g>
<!-- Node9&#45;&gt;Node27 -->
<g id="edge28" class="edge">
<title>Node9&#45;&gt;Node27</title>
<path fill="none" stroke="midnightblue" d="M1056.54,-326.69C1052.83,-317.59 1048.52,-307.01 1045.57,-299.75"/>
<polygon fill="midnightblue" stroke="midnightblue" points="1053.35,-328.14 1060.37,-336.08 1059.84,-325.5 1053.35,-328.14"/>
</g>
<!-- Node11 -->
<g id="node11" class="node">
<title>Node11</title>
<g id="a_node11"><a xlink:href="AbsArgument_8hpp.html" target="_top" xlink:title=" ">
<polygon fill="white" stroke="black" points="822,-112.5 822,-131.5 926,-131.5 926,-112.5 822,-112.5"/>
<text text-anchor="middle" x="874" y="-119.5" font-family="Helvetica,sans-Serif" font-size="10.00">AbsArgument.hpp</text>
</a>
</g>
</g>
<!-- Node10&#45;&gt;Node11 -->
<g id="edge10" class="edge">
<title>Node10&#45;&gt;Node11</title>
<path fill="none" stroke="midnightblue" d="M613.24,-167.8C692.31,-153.78 772.62,-140.1 823.25,-131.54"/>
<polygon fill="midnightblue" stroke="midnightblue" points="612.34,-164.4 603.1,-169.59 613.56,-171.29 612.34,-164.4"/>
</g>
<!-- Node16 -->
<g id="node16" class="node">
<title>Node16</title>
<g id="a_node16"><a xlink:href="container__extension_8hpp.html" target="_top" xlink:title=" ">
<polygon fill="white" stroke="black" points="501.5,-112.5 501.5,-131.5 638.5,-131.5 638.5,-112.5 501.5,-112.5"/>
<text text-anchor="middle" x="570" y="-119.5" font-family="Helvetica,sans-Serif" font-size="10.00">container_extension.hpp</text>
</a>
</g>
</g>
<!-- Node10&#45;&gt;Node16 -->
<g id="edge15" class="edge">
<title>Node10&#45;&gt;Node16</title>
<path fill="none" stroke="midnightblue" d="M565.45,-158.1C566.61,-149.14 567.94,-138.86 568.87,-131.75"/>
<polygon fill="midnightblue" stroke="midnightblue" points="561.97,-157.72 564.16,-168.08 568.91,-158.62 561.97,-157.72"/>
</g>
<!-- Node17 -->
<g id="node17" class="node">
<title>Node17</title>
<g id="a_node17"><a xlink:href="file__system__extension_8hpp.html" target="_top" xlink:title=" ">
<polygon fill="white" stroke="black" points="656.5,-112.5 656.5,-131.5 803.5,-131.5 803.5,-112.5 656.5,-112.5"/>
<text text-anchor="middle" x="730" y="-119.5" font-family="Helvetica,sans-Serif" font-size="10.00">file_system_extension.hpp</text>
</a>
</g>
</g>
<!-- Node10&#45;&gt;Node17 -->
<g id="edge16" class="edge">
<title>Node10&#45;&gt;Node17</title>
<path fill="none" stroke="midnightblue" d="M599.17,-165.3C630.64,-155.13 675.49,-140.62 703.66,-131.52"/>
<polygon fill="midnightblue" stroke="midnightblue" points="597.9,-162.04 589.46,-168.44 600.05,-168.7 597.9,-162.04"/>
</g>
<!-- Node12 -->
<g id="node12" class="node">
<title>Node12</title>
<g id="a_node12"><a xlink:href="AggregateArgument_8hpp.html" target="_top" xlink:title=" ">
<polygon fill="white" stroke="black" points="685,-56.5 685,-75.5 821,-75.5 821,-56.5 685,-56.5"/>
<text text-anchor="middle" x="753" y="-63.5" font-family="Helvetica,sans-Serif" font-size="10.00">AggregateArgument.hpp</text>
</a>
</g>
</g>
<!-- Node11&#45;&gt;Node12 -->
<g id="edge11" class="edge">
<title>Node11&#45;&gt;Node12</title>
<path fill="none" stroke="midnightblue" d="M845.69,-108.37C823.03,-98.26 791.87,-84.35 772.08,-75.52"/>
<polygon fill="midnightblue" stroke="midnightblue" points="844.27,-111.56 854.83,-112.44 847.12,-105.17 844.27,-111.56"/>
</g>
<!-- Node13 -->
<g id="node13" class="node">
<title>Node13</title>
<g id="a_node13"><a xlink:href="FlagArgument_8hpp.html" target="_top" xlink:title=" ">
<polygon fill="white" stroke="black" points="839.5,-56.5 839.5,-75.5 946.5,-75.5 946.5,-56.5 839.5,-56.5"/>
<text text-anchor="middle" x="893" y="-63.5" font-family="Helvetica,sans-Serif" font-size="10.00">FlagArgument.hpp</text>
</a>
</g>
</g>
<!-- Node11&#45;&gt;Node13 -->
<g id="edge12" class="edge">
<title>Node11&#45;&gt;Node13</title>
<path fill="none" stroke="midnightblue" d="M880.55,-102.4C883.72,-93.36 887.39,-82.94 889.92,-75.75"/>
<polygon fill="midnightblue" stroke="midnightblue" points="877.15,-101.49 877.14,-112.08 883.76,-103.81 877.15,-101.49"/>
</g>
<!-- Node14 -->
<g id="node14" class="node">
<title>Node14</title>
<g id="a_node14"><a xlink:href="KeywordArgument_8hpp.html" target="_top" xlink:title=" ">
<polygon fill="white" stroke="black" points="965,-56.5 965,-75.5 1093,-75.5 1093,-56.5 965,-56.5"/>
<text text-anchor="middle" x="1029" y="-63.5" font-family="Helvetica,sans-Serif" font-size="10.00">KeywordArgument.hpp</text>
</a>
</g>
</g>
<!-- Node11&#45;&gt;Node14 -->
<g id="edge13" class="edge">
<title>Node11&#45;&gt;Node14</title>
<path fill="none" stroke="midnightblue" d="M908.33,-109.04C937.5,-98.88 978.64,-84.55 1004.55,-75.52"/>
<polygon fill="midnightblue" stroke="midnightblue" points="906.85,-105.85 898.56,-112.44 909.16,-112.46 906.85,-105.85"/>
</g>
<!-- Node15 -->
<g id="node15" class="node">
<title>Node15</title>
<g id="a_node15"><a xlink:href="PositionalArgument_8hpp.html" target="_top" xlink:title=" ">
<polygon fill="white" stroke="black" points="533,-56.5 533,-75.5 667,-75.5 667,-56.5 533,-56.5"/>
<text text-anchor="middle" x="600" y="-63.5" font-family="Helvetica,sans-Serif" font-size="10.00">PositionalArgument.hpp</text>
</a>
</g>
</g>
<!-- Node11&#45;&gt;Node15 -->
<g id="edge14" class="edge">
<title>Node11&#45;&gt;Node15</title>
<path fill="none" stroke="midnightblue" d="M820.59,-110.47C768.8,-100.27 691.23,-84.98 643.21,-75.52"/>
<polygon fill="midnightblue" stroke="midnightblue" points="820.1,-113.94 830.58,-112.44 821.45,-107.08 820.1,-113.94"/>
</g>
<!-- Node19 -->
<g id="node19" class="node">
<title>Node19</title>
<g id="a_node19"><a xlink:href="Logger_8hpp.html" target="_top" xlink:title=" ">
<polygon fill="white" stroke="black" points="1272,-224.5 1272,-243.5 1342,-243.5 1342,-224.5 1272,-224.5"/>
<text text-anchor="middle" x="1307" y="-231.5" font-family="Helvetica,sans-Serif" font-size="10.00">Logger.hpp</text>
</a>
</g>
</g>
<!-- Node18&#45;&gt;Node19 -->
<g id="edge18" class="edge">
<title>Node18&#45;&gt;Node19</title>
<path fill="none" stroke="midnightblue" d="M1299.85,-270.1C1301.68,-261.14 1303.77,-250.86 1305.22,-243.75"/>
<polygon fill="midnightblue" stroke="midnightblue" points="1296.38,-269.59 1297.82,-280.08 1303.24,-270.98 1296.38,-269.59"/>
</g>
<!-- Node20 -->
<g id="node20" class="node">
<title>Node20</title>
<g id="a_node20"><a xlink:href="LogBlock_8hpp.html" target="_top" xlink:title=" ">
<polygon fill="white" stroke="black" points="1276,-168.5 1276,-187.5 1358,-187.5 1358,-168.5 1276,-168.5"/>
<text text-anchor="middle" x="1317" y="-175.5" font-family="Helvetica,sans-Serif" font-size="10.00">LogBlock.hpp</text>
</a>
</g>
</g>
<!-- Node19&#45;&gt;Node20 -->
<g id="edge19" class="edge">
<title>Node19&#45;&gt;Node20</title>
<path fill="none" stroke="midnightblue" d="M1310.5,-214.1C1312.16,-205.14 1314.06,-194.86 1315.38,-187.75"/>
<polygon fill="midnightblue" stroke="midnightblue" points="1307.03,-213.61 1308.65,-224.08 1313.91,-214.89 1307.03,-213.61"/>
</g>
<!-- Node21 -->
<g id="node21" class="node">
<title>Node21</title>
<g id="a_node21"><a xlink:href="Loggee_8hpp.html" target="_top" xlink:title=" ">
<polygon fill="white" stroke="black" points="1232.5,-112.5 1232.5,-131.5 1305.5,-131.5 1305.5,-112.5 1232.5,-112.5"/>
<text text-anchor="middle" x="1269" y="-119.5" font-family="Helvetica,sans-Serif" font-size="10.00">Loggee.hpp</text>
</a>
</g>
</g>
<!-- Node19&#45;&gt;Node21 -->
<g id="edge23" class="edge">
<title>Node19&#45;&gt;Node21</title>
<path fill="none" stroke="midnightblue" d="M1288.21,-217.66C1280.03,-209.76 1271.34,-199.4 1267,-188 1259.78,-169 1263.7,-144.59 1266.67,-131.76"/>
<polygon fill="midnightblue" stroke="midnightblue" points="1285.96,-220.34 1295.73,-224.43 1290.64,-215.14 1285.96,-220.34"/>
</g>
<!-- Node24 -->
<g id="node24" class="node">
<title>Node24</title>
<g id="a_node24"><a xlink:href="LoggerSingleton_8hpp.html" target="_top" xlink:title=" ">
<polygon fill="white" stroke="black" points="1414,-168.5 1414,-187.5 1530,-187.5 1530,-168.5 1414,-168.5"/>
<text text-anchor="middle" x="1472" y="-175.5" font-family="Helvetica,sans-Serif" font-size="10.00">LoggerSingleton.hpp</text>
</a>
</g>
</g>
<!-- Node19&#45;&gt;Node24 -->
<g id="edge24" class="edge">
<title>Node19&#45;&gt;Node24</title>
<path fill="none" stroke="midnightblue" d="M1342.74,-221.3C1373.83,-211.13 1418.15,-196.62 1445.98,-187.52"/>
<polygon fill="midnightblue" stroke="midnightblue" points="1341.56,-218.01 1333.14,-224.44 1343.74,-224.66 1341.56,-218.01"/>
</g>
<!-- Node20&#45;&gt;Node21 -->
<g id="edge20" class="edge">
<title>Node20&#45;&gt;Node21</title>
<path fill="none" stroke="midnightblue" d="M1302.27,-160.43C1293.86,-150.97 1283.65,-139.48 1276.78,-131.75"/>
<polygon fill="midnightblue" stroke="midnightblue" points="1299.81,-162.93 1309.07,-168.08 1305.05,-158.28 1299.81,-162.93"/>
</g>
<!-- Node20&#45;&gt;Node22 -->
<g id="edge21" class="edge">
<title>Node20&#45;&gt;Node22</title>
<path fill="none" stroke="midnightblue" d="M1335.55,-161.82C1347.38,-152.15 1362.29,-139.95 1372.2,-131.83"/>
<polygon fill="midnightblue" stroke="midnightblue" points="1333.13,-159.28 1327.6,-168.32 1337.56,-164.7 1333.13,-159.28"/>
</g>
<!-- Node23 -->
<g id="node23" class="node">
<title>Node23</title>
<g id="a_node23"><a xlink:href="essentials_8hpp.html" target="_top" xlink:title=" ">
<polygon fill="white" stroke="black" points="1339.5,-56.5 1339.5,-75.5 1426.5,-75.5 1426.5,-56.5 1339.5,-56.5"/>
<text text-anchor="middle" x="1383" y="-63.5" font-family="Helvetica,sans-Serif" font-size="10.00">essentials.hpp</text>
</a>
</g>
</g>
<!-- Node22&#45;&gt;Node23 -->
<g id="edge22" class="edge">
<title>Node22&#45;&gt;Node23</title>
<path fill="none" stroke="midnightblue" d="M1383,-101.8C1383,-92.91 1383,-82.78 1383,-75.75"/>
<polygon fill="midnightblue" stroke="midnightblue" points="1379.5,-102.08 1383,-112.08 1386.5,-102.08 1379.5,-102.08"/>
</g>
<!-- Node24&#45;&gt;Node22 -->
<g id="edge25" class="edge">
<title>Node24&#45;&gt;Node22</title>
<path fill="none" stroke="midnightblue" d="M1448.76,-162.9C1432.44,-153 1411.13,-140.07 1397.26,-131.65"/>
<polygon fill="midnightblue" stroke="midnightblue" points="1447.34,-166.13 1457.7,-168.32 1450.97,-160.14 1447.34,-166.13"/>
</g>
<!-- Node25 -->
<g id="node25" class="node">
<title>Node25</title>
<g id="a_node25"><a xlink:href="warning_8hpp.html" target="_top" xlink:title=" ">
<polygon fill="white" stroke="black" points="1436.5,-112.5 1436.5,-131.5 1513.5,-131.5 1513.5,-112.5 1436.5,-112.5"/>
<text text-anchor="middle" x="1475" y="-119.5" font-family="Helvetica,sans-Serif" font-size="10.00">warning.hpp</text>
</a>
</g>
</g>
<!-- Node24&#45;&gt;Node25 -->
<g id="edge26" class="edge">
<title>Node24&#45;&gt;Node25</title>
<path fill="none" stroke="midnightblue" d="M1473.07,-157.8C1473.56,-148.91 1474.12,-138.78 1474.51,-131.75"/>
<polygon fill="midnightblue" stroke="midnightblue" points="1469.56,-157.9 1472.5,-168.08 1476.54,-158.29 1469.56,-157.9"/>
</g>
<!-- Node30 -->
<g id="node30" class="node">
<title>Node30</title>
<g id="a_node30"><a xlink:href="STLContainerBase_8hpp.html" target="_top" xlink:title=" ">
<polygon fill="white" stroke="black" points="427,-280.5 427,-299.5 553,-299.5 553,-280.5 427,-280.5"/>
<text text-anchor="middle" x="490" y="-287.5" font-family="Helvetica,sans-Serif" font-size="10.00">STLContainerBase.hpp</text>
</a>
</g>
</g>
<!-- Node29&#45;&gt;Node30 -->
<g id="edge31" class="edge">
<title>Node29&#45;&gt;Node30</title>
<path fill="none" stroke="midnightblue" d="M776.24,-335.94C692.01,-320.67 606.02,-307.65 550.07,-299.51"/>
<polygon fill="midnightblue" stroke="midnightblue" points="775.76,-339.41 786.23,-337.76 777.02,-332.52 775.76,-339.41"/>
</g>
<!-- Node31 -->
<g id="node31" class="node">
<title>Node31</title>
<g id="a_node31"><a xlink:href="DynamicArray_8hpp.html" target="_top" xlink:title=" ">
<polygon fill="white" stroke="black" points="335,-224.5 335,-243.5 441,-243.5 441,-224.5 335,-224.5"/>
<text text-anchor="middle" x="388" y="-231.5" font-family="Helvetica,sans-Serif" font-size="10.00">DynamicArray.hpp</text>
</a>
</g>
</g>
<!-- Node30&#45;&gt;Node31 -->
<g id="edge32" class="edge">
<title>Node30&#45;&gt;Node31</title>
<path fill="none" stroke="midnightblue" d="M464.67,-275.59C445.81,-265.61 420.62,-252.27 404.35,-243.65"/>
<polygon fill="midnightblue" stroke="midnightblue" points="463.14,-278.74 473.61,-280.32 466.41,-272.55 463.14,-278.74"/>
</g>
<!-- Node42 -->
<g id="node42" class="node">
<title>Node42</title>
<g id="a_node42"><a xlink:href="StaticArray_8hpp.html" target="_top" xlink:title=" ">
<polygon fill="white" stroke="black" points="609,-224.5 609,-243.5 699,-243.5 699,-224.5 609,-224.5"/>
<text text-anchor="middle" x="654" y="-231.5" font-family="Helvetica,sans-Serif" font-size="10.00">StaticArray.hpp</text>
</a>
</g>
</g>
<!-- Node30&#45;&gt;Node42 -->
<g id="edge47" class="edge">
<title>Node30&#45;&gt;Node42</title>
<path fill="none" stroke="midnightblue" d="M525.52,-277.3C556.42,-267.13 600.47,-252.62 628.14,-243.52"/>
<polygon fill="midnightblue" stroke="midnightblue" points="524.39,-273.99 515.99,-280.44 526.58,-280.64 524.39,-273.99"/>
</g>
<!-- Node31&#45;&gt;Node10 -->
<g id="edge33" class="edge">
<title>Node31&#45;&gt;Node10</title>
<path fill="none" stroke="midnightblue" d="M425.47,-221.44C458.47,-211.26 505.76,-196.66 535.4,-187.52"/>
<polygon fill="midnightblue" stroke="midnightblue" points="424.25,-218.15 415.73,-224.44 426.32,-224.84 424.25,-218.15"/>
</g>
<!-- Node32 -->
<g id="node32" class="node">
<title>Node32</title>
<g id="a_node32"><a xlink:href="ParallelFor_8hpp.html" target="_top" xlink:title=" ">
<polygon fill="white" stroke="black" points="0,-56.5 0,-75.5 88,-75.5 88,-56.5 0,-56.5"/>
<text text-anchor="middle" x="44" y="-63.5" font-family="Helvetica,sans-Serif" font-size="10.00">ParallelFor.hpp</text>
</a>
</g>
</g>
<!-- Node31&#45;&gt;Node32 -->
<g id="edge34" class="edge">
<title>Node31&#45;&gt;Node32</title>
<path fill="none" stroke="midnightblue" d="M324.78,-229.21C230.28,-222.89 61.27,-208.8 43,-188 14.59,-155.64 32.32,-97.51 40.51,-75.64"/>
<polygon fill="midnightblue" stroke="midnightblue" points="324.6,-232.7 334.81,-229.87 325.06,-225.72 324.6,-232.7"/>
</g>
<!-- Node33 -->
<g id="node33" class="node">
<title>Node33</title>
<g id="a_node33"><a xlink:href="ThreadLocal_8hpp.html" target="_top" xlink:title=" ">
<polygon fill="white" stroke="black" points="207.5,-168.5 207.5,-187.5 304.5,-187.5 304.5,-168.5 207.5,-168.5"/>
<text text-anchor="middle" x="256" y="-175.5" font-family="Helvetica,sans-Serif" font-size="10.00">ThreadLocal.hpp</text>
</a>
</g>
</g>
<!-- Node31&#45;&gt;Node33 -->
<g id="edge35" class="edge">
<title>Node31&#45;&gt;Node33</title>
<path fill="none" stroke="midnightblue" d="M357.78,-220.64C333.01,-210.5 298.6,-196.43 276.82,-187.52"/>
<polygon fill="midnightblue" stroke="midnightblue" points="356.5,-223.9 367.08,-224.44 359.15,-217.42 356.5,-223.9"/>
</g>
<!-- Node34 -->
<g id="node34" class="node">
<title>Node34</title>
<g id="a_node34"><a xlink:href="ThreadPoolStorage_8hpp.html" target="_top" xlink:title=" ">
<polygon fill="white" stroke="black" points="323,-168.5 323,-187.5 453,-187.5 453,-168.5 323,-168.5"/>
<text text-anchor="middle" x="388" y="-175.5" font-family="Helvetica,sans-Serif" font-size="10.00">ThreadPoolStorage.hpp</text>
</a>
</g>
</g>
<!-- Node31&#45;&gt;Node34 -->
<g id="edge36" class="edge">
<title>Node31&#45;&gt;Node34</title>
<path fill="none" stroke="midnightblue" d="M388,-213.8C388,-204.91 388,-194.78 388,-187.75"/>
<polygon fill="midnightblue" stroke="midnightblue" points="384.5,-214.08 388,-224.08 391.5,-214.08 384.5,-214.08"/>
</g>
<!-- Node38 -->
<g id="node38" class="node">
<title>Node38</title>
<g id="a_node38"><a xlink:href="abstree_8hpp.html" target="_top" xlink:title=" ">
<polygon fill="white" stroke="black" points="143,-56.5 143,-75.5 217,-75.5 217,-56.5 143,-56.5"/>
<text text-anchor="middle" x="180" y="-63.5" font-family="Helvetica,sans-Serif" font-size="10.00">abstree.hpp</text>
</a>
</g>
</g>
<!-- Node31&#45;&gt;Node38 -->
<g id="edge44" class="edge">
<title>Node31&#45;&gt;Node38</title>
<path fill="none" stroke="midnightblue" d="M324.52,-233.87C238.08,-233.55 90.15,-227.09 56,-188 16.62,-142.92 113.39,-94.81 158.44,-75.62"/>
<polygon fill="midnightblue" stroke="midnightblue" points="324.74,-237.37 334.75,-233.88 324.75,-230.37 324.74,-237.37"/>
</g>
<!-- Node39 -->
<g id="node39" class="node">
<title>Node39</title>
<g id="a_node39"><a xlink:href="ContiguousTree_8hpp.html" target="_top" xlink:title=" ">
<polygon fill="white" stroke="black" points="396.5,-56.5 396.5,-75.5 509.5,-75.5 509.5,-56.5 396.5,-56.5"/>
<text text-anchor="middle" x="453" y="-63.5" font-family="Helvetica,sans-Serif" font-size="10.00">ContiguousTree.hpp</text>
</a>
</g>
</g>
<!-- Node31&#45;&gt;Node39 -->
<g id="edge45" class="edge">
<title>Node31&#45;&gt;Node39</title>
<path fill="none" stroke="midnightblue" d="M424.24,-220.15C438.67,-213.05 453.78,-202.62 462,-188 482.96,-150.73 465.02,-96.48 456.69,-75.62"/>
<polygon fill="midnightblue" stroke="midnightblue" points="422.6,-217.05 414.93,-224.36 425.48,-223.43 422.6,-217.05"/>
</g>
<!-- Node40 -->
<g id="node40" class="node">
<title>Node40</title>
<g id="a_node40"><a xlink:href="UnstructuredView_8hpp.html" target="_top" xlink:title=" ">
<polygon fill="white" stroke="black" points="65,-168.5 65,-187.5 189,-187.5 189,-168.5 65,-168.5"/>
<text text-anchor="middle" x="127" y="-175.5" font-family="Helvetica,sans-Serif" font-size="10.00">UnstructuredView.hpp</text>
</a>
</g>
</g>
<!-- Node31&#45;&gt;Node40 -->
<g id="edge43" class="edge">
<title>Node31&#45;&gt;Node40</title>
<path fill="none" stroke="midnightblue" d="M336.81,-222.41C287.49,-212.2 213.81,-196.96 168.16,-187.52"/>
<polygon fill="midnightblue" stroke="midnightblue" points="336.14,-225.84 346.64,-224.44 337.56,-218.99 336.14,-225.84"/>
</g>
<!-- Node41 -->
<g id="node41" class="node">
<title>Node41</title>
<g id="a_node41"><a xlink:href="stl__extension_8hpp.html" target="_top" xlink:title=" ">
<polygon fill="white" stroke="black" points="621.5,-168.5 621.5,-187.5 724.5,-187.5 724.5,-168.5 621.5,-168.5"/>
<text text-anchor="middle" x="673" y="-175.5" font-family="Helvetica,sans-Serif" font-size="10.00">stl_extension.hpp</text>
</a>
</g>
</g>
<!-- Node31&#45;&gt;Node41 -->
<g id="edge46" class="edge">
<title>Node31&#45;&gt;Node41</title>
<path fill="none" stroke="midnightblue" d="M443.22,-222.54C497.08,-212.33 578,-197 628.05,-187.52"/>
<polygon fill="midnightblue" stroke="midnightblue" points="442.33,-219.14 433.16,-224.44 443.64,-226.02 442.33,-219.14"/>
</g>
<!-- Node35 -->
<g id="node35" class="node">
<title>Node35</title>
<g id="a_node35"><a xlink:href="ThreadPool_8hpp.html" target="_top" xlink:title=" ">
<polygon fill="white" stroke="black" points="266,-112.5 266,-131.5 358,-131.5 358,-112.5 266,-112.5"/>
<text text-anchor="middle" x="312" y="-119.5" font-family="Helvetica,sans-Serif" font-size="10.00">ThreadPool.hpp</text>
</a>
</g>
</g>
<!-- Node34&#45;&gt;Node35 -->
<g id="edge37" class="edge">
<title>Node34&#45;&gt;Node35</title>
<path fill="none" stroke="midnightblue" d="M367.42,-162.38C353.69,-152.62 336.07,-140.11 324.43,-131.83"/>
<polygon fill="midnightblue" stroke="midnightblue" points="365.61,-165.38 375.79,-168.32 369.66,-159.68 365.61,-165.38"/>
</g>
<!-- Node35&#45;&gt;Node32 -->
<g id="edge38" class="edge">
<title>Node35&#45;&gt;Node32</title>
<path fill="none" stroke="midnightblue" d="M259.44,-110.41C208.79,-100.2 133.13,-84.96 86.27,-75.52"/>
<polygon fill="midnightblue" stroke="midnightblue" points="259.04,-113.9 269.53,-112.44 260.42,-107.04 259.04,-113.9"/>
</g>
<!-- Node36 -->
<g id="node36" class="node">
<title>Node36</title>
<g id="a_node36"><a xlink:href="ResourceLoader_8hpp.html" target="_top" xlink:title=" ">
<polygon fill="white" stroke="black" points="254.5,-56.5 254.5,-75.5 369.5,-75.5 369.5,-56.5 254.5,-56.5"/>
<text text-anchor="middle" x="312" y="-63.5" font-family="Helvetica,sans-Serif" font-size="10.00">ResourceLoader.hpp</text>
</a>
</g>
</g>
<!-- Node35&#45;&gt;Node36 -->
<g id="edge39" class="edge">
<title>Node35&#45;&gt;Node36</title>
<path fill="none" stroke="midnightblue" d="M312,-101.8C312,-92.91 312,-82.78 312,-75.75"/>
<polygon fill="midnightblue" stroke="midnightblue" points="308.5,-102.08 312,-112.08 315.5,-102.08 308.5,-102.08"/>
</g>
<!-- Node35&#45;&gt;Node38 -->
<g id="edge41" class="edge">
<title>Node35&#45;&gt;Node38</title>
<path fill="none" stroke="midnightblue" d="M281.78,-108.64C257.01,-98.5 222.6,-84.43 200.82,-75.52"/>
<polygon fill="midnightblue" stroke="midnightblue" points="280.5,-111.9 291.08,-112.44 283.15,-105.42 280.5,-111.9"/>
</g>
<!-- Node35&#45;&gt;Node39 -->
<g id="edge42" class="edge">
<title>Node35&#45;&gt;Node39</title>
<path fill="none" stroke="midnightblue" d="M343.93,-108.77C370.41,-98.63 407.39,-84.47 430.76,-75.52"/>
<polygon fill="midnightblue" stroke="midnightblue" points="342.43,-105.6 334.34,-112.44 344.93,-112.14 342.43,-105.6"/>
</g>
<!-- Node37 -->
<g id="node37" class="node">
<title>Node37</title>
<g id="a_node37"><a xlink:href="ResourceQueue_8hpp.html" target="_top" xlink:title=" ">
<polygon fill="white" stroke="black" points="255,-0.5 255,-19.5 369,-19.5 369,-0.5 255,-0.5"/>
<text text-anchor="middle" x="312" y="-7.5" font-family="Helvetica,sans-Serif" font-size="10.00">ResourceQueue.hpp</text>
</a>
</g>
</g>
<!-- Node36&#45;&gt;Node37 -->
<g id="edge40" class="edge">
<title>Node36&#45;&gt;Node37</title>
<path fill="none" stroke="midnightblue" d="M312,-45.8C312,-36.91 312,-26.78 312,-19.75"/>
<polygon fill="midnightblue" stroke="midnightblue" points="308.5,-46.08 312,-56.08 315.5,-46.08 308.5,-46.08"/>
</g>
<!-- Node42&#45;&gt;Node4 -->
<g id="edge48" class="edge">
<title>Node42&#45;&gt;Node4</title>
<path fill="none" stroke="midnightblue" d="M706.96,-222.49C763.69,-211.22 851.64,-193.76 896.9,-184.78"/>
<polygon fill="midnightblue" stroke="midnightblue" points="706.23,-219.06 697.1,-224.44 707.59,-225.93 706.23,-219.06"/>
</g>
<!-- Node42&#45;&gt;Node41 -->
<g id="edge50" class="edge">
<title>Node42&#45;&gt;Node41</title>
<path fill="none" stroke="midnightblue" d="M660.55,-214.4C663.72,-205.36 667.39,-194.94 669.92,-187.75"/>
<polygon fill="midnightblue" stroke="midnightblue" points="657.15,-213.49 657.14,-224.08 663.76,-215.81 657.15,-213.49"/>
</g>
<!-- Node43 -->
<g id="node43" class="node">
<title>Node43</title>
<g id="a_node43"><a xlink:href="base_8hpp.html" target="_top" xlink:title=" ">
<polygon fill="white" stroke="black" points="742.5,-168.5 742.5,-187.5 803.5,-187.5 803.5,-168.5 742.5,-168.5"/>
<text text-anchor="middle" x="773" y="-175.5" font-family="Helvetica,sans-Serif" font-size="10.00">base.hpp</text>
</a>
</g>
</g>
<!-- Node42&#45;&gt;Node43 -->
<g id="edge49" class="edge">
<title>Node42&#45;&gt;Node43</title>
<path fill="none" stroke="midnightblue" d="M682.14,-220.23C704.4,-210.13 734.86,-196.31 754.23,-187.52"/>
<polygon fill="midnightblue" stroke="midnightblue" points="680.52,-217.12 672.86,-224.44 683.41,-223.5 680.52,-217.12"/>
</g>
</g>
</svg>
