<?xml version="1.0" encoding="UTF-8" standalone="no"?>
<!DOCTYPE svg PUBLIC "-//W3C//DTD SVG 1.1//EN"
 "http://www.w3.org/Graphics/SVG/1.1/DTD/svg11.dtd">
<!-- Generated by graphviz version 2.43.0 (0)
 -->
<!-- Title: Color.hpp Pages: 1 -->
<!--zoomable 530 -->
<svg id="main" version="1.1" xmlns="http://www.w3.org/2000/svg" xmlns:xlink="http://www.w3.org/1999/xlink" xml:space="preserve" onload="init(evt)">
<style type="text/css"><![CDATA[
.edge:hover path { stroke: red; }
.edge:hover polygon { stroke: red; fill: red; }
]]></style>
<script type="text/javascript"><![CDATA[
var edges = document.getElementsByTagName('g');
if (edges && edges.length) {
  for (var i=0;i<edges.length;i++) {
    if (edges[i].id.substr(0,4)=='edge') {
      edges[i].setAttribute('class','edge');
    }
  }
}
]]></script>
        <defs>
                <circle id="rim" cx="0" cy="0" r="7"/>
                <circle id="rim2" cx="0" cy="0" r="3.5"/>
                <g id="zoomPlus">
                        <use xlink:href="#rim" fill="#404040">
                                <set attributeName="fill" to="#808080" begin="zoomplus.mouseover" end="zoomplus.mouseout"/>
                        </use>
                        <path d="M-4,0h8M0,-4v8" fill="none" stroke="white" stroke-width="1.5" pointer-events="none"/>
                </g>
                <g id="zoomMin">
                        <use xlink:href="#rim" fill="#404040">
                                <set attributeName="fill" to="#808080" begin="zoomminus.mouseover" end="zoomminus.mouseout"/>
                        </use>
                        <path d="M-4,0h8" fill="none" stroke="white" stroke-width="1.5" pointer-events="none"/>
                </g>
                <g id="dirArrow">
                        <path fill="none" stroke="white" stroke-width="1.5" d="M0,-3.0v7 M-2.5,-0.5L0,-3.0L2.5,-0.5"/>
                </g>
               <g id="resetDef">
                       <use xlink:href="#rim2" fill="#404040">
                               <set attributeName="fill" to="#808080" begin="reset.mouseover" end="reset.mouseout"/>
                       </use>
               </g>
        </defs>

<script type="text/javascript">
var viewWidth = 1455;
var viewHeight = 530;
var sectionId = 'dynsection-0';
</script>
<script xlink:href="svgpan.js"/>
<svg id="graph" class="graph">
<g id="viewport">
<title>Color.hpp</title>
<polygon fill="white" stroke="transparent" points="-4,4 -4,-526 1451.26,-526 1451.26,4 -4,4"/>
<!-- Node1 -->
<g id="node1" class="node">
<title>Node1</title>
<g id="a_node1"><a xlink:title=" ">
<polygon fill="#bfbfbf" stroke="black" points="1266.76,-502.5 1266.76,-521.5 1328.76,-521.5 1328.76,-502.5 1266.76,-502.5"/>
<text text-anchor="middle" x="1297.76" y="-509.5" font-family="Helvetica,sans-Serif" font-size="10.00">Color.hpp</text>
</a>
</g>
</g>
<!-- Node2 -->
<g id="node2" class="node">
<title>Node2</title>
<g id="a_node2"><a xlink:href="types_8hpp.html" target="_top" xlink:title=" ">
<polygon fill="white" stroke="black" points="974.76,-134.5 974.76,-164.5 1084.76,-164.5 1084.76,-134.5 974.76,-134.5"/>
<text text-anchor="start" x="982.76" y="-152.5" font-family="Helvetica,sans-Serif" font-size="10.00">packages/types/inc</text>
<text text-anchor="middle" x="1029.76" y="-141.5" font-family="Helvetica,sans-Serif" font-size="10.00">/types.hpp</text>
</a>
</g>
</g>
<!-- Node1&#45;&gt;Node2 -->
<g id="edge1" class="edge">
<title>Node1&#45;&gt;Node2</title>
<path fill="none" stroke="midnightblue" d="M1297.76,-502.35C1297.76,-481.26 1297.76,-425.52 1297.76,-379 1297.76,-379 1297.76,-379 1297.76,-299 1297.76,-254.63 1310,-232.51 1278.76,-201 1265.83,-187.96 1164.32,-170.51 1094.97,-159.91"/>
<polygon fill="midnightblue" stroke="midnightblue" points="1095.4,-156.43 1084.99,-158.4 1094.35,-163.36 1095.4,-156.43"/>
</g>
<!-- Node12 -->
<g id="node12" class="node">
<title>Node12</title>
<g id="a_node12"><a xlink:href="OutputStream_8hpp.html" target="_top" xlink:title=" ">
<polygon fill="white" stroke="black" points="692.26,-435.5 692.26,-465.5 811.26,-465.5 811.26,-435.5 692.26,-435.5"/>
<text text-anchor="start" x="700.26" y="-453.5" font-family="Helvetica,sans-Serif" font-size="10.00">packages/logging/inc</text>
<text text-anchor="middle" x="751.76" y="-442.5" font-family="Helvetica,sans-Serif" font-size="10.00">/OutputStream.hpp</text>
</a>
</g>
</g>
<!-- Node1&#45;&gt;Node12 -->
<g id="edge11" class="edge">
<title>Node1&#45;&gt;Node12</title>
<path fill="none" stroke="midnightblue" d="M1266.44,-507.59C1180.79,-498.25 941.1,-472.13 821.48,-459.1"/>
<polygon fill="midnightblue" stroke="midnightblue" points="821.66,-455.6 811.34,-457.99 820.9,-462.56 821.66,-455.6"/>
</g>
<!-- Node18 -->
<g id="node18" class="node">
<title>Node18</title>
<g id="a_node18"><a xlink:title=" ">
<polygon fill="white" stroke="#bfbfbf" points="1272.76,-140 1272.76,-159 1322.76,-159 1322.76,-140 1272.76,-140"/>
<text text-anchor="middle" x="1297.76" y="-147" font-family="Helvetica,sans-Serif" font-size="10.00">cstdint</text>
</a>
</g>
</g>
<!-- Node1&#45;&gt;Node18 -->
<g id="edge56" class="edge">
<title>Node1&#45;&gt;Node18</title>
<path fill="none" stroke="midnightblue" d="M1302.12,-502.29C1312.1,-481.51 1335.76,-427.17 1335.76,-379 1335.76,-379 1335.76,-379 1335.76,-299 1335.76,-250.6 1316.58,-196.03 1305.48,-168.47"/>
<polygon fill="midnightblue" stroke="midnightblue" points="1308.61,-166.9 1301.54,-159.01 1302.15,-169.59 1308.61,-166.9"/>
</g>
<!-- Node36 -->
<g id="node36" class="node">
<title>Node36</title>
<g id="a_node36"><a xlink:title=" ">
<polygon fill="white" stroke="#bfbfbf" points="1161.26,-368.5 1161.26,-387.5 1218.26,-387.5 1218.26,-368.5 1161.26,-368.5"/>
<text text-anchor="middle" x="1189.76" y="-375.5" font-family="Helvetica,sans-Serif" font-size="10.00">ostream</text>
</a>
</g>
</g>
<!-- Node1&#45;&gt;Node36 -->
<g id="edge58" class="edge">
<title>Node1&#45;&gt;Node36</title>
<path fill="none" stroke="midnightblue" d="M1290.67,-502.34C1272.9,-480.61 1226.19,-423.52 1203.09,-395.29"/>
<polygon fill="midnightblue" stroke="midnightblue" points="1205.77,-393.04 1196.73,-387.52 1200.36,-397.48 1205.77,-393.04"/>
</g>
<!-- Node39 -->
<g id="node39" class="node">
<title>Node39</title>
<g id="a_node39"><a xlink:title=" ">
<polygon fill="white" stroke="#bfbfbf" points="1364.26,-441 1364.26,-460 1447.26,-460 1447.26,-441 1364.26,-441"/>
<text text-anchor="middle" x="1405.76" y="-448" font-family="Helvetica,sans-Serif" font-size="10.00">initializer_list</text>
</a>
</g>
</g>
<!-- Node1&#45;&gt;Node39 -->
<g id="edge57" class="edge">
<title>Node1&#45;&gt;Node39</title>
<path fill="none" stroke="midnightblue" d="M1313.23,-502.48C1331.04,-492.67 1360.5,-476.43 1381.39,-464.92"/>
<polygon fill="midnightblue" stroke="midnightblue" points="1383.25,-467.9 1390.32,-460.01 1379.87,-461.77 1383.25,-467.9"/>
</g>
<!-- Node3 -->
<g id="node3" class="node">
<title>Node3</title>
<g id="a_node3"><a xlink:href="debug_8hpp.html" target="_top" xlink:title=" ">
<polygon fill="white" stroke="black" points="970.26,-67.5 970.26,-97.5 1089.26,-97.5 1089.26,-67.5 970.26,-67.5"/>
<text text-anchor="start" x="978.26" y="-85.5" font-family="Helvetica,sans-Serif" font-size="10.00">packages/macros/inc</text>
<text text-anchor="middle" x="1029.76" y="-74.5" font-family="Helvetica,sans-Serif" font-size="10.00">/debug.hpp</text>
</a>
</g>
</g>
<!-- Node2&#45;&gt;Node3 -->
<g id="edge2" class="edge">
<title>Node2&#45;&gt;Node3</title>
<path fill="none" stroke="midnightblue" d="M1029.76,-134.4C1029.76,-126.64 1029.76,-116.81 1029.76,-107.86"/>
<polygon fill="midnightblue" stroke="midnightblue" points="1033.26,-107.58 1029.76,-97.58 1026.26,-107.58 1033.26,-107.58"/>
</g>
<!-- Node6 -->
<g id="node6" class="node">
<title>Node6</title>
<g id="a_node6"><a xlink:title=" ">
<polygon fill="white" stroke="#bfbfbf" points="1107.26,-73 1107.26,-92 1160.26,-92 1160.26,-73 1107.26,-73"/>
<text text-anchor="middle" x="1133.76" y="-80" font-family="Helvetica,sans-Serif" font-size="10.00">cstddef</text>
</a>
</g>
</g>
<!-- Node2&#45;&gt;Node6 -->
<g id="edge5" class="edge">
<title>Node2&#45;&gt;Node6</title>
<path fill="none" stroke="midnightblue" d="M1052.33,-134.4C1069.77,-123.5 1093.79,-108.48 1111.23,-97.58"/>
<polygon fill="midnightblue" stroke="midnightblue" points="1113.52,-100.28 1120.15,-92.01 1109.81,-94.34 1113.52,-100.28"/>
</g>
<!-- Node7 -->
<g id="node7" class="node">
<title>Node7</title>
<g id="a_node7"><a xlink:title=" ">
<polygon fill="white" stroke="#bfbfbf" points="85.76,-73 85.76,-92 129.76,-92 129.76,-73 85.76,-73"/>
<text text-anchor="middle" x="107.76" y="-80" font-family="Helvetica,sans-Serif" font-size="10.00">string</text>
</a>
</g>
</g>
<!-- Node2&#45;&gt;Node7 -->
<g id="edge6" class="edge">
<title>Node2&#45;&gt;Node7</title>
<path fill="none" stroke="midnightblue" d="M974.5,-144.6C801.83,-132.43 275.79,-95.35 140.01,-85.77"/>
<polygon fill="midnightblue" stroke="midnightblue" points="140.08,-82.27 129.85,-85.06 139.58,-89.25 140.08,-82.27"/>
</g>
<!-- Node8 -->
<g id="node8" class="node">
<title>Node8</title>
<g id="a_node8"><a xlink:title=" ">
<polygon fill="white" stroke="#bfbfbf" points="746.26,-73 746.26,-92 815.26,-92 815.26,-73 746.26,-73"/>
<text text-anchor="middle" x="780.76" y="-80" font-family="Helvetica,sans-Serif" font-size="10.00">type_traits</text>
</a>
</g>
</g>
<!-- Node2&#45;&gt;Node8 -->
<g id="edge7" class="edge">
<title>Node2&#45;&gt;Node8</title>
<path fill="none" stroke="midnightblue" d="M974.34,-136.26C932.68,-126.73 874.33,-112.69 823.76,-98 820.83,-97.15 817.8,-96.22 814.77,-95.26"/>
<polygon fill="midnightblue" stroke="midnightblue" points="815.8,-91.92 805.21,-92.14 813.63,-98.57 815.8,-91.92"/>
</g>
<!-- Node9 -->
<g id="node9" class="node">
<title>Node9</title>
<g id="a_node9"><a xlink:title=" ">
<polygon fill="white" stroke="#bfbfbf" points="1178.76,-73 1178.76,-92 1228.76,-92 1228.76,-73 1178.76,-73"/>
<text text-anchor="middle" x="1203.76" y="-80" font-family="Helvetica,sans-Serif" font-size="10.00">climits</text>
</a>
</g>
</g>
<!-- Node2&#45;&gt;Node9 -->
<g id="edge8" class="edge">
<title>Node2&#45;&gt;Node9</title>
<path fill="none" stroke="midnightblue" d="M1069.78,-134.49C1097.65,-124.6 1135.61,-110.88 1168.76,-98 1170.4,-97.36 1172.09,-96.7 1173.78,-96.02"/>
<polygon fill="midnightblue" stroke="midnightblue" points="1175.52,-99.09 1183.46,-92.09 1172.88,-92.61 1175.52,-99.09"/>
</g>
<!-- Node10 -->
<g id="node10" class="node">
<title>Node10</title>
<g id="a_node10"><a xlink:title=" ">
<polygon fill="white" stroke="#bfbfbf" points="1247.26,-67.5 1247.26,-97.5 1364.26,-97.5 1364.26,-67.5 1247.26,-67.5"/>
<text text-anchor="start" x="1255.26" y="-85.5" font-family="Helvetica,sans-Serif" font-size="10.00">packages/types/impl</text>
<text text-anchor="middle" x="1305.76" y="-74.5" font-family="Helvetica,sans-Serif" font-size="10.00">/types_impl.hpp</text>
</a>
</g>
</g>
<!-- Node2&#45;&gt;Node10 -->
<g id="edge9" class="edge">
<title>Node2&#45;&gt;Node10</title>
<path fill="none" stroke="midnightblue" d="M1084.95,-135.5C1128.72,-125.2 1190.12,-110.74 1237.06,-99.68"/>
<polygon fill="midnightblue" stroke="midnightblue" points="1237.92,-103.07 1246.85,-97.37 1236.31,-96.26 1237.92,-103.07"/>
</g>
<!-- Node11 -->
<g id="node11" class="node">
<title>Node11</title>
<g id="a_node11"><a xlink:href="logging_8hpp.html" target="_top" xlink:title=" ">
<polygon fill="white" stroke="black" points="833.26,-67.5 833.26,-97.5 952.26,-97.5 952.26,-67.5 833.26,-67.5"/>
<text text-anchor="start" x="841.26" y="-85.5" font-family="Helvetica,sans-Serif" font-size="10.00">packages/macros/inc</text>
<text text-anchor="middle" x="892.76" y="-74.5" font-family="Helvetica,sans-Serif" font-size="10.00">/logging.hpp</text>
</a>
</g>
</g>
<!-- Node2&#45;&gt;Node11 -->
<g id="edge10" class="edge">
<title>Node2&#45;&gt;Node11</title>
<path fill="none" stroke="midnightblue" d="M1000.03,-134.4C980.02,-124.9 953.41,-112.28 931.71,-101.98"/>
<polygon fill="midnightblue" stroke="midnightblue" points="932.96,-98.7 922.43,-97.58 929.96,-105.03 932.96,-98.7"/>
</g>
<!-- Node4 -->
<g id="node4" class="node">
<title>Node4</title>
<g id="a_node4"><a xlink:href="detail_8hpp.html" target="_top" xlink:title=" ">
<polygon fill="white" stroke="black" points="354.26,-0.5 354.26,-30.5 473.26,-30.5 473.26,-0.5 354.26,-0.5"/>
<text text-anchor="start" x="362.26" y="-18.5" font-family="Helvetica,sans-Serif" font-size="10.00">packages/macros/inc</text>
<text text-anchor="middle" x="413.76" y="-7.5" font-family="Helvetica,sans-Serif" font-size="10.00">/detail.hpp</text>
</a>
</g>
</g>
<!-- Node3&#45;&gt;Node4 -->
<g id="edge3" class="edge">
<title>Node3&#45;&gt;Node4</title>
<path fill="none" stroke="midnightblue" d="M970,-68.5C966.88,-67.96 963.79,-67.46 960.76,-67 790.32,-41.31 587.91,-26.72 483.61,-20.37"/>
<polygon fill="midnightblue" stroke="midnightblue" points="483.72,-16.87 473.52,-19.76 483.3,-23.85 483.72,-16.87"/>
</g>
<!-- Node5 -->
<g id="node5" class="node">
<title>Node5</title>
<g id="a_node5"><a xlink:title=" ">
<polygon fill="white" stroke="#bfbfbf" points="999.76,-6 999.76,-25 1059.76,-25 1059.76,-6 999.76,-6"/>
<text text-anchor="middle" x="1029.76" y="-13" font-family="Helvetica,sans-Serif" font-size="10.00">iostream</text>
</a>
</g>
</g>
<!-- Node3&#45;&gt;Node5 -->
<g id="edge4" class="edge">
<title>Node3&#45;&gt;Node5</title>
<path fill="none" stroke="midnightblue" d="M1029.76,-67.4C1029.76,-58.06 1029.76,-45.71 1029.76,-35.52"/>
<polygon fill="midnightblue" stroke="midnightblue" points="1033.26,-35.19 1029.76,-25.19 1026.26,-35.19 1033.26,-35.19"/>
</g>
<!-- Node13 -->
<g id="node13" class="node">
<title>Node13</title>
<g id="a_node13"><a xlink:href="typedefs_8hpp.html" target="_top" xlink:title=" ">
<polygon fill="white" stroke="black" points="592.26,-285 592.26,-315 711.26,-315 711.26,-285 592.26,-285"/>
<text text-anchor="start" x="600.26" y="-303" font-family="Helvetica,sans-Serif" font-size="10.00">packages/macros/inc</text>
<text text-anchor="middle" x="651.76" y="-292" font-family="Helvetica,sans-Serif" font-size="10.00">/typedefs.hpp</text>
</a>
</g>
</g>
<!-- Node12&#45;&gt;Node13 -->
<g id="edge12" class="edge">
<title>Node12&#45;&gt;Node13</title>
<path fill="none" stroke="midnightblue" d="M734.34,-435.32C723.45,-425.84 709.66,-412.65 699.76,-399 682.82,-375.65 669.05,-345.41 660.67,-324.73"/>
<polygon fill="midnightblue" stroke="midnightblue" points="663.82,-323.17 656.9,-315.15 657.31,-325.74 663.82,-323.17"/>
</g>
<!-- Node14 -->
<g id="node14" class="node">
<title>Node14</title>
<g id="a_node14"><a xlink:title=" ">
<polygon fill="white" stroke="#bfbfbf" points="544.76,-140 544.76,-159 602.76,-159 602.76,-140 544.76,-140"/>
<text text-anchor="middle" x="573.76" y="-147" font-family="Helvetica,sans-Serif" font-size="10.00">memory</text>
</a>
</g>
</g>
<!-- Node12&#45;&gt;Node14 -->
<g id="edge54" class="edge">
<title>Node12&#45;&gt;Node14</title>
<path fill="none" stroke="midnightblue" d="M718.06,-435.49C677.22,-416.43 610.45,-378.03 582.76,-321 558.33,-270.67 565.03,-201.87 570.24,-169.2"/>
<polygon fill="midnightblue" stroke="midnightblue" points="573.71,-169.69 571.97,-159.24 566.81,-168.49 573.71,-169.69"/>
</g>
<!-- Node15 -->
<g id="node15" class="node">
<title>Node15</title>
<g id="a_node15"><a xlink:href="streamable_8hpp.html" target="_top" xlink:title=" ">
<polygon fill="white" stroke="black" points="729.76,-279.5 729.76,-320.5 861.76,-320.5 861.76,-279.5 729.76,-279.5"/>
<text text-anchor="start" x="737.76" y="-308.5" font-family="Helvetica,sans-Serif" font-size="10.00">packages/compile_time</text>
<text text-anchor="start" x="737.76" y="-297.5" font-family="Helvetica,sans-Serif" font-size="10.00">/packages/concepts/inc</text>
<text text-anchor="middle" x="795.76" y="-286.5" font-family="Helvetica,sans-Serif" font-size="10.00">/streamable.hpp</text>
</a>
</g>
</g>
<!-- Node12&#45;&gt;Node15 -->
<g id="edge14" class="edge">
<title>Node12&#45;&gt;Node15</title>
<path fill="none" stroke="midnightblue" d="M734.96,-435.47C725.28,-426.24 714.01,-413.26 708.76,-399 702.31,-381.48 699.82,-373.39 708.76,-357 715.61,-344.44 726.63,-334.27 738.55,-326.23"/>
<polygon fill="midnightblue" stroke="midnightblue" points="740.71,-329 747.34,-320.74 737,-323.06 740.71,-329"/>
</g>
<!-- Node22 -->
<g id="node22" class="node">
<title>Node22</title>
<g id="a_node22"><a xlink:href="container__concepts_8hpp.html" target="_top" xlink:title=" ">
<polygon fill="white" stroke="black" points="958.26,-357.5 958.26,-398.5 1093.26,-398.5 1093.26,-357.5 958.26,-357.5"/>
<text text-anchor="start" x="966.26" y="-386.5" font-family="Helvetica,sans-Serif" font-size="10.00">packages/compile_time</text>
<text text-anchor="start" x="966.26" y="-375.5" font-family="Helvetica,sans-Serif" font-size="10.00">/packages/concepts/inc</text>
<text text-anchor="middle" x="1025.76" y="-364.5" font-family="Helvetica,sans-Serif" font-size="10.00">/container_concepts.hpp</text>
</a>
</g>
</g>
<!-- Node12&#45;&gt;Node22 -->
<g id="edge23" class="edge">
<title>Node12&#45;&gt;Node22</title>
<path fill="none" stroke="midnightblue" d="M806.97,-435.4C844.23,-425.87 894.78,-412.92 948.46,-399.07"/>
<polygon fill="midnightblue" stroke="midnightblue" points="949.35,-402.46 958.16,-396.57 947.6,-395.68 949.35,-402.46"/>
</g>
<!-- Node28 -->
<g id="node28" class="node">
<title>Node28</title>
<g id="a_node28"><a xlink:href="checks_8hpp.html" target="_top" xlink:title=" ">
<polygon fill="white" stroke="black" points="334.26,-363 334.26,-393 453.26,-393 453.26,-363 334.26,-363"/>
<text text-anchor="start" x="342.26" y="-381" font-family="Helvetica,sans-Serif" font-size="10.00">packages/macros/inc</text>
<text text-anchor="middle" x="393.76" y="-370" font-family="Helvetica,sans-Serif" font-size="10.00">/checks.hpp</text>
</a>
</g>
</g>
<!-- Node12&#45;&gt;Node28 -->
<g id="edge34" class="edge">
<title>Node12&#45;&gt;Node28</title>
<path fill="none" stroke="midnightblue" d="M692.24,-437.78C629.27,-425.38 529.98,-405.82 463.41,-392.71"/>
<polygon fill="midnightblue" stroke="midnightblue" points="463.91,-389.25 453.42,-390.75 462.56,-396.12 463.91,-389.25"/>
</g>
<!-- Node12&#45;&gt;Node36 -->
<g id="edge52" class="edge">
<title>Node12&#45;&gt;Node36</title>
<path fill="none" stroke="midnightblue" d="M811.45,-442.37C881.31,-433.68 1000.35,-417.81 1101.76,-399 1117.91,-396.01 1135.58,-392.11 1150.83,-388.55"/>
<polygon fill="midnightblue" stroke="midnightblue" points="1152.02,-391.87 1160.95,-386.16 1150.41,-385.06 1152.02,-391.87"/>
</g>
<!-- Node37 -->
<g id="node37" class="node">
<title>Node37</title>
<g id="a_node37"><a xlink:title=" ">
<polygon fill="white" stroke="#bfbfbf" points="718.26,-368.5 718.26,-387.5 785.26,-387.5 785.26,-368.5 718.26,-368.5"/>
<text text-anchor="middle" x="751.76" y="-375.5" font-family="Helvetica,sans-Serif" font-size="10.00">streambuf</text>
</a>
</g>
</g>
<!-- Node12&#45;&gt;Node37 -->
<g id="edge53" class="edge">
<title>Node12&#45;&gt;Node37</title>
<path fill="none" stroke="midnightblue" d="M751.76,-435.23C751.76,-424.5 751.76,-409.69 751.76,-397.96"/>
<polygon fill="midnightblue" stroke="midnightblue" points="755.26,-397.89 751.76,-387.89 748.26,-397.89 755.26,-397.89"/>
</g>
<!-- Node38 -->
<g id="node38" class="node">
<title>Node38</title>
<g id="a_node38"><a xlink:title=" ">
<polygon fill="white" stroke="#bfbfbf" points="803.76,-363 803.76,-393 939.76,-393 939.76,-363 803.76,-363"/>
<text text-anchor="start" x="811.76" y="-381" font-family="Helvetica,sans-Serif" font-size="10.00">packages/logging/impl</text>
<text text-anchor="middle" x="871.76" y="-370" font-family="Helvetica,sans-Serif" font-size="10.00">/OutputStream_impl.hpp</text>
</a>
</g>
</g>
<!-- Node12&#45;&gt;Node38 -->
<g id="edge55" class="edge">
<title>Node12&#45;&gt;Node38</title>
<path fill="none" stroke="midnightblue" d="M775.76,-435.4C793.91,-424.74 819.03,-409.98 839.02,-398.23"/>
<polygon fill="midnightblue" stroke="midnightblue" points="840.96,-401.16 847.81,-393.07 837.41,-395.12 840.96,-401.16"/>
</g>
<!-- Node13&#45;&gt;Node14 -->
<g id="edge13" class="edge">
<title>Node13&#45;&gt;Node14</title>
<path fill="none" stroke="midnightblue" d="M643.72,-284.81C637.38,-273.53 628.37,-257.33 620.76,-243 607.08,-217.22 591.89,-187.03 582.59,-168.33"/>
<polygon fill="midnightblue" stroke="midnightblue" points="585.65,-166.63 578.06,-159.22 579.38,-169.74 585.65,-166.63"/>
</g>
<!-- Node16 -->
<g id="node16" class="node">
<title>Node16</title>
<g id="a_node16"><a xlink:href="basic__concepts_8hpp.html" target="_top" xlink:title=" ">
<polygon fill="white" stroke="black" points="733.76,-201.5 733.76,-242.5 865.76,-242.5 865.76,-201.5 733.76,-201.5"/>
<text text-anchor="start" x="741.76" y="-230.5" font-family="Helvetica,sans-Serif" font-size="10.00">packages/compile_time</text>
<text text-anchor="start" x="741.76" y="-219.5" font-family="Helvetica,sans-Serif" font-size="10.00">/packages/concepts/inc</text>
<text text-anchor="middle" x="799.76" y="-208.5" font-family="Helvetica,sans-Serif" font-size="10.00">/basic_concepts.hpp</text>
</a>
</g>
</g>
<!-- Node15&#45;&gt;Node16 -->
<g id="edge15" class="edge">
<title>Node15&#45;&gt;Node16</title>
<path fill="none" stroke="midnightblue" d="M796.79,-279.43C797.22,-271.27 797.73,-261.62 798.2,-252.63"/>
<polygon fill="midnightblue" stroke="midnightblue" points="801.7,-252.68 798.73,-242.51 794.71,-252.31 801.7,-252.68"/>
</g>
<!-- Node20 -->
<g id="node20" class="node">
<title>Node20</title>
<g id="a_node20"><a xlink:title=" ">
<polygon fill="white" stroke="#bfbfbf" points="479.76,-212.5 479.76,-231.5 535.76,-231.5 535.76,-212.5 479.76,-212.5"/>
<text text-anchor="middle" x="507.76" y="-219.5" font-family="Helvetica,sans-Serif" font-size="10.00">sstream</text>
</a>
</g>
</g>
<!-- Node15&#45;&gt;Node20 -->
<g id="edge21" class="edge">
<title>Node15&#45;&gt;Node20</title>
<path fill="none" stroke="midnightblue" d="M729.69,-281.56C672.75,-266.54 592.56,-245.38 545.78,-233.03"/>
<polygon fill="midnightblue" stroke="midnightblue" points="546.61,-229.63 536.05,-230.46 544.82,-236.4 546.61,-229.63"/>
</g>
<!-- Node21 -->
<g id="node21" class="node">
<title>Node21</title>
<g id="a_node21"><a xlink:title=" ">
<polygon fill="white" stroke="#bfbfbf" points="629.76,-212.5 629.76,-231.5 677.76,-231.5 677.76,-212.5 629.76,-212.5"/>
<text text-anchor="middle" x="653.76" y="-219.5" font-family="Helvetica,sans-Serif" font-size="10.00">iosfwd</text>
</a>
</g>
</g>
<!-- Node15&#45;&gt;Node21 -->
<g id="edge22" class="edge">
<title>Node15&#45;&gt;Node21</title>
<path fill="none" stroke="midnightblue" d="M759.19,-279.43C733.88,-265.88 700.87,-248.21 678.58,-236.28"/>
<polygon fill="midnightblue" stroke="midnightblue" points="680.21,-233.19 669.74,-231.55 676.9,-239.36 680.21,-233.19"/>
</g>
<!-- Node16&#45;&gt;Node2 -->
<g id="edge16" class="edge">
<title>Node16&#45;&gt;Node2</title>
<path fill="none" stroke="midnightblue" d="M863.52,-201.46C898.25,-190.81 940.81,-177.76 974.18,-167.54"/>
<polygon fill="midnightblue" stroke="midnightblue" points="975.24,-170.87 983.77,-164.6 973.18,-164.18 975.24,-170.87"/>
</g>
<!-- Node16&#45;&gt;Node8 -->
<g id="edge18" class="edge">
<title>Node16&#45;&gt;Node8</title>
<path fill="none" stroke="midnightblue" d="M797.04,-201.3C793.37,-174.78 786.9,-127.94 783.32,-102.03"/>
<polygon fill="midnightblue" stroke="midnightblue" points="786.78,-101.46 781.94,-92.04 779.84,-102.42 786.78,-101.46"/>
</g>
<!-- Node17 -->
<g id="node17" class="node">
<title>Node17</title>
<g id="a_node17"><a xlink:title=" ">
<polygon fill="white" stroke="#bfbfbf" points="638.76,-140 638.76,-159 698.76,-159 698.76,-140 638.76,-140"/>
<text text-anchor="middle" x="668.76" y="-147" font-family="Helvetica,sans-Serif" font-size="10.00">concepts</text>
</a>
</g>
</g>
<!-- Node16&#45;&gt;Node17 -->
<g id="edge17" class="edge">
<title>Node16&#45;&gt;Node17</title>
<path fill="none" stroke="midnightblue" d="M763.27,-201.36C741.15,-189.46 713.5,-174.58 693.83,-163.99"/>
<polygon fill="midnightblue" stroke="midnightblue" points="695.34,-160.83 684.88,-159.17 692.02,-166.99 695.34,-160.83"/>
</g>
<!-- Node16&#45;&gt;Node18 -->
<g id="edge19" class="edge">
<title>Node16&#45;&gt;Node18</title>
<path fill="none" stroke="midnightblue" d="M865.89,-202.76C868.88,-202.13 871.84,-201.54 874.76,-201 1028.57,-172.77 1070.12,-188.26 1224.76,-165 1237.11,-163.14 1250.55,-160.62 1262.48,-158.2"/>
<polygon fill="midnightblue" stroke="midnightblue" points="1263.44,-161.57 1272.52,-156.12 1262.02,-154.72 1263.44,-161.57"/>
</g>
<!-- Node19 -->
<g id="node19" class="node">
<title>Node19</title>
<g id="a_node19"><a xlink:title=" ">
<polygon fill="white" stroke="#bfbfbf" points="726.26,-140 726.26,-159 771.26,-159 771.26,-140 726.26,-140"/>
<text text-anchor="middle" x="748.76" y="-147" font-family="Helvetica,sans-Serif" font-size="10.00">utility</text>
</a>
</g>
</g>
<!-- Node16&#45;&gt;Node19 -->
<g id="edge20" class="edge">
<title>Node16&#45;&gt;Node19</title>
<path fill="none" stroke="midnightblue" d="M785.55,-201.36C777.8,-190.65 768.31,-177.52 760.91,-167.29"/>
<polygon fill="midnightblue" stroke="midnightblue" points="763.73,-165.22 755.04,-159.17 758.06,-169.33 763.73,-165.22"/>
</g>
<!-- Node23 -->
<g id="node23" class="node">
<title>Node23</title>
<g id="a_node23"><a xlink:href="iterator__concepts_8hpp.html" target="_top" xlink:title=" ">
<polygon fill="white" stroke="black" points="919.76,-279.5 919.76,-320.5 1051.76,-320.5 1051.76,-279.5 919.76,-279.5"/>
<text text-anchor="start" x="927.76" y="-308.5" font-family="Helvetica,sans-Serif" font-size="10.00">packages/compile_time</text>
<text text-anchor="start" x="927.76" y="-297.5" font-family="Helvetica,sans-Serif" font-size="10.00">/packages/concepts/inc</text>
<text text-anchor="middle" x="985.76" y="-286.5" font-family="Helvetica,sans-Serif" font-size="10.00">/iterator_concepts.hpp</text>
</a>
</g>
</g>
<!-- Node22&#45;&gt;Node23 -->
<g id="edge24" class="edge">
<title>Node22&#45;&gt;Node23</title>
<path fill="none" stroke="midnightblue" d="M1015.46,-357.43C1010.98,-348.92 1005.65,-338.78 1000.74,-329.46"/>
<polygon fill="midnightblue" stroke="midnightblue" points="1003.78,-327.72 996.03,-320.51 997.59,-330.98 1003.78,-327.72"/>
</g>
<!-- Node23&#45;&gt;Node14 -->
<g id="edge33" class="edge">
<title>Node23&#45;&gt;Node14</title>
<path fill="none" stroke="midnightblue" d="M919.46,-286.97C847.8,-273.62 741.54,-252.68 724.76,-243 702.96,-230.42 707.13,-215.79 686.76,-201 663.48,-184.1 633.64,-171.07 610.48,-162.48"/>
<polygon fill="midnightblue" stroke="midnightblue" points="611.59,-159.16 601,-159.07 609.22,-165.74 611.59,-159.16"/>
</g>
<!-- Node23&#45;&gt;Node16 -->
<g id="edge25" class="edge">
<title>Node23&#45;&gt;Node16</title>
<path fill="none" stroke="midnightblue" d="M937.86,-279.43C913.13,-269.32 882.78,-256.92 856.84,-246.32"/>
<polygon fill="midnightblue" stroke="midnightblue" points="858.08,-243.05 847.5,-242.51 855.43,-249.53 858.08,-243.05"/>
</g>
<!-- Node24 -->
<g id="node24" class="node">
<title>Node24</title>
<g id="a_node24"><a xlink:href="Size_8hpp.html" target="_top" xlink:title=" ">
<polygon fill="white" stroke="black" points="955.76,-201.5 955.76,-242.5 1103.76,-242.5 1103.76,-201.5 955.76,-201.5"/>
<text text-anchor="start" x="963.76" y="-230.5" font-family="Helvetica,sans-Serif" font-size="10.00">packages/compile_time</text>
<text text-anchor="start" x="963.76" y="-219.5" font-family="Helvetica,sans-Serif" font-size="10.00">/packages/parameter_pack</text>
<text text-anchor="middle" x="1029.76" y="-208.5" font-family="Helvetica,sans-Serif" font-size="10.00">/inc/Size.hpp</text>
</a>
</g>
</g>
<!-- Node23&#45;&gt;Node24 -->
<g id="edge26" class="edge">
<title>Node23&#45;&gt;Node24</title>
<path fill="none" stroke="midnightblue" d="M997.09,-279.43C1002.07,-270.83 1008.01,-260.57 1013.45,-251.17"/>
<polygon fill="midnightblue" stroke="midnightblue" points="1016.49,-252.91 1018.47,-242.51 1010.43,-249.41 1016.49,-252.91"/>
</g>
<!-- Node25 -->
<g id="node25" class="node">
<title>Node25</title>
<g id="a_node25"><a xlink:href="Select_8hpp.html" target="_top" xlink:title=" ">
<polygon fill="white" stroke="black" points="1121.76,-201.5 1121.76,-242.5 1269.76,-242.5 1269.76,-201.5 1121.76,-201.5"/>
<text text-anchor="start" x="1129.76" y="-230.5" font-family="Helvetica,sans-Serif" font-size="10.00">packages/compile_time</text>
<text text-anchor="start" x="1129.76" y="-219.5" font-family="Helvetica,sans-Serif" font-size="10.00">/packages/parameter_pack</text>
<text text-anchor="middle" x="1195.76" y="-208.5" font-family="Helvetica,sans-Serif" font-size="10.00">/inc/Select.hpp</text>
</a>
</g>
</g>
<!-- Node23&#45;&gt;Node25 -->
<g id="edge28" class="edge">
<title>Node23&#45;&gt;Node25</title>
<path fill="none" stroke="midnightblue" d="M1039.84,-279.43C1068.01,-269.23 1102.63,-256.7 1132.09,-246.04"/>
<polygon fill="midnightblue" stroke="midnightblue" points="1133.65,-249.2 1141.86,-242.51 1131.27,-242.62 1133.65,-249.2"/>
</g>
<!-- Node27 -->
<g id="node27" class="node">
<title>Node27</title>
<g id="a_node27"><a xlink:title=" ">
<polygon fill="white" stroke="#bfbfbf" points="884.26,-212.5 884.26,-231.5 937.26,-231.5 937.26,-212.5 884.26,-212.5"/>
<text text-anchor="middle" x="910.76" y="-219.5" font-family="Helvetica,sans-Serif" font-size="10.00">iterator</text>
</a>
</g>
</g>
<!-- Node23&#45;&gt;Node27 -->
<g id="edge32" class="edge">
<title>Node23&#45;&gt;Node27</title>
<path fill="none" stroke="midnightblue" d="M966.45,-279.43C954.03,-266.85 938.11,-250.72 926.48,-238.92"/>
<polygon fill="midnightblue" stroke="midnightblue" points="928.72,-236.21 919.2,-231.55 923.73,-241.13 928.72,-236.21"/>
</g>
<!-- Node24&#45;&gt;Node2 -->
<g id="edge27" class="edge">
<title>Node24&#45;&gt;Node2</title>
<path fill="none" stroke="midnightblue" d="M1029.76,-201.36C1029.76,-193.23 1029.76,-183.7 1029.76,-175.11"/>
<polygon fill="midnightblue" stroke="midnightblue" points="1033.26,-174.89 1029.76,-164.89 1026.26,-174.89 1033.26,-174.89"/>
</g>
<!-- Node25&#45;&gt;Node2 -->
<g id="edge29" class="edge">
<title>Node25&#45;&gt;Node2</title>
<path fill="none" stroke="midnightblue" d="M1149.52,-201.36C1125.32,-191.08 1095.9,-178.59 1072.27,-168.55"/>
<polygon fill="midnightblue" stroke="midnightblue" points="1073.44,-165.25 1062.87,-164.56 1070.7,-171.69 1073.44,-165.25"/>
</g>
<!-- Node25&#45;&gt;Node8 -->
<g id="edge30" class="edge">
<title>Node25&#45;&gt;Node8</title>
<path fill="none" stroke="midnightblue" d="M1121.51,-203.09C1055.77,-187.2 969.59,-166.3 965.76,-165 907.43,-145.22 842.13,-114.26 806.83,-96.74"/>
<polygon fill="midnightblue" stroke="midnightblue" points="808.21,-93.52 797.7,-92.18 805.08,-99.78 808.21,-93.52"/>
</g>
<!-- Node26 -->
<g id="node26" class="node">
<title>Node26</title>
<g id="a_node26"><a xlink:title=" ">
<polygon fill="white" stroke="#bfbfbf" points="1175.26,-140 1175.26,-159 1216.26,-159 1216.26,-140 1175.26,-140"/>
<text text-anchor="middle" x="1195.76" y="-147" font-family="Helvetica,sans-Serif" font-size="10.00">tuple</text>
</a>
</g>
</g>
<!-- Node25&#45;&gt;Node26 -->
<g id="edge31" class="edge">
<title>Node25&#45;&gt;Node26</title>
<path fill="none" stroke="midnightblue" d="M1195.76,-201.36C1195.76,-191.3 1195.76,-179.1 1195.76,-169.18"/>
<polygon fill="midnightblue" stroke="midnightblue" points="1199.26,-169.17 1195.76,-159.17 1192.26,-169.17 1199.26,-169.17"/>
</g>
<!-- Node28&#45;&gt;Node4 -->
<g id="edge47" class="edge">
<title>Node28&#45;&gt;Node4</title>
<path fill="none" stroke="midnightblue" d="M385.43,-362.83C379.47,-351.84 371.96,-336 368.76,-321 364.87,-302.74 367.18,-297.6 368.76,-279 376.31,-190.28 397.96,-86.51 408.23,-40.53"/>
<polygon fill="midnightblue" stroke="midnightblue" points="411.68,-41.14 410.47,-30.62 404.85,-39.6 411.68,-41.14"/>
</g>
<!-- Node28&#45;&gt;Node20 -->
<g id="edge51" class="edge">
<title>Node28&#45;&gt;Node20</title>
<path fill="none" stroke="midnightblue" d="M448.73,-362.97C470.3,-354.51 492.92,-341.3 505.76,-321 520.95,-296.98 517.17,-262.6 512.71,-241.59"/>
<polygon fill="midnightblue" stroke="midnightblue" points="516.08,-240.61 510.35,-231.7 509.27,-242.24 516.08,-240.61"/>
</g>
<!-- Node29 -->
<g id="node29" class="node">
<title>Node29</title>
<g id="a_node29"><a xlink:href="exception_8hpp.html" target="_top" xlink:title=" ">
<polygon fill="white" stroke="black" points="218.26,-207 218.26,-237 337.26,-237 337.26,-207 218.26,-207"/>
<text text-anchor="start" x="226.26" y="-225" font-family="Helvetica,sans-Serif" font-size="10.00">packages/exceptions</text>
<text text-anchor="middle" x="277.76" y="-214" font-family="Helvetica,sans-Serif" font-size="10.00">/inc/exception.hpp</text>
</a>
</g>
</g>
<!-- Node28&#45;&gt;Node29 -->
<g id="edge35" class="edge">
<title>Node28&#45;&gt;Node29</title>
<path fill="none" stroke="midnightblue" d="M376.83,-362.85C364.58,-352.12 348.08,-336.6 335.76,-321 316.93,-297.16 299.81,-266.63 289.13,-246.03"/>
<polygon fill="midnightblue" stroke="midnightblue" points="292.21,-244.38 284.56,-237.06 285.98,-247.56 292.21,-244.38"/>
</g>
<!-- Node33 -->
<g id="node33" class="node">
<title>Node33</title>
<g id="a_node33"><a xlink:href="exceptions_8hpp.html" target="_top" xlink:title=" ">
<polygon fill="white" stroke="black" points="378.26,-285 378.26,-315 497.26,-315 497.26,-285 378.26,-285"/>
<text text-anchor="start" x="386.26" y="-303" font-family="Helvetica,sans-Serif" font-size="10.00">packages/macros/inc</text>
<text text-anchor="middle" x="437.76" y="-292" font-family="Helvetica,sans-Serif" font-size="10.00">/exceptions.hpp</text>
</a>
</g>
</g>
<!-- Node28&#45;&gt;Node33 -->
<g id="edge42" class="edge">
<title>Node28&#45;&gt;Node33</title>
<path fill="none" stroke="midnightblue" d="M402.04,-362.7C408.31,-351.88 417.05,-336.77 424.32,-324.22"/>
<polygon fill="midnightblue" stroke="midnightblue" points="427.54,-325.64 429.52,-315.23 421.48,-322.13 427.54,-325.64"/>
</g>
<!-- Node34 -->
<g id="node34" class="node">
<title>Node34</title>
<g id="a_node34"><a xlink:href="cmake__variables_8hpp.html" target="_top" xlink:title=" ">
<polygon fill="white" stroke="black" points="48.76,-290.5 48.76,-309.5 168.76,-309.5 168.76,-290.5 48.76,-290.5"/>
<text text-anchor="middle" x="108.76" y="-297.5" font-family="Helvetica,sans-Serif" font-size="10.00">cmake_variables.hpp</text>
</a>
</g>
</g>
<!-- Node28&#45;&gt;Node34 -->
<g id="edge48" class="edge">
<title>Node28&#45;&gt;Node34</title>
<path fill="none" stroke="midnightblue" d="M341.16,-362.97C286.23,-348.33 201.2,-325.65 150.65,-312.17"/>
<polygon fill="midnightblue" stroke="midnightblue" points="151.28,-308.72 140.71,-309.52 149.47,-315.48 151.28,-308.72"/>
</g>
<!-- Node29&#45;&gt;Node2 -->
<g id="edge36" class="edge">
<title>Node29&#45;&gt;Node2</title>
<path fill="none" stroke="midnightblue" d="M337.3,-214.63C375.44,-210.59 426,-205.34 470.76,-201 649.34,-183.68 860.2,-165.15 964.53,-156.11"/>
<polygon fill="midnightblue" stroke="midnightblue" points="964.93,-159.59 974.59,-155.24 964.33,-152.62 964.93,-159.59"/>
</g>
<!-- Node29&#45;&gt;Node7 -->
<g id="edge38" class="edge">
<title>Node29&#45;&gt;Node7</title>
<path fill="none" stroke="midnightblue" d="M218.14,-212.7C186.7,-205.3 149.96,-191.33 126.76,-165 111.56,-147.75 107.89,-120.68 107.31,-102.53"/>
<polygon fill="midnightblue" stroke="midnightblue" points="110.81,-102.3 107.27,-92.31 103.81,-102.32 110.81,-102.3"/>
</g>
<!-- Node29&#45;&gt;Node14 -->
<g id="edge40" class="edge">
<title>Node29&#45;&gt;Node14</title>
<path fill="none" stroke="midnightblue" d="M336.59,-206.99C395.43,-192.97 484.23,-171.82 534.83,-159.77"/>
<polygon fill="midnightblue" stroke="midnightblue" points="535.8,-163.14 544.72,-157.42 534.18,-156.33 535.8,-163.14"/>
</g>
<!-- Node30 -->
<g id="node30" class="node">
<title>Node30</title>
<g id="a_node30"><a xlink:title=" ">
<polygon fill="white" stroke="#bfbfbf" points="14.26,-140 14.26,-159 79.26,-159 79.26,-140 14.26,-140"/>
<text text-anchor="middle" x="46.76" y="-147" font-family="Helvetica,sans-Serif" font-size="10.00">stdexcept</text>
</a>
</g>
</g>
<!-- Node29&#45;&gt;Node30 -->
<g id="edge37" class="edge">
<title>Node29&#45;&gt;Node30</title>
<path fill="none" stroke="midnightblue" d="M231.24,-206.89C194.03,-195.6 140.53,-179.33 93.76,-165 90.66,-164.05 87.44,-163.06 84.21,-162.07"/>
<polygon fill="midnightblue" stroke="midnightblue" points="85.18,-158.7 74.59,-159.1 83.12,-165.39 85.18,-158.7"/>
</g>
<!-- Node31 -->
<g id="node31" class="node">
<title>Node31</title>
<g id="a_node31"><a xlink:title=" ">
<polygon fill="white" stroke="#bfbfbf" points="136.26,-140 136.26,-159 183.26,-159 183.26,-140 136.26,-140"/>
<text text-anchor="middle" x="159.76" y="-147" font-family="Helvetica,sans-Serif" font-size="10.00">deque</text>
</a>
</g>
</g>
<!-- Node29&#45;&gt;Node31 -->
<g id="edge39" class="edge">
<title>Node29&#45;&gt;Node31</title>
<path fill="none" stroke="midnightblue" d="M254.17,-206.9C233.4,-194.5 203.36,-176.55 182.77,-164.25"/>
<polygon fill="midnightblue" stroke="midnightblue" points="184.42,-161.16 174.04,-159.03 180.83,-167.17 184.42,-161.16"/>
</g>
<!-- Node32 -->
<g id="node32" class="node">
<title>Node32</title>
<g id="a_node32"><a xlink:title=" ">
<polygon fill="white" stroke="#bfbfbf" points="201.76,-134.5 201.76,-164.5 347.76,-164.5 347.76,-134.5 201.76,-134.5"/>
<text text-anchor="start" x="209.76" y="-152.5" font-family="Helvetica,sans-Serif" font-size="10.00">packages/exceptions</text>
<text text-anchor="middle" x="274.76" y="-141.5" font-family="Helvetica,sans-Serif" font-size="10.00">/impl/exceptions_impl.hpp</text>
</a>
</g>
</g>
<!-- Node29&#45;&gt;Node32 -->
<g id="edge41" class="edge">
<title>Node29&#45;&gt;Node32</title>
<path fill="none" stroke="midnightblue" d="M277.15,-206.73C276.76,-197.56 276.25,-185.41 275.79,-174.74"/>
<polygon fill="midnightblue" stroke="midnightblue" points="279.29,-174.59 275.37,-164.75 272.3,-174.89 279.29,-174.59"/>
</g>
<!-- Node33&#45;&gt;Node4 -->
<g id="edge44" class="edge">
<title>Node33&#45;&gt;Node4</title>
<path fill="none" stroke="midnightblue" d="M436.57,-284.99C432.74,-239.9 420.7,-98.15 415.83,-40.87"/>
<polygon fill="midnightblue" stroke="midnightblue" points="419.29,-40.26 414.96,-30.59 412.32,-40.85 419.29,-40.26"/>
</g>
<!-- Node33&#45;&gt;Node17 -->
<g id="edge46" class="edge">
<title>Node33&#45;&gt;Node17</title>
<path fill="none" stroke="midnightblue" d="M438.43,-284.74C440.23,-263.38 446.81,-223.22 470.76,-201 470.95,-200.83 571.02,-175.36 628.8,-160.66"/>
<polygon fill="midnightblue" stroke="midnightblue" points="629.9,-163.99 638.72,-158.14 628.17,-157.21 629.9,-163.99"/>
</g>
<!-- Node33&#45;&gt;Node20 -->
<g id="edge45" class="edge">
<title>Node33&#45;&gt;Node20</title>
<path fill="none" stroke="midnightblue" d="M450.93,-284.7C462.87,-271.74 480.45,-252.66 492.89,-239.15"/>
<polygon fill="midnightblue" stroke="midnightblue" points="495.67,-241.29 499.87,-231.56 490.52,-236.55 495.67,-241.29"/>
</g>
<!-- Node33&#45;&gt;Node29 -->
<g id="edge43" class="edge">
<title>Node33&#45;&gt;Node29</title>
<path fill="none" stroke="midnightblue" d="M408.04,-284.88C382.22,-272.62 344.65,-254.77 316.48,-241.39"/>
<polygon fill="midnightblue" stroke="midnightblue" points="317.86,-238.17 307.32,-237.04 314.85,-244.49 317.86,-238.17"/>
</g>
<!-- Node34&#45;&gt;Node7 -->
<g id="edge50" class="edge">
<title>Node34&#45;&gt;Node7</title>
<path fill="none" stroke="midnightblue" d="M98.41,-290.27C76.06,-270.66 23.75,-220.44 4.76,-165 0.3,-151.97 -2.53,-145.69 4.76,-134 20.16,-109.3 51.54,-96.35 75.63,-89.78"/>
<polygon fill="midnightblue" stroke="midnightblue" points="76.59,-93.14 85.45,-87.33 74.9,-86.35 76.59,-93.14"/>
</g>
<!-- Node35 -->
<g id="node35" class="node">
<title>Node35</title>
<g id="a_node35"><a xlink:title=" ">
<polygon fill="white" stroke="#bfbfbf" points="74.76,-212.5 74.76,-231.5 142.76,-231.5 142.76,-212.5 74.76,-212.5"/>
<text text-anchor="middle" x="108.76" y="-219.5" font-family="Helvetica,sans-Serif" font-size="10.00">filesystem</text>
</a>
</g>
</g>
<!-- Node34&#45;&gt;Node35 -->
<g id="edge49" class="edge">
<title>Node34&#45;&gt;Node35</title>
<path fill="none" stroke="midnightblue" d="M108.76,-290.28C108.76,-278.49 108.76,-257.13 108.76,-241.64"/>
<polygon fill="midnightblue" stroke="midnightblue" points="112.26,-241.62 108.76,-231.62 105.26,-241.62 112.26,-241.62"/>
</g>
</g>
</svg>
        <g id="navigator" transform="translate(0 0)" fill="#404254">
                <rect fill="#f2f5e9" fill-opacity="0.5" stroke="#606060" stroke-width=".5" x="0" y="0" width="60" height="60"/>
                <use id="zoomplus" xlink:href="#zoomPlus" x="17" y="9" onmousedown="handleZoom(evt,'in')"/>
                <use id="zoomminus" xlink:href="#zoomMin" x="42" y="9" onmousedown="handleZoom(evt,'out')"/>
                <use id="reset" xlink:href="#resetDef" x="30" y="36" onmousedown="handleReset()"/>
                <g id="arrowUp" xlink:href="#dirArrow" transform="translate(30 24)" onmousedown="handlePan(0,-1)">
                  <use xlink:href="#rim" fill="#404040">
                        <set attributeName="fill" to="#808080" begin="arrowUp.mouseover" end="arrowUp.mouseout"/>
                  </use>
                  <path fill="none" stroke="white" stroke-width="1.5" d="M0,-3.0v7 M-2.5,-0.5L0,-3.0L2.5,-0.5"/>
                </g>
                <g id="arrowRight" xlink:href="#dirArrow" transform="rotate(90) translate(36 -43)" onmousedown="handlePan(1,0)">
                  <use xlink:href="#rim" fill="#404040">
                        <set attributeName="fill" to="#808080" begin="arrowRight.mouseover" end="arrowRight.mouseout"/>
                  </use>
                  <path fill="none" stroke="white" stroke-width="1.5" d="M0,-3.0v7 M-2.5,-0.5L0,-3.0L2.5,-0.5"/>
                </g>
                <g id="arrowDown" xlink:href="#dirArrow" transform="rotate(180) translate(-30 -48)" onmousedown="handlePan(0,1)">
                  <use xlink:href="#rim" fill="#404040">
                        <set attributeName="fill" to="#808080" begin="arrowDown.mouseover" end="arrowDown.mouseout"/>
                  </use>
                  <path fill="none" stroke="white" stroke-width="1.5" d="M0,-3.0v7 M-2.5,-0.5L0,-3.0L2.5,-0.5"/>
                </g>
                <g id="arrowLeft" xlink:href="#dirArrow" transform="rotate(270) translate(-36 17)" onmousedown="handlePan(-1,0)">
                  <use xlink:href="#rim" fill="#404040">
                        <set attributeName="fill" to="#808080" begin="arrowLeft.mouseover" end="arrowLeft.mouseout"/>
                  </use>
                  <path fill="none" stroke="white" stroke-width="1.5" d="M0,-3.0v7 M-2.5,-0.5L0,-3.0L2.5,-0.5"/>
                </g>
        </g>
        <svg viewBox="0 0 15 15" width="100%" height="30px" preserveAspectRatio="xMaxYMin meet">
         <g id="arrow_out" transform="scale(0.3 0.3)">
          <a xlink:href="Color_8hpp__incl_org.svg" target="_base">
           <rect id="button" ry="5" rx="5" y="6" x="6" height="38" width="38"
                fill="#f2f5e9" fill-opacity="0.5" stroke="#606060" stroke-width="1.0"/>
           <path id="arrow"
             d="M 11.500037,31.436501 C 11.940474,20.09759 22.043105,11.32322 32.158766,21.979434 L 37.068811,17.246167 C 37.068811,17.246167 37.088388,32 37.088388,32 L 22.160133,31.978069 C 22.160133,31.978069 26.997745,27.140456 26.997745,27.140456 C 18.528582,18.264221 13.291696,25.230495 11.500037,31.436501 z"
             style="fill:#404040;"/>
          </a>
         </g>
        </svg>
</svg>
