<?xml version="1.0" encoding="UTF-8" standalone="no"?>
<!DOCTYPE svg PUBLIC "-//W3C//DTD SVG 1.1//EN"
 "http://www.w3.org/Graphics/SVG/1.1/DTD/svg11.dtd">
<!-- Generated by graphviz version 2.43.0 (0)
 -->
<!-- Title: Color.hpp Pages: 1 -->
<!--zoomable 522 -->

<svg id="main" version="1.1" xmlns="http://www.w3.org/2000/svg" xmlns:xlink="http://www.w3.org/1999/xlink" xml:space="preserve" onload="init(evt)">
<style type="text/css"><![CDATA[
.node, .edge {opacity: 0.7;}
.node.selected, .edge.selected {opacity: 1;}
.edge:hover path { stroke: red; }
.edge:hover polygon { stroke: red; fill: red; }
]]></style>

<defs>
  <circle id="rim" cx="0" cy="0" r="7"/>
  <circle id="rim2" cx="0" cy="0" r="3.5"/>
  <g id="zoomPlus">
    <use xlink:href="#rim" fill="#404040"><set attributeName="fill" to="#808080" begin="zoomplus.mouseover" end="zoomplus.mouseout"/></use>
    <path d="M-4,0h8M0,-4v8" fill="none" stroke="white" stroke-width="1.5" pointer-events="none"/>
  </g>
  <g id="zoomMin">
    <use xlink:href="#rim" fill="#404040"><set attributeName="fill" to="#808080" begin="zoomminus.mouseover" end="zoomminus.mouseout"/></use>
    <path d="M-4,0h8" fill="none" stroke="white" stroke-width="1.5" pointer-events="none"/>
  </g>
  <g id="arrowUp" transform="translate(30 24)">
    <use xlink:href="#rim"/>
    <path pointer-events="none" fill="none" stroke="white" stroke-width="1.5" d="M0,-3.0v7 M-2.5,-0.5L0,-3.0L2.5,-0.5"/>
  </g>
  <g id="arrowRight" transform="rotate(90) translate(36 -43)">
    <use xlink:href="#rim"/>
    <path pointer-events="none" fill="none" stroke="white" stroke-width="1.5" d="M0,-3.0v7 M-2.5,-0.5L0,-3.0L2.5,-0.5"/>
  </g>
  <g id="arrowDown" transform="rotate(180) translate(-30 -48)">
    <use xlink:href="#rim"/>
    <path pointer-events="none" fill="none" stroke="white" stroke-width="1.5" d="M0,-3.0v7 M-2.5,-0.5L0,-3.0L2.5,-0.5"/>
  </g>
  <g id="arrowLeft" transform="rotate(270) translate(-36 17)">
    <use xlink:href="#rim"/>
    <path pointer-events="none" fill="none" stroke="white" stroke-width="1.5" d="M0,-3.0v7 M-2.5,-0.5L0,-3.0L2.5,-0.5"/>
  </g>
  <g id="resetDef">
    <use xlink:href="#rim2" fill="#404040"><set attributeName="fill" to="#808080" begin="reset.mouseover" end="reset.mouseout"/></use>
  </g>
</defs>
<script type="application/ecmascript">
var viewWidth = 1327;
var viewHeight = 522;
var sectionId = 'dynsection-0';
</script>
<script type="application/ecmascript" xlink:href="svg.min.js"/>
<svg id="graph" class="graph">
<g id="viewport">
<title>Color.hpp</title>
<!-- Node1 -->
<g id="Node000001" class="node">
<title>Node1</title>
<g id="a_Node000001"><a xlink:title=" ">
<polygon fill="#999999" stroke="#666666" points="999,-514 937,-514 937,-495 999,-495 999,-514"/>
<text text-anchor="middle" x="968" y="-502" font-family="Helvetica,sans-Serif" font-size="10.00">Color.hpp</text>
</a>
</g>
</g>
<!-- Node2 -->
<g id="Node000002" class="node">
<title>Node2</title>
<g id="a_Node000002"><a xlink:href="types_8hpp.html" target="_top" xlink:title=" ">
<polygon fill="white" stroke="#666666" points="814,-162 704,-162 704,-132 814,-132 814,-162"/>
<text text-anchor="start" x="712" y="-150" font-family="Helvetica,sans-Serif" font-size="10.00">packages/types/inc</text>
<text text-anchor="middle" x="759" y="-139" font-family="Helvetica,sans-Serif" font-size="10.00">/types.hpp</text>
</a>
</g>
</g>
<!-- Node1&#45;&gt;Node2 -->
<g id="edge1_Node000001_Node000002" class="edge">
<title>Node1&#45;&gt;Node2</title>
<g id="a_edge1_Node000001_Node000002"><a xlink:title=" ">
<path fill="none" stroke="#63b8ff" d="M936.89,-503.09C822.94,-500.84 431.39,-486.32 361,-393 302.47,-315.4 373.17,-241.67 460,-198 534.27,-160.65 630.72,-150.35 693.7,-147.95"/>
<polygon fill="#63b8ff" stroke="#63b8ff" points="694.02,-151.44 703.9,-147.62 693.79,-144.44 694.02,-151.44"/>
</a>
</g>
</g>
<!-- Node12 -->
<g id="Node000012" class="node">
<title>Node12</title>
<g id="a_Node000012"><a xlink:href="OutputStream_8hpp.html" target="_top" xlink:title=" ">
<polygon fill="white" stroke="#666666" points="720.5,-459 601.5,-459 601.5,-429 720.5,-429 720.5,-459"/>
<text text-anchor="start" x="609.5" y="-447" font-family="Helvetica,sans-Serif" font-size="10.00">packages/logging/inc</text>
<text text-anchor="middle" x="661" y="-436" font-family="Helvetica,sans-Serif" font-size="10.00">/OutputStream.hpp</text>
</a>
</g>
</g>
<!-- Node1&#45;&gt;Node12 -->
<g id="edge11_Node000001_Node000012" class="edge">
<title>Node1&#45;&gt;Node12</title>
<g id="a_edge11_Node000001_Node000012"><a xlink:title=" ">
<path fill="none" stroke="#63b8ff" d="M936.87,-497.57C888.83,-488.41 795.42,-470.61 730.68,-458.28"/>
<polygon fill="#63b8ff" stroke="#63b8ff" points="731.03,-454.78 720.55,-456.35 729.72,-461.66 731.03,-454.78"/>
</a>
</g>
</g>
<!-- Node18 -->
<g id="Node000018" class="node">
<title>Node18</title>
<g id="a_Node000018"><a xlink:title=" ">
<polygon fill="#e0e0e0" stroke="#999999" points="1210,-156.5 1160,-156.5 1160,-137.5 1210,-137.5 1210,-156.5"/>
<text text-anchor="middle" x="1185" y="-144.5" font-family="Helvetica,sans-Serif" font-size="10.00">cstdint</text>
</a>
</g>
</g>
<!-- Node1&#45;&gt;Node18 -->
<g id="edge54_Node000001_Node000018" class="edge">
<title>Node1&#45;&gt;Node18</title>
<g id="a_edge54_Node000001_Node000018"><a xlink:title=" ">
<path fill="none" stroke="#63b8ff" d="M999.25,-500.91C1064.03,-493.64 1207,-467.02 1207,-373.5 1207,-373.5 1207,-373.5 1207,-294.5 1207,-247.93 1196,-193.96 1189.55,-166.34"/>
<polygon fill="#63b8ff" stroke="#63b8ff" points="1192.93,-165.42 1187.19,-156.52 1186.13,-167.06 1192.93,-165.42"/>
</a>
</g>
</g>
<!-- Node35 -->
<g id="Node000035" class="node">
<title>Node35</title>
<g id="a_Node000035"><a xlink:title=" ">
<polygon fill="#e0e0e0" stroke="#999999" points="996.5,-382 939.5,-382 939.5,-363 996.5,-363 996.5,-382"/>
<text text-anchor="middle" x="968" y="-370" font-family="Helvetica,sans-Serif" font-size="10.00">ostream</text>
</a>
</g>
</g>
<!-- Node1&#45;&gt;Node35 -->
<g id="edge56_Node000001_Node000035" class="edge">
<title>Node1&#45;&gt;Node35</title>
<g id="a_edge56_Node000001_Node000035"><a xlink:title=" ">
<path fill="none" stroke="#63b8ff" d="M968,-494.97C968,-474.32 968,-421.22 968,-392.54"/>
<polygon fill="#63b8ff" stroke="#63b8ff" points="971.5,-392.23 968,-382.23 964.5,-392.23 971.5,-392.23"/>
</a>
</g>
</g>
<!-- Node38 -->
<g id="Node000038" class="node">
<title>Node38</title>
<g id="a_Node000038"><a xlink:title=" ">
<polygon fill="#e0e0e0" stroke="#999999" points="1318.5,-453.5 1235.5,-453.5 1235.5,-434.5 1318.5,-434.5 1318.5,-453.5"/>
<text text-anchor="middle" x="1277" y="-441.5" font-family="Helvetica,sans-Serif" font-size="10.00">initializer_list</text>
</a>
</g>
</g>
<!-- Node1&#45;&gt;Node38 -->
<g id="edge55_Node000001_Node000038" class="edge">
<title>Node1&#45;&gt;Node38</title>
<g id="a_edge55_Node000001_Node000038"><a xlink:title=" ">
<path fill="none" stroke="#63b8ff" d="M999.3,-498.73C1047.23,-491.25 1141.61,-475.88 1221,-459 1225.42,-458.06 1230.02,-457.02 1234.6,-455.94"/>
<polygon fill="#63b8ff" stroke="#63b8ff" points="1235.62,-459.29 1244.52,-453.53 1233.97,-452.49 1235.62,-459.29"/>
</a>
</g>
</g>
<!-- Node3 -->
<g id="Node000003" class="node">
<title>Node3</title>
<g id="a_Node000003"><a xlink:href="debug_8hpp.html" target="_top" xlink:title=" ">
<polygon fill="white" stroke="#666666" points="783.5,-96 664.5,-96 664.5,-66 783.5,-66 783.5,-96"/>
<text text-anchor="start" x="672.5" y="-84" font-family="Helvetica,sans-Serif" font-size="10.00">packages/macros/inc</text>
<text text-anchor="middle" x="724" y="-73" font-family="Helvetica,sans-Serif" font-size="10.00">/debug.hpp</text>
</a>
</g>
</g>
<!-- Node2&#45;&gt;Node3 -->
<g id="edge2_Node000002_Node000003" class="edge">
<title>Node2&#45;&gt;Node3</title>
<g id="a_edge2_Node000002_Node000003"><a xlink:title=" ">
<path fill="none" stroke="#63b8ff" d="M751.23,-131.8C746.93,-123.92 741.47,-113.95 736.57,-104.99"/>
<polygon fill="#63b8ff" stroke="#63b8ff" points="739.61,-103.26 731.75,-96.16 733.47,-106.62 739.61,-103.26"/>
</a>
</g>
</g>
<!-- Node6 -->
<g id="Node000006" class="node">
<title>Node6</title>
<g id="a_Node000006"><a xlink:title=" ">
<polygon fill="#e0e0e0" stroke="#999999" points="854.5,-90.5 801.5,-90.5 801.5,-71.5 854.5,-71.5 854.5,-90.5"/>
<text text-anchor="middle" x="828" y="-78.5" font-family="Helvetica,sans-Serif" font-size="10.00">cstddef</text>
</a>
</g>
</g>
<!-- Node2&#45;&gt;Node6 -->
<g id="edge5_Node000002_Node000006" class="edge">
<title>Node2&#45;&gt;Node6</title>
<g id="a_edge5_Node000002_Node000006"><a xlink:title=" ">
<path fill="none" stroke="#63b8ff" d="M774.31,-131.8C785.18,-121.72 799.76,-108.19 810.99,-97.78"/>
<polygon fill="#63b8ff" stroke="#63b8ff" points="813.51,-100.21 818.46,-90.84 808.75,-95.08 813.51,-100.21"/>
</a>
</g>
</g>
<!-- Node7 -->
<g id="Node000007" class="node">
<title>Node7</title>
<g id="a_Node000007"><a xlink:title=" ">
<polygon fill="#e0e0e0" stroke="#999999" points="509,-90.5 465,-90.5 465,-71.5 509,-71.5 509,-90.5"/>
<text text-anchor="middle" x="487" y="-78.5" font-family="Helvetica,sans-Serif" font-size="10.00">string</text>
</a>
</g>
</g>
<!-- Node2&#45;&gt;Node7 -->
<g id="edge6_Node000002_Node000007" class="edge">
<title>Node2&#45;&gt;Node7</title>
<g id="a_edge6_Node000002_Node000007"><a xlink:title=" ">
<path fill="none" stroke="#63b8ff" d="M703.55,-138.05C654.11,-130.13 580.17,-116.22 518,-96 516.56,-95.53 515.1,-95.02 513.63,-94.47"/>
<polygon fill="#63b8ff" stroke="#63b8ff" points="514.69,-91.12 504.11,-90.54 512.02,-97.59 514.69,-91.12"/>
</a>
</g>
</g>
<!-- Node8 -->
<g id="Node000008" class="node">
<title>Node8</title>
<g id="a_Node000008"><a xlink:title=" ">
<polygon fill="#e0e0e0" stroke="#999999" points="1145.5,-90.5 1076.5,-90.5 1076.5,-71.5 1145.5,-71.5 1145.5,-90.5"/>
<text text-anchor="middle" x="1111" y="-78.5" font-family="Helvetica,sans-Serif" font-size="10.00">type_traits</text>
</a>
</g>
</g>
<!-- Node2&#45;&gt;Node8 -->
<g id="edge7_Node000002_Node000008" class="edge">
<title>Node2&#45;&gt;Node8</title>
<g id="a_edge7_Node000002_Node000008"><a xlink:title=" ">
<path fill="none" stroke="#63b8ff" d="M814.27,-133.84C817.56,-133.2 820.82,-132.58 824,-132 931.42,-112.5 960.64,-120.63 1067,-96 1070.2,-95.26 1073.51,-94.4 1076.8,-93.47"/>
<polygon fill="#63b8ff" stroke="#63b8ff" points="1077.95,-96.78 1086.53,-90.56 1075.94,-90.07 1077.95,-96.78"/>
</a>
</g>
</g>
<!-- Node9 -->
<g id="Node000009" class="node">
<title>Node9</title>
<g id="a_Node000009"><a xlink:title=" ">
<polygon fill="#e0e0e0" stroke="#999999" points="923,-90.5 873,-90.5 873,-71.5 923,-71.5 923,-90.5"/>
<text text-anchor="middle" x="898" y="-78.5" font-family="Helvetica,sans-Serif" font-size="10.00">climits</text>
</a>
</g>
</g>
<!-- Node2&#45;&gt;Node9 -->
<g id="edge8_Node000002_Node000009" class="edge">
<title>Node2&#45;&gt;Node9</title>
<g id="a_edge8_Node000002_Node000009"><a xlink:title=" ">
<path fill="none" stroke="#63b8ff" d="M789.5,-131.95C813.56,-120.88 846.83,-105.56 870.16,-94.82"/>
<polygon fill="#63b8ff" stroke="#63b8ff" points="871.88,-97.88 879.5,-90.52 868.95,-91.52 871.88,-97.88"/>
</a>
</g>
</g>
<!-- Node10 -->
<g id="Node000010" class="node">
<title>Node10</title>
<g id="a_Node000010"><a xlink:title=" ">
<polygon fill="#e0e0e0" stroke="#999999" points="1058.5,-96 941.5,-96 941.5,-66 1058.5,-66 1058.5,-96"/>
<text text-anchor="start" x="949.5" y="-84" font-family="Helvetica,sans-Serif" font-size="10.00">packages/types/impl</text>
<text text-anchor="middle" x="1000" y="-73" font-family="Helvetica,sans-Serif" font-size="10.00">/types_impl.hpp</text>
</a>
</g>
</g>
<!-- Node2&#45;&gt;Node10 -->
<g id="edge9_Node000002_Node000010" class="edge">
<title>Node2&#45;&gt;Node10</title>
<g id="a_edge9_Node000002_Node000010"><a xlink:title=" ">
<path fill="none" stroke="#63b8ff" d="M811.89,-131.95C848.93,-122.12 898.58,-108.93 937.57,-98.58"/>
<polygon fill="#63b8ff" stroke="#63b8ff" points="938.47,-101.96 947.23,-96.01 936.67,-95.2 938.47,-101.96"/>
</a>
</g>
</g>
<!-- Node11 -->
<g id="Node000011" class="node">
<title>Node11</title>
<g id="a_Node000011"><a xlink:href="logging_8hpp.html" target="_top" xlink:title=" ">
<polygon fill="white" stroke="#666666" points="646.5,-96 527.5,-96 527.5,-66 646.5,-66 646.5,-96"/>
<text text-anchor="start" x="535.5" y="-84" font-family="Helvetica,sans-Serif" font-size="10.00">packages/macros/inc</text>
<text text-anchor="middle" x="587" y="-73" font-family="Helvetica,sans-Serif" font-size="10.00">/logging.hpp</text>
</a>
</g>
</g>
<!-- Node2&#45;&gt;Node11 -->
<g id="edge10_Node000002_Node000011" class="edge">
<title>Node2&#45;&gt;Node11</title>
<g id="a_edge10_Node000002_Node000011"><a xlink:title=" ">
<path fill="none" stroke="#63b8ff" d="M721.25,-131.95C695.6,-122.41 661.48,-109.71 634.05,-99.51"/>
<polygon fill="#63b8ff" stroke="#63b8ff" points="635.25,-96.22 624.66,-96.01 632.81,-102.78 635.25,-96.22"/>
</a>
</g>
</g>
<!-- Node4 -->
<g id="Node000004" class="node">
<title>Node4</title>
<g id="a_Node000004"><a xlink:href="detail_8hpp.html" target="_top" xlink:title=" ">
<polygon fill="white" stroke="#666666" points="496.5,-30 377.5,-30 377.5,0 496.5,0 496.5,-30"/>
<text text-anchor="start" x="385.5" y="-18" font-family="Helvetica,sans-Serif" font-size="10.00">packages/macros/inc</text>
<text text-anchor="middle" x="437" y="-7" font-family="Helvetica,sans-Serif" font-size="10.00">/detail.hpp</text>
</a>
</g>
</g>
<!-- Node3&#45;&gt;Node4 -->
<g id="edge3_Node000003_Node000004" class="edge">
<title>Node3&#45;&gt;Node4</title>
<g id="a_edge3_Node000003_Node000004"><a xlink:title=" ">
<path fill="none" stroke="#63b8ff" d="M664.18,-66.66C618.33,-56.44 554.94,-42.3 506.77,-31.56"/>
<polygon fill="#63b8ff" stroke="#63b8ff" points="507.26,-28.08 496.74,-29.32 505.74,-34.91 507.26,-28.08"/>
</a>
</g>
</g>
<!-- Node5 -->
<g id="Node000005" class="node">
<title>Node5</title>
<g id="a_Node000005"><a xlink:title=" ">
<polygon fill="#e0e0e0" stroke="#999999" points="754,-24.5 694,-24.5 694,-5.5 754,-5.5 754,-24.5"/>
<text text-anchor="middle" x="724" y="-12.5" font-family="Helvetica,sans-Serif" font-size="10.00">iostream</text>
</a>
</g>
</g>
<!-- Node3&#45;&gt;Node5 -->
<g id="edge4_Node000003_Node000005" class="edge">
<title>Node3&#45;&gt;Node5</title>
<g id="a_edge4_Node000003_Node000005"><a xlink:title=" ">
<path fill="none" stroke="#63b8ff" d="M724,-65.8C724,-56.7 724,-44.79 724,-34.9"/>
<polygon fill="#63b8ff" stroke="#63b8ff" points="727.5,-34.84 724,-24.84 720.5,-34.84 727.5,-34.84"/>
</a>
</g>
</g>
<!-- Node13 -->
<g id="Node000013" class="node">
<title>Node13</title>
<g id="a_Node000013"><a xlink:href="typedefs_8hpp.html" target="_top" xlink:title=" ">
<polygon fill="white" stroke="#666666" points="161.5,-310.5 42.5,-310.5 42.5,-280.5 161.5,-280.5 161.5,-310.5"/>
<text text-anchor="start" x="50.5" y="-298.5" font-family="Helvetica,sans-Serif" font-size="10.00">packages/macros/inc</text>
<text text-anchor="middle" x="102" y="-287.5" font-family="Helvetica,sans-Serif" font-size="10.00">/typedefs.hpp</text>
</a>
</g>
</g>
<!-- Node12&#45;&gt;Node13 -->
<g id="edge12_Node000012_Node000013" class="edge">
<title>Node12&#45;&gt;Node13</title>
<g id="a_edge12_Node000012_Node000013"><a xlink:title=" ">
<path fill="none" stroke="#63b8ff" d="M601.32,-439.89C530.37,-434.97 409,-422.7 309,-393 244.47,-373.84 174.49,-337.65 134.67,-315.45"/>
<polygon fill="#63b8ff" stroke="#63b8ff" points="136.36,-312.38 125.93,-310.53 132.93,-318.48 136.36,-312.38"/>
</a>
</g>
</g>
<!-- Node14 -->
<g id="Node000014" class="node">
<title>Node14</title>
<g id="a_Node000014"><a xlink:title=" ">
<polygon fill="#e0e0e0" stroke="#999999" points="58,-156.5 0,-156.5 0,-137.5 58,-137.5 58,-156.5"/>
<text text-anchor="middle" x="29" y="-144.5" font-family="Helvetica,sans-Serif" font-size="10.00">memory</text>
</a>
</g>
</g>
<!-- Node12&#45;&gt;Node14 -->
<g id="edge52_Node000012_Node000014" class="edge">
<title>Node12&#45;&gt;Node14</title>
<g id="a_edge52_Node000012_Node000014"><a xlink:title=" ">
<path fill="none" stroke="#63b8ff" d="M601.22,-441.21C538.98,-437.51 439.77,-426.35 361,-393 223.13,-334.64 89.1,-208.28 44.53,-163.85"/>
<polygon fill="#63b8ff" stroke="#63b8ff" points="46.79,-161.16 37.26,-156.54 41.83,-166.1 46.79,-161.16"/>
</a>
</g>
</g>
<!-- Node15 -->
<g id="Node000015" class="node">
<title>Node15</title>
<g id="a_Node000015"><a xlink:href="streamable_8hpp.html" target="_top" xlink:title=" ">
<polygon fill="white" stroke="#666666" points="1072,-316 940,-316 940,-275 1072,-275 1072,-316"/>
<text text-anchor="start" x="948" y="-304" font-family="Helvetica,sans-Serif" font-size="10.00">packages/compile_time</text>
<text text-anchor="start" x="948" y="-293" font-family="Helvetica,sans-Serif" font-size="10.00">/packages/concepts/inc</text>
<text text-anchor="middle" x="1006" y="-282" font-family="Helvetica,sans-Serif" font-size="10.00">/streamable.hpp</text>
</a>
</g>
</g>
<!-- Node12&#45;&gt;Node15 -->
<g id="edge14_Node000012_Node000015" class="edge">
<title>Node12&#45;&gt;Node15</title>
<g id="a_edge14_Node000012_Node000015"><a xlink:title=" ">
<path fill="none" stroke="#63b8ff" d="M720.63,-439.69C769.18,-434.8 838.11,-422.74 891,-393 912.92,-380.67 911.1,-368.59 930,-352 941.87,-341.58 955.62,-331.11 968.13,-322.12"/>
<polygon fill="#63b8ff" stroke="#63b8ff" points="970.41,-324.79 976.55,-316.15 966.37,-319.08 970.41,-324.79"/>
</a>
</g>
</g>
<!-- Node22 -->
<g id="Node000022" class="node">
<title>Node22</title>
<g id="a_Node000022"><a xlink:href="container__concepts_8hpp.html" target="_top" xlink:title=" ">
<polygon fill="white" stroke="#666666" points="882.5,-393 747.5,-393 747.5,-352 882.5,-352 882.5,-393"/>
<text text-anchor="start" x="755.5" y="-381" font-family="Helvetica,sans-Serif" font-size="10.00">packages/compile_time</text>
<text text-anchor="start" x="755.5" y="-370" font-family="Helvetica,sans-Serif" font-size="10.00">/packages/concepts/inc</text>
<text text-anchor="middle" x="815" y="-359" font-family="Helvetica,sans-Serif" font-size="10.00">/container_concepts.hpp</text>
</a>
</g>
</g>
<!-- Node12&#45;&gt;Node22 -->
<g id="edge23_Node000012_Node000022" class="edge">
<title>Node12&#45;&gt;Node22</title>
<g id="a_edge23_Node000012_Node000022"><a xlink:title=" ">
<path fill="none" stroke="#63b8ff" d="M692.16,-428.94C712.34,-419.83 739.11,-407.75 762.51,-397.19"/>
<polygon fill="#63b8ff" stroke="#63b8ff" points="763.95,-400.38 771.63,-393.07 761.07,-394 763.95,-400.38"/>
</a>
</g>
</g>
<!-- Node28 -->
<g id="Node000028" class="node">
<title>Node28</title>
<g id="a_Node000028"><a xlink:href="checks_8hpp.html" target="_top" xlink:title=" ">
<polygon fill="white" stroke="#666666" points="489.5,-387.5 370.5,-387.5 370.5,-357.5 489.5,-357.5 489.5,-387.5"/>
<text text-anchor="start" x="378.5" y="-375.5" font-family="Helvetica,sans-Serif" font-size="10.00">packages/macros/inc</text>
<text text-anchor="middle" x="430" y="-364.5" font-family="Helvetica,sans-Serif" font-size="10.00">/checks.hpp</text>
</a>
</g>
</g>
<!-- Node12&#45;&gt;Node28 -->
<g id="edge34_Node000012_Node000028" class="edge">
<title>Node12&#45;&gt;Node28</title>
<g id="a_edge34_Node000012_Node000028"><a xlink:title=" ">
<path fill="none" stroke="#63b8ff" d="M614.25,-428.94C577.31,-417.82 525.6,-402.26 486.37,-390.46"/>
<polygon fill="#63b8ff" stroke="#63b8ff" points="487.26,-387.07 476.68,-387.54 485.24,-393.78 487.26,-387.07"/>
</a>
</g>
</g>
<!-- Node12&#45;&gt;Node35 -->
<g id="edge50_Node000012_Node000035" class="edge">
<title>Node12&#45;&gt;Node35</title>
<g id="a_edge50_Node000012_Node000035"><a xlink:title=" ">
<path fill="none" stroke="#63b8ff" d="M720.72,-435.83C774.89,-428.36 856.51,-414.67 925,-393 930.81,-391.16 936.87,-388.75 942.54,-386.25"/>
<polygon fill="#63b8ff" stroke="#63b8ff" points="944.02,-389.42 951.62,-382.04 941.07,-383.07 944.02,-389.42"/>
</a>
</g>
</g>
<!-- Node36 -->
<g id="Node000036" class="node">
<title>Node36</title>
<g id="a_Node000036"><a xlink:title=" ">
<polygon fill="#e0e0e0" stroke="#999999" points="574.5,-382 507.5,-382 507.5,-363 574.5,-363 574.5,-382"/>
<text text-anchor="middle" x="541" y="-370" font-family="Helvetica,sans-Serif" font-size="10.00">streambuf</text>
</a>
</g>
</g>
<!-- Node12&#45;&gt;Node36 -->
<g id="edge51_Node000012_Node000036" class="edge">
<title>Node12&#45;&gt;Node36</title>
<g id="a_edge51_Node000012_Node000036"><a xlink:title=" ">
<path fill="none" stroke="#63b8ff" d="M636.72,-428.94C615.69,-416.76 585.47,-399.26 564.64,-387.19"/>
<polygon fill="#63b8ff" stroke="#63b8ff" points="566.2,-384.05 555.79,-382.07 562.69,-390.11 566.2,-384.05"/>
</a>
</g>
</g>
<!-- Node37 -->
<g id="Node000037" class="node">
<title>Node37</title>
<g id="a_Node000037"><a xlink:title=" ">
<polygon fill="#e0e0e0" stroke="#999999" points="729,-387.5 593,-387.5 593,-357.5 729,-357.5 729,-387.5"/>
<text text-anchor="start" x="601" y="-375.5" font-family="Helvetica,sans-Serif" font-size="10.00">packages/logging/impl</text>
<text text-anchor="middle" x="661" y="-364.5" font-family="Helvetica,sans-Serif" font-size="10.00">/OutputStream_impl.hpp</text>
</a>
</g>
</g>
<!-- Node12&#45;&gt;Node37 -->
<g id="edge53_Node000012_Node000037" class="edge">
<title>Node12&#45;&gt;Node37</title>
<g id="a_edge53_Node000012_Node000037"><a xlink:title=" ">
<path fill="none" stroke="#63b8ff" d="M661,-428.94C661,-419.99 661,-408.16 661,-397.73"/>
<polygon fill="#63b8ff" stroke="#63b8ff" points="664.5,-397.54 661,-387.54 657.5,-397.54 664.5,-397.54"/>
</a>
</g>
</g>
<!-- Node13&#45;&gt;Node14 -->
<g id="edge13_Node000013_Node000014" class="edge">
<title>Node13&#45;&gt;Node14</title>
<g id="a_edge13_Node000013_Node000014"><a xlink:title=" ">
<path fill="none" stroke="#63b8ff" d="M95,-280.45C81.66,-253.67 52.6,-195.37 37.9,-165.86"/>
<polygon fill="#63b8ff" stroke="#63b8ff" points="40.94,-164.12 33.35,-156.73 34.68,-167.24 40.94,-164.12"/>
</a>
</g>
</g>
<!-- Node16 -->
<g id="Node000016" class="node">
<title>Node16</title>
<g id="a_Node000016"><a xlink:href="basic__concepts_8hpp.html" target="_top" xlink:title=" ">
<polygon fill="white" stroke="#666666" points="1113,-239 981,-239 981,-198 1113,-198 1113,-239"/>
<text text-anchor="start" x="989" y="-227" font-family="Helvetica,sans-Serif" font-size="10.00">packages/compile_time</text>
<text text-anchor="start" x="989" y="-216" font-family="Helvetica,sans-Serif" font-size="10.00">/packages/concepts/inc</text>
<text text-anchor="middle" x="1047" y="-205" font-family="Helvetica,sans-Serif" font-size="10.00">/basic_concepts.hpp</text>
</a>
</g>
</g>
<!-- Node15&#45;&gt;Node16 -->
<g id="edge15_Node000015_Node000016" class="edge">
<title>Node15&#45;&gt;Node16</title>
<g id="a_edge15_Node000015_Node000016"><a xlink:title=" ">
<path fill="none" stroke="#63b8ff" d="M1016.77,-274.79C1021.24,-266.61 1026.52,-256.96 1031.4,-248.03"/>
<polygon fill="#63b8ff" stroke="#63b8ff" points="1034.57,-249.53 1036.3,-239.07 1028.43,-246.17 1034.57,-249.53"/>
</a>
</g>
</g>
<!-- Node20 -->
<g id="Node000020" class="node">
<title>Node20</title>
<g id="a_Node000020"><a xlink:title=" ">
<polygon fill="#e0e0e0" stroke="#999999" points="559,-228 503,-228 503,-209 559,-209 559,-228"/>
<text text-anchor="middle" x="531" y="-216" font-family="Helvetica,sans-Serif" font-size="10.00">sstream</text>
</a>
</g>
</g>
<!-- Node15&#45;&gt;Node20 -->
<g id="edge21_Node000015_Node000020" class="edge">
<title>Node15&#45;&gt;Node20</title>
<g id="a_edge21_Node000015_Node000020"><a xlink:title=" ">
<path fill="none" stroke="#63b8ff" d="M939.71,-284.85C916.98,-281.61 891.39,-278.06 868,-275 734.84,-257.6 696.2,-278.97 568,-239 563.14,-237.49 558.17,-235.34 553.52,-233.02"/>
<polygon fill="#63b8ff" stroke="#63b8ff" points="554.99,-229.84 544.53,-228.17 551.67,-236 554.99,-229.84"/>
</a>
</g>
</g>
<!-- Node21 -->
<g id="Node000021" class="node">
<title>Node21</title>
<g id="a_Node000021"><a xlink:title=" ">
<polygon fill="#e0e0e0" stroke="#999999" points="1179,-228 1131,-228 1131,-209 1179,-209 1179,-228"/>
<text text-anchor="middle" x="1155" y="-216" font-family="Helvetica,sans-Serif" font-size="10.00">iosfwd</text>
</a>
</g>
</g>
<!-- Node15&#45;&gt;Node21 -->
<g id="edge22_Node000015_Node000021" class="edge">
<title>Node15&#45;&gt;Node21</title>
<g id="a_edge22_Node000015_Node000021"><a xlink:title=" ">
<path fill="none" stroke="#63b8ff" d="M1049.14,-274.95C1071.17,-264.7 1098.26,-251.66 1122,-239 1125.37,-237.2 1128.89,-235.23 1132.31,-233.26"/>
<polygon fill="#63b8ff" stroke="#63b8ff" points="1134.18,-236.22 1141.02,-228.13 1130.63,-230.19 1134.18,-236.22"/>
</a>
</g>
</g>
<!-- Node16&#45;&gt;Node2 -->
<g id="edge16_Node000016_Node000002" class="edge">
<title>Node16&#45;&gt;Node2</title>
<g id="a_edge16_Node000016_Node000002"><a xlink:title=" ">
<path fill="none" stroke="#63b8ff" d="M980.77,-200.19C977.81,-199.44 974.87,-198.71 972,-198 922.5,-185.76 866.35,-172.61 824.13,-162.87"/>
<polygon fill="#63b8ff" stroke="#63b8ff" points="824.78,-159.42 814.25,-160.59 823.21,-166.25 824.78,-159.42"/>
</a>
</g>
</g>
<!-- Node16&#45;&gt;Node8 -->
<g id="edge18_Node000016_Node000008" class="edge">
<title>Node16&#45;&gt;Node8</title>
<g id="a_edge18_Node000016_Node000008"><a xlink:title=" ">
<path fill="none" stroke="#63b8ff" d="M1048.5,-197.86C1050.52,-179.88 1055.21,-152.95 1066,-132 1072.69,-119.02 1083.57,-106.8 1092.96,-97.68"/>
<polygon fill="#63b8ff" stroke="#63b8ff" points="1095.42,-100.18 1100.37,-90.81 1090.66,-95.05 1095.42,-100.18"/>
</a>
</g>
</g>
<!-- Node17 -->
<g id="Node000017" class="node">
<title>Node17</title>
<g id="a_Node000017"><a xlink:title=" ">
<polygon fill="#e0e0e0" stroke="#999999" points="953,-156.5 893,-156.5 893,-137.5 953,-137.5 953,-156.5"/>
<text text-anchor="middle" x="923" y="-144.5" font-family="Helvetica,sans-Serif" font-size="10.00">concepts</text>
</a>
</g>
</g>
<!-- Node16&#45;&gt;Node17 -->
<g id="edge17_Node000016_Node000017" class="edge">
<title>Node16&#45;&gt;Node17</title>
<g id="a_edge17_Node000016_Node000017"><a xlink:title=" ">
<path fill="none" stroke="#63b8ff" d="M1012.13,-197.96C991.39,-186.33 965.6,-171.88 947.11,-161.51"/>
<polygon fill="#63b8ff" stroke="#63b8ff" points="948.61,-158.34 938.17,-156.5 945.18,-164.45 948.61,-158.34"/>
</a>
</g>
</g>
<!-- Node16&#45;&gt;Node18 -->
<g id="edge19_Node000016_Node000018" class="edge">
<title>Node16&#45;&gt;Node18</title>
<g id="a_edge19_Node000016_Node000018"><a xlink:title=" ">
<path fill="none" stroke="#63b8ff" d="M1085.81,-197.96C1109.21,-186.17 1138.38,-171.48 1159.01,-161.09"/>
<polygon fill="#63b8ff" stroke="#63b8ff" points="1160.76,-164.13 1168.12,-156.5 1157.61,-157.88 1160.76,-164.13"/>
</a>
</g>
</g>
<!-- Node19 -->
<g id="Node000019" class="node">
<title>Node19</title>
<g id="a_Node000019"><a xlink:title=" ">
<polygon fill="#e0e0e0" stroke="#999999" points="1120.5,-156.5 1075.5,-156.5 1075.5,-137.5 1120.5,-137.5 1120.5,-156.5"/>
<text text-anchor="middle" x="1098" y="-144.5" font-family="Helvetica,sans-Serif" font-size="10.00">utility</text>
</a>
</g>
</g>
<!-- Node16&#45;&gt;Node19 -->
<g id="edge20_Node000016_Node000019" class="edge">
<title>Node16&#45;&gt;Node19</title>
<g id="a_edge20_Node000016_Node000019"><a xlink:title=" ">
<path fill="none" stroke="#63b8ff" d="M1061.48,-197.77C1069.05,-187.45 1078.24,-174.93 1085.5,-165.04"/>
<polygon fill="#63b8ff" stroke="#63b8ff" points="1088.43,-166.95 1091.53,-156.82 1082.79,-162.81 1088.43,-166.95"/>
</a>
</g>
</g>
<!-- Node23 -->
<g id="Node000023" class="node">
<title>Node23</title>
<g id="a_Node000023"><a xlink:href="iterator__concepts_8hpp.html" target="_top" xlink:title=" ">
<polygon fill="white" stroke="#666666" points="859,-316 727,-316 727,-275 859,-275 859,-316"/>
<text text-anchor="start" x="735" y="-304" font-family="Helvetica,sans-Serif" font-size="10.00">packages/compile_time</text>
<text text-anchor="start" x="735" y="-293" font-family="Helvetica,sans-Serif" font-size="10.00">/packages/concepts/inc</text>
<text text-anchor="middle" x="793" y="-282" font-family="Helvetica,sans-Serif" font-size="10.00">/iterator_concepts.hpp</text>
</a>
</g>
</g>
<!-- Node22&#45;&gt;Node23 -->
<g id="edge24_Node000022_Node000023" class="edge">
<title>Node22&#45;&gt;Node23</title>
<g id="a_edge24_Node000022_Node000023"><a xlink:title=" ">
<path fill="none" stroke="#63b8ff" d="M809.22,-351.79C806.9,-343.87 804.17,-334.57 801.62,-325.88"/>
<polygon fill="#63b8ff" stroke="#63b8ff" points="804.91,-324.68 798.74,-316.07 798.2,-326.65 804.91,-324.68"/>
</a>
</g>
</g>
<!-- Node23&#45;&gt;Node14 -->
<g id="edge33_Node000023_Node000014" class="edge">
<title>Node23&#45;&gt;Node14</title>
<g id="a_edge33_Node000023_Node000014"><a xlink:title=" ">
<path fill="none" stroke="#63b8ff" d="M726.89,-280.33C715.94,-278.31 704.68,-276.44 694,-275 585.8,-260.42 303.81,-283.27 204,-239 179.86,-228.29 183.35,-212.07 161,-198 158.78,-196.6 100.18,-174.6 61.82,-160.25"/>
<polygon fill="#63b8ff" stroke="#63b8ff" points="62.66,-156.83 52.07,-156.61 60.21,-163.39 62.66,-156.83"/>
</a>
</g>
</g>
<!-- Node23&#45;&gt;Node16 -->
<g id="edge25_Node000023_Node000016" class="edge">
<title>Node23&#45;&gt;Node16</title>
<g id="a_edge25_Node000023_Node000016"><a xlink:title=" ">
<path fill="none" stroke="#63b8ff" d="M859.07,-274.99C893.33,-264.87 935.35,-252.47 970.96,-241.95"/>
<polygon fill="#63b8ff" stroke="#63b8ff" points="972.22,-245.23 980.82,-239.04 970.24,-238.52 972.22,-245.23"/>
</a>
</g>
</g>
<!-- Node24 -->
<g id="Node000024" class="node">
<title>Node24</title>
<g id="a_Node000024"><a xlink:href="Size_8hpp.html" target="_top" xlink:title=" ">
<polygon fill="white" stroke="#666666" points="725,-239 577,-239 577,-198 725,-198 725,-239"/>
<text text-anchor="start" x="585" y="-227" font-family="Helvetica,sans-Serif" font-size="10.00">packages/compile_time</text>
<text text-anchor="start" x="585" y="-216" font-family="Helvetica,sans-Serif" font-size="10.00">/packages/parameter_pack</text>
<text text-anchor="middle" x="651" y="-205" font-family="Helvetica,sans-Serif" font-size="10.00">/inc/Size.hpp</text>
</a>
</g>
</g>
<!-- Node23&#45;&gt;Node24 -->
<g id="edge26_Node000023_Node000024" class="edge">
<title>Node23&#45;&gt;Node24</title>
<g id="a_edge26_Node000023_Node000024"><a xlink:title=" ">
<path fill="none" stroke="#63b8ff" d="M756.06,-274.99C738.12,-265.52 716.39,-254.03 697.35,-243.98"/>
<polygon fill="#63b8ff" stroke="#63b8ff" points="698.72,-240.75 688.25,-239.17 695.45,-246.94 698.72,-240.75"/>
</a>
</g>
</g>
<!-- Node25 -->
<g id="Node000025" class="node">
<title>Node25</title>
<g id="a_Node000025"><a xlink:href="Select_8hpp.html" target="_top" xlink:title=" ">
<polygon fill="white" stroke="#666666" points="963,-239 815,-239 815,-198 963,-198 963,-239"/>
<text text-anchor="start" x="823" y="-227" font-family="Helvetica,sans-Serif" font-size="10.00">packages/compile_time</text>
<text text-anchor="start" x="823" y="-216" font-family="Helvetica,sans-Serif" font-size="10.00">/packages/parameter_pack</text>
<text text-anchor="middle" x="889" y="-205" font-family="Helvetica,sans-Serif" font-size="10.00">/inc/Select.hpp</text>
</a>
</g>
</g>
<!-- Node23&#45;&gt;Node25 -->
<g id="edge28_Node000023_Node000025" class="edge">
<title>Node23&#45;&gt;Node25</title>
<g id="a_edge28_Node000023_Node000025"><a xlink:title=" ">
<path fill="none" stroke="#63b8ff" d="M817.97,-274.99C829.55,-265.95 843.46,-255.07 855.9,-245.36"/>
<polygon fill="#63b8ff" stroke="#63b8ff" points="858.09,-248.09 863.82,-239.17 853.78,-242.57 858.09,-248.09"/>
</a>
</g>
</g>
<!-- Node27 -->
<g id="Node000027" class="node">
<title>Node27</title>
<g id="a_Node000027"><a xlink:title=" ">
<polygon fill="#e0e0e0" stroke="#999999" points="796.5,-228 743.5,-228 743.5,-209 796.5,-209 796.5,-228"/>
<text text-anchor="middle" x="770" y="-216" font-family="Helvetica,sans-Serif" font-size="10.00">iterator</text>
</a>
</g>
</g>
<!-- Node23&#45;&gt;Node27 -->
<g id="edge32_Node000023_Node000027" class="edge">
<title>Node23&#45;&gt;Node27</title>
<g id="a_edge32_Node000023_Node000027"><a xlink:title=" ">
<path fill="none" stroke="#63b8ff" d="M786.96,-274.79C783.45,-263.35 779.05,-249.02 775.62,-237.82"/>
<polygon fill="#63b8ff" stroke="#63b8ff" points="778.96,-236.77 772.68,-228.24 772.26,-238.82 778.96,-236.77"/>
</a>
</g>
</g>
<!-- Node24&#45;&gt;Node2 -->
<g id="edge27_Node000024_Node000002" class="edge">
<title>Node24&#45;&gt;Node2</title>
<g id="a_edge27_Node000024_Node000002"><a xlink:title=" ">
<path fill="none" stroke="#63b8ff" d="M681.37,-197.96C696.04,-188.51 713.62,-177.2 728.33,-167.74"/>
<polygon fill="#63b8ff" stroke="#63b8ff" points="730.55,-170.47 737.07,-162.11 726.77,-164.58 730.55,-170.47"/>
</a>
</g>
</g>
<!-- Node25&#45;&gt;Node2 -->
<g id="edge29_Node000025_Node000002" class="edge">
<title>Node25&#45;&gt;Node2</title>
<g id="a_edge29_Node000025_Node000002"><a xlink:title=" ">
<path fill="none" stroke="#63b8ff" d="M852.44,-197.96C834.28,-188.25 812.43,-176.56 794.42,-166.94"/>
<polygon fill="#63b8ff" stroke="#63b8ff" points="795.87,-163.74 785.4,-162.11 792.57,-169.91 795.87,-163.74"/>
</a>
</g>
</g>
<!-- Node25&#45;&gt;Node17 -->
<g id="edge31_Node000025_Node000017" class="edge">
<title>Node25&#45;&gt;Node17</title>
<g id="a_edge31_Node000025_Node000017"><a xlink:title=" ">
<path fill="none" stroke="#63b8ff" d="M898.65,-197.77C903.55,-187.76 909.45,-175.7 914.22,-165.95"/>
<polygon fill="#63b8ff" stroke="#63b8ff" points="917.43,-167.34 918.69,-156.82 911.15,-164.26 917.43,-167.34"/>
</a>
</g>
</g>
<!-- Node26 -->
<g id="Node000026" class="node">
<title>Node26</title>
<g id="a_Node000026"><a xlink:title=" ">
<polygon fill="#e0e0e0" stroke="#999999" points="874.5,-156.5 833.5,-156.5 833.5,-137.5 874.5,-137.5 874.5,-156.5"/>
<text text-anchor="middle" x="854" y="-144.5" font-family="Helvetica,sans-Serif" font-size="10.00">tuple</text>
</a>
</g>
</g>
<!-- Node25&#45;&gt;Node26 -->
<g id="edge30_Node000025_Node000026" class="edge">
<title>Node25&#45;&gt;Node26</title>
<g id="a_edge30_Node000025_Node000026"><a xlink:title=" ">
<path fill="none" stroke="#63b8ff" d="M879.06,-197.77C874.02,-187.76 867.95,-175.7 863.04,-165.95"/>
<polygon fill="#63b8ff" stroke="#63b8ff" points="866.07,-164.18 858.44,-156.82 859.81,-167.33 866.07,-164.18"/>
</a>
</g>
</g>
<!-- Node28&#45;&gt;Node4 -->
<g id="edge47_Node000028_Node000004" class="edge">
<title>Node28&#45;&gt;Node4</title>
<g id="a_edge47_Node000028_Node000004"><a xlink:title=" ">
<path fill="none" stroke="#63b8ff" d="M411.76,-357.42C400.24,-347.31 386.37,-332.59 380,-316 373.47,-298.99 378.03,-293.12 380,-275 389.56,-187.07 416.87,-85.27 429.91,-39.92"/>
<polygon fill="#63b8ff" stroke="#63b8ff" points="433.32,-40.72 432.75,-30.14 426.6,-38.76 433.32,-40.72"/>
</a>
</g>
</g>
<!-- Node28&#45;&gt;Node20 -->
<g id="edge49_Node000028_Node000020" class="edge">
<title>Node28&#45;&gt;Node20</title>
<g id="a_edge49_Node000028_Node000020"><a xlink:title=" ">
<path fill="none" stroke="#63b8ff" d="M465.92,-357.33C484.16,-348.27 504.95,-334.66 517,-316 532.27,-292.36 533.61,-258.74 532.68,-238.06"/>
<polygon fill="#63b8ff" stroke="#63b8ff" points="536.17,-237.79 532,-228.05 529.18,-238.26 536.17,-237.79"/>
</a>
</g>
</g>
<!-- Node29 -->
<g id="Node000029" class="node">
<title>Node29</title>
<g id="a_Node000029"><a xlink:href="exception_8hpp.html" target="_top" xlink:title=" ">
<polygon fill="white" stroke="#666666" points="332.5,-233.5 213.5,-233.5 213.5,-203.5 332.5,-203.5 332.5,-233.5"/>
<text text-anchor="start" x="221.5" y="-221.5" font-family="Helvetica,sans-Serif" font-size="10.00">packages/exceptions</text>
<text text-anchor="middle" x="273" y="-210.5" font-family="Helvetica,sans-Serif" font-size="10.00">/inc/exception.hpp</text>
</a>
</g>
</g>
<!-- Node28&#45;&gt;Node29 -->
<g id="edge35_Node000028_Node000029" class="edge">
<title>Node28&#45;&gt;Node29</title>
<g id="a_edge35_Node000028_Node000029"><a xlink:title=" ">
<path fill="none" stroke="#63b8ff" d="M404.48,-357.42C387.21,-347.21 364.45,-332.36 347,-316 323.11,-293.61 301.02,-262.94 287.3,-242.24"/>
<polygon fill="#63b8ff" stroke="#63b8ff" points="290.17,-240.23 281.79,-233.76 284.31,-244.05 290.17,-240.23"/>
</a>
</g>
</g>
<!-- Node33 -->
<g id="Node000033" class="node">
<title>Node33</title>
<g id="a_Node000033"><a xlink:href="exceptions_8hpp.html" target="_top" xlink:title=" ">
<polygon fill="white" stroke="#666666" points="508.5,-310.5 389.5,-310.5 389.5,-280.5 508.5,-280.5 508.5,-310.5"/>
<text text-anchor="start" x="397.5" y="-298.5" font-family="Helvetica,sans-Serif" font-size="10.00">packages/macros/inc</text>
<text text-anchor="middle" x="449" y="-287.5" font-family="Helvetica,sans-Serif" font-size="10.00">/exceptions.hpp</text>
</a>
</g>
</g>
<!-- Node28&#45;&gt;Node33 -->
<g id="edge42_Node000028_Node000033" class="edge">
<title>Node28&#45;&gt;Node33</title>
<g id="a_edge42_Node000028_Node000033"><a xlink:title=" ">
<path fill="none" stroke="#63b8ff" d="M433.57,-357.39C436.2,-347.02 439.84,-332.68 442.92,-320.51"/>
<polygon fill="#63b8ff" stroke="#63b8ff" points="446.38,-321.1 445.44,-310.54 439.59,-319.38 446.38,-321.1"/>
</a>
</g>
</g>
<!-- Node34 -->
<g id="Node000034" class="node">
<title>Node34</title>
<g id="a_Node000034"><a xlink:title=" ">
<polygon fill="#e0e0e0" stroke="#999999" points="685,-305 565,-305 565,-286 685,-286 685,-305"/>
<text text-anchor="middle" x="625" y="-293" font-family="Helvetica,sans-Serif" font-size="10.00">cmake_variables.hpp</text>
</a>
</g>
</g>
<!-- Node28&#45;&gt;Node34 -->
<g id="edge48_Node000028_Node000034" class="edge">
<title>Node28&#45;&gt;Node34</title>
<g id="a_edge48_Node000028_Node000034"><a xlink:title=" ">
<path fill="none" stroke="#63b8ff" d="M466.68,-357.39C503.13,-343.37 558.46,-322.09 593.13,-308.76"/>
<polygon fill="#63b8ff" stroke="#63b8ff" points="594.68,-311.91 602.75,-305.06 592.16,-305.38 594.68,-311.91"/>
</a>
</g>
</g>
<!-- Node29&#45;&gt;Node2 -->
<g id="edge36_Node000029_Node000002" class="edge">
<title>Node29&#45;&gt;Node2</title>
<g id="a_edge36_Node000029_Node000002"><a xlink:title=" ">
<path fill="none" stroke="#63b8ff" d="M332.51,-206.69C349.45,-203.73 367.93,-200.63 385,-198 492.91,-181.4 618.83,-165.22 693.57,-155.95"/>
<polygon fill="#63b8ff" stroke="#63b8ff" points="694.28,-159.39 703.77,-154.69 693.42,-152.45 694.28,-159.39"/>
</a>
</g>
</g>
<!-- Node29&#45;&gt;Node7 -->
<g id="edge38_Node000029_Node000007" class="edge">
<title>Node29&#45;&gt;Node7</title>
<g id="a_edge38_Node000029_Node000007"><a xlink:title=" ">
<path fill="none" stroke="#63b8ff" d="M303.25,-203.46C325.08,-192.92 355,-177.68 380,-162 412.67,-141.51 448.03,-113.89 468.81,-97.05"/>
<polygon fill="#63b8ff" stroke="#63b8ff" points="471.25,-99.58 476.78,-90.54 466.82,-94.16 471.25,-99.58"/>
</a>
</g>
</g>
<!-- Node29&#45;&gt;Node14 -->
<g id="edge40_Node000029_Node000014" class="edge">
<title>Node29&#45;&gt;Node14</title>
<g id="a_edge40_Node000029_Node000014"><a xlink:title=" ">
<path fill="none" stroke="#63b8ff" d="M219.95,-203.47C163.92,-188.61 81.65,-166.66 67,-162 65.09,-161.39 63.14,-160.75 61.17,-160.08"/>
<polygon fill="#63b8ff" stroke="#63b8ff" points="61.98,-156.66 51.39,-156.63 59.65,-163.26 61.98,-156.66"/>
</a>
</g>
</g>
<!-- Node30 -->
<g id="Node000030" class="node">
<title>Node30</title>
<g id="a_Node000030"><a xlink:title=" ">
<polygon fill="#e0e0e0" stroke="#999999" points="141.5,-156.5 76.5,-156.5 76.5,-137.5 141.5,-137.5 141.5,-156.5"/>
<text text-anchor="middle" x="109" y="-144.5" font-family="Helvetica,sans-Serif" font-size="10.00">stdexcept</text>
</a>
</g>
</g>
<!-- Node29&#45;&gt;Node30 -->
<g id="edge37_Node000029_Node000030" class="edge">
<title>Node29&#45;&gt;Node30</title>
<g id="a_edge37_Node000029_Node000030"><a xlink:title=" ">
<path fill="none" stroke="#63b8ff" d="M239.81,-203.44C210.17,-190.88 167.16,-172.65 138.65,-160.57"/>
<polygon fill="#63b8ff" stroke="#63b8ff" points="139.79,-157.25 129.22,-156.57 137.06,-163.69 139.79,-157.25"/>
</a>
</g>
</g>
<!-- Node31 -->
<g id="Node000031" class="node">
<title>Node31</title>
<g id="a_Node000031"><a xlink:title=" ">
<polygon fill="#e0e0e0" stroke="#999999" points="206.5,-156.5 159.5,-156.5 159.5,-137.5 206.5,-137.5 206.5,-156.5"/>
<text text-anchor="middle" x="183" y="-144.5" font-family="Helvetica,sans-Serif" font-size="10.00">deque</text>
</a>
</g>
</g>
<!-- Node29&#45;&gt;Node31 -->
<g id="edge39_Node000029_Node000031" class="edge">
<title>Node29&#45;&gt;Node31</title>
<g id="a_edge39_Node000029_Node000031"><a xlink:title=" ">
<path fill="none" stroke="#63b8ff" d="M254.79,-203.44C239.45,-191.59 217.57,-174.7 202.01,-162.68"/>
<polygon fill="#63b8ff" stroke="#63b8ff" points="204.15,-159.91 194.09,-156.57 199.87,-165.45 204.15,-159.91"/>
</a>
</g>
</g>
<!-- Node32 -->
<g id="Node000032" class="node">
<title>Node32</title>
<g id="a_Node000032"><a xlink:title=" ">
<polygon fill="#e0e0e0" stroke="#999999" points="371,-162 225,-162 225,-132 371,-132 371,-162"/>
<text text-anchor="start" x="233" y="-150" font-family="Helvetica,sans-Serif" font-size="10.00">packages/exceptions</text>
<text text-anchor="middle" x="298" y="-139" font-family="Helvetica,sans-Serif" font-size="10.00">/impl/exceptions_impl.hpp</text>
</a>
</g>
</g>
<!-- Node29&#45;&gt;Node32 -->
<g id="edge41_Node000029_Node000032" class="edge">
<title>Node29&#45;&gt;Node32</title>
<g id="a_edge41_Node000029_Node000032"><a xlink:title=" ">
<path fill="none" stroke="#63b8ff" d="M278.06,-203.44C281.35,-194.3 285.71,-182.16 289.52,-171.57"/>
<polygon fill="#63b8ff" stroke="#63b8ff" points="292.86,-172.64 292.95,-162.04 286.27,-170.27 292.86,-172.64"/>
</a>
</g>
</g>
<!-- Node33&#45;&gt;Node4 -->
<g id="edge44_Node000033_Node000004" class="edge">
<title>Node33&#45;&gt;Node4</title>
<g id="a_edge44_Node000033_Node000004"><a xlink:title=" ">
<path fill="none" stroke="#63b8ff" d="M448.39,-280.31C446.46,-235.52 440.48,-96.81 438.05,-40.32"/>
<polygon fill="#63b8ff" stroke="#63b8ff" points="441.54,-40.01 437.61,-30.17 434.54,-40.31 441.54,-40.01"/>
</a>
</g>
</g>
<!-- Node33&#45;&gt;Node17 -->
<g id="edge46_Node000033_Node000017" class="edge">
<title>Node33&#45;&gt;Node17</title>
<g id="a_edge46_Node000033_Node000017"><a xlink:title=" ">
<path fill="none" stroke="#63b8ff" d="M451.14,-280.18C455.23,-258.42 466.34,-217.47 494,-198 564.99,-148.03 798.18,-180.48 883,-162 885.99,-161.35 889.07,-160.54 892.13,-159.64"/>
<polygon fill="#63b8ff" stroke="#63b8ff" points="893.25,-162.95 901.69,-156.54 891.1,-156.29 893.25,-162.95"/>
</a>
</g>
</g>
<!-- Node33&#45;&gt;Node20 -->
<g id="edge45_Node000033_Node000020" class="edge">
<title>Node33&#45;&gt;Node20</title>
<g id="a_edge45_Node000033_Node000020"><a xlink:title=" ">
<path fill="none" stroke="#63b8ff" d="M464.42,-280.39C478.52,-267.5 499.32,-248.48 513.91,-235.13"/>
<polygon fill="#63b8ff" stroke="#63b8ff" points="516.28,-237.71 521.3,-228.37 511.56,-232.54 516.28,-237.71"/>
</a>
</g>
</g>
<!-- Node33&#45;&gt;Node29 -->
<g id="edge43_Node000033_Node000029" class="edge">
<title>Node33&#45;&gt;Node29</title>
<g id="a_edge43_Node000033_Node000029"><a xlink:title=" ">
<path fill="none" stroke="#63b8ff" d="M415.9,-280.39C387.38,-268.24 346.06,-250.63 315.18,-237.47"/>
<polygon fill="#63b8ff" stroke="#63b8ff" points="316.53,-234.24 305.96,-233.54 313.78,-240.68 316.53,-234.24"/>
</a>
</g>
</g>
</g>
</svg>

<g id="navigator" transform="translate(0 0)" fill="#404254">
  <rect fill="#f2f5e9" fill-opacity="0.5" stroke="#606060" stroke-width=".5" x="0" y="0" width="60" height="60"/>
  <use id="zoomplus" xlink:href="#zoomPlus" x="17" y="9" onmousedown="handleZoom(evt,'in')"/>
  <use id="zoomminus" xlink:href="#zoomMin" x="42" y="9" onmousedown="handleZoom(evt,'out')"/>
  <use id="reset" xlink:href="#resetDef" x="30" y="36" onmousedown="handleReset()"/>
   <use id="arrowup" xlink:href="#arrowUp" x="0" y="0" onmousedown="handlePan(0,-1)"/>
  <use id="arrowright" xlink:href="#arrowRight" x="0" y="0" onmousedown="handlePan(1,0)"/>
  <use id="arrowdown" xlink:href="#arrowDown" x="0" y="0" onmousedown="handlePan(0,1)"/>
  <use id="arrowleft" xlink:href="#arrowLeft" x="0" y="0" onmousedown="handlePan(-1,0)"/>
</g>
<svg viewBox="0 0 15 15" width="100%" height="30px" preserveAspectRatio="xMaxYMin meet">
 <g id="arrow_out" transform="scale(0.3 0.3)">
  <a xlink:href="Color_8hpp__incl_org.svg" target="_base">
   <rect id="button" ry="5" rx="5" y="6" x="6" height="38" width="38"
        fill="#f2f5e9" fill-opacity="0.5" stroke="#606060" stroke-width="1.0"/>
   <path id="arrow"
     d="M 11.500037,31.436501 C 11.940474,20.09759 22.043105,11.32322 32.158766,21.979434 L 37.068811,17.246167 C 37.068811,17.246167 37.088388,32 37.088388,32 L 22.160133,31.978069 C 22.160133,31.978069 26.997745,27.140456 26.997745,27.140456 C 18.528582,18.264221 13.291696,25.230495 11.500037,31.436501 z"
     style="fill:#404040;"/>
  </a>
 </g>
</svg>

<style type='text/css'>
<![CDATA[
[data-mouse-over-selected='false'] { opacity: 0.7; }
[data-mouse-over-selected='true']  { opacity: 1.0; }
]]>
</style>
<script type="application/ecmascript"><![CDATA[
document.addEventListener('DOMContentLoaded', (event) => {
  highlightEdges();
  highlightAdjacentNodes();
});
]]></script>
</svg>
