<?xml version="1.0" encoding="UTF-8" standalone="no"?>
<!DOCTYPE svg PUBLIC "-//W3C//DTD SVG 1.1//EN"
 "http://www.w3.org/Graphics/SVG/1.1/DTD/svg11.dtd">
<!-- Generated by graphviz version 2.43.0 (0)
 -->
<!-- Title: common.hpp Pages: 1 -->
<svg width="873pt" height="357pt"
 viewBox="0.00 0.00 872.50 357.00" xmlns="http://www.w3.org/2000/svg" xmlns:xlink="http://www.w3.org/1999/xlink">
<g id="graph0" class="graph" transform="scale(1 1) rotate(0) translate(4 353)">
<title>common.hpp</title>
<!-- Node1 -->
<g id="Node000001" class="node">
<title>Node1</title>
<g id="a_Node000001"><a xlink:title=" ">
<polygon fill="#999999" stroke="#666666" points="590.5,-349 510.5,-349 510.5,-330 590.5,-330 590.5,-349"/>
<text text-anchor="middle" x="550.5" y="-337" font-family="Helvetica,sans-Serif" font-size="10.00">common.hpp</text>
</a>
</g>
</g>
<!-- Node2 -->
<g id="Node000002" class="node">
<title>Node2</title>
<g id="a_Node000002"><a xlink:href="exception_8hpp.html" target="_top" xlink:title=" ">
<polygon fill="white" stroke="#666666" points="609,-228 490,-228 490,-198 609,-198 609,-228"/>
<text text-anchor="start" x="498" y="-216" font-family="Helvetica,sans-Serif" font-size="10.00">packages/exceptions</text>
<text text-anchor="middle" x="549.5" y="-205" font-family="Helvetica,sans-Serif" font-size="10.00">/inc/exception.hpp</text>
</a>
</g>
</g>
<!-- Node1&#45;&gt;Node2 -->
<g id="edge1_Node000001_Node000002" class="edge">
<title>Node1&#45;&gt;Node2</title>
<g id="a_edge1_Node000001_Node000002"><a xlink:title=" ">
<path fill="none" stroke="#63b8ff" d="M543.87,-329.88C537.74,-321.32 529.04,-307.54 525.5,-294 522.12,-281.1 522.54,-277 525.5,-264 527.59,-254.82 531.58,-245.36 535.72,-237.18"/>
<polygon fill="#63b8ff" stroke="#63b8ff" points="538.87,-238.71 540.54,-228.24 532.71,-235.38 538.87,-238.71"/>
</a>
</g>
</g>
<!-- Node3 -->
<g id="Node000003" class="node">
<title>Node3</title>
<g id="a_Node000003"><a xlink:href="types_8hpp.html" target="_top" xlink:title=" ">
<polygon fill="white" stroke="#666666" points="324.5,-162 214.5,-162 214.5,-132 324.5,-132 324.5,-162"/>
<text text-anchor="start" x="222.5" y="-150" font-family="Helvetica,sans-Serif" font-size="10.00">packages/types/inc</text>
<text text-anchor="middle" x="269.5" y="-139" font-family="Helvetica,sans-Serif" font-size="10.00">/types.hpp</text>
</a>
</g>
</g>
<!-- Node1&#45;&gt;Node3 -->
<g id="edge18_Node000001_Node000003" class="edge">
<title>Node1&#45;&gt;Node3</title>
<g id="a_edge18_Node000001_Node000003"><a xlink:title=" ">
<path fill="none" stroke="#63b8ff" d="M537.7,-329.82C495.33,-301.1 358.97,-208.65 298.66,-167.77"/>
<polygon fill="#63b8ff" stroke="#63b8ff" points="300.57,-164.84 290.33,-162.12 296.64,-170.63 300.57,-164.84"/>
</a>
</g>
</g>
<!-- Node17 -->
<g id="Node000017" class="node">
<title>Node17</title>
<g id="a_Node000017"><a xlink:title=" ">
<polygon fill="#e0e0e0" stroke="#999999" points="654,-288.5 535,-288.5 535,-269.5 654,-269.5 654,-288.5"/>
<text text-anchor="middle" x="594.5" y="-276.5" font-family="Helvetica,sans-Serif" font-size="10.00">pybind11/pybind11.h</text>
</a>
</g>
</g>
<!-- Node1&#45;&gt;Node17 -->
<g id="edge17_Node000001_Node000017" class="edge">
<title>Node1&#45;&gt;Node17</title>
<g id="a_edge17_Node000001_Node000017"><a xlink:title=" ">
<path fill="none" stroke="#63b8ff" d="M556.99,-329.87C563.49,-321.23 573.66,-307.7 581.78,-296.92"/>
<polygon fill="#63b8ff" stroke="#63b8ff" points="584.77,-298.76 587.98,-288.67 579.17,-294.56 584.77,-298.76"/>
</a>
</g>
</g>
<!-- Node18 -->
<g id="Node000018" class="node">
<title>Node18</title>
<g id="a_Node000018"><a xlink:href="exceptions_8hpp.html" target="_top" xlink:title=" ">
<polygon fill="white" stroke="#666666" points="791,-294 672,-294 672,-264 791,-264 791,-294"/>
<text text-anchor="start" x="680" y="-282" font-family="Helvetica,sans-Serif" font-size="10.00">packages/macros/inc</text>
<text text-anchor="middle" x="731.5" y="-271" font-family="Helvetica,sans-Serif" font-size="10.00">/exceptions.hpp</text>
</a>
</g>
</g>
<!-- Node1&#45;&gt;Node18 -->
<g id="edge19_Node000001_Node000018" class="edge">
<title>Node1&#45;&gt;Node18</title>
<g id="a_edge19_Node000001_Node000018"><a xlink:title=" ">
<path fill="none" stroke="#63b8ff" d="M576.82,-329.99C603.32,-321.43 644.96,-307.97 678.36,-297.18"/>
<polygon fill="#63b8ff" stroke="#63b8ff" points="679.55,-300.47 687.98,-294.06 677.39,-293.81 679.55,-300.47"/>
</a>
</g>
</g>
<!-- Node2&#45;&gt;Node3 -->
<g id="edge2_Node000002_Node000003" class="edge">
<title>Node2&#45;&gt;Node3</title>
<g id="a_edge2_Node000002_Node000003"><a xlink:title=" ">
<path fill="none" stroke="#63b8ff" d="M489.78,-198.35C444.29,-187.95 381.72,-173.65 334.89,-162.95"/>
<polygon fill="#63b8ff" stroke="#63b8ff" points="335.38,-159.47 324.85,-160.65 333.82,-166.29 335.38,-159.47"/>
</a>
</g>
</g>
<!-- Node8 -->
<g id="Node000008" class="node">
<title>Node8</title>
<g id="a_Node000008"><a xlink:title=" ">
<polygon fill="#e0e0e0" stroke="#999999" points="680.5,-90.5 636.5,-90.5 636.5,-71.5 680.5,-71.5 680.5,-90.5"/>
<text text-anchor="middle" x="658.5" y="-78.5" font-family="Helvetica,sans-Serif" font-size="10.00">string</text>
</a>
</g>
</g>
<!-- Node2&#45;&gt;Node8 -->
<g id="edge13_Node000002_Node000008" class="edge">
<title>Node2&#45;&gt;Node8</title>
<g id="a_edge13_Node000002_Node000008"><a xlink:title=" ">
<path fill="none" stroke="#63b8ff" d="M590.49,-197.91C608,-189.93 627.19,-178.24 639.5,-162 653.01,-144.17 657.1,-118.2 658.24,-100.73"/>
<polygon fill="#63b8ff" stroke="#63b8ff" points="661.74,-100.78 658.63,-90.65 654.75,-100.51 661.74,-100.78"/>
</a>
</g>
</g>
<!-- Node13 -->
<g id="Node000013" class="node">
<title>Node13</title>
<g id="a_Node000013"><a xlink:title=" ">
<polygon fill="#e0e0e0" stroke="#999999" points="752,-156.5 687,-156.5 687,-137.5 752,-137.5 752,-156.5"/>
<text text-anchor="middle" x="719.5" y="-144.5" font-family="Helvetica,sans-Serif" font-size="10.00">stdexcept</text>
</a>
</g>
</g>
<!-- Node2&#45;&gt;Node13 -->
<g id="edge12_Node000002_Node000013" class="edge">
<title>Node2&#45;&gt;Node13</title>
<g id="a_edge12_Node000002_Node000013"><a xlink:title=" ">
<path fill="none" stroke="#63b8ff" d="M586.81,-197.95C616.88,-186.63 658.74,-170.88 687.35,-160.1"/>
<polygon fill="#63b8ff" stroke="#63b8ff" points="688.75,-163.32 696.88,-156.52 686.28,-156.77 688.75,-163.32"/>
</a>
</g>
</g>
<!-- Node14 -->
<g id="Node000014" class="node">
<title>Node14</title>
<g id="a_Node000014"><a xlink:title=" ">
<polygon fill="#e0e0e0" stroke="#999999" points="390,-156.5 343,-156.5 343,-137.5 390,-137.5 390,-156.5"/>
<text text-anchor="middle" x="366.5" y="-144.5" font-family="Helvetica,sans-Serif" font-size="10.00">deque</text>
</a>
</g>
</g>
<!-- Node2&#45;&gt;Node14 -->
<g id="edge14_Node000002_Node000014" class="edge">
<title>Node2&#45;&gt;Node14</title>
<g id="a_edge14_Node000002_Node000014"><a xlink:title=" ">
<path fill="none" stroke="#63b8ff" d="M504.21,-197.94C474.28,-188.39 434.29,-175.15 399.5,-162 398.12,-161.48 396.71,-160.93 395.29,-160.37"/>
<polygon fill="#63b8ff" stroke="#63b8ff" points="396.52,-157.09 385.94,-156.55 393.87,-163.57 396.52,-157.09"/>
</a>
</g>
</g>
<!-- Node15 -->
<g id="Node000015" class="node">
<title>Node15</title>
<g id="a_Node000015"><a xlink:title=" ">
<polygon fill="#e0e0e0" stroke="#999999" points="466.5,-156.5 408.5,-156.5 408.5,-137.5 466.5,-137.5 466.5,-156.5"/>
<text text-anchor="middle" x="437.5" y="-144.5" font-family="Helvetica,sans-Serif" font-size="10.00">memory</text>
</a>
</g>
</g>
<!-- Node2&#45;&gt;Node15 -->
<g id="edge15_Node000002_Node000015" class="edge">
<title>Node2&#45;&gt;Node15</title>
<g id="a_edge15_Node000002_Node000015"><a xlink:title=" ">
<path fill="none" stroke="#63b8ff" d="M524.92,-197.95C505.97,-187.13 479.92,-172.24 461.2,-161.54"/>
<polygon fill="#63b8ff" stroke="#63b8ff" points="462.82,-158.44 452.41,-156.52 459.35,-164.52 462.82,-158.44"/>
</a>
</g>
</g>
<!-- Node16 -->
<g id="Node000016" class="node">
<title>Node16</title>
<g id="a_Node000016"><a xlink:title=" ">
<polygon fill="#e0e0e0" stroke="#999999" points="630.5,-162 484.5,-162 484.5,-132 630.5,-132 630.5,-162"/>
<text text-anchor="start" x="492.5" y="-150" font-family="Helvetica,sans-Serif" font-size="10.00">packages/exceptions</text>
<text text-anchor="middle" x="557.5" y="-139" font-family="Helvetica,sans-Serif" font-size="10.00">/impl/exceptions_impl.hpp</text>
</a>
</g>
</g>
<!-- Node2&#45;&gt;Node16 -->
<g id="edge16_Node000002_Node000016" class="edge">
<title>Node2&#45;&gt;Node16</title>
<g id="a_edge16_Node000002_Node000016"><a xlink:title=" ">
<path fill="none" stroke="#63b8ff" d="M551.28,-197.8C552.22,-190.26 553.4,-180.78 554.48,-172.13"/>
<polygon fill="#63b8ff" stroke="#63b8ff" points="557.96,-172.52 555.73,-162.16 551.02,-171.65 557.96,-172.52"/>
</a>
</g>
</g>
<!-- Node4 -->
<g id="Node000004" class="node">
<title>Node4</title>
<g id="a_Node000004"><a xlink:href="debug_8hpp.html" target="_top" xlink:title=" ">
<polygon fill="white" stroke="#666666" points="618,-96 499,-96 499,-66 618,-66 618,-96"/>
<text text-anchor="start" x="507" y="-84" font-family="Helvetica,sans-Serif" font-size="10.00">packages/macros/inc</text>
<text text-anchor="middle" x="558.5" y="-73" font-family="Helvetica,sans-Serif" font-size="10.00">/debug.hpp</text>
</a>
</g>
</g>
<!-- Node3&#45;&gt;Node4 -->
<g id="edge3_Node000003_Node000004" class="edge">
<title>Node3&#45;&gt;Node4</title>
<g id="a_edge3_Node000003_Node000004"><a xlink:title=" ">
<path fill="none" stroke="#63b8ff" d="M324.54,-133.81C371.29,-123.46 438.64,-108.54 489.08,-97.37"/>
<polygon fill="#63b8ff" stroke="#63b8ff" points="489.93,-100.77 498.94,-95.19 488.42,-93.94 489.93,-100.77"/>
</a>
</g>
</g>
<!-- Node7 -->
<g id="Node000007" class="node">
<title>Node7</title>
<g id="a_Node000007"><a xlink:title=" ">
<polygon fill="#e0e0e0" stroke="#999999" points="53,-90.5 0,-90.5 0,-71.5 53,-71.5 53,-90.5"/>
<text text-anchor="middle" x="26.5" y="-78.5" font-family="Helvetica,sans-Serif" font-size="10.00">cstddef</text>
</a>
</g>
</g>
<!-- Node3&#45;&gt;Node7 -->
<g id="edge6_Node000003_Node000007" class="edge">
<title>Node3&#45;&gt;Node7</title>
<g id="a_edge6_Node000003_Node000007"><a xlink:title=" ">
<path fill="none" stroke="#63b8ff" d="M214.16,-134.98C171.9,-126.02 112.46,-112.22 61.5,-96 59.63,-95.4 57.72,-94.76 55.8,-94.08"/>
<polygon fill="#63b8ff" stroke="#63b8ff" points="56.9,-90.75 46.31,-90.5 54.43,-97.3 56.9,-90.75"/>
</a>
</g>
</g>
<!-- Node3&#45;&gt;Node8 -->
<g id="edge7_Node000003_Node000008" class="edge">
<title>Node3&#45;&gt;Node8</title>
<g id="a_edge7_Node000003_Node000008"><a xlink:title=" ">
<path fill="none" stroke="#63b8ff" d="M324.59,-133.61C327.6,-133.04 330.58,-132.5 333.5,-132 462.84,-109.96 499.96,-130.66 626.5,-96 628.19,-95.54 629.9,-95 631.62,-94.41"/>
<polygon fill="#63b8ff" stroke="#63b8ff" points="633.2,-97.55 641.23,-90.64 630.64,-91.04 633.2,-97.55"/>
</a>
</g>
</g>
<!-- Node9 -->
<g id="Node000009" class="node">
<title>Node9</title>
<g id="a_Node000009"><a xlink:title=" ">
<polygon fill="#e0e0e0" stroke="#999999" points="140,-90.5 71,-90.5 71,-71.5 140,-71.5 140,-90.5"/>
<text text-anchor="middle" x="105.5" y="-78.5" font-family="Helvetica,sans-Serif" font-size="10.00">type_traits</text>
</a>
</g>
</g>
<!-- Node3&#45;&gt;Node9 -->
<g id="edge8_Node000003_Node000009" class="edge">
<title>Node3&#45;&gt;Node9</title>
<g id="a_edge8_Node000003_Node000009"><a xlink:title=" ">
<path fill="none" stroke="#63b8ff" d="M233.51,-131.95C204.62,-120.68 164.47,-105.01 136.88,-94.25"/>
<polygon fill="#63b8ff" stroke="#63b8ff" points="137.91,-90.89 127.33,-90.52 135.37,-97.41 137.91,-90.89"/>
</a>
</g>
</g>
<!-- Node10 -->
<g id="Node000010" class="node">
<title>Node10</title>
<g id="a_Node000010"><a xlink:title=" ">
<polygon fill="#e0e0e0" stroke="#999999" points="208.5,-90.5 158.5,-90.5 158.5,-71.5 208.5,-71.5 208.5,-90.5"/>
<text text-anchor="middle" x="183.5" y="-78.5" font-family="Helvetica,sans-Serif" font-size="10.00">climits</text>
</a>
</g>
</g>
<!-- Node3&#45;&gt;Node10 -->
<g id="edge9_Node000003_Node000010" class="edge">
<title>Node3&#45;&gt;Node10</title>
<g id="a_edge9_Node000003_Node000010"><a xlink:title=" ">
<path fill="none" stroke="#63b8ff" d="M250.41,-131.8C236.48,-121.43 217.64,-107.4 203.5,-96.88"/>
<polygon fill="#63b8ff" stroke="#63b8ff" points="205.5,-94.01 195.38,-90.84 201.32,-99.62 205.5,-94.01"/>
</a>
</g>
</g>
<!-- Node11 -->
<g id="Node000011" class="node">
<title>Node11</title>
<g id="a_Node000011"><a xlink:title=" ">
<polygon fill="#e0e0e0" stroke="#999999" points="344,-96 227,-96 227,-66 344,-66 344,-96"/>
<text text-anchor="start" x="235" y="-84" font-family="Helvetica,sans-Serif" font-size="10.00">packages/types/impl</text>
<text text-anchor="middle" x="285.5" y="-73" font-family="Helvetica,sans-Serif" font-size="10.00">/types_impl.hpp</text>
</a>
</g>
</g>
<!-- Node3&#45;&gt;Node11 -->
<g id="edge10_Node000003_Node000011" class="edge">
<title>Node3&#45;&gt;Node11</title>
<g id="a_edge10_Node000003_Node000011"><a xlink:title=" ">
<path fill="none" stroke="#63b8ff" d="M273.05,-131.8C274.94,-124.26 277.3,-114.78 279.47,-106.13"/>
<polygon fill="#63b8ff" stroke="#63b8ff" points="282.93,-106.71 281.96,-96.16 276.14,-105.02 282.93,-106.71"/>
</a>
</g>
</g>
<!-- Node12 -->
<g id="Node000012" class="node">
<title>Node12</title>
<g id="a_Node000012"><a xlink:href="logging_8hpp.html" target="_top" xlink:title=" ">
<polygon fill="white" stroke="#666666" points="481,-96 362,-96 362,-66 481,-66 481,-96"/>
<text text-anchor="start" x="370" y="-84" font-family="Helvetica,sans-Serif" font-size="10.00">packages/macros/inc</text>
<text text-anchor="middle" x="421.5" y="-73" font-family="Helvetica,sans-Serif" font-size="10.00">/logging.hpp</text>
</a>
</g>
</g>
<!-- Node3&#45;&gt;Node12 -->
<g id="edge11_Node000003_Node000012" class="edge">
<title>Node3&#45;&gt;Node12</title>
<g id="a_edge11_Node000003_Node000012"><a xlink:title=" ">
<path fill="none" stroke="#63b8ff" d="M302.86,-131.95C325.23,-122.53 354.89,-110.04 378.96,-99.91"/>
<polygon fill="#63b8ff" stroke="#63b8ff" points="380.36,-103.12 388.22,-96.01 377.65,-96.67 380.36,-103.12"/>
</a>
</g>
</g>
<!-- Node5 -->
<g id="Node000005" class="node">
<title>Node5</title>
<g id="a_Node000005"><a xlink:href="detail_8hpp.html" target="_top" xlink:title=" ">
<polygon fill="white" stroke="#666666" points="783,-30 664,-30 664,0 783,0 783,-30"/>
<text text-anchor="start" x="672" y="-18" font-family="Helvetica,sans-Serif" font-size="10.00">packages/macros/inc</text>
<text text-anchor="middle" x="723.5" y="-7" font-family="Helvetica,sans-Serif" font-size="10.00">/detail.hpp</text>
</a>
</g>
</g>
<!-- Node4&#45;&gt;Node5 -->
<g id="edge4_Node000004_Node000005" class="edge">
<title>Node4&#45;&gt;Node5</title>
<g id="a_edge4_Node000004_Node000005"><a xlink:title=" ">
<path fill="none" stroke="#63b8ff" d="M594.71,-65.95C619.21,-56.45 651.77,-43.82 678.02,-33.64"/>
<polygon fill="#63b8ff" stroke="#63b8ff" points="679.32,-36.89 687.37,-30.01 676.79,-30.37 679.32,-36.89"/>
</a>
</g>
</g>
<!-- Node6 -->
<g id="Node000006" class="node">
<title>Node6</title>
<g id="a_Node000006"><a xlink:title=" ">
<polygon fill="#e0e0e0" stroke="#999999" points="588.5,-24.5 528.5,-24.5 528.5,-5.5 588.5,-5.5 588.5,-24.5"/>
<text text-anchor="middle" x="558.5" y="-12.5" font-family="Helvetica,sans-Serif" font-size="10.00">iostream</text>
</a>
</g>
</g>
<!-- Node4&#45;&gt;Node6 -->
<g id="edge5_Node000004_Node000006" class="edge">
<title>Node4&#45;&gt;Node6</title>
<g id="a_edge5_Node000004_Node000006"><a xlink:title=" ">
<path fill="none" stroke="#63b8ff" d="M558.5,-65.8C558.5,-56.7 558.5,-44.79 558.5,-34.9"/>
<polygon fill="#63b8ff" stroke="#63b8ff" points="562,-34.84 558.5,-24.84 555,-34.84 562,-34.84"/>
</a>
</g>
</g>
<!-- Node18&#45;&gt;Node2 -->
<g id="edge20_Node000018_Node000002" class="edge">
<title>Node18&#45;&gt;Node2</title>
<g id="a_edge20_Node000018_Node000002"><a xlink:title=" ">
<path fill="none" stroke="#63b8ff" d="M691.56,-263.95C664.3,-254.37 627.99,-241.6 598.91,-231.37"/>
<polygon fill="#63b8ff" stroke="#63b8ff" points="599.94,-228.03 589.35,-228.01 597.62,-234.63 599.94,-228.03"/>
</a>
</g>
</g>
<!-- Node18&#45;&gt;Node5 -->
<g id="edge21_Node000018_Node000005" class="edge">
<title>Node18&#45;&gt;Node5</title>
<g id="a_edge21_Node000018_Node000005"><a xlink:title=" ">
<path fill="none" stroke="#63b8ff" d="M742.98,-263.66C749.83,-254.16 757.88,-241.07 761.5,-228 780.14,-160.71 751.36,-78.78 734.43,-39.38"/>
<polygon fill="#63b8ff" stroke="#63b8ff" points="737.57,-37.82 730.32,-30.09 731.17,-40.65 737.57,-37.82"/>
</a>
</g>
</g>
<!-- Node19 -->
<g id="Node000019" class="node">
<title>Node19</title>
<g id="a_Node000019"><a xlink:title=" ">
<polygon fill="#e0e0e0" stroke="#999999" points="864.5,-222.5 808.5,-222.5 808.5,-203.5 864.5,-203.5 864.5,-222.5"/>
<text text-anchor="middle" x="836.5" y="-210.5" font-family="Helvetica,sans-Serif" font-size="10.00">sstream</text>
</a>
</g>
</g>
<!-- Node18&#45;&gt;Node19 -->
<g id="edge22_Node000018_Node000019" class="edge">
<title>Node18&#45;&gt;Node19</title>
<g id="a_edge22_Node000018_Node000019"><a xlink:title=" ">
<path fill="none" stroke="#63b8ff" d="M754.54,-263.95C772.06,-253.27 796.06,-238.65 813.56,-227.98"/>
<polygon fill="#63b8ff" stroke="#63b8ff" points="815.81,-230.71 822.53,-222.52 812.17,-224.73 815.81,-230.71"/>
</a>
</g>
</g>
<!-- Node20 -->
<g id="Node000020" class="node">
<title>Node20</title>
<g id="a_Node000020"><a xlink:title=" ">
<polygon fill="#e0e0e0" stroke="#999999" points="752.5,-222.5 692.5,-222.5 692.5,-203.5 752.5,-203.5 752.5,-222.5"/>
<text text-anchor="middle" x="722.5" y="-210.5" font-family="Helvetica,sans-Serif" font-size="10.00">concepts</text>
</a>
</g>
</g>
<!-- Node18&#45;&gt;Node20 -->
<g id="edge23_Node000018_Node000020" class="edge">
<title>Node18&#45;&gt;Node20</title>
<g id="a_edge23_Node000018_Node000020"><a xlink:title=" ">
<path fill="none" stroke="#63b8ff" d="M729.5,-263.8C728.22,-254.7 726.55,-242.79 725.16,-232.9"/>
<polygon fill="#63b8ff" stroke="#63b8ff" points="728.6,-232.26 723.74,-222.84 721.67,-233.23 728.6,-232.26"/>
</a>
</g>
</g>
</g>
</svg>
