<?xml version="1.0" encoding="UTF-8" standalone="no"?>
<!DOCTYPE svg PUBLIC "-//W3C//DTD SVG 1.1//EN"
 "http://www.w3.org/Graphics/SVG/1.1/DTD/svg11.dtd">
<!-- Generated by graphviz version 2.43.0 (0)
 -->
<!-- Title: CommOperation.hpp Pages: 1 -->
<!--zoomable 575 -->
<svg id="main" version="1.1" xmlns="http://www.w3.org/2000/svg" xmlns:xlink="http://www.w3.org/1999/xlink" xml:space="preserve" onload="init(evt)">
<style type="text/css"><![CDATA[
.edge:hover path { stroke: red; }
.edge:hover polygon { stroke: red; fill: red; }
]]></style>
<script type="text/javascript"><![CDATA[
var edges = document.getElementsByTagName('g');
if (edges && edges.length) {
  for (var i=0;i<edges.length;i++) {
    if (edges[i].id.substr(0,4)=='edge') {
      edges[i].setAttribute('class','edge');
    }
  }
}
]]></script>
        <defs>
                <circle id="rim" cx="0" cy="0" r="7"/>
                <circle id="rim2" cx="0" cy="0" r="3.5"/>
                <g id="zoomPlus">
                        <use xlink:href="#rim" fill="#404040">
                                <set attributeName="fill" to="#808080" begin="zoomplus.mouseover" end="zoomplus.mouseout"/>
                        </use>
                        <path d="M-4,0h8M0,-4v8" fill="none" stroke="white" stroke-width="1.5" pointer-events="none"/>
                </g>
                <g id="zoomMin">
                        <use xlink:href="#rim" fill="#404040">
                                <set attributeName="fill" to="#808080" begin="zoomminus.mouseover" end="zoomminus.mouseout"/>
                        </use>
                        <path d="M-4,0h8" fill="none" stroke="white" stroke-width="1.5" pointer-events="none"/>
                </g>
                <g id="dirArrow">
                        <path fill="none" stroke="white" stroke-width="1.5" d="M0,-3.0v7 M-2.5,-0.5L0,-3.0L2.5,-0.5"/>
                </g>
               <g id="resetDef">
                       <use xlink:href="#rim2" fill="#404040">
                               <set attributeName="fill" to="#808080" begin="reset.mouseover" end="reset.mouseout"/>
                       </use>
               </g>
        </defs>

<script type="text/javascript">
var viewWidth = 1258;
var viewHeight = 575;
var sectionId = 'dynsection-0';
</script>
<script xlink:href="svgpan.js"/>
<svg id="graph" class="graph">
<g id="viewport">
<title>CommOperation.hpp</title>
<polygon fill="white" stroke="transparent" points="-4,4 -4,-571 1253.82,-571 1253.82,4 -4,4"/>
<!-- Node1 -->
<g id="node1" class="node">
<title>Node1</title>
<g id="a_node1"><a xlink:title=" ">
<polygon fill="#bfbfbf" stroke="black" points="97.37,-547.5 97.37,-566.5 215.37,-566.5 215.37,-547.5 97.37,-547.5"/>
<text text-anchor="middle" x="156.37" y="-554.5" font-family="Helvetica,sans-Serif" font-size="10.00">CommOperation.hpp</text>
</a>
</g>
</g>
<!-- Node2 -->
<g id="node2" class="node">
<title>Node2</title>
<g id="a_node2"><a xlink:href="MPI_8hpp.html" target="_top" xlink:title=" ">
<polygon fill="white" stroke="black" points="302.87,-480.5 302.87,-510.5 427.87,-510.5 427.87,-480.5 302.87,-480.5"/>
<text text-anchor="start" x="310.87" y="-498.5" font-family="Helvetica,sans-Serif" font-size="10.00">packages/concurrency</text>
<text text-anchor="middle" x="365.37" y="-487.5" font-family="Helvetica,sans-Serif" font-size="10.00">/inc/MPI.hpp</text>
</a>
</g>
</g>
<!-- Node1&#45;&gt;Node2 -->
<g id="edge1" class="edge">
<title>Node1&#45;&gt;Node2</title>
<path fill="none" stroke="midnightblue" d="M186.32,-547.48C217.53,-538.59 267.27,-524.43 306.41,-513.29"/>
<polygon fill="midnightblue" stroke="midnightblue" points="307.45,-516.63 316.11,-510.52 305.54,-509.89 307.45,-516.63"/>
</g>
<!-- Node28 -->
<g id="node28" class="node">
<title>Node28</title>
<g id="a_node28"><a xlink:title=" ">
<polygon fill="white" stroke="#bfbfbf" points="29.37,-140 29.37,-159 87.37,-159 87.37,-140 29.37,-140"/>
<text text-anchor="middle" x="58.37" y="-147" font-family="Helvetica,sans-Serif" font-size="10.00">memory</text>
</a>
</g>
</g>
<!-- Node1&#45;&gt;Node28 -->
<g id="edge58" class="edge">
<title>Node1&#45;&gt;Node28</title>
<path fill="none" stroke="midnightblue" d="M147.42,-547.45C129.77,-529.97 90.79,-488.03 74.37,-444 37.8,-345.94 49.56,-216.63 55.68,-169.07"/>
<polygon fill="midnightblue" stroke="midnightblue" points="59.16,-169.42 57.05,-159.04 52.23,-168.47 59.16,-169.42"/>
</g>
<!-- Node3 -->
<g id="node3" class="node">
<title>Node3</title>
<g id="a_node3"><a xlink:href="mpi__fwd_8hpp.html" target="_top" xlink:title=" ">
<polygon fill="white" stroke="black" points="105.87,-413.5 105.87,-443.5 230.87,-443.5 230.87,-413.5 105.87,-413.5"/>
<text text-anchor="start" x="113.87" y="-431.5" font-family="Helvetica,sans-Serif" font-size="10.00">packages/concurrency</text>
<text text-anchor="middle" x="168.37" y="-420.5" font-family="Helvetica,sans-Serif" font-size="10.00">/inc/mpi_fwd.hpp</text>
</a>
</g>
</g>
<!-- Node2&#45;&gt;Node3 -->
<g id="edge2" class="edge">
<title>Node2&#45;&gt;Node3</title>
<path fill="none" stroke="midnightblue" d="M322.62,-480.4C292.68,-470.52 252.48,-457.25 220.63,-446.74"/>
<polygon fill="midnightblue" stroke="midnightblue" points="221.63,-443.39 211.03,-443.58 219.43,-450.03 221.63,-443.39"/>
</g>
<!-- Node4 -->
<g id="node4" class="node">
<title>Node4</title>
<g id="a_node4"><a xlink:href="Serializer_8hpp.html" target="_top" xlink:title=" ">
<polygon fill="white" stroke="black" points="609.87,-419 609.87,-438 770.87,-438 770.87,-419 609.87,-419"/>
<text text-anchor="middle" x="690.37" y="-426" font-family="Helvetica,sans-Serif" font-size="10.00">packages/io/inc/Serializer.hpp</text>
</a>
</g>
</g>
<!-- Node2&#45;&gt;Node4 -->
<g id="edge3" class="edge">
<title>Node2&#45;&gt;Node4</title>
<path fill="none" stroke="midnightblue" d="M428.03,-481.97C488.94,-469.79 580.39,-451.5 637.66,-440.04"/>
<polygon fill="midnightblue" stroke="midnightblue" points="638.47,-443.45 647.59,-438.06 637.1,-436.59 638.47,-443.45"/>
</g>
<!-- Node6 -->
<g id="node6" class="node">
<title>Node6</title>
<g id="a_node6"><a xlink:href="types_8hpp.html" target="_top" xlink:title=" ">
<polygon fill="white" stroke="black" points="852.37,-134.5 852.37,-164.5 962.37,-164.5 962.37,-134.5 852.37,-134.5"/>
<text text-anchor="start" x="860.37" y="-152.5" font-family="Helvetica,sans-Serif" font-size="10.00">packages/types/inc</text>
<text text-anchor="middle" x="907.37" y="-141.5" font-family="Helvetica,sans-Serif" font-size="10.00">/types.hpp</text>
</a>
</g>
</g>
<!-- Node2&#45;&gt;Node6 -->
<g id="edge53" class="edge">
<title>Node2&#45;&gt;Node6</title>
<path fill="none" stroke="midnightblue" d="M428.09,-491.73C629.6,-482.01 1247.37,-445.43 1247.37,-362.5 1247.37,-362.5 1247.37,-362.5 1247.37,-288 1247.37,-248.42 1257.17,-228.15 1228.37,-201 1192.46,-167.15 1055.71,-155.98 972.72,-152.3"/>
<polygon fill="midnightblue" stroke="midnightblue" points="972.77,-148.8 962.63,-151.88 972.47,-155.79 972.77,-148.8"/>
</g>
<!-- Node11 -->
<g id="node11" class="node">
<title>Node11</title>
<g id="a_node11"><a xlink:title=" ">
<polygon fill="white" stroke="#bfbfbf" points="131.37,-73 131.37,-92 175.37,-92 175.37,-73 131.37,-73"/>
<text text-anchor="middle" x="153.37" y="-80" font-family="Helvetica,sans-Serif" font-size="10.00">string</text>
</a>
</g>
</g>
<!-- Node2&#45;&gt;Node11 -->
<g id="edge55" class="edge">
<title>Node2&#45;&gt;Node11</title>
<path fill="none" stroke="midnightblue" d="M302.63,-490.32C228.08,-484.23 109.37,-470.61 74.37,-444 14.07,-398.16 1.37,-365.74 1.37,-290 1.37,-290 1.37,-290 1.37,-215.5 1.37,-178.31 -4.11,-162 20.37,-134 46.04,-104.64 90.63,-92.29 121.05,-87.13"/>
<polygon fill="midnightblue" stroke="midnightblue" points="121.8,-90.56 131.16,-85.59 120.75,-83.64 121.8,-90.56"/>
</g>
<!-- Node2&#45;&gt;Node28 -->
<g id="edge54" class="edge">
<title>Node2&#45;&gt;Node28</title>
<path fill="none" stroke="midnightblue" d="M302.71,-490.54C232.68,-484.8 125.29,-471.69 96.37,-444 69.51,-418.28 77.37,-399.69 77.37,-362.5 77.37,-362.5 77.37,-362.5 77.37,-288 77.37,-245.18 68.22,-195.55 62.62,-169.2"/>
<polygon fill="midnightblue" stroke="midnightblue" points="65.97,-168.15 60.4,-159.13 59.13,-169.65 65.97,-168.15"/>
</g>
<!-- Node35 -->
<g id="node35" class="node">
<title>Node35</title>
<g id="a_node35"><a xlink:href="RankID_8hpp.html" target="_top" xlink:title=" ">
<polygon fill="white" stroke="black" points="763.87,-346.5 763.87,-376.5 888.87,-376.5 888.87,-346.5 763.87,-346.5"/>
<text text-anchor="start" x="771.87" y="-364.5" font-family="Helvetica,sans-Serif" font-size="10.00">packages/concurrency</text>
<text text-anchor="middle" x="826.37" y="-353.5" font-family="Helvetica,sans-Serif" font-size="10.00">/inc/RankID.hpp</text>
</a>
</g>
</g>
<!-- Node2&#45;&gt;Node35 -->
<g id="edge48" class="edge">
<title>Node2&#45;&gt;Node35</title>
<path fill="none" stroke="midnightblue" d="M427.89,-493.59C529.07,-491.03 723.06,-481.26 779.37,-444 799.6,-430.62 812.17,-405.34 819.17,-386.46"/>
<polygon fill="midnightblue" stroke="midnightblue" points="822.56,-387.35 822.49,-376.76 815.94,-385.08 822.56,-387.35"/>
</g>
<!-- Node37 -->
<g id="node37" class="node">
<title>Node37</title>
<g id="a_node37"><a xlink:href="MessageTag_8hpp.html" target="_top" xlink:title=" ">
<polygon fill="white" stroke="black" points="248.87,-413.5 248.87,-443.5 373.87,-443.5 373.87,-413.5 248.87,-413.5"/>
<text text-anchor="start" x="256.87" y="-431.5" font-family="Helvetica,sans-Serif" font-size="10.00">packages/concurrency</text>
<text text-anchor="middle" x="311.37" y="-420.5" font-family="Helvetica,sans-Serif" font-size="10.00">/inc/MessageTag.hpp</text>
</a>
</g>
</g>
<!-- Node2&#45;&gt;Node37 -->
<g id="edge52" class="edge">
<title>Node2&#45;&gt;Node37</title>
<path fill="none" stroke="midnightblue" d="M353.65,-480.4C346.65,-471.96 337.6,-461.07 329.67,-451.52"/>
<polygon fill="midnightblue" stroke="midnightblue" points="332.15,-449.03 323.06,-443.58 326.76,-453.51 332.15,-449.03"/>
</g>
<!-- Node38 -->
<g id="node38" class="node">
<title>Node38</title>
<g id="a_node38"><a xlink:title=" ">
<polygon fill="white" stroke="#bfbfbf" points="392.37,-419 392.37,-438 448.37,-438 448.37,-419 392.37,-419"/>
<text text-anchor="middle" x="420.37" y="-426" font-family="Helvetica,sans-Serif" font-size="10.00">optional</text>
</a>
</g>
</g>
<!-- Node2&#45;&gt;Node38 -->
<g id="edge56" class="edge">
<title>Node2&#45;&gt;Node38</title>
<path fill="none" stroke="midnightblue" d="M377.3,-480.4C385.88,-470.26 397.47,-456.57 406.46,-445.94"/>
<polygon fill="midnightblue" stroke="midnightblue" points="409.23,-448.09 413.01,-438.19 403.88,-443.57 409.23,-448.09"/>
</g>
<!-- Node39 -->
<g id="node39" class="node">
<title>Node39</title>
<g id="a_node39"><a xlink:title=" ">
<polygon fill="white" stroke="#bfbfbf" points="466.87,-413.5 466.87,-443.5 591.87,-443.5 591.87,-413.5 466.87,-413.5"/>
<text text-anchor="start" x="474.87" y="-431.5" font-family="Helvetica,sans-Serif" font-size="10.00">packages/concurrency</text>
<text text-anchor="middle" x="529.37" y="-420.5" font-family="Helvetica,sans-Serif" font-size="10.00">/impl/MPI_impl.hpp</text>
</a>
</g>
</g>
<!-- Node2&#45;&gt;Node39 -->
<g id="edge57" class="edge">
<title>Node2&#45;&gt;Node39</title>
<path fill="none" stroke="midnightblue" d="M400.96,-480.4C425.46,-470.69 458.2,-457.71 484.49,-447.29"/>
<polygon fill="midnightblue" stroke="midnightblue" points="485.85,-450.51 493.85,-443.58 483.27,-444.01 485.85,-450.51"/>
</g>
<!-- Node5 -->
<g id="node5" class="node">
<title>Node5</title>
<g id="a_node5"><a xlink:href="basic__concepts_8hpp.html" target="_top" xlink:title=" ">
<polygon fill="white" stroke="black" points="567.37,-268.5 567.37,-309.5 699.37,-309.5 699.37,-268.5 567.37,-268.5"/>
<text text-anchor="start" x="575.37" y="-297.5" font-family="Helvetica,sans-Serif" font-size="10.00">packages/compile_time</text>
<text text-anchor="start" x="575.37" y="-286.5" font-family="Helvetica,sans-Serif" font-size="10.00">/packages/concepts/inc</text>
<text text-anchor="middle" x="633.37" y="-275.5" font-family="Helvetica,sans-Serif" font-size="10.00">/basic_concepts.hpp</text>
</a>
</g>
</g>
<!-- Node4&#45;&gt;Node5 -->
<g id="edge4" class="edge">
<title>Node4&#45;&gt;Node5</title>
<path fill="none" stroke="midnightblue" d="M689.04,-418.63C686.54,-403.33 680.36,-371.17 669.37,-346 665.22,-336.49 659.55,-326.76 653.94,-318.13"/>
<polygon fill="midnightblue" stroke="midnightblue" points="656.67,-315.93 648.18,-309.6 650.87,-319.85 656.67,-315.93"/>
</g>
<!-- Node4&#45;&gt;Node6 -->
<g id="edge27" class="edge">
<title>Node4&#45;&gt;Node6</title>
<path fill="none" stroke="midnightblue" d="M691.07,-418.68C693.6,-392.39 704.49,-313.61 746.37,-268 772.74,-239.28 794.32,-254.2 826.37,-232 850.61,-215.21 873.86,-190.64 889.19,-172.87"/>
<polygon fill="midnightblue" stroke="midnightblue" points="892.26,-174.65 896.04,-164.76 886.91,-170.14 892.26,-174.65"/>
</g>
<!-- Node4&#45;&gt;Node11 -->
<g id="edge46" class="edge">
<title>Node4&#45;&gt;Node11</title>
<path fill="none" stroke="midnightblue" d="M637.55,-418.99C625.34,-417.02 612.4,-414.94 600.37,-413 490.59,-395.34 115.37,-401.19 115.37,-290 115.37,-290 115.37,-290 115.37,-215.5 115.37,-173.35 133.48,-126.48 144.7,-101.5"/>
<polygon fill="midnightblue" stroke="midnightblue" points="147.98,-102.76 149.01,-92.21 141.63,-99.81 147.98,-102.76"/>
</g>
<!-- Node19 -->
<g id="node19" class="node">
<title>Node19</title>
<g id="a_node19"><a xlink:href="Traits_8hpp.html" target="_top" xlink:title=" ">
<polygon fill="white" stroke="black" points="917.37,-352 917.37,-371 1059.37,-371 1059.37,-352 917.37,-352"/>
<text text-anchor="middle" x="988.37" y="-359" font-family="Helvetica,sans-Serif" font-size="10.00">packages/io/inc/Traits.hpp</text>
</a>
</g>
</g>
<!-- Node4&#45;&gt;Node19 -->
<g id="edge19" class="edge">
<title>Node4&#45;&gt;Node19</title>
<path fill="none" stroke="midnightblue" d="M729.64,-418.94C783.57,-407.17 880.55,-386.02 939.23,-373.22"/>
<polygon fill="midnightblue" stroke="midnightblue" points="939.99,-376.63 949.02,-371.08 938.5,-369.8 939.99,-376.63"/>
</g>
<!-- Node20 -->
<g id="node20" class="node">
<title>Node20</title>
<g id="a_node20"><a xlink:href="tags_8hpp.html" target="_top" xlink:title=" ">
<polygon fill="white" stroke="black" points="1043.37,-274 1043.37,-304 1153.37,-304 1153.37,-274 1043.37,-274"/>
<text text-anchor="start" x="1051.37" y="-292" font-family="Helvetica,sans-Serif" font-size="10.00">packages/types/inc</text>
<text text-anchor="middle" x="1098.37" y="-281" font-family="Helvetica,sans-Serif" font-size="10.00">/tags.hpp</text>
</a>
</g>
</g>
<!-- Node4&#45;&gt;Node20 -->
<g id="edge26" class="edge">
<title>Node4&#45;&gt;Node20</title>
<path fill="none" stroke="midnightblue" d="M771.1,-426.42C868.36,-423.49 1024.24,-413.11 1068.37,-377 1087.03,-361.73 1094.11,-334.24 1096.79,-314.24"/>
<polygon fill="midnightblue" stroke="midnightblue" points="1100.27,-314.61 1097.84,-304.29 1093.31,-313.87 1100.27,-314.61"/>
</g>
<!-- Node24 -->
<g id="node24" class="node">
<title>Node24</title>
<g id="a_node24"><a xlink:href="checks_8hpp.html" target="_top" xlink:title=" ">
<polygon fill="white" stroke="black" points="385.87,-346.5 385.87,-376.5 504.87,-376.5 504.87,-346.5 385.87,-346.5"/>
<text text-anchor="start" x="393.87" y="-364.5" font-family="Helvetica,sans-Serif" font-size="10.00">packages/macros/inc</text>
<text text-anchor="middle" x="445.37" y="-353.5" font-family="Helvetica,sans-Serif" font-size="10.00">/checks.hpp</text>
</a>
</g>
</g>
<!-- Node4&#45;&gt;Node24 -->
<g id="edge28" class="edge">
<title>Node4&#45;&gt;Node24</title>
<path fill="none" stroke="midnightblue" d="M658.09,-418.94C620.12,-408.86 556.2,-391.9 508.32,-379.2"/>
<polygon fill="midnightblue" stroke="midnightblue" points="508.93,-375.74 498.36,-376.56 507.13,-382.51 508.93,-375.74"/>
</g>
<!-- Node34 -->
<g id="node34" class="node">
<title>Node34</title>
<g id="a_node34"><a xlink:title=" ">
<polygon fill="white" stroke="#bfbfbf" points="619.87,-352 619.87,-371 660.87,-371 660.87,-352 619.87,-352"/>
<text text-anchor="middle" x="640.37" y="-359" font-family="Helvetica,sans-Serif" font-size="10.00">tuple</text>
</a>
</g>
</g>
<!-- Node4&#45;&gt;Node34 -->
<g id="edge47" class="edge">
<title>Node4&#45;&gt;Node34</title>
<path fill="none" stroke="midnightblue" d="M683.63,-418.73C675.83,-408.6 662.82,-391.69 653.11,-379.06"/>
<polygon fill="midnightblue" stroke="midnightblue" points="655.88,-376.92 647.01,-371.13 650.33,-381.19 655.88,-376.92"/>
</g>
<!-- Node5&#45;&gt;Node6 -->
<g id="edge5" class="edge">
<title>Node5&#45;&gt;Node6</title>
<path fill="none" stroke="midnightblue" d="M699.47,-268.5C727.86,-259.06 760.96,-246.59 789.37,-232 798.73,-227.19 847.21,-193.17 879.05,-170.63"/>
<polygon fill="midnightblue" stroke="midnightblue" points="881.41,-173.25 887.54,-164.62 877.36,-167.54 881.41,-173.25"/>
</g>
<!-- Node12 -->
<g id="node12" class="node">
<title>Node12</title>
<g id="a_node12"><a xlink:title=" ">
<polygon fill="white" stroke="#bfbfbf" points="623.87,-73 623.87,-92 692.87,-92 692.87,-73 623.87,-73"/>
<text text-anchor="middle" x="658.37" y="-80" font-family="Helvetica,sans-Serif" font-size="10.00">type_traits</text>
</a>
</g>
</g>
<!-- Node5&#45;&gt;Node12 -->
<g id="edge16" class="edge">
<title>Node5&#45;&gt;Node12</title>
<path fill="none" stroke="midnightblue" d="M699.61,-273.31C721.48,-264.98 743.48,-252.03 756.37,-232 788.25,-182.46 718.24,-124.32 680.46,-97.88"/>
<polygon fill="midnightblue" stroke="midnightblue" points="682.3,-94.9 672.07,-92.16 678.36,-100.68 682.3,-94.9"/>
</g>
<!-- Node16 -->
<g id="node16" class="node">
<title>Node16</title>
<g id="a_node16"><a xlink:title=" ">
<polygon fill="white" stroke="#bfbfbf" points="555.37,-207 555.37,-226 615.37,-226 615.37,-207 555.37,-207"/>
<text text-anchor="middle" x="585.37" y="-214" font-family="Helvetica,sans-Serif" font-size="10.00">concepts</text>
</a>
</g>
</g>
<!-- Node5&#45;&gt;Node16 -->
<g id="edge15" class="edge">
<title>Node5&#45;&gt;Node16</title>
<path fill="none" stroke="midnightblue" d="M620,-268.36C612.78,-257.76 603.95,-244.79 597.01,-234.6"/>
<polygon fill="midnightblue" stroke="midnightblue" points="599.8,-232.47 591.28,-226.17 594.01,-236.41 599.8,-232.47"/>
</g>
<!-- Node17 -->
<g id="node17" class="node">
<title>Node17</title>
<g id="a_node17"><a xlink:title=" ">
<polygon fill="white" stroke="#bfbfbf" points="697.37,-207 697.37,-226 747.37,-226 747.37,-207 697.37,-207"/>
<text text-anchor="middle" x="722.37" y="-214" font-family="Helvetica,sans-Serif" font-size="10.00">cstdint</text>
</a>
</g>
</g>
<!-- Node5&#45;&gt;Node17 -->
<g id="edge17" class="edge">
<title>Node5&#45;&gt;Node17</title>
<path fill="none" stroke="midnightblue" d="M658.16,-268.36C672.51,-257 690.28,-242.92 703.48,-232.46"/>
<polygon fill="midnightblue" stroke="midnightblue" points="705.76,-235.13 711.42,-226.17 701.41,-229.64 705.76,-235.13"/>
</g>
<!-- Node18 -->
<g id="node18" class="node">
<title>Node18</title>
<g id="a_node18"><a xlink:title=" ">
<polygon fill="white" stroke="#bfbfbf" points="633.87,-207 633.87,-226 678.87,-226 678.87,-207 633.87,-207"/>
<text text-anchor="middle" x="656.37" y="-214" font-family="Helvetica,sans-Serif" font-size="10.00">utility</text>
</a>
</g>
</g>
<!-- Node5&#45;&gt;Node18 -->
<g id="edge18" class="edge">
<title>Node5&#45;&gt;Node18</title>
<path fill="none" stroke="midnightblue" d="M639.78,-268.36C643.1,-258.19 647.12,-245.84 650.38,-235.86"/>
<polygon fill="midnightblue" stroke="midnightblue" points="653.77,-236.77 653.54,-226.17 647.11,-234.59 653.77,-236.77"/>
</g>
<!-- Node7 -->
<g id="node7" class="node">
<title>Node7</title>
<g id="a_node7"><a xlink:href="debug_8hpp.html" target="_top" xlink:title=" ">
<polygon fill="white" stroke="black" points="847.87,-67.5 847.87,-97.5 966.87,-97.5 966.87,-67.5 847.87,-67.5"/>
<text text-anchor="start" x="855.87" y="-85.5" font-family="Helvetica,sans-Serif" font-size="10.00">packages/macros/inc</text>
<text text-anchor="middle" x="907.37" y="-74.5" font-family="Helvetica,sans-Serif" font-size="10.00">/debug.hpp</text>
</a>
</g>
</g>
<!-- Node6&#45;&gt;Node7 -->
<g id="edge6" class="edge">
<title>Node6&#45;&gt;Node7</title>
<path fill="none" stroke="midnightblue" d="M907.37,-134.4C907.37,-126.64 907.37,-116.81 907.37,-107.86"/>
<polygon fill="midnightblue" stroke="midnightblue" points="910.87,-107.58 907.37,-97.58 903.87,-107.58 910.87,-107.58"/>
</g>
<!-- Node10 -->
<g id="node10" class="node">
<title>Node10</title>
<g id="a_node10"><a xlink:title=" ">
<polygon fill="white" stroke="#bfbfbf" points="984.87,-73 984.87,-92 1037.87,-92 1037.87,-73 984.87,-73"/>
<text text-anchor="middle" x="1011.37" y="-80" font-family="Helvetica,sans-Serif" font-size="10.00">cstddef</text>
</a>
</g>
</g>
<!-- Node6&#45;&gt;Node10 -->
<g id="edge9" class="edge">
<title>Node6&#45;&gt;Node10</title>
<path fill="none" stroke="midnightblue" d="M929.94,-134.4C947.38,-123.5 971.4,-108.48 988.84,-97.58"/>
<polygon fill="midnightblue" stroke="midnightblue" points="991.13,-100.28 997.76,-92.01 987.42,-94.34 991.13,-100.28"/>
</g>
<!-- Node6&#45;&gt;Node11 -->
<g id="edge10" class="edge">
<title>Node6&#45;&gt;Node11</title>
<path fill="none" stroke="midnightblue" d="M852.23,-143.75C704.42,-131 302.6,-96.36 185.69,-86.29"/>
<polygon fill="midnightblue" stroke="midnightblue" points="185.85,-82.79 175.59,-85.42 185.25,-89.76 185.85,-82.79"/>
</g>
<!-- Node6&#45;&gt;Node12 -->
<g id="edge11" class="edge">
<title>Node6&#45;&gt;Node12</title>
<path fill="none" stroke="midnightblue" d="M851.95,-136.26C810.29,-126.73 751.94,-112.69 701.37,-98 698.44,-97.15 695.41,-96.22 692.38,-95.26"/>
<polygon fill="midnightblue" stroke="midnightblue" points="693.41,-91.92 682.82,-92.14 691.24,-98.57 693.41,-91.92"/>
</g>
<!-- Node13 -->
<g id="node13" class="node">
<title>Node13</title>
<g id="a_node13"><a xlink:title=" ">
<polygon fill="white" stroke="#bfbfbf" points="1056.37,-73 1056.37,-92 1106.37,-92 1106.37,-73 1056.37,-73"/>
<text text-anchor="middle" x="1081.37" y="-80" font-family="Helvetica,sans-Serif" font-size="10.00">climits</text>
</a>
</g>
</g>
<!-- Node6&#45;&gt;Node13 -->
<g id="edge12" class="edge">
<title>Node6&#45;&gt;Node13</title>
<path fill="none" stroke="midnightblue" d="M947.39,-134.49C975.26,-124.6 1013.22,-110.88 1046.37,-98 1048.01,-97.36 1049.7,-96.7 1051.39,-96.02"/>
<polygon fill="midnightblue" stroke="midnightblue" points="1053.13,-99.09 1061.07,-92.09 1050.49,-92.61 1053.13,-99.09"/>
</g>
<!-- Node14 -->
<g id="node14" class="node">
<title>Node14</title>
<g id="a_node14"><a xlink:title=" ">
<polygon fill="white" stroke="#bfbfbf" points="1124.87,-67.5 1124.87,-97.5 1241.87,-97.5 1241.87,-67.5 1124.87,-67.5"/>
<text text-anchor="start" x="1132.87" y="-85.5" font-family="Helvetica,sans-Serif" font-size="10.00">packages/types/impl</text>
<text text-anchor="middle" x="1183.37" y="-74.5" font-family="Helvetica,sans-Serif" font-size="10.00">/types_impl.hpp</text>
</a>
</g>
</g>
<!-- Node6&#45;&gt;Node14 -->
<g id="edge13" class="edge">
<title>Node6&#45;&gt;Node14</title>
<path fill="none" stroke="midnightblue" d="M962.56,-135.5C1006.33,-125.2 1067.73,-110.74 1114.67,-99.68"/>
<polygon fill="midnightblue" stroke="midnightblue" points="1115.53,-103.07 1124.46,-97.37 1113.92,-96.26 1115.53,-103.07"/>
</g>
<!-- Node15 -->
<g id="node15" class="node">
<title>Node15</title>
<g id="a_node15"><a xlink:href="logging_8hpp.html" target="_top" xlink:title=" ">
<polygon fill="white" stroke="black" points="710.87,-67.5 710.87,-97.5 829.87,-97.5 829.87,-67.5 710.87,-67.5"/>
<text text-anchor="start" x="718.87" y="-85.5" font-family="Helvetica,sans-Serif" font-size="10.00">packages/macros/inc</text>
<text text-anchor="middle" x="770.37" y="-74.5" font-family="Helvetica,sans-Serif" font-size="10.00">/logging.hpp</text>
</a>
</g>
</g>
<!-- Node6&#45;&gt;Node15 -->
<g id="edge14" class="edge">
<title>Node6&#45;&gt;Node15</title>
<path fill="none" stroke="midnightblue" d="M877.64,-134.4C857.63,-124.9 831.02,-112.28 809.32,-101.98"/>
<polygon fill="midnightblue" stroke="midnightblue" points="810.57,-98.7 800.04,-97.58 807.57,-105.03 810.57,-98.7"/>
</g>
<!-- Node8 -->
<g id="node8" class="node">
<title>Node8</title>
<g id="a_node8"><a xlink:href="detail_8hpp.html" target="_top" xlink:title=" ">
<polygon fill="white" stroke="black" points="534.87,-0.5 534.87,-30.5 653.87,-30.5 653.87,-0.5 534.87,-0.5"/>
<text text-anchor="start" x="542.87" y="-18.5" font-family="Helvetica,sans-Serif" font-size="10.00">packages/macros/inc</text>
<text text-anchor="middle" x="594.37" y="-7.5" font-family="Helvetica,sans-Serif" font-size="10.00">/detail.hpp</text>
</a>
</g>
</g>
<!-- Node7&#45;&gt;Node8 -->
<g id="edge7" class="edge">
<title>Node7&#45;&gt;Node8</title>
<path fill="none" stroke="midnightblue" d="M847.53,-68.91C844.43,-68.27 841.37,-67.62 838.37,-67 779.54,-54.73 712.7,-40.9 663.87,-30.83"/>
<polygon fill="midnightblue" stroke="midnightblue" points="664.55,-27.39 654.05,-28.8 663.13,-34.25 664.55,-27.39"/>
</g>
<!-- Node9 -->
<g id="node9" class="node">
<title>Node9</title>
<g id="a_node9"><a xlink:title=" ">
<polygon fill="white" stroke="#bfbfbf" points="877.37,-6 877.37,-25 937.37,-25 937.37,-6 877.37,-6"/>
<text text-anchor="middle" x="907.37" y="-13" font-family="Helvetica,sans-Serif" font-size="10.00">iostream</text>
</a>
</g>
</g>
<!-- Node7&#45;&gt;Node9 -->
<g id="edge8" class="edge">
<title>Node7&#45;&gt;Node9</title>
<path fill="none" stroke="midnightblue" d="M907.37,-67.4C907.37,-58.06 907.37,-45.71 907.37,-35.52"/>
<polygon fill="midnightblue" stroke="midnightblue" points="910.87,-35.19 907.37,-25.19 903.87,-35.19 910.87,-35.19"/>
</g>
<!-- Node19&#45;&gt;Node6 -->
<g id="edge20" class="edge">
<title>Node19&#45;&gt;Node6</title>
<path fill="none" stroke="midnightblue" d="M991.39,-351.81C996.7,-335.09 1006.28,-297.49 996.37,-268 983.39,-229.37 952.13,-193.34 930.35,-171.62"/>
<polygon fill="midnightblue" stroke="midnightblue" points="932.69,-169.02 923.08,-164.55 927.81,-174.03 932.69,-169.02"/>
</g>
<!-- Node19&#45;&gt;Node20 -->
<g id="edge21" class="edge">
<title>Node19&#45;&gt;Node20</title>
<path fill="none" stroke="midnightblue" d="M1001.86,-351.86C1018.2,-341.38 1046.21,-323.43 1067.87,-309.55"/>
<polygon fill="midnightblue" stroke="midnightblue" points="1069.88,-312.42 1076.41,-304.08 1066.1,-306.53 1069.88,-312.42"/>
</g>
<!-- Node23 -->
<g id="node23" class="node">
<title>Node23</title>
<g id="a_node23"><a xlink:title=" ">
<polygon fill="white" stroke="#bfbfbf" points="939.37,-279.5 939.37,-298.5 987.37,-298.5 987.37,-279.5 939.37,-279.5"/>
<text text-anchor="middle" x="963.37" y="-286.5" font-family="Helvetica,sans-Serif" font-size="10.00">iosfwd</text>
</a>
</g>
</g>
<!-- Node19&#45;&gt;Node23 -->
<g id="edge25" class="edge">
<title>Node19&#45;&gt;Node23</title>
<path fill="none" stroke="midnightblue" d="M985.31,-351.86C981.48,-341.07 974.84,-322.35 969.87,-308.32"/>
<polygon fill="midnightblue" stroke="midnightblue" points="973.1,-306.97 966.46,-298.72 966.5,-309.31 973.1,-306.97"/>
</g>
<!-- Node20&#45;&gt;Node6 -->
<g id="edge22" class="edge">
<title>Node20&#45;&gt;Node6</title>
<path fill="none" stroke="midnightblue" d="M1081.48,-273.88C1060.07,-256.19 1021.79,-225.26 987.37,-201 972.14,-190.27 954.7,-179.13 939.99,-170.05"/>
<polygon fill="midnightblue" stroke="midnightblue" points="941.59,-166.93 931.24,-164.69 937.94,-172.9 941.59,-166.93"/>
</g>
<!-- Node21 -->
<g id="node21" class="node">
<title>Node21</title>
<g id="a_node21"><a xlink:title=" ">
<polygon fill="white" stroke="#bfbfbf" points="1175.37,-207 1175.37,-226 1219.37,-226 1219.37,-207 1175.37,-207"/>
<text text-anchor="middle" x="1197.37" y="-214" font-family="Helvetica,sans-Serif" font-size="10.00">bitset</text>
</a>
</g>
</g>
<!-- Node20&#45;&gt;Node21 -->
<g id="edge23" class="edge">
<title>Node20&#45;&gt;Node21</title>
<path fill="none" stroke="midnightblue" d="M1118.4,-273.73C1135.44,-261.6 1159.79,-244.26 1176.93,-232.05"/>
<polygon fill="midnightblue" stroke="midnightblue" points="1179.05,-234.84 1185.17,-226.19 1174.99,-229.14 1179.05,-234.84"/>
</g>
<!-- Node22 -->
<g id="node22" class="node">
<title>Node22</title>
<g id="a_node22"><a xlink:title=" ">
<polygon fill="white" stroke="#bfbfbf" points="1039.87,-201.5 1039.87,-231.5 1156.87,-231.5 1156.87,-201.5 1039.87,-201.5"/>
<text text-anchor="start" x="1047.87" y="-219.5" font-family="Helvetica,sans-Serif" font-size="10.00">packages/types/impl</text>
<text text-anchor="middle" x="1098.37" y="-208.5" font-family="Helvetica,sans-Serif" font-size="10.00">/tags_impl.hpp</text>
</a>
</g>
</g>
<!-- Node20&#45;&gt;Node22 -->
<g id="edge24" class="edge">
<title>Node20&#45;&gt;Node22</title>
<path fill="none" stroke="midnightblue" d="M1098.37,-273.73C1098.37,-264.66 1098.37,-252.66 1098.37,-242.08"/>
<polygon fill="midnightblue" stroke="midnightblue" points="1101.87,-241.75 1098.37,-231.75 1094.87,-241.75 1101.87,-241.75"/>
</g>
<!-- Node24&#45;&gt;Node8 -->
<g id="edge41" class="edge">
<title>Node24&#45;&gt;Node8</title>
<path fill="none" stroke="midnightblue" d="M457.93,-346.44C466.43,-336.59 477.67,-322.93 486.37,-310 517.25,-264.13 515.97,-247.19 546.37,-201 557.51,-184.07 566.52,-183.69 574.37,-165 591.68,-123.77 594.76,-70.96 594.92,-40.7"/>
<polygon fill="midnightblue" stroke="midnightblue" points="598.42,-40.62 594.86,-30.64 591.42,-40.66 598.42,-40.62"/>
</g>
<!-- Node25 -->
<g id="node25" class="node">
<title>Node25</title>
<g id="a_node25"><a xlink:href="exception_8hpp.html" target="_top" xlink:title=" ">
<polygon fill="white" stroke="black" points="305.87,-201.5 305.87,-231.5 424.87,-231.5 424.87,-201.5 305.87,-201.5"/>
<text text-anchor="start" x="313.87" y="-219.5" font-family="Helvetica,sans-Serif" font-size="10.00">packages/exceptions</text>
<text text-anchor="middle" x="365.37" y="-208.5" font-family="Helvetica,sans-Serif" font-size="10.00">/inc/exception.hpp</text>
</a>
</g>
</g>
<!-- Node24&#45;&gt;Node25 -->
<g id="edge29" class="edge">
<title>Node24&#45;&gt;Node25</title>
<path fill="none" stroke="midnightblue" d="M385.73,-347.95C365.26,-340.49 344.47,-328.66 332.37,-310 318.15,-288.07 332.8,-259.23 346.84,-239.62"/>
<polygon fill="midnightblue" stroke="midnightblue" points="349.68,-241.66 352.93,-231.58 344.1,-237.43 349.68,-241.66"/>
</g>
<!-- Node30 -->
<g id="node30" class="node">
<title>Node30</title>
<g id="a_node30"><a xlink:href="exceptions_8hpp.html" target="_top" xlink:title=" ">
<polygon fill="white" stroke="black" points="341.87,-274 341.87,-304 460.87,-304 460.87,-274 341.87,-274"/>
<text text-anchor="start" x="349.87" y="-292" font-family="Helvetica,sans-Serif" font-size="10.00">packages/macros/inc</text>
<text text-anchor="middle" x="401.37" y="-281" font-family="Helvetica,sans-Serif" font-size="10.00">/exceptions.hpp</text>
</a>
</g>
</g>
<!-- Node24&#45;&gt;Node30 -->
<g id="edge36" class="edge">
<title>Node24&#45;&gt;Node30</title>
<path fill="none" stroke="midnightblue" d="M436.47,-346.23C430.5,-336.68 422.52,-323.89 415.67,-312.92"/>
<polygon fill="midnightblue" stroke="midnightblue" points="418.53,-310.88 410.26,-304.25 412.59,-314.58 418.53,-310.88"/>
</g>
<!-- Node31 -->
<g id="node31" class="node">
<title>Node31</title>
<g id="a_node31"><a xlink:title=" ">
<polygon fill="white" stroke="#bfbfbf" points="443.37,-207 443.37,-226 499.37,-226 499.37,-207 443.37,-207"/>
<text text-anchor="middle" x="471.37" y="-214" font-family="Helvetica,sans-Serif" font-size="10.00">sstream</text>
</a>
</g>
</g>
<!-- Node24&#45;&gt;Node31 -->
<g id="edge45" class="edge">
<title>Node24&#45;&gt;Node31</title>
<path fill="none" stroke="midnightblue" d="M454.24,-346.08C459.74,-336.3 466.33,-322.85 469.37,-310 475.29,-285.03 474.6,-255.2 473.24,-236.31"/>
<polygon fill="midnightblue" stroke="midnightblue" points="476.73,-235.99 472.39,-226.33 469.76,-236.59 476.73,-235.99"/>
</g>
<!-- Node32 -->
<g id="node32" class="node">
<title>Node32</title>
<g id="a_node32"><a xlink:href="cmake__variables_8hpp.html" target="_top" xlink:title=" ">
<polygon fill="white" stroke="black" points="155.37,-279.5 155.37,-298.5 275.37,-298.5 275.37,-279.5 155.37,-279.5"/>
<text text-anchor="middle" x="215.37" y="-286.5" font-family="Helvetica,sans-Serif" font-size="10.00">cmake_variables.hpp</text>
</a>
</g>
</g>
<!-- Node24&#45;&gt;Node32 -->
<g id="edge42" class="edge">
<title>Node24&#45;&gt;Node32</title>
<path fill="none" stroke="midnightblue" d="M399.65,-346.49C356.66,-333.31 293.07,-313.82 252.95,-301.52"/>
<polygon fill="midnightblue" stroke="midnightblue" points="253.87,-298.14 243.28,-298.55 251.82,-304.83 253.87,-298.14"/>
</g>
<!-- Node25&#45;&gt;Node6 -->
<g id="edge30" class="edge">
<title>Node25&#45;&gt;Node6</title>
<path fill="none" stroke="midnightblue" d="M425.14,-202.55C428.26,-202 431.35,-201.48 434.37,-201 579.09,-178.13 750.39,-162.7 841.93,-155.39"/>
<polygon fill="midnightblue" stroke="midnightblue" points="842.46,-158.86 852.15,-154.58 841.9,-151.88 842.46,-158.86"/>
</g>
<!-- Node25&#45;&gt;Node11 -->
<g id="edge32" class="edge">
<title>Node25&#45;&gt;Node11</title>
<path fill="none" stroke="midnightblue" d="M332.54,-201.3C311.88,-191.91 284.97,-178.82 262.37,-165 228.53,-144.3 192.2,-115.7 171.2,-98.47"/>
<polygon fill="midnightblue" stroke="midnightblue" points="173.37,-95.72 163.44,-92.04 168.91,-101.11 173.37,-95.72"/>
</g>
<!-- Node26 -->
<g id="node26" class="node">
<title>Node26</title>
<g id="a_node26"><a xlink:title=" ">
<polygon fill="white" stroke="#bfbfbf" points="435.87,-140 435.87,-159 500.87,-159 500.87,-140 435.87,-140"/>
<text text-anchor="middle" x="468.37" y="-147" font-family="Helvetica,sans-Serif" font-size="10.00">stdexcept</text>
</a>
</g>
</g>
<!-- Node25&#45;&gt;Node26 -->
<g id="edge31" class="edge">
<title>Node25&#45;&gt;Node26</title>
<path fill="none" stroke="midnightblue" d="M387.72,-201.4C404.99,-190.5 428.79,-175.48 446.05,-164.58"/>
<polygon fill="midnightblue" stroke="midnightblue" points="448.3,-167.3 454.89,-159.01 444.57,-161.38 448.3,-167.3"/>
</g>
<!-- Node27 -->
<g id="node27" class="node">
<title>Node27</title>
<g id="a_node27"><a xlink:title=" ">
<polygon fill="white" stroke="#bfbfbf" points="518.87,-140 518.87,-159 565.87,-159 565.87,-140 518.87,-140"/>
<text text-anchor="middle" x="542.37" y="-147" font-family="Helvetica,sans-Serif" font-size="10.00">deque</text>
</a>
</g>
</g>
<!-- Node25&#45;&gt;Node27 -->
<g id="edge33" class="edge">
<title>Node25&#45;&gt;Node27</title>
<path fill="none" stroke="midnightblue" d="M408.22,-201.43C437.02,-191.74 475.73,-178.27 509.37,-165 510.97,-164.37 512.61,-163.71 514.26,-163.02"/>
<polygon fill="midnightblue" stroke="midnightblue" points="515.8,-166.17 523.63,-159.03 513.06,-159.73 515.8,-166.17"/>
</g>
<!-- Node25&#45;&gt;Node28 -->
<g id="edge34" class="edge">
<title>Node25&#45;&gt;Node28</title>
<path fill="none" stroke="midnightblue" d="M305.81,-202.89C244.35,-189.88 150.23,-169.95 97.55,-158.8"/>
<polygon fill="midnightblue" stroke="midnightblue" points="98.1,-155.33 87.59,-156.69 96.65,-162.18 98.1,-155.33"/>
</g>
<!-- Node29 -->
<g id="node29" class="node">
<title>Node29</title>
<g id="a_node29"><a xlink:title=" ">
<polygon fill="white" stroke="#bfbfbf" points="271.37,-134.5 271.37,-164.5 417.37,-164.5 417.37,-134.5 271.37,-134.5"/>
<text text-anchor="start" x="279.37" y="-152.5" font-family="Helvetica,sans-Serif" font-size="10.00">packages/exceptions</text>
<text text-anchor="middle" x="344.37" y="-141.5" font-family="Helvetica,sans-Serif" font-size="10.00">/impl/exceptions_impl.hpp</text>
</a>
</g>
</g>
<!-- Node25&#45;&gt;Node29 -->
<g id="edge35" class="edge">
<title>Node25&#45;&gt;Node29</title>
<path fill="none" stroke="midnightblue" d="M360.81,-201.4C358.25,-193.47 354.99,-183.38 352.05,-174.27"/>
<polygon fill="midnightblue" stroke="midnightblue" points="355.32,-173.02 348.92,-164.58 348.66,-175.17 355.32,-173.02"/>
</g>
<!-- Node30&#45;&gt;Node8 -->
<g id="edge38" class="edge">
<title>Node30&#45;&gt;Node8</title>
<path fill="none" stroke="midnightblue" d="M362.24,-273.95C340.72,-264.67 314.73,-250.74 296.37,-232 264.1,-199.07 235.76,-171.65 262.37,-134 321.56,-50.26 445.7,-25.81 524.27,-18.91"/>
<polygon fill="midnightblue" stroke="midnightblue" points="524.89,-22.37 534.57,-18.08 524.32,-15.39 524.89,-22.37"/>
</g>
<!-- Node30&#45;&gt;Node16 -->
<g id="edge40" class="edge">
<title>Node30&#45;&gt;Node16</title>
<path fill="none" stroke="midnightblue" d="M438.16,-273.9C472,-260.94 521.64,-241.92 553.74,-229.62"/>
<polygon fill="midnightblue" stroke="midnightblue" points="555.01,-232.88 563.1,-226.03 552.51,-226.34 555.01,-232.88"/>
</g>
<!-- Node30&#45;&gt;Node25 -->
<g id="edge37" class="edge">
<title>Node30&#45;&gt;Node25</title>
<path fill="none" stroke="midnightblue" d="M394.09,-273.73C389.25,-264.27 382.81,-251.64 377.24,-240.75"/>
<polygon fill="midnightblue" stroke="midnightblue" points="380.31,-239.06 372.64,-231.75 374.08,-242.24 380.31,-239.06"/>
</g>
<!-- Node30&#45;&gt;Node31 -->
<g id="edge39" class="edge">
<title>Node30&#45;&gt;Node31</title>
<path fill="none" stroke="midnightblue" d="M415.54,-273.73C427.07,-262.12 443.35,-245.72 455.36,-233.62"/>
<polygon fill="midnightblue" stroke="midnightblue" points="457.98,-235.96 462.54,-226.39 453.01,-231.02 457.98,-235.96"/>
</g>
<!-- Node32&#45;&gt;Node11 -->
<g id="edge44" class="edge">
<title>Node32&#45;&gt;Node11</title>
<path fill="none" stroke="midnightblue" d="M206.4,-279.45C196.29,-269.21 180.22,-251.04 172.37,-232 154.35,-188.28 152.35,-131.7 152.7,-102.62"/>
<polygon fill="midnightblue" stroke="midnightblue" points="156.2,-102.35 152.94,-92.27 149.2,-102.19 156.2,-102.35"/>
</g>
<!-- Node33 -->
<g id="node33" class="node">
<title>Node33</title>
<g id="a_node33"><a xlink:title=" ">
<polygon fill="white" stroke="#bfbfbf" points="181.37,-207 181.37,-226 249.37,-226 249.37,-207 181.37,-207"/>
<text text-anchor="middle" x="215.37" y="-214" font-family="Helvetica,sans-Serif" font-size="10.00">filesystem</text>
</a>
</g>
</g>
<!-- Node32&#45;&gt;Node33 -->
<g id="edge43" class="edge">
<title>Node32&#45;&gt;Node33</title>
<path fill="none" stroke="midnightblue" d="M215.37,-279.36C215.37,-268.68 215.37,-250.22 215.37,-236.23"/>
<polygon fill="midnightblue" stroke="midnightblue" points="218.87,-236.22 215.37,-226.22 211.87,-236.22 218.87,-236.22"/>
</g>
<!-- Node35&#45;&gt;Node6 -->
<g id="edge49" class="edge">
<title>Node35&#45;&gt;Node6</title>
<path fill="none" stroke="midnightblue" d="M854.34,-346.34C868.2,-337.79 883.77,-325.52 892.37,-310 916.1,-267.15 914.28,-207.78 910.83,-174.89"/>
<polygon fill="midnightblue" stroke="midnightblue" points="914.29,-174.34 909.64,-164.82 907.34,-175.16 914.29,-174.34"/>
</g>
<!-- Node35&#45;&gt;Node23 -->
<g id="edge50" class="edge">
<title>Node35&#45;&gt;Node23</title>
<path fill="none" stroke="midnightblue" d="M854.16,-346.45C874.03,-336.37 901.39,-322.43 925.37,-310 929.5,-307.86 933.88,-305.57 938.14,-303.34"/>
<polygon fill="midnightblue" stroke="midnightblue" points="939.9,-306.36 947.12,-298.61 936.64,-300.17 939.9,-306.36"/>
</g>
<!-- Node36 -->
<g id="node36" class="node">
<title>Node36</title>
<g id="a_node36"><a xlink:title=" ">
<polygon fill="white" stroke="#bfbfbf" points="755.37,-274 755.37,-304 883.37,-304 883.37,-274 755.37,-274"/>
<text text-anchor="start" x="763.37" y="-292" font-family="Helvetica,sans-Serif" font-size="10.00">packages/concurrency</text>
<text text-anchor="middle" x="819.37" y="-281" font-family="Helvetica,sans-Serif" font-size="10.00">/impl/RankID_impl.hpp</text>
</a>
</g>
</g>
<!-- Node35&#45;&gt;Node36 -->
<g id="edge51" class="edge">
<title>Node35&#45;&gt;Node36</title>
<path fill="none" stroke="midnightblue" d="M824.95,-346.23C824.04,-337.06 822.84,-324.91 821.78,-314.24"/>
<polygon fill="midnightblue" stroke="midnightblue" points="825.26,-313.85 820.78,-304.25 818.29,-314.54 825.26,-313.85"/>
</g>
</g>
</svg>
        <g id="navigator" transform="translate(0 0)" fill="#404254">
                <rect fill="#f2f5e9" fill-opacity="0.5" stroke="#606060" stroke-width=".5" x="0" y="0" width="60" height="60"/>
                <use id="zoomplus" xlink:href="#zoomPlus" x="17" y="9" onmousedown="handleZoom(evt,'in')"/>
                <use id="zoomminus" xlink:href="#zoomMin" x="42" y="9" onmousedown="handleZoom(evt,'out')"/>
                <use id="reset" xlink:href="#resetDef" x="30" y="36" onmousedown="handleReset()"/>
                <g id="arrowUp" xlink:href="#dirArrow" transform="translate(30 24)" onmousedown="handlePan(0,-1)">
                  <use xlink:href="#rim" fill="#404040">
                        <set attributeName="fill" to="#808080" begin="arrowUp.mouseover" end="arrowUp.mouseout"/>
                  </use>
                  <path fill="none" stroke="white" stroke-width="1.5" d="M0,-3.0v7 M-2.5,-0.5L0,-3.0L2.5,-0.5"/>
                </g>
                <g id="arrowRight" xlink:href="#dirArrow" transform="rotate(90) translate(36 -43)" onmousedown="handlePan(1,0)">
                  <use xlink:href="#rim" fill="#404040">
                        <set attributeName="fill" to="#808080" begin="arrowRight.mouseover" end="arrowRight.mouseout"/>
                  </use>
                  <path fill="none" stroke="white" stroke-width="1.5" d="M0,-3.0v7 M-2.5,-0.5L0,-3.0L2.5,-0.5"/>
                </g>
                <g id="arrowDown" xlink:href="#dirArrow" transform="rotate(180) translate(-30 -48)" onmousedown="handlePan(0,1)">
                  <use xlink:href="#rim" fill="#404040">
                        <set attributeName="fill" to="#808080" begin="arrowDown.mouseover" end="arrowDown.mouseout"/>
                  </use>
                  <path fill="none" stroke="white" stroke-width="1.5" d="M0,-3.0v7 M-2.5,-0.5L0,-3.0L2.5,-0.5"/>
                </g>
                <g id="arrowLeft" xlink:href="#dirArrow" transform="rotate(270) translate(-36 17)" onmousedown="handlePan(-1,0)">
                  <use xlink:href="#rim" fill="#404040">
                        <set attributeName="fill" to="#808080" begin="arrowLeft.mouseover" end="arrowLeft.mouseout"/>
                  </use>
                  <path fill="none" stroke="white" stroke-width="1.5" d="M0,-3.0v7 M-2.5,-0.5L0,-3.0L2.5,-0.5"/>
                </g>
        </g>
        <svg viewBox="0 0 15 15" width="100%" height="30px" preserveAspectRatio="xMaxYMin meet">
         <g id="arrow_out" transform="scale(0.3 0.3)">
          <a xlink:href="CommOperation_8hpp__incl_org.svg" target="_base">
           <rect id="button" ry="5" rx="5" y="6" x="6" height="38" width="38"
                fill="#f2f5e9" fill-opacity="0.5" stroke="#606060" stroke-width="1.0"/>
           <path id="arrow"
             d="M 11.500037,31.436501 C 11.940474,20.09759 22.043105,11.32322 32.158766,21.979434 L 37.068811,17.246167 C 37.068811,17.246167 37.088388,32 37.088388,32 L 22.160133,31.978069 C 22.160133,31.978069 26.997745,27.140456 26.997745,27.140456 C 18.528582,18.264221 13.291696,25.230495 11.500037,31.436501 z"
             style="fill:#404040;"/>
          </a>
         </g>
        </svg>
</svg>
