<?xml version="1.0" encoding="UTF-8" standalone="no"?>
<!DOCTYPE svg PUBLIC "-//W3C//DTD SVG 1.1//EN"
 "http://www.w3.org/Graphics/SVG/1.1/DTD/svg11.dtd">
<!-- Generated by graphviz version 2.43.0 (0)
 -->
<!-- Title: common.hpp Pages: 1 -->
<!--zoomable 363 -->
<svg id="main" version="1.1" xmlns="http://www.w3.org/2000/svg" xmlns:xlink="http://www.w3.org/1999/xlink" xml:space="preserve" onload="init(evt)">
<style type="text/css"><![CDATA[
.edge:hover path { stroke: red; }
.edge:hover polygon { stroke: red; fill: red; }
]]></style>
<script type="text/javascript"><![CDATA[
var edges = document.getElementsByTagName('g');
if (edges && edges.length) {
  for (var i=0;i<edges.length;i++) {
    if (edges[i].id.substr(0,4)=='edge') {
      edges[i].setAttribute('class','edge');
    }
  }
}
]]></script>
        <defs>
                <circle id="rim" cx="0" cy="0" r="7"/>
                <circle id="rim2" cx="0" cy="0" r="3.5"/>
                <g id="zoomPlus">
                        <use xlink:href="#rim" fill="#404040">
                                <set attributeName="fill" to="#808080" begin="zoomplus.mouseover" end="zoomplus.mouseout"/>
                        </use>
                        <path d="M-4,0h8M0,-4v8" fill="none" stroke="white" stroke-width="1.5" pointer-events="none"/>
                </g>
                <g id="zoomMin">
                        <use xlink:href="#rim" fill="#404040">
                                <set attributeName="fill" to="#808080" begin="zoomminus.mouseover" end="zoomminus.mouseout"/>
                        </use>
                        <path d="M-4,0h8" fill="none" stroke="white" stroke-width="1.5" pointer-events="none"/>
                </g>
                <g id="dirArrow">
                        <path fill="none" stroke="white" stroke-width="1.5" d="M0,-3.0v7 M-2.5,-0.5L0,-3.0L2.5,-0.5"/>
                </g>
               <g id="resetDef">
                       <use xlink:href="#rim2" fill="#404040">
                               <set attributeName="fill" to="#808080" begin="reset.mouseover" end="reset.mouseout"/>
                       </use>
               </g>
        </defs>

<script type="text/javascript">
var viewWidth = 873;
var viewHeight = 363;
var sectionId = 'dynsection-0';
</script>
<script xlink:href="svgpan.js"/>
<svg id="graph" class="graph">
<g id="viewport">
<title>common.hpp</title>
<polygon fill="white" stroke="transparent" points="-4,4 -4,-359 868.5,-359 868.5,4 -4,4"/>
<!-- Node1 -->
<g id="node1" class="node">
<title>Node1</title>
<g id="a_node1"><a xlink:title=" ">
<polygon fill="#bfbfbf" stroke="black" points="510.5,-335.5 510.5,-354.5 590.5,-354.5 590.5,-335.5 510.5,-335.5"/>
<text text-anchor="middle" x="550.5" y="-342.5" font-family="Helvetica,sans-Serif" font-size="10.00">common.hpp</text>
</a>
</g>
</g>
<!-- Node2 -->
<g id="node2" class="node">
<title>Node2</title>
<g id="a_node2"><a xlink:href="exception_8hpp.html" target="_top" xlink:title=" ">
<polygon fill="white" stroke="black" points="490,-201.5 490,-231.5 609,-231.5 609,-201.5 490,-201.5"/>
<text text-anchor="start" x="498" y="-219.5" font-family="Helvetica,sans-Serif" font-size="10.00">packages/exceptions</text>
<text text-anchor="middle" x="549.5" y="-208.5" font-family="Helvetica,sans-Serif" font-size="10.00">/inc/exception.hpp</text>
</a>
</g>
</g>
<!-- Node1&#45;&gt;Node2 -->
<g id="edge1" class="edge">
<title>Node1&#45;&gt;Node2</title>
<path fill="none" stroke="midnightblue" d="M543.87,-335.27C537.73,-326.61 529.04,-312.67 525.5,-299 522.04,-285.66 522.47,-281.44 525.5,-268 527.59,-258.74 531.58,-249.19 535.72,-240.92"/>
<polygon fill="midnightblue" stroke="midnightblue" points="538.92,-242.37 540.54,-231.9 532.74,-239.07 538.92,-242.37"/>
</g>
<!-- Node3 -->
<g id="node3" class="node">
<title>Node3</title>
<g id="a_node3"><a xlink:href="types_8hpp.html" target="_top" xlink:title=" ">
<polygon fill="white" stroke="black" points="214.5,-134.5 214.5,-164.5 324.5,-164.5 324.5,-134.5 214.5,-134.5"/>
<text text-anchor="start" x="222.5" y="-152.5" font-family="Helvetica,sans-Serif" font-size="10.00">packages/types/inc</text>
<text text-anchor="middle" x="269.5" y="-141.5" font-family="Helvetica,sans-Serif" font-size="10.00">/types.hpp</text>
</a>
</g>
</g>
<!-- Node1&#45;&gt;Node3 -->
<g id="edge18" class="edge">
<title>Node1&#45;&gt;Node3</title>
<path fill="none" stroke="midnightblue" d="M538.06,-335.44C496.05,-306.51 358.66,-211.9 298.34,-170.36"/>
<polygon fill="midnightblue" stroke="midnightblue" points="300.24,-167.42 290.02,-164.63 296.27,-173.18 300.24,-167.42"/>
</g>
<!-- Node17 -->
<g id="node17" class="node">
<title>Node17</title>
<g id="a_node17"><a xlink:title=" ">
<polygon fill="white" stroke="#bfbfbf" points="535,-274 535,-293 654,-293 654,-274 535,-274"/>
<text text-anchor="middle" x="594.5" y="-281" font-family="Helvetica,sans-Serif" font-size="10.00">pybind11/pybind11.h</text>
</a>
</g>
</g>
<!-- Node1&#45;&gt;Node17 -->
<g id="edge17" class="edge">
<title>Node1&#45;&gt;Node17</title>
<path fill="none" stroke="midnightblue" d="M556.8,-335.48C563.4,-326.55 573.94,-312.31 582.19,-301.14"/>
<polygon fill="midnightblue" stroke="midnightblue" points="585.08,-303.13 588.21,-293.01 579.45,-298.97 585.08,-303.13"/>
</g>
<!-- Node18 -->
<g id="node18" class="node">
<title>Node18</title>
<g id="a_node18"><a xlink:href="exceptions_8hpp.html" target="_top" xlink:title=" ">
<polygon fill="white" stroke="black" points="672,-268.5 672,-298.5 791,-298.5 791,-268.5 672,-268.5"/>
<text text-anchor="start" x="680" y="-286.5" font-family="Helvetica,sans-Serif" font-size="10.00">packages/macros/inc</text>
<text text-anchor="middle" x="731.5" y="-275.5" font-family="Helvetica,sans-Serif" font-size="10.00">/exceptions.hpp</text>
</a>
</g>
</g>
<!-- Node1&#45;&gt;Node18 -->
<g id="edge19" class="edge">
<title>Node1&#45;&gt;Node18</title>
<path fill="none" stroke="midnightblue" d="M576.43,-335.48C603.12,-326.7 645.45,-312.79 679.14,-301.71"/>
<polygon fill="midnightblue" stroke="midnightblue" points="680.44,-304.97 688.84,-298.52 678.25,-298.32 680.44,-304.97"/>
</g>
<!-- Node2&#45;&gt;Node3 -->
<g id="edge2" class="edge">
<title>Node2&#45;&gt;Node3</title>
<path fill="none" stroke="midnightblue" d="M489.78,-201.64C444.19,-191.05 381.46,-176.49 334.6,-165.61"/>
<polygon fill="midnightblue" stroke="midnightblue" points="335.38,-162.2 324.85,-163.35 333.8,-169.02 335.38,-162.2"/>
</g>
<!-- Node8 -->
<g id="node8" class="node">
<title>Node8</title>
<g id="a_node8"><a xlink:title=" ">
<polygon fill="white" stroke="#bfbfbf" points="636.5,-73 636.5,-92 680.5,-92 680.5,-73 636.5,-73"/>
<text text-anchor="middle" x="658.5" y="-80" font-family="Helvetica,sans-Serif" font-size="10.00">string</text>
</a>
</g>
</g>
<!-- Node2&#45;&gt;Node8 -->
<g id="edge13" class="edge">
<title>Node2&#45;&gt;Node8</title>
<path fill="none" stroke="midnightblue" d="M590.07,-201.41C607.71,-193.34 627.13,-181.47 639.5,-165 653.24,-146.7 657.27,-120.07 658.33,-102.29"/>
<polygon fill="midnightblue" stroke="midnightblue" points="661.84,-102.16 658.67,-92.05 654.84,-101.93 661.84,-102.16"/>
</g>
<!-- Node13 -->
<g id="node13" class="node">
<title>Node13</title>
<g id="a_node13"><a xlink:title=" ">
<polygon fill="white" stroke="#bfbfbf" points="687,-140 687,-159 752,-159 752,-140 687,-140"/>
<text text-anchor="middle" x="719.5" y="-147" font-family="Helvetica,sans-Serif" font-size="10.00">stdexcept</text>
</a>
</g>
</g>
<!-- Node2&#45;&gt;Node13 -->
<g id="edge12" class="edge">
<title>Node2&#45;&gt;Node13</title>
<path fill="none" stroke="midnightblue" d="M586.39,-201.4C616.61,-189.84 658.94,-173.66 687.69,-162.66"/>
<polygon fill="midnightblue" stroke="midnightblue" points="689.16,-165.85 697.25,-159.01 686.66,-159.31 689.16,-165.85"/>
</g>
<!-- Node14 -->
<g id="node14" class="node">
<title>Node14</title>
<g id="a_node14"><a xlink:title=" ">
<polygon fill="white" stroke="#bfbfbf" points="343,-140 343,-159 390,-159 390,-140 343,-140"/>
<text text-anchor="middle" x="366.5" y="-147" font-family="Helvetica,sans-Serif" font-size="10.00">deque</text>
</a>
</g>
</g>
<!-- Node2&#45;&gt;Node14 -->
<g id="edge14" class="edge">
<title>Node2&#45;&gt;Node14</title>
<path fill="none" stroke="midnightblue" d="M504.16,-201.4C474.21,-191.8 434.22,-178.44 399.5,-165 397.9,-164.38 396.25,-163.72 394.6,-163.05"/>
<polygon fill="midnightblue" stroke="midnightblue" points="395.8,-159.75 385.23,-159.07 393.07,-166.2 395.8,-159.75"/>
</g>
<!-- Node15 -->
<g id="node15" class="node">
<title>Node15</title>
<g id="a_node15"><a xlink:title=" ">
<polygon fill="white" stroke="#bfbfbf" points="408.5,-140 408.5,-159 466.5,-159 466.5,-140 408.5,-140"/>
<text text-anchor="middle" x="437.5" y="-147" font-family="Helvetica,sans-Serif" font-size="10.00">memory</text>
</a>
</g>
</g>
<!-- Node2&#45;&gt;Node15 -->
<g id="edge15" class="edge">
<title>Node2&#45;&gt;Node15</title>
<path fill="none" stroke="midnightblue" d="M525.2,-201.4C506.15,-190.34 479.82,-175.06 460.99,-164.13"/>
<polygon fill="midnightblue" stroke="midnightblue" points="462.56,-161 452.16,-159.01 459.05,-167.05 462.56,-161"/>
</g>
<!-- Node16 -->
<g id="node16" class="node">
<title>Node16</title>
<g id="a_node16"><a xlink:title=" ">
<polygon fill="white" stroke="#bfbfbf" points="484.5,-134.5 484.5,-164.5 630.5,-164.5 630.5,-134.5 484.5,-134.5"/>
<text text-anchor="start" x="492.5" y="-152.5" font-family="Helvetica,sans-Serif" font-size="10.00">packages/exceptions</text>
<text text-anchor="middle" x="557.5" y="-141.5" font-family="Helvetica,sans-Serif" font-size="10.00">/impl/exceptions_impl.hpp</text>
</a>
</g>
</g>
<!-- Node2&#45;&gt;Node16 -->
<g id="edge16" class="edge">
<title>Node2&#45;&gt;Node16</title>
<path fill="none" stroke="midnightblue" d="M551.24,-201.4C552.2,-193.56 553.43,-183.6 554.54,-174.57"/>
<polygon fill="midnightblue" stroke="midnightblue" points="558.02,-174.93 555.77,-164.58 551.07,-174.07 558.02,-174.93"/>
</g>
<!-- Node4 -->
<g id="node4" class="node">
<title>Node4</title>
<g id="a_node4"><a xlink:href="debug_8hpp.html" target="_top" xlink:title=" ">
<polygon fill="white" stroke="black" points="499,-67.5 499,-97.5 618,-97.5 618,-67.5 499,-67.5"/>
<text text-anchor="start" x="507" y="-85.5" font-family="Helvetica,sans-Serif" font-size="10.00">packages/macros/inc</text>
<text text-anchor="middle" x="558.5" y="-74.5" font-family="Helvetica,sans-Serif" font-size="10.00">/debug.hpp</text>
</a>
</g>
</g>
<!-- Node3&#45;&gt;Node4 -->
<g id="edge3" class="edge">
<title>Node3&#45;&gt;Node4</title>
<path fill="none" stroke="midnightblue" d="M324.66,-136C327.65,-135.32 330.61,-134.65 333.5,-134 385.6,-122.25 444.5,-109.03 488.97,-99.07"/>
<polygon fill="midnightblue" stroke="midnightblue" points="489.81,-102.47 498.8,-96.86 488.28,-95.64 489.81,-102.47"/>
</g>
<!-- Node7 -->
<g id="node7" class="node">
<title>Node7</title>
<g id="a_node7"><a xlink:title=" ">
<polygon fill="white" stroke="#bfbfbf" points="0,-73 0,-92 53,-92 53,-73 0,-73"/>
<text text-anchor="middle" x="26.5" y="-80" font-family="Helvetica,sans-Serif" font-size="10.00">cstddef</text>
</a>
</g>
</g>
<!-- Node3&#45;&gt;Node7 -->
<g id="edge6" class="edge">
<title>Node3&#45;&gt;Node7</title>
<path fill="none" stroke="midnightblue" d="M214.11,-137.49C171.82,-128.51 112.37,-114.6 61.5,-98 59.37,-97.3 57.18,-96.54 54.99,-95.73"/>
<polygon fill="midnightblue" stroke="midnightblue" points="56.14,-92.42 45.56,-92.02 53.58,-98.93 56.14,-92.42"/>
</g>
<!-- Node3&#45;&gt;Node8 -->
<g id="edge7" class="edge">
<title>Node3&#45;&gt;Node8</title>
<path fill="none" stroke="midnightblue" d="M324.59,-135.65C327.6,-135.06 330.58,-134.51 333.5,-134 462.75,-111.48 500.19,-133.48 626.5,-98 628.65,-97.4 630.83,-96.67 633,-95.87"/>
<polygon fill="midnightblue" stroke="midnightblue" points="634.37,-99.09 642.25,-92.01 631.67,-92.63 634.37,-99.09"/>
</g>
<!-- Node9 -->
<g id="node9" class="node">
<title>Node9</title>
<g id="a_node9"><a xlink:title=" ">
<polygon fill="white" stroke="#bfbfbf" points="71,-73 71,-92 140,-92 140,-73 71,-73"/>
<text text-anchor="middle" x="105.5" y="-80" font-family="Helvetica,sans-Serif" font-size="10.00">type_traits</text>
</a>
</g>
</g>
<!-- Node3&#45;&gt;Node9 -->
<g id="edge8" class="edge">
<title>Node3&#45;&gt;Node9</title>
<path fill="none" stroke="midnightblue" d="M233.91,-134.4C204.88,-122.89 164.28,-106.8 136.55,-95.81"/>
<polygon fill="midnightblue" stroke="midnightblue" points="137.55,-92.44 126.96,-92.01 134.97,-98.95 137.55,-92.44"/>
</g>
<!-- Node10 -->
<g id="node10" class="node">
<title>Node10</title>
<g id="a_node10"><a xlink:title=" ">
<polygon fill="white" stroke="#bfbfbf" points="158.5,-73 158.5,-92 208.5,-92 208.5,-73 158.5,-73"/>
<text text-anchor="middle" x="183.5" y="-80" font-family="Helvetica,sans-Serif" font-size="10.00">climits</text>
</a>
</g>
</g>
<!-- Node3&#45;&gt;Node10 -->
<g id="edge9" class="edge">
<title>Node3&#45;&gt;Node10</title>
<path fill="none" stroke="midnightblue" d="M250.84,-134.4C236.77,-123.76 217.51,-109.2 203.19,-98.38"/>
<polygon fill="midnightblue" stroke="midnightblue" points="205.09,-95.43 195,-92.19 200.87,-101.02 205.09,-95.43"/>
</g>
<!-- Node11 -->
<g id="node11" class="node">
<title>Node11</title>
<g id="a_node11"><a xlink:title=" ">
<polygon fill="white" stroke="#bfbfbf" points="227,-67.5 227,-97.5 344,-97.5 344,-67.5 227,-67.5"/>
<text text-anchor="start" x="235" y="-85.5" font-family="Helvetica,sans-Serif" font-size="10.00">packages/types/impl</text>
<text text-anchor="middle" x="285.5" y="-74.5" font-family="Helvetica,sans-Serif" font-size="10.00">/types_impl.hpp</text>
</a>
</g>
</g>
<!-- Node3&#45;&gt;Node11 -->
<g id="edge10" class="edge">
<title>Node3&#45;&gt;Node11</title>
<path fill="none" stroke="midnightblue" d="M272.97,-134.4C274.9,-126.56 277.35,-116.6 279.58,-107.57"/>
<polygon fill="midnightblue" stroke="midnightblue" points="283.04,-108.12 282.04,-97.58 276.25,-106.45 283.04,-108.12"/>
</g>
<!-- Node12 -->
<g id="node12" class="node">
<title>Node12</title>
<g id="a_node12"><a xlink:href="logging_8hpp.html" target="_top" xlink:title=" ">
<polygon fill="white" stroke="black" points="362,-67.5 362,-97.5 481,-97.5 481,-67.5 362,-67.5"/>
<text text-anchor="start" x="370" y="-85.5" font-family="Helvetica,sans-Serif" font-size="10.00">packages/macros/inc</text>
<text text-anchor="middle" x="421.5" y="-74.5" font-family="Helvetica,sans-Serif" font-size="10.00">/logging.hpp</text>
</a>
</g>
</g>
<!-- Node3&#45;&gt;Node12 -->
<g id="edge11" class="edge">
<title>Node3&#45;&gt;Node12</title>
<path fill="none" stroke="midnightblue" d="M302.48,-134.4C324.99,-124.77 355,-111.94 379.26,-101.56"/>
<polygon fill="midnightblue" stroke="midnightblue" points="380.76,-104.73 388.58,-97.58 378.01,-98.29 380.76,-104.73"/>
</g>
<!-- Node5 -->
<g id="node5" class="node">
<title>Node5</title>
<g id="a_node5"><a xlink:href="detail_8hpp.html" target="_top" xlink:title=" ">
<polygon fill="white" stroke="black" points="664,-0.5 664,-30.5 783,-30.5 783,-0.5 664,-0.5"/>
<text text-anchor="start" x="672" y="-18.5" font-family="Helvetica,sans-Serif" font-size="10.00">packages/macros/inc</text>
<text text-anchor="middle" x="723.5" y="-7.5" font-family="Helvetica,sans-Serif" font-size="10.00">/detail.hpp</text>
</a>
</g>
</g>
<!-- Node4&#45;&gt;Node5 -->
<g id="edge4" class="edge">
<title>Node4&#45;&gt;Node5</title>
<path fill="none" stroke="midnightblue" d="M594.3,-67.4C618.95,-57.69 651.89,-44.71 678.34,-34.29"/>
<polygon fill="midnightblue" stroke="midnightblue" points="679.75,-37.5 687.77,-30.58 677.18,-30.99 679.75,-37.5"/>
</g>
<!-- Node6 -->
<g id="node6" class="node">
<title>Node6</title>
<g id="a_node6"><a xlink:title=" ">
<polygon fill="white" stroke="#bfbfbf" points="528.5,-6 528.5,-25 588.5,-25 588.5,-6 528.5,-6"/>
<text text-anchor="middle" x="558.5" y="-13" font-family="Helvetica,sans-Serif" font-size="10.00">iostream</text>
</a>
</g>
</g>
<!-- Node4&#45;&gt;Node6 -->
<g id="edge5" class="edge">
<title>Node4&#45;&gt;Node6</title>
<path fill="none" stroke="midnightblue" d="M558.5,-67.4C558.5,-58.06 558.5,-45.71 558.5,-35.52"/>
<polygon fill="midnightblue" stroke="midnightblue" points="562,-35.19 558.5,-25.19 555,-35.19 562,-35.19"/>
</g>
<!-- Node18&#45;&gt;Node2 -->
<g id="edge20" class="edge">
<title>Node18&#45;&gt;Node2</title>
<path fill="none" stroke="midnightblue" d="M692.01,-268.4C664.58,-258.6 627.85,-245.48 598.54,-235.02"/>
<polygon fill="midnightblue" stroke="midnightblue" points="599.51,-231.64 588.91,-231.58 597.15,-238.24 599.51,-231.64"/>
</g>
<!-- Node18&#45;&gt;Node5 -->
<g id="edge21" class="edge">
<title>Node18&#45;&gt;Node5</title>
<path fill="none" stroke="midnightblue" d="M742.67,-268.43C749.59,-258.79 757.83,-245.37 761.5,-232 780.33,-163.42 751.3,-79.9 734.34,-39.97"/>
<polygon fill="midnightblue" stroke="midnightblue" points="737.44,-38.32 730.22,-30.57 731.03,-41.13 737.44,-38.32"/>
</g>
<!-- Node19 -->
<g id="node19" class="node">
<title>Node19</title>
<g id="a_node19"><a xlink:title=" ">
<polygon fill="white" stroke="#bfbfbf" points="808.5,-207 808.5,-226 864.5,-226 864.5,-207 808.5,-207"/>
<text text-anchor="middle" x="836.5" y="-214" font-family="Helvetica,sans-Serif" font-size="10.00">sstream</text>
</a>
</g>
</g>
<!-- Node18&#45;&gt;Node19 -->
<g id="edge22" class="edge">
<title>Node18&#45;&gt;Node19</title>
<path fill="none" stroke="midnightblue" d="M754.28,-268.4C772.05,-257.39 796.6,-242.2 814.24,-231.28"/>
<polygon fill="midnightblue" stroke="midnightblue" points="816.1,-234.25 822.76,-226.01 812.41,-228.29 816.1,-234.25"/>
</g>
<!-- Node20 -->
<g id="node20" class="node">
<title>Node20</title>
<g id="a_node20"><a xlink:title=" ">
<polygon fill="white" stroke="#bfbfbf" points="692.5,-207 692.5,-226 752.5,-226 752.5,-207 692.5,-207"/>
<text text-anchor="middle" x="722.5" y="-214" font-family="Helvetica,sans-Serif" font-size="10.00">concepts</text>
</a>
</g>
</g>
<!-- Node18&#45;&gt;Node20 -->
<g id="edge23" class="edge">
<title>Node18&#45;&gt;Node20</title>
<path fill="none" stroke="midnightblue" d="M729.55,-268.4C728.24,-258.96 726.51,-246.45 725.09,-236.19"/>
<polygon fill="midnightblue" stroke="midnightblue" points="728.54,-235.62 723.7,-226.19 721.61,-236.58 728.54,-235.62"/>
</g>
</g>
</svg>
        <g id="navigator" transform="translate(0 0)" fill="#404254">
                <rect fill="#f2f5e9" fill-opacity="0.5" stroke="#606060" stroke-width=".5" x="0" y="0" width="60" height="60"/>
                <use id="zoomplus" xlink:href="#zoomPlus" x="17" y="9" onmousedown="handleZoom(evt,'in')"/>
                <use id="zoomminus" xlink:href="#zoomMin" x="42" y="9" onmousedown="handleZoom(evt,'out')"/>
                <use id="reset" xlink:href="#resetDef" x="30" y="36" onmousedown="handleReset()"/>
                <g id="arrowUp" xlink:href="#dirArrow" transform="translate(30 24)" onmousedown="handlePan(0,-1)">
                  <use xlink:href="#rim" fill="#404040">
                        <set attributeName="fill" to="#808080" begin="arrowUp.mouseover" end="arrowUp.mouseout"/>
                  </use>
                  <path fill="none" stroke="white" stroke-width="1.5" d="M0,-3.0v7 M-2.5,-0.5L0,-3.0L2.5,-0.5"/>
                </g>
                <g id="arrowRight" xlink:href="#dirArrow" transform="rotate(90) translate(36 -43)" onmousedown="handlePan(1,0)">
                  <use xlink:href="#rim" fill="#404040">
                        <set attributeName="fill" to="#808080" begin="arrowRight.mouseover" end="arrowRight.mouseout"/>
                  </use>
                  <path fill="none" stroke="white" stroke-width="1.5" d="M0,-3.0v7 M-2.5,-0.5L0,-3.0L2.5,-0.5"/>
                </g>
                <g id="arrowDown" xlink:href="#dirArrow" transform="rotate(180) translate(-30 -48)" onmousedown="handlePan(0,1)">
                  <use xlink:href="#rim" fill="#404040">
                        <set attributeName="fill" to="#808080" begin="arrowDown.mouseover" end="arrowDown.mouseout"/>
                  </use>
                  <path fill="none" stroke="white" stroke-width="1.5" d="M0,-3.0v7 M-2.5,-0.5L0,-3.0L2.5,-0.5"/>
                </g>
                <g id="arrowLeft" xlink:href="#dirArrow" transform="rotate(270) translate(-36 17)" onmousedown="handlePan(-1,0)">
                  <use xlink:href="#rim" fill="#404040">
                        <set attributeName="fill" to="#808080" begin="arrowLeft.mouseover" end="arrowLeft.mouseout"/>
                  </use>
                  <path fill="none" stroke="white" stroke-width="1.5" d="M0,-3.0v7 M-2.5,-0.5L0,-3.0L2.5,-0.5"/>
                </g>
        </g>
        <svg viewBox="0 0 15 15" width="100%" height="30px" preserveAspectRatio="xMaxYMin meet">
         <g id="arrow_out" transform="scale(0.3 0.3)">
          <a xlink:href="common_8hpp__incl_org.svg" target="_base">
           <rect id="button" ry="5" rx="5" y="6" x="6" height="38" width="38"
                fill="#f2f5e9" fill-opacity="0.5" stroke="#606060" stroke-width="1.0"/>
           <path id="arrow"
             d="M 11.500037,31.436501 C 11.940474,20.09759 22.043105,11.32322 32.158766,21.979434 L 37.068811,17.246167 C 37.068811,17.246167 37.088388,32 37.088388,32 L 22.160133,31.978069 C 22.160133,31.978069 26.997745,27.140456 26.997745,27.140456 C 18.528582,18.264221 13.291696,25.230495 11.500037,31.436501 z"
             style="fill:#404040;"/>
          </a>
         </g>
        </svg>
</svg>
