<?xml version="1.0" encoding="UTF-8" standalone="no"?>
<!DOCTYPE svg PUBLIC "-//W3C//DTD SVG 1.1//EN"
 "http://www.w3.org/Graphics/SVG/1.1/DTD/svg11.dtd">
<!-- Generated by graphviz version 2.43.0 (0)
 -->
<!-- Title: Comparison.hpp Pages: 1 -->
<svg width="836pt" height="456pt"
 viewBox="0.00 0.00 835.50 456.00" xmlns="http://www.w3.org/2000/svg" xmlns:xlink="http://www.w3.org/1999/xlink">
<g id="graph0" class="graph" transform="scale(1 1) rotate(0) translate(4 452)">
<title>Comparison.hpp</title>
<!-- Node1 -->
<g id="Node000001" class="node">
<title>Node1</title>
<g id="a_Node000001"><a xlink:title=" ">
<polygon fill="#999999" stroke="#666666" points="721.5,-448 625.5,-448 625.5,-429 721.5,-429 721.5,-448"/>
<text text-anchor="middle" x="673.5" y="-436" font-family="Helvetica,sans-Serif" font-size="10.00">Comparison.hpp</text>
</a>
</g>
</g>
<!-- Node2 -->
<g id="Node000002" class="node">
<title>Node2</title>
<g id="a_Node000002"><a xlink:href="container__concepts_8hpp.html" target="_top" xlink:title=" ">
<polygon fill="white" stroke="#666666" points="545,-393 410,-393 410,-352 545,-352 545,-393"/>
<text text-anchor="start" x="418" y="-381" font-family="Helvetica,sans-Serif" font-size="10.00">packages/compile_time</text>
<text text-anchor="start" x="418" y="-370" font-family="Helvetica,sans-Serif" font-size="10.00">/packages/concepts/inc</text>
<text text-anchor="middle" x="477.5" y="-359" font-family="Helvetica,sans-Serif" font-size="10.00">/container_concepts.hpp</text>
</a>
</g>
</g>
<!-- Node1&#45;&gt;Node2 -->
<g id="edge1_Node000001_Node000002" class="edge">
<title>Node1&#45;&gt;Node2</title>
<g id="a_edge1_Node000001_Node000002"><a xlink:title=" ">
<path fill="none" stroke="#63b8ff" d="M647.07,-428.87C621.47,-420.51 581.55,-407.48 546.87,-396.15"/>
<polygon fill="#63b8ff" stroke="#63b8ff" points="547.84,-392.79 537.25,-393.01 545.67,-399.44 547.84,-392.79"/>
</a>
</g>
</g>
<!-- Node15 -->
<g id="Node000015" class="node">
<title>Node15</title>
<g id="a_Node000015"><a xlink:title=" ">
<polygon fill="#e0e0e0" stroke="#999999" points="566.5,-156.5 506.5,-156.5 506.5,-137.5 566.5,-137.5 566.5,-156.5"/>
<text text-anchor="middle" x="536.5" y="-144.5" font-family="Helvetica,sans-Serif" font-size="10.00">concepts</text>
</a>
</g>
</g>
<!-- Node1&#45;&gt;Node15 -->
<g id="edge26_Node000001_Node000015" class="edge">
<title>Node1&#45;&gt;Node15</title>
<g id="a_edge26_Node000001_Node000015"><a xlink:title=" ">
<path fill="none" stroke="#63b8ff" d="M675.77,-428.58C683.85,-394.69 707.92,-272.1 654.5,-198 649.21,-190.66 603,-172.46 570,-160.16"/>
<polygon fill="#63b8ff" stroke="#63b8ff" points="570.84,-156.74 560.25,-156.56 568.41,-163.31 570.84,-156.74"/>
</a>
</g>
</g>
<!-- Node23 -->
<g id="Node000023" class="node">
<title>Node23</title>
<g id="a_Node000023"><a xlink:title=" ">
<polygon fill="#e0e0e0" stroke="#999999" points="827.5,-387.5 701.5,-387.5 701.5,-357.5 827.5,-357.5 827.5,-387.5"/>
<text text-anchor="start" x="709.5" y="-375.5" font-family="Helvetica,sans-Serif" font-size="10.00">packages/maths/impl</text>
<text text-anchor="middle" x="764.5" y="-364.5" font-family="Helvetica,sans-Serif" font-size="10.00">/Comparison_impl.hpp</text>
</a>
</g>
</g>
<!-- Node1&#45;&gt;Node23 -->
<g id="edge27_Node000001_Node000023" class="edge">
<title>Node1&#45;&gt;Node23</title>
<g id="a_edge27_Node000001_Node000023"><a xlink:title=" ">
<path fill="none" stroke="#63b8ff" d="M685.77,-428.87C698.58,-419.86 719.11,-405.42 735.99,-393.55"/>
<polygon fill="#63b8ff" stroke="#63b8ff" points="738.26,-396.23 744.43,-387.62 734.24,-390.51 738.26,-396.23"/>
</a>
</g>
</g>
<!-- Node3 -->
<g id="Node000003" class="node">
<title>Node3</title>
<g id="a_Node000003"><a xlink:href="iterator__concepts_8hpp.html" target="_top" xlink:title=" ">
<polygon fill="white" stroke="#666666" points="479.5,-316 347.5,-316 347.5,-275 479.5,-275 479.5,-316"/>
<text text-anchor="start" x="355.5" y="-304" font-family="Helvetica,sans-Serif" font-size="10.00">packages/compile_time</text>
<text text-anchor="start" x="355.5" y="-293" font-family="Helvetica,sans-Serif" font-size="10.00">/packages/concepts/inc</text>
<text text-anchor="middle" x="413.5" y="-282" font-family="Helvetica,sans-Serif" font-size="10.00">/iterator_concepts.hpp</text>
</a>
</g>
</g>
<!-- Node2&#45;&gt;Node3 -->
<g id="edge2_Node000002_Node000003" class="edge">
<title>Node2&#45;&gt;Node3</title>
<g id="a_edge2_Node000002_Node000003"><a xlink:title=" ">
<path fill="none" stroke="#63b8ff" d="M460.68,-351.79C453.41,-343.27 444.77,-333.14 436.88,-323.9"/>
<polygon fill="#63b8ff" stroke="#63b8ff" points="439.36,-321.41 430.2,-316.07 434.03,-325.95 439.36,-321.41"/>
</a>
</g>
</g>
<!-- Node4 -->
<g id="Node000004" class="node">
<title>Node4</title>
<g id="a_Node000004"><a xlink:href="basic__concepts_8hpp.html" target="_top" xlink:title=" ">
<polygon fill="white" stroke="#666666" points="165.5,-239 33.5,-239 33.5,-198 165.5,-198 165.5,-239"/>
<text text-anchor="start" x="41.5" y="-227" font-family="Helvetica,sans-Serif" font-size="10.00">packages/compile_time</text>
<text text-anchor="start" x="41.5" y="-216" font-family="Helvetica,sans-Serif" font-size="10.00">/packages/concepts/inc</text>
<text text-anchor="middle" x="99.5" y="-205" font-family="Helvetica,sans-Serif" font-size="10.00">/basic_concepts.hpp</text>
</a>
</g>
</g>
<!-- Node3&#45;&gt;Node4 -->
<g id="edge3_Node000003_Node000004" class="edge">
<title>Node3&#45;&gt;Node4</title>
<g id="a_edge3_Node000003_Node000004"><a xlink:title=" ">
<path fill="none" stroke="#63b8ff" d="M347.45,-279.65C301.75,-269.26 239.28,-254.84 175.55,-239.23"/>
<polygon fill="#63b8ff" stroke="#63b8ff" points="176.28,-235.81 165.73,-236.82 174.61,-242.6 176.28,-235.81"/>
</a>
</g>
</g>
<!-- Node18 -->
<g id="Node000018" class="node">
<title>Node18</title>
<g id="a_Node000018"><a xlink:href="Size_8hpp.html" target="_top" xlink:title=" ">
<polygon fill="white" stroke="#666666" points="331.5,-239 183.5,-239 183.5,-198 331.5,-198 331.5,-239"/>
<text text-anchor="start" x="191.5" y="-227" font-family="Helvetica,sans-Serif" font-size="10.00">packages/compile_time</text>
<text text-anchor="start" x="191.5" y="-216" font-family="Helvetica,sans-Serif" font-size="10.00">/packages/parameter_pack</text>
<text text-anchor="middle" x="257.5" y="-205" font-family="Helvetica,sans-Serif" font-size="10.00">/inc/Size.hpp</text>
</a>
</g>
</g>
<!-- Node3&#45;&gt;Node18 -->
<g id="edge18_Node000003_Node000018" class="edge">
<title>Node3&#45;&gt;Node18</title>
<g id="a_edge18_Node000003_Node000018"><a xlink:title=" ">
<path fill="none" stroke="#63b8ff" d="M372.92,-274.99C352.87,-265.35 328.49,-253.63 307.31,-243.45"/>
<polygon fill="#63b8ff" stroke="#63b8ff" points="308.68,-240.22 298.15,-239.04 305.64,-246.53 308.68,-240.22"/>
</a>
</g>
</g>
<!-- Node19 -->
<g id="Node000019" class="node">
<title>Node19</title>
<g id="a_Node000019"><a xlink:href="Select_8hpp.html" target="_top" xlink:title=" ">
<polygon fill="white" stroke="#666666" points="645.5,-239 497.5,-239 497.5,-198 645.5,-198 645.5,-239"/>
<text text-anchor="start" x="505.5" y="-227" font-family="Helvetica,sans-Serif" font-size="10.00">packages/compile_time</text>
<text text-anchor="start" x="505.5" y="-216" font-family="Helvetica,sans-Serif" font-size="10.00">/packages/parameter_pack</text>
<text text-anchor="middle" x="571.5" y="-205" font-family="Helvetica,sans-Serif" font-size="10.00">/inc/Select.hpp</text>
</a>
</g>
</g>
<!-- Node3&#45;&gt;Node19 -->
<g id="edge20_Node000003_Node000019" class="edge">
<title>Node3&#45;&gt;Node19</title>
<g id="a_edge20_Node000003_Node000019"><a xlink:title=" ">
<path fill="none" stroke="#63b8ff" d="M454.6,-274.99C474.91,-265.35 499.6,-253.63 521.05,-243.45"/>
<polygon fill="#63b8ff" stroke="#63b8ff" points="522.8,-246.49 530.33,-239.04 519.8,-240.17 522.8,-246.49"/>
</a>
</g>
</g>
<!-- Node21 -->
<g id="Node000021" class="node">
<title>Node21</title>
<g id="a_Node000021"><a xlink:title=" ">
<polygon fill="#e0e0e0" stroke="#999999" points="403,-228 350,-228 350,-209 403,-209 403,-228"/>
<text text-anchor="middle" x="376.5" y="-216" font-family="Helvetica,sans-Serif" font-size="10.00">iterator</text>
</a>
</g>
</g>
<!-- Node3&#45;&gt;Node21 -->
<g id="edge24_Node000003_Node000021" class="edge">
<title>Node3&#45;&gt;Node21</title>
<g id="a_edge24_Node000003_Node000021"><a xlink:title=" ">
<path fill="none" stroke="#63b8ff" d="M403.78,-274.79C398.07,-263.23 390.92,-248.73 385.37,-237.48"/>
<polygon fill="#63b8ff" stroke="#63b8ff" points="388.37,-235.66 380.81,-228.24 382.1,-238.75 388.37,-235.66"/>
</a>
</g>
</g>
<!-- Node22 -->
<g id="Node000022" class="node">
<title>Node22</title>
<g id="a_Node000022"><a xlink:title=" ">
<polygon fill="#e0e0e0" stroke="#999999" points="479.5,-228 421.5,-228 421.5,-209 479.5,-209 479.5,-228"/>
<text text-anchor="middle" x="450.5" y="-216" font-family="Helvetica,sans-Serif" font-size="10.00">memory</text>
</a>
</g>
</g>
<!-- Node3&#45;&gt;Node22 -->
<g id="edge25_Node000003_Node000022" class="edge">
<title>Node3&#45;&gt;Node22</title>
<g id="a_edge25_Node000003_Node000022"><a xlink:title=" ">
<path fill="none" stroke="#63b8ff" d="M423.22,-274.79C428.93,-263.23 436.08,-248.73 441.63,-237.48"/>
<polygon fill="#63b8ff" stroke="#63b8ff" points="444.9,-238.75 446.19,-228.24 438.63,-235.66 444.9,-238.75"/>
</a>
</g>
</g>
<!-- Node5 -->
<g id="Node000005" class="node">
<title>Node5</title>
<g id="a_Node000005"><a xlink:href="types_8hpp.html" target="_top" xlink:title=" ">
<polygon fill="white" stroke="#666666" points="319.5,-162 209.5,-162 209.5,-132 319.5,-132 319.5,-162"/>
<text text-anchor="start" x="217.5" y="-150" font-family="Helvetica,sans-Serif" font-size="10.00">packages/types/inc</text>
<text text-anchor="middle" x="264.5" y="-139" font-family="Helvetica,sans-Serif" font-size="10.00">/types.hpp</text>
</a>
</g>
</g>
<!-- Node4&#45;&gt;Node5 -->
<g id="edge4_Node000004_Node000005" class="edge">
<title>Node4&#45;&gt;Node5</title>
<g id="a_edge4_Node000004_Node000005"><a xlink:title=" ">
<path fill="none" stroke="#63b8ff" d="M145.9,-197.96C169.78,-187.9 198.68,-175.73 221.97,-165.91"/>
<polygon fill="#63b8ff" stroke="#63b8ff" points="223.4,-169.11 231.25,-162 220.68,-162.66 223.4,-169.11"/>
</a>
</g>
</g>
<!-- Node11 -->
<g id="Node000011" class="node">
<title>Node11</title>
<g id="a_Node000011"><a xlink:title=" ">
<polygon fill="#e0e0e0" stroke="#999999" points="101,-90.5 32,-90.5 32,-71.5 101,-71.5 101,-90.5"/>
<text text-anchor="middle" x="66.5" y="-78.5" font-family="Helvetica,sans-Serif" font-size="10.00">type_traits</text>
</a>
</g>
</g>
<!-- Node4&#45;&gt;Node11 -->
<g id="edge15_Node000004_Node000011" class="edge">
<title>Node4&#45;&gt;Node11</title>
<g id="a_edge15_Node000004_Node000011"><a xlink:title=" ">
<path fill="none" stroke="#63b8ff" d="M94.7,-197.8C88.35,-171.71 77.23,-126.04 71.02,-100.55"/>
<polygon fill="#63b8ff" stroke="#63b8ff" points="74.38,-99.57 68.62,-90.69 67.58,-101.23 74.38,-99.57"/>
</a>
</g>
</g>
<!-- Node4&#45;&gt;Node15 -->
<g id="edge14_Node000004_Node000015" class="edge">
<title>Node4&#45;&gt;Node15</title>
<g id="a_edge14_Node000004_Node000015"><a xlink:title=" ">
<path fill="none" stroke="#63b8ff" d="M165.66,-199.85C168.64,-199.2 171.6,-198.58 174.5,-198 290.28,-175.03 428.97,-159.04 496.12,-152.02"/>
<polygon fill="#63b8ff" stroke="#63b8ff" points="496.68,-155.48 506.27,-150.97 495.96,-148.51 496.68,-155.48"/>
</a>
</g>
</g>
<!-- Node16 -->
<g id="Node000016" class="node">
<title>Node16</title>
<g id="a_Node000016"><a xlink:title=" ">
<polygon fill="#e0e0e0" stroke="#999999" points="151.5,-156.5 101.5,-156.5 101.5,-137.5 151.5,-137.5 151.5,-156.5"/>
<text text-anchor="middle" x="126.5" y="-144.5" font-family="Helvetica,sans-Serif" font-size="10.00">cstdint</text>
</a>
</g>
</g>
<!-- Node4&#45;&gt;Node16 -->
<g id="edge16_Node000004_Node000016" class="edge">
<title>Node4&#45;&gt;Node16</title>
<g id="a_edge16_Node000004_Node000016"><a xlink:title=" ">
<path fill="none" stroke="#63b8ff" d="M107.16,-197.77C111.01,-187.87 115.64,-175.95 119.41,-166.26"/>
<polygon fill="#63b8ff" stroke="#63b8ff" points="122.71,-167.41 123.07,-156.82 116.19,-164.87 122.71,-167.41"/>
</a>
</g>
</g>
<!-- Node17 -->
<g id="Node000017" class="node">
<title>Node17</title>
<g id="a_Node000017"><a xlink:title=" ">
<polygon fill="#e0e0e0" stroke="#999999" points="45,-156.5 0,-156.5 0,-137.5 45,-137.5 45,-156.5"/>
<text text-anchor="middle" x="22.5" y="-144.5" font-family="Helvetica,sans-Serif" font-size="10.00">utility</text>
</a>
</g>
</g>
<!-- Node4&#45;&gt;Node17 -->
<g id="edge17_Node000004_Node000017" class="edge">
<title>Node4&#45;&gt;Node17</title>
<g id="a_edge17_Node000004_Node000017"><a xlink:title=" ">
<path fill="none" stroke="#63b8ff" d="M77.64,-197.77C65.62,-186.92 50.92,-173.65 39.72,-163.54"/>
<polygon fill="#63b8ff" stroke="#63b8ff" points="42.04,-160.92 32.27,-156.82 37.35,-166.12 42.04,-160.92"/>
</a>
</g>
</g>
<!-- Node6 -->
<g id="Node000006" class="node">
<title>Node6</title>
<g id="a_Node000006"><a xlink:href="debug_8hpp.html" target="_top" xlink:title=" ">
<polygon fill="white" stroke="#666666" points="712,-96 593,-96 593,-66 712,-66 712,-96"/>
<text text-anchor="start" x="601" y="-84" font-family="Helvetica,sans-Serif" font-size="10.00">packages/macros/inc</text>
<text text-anchor="middle" x="652.5" y="-73" font-family="Helvetica,sans-Serif" font-size="10.00">/debug.hpp</text>
</a>
</g>
</g>
<!-- Node5&#45;&gt;Node6 -->
<g id="edge5_Node000005_Node000006" class="edge">
<title>Node5&#45;&gt;Node6</title>
<g id="a_edge5_Node000005_Node000006"><a xlink:title=" ">
<path fill="none" stroke="#63b8ff" d="M319.66,-138.12C381.24,-129.15 484.11,-113.66 582.57,-96.12"/>
<polygon fill="#63b8ff" stroke="#63b8ff" points="583.47,-99.51 592.69,-94.31 582.23,-92.62 583.47,-99.51"/>
</a>
</g>
</g>
<!-- Node9 -->
<g id="Node000009" class="node">
<title>Node9</title>
<g id="a_Node000009"><a xlink:title=" ">
<polygon fill="#e0e0e0" stroke="#999999" points="172,-90.5 119,-90.5 119,-71.5 172,-71.5 172,-90.5"/>
<text text-anchor="middle" x="145.5" y="-78.5" font-family="Helvetica,sans-Serif" font-size="10.00">cstddef</text>
</a>
</g>
</g>
<!-- Node5&#45;&gt;Node9 -->
<g id="edge8_Node000005_Node000009" class="edge">
<title>Node5&#45;&gt;Node9</title>
<g id="a_edge8_Node000005_Node000009"><a xlink:title=" ">
<path fill="none" stroke="#63b8ff" d="M238.38,-131.95C218.16,-121.08 190.32,-106.11 170.41,-95.4"/>
<polygon fill="#63b8ff" stroke="#63b8ff" points="171.8,-92.17 161.34,-90.52 168.49,-98.34 171.8,-92.17"/>
</a>
</g>
</g>
<!-- Node10 -->
<g id="Node000010" class="node">
<title>Node10</title>
<g id="a_Node000010"><a xlink:title=" ">
<polygon fill="#e0e0e0" stroke="#999999" points="234.5,-90.5 190.5,-90.5 190.5,-71.5 234.5,-71.5 234.5,-90.5"/>
<text text-anchor="middle" x="212.5" y="-78.5" font-family="Helvetica,sans-Serif" font-size="10.00">string</text>
</a>
</g>
</g>
<!-- Node5&#45;&gt;Node10 -->
<g id="edge9_Node000005_Node000010" class="edge">
<title>Node5&#45;&gt;Node10</title>
<g id="a_edge9_Node000005_Node000010"><a xlink:title=" ">
<path fill="none" stroke="#63b8ff" d="M252.96,-131.8C245.01,-122.01 234.42,-108.98 226.07,-98.7"/>
<polygon fill="#63b8ff" stroke="#63b8ff" points="228.71,-96.4 219.69,-90.84 223.28,-100.81 228.71,-96.4"/>
</a>
</g>
</g>
<!-- Node5&#45;&gt;Node11 -->
<g id="edge10_Node000005_Node000011" class="edge">
<title>Node5&#45;&gt;Node11</title>
<g id="a_edge10_Node000005_Node000011"><a xlink:title=" ">
<path fill="none" stroke="#63b8ff" d="M220.73,-131.92C189.68,-121.91 147.02,-108.16 109.5,-96 107.23,-95.26 104.9,-94.51 102.54,-93.74"/>
<polygon fill="#63b8ff" stroke="#63b8ff" points="103.47,-90.36 92.88,-90.6 101.3,-97.02 103.47,-90.36"/>
</a>
</g>
</g>
<!-- Node12 -->
<g id="Node000012" class="node">
<title>Node12</title>
<g id="a_Node000012"><a xlink:title=" ">
<polygon fill="#e0e0e0" stroke="#999999" points="302.5,-90.5 252.5,-90.5 252.5,-71.5 302.5,-71.5 302.5,-90.5"/>
<text text-anchor="middle" x="277.5" y="-78.5" font-family="Helvetica,sans-Serif" font-size="10.00">climits</text>
</a>
</g>
</g>
<!-- Node5&#45;&gt;Node12 -->
<g id="edge11_Node000005_Node000012" class="edge">
<title>Node5&#45;&gt;Node12</title>
<g id="a_edge11_Node000005_Node000012"><a xlink:title=" ">
<path fill="none" stroke="#63b8ff" d="M267.39,-131.8C269.23,-122.7 271.65,-110.79 273.66,-100.9"/>
<polygon fill="#63b8ff" stroke="#63b8ff" points="277.14,-101.34 275.7,-90.84 270.28,-99.95 277.14,-101.34"/>
</a>
</g>
</g>
<!-- Node13 -->
<g id="Node000013" class="node">
<title>Node13</title>
<g id="a_Node000013"><a xlink:title=" ">
<polygon fill="#e0e0e0" stroke="#999999" points="438,-96 321,-96 321,-66 438,-66 438,-96"/>
<text text-anchor="start" x="329" y="-84" font-family="Helvetica,sans-Serif" font-size="10.00">packages/types/impl</text>
<text text-anchor="middle" x="379.5" y="-73" font-family="Helvetica,sans-Serif" font-size="10.00">/types_impl.hpp</text>
</a>
</g>
</g>
<!-- Node5&#45;&gt;Node13 -->
<g id="edge12_Node000005_Node000013" class="edge">
<title>Node5&#45;&gt;Node13</title>
<g id="a_edge12_Node000005_Node000013"><a xlink:title=" ">
<path fill="none" stroke="#63b8ff" d="M289.74,-131.95C306.07,-122.87 327.52,-110.93 345.37,-101"/>
<polygon fill="#63b8ff" stroke="#63b8ff" points="347.29,-103.93 354.32,-96.01 343.88,-97.82 347.29,-103.93"/>
</a>
</g>
</g>
<!-- Node14 -->
<g id="Node000014" class="node">
<title>Node14</title>
<g id="a_Node000014"><a xlink:href="logging_8hpp.html" target="_top" xlink:title=" ">
<polygon fill="white" stroke="#666666" points="575,-96 456,-96 456,-66 575,-66 575,-96"/>
<text text-anchor="start" x="464" y="-84" font-family="Helvetica,sans-Serif" font-size="10.00">packages/macros/inc</text>
<text text-anchor="middle" x="515.5" y="-73" font-family="Helvetica,sans-Serif" font-size="10.00">/logging.hpp</text>
</a>
</g>
</g>
<!-- Node5&#45;&gt;Node14 -->
<g id="edge13_Node000005_Node000014" class="edge">
<title>Node5&#45;&gt;Node14</title>
<g id="a_edge13_Node000005_Node000014"><a xlink:title=" ">
<path fill="none" stroke="#63b8ff" d="M319.58,-131.95C358.24,-122.1 410.09,-108.88 450.73,-98.51"/>
<polygon fill="#63b8ff" stroke="#63b8ff" points="451.72,-101.87 460.55,-96.01 449.99,-95.09 451.72,-101.87"/>
</a>
</g>
</g>
<!-- Node7 -->
<g id="Node000007" class="node">
<title>Node7</title>
<g id="a_Node000007"><a xlink:href="detail_8hpp.html" target="_top" xlink:title=" ">
<polygon fill="white" stroke="#666666" points="658,-30 539,-30 539,0 658,0 658,-30"/>
<text text-anchor="start" x="547" y="-18" font-family="Helvetica,sans-Serif" font-size="10.00">packages/macros/inc</text>
<text text-anchor="middle" x="598.5" y="-7" font-family="Helvetica,sans-Serif" font-size="10.00">/detail.hpp</text>
</a>
</g>
</g>
<!-- Node6&#45;&gt;Node7 -->
<g id="edge6_Node000006_Node000007" class="edge">
<title>Node6&#45;&gt;Node7</title>
<g id="a_edge6_Node000006_Node000007"><a xlink:title=" ">
<path fill="none" stroke="#63b8ff" d="M640.52,-65.8C633.59,-57.59 624.74,-47.1 616.95,-37.87"/>
<polygon fill="#63b8ff" stroke="#63b8ff" points="619.57,-35.55 610.45,-30.16 614.22,-40.06 619.57,-35.55"/>
</a>
</g>
</g>
<!-- Node8 -->
<g id="Node000008" class="node">
<title>Node8</title>
<g id="a_Node000008"><a xlink:title=" ">
<polygon fill="#e0e0e0" stroke="#999999" points="736.5,-24.5 676.5,-24.5 676.5,-5.5 736.5,-5.5 736.5,-24.5"/>
<text text-anchor="middle" x="706.5" y="-12.5" font-family="Helvetica,sans-Serif" font-size="10.00">iostream</text>
</a>
</g>
</g>
<!-- Node6&#45;&gt;Node8 -->
<g id="edge7_Node000006_Node000008" class="edge">
<title>Node6&#45;&gt;Node8</title>
<g id="a_edge7_Node000006_Node000008"><a xlink:title=" ">
<path fill="none" stroke="#63b8ff" d="M664.48,-65.8C672.74,-56.01 683.74,-42.98 692.41,-32.7"/>
<polygon fill="#63b8ff" stroke="#63b8ff" points="695.26,-34.74 699.04,-24.84 689.91,-30.23 695.26,-34.74"/>
</a>
</g>
</g>
<!-- Node18&#45;&gt;Node5 -->
<g id="edge19_Node000018_Node000005" class="edge">
<title>Node18&#45;&gt;Node5</title>
<g id="a_edge19_Node000018_Node000005"><a xlink:title=" ">
<path fill="none" stroke="#63b8ff" d="M259.49,-197.77C260.29,-189.76 261.23,-180.42 262.08,-172.02"/>
<polygon fill="#63b8ff" stroke="#63b8ff" points="265.57,-172.34 263.09,-162.04 258.6,-171.64 265.57,-172.34"/>
</a>
</g>
</g>
<!-- Node19&#45;&gt;Node5 -->
<g id="edge21_Node000019_Node000005" class="edge">
<title>Node19&#45;&gt;Node5</title>
<g id="a_edge21_Node000019_Node000005"><a xlink:title=" ">
<path fill="none" stroke="#63b8ff" d="M497.3,-200.02C494.33,-199.34 491.39,-198.66 488.5,-198 435.06,-185.76 374.36,-172.23 329.63,-162.34"/>
<polygon fill="#63b8ff" stroke="#63b8ff" points="330.29,-158.9 319.77,-160.16 328.78,-165.73 330.29,-158.9"/>
</a>
</g>
</g>
<!-- Node19&#45;&gt;Node15 -->
<g id="edge23_Node000019_Node000015" class="edge">
<title>Node19&#45;&gt;Node15</title>
<g id="a_edge23_Node000019_Node000015"><a xlink:title=" ">
<path fill="none" stroke="#63b8ff" d="M561.56,-197.77C556.52,-187.76 550.45,-175.7 545.54,-165.95"/>
<polygon fill="#63b8ff" stroke="#63b8ff" points="548.57,-164.18 540.94,-156.82 542.31,-167.33 548.57,-164.18"/>
</a>
</g>
</g>
<!-- Node20 -->
<g id="Node000020" class="node">
<title>Node20</title>
<g id="a_Node000020"><a xlink:title=" ">
<polygon fill="#e0e0e0" stroke="#999999" points="626,-156.5 585,-156.5 585,-137.5 626,-137.5 626,-156.5"/>
<text text-anchor="middle" x="605.5" y="-144.5" font-family="Helvetica,sans-Serif" font-size="10.00">tuple</text>
</a>
</g>
</g>
<!-- Node19&#45;&gt;Node20 -->
<g id="edge22_Node000019_Node000020" class="edge">
<title>Node19&#45;&gt;Node20</title>
<g id="a_edge22_Node000019_Node000020"><a xlink:title=" ">
<path fill="none" stroke="#63b8ff" d="M581.15,-197.77C586.05,-187.76 591.95,-175.7 596.72,-165.95"/>
<polygon fill="#63b8ff" stroke="#63b8ff" points="599.93,-167.34 601.19,-156.82 593.65,-164.26 599.93,-167.34"/>
</a>
</g>
</g>
</g>
</svg>
