<?xml version="1.0" encoding="UTF-8" standalone="no"?>
<!DOCTYPE svg PUBLIC "-//W3C//DTD SVG 1.1//EN"
 "http://www.w3.org/Graphics/SVG/1.1/DTD/svg11.dtd">
<!-- Generated by graphviz version 2.43.0 (0)
 -->
<!-- Title: container_concepts.hpp Pages: 1 -->
<svg width="1544pt" height="420pt"
 viewBox="0.00 0.00 1543.50 420.00" xmlns="http://www.w3.org/2000/svg" xmlns:xlink="http://www.w3.org/1999/xlink">
<g id="graph0" class="graph" transform="scale(1 1) rotate(0) translate(4 416)">
<title>container_concepts.hpp</title>
<polygon fill="white" stroke="transparent" points="-4,4 -4,-416 1539.5,-416 1539.5,4 -4,4"/>
<!-- Node1 -->
<g id="node1" class="node">
<title>Node1</title>
<g id="a_node1"><a xlink:title=" ">
<polygon fill="#bfbfbf" stroke="black" points="836.5,-392.5 836.5,-411.5 968.5,-411.5 968.5,-392.5 836.5,-392.5"/>
<text text-anchor="middle" x="902.5" y="-399.5" font-family="Helvetica,sans-Serif" font-size="10.00">container_concepts.hpp</text>
</a>
</g>
</g>
<!-- Node2 -->
<g id="node2" class="node">
<title>Node2</title>
<g id="a_node2"><a xlink:href="container__extension_8hpp.html" target="_top" xlink:title=" ">
<polygon fill="white" stroke="black" points="276,-112.5 276,-131.5 413,-131.5 413,-112.5 276,-112.5"/>
<text text-anchor="middle" x="344.5" y="-119.5" font-family="Helvetica,sans-Serif" font-size="10.00">container_extension.hpp</text>
</a>
</g>
</g>
<!-- Node1&#45;&gt;Node2 -->
<g id="edge1" class="edge">
<title>Node1&#45;&gt;Node2</title>
<path fill="none" stroke="midnightblue" d="M825.98,-395.24C711.39,-384.49 508.5,-356.23 508.5,-291 508.5,-291 508.5,-291 508.5,-233 508.5,-173.86 434.04,-144.48 385.46,-131.6"/>
<polygon fill="midnightblue" stroke="midnightblue" points="825.83,-398.74 836.11,-396.17 826.47,-391.77 825.83,-398.74"/>
</g>
<!-- Node3 -->
<g id="node3" class="node">
<title>Node3</title>
<g id="a_node3"><a xlink:href="ParallelFor_8hpp.html" target="_top" xlink:title=" ">
<polygon fill="white" stroke="black" points="862.5,-56.5 862.5,-75.5 950.5,-75.5 950.5,-56.5 862.5,-56.5"/>
<text text-anchor="middle" x="906.5" y="-63.5" font-family="Helvetica,sans-Serif" font-size="10.00">ParallelFor.hpp</text>
</a>
</g>
</g>
<!-- Node1&#45;&gt;Node3 -->
<g id="edge2" class="edge">
<title>Node1&#45;&gt;Node3</title>
<path fill="none" stroke="midnightblue" d="M845.95,-389.92C795.15,-376.29 728.5,-347.62 728.5,-291 728.5,-291 728.5,-291 728.5,-177 728.5,-114.15 809.79,-86.01 862.5,-74.37"/>
<polygon fill="midnightblue" stroke="midnightblue" points="845.32,-393.37 855.87,-392.45 847.05,-386.59 845.32,-393.37"/>
</g>
<!-- Node4 -->
<g id="node4" class="node">
<title>Node4</title>
<g id="a_node4"><a xlink:href="json_8hpp.html" target="_top" xlink:title=" ">
<polygon fill="white" stroke="black" points="1477.5,-168.5 1477.5,-187.5 1535.5,-187.5 1535.5,-168.5 1477.5,-168.5"/>
<text text-anchor="middle" x="1506.5" y="-175.5" font-family="Helvetica,sans-Serif" font-size="10.00">json.hpp</text>
</a>
</g>
</g>
<!-- Node1&#45;&gt;Node4 -->
<g id="edge3" class="edge">
<title>Node1&#45;&gt;Node4</title>
<path fill="none" stroke="midnightblue" d="M964.96,-390.67C1006.03,-383.06 1060.64,-371.36 1107.5,-356 1261.6,-305.48 1436.88,-215.74 1490.25,-187.65"/>
<polygon fill="midnightblue" stroke="midnightblue" points="964.3,-387.23 955.09,-392.47 965.56,-394.12 964.3,-387.23"/>
</g>
<!-- Node5 -->
<g id="node5" class="node">
<title>Node5</title>
<g id="a_node5"><a xlink:href="OutputStream_8hpp.html" target="_top" xlink:title=" ">
<polygon fill="white" stroke="black" points="327.5,-336.5 327.5,-355.5 433.5,-355.5 433.5,-336.5 327.5,-336.5"/>
<text text-anchor="middle" x="380.5" y="-343.5" font-family="Helvetica,sans-Serif" font-size="10.00">OutputStream.hpp</text>
</a>
</g>
</g>
<!-- Node1&#45;&gt;Node5 -->
<g id="edge4" class="edge">
<title>Node1&#45;&gt;Node5</title>
<path fill="none" stroke="midnightblue" d="M826.3,-393.12C719.22,-382.04 526.92,-362.15 433.85,-352.52"/>
<polygon fill="midnightblue" stroke="midnightblue" points="826.08,-396.61 836.39,-394.16 826.8,-389.65 826.08,-396.61"/>
</g>
<!-- Node23 -->
<g id="node23" class="node">
<title>Node23</title>
<g id="a_node23"><a xlink:href="UnstructuredView_8hpp.html" target="_top" xlink:title=" ">
<polygon fill="white" stroke="black" points="756.5,-168.5 756.5,-187.5 880.5,-187.5 880.5,-168.5 756.5,-168.5"/>
<text text-anchor="middle" x="818.5" y="-175.5" font-family="Helvetica,sans-Serif" font-size="10.00">UnstructuredView.hpp</text>
</a>
</g>
</g>
<!-- Node1&#45;&gt;Node23 -->
<g id="edge25" class="edge">
<title>Node1&#45;&gt;Node23</title>
<path fill="none" stroke="midnightblue" d="M887.39,-384.81C880.49,-376.68 872.71,-366.37 867.5,-356 837.15,-295.6 823.47,-213.85 819.66,-187.54"/>
<polygon fill="midnightblue" stroke="midnightblue" points="884.87,-387.25 894.13,-392.41 890.11,-382.6 884.87,-387.25"/>
</g>
<!-- Node24 -->
<g id="node24" class="node">
<title>Node24</title>
<g id="a_node24"><a xlink:href="MarchingContainer_8hpp.html" target="_top" xlink:title=" ">
<polygon fill="white" stroke="black" points="885,-336.5 885,-355.5 1014,-355.5 1014,-336.5 885,-336.5"/>
<text text-anchor="middle" x="949.5" y="-343.5" font-family="Helvetica,sans-Serif" font-size="10.00">MarchingContainer.hpp</text>
</a>
</g>
</g>
<!-- Node1&#45;&gt;Node24 -->
<g id="edge26" class="edge">
<title>Node1&#45;&gt;Node24</title>
<path fill="none" stroke="midnightblue" d="M916.92,-384.43C925.16,-374.97 935.15,-363.48 941.88,-355.75"/>
<polygon fill="midnightblue" stroke="midnightblue" points="914.19,-382.24 910.26,-392.08 919.47,-386.84 914.19,-382.24"/>
</g>
<!-- Node25 -->
<g id="node25" class="node">
<title>Node25</title>
<g id="a_node25"><a xlink:href="resize_8hpp.html" target="_top" xlink:title=" ">
<polygon fill="white" stroke="black" points="1032,-336.5 1032,-355.5 1099,-355.5 1099,-336.5 1032,-336.5"/>
<text text-anchor="middle" x="1065.5" y="-343.5" font-family="Helvetica,sans-Serif" font-size="10.00">resize.hpp</text>
</a>
</g>
</g>
<!-- Node1&#45;&gt;Node25 -->
<g id="edge27" class="edge">
<title>Node1&#45;&gt;Node25</title>
<path fill="none" stroke="midnightblue" d="M938.2,-389.17C968.9,-379 1012.42,-364.59 1039.79,-355.52"/>
<polygon fill="midnightblue" stroke="midnightblue" points="936.72,-385.98 928.33,-392.44 938.92,-392.62 936.72,-385.98"/>
</g>
<!-- Node26 -->
<g id="node26" class="node">
<title>Node26</title>
<g id="a_node26"><a xlink:href="STLContainerBase_8hpp.html" target="_top" xlink:title=" ">
<polygon fill="white" stroke="black" points="989.5,-280.5 989.5,-299.5 1115.5,-299.5 1115.5,-280.5 989.5,-280.5"/>
<text text-anchor="middle" x="1052.5" y="-287.5" font-family="Helvetica,sans-Serif" font-size="10.00">STLContainerBase.hpp</text>
</a>
</g>
</g>
<!-- Node1&#45;&gt;Node26 -->
<g id="edge49" class="edge">
<title>Node1&#45;&gt;Node26</title>
<path fill="none" stroke="midnightblue" d="M886.82,-384.44C875.56,-370.49 864.19,-350.54 875.5,-336 889.61,-317.85 944.52,-305.83 989.49,-298.81"/>
<polygon fill="midnightblue" stroke="midnightblue" points="884.41,-387 893.61,-392.25 889.69,-382.41 884.41,-387"/>
</g>
<!-- Node38 -->
<g id="node38" class="node">
<title>Node38</title>
<g id="a_node38"><a xlink:href="state__iterator_8hpp.html" target="_top" xlink:title=" ">
<polygon fill="white" stroke="black" points="1343,-336.5 1343,-355.5 1446,-355.5 1446,-336.5 1343,-336.5"/>
<text text-anchor="middle" x="1394.5" y="-343.5" font-family="Helvetica,sans-Serif" font-size="10.00">state_iterator.hpp</text>
</a>
</g>
</g>
<!-- Node1&#45;&gt;Node38 -->
<g id="edge48" class="edge">
<title>Node1&#45;&gt;Node38</title>
<path fill="none" stroke="midnightblue" d="M978.73,-393.65C1064.03,-385.26 1206.29,-370.78 1328.5,-356 1333.21,-355.43 1338.1,-354.81 1343,-354.18"/>
<polygon fill="midnightblue" stroke="midnightblue" points="978.23,-390.18 968.61,-394.64 978.91,-397.15 978.23,-390.18"/>
</g>
<!-- Node39 -->
<g id="node39" class="node">
<title>Node39</title>
<g id="a_node39"><a xlink:href="zip_8hpp.html" target="_top" xlink:title=" ">
<polygon fill="white" stroke="black" points="1464.5,-336.5 1464.5,-355.5 1516.5,-355.5 1516.5,-336.5 1464.5,-336.5"/>
<text text-anchor="middle" x="1490.5" y="-343.5" font-family="Helvetica,sans-Serif" font-size="10.00">zip.hpp</text>
</a>
</g>
</g>
<!-- Node1&#45;&gt;Node39 -->
<g id="edge50" class="edge">
<title>Node1&#45;&gt;Node39</title>
<path fill="none" stroke="midnightblue" d="M979,-398.89C1086.19,-395.01 1286.86,-384.33 1455.5,-356 1458.35,-355.52 1461.3,-354.92 1464.23,-354.27"/>
<polygon fill="midnightblue" stroke="midnightblue" points="978.79,-395.4 968.92,-399.25 979.04,-402.39 978.79,-395.4"/>
</g>
<!-- Node6 -->
<g id="node6" class="node">
<title>Node6</title>
<g id="a_node6"><a xlink:href="ArgParse_8hpp.html" target="_top" xlink:title=" ">
<polygon fill="white" stroke="black" points="536.5,-168.5 536.5,-187.5 616.5,-187.5 616.5,-168.5 536.5,-168.5"/>
<text text-anchor="middle" x="576.5" y="-175.5" font-family="Helvetica,sans-Serif" font-size="10.00">ArgParse.hpp</text>
</a>
</g>
</g>
<!-- Node5&#45;&gt;Node6 -->
<g id="edge5" class="edge">
<title>Node5&#45;&gt;Node6</title>
<path fill="none" stroke="midnightblue" d="M404.49,-331.17C418.38,-322.77 435.94,-311.49 450.5,-300 498.82,-261.85 549.74,-208.12 568.75,-187.51"/>
<polygon fill="midnightblue" stroke="midnightblue" points="402.35,-328.37 395.54,-336.48 405.93,-334.38 402.35,-328.37"/>
</g>
<!-- Node13 -->
<g id="node13" class="node">
<title>Node13</title>
<g id="a_node13"><a xlink:href="FileOutputStream_8hpp.html" target="_top" xlink:title=" ">
<polygon fill="white" stroke="black" points="319,-280.5 319,-299.5 442,-299.5 442,-280.5 319,-280.5"/>
<text text-anchor="middle" x="380.5" y="-287.5" font-family="Helvetica,sans-Serif" font-size="10.00">FileOutputStream.hpp</text>
</a>
</g>
</g>
<!-- Node5&#45;&gt;Node13 -->
<g id="edge13" class="edge">
<title>Node5&#45;&gt;Node13</title>
<path fill="none" stroke="midnightblue" d="M380.5,-325.8C380.5,-316.91 380.5,-306.78 380.5,-299.75"/>
<polygon fill="midnightblue" stroke="midnightblue" points="377,-326.08 380.5,-336.08 384,-326.08 377,-326.08"/>
</g>
<!-- Node21 -->
<g id="node21" class="node">
<title>Node21</title>
<g id="a_node21"><a xlink:href="StreamInterceptor_8hpp.html" target="_top" xlink:title=" ">
<polygon fill="white" stroke="black" points="95,-280.5 95,-299.5 220,-299.5 220,-280.5 95,-280.5"/>
<text text-anchor="middle" x="157.5" y="-287.5" font-family="Helvetica,sans-Serif" font-size="10.00">StreamInterceptor.hpp</text>
</a>
</g>
</g>
<!-- Node5&#45;&gt;Node21 -->
<g id="edge23" class="edge">
<title>Node5&#45;&gt;Node21</title>
<path fill="none" stroke="midnightblue" d="M335.44,-334.09C293.31,-323.89 231.26,-308.86 192.67,-299.52"/>
<polygon fill="midnightblue" stroke="midnightblue" points="334.62,-337.49 345.16,-336.44 336.27,-330.69 334.62,-337.49"/>
</g>
<!-- Node22 -->
<g id="node22" class="node">
<title>Node22</title>
<g id="a_node22"><a xlink:href="Color_8hpp.html" target="_top" xlink:title=" ">
<polygon fill="white" stroke="black" points="238.5,-280.5 238.5,-299.5 300.5,-299.5 300.5,-280.5 238.5,-280.5"/>
<text text-anchor="middle" x="269.5" y="-287.5" font-family="Helvetica,sans-Serif" font-size="10.00">Color.hpp</text>
</a>
</g>
</g>
<!-- Node5&#45;&gt;Node22 -->
<g id="edge24" class="edge">
<title>Node5&#45;&gt;Node22</title>
<path fill="none" stroke="midnightblue" d="M353.49,-331.86C332.91,-321.85 305.16,-308.35 287.29,-299.65"/>
<polygon fill="midnightblue" stroke="midnightblue" points="352.14,-335.1 362.67,-336.32 355.2,-328.8 352.14,-335.1"/>
</g>
<!-- Node6&#45;&gt;Node2 -->
<g id="edge11" class="edge">
<title>Node6&#45;&gt;Node2</title>
<path fill="none" stroke="midnightblue" d="M529.9,-166.15C486.06,-155.95 421.32,-140.88 381.09,-131.52"/>
<polygon fill="midnightblue" stroke="midnightblue" points="529.21,-169.59 539.74,-168.44 530.79,-162.77 529.21,-169.59"/>
</g>
<!-- Node7 -->
<g id="node7" class="node">
<title>Node7</title>
<g id="a_node7"><a xlink:href="AbsArgument_8hpp.html" target="_top" xlink:title=" ">
<polygon fill="white" stroke="black" points="596.5,-112.5 596.5,-131.5 700.5,-131.5 700.5,-112.5 596.5,-112.5"/>
<text text-anchor="middle" x="648.5" y="-119.5" font-family="Helvetica,sans-Serif" font-size="10.00">AbsArgument.hpp</text>
</a>
</g>
</g>
<!-- Node6&#45;&gt;Node7 -->
<g id="edge6" class="edge">
<title>Node6&#45;&gt;Node7</title>
<path fill="none" stroke="midnightblue" d="M596.37,-162.1C609.32,-152.38 625.8,-140.03 636.72,-131.83"/>
<polygon fill="midnightblue" stroke="midnightblue" points="593.97,-159.52 588.07,-168.32 598.17,-165.12 593.97,-159.52"/>
</g>
<!-- Node12 -->
<g id="node12" class="node">
<title>Node12</title>
<g id="a_node12"><a xlink:href="file__system__extension_8hpp.html" target="_top" xlink:title=" ">
<polygon fill="white" stroke="black" points="431,-112.5 431,-131.5 578,-131.5 578,-112.5 431,-112.5"/>
<text text-anchor="middle" x="504.5" y="-119.5" font-family="Helvetica,sans-Serif" font-size="10.00">file_system_extension.hpp</text>
</a>
</g>
</g>
<!-- Node6&#45;&gt;Node12 -->
<g id="edge12" class="edge">
<title>Node6&#45;&gt;Node12</title>
<path fill="none" stroke="midnightblue" d="M556.63,-162.1C543.68,-152.38 527.2,-140.03 516.28,-131.83"/>
<polygon fill="midnightblue" stroke="midnightblue" points="554.83,-165.12 564.93,-168.32 559.03,-159.52 554.83,-165.12"/>
</g>
<!-- Node8 -->
<g id="node8" class="node">
<title>Node8</title>
<g id="a_node8"><a xlink:href="AggregateArgument_8hpp.html" target="_top" xlink:title=" ">
<polygon fill="white" stroke="black" points="284.5,-56.5 284.5,-75.5 420.5,-75.5 420.5,-56.5 284.5,-56.5"/>
<text text-anchor="middle" x="352.5" y="-63.5" font-family="Helvetica,sans-Serif" font-size="10.00">AggregateArgument.hpp</text>
</a>
</g>
</g>
<!-- Node7&#45;&gt;Node8 -->
<g id="edge7" class="edge">
<title>Node7&#45;&gt;Node8</title>
<path fill="none" stroke="midnightblue" d="M591.5,-110.6C535.56,-100.4 451.27,-85.02 399.18,-75.52"/>
<polygon fill="midnightblue" stroke="midnightblue" points="591.13,-114.09 601.6,-112.44 592.39,-107.21 591.13,-114.09"/>
</g>
<!-- Node9 -->
<g id="node9" class="node">
<title>Node9</title>
<g id="a_node9"><a xlink:href="FlagArgument_8hpp.html" target="_top" xlink:title=" ">
<polygon fill="white" stroke="black" points="439,-56.5 439,-75.5 546,-75.5 546,-56.5 439,-56.5"/>
<text text-anchor="middle" x="492.5" y="-63.5" font-family="Helvetica,sans-Serif" font-size="10.00">FlagArgument.hpp</text>
</a>
</g>
</g>
<!-- Node7&#45;&gt;Node9 -->
<g id="edge8" class="edge">
<title>Node7&#45;&gt;Node9</title>
<path fill="none" stroke="midnightblue" d="M614.33,-109.17C584.96,-99 543.3,-84.59 517.1,-75.52"/>
<polygon fill="midnightblue" stroke="midnightblue" points="613.19,-112.48 623.78,-112.44 615.48,-105.86 613.19,-112.48"/>
</g>
<!-- Node10 -->
<g id="node10" class="node">
<title>Node10</title>
<g id="a_node10"><a xlink:href="KeywordArgument_8hpp.html" target="_top" xlink:title=" ">
<polygon fill="white" stroke="black" points="564.5,-56.5 564.5,-75.5 692.5,-75.5 692.5,-56.5 564.5,-56.5"/>
<text text-anchor="middle" x="628.5" y="-63.5" font-family="Helvetica,sans-Serif" font-size="10.00">KeywordArgument.hpp</text>
</a>
</g>
</g>
<!-- Node7&#45;&gt;Node10 -->
<g id="edge9" class="edge">
<title>Node7&#45;&gt;Node10</title>
<path fill="none" stroke="midnightblue" d="M641.72,-102.69C638.35,-93.59 634.43,-83.01 631.74,-75.75"/>
<polygon fill="midnightblue" stroke="midnightblue" points="638.44,-103.92 645.2,-112.08 645.01,-101.49 638.44,-103.92"/>
</g>
<!-- Node11 -->
<g id="node11" class="node">
<title>Node11</title>
<g id="a_node11"><a xlink:href="PositionalArgument_8hpp.html" target="_top" xlink:title=" ">
<polygon fill="white" stroke="black" points="710.5,-56.5 710.5,-75.5 844.5,-75.5 844.5,-56.5 710.5,-56.5"/>
<text text-anchor="middle" x="777.5" y="-63.5" font-family="Helvetica,sans-Serif" font-size="10.00">PositionalArgument.hpp</text>
</a>
</g>
</g>
<!-- Node7&#45;&gt;Node11 -->
<g id="edge10" class="edge">
<title>Node7&#45;&gt;Node11</title>
<path fill="none" stroke="midnightblue" d="M678.35,-108.5C702.54,-98.38 735.96,-84.39 757.16,-75.52"/>
<polygon fill="midnightblue" stroke="midnightblue" points="676.81,-105.35 668.94,-112.44 679.52,-111.81 676.81,-105.35"/>
</g>
<!-- Node14 -->
<g id="node14" class="node">
<title>Node14</title>
<g id="a_node14"><a xlink:href="Logger_8hpp.html" target="_top" xlink:title=" ">
<polygon fill="white" stroke="black" points="127.5,-224.5 127.5,-243.5 197.5,-243.5 197.5,-224.5 127.5,-224.5"/>
<text text-anchor="middle" x="162.5" y="-231.5" font-family="Helvetica,sans-Serif" font-size="10.00">Logger.hpp</text>
</a>
</g>
</g>
<!-- Node13&#45;&gt;Node14 -->
<g id="edge14" class="edge">
<title>Node13&#45;&gt;Node14</title>
<path fill="none" stroke="midnightblue" d="M336.19,-278.02C295.01,-267.82 234.53,-252.84 196.88,-243.52"/>
<polygon fill="midnightblue" stroke="midnightblue" points="335.41,-281.44 345.96,-280.44 337.09,-274.64 335.41,-281.44"/>
</g>
<!-- Node15 -->
<g id="node15" class="node">
<title>Node15</title>
<g id="a_node15"><a xlink:href="LogBlock_8hpp.html" target="_top" xlink:title=" ">
<polygon fill="white" stroke="black" points="62.5,-168.5 62.5,-187.5 144.5,-187.5 144.5,-168.5 62.5,-168.5"/>
<text text-anchor="middle" x="103.5" y="-175.5" font-family="Helvetica,sans-Serif" font-size="10.00">LogBlock.hpp</text>
</a>
</g>
</g>
<!-- Node14&#45;&gt;Node15 -->
<g id="edge15" class="edge">
<title>Node14&#45;&gt;Node15</title>
<path fill="none" stroke="midnightblue" d="M145.61,-217.54C135.09,-207.91 121.93,-195.87 113.15,-187.83"/>
<polygon fill="midnightblue" stroke="midnightblue" points="143.28,-220.15 153.02,-224.32 148.01,-214.99 143.28,-220.15"/>
</g>
<!-- Node16 -->
<g id="node16" class="node">
<title>Node16</title>
<g id="a_node16"><a xlink:href="Loggee_8hpp.html" target="_top" xlink:title=" ">
<polygon fill="white" stroke="black" points="0,-112.5 0,-131.5 73,-131.5 73,-112.5 0,-112.5"/>
<text text-anchor="middle" x="36.5" y="-119.5" font-family="Helvetica,sans-Serif" font-size="10.00">Loggee.hpp</text>
</a>
</g>
</g>
<!-- Node14&#45;&gt;Node16 -->
<g id="edge19" class="edge">
<title>Node14&#45;&gt;Node16</title>
<path fill="none" stroke="midnightblue" d="M117.35,-224.29C95.2,-217.81 69.84,-206.73 53.5,-188 39.39,-171.83 36.78,-145.33 36.43,-131.7"/>
<polygon fill="midnightblue" stroke="midnightblue" points="116.68,-227.74 127.25,-226.96 118.5,-220.98 116.68,-227.74"/>
</g>
<!-- Node19 -->
<g id="node19" class="node">
<title>Node19</title>
<g id="a_node19"><a xlink:href="LoggerSingleton_8hpp.html" target="_top" xlink:title=" ">
<polygon fill="white" stroke="black" points="162.5,-168.5 162.5,-187.5 278.5,-187.5 278.5,-168.5 162.5,-168.5"/>
<text text-anchor="middle" x="220.5" y="-175.5" font-family="Helvetica,sans-Serif" font-size="10.00">LoggerSingleton.hpp</text>
</a>
</g>
</g>
<!-- Node14&#45;&gt;Node19 -->
<g id="edge20" class="edge">
<title>Node14&#45;&gt;Node19</title>
<path fill="none" stroke="midnightblue" d="M179.41,-217.25C189.7,-207.67 202.47,-195.79 211.01,-187.83"/>
<polygon fill="midnightblue" stroke="midnightblue" points="176.75,-214.95 171.82,-224.32 181.52,-220.07 176.75,-214.95"/>
</g>
<!-- Node15&#45;&gt;Node16 -->
<g id="edge16" class="edge">
<title>Node15&#45;&gt;Node16</title>
<path fill="none" stroke="midnightblue" d="M84.67,-161.82C72.66,-152.15 57.53,-139.95 47.46,-131.83"/>
<polygon fill="midnightblue" stroke="midnightblue" points="82.75,-164.77 92.74,-168.32 87.15,-159.32 82.75,-164.77"/>
</g>
<!-- Node17 -->
<g id="node17" class="node">
<title>Node17</title>
<g id="a_node17"><a xlink:href="testing_8hpp.html" target="_top" xlink:title=" ">
<polygon fill="white" stroke="black" points="92,-112.5 92,-131.5 163,-131.5 163,-112.5 92,-112.5"/>
<text text-anchor="middle" x="127.5" y="-119.5" font-family="Helvetica,sans-Serif" font-size="10.00">testing.hpp</text>
</a>
</g>
</g>
<!-- Node15&#45;&gt;Node17 -->
<g id="edge17" class="edge">
<title>Node15&#45;&gt;Node17</title>
<path fill="none" stroke="midnightblue" d="M111.64,-158.69C115.68,-149.59 120.38,-139.01 123.61,-131.75"/>
<polygon fill="midnightblue" stroke="midnightblue" points="108.33,-157.52 107.46,-168.08 114.72,-160.37 108.33,-157.52"/>
</g>
<!-- Node18 -->
<g id="node18" class="node">
<title>Node18</title>
<g id="a_node18"><a xlink:href="essentials_8hpp.html" target="_top" xlink:title=" ">
<polygon fill="white" stroke="black" points="84,-56.5 84,-75.5 171,-75.5 171,-56.5 84,-56.5"/>
<text text-anchor="middle" x="127.5" y="-63.5" font-family="Helvetica,sans-Serif" font-size="10.00">essentials.hpp</text>
</a>
</g>
</g>
<!-- Node17&#45;&gt;Node18 -->
<g id="edge18" class="edge">
<title>Node17&#45;&gt;Node18</title>
<path fill="none" stroke="midnightblue" d="M127.5,-101.8C127.5,-92.91 127.5,-82.78 127.5,-75.75"/>
<polygon fill="midnightblue" stroke="midnightblue" points="124,-102.08 127.5,-112.08 131,-102.08 124,-102.08"/>
</g>
<!-- Node19&#45;&gt;Node17 -->
<g id="edge21" class="edge">
<title>Node19&#45;&gt;Node17</title>
<path fill="none" stroke="midnightblue" d="M196.69,-163.18C179.58,-153.24 157.03,-140.15 142.4,-131.65"/>
<polygon fill="midnightblue" stroke="midnightblue" points="195.15,-166.33 205.56,-168.32 198.67,-160.28 195.15,-166.33"/>
</g>
<!-- Node20 -->
<g id="node20" class="node">
<title>Node20</title>
<g id="a_node20"><a xlink:href="warning_8hpp.html" target="_top" xlink:title=" ">
<polygon fill="white" stroke="black" points="181,-112.5 181,-131.5 258,-131.5 258,-112.5 181,-112.5"/>
<text text-anchor="middle" x="219.5" y="-119.5" font-family="Helvetica,sans-Serif" font-size="10.00">warning.hpp</text>
</a>
</g>
</g>
<!-- Node19&#45;&gt;Node20 -->
<g id="edge22" class="edge">
<title>Node19&#45;&gt;Node20</title>
<path fill="none" stroke="midnightblue" d="M220.14,-157.8C219.98,-148.91 219.79,-138.78 219.66,-131.75"/>
<polygon fill="midnightblue" stroke="midnightblue" points="216.65,-158.15 220.33,-168.08 223.65,-158.02 216.65,-158.15"/>
</g>
<!-- Node25&#45;&gt;Node26 -->
<g id="edge28" class="edge">
<title>Node25&#45;&gt;Node26</title>
<path fill="none" stroke="midnightblue" d="M1060.95,-326.1C1058.79,-317.14 1056.32,-306.86 1054.61,-299.75"/>
<polygon fill="midnightblue" stroke="midnightblue" points="1057.61,-327.18 1063.35,-336.08 1064.42,-325.54 1057.61,-327.18"/>
</g>
<!-- Node27 -->
<g id="node27" class="node">
<title>Node27</title>
<g id="a_node27"><a xlink:href="DynamicArray_8hpp.html" target="_top" xlink:title=" ">
<polygon fill="white" stroke="black" points="986.5,-224.5 986.5,-243.5 1092.5,-243.5 1092.5,-224.5 986.5,-224.5"/>
<text text-anchor="middle" x="1039.5" y="-231.5" font-family="Helvetica,sans-Serif" font-size="10.00">DynamicArray.hpp</text>
</a>
</g>
</g>
<!-- Node26&#45;&gt;Node27 -->
<g id="edge29" class="edge">
<title>Node26&#45;&gt;Node27</title>
<path fill="none" stroke="midnightblue" d="M1047.95,-270.1C1045.79,-261.14 1043.32,-250.86 1041.61,-243.75"/>
<polygon fill="midnightblue" stroke="midnightblue" points="1044.61,-271.18 1050.35,-280.08 1051.42,-269.54 1044.61,-271.18"/>
</g>
<!-- Node36 -->
<g id="node36" class="node">
<title>Node36</title>
<g id="a_node36"><a xlink:href="StaticArray_8hpp.html" target="_top" xlink:title=" ">
<polygon fill="white" stroke="black" points="1196.5,-224.5 1196.5,-243.5 1286.5,-243.5 1286.5,-224.5 1196.5,-224.5"/>
<text text-anchor="middle" x="1241.5" y="-231.5" font-family="Helvetica,sans-Serif" font-size="10.00">StaticArray.hpp</text>
</a>
</g>
</g>
<!-- Node26&#45;&gt;Node36 -->
<g id="edge44" class="edge">
<title>Node26&#45;&gt;Node36</title>
<path fill="none" stroke="midnightblue" d="M1092.51,-277.57C1128.17,-267.38 1179.54,-252.7 1211.69,-243.52"/>
<polygon fill="midnightblue" stroke="midnightblue" points="1091.1,-274.33 1082.45,-280.44 1093.02,-281.06 1091.1,-274.33"/>
</g>
<!-- Node27&#45;&gt;Node3 -->
<g id="edge31" class="edge">
<title>Node27&#45;&gt;Node3</title>
<path fill="none" stroke="midnightblue" d="M1003.91,-220.5C987.37,-213.19 968.53,-202.51 955.5,-188 924.6,-153.61 911.83,-97.19 907.92,-75.69"/>
<polygon fill="midnightblue" stroke="midnightblue" points="1002.74,-223.81 1013.31,-224.42 1005.43,-217.35 1002.74,-223.81"/>
</g>
<!-- Node27&#45;&gt;Node6 -->
<g id="edge30" class="edge">
<title>Node27&#45;&gt;Node6</title>
<path fill="none" stroke="midnightblue" d="M976.44,-225.65C879.64,-214.36 697.18,-193.08 616.55,-183.67"/>
<polygon fill="midnightblue" stroke="midnightblue" points="976.05,-229.12 986.39,-226.81 976.86,-222.17 976.05,-229.12"/>
</g>
<!-- Node27&#45;&gt;Node23 -->
<g id="edge40" class="edge">
<title>Node27&#45;&gt;Node23</title>
<path fill="none" stroke="midnightblue" d="M994.58,-222.02C952.83,-211.82 891.52,-196.84 853.35,-187.52"/>
<polygon fill="midnightblue" stroke="midnightblue" points="993.94,-225.47 1004.48,-224.44 995.6,-218.67 993.94,-225.47"/>
</g>
<!-- Node28 -->
<g id="node28" class="node">
<title>Node28</title>
<g id="a_node28"><a xlink:href="ThreadLocal_8hpp.html" target="_top" xlink:title=" ">
<polygon fill="white" stroke="black" points="1123,-168.5 1123,-187.5 1220,-187.5 1220,-168.5 1123,-168.5"/>
<text text-anchor="middle" x="1171.5" y="-175.5" font-family="Helvetica,sans-Serif" font-size="10.00">ThreadLocal.hpp</text>
</a>
</g>
</g>
<!-- Node27&#45;&gt;Node28 -->
<g id="edge32" class="edge">
<title>Node27&#45;&gt;Node28</title>
<path fill="none" stroke="midnightblue" d="M1069.72,-220.64C1094.49,-210.5 1128.9,-196.43 1150.68,-187.52"/>
<polygon fill="midnightblue" stroke="midnightblue" points="1068.35,-217.42 1060.42,-224.44 1071,-223.9 1068.35,-217.42"/>
</g>
<!-- Node29 -->
<g id="node29" class="node">
<title>Node29</title>
<g id="a_node29"><a xlink:href="ThreadPoolStorage_8hpp.html" target="_top" xlink:title=" ">
<polygon fill="white" stroke="black" points="974.5,-168.5 974.5,-187.5 1104.5,-187.5 1104.5,-168.5 974.5,-168.5"/>
<text text-anchor="middle" x="1039.5" y="-175.5" font-family="Helvetica,sans-Serif" font-size="10.00">ThreadPoolStorage.hpp</text>
</a>
</g>
</g>
<!-- Node27&#45;&gt;Node29 -->
<g id="edge33" class="edge">
<title>Node27&#45;&gt;Node29</title>
<path fill="none" stroke="midnightblue" d="M1039.5,-213.8C1039.5,-204.91 1039.5,-194.78 1039.5,-187.75"/>
<polygon fill="midnightblue" stroke="midnightblue" points="1036,-214.08 1039.5,-224.08 1043,-214.08 1036,-214.08"/>
</g>
<!-- Node33 -->
<g id="node33" class="node">
<title>Node33</title>
<g id="a_node33"><a xlink:href="abstree_8hpp.html" target="_top" xlink:title=" ">
<polygon fill="white" stroke="black" points="968.5,-56.5 968.5,-75.5 1042.5,-75.5 1042.5,-56.5 968.5,-56.5"/>
<text text-anchor="middle" x="1005.5" y="-63.5" font-family="Helvetica,sans-Serif" font-size="10.00">abstree.hpp</text>
</a>
</g>
</g>
<!-- Node27&#45;&gt;Node33 -->
<g id="edge41" class="edge">
<title>Node27&#45;&gt;Node33</title>
<path fill="none" stroke="midnightblue" d="M1003.26,-220.15C988.83,-213.05 973.72,-202.62 965.5,-188 943.6,-149.04 981.16,-96.23 997.99,-75.68"/>
<polygon fill="midnightblue" stroke="midnightblue" points="1002.02,-223.43 1012.57,-224.36 1004.9,-217.05 1002.02,-223.43"/>
</g>
<!-- Node34 -->
<g id="node34" class="node">
<title>Node34</title>
<g id="a_node34"><a xlink:href="ContiguousTree_8hpp.html" target="_top" xlink:title=" ">
<polygon fill="white" stroke="black" points="1194,-56.5 1194,-75.5 1307,-75.5 1307,-56.5 1194,-56.5"/>
<text text-anchor="middle" x="1250.5" y="-63.5" font-family="Helvetica,sans-Serif" font-size="10.00">ContiguousTree.hpp</text>
</a>
</g>
</g>
<!-- Node27&#45;&gt;Node34 -->
<g id="edge42" class="edge">
<title>Node27&#45;&gt;Node34</title>
<path fill="none" stroke="midnightblue" d="M1102.81,-225.55C1151.13,-218.53 1212.26,-206.32 1229.5,-188 1259.45,-156.17 1254.9,-97.73 1251.9,-75.7"/>
<polygon fill="midnightblue" stroke="midnightblue" points="1102.12,-222.11 1092.71,-226.97 1103.1,-229.04 1102.12,-222.11"/>
</g>
<!-- Node35 -->
<g id="node35" class="node">
<title>Node35</title>
<g id="a_node35"><a xlink:href="stl__extension_8hpp.html" target="_top" xlink:title=" ">
<polygon fill="white" stroke="black" points="1277,-168.5 1277,-187.5 1380,-187.5 1380,-168.5 1277,-168.5"/>
<text text-anchor="middle" x="1328.5" y="-175.5" font-family="Helvetica,sans-Serif" font-size="10.00">stl_extension.hpp</text>
</a>
</g>
</g>
<!-- Node27&#45;&gt;Node35 -->
<g id="edge43" class="edge">
<title>Node27&#45;&gt;Node35</title>
<path fill="none" stroke="midnightblue" d="M1095.16,-222.6C1149.77,-212.4 1232.07,-197.02 1282.92,-187.52"/>
<polygon fill="midnightblue" stroke="midnightblue" points="1094.48,-219.17 1085.29,-224.44 1095.77,-226.05 1094.48,-219.17"/>
</g>
<!-- Node30 -->
<g id="node30" class="node">
<title>Node30</title>
<g id="a_node30"><a xlink:href="ThreadPool_8hpp.html" target="_top" xlink:title=" ">
<polygon fill="white" stroke="black" points="993.5,-112.5 993.5,-131.5 1085.5,-131.5 1085.5,-112.5 993.5,-112.5"/>
<text text-anchor="middle" x="1039.5" y="-119.5" font-family="Helvetica,sans-Serif" font-size="10.00">ThreadPool.hpp</text>
</a>
</g>
</g>
<!-- Node29&#45;&gt;Node30 -->
<g id="edge34" class="edge">
<title>Node29&#45;&gt;Node30</title>
<path fill="none" stroke="midnightblue" d="M1039.5,-157.8C1039.5,-148.91 1039.5,-138.78 1039.5,-131.75"/>
<polygon fill="midnightblue" stroke="midnightblue" points="1036,-158.08 1039.5,-168.08 1043,-158.08 1036,-158.08"/>
</g>
<!-- Node30&#45;&gt;Node3 -->
<g id="edge35" class="edge">
<title>Node30&#45;&gt;Node3</title>
<path fill="none" stroke="midnightblue" d="M1009.05,-108.64C984.09,-98.5 949.42,-84.43 927.48,-75.52"/>
<polygon fill="midnightblue" stroke="midnightblue" points="1007.84,-111.92 1018.43,-112.44 1010.48,-105.44 1007.84,-111.92"/>
</g>
<!-- Node31 -->
<g id="node31" class="node">
<title>Node31</title>
<g id="a_node31"><a xlink:href="ResourceLoader_8hpp.html" target="_top" xlink:title=" ">
<polygon fill="white" stroke="black" points="1061,-56.5 1061,-75.5 1176,-75.5 1176,-56.5 1061,-56.5"/>
<text text-anchor="middle" x="1118.5" y="-63.5" font-family="Helvetica,sans-Serif" font-size="10.00">ResourceLoader.hpp</text>
</a>
</g>
</g>
<!-- Node30&#45;&gt;Node31 -->
<g id="edge36" class="edge">
<title>Node30&#45;&gt;Node31</title>
<path fill="none" stroke="midnightblue" d="M1060.53,-106.62C1074.97,-96.76 1093.64,-83.99 1105.84,-75.65"/>
<polygon fill="midnightblue" stroke="midnightblue" points="1058.47,-103.79 1052.19,-112.32 1062.42,-109.57 1058.47,-103.79"/>
</g>
<!-- Node30&#45;&gt;Node33 -->
<g id="edge38" class="edge">
<title>Node30&#45;&gt;Node33</title>
<path fill="none" stroke="midnightblue" d="M1028.52,-103.57C1022.67,-94.27 1015.73,-83.25 1011.01,-75.75"/>
<polygon fill="midnightblue" stroke="midnightblue" points="1025.6,-105.49 1033.89,-112.08 1031.52,-101.76 1025.6,-105.49"/>
</g>
<!-- Node30&#45;&gt;Node34 -->
<g id="edge39" class="edge">
<title>Node30&#45;&gt;Node34</title>
<path fill="none" stroke="midnightblue" d="M1082.64,-109.96C1122.49,-99.76 1180.86,-84.82 1217.22,-75.52"/>
<polygon fill="midnightblue" stroke="midnightblue" points="1081.75,-106.57 1072.93,-112.44 1083.49,-113.35 1081.75,-106.57"/>
</g>
<!-- Node32 -->
<g id="node32" class="node">
<title>Node32</title>
<g id="a_node32"><a xlink:href="ResourceQueue_8hpp.html" target="_top" xlink:title=" ">
<polygon fill="white" stroke="black" points="1061.5,-0.5 1061.5,-19.5 1175.5,-19.5 1175.5,-0.5 1061.5,-0.5"/>
<text text-anchor="middle" x="1118.5" y="-7.5" font-family="Helvetica,sans-Serif" font-size="10.00">ResourceQueue.hpp</text>
</a>
</g>
</g>
<!-- Node31&#45;&gt;Node32 -->
<g id="edge37" class="edge">
<title>Node31&#45;&gt;Node32</title>
<path fill="none" stroke="midnightblue" d="M1118.5,-45.8C1118.5,-36.91 1118.5,-26.78 1118.5,-19.75"/>
<polygon fill="midnightblue" stroke="midnightblue" points="1115,-46.08 1118.5,-56.08 1122,-46.08 1115,-46.08"/>
</g>
<!-- Node36&#45;&gt;Node4 -->
<g id="edge45" class="edge">
<title>Node36&#45;&gt;Node4</title>
<path fill="none" stroke="midnightblue" d="M1296.89,-222.61C1342.93,-213.83 1410.1,-200.7 1468.5,-188 1471.41,-187.37 1474.45,-186.68 1477.48,-185.99"/>
<polygon fill="midnightblue" stroke="midnightblue" points="1295.99,-219.22 1286.82,-224.52 1297.3,-226.09 1295.99,-219.22"/>
</g>
<!-- Node36&#45;&gt;Node35 -->
<g id="edge47" class="edge">
<title>Node36&#45;&gt;Node35</title>
<path fill="none" stroke="midnightblue" d="M1264.22,-218.9C1280.17,-209 1301,-196.07 1314.56,-187.65"/>
<polygon fill="midnightblue" stroke="midnightblue" points="1262.13,-216.08 1255.48,-224.32 1265.82,-222.02 1262.13,-216.08"/>
</g>
<!-- Node37 -->
<g id="node37" class="node">
<title>Node37</title>
<g id="a_node37"><a xlink:href="base_8hpp.html" target="_top" xlink:title=" ">
<polygon fill="white" stroke="black" points="1398,-168.5 1398,-187.5 1459,-187.5 1459,-168.5 1398,-168.5"/>
<text text-anchor="middle" x="1428.5" y="-175.5" font-family="Helvetica,sans-Serif" font-size="10.00">base.hpp</text>
</a>
</g>
</g>
<!-- Node36&#45;&gt;Node37 -->
<g id="edge46" class="edge">
<title>Node36&#45;&gt;Node37</title>
<path fill="none" stroke="midnightblue" d="M1281.09,-221.57C1316.37,-211.38 1367.19,-196.7 1399.01,-187.52"/>
<polygon fill="midnightblue" stroke="midnightblue" points="1279.77,-218.31 1271.13,-224.44 1281.71,-225.03 1279.77,-218.31"/>
</g>
</g>
</svg>
