<?xml version="1.0" encoding="UTF-8" standalone="no"?>
<!DOCTYPE svg PUBLIC "-//W3C//DTD SVG 1.1//EN"
 "http://www.w3.org/Graphics/SVG/1.1/DTD/svg11.dtd">
<!-- Generated by graphviz version 2.43.0 (0)
 -->
<!-- Title: container_concepts.hpp Pages: 1 -->
<!--zoomable 412 -->

<svg id="main" version="1.1" xmlns="http://www.w3.org/2000/svg" xmlns:xlink="http://www.w3.org/1999/xlink" xml:space="preserve" onload="init(evt)">
<style type="text/css"><![CDATA[
.node, .edge {opacity: 0.7;}
.node.selected, .edge.selected {opacity: 1;}
.edge:hover path { stroke: red; }
.edge:hover polygon { stroke: red; fill: red; }
]]></style>

<defs>
  <circle id="rim" cx="0" cy="0" r="7"/>
  <circle id="rim2" cx="0" cy="0" r="3.5"/>
  <g id="zoomPlus">
    <use xlink:href="#rim" fill="#404040"><set attributeName="fill" to="#808080" begin="zoomplus.mouseover" end="zoomplus.mouseout"/></use>
    <path d="M-4,0h8M0,-4v8" fill="none" stroke="white" stroke-width="1.5" pointer-events="none"/>
  </g>
  <g id="zoomMin">
    <use xlink:href="#rim" fill="#404040"><set attributeName="fill" to="#808080" begin="zoomminus.mouseover" end="zoomminus.mouseout"/></use>
    <path d="M-4,0h8" fill="none" stroke="white" stroke-width="1.5" pointer-events="none"/>
  </g>
  <g id="arrowUp" transform="translate(30 24)">
    <use xlink:href="#rim"/>
    <path pointer-events="none" fill="none" stroke="white" stroke-width="1.5" d="M0,-3.0v7 M-2.5,-0.5L0,-3.0L2.5,-0.5"/>
  </g>
  <g id="arrowRight" transform="rotate(90) translate(36 -43)">
    <use xlink:href="#rim"/>
    <path pointer-events="none" fill="none" stroke="white" stroke-width="1.5" d="M0,-3.0v7 M-2.5,-0.5L0,-3.0L2.5,-0.5"/>
  </g>
  <g id="arrowDown" transform="rotate(180) translate(-30 -48)">
    <use xlink:href="#rim"/>
    <path pointer-events="none" fill="none" stroke="white" stroke-width="1.5" d="M0,-3.0v7 M-2.5,-0.5L0,-3.0L2.5,-0.5"/>
  </g>
  <g id="arrowLeft" transform="rotate(270) translate(-36 17)">
    <use xlink:href="#rim"/>
    <path pointer-events="none" fill="none" stroke="white" stroke-width="1.5" d="M0,-3.0v7 M-2.5,-0.5L0,-3.0L2.5,-0.5"/>
  </g>
  <g id="resetDef">
    <use xlink:href="#rim2" fill="#404040"><set attributeName="fill" to="#808080" begin="reset.mouseover" end="reset.mouseout"/></use>
  </g>
</defs>
<script type="application/ecmascript">
var viewWidth = 1523;
var viewHeight = 412;
var sectionId = 'dynsection-1';
</script>
<script type="application/ecmascript" xlink:href="svg.min.js"/>
<svg id="graph" class="graph">
<g id="viewport">
<title>container_concepts.hpp</title>
<!-- Node1 -->
<g id="Node000001" class="node">
<title>Node1</title>
<g id="a_Node000001"><a xlink:title=" ">
<polygon fill="#999999" stroke="#666666" points="617,-404 485,-404 485,-385 617,-385 617,-404"/>
<text text-anchor="middle" x="551" y="-392" font-family="Helvetica,sans-Serif" font-size="10.00">container_concepts.hpp</text>
</a>
</g>
</g>
<!-- Node2 -->
<g id="Node000002" class="node">
<title>Node2</title>
<g id="a_Node000002"><a xlink:href="Comparison_8hpp.html" target="_top" xlink:title=" ">
<polygon fill="white" stroke="#666666" points="96,-349 0,-349 0,-330 96,-330 96,-349"/>
<text text-anchor="middle" x="48" y="-337" font-family="Helvetica,sans-Serif" font-size="10.00">Comparison.hpp</text>
</a>
</g>
</g>
<!-- Node1&#45;&gt;Node2 -->
<g id="edge1_Node000001_Node000002" class="edge">
<title>Node1&#45;&gt;Node2</title>
<g id="a_edge1_Node000001_Node000002"><a xlink:title=" ">
<path fill="none" stroke="#63b8ff" d="M474.77,-387.03C385.88,-379.22 234.56,-365.11 105,-349 102.12,-348.64 99.16,-348.26 96.18,-347.85"/>
<polygon fill="#63b8ff" stroke="#63b8ff" points="474.5,-390.52 484.77,-387.9 475.11,-383.55 474.5,-390.52"/>
</a>
</g>
</g>
<!-- Node3 -->
<g id="Node000003" class="node">
<title>Node3</title>
<g id="a_Node000003"><a xlink:href="MarchingContainer_8hpp.html" target="_top" xlink:title=" ">
<polygon fill="white" stroke="#666666" points="243.5,-349 114.5,-349 114.5,-330 243.5,-330 243.5,-349"/>
<text text-anchor="middle" x="179" y="-337" font-family="Helvetica,sans-Serif" font-size="10.00">MarchingContainer.hpp</text>
</a>
</g>
</g>
<!-- Node1&#45;&gt;Node3 -->
<g id="edge2_Node000001_Node000003" class="edge">
<title>Node1&#45;&gt;Node3</title>
<g id="a_edge2_Node000001_Node000003"><a xlink:title=" ">
<path fill="none" stroke="#63b8ff" d="M481.2,-383.56C411.36,-373.61 305.06,-358.46 238.93,-349.04"/>
<polygon fill="#63b8ff" stroke="#63b8ff" points="480.84,-387.04 491.23,-384.98 481.83,-380.11 480.84,-387.04"/>
</a>
</g>
</g>
<!-- Node4 -->
<g id="Node000004" class="node">
<title>Node4</title>
<g id="a_Node000004"><a xlink:href="OutputStream_8hpp.html" target="_top" xlink:title=" ">
<polygon fill="white" stroke="#666666" points="368,-349 262,-349 262,-330 368,-330 368,-349"/>
<text text-anchor="middle" x="315" y="-337" font-family="Helvetica,sans-Serif" font-size="10.00">OutputStream.hpp</text>
</a>
</g>
</g>
<!-- Node1&#45;&gt;Node4 -->
<g id="edge3_Node000001_Node000004" class="edge">
<title>Node1&#45;&gt;Node4</title>
<g id="a_edge3_Node000001_Node000004"><a xlink:title=" ">
<path fill="none" stroke="#63b8ff" d="M503.15,-382.75C458.92,-372.82 394.07,-358.26 353.21,-349.08"/>
<polygon fill="#63b8ff" stroke="#63b8ff" points="502.56,-386.21 513.08,-384.98 504.09,-379.38 502.56,-386.21"/>
</a>
</g>
</g>
<!-- Node11 -->
<g id="Node000011" class="node">
<title>Node11</title>
<g id="a_Node000011"><a xlink:href="container__extension_8hpp.html" target="_top" xlink:title=" ">
<polygon fill="white" stroke="#666666" points="451.5,-129 314.5,-129 314.5,-110 451.5,-110 451.5,-129"/>
<text text-anchor="middle" x="383" y="-117" font-family="Helvetica,sans-Serif" font-size="10.00">container_extension.hpp</text>
</a>
</g>
</g>
<!-- Node1&#45;&gt;Node11 -->
<g id="edge46_Node000001_Node000011" class="edge">
<title>Node1&#45;&gt;Node11</title>
<g id="a_edge46_Node000001_Node000011"><a xlink:title=" ">
<path fill="none" stroke="#63b8ff" d="M535.62,-377.29C504.83,-343.91 435.43,-263.91 399,-184 390.51,-165.38 386.05,-141.55 384.15,-129.04"/>
<polygon fill="#63b8ff" stroke="#63b8ff" points="533.19,-379.82 542.58,-384.74 538.31,-375.04 533.19,-379.82"/>
</a>
</g>
</g>
<!-- Node23 -->
<g id="Node000023" class="node">
<title>Node23</title>
<g id="a_Node000023"><a xlink:href="ParallelFor_8hpp.html" target="_top" xlink:title=" ">
<polygon fill="white" stroke="#666666" points="1190,-74 1102,-74 1102,-55 1190,-55 1190,-74"/>
<text text-anchor="middle" x="1146" y="-62" font-family="Helvetica,sans-Serif" font-size="10.00">ParallelFor.hpp</text>
</a>
</g>
</g>
<!-- Node1&#45;&gt;Node23 -->
<g id="edge24_Node000001_Node000023" class="edge">
<title>Node1&#45;&gt;Node23</title>
<g id="a_edge24_Node000001_Node000023"><a xlink:title=" ">
<path fill="none" stroke="#63b8ff" d="M627.36,-390.6C820.46,-382.26 1313,-354.25 1313,-285.5 1313,-285.5 1313,-285.5 1313,-173.5 1313,-114.8 1239.36,-86.44 1189.88,-74"/>
<polygon fill="#63b8ff" stroke="#63b8ff" points="627.13,-387.11 617.29,-391.03 627.43,-394.1 627.13,-387.11"/>
</a>
</g>
</g>
<!-- Node24 -->
<g id="Node000024" class="node">
<title>Node24</title>
<g id="a_Node000024"><a xlink:href="STLContainerBase_8hpp.html" target="_top" xlink:title=" ">
<polygon fill="white" stroke="#666666" points="676,-294 550,-294 550,-275 676,-275 676,-294"/>
<text text-anchor="middle" x="613" y="-282" font-family="Helvetica,sans-Serif" font-size="10.00">STLContainerBase.hpp</text>
</a>
</g>
</g>
<!-- Node1&#45;&gt;Node24 -->
<g id="edge25_Node000001_Node000024" class="edge">
<title>Node1&#45;&gt;Node24</title>
<g id="a_edge25_Node000001_Node000024"><a xlink:title=" ">
<path fill="none" stroke="#63b8ff" d="M554.51,-374.97C557.55,-361.8 562.77,-344.02 571,-330 579.39,-315.71 593.15,-302.31 602.62,-294.02"/>
<polygon fill="#63b8ff" stroke="#63b8ff" points="551.08,-374.27 552.46,-384.78 557.93,-375.71 551.08,-374.27"/>
</a>
</g>
</g>
<!-- Node33 -->
<g id="Node000033" class="node">
<title>Node33</title>
<g id="a_Node000033"><a xlink:href="UnstructuredView_8hpp.html" target="_top" xlink:title=" ">
<polygon fill="white" stroke="#666666" points="1285,-184 1161,-184 1161,-165 1285,-165 1285,-184"/>
<text text-anchor="middle" x="1223" y="-172" font-family="Helvetica,sans-Serif" font-size="10.00">UnstructuredView.hpp</text>
</a>
</g>
</g>
<!-- Node1&#45;&gt;Node33 -->
<g id="edge45_Node000001_Node000033" class="edge">
<title>Node1&#45;&gt;Node33</title>
<g id="a_edge45_Node000001_Node000033"><a xlink:title=" ">
<path fill="none" stroke="#63b8ff" d="M587.17,-381.77C707.37,-342.77 1091.81,-218.06 1196.47,-184.1"/>
<polygon fill="#63b8ff" stroke="#63b8ff" points="585.78,-378.54 577.34,-384.95 587.94,-385.2 585.78,-378.54"/>
</a>
</g>
</g>
<!-- Node37 -->
<g id="Node000037" class="node">
<title>Node37</title>
<g id="a_Node000037"><a xlink:href="json_8hpp.html" target="_top" xlink:title=" ">
<polygon fill="white" stroke="#666666" points="466,-184 408,-184 408,-165 466,-165 466,-184"/>
<text text-anchor="middle" x="437" y="-172" font-family="Helvetica,sans-Serif" font-size="10.00">json.hpp</text>
</a>
</g>
</g>
<!-- Node1&#45;&gt;Node37 -->
<g id="edge47_Node000001_Node000037" class="edge">
<title>Node1&#45;&gt;Node37</title>
<g id="a_edge47_Node000001_Node000037"><a xlink:title=" ">
<path fill="none" stroke="#63b8ff" d="M541.84,-375.98C518.71,-331.75 458.6,-216.81 441.56,-184.22"/>
<polygon fill="#63b8ff" stroke="#63b8ff" points="538.8,-377.71 546.53,-384.95 545,-374.47 538.8,-377.71"/>
</a>
</g>
</g>
<!-- Node38 -->
<g id="Node000038" class="node">
<title>Node38</title>
<g id="a_Node000038"><a xlink:href="resize_8hpp.html" target="_top" xlink:title=" ">
<polygon fill="white" stroke="#666666" points="646.5,-349 579.5,-349 579.5,-330 646.5,-330 646.5,-349"/>
<text text-anchor="middle" x="613" y="-337" font-family="Helvetica,sans-Serif" font-size="10.00">resize.hpp</text>
</a>
</g>
</g>
<!-- Node1&#45;&gt;Node38 -->
<g id="edge48_Node000001_Node000038" class="edge">
<title>Node1&#45;&gt;Node38</title>
<g id="a_edge48_Node000001_Node000038"><a xlink:title=" ">
<path fill="none" stroke="#63b8ff" d="M568.75,-378.32C579.81,-368.87 593.63,-357.06 602.86,-349.17"/>
<polygon fill="#63b8ff" stroke="#63b8ff" points="566.29,-375.83 560.96,-384.98 570.84,-381.15 566.29,-375.83"/>
</a>
</g>
</g>
<!-- Node39 -->
<g id="Node000039" class="node">
<title>Node39</title>
<g id="a_Node000039"><a xlink:href="state__iterator_8hpp.html" target="_top" xlink:title=" ">
<polygon fill="white" stroke="#666666" points="1444.5,-349 1341.5,-349 1341.5,-330 1444.5,-330 1444.5,-349"/>
<text text-anchor="middle" x="1393" y="-337" font-family="Helvetica,sans-Serif" font-size="10.00">state_iterator.hpp</text>
</a>
</g>
</g>
<!-- Node1&#45;&gt;Node39 -->
<g id="edge50_Node000001_Node000039" class="edge">
<title>Node1&#45;&gt;Node39</title>
<g id="a_edge50_Node000001_Node000039"><a xlink:title=" ">
<path fill="none" stroke="#63b8ff" d="M627.17,-390.92C766.37,-385.81 1071.06,-372.79 1327,-349 1331.6,-348.57 1336.38,-348.07 1341.16,-347.53"/>
<polygon fill="#63b8ff" stroke="#63b8ff" points="626.9,-387.43 617.04,-391.29 627.16,-394.43 626.9,-387.43"/>
</a>
</g>
</g>
<!-- Node40 -->
<g id="Node000040" class="node">
<title>Node40</title>
<g id="a_Node000040"><a xlink:href="zip_8hpp.html" target="_top" xlink:title=" ">
<polygon fill="white" stroke="#666666" points="1515,-349 1463,-349 1463,-330 1515,-330 1515,-349"/>
<text text-anchor="middle" x="1489" y="-337" font-family="Helvetica,sans-Serif" font-size="10.00">zip.hpp</text>
</a>
</g>
</g>
<!-- Node1&#45;&gt;Node40 -->
<g id="edge51_Node000001_Node000040" class="edge">
<title>Node1&#45;&gt;Node40</title>
<g id="a_edge51_Node000001_Node000040"><a xlink:title=" ">
<path fill="none" stroke="#63b8ff" d="M627.36,-391.59C815.08,-386.61 1295.36,-371.96 1454,-349 1456.85,-348.59 1459.8,-348.05 1462.73,-347.44"/>
<polygon fill="#63b8ff" stroke="#63b8ff" points="627.2,-388.1 617.29,-391.86 627.38,-395.09 627.2,-388.1"/>
</a>
</g>
</g>
<!-- Node5 -->
<g id="Node000005" class="node">
<title>Node5</title>
<g id="a_Node000005"><a xlink:href="ArgParse_8hpp.html" target="_top" xlink:title=" ">
<polygon fill="white" stroke="#666666" points="564,-184 484,-184 484,-165 564,-165 564,-184"/>
<text text-anchor="middle" x="524" y="-172" font-family="Helvetica,sans-Serif" font-size="10.00">ArgParse.hpp</text>
</a>
</g>
</g>
<!-- Node4&#45;&gt;Node5 -->
<g id="edge4_Node000004_Node000005" class="edge">
<title>Node4&#45;&gt;Node5</title>
<g id="a_edge4_Node000004_Node000005"><a xlink:title=" ">
<path fill="none" stroke="#63b8ff" d="M336.02,-323.85C348.13,-315.31 363.56,-304.23 377,-294 429.43,-254.1 490.15,-203.8 513.82,-184.03"/>
<polygon fill="#63b8ff" stroke="#63b8ff" points="333.67,-321.22 327.5,-329.84 337.7,-326.95 333.67,-321.22"/>
</a>
</g>
</g>
<!-- Node13 -->
<g id="Node000013" class="node">
<title>Node13</title>
<g id="a_Node000013"><a xlink:href="Color_8hpp.html" target="_top" xlink:title=" ">
<polygon fill="white" stroke="#666666" points="83,-294 21,-294 21,-275 83,-275 83,-294"/>
<text text-anchor="middle" x="52" y="-282" font-family="Helvetica,sans-Serif" font-size="10.00">Color.hpp</text>
</a>
</g>
</g>
<!-- Node4&#45;&gt;Node13 -->
<g id="edge12_Node000004_Node000013" class="edge">
<title>Node4&#45;&gt;Node13</title>
<g id="a_edge12_Node000004_Node000013"><a xlink:title=" ">
<path fill="none" stroke="#63b8ff" d="M262.18,-328.01C217.19,-319.06 150.83,-305.79 93,-294 89.87,-293.36 86.6,-292.69 83.33,-292.02"/>
<polygon fill="#63b8ff" stroke="#63b8ff" points="261.52,-331.45 272.01,-329.97 262.88,-324.59 261.52,-331.45"/>
</a>
</g>
</g>
<!-- Node14 -->
<g id="Node000014" class="node">
<title>Node14</title>
<g id="a_Node000014"><a xlink:href="FileOutputStream_8hpp.html" target="_top" xlink:title=" ">
<polygon fill="white" stroke="#666666" points="367.5,-294 244.5,-294 244.5,-275 367.5,-275 367.5,-294"/>
<text text-anchor="middle" x="306" y="-282" font-family="Helvetica,sans-Serif" font-size="10.00">FileOutputStream.hpp</text>
</a>
</g>
</g>
<!-- Node4&#45;&gt;Node14 -->
<g id="edge13_Node000004_Node000014" class="edge">
<title>Node4&#45;&gt;Node14</title>
<g id="a_edge13_Node000004_Node000014"><a xlink:title=" ">
<path fill="none" stroke="#63b8ff" d="M311.8,-319.66C310.32,-310.93 308.63,-300.99 307.46,-294.09"/>
<polygon fill="#63b8ff" stroke="#63b8ff" points="308.39,-320.48 313.51,-329.75 315.29,-319.3 308.39,-320.48"/>
</a>
</g>
</g>
<!-- Node22 -->
<g id="Node000022" class="node">
<title>Node22</title>
<g id="a_Node000022"><a xlink:href="StreamInterceptor_8hpp.html" target="_top" xlink:title=" ">
<polygon fill="white" stroke="#666666" points="226.5,-294 101.5,-294 101.5,-275 226.5,-275 226.5,-294"/>
<text text-anchor="middle" x="164" y="-282" font-family="Helvetica,sans-Serif" font-size="10.00">StreamInterceptor.hpp</text>
</a>
</g>
</g>
<!-- Node4&#45;&gt;Node22 -->
<g id="edge23_Node000004_Node000022" class="edge">
<title>Node4&#45;&gt;Node22</title>
<g id="a_edge23_Node000004_Node000022"><a xlink:title=" ">
<path fill="none" stroke="#63b8ff" d="M280.95,-326.55C252.91,-316.71 213.82,-302.98 188.7,-294.17"/>
<polygon fill="#63b8ff" stroke="#63b8ff" points="280.14,-329.98 290.74,-329.98 282.46,-323.37 280.14,-329.98"/>
</a>
</g>
</g>
<!-- Node6 -->
<g id="Node000006" class="node">
<title>Node6</title>
<g id="a_Node000006"><a xlink:href="AbsArgument_8hpp.html" target="_top" xlink:title=" ">
<polygon fill="white" stroke="#666666" points="576,-129 472,-129 472,-110 576,-110 576,-129"/>
<text text-anchor="middle" x="524" y="-117" font-family="Helvetica,sans-Serif" font-size="10.00">AbsArgument.hpp</text>
</a>
</g>
</g>
<!-- Node5&#45;&gt;Node6 -->
<g id="edge5_Node000005_Node000006" class="edge">
<title>Node5&#45;&gt;Node6</title>
<g id="a_edge5_Node000005_Node000006"><a xlink:title=" ">
<path fill="none" stroke="#63b8ff" d="M524,-154.66C524,-145.93 524,-135.99 524,-129.09"/>
<polygon fill="#63b8ff" stroke="#63b8ff" points="520.5,-154.75 524,-164.75 527.5,-154.75 520.5,-154.75"/>
</a>
</g>
</g>
<!-- Node5&#45;&gt;Node11 -->
<g id="edge10_Node000005_Node000011" class="edge">
<title>Node5&#45;&gt;Node11</title>
<g id="a_edge10_Node000005_Node000011"><a xlink:title=" ">
<path fill="none" stroke="#63b8ff" d="M491.86,-161.42C465.71,-151.59 429.41,-137.95 406.07,-129.17"/>
<polygon fill="#63b8ff" stroke="#63b8ff" points="490.75,-164.74 501.35,-164.98 493.22,-158.19 490.75,-164.74"/>
</a>
</g>
</g>
<!-- Node12 -->
<g id="Node000012" class="node">
<title>Node12</title>
<g id="a_Node000012"><a xlink:href="file__system__extension_8hpp.html" target="_top" xlink:title=" ">
<polygon fill="white" stroke="#666666" points="741.5,-129 594.5,-129 594.5,-110 741.5,-110 741.5,-129"/>
<text text-anchor="middle" x="668" y="-117" font-family="Helvetica,sans-Serif" font-size="10.00">file_system_extension.hpp</text>
</a>
</g>
</g>
<!-- Node5&#45;&gt;Node12 -->
<g id="edge11_Node000005_Node000012" class="edge">
<title>Node5&#45;&gt;Node12</title>
<g id="a_edge11_Node000005_Node000012"><a xlink:title=" ">
<path fill="none" stroke="#63b8ff" d="M556.82,-161.42C583.53,-151.59 620.6,-137.95 644.44,-129.17"/>
<polygon fill="#63b8ff" stroke="#63b8ff" points="555.31,-158.25 547.14,-164.98 557.73,-164.82 555.31,-158.25"/>
</a>
</g>
</g>
<!-- Node7 -->
<g id="Node000007" class="node">
<title>Node7</title>
<g id="a_Node000007"><a xlink:href="AggregateArgument_8hpp.html" target="_top" xlink:title=" ">
<polygon fill="white" stroke="#666666" points="601,-74 465,-74 465,-55 601,-55 601,-74"/>
<text text-anchor="middle" x="533" y="-62" font-family="Helvetica,sans-Serif" font-size="10.00">AggregateArgument.hpp</text>
</a>
</g>
</g>
<!-- Node6&#45;&gt;Node7 -->
<g id="edge6_Node000006_Node000007" class="edge">
<title>Node6&#45;&gt;Node7</title>
<g id="a_edge6_Node000006_Node000007"><a xlink:title=" ">
<path fill="none" stroke="#63b8ff" d="M527.2,-99.66C528.68,-90.93 530.37,-80.99 531.54,-74.09"/>
<polygon fill="#63b8ff" stroke="#63b8ff" points="523.71,-99.3 525.49,-109.75 530.61,-100.48 523.71,-99.3"/>
</a>
</g>
</g>
<!-- Node8 -->
<g id="Node000008" class="node">
<title>Node8</title>
<g id="a_Node000008"><a xlink:href="FlagArgument_8hpp.html" target="_top" xlink:title=" ">
<polygon fill="white" stroke="#666666" points="726.5,-74 619.5,-74 619.5,-55 726.5,-55 726.5,-74"/>
<text text-anchor="middle" x="673" y="-62" font-family="Helvetica,sans-Serif" font-size="10.00">FlagArgument.hpp</text>
</a>
</g>
</g>
<!-- Node6&#45;&gt;Node8 -->
<g id="edge7_Node000006_Node000008" class="edge">
<title>Node6&#45;&gt;Node8</title>
<g id="a_edge7_Node000006_Node000008"><a xlink:title=" ">
<path fill="none" stroke="#63b8ff" d="M557.59,-106.55C585.26,-96.71 623.84,-82.98 648.62,-74.17"/>
<polygon fill="#63b8ff" stroke="#63b8ff" points="556.19,-103.34 547.94,-109.98 558.53,-109.93 556.19,-103.34"/>
</a>
</g>
</g>
<!-- Node9 -->
<g id="Node000009" class="node">
<title>Node9</title>
<g id="a_Node000009"><a xlink:href="KeywordArgument_8hpp.html" target="_top" xlink:title=" ">
<polygon fill="white" stroke="#666666" points="295,-74 167,-74 167,-55 295,-55 295,-74"/>
<text text-anchor="middle" x="231" y="-62" font-family="Helvetica,sans-Serif" font-size="10.00">KeywordArgument.hpp</text>
</a>
</g>
</g>
<!-- Node6&#45;&gt;Node9 -->
<g id="edge8_Node000006_Node000009" class="edge">
<title>Node6&#45;&gt;Node9</title>
<g id="a_edge8_Node000006_Node000009"><a xlink:title=" ">
<path fill="none" stroke="#63b8ff" d="M467,-108.19C412.06,-98.25 329.91,-83.39 278.44,-74.08"/>
<polygon fill="#63b8ff" stroke="#63b8ff" points="466.46,-111.65 476.92,-109.98 467.71,-104.76 466.46,-111.65"/>
</a>
</g>
</g>
<!-- Node10 -->
<g id="Node000010" class="node">
<title>Node10</title>
<g id="a_Node000010"><a xlink:href="PositionalArgument_8hpp.html" target="_top" xlink:title=" ">
<polygon fill="white" stroke="#666666" points="447,-74 313,-74 313,-55 447,-55 447,-74"/>
<text text-anchor="middle" x="380" y="-62" font-family="Helvetica,sans-Serif" font-size="10.00">PositionalArgument.hpp</text>
</a>
</g>
</g>
<!-- Node6&#45;&gt;Node10 -->
<g id="edge9_Node000006_Node000010" class="edge">
<title>Node6&#45;&gt;Node10</title>
<g id="a_edge9_Node000006_Node000010"><a xlink:title=" ">
<path fill="none" stroke="#63b8ff" d="M491.18,-106.42C464.47,-96.59 427.4,-82.95 403.56,-74.17"/>
<polygon fill="#63b8ff" stroke="#63b8ff" points="490.27,-109.82 500.86,-109.98 492.69,-103.25 490.27,-109.82"/>
</a>
</g>
</g>
<!-- Node15 -->
<g id="Node000015" class="node">
<title>Node15</title>
<g id="a_Node000015"><a xlink:href="Logger_8hpp.html" target="_top" xlink:title=" ">
<polygon fill="white" stroke="#666666" points="201,-239 131,-239 131,-220 201,-220 201,-239"/>
<text text-anchor="middle" x="166" y="-227" font-family="Helvetica,sans-Serif" font-size="10.00">Logger.hpp</text>
</a>
</g>
</g>
<!-- Node14&#45;&gt;Node15 -->
<g id="edge14_Node000014_Node000015" class="edge">
<title>Node14&#45;&gt;Node15</title>
<g id="a_edge14_Node000014_Node000015"><a xlink:title=" ">
<path fill="none" stroke="#63b8ff" d="M274.09,-271.42C248.12,-261.59 212.08,-247.95 188.9,-239.17"/>
<polygon fill="#63b8ff" stroke="#63b8ff" points="272.92,-274.72 283.51,-274.98 275.39,-268.17 272.92,-274.72"/>
</a>
</g>
</g>
<!-- Node16 -->
<g id="Node000016" class="node">
<title>Node16</title>
<g id="a_Node000016"><a xlink:href="LogBlock_8hpp.html" target="_top" xlink:title=" ">
<polygon fill="white" stroke="#666666" points="148,-184 66,-184 66,-165 148,-165 148,-184"/>
<text text-anchor="middle" x="107" y="-172" font-family="Helvetica,sans-Serif" font-size="10.00">LogBlock.hpp</text>
</a>
</g>
</g>
<!-- Node15&#45;&gt;Node16 -->
<g id="edge15_Node000015_Node000016" class="edge">
<title>Node15&#45;&gt;Node16</title>
<g id="a_edge15_Node000015_Node000016"><a xlink:title=" ">
<path fill="none" stroke="#63b8ff" d="M148.8,-213.04C138.33,-203.64 125.35,-191.98 116.65,-184.17"/>
<polygon fill="#63b8ff" stroke="#63b8ff" points="146.74,-215.91 156.52,-219.98 151.42,-210.7 146.74,-215.91"/>
</a>
</g>
</g>
<!-- Node17 -->
<g id="Node000017" class="node">
<title>Node17</title>
<g id="a_Node000017"><a xlink:href="Loggee_8hpp.html" target="_top" xlink:title=" ">
<polygon fill="white" stroke="#666666" points="74.5,-129 1.5,-129 1.5,-110 74.5,-110 74.5,-129"/>
<text text-anchor="middle" x="38" y="-117" font-family="Helvetica,sans-Serif" font-size="10.00">Loggee.hpp</text>
</a>
</g>
</g>
<!-- Node15&#45;&gt;Node17 -->
<g id="edge19_Node000015_Node000017" class="edge">
<title>Node15&#45;&gt;Node17</title>
<g id="a_edge19_Node000015_Node000017"><a xlink:title=" ">
<path fill="none" stroke="#63b8ff" d="M121.12,-219.77C99.05,-213.33 73.68,-202.38 57,-184 42.77,-168.32 39.18,-142.38 38.29,-129.02"/>
<polygon fill="#63b8ff" stroke="#63b8ff" points="120.42,-223.21 130.99,-222.42 122.24,-216.45 120.42,-223.21"/>
</a>
</g>
</g>
<!-- Node20 -->
<g id="Node000020" class="node">
<title>Node20</title>
<g id="a_Node000020"><a xlink:href="LoggerSingleton_8hpp.html" target="_top" xlink:title=" ">
<polygon fill="white" stroke="#666666" points="282,-184 166,-184 166,-165 282,-165 282,-184"/>
<text text-anchor="middle" x="224" y="-172" font-family="Helvetica,sans-Serif" font-size="10.00">LoggerSingleton.hpp</text>
</a>
</g>
</g>
<!-- Node15&#45;&gt;Node20 -->
<g id="edge20_Node000015_Node000020" class="edge">
<title>Node15&#45;&gt;Node20</title>
<g id="a_edge20_Node000015_Node000020"><a xlink:title=" ">
<path fill="none" stroke="#63b8ff" d="M182.91,-213.04C193.2,-203.64 205.97,-191.98 214.51,-184.17"/>
<polygon fill="#63b8ff" stroke="#63b8ff" points="180.34,-210.66 175.32,-219.98 185.06,-215.82 180.34,-210.66"/>
</a>
</g>
</g>
<!-- Node16&#45;&gt;Node17 -->
<g id="edge16_Node000016_Node000017" class="edge">
<title>Node16&#45;&gt;Node17</title>
<g id="a_edge16_Node000016_Node000017"><a xlink:title=" ">
<path fill="none" stroke="#63b8ff" d="M87.96,-158.88C75.54,-149.34 59.76,-137.21 49.29,-129.17"/>
<polygon fill="#63b8ff" stroke="#63b8ff" points="85.85,-161.67 95.91,-164.98 90.12,-156.12 85.85,-161.67"/>
</a>
</g>
</g>
<!-- Node18 -->
<g id="Node000018" class="node">
<title>Node18</title>
<g id="a_Node000018"><a xlink:href="testing_8hpp.html" target="_top" xlink:title=" ">
<polygon fill="white" stroke="#666666" points="163.5,-129 92.5,-129 92.5,-110 163.5,-110 163.5,-129"/>
<text text-anchor="middle" x="128" y="-117" font-family="Helvetica,sans-Serif" font-size="10.00">testing.hpp</text>
</a>
</g>
</g>
<!-- Node16&#45;&gt;Node18 -->
<g id="edge17_Node000016_Node000018" class="edge">
<title>Node16&#45;&gt;Node18</title>
<g id="a_edge17_Node000016_Node000018"><a xlink:title=" ">
<path fill="none" stroke="#63b8ff" d="M114.24,-155.24C117.75,-146.37 121.8,-136.14 124.6,-129.09"/>
<polygon fill="#63b8ff" stroke="#63b8ff" points="110.9,-154.16 110.47,-164.75 117.41,-156.74 110.9,-154.16"/>
</a>
</g>
</g>
<!-- Node19 -->
<g id="Node000019" class="node">
<title>Node19</title>
<g id="a_Node000019"><a xlink:href="essentials_8hpp.html" target="_top" xlink:title=" ">
<polygon fill="white" stroke="#666666" points="148.5,-74 61.5,-74 61.5,-55 148.5,-55 148.5,-74"/>
<text text-anchor="middle" x="105" y="-62" font-family="Helvetica,sans-Serif" font-size="10.00">essentials.hpp</text>
</a>
</g>
</g>
<!-- Node18&#45;&gt;Node19 -->
<g id="edge18_Node000018_Node000019" class="edge">
<title>Node18&#45;&gt;Node19</title>
<g id="a_edge18_Node000018_Node000019"><a xlink:title=" ">
<path fill="none" stroke="#63b8ff" d="M120.2,-100.53C116.32,-91.6 111.82,-81.22 108.73,-74.09"/>
<polygon fill="#63b8ff" stroke="#63b8ff" points="117.01,-101.97 124.2,-109.75 123.43,-99.18 117.01,-101.97"/>
</a>
</g>
</g>
<!-- Node20&#45;&gt;Node18 -->
<g id="edge21_Node000020_Node000018" class="edge">
<title>Node20&#45;&gt;Node18</title>
<g id="a_edge21_Node000020_Node000018"><a xlink:title=" ">
<path fill="none" stroke="#63b8ff" d="M199.48,-159.97C181.94,-150.28 158.83,-137.52 143.7,-129.17"/>
<polygon fill="#63b8ff" stroke="#63b8ff" points="198.13,-163.22 208.58,-164.98 201.51,-157.09 198.13,-163.22"/>
</a>
</g>
</g>
<!-- Node21 -->
<g id="Node000021" class="node">
<title>Node21</title>
<g id="a_Node000021"><a xlink:href="warning_8hpp.html" target="_top" xlink:title=" ">
<polygon fill="white" stroke="#666666" points="262.5,-129 185.5,-129 185.5,-110 262.5,-110 262.5,-129"/>
<text text-anchor="middle" x="224" y="-117" font-family="Helvetica,sans-Serif" font-size="10.00">warning.hpp</text>
</a>
</g>
</g>
<!-- Node20&#45;&gt;Node21 -->
<g id="edge22_Node000020_Node000021" class="edge">
<title>Node20&#45;&gt;Node21</title>
<g id="a_edge22_Node000020_Node000021"><a xlink:title=" ">
<path fill="none" stroke="#63b8ff" d="M224,-154.66C224,-145.93 224,-135.99 224,-129.09"/>
<polygon fill="#63b8ff" stroke="#63b8ff" points="220.5,-154.75 224,-164.75 227.5,-154.75 220.5,-154.75"/>
</a>
</g>
</g>
<!-- Node25 -->
<g id="Node000025" class="node">
<title>Node25</title>
<g id="a_Node000025"><a xlink:href="DynamicArray_8hpp.html" target="_top" xlink:title=" ">
<polygon fill="white" stroke="#666666" points="939,-239 833,-239 833,-220 939,-220 939,-239"/>
<text text-anchor="middle" x="886" y="-227" font-family="Helvetica,sans-Serif" font-size="10.00">DynamicArray.hpp</text>
</a>
</g>
</g>
<!-- Node24&#45;&gt;Node25 -->
<g id="edge26_Node000024_Node000025" class="edge">
<title>Node24&#45;&gt;Node25</title>
<g id="a_edge26_Node000024_Node000025"><a xlink:title=" ">
<path fill="none" stroke="#63b8ff" d="M666.75,-273.07C717.93,-263.13 794.04,-248.35 841.79,-239.08"/>
<polygon fill="#63b8ff" stroke="#63b8ff" points="666.01,-269.64 656.86,-274.98 667.35,-276.51 666.01,-269.64"/>
</a>
</g>
</g>
<!-- Node35 -->
<g id="Node000035" class="node">
<title>Node35</title>
<g id="a_Node000035"><a xlink:href="StaticArray_8hpp.html" target="_top" xlink:title=" ">
<polygon fill="white" stroke="#666666" points="658,-239 568,-239 568,-220 658,-220 658,-239"/>
<text text-anchor="middle" x="613" y="-227" font-family="Helvetica,sans-Serif" font-size="10.00">StaticArray.hpp</text>
</a>
</g>
</g>
<!-- Node24&#45;&gt;Node35 -->
<g id="edge41_Node000024_Node000035" class="edge">
<title>Node24&#45;&gt;Node35</title>
<g id="a_edge41_Node000024_Node000035"><a xlink:title=" ">
<path fill="none" stroke="#63b8ff" d="M613,-264.66C613,-255.93 613,-245.99 613,-239.09"/>
<polygon fill="#63b8ff" stroke="#63b8ff" points="609.5,-264.75 613,-274.75 616.5,-264.75 609.5,-264.75"/>
</a>
</g>
</g>
<!-- Node25&#45;&gt;Node5 -->
<g id="edge27_Node000025_Node000005" class="edge">
<title>Node25&#45;&gt;Node5</title>
<g id="a_edge27_Node000025_Node000005"><a xlink:title=" ">
<path fill="none" stroke="#63b8ff" d="M822.75,-219.98C759.67,-211.37 660.03,-197.45 574,-184 570.78,-183.5 567.45,-182.96 564.1,-182.41"/>
<polygon fill="#63b8ff" stroke="#63b8ff" points="822.56,-223.49 832.94,-221.37 823.5,-216.55 822.56,-223.49"/>
</a>
</g>
</g>
<!-- Node25&#45;&gt;Node23 -->
<g id="edge29_Node000025_Node000023" class="edge">
<title>Node25&#45;&gt;Node23</title>
<g id="a_edge29_Node000025_Node000023"><a xlink:title=" ">
<path fill="none" stroke="#63b8ff" d="M949.24,-223.59C1008.22,-217.73 1090.53,-205.86 1114,-184 1145.97,-154.23 1147.26,-96.15 1146.5,-74.19"/>
<polygon fill="#63b8ff" stroke="#63b8ff" points="948.87,-220.11 939.25,-224.55 949.54,-227.08 948.87,-220.11"/>
</a>
</g>
</g>
<!-- Node26 -->
<g id="Node000026" class="node">
<title>Node26</title>
<g id="a_Node000026"><a xlink:href="ContiguousTree_8hpp.html" target="_top" xlink:title=" ">
<polygon fill="white" stroke="#666666" points="1083.5,-74 970.5,-74 970.5,-55 1083.5,-55 1083.5,-74"/>
<text text-anchor="middle" x="1027" y="-62" font-family="Helvetica,sans-Serif" font-size="10.00">ContiguousTree.hpp</text>
</a>
</g>
</g>
<!-- Node25&#45;&gt;Node26 -->
<g id="edge28_Node000025_Node000026" class="edge">
<title>Node25&#45;&gt;Node26</title>
<g id="a_edge28_Node000025_Node000026"><a xlink:title=" ">
<path fill="none" stroke="#63b8ff" d="M915.33,-215.35C930.01,-207.72 947.3,-197.04 960,-184 993.47,-149.62 1015.99,-95.25 1023.88,-74.21"/>
<polygon fill="#63b8ff" stroke="#63b8ff" points="913.54,-212.33 906.14,-219.91 916.65,-218.6 913.54,-212.33"/>
</a>
</g>
</g>
<!-- Node27 -->
<g id="Node000027" class="node">
<title>Node27</title>
<g id="a_Node000027"><a xlink:href="ThreadLocal_8hpp.html" target="_top" xlink:title=" ">
<polygon fill="white" stroke="#666666" points="1104.5,-184 1007.5,-184 1007.5,-165 1104.5,-165 1104.5,-184"/>
<text text-anchor="middle" x="1056" y="-172" font-family="Helvetica,sans-Serif" font-size="10.00">ThreadLocal.hpp</text>
</a>
</g>
</g>
<!-- Node25&#45;&gt;Node27 -->
<g id="edge30_Node000025_Node000027" class="edge">
<title>Node25&#45;&gt;Node27</title>
<g id="a_edge30_Node000025_Node000027"><a xlink:title=" ">
<path fill="none" stroke="#63b8ff" d="M923.12,-216.93C954.87,-207.03 999.85,-193.01 1028.47,-184.08"/>
<polygon fill="#63b8ff" stroke="#63b8ff" points="921.82,-213.67 913.31,-219.98 923.9,-220.35 921.82,-213.67"/>
</a>
</g>
</g>
<!-- Node28 -->
<g id="Node000028" class="node">
<title>Node28</title>
<g id="a_Node000028"><a xlink:href="ThreadPoolStorage_8hpp.html" target="_top" xlink:title=" ">
<polygon fill="white" stroke="#666666" points="951,-184 821,-184 821,-165 951,-165 951,-184"/>
<text text-anchor="middle" x="886" y="-172" font-family="Helvetica,sans-Serif" font-size="10.00">ThreadPoolStorage.hpp</text>
</a>
</g>
</g>
<!-- Node25&#45;&gt;Node28 -->
<g id="edge31_Node000025_Node000028" class="edge">
<title>Node25&#45;&gt;Node28</title>
<g id="a_edge31_Node000025_Node000028"><a xlink:title=" ">
<path fill="none" stroke="#63b8ff" d="M886,-209.66C886,-200.93 886,-190.99 886,-184.09"/>
<polygon fill="#63b8ff" stroke="#63b8ff" points="882.5,-209.75 886,-219.75 889.5,-209.75 882.5,-209.75"/>
</a>
</g>
</g>
<!-- Node32 -->
<g id="Node000032" class="node">
<title>Node32</title>
<g id="a_Node000032"><a xlink:href="abstree_8hpp.html" target="_top" xlink:title=" ">
<polygon fill="white" stroke="#666666" points="819,-74 745,-74 745,-55 819,-55 819,-74"/>
<text text-anchor="middle" x="782" y="-62" font-family="Helvetica,sans-Serif" font-size="10.00">abstree.hpp</text>
</a>
</g>
</g>
<!-- Node25&#45;&gt;Node32 -->
<g id="edge39_Node000025_Node000032" class="edge">
<title>Node25&#45;&gt;Node32</title>
<g id="a_edge39_Node000025_Node000032"><a xlink:title=" ">
<path fill="none" stroke="#63b8ff" d="M852.99,-215.59C838.44,-208.35 822.34,-197.92 812,-184 786.32,-149.41 782.5,-95.17 782.02,-74.19"/>
<polygon fill="#63b8ff" stroke="#63b8ff" points="851.7,-218.86 862.25,-219.9 854.66,-212.51 851.7,-218.86"/>
</a>
</g>
</g>
<!-- Node25&#45;&gt;Node33 -->
<g id="edge38_Node000025_Node000033" class="edge">
<title>Node25&#45;&gt;Node33</title>
<g id="a_edge38_Node000025_Node000033"><a xlink:title=" ">
<path fill="none" stroke="#63b8ff" d="M949.28,-218.55C1012.62,-208.59 1109.01,-193.43 1168.89,-184.01"/>
<polygon fill="#63b8ff" stroke="#63b8ff" points="948.36,-215.15 939.03,-220.16 949.45,-222.06 948.36,-215.15"/>
</a>
</g>
</g>
<!-- Node34 -->
<g id="Node000034" class="node">
<title>Node34</title>
<g id="a_Node000034"><a xlink:href="stl__extension_8hpp.html" target="_top" xlink:title=" ">
<polygon fill="white" stroke="#666666" points="764.5,-184 661.5,-184 661.5,-165 764.5,-165 764.5,-184"/>
<text text-anchor="middle" x="713" y="-172" font-family="Helvetica,sans-Serif" font-size="10.00">stl_extension.hpp</text>
</a>
</g>
</g>
<!-- Node25&#45;&gt;Node34 -->
<g id="edge40_Node000025_Node000034" class="edge">
<title>Node25&#45;&gt;Node34</title>
<g id="a_edge40_Node000025_Node000034"><a xlink:title=" ">
<path fill="none" stroke="#63b8ff" d="M848.23,-216.93C815.91,-207.03 770.14,-193.01 741.01,-184.08"/>
<polygon fill="#63b8ff" stroke="#63b8ff" points="847.62,-220.4 858.2,-219.98 849.67,-213.71 847.62,-220.4"/>
</a>
</g>
</g>
<!-- Node29 -->
<g id="Node000029" class="node">
<title>Node29</title>
<g id="a_Node000029"><a xlink:href="ThreadPool_8hpp.html" target="_top" xlink:title=" ">
<polygon fill="white" stroke="#666666" points="941,-129 849,-129 849,-110 941,-110 941,-129"/>
<text text-anchor="middle" x="895" y="-117" font-family="Helvetica,sans-Serif" font-size="10.00">ThreadPool.hpp</text>
</a>
</g>
</g>
<!-- Node28&#45;&gt;Node29 -->
<g id="edge32_Node000028_Node000029" class="edge">
<title>Node28&#45;&gt;Node29</title>
<g id="a_edge32_Node000028_Node000029"><a xlink:title=" ">
<path fill="none" stroke="#63b8ff" d="M889.2,-154.66C890.68,-145.93 892.37,-135.99 893.54,-129.09"/>
<polygon fill="#63b8ff" stroke="#63b8ff" points="885.71,-154.3 887.49,-164.75 892.61,-155.48 885.71,-154.3"/>
</a>
</g>
</g>
<!-- Node29&#45;&gt;Node23 -->
<g id="edge34_Node000029_Node000023" class="edge">
<title>Node29&#45;&gt;Node23</title>
<g id="a_edge34_Node000029_Node000023"><a xlink:title=" ">
<path fill="none" stroke="#63b8ff" d="M945.3,-107.88C992.35,-97.94 1061.72,-83.3 1105.36,-74.08"/>
<polygon fill="#63b8ff" stroke="#63b8ff" points="944.39,-104.49 935.33,-109.98 945.83,-111.34 944.39,-104.49"/>
</a>
</g>
</g>
<!-- Node29&#45;&gt;Node26 -->
<g id="edge33_Node000029_Node000026" class="edge">
<title>Node29&#45;&gt;Node26</title>
<g id="a_edge33_Node000029_Node000026"><a xlink:title=" ">
<path fill="none" stroke="#63b8ff" d="M925.73,-106.16C950.17,-96.35 983.74,-82.87 1005.41,-74.17"/>
<polygon fill="#63b8ff" stroke="#63b8ff" points="924.18,-103.01 916.21,-109.98 926.79,-109.51 924.18,-103.01"/>
</a>
</g>
</g>
<!-- Node30 -->
<g id="Node000030" class="node">
<title>Node30</title>
<g id="a_Node000030"><a xlink:href="ResourceLoader_8hpp.html" target="_top" xlink:title=" ">
<polygon fill="white" stroke="#666666" points="952.5,-74 837.5,-74 837.5,-55 952.5,-55 952.5,-74"/>
<text text-anchor="middle" x="895" y="-62" font-family="Helvetica,sans-Serif" font-size="10.00">ResourceLoader.hpp</text>
</a>
</g>
</g>
<!-- Node29&#45;&gt;Node30 -->
<g id="edge35_Node000029_Node000030" class="edge">
<title>Node29&#45;&gt;Node30</title>
<g id="a_edge35_Node000029_Node000030"><a xlink:title=" ">
<path fill="none" stroke="#63b8ff" d="M895,-99.66C895,-90.93 895,-80.99 895,-74.09"/>
<polygon fill="#63b8ff" stroke="#63b8ff" points="891.5,-99.75 895,-109.75 898.5,-99.75 891.5,-99.75"/>
</a>
</g>
</g>
<!-- Node29&#45;&gt;Node32 -->
<g id="edge37_Node000029_Node000032" class="edge">
<title>Node29&#45;&gt;Node32</title>
<g id="a_edge37_Node000029_Node000032"><a xlink:title=" ">
<path fill="none" stroke="#63b8ff" d="M867.57,-105.63C846.75,-95.87 818.7,-82.71 800.49,-74.17"/>
<polygon fill="#63b8ff" stroke="#63b8ff" points="866.3,-108.91 876.84,-109.98 869.28,-102.57 866.3,-108.91"/>
</a>
</g>
</g>
<!-- Node31 -->
<g id="Node000031" class="node">
<title>Node31</title>
<g id="a_Node000031"><a xlink:href="ResourceQueue_8hpp.html" target="_top" xlink:title=" ">
<polygon fill="white" stroke="#666666" points="952,-19 838,-19 838,0 952,0 952,-19"/>
<text text-anchor="middle" x="895" y="-7" font-family="Helvetica,sans-Serif" font-size="10.00">ResourceQueue.hpp</text>
</a>
</g>
</g>
<!-- Node30&#45;&gt;Node31 -->
<g id="edge36_Node000030_Node000031" class="edge">
<title>Node30&#45;&gt;Node31</title>
<g id="a_edge36_Node000030_Node000031"><a xlink:title=" ">
<path fill="none" stroke="#63b8ff" d="M895,-44.66C895,-35.93 895,-25.99 895,-19.09"/>
<polygon fill="#63b8ff" stroke="#63b8ff" points="891.5,-44.75 895,-54.75 898.5,-44.75 891.5,-44.75"/>
</a>
</g>
</g>
<!-- Node35&#45;&gt;Node34 -->
<g id="edge44_Node000035_Node000034" class="edge">
<title>Node35&#45;&gt;Node34</title>
<g id="a_edge44_Node000035_Node000034"><a xlink:title=" ">
<path fill="none" stroke="#63b8ff" d="M638.03,-215.23C656.37,-205.51 680.74,-192.6 696.64,-184.17"/>
<polygon fill="#63b8ff" stroke="#63b8ff" points="636.26,-212.21 629.07,-219.98 639.54,-218.39 636.26,-212.21"/>
</a>
</g>
</g>
<!-- Node36 -->
<g id="Node000036" class="node">
<title>Node36</title>
<g id="a_Node000036"><a xlink:href="base_8hpp.html" target="_top" xlink:title=" ">
<polygon fill="white" stroke="#666666" points="643.5,-184 582.5,-184 582.5,-165 643.5,-165 643.5,-184"/>
<text text-anchor="middle" x="613" y="-172" font-family="Helvetica,sans-Serif" font-size="10.00">base.hpp</text>
</a>
</g>
</g>
<!-- Node35&#45;&gt;Node36 -->
<g id="edge42_Node000035_Node000036" class="edge">
<title>Node35&#45;&gt;Node36</title>
<g id="a_edge42_Node000035_Node000036"><a xlink:title=" ">
<path fill="none" stroke="#63b8ff" d="M613,-209.66C613,-200.93 613,-190.99 613,-184.09"/>
<polygon fill="#63b8ff" stroke="#63b8ff" points="609.5,-209.75 613,-219.75 616.5,-209.75 609.5,-209.75"/>
</a>
</g>
</g>
<!-- Node35&#45;&gt;Node37 -->
<g id="edge43_Node000035_Node000037" class="edge">
<title>Node35&#45;&gt;Node37</title>
<g id="a_edge43_Node000035_Node000037"><a xlink:title=" ">
<path fill="none" stroke="#63b8ff" d="M575,-217.06C542.1,-207.15 495.26,-193.04 465.5,-184.08"/>
<polygon fill="#63b8ff" stroke="#63b8ff" points="574.14,-220.45 584.72,-219.98 576.16,-213.75 574.14,-220.45"/>
</a>
</g>
</g>
<!-- Node38&#45;&gt;Node24 -->
<g id="edge49_Node000038_Node000024" class="edge">
<title>Node38&#45;&gt;Node24</title>
<g id="a_edge49_Node000038_Node000024"><a xlink:title=" ">
<path fill="none" stroke="#63b8ff" d="M613,-319.66C613,-310.93 613,-300.99 613,-294.09"/>
<polygon fill="#63b8ff" stroke="#63b8ff" points="609.5,-319.75 613,-329.75 616.5,-319.75 609.5,-319.75"/>
</a>
</g>
</g>
</g>
</svg>

<g id="navigator" transform="translate(0 0)" fill="#404254">
  <rect fill="#f2f5e9" fill-opacity="0.5" stroke="#606060" stroke-width=".5" x="0" y="0" width="60" height="60"/>
  <use id="zoomplus" xlink:href="#zoomPlus" x="17" y="9" onmousedown="handleZoom(evt,'in')"/>
  <use id="zoomminus" xlink:href="#zoomMin" x="42" y="9" onmousedown="handleZoom(evt,'out')"/>
  <use id="reset" xlink:href="#resetDef" x="30" y="36" onmousedown="handleReset()"/>
   <use id="arrowup" xlink:href="#arrowUp" x="0" y="0" onmousedown="handlePan(0,-1)"/>
  <use id="arrowright" xlink:href="#arrowRight" x="0" y="0" onmousedown="handlePan(1,0)"/>
  <use id="arrowdown" xlink:href="#arrowDown" x="0" y="0" onmousedown="handlePan(0,1)"/>
  <use id="arrowleft" xlink:href="#arrowLeft" x="0" y="0" onmousedown="handlePan(-1,0)"/>
</g>
<svg viewBox="0 0 15 15" width="100%" height="30px" preserveAspectRatio="xMaxYMin meet">
 <g id="arrow_out" transform="scale(0.3 0.3)">
  <a xlink:href="container__concepts_8hpp__dep__incl_org.svg" target="_base">
   <rect id="button" ry="5" rx="5" y="6" x="6" height="38" width="38"
        fill="#f2f5e9" fill-opacity="0.5" stroke="#606060" stroke-width="1.0"/>
   <path id="arrow"
     d="M 11.500037,31.436501 C 11.940474,20.09759 22.043105,11.32322 32.158766,21.979434 L 37.068811,17.246167 C 37.068811,17.246167 37.088388,32 37.088388,32 L 22.160133,31.978069 C 22.160133,31.978069 26.997745,27.140456 26.997745,27.140456 C 18.528582,18.264221 13.291696,25.230495 11.500037,31.436501 z"
     style="fill:#404040;"/>
  </a>
 </g>
</svg>

<style type='text/css'>
<![CDATA[
[data-mouse-over-selected='false'] { opacity: 0.7; }
[data-mouse-over-selected='true']  { opacity: 1.0; }
]]>
</style>
<script type="application/ecmascript"><![CDATA[
document.addEventListener('DOMContentLoaded', (event) => {
  highlightEdges();
  highlightAdjacentNodes();
});
]]></script>
</svg>
