<?xml version="1.0" encoding="UTF-8" standalone="no"?>
<!DOCTYPE svg PUBLIC "-//W3C//DTD SVG 1.1//EN"
 "http://www.w3.org/Graphics/SVG/1.1/DTD/svg11.dtd">
<!-- Generated by graphviz version 2.43.0 (0)
 -->
<!-- Title: detail.hpp Pages: 1 -->
<svg width="2856pt" height="420pt"
 viewBox="0.00 0.00 2855.50 420.00" xmlns="http://www.w3.org/2000/svg" xmlns:xlink="http://www.w3.org/1999/xlink">
<g id="graph0" class="graph" transform="scale(1 1) rotate(0) translate(4 416)">
<title>detail.hpp</title>
<polygon fill="white" stroke="transparent" points="-4,4 -4,-416 2851.5,-416 2851.5,4 -4,4"/>
<!-- Node1 -->
<g id="node1" class="node">
<title>Node1</title>
<g id="a_node1"><a xlink:title=" ">
<polygon fill="#bfbfbf" stroke="black" points="229.5,-392.5 229.5,-411.5 294.5,-411.5 294.5,-392.5 229.5,-392.5"/>
<text text-anchor="middle" x="262" y="-399.5" font-family="Helvetica,sans-Serif" font-size="10.00">detail.hpp</text>
</a>
</g>
</g>
<!-- Node2 -->
<g id="node2" class="node">
<title>Node2</title>
<g id="a_node2"><a xlink:href="assertions_8hpp.html" target="_top" xlink:title=" ">
<polygon fill="white" stroke="black" points="72,-168.5 72,-187.5 160,-187.5 160,-168.5 72,-168.5"/>
<text text-anchor="middle" x="116" y="-175.5" font-family="Helvetica,sans-Serif" font-size="10.00">assertions.hpp</text>
</a>
</g>
</g>
<!-- Node1&#45;&gt;Node2 -->
<g id="edge1" class="edge">
<title>Node1&#45;&gt;Node2</title>
<path fill="none" stroke="midnightblue" d="M246.31,-384.77C220.77,-357.61 169.97,-300.38 139,-244 128.63,-225.12 121.47,-200.65 118.13,-187.79"/>
<polygon fill="midnightblue" stroke="midnightblue" points="243.94,-387.36 253.37,-392.2 249.01,-382.54 243.94,-387.36"/>
</g>
<!-- Node3 -->
<g id="node3" class="node">
<title>Node3</title>
<g id="a_node3"><a xlink:href="checks_8hpp.html" target="_top" xlink:title=" ">
<polygon fill="white" stroke="black" points="79.5,-112.5 79.5,-131.5 150.5,-131.5 150.5,-112.5 79.5,-112.5"/>
<text text-anchor="middle" x="115" y="-119.5" font-family="Helvetica,sans-Serif" font-size="10.00">checks.hpp</text>
</a>
</g>
</g>
<!-- Node1&#45;&gt;Node3 -->
<g id="edge2" class="edge">
<title>Node1&#45;&gt;Node3</title>
<path fill="none" stroke="midnightblue" d="M219.07,-401.14C146.18,-398.89 6,-382.64 6,-291 6,-291 6,-291 6,-233 6,-182.59 64.47,-147.01 95.76,-131.58"/>
<polygon fill="midnightblue" stroke="midnightblue" points="219.24,-404.65 229.32,-401.38 219.4,-397.65 219.24,-404.65"/>
</g>
<!-- Node45 -->
<g id="node16" class="node">
<title>Node45</title>
<g id="a_node16"><a xlink:href="debug_8hpp.html" target="_top" xlink:title=" ">
<polygon fill="white" stroke="black" points="290,-336.5 290,-355.5 358,-355.5 358,-336.5 290,-336.5"/>
<text text-anchor="middle" x="324" y="-343.5" font-family="Helvetica,sans-Serif" font-size="10.00">debug.hpp</text>
</a>
</g>
</g>
<!-- Node1&#45;&gt;Node45 -->
<g id="edge15" class="edge">
<title>Node1&#45;&gt;Node45</title>
<path fill="none" stroke="midnightblue" d="M279.75,-385.54C290.81,-375.91 304.63,-363.87 313.86,-355.83"/>
<polygon fill="midnightblue" stroke="midnightblue" points="277.2,-383.12 271.96,-392.32 281.8,-388.4 277.2,-383.12"/>
</g>
<!-- Node80 -->
<g id="node36" class="node">
<title>Node80</title>
<g id="a_node36"><a xlink:href="exceptions_8hpp.html" target="_top" xlink:title=" ">
<polygon fill="white" stroke="black" points="216.5,-168.5 216.5,-187.5 307.5,-187.5 307.5,-168.5 216.5,-168.5"/>
<text text-anchor="middle" x="262" y="-175.5" font-family="Helvetica,sans-Serif" font-size="10.00">exceptions.hpp</text>
</a>
</g>
</g>
<!-- Node1&#45;&gt;Node80 -->
<g id="edge80" class="edge">
<title>Node1&#45;&gt;Node80</title>
<path fill="none" stroke="midnightblue" d="M262,-382.3C262,-336.64 262,-220.85 262,-187.88"/>
<polygon fill="midnightblue" stroke="midnightblue" points="258.5,-382.3 262,-392.3 265.5,-382.3 258.5,-382.3"/>
</g>
<!-- Node23 -->
<g id="node50" class="node">
<title>Node23</title>
<g id="a_node50"><a xlink:href="essentials_8hpp.html" target="_top" xlink:title=" ">
<polygon fill="white" stroke="black" points="376.5,-336.5 376.5,-355.5 463.5,-355.5 463.5,-336.5 376.5,-336.5"/>
<text text-anchor="middle" x="420" y="-343.5" font-family="Helvetica,sans-Serif" font-size="10.00">essentials.hpp</text>
</a>
</g>
</g>
<!-- Node1&#45;&gt;Node23 -->
<g id="edge81" class="edge">
<title>Node1&#45;&gt;Node23</title>
<path fill="none" stroke="midnightblue" d="M296.61,-389.17C326.36,-379 368.55,-364.59 395.08,-355.52"/>
<polygon fill="midnightblue" stroke="midnightblue" points="295.37,-385.9 287.04,-392.44 297.63,-392.52 295.37,-385.9"/>
</g>
<!-- Node4 -->
<g id="node4" class="node">
<title>Node4</title>
<g id="a_node4"><a xlink:href="json_8hpp.html" target="_top" xlink:title=" ">
<polygon fill="white" stroke="black" points="201,-56.5 201,-75.5 259,-75.5 259,-56.5 201,-56.5"/>
<text text-anchor="middle" x="230" y="-63.5" font-family="Helvetica,sans-Serif" font-size="10.00">json.hpp</text>
</a>
</g>
</g>
<!-- Node3&#45;&gt;Node4 -->
<g id="edge3" class="edge">
<title>Node3&#45;&gt;Node4</title>
<path fill="none" stroke="midnightblue" d="M142.48,-108.1C163.97,-98.01 193.22,-84.27 211.86,-75.52"/>
<polygon fill="midnightblue" stroke="midnightblue" points="140.79,-105.02 133.22,-112.44 143.76,-111.36 140.79,-105.02"/>
</g>
<!-- Node5 -->
<g id="node5" class="node">
<title>Node5</title>
<g id="a_node5"><a xlink:href="Serializer_8hpp.html" target="_top" xlink:title=" ">
<polygon fill="white" stroke="black" points="2585.5,-56.5 2585.5,-75.5 2668.5,-75.5 2668.5,-56.5 2585.5,-56.5"/>
<text text-anchor="middle" x="2627" y="-63.5" font-family="Helvetica,sans-Serif" font-size="10.00">Serializer.hpp</text>
</a>
</g>
</g>
<!-- Node3&#45;&gt;Node5 -->
<g id="edge4" class="edge">
<title>Node3&#45;&gt;Node5</title>
<path fill="none" stroke="midnightblue" d="M160.99,-112.21C455.8,-84.53 2285.6,-69.59 2585.46,-67.31"/>
<polygon fill="midnightblue" stroke="midnightblue" points="160.37,-108.76 150.77,-113.24 161.07,-115.72 160.37,-108.76"/>
</g>
<!-- Node9 -->
<g id="node7" class="node">
<title>Node9</title>
<g id="a_node7"><a xlink:href="OutputStream_8hpp.html" target="_top" xlink:title=" ">
<polygon fill="white" stroke="black" points="77,-56.5 77,-75.5 183,-75.5 183,-56.5 77,-56.5"/>
<text text-anchor="middle" x="130" y="-63.5" font-family="Helvetica,sans-Serif" font-size="10.00">OutputStream.hpp</text>
</a>
</g>
</g>
<!-- Node3&#45;&gt;Node9 -->
<g id="edge6" class="edge">
<title>Node3&#45;&gt;Node9</title>
<path fill="none" stroke="midnightblue" d="M120.17,-102.4C122.68,-93.36 125.57,-82.94 127.57,-75.75"/>
<polygon fill="midnightblue" stroke="midnightblue" points="116.78,-101.51 117.48,-112.08 123.53,-103.38 116.78,-101.51"/>
</g>
<!-- Node28 -->
<g id="node12" class="node">
<title>Node28</title>
<g id="a_node12"><a xlink:href="getReference_8hpp.html" target="_top" xlink:title=" ">
<polygon fill="white" stroke="black" points="945.5,-56.5 945.5,-75.5 1048.5,-75.5 1048.5,-56.5 945.5,-56.5"/>
<text text-anchor="middle" x="997" y="-63.5" font-family="Helvetica,sans-Serif" font-size="10.00">getReference.hpp</text>
</a>
</g>
</g>
<!-- Node3&#45;&gt;Node28 -->
<g id="edge11" class="edge">
<title>Node3&#45;&gt;Node28</title>
<path fill="none" stroke="midnightblue" d="M160.91,-112.33C251.55,-104.43 776.99,-77.98 945.24,-69.58"/>
<polygon fill="midnightblue" stroke="midnightblue" points="160.38,-108.87 150.79,-113.36 161.09,-115.83 160.38,-108.87"/>
</g>
<!-- Node29 -->
<g id="node13" class="node">
<title>Node29</title>
<g id="a_node13"><a xlink:href="resize_8hpp.html" target="_top" xlink:title=" ">
<polygon fill="white" stroke="black" points="731.5,-56.5 731.5,-75.5 798.5,-75.5 798.5,-56.5 731.5,-56.5"/>
<text text-anchor="middle" x="765" y="-63.5" font-family="Helvetica,sans-Serif" font-size="10.00">resize.hpp</text>
</a>
</g>
</g>
<!-- Node3&#45;&gt;Node29 -->
<g id="edge12" class="edge">
<title>Node3&#45;&gt;Node29</title>
<path fill="none" stroke="midnightblue" d="M160.74,-112.08C384.2,-82.08 640.87,-71.18 731.4,-68.05"/>
<polygon fill="midnightblue" stroke="midnightblue" points="160.23,-108.61 150.79,-113.43 161.17,-115.55 160.23,-108.61"/>
</g>
<!-- Node44 -->
<g id="node15" class="node">
<title>Node44</title>
<g id="a_node15"><a xlink:href="zip_8hpp.html" target="_top" xlink:title=" ">
<polygon fill="white" stroke="black" points="423,-56.5 423,-75.5 475,-75.5 475,-56.5 423,-56.5"/>
<text text-anchor="middle" x="449" y="-63.5" font-family="Helvetica,sans-Serif" font-size="10.00">zip.hpp</text>
</a>
</g>
</g>
<!-- Node3&#45;&gt;Node44 -->
<g id="edge14" class="edge">
<title>Node3&#45;&gt;Node44</title>
<path fill="none" stroke="midnightblue" d="M160.77,-111.93C263.63,-93.8 373.34,-77.75 422.64,-70.72"/>
<polygon fill="midnightblue" stroke="midnightblue" points="160.07,-108.5 150.84,-113.69 161.29,-115.39 160.07,-108.5"/>
</g>
<!-- Node6 -->
<g id="node6" class="node">
<title>Node6</title>
<g id="a_node6"><a xlink:href="MPI_8hpp.html" target="_top" xlink:title=" ">
<polygon fill="white" stroke="red" points="2718,-0.5 2718,-19.5 2774,-19.5 2774,-0.5 2718,-0.5"/>
<text text-anchor="middle" x="2746" y="-7.5" font-family="Helvetica,sans-Serif" font-size="10.00">MPI.hpp</text>
</a>
</g>
</g>
<!-- Node5&#45;&gt;Node6 -->
<g id="edge5" class="edge">
<title>Node5&#45;&gt;Node6</title>
<path fill="none" stroke="midnightblue" d="M2655.14,-52.23C2677.4,-42.13 2707.86,-28.31 2727.23,-19.52"/>
<polygon fill="midnightblue" stroke="midnightblue" points="2653.52,-49.12 2645.86,-56.44 2656.41,-55.5 2653.52,-49.12"/>
</g>
<!-- Node10 -->
<g id="node8" class="node">
<title>Node10</title>
<g id="a_node8"><a xlink:href="ArgParse_8hpp.html" target="_top" xlink:title=" ">
<polygon fill="white" stroke="red" points="466,-0.5 466,-19.5 546,-19.5 546,-0.5 466,-0.5"/>
<text text-anchor="middle" x="506" y="-7.5" font-family="Helvetica,sans-Serif" font-size="10.00">ArgParse.hpp</text>
</a>
</g>
</g>
<!-- Node9&#45;&gt;Node10 -->
<g id="edge7" class="edge">
<title>Node9&#45;&gt;Node10</title>
<path fill="none" stroke="midnightblue" d="M193.18,-55.83C297.56,-40.78 408,-24.99 465.85,-16.73"/>
<polygon fill="midnightblue" stroke="midnightblue" points="192.5,-52.39 183.1,-57.29 193.5,-59.32 192.5,-52.39"/>
</g>
<!-- Node18 -->
<g id="node9" class="node">
<title>Node18</title>
<g id="a_node9"><a xlink:href="FileOutputStream_8hpp.html" target="_top" xlink:title=" ">
<polygon fill="white" stroke="red" points="80.5,-0.5 80.5,-19.5 203.5,-19.5 203.5,-0.5 80.5,-0.5"/>
<text text-anchor="middle" x="142" y="-7.5" font-family="Helvetica,sans-Serif" font-size="10.00">FileOutputStream.hpp</text>
</a>
</g>
</g>
<!-- Node9&#45;&gt;Node18 -->
<g id="edge8" class="edge">
<title>Node9&#45;&gt;Node18</title>
<path fill="none" stroke="midnightblue" d="M134.2,-46.1C136.19,-37.14 138.48,-26.86 140.06,-19.75"/>
<polygon fill="midnightblue" stroke="midnightblue" points="130.73,-45.56 131.98,-56.08 137.57,-47.08 130.73,-45.56"/>
</g>
<!-- Node26 -->
<g id="node10" class="node">
<title>Node26</title>
<g id="a_node10"><a xlink:href="StreamInterceptor_8hpp.html" target="_top" xlink:title=" ">
<polygon fill="white" stroke="black" points="221.5,-0.5 221.5,-19.5 346.5,-19.5 346.5,-0.5 221.5,-0.5"/>
<text text-anchor="middle" x="284" y="-7.5" font-family="Helvetica,sans-Serif" font-size="10.00">StreamInterceptor.hpp</text>
</a>
</g>
</g>
<!-- Node9&#45;&gt;Node26 -->
<g id="edge9" class="edge">
<title>Node9&#45;&gt;Node26</title>
<path fill="none" stroke="midnightblue" d="M164.11,-53.04C193.09,-42.88 233.96,-28.55 259.71,-19.52"/>
<polygon fill="midnightblue" stroke="midnightblue" points="162.68,-49.83 154.4,-56.44 165,-56.44 162.68,-49.83"/>
</g>
<!-- Node27 -->
<g id="node11" class="node">
<title>Node27</title>
<g id="a_node11"><a xlink:href="Color_8hpp.html" target="_top" xlink:title=" ">
<polygon fill="white" stroke="black" points="0,-0.5 0,-19.5 62,-19.5 62,-0.5 0,-0.5"/>
<text text-anchor="middle" x="31" y="-7.5" font-family="Helvetica,sans-Serif" font-size="10.00">Color.hpp</text>
</a>
</g>
</g>
<!-- Node9&#45;&gt;Node27 -->
<g id="edge10" class="edge">
<title>Node9&#45;&gt;Node27</title>
<path fill="none" stroke="midnightblue" d="M105.16,-51.45C86.89,-41.48 62.58,-28.23 46.87,-19.65"/>
<polygon fill="midnightblue" stroke="midnightblue" points="103.64,-54.61 114.09,-56.32 106.99,-48.46 103.64,-54.61"/>
</g>
<!-- Node30 -->
<g id="node14" class="node">
<title>Node30</title>
<g id="a_node14"><a xlink:href="STLContainerBase_8hpp.html" target="_top" xlink:title=" ">
<polygon fill="white" stroke="red" points="702,-0.5 702,-19.5 828,-19.5 828,-0.5 702,-0.5"/>
<text text-anchor="middle" x="765" y="-7.5" font-family="Helvetica,sans-Serif" font-size="10.00">STLContainerBase.hpp</text>
</a>
</g>
</g>
<!-- Node29&#45;&gt;Node30 -->
<g id="edge13" class="edge">
<title>Node29&#45;&gt;Node30</title>
<path fill="none" stroke="midnightblue" d="M765,-45.8C765,-36.91 765,-26.78 765,-19.75"/>
<polygon fill="midnightblue" stroke="midnightblue" points="761.5,-46.08 765,-56.08 768.5,-46.08 761.5,-46.08"/>
</g>
<!-- Node46 -->
<g id="node17" class="node">
<title>Node46</title>
<g id="a_node17"><a xlink:href="types_8hpp.html" target="_top" xlink:title=" ">
<polygon fill="white" stroke="red" points="1311.5,-280.5 1311.5,-299.5 1376.5,-299.5 1376.5,-280.5 1311.5,-280.5"/>
<text text-anchor="middle" x="1344" y="-287.5" font-family="Helvetica,sans-Serif" font-size="10.00">types.hpp</text>
</a>
</g>
</g>
<!-- Node45&#45;&gt;Node46 -->
<g id="edge16" class="edge">
<title>Node45&#45;&gt;Node46</title>
<path fill="none" stroke="midnightblue" d="M367.7,-336.04C367.8,-336.03 367.9,-336.01 368,-336 736.21,-290.14 1187.79,-289.8 1311.41,-290.67"/>
<polygon fill="midnightblue" stroke="midnightblue" points="367.39,-332.54 358.02,-337.5 368.43,-339.47 367.39,-332.54"/>
</g>
<!-- Node46&#45;&gt;Node5 -->
<g id="edge56" class="edge">
<title>Node46&#45;&gt;Node5</title>
<path fill="none" stroke="midnightblue" d="M1386.71,-289.22C1610.84,-290.16 2642.68,-291.89 2689,-244 2737.44,-193.91 2661.57,-103.88 2635.37,-75.68"/>
<polygon fill="midnightblue" stroke="midnightblue" points="1386.67,-285.72 1376.65,-289.17 1386.64,-292.72 1386.67,-285.72"/>
</g>
<!-- Node46&#45;&gt;Node6 -->
<g id="edge39" class="edge">
<title>Node46&#45;&gt;Node6</title>
<path fill="none" stroke="midnightblue" d="M1386.59,-288.76C1611.32,-287.35 2651.08,-278.96 2709,-244 2737.46,-226.82 2746,-212.24 2746,-179 2746,-179 2746,-179 2746,-121 2746,-83.19 2746,-38.06 2746,-19.56"/>
<polygon fill="midnightblue" stroke="midnightblue" points="1386.49,-285.26 1376.51,-288.82 1386.54,-292.26 1386.49,-285.26"/>
</g>
<!-- Node46&#45;&gt;Node27 -->
<g id="edge74" class="edge">
<title>Node46&#45;&gt;Node27</title>
<path fill="none" stroke="midnightblue" d="M1301.09,-288.89C1099.34,-288.19 250.34,-282.91 139,-244 99.39,-230.16 85.19,-223.61 63,-188 27.82,-131.55 29.03,-46.5 30.43,-19.53"/>
<polygon fill="midnightblue" stroke="midnightblue" points="1301.27,-292.39 1311.29,-288.93 1301.3,-285.39 1301.27,-292.39"/>
</g>
<!-- Node46&#45;&gt;Node29 -->
<g id="edge68" class="edge">
<title>Node46&#45;&gt;Node29</title>
<path fill="none" stroke="midnightblue" d="M1301.07,-288.68C1179.31,-287.31 838.36,-280.26 805,-244 798.98,-237.46 804.75,-232.89 805,-224 805.69,-199.1 811.88,-192.42 807,-168 799.79,-131.87 779.39,-92.5 769.93,-75.55"/>
<polygon fill="midnightblue" stroke="midnightblue" points="1301.11,-292.18 1311.15,-288.78 1301.19,-285.18 1301.11,-292.18"/>
</g>
<!-- Node46&#45;&gt;Node30 -->
<g id="edge70" class="edge">
<title>Node46&#45;&gt;Node30</title>
<path fill="none" stroke="midnightblue" d="M1301.32,-287.13C1195.41,-282.17 926.72,-267.4 894,-244 819.26,-190.56 859.57,-132.05 808,-56 798.42,-41.87 784.28,-28.04 774.87,-19.52"/>
<polygon fill="midnightblue" stroke="midnightblue" points="1301.19,-290.63 1311.34,-287.6 1301.52,-283.64 1301.19,-290.63"/>
</g>
<!-- Node47 -->
<g id="node18" class="node">
<title>Node47</title>
<g id="a_node18"><a xlink:href="basic__concepts_8hpp.html" target="_top" xlink:title=" ">
<polygon fill="white" stroke="red" points="923,-224.5 923,-243.5 1035,-243.5 1035,-224.5 923,-224.5"/>
<text text-anchor="middle" x="979" y="-231.5" font-family="Helvetica,sans-Serif" font-size="10.00">basic_concepts.hpp</text>
</a>
</g>
</g>
<!-- Node46&#45;&gt;Node47 -->
<g id="edge17" class="edge">
<title>Node46&#45;&gt;Node47</title>
<path fill="none" stroke="midnightblue" d="M1301.23,-282.67C1235.19,-272.9 1108.38,-254.14 1035.07,-243.3"/>
<polygon fill="midnightblue" stroke="midnightblue" points="1300.88,-286.16 1311.29,-284.16 1301.91,-279.23 1300.88,-286.16"/>
</g>
<!-- Node57 -->
<g id="node19" class="node">
<title>Node57</title>
<g id="a_node19"><a xlink:href="ThreadStorage_8hpp.html" target="_top" xlink:title=" ">
<polygon fill="white" stroke="red" points="688.5,-168.5 688.5,-187.5 797.5,-187.5 797.5,-168.5 688.5,-168.5"/>
<text text-anchor="middle" x="743" y="-175.5" font-family="Helvetica,sans-Serif" font-size="10.00">ThreadStorage.hpp</text>
</a>
</g>
</g>
<!-- Node46&#45;&gt;Node57 -->
<g id="edge45" class="edge">
<title>Node46&#45;&gt;Node57</title>
<path fill="none" stroke="midnightblue" d="M1301.26,-288.29C1174.91,-285.84 809.34,-276.02 767,-244 749.15,-230.5 744.57,-202.31 743.4,-187.89"/>
<polygon fill="midnightblue" stroke="midnightblue" points="1301.27,-291.79 1311.33,-288.48 1301.4,-284.79 1301.27,-291.79"/>
</g>
<!-- Node32 -->
<g id="node20" class="node">
<title>Node32</title>
<g id="a_node20"><a xlink:href="ParallelFor_8hpp.html" target="_top" xlink:title=" ">
<polygon fill="white" stroke="black" points="667,-112.5 667,-131.5 755,-131.5 755,-112.5 667,-112.5"/>
<text text-anchor="middle" x="711" y="-119.5" font-family="Helvetica,sans-Serif" font-size="10.00">ParallelFor.hpp</text>
</a>
</g>
</g>
<!-- Node46&#45;&gt;Node32 -->
<g id="edge40" class="edge">
<title>Node46&#45;&gt;Node32</title>
<path fill="none" stroke="midnightblue" d="M1301.19,-289.1C1182.01,-288.84 848.59,-284.43 748,-244 711.67,-229.4 696.71,-223.41 680,-188 670.5,-167.87 689.2,-144.31 701.47,-131.82"/>
<polygon fill="midnightblue" stroke="midnightblue" points="1301.38,-292.6 1311.38,-289.11 1301.38,-285.6 1301.38,-292.6"/>
</g>
<!-- Node43 -->
<g id="node21" class="node">
<title>Node43</title>
<g id="a_node21"><a xlink:href="base_8hpp.html" target="_top" xlink:title=" ">
<polygon fill="white" stroke="black" points="892.5,-168.5 892.5,-187.5 953.5,-187.5 953.5,-168.5 892.5,-168.5"/>
<text text-anchor="middle" x="923" y="-175.5" font-family="Helvetica,sans-Serif" font-size="10.00">base.hpp</text>
</a>
</g>
</g>
<!-- Node46&#45;&gt;Node43 -->
<g id="edge60" class="edge">
<title>Node46&#45;&gt;Node43</title>
<path fill="none" stroke="midnightblue" d="M1300.9,-287.81C1195.3,-284.44 930.31,-273.13 904,-244 889.5,-227.94 905.66,-201.39 915.9,-187.72"/>
<polygon fill="midnightblue" stroke="midnightblue" points="1301.1,-291.31 1311.2,-288.13 1301.32,-284.32 1301.1,-291.31"/>
</g>
<!-- Node58 -->
<g id="node22" class="node">
<title>Node58</title>
<g id="a_node22"><a xlink:href="bit_8hpp.html" target="_top" xlink:title=" ">
<polygon fill="white" stroke="black" points="972,-168.5 972,-187.5 1022,-187.5 1022,-168.5 972,-168.5"/>
<text text-anchor="middle" x="997" y="-175.5" font-family="Helvetica,sans-Serif" font-size="10.00">bit.hpp</text>
</a>
</g>
</g>
<!-- Node46&#45;&gt;Node58 -->
<g id="edge61" class="edge">
<title>Node46&#45;&gt;Node58</title>
<path fill="none" stroke="midnightblue" d="M1301.14,-287.7C1197.45,-284.13 939.62,-272.44 914,-244 892.32,-219.93 940.3,-198.07 971.97,-186.87"/>
<polygon fill="midnightblue" stroke="midnightblue" points="1301.16,-291.21 1311.27,-288.04 1301.39,-284.21 1301.16,-291.21"/>
</g>
<!-- Node60 -->
<g id="node23" class="node">
<title>Node60</title>
<g id="a_node23"><a xlink:href="Hash_8hpp.html" target="_top" xlink:title=" ">
<polygon fill="white" stroke="red" points="1810,-168.5 1810,-187.5 1872,-187.5 1872,-168.5 1810,-168.5"/>
<text text-anchor="middle" x="1841" y="-175.5" font-family="Helvetica,sans-Serif" font-size="10.00">Hash.hpp</text>
</a>
</g>
</g>
<!-- Node46&#45;&gt;Node60 -->
<g id="edge65" class="edge">
<title>Node46&#45;&gt;Node60</title>
<path fill="none" stroke="midnightblue" d="M1386.7,-288.75C1576.34,-287.45 2334.53,-280.01 2369,-244 2375.15,-237.58 2375.01,-230.55 2369,-224 2335.28,-187.28 1980.15,-180.48 1872.05,-179.26"/>
<polygon fill="midnightblue" stroke="midnightblue" points="1386.54,-285.25 1376.56,-288.82 1386.59,-292.25 1386.54,-285.25"/>
</g>
<!-- Node38 -->
<g id="node24" class="node">
<title>Node38</title>
<g id="a_node24"><a xlink:href="abstree_8hpp.html" target="_top" xlink:title=" ">
<polygon fill="white" stroke="black" points="2168,-168.5 2168,-187.5 2242,-187.5 2242,-168.5 2168,-168.5"/>
<text text-anchor="middle" x="2205" y="-175.5" font-family="Helvetica,sans-Serif" font-size="10.00">abstree.hpp</text>
</a>
</g>
</g>
<!-- Node46&#45;&gt;Node38 -->
<g id="edge72" class="edge">
<title>Node46&#45;&gt;Node38</title>
<path fill="none" stroke="midnightblue" d="M1386.73,-288.78C1578.28,-287.61 2349.94,-280.6 2385,-244 2428.95,-198.11 2306.77,-184.51 2242.16,-180.56"/>
<polygon fill="midnightblue" stroke="midnightblue" points="1386.48,-285.28 1376.5,-288.84 1386.52,-292.28 1386.48,-285.28"/>
</g>
<!-- Node64 -->
<g id="node25" class="node">
<title>Node64</title>
<g id="a_node25"><a xlink:href="HierarchicalInteger_8hpp.html" target="_top" xlink:title=" ">
<polygon fill="white" stroke="black" points="2399,-168.5 2399,-187.5 2529,-187.5 2529,-168.5 2399,-168.5"/>
<text text-anchor="middle" x="2464" y="-175.5" font-family="Helvetica,sans-Serif" font-size="10.00">HierarchicalInteger.hpp</text>
</a>
</g>
</g>
<!-- Node46&#45;&gt;Node64 -->
<g id="edge73" class="edge">
<title>Node46&#45;&gt;Node64</title>
<path fill="none" stroke="midnightblue" d="M1386.88,-289.08C1573.47,-289.17 2309.62,-286.8 2403,-244 2429.45,-231.88 2449.95,-202.5 2458.97,-187.76"/>
<polygon fill="midnightblue" stroke="midnightblue" points="1386.64,-285.58 1376.64,-289.07 1386.64,-292.58 1386.64,-285.58"/>
</g>
<!-- Node66 -->
<g id="node26" class="node">
<title>Node66</title>
<g id="a_node26"><a xlink:href="Match_8hpp.html" target="_top" xlink:title=" ">
<polygon fill="white" stroke="red" points="564,-168.5 564,-187.5 632,-187.5 632,-168.5 564,-168.5"/>
<text text-anchor="middle" x="598" y="-175.5" font-family="Helvetica,sans-Serif" font-size="10.00">Match.hpp</text>
</a>
</g>
</g>
<!-- Node46&#45;&gt;Node66 -->
<g id="edge27" class="edge">
<title>Node46&#45;&gt;Node66</title>
<path fill="none" stroke="midnightblue" d="M1301.05,-288.06C1144.4,-284.41 611.63,-270.14 587,-244 572.56,-228.67 584.56,-201.8 592.45,-187.9"/>
<polygon fill="midnightblue" stroke="midnightblue" points="1301.16,-291.56 1311.24,-288.29 1301.32,-284.56 1301.16,-291.56"/>
</g>
<!-- Node69 -->
<g id="node27" class="node">
<title>Node69</title>
<g id="a_node27"><a xlink:href="Range_8hpp.html" target="_top" xlink:title=" ">
<polygon fill="white" stroke="red" points="402,-168.5 402,-187.5 470,-187.5 470,-168.5 402,-168.5"/>
<text text-anchor="middle" x="436" y="-175.5" font-family="Helvetica,sans-Serif" font-size="10.00">Range.hpp</text>
</a>
</g>
</g>
<!-- Node46&#45;&gt;Node69 -->
<g id="edge29" class="edge">
<title>Node46&#45;&gt;Node69</title>
<path fill="none" stroke="midnightblue" d="M1301.2,-289.17C1135.77,-289.52 543.86,-287.69 473,-244 452.22,-231.19 442.01,-202.14 438.05,-187.61"/>
<polygon fill="midnightblue" stroke="midnightblue" points="1301.48,-292.67 1311.47,-289.15 1301.46,-285.67 1301.48,-292.67"/>
</g>
<!-- Node70 -->
<g id="node28" class="node">
<title>Node70</title>
<g id="a_node28"><a xlink:href="Select_8hpp.html" target="_top" xlink:title=" ">
<polygon fill="white" stroke="red" points="596,-224.5 596,-243.5 664,-243.5 664,-224.5 596,-224.5"/>
<text text-anchor="middle" x="630" y="-231.5" font-family="Helvetica,sans-Serif" font-size="10.00">Select.hpp</text>
</a>
</g>
</g>
<!-- Node46&#45;&gt;Node70 -->
<g id="edge30" class="edge">
<title>Node46&#45;&gt;Node70</title>
<path fill="none" stroke="midnightblue" d="M1300.99,-287.85C1194.83,-284.63 911.96,-273.73 678,-244 673.46,-243.42 668.7,-242.69 664.01,-241.89"/>
<polygon fill="midnightblue" stroke="midnightblue" points="1301.2,-291.36 1311.3,-288.16 1301.4,-284.36 1301.2,-291.36"/>
</g>
<!-- Node71 -->
<g id="node29" class="node">
<title>Node71</title>
<g id="a_node29"><a xlink:href="Size_8hpp.html" target="_top" xlink:title=" ">
<polygon fill="white" stroke="red" points="482,-224.5 482,-243.5 540,-243.5 540,-224.5 482,-224.5"/>
<text text-anchor="middle" x="511" y="-231.5" font-family="Helvetica,sans-Serif" font-size="10.00">Size.hpp</text>
</a>
</g>
</g>
<!-- Node46&#45;&gt;Node71 -->
<g id="edge32" class="edge">
<title>Node46&#45;&gt;Node71</title>
<path fill="none" stroke="midnightblue" d="M1301.34,-288.81C1182.46,-287.78 837.56,-281.54 554,-244 549.46,-243.4 544.69,-242.59 540.04,-241.69"/>
<polygon fill="midnightblue" stroke="midnightblue" points="1301.45,-292.31 1311.48,-288.88 1301.51,-285.31 1301.45,-292.31"/>
</g>
<!-- Node73 -->
<g id="node31" class="node">
<title>Node73</title>
<g id="a_node31"><a xlink:href="integer_8hpp.html" target="_top" xlink:title=" ">
<polygon fill="white" stroke="black" points="2492.5,-224.5 2492.5,-243.5 2563.5,-243.5 2563.5,-224.5 2492.5,-224.5"/>
<text text-anchor="middle" x="2528" y="-231.5" font-family="Helvetica,sans-Serif" font-size="10.00">integer.hpp</text>
</a>
</g>
</g>
<!-- Node46&#45;&gt;Node73 -->
<g id="edge37" class="edge">
<title>Node46&#45;&gt;Node73</title>
<path fill="none" stroke="midnightblue" d="M1386.77,-289.43C1537.01,-290.49 2054.33,-290.31 2478,-244 2482.65,-243.49 2487.51,-242.81 2492.31,-242.04"/>
<polygon fill="midnightblue" stroke="midnightblue" points="1386.62,-285.93 1376.6,-289.35 1386.57,-292.93 1386.62,-285.93"/>
</g>
<!-- Node74 -->
<g id="node32" class="node">
<title>Node74</title>
<g id="a_node32"><a xlink:href="RankID_8hpp.html" target="_top" xlink:title=" ">
<polygon fill="white" stroke="red" points="2774.5,-112.5 2774.5,-131.5 2847.5,-131.5 2847.5,-112.5 2774.5,-112.5"/>
<text text-anchor="middle" x="2811" y="-119.5" font-family="Helvetica,sans-Serif" font-size="10.00">RankID.hpp</text>
</a>
</g>
</g>
<!-- Node46&#45;&gt;Node74 -->
<g id="edge41" class="edge">
<title>Node46&#45;&gt;Node74</title>
<path fill="none" stroke="midnightblue" d="M1386.79,-288.93C1617.21,-288.41 2702.03,-283.81 2760,-244 2798.9,-217.28 2808.24,-154.66 2810.39,-131.67"/>
<polygon fill="midnightblue" stroke="midnightblue" points="1386.77,-285.43 1376.78,-288.95 1386.79,-292.43 1386.77,-285.43"/>
</g>
<!-- Node33 -->
<g id="node33" class="node">
<title>Node33</title>
<g id="a_node33"><a xlink:href="ThreadLocal_8hpp.html" target="_top" xlink:title=" ">
<polygon fill="white" stroke="black" points="1053.5,-224.5 1053.5,-243.5 1150.5,-243.5 1150.5,-224.5 1053.5,-224.5"/>
<text text-anchor="middle" x="1102" y="-231.5" font-family="Helvetica,sans-Serif" font-size="10.00">ThreadLocal.hpp</text>
</a>
</g>
</g>
<!-- Node46&#45;&gt;Node33 -->
<g id="edge43" class="edge">
<title>Node46&#45;&gt;Node33</title>
<path fill="none" stroke="midnightblue" d="M1301.51,-279.52C1255.99,-269.36 1184.41,-253.39 1140.5,-243.59"/>
<polygon fill="midnightblue" stroke="midnightblue" points="1300.84,-282.96 1311.36,-281.72 1302.37,-276.12 1300.84,-282.96"/>
</g>
<!-- Node78 -->
<g id="node34" class="node">
<title>Node78</title>
<g id="a_node34"><a xlink:href="ThreadPoolBase_8hpp.html" target="_top" xlink:title=" ">
<polygon fill="white" stroke="red" points="1169,-224.5 1169,-243.5 1285,-243.5 1285,-224.5 1169,-224.5"/>
<text text-anchor="middle" x="1227" y="-231.5" font-family="Helvetica,sans-Serif" font-size="10.00">ThreadPoolBase.hpp</text>
</a>
</g>
</g>
<!-- Node46&#45;&gt;Node78 -->
<g id="edge44" class="edge">
<title>Node46&#45;&gt;Node78</title>
<path fill="none" stroke="midnightblue" d="M1316.34,-276.23C1294.45,-266.13 1264.5,-252.31 1245.45,-243.52"/>
<polygon fill="midnightblue" stroke="midnightblue" points="1314.91,-279.43 1325.46,-280.44 1317.85,-273.08 1314.91,-279.43"/>
</g>
<!-- Node79 -->
<g id="node35" class="node">
<title>Node79</title>
<g id="a_node35"><a xlink:href="exception_8hpp.html" target="_top" xlink:title=" ">
<polygon fill="white" stroke="black" points="148,-224.5 148,-243.5 234,-243.5 234,-224.5 148,-224.5"/>
<text text-anchor="middle" x="191" y="-231.5" font-family="Helvetica,sans-Serif" font-size="10.00">exception.hpp</text>
</a>
</g>
</g>
<!-- Node46&#45;&gt;Node79 -->
<g id="edge46" class="edge">
<title>Node46&#45;&gt;Node79</title>
<path fill="none" stroke="midnightblue" d="M1301.21,-287.16C1164.23,-281.24 724.14,-262.02 360,-244 317.15,-241.88 268.21,-239.25 234.06,-237.38"/>
<polygon fill="midnightblue" stroke="midnightblue" points="1301.15,-290.66 1311.29,-287.59 1301.45,-283.67 1301.15,-290.66"/>
</g>
<!-- Node82 -->
<g id="node38" class="node">
<title>Node82</title>
<g id="a_node38"><a xlink:href="common_8hpp.html" target="_top" xlink:title=" ">
<polygon fill="white" stroke="red" points="320,-112.5 320,-131.5 400,-131.5 400,-112.5 320,-112.5"/>
<text text-anchor="middle" x="360" y="-119.5" font-family="Helvetica,sans-Serif" font-size="10.00">common.hpp</text>
</a>
</g>
</g>
<!-- Node46&#45;&gt;Node82 -->
<g id="edge79" class="edge">
<title>Node46&#45;&gt;Node82</title>
<path fill="none" stroke="midnightblue" d="M1301.21,-288.62C1133.77,-286.91 528.37,-278.38 450,-244 399.89,-222.02 371.61,-155.28 362.92,-131.52"/>
<polygon fill="midnightblue" stroke="midnightblue" points="1301.33,-292.13 1311.37,-288.73 1301.4,-285.13 1301.33,-292.13"/>
</g>
<!-- Node83 -->
<g id="node39" class="node">
<title>Node83</title>
<g id="a_node39"><a xlink:href="Traits_8hpp.html" target="_top" xlink:title=" ">
<polygon fill="white" stroke="black" points="2560,-168.5 2560,-187.5 2624,-187.5 2624,-168.5 2560,-168.5"/>
<text text-anchor="middle" x="2592" y="-175.5" font-family="Helvetica,sans-Serif" font-size="10.00">Traits.hpp</text>
</a>
</g>
</g>
<!-- Node46&#45;&gt;Node83 -->
<g id="edge57" class="edge">
<title>Node46&#45;&gt;Node83</title>
<path fill="none" stroke="midnightblue" d="M1386.81,-288.83C1598.52,-287.8 2525.26,-281.16 2573,-244 2590.26,-230.57 2592.47,-202.34 2592.39,-187.91"/>
<polygon fill="midnightblue" stroke="midnightblue" points="1386.69,-285.33 1376.71,-288.87 1386.72,-292.33 1386.69,-285.33"/>
</g>
<!-- Node20 -->
<g id="node40" class="node">
<title>Node20</title>
<g id="a_node40"><a xlink:href="LogBlock_8hpp.html" target="_top" xlink:title=" ">
<polygon fill="white" stroke="red" points="1303,-224.5 1303,-243.5 1385,-243.5 1385,-224.5 1303,-224.5"/>
<text text-anchor="middle" x="1344" y="-231.5" font-family="Helvetica,sans-Serif" font-size="10.00">LogBlock.hpp</text>
</a>
</g>
</g>
<!-- Node46&#45;&gt;Node20 -->
<g id="edge59" class="edge">
<title>Node46&#45;&gt;Node20</title>
<path fill="none" stroke="midnightblue" d="M1344,-269.8C1344,-260.91 1344,-250.78 1344,-243.75"/>
<polygon fill="midnightblue" stroke="midnightblue" points="1340.5,-270.08 1344,-280.08 1347.5,-270.08 1340.5,-270.08"/>
</g>
<!-- Node84 -->
<g id="node41" class="node">
<title>Node84</title>
<g id="a_node41"><a xlink:href="NChooseK_8hpp.html" target="_top" xlink:title=" ">
<polygon fill="white" stroke="black" points="1403,-224.5 1403,-243.5 1491,-243.5 1491,-224.5 1403,-224.5"/>
<text text-anchor="middle" x="1447" y="-231.5" font-family="Helvetica,sans-Serif" font-size="10.00">NChooseK.hpp</text>
</a>
</g>
</g>
<!-- Node46&#45;&gt;Node84 -->
<g id="edge62" class="edge">
<title>Node46&#45;&gt;Node84</title>
<path fill="none" stroke="midnightblue" d="M1369.58,-275.59C1388.62,-265.61 1414.06,-252.27 1430.49,-243.65"/>
<polygon fill="midnightblue" stroke="midnightblue" points="1367.78,-272.58 1360.55,-280.32 1371.03,-278.78 1367.78,-272.58"/>
</g>
<!-- Node85 -->
<g id="node42" class="node">
<title>Node85</title>
<g id="a_node42"><a xlink:href="FileManager_8hpp.html" target="_top" xlink:title=" ">
<polygon fill="white" stroke="black" points="1508.5,-224.5 1508.5,-243.5 1605.5,-243.5 1605.5,-224.5 1508.5,-224.5"/>
<text text-anchor="middle" x="1557" y="-231.5" font-family="Helvetica,sans-Serif" font-size="10.00">FileManager.hpp</text>
</a>
</g>
</g>
<!-- Node46&#45;&gt;Node85 -->
<g id="edge63" class="edge">
<title>Node46&#45;&gt;Node85</title>
<path fill="none" stroke="midnightblue" d="M1386.61,-278.2C1426.87,-267.99 1486.46,-252.88 1523.45,-243.51"/>
<polygon fill="midnightblue" stroke="midnightblue" points="1385.65,-274.83 1376.81,-280.68 1387.37,-281.62 1385.65,-274.83"/>
</g>
<!-- Node86 -->
<g id="node43" class="node">
<title>Node86</title>
<g id="a_node43"><a xlink:href="FunctionTraits_8hpp.html" target="_top" xlink:title=" ">
<polygon fill="white" stroke="red" points="1623.5,-224.5 1623.5,-243.5 1728.5,-243.5 1728.5,-224.5 1623.5,-224.5"/>
<text text-anchor="middle" x="1676" y="-231.5" font-family="Helvetica,sans-Serif" font-size="10.00">FunctionTraits.hpp</text>
</a>
</g>
</g>
<!-- Node46&#45;&gt;Node86 -->
<g id="edge64" class="edge">
<title>Node46&#45;&gt;Node86</title>
<path fill="none" stroke="midnightblue" d="M1386.73,-282.05C1447.28,-272.2 1557.97,-254.2 1623.46,-243.55"/>
<polygon fill="midnightblue" stroke="midnightblue" points="1386.05,-278.61 1376.74,-283.67 1387.17,-285.52 1386.05,-278.61"/>
</g>
<!-- Node50 -->
<g id="node44" class="node">
<title>Node50</title>
<g id="a_node44"><a xlink:href="MarchingContainer_8hpp.html" target="_top" xlink:title=" ">
<polygon fill="white" stroke="black" points="1746.5,-224.5 1746.5,-243.5 1875.5,-243.5 1875.5,-224.5 1746.5,-224.5"/>
<text text-anchor="middle" x="1811" y="-231.5" font-family="Helvetica,sans-Serif" font-size="10.00">MarchingContainer.hpp</text>
</a>
</g>
</g>
<!-- Node46&#45;&gt;Node50 -->
<g id="edge66" class="edge">
<title>Node46&#45;&gt;Node50</title>
<path fill="none" stroke="midnightblue" d="M1386.79,-284.24C1459.15,-276.16 1610.28,-259.17 1738,-244 1740.66,-243.68 1743.38,-243.36 1746.12,-243.03"/>
<polygon fill="midnightblue" stroke="midnightblue" points="1386.25,-280.78 1376.7,-285.37 1387.03,-287.73 1386.25,-280.78"/>
</g>
<!-- Node54 -->
<g id="node45" class="node">
<title>Node54</title>
<g id="a_node45"><a xlink:href="NoOpIterator_8hpp.html" target="_top" xlink:title=" ">
<polygon fill="white" stroke="black" points="1894,-224.5 1894,-243.5 1994,-243.5 1994,-224.5 1894,-224.5"/>
<text text-anchor="middle" x="1944" y="-231.5" font-family="Helvetica,sans-Serif" font-size="10.00">NoOpIterator.hpp</text>
</a>
</g>
</g>
<!-- Node46&#45;&gt;Node54 -->
<g id="edge67" class="edge">
<title>Node46&#45;&gt;Node54</title>
<path fill="none" stroke="midnightblue" d="M1386.69,-286.45C1478.22,-280.75 1700.01,-265.78 1885,-244 1887.88,-243.66 1890.84,-243.29 1893.82,-242.89"/>
<polygon fill="midnightblue" stroke="midnightblue" points="1386.47,-282.95 1376.7,-287.06 1386.9,-289.94 1386.47,-282.95"/>
</g>
<!-- Node51 -->
<g id="node46" class="node">
<title>Node51</title>
<g id="a_node46"><a xlink:href="state__iterator_8hpp.html" target="_top" xlink:title=" ">
<polygon fill="white" stroke="black" points="2012.5,-224.5 2012.5,-243.5 2115.5,-243.5 2115.5,-224.5 2012.5,-224.5"/>
<text text-anchor="middle" x="2064" y="-231.5" font-family="Helvetica,sans-Serif" font-size="10.00">state_iterator.hpp</text>
</a>
</g>
</g>
<!-- Node46&#45;&gt;Node51 -->
<g id="edge69" class="edge">
<title>Node46&#45;&gt;Node51</title>
<path fill="none" stroke="midnightblue" d="M1386.86,-287.24C1492.05,-282.66 1771.24,-268.97 2003,-244 2006.09,-243.67 2009.26,-243.29 2012.45,-242.9"/>
<polygon fill="midnightblue" stroke="midnightblue" points="1386.49,-283.75 1376.65,-287.68 1386.79,-290.74 1386.49,-283.75"/>
</g>
<!-- Node88 -->
<g id="node47" class="node">
<title>Node88</title>
<g id="a_node47"><a xlink:href="ConstructorTracker_8hpp.html" target="_top" xlink:title=" ">
<polygon fill="white" stroke="black" points="2134,-224.5 2134,-243.5 2262,-243.5 2262,-224.5 2134,-224.5"/>
<text text-anchor="middle" x="2198" y="-231.5" font-family="Helvetica,sans-Serif" font-size="10.00">ConstructorTracker.hpp</text>
</a>
</g>
</g>
<!-- Node46&#45;&gt;Node88 -->
<g id="edge71" class="edge">
<title>Node46&#45;&gt;Node88</title>
<path fill="none" stroke="midnightblue" d="M1386.86,-287.51C1504.79,-283.2 1844.02,-269.39 2125,-244 2127.93,-243.74 2130.91,-243.45 2133.93,-243.14"/>
<polygon fill="midnightblue" stroke="midnightblue" points="1386.66,-284.02 1376.79,-287.88 1386.91,-291.01 1386.66,-284.02"/>
</g>
<!-- Node89 -->
<g id="node48" class="node">
<title>Node89</title>
<g id="a_node48"><a xlink:href="IDObject_8hpp.html" target="_top" xlink:title=" ">
<polygon fill="white" stroke="red" points="2280,-224.5 2280,-243.5 2360,-243.5 2360,-224.5 2280,-224.5"/>
<text text-anchor="middle" x="2320" y="-231.5" font-family="Helvetica,sans-Serif" font-size="10.00">IDObject.hpp</text>
</a>
</g>
</g>
<!-- Node46&#45;&gt;Node89 -->
<g id="edge75" class="edge">
<title>Node46&#45;&gt;Node89</title>
<path fill="none" stroke="midnightblue" d="M1386.65,-288.95C1518.59,-288.34 1931.66,-283.22 2271,-244 2273.92,-243.66 2276.93,-243.26 2279.95,-242.8"/>
<polygon fill="midnightblue" stroke="midnightblue" points="1386.54,-285.45 1376.56,-288.98 1386.57,-292.45 1386.54,-285.45"/>
</g>
<!-- Node90 -->
<g id="node49" class="node">
<title>Node90</title>
<g id="a_node49"><a xlink:href="tags_8hpp.html" target="_top" xlink:title=" ">
<polygon fill="white" stroke="red" points="2620.5,-224.5 2620.5,-243.5 2679.5,-243.5 2679.5,-224.5 2620.5,-224.5"/>
<text text-anchor="middle" x="2650" y="-231.5" font-family="Helvetica,sans-Serif" font-size="10.00">tags.hpp</text>
</a>
</g>
</g>
<!-- Node46&#45;&gt;Node90 -->
<g id="edge76" class="edge">
<title>Node46&#45;&gt;Node90</title>
<path fill="none" stroke="midnightblue" d="M1386.76,-288.43C1578.72,-285.72 2362.17,-273.08 2606,-244 2610.65,-243.45 2615.53,-242.66 2620.29,-241.77"/>
<polygon fill="midnightblue" stroke="midnightblue" points="1386.46,-284.93 1376.51,-288.57 1386.56,-291.93 1386.46,-284.93"/>
</g>
<!-- Node47&#45;&gt;Node5 -->
<g id="edge20" class="edge">
<title>Node47&#45;&gt;Node5</title>
<path fill="none" stroke="midnightblue" d="M1045.17,-224.02C1664.27,-151.31 2404,-86.22 2585.39,-70.57"/>
<polygon fill="midnightblue" stroke="midnightblue" points="1044.67,-220.56 1035.15,-225.2 1045.49,-227.51 1044.67,-220.56"/>
</g>
<!-- Node47&#45;&gt;Node28 -->
<g id="edge23" class="edge">
<title>Node47&#45;&gt;Node28</title>
<path fill="none" stroke="midnightblue" d="M1003.37,-218.73C1013.95,-211.09 1025.22,-200.64 1031,-188 1049.32,-147.91 1017.56,-95.75 1003.35,-75.53"/>
<polygon fill="midnightblue" stroke="midnightblue" points="1001.15,-216 994.78,-224.47 1005.04,-221.82 1001.15,-216"/>
</g>
<!-- Node47&#45;&gt;Node57 -->
<g id="edge18" class="edge">
<title>Node47&#45;&gt;Node57</title>
<path fill="none" stroke="midnightblue" d="M931.59,-222.15C887,-211.95 821.15,-196.88 780.22,-187.52"/>
<polygon fill="midnightblue" stroke="midnightblue" points="931.08,-225.62 941.61,-224.44 932.64,-218.8 931.08,-225.62"/>
</g>
<!-- Node47&#45;&gt;Node43 -->
<g id="edge21" class="edge">
<title>Node47&#45;&gt;Node43</title>
<path fill="none" stroke="midnightblue" d="M962.67,-217.25C952.74,-207.67 940.41,-195.79 932.16,-187.83"/>
<polygon fill="midnightblue" stroke="midnightblue" points="960.37,-219.9 970,-224.32 965.23,-214.86 960.37,-219.9"/>
</g>
<!-- Node47&#45;&gt;Node58 -->
<g id="edge22" class="edge">
<title>Node47&#45;&gt;Node58</title>
<path fill="none" stroke="midnightblue" d="M985.2,-214.4C988.21,-205.36 991.69,-194.94 994.08,-187.75"/>
<polygon fill="midnightblue" stroke="midnightblue" points="981.81,-213.49 981.97,-224.08 988.46,-215.7 981.81,-213.49"/>
</g>
<!-- Node47&#45;&gt;Node60 -->
<g id="edge24" class="edge">
<title>Node47&#45;&gt;Node60</title>
<path fill="none" stroke="midnightblue" d="M1045.49,-224.05C1349.99,-195.13 1704.21,-183.03 1809.83,-179.88"/>
<polygon fill="midnightblue" stroke="midnightblue" points="1044.75,-220.6 1035.13,-225.04 1045.42,-227.57 1044.75,-220.6"/>
</g>
<!-- Node47&#45;&gt;Node38 -->
<g id="edge25" class="edge">
<title>Node47&#45;&gt;Node38</title>
<path fill="none" stroke="midnightblue" d="M1045.43,-224.09C1291.15,-203.72 1997.42,-184.42 2167.74,-179.96"/>
<polygon fill="midnightblue" stroke="midnightblue" points="1044.79,-220.63 1035.13,-224.97 1045.39,-227.61 1044.79,-220.63"/>
</g>
<!-- Node47&#45;&gt;Node64 -->
<g id="edge26" class="edge">
<title>Node47&#45;&gt;Node64</title>
<path fill="none" stroke="midnightblue" d="M1045.44,-224.08C1581.15,-180.06 1718.51,-207.2 2251,-188 2300.56,-186.21 2356.6,-183.83 2398.75,-181.97"/>
<polygon fill="midnightblue" stroke="midnightblue" points="1044.8,-220.62 1035.13,-224.94 1045.38,-227.6 1044.8,-220.62"/>
</g>
<!-- Node57&#45;&gt;Node32 -->
<g id="edge19" class="edge">
<title>Node57&#45;&gt;Node32</title>
<path fill="none" stroke="midnightblue" d="M732.5,-159.27C727.03,-150.05 720.58,-139.17 716.19,-131.75"/>
<polygon fill="midnightblue" stroke="midnightblue" points="729.61,-161.26 737.72,-168.08 735.63,-157.7 729.61,-161.26"/>
</g>
<!-- Node66&#45;&gt;Node10 -->
<g id="edge28" class="edge">
<title>Node66&#45;&gt;Node10</title>
<path fill="none" stroke="midnightblue" d="M589.68,-159.16C583.43,-145.99 574.51,-127.71 566,-112 547.05,-77.04 522.15,-36.74 511.37,-19.52"/>
<polygon fill="midnightblue" stroke="midnightblue" points="586.64,-160.92 594.07,-168.48 592.98,-157.94 586.64,-160.92"/>
</g>
<!-- Node70&#45;&gt;Node66 -->
<g id="edge31" class="edge">
<title>Node70&#45;&gt;Node66</title>
<path fill="none" stroke="midnightblue" d="M619.5,-215.27C614.03,-206.05 607.58,-195.17 603.19,-187.75"/>
<polygon fill="midnightblue" stroke="midnightblue" points="616.61,-217.26 624.72,-224.08 622.63,-213.7 616.61,-217.26"/>
</g>
<!-- Node71&#45;&gt;Node44 -->
<g id="edge36" class="edge">
<title>Node71&#45;&gt;Node44</title>
<path fill="none" stroke="midnightblue" d="M524.51,-216.46C542.75,-191.99 570.62,-145.43 549,-112 532.77,-86.9 498.84,-75.66 475.02,-70.72"/>
<polygon fill="midnightblue" stroke="midnightblue" points="521.7,-214.37 518.33,-224.42 527.23,-218.66 521.7,-214.37"/>
</g>
<!-- Node71&#45;&gt;Node66 -->
<g id="edge34" class="edge">
<title>Node71&#45;&gt;Node66</title>
<path fill="none" stroke="midnightblue" d="M533.72,-218.9C549.67,-209 570.5,-196.07 584.06,-187.65"/>
<polygon fill="midnightblue" stroke="midnightblue" points="531.63,-216.08 524.98,-224.32 535.32,-222.02 531.63,-216.08"/>
</g>
<!-- Node71&#45;&gt;Node69 -->
<g id="edge35" class="edge">
<title>Node71&#45;&gt;Node69</title>
<path fill="none" stroke="midnightblue" d="M490.69,-218.38C477.14,-208.62 459.76,-196.11 448.27,-187.83"/>
<polygon fill="midnightblue" stroke="midnightblue" points="488.79,-221.32 498.95,-224.32 492.88,-215.64 488.79,-221.32"/>
</g>
<!-- Node72 -->
<g id="node30" class="node">
<title>Node72</title>
<g id="a_node30"><a xlink:href="ArgumentMapper_8hpp.html" target="_top" xlink:title=" ">
<polygon fill="white" stroke="black" points="418,-112.5 418,-131.5 540,-131.5 540,-112.5 418,-112.5"/>
<text text-anchor="middle" x="479" y="-119.5" font-family="Helvetica,sans-Serif" font-size="10.00">ArgumentMapper.hpp</text>
</a>
</g>
</g>
<!-- Node71&#45;&gt;Node72 -->
<g id="edge33" class="edge">
<title>Node71&#45;&gt;Node72</title>
<path fill="none" stroke="midnightblue" d="M505.67,-214.67C498.67,-190.62 486.68,-149.39 481.5,-131.59"/>
<polygon fill="midnightblue" stroke="midnightblue" points="502.33,-215.74 508.49,-224.37 509.06,-213.79 502.33,-215.74"/>
</g>
<!-- Node73&#45;&gt;Node64 -->
<g id="edge38" class="edge">
<title>Node73&#45;&gt;Node64</title>
<path fill="none" stroke="midnightblue" d="M2510.01,-217.82C2498.54,-208.15 2484.09,-195.95 2474.47,-187.83"/>
<polygon fill="midnightblue" stroke="midnightblue" points="2507.82,-220.55 2517.72,-224.32 2512.33,-215.2 2507.82,-220.55"/>
</g>
<!-- Node74&#45;&gt;Node6 -->
<g id="edge42" class="edge">
<title>Node74&#45;&gt;Node6</title>
<path fill="none" stroke="midnightblue" d="M2800.74,-103.64C2786.62,-79.74 2761.74,-37.63 2751.08,-19.59"/>
<polygon fill="midnightblue" stroke="midnightblue" points="2797.8,-105.54 2805.9,-112.37 2803.83,-101.98 2797.8,-105.54"/>
</g>
<!-- Node79&#45;&gt;Node2 -->
<g id="edge47" class="edge">
<title>Node79&#45;&gt;Node2</title>
<path fill="none" stroke="midnightblue" d="M170.69,-218.38C157.14,-208.62 139.76,-196.11 128.27,-187.83"/>
<polygon fill="midnightblue" stroke="midnightblue" points="168.79,-221.32 178.95,-224.32 172.88,-215.64 168.79,-221.32"/>
</g>
<!-- Node79&#45;&gt;Node3 -->
<g id="edge48" class="edge">
<title>Node79&#45;&gt;Node3</title>
<path fill="none" stroke="midnightblue" d="M187.5,-214.16C184.31,-200.47 178.58,-181.97 169,-168 158.51,-152.7 141.44,-139.71 129.3,-131.67"/>
<polygon fill="midnightblue" stroke="midnightblue" points="184.15,-215.25 189.62,-224.33 191.01,-213.82 184.15,-215.25"/>
</g>
<!-- Node79&#45;&gt;Node80 -->
<g id="edge49" class="edge">
<title>Node79&#45;&gt;Node80</title>
<path fill="none" stroke="midnightblue" d="M210.59,-218.1C223.37,-208.38 239.61,-196.03 250.39,-187.83"/>
<polygon fill="midnightblue" stroke="midnightblue" points="208.25,-215.48 202.41,-224.32 212.49,-221.06 208.25,-215.48"/>
</g>
<!-- Node79&#45;&gt;Node82 -->
<g id="edge55" class="edge">
<title>Node79&#45;&gt;Node82</title>
<path fill="none" stroke="midnightblue" d="M243.8,-222.26C267.93,-215.42 295.79,-204.62 317,-188 336.6,-172.64 350.24,-145.78 356.36,-131.89"/>
<polygon fill="midnightblue" stroke="midnightblue" points="242.82,-218.9 234.06,-224.87 244.63,-225.66 242.82,-218.9"/>
</g>
<!-- Node80&#45;&gt;Node3 -->
<g id="edge51" class="edge">
<title>Node80&#45;&gt;Node3</title>
<path fill="none" stroke="midnightblue" d="M229.08,-164.91C201.44,-154.75 162.66,-140.51 138.18,-131.52"/>
<polygon fill="midnightblue" stroke="midnightblue" points="228.11,-168.28 238.71,-168.44 230.53,-161.71 228.11,-168.28"/>
</g>
<!-- Node80&#45;&gt;Node30 -->
<g id="edge53" class="edge">
<title>Node80&#45;&gt;Node30</title>
<path fill="none" stroke="midnightblue" d="M272.08,-159.77C280.97,-145.64 295,-125.79 311,-112 350.47,-77.98 364.42,-72.03 414,-56 511.33,-24.53 630.53,-14.96 701.98,-12.11"/>
<polygon fill="midnightblue" stroke="midnightblue" points="268.98,-158.13 266.77,-168.5 274.96,-161.77 268.98,-158.13"/>
</g>
<!-- Node80&#45;&gt;Node72 -->
<g id="edge50" class="edge">
<title>Node80&#45;&gt;Node72</title>
<path fill="none" stroke="midnightblue" d="M306.11,-166.02C347.1,-155.82 407.3,-140.84 444.78,-131.52"/>
<polygon fill="midnightblue" stroke="midnightblue" points="305.24,-162.63 296.38,-168.44 306.93,-169.43 305.24,-162.63"/>
</g>
<!-- Node81 -->
<g id="node37" class="node">
<title>Node81</title>
<g id="a_node37"><a xlink:href="OptionalRef_8hpp.html" target="_top" xlink:title=" ">
<polygon fill="white" stroke="black" points="168.5,-112.5 168.5,-131.5 263.5,-131.5 263.5,-112.5 168.5,-112.5"/>
<text text-anchor="middle" x="216" y="-119.5" font-family="Helvetica,sans-Serif" font-size="10.00">OptionalRef.hpp</text>
</a>
</g>
</g>
<!-- Node80&#45;&gt;Node81 -->
<g id="edge52" class="edge">
<title>Node80&#45;&gt;Node81</title>
<path fill="none" stroke="midnightblue" d="M247.89,-160.43C239.82,-150.97 230.04,-139.48 223.45,-131.75"/>
<polygon fill="midnightblue" stroke="midnightblue" points="245.25,-162.74 254.4,-168.08 250.58,-158.2 245.25,-162.74"/>
</g>
<!-- Node80&#45;&gt;Node82 -->
<g id="edge54" class="edge">
<title>Node80&#45;&gt;Node82</title>
<path fill="none" stroke="midnightblue" d="M286.59,-163.45C304.68,-153.48 328.73,-140.23 344.29,-131.65"/>
<polygon fill="midnightblue" stroke="midnightblue" points="284.81,-160.43 277.75,-168.32 288.19,-166.56 284.81,-160.43"/>
</g>
<!-- Node83&#45;&gt;Node5 -->
<g id="edge58" class="edge">
<title>Node83&#45;&gt;Node5</title>
<path fill="none" stroke="midnightblue" d="M2597.83,-158.67C2605.48,-134.62 2618.6,-93.39 2624.27,-75.59"/>
<polygon fill="midnightblue" stroke="midnightblue" points="2594.44,-157.78 2594.75,-168.37 2601.11,-159.9 2594.44,-157.78"/>
</g>
<!-- Node90&#45;&gt;Node5 -->
<g id="edge77" class="edge">
<title>Node90&#45;&gt;Node5</title>
<path fill="none" stroke="midnightblue" d="M2647.36,-213.93C2642.37,-177.92 2631.74,-101.23 2628.19,-75.57"/>
<polygon fill="midnightblue" stroke="midnightblue" points="2643.92,-214.65 2648.76,-224.08 2650.86,-213.69 2643.92,-214.65"/>
</g>
<!-- Node90&#45;&gt;Node83 -->
<g id="edge78" class="edge">
<title>Node90&#45;&gt;Node83</title>
<path fill="none" stroke="midnightblue" d="M2633.09,-217.25C2622.8,-207.67 2610.03,-195.79 2601.49,-187.83"/>
<polygon fill="midnightblue" stroke="midnightblue" points="2630.98,-220.07 2640.68,-224.32 2635.75,-214.95 2630.98,-220.07"/>
</g>
</g>
</svg>
