<?xml version="1.0" encoding="UTF-8" standalone="no"?>
<!DOCTYPE svg PUBLIC "-//W3C//DTD SVG 1.1//EN"
 "http://www.w3.org/Graphics/SVG/1.1/DTD/svg11.dtd">
<!-- Generated by graphviz version 2.43.0 (0)
 -->
<!-- Title: detail.hpp Pages: 1 -->
<svg width="2909pt" height="420pt"
 viewBox="0.00 0.00 2908.50 420.00" xmlns="http://www.w3.org/2000/svg" xmlns:xlink="http://www.w3.org/1999/xlink">
<g id="graph0" class="graph" transform="scale(1 1) rotate(0) translate(4 416)">
<title>detail.hpp</title>
<polygon fill="white" stroke="transparent" points="-4,4 -4,-416 2904.5,-416 2904.5,4 -4,4"/>
<!-- Node1 -->
<g id="node1" class="node">
<title>Node1</title>
<g id="a_node1"><a xlink:title=" ">
<polygon fill="#bfbfbf" stroke="black" points="1211.5,-392.5 1211.5,-411.5 1276.5,-411.5 1276.5,-392.5 1211.5,-392.5"/>
<text text-anchor="middle" x="1244" y="-399.5" font-family="Helvetica,sans-Serif" font-size="10.00">detail.hpp</text>
</a>
</g>
</g>
<!-- Node2 -->
<g id="node2" class="node">
<title>Node2</title>
<g id="a_node2"><a xlink:href="assertions_8hpp.html" target="_top" xlink:title=" ">
<polygon fill="white" stroke="black" points="1089,-168.5 1089,-187.5 1177,-187.5 1177,-168.5 1089,-168.5"/>
<text text-anchor="middle" x="1133" y="-175.5" font-family="Helvetica,sans-Serif" font-size="10.00">assertions.hpp</text>
</a>
</g>
</g>
<!-- Node1&#45;&gt;Node2 -->
<g id="edge1" class="edge">
<title>Node1&#45;&gt;Node2</title>
<path fill="none" stroke="midnightblue" d="M1201.38,-396.51C1075.96,-382.34 712.57,-334.07 643,-244 583.16,-166.51 982.86,-200.23 1080,-188 1082.87,-187.64 1085.82,-187.23 1088.8,-186.8"/>
<polygon fill="midnightblue" stroke="midnightblue" points="1201.06,-400 1211.38,-397.63 1201.83,-393.04 1201.06,-400"/>
</g>
<!-- Node3 -->
<g id="node3" class="node">
<title>Node3</title>
<g id="a_node3"><a xlink:href="checks_8hpp.html" target="_top" xlink:title=" ">
<polygon fill="white" stroke="black" points="1145.5,-112.5 1145.5,-131.5 1216.5,-131.5 1216.5,-112.5 1145.5,-112.5"/>
<text text-anchor="middle" x="1181" y="-119.5" font-family="Helvetica,sans-Serif" font-size="10.00">checks.hpp</text>
</a>
</g>
</g>
<!-- Node1&#45;&gt;Node3 -->
<g id="edge2" class="edge">
<title>Node1&#45;&gt;Node3</title>
<path fill="none" stroke="midnightblue" d="M1201.25,-399.51C982.64,-391.61 0,-352.66 0,-291 0,-291 0,-291 0,-233 0,-181.84 46.45,-184.13 95,-168 196.46,-134.29 969.35,-125 1145.39,-123.31"/>
<polygon fill="midnightblue" stroke="midnightblue" points="1201.25,-403.01 1211.37,-399.87 1201.5,-396.02 1201.25,-403.01"/>
</g>
<!-- Node45 -->
<g id="node16" class="node">
<title>Node45</title>
<g id="a_node16"><a xlink:href="debug_8hpp.html" target="_top" xlink:title=" ">
<polygon fill="white" stroke="black" points="1210,-336.5 1210,-355.5 1278,-355.5 1278,-336.5 1210,-336.5"/>
<text text-anchor="middle" x="1244" y="-343.5" font-family="Helvetica,sans-Serif" font-size="10.00">debug.hpp</text>
</a>
</g>
</g>
<!-- Node1&#45;&gt;Node45 -->
<g id="edge15" class="edge">
<title>Node1&#45;&gt;Node45</title>
<path fill="none" stroke="midnightblue" d="M1244,-381.8C1244,-372.91 1244,-362.78 1244,-355.75"/>
<polygon fill="midnightblue" stroke="midnightblue" points="1240.5,-382.08 1244,-392.08 1247.5,-382.08 1240.5,-382.08"/>
</g>
<!-- Node81 -->
<g id="node38" class="node">
<title>Node81</title>
<g id="a_node38"><a xlink:href="exceptions_8hpp.html" target="_top" xlink:title=" ">
<polygon fill="white" stroke="black" points="1481.5,-168.5 1481.5,-187.5 1572.5,-187.5 1572.5,-168.5 1481.5,-168.5"/>
<text text-anchor="middle" x="1527" y="-175.5" font-family="Helvetica,sans-Serif" font-size="10.00">exceptions.hpp</text>
</a>
</g>
</g>
<!-- Node1&#45;&gt;Node81 -->
<g id="edge80" class="edge">
<title>Node1&#45;&gt;Node81</title>
<path fill="none" stroke="midnightblue" d="M1286.99,-399.4C1509.48,-390.72 2523.26,-345.73 2614,-244 2619.92,-237.37 2620.15,-230.41 2614,-224 2577.43,-185.88 1774.41,-180.02 1572.66,-179.15"/>
<polygon fill="midnightblue" stroke="midnightblue" points="1286.57,-395.92 1276.71,-399.8 1286.84,-402.91 1286.57,-395.92"/>
</g>
<!-- Node23 -->
<g id="node50" class="node">
<title>Node23</title>
<g id="a_node50"><a xlink:href="essentials_8hpp.html" target="_top" xlink:title=" ">
<polygon fill="white" stroke="black" points="2813.5,-336.5 2813.5,-355.5 2900.5,-355.5 2900.5,-336.5 2813.5,-336.5"/>
<text text-anchor="middle" x="2857" y="-343.5" font-family="Helvetica,sans-Serif" font-size="10.00">essentials.hpp</text>
</a>
</g>
</g>
<!-- Node1&#45;&gt;Node23 -->
<g id="edge81" class="edge">
<title>Node1&#45;&gt;Node23</title>
<path fill="none" stroke="midnightblue" d="M1286.79,-400.49C1504.77,-397.76 2493.37,-384.02 2799,-356 2803.67,-355.57 2808.53,-355.01 2813.37,-354.37"/>
<polygon fill="midnightblue" stroke="midnightblue" points="1286.66,-396.99 1276.71,-400.61 1286.75,-403.99 1286.66,-396.99"/>
</g>
<!-- Node4 -->
<g id="node4" class="node">
<title>Node4</title>
<g id="a_node4"><a xlink:href="json_8hpp.html" target="_top" xlink:title=" ">
<polygon fill="white" stroke="black" points="1161,-56.5 1161,-75.5 1219,-75.5 1219,-56.5 1161,-56.5"/>
<text text-anchor="middle" x="1190" y="-63.5" font-family="Helvetica,sans-Serif" font-size="10.00">json.hpp</text>
</a>
</g>
</g>
<!-- Node3&#45;&gt;Node4 -->
<g id="edge3" class="edge">
<title>Node3&#45;&gt;Node4</title>
<path fill="none" stroke="midnightblue" d="M1184.15,-102.1C1185.64,-93.14 1187.36,-82.86 1188.54,-75.75"/>
<polygon fill="midnightblue" stroke="midnightblue" points="1180.68,-101.64 1182.49,-112.08 1187.58,-102.79 1180.68,-101.64"/>
</g>
<!-- Node5 -->
<g id="node5" class="node">
<title>Node5</title>
<g id="a_node5"><a xlink:href="Serializer_8hpp.html" target="_top" xlink:title=" ">
<polygon fill="white" stroke="black" points="2394.5,-56.5 2394.5,-75.5 2477.5,-75.5 2477.5,-56.5 2394.5,-56.5"/>
<text text-anchor="middle" x="2436" y="-63.5" font-family="Helvetica,sans-Serif" font-size="10.00">Serializer.hpp</text>
</a>
</g>
</g>
<!-- Node3&#45;&gt;Node5 -->
<g id="edge4" class="edge">
<title>Node3&#45;&gt;Node5</title>
<path fill="none" stroke="midnightblue" d="M1227.03,-112.46C1228.37,-112.3 1229.69,-112.14 1231,-112 1463.72,-86.84 2209.35,-71.3 2394.22,-67.77"/>
<polygon fill="midnightblue" stroke="midnightblue" points="1226.09,-109.06 1216.69,-113.95 1227.09,-115.99 1226.09,-109.06"/>
</g>
<!-- Node9 -->
<g id="node7" class="node">
<title>Node9</title>
<g id="a_node7"><a xlink:href="OutputStream_8hpp.html" target="_top" xlink:title=" ">
<polygon fill="white" stroke="black" points="1451,-56.5 1451,-75.5 1557,-75.5 1557,-56.5 1451,-56.5"/>
<text text-anchor="middle" x="1504" y="-63.5" font-family="Helvetica,sans-Serif" font-size="10.00">OutputStream.hpp</text>
</a>
</g>
</g>
<!-- Node3&#45;&gt;Node9 -->
<g id="edge6" class="edge">
<title>Node3&#45;&gt;Node9</title>
<path fill="none" stroke="midnightblue" d="M1226.62,-112.76C1228.1,-112.5 1229.56,-112.25 1231,-112 1307.33,-98.84 1395.82,-84.4 1450.86,-75.52"/>
<polygon fill="midnightblue" stroke="midnightblue" points="1226.01,-109.31 1216.77,-114.5 1227.22,-116.21 1226.01,-109.31"/>
</g>
<!-- Node28 -->
<g id="node12" class="node">
<title>Node28</title>
<g id="a_node12"><a xlink:href="getReference_8hpp.html" target="_top" xlink:title=" ">
<polygon fill="white" stroke="black" points="812.5,-56.5 812.5,-75.5 915.5,-75.5 915.5,-56.5 812.5,-56.5"/>
<text text-anchor="middle" x="864" y="-63.5" font-family="Helvetica,sans-Serif" font-size="10.00">getReference.hpp</text>
</a>
</g>
</g>
<!-- Node3&#45;&gt;Node28 -->
<g id="edge11" class="edge">
<title>Node3&#45;&gt;Node28</title>
<path fill="none" stroke="midnightblue" d="M1135.14,-113.19C1076.3,-103.17 974.63,-85.85 913.91,-75.5"/>
<polygon fill="midnightblue" stroke="midnightblue" points="1134.81,-116.68 1145.25,-114.91 1135.98,-109.78 1134.81,-116.68"/>
</g>
<!-- Node29 -->
<g id="node13" class="node">
<title>Node29</title>
<g id="a_node13"><a xlink:href="resize_8hpp.html" target="_top" xlink:title=" ">
<polygon fill="white" stroke="black" points="299.5,-56.5 299.5,-75.5 366.5,-75.5 366.5,-56.5 299.5,-56.5"/>
<text text-anchor="middle" x="333" y="-63.5" font-family="Helvetica,sans-Serif" font-size="10.00">resize.hpp</text>
</a>
</g>
</g>
<!-- Node3&#45;&gt;Node29 -->
<g id="edge12" class="edge">
<title>Node3&#45;&gt;Node29</title>
<path fill="none" stroke="midnightblue" d="M1135.01,-118.07C982.99,-108.39 498.78,-77.56 366.61,-69.14"/>
<polygon fill="midnightblue" stroke="midnightblue" points="1135.17,-121.59 1145.37,-118.73 1135.62,-114.6 1135.17,-121.59"/>
</g>
<!-- Node44 -->
<g id="node15" class="node">
<title>Node44</title>
<g id="a_node15"><a xlink:href="zip_8hpp.html" target="_top" xlink:title=" ">
<polygon fill="white" stroke="black" points="1091,-56.5 1091,-75.5 1143,-75.5 1143,-56.5 1091,-56.5"/>
<text text-anchor="middle" x="1117" y="-63.5" font-family="Helvetica,sans-Serif" font-size="10.00">zip.hpp</text>
</a>
</g>
</g>
<!-- Node3&#45;&gt;Node44 -->
<g id="edge14" class="edge">
<title>Node3&#45;&gt;Node44</title>
<path fill="none" stroke="midnightblue" d="M1163.01,-105.82C1151.54,-96.15 1137.09,-83.95 1127.47,-75.83"/>
<polygon fill="midnightblue" stroke="midnightblue" points="1160.82,-108.55 1170.72,-112.32 1165.33,-103.2 1160.82,-108.55"/>
</g>
<!-- Node6 -->
<g id="node6" class="node">
<title>Node6</title>
<g id="a_node6"><a xlink:href="MPI_8hpp.html" target="_top" xlink:title=" ">
<polygon fill="white" stroke="red" points="2408,-0.5 2408,-19.5 2464,-19.5 2464,-0.5 2408,-0.5"/>
<text text-anchor="middle" x="2436" y="-7.5" font-family="Helvetica,sans-Serif" font-size="10.00">MPI.hpp</text>
</a>
</g>
</g>
<!-- Node5&#45;&gt;Node6 -->
<g id="edge5" class="edge">
<title>Node5&#45;&gt;Node6</title>
<path fill="none" stroke="midnightblue" d="M2436,-45.8C2436,-36.91 2436,-26.78 2436,-19.75"/>
<polygon fill="midnightblue" stroke="midnightblue" points="2432.5,-46.08 2436,-56.08 2439.5,-46.08 2432.5,-46.08"/>
</g>
<!-- Node10 -->
<g id="node8" class="node">
<title>Node10</title>
<g id="a_node8"><a xlink:href="ArgParse_8hpp.html" target="_top" xlink:title=" ">
<polygon fill="white" stroke="red" points="995,-0.5 995,-19.5 1075,-19.5 1075,-0.5 995,-0.5"/>
<text text-anchor="middle" x="1035" y="-7.5" font-family="Helvetica,sans-Serif" font-size="10.00">ArgParse.hpp</text>
</a>
</g>
</g>
<!-- Node9&#45;&gt;Node10 -->
<g id="edge7" class="edge">
<title>Node9&#45;&gt;Node10</title>
<path fill="none" stroke="midnightblue" d="M1440.87,-56.48C1439.57,-56.32 1438.28,-56.16 1437,-56 1304.74,-39.72 1147.69,-22.85 1075.26,-15.21"/>
<polygon fill="midnightblue" stroke="midnightblue" points="1440.62,-59.98 1450.98,-57.77 1441.51,-53.03 1440.62,-59.98"/>
</g>
<!-- Node18 -->
<g id="node9" class="node">
<title>Node18</title>
<g id="a_node9"><a xlink:href="FileOutputStream_8hpp.html" target="_top" xlink:title=" ">
<polygon fill="white" stroke="red" points="1371.5,-0.5 1371.5,-19.5 1494.5,-19.5 1494.5,-0.5 1371.5,-0.5"/>
<text text-anchor="middle" x="1433" y="-7.5" font-family="Helvetica,sans-Serif" font-size="10.00">FileOutputStream.hpp</text>
</a>
</g>
</g>
<!-- Node9&#45;&gt;Node18 -->
<g id="edge8" class="edge">
<title>Node9&#45;&gt;Node18</title>
<path fill="none" stroke="midnightblue" d="M1484.41,-50.1C1471.63,-40.38 1455.39,-28.03 1444.61,-19.83"/>
<polygon fill="midnightblue" stroke="midnightblue" points="1482.51,-53.06 1492.59,-56.32 1486.75,-47.48 1482.51,-53.06"/>
</g>
<!-- Node26 -->
<g id="node10" class="node">
<title>Node26</title>
<g id="a_node10"><a xlink:href="StreamInterceptor_8hpp.html" target="_top" xlink:title=" ">
<polygon fill="white" stroke="black" points="1512.5,-0.5 1512.5,-19.5 1637.5,-19.5 1637.5,-0.5 1512.5,-0.5"/>
<text text-anchor="middle" x="1575" y="-7.5" font-family="Helvetica,sans-Serif" font-size="10.00">StreamInterceptor.hpp</text>
</a>
</g>
</g>
<!-- Node9&#45;&gt;Node26 -->
<g id="edge9" class="edge">
<title>Node9&#45;&gt;Node26</title>
<path fill="none" stroke="midnightblue" d="M1523.59,-50.1C1536.37,-40.38 1552.61,-28.03 1563.39,-19.83"/>
<polygon fill="midnightblue" stroke="midnightblue" points="1521.25,-47.48 1515.41,-56.32 1525.49,-53.06 1521.25,-47.48"/>
</g>
<!-- Node27 -->
<g id="node11" class="node">
<title>Node27</title>
<g id="a_node11"><a xlink:href="Color_8hpp.html" target="_top" xlink:title=" ">
<polygon fill="white" stroke="black" points="2104,-0.5 2104,-19.5 2166,-19.5 2166,-0.5 2104,-0.5"/>
<text text-anchor="middle" x="2135" y="-7.5" font-family="Helvetica,sans-Serif" font-size="10.00">Color.hpp</text>
</a>
</g>
</g>
<!-- Node9&#45;&gt;Node27 -->
<g id="edge10" class="edge">
<title>Node9&#45;&gt;Node27</title>
<path fill="none" stroke="midnightblue" d="M1567.3,-59.58C1700.45,-48.19 2005.27,-22.1 2103.72,-13.68"/>
<polygon fill="midnightblue" stroke="midnightblue" points="1566.92,-56.1 1557.25,-60.44 1567.52,-63.08 1566.92,-56.1"/>
</g>
<!-- Node30 -->
<g id="node14" class="node">
<title>Node30</title>
<g id="a_node14"><a xlink:href="STLContainerBase_8hpp.html" target="_top" xlink:title=" ">
<polygon fill="white" stroke="red" points="270,-0.5 270,-19.5 396,-19.5 396,-0.5 270,-0.5"/>
<text text-anchor="middle" x="333" y="-7.5" font-family="Helvetica,sans-Serif" font-size="10.00">STLContainerBase.hpp</text>
</a>
</g>
</g>
<!-- Node29&#45;&gt;Node30 -->
<g id="edge13" class="edge">
<title>Node29&#45;&gt;Node30</title>
<path fill="none" stroke="midnightblue" d="M333,-45.8C333,-36.91 333,-26.78 333,-19.75"/>
<polygon fill="midnightblue" stroke="midnightblue" points="329.5,-46.08 333,-56.08 336.5,-46.08 329.5,-46.08"/>
</g>
<!-- Node46 -->
<g id="node17" class="node">
<title>Node46</title>
<g id="a_node17"><a xlink:href="types_8hpp.html" target="_top" xlink:title=" ">
<polygon fill="white" stroke="red" points="1211.5,-280.5 1211.5,-299.5 1276.5,-299.5 1276.5,-280.5 1211.5,-280.5"/>
<text text-anchor="middle" x="1244" y="-287.5" font-family="Helvetica,sans-Serif" font-size="10.00">types.hpp</text>
</a>
</g>
</g>
<!-- Node45&#45;&gt;Node46 -->
<g id="edge16" class="edge">
<title>Node45&#45;&gt;Node46</title>
<path fill="none" stroke="midnightblue" d="M1244,-325.8C1244,-316.91 1244,-306.78 1244,-299.75"/>
<polygon fill="midnightblue" stroke="midnightblue" points="1240.5,-326.08 1244,-336.08 1247.5,-326.08 1240.5,-326.08"/>
</g>
<!-- Node46&#45;&gt;Node5 -->
<g id="edge59" class="edge">
<title>Node46&#45;&gt;Node5</title>
<path fill="none" stroke="midnightblue" d="M1286.77,-289.25C1513.52,-290.35 2566.76,-292.82 2614,-244 2677.79,-178.08 2516.33,-100.89 2456.92,-75.54"/>
<polygon fill="midnightblue" stroke="midnightblue" points="1286.62,-285.75 1276.6,-289.2 1286.58,-292.75 1286.62,-285.75"/>
</g>
<!-- Node46&#45;&gt;Node6 -->
<g id="edge42" class="edge">
<title>Node46&#45;&gt;Node6</title>
<path fill="none" stroke="midnightblue" d="M1286.85,-288.66C1520.06,-286.68 2628.27,-275.61 2693,-244 2726.75,-227.52 2747,-216.56 2747,-179 2747,-179 2747,-179 2747,-121 2747,-61.3 2540.7,-25.88 2464.15,-14.79"/>
<polygon fill="midnightblue" stroke="midnightblue" points="1286.7,-285.16 1276.73,-288.74 1286.76,-292.16 1286.7,-285.16"/>
</g>
<!-- Node46&#45;&gt;Node27 -->
<g id="edge77" class="edge">
<title>Node46&#45;&gt;Node27</title>
<path fill="none" stroke="midnightblue" d="M1286.86,-288.75C1517.64,-287.26 2604.33,-278.41 2666,-244 2696.25,-227.12 2709,-213.64 2709,-179 2709,-179 2709,-179 2709,-121 2709,-65.26 2286.05,-24.16 2166.27,-13.64"/>
<polygon fill="midnightblue" stroke="midnightblue" points="1286.81,-285.25 1276.83,-288.81 1286.85,-292.25 1286.81,-285.25"/>
</g>
<!-- Node46&#45;&gt;Node29 -->
<g id="edge71" class="edge">
<title>Node46&#45;&gt;Node29</title>
<path fill="none" stroke="midnightblue" d="M1201.33,-289.29C1032.23,-290.11 409.15,-289.87 218,-244 159.59,-229.98 127.5,-238.51 95,-188 44.27,-109.16 222.25,-79.37 299.22,-70.34"/>
<polygon fill="midnightblue" stroke="midnightblue" points="1201.36,-292.79 1211.34,-289.24 1201.33,-285.79 1201.36,-292.79"/>
</g>
<!-- Node46&#45;&gt;Node30 -->
<g id="edge73" class="edge">
<title>Node46&#45;&gt;Node30</title>
<path fill="none" stroke="midnightblue" d="M1200.94,-288.72C1008.43,-287.25 231.63,-279.19 129,-244 81.98,-227.88 38,-228.7 38,-179 38,-179 38,-179 38,-121 38,-69.89 195.41,-34.76 280.26,-19.53"/>
<polygon fill="midnightblue" stroke="midnightblue" points="1201.2,-292.22 1211.22,-288.79 1201.25,-285.22 1201.2,-292.22"/>
</g>
<!-- Node47 -->
<g id="node18" class="node">
<title>Node47</title>
<g id="a_node18"><a xlink:href="basic__concepts_8hpp.html" target="_top" xlink:title=" ">
<polygon fill="white" stroke="red" points="652,-224.5 652,-243.5 764,-243.5 764,-224.5 652,-224.5"/>
<text text-anchor="middle" x="708" y="-231.5" font-family="Helvetica,sans-Serif" font-size="10.00">basic_concepts.hpp</text>
</a>
</g>
</g>
<!-- Node46&#45;&gt;Node47 -->
<g id="edge17" class="edge">
<title>Node46&#45;&gt;Node47</title>
<path fill="none" stroke="midnightblue" d="M1200.99,-284.99C1119.95,-277.37 939.12,-260.15 787,-244 779.59,-243.21 771.79,-242.36 764.09,-241.5"/>
<polygon fill="midnightblue" stroke="midnightblue" points="1201,-288.5 1211.29,-285.95 1201.66,-281.53 1201,-288.5"/>
</g>
<!-- Node57 -->
<g id="node19" class="node">
<title>Node57</title>
<g id="a_node19"><a xlink:href="ThreadStorage_8hpp.html" target="_top" xlink:title=" ">
<polygon fill="white" stroke="red" points="379.5,-168.5 379.5,-187.5 488.5,-187.5 488.5,-168.5 379.5,-168.5"/>
<text text-anchor="middle" x="434" y="-175.5" font-family="Helvetica,sans-Serif" font-size="10.00">ThreadStorage.hpp</text>
</a>
</g>
</g>
<!-- Node46&#45;&gt;Node57 -->
<g id="edge48" class="edge">
<title>Node46&#45;&gt;Node57</title>
<path fill="none" stroke="midnightblue" d="M1201.12,-288.07C1073.5,-284.99 697.62,-273.59 579,-244 553.1,-237.54 483.51,-203.71 451.08,-187.58"/>
<polygon fill="midnightblue" stroke="midnightblue" points="1201.21,-291.57 1211.29,-288.31 1201.37,-284.58 1201.21,-291.57"/>
</g>
<!-- Node32 -->
<g id="node20" class="node">
<title>Node32</title>
<g id="a_node20"><a xlink:href="ParallelFor_8hpp.html" target="_top" xlink:title=" ">
<polygon fill="white" stroke="black" points="228,-112.5 228,-131.5 316,-131.5 316,-112.5 228,-112.5"/>
<text text-anchor="middle" x="272" y="-119.5" font-family="Helvetica,sans-Serif" font-size="10.00">ParallelFor.hpp</text>
</a>
</g>
</g>
<!-- Node46&#45;&gt;Node32 -->
<g id="edge43" class="edge">
<title>Node46&#45;&gt;Node32</title>
<path fill="none" stroke="midnightblue" d="M1201.29,-288.19C1057.95,-285.22 594.9,-273.51 449,-244 376.39,-229.31 343.22,-241.53 292,-188 276.98,-172.3 273.22,-145.59 272.29,-131.81"/>
<polygon fill="midnightblue" stroke="midnightblue" points="1201.37,-291.69 1211.44,-288.4 1201.51,-284.69 1201.37,-291.69"/>
</g>
<!-- Node43 -->
<g id="node21" class="node">
<title>Node43</title>
<g id="a_node21"><a xlink:href="base_8hpp.html" target="_top" xlink:title=" ">
<polygon fill="white" stroke="black" points="300.5,-168.5 300.5,-187.5 361.5,-187.5 361.5,-168.5 300.5,-168.5"/>
<text text-anchor="middle" x="331" y="-175.5" font-family="Helvetica,sans-Serif" font-size="10.00">base.hpp</text>
</a>
</g>
</g>
<!-- Node46&#45;&gt;Node43 -->
<g id="edge63" class="edge">
<title>Node46&#45;&gt;Node43</title>
<path fill="none" stroke="midnightblue" d="M1200.93,-287.79C1066.34,-283.77 654.88,-269.67 524,-244 458.77,-231.21 385.26,-202.15 350.81,-187.61"/>
<polygon fill="midnightblue" stroke="midnightblue" points="1201.14,-291.3 1211.24,-288.09 1201.35,-284.3 1201.14,-291.3"/>
</g>
<!-- Node58 -->
<g id="node22" class="node">
<title>Node58</title>
<g id="a_node22"><a xlink:href="bit_8hpp.html" target="_top" xlink:title=" ">
<polygon fill="white" stroke="black" points="507,-168.5 507,-187.5 557,-187.5 557,-168.5 507,-168.5"/>
<text text-anchor="middle" x="532" y="-175.5" font-family="Helvetica,sans-Serif" font-size="10.00">bit.hpp</text>
</a>
</g>
</g>
<!-- Node46&#45;&gt;Node58 -->
<g id="edge64" class="edge">
<title>Node46&#45;&gt;Node58</title>
<path fill="none" stroke="midnightblue" d="M1200.95,-288.99C1077.95,-288.49 726.91,-283.52 620,-244 586.51,-231.62 554.75,-202.37 540.24,-187.7"/>
<polygon fill="midnightblue" stroke="midnightblue" points="1201.1,-292.49 1211.12,-289.03 1201.13,-285.49 1201.1,-292.49"/>
</g>
<!-- Node60 -->
<g id="node23" class="node">
<title>Node60</title>
<g id="a_node23"><a xlink:href="Hash_8hpp.html" target="_top" xlink:title=" ">
<polygon fill="white" stroke="red" points="575,-168.5 575,-187.5 637,-187.5 637,-168.5 575,-168.5"/>
<text text-anchor="middle" x="606" y="-175.5" font-family="Helvetica,sans-Serif" font-size="10.00">Hash.hpp</text>
</a>
</g>
</g>
<!-- Node46&#45;&gt;Node60 -->
<g id="edge68" class="edge">
<title>Node46&#45;&gt;Node60</title>
<path fill="none" stroke="midnightblue" d="M1201.07,-288.1C1071.41,-285.06 689.87,-273.65 643,-244 622.37,-230.95 612.09,-202.01 608.08,-187.56"/>
<polygon fill="midnightblue" stroke="midnightblue" points="1201.31,-291.6 1211.39,-288.33 1201.47,-284.61 1201.31,-291.6"/>
</g>
<!-- Node54 -->
<g id="node24" class="node">
<title>Node54</title>
<g id="a_node24"><a xlink:href="NoOpIterator_8hpp.html" target="_top" xlink:title=" ">
<polygon fill="white" stroke="black" points="731,-168.5 731,-187.5 831,-187.5 831,-168.5 731,-168.5"/>
<text text-anchor="middle" x="781" y="-175.5" font-family="Helvetica,sans-Serif" font-size="10.00">NoOpIterator.hpp</text>
</a>
</g>
</g>
<!-- Node46&#45;&gt;Node54 -->
<g id="edge70" class="edge">
<title>Node46&#45;&gt;Node54</title>
<path fill="none" stroke="midnightblue" d="M1201.03,-287.35C1112.8,-283.42 914.33,-271.72 853,-244 824.15,-230.96 798.84,-202.02 787.43,-187.56"/>
<polygon fill="midnightblue" stroke="midnightblue" points="1201.09,-290.85 1211.23,-287.79 1201.39,-283.86 1201.09,-290.85"/>
</g>
<!-- Node38 -->
<g id="node25" class="node">
<title>Node38</title>
<g id="a_node25"><a xlink:href="abstree_8hpp.html" target="_top" xlink:title=" ">
<polygon fill="white" stroke="black" points="849,-168.5 849,-187.5 923,-187.5 923,-168.5 849,-168.5"/>
<text text-anchor="middle" x="886" y="-175.5" font-family="Helvetica,sans-Serif" font-size="10.00">abstree.hpp</text>
</a>
</g>
</g>
<!-- Node46&#45;&gt;Node38 -->
<g id="edge75" class="edge">
<title>Node46&#45;&gt;Node38</title>
<path fill="none" stroke="midnightblue" d="M1201.15,-287.09C1106.29,-282.42 885.18,-268.95 863,-244 848.37,-227.54 866.65,-201.16 878.09,-187.63"/>
<polygon fill="midnightblue" stroke="midnightblue" points="1201.11,-290.59 1211.27,-287.58 1201.45,-283.6 1201.11,-290.59"/>
</g>
<!-- Node64 -->
<g id="node26" class="node">
<title>Node64</title>
<g id="a_node26"><a xlink:href="HierarchicalInteger_8hpp.html" target="_top" xlink:title=" ">
<polygon fill="white" stroke="black" points="941,-168.5 941,-187.5 1071,-187.5 1071,-168.5 941,-168.5"/>
<text text-anchor="middle" x="1006" y="-175.5" font-family="Helvetica,sans-Serif" font-size="10.00">HierarchicalInteger.hpp</text>
</a>
</g>
</g>
<!-- Node46&#45;&gt;Node64 -->
<g id="edge76" class="edge">
<title>Node46&#45;&gt;Node64</title>
<path fill="none" stroke="midnightblue" d="M1201.34,-286.02C1143.38,-281.07 1044.11,-269.11 1019,-244 1003.86,-228.86 1003.86,-201.41 1004.99,-187.53"/>
<polygon fill="midnightblue" stroke="midnightblue" points="1201.05,-289.51 1211.3,-286.84 1201.62,-282.53 1201.05,-289.51"/>
</g>
<!-- Node66 -->
<g id="node27" class="node">
<title>Node66</title>
<g id="a_node27"><a xlink:href="Match_8hpp.html" target="_top" xlink:title=" ">
<polygon fill="white" stroke="red" points="1195,-168.5 1195,-187.5 1263,-187.5 1263,-168.5 1195,-168.5"/>
<text text-anchor="middle" x="1229" y="-175.5" font-family="Helvetica,sans-Serif" font-size="10.00">Match.hpp</text>
</a>
</g>
</g>
<!-- Node46&#45;&gt;Node66 -->
<g id="edge28" class="edge">
<title>Node46&#45;&gt;Node66</title>
<path fill="none" stroke="midnightblue" d="M1201.08,-286.3C1144.44,-281.74 1049.39,-270.3 1028,-244 1022.39,-237.1 1022.44,-230.94 1028,-224 1029.32,-222.36 1137.67,-198.73 1194.72,-186.39"/>
<polygon fill="midnightblue" stroke="midnightblue" points="1200.95,-289.8 1211.18,-287.07 1201.48,-282.82 1200.95,-289.8"/>
</g>
<!-- Node69 -->
<g id="node28" class="node">
<title>Node69</title>
<g id="a_node28"><a xlink:href="Range_8hpp.html" target="_top" xlink:title=" ">
<polygon fill="white" stroke="red" points="1357,-168.5 1357,-187.5 1425,-187.5 1425,-168.5 1357,-168.5"/>
<text text-anchor="middle" x="1391" y="-175.5" font-family="Helvetica,sans-Serif" font-size="10.00">Range.hpp</text>
</a>
</g>
</g>
<!-- Node46&#45;&gt;Node69 -->
<g id="edge30" class="edge">
<title>Node46&#45;&gt;Node69</title>
<path fill="none" stroke="midnightblue" d="M1232.28,-271.33C1224.54,-257.24 1217.59,-237.67 1228,-224 1235.89,-213.63 1311.2,-196.01 1356.65,-186.18"/>
<polygon fill="midnightblue" stroke="midnightblue" points="1229.39,-273.31 1237.55,-280.06 1235.38,-269.69 1229.39,-273.31"/>
</g>
<!-- Node70 -->
<g id="node29" class="node">
<title>Node70</title>
<g id="a_node29"><a xlink:href="Select_8hpp.html" target="_top" xlink:title=" ">
<polygon fill="white" stroke="red" points="1037,-224.5 1037,-243.5 1105,-243.5 1105,-224.5 1037,-224.5"/>
<text text-anchor="middle" x="1071" y="-231.5" font-family="Helvetica,sans-Serif" font-size="10.00">Select.hpp</text>
</a>
</g>
</g>
<!-- Node46&#45;&gt;Node70 -->
<g id="edge31" class="edge">
<title>Node46&#45;&gt;Node70</title>
<path fill="none" stroke="midnightblue" d="M1206.95,-277.44C1174.34,-267.26 1127.59,-252.66 1098.28,-243.52"/>
<polygon fill="midnightblue" stroke="midnightblue" points="1206,-280.8 1216.59,-280.44 1208.08,-274.12 1206,-280.8"/>
</g>
<!-- Node71 -->
<g id="node30" class="node">
<title>Node71</title>
<g id="a_node30"><a xlink:href="Size_8hpp.html" target="_top" xlink:title=" ">
<polygon fill="white" stroke="red" points="1123,-224.5 1123,-243.5 1181,-243.5 1181,-224.5 1123,-224.5"/>
<text text-anchor="middle" x="1152" y="-231.5" font-family="Helvetica,sans-Serif" font-size="10.00">Size.hpp</text>
</a>
</g>
</g>
<!-- Node46&#45;&gt;Node71 -->
<g id="edge33" class="edge">
<title>Node46&#45;&gt;Node71</title>
<path fill="none" stroke="midnightblue" d="M1220.45,-275.18C1203.52,-265.24 1181.22,-252.15 1166.74,-243.65"/>
<polygon fill="midnightblue" stroke="midnightblue" points="1218.82,-278.28 1229.22,-280.32 1222.37,-272.24 1218.82,-278.28"/>
</g>
<!-- Node73 -->
<g id="node32" class="node">
<title>Node73</title>
<g id="a_node32"><a xlink:href="integer_8hpp.html" target="_top" xlink:title=" ">
<polygon fill="white" stroke="black" points="871.5,-224.5 871.5,-243.5 942.5,-243.5 942.5,-224.5 871.5,-224.5"/>
<text text-anchor="middle" x="907" y="-231.5" font-family="Helvetica,sans-Serif" font-size="10.00">integer.hpp</text>
</a>
</g>
</g>
<!-- Node46&#45;&gt;Node73 -->
<g id="edge38" class="edge">
<title>Node46&#45;&gt;Node73</title>
<path fill="none" stroke="midnightblue" d="M1201.32,-282.62C1145.21,-274.15 1043.62,-258.58 957,-244 952.39,-243.22 947.55,-242.38 942.76,-241.54"/>
<polygon fill="midnightblue" stroke="midnightblue" points="1200.84,-286.08 1211.25,-284.11 1201.88,-279.16 1200.84,-286.08"/>
</g>
<!-- Node74 -->
<g id="node33" class="node">
<title>Node74</title>
<g id="a_node33"><a xlink:href="IndexPartitionFactory_8hpp.html" target="_top" xlink:title=" ">
<polygon fill="white" stroke="black" points="104.5,-168.5 104.5,-187.5 243.5,-187.5 243.5,-168.5 104.5,-168.5"/>
<text text-anchor="middle" x="174" y="-175.5" font-family="Helvetica,sans-Serif" font-size="10.00">IndexPartitionFactory.hpp</text>
</a>
</g>
</g>
<!-- Node46&#45;&gt;Node74 -->
<g id="edge40" class="edge">
<title>Node46&#45;&gt;Node74</title>
<path fill="none" stroke="midnightblue" d="M1201.35,-288.57C1023.66,-286.56 347.3,-276.81 258,-244 225.46,-232.05 195.41,-202.59 181.74,-187.79"/>
<polygon fill="midnightblue" stroke="midnightblue" points="1201.33,-292.07 1211.37,-288.68 1201.41,-285.07 1201.33,-292.07"/>
</g>
<!-- Node75 -->
<g id="node34" class="node">
<title>Node75</title>
<g id="a_node34"><a xlink:href="RankID_8hpp.html" target="_top" xlink:title=" ">
<polygon fill="white" stroke="red" points="1564.5,-112.5 1564.5,-131.5 1637.5,-131.5 1637.5,-112.5 1564.5,-112.5"/>
<text text-anchor="middle" x="1601" y="-119.5" font-family="Helvetica,sans-Serif" font-size="10.00">RankID.hpp</text>
</a>
</g>
</g>
<!-- Node46&#45;&gt;Node75 -->
<g id="edge44" class="edge">
<title>Node46&#45;&gt;Node75</title>
<path fill="none" stroke="midnightblue" d="M1287.2,-289.42C1368.78,-289.26 1541.02,-284.03 1582,-244 1613.33,-213.39 1606.54,-153.69 1602.69,-131.54"/>
<polygon fill="midnightblue" stroke="midnightblue" points="1286.78,-285.92 1276.78,-289.41 1286.78,-292.92 1286.78,-285.92"/>
</g>
<!-- Node33 -->
<g id="node35" class="node">
<title>Node33</title>
<g id="a_node35"><a xlink:href="ThreadLocal_8hpp.html" target="_top" xlink:title=" ">
<polygon fill="white" stroke="black" points="1341.5,-224.5 1341.5,-243.5 1438.5,-243.5 1438.5,-224.5 1341.5,-224.5"/>
<text text-anchor="middle" x="1390" y="-231.5" font-family="Helvetica,sans-Serif" font-size="10.00">ThreadLocal.hpp</text>
</a>
</g>
</g>
<!-- Node46&#45;&gt;Node33 -->
<g id="edge46" class="edge">
<title>Node46&#45;&gt;Node33</title>
<path fill="none" stroke="midnightblue" d="M1276.7,-276.91C1304.15,-266.75 1342.67,-252.51 1366.97,-243.52"/>
<polygon fill="midnightblue" stroke="midnightblue" points="1275.3,-273.69 1267.13,-280.44 1277.73,-280.26 1275.3,-273.69"/>
</g>
<!-- Node79 -->
<g id="node36" class="node">
<title>Node79</title>
<g id="a_node36"><a xlink:href="ThreadPoolBase_8hpp.html" target="_top" xlink:title=" ">
<polygon fill="white" stroke="red" points="1457,-224.5 1457,-243.5 1573,-243.5 1573,-224.5 1457,-224.5"/>
<text text-anchor="middle" x="1515" y="-231.5" font-family="Helvetica,sans-Serif" font-size="10.00">ThreadPoolBase.hpp</text>
</a>
</g>
</g>
<!-- Node46&#45;&gt;Node79 -->
<g id="edge47" class="edge">
<title>Node46&#45;&gt;Node79</title>
<path fill="none" stroke="midnightblue" d="M1286.65,-280.5C1337.25,-270.42 1421.13,-253.7 1471.92,-243.58"/>
<polygon fill="midnightblue" stroke="midnightblue" points="1285.81,-277.1 1276.69,-282.49 1287.18,-283.96 1285.81,-277.1"/>
</g>
<!-- Node80 -->
<g id="node37" class="node">
<title>Node80</title>
<g id="a_node37"><a xlink:href="exception_8hpp.html" target="_top" xlink:title=" ">
<polygon fill="white" stroke="black" points="1237,-224.5 1237,-243.5 1323,-243.5 1323,-224.5 1237,-224.5"/>
<text text-anchor="middle" x="1280" y="-231.5" font-family="Helvetica,sans-Serif" font-size="10.00">exception.hpp</text>
</a>
</g>
</g>
<!-- Node46&#45;&gt;Node80 -->
<g id="edge49" class="edge">
<title>Node46&#45;&gt;Node80</title>
<path fill="none" stroke="midnightblue" d="M1255.62,-271.57C1261.82,-262.27 1269.17,-251.25 1274.17,-243.75"/>
<polygon fill="midnightblue" stroke="midnightblue" points="1252.58,-269.82 1249.94,-280.08 1258.4,-273.7 1252.58,-269.82"/>
</g>
<!-- Node83 -->
<g id="node40" class="node">
<title>Node83</title>
<g id="a_node40"><a xlink:href="common_8hpp.html" target="_top" xlink:title=" ">
<polygon fill="white" stroke="red" points="1656,-112.5 1656,-131.5 1736,-131.5 1736,-112.5 1656,-112.5"/>
<text text-anchor="middle" x="1696" y="-119.5" font-family="Helvetica,sans-Serif" font-size="10.00">common.hpp</text>
</a>
</g>
</g>
<!-- Node46&#45;&gt;Node83 -->
<g id="edge79" class="edge">
<title>Node46&#45;&gt;Node83</title>
<path fill="none" stroke="midnightblue" d="M1286.67,-287.68C1369.59,-284.48 1549.02,-274.17 1602,-244 1649.85,-216.75 1681.78,-154.46 1692.25,-131.61"/>
<polygon fill="midnightblue" stroke="midnightblue" points="1286.44,-284.19 1276.58,-288.06 1286.7,-291.19 1286.44,-284.19"/>
</g>
<!-- Node84 -->
<g id="node41" class="node">
<title>Node84</title>
<g id="a_node41"><a xlink:href="Traits_8hpp.html" target="_top" xlink:title=" ">
<polygon fill="white" stroke="black" points="2617,-112.5 2617,-131.5 2681,-131.5 2681,-112.5 2617,-112.5"/>
<text text-anchor="middle" x="2649" y="-119.5" font-family="Helvetica,sans-Serif" font-size="10.00">Traits.hpp</text>
</a>
</g>
</g>
<!-- Node46&#45;&gt;Node84 -->
<g id="edge60" class="edge">
<title>Node46&#45;&gt;Node84</title>
<path fill="none" stroke="midnightblue" d="M1287.03,-289.27C1517.6,-290.5 2598.14,-293.63 2647,-244 2677.37,-213.16 2660.16,-153.6 2652.28,-131.51"/>
<polygon fill="midnightblue" stroke="midnightblue" points="1286.72,-285.77 1276.7,-289.21 1286.68,-292.77 1286.72,-285.77"/>
</g>
<!-- Node20 -->
<g id="node42" class="node">
<title>Node20</title>
<g id="a_node42"><a xlink:href="LogBlock_8hpp.html" target="_top" xlink:title=" ">
<polygon fill="white" stroke="red" points="1667,-224.5 1667,-243.5 1749,-243.5 1749,-224.5 1667,-224.5"/>
<text text-anchor="middle" x="1708" y="-231.5" font-family="Helvetica,sans-Serif" font-size="10.00">LogBlock.hpp</text>
</a>
</g>
</g>
<!-- Node46&#45;&gt;Node20 -->
<g id="edge62" class="edge">
<title>Node46&#45;&gt;Node20</title>
<path fill="none" stroke="midnightblue" d="M1287.07,-285.01C1361.73,-277.93 1519.94,-262.19 1653,-244 1657.51,-243.38 1662.21,-242.69 1666.89,-241.97"/>
<polygon fill="midnightblue" stroke="midnightblue" points="1286.3,-281.57 1276.68,-285.99 1286.96,-288.54 1286.3,-281.57"/>
</g>
<!-- Node85 -->
<g id="node43" class="node">
<title>Node85</title>
<g id="a_node43"><a xlink:href="NChooseK_8hpp.html" target="_top" xlink:title=" ">
<polygon fill="white" stroke="black" points="1767,-224.5 1767,-243.5 1855,-243.5 1855,-224.5 1767,-224.5"/>
<text text-anchor="middle" x="1811" y="-231.5" font-family="Helvetica,sans-Serif" font-size="10.00">NChooseK.hpp</text>
</a>
</g>
</g>
<!-- Node46&#45;&gt;Node85 -->
<g id="edge65" class="edge">
<title>Node46&#45;&gt;Node85</title>
<path fill="none" stroke="midnightblue" d="M1286.73,-286.43C1375.01,-280.87 1583.83,-266.37 1758,-244 1760.87,-243.63 1763.82,-243.22 1766.79,-242.78"/>
<polygon fill="midnightblue" stroke="midnightblue" points="1286.33,-282.95 1276.57,-287.07 1286.77,-289.94 1286.33,-282.95"/>
</g>
<!-- Node86 -->
<g id="node44" class="node">
<title>Node86</title>
<g id="a_node44"><a xlink:href="FileManager_8hpp.html" target="_top" xlink:title=" ">
<polygon fill="white" stroke="black" points="1872.5,-224.5 1872.5,-243.5 1969.5,-243.5 1969.5,-224.5 1872.5,-224.5"/>
<text text-anchor="middle" x="1921" y="-231.5" font-family="Helvetica,sans-Serif" font-size="10.00">FileManager.hpp</text>
</a>
</g>
</g>
<!-- Node46&#45;&gt;Node86 -->
<g id="edge66" class="edge">
<title>Node46&#45;&gt;Node86</title>
<path fill="none" stroke="midnightblue" d="M1286.79,-287.14C1387.6,-282.48 1647.84,-268.87 1864,-244 1866.69,-243.69 1869.44,-243.35 1872.22,-242.98"/>
<polygon fill="midnightblue" stroke="midnightblue" points="1286.52,-283.65 1276.69,-287.6 1286.84,-290.64 1286.52,-283.65"/>
</g>
<!-- Node87 -->
<g id="node45" class="node">
<title>Node87</title>
<g id="a_node45"><a xlink:href="FunctionTraits_8hpp.html" target="_top" xlink:title=" ">
<polygon fill="white" stroke="red" points="1987.5,-224.5 1987.5,-243.5 2092.5,-243.5 2092.5,-224.5 1987.5,-224.5"/>
<text text-anchor="middle" x="2040" y="-231.5" font-family="Helvetica,sans-Serif" font-size="10.00">FunctionTraits.hpp</text>
</a>
</g>
</g>
<!-- Node46&#45;&gt;Node87 -->
<g id="edge67" class="edge">
<title>Node46&#45;&gt;Node87</title>
<path fill="none" stroke="midnightblue" d="M1287.02,-287.65C1400.44,-283.81 1716.93,-271.31 1979,-244 1981.77,-243.71 1984.6,-243.39 1987.46,-243.04"/>
<polygon fill="midnightblue" stroke="midnightblue" points="1286.56,-284.16 1276.68,-287.99 1286.79,-291.16 1286.56,-284.16"/>
</g>
<!-- Node50 -->
<g id="node46" class="node">
<title>Node50</title>
<g id="a_node46"><a xlink:href="MarchingContainer_8hpp.html" target="_top" xlink:title=" ">
<polygon fill="white" stroke="black" points="2110.5,-224.5 2110.5,-243.5 2239.5,-243.5 2239.5,-224.5 2110.5,-224.5"/>
<text text-anchor="middle" x="2175" y="-231.5" font-family="Helvetica,sans-Serif" font-size="10.00">MarchingContainer.hpp</text>
</a>
</g>
</g>
<!-- Node46&#45;&gt;Node50 -->
<g id="edge69" class="edge">
<title>Node46&#45;&gt;Node50</title>
<path fill="none" stroke="midnightblue" d="M1287.14,-287.81C1412.92,-284.11 1790.13,-271.37 2102,-244 2104.67,-243.77 2107.4,-243.51 2110.15,-243.24"/>
<polygon fill="midnightblue" stroke="midnightblue" points="1286.68,-284.32 1276.79,-288.11 1286.89,-291.32 1286.68,-284.32"/>
</g>
<!-- Node51 -->
<g id="node47" class="node">
<title>Node51</title>
<g id="a_node47"><a xlink:href="state__iterator_8hpp.html" target="_top" xlink:title=" ">
<polygon fill="white" stroke="black" points="2257.5,-224.5 2257.5,-243.5 2360.5,-243.5 2360.5,-224.5 2257.5,-224.5"/>
<text text-anchor="middle" x="2309" y="-231.5" font-family="Helvetica,sans-Serif" font-size="10.00">state_iterator.hpp</text>
</a>
</g>
</g>
<!-- Node46&#45;&gt;Node51 -->
<g id="edge72" class="edge">
<title>Node46&#45;&gt;Node51</title>
<path fill="none" stroke="midnightblue" d="M1286.85,-288.68C1425.99,-287.28 1877.54,-280.08 2249,-244 2251.73,-243.74 2254.52,-243.43 2257.33,-243.1"/>
<polygon fill="midnightblue" stroke="midnightblue" points="1286.59,-285.18 1276.62,-288.77 1286.66,-292.18 1286.59,-285.18"/>
</g>
<!-- Node89 -->
<g id="node48" class="node">
<title>Node89</title>
<g id="a_node48"><a xlink:href="ConstructorTracker_8hpp.html" target="_top" xlink:title=" ">
<polygon fill="white" stroke="black" points="2379,-224.5 2379,-243.5 2507,-243.5 2507,-224.5 2379,-224.5"/>
<text text-anchor="middle" x="2443" y="-231.5" font-family="Helvetica,sans-Serif" font-size="10.00">ConstructorTracker.hpp</text>
</a>
</g>
</g>
<!-- Node46&#45;&gt;Node89 -->
<g id="edge74" class="edge">
<title>Node46&#45;&gt;Node89</title>
<path fill="none" stroke="midnightblue" d="M1286.9,-288.56C1436.46,-286.77 1948.68,-278.33 2370,-244 2372.93,-243.76 2375.92,-243.49 2378.94,-243.2"/>
<polygon fill="midnightblue" stroke="midnightblue" points="1286.72,-285.06 1276.76,-288.68 1286.8,-292.06 1286.72,-285.06"/>
</g>
<!-- Node90 -->
<g id="node49" class="node">
<title>Node90</title>
<g id="a_node49"><a xlink:href="IDObject_8hpp.html" target="_top" xlink:title=" ">
<polygon fill="white" stroke="red" points="2525,-224.5 2525,-243.5 2605,-243.5 2605,-224.5 2525,-224.5"/>
<text text-anchor="middle" x="2565" y="-231.5" font-family="Helvetica,sans-Serif" font-size="10.00">IDObject.hpp</text>
</a>
</g>
</g>
<!-- Node46&#45;&gt;Node90 -->
<g id="edge78" class="edge">
<title>Node46&#45;&gt;Node90</title>
<path fill="none" stroke="midnightblue" d="M1286.8,-288.33C1479.73,-285.17 2269.83,-270.82 2516,-244 2518.92,-243.68 2521.93,-243.29 2524.96,-242.85"/>
<polygon fill="midnightblue" stroke="midnightblue" points="1286.7,-284.83 1276.76,-288.49 1286.82,-291.83 1286.7,-284.83"/>
</g>
<!-- Node47&#45;&gt;Node5 -->
<g id="edge20" class="edge">
<title>Node47&#45;&gt;Node5</title>
<path fill="none" stroke="midnightblue" d="M706.48,-214.1C706.43,-199.23 709.08,-179.22 722,-168 806.79,-94.39 1118.02,-162.8 1226,-132 1244.35,-126.76 1245.56,-116.93 1264,-112 1374.83,-82.35 2198.88,-70.03 2394.45,-67.5"/>
<polygon fill="midnightblue" stroke="midnightblue" points="702.99,-214.4 706.93,-224.24 709.99,-214.09 702.99,-214.4"/>
</g>
<!-- Node47&#45;&gt;Node28 -->
<g id="edge23" class="edge">
<title>Node47&#45;&gt;Node28</title>
<path fill="none" stroke="midnightblue" d="M696.04,-216.07C688,-202.41 680.31,-183.06 689,-168 719.26,-115.6 788.2,-87.96 829.95,-75.5"/>
<polygon fill="midnightblue" stroke="midnightblue" points="693.11,-217.98 701.47,-224.49 699,-214.19 693.11,-217.98"/>
</g>
<!-- Node47&#45;&gt;Node57 -->
<g id="edge18" class="edge">
<title>Node47&#45;&gt;Node57</title>
<path fill="none" stroke="midnightblue" d="M654.59,-222.47C602.8,-212.27 525.23,-196.98 477.21,-187.52"/>
<polygon fill="midnightblue" stroke="midnightblue" points="654.1,-225.94 664.58,-224.44 655.45,-219.08 654.1,-225.94"/>
</g>
<!-- Node47&#45;&gt;Node43 -->
<g id="edge21" class="edge">
<title>Node47&#45;&gt;Node43</title>
<path fill="none" stroke="midnightblue" d="M641.55,-225.89C573.38,-218.18 464.4,-204.71 371,-188 367.92,-187.45 364.71,-186.82 361.52,-186.16"/>
<polygon fill="midnightblue" stroke="midnightblue" points="641.38,-229.39 651.71,-227.03 642.17,-222.43 641.38,-229.39"/>
</g>
<!-- Node47&#45;&gt;Node58 -->
<g id="edge22" class="edge">
<title>Node47&#45;&gt;Node58</title>
<path fill="none" stroke="midnightblue" d="M670.48,-221.49C636.32,-211.01 586.83,-195.82 557.19,-186.73"/>
<polygon fill="midnightblue" stroke="midnightblue" points="669.53,-224.86 680.11,-224.44 671.58,-218.16 669.53,-224.86"/>
</g>
<!-- Node47&#45;&gt;Node60 -->
<g id="edge24" class="edge">
<title>Node47&#45;&gt;Node60</title>
<path fill="none" stroke="midnightblue" d="M682.67,-219.59C663.81,-209.61 638.62,-196.27 622.35,-187.65"/>
<polygon fill="midnightblue" stroke="midnightblue" points="681.14,-222.74 691.61,-224.32 684.41,-216.55 681.14,-222.74"/>
</g>
<!-- Node47&#45;&gt;Node54 -->
<g id="edge25" class="edge">
<title>Node47&#45;&gt;Node54</title>
<path fill="none" stroke="midnightblue" d="M728.14,-218.1C741.28,-208.38 757.98,-196.03 769.06,-187.83"/>
<polygon fill="midnightblue" stroke="midnightblue" points="725.69,-215.56 719.73,-224.32 729.85,-221.19 725.69,-215.56"/>
</g>
<!-- Node47&#45;&gt;Node38 -->
<g id="edge26" class="edge">
<title>Node47&#45;&gt;Node38</title>
<path fill="none" stroke="midnightblue" d="M746.12,-221.44C779.68,-211.26 827.77,-196.66 857.93,-187.52"/>
<polygon fill="midnightblue" stroke="midnightblue" points="744.76,-218.19 736.2,-224.44 746.79,-224.89 744.76,-218.19"/>
</g>
<!-- Node47&#45;&gt;Node64 -->
<g id="edge27" class="edge">
<title>Node47&#45;&gt;Node64</title>
<path fill="none" stroke="midnightblue" d="M765.39,-222.6C821.71,-212.4 906.56,-197.02 959,-187.52"/>
<polygon fill="midnightblue" stroke="midnightblue" points="764.43,-219.22 755.22,-224.44 765.68,-226.1 764.43,-219.22"/>
</g>
<!-- Node57&#45;&gt;Node32 -->
<g id="edge19" class="edge">
<title>Node57&#45;&gt;Node32</title>
<path fill="none" stroke="midnightblue" d="M398.52,-165.17C368.01,-155 324.76,-140.59 297.55,-131.52"/>
<polygon fill="midnightblue" stroke="midnightblue" points="397.74,-168.6 408.33,-168.44 399.95,-161.96 397.74,-168.6"/>
</g>
<!-- Node66&#45;&gt;Node10 -->
<g id="edge29" class="edge">
<title>Node66&#45;&gt;Node10</title>
<path fill="none" stroke="midnightblue" d="M1184.9,-167.27C1077.38,-143.46 810.01,-83.6 804,-76 798.49,-69.03 798.35,-62.86 804,-56 827.71,-27.23 935.01,-16.61 994.67,-12.88"/>
<polygon fill="midnightblue" stroke="midnightblue" points="1184.28,-170.72 1194.8,-169.46 1185.79,-163.88 1184.28,-170.72"/>
</g>
<!-- Node70&#45;&gt;Node66 -->
<g id="edge32" class="edge">
<title>Node70&#45;&gt;Node66</title>
<path fill="none" stroke="midnightblue" d="M1105.61,-221.17C1135.36,-211 1177.55,-196.59 1204.08,-187.52"/>
<polygon fill="midnightblue" stroke="midnightblue" points="1104.37,-217.9 1096.04,-224.44 1106.63,-224.52 1104.37,-217.9"/>
</g>
<!-- Node71&#45;&gt;Node44 -->
<g id="edge37" class="edge">
<title>Node71&#45;&gt;Node44</title>
<path fill="none" stroke="midnightblue" d="M1190.94,-226.91C1234.73,-218.37 1296.71,-200.16 1272,-168 1234.17,-118.76 1181.73,-175.07 1137,-132 1121.18,-116.77 1117.79,-89.36 1117.12,-75.51"/>
<polygon fill="midnightblue" stroke="midnightblue" points="1190.28,-223.47 1181.09,-228.73 1191.56,-230.36 1190.28,-223.47"/>
</g>
<!-- Node71&#45;&gt;Node66 -->
<g id="edge35" class="edge">
<title>Node71&#45;&gt;Node66</title>
<path fill="none" stroke="midnightblue" d="M1172.9,-218.34C1186.91,-208.52 1204.88,-195.91 1216.66,-187.65"/>
<polygon fill="midnightblue" stroke="midnightblue" points="1170.55,-215.72 1164.37,-224.32 1174.57,-221.45 1170.55,-215.72"/>
</g>
<!-- Node71&#45;&gt;Node69 -->
<g id="edge36" class="edge">
<title>Node71&#45;&gt;Node69</title>
<path fill="none" stroke="midnightblue" d="M1191.23,-224.14C1237.32,-213.72 1313.04,-196.62 1356.82,-186.72"/>
<polygon fill="midnightblue" stroke="midnightblue" points="1190.29,-220.76 1181.31,-226.38 1191.83,-227.59 1190.29,-220.76"/>
</g>
<!-- Node72 -->
<g id="node31" class="node">
<title>Node72</title>
<g id="a_node31"><a xlink:href="ArgumentMapper_8hpp.html" target="_top" xlink:title=" ">
<polygon fill="white" stroke="black" points="1273,-112.5 1273,-131.5 1395,-131.5 1395,-112.5 1273,-112.5"/>
<text text-anchor="middle" x="1334" y="-119.5" font-family="Helvetica,sans-Serif" font-size="10.00">ArgumentMapper.hpp</text>
</a>
</g>
</g>
<!-- Node71&#45;&gt;Node72 -->
<g id="edge34" class="edge">
<title>Node71&#45;&gt;Node72</title>
<path fill="none" stroke="midnightblue" d="M1190.97,-225.42C1230.43,-217.09 1287.98,-202.88 1305,-188 1322.3,-172.87 1329.77,-145.41 1332.56,-131.53"/>
<polygon fill="midnightblue" stroke="midnightblue" points="1190.2,-222.01 1181.12,-227.46 1191.62,-228.86 1190.2,-222.01"/>
</g>
<!-- Node73&#45;&gt;Node64 -->
<g id="edge39" class="edge">
<title>Node73&#45;&gt;Node64</title>
<path fill="none" stroke="midnightblue" d="M931.84,-219.45C950.11,-209.48 974.42,-196.23 990.13,-187.65"/>
<polygon fill="midnightblue" stroke="midnightblue" points="930.01,-216.46 922.91,-224.32 933.36,-222.61 930.01,-216.46"/>
</g>
<!-- Node74&#45;&gt;Node32 -->
<g id="edge41" class="edge">
<title>Node74&#45;&gt;Node32</title>
<path fill="none" stroke="midnightblue" d="M198.59,-163.45C216.68,-153.48 240.73,-140.23 256.29,-131.65"/>
<polygon fill="midnightblue" stroke="midnightblue" points="196.81,-160.43 189.75,-168.32 200.19,-166.56 196.81,-160.43"/>
</g>
<!-- Node75&#45;&gt;Node6 -->
<g id="edge45" class="edge">
<title>Node75&#45;&gt;Node6</title>
<path fill="none" stroke="midnightblue" d="M1647.5,-112.02C1951.26,-63.23 2306.81,-24.56 2407.95,-13.91"/>
<polygon fill="midnightblue" stroke="midnightblue" points="1646.93,-108.56 1637.62,-113.61 1648.05,-115.47 1646.93,-108.56"/>
</g>
<!-- Node80&#45;&gt;Node2 -->
<g id="edge50" class="edge">
<title>Node80&#45;&gt;Node2</title>
<path fill="none" stroke="midnightblue" d="M1247.08,-220.91C1219.44,-210.75 1180.66,-196.51 1156.18,-187.52"/>
<polygon fill="midnightblue" stroke="midnightblue" points="1246.11,-224.28 1256.71,-224.44 1248.53,-217.71 1246.11,-224.28"/>
</g>
<!-- Node80&#45;&gt;Node3 -->
<g id="edge51" class="edge">
<title>Node80&#45;&gt;Node3</title>
<path fill="none" stroke="midnightblue" d="M1327.65,-222.11C1370.4,-211.85 1427.41,-196.79 1434,-188 1439.33,-180.89 1439.71,-174.81 1434,-168 1420.16,-151.48 1283.04,-134.26 1216.66,-126.81"/>
<polygon fill="midnightblue" stroke="midnightblue" points="1326.6,-218.76 1317.68,-224.47 1328.21,-225.57 1326.6,-218.76"/>
</g>
<!-- Node80&#45;&gt;Node81 -->
<g id="edge52" class="edge">
<title>Node80&#45;&gt;Node81</title>
<path fill="none" stroke="midnightblue" d="M1329.03,-222.28C1375.7,-212.08 1445.03,-196.92 1488.05,-187.52"/>
<polygon fill="midnightblue" stroke="midnightblue" points="1328.16,-218.89 1319.14,-224.44 1329.65,-225.73 1328.16,-218.89"/>
</g>
<!-- Node80&#45;&gt;Node83 -->
<g id="edge58" class="edge">
<title>Node80&#45;&gt;Node83</title>
<path fill="none" stroke="midnightblue" d="M1332.7,-224.05C1332.8,-224.03 1332.9,-224.02 1333,-224 1443.46,-206.64 1476.25,-224.33 1582,-188 1622.29,-174.16 1664.55,-145.86 1684.4,-131.6"/>
<polygon fill="midnightblue" stroke="midnightblue" points="1332.4,-220.55 1323.08,-225.59 1333.51,-227.46 1332.4,-220.55"/>
</g>
<!-- Node81&#45;&gt;Node3 -->
<g id="edge54" class="edge">
<title>Node81&#45;&gt;Node3</title>
<path fill="none" stroke="midnightblue" d="M1471.21,-168.29C1399.48,-157.1 1277.01,-137.98 1216.7,-128.57"/>
<polygon fill="midnightblue" stroke="midnightblue" points="1470.99,-171.8 1481.41,-169.88 1472.07,-164.88 1470.99,-171.8"/>
</g>
<!-- Node81&#45;&gt;Node30 -->
<g id="edge56" class="edge">
<title>Node81&#45;&gt;Node30</title>
<path fill="none" stroke="midnightblue" d="M1501.75,-163.51C1467.24,-145.09 1408.99,-114.09 1404,-112 1328.3,-80.25 1308.77,-70.63 1228,-56 1068.02,-27.03 572.72,-15.37 396.25,-12.06"/>
<polygon fill="midnightblue" stroke="midnightblue" points="1500.33,-166.72 1510.8,-168.34 1503.62,-160.54 1500.33,-166.72"/>
</g>
<!-- Node81&#45;&gt;Node72 -->
<g id="edge53" class="edge">
<title>Node81&#45;&gt;Node72</title>
<path fill="none" stroke="midnightblue" d="M1486.61,-165.7C1450.18,-155.51 1397.41,-140.74 1364.44,-131.52"/>
<polygon fill="midnightblue" stroke="midnightblue" points="1485.85,-169.12 1496.42,-168.44 1487.73,-162.38 1485.85,-169.12"/>
</g>
<!-- Node82 -->
<g id="node39" class="node">
<title>Node82</title>
<g id="a_node39"><a xlink:href="OptionalRef_8hpp.html" target="_top" xlink:title=" ">
<polygon fill="white" stroke="black" points="1451.5,-112.5 1451.5,-131.5 1546.5,-131.5 1546.5,-112.5 1451.5,-112.5"/>
<text text-anchor="middle" x="1499" y="-119.5" font-family="Helvetica,sans-Serif" font-size="10.00">OptionalRef.hpp</text>
</a>
</g>
</g>
<!-- Node81&#45;&gt;Node82 -->
<g id="edge55" class="edge">
<title>Node81&#45;&gt;Node82</title>
<path fill="none" stroke="midnightblue" d="M1517.66,-158.98C1512.91,-149.82 1507.34,-139.09 1503.54,-131.75"/>
<polygon fill="midnightblue" stroke="midnightblue" points="1514.67,-160.82 1522.38,-168.08 1520.88,-157.59 1514.67,-160.82"/>
</g>
<!-- Node81&#45;&gt;Node83 -->
<g id="edge57" class="edge">
<title>Node81&#45;&gt;Node83</title>
<path fill="none" stroke="midnightblue" d="M1563.6,-165.3C1595.45,-155.13 1640.84,-140.62 1669.35,-131.52"/>
<polygon fill="midnightblue" stroke="midnightblue" points="1562.24,-162.07 1553.78,-168.44 1564.37,-168.73 1562.24,-162.07"/>
</g>
<!-- Node84&#45;&gt;Node5 -->
<g id="edge61" class="edge">
<title>Node84&#45;&gt;Node5</title>
<path fill="none" stroke="midnightblue" d="M2606.88,-110.32C2566.67,-100.13 2506.86,-84.96 2469.71,-75.55"/>
<polygon fill="midnightblue" stroke="midnightblue" points="2606.1,-113.73 2616.65,-112.8 2607.82,-106.95 2606.1,-113.73"/>
</g>
</g>
</svg>
