<?xml version="1.0" encoding="UTF-8" standalone="no"?>
<!DOCTYPE svg PUBLIC "-//W3C//DTD SVG 1.1//EN"
 "http://www.w3.org/Graphics/SVG/1.1/DTD/svg11.dtd">
<!-- Generated by graphviz version 2.43.0 (0)
 -->
<!-- Title: DynamicArray.hpp Pages: 1 -->
<!--zoomable 588 -->

<svg id="main" version="1.1" xmlns="http://www.w3.org/2000/svg" xmlns:xlink="http://www.w3.org/1999/xlink" xml:space="preserve" onload="init(evt)">
<style type="text/css"><![CDATA[
.node, .edge {opacity: 0.7;}
.node.selected, .edge.selected {opacity: 1;}
.edge:hover path { stroke: red; }
.edge:hover polygon { stroke: red; fill: red; }
]]></style>

<defs>
  <circle id="rim" cx="0" cy="0" r="7"/>
  <circle id="rim2" cx="0" cy="0" r="3.5"/>
  <g id="zoomPlus">
    <use xlink:href="#rim" fill="#404040"><set attributeName="fill" to="#808080" begin="zoomplus.mouseover" end="zoomplus.mouseout"/></use>
    <path d="M-4,0h8M0,-4v8" fill="none" stroke="white" stroke-width="1.5" pointer-events="none"/>
  </g>
  <g id="zoomMin">
    <use xlink:href="#rim" fill="#404040"><set attributeName="fill" to="#808080" begin="zoomminus.mouseover" end="zoomminus.mouseout"/></use>
    <path d="M-4,0h8" fill="none" stroke="white" stroke-width="1.5" pointer-events="none"/>
  </g>
  <g id="arrowUp" transform="translate(30 24)">
    <use xlink:href="#rim"/>
    <path pointer-events="none" fill="none" stroke="white" stroke-width="1.5" d="M0,-3.0v7 M-2.5,-0.5L0,-3.0L2.5,-0.5"/>
  </g>
  <g id="arrowRight" transform="rotate(90) translate(36 -43)">
    <use xlink:href="#rim"/>
    <path pointer-events="none" fill="none" stroke="white" stroke-width="1.5" d="M0,-3.0v7 M-2.5,-0.5L0,-3.0L2.5,-0.5"/>
  </g>
  <g id="arrowDown" transform="rotate(180) translate(-30 -48)">
    <use xlink:href="#rim"/>
    <path pointer-events="none" fill="none" stroke="white" stroke-width="1.5" d="M0,-3.0v7 M-2.5,-0.5L0,-3.0L2.5,-0.5"/>
  </g>
  <g id="arrowLeft" transform="rotate(270) translate(-36 17)">
    <use xlink:href="#rim"/>
    <path pointer-events="none" fill="none" stroke="white" stroke-width="1.5" d="M0,-3.0v7 M-2.5,-0.5L0,-3.0L2.5,-0.5"/>
  </g>
  <g id="resetDef">
    <use xlink:href="#rim2" fill="#404040"><set attributeName="fill" to="#808080" begin="reset.mouseover" end="reset.mouseout"/></use>
  </g>
</defs>
<script type="application/ecmascript">
var viewWidth = 1077;
var viewHeight = 588;
var sectionId = 'dynsection-0';
</script>
<script type="application/ecmascript" xlink:href="svg.min.js"/>
<svg id="graph" class="graph">
<g id="viewport">
<title>DynamicArray.hpp</title>
<!-- Node1 -->
<g id="Node000001" class="node">
<title>Node1</title>
<g id="a_Node000001"><a xlink:title=" ">
<polygon fill="#999999" stroke="#666666" points="745.5,-580 639.5,-580 639.5,-561 745.5,-561 745.5,-580"/>
<text text-anchor="middle" x="692.5" y="-568" font-family="Helvetica,sans-Serif" font-size="10.00">DynamicArray.hpp</text>
</a>
</g>
</g>
<!-- Node2 -->
<g id="Node000002" class="node">
<title>Node2</title>
<g id="a_Node000002"><a xlink:href="STLContainerBase_8hpp.html" target="_top" xlink:title=" ">
<polygon fill="white" stroke="#666666" points="708.5,-525 562.5,-525 562.5,-495 708.5,-495 708.5,-525"/>
<text text-anchor="start" x="570.5" y="-513" font-family="Helvetica,sans-Serif" font-size="10.00">packages/stl_extension</text>
<text text-anchor="middle" x="635.5" y="-502" font-family="Helvetica,sans-Serif" font-size="10.00">/inc/STLContainerBase.hpp</text>
</a>
</g>
</g>
<!-- Node1&#45;&gt;Node2 -->
<g id="edge1_Node000001_Node000002" class="edge">
<title>Node1&#45;&gt;Node2</title>
<g id="a_edge1_Node000001_Node000002"><a xlink:title=" ">
<path fill="none" stroke="#63b8ff" d="M684.09,-560.87C676.78,-553.37 665.9,-542.2 656.28,-532.33"/>
<polygon fill="#63b8ff" stroke="#63b8ff" points="658.74,-529.83 649.25,-525.11 653.72,-534.72 658.74,-529.83"/>
</a>
</g>
</g>
<!-- Node36 -->
<g id="Node000036" class="node">
<title>Node36</title>
<g id="a_Node000036"><a xlink:title=" ">
<polygon fill="#e0e0e0" stroke="#999999" points="774,-519.5 727,-519.5 727,-500.5 774,-500.5 774,-519.5"/>
<text text-anchor="middle" x="750.5" y="-507.5" font-family="Helvetica,sans-Serif" font-size="10.00">vector</text>
</a>
</g>
</g>
<!-- Node1&#45;&gt;Node36 -->
<g id="edge52_Node000001_Node000036" class="edge">
<title>Node1&#45;&gt;Node36</title>
<g id="a_edge52_Node000001_Node000036"><a xlink:title=" ">
<path fill="none" stroke="#63b8ff" d="M701.06,-560.87C709.88,-551.97 723.84,-537.89 734.68,-526.95"/>
<polygon fill="#63b8ff" stroke="#63b8ff" points="737.35,-529.23 741.91,-519.67 732.38,-524.3 737.35,-529.23"/>
</a>
</g>
</g>
<!-- Node3 -->
<g id="Node000003" class="node">
<title>Node3</title>
<g id="a_Node000003"><a xlink:href="container__concepts_8hpp.html" target="_top" xlink:title=" ">
<polygon fill="white" stroke="#666666" points="795,-393 660,-393 660,-352 795,-352 795,-393"/>
<text text-anchor="start" x="668" y="-381" font-family="Helvetica,sans-Serif" font-size="10.00">packages/compile_time</text>
<text text-anchor="start" x="668" y="-370" font-family="Helvetica,sans-Serif" font-size="10.00">/packages/concepts/inc</text>
<text text-anchor="middle" x="727.5" y="-359" font-family="Helvetica,sans-Serif" font-size="10.00">/container_concepts.hpp</text>
</a>
</g>
</g>
<!-- Node2&#45;&gt;Node3 -->
<g id="edge2_Node000002_Node000003" class="edge">
<title>Node2&#45;&gt;Node3</title>
<g id="a_edge2_Node000002_Node000003"><a xlink:title=" ">
<path fill="none" stroke="#63b8ff" d="M645.17,-494.76C660.14,-472.71 689.2,-429.92 708.48,-401.52"/>
<polygon fill="#63b8ff" stroke="#63b8ff" points="711.4,-403.45 714.12,-393.21 705.61,-399.52 711.4,-403.45"/>
</a>
</g>
</g>
<!-- Node6 -->
<g id="Node000006" class="node">
<title>Node6</title>
<g id="a_Node000006"><a xlink:href="types_8hpp.html" target="_top" xlink:title=" ">
<polygon fill="white" stroke="#666666" points="566.5,-162 456.5,-162 456.5,-132 566.5,-132 566.5,-162"/>
<text text-anchor="start" x="464.5" y="-150" font-family="Helvetica,sans-Serif" font-size="10.00">packages/types/inc</text>
<text text-anchor="middle" x="511.5" y="-139" font-family="Helvetica,sans-Serif" font-size="10.00">/types.hpp</text>
</a>
</g>
</g>
<!-- Node2&#45;&gt;Node6 -->
<g id="edge29_Node000002_Node000006" class="edge">
<title>Node2&#45;&gt;Node6</title>
<g id="a_edge29_Node000002_Node000006"><a xlink:title=" ">
<path fill="none" stroke="#63b8ff" d="M562.24,-502.71C459.52,-489.21 279.62,-447.03 229.5,-316 222.99,-298.98 221.27,-291.26 229.5,-275 241.7,-250.89 258.34,-256.99 278.5,-239 297.04,-222.46 295.15,-210.71 316.5,-198 356,-174.47 406.4,-161.92 446.06,-155.28"/>
<polygon fill="#63b8ff" stroke="#63b8ff" points="446.83,-158.7 456.16,-153.68 445.73,-151.79 446.83,-158.7"/>
</a>
</g>
</g>
<!-- Node24 -->
<g id="Node000024" class="node">
<title>Node24</title>
<g id="a_Node000024"><a xlink:href="typedefs_8hpp.html" target="_top" xlink:title=" ">
<polygon fill="white" stroke="#666666" points="830,-459 711,-459 711,-429 830,-429 830,-459"/>
<text text-anchor="start" x="719" y="-447" font-family="Helvetica,sans-Serif" font-size="10.00">packages/macros/inc</text>
<text text-anchor="middle" x="770.5" y="-436" font-family="Helvetica,sans-Serif" font-size="10.00">/typedefs.hpp</text>
</a>
</g>
</g>
<!-- Node2&#45;&gt;Node24 -->
<g id="edge27_Node000002_Node000024" class="edge">
<title>Node2&#45;&gt;Node24</title>
<g id="a_edge27_Node000002_Node000024"><a xlink:title=" ">
<path fill="none" stroke="#63b8ff" d="M665.13,-494.95C684.73,-485.66 710.64,-473.38 731.87,-463.32"/>
<polygon fill="#63b8ff" stroke="#63b8ff" points="733.41,-466.46 740.94,-459.01 730.41,-460.13 733.41,-466.46"/>
</a>
</g>
</g>
<!-- Node25 -->
<g id="Node000025" class="node">
<title>Node25</title>
<g id="a_Node000025"><a xlink:href="exceptions_8hpp.html" target="_top" xlink:title=" ">
<polygon fill="white" stroke="#666666" points="357,-310.5 238,-310.5 238,-280.5 357,-280.5 357,-310.5"/>
<text text-anchor="start" x="246" y="-298.5" font-family="Helvetica,sans-Serif" font-size="10.00">packages/macros/inc</text>
<text text-anchor="middle" x="297.5" y="-287.5" font-family="Helvetica,sans-Serif" font-size="10.00">/exceptions.hpp</text>
</a>
</g>
</g>
<!-- Node2&#45;&gt;Node25 -->
<g id="edge30_Node000002_Node000025" class="edge">
<title>Node2&#45;&gt;Node25</title>
<g id="a_edge30_Node000002_Node000025"><a xlink:title=" ">
<path fill="none" stroke="#63b8ff" d="M562.47,-506.99C482.82,-500.42 358.67,-476.43 298.5,-393 283.49,-372.19 286.08,-341.75 290.58,-320.64"/>
<polygon fill="#63b8ff" stroke="#63b8ff" points="294.01,-321.38 292.96,-310.84 287.2,-319.73 294.01,-321.38"/>
</a>
</g>
</g>
<!-- Node31 -->
<g id="Node000031" class="node">
<title>Node31</title>
<g id="a_Node000031"><a xlink:href="resize_8hpp.html" target="_top" xlink:title=" ">
<polygon fill="white" stroke="#666666" points="654,-459 523,-459 523,-429 654,-429 654,-459"/>
<text text-anchor="start" x="531" y="-447" font-family="Helvetica,sans-Serif" font-size="10.00">packages/stl_extension</text>
<text text-anchor="middle" x="588.5" y="-436" font-family="Helvetica,sans-Serif" font-size="10.00">/inc/resize.hpp</text>
</a>
</g>
</g>
<!-- Node2&#45;&gt;Node31 -->
<g id="edge41_Node000002_Node000031" class="edge">
<title>Node2&#45;&gt;Node31</title>
<g id="a_edge41_Node000002_Node000031"><a xlink:title=" ">
<path fill="none" stroke="#63b8ff" d="M625.07,-494.8C619.17,-486.76 611.65,-476.53 604.97,-467.43"/>
<polygon fill="#63b8ff" stroke="#63b8ff" points="607.64,-465.15 598.9,-459.16 602,-469.3 607.64,-465.15"/>
</a>
</g>
</g>
<!-- Node35 -->
<g id="Node000035" class="node">
<title>Node35</title>
<g id="a_Node000035"><a xlink:title=" ">
<polygon fill="#e0e0e0" stroke="#999999" points="912.5,-453.5 848.5,-453.5 848.5,-434.5 912.5,-434.5 912.5,-453.5"/>
<text text-anchor="middle" x="880.5" y="-441.5" font-family="Helvetica,sans-Serif" font-size="10.00">algorithm</text>
</a>
</g>
</g>
<!-- Node2&#45;&gt;Node35 -->
<g id="edge51_Node000002_Node000035" class="edge">
<title>Node2&#45;&gt;Node35</title>
<g id="a_edge51_Node000002_Node000035"><a xlink:title=" ">
<path fill="none" stroke="#63b8ff" d="M699.29,-494.9C739.71,-485.59 792.95,-472.62 839.5,-459 841.96,-458.28 844.5,-457.5 847.04,-456.7"/>
<polygon fill="#63b8ff" stroke="#63b8ff" points="848.36,-459.95 856.77,-453.5 846.17,-453.3 848.36,-459.95"/>
</a>
</g>
</g>
<!-- Node4 -->
<g id="Node000004" class="node">
<title>Node4</title>
<g id="a_Node000004"><a xlink:href="iterator__concepts_8hpp.html" target="_top" xlink:title=" ">
<polygon fill="white" stroke="#666666" points="846.5,-316 714.5,-316 714.5,-275 846.5,-275 846.5,-316"/>
<text text-anchor="start" x="722.5" y="-304" font-family="Helvetica,sans-Serif" font-size="10.00">packages/compile_time</text>
<text text-anchor="start" x="722.5" y="-293" font-family="Helvetica,sans-Serif" font-size="10.00">/packages/concepts/inc</text>
<text text-anchor="middle" x="780.5" y="-282" font-family="Helvetica,sans-Serif" font-size="10.00">/iterator_concepts.hpp</text>
</a>
</g>
</g>
<!-- Node3&#45;&gt;Node4 -->
<g id="edge3_Node000003_Node000004" class="edge">
<title>Node3&#45;&gt;Node4</title>
<g id="a_edge3_Node000003_Node000004"><a xlink:title=" ">
<path fill="none" stroke="#63b8ff" d="M741.43,-351.79C747.33,-343.44 754.32,-333.55 760.74,-324.47"/>
<polygon fill="#63b8ff" stroke="#63b8ff" points="763.76,-326.26 766.67,-316.07 758.04,-322.22 763.76,-326.26"/>
</a>
</g>
</g>
<!-- Node5 -->
<g id="Node000005" class="node">
<title>Node5</title>
<g id="a_Node000005"><a xlink:href="basic__concepts_8hpp.html" target="_top" xlink:title=" ">
<polygon fill="white" stroke="#666666" points="1011.5,-239 879.5,-239 879.5,-198 1011.5,-198 1011.5,-239"/>
<text text-anchor="start" x="887.5" y="-227" font-family="Helvetica,sans-Serif" font-size="10.00">packages/compile_time</text>
<text text-anchor="start" x="887.5" y="-216" font-family="Helvetica,sans-Serif" font-size="10.00">/packages/concepts/inc</text>
<text text-anchor="middle" x="945.5" y="-205" font-family="Helvetica,sans-Serif" font-size="10.00">/basic_concepts.hpp</text>
</a>
</g>
</g>
<!-- Node4&#45;&gt;Node5 -->
<g id="edge4_Node000004_Node000005" class="edge">
<title>Node4&#45;&gt;Node5</title>
<g id="a_edge4_Node000004_Node000005"><a xlink:title=" ">
<path fill="none" stroke="#63b8ff" d="M823.42,-274.99C844.73,-265.31 870.65,-253.52 893.11,-243.31"/>
<polygon fill="#63b8ff" stroke="#63b8ff" points="894.85,-246.37 902.51,-239.04 891.96,-239.99 894.85,-246.37"/>
</a>
</g>
</g>
<!-- Node19 -->
<g id="Node000019" class="node">
<title>Node19</title>
<g id="a_Node000019"><a xlink:href="Size_8hpp.html" target="_top" xlink:title=" ">
<polygon fill="white" stroke="#666666" points="585.5,-239 437.5,-239 437.5,-198 585.5,-198 585.5,-239"/>
<text text-anchor="start" x="445.5" y="-227" font-family="Helvetica,sans-Serif" font-size="10.00">packages/compile_time</text>
<text text-anchor="start" x="445.5" y="-216" font-family="Helvetica,sans-Serif" font-size="10.00">/packages/parameter_pack</text>
<text text-anchor="middle" x="511.5" y="-205" font-family="Helvetica,sans-Serif" font-size="10.00">/inc/Size.hpp</text>
</a>
</g>
</g>
<!-- Node4&#45;&gt;Node19 -->
<g id="edge19_Node000004_Node000019" class="edge">
<title>Node4&#45;&gt;Node19</title>
<g id="a_edge19_Node000004_Node000019"><a xlink:title=" ">
<path fill="none" stroke="#63b8ff" d="M714.35,-276.06C677.21,-265.7 630.59,-252.7 591.42,-241.78"/>
<polygon fill="#63b8ff" stroke="#63b8ff" points="592.2,-238.37 581.63,-239.05 590.32,-245.11 592.2,-238.37"/>
</a>
</g>
</g>
<!-- Node20 -->
<g id="Node000020" class="node">
<title>Node20</title>
<g id="a_Node000020"><a xlink:href="Select_8hpp.html" target="_top" xlink:title=" ">
<polygon fill="white" stroke="#666666" points="751.5,-239 603.5,-239 603.5,-198 751.5,-198 751.5,-239"/>
<text text-anchor="start" x="611.5" y="-227" font-family="Helvetica,sans-Serif" font-size="10.00">packages/compile_time</text>
<text text-anchor="start" x="611.5" y="-216" font-family="Helvetica,sans-Serif" font-size="10.00">/packages/parameter_pack</text>
<text text-anchor="middle" x="677.5" y="-205" font-family="Helvetica,sans-Serif" font-size="10.00">/inc/Select.hpp</text>
</a>
</g>
</g>
<!-- Node4&#45;&gt;Node20 -->
<g id="edge21_Node000004_Node000020" class="edge">
<title>Node4&#45;&gt;Node20</title>
<g id="a_edge21_Node000004_Node000020"><a xlink:title=" ">
<path fill="none" stroke="#63b8ff" d="M753.71,-274.99C741.17,-265.86 726.07,-254.87 712.63,-245.08"/>
<polygon fill="#63b8ff" stroke="#63b8ff" points="714.66,-242.23 704.52,-239.17 710.54,-247.89 714.66,-242.23"/>
</a>
</g>
</g>
<!-- Node22 -->
<g id="Node000022" class="node">
<title>Node22</title>
<g id="a_Node000022"><a xlink:title=" ">
<polygon fill="#e0e0e0" stroke="#999999" points="861,-228 808,-228 808,-209 861,-209 861,-228"/>
<text text-anchor="middle" x="834.5" y="-216" font-family="Helvetica,sans-Serif" font-size="10.00">iterator</text>
</a>
</g>
</g>
<!-- Node4&#45;&gt;Node22 -->
<g id="edge25_Node000004_Node000022" class="edge">
<title>Node4&#45;&gt;Node22</title>
<g id="a_edge25_Node000004_Node000022"><a xlink:title=" ">
<path fill="none" stroke="#63b8ff" d="M794.69,-274.79C803.27,-262.88 814.1,-247.84 822.29,-236.45"/>
<polygon fill="#63b8ff" stroke="#63b8ff" points="825.21,-238.4 828.21,-228.24 819.53,-234.31 825.21,-238.4"/>
</a>
</g>
</g>
<!-- Node23 -->
<g id="Node000023" class="node">
<title>Node23</title>
<g id="a_Node000023"><a xlink:title=" ">
<polygon fill="#e0e0e0" stroke="#999999" points="1068.5,-156.5 1010.5,-156.5 1010.5,-137.5 1068.5,-137.5 1068.5,-156.5"/>
<text text-anchor="middle" x="1039.5" y="-144.5" font-family="Helvetica,sans-Serif" font-size="10.00">memory</text>
</a>
</g>
</g>
<!-- Node4&#45;&gt;Node23 -->
<g id="edge26_Node000004_Node000023" class="edge">
<title>Node4&#45;&gt;Node23</title>
<g id="a_edge26_Node000004_Node000023"><a xlink:title=" ">
<path fill="none" stroke="#63b8ff" d="M846.63,-287.22C909.08,-278.97 996.61,-263.41 1020.5,-239 1039.26,-219.83 1041.67,-187.19 1041.05,-166.65"/>
<polygon fill="#63b8ff" stroke="#63b8ff" points="1044.55,-166.44 1040.48,-156.65 1037.56,-166.84 1044.55,-166.44"/>
</a>
</g>
</g>
<!-- Node5&#45;&gt;Node6 -->
<g id="edge5_Node000005_Node000006" class="edge">
<title>Node5&#45;&gt;Node6</title>
<g id="a_edge5_Node000005_Node000006"><a xlink:title=" ">
<path fill="none" stroke="#63b8ff" d="M879.34,-199.85C876.36,-199.2 873.4,-198.58 870.5,-198 768.73,-177.75 649.12,-162.85 576.88,-154.8"/>
<polygon fill="#63b8ff" stroke="#63b8ff" points="576.89,-151.28 566.57,-153.66 576.13,-158.24 576.89,-151.28"/>
</a>
</g>
</g>
<!-- Node12 -->
<g id="Node000012" class="node">
<title>Node12</title>
<g id="a_Node000012"><a xlink:title=" ">
<polygon fill="#e0e0e0" stroke="#999999" points="966,-90.5 897,-90.5 897,-71.5 966,-71.5 966,-90.5"/>
<text text-anchor="middle" x="931.5" y="-78.5" font-family="Helvetica,sans-Serif" font-size="10.00">type_traits</text>
</a>
</g>
</g>
<!-- Node5&#45;&gt;Node12 -->
<g id="edge16_Node000005_Node000012" class="edge">
<title>Node5&#45;&gt;Node12</title>
<g id="a_edge16_Node000005_Node000012"><a xlink:title=" ">
<path fill="none" stroke="#63b8ff" d="M952.41,-197.93C957.6,-180.47 962.95,-154.28 957.5,-132 954.67,-120.43 948.66,-108.56 943.12,-99.29"/>
<polygon fill="#63b8ff" stroke="#63b8ff" points="945.99,-97.27 937.68,-90.69 940.07,-101.01 945.99,-97.27"/>
</a>
</g>
</g>
<!-- Node16 -->
<g id="Node000016" class="node">
<title>Node16</title>
<g id="a_Node000016"><a xlink:title=" ">
<polygon fill="#e0e0e0" stroke="#999999" points="809.5,-156.5 749.5,-156.5 749.5,-137.5 809.5,-137.5 809.5,-156.5"/>
<text text-anchor="middle" x="779.5" y="-144.5" font-family="Helvetica,sans-Serif" font-size="10.00">concepts</text>
</a>
</g>
</g>
<!-- Node5&#45;&gt;Node16 -->
<g id="edge15_Node000005_Node000016" class="edge">
<title>Node5&#45;&gt;Node16</title>
<g id="a_edge15_Node000005_Node000016"><a xlink:title=" ">
<path fill="none" stroke="#63b8ff" d="M898.82,-197.96C870.03,-185.9 833.99,-170.81 809.09,-160.39"/>
<polygon fill="#63b8ff" stroke="#63b8ff" points="810.39,-157.14 799.81,-156.5 807.68,-163.59 810.39,-157.14"/>
</a>
</g>
</g>
<!-- Node17 -->
<g id="Node000017" class="node">
<title>Node17</title>
<g id="a_Node000017"><a xlink:title=" ">
<polygon fill="#e0e0e0" stroke="#999999" points="884.5,-156.5 834.5,-156.5 834.5,-137.5 884.5,-137.5 884.5,-156.5"/>
<text text-anchor="middle" x="859.5" y="-144.5" font-family="Helvetica,sans-Serif" font-size="10.00">cstdint</text>
</a>
</g>
</g>
<!-- Node5&#45;&gt;Node17 -->
<g id="edge17_Node000005_Node000017" class="edge">
<title>Node5&#45;&gt;Node17</title>
<g id="a_edge17_Node000005_Node000017"><a xlink:title=" ">
<path fill="none" stroke="#63b8ff" d="M921.09,-197.77C907.53,-186.81 890.92,-173.39 878.37,-163.25"/>
<polygon fill="#63b8ff" stroke="#63b8ff" points="880.39,-160.38 870.41,-156.82 875.99,-165.83 880.39,-160.38"/>
</a>
</g>
</g>
<!-- Node18 -->
<g id="Node000018" class="node">
<title>Node18</title>
<g id="a_Node000018"><a xlink:title=" ">
<polygon fill="#e0e0e0" stroke="#999999" points="948,-156.5 903,-156.5 903,-137.5 948,-137.5 948,-156.5"/>
<text text-anchor="middle" x="925.5" y="-144.5" font-family="Helvetica,sans-Serif" font-size="10.00">utility</text>
</a>
</g>
</g>
<!-- Node5&#45;&gt;Node18 -->
<g id="edge18_Node000005_Node000018" class="edge">
<title>Node5&#45;&gt;Node18</title>
<g id="a_edge18_Node000005_Node000018"><a xlink:title=" ">
<path fill="none" stroke="#63b8ff" d="M939.82,-197.77C937,-187.97 933.62,-176.2 930.84,-166.57"/>
<polygon fill="#63b8ff" stroke="#63b8ff" points="934.17,-165.46 928.04,-156.82 927.44,-167.4 934.17,-165.46"/>
</a>
</g>
</g>
<!-- Node7 -->
<g id="Node000007" class="node">
<title>Node7</title>
<g id="a_Node000007"><a xlink:href="debug_8hpp.html" target="_top" xlink:title=" ">
<polygon fill="white" stroke="#666666" points="789,-96 670,-96 670,-66 789,-66 789,-96"/>
<text text-anchor="start" x="678" y="-84" font-family="Helvetica,sans-Serif" font-size="10.00">packages/macros/inc</text>
<text text-anchor="middle" x="729.5" y="-73" font-family="Helvetica,sans-Serif" font-size="10.00">/debug.hpp</text>
</a>
</g>
</g>
<!-- Node6&#45;&gt;Node7 -->
<g id="edge6_Node000006_Node000007" class="edge">
<title>Node6&#45;&gt;Node7</title>
<g id="a_edge6_Node000006_Node000007"><a xlink:title=" ">
<path fill="none" stroke="#63b8ff" d="M559.34,-131.95C592.56,-122.2 637,-109.16 672.13,-98.84"/>
<polygon fill="#63b8ff" stroke="#63b8ff" points="673.16,-102.19 681.77,-96.01 671.19,-95.47 673.16,-102.19"/>
</a>
</g>
</g>
<!-- Node10 -->
<g id="Node000010" class="node">
<title>Node10</title>
<g id="a_Node000010"><a xlink:title=" ">
<polygon fill="#e0e0e0" stroke="#999999" points="583,-90.5 530,-90.5 530,-71.5 583,-71.5 583,-90.5"/>
<text text-anchor="middle" x="556.5" y="-78.5" font-family="Helvetica,sans-Serif" font-size="10.00">cstddef</text>
</a>
</g>
</g>
<!-- Node6&#45;&gt;Node10 -->
<g id="edge9_Node000006_Node000010" class="edge">
<title>Node6&#45;&gt;Node10</title>
<g id="a_edge9_Node000006_Node000010"><a xlink:title=" ">
<path fill="none" stroke="#63b8ff" d="M521.49,-131.8C528.23,-122.21 537.16,-109.5 544.32,-99.32"/>
<polygon fill="#63b8ff" stroke="#63b8ff" points="547.39,-101.04 550.28,-90.84 541.67,-97.01 547.39,-101.04"/>
</a>
</g>
</g>
<!-- Node11 -->
<g id="Node000011" class="node">
<title>Node11</title>
<g id="a_Node000011"><a xlink:title=" ">
<polygon fill="#e0e0e0" stroke="#999999" points="239.5,-90.5 195.5,-90.5 195.5,-71.5 239.5,-71.5 239.5,-90.5"/>
<text text-anchor="middle" x="217.5" y="-78.5" font-family="Helvetica,sans-Serif" font-size="10.00">string</text>
</a>
</g>
</g>
<!-- Node6&#45;&gt;Node11 -->
<g id="edge10_Node000006_Node000011" class="edge">
<title>Node6&#45;&gt;Node11</title>
<g id="a_edge10_Node000006_Node000011"><a xlink:title=" ">
<path fill="none" stroke="#63b8ff" d="M456.25,-136.95C391.21,-126.04 287.26,-107.7 249.5,-96 247.87,-95.49 246.21,-94.93 244.54,-94.33"/>
<polygon fill="#63b8ff" stroke="#63b8ff" points="245.76,-91.04 235.17,-90.57 243.15,-97.54 245.76,-91.04"/>
</a>
</g>
</g>
<!-- Node6&#45;&gt;Node12 -->
<g id="edge11_Node000006_Node000012" class="edge">
<title>Node6&#45;&gt;Node12</title>
<g id="a_edge11_Node000006_Node000012"><a xlink:title=" ">
<path fill="none" stroke="#63b8ff" d="M566.84,-137.57C651.05,-124.74 809.7,-100.56 886.96,-88.79"/>
<polygon fill="#63b8ff" stroke="#63b8ff" points="887.5,-92.25 896.86,-87.28 886.45,-85.32 887.5,-92.25"/>
</a>
</g>
</g>
<!-- Node13 -->
<g id="Node000013" class="node">
<title>Node13</title>
<g id="a_Node000013"><a xlink:title=" ">
<polygon fill="#e0e0e0" stroke="#999999" points="651.5,-90.5 601.5,-90.5 601.5,-71.5 651.5,-71.5 651.5,-90.5"/>
<text text-anchor="middle" x="626.5" y="-78.5" font-family="Helvetica,sans-Serif" font-size="10.00">climits</text>
</a>
</g>
</g>
<!-- Node6&#45;&gt;Node13 -->
<g id="edge12_Node000006_Node000013" class="edge">
<title>Node6&#45;&gt;Node13</title>
<g id="a_edge12_Node000006_Node000013"><a xlink:title=" ">
<path fill="none" stroke="#63b8ff" d="M536.74,-131.95C556.28,-121.08 583.18,-106.11 602.43,-95.4"/>
<polygon fill="#63b8ff" stroke="#63b8ff" points="604.16,-98.44 611.2,-90.52 600.76,-92.32 604.16,-98.44"/>
</a>
</g>
</g>
<!-- Node14 -->
<g id="Node000014" class="node">
<title>Node14</title>
<g id="a_Node000014"><a xlink:title=" ">
<polygon fill="#e0e0e0" stroke="#999999" points="375,-96 258,-96 258,-66 375,-66 375,-96"/>
<text text-anchor="start" x="266" y="-84" font-family="Helvetica,sans-Serif" font-size="10.00">packages/types/impl</text>
<text text-anchor="middle" x="316.5" y="-73" font-family="Helvetica,sans-Serif" font-size="10.00">/types_impl.hpp</text>
</a>
</g>
</g>
<!-- Node6&#45;&gt;Node14 -->
<g id="edge13_Node000006_Node000014" class="edge">
<title>Node6&#45;&gt;Node14</title>
<g id="a_edge13_Node000006_Node000014"><a xlink:title=" ">
<path fill="none" stroke="#63b8ff" d="M468.71,-131.95C439.37,-122.33 400.26,-109.49 369.03,-99.24"/>
<polygon fill="#63b8ff" stroke="#63b8ff" points="369.79,-95.81 359.19,-96.01 367.6,-102.46 369.79,-95.81"/>
</a>
</g>
</g>
<!-- Node15 -->
<g id="Node000015" class="node">
<title>Node15</title>
<g id="a_Node000015"><a xlink:href="logging_8hpp.html" target="_top" xlink:title=" ">
<polygon fill="white" stroke="#666666" points="512,-96 393,-96 393,-66 512,-66 512,-96"/>
<text text-anchor="start" x="401" y="-84" font-family="Helvetica,sans-Serif" font-size="10.00">packages/macros/inc</text>
<text text-anchor="middle" x="452.5" y="-73" font-family="Helvetica,sans-Serif" font-size="10.00">/logging.hpp</text>
</a>
</g>
</g>
<!-- Node6&#45;&gt;Node15 -->
<g id="edge14_Node000006_Node000015" class="edge">
<title>Node6&#45;&gt;Node15</title>
<g id="a_edge14_Node000006_Node000015"><a xlink:title=" ">
<path fill="none" stroke="#63b8ff" d="M498.41,-131.8C490.77,-123.51 480.98,-112.89 472.4,-103.59"/>
<polygon fill="#63b8ff" stroke="#63b8ff" points="474.91,-101.14 465.56,-96.16 469.76,-105.89 474.91,-101.14"/>
</a>
</g>
</g>
<!-- Node8 -->
<g id="Node000008" class="node">
<title>Node8</title>
<g id="a_Node000008"><a xlink:href="detail_8hpp.html" target="_top" xlink:title=" ">
<polygon fill="white" stroke="#666666" points="119,-30 0,-30 0,0 119,0 119,-30"/>
<text text-anchor="start" x="8" y="-18" font-family="Helvetica,sans-Serif" font-size="10.00">packages/macros/inc</text>
<text text-anchor="middle" x="59.5" y="-7" font-family="Helvetica,sans-Serif" font-size="10.00">/detail.hpp</text>
</a>
</g>
</g>
<!-- Node7&#45;&gt;Node8 -->
<g id="edge7_Node000007_Node000008" class="edge">
<title>Node7&#45;&gt;Node8</title>
<g id="a_edge7_Node000007_Node000008"><a xlink:title=" ">
<path fill="none" stroke="#63b8ff" d="M669.74,-67.43C666.62,-66.91 663.53,-66.43 660.5,-66 469.27,-38.74 241.53,-24.8 129.22,-19.14"/>
<polygon fill="#63b8ff" stroke="#63b8ff" points="129.21,-15.64 119.05,-18.64 128.86,-22.63 129.21,-15.64"/>
</a>
</g>
</g>
<!-- Node9 -->
<g id="Node000009" class="node">
<title>Node9</title>
<g id="a_Node000009"><a xlink:title=" ">
<polygon fill="#e0e0e0" stroke="#999999" points="759.5,-24.5 699.5,-24.5 699.5,-5.5 759.5,-5.5 759.5,-24.5"/>
<text text-anchor="middle" x="729.5" y="-12.5" font-family="Helvetica,sans-Serif" font-size="10.00">iostream</text>
</a>
</g>
</g>
<!-- Node7&#45;&gt;Node9 -->
<g id="edge8_Node000007_Node000009" class="edge">
<title>Node7&#45;&gt;Node9</title>
<g id="a_edge8_Node000007_Node000009"><a xlink:title=" ">
<path fill="none" stroke="#63b8ff" d="M729.5,-65.8C729.5,-56.7 729.5,-44.79 729.5,-34.9"/>
<polygon fill="#63b8ff" stroke="#63b8ff" points="733,-34.84 729.5,-24.84 726,-34.84 733,-34.84"/>
</a>
</g>
</g>
<!-- Node19&#45;&gt;Node6 -->
<g id="edge20_Node000019_Node000006" class="edge">
<title>Node19&#45;&gt;Node6</title>
<g id="a_edge20_Node000019_Node000006"><a xlink:title=" ">
<path fill="none" stroke="#63b8ff" d="M511.5,-197.77C511.5,-189.85 511.5,-180.63 511.5,-172.3"/>
<polygon fill="#63b8ff" stroke="#63b8ff" points="515,-172.04 511.5,-162.04 508,-172.04 515,-172.04"/>
</a>
</g>
</g>
<!-- Node20&#45;&gt;Node6 -->
<g id="edge22_Node000020_Node000006" class="edge">
<title>Node20&#45;&gt;Node6</title>
<g id="a_edge22_Node000020_Node000006"><a xlink:title=" ">
<path fill="none" stroke="#63b8ff" d="M630.82,-197.96C606.8,-187.9 577.72,-175.73 554.29,-165.91"/>
<polygon fill="#63b8ff" stroke="#63b8ff" points="555.52,-162.64 544.95,-162 552.82,-169.09 555.52,-162.64"/>
</a>
</g>
</g>
<!-- Node20&#45;&gt;Node16 -->
<g id="edge24_Node000020_Node000016" class="edge">
<title>Node20&#45;&gt;Node16</title>
<g id="a_edge24_Node000020_Node000016"><a xlink:title=" ">
<path fill="none" stroke="#63b8ff" d="M706.18,-197.96C722.77,-186.65 743.29,-172.67 758.4,-162.38"/>
<polygon fill="#63b8ff" stroke="#63b8ff" points="760.73,-165.03 767.02,-156.5 756.79,-159.24 760.73,-165.03"/>
</a>
</g>
</g>
<!-- Node21 -->
<g id="Node000021" class="node">
<title>Node21</title>
<g id="a_Node000021"><a xlink:title=" ">
<polygon fill="#e0e0e0" stroke="#999999" points="698,-156.5 657,-156.5 657,-137.5 698,-137.5 698,-156.5"/>
<text text-anchor="middle" x="677.5" y="-144.5" font-family="Helvetica,sans-Serif" font-size="10.00">tuple</text>
</a>
</g>
</g>
<!-- Node20&#45;&gt;Node21 -->
<g id="edge23_Node000020_Node000021" class="edge">
<title>Node20&#45;&gt;Node21</title>
<g id="a_edge23_Node000020_Node000021"><a xlink:title=" ">
<path fill="none" stroke="#63b8ff" d="M677.5,-197.77C677.5,-188.08 677.5,-176.46 677.5,-166.88"/>
<polygon fill="#63b8ff" stroke="#63b8ff" points="681,-166.82 677.5,-156.82 674,-166.82 681,-166.82"/>
</a>
</g>
</g>
<!-- Node24&#45;&gt;Node23 -->
<g id="edge28_Node000024_Node000023" class="edge">
<title>Node24&#45;&gt;Node23</title>
<g id="a_edge28_Node000024_Node000023"><a xlink:title=" ">
<path fill="none" stroke="#63b8ff" d="M806.52,-428.94C868.48,-402.52 993.4,-338.98 1043.5,-239 1054.99,-216.07 1050.32,-185.67 1045.35,-166.47"/>
<polygon fill="#63b8ff" stroke="#63b8ff" points="1048.64,-165.24 1042.51,-156.6 1041.91,-167.18 1048.64,-165.24"/>
</a>
</g>
</g>
<!-- Node25&#45;&gt;Node8 -->
<g id="edge38_Node000025_Node000008" class="edge">
<title>Node25&#45;&gt;Node8</title>
<g id="a_edge38_Node000025_Node000008"><a xlink:title=" ">
<path fill="none" stroke="#63b8ff" d="M237.9,-281.77C206.89,-273.17 169.52,-259.56 140.5,-239 104.65,-213.6 95.76,-202.41 78.5,-162 61.41,-121.98 58.65,-70.62 58.71,-40.7"/>
<polygon fill="#63b8ff" stroke="#63b8ff" points="62.22,-40.4 58.85,-30.35 55.22,-40.3 62.22,-40.4"/>
</a>
</g>
</g>
<!-- Node25&#45;&gt;Node16 -->
<g id="edge40_Node000025_Node000016" class="edge">
<title>Node25&#45;&gt;Node16</title>
<g id="a_edge40_Node000025_Node000016"><a xlink:title=" ">
<path fill="none" stroke="#63b8ff" d="M342.5,-280.5C350.44,-278.4 358.67,-276.45 366.5,-275 452.95,-258.98 694.87,-297.5 760.5,-239 780.63,-221.06 782.58,-187.78 781.5,-166.82"/>
<polygon fill="#63b8ff" stroke="#63b8ff" points="784.97,-166.31 780.69,-156.62 777.99,-166.87 784.97,-166.31"/>
</a>
</g>
</g>
<!-- Node26 -->
<g id="Node000026" class="node">
<title>Node26</title>
<g id="a_Node000026"><a xlink:href="exception_8hpp.html" target="_top" xlink:title=" ">
<polygon fill="white" stroke="#666666" points="269,-233.5 150,-233.5 150,-203.5 269,-203.5 269,-233.5"/>
<text text-anchor="start" x="158" y="-221.5" font-family="Helvetica,sans-Serif" font-size="10.00">packages/exceptions</text>
<text text-anchor="middle" x="209.5" y="-210.5" font-family="Helvetica,sans-Serif" font-size="10.00">/inc/exception.hpp</text>
</a>
</g>
</g>
<!-- Node25&#45;&gt;Node26 -->
<g id="edge31_Node000025_Node000026" class="edge">
<title>Node25&#45;&gt;Node26</title>
<g id="a_edge31_Node000025_Node000026"><a xlink:title=" ">
<path fill="none" stroke="#63b8ff" d="M280.95,-280.39C267.67,-269.08 248.85,-253.04 233.85,-240.26"/>
<polygon fill="#63b8ff" stroke="#63b8ff" points="235.86,-237.37 225.98,-233.54 231.32,-242.69 235.86,-237.37"/>
</a>
</g>
</g>
<!-- Node30 -->
<g id="Node000030" class="node">
<title>Node30</title>
<g id="a_Node000030"><a xlink:title=" ">
<polygon fill="#e0e0e0" stroke="#999999" points="381.5,-228 325.5,-228 325.5,-209 381.5,-209 381.5,-228"/>
<text text-anchor="middle" x="353.5" y="-216" font-family="Helvetica,sans-Serif" font-size="10.00">sstream</text>
</a>
</g>
</g>
<!-- Node25&#45;&gt;Node30 -->
<g id="edge39_Node000025_Node000030" class="edge">
<title>Node25&#45;&gt;Node30</title>
<g id="a_edge39_Node000025_Node000030"><a xlink:title=" ">
<path fill="none" stroke="#63b8ff" d="M308.03,-280.39C317.3,-267.98 330.82,-249.88 340.71,-236.64"/>
<polygon fill="#63b8ff" stroke="#63b8ff" points="343.7,-238.48 346.87,-228.37 338.09,-234.29 343.7,-238.48"/>
</a>
</g>
</g>
<!-- Node26&#45;&gt;Node6 -->
<g id="edge32_Node000026_Node000006" class="edge">
<title>Node26&#45;&gt;Node6</title>
<g id="a_edge32_Node000026_Node000006"><a xlink:title=" ">
<path fill="none" stroke="#63b8ff" d="M261.58,-203.48C268.93,-201.59 276.4,-199.71 283.5,-198 338.07,-184.83 400.34,-171.28 446,-161.61"/>
<polygon fill="#63b8ff" stroke="#63b8ff" points="447,-164.97 456.07,-159.48 445.56,-158.12 447,-164.97"/>
</a>
</g>
</g>
<!-- Node26&#45;&gt;Node11 -->
<g id="edge34_Node000026_Node000011" class="edge">
<title>Node26&#45;&gt;Node11</title>
<g id="a_edge34_Node000026_Node000011"><a xlink:title=" ">
<path fill="none" stroke="#63b8ff" d="M261.36,-203.4C314.03,-188.84 388.43,-167.48 392.5,-162 400.44,-151.29 400.7,-142.52 392.5,-132 352.21,-80.31 311.51,-117.21 249.5,-96 248.07,-95.51 246.61,-94.98 245.14,-94.43"/>
<polygon fill="#63b8ff" stroke="#63b8ff" points="246.15,-91.06 235.57,-90.53 243.51,-97.54 246.15,-91.06"/>
</a>
</g>
</g>
<!-- Node26&#45;&gt;Node23 -->
<g id="edge36_Node000026_Node000023" class="edge">
<title>Node26&#45;&gt;Node23</title>
<g id="a_edge36_Node000026_Node000023"><a xlink:title=" ">
<path fill="none" stroke="#63b8ff" d="M269.01,-205.3C284.42,-202.51 301.03,-199.84 316.5,-198 599.85,-164.36 673.97,-194.06 957.5,-162 971.57,-160.41 986.88,-157.98 1000.43,-155.6"/>
<polygon fill="#63b8ff" stroke="#63b8ff" points="1001.18,-159.02 1010.39,-153.79 999.93,-152.13 1001.18,-159.02"/>
</a>
</g>
</g>
<!-- Node27 -->
<g id="Node000027" class="node">
<title>Node27</title>
<g id="a_Node000027"><a xlink:title=" ">
<polygon fill="#e0e0e0" stroke="#999999" points="383,-156.5 318,-156.5 318,-137.5 383,-137.5 383,-156.5"/>
<text text-anchor="middle" x="350.5" y="-144.5" font-family="Helvetica,sans-Serif" font-size="10.00">stdexcept</text>
</a>
</g>
</g>
<!-- Node26&#45;&gt;Node27 -->
<g id="edge33_Node000026_Node000027" class="edge">
<title>Node26&#45;&gt;Node27</title>
<g id="a_edge33_Node000026_Node000027"><a xlink:title=" ">
<path fill="none" stroke="#63b8ff" d="M238.03,-203.44C263.18,-191.04 299.53,-173.12 324.04,-161.04"/>
<polygon fill="#63b8ff" stroke="#63b8ff" points="325.7,-164.13 333.12,-156.57 322.6,-157.85 325.7,-164.13"/>
</a>
</g>
</g>
<!-- Node28 -->
<g id="Node000028" class="node">
<title>Node28</title>
<g id="a_Node000028"><a xlink:title=" ">
<polygon fill="#e0e0e0" stroke="#999999" points="135,-156.5 88,-156.5 88,-137.5 135,-137.5 135,-156.5"/>
<text text-anchor="middle" x="111.5" y="-144.5" font-family="Helvetica,sans-Serif" font-size="10.00">deque</text>
</a>
</g>
</g>
<!-- Node26&#45;&gt;Node28 -->
<g id="edge35_Node000026_Node000028" class="edge">
<title>Node26&#45;&gt;Node28</title>
<g id="a_edge35_Node000026_Node000028"><a xlink:title=" ">
<path fill="none" stroke="#63b8ff" d="M189.67,-203.44C172.96,-191.59 149.15,-174.7 132.2,-162.68"/>
<polygon fill="#63b8ff" stroke="#63b8ff" points="133.76,-159.5 123.58,-156.57 129.71,-165.21 133.76,-159.5"/>
</a>
</g>
</g>
<!-- Node29 -->
<g id="Node000029" class="node">
<title>Node29</title>
<g id="a_Node000029"><a xlink:title=" ">
<polygon fill="#e0e0e0" stroke="#999999" points="299.5,-162 153.5,-162 153.5,-132 299.5,-132 299.5,-162"/>
<text text-anchor="start" x="161.5" y="-150" font-family="Helvetica,sans-Serif" font-size="10.00">packages/exceptions</text>
<text text-anchor="middle" x="226.5" y="-139" font-family="Helvetica,sans-Serif" font-size="10.00">/impl/exceptions_impl.hpp</text>
</a>
</g>
</g>
<!-- Node26&#45;&gt;Node29 -->
<g id="edge37_Node000026_Node000029" class="edge">
<title>Node26&#45;&gt;Node29</title>
<g id="a_edge37_Node000026_Node000029"><a xlink:title=" ">
<path fill="none" stroke="#63b8ff" d="M212.94,-203.44C215.15,-194.39 218.08,-182.41 220.65,-171.9"/>
<polygon fill="#63b8ff" stroke="#63b8ff" points="224.09,-172.59 223.06,-162.04 217.29,-170.93 224.09,-172.59"/>
</a>
</g>
</g>
<!-- Node31&#45;&gt;Node3 -->
<g id="edge48_Node000031_Node000003" class="edge">
<title>Node31&#45;&gt;Node3</title>
<g id="a_edge48_Node000031_Node000003"><a xlink:title=" ">
<path fill="none" stroke="#63b8ff" d="M616.63,-428.94C634.6,-419.95 658.36,-408.07 679.28,-397.61"/>
<polygon fill="#63b8ff" stroke="#63b8ff" points="680.97,-400.68 688.35,-393.07 677.84,-394.42 680.97,-400.68"/>
</a>
</g>
</g>
<!-- Node31&#45;&gt;Node6 -->
<g id="edge49_Node000031_Node000006" class="edge">
<title>Node31&#45;&gt;Node6</title>
<g id="a_edge49_Node000031_Node000006"><a xlink:title=" ">
<path fill="none" stroke="#63b8ff" d="M586.69,-428.74C581.92,-396.87 566.13,-319.18 521.5,-275 490,-243.82 453.55,-275.56 428.5,-239 418.2,-223.97 419.54,-213.86 428.5,-198 436.03,-184.67 448.7,-174.5 461.89,-166.93"/>
<polygon fill="#63b8ff" stroke="#63b8ff" points="463.85,-169.85 471.06,-162.09 460.58,-163.66 463.85,-169.85"/>
</a>
</g>
</g>
<!-- Node32 -->
<g id="Node000032" class="node">
<title>Node32</title>
<g id="a_Node000032"><a xlink:href="checks_8hpp.html" target="_top" xlink:title=" ">
<polygon fill="white" stroke="#666666" points="426,-387.5 307,-387.5 307,-357.5 426,-357.5 426,-387.5"/>
<text text-anchor="start" x="315" y="-375.5" font-family="Helvetica,sans-Serif" font-size="10.00">packages/macros/inc</text>
<text text-anchor="middle" x="366.5" y="-364.5" font-family="Helvetica,sans-Serif" font-size="10.00">/checks.hpp</text>
</a>
</g>
</g>
<!-- Node31&#45;&gt;Node32 -->
<g id="edge42_Node000031_Node000032" class="edge">
<title>Node31&#45;&gt;Node32</title>
<g id="a_edge42_Node000031_Node000032"><a xlink:title=" ">
<path fill="none" stroke="#63b8ff" d="M543.57,-428.94C508.22,-417.87 458.8,-402.4 421.15,-390.61"/>
<polygon fill="#63b8ff" stroke="#63b8ff" points="421.95,-387.19 411.36,-387.54 419.86,-393.87 421.95,-387.19"/>
</a>
</g>
</g>
<!-- Node34 -->
<g id="Node000034" class="node">
<title>Node34</title>
<g id="a_Node000034"><a xlink:title=" ">
<polygon fill="#e0e0e0" stroke="#999999" points="641.5,-382 589.5,-382 589.5,-363 641.5,-363 641.5,-382"/>
<text text-anchor="middle" x="615.5" y="-370" font-family="Helvetica,sans-Serif" font-size="10.00">cassert</text>
</a>
</g>
</g>
<!-- Node31&#45;&gt;Node34 -->
<g id="edge50_Node000031_Node000034" class="edge">
<title>Node31&#45;&gt;Node34</title>
<g id="a_edge50_Node000031_Node000034"><a xlink:title=" ">
<path fill="none" stroke="#63b8ff" d="M593.96,-428.94C598.12,-418.25 603.86,-403.45 608.38,-391.83"/>
<polygon fill="#63b8ff" stroke="#63b8ff" points="611.74,-392.86 612.09,-382.27 605.21,-390.32 611.74,-392.86"/>
</a>
</g>
</g>
<!-- Node32&#45;&gt;Node8 -->
<g id="edge45_Node000032_Node000008" class="edge">
<title>Node32&#45;&gt;Node8</title>
<g id="a_edge45_Node000032_Node000008"><a xlink:title=" ">
<path fill="none" stroke="#63b8ff" d="M306.8,-371.09C208.06,-366.91 21.5,-342.71 21.5,-219.5 21.5,-219.5 21.5,-219.5 21.5,-146 21.5,-107.39 37.13,-64.83 48.35,-39.27"/>
<polygon fill="#63b8ff" stroke="#63b8ff" points="51.59,-40.59 52.53,-30.03 45.21,-37.7 51.59,-40.59"/>
</a>
</g>
</g>
<!-- Node32&#45;&gt;Node25 -->
<g id="edge44_Node000032_Node000025" class="edge">
<title>Node32&#45;&gt;Node25</title>
<g id="a_edge44_Node000032_Node000025"><a xlink:title=" ">
<path fill="none" stroke="#63b8ff" d="M353.52,-357.39C343.31,-346.29 328.9,-330.63 317.25,-317.97"/>
<polygon fill="#63b8ff" stroke="#63b8ff" points="319.77,-315.53 310.42,-310.54 314.62,-320.27 319.77,-315.53"/>
</a>
</g>
</g>
<!-- Node32&#45;&gt;Node26 -->
<g id="edge43_Node000032_Node000026" class="edge">
<title>Node32&#45;&gt;Node26</title>
<g id="a_edge43_Node000032_Node000026"><a xlink:title=" ">
<path fill="none" stroke="#63b8ff" d="M306.9,-360.78C279.52,-352.86 248.89,-339.26 229.5,-316 212.7,-295.86 208.85,-265.24 208.46,-243.91"/>
<polygon fill="#63b8ff" stroke="#63b8ff" points="211.96,-243.73 208.53,-233.71 204.96,-243.69 211.96,-243.73"/>
</a>
</g>
</g>
<!-- Node32&#45;&gt;Node30 -->
<g id="edge47_Node000032_Node000030" class="edge">
<title>Node32&#45;&gt;Node30</title>
<g id="a_edge47_Node000032_Node000030"><a xlink:title=" ">
<path fill="none" stroke="#63b8ff" d="M426.21,-363.17C454.96,-355.82 486.93,-342 504.5,-316 514.7,-300.9 515.18,-289.77 504.5,-275 474.61,-233.65 442.94,-257.77 395.5,-239 390.49,-237.02 385.22,-234.74 380.18,-232.45"/>
<polygon fill="#63b8ff" stroke="#63b8ff" points="381.42,-229.17 370.88,-228.12 378.47,-235.51 381.42,-229.17"/>
</a>
</g>
</g>
<!-- Node33 -->
<g id="Node000033" class="node">
<title>Node33</title>
<g id="a_Node000033"><a xlink:title=" ">
<polygon fill="#e0e0e0" stroke="#999999" points="495.5,-305 375.5,-305 375.5,-286 495.5,-286 495.5,-305"/>
<text text-anchor="middle" x="435.5" y="-293" font-family="Helvetica,sans-Serif" font-size="10.00">cmake_variables.hpp</text>
</a>
</g>
</g>
<!-- Node32&#45;&gt;Node33 -->
<g id="edge46_Node000032_Node000033" class="edge">
<title>Node32&#45;&gt;Node33</title>
<g id="a_edge46_Node000032_Node000033"><a xlink:title=" ">
<path fill="none" stroke="#63b8ff" d="M379.48,-357.39C391.12,-344.74 408.2,-326.18 420.43,-312.88"/>
<polygon fill="#63b8ff" stroke="#63b8ff" points="423.14,-315.1 427.34,-305.37 417.99,-310.36 423.14,-315.1"/>
</a>
</g>
</g>
</g>
</svg>

<g id="navigator" transform="translate(0 0)" fill="#404254">
  <rect fill="#f2f5e9" fill-opacity="0.5" stroke="#606060" stroke-width=".5" x="0" y="0" width="60" height="60"/>
  <use id="zoomplus" xlink:href="#zoomPlus" x="17" y="9" onmousedown="handleZoom(evt,'in')"/>
  <use id="zoomminus" xlink:href="#zoomMin" x="42" y="9" onmousedown="handleZoom(evt,'out')"/>
  <use id="reset" xlink:href="#resetDef" x="30" y="36" onmousedown="handleReset()"/>
   <use id="arrowup" xlink:href="#arrowUp" x="0" y="0" onmousedown="handlePan(0,-1)"/>
  <use id="arrowright" xlink:href="#arrowRight" x="0" y="0" onmousedown="handlePan(1,0)"/>
  <use id="arrowdown" xlink:href="#arrowDown" x="0" y="0" onmousedown="handlePan(0,1)"/>
  <use id="arrowleft" xlink:href="#arrowLeft" x="0" y="0" onmousedown="handlePan(-1,0)"/>
</g>
<svg viewBox="0 0 15 15" width="100%" height="30px" preserveAspectRatio="xMaxYMin meet">
 <g id="arrow_out" transform="scale(0.3 0.3)">
  <a xlink:href="DynamicArray_8hpp__incl_org.svg" target="_base">
   <rect id="button" ry="5" rx="5" y="6" x="6" height="38" width="38"
        fill="#f2f5e9" fill-opacity="0.5" stroke="#606060" stroke-width="1.0"/>
   <path id="arrow"
     d="M 11.500037,31.436501 C 11.940474,20.09759 22.043105,11.32322 32.158766,21.979434 L 37.068811,17.246167 C 37.068811,17.246167 37.088388,32 37.088388,32 L 22.160133,31.978069 C 22.160133,31.978069 26.997745,27.140456 26.997745,27.140456 C 18.528582,18.264221 13.291696,25.230495 11.500037,31.436501 z"
     style="fill:#404040;"/>
  </a>
 </g>
</svg>

<style type='text/css'>
<![CDATA[
[data-mouse-over-selected='false'] { opacity: 0.7; }
[data-mouse-over-selected='true']  { opacity: 1.0; }
]]>
</style>
<script type="application/ecmascript"><![CDATA[
document.addEventListener('DOMContentLoaded', (event) => {
  highlightEdges();
  highlightAdjacentNodes();
});
]]></script>
</svg>
