<?xml version="1.0" encoding="UTF-8" standalone="no"?>
<!DOCTYPE svg PUBLIC "-//W3C//DTD SVG 1.1//EN"
 "http://www.w3.org/Graphics/SVG/1.1/DTD/svg11.dtd">
<!-- Generated by graphviz version 2.43.0 (0)
 -->
<!-- Title: DynamicArray.hpp Pages: 1 -->
<svg width="1328pt" height="252pt"
 viewBox="0.00 0.00 1327.50 252.00" xmlns="http://www.w3.org/2000/svg" xmlns:xlink="http://www.w3.org/1999/xlink">
<g id="graph0" class="graph" transform="scale(1 1) rotate(0) translate(4 248)">
<title>DynamicArray.hpp</title>
<polygon fill="white" stroke="transparent" points="-4,4 -4,-248 1323.5,-248 1323.5,4 -4,4"/>
<!-- Node1 -->
<g id="node1" class="node">
<title>Node1</title>
<g id="a_node1"><a xlink:title=" ">
<polygon fill="#bfbfbf" stroke="black" points="858,-224.5 858,-243.5 964,-243.5 964,-224.5 858,-224.5"/>
<text text-anchor="middle" x="911" y="-231.5" font-family="Helvetica,sans-Serif" font-size="10.00">DynamicArray.hpp</text>
</a>
</g>
</g>
<!-- Node2 -->
<g id="node2" class="node">
<title>Node2</title>
<g id="a_node2"><a xlink:href="ArgParse_8hpp.html" target="_top" xlink:title=" ">
<polygon fill="white" stroke="black" points="484,-168.5 484,-187.5 564,-187.5 564,-168.5 484,-168.5"/>
<text text-anchor="middle" x="524" y="-175.5" font-family="Helvetica,sans-Serif" font-size="10.00">ArgParse.hpp</text>
</a>
</g>
</g>
<!-- Node1&#45;&gt;Node2 -->
<g id="edge1" class="edge">
<title>Node1&#45;&gt;Node2</title>
<path fill="none" stroke="midnightblue" d="M847.61,-224.16C767.36,-212.96 631.48,-194 564.21,-184.61"/>
<polygon fill="midnightblue" stroke="midnightblue" points="847.21,-227.63 857.6,-225.55 848.18,-220.7 847.21,-227.63"/>
</g>
<!-- Node10 -->
<g id="node10" class="node">
<title>Node10</title>
<g id="a_node10"><a xlink:href="ParallelFor_8hpp.html" target="_top" xlink:title=" ">
<polygon fill="white" stroke="black" points="616,-56.5 616,-75.5 704,-75.5 704,-56.5 616,-56.5"/>
<text text-anchor="middle" x="660" y="-63.5" font-family="Helvetica,sans-Serif" font-size="10.00">ParallelFor.hpp</text>
</a>
</g>
</g>
<!-- Node1&#45;&gt;Node10 -->
<g id="edge9" class="edge">
<title>Node1&#45;&gt;Node10</title>
<path fill="none" stroke="midnightblue" d="M847.58,-230.76C808.64,-226.43 759.74,-215.36 725,-188 695.17,-164.51 704.17,-145.34 686,-112 679,-99.17 670.45,-84.55 665.11,-75.55"/>
<polygon fill="midnightblue" stroke="midnightblue" points="847.47,-234.27 857.77,-231.77 848.16,-227.3 847.47,-234.27"/>
</g>
<!-- Node11 -->
<g id="node11" class="node">
<title>Node11</title>
<g id="a_node11"><a xlink:href="ThreadLocal_8hpp.html" target="_top" xlink:title=" ">
<polygon fill="white" stroke="black" points="958.5,-168.5 958.5,-187.5 1055.5,-187.5 1055.5,-168.5 958.5,-168.5"/>
<text text-anchor="middle" x="1007" y="-175.5" font-family="Helvetica,sans-Serif" font-size="10.00">ThreadLocal.hpp</text>
</a>
</g>
</g>
<!-- Node1&#45;&gt;Node11 -->
<g id="edge10" class="edge">
<title>Node1&#45;&gt;Node11</title>
<path fill="none" stroke="midnightblue" d="M935.57,-219.18C953.24,-209.24 976.51,-196.15 991.61,-187.65"/>
<polygon fill="midnightblue" stroke="midnightblue" points="933.42,-216.37 926.42,-224.32 936.86,-222.47 933.42,-216.37"/>
</g>
<!-- Node12 -->
<g id="node12" class="node">
<title>Node12</title>
<g id="a_node12"><a xlink:href="ThreadPoolStorage_8hpp.html" target="_top" xlink:title=" ">
<polygon fill="white" stroke="black" points="734,-168.5 734,-187.5 864,-187.5 864,-168.5 734,-168.5"/>
<text text-anchor="middle" x="799" y="-175.5" font-family="Helvetica,sans-Serif" font-size="10.00">ThreadPoolStorage.hpp</text>
</a>
</g>
</g>
<!-- Node1&#45;&gt;Node12 -->
<g id="edge11" class="edge">
<title>Node1&#45;&gt;Node12</title>
<path fill="none" stroke="midnightblue" d="M883.75,-219.86C862.98,-209.85 834.98,-196.35 816.95,-187.65"/>
<polygon fill="midnightblue" stroke="midnightblue" points="882.48,-223.13 893.01,-224.32 885.52,-216.83 882.48,-223.13"/>
</g>
<!-- Node16 -->
<g id="node16" class="node">
<title>Node16</title>
<g id="a_node16"><a xlink:href="abstree_8hpp.html" target="_top" xlink:title=" ">
<polygon fill="white" stroke="black" points="855,-56.5 855,-75.5 929,-75.5 929,-56.5 855,-56.5"/>
<text text-anchor="middle" x="892" y="-63.5" font-family="Helvetica,sans-Serif" font-size="10.00">abstree.hpp</text>
</a>
</g>
</g>
<!-- Node1&#45;&gt;Node16 -->
<g id="edge19" class="edge">
<title>Node1&#45;&gt;Node16</title>
<path fill="none" stroke="midnightblue" d="M908.82,-213.93C904.7,-177.92 895.92,-101.23 892.98,-75.57"/>
<polygon fill="midnightblue" stroke="midnightblue" points="905.36,-214.54 909.98,-224.08 912.32,-213.74 905.36,-214.54"/>
</g>
<!-- Node17 -->
<g id="node17" class="node">
<title>Node17</title>
<g id="a_node17"><a xlink:href="ContiguousTree_8hpp.html" target="_top" xlink:title=" ">
<polygon fill="white" stroke="black" points="947.5,-56.5 947.5,-75.5 1060.5,-75.5 1060.5,-56.5 947.5,-56.5"/>
<text text-anchor="middle" x="1004" y="-63.5" font-family="Helvetica,sans-Serif" font-size="10.00">ContiguousTree.hpp</text>
</a>
</g>
</g>
<!-- Node1&#45;&gt;Node17 -->
<g id="edge20" class="edge">
<title>Node1&#45;&gt;Node17</title>
<path fill="none" stroke="midnightblue" d="M920.91,-215.31C940.74,-179.92 984.64,-101.56 999.2,-75.57"/>
<polygon fill="midnightblue" stroke="midnightblue" points="917.83,-213.64 916,-224.08 923.94,-217.06 917.83,-213.64"/>
</g>
<!-- Node18 -->
<g id="node18" class="node">
<title>Node18</title>
<g id="a_node18"><a xlink:href="UnstructuredView_8hpp.html" target="_top" xlink:title=" ">
<polygon fill="white" stroke="black" points="1074,-168.5 1074,-187.5 1198,-187.5 1198,-168.5 1074,-168.5"/>
<text text-anchor="middle" x="1136" y="-175.5" font-family="Helvetica,sans-Serif" font-size="10.00">UnstructuredView.hpp</text>
</a>
</g>
</g>
<!-- Node1&#45;&gt;Node18 -->
<g id="edge18" class="edge">
<title>Node1&#45;&gt;Node18</title>
<path fill="none" stroke="midnightblue" d="M956.47,-222.09C998.97,-211.89 1061.58,-196.86 1100.51,-187.52"/>
<polygon fill="midnightblue" stroke="midnightblue" points="955.56,-218.71 946.65,-224.44 957.19,-225.51 955.56,-218.71"/>
</g>
<!-- Node19 -->
<g id="node19" class="node">
<title>Node19</title>
<g id="a_node19"><a xlink:href="stl__extension_8hpp.html" target="_top" xlink:title=" ">
<polygon fill="white" stroke="black" points="1216.5,-168.5 1216.5,-187.5 1319.5,-187.5 1319.5,-168.5 1216.5,-168.5"/>
<text text-anchor="middle" x="1268" y="-175.5" font-family="Helvetica,sans-Serif" font-size="10.00">stl_extension.hpp</text>
</a>
</g>
</g>
<!-- Node1&#45;&gt;Node19 -->
<g id="edge21" class="edge">
<title>Node1&#45;&gt;Node19</title>
<path fill="none" stroke="midnightblue" d="M974.36,-223.42C1043.36,-212.98 1152.4,-196.49 1216.39,-186.81"/>
<polygon fill="midnightblue" stroke="midnightblue" points="973.43,-220.02 964.06,-224.97 974.47,-226.94 973.43,-220.02"/>
</g>
<!-- Node3 -->
<g id="node3" class="node">
<title>Node3</title>
<g id="a_node3"><a xlink:href="AbsArgument_8hpp.html" target="_top" xlink:title=" ">
<polygon fill="white" stroke="black" points="253,-112.5 253,-131.5 357,-131.5 357,-112.5 253,-112.5"/>
<text text-anchor="middle" x="305" y="-119.5" font-family="Helvetica,sans-Serif" font-size="10.00">AbsArgument.hpp</text>
</a>
</g>
</g>
<!-- Node2&#45;&gt;Node3 -->
<g id="edge2" class="edge">
<title>Node2&#45;&gt;Node3</title>
<path fill="none" stroke="midnightblue" d="M479.49,-166.02C438.12,-155.82 377.36,-140.84 339.54,-131.52"/>
<polygon fill="midnightblue" stroke="midnightblue" points="478.75,-169.45 489.3,-168.44 480.43,-162.65 478.75,-169.45"/>
</g>
<!-- Node8 -->
<g id="node8" class="node">
<title>Node8</title>
<g id="a_node8"><a xlink:href="container__extension_8hpp.html" target="_top" xlink:title=" ">
<polygon fill="white" stroke="black" points="375.5,-112.5 375.5,-131.5 512.5,-131.5 512.5,-112.5 375.5,-112.5"/>
<text text-anchor="middle" x="444" y="-119.5" font-family="Helvetica,sans-Serif" font-size="10.00">container_extension.hpp</text>
</a>
</g>
</g>
<!-- Node2&#45;&gt;Node8 -->
<g id="edge7" class="edge">
<title>Node2&#45;&gt;Node8</title>
<path fill="none" stroke="midnightblue" d="M502.7,-162.62C488.08,-152.76 469.17,-139.99 456.82,-131.65"/>
<polygon fill="midnightblue" stroke="midnightblue" points="500.9,-165.63 511.15,-168.32 504.82,-159.83 500.9,-165.63"/>
</g>
<!-- Node9 -->
<g id="node9" class="node">
<title>Node9</title>
<g id="a_node9"><a xlink:href="file__system__extension_8hpp.html" target="_top" xlink:title=" ">
<polygon fill="white" stroke="black" points="530.5,-112.5 530.5,-131.5 677.5,-131.5 677.5,-112.5 530.5,-112.5"/>
<text text-anchor="middle" x="604" y="-119.5" font-family="Helvetica,sans-Serif" font-size="10.00">file_system_extension.hpp</text>
</a>
</g>
</g>
<!-- Node2&#45;&gt;Node9 -->
<g id="edge8" class="edge">
<title>Node2&#45;&gt;Node9</title>
<path fill="none" stroke="midnightblue" d="M545.3,-162.62C559.92,-152.76 578.83,-139.99 591.18,-131.65"/>
<polygon fill="midnightblue" stroke="midnightblue" points="543.18,-159.83 536.85,-168.32 547.1,-165.63 543.18,-159.83"/>
</g>
<!-- Node4 -->
<g id="node4" class="node">
<title>Node4</title>
<g id="a_node4"><a xlink:href="AggregateArgument_8hpp.html" target="_top" xlink:title=" ">
<polygon fill="white" stroke="black" points="0,-56.5 0,-75.5 136,-75.5 136,-56.5 0,-56.5"/>
<text text-anchor="middle" x="68" y="-63.5" font-family="Helvetica,sans-Serif" font-size="10.00">AggregateArgument.hpp</text>
</a>
</g>
</g>
<!-- Node3&#45;&gt;Node4 -->
<g id="edge3" class="edge">
<title>Node3&#45;&gt;Node4</title>
<path fill="none" stroke="midnightblue" d="M257.68,-110.22C212.89,-100.01 146.56,-84.9 105.38,-75.52"/>
<polygon fill="midnightblue" stroke="midnightblue" points="256.92,-113.63 267.45,-112.44 258.47,-106.81 256.92,-113.63"/>
</g>
<!-- Node5 -->
<g id="node5" class="node">
<title>Node5</title>
<g id="a_node5"><a xlink:href="FlagArgument_8hpp.html" target="_top" xlink:title=" ">
<polygon fill="white" stroke="black" points="154.5,-56.5 154.5,-75.5 261.5,-75.5 261.5,-56.5 154.5,-56.5"/>
<text text-anchor="middle" x="208" y="-63.5" font-family="Helvetica,sans-Serif" font-size="10.00">FlagArgument.hpp</text>
</a>
</g>
</g>
<!-- Node3&#45;&gt;Node5 -->
<g id="edge4" class="edge">
<title>Node3&#45;&gt;Node5</title>
<path fill="none" stroke="midnightblue" d="M280.66,-107.45C262.76,-97.48 238.95,-84.23 223.55,-75.65"/>
<polygon fill="midnightblue" stroke="midnightblue" points="278.98,-110.52 289.42,-112.32 282.38,-104.4 278.98,-110.52"/>
</g>
<!-- Node6 -->
<g id="node6" class="node">
<title>Node6</title>
<g id="a_node6"><a xlink:href="KeywordArgument_8hpp.html" target="_top" xlink:title=" ">
<polygon fill="white" stroke="black" points="280,-56.5 280,-75.5 408,-75.5 408,-56.5 280,-56.5"/>
<text text-anchor="middle" x="344" y="-63.5" font-family="Helvetica,sans-Serif" font-size="10.00">KeywordArgument.hpp</text>
</a>
</g>
</g>
<!-- Node3&#45;&gt;Node6 -->
<g id="edge5" class="edge">
<title>Node3&#45;&gt;Node6</title>
<path fill="none" stroke="midnightblue" d="M317.38,-103.86C324.14,-94.5 332.21,-83.33 337.68,-75.75"/>
<polygon fill="midnightblue" stroke="midnightblue" points="314.46,-101.93 311.44,-112.08 320.13,-106.03 314.46,-101.93"/>
</g>
<!-- Node7 -->
<g id="node7" class="node">
<title>Node7</title>
<g id="a_node7"><a xlink:href="PositionalArgument_8hpp.html" target="_top" xlink:title=" ">
<polygon fill="white" stroke="black" points="426,-56.5 426,-75.5 560,-75.5 560,-56.5 426,-56.5"/>
<text text-anchor="middle" x="493" y="-63.5" font-family="Helvetica,sans-Serif" font-size="10.00">PositionalArgument.hpp</text>
</a>
</g>
</g>
<!-- Node3&#45;&gt;Node7 -->
<g id="edge6" class="edge">
<title>Node3&#45;&gt;Node7</title>
<path fill="none" stroke="midnightblue" d="M344.8,-109.57C380.27,-99.38 431.37,-84.7 463.35,-75.52"/>
<polygon fill="midnightblue" stroke="midnightblue" points="343.43,-106.32 334.79,-112.44 345.37,-113.05 343.43,-106.32"/>
</g>
<!-- Node13 -->
<g id="node13" class="node">
<title>Node13</title>
<g id="a_node13"><a xlink:href="ThreadPool_8hpp.html" target="_top" xlink:title=" ">
<polygon fill="white" stroke="black" points="753,-112.5 753,-131.5 845,-131.5 845,-112.5 753,-112.5"/>
<text text-anchor="middle" x="799" y="-119.5" font-family="Helvetica,sans-Serif" font-size="10.00">ThreadPool.hpp</text>
</a>
</g>
</g>
<!-- Node12&#45;&gt;Node13 -->
<g id="edge12" class="edge">
<title>Node12&#45;&gt;Node13</title>
<path fill="none" stroke="midnightblue" d="M799,-157.8C799,-148.91 799,-138.78 799,-131.75"/>
<polygon fill="midnightblue" stroke="midnightblue" points="795.5,-158.08 799,-168.08 802.5,-158.08 795.5,-158.08"/>
</g>
<!-- Node13&#45;&gt;Node10 -->
<g id="edge13" class="edge">
<title>Node13&#45;&gt;Node10</title>
<path fill="none" stroke="midnightblue" d="M767.52,-108.77C741.41,-98.63 704.96,-84.47 681.92,-75.52"/>
<polygon fill="midnightblue" stroke="midnightblue" points="766.39,-112.08 776.98,-112.44 768.92,-105.56 766.39,-112.08"/>
</g>
<!-- Node14 -->
<g id="node14" class="node">
<title>Node14</title>
<g id="a_node14"><a xlink:href="ResourceLoader_8hpp.html" target="_top" xlink:title=" ">
<polygon fill="white" stroke="black" points="721.5,-56.5 721.5,-75.5 836.5,-75.5 836.5,-56.5 721.5,-56.5"/>
<text text-anchor="middle" x="779" y="-63.5" font-family="Helvetica,sans-Serif" font-size="10.00">ResourceLoader.hpp</text>
</a>
</g>
</g>
<!-- Node13&#45;&gt;Node14 -->
<g id="edge14" class="edge">
<title>Node13&#45;&gt;Node14</title>
<path fill="none" stroke="midnightblue" d="M792.22,-102.69C788.85,-93.59 784.93,-83.01 782.24,-75.75"/>
<polygon fill="midnightblue" stroke="midnightblue" points="788.94,-103.92 795.7,-112.08 795.51,-101.49 788.94,-103.92"/>
</g>
<!-- Node13&#45;&gt;Node16 -->
<g id="edge16" class="edge">
<title>Node13&#45;&gt;Node16</title>
<path fill="none" stroke="midnightblue" d="M822.81,-107.18C839.92,-97.24 862.47,-84.15 877.1,-75.65"/>
<polygon fill="midnightblue" stroke="midnightblue" points="820.83,-104.28 813.94,-112.32 824.35,-110.33 820.83,-104.28"/>
</g>
<!-- Node13&#45;&gt;Node17 -->
<g id="edge17" class="edge">
<title>Node13&#45;&gt;Node17</title>
<path fill="none" stroke="midnightblue" d="M841.41,-109.83C880.11,-99.63 936.49,-84.78 971.67,-75.52"/>
<polygon fill="midnightblue" stroke="midnightblue" points="840.26,-106.51 831.48,-112.44 842.04,-113.28 840.26,-106.51"/>
</g>
<!-- Node15 -->
<g id="node15" class="node">
<title>Node15</title>
<g id="a_node15"><a xlink:href="ResourceQueue_8hpp.html" target="_top" xlink:title=" ">
<polygon fill="white" stroke="black" points="722,-0.5 722,-19.5 836,-19.5 836,-0.5 722,-0.5"/>
<text text-anchor="middle" x="779" y="-7.5" font-family="Helvetica,sans-Serif" font-size="10.00">ResourceQueue.hpp</text>
</a>
</g>
</g>
<!-- Node14&#45;&gt;Node15 -->
<g id="edge15" class="edge">
<title>Node14&#45;&gt;Node15</title>
<path fill="none" stroke="midnightblue" d="M779,-45.8C779,-36.91 779,-26.78 779,-19.75"/>
<polygon fill="midnightblue" stroke="midnightblue" points="775.5,-46.08 779,-56.08 782.5,-46.08 775.5,-46.08"/>
</g>
</g>
</svg>
