<?xml version="1.0" encoding="UTF-8" standalone="no"?>
<!DOCTYPE svg PUBLIC "-//W3C//DTD SVG 1.1//EN"
 "http://www.w3.org/Graphics/SVG/1.1/DTD/svg11.dtd">
<!-- Generated by graphviz version 2.43.0 (0)
 -->
<!-- Title: exceptions.hpp Pages: 1 -->
<svg width="1667pt" height="467pt"
 viewBox="0.00 0.00 1666.92 467.00" xmlns="http://www.w3.org/2000/svg" xmlns:xlink="http://www.w3.org/1999/xlink">
<g id="graph0" class="graph" transform="scale(1 1) rotate(0) translate(4 463)">
<title>exceptions.hpp</title>
<!-- Node1 -->
<g id="Node000001" class="node">
<title>Node1</title>
<g id="a_Node000001"><a xlink:title=" ">
<polygon fill="#999999" stroke="#666666" points="1213,-459 1122,-459 1122,-440 1213,-440 1213,-459"/>
<text text-anchor="middle" x="1167.5" y="-447" font-family="Helvetica,sans-Serif" font-size="10.00">exceptions.hpp</text>
</a>
</g>
</g>
<!-- Node2 -->
<g id="Node000002" class="node">
<title>Node2</title>
<g id="a_Node000002"><a xlink:href="ArgumentMapper_8hpp.html" target="_top" xlink:title=" ">
<polygon fill="white" stroke="#666666" points="995.5,-404 873.5,-404 873.5,-385 995.5,-385 995.5,-404"/>
<text text-anchor="middle" x="934.5" y="-392" font-family="Helvetica,sans-Serif" font-size="10.00">ArgumentMapper.hpp</text>
</a>
</g>
</g>
<!-- Node1&#45;&gt;Node2 -->
<g id="edge1_Node000001_Node000002" class="edge">
<title>Node1&#45;&gt;Node2</title>
<g id="a_edge1_Node000001_Node000002"><a xlink:title=" ">
<path fill="none" stroke="#63b8ff" d="M1120.25,-437.75C1076.59,-427.82 1012.56,-413.26 972.23,-404.08"/>
<polygon fill="#63b8ff" stroke="#63b8ff" points="1119.54,-441.18 1130.06,-439.98 1121.09,-434.35 1119.54,-441.18"/>
</a>
</g>
</g>
<!-- Node3 -->
<g id="Node000003" class="node">
<title>Node3</title>
<g id="a_Node000003"><a xlink:href="OptionalRef_8hpp.html" target="_top" xlink:title=" ">
<polygon fill="white" stroke="#666666" points="1109,-404 1014,-404 1014,-385 1109,-385 1109,-404"/>
<text text-anchor="middle" x="1061.5" y="-392" font-family="Helvetica,sans-Serif" font-size="10.00">OptionalRef.hpp</text>
</a>
</g>
</g>
<!-- Node1&#45;&gt;Node3 -->
<g id="edge2_Node000001_Node000003" class="edge">
<title>Node1&#45;&gt;Node3</title>
<g id="a_edge2_Node000001_Node000003"><a xlink:title=" ">
<path fill="none" stroke="#63b8ff" d="M1141.5,-435.5C1122,-425.75 1095.85,-412.68 1078.84,-404.17"/>
<polygon fill="#63b8ff" stroke="#63b8ff" points="1139.96,-438.64 1150.47,-439.98 1143.09,-432.38 1139.96,-438.64"/>
</a>
</g>
</g>
<!-- Node4 -->
<g id="Node000004" class="node">
<title>Node4</title>
<g id="a_Node000004"><a xlink:href="STLContainerBase_8hpp.html" target="_top" xlink:title=" ">
<polygon fill="white" stroke="#666666" points="1364.5,-294 1238.5,-294 1238.5,-275 1364.5,-275 1364.5,-294"/>
<text text-anchor="middle" x="1301.5" y="-282" font-family="Helvetica,sans-Serif" font-size="10.00">STLContainerBase.hpp</text>
</a>
</g>
</g>
<!-- Node1&#45;&gt;Node4 -->
<g id="edge3_Node000001_Node000004" class="edge">
<title>Node1&#45;&gt;Node4</title>
<g id="a_edge3_Node000001_Node000004"><a xlink:title=" ">
<path fill="none" stroke="#63b8ff" d="M1186.98,-433.53C1196.64,-425.47 1208.01,-414.96 1216.5,-404 1239.27,-374.61 1233.19,-359.74 1255.5,-330 1265.9,-316.13 1280.71,-302.64 1290.69,-294.22"/>
<polygon fill="#63b8ff" stroke="#63b8ff" points="1184.65,-430.92 1179.06,-439.92 1189.04,-436.36 1184.65,-430.92"/>
</a>
</g>
</g>
<!-- Node27 -->
<g id="Node000027" class="node">
<title>Node27</title>
<g id="a_Node000027"><a xlink:href="checks_8hpp.html" target="_top" xlink:title=" ">
<polygon fill="white" stroke="#666666" points="1447,-404 1376,-404 1376,-385 1447,-385 1447,-404"/>
<text text-anchor="middle" x="1411.5" y="-392" font-family="Helvetica,sans-Serif" font-size="10.00">checks.hpp</text>
</a>
</g>
</g>
<!-- Node1&#45;&gt;Node27 -->
<g id="edge30_Node000001_Node000027" class="edge">
<title>Node1&#45;&gt;Node27</title>
<g id="a_edge30_Node000001_Node000027"><a xlink:title=" ">
<path fill="none" stroke="#63b8ff" d="M1216.7,-437.81C1263.89,-427.56 1333.98,-412.34 1375.97,-403.22"/>
<polygon fill="#63b8ff" stroke="#63b8ff" points="1215.73,-434.44 1206.7,-439.98 1217.22,-441.28 1215.73,-434.44"/>
</a>
</g>
</g>
<!-- Node46 -->
<g id="Node000046" class="node">
<title>Node46</title>
<g id="a_Node000046"><a xlink:href="common_8hpp.html" target="_top" xlink:title=" ">
<polygon fill="white" stroke="#666666" points="1207.5,-404 1127.5,-404 1127.5,-385 1207.5,-385 1207.5,-404"/>
<text text-anchor="middle" x="1167.5" y="-392" font-family="Helvetica,sans-Serif" font-size="10.00">common.hpp</text>
</a>
</g>
</g>
<!-- Node1&#45;&gt;Node46 -->
<g id="edge54_Node000001_Node000046" class="edge">
<title>Node1&#45;&gt;Node46</title>
<g id="a_edge54_Node000001_Node000046"><a xlink:title=" ">
<path fill="none" stroke="#63b8ff" d="M1167.5,-429.66C1167.5,-420.93 1167.5,-410.99 1167.5,-404.09"/>
<polygon fill="#63b8ff" stroke="#63b8ff" points="1164,-429.75 1167.5,-439.75 1171,-429.75 1164,-429.75"/>
</a>
</g>
</g>
<!-- Node5 -->
<g id="Node000005" class="node">
<title>Node5</title>
<g id="a_Node000005"><a xlink:href="DynamicArray_8hpp.html" target="_top" xlink:title=" ">
<polygon fill="white" stroke="#666666" points="1147.5,-239 1041.5,-239 1041.5,-220 1147.5,-220 1147.5,-239"/>
<text text-anchor="middle" x="1094.5" y="-227" font-family="Helvetica,sans-Serif" font-size="10.00">DynamicArray.hpp</text>
</a>
</g>
</g>
<!-- Node4&#45;&gt;Node5 -->
<g id="edge4_Node000004_Node000005" class="edge">
<title>Node4&#45;&gt;Node5</title>
<g id="a_edge4_Node000004_Node000005"><a xlink:title=" ">
<path fill="none" stroke="#63b8ff" d="M1258.29,-272.44C1219.54,-262.52 1163.47,-248.16 1128.02,-239.08"/>
<polygon fill="#63b8ff" stroke="#63b8ff" points="1257.69,-275.89 1268.24,-274.98 1259.42,-269.11 1257.69,-275.89"/>
</a>
</g>
</g>
<!-- Node24 -->
<g id="Node000024" class="node">
<title>Node24</title>
<g id="a_Node000024"><a xlink:href="StaticArray_8hpp.html" target="_top" xlink:title=" ">
<polygon fill="white" stroke="#666666" points="1372.5,-239 1282.5,-239 1282.5,-220 1372.5,-220 1372.5,-239"/>
<text text-anchor="middle" x="1327.5" y="-227" font-family="Helvetica,sans-Serif" font-size="10.00">StaticArray.hpp</text>
</a>
</g>
</g>
<!-- Node4&#45;&gt;Node24 -->
<g id="edge26_Node000004_Node000024" class="edge">
<title>Node4&#45;&gt;Node24</title>
<g id="a_edge26_Node000004_Node000024"><a xlink:title=" ">
<path fill="none" stroke="#63b8ff" d="M1310.32,-265.53C1314.7,-256.6 1319.79,-246.22 1323.29,-239.09"/>
<polygon fill="#63b8ff" stroke="#63b8ff" points="1307.06,-264.23 1305.79,-274.75 1313.34,-267.31 1307.06,-264.23"/>
</a>
</g>
</g>
<!-- Node6 -->
<g id="Node000006" class="node">
<title>Node6</title>
<g id="a_Node000006"><a xlink:href="ArgParse_8hpp.html" target="_top" xlink:title=" ">
<polygon fill="white" stroke="#666666" points="623.5,-184 543.5,-184 543.5,-165 623.5,-165 623.5,-184"/>
<text text-anchor="middle" x="583.5" y="-172" font-family="Helvetica,sans-Serif" font-size="10.00">ArgParse.hpp</text>
</a>
</g>
</g>
<!-- Node5&#45;&gt;Node6 -->
<g id="edge5_Node000005_Node000006" class="edge">
<title>Node5&#45;&gt;Node6</title>
<g id="a_edge5_Node000005_Node000006"><a xlink:title=" ">
<path fill="none" stroke="#63b8ff" d="M1031.28,-221.94C924.65,-210.88 712.06,-188.83 623.58,-179.66"/>
<polygon fill="#63b8ff" stroke="#63b8ff" points="1030.95,-225.43 1041.26,-222.98 1031.67,-218.46 1030.95,-225.43"/>
</a>
</g>
</g>
<!-- Node14 -->
<g id="Node000014" class="node">
<title>Node14</title>
<g id="a_Node000014"><a xlink:href="ContiguousTree_8hpp.html" target="_top" xlink:title=" ">
<polygon fill="white" stroke="#666666" points="1087,-74 974,-74 974,-55 1087,-55 1087,-74"/>
<text text-anchor="middle" x="1030.5" y="-62" font-family="Helvetica,sans-Serif" font-size="10.00">ContiguousTree.hpp</text>
</a>
</g>
</g>
<!-- Node5&#45;&gt;Node14 -->
<g id="edge13_Node000005_Node000014" class="edge">
<title>Node5&#45;&gt;Node14</title>
<g id="a_edge13_Node000005_Node000014"><a xlink:title=" ">
<path fill="none" stroke="#63b8ff" d="M1089.63,-209.85C1086.12,-197.08 1081.05,-179.84 1075.5,-165 1062.62,-130.55 1043.42,-91.17 1034.87,-74.12"/>
<polygon fill="#63b8ff" stroke="#63b8ff" points="1086.31,-211 1092.28,-219.75 1093.07,-209.19 1086.31,-211"/>
</a>
</g>
</g>
<!-- Node15 -->
<g id="Node000015" class="node">
<title>Node15</title>
<g id="a_Node000015"><a xlink:href="ParallelFor_8hpp.html" target="_top" xlink:title=" ">
<polygon fill="white" stroke="#666666" points="1193.5,-74 1105.5,-74 1105.5,-55 1193.5,-55 1193.5,-74"/>
<text text-anchor="middle" x="1149.5" y="-62" font-family="Helvetica,sans-Serif" font-size="10.00">ParallelFor.hpp</text>
</a>
</g>
</g>
<!-- Node5&#45;&gt;Node15 -->
<g id="edge14_Node000005_Node000015" class="edge">
<title>Node5&#45;&gt;Node15</title>
<g id="a_edge14_Node000005_Node000015"><a xlink:title=" ">
<path fill="none" stroke="#63b8ff" d="M1100.8,-209.83C1112.66,-174.67 1137.89,-99.9 1146.53,-74.31"/>
<polygon fill="#63b8ff" stroke="#63b8ff" points="1097.34,-209.14 1097.46,-219.74 1103.97,-211.38 1097.34,-209.14"/>
</a>
</g>
</g>
<!-- Node16 -->
<g id="Node000016" class="node">
<title>Node16</title>
<g id="a_Node000016"><a xlink:href="ThreadLocal_8hpp.html" target="_top" xlink:title=" ">
<polygon fill="white" stroke="#666666" points="1258,-184 1161,-184 1161,-165 1258,-165 1258,-184"/>
<text text-anchor="middle" x="1209.5" y="-172" font-family="Helvetica,sans-Serif" font-size="10.00">ThreadLocal.hpp</text>
</a>
</g>
</g>
<!-- Node5&#45;&gt;Node16 -->
<g id="edge15_Node000005_Node000016" class="edge">
<title>Node5&#45;&gt;Node16</title>
<g id="a_edge15_Node000005_Node000016"><a xlink:title=" ">
<path fill="none" stroke="#63b8ff" d="M1122.13,-215.77C1143.34,-205.99 1172.06,-192.75 1190.69,-184.17"/>
<polygon fill="#63b8ff" stroke="#63b8ff" points="1120.59,-212.62 1112.98,-219.98 1123.52,-218.98 1120.59,-212.62"/>
</a>
</g>
</g>
<!-- Node17 -->
<g id="Node000017" class="node">
<title>Node17</title>
<g id="a_Node000017"><a xlink:href="ThreadPoolStorage_8hpp.html" target="_top" xlink:title=" ">
<polygon fill="white" stroke="#666666" points="924.5,-184 794.5,-184 794.5,-165 924.5,-165 924.5,-184"/>
<text text-anchor="middle" x="859.5" y="-172" font-family="Helvetica,sans-Serif" font-size="10.00">ThreadPoolStorage.hpp</text>
</a>
</g>
</g>
<!-- Node5&#45;&gt;Node17 -->
<g id="edge16_Node000005_Node000017" class="edge">
<title>Node5&#45;&gt;Node17</title>
<g id="a_edge16_Node000005_Node000017"><a xlink:title=" ">
<path fill="none" stroke="#63b8ff" d="M1046.85,-217.75C1002.81,-207.82 938.23,-193.26 897.55,-184.08"/>
<polygon fill="#63b8ff" stroke="#63b8ff" points="1046.22,-221.2 1056.74,-219.98 1047.76,-214.37 1046.22,-221.2"/>
</a>
</g>
</g>
<!-- Node21 -->
<g id="Node000021" class="node">
<title>Node21</title>
<g id="a_Node000021"><a xlink:href="abstree_8hpp.html" target="_top" xlink:title=" ">
<polygon fill="white" stroke="#666666" points="822.5,-74 748.5,-74 748.5,-55 822.5,-55 822.5,-74"/>
<text text-anchor="middle" x="785.5" y="-62" font-family="Helvetica,sans-Serif" font-size="10.00">abstree.hpp</text>
</a>
</g>
</g>
<!-- Node5&#45;&gt;Node21 -->
<g id="edge24_Node000005_Node000021" class="edge">
<title>Node5&#45;&gt;Node21</title>
<g id="a_edge24_Node000005_Node000021"><a xlink:title=" ">
<path fill="none" stroke="#63b8ff" d="M1031.28,-228.73C950.3,-227.52 816.64,-219.95 785.5,-184 758.02,-152.28 774.34,-95.86 782.1,-74.26"/>
<polygon fill="#63b8ff" stroke="#63b8ff" points="1031.33,-232.23 1041.37,-228.85 1031.42,-225.23 1031.33,-232.23"/>
</a>
</g>
</g>
<!-- Node22 -->
<g id="Node000022" class="node">
<title>Node22</title>
<g id="a_Node000022"><a xlink:href="UnstructuredView_8hpp.html" target="_top" xlink:title=" ">
<polygon fill="white" stroke="#666666" points="1066.5,-184 942.5,-184 942.5,-165 1066.5,-165 1066.5,-184"/>
<text text-anchor="middle" x="1004.5" y="-172" font-family="Helvetica,sans-Serif" font-size="10.00">UnstructuredView.hpp</text>
</a>
</g>
</g>
<!-- Node5&#45;&gt;Node22 -->
<g id="edge23_Node000005_Node000022" class="edge">
<title>Node5&#45;&gt;Node22</title>
<g id="a_edge23_Node000005_Node000022"><a xlink:title=" ">
<path fill="none" stroke="#63b8ff" d="M1071.06,-214.7C1054.66,-205.04 1033.27,-192.44 1019.22,-184.17"/>
<polygon fill="#63b8ff" stroke="#63b8ff" points="1069.65,-217.93 1080.04,-219.98 1073.2,-211.89 1069.65,-217.93"/>
</a>
</g>
</g>
<!-- Node23 -->
<g id="Node000023" class="node">
<title>Node23</title>
<g id="a_Node000023"><a xlink:href="stl__extension_8hpp.html" target="_top" xlink:title=" ">
<polygon fill="white" stroke="#666666" points="1379,-184 1276,-184 1276,-165 1379,-165 1379,-184"/>
<text text-anchor="middle" x="1327.5" y="-172" font-family="Helvetica,sans-Serif" font-size="10.00">stl_extension.hpp</text>
</a>
</g>
</g>
<!-- Node5&#45;&gt;Node23 -->
<g id="edge25_Node000005_Node000023" class="edge">
<title>Node5&#45;&gt;Node23</title>
<g id="a_edge25_Node000005_Node000023"><a xlink:title=" ">
<path fill="none" stroke="#63b8ff" d="M1141.75,-217.75C1185.41,-207.82 1249.44,-193.26 1289.77,-184.08"/>
<polygon fill="#63b8ff" stroke="#63b8ff" points="1140.91,-214.35 1131.94,-219.98 1142.46,-221.18 1140.91,-214.35"/>
</a>
</g>
</g>
<!-- Node7 -->
<g id="Node000007" class="node">
<title>Node7</title>
<g id="a_Node000007"><a xlink:href="AbsArgument_8hpp.html" target="_top" xlink:title=" ">
<polygon fill="white" stroke="#666666" points="566.5,-129 462.5,-129 462.5,-110 566.5,-110 566.5,-129"/>
<text text-anchor="middle" x="514.5" y="-117" font-family="Helvetica,sans-Serif" font-size="10.00">AbsArgument.hpp</text>
</a>
</g>
</g>
<!-- Node6&#45;&gt;Node7 -->
<g id="edge6_Node000006_Node000007" class="edge">
<title>Node6&#45;&gt;Node7</title>
<g id="a_edge6_Node000006_Node000007"><a xlink:title=" ">
<path fill="none" stroke="#63b8ff" d="M564.46,-158.88C552.04,-149.34 536.26,-137.21 525.79,-129.17"/>
<polygon fill="#63b8ff" stroke="#63b8ff" points="562.35,-161.67 572.41,-164.98 566.62,-156.12 562.35,-161.67"/>
</a>
</g>
</g>
<!-- Node12 -->
<g id="Node000012" class="node">
<title>Node12</title>
<g id="a_Node000012"><a xlink:href="container__extension_8hpp.html" target="_top" xlink:title=" ">
<polygon fill="white" stroke="#666666" points="722,-129 585,-129 585,-110 722,-110 722,-129"/>
<text text-anchor="middle" x="653.5" y="-117" font-family="Helvetica,sans-Serif" font-size="10.00">container_extension.hpp</text>
</a>
</g>
</g>
<!-- Node6&#45;&gt;Node12 -->
<g id="edge11_Node000006_Node000012" class="edge">
<title>Node6&#45;&gt;Node12</title>
<g id="a_edge11_Node000006_Node000012"><a xlink:title=" ">
<path fill="none" stroke="#63b8ff" d="M602.81,-158.88C615.41,-149.34 631.43,-137.21 642.05,-129.17"/>
<polygon fill="#63b8ff" stroke="#63b8ff" points="600.61,-156.16 594.75,-164.98 604.83,-161.74 600.61,-156.16"/>
</a>
</g>
</g>
<!-- Node13 -->
<g id="Node000013" class="node">
<title>Node13</title>
<g id="a_Node000013"><a xlink:href="file__system__extension_8hpp.html" target="_top" xlink:title=" ">
<polygon fill="white" stroke="#666666" points="444,-129 297,-129 297,-110 444,-110 444,-129"/>
<text text-anchor="middle" x="370.5" y="-117" font-family="Helvetica,sans-Serif" font-size="10.00">file_system_extension.hpp</text>
</a>
</g>
</g>
<!-- Node6&#45;&gt;Node13 -->
<g id="edge12_Node000006_Node000013" class="edge">
<title>Node6&#45;&gt;Node13</title>
<g id="a_edge12_Node000006_Node000013"><a xlink:title=" ">
<path fill="none" stroke="#63b8ff" d="M539.55,-162.56C499.66,-152.64 441.63,-138.2 404.99,-129.08"/>
<polygon fill="#63b8ff" stroke="#63b8ff" points="538.73,-165.97 549.28,-164.98 540.42,-159.17 538.73,-165.97"/>
</a>
</g>
</g>
<!-- Node8 -->
<g id="Node000008" class="node">
<title>Node8</title>
<g id="a_Node000008"><a xlink:href="AggregateArgument_8hpp.html" target="_top" xlink:title=" ">
<polygon fill="white" stroke="#666666" points="306.5,-74 170.5,-74 170.5,-55 306.5,-55 306.5,-74"/>
<text text-anchor="middle" x="238.5" y="-62" font-family="Helvetica,sans-Serif" font-size="10.00">AggregateArgument.hpp</text>
</a>
</g>
</g>
<!-- Node7&#45;&gt;Node8 -->
<g id="edge7_Node000007_Node000008" class="edge">
<title>Node7&#45;&gt;Node8</title>
<g id="a_edge7_Node000007_Node000008"><a xlink:title=" ">
<path fill="none" stroke="#63b8ff" d="M460.16,-108.07C408.42,-98.13 331.47,-83.35 283.19,-74.08"/>
<polygon fill="#63b8ff" stroke="#63b8ff" points="459.68,-111.54 470.16,-109.98 461,-104.66 459.68,-111.54"/>
</a>
</g>
</g>
<!-- Node9 -->
<g id="Node000009" class="node">
<title>Node9</title>
<g id="a_Node000009"><a xlink:href="FlagArgument_8hpp.html" target="_top" xlink:title=" ">
<polygon fill="white" stroke="#666666" points="432,-74 325,-74 325,-55 432,-55 432,-74"/>
<text text-anchor="middle" x="378.5" y="-62" font-family="Helvetica,sans-Serif" font-size="10.00">FlagArgument.hpp</text>
</a>
</g>
</g>
<!-- Node7&#45;&gt;Node9 -->
<g id="edge8_Node000007_Node000009" class="edge">
<title>Node7&#45;&gt;Node9</title>
<g id="a_edge8_Node000007_Node000009"><a xlink:title=" ">
<path fill="none" stroke="#63b8ff" d="M483.17,-106.29C457.96,-96.47 423.17,-82.91 400.75,-74.17"/>
<polygon fill="#63b8ff" stroke="#63b8ff" points="482.06,-109.61 492.65,-109.98 484.6,-103.09 482.06,-109.61"/>
</a>
</g>
</g>
<!-- Node10 -->
<g id="Node000010" class="node">
<title>Node10</title>
<g id="a_Node000010"><a xlink:href="KeywordArgument_8hpp.html" target="_top" xlink:title=" ">
<polygon fill="white" stroke="#666666" points="578.5,-74 450.5,-74 450.5,-55 578.5,-55 578.5,-74"/>
<text text-anchor="middle" x="514.5" y="-62" font-family="Helvetica,sans-Serif" font-size="10.00">KeywordArgument.hpp</text>
</a>
</g>
</g>
<!-- Node7&#45;&gt;Node10 -->
<g id="edge9_Node000007_Node000010" class="edge">
<title>Node7&#45;&gt;Node10</title>
<g id="a_edge9_Node000007_Node000010"><a xlink:title=" ">
<path fill="none" stroke="#63b8ff" d="M514.5,-99.66C514.5,-90.93 514.5,-80.99 514.5,-74.09"/>
<polygon fill="#63b8ff" stroke="#63b8ff" points="511,-99.75 514.5,-109.75 518,-99.75 511,-99.75"/>
</a>
</g>
</g>
<!-- Node11 -->
<g id="Node000011" class="node">
<title>Node11</title>
<g id="a_Node000011"><a xlink:href="PositionalArgument_8hpp.html" target="_top" xlink:title=" ">
<polygon fill="white" stroke="#666666" points="730.5,-74 596.5,-74 596.5,-55 730.5,-55 730.5,-74"/>
<text text-anchor="middle" x="663.5" y="-62" font-family="Helvetica,sans-Serif" font-size="10.00">PositionalArgument.hpp</text>
</a>
</g>
</g>
<!-- Node7&#45;&gt;Node11 -->
<g id="edge10_Node000007_Node000011" class="edge">
<title>Node7&#45;&gt;Node11</title>
<g id="a_edge10_Node000007_Node000011"><a xlink:title=" ">
<path fill="none" stroke="#63b8ff" d="M548.09,-106.55C575.76,-96.71 614.34,-82.98 639.12,-74.17"/>
<polygon fill="#63b8ff" stroke="#63b8ff" points="546.69,-103.34 538.44,-109.98 549.03,-109.93 546.69,-103.34"/>
</a>
</g>
</g>
<!-- Node18 -->
<g id="Node000018" class="node">
<title>Node18</title>
<g id="a_Node000018"><a xlink:href="ThreadPool_8hpp.html" target="_top" xlink:title=" ">
<polygon fill="white" stroke="#666666" points="944.5,-129 852.5,-129 852.5,-110 944.5,-110 944.5,-129"/>
<text text-anchor="middle" x="898.5" y="-117" font-family="Helvetica,sans-Serif" font-size="10.00">ThreadPool.hpp</text>
</a>
</g>
</g>
<!-- Node17&#45;&gt;Node18 -->
<g id="edge17_Node000017_Node000018" class="edge">
<title>Node17&#45;&gt;Node18</title>
<g id="a_edge17_Node000017_Node000018"><a xlink:title=" ">
<path fill="none" stroke="#63b8ff" d="M871.88,-156.67C878.64,-147.5 886.71,-136.52 892.18,-129.09"/>
<polygon fill="#63b8ff" stroke="#63b8ff" points="869.05,-154.62 865.94,-164.75 874.69,-158.77 869.05,-154.62"/>
</a>
</g>
</g>
<!-- Node18&#45;&gt;Node14 -->
<g id="edge18_Node000018_Node000014" class="edge">
<title>Node18&#45;&gt;Node14</title>
<g id="a_edge18_Node000018_Node000014"><a xlink:title=" ">
<path fill="none" stroke="#63b8ff" d="M929.23,-106.16C953.67,-96.35 987.24,-82.87 1008.91,-74.17"/>
<polygon fill="#63b8ff" stroke="#63b8ff" points="927.68,-103.01 919.71,-109.98 930.29,-109.51 927.68,-103.01"/>
</a>
</g>
</g>
<!-- Node18&#45;&gt;Node15 -->
<g id="edge19_Node000018_Node000015" class="edge">
<title>Node18&#45;&gt;Node15</title>
<g id="a_edge19_Node000018_Node000015"><a xlink:title=" ">
<path fill="none" stroke="#63b8ff" d="M948.8,-107.88C995.85,-97.94 1065.22,-83.3 1108.86,-74.08"/>
<polygon fill="#63b8ff" stroke="#63b8ff" points="947.89,-104.49 938.83,-109.98 949.33,-111.34 947.89,-104.49"/>
</a>
</g>
</g>
<!-- Node19 -->
<g id="Node000019" class="node">
<title>Node19</title>
<g id="a_Node000019"><a xlink:href="ResourceLoader_8hpp.html" target="_top" xlink:title=" ">
<polygon fill="white" stroke="#666666" points="956,-74 841,-74 841,-55 956,-55 956,-74"/>
<text text-anchor="middle" x="898.5" y="-62" font-family="Helvetica,sans-Serif" font-size="10.00">ResourceLoader.hpp</text>
</a>
</g>
</g>
<!-- Node18&#45;&gt;Node19 -->
<g id="edge20_Node000018_Node000019" class="edge">
<title>Node18&#45;&gt;Node19</title>
<g id="a_edge20_Node000018_Node000019"><a xlink:title=" ">
<path fill="none" stroke="#63b8ff" d="M898.5,-99.66C898.5,-90.93 898.5,-80.99 898.5,-74.09"/>
<polygon fill="#63b8ff" stroke="#63b8ff" points="895,-99.75 898.5,-109.75 902,-99.75 895,-99.75"/>
</a>
</g>
</g>
<!-- Node18&#45;&gt;Node21 -->
<g id="edge22_Node000018_Node000021" class="edge">
<title>Node18&#45;&gt;Node21</title>
<g id="a_edge22_Node000018_Node000021"><a xlink:title=" ">
<path fill="none" stroke="#63b8ff" d="M871.07,-105.63C850.25,-95.87 822.2,-82.71 803.99,-74.17"/>
<polygon fill="#63b8ff" stroke="#63b8ff" points="869.8,-108.91 880.34,-109.98 872.78,-102.57 869.8,-108.91"/>
</a>
</g>
</g>
<!-- Node20 -->
<g id="Node000020" class="node">
<title>Node20</title>
<g id="a_Node000020"><a xlink:href="ResourceQueue_8hpp.html" target="_top" xlink:title=" ">
<polygon fill="white" stroke="#666666" points="955.5,-19 841.5,-19 841.5,0 955.5,0 955.5,-19"/>
<text text-anchor="middle" x="898.5" y="-7" font-family="Helvetica,sans-Serif" font-size="10.00">ResourceQueue.hpp</text>
</a>
</g>
</g>
<!-- Node19&#45;&gt;Node20 -->
<g id="edge21_Node000019_Node000020" class="edge">
<title>Node19&#45;&gt;Node20</title>
<g id="a_edge21_Node000019_Node000020"><a xlink:title=" ">
<path fill="none" stroke="#63b8ff" d="M898.5,-44.66C898.5,-35.93 898.5,-25.99 898.5,-19.09"/>
<polygon fill="#63b8ff" stroke="#63b8ff" points="895,-44.75 898.5,-54.75 902,-44.75 895,-44.75"/>
</a>
</g>
</g>
<!-- Node24&#45;&gt;Node23 -->
<g id="edge29_Node000024_Node000023" class="edge">
<title>Node24&#45;&gt;Node23</title>
<g id="a_edge29_Node000024_Node000023"><a xlink:title=" ">
<path fill="none" stroke="#63b8ff" d="M1327.5,-209.66C1327.5,-200.93 1327.5,-190.99 1327.5,-184.09"/>
<polygon fill="#63b8ff" stroke="#63b8ff" points="1324,-209.75 1327.5,-219.75 1331,-209.75 1324,-209.75"/>
</a>
</g>
</g>
<!-- Node25 -->
<g id="Node000025" class="node">
<title>Node25</title>
<g id="a_Node000025"><a xlink:href="base_8hpp.html" target="_top" xlink:title=" ">
<polygon fill="white" stroke="#666666" points="1458,-184 1397,-184 1397,-165 1458,-165 1458,-184"/>
<text text-anchor="middle" x="1427.5" y="-172" font-family="Helvetica,sans-Serif" font-size="10.00">base.hpp</text>
</a>
</g>
</g>
<!-- Node24&#45;&gt;Node25 -->
<g id="edge27_Node000024_Node000025" class="edge">
<title>Node24&#45;&gt;Node25</title>
<g id="a_edge27_Node000024_Node000025"><a xlink:title=" ">
<path fill="none" stroke="#63b8ff" d="M1352.53,-215.23C1370.87,-205.51 1395.24,-192.6 1411.14,-184.17"/>
<polygon fill="#63b8ff" stroke="#63b8ff" points="1350.76,-212.21 1343.57,-219.98 1354.04,-218.39 1350.76,-212.21"/>
</a>
</g>
</g>
<!-- Node26 -->
<g id="Node000026" class="node">
<title>Node26</title>
<g id="a_Node000026"><a xlink:href="json_8hpp.html" target="_top" xlink:title=" ">
<polygon fill="white" stroke="#666666" points="1610.5,-184 1552.5,-184 1552.5,-165 1610.5,-165 1610.5,-184"/>
<text text-anchor="middle" x="1581.5" y="-172" font-family="Helvetica,sans-Serif" font-size="10.00">json.hpp</text>
</a>
</g>
</g>
<!-- Node24&#45;&gt;Node26 -->
<g id="edge28_Node000024_Node000026" class="edge">
<title>Node24&#45;&gt;Node26</title>
<g id="a_edge28_Node000024_Node000026"><a xlink:title=" ">
<path fill="none" stroke="#63b8ff" d="M1378.36,-217.89C1430.51,-207 1509.83,-190.46 1552.27,-181.6"/>
<polygon fill="#63b8ff" stroke="#63b8ff" points="1377.38,-214.52 1368.31,-219.98 1378.81,-221.37 1377.38,-214.52"/>
</a>
</g>
</g>
<!-- Node27&#45;&gt;Node26 -->
<g id="edge50_Node000027_Node000026" class="edge">
<title>Node27&#45;&gt;Node26</title>
<g id="a_edge50_Node000027_Node000026"><a xlink:title=" ">
<path fill="none" stroke="#63b8ff" d="M1457.43,-390.82C1515.67,-386.38 1611.22,-375.2 1633.5,-349 1670.66,-305.3 1662.43,-271.66 1637.5,-220 1629.62,-203.67 1612.51,-191.49 1599.27,-184.04"/>
<polygon fill="#63b8ff" stroke="#63b8ff" points="1457.08,-387.34 1447.36,-391.55 1457.59,-394.32 1457.08,-387.34"/>
</a>
</g>
</g>
<!-- Node28 -->
<g id="Node000028" class="node">
<title>Node28</title>
<g id="a_Node000028"><a xlink:href="OutputStream_8hpp.html" target="_top" xlink:title=" ">
<polygon fill="white" stroke="#666666" points="695.5,-349 589.5,-349 589.5,-330 695.5,-330 695.5,-349"/>
<text text-anchor="middle" x="642.5" y="-337" font-family="Helvetica,sans-Serif" font-size="10.00">OutputStream.hpp</text>
</a>
</g>
</g>
<!-- Node27&#45;&gt;Node28 -->
<g id="edge31_Node000027_Node000028" class="edge">
<title>Node27&#45;&gt;Node28</title>
<g id="a_edge31_Node000027_Node000028"><a xlink:title=" ">
<path fill="none" stroke="#63b8ff" d="M1365.61,-390.34C1231.19,-381.07 838.86,-354.03 695.63,-344.16"/>
<polygon fill="#63b8ff" stroke="#63b8ff" points="1365.73,-393.85 1375.95,-391.05 1366.22,-386.87 1365.73,-393.85"/>
</a>
</g>
</g>
<!-- Node39 -->
<g id="Node000039" class="node">
<title>Node39</title>
<g id="a_Node000039"><a xlink:href="Serializer_8hpp.html" target="_top" xlink:title=" ">
<polygon fill="white" stroke="#666666" points="1624,-349 1541,-349 1541,-330 1624,-330 1624,-349"/>
<text text-anchor="middle" x="1582.5" y="-337" font-family="Helvetica,sans-Serif" font-size="10.00">Serializer.hpp</text>
</a>
</g>
</g>
<!-- Node27&#45;&gt;Node39 -->
<g id="edge45_Node000027_Node000039" class="edge">
<title>Node27&#45;&gt;Node39</title>
<g id="a_edge45_Node000027_Node000039"><a xlink:title=" ">
<path fill="none" stroke="#63b8ff" d="M1448.84,-381.93C1480.78,-372.03 1526.02,-358.01 1554.81,-349.08"/>
<polygon fill="#63b8ff" stroke="#63b8ff" points="1447.49,-378.68 1438.97,-384.98 1449.56,-385.37 1447.49,-378.68"/>
</a>
</g>
</g>
<!-- Node43 -->
<g id="Node000043" class="node">
<title>Node43</title>
<g id="a_Node000043"><a xlink:href="getReference_8hpp.html" target="_top" xlink:title=" ">
<polygon fill="white" stroke="#666666" points="1367,-349 1264,-349 1264,-330 1367,-330 1367,-349"/>
<text text-anchor="middle" x="1315.5" y="-337" font-family="Helvetica,sans-Serif" font-size="10.00">getReference.hpp</text>
</a>
</g>
</g>
<!-- Node27&#45;&gt;Node43 -->
<g id="edge49_Node000027_Node000043" class="edge">
<title>Node27&#45;&gt;Node43</title>
<g id="a_edge49_Node000027_Node000043"><a xlink:title=" ">
<path fill="none" stroke="#63b8ff" d="M1386.98,-379.97C1369.44,-370.28 1346.33,-357.52 1331.2,-349.17"/>
<polygon fill="#63b8ff" stroke="#63b8ff" points="1385.63,-383.22 1396.08,-384.98 1389.01,-377.09 1385.63,-383.22"/>
</a>
</g>
</g>
<!-- Node44 -->
<g id="Node000044" class="node">
<title>Node44</title>
<g id="a_Node000044"><a xlink:href="resize_8hpp.html" target="_top" xlink:title=" ">
<polygon fill="white" stroke="#666666" points="1523,-349 1456,-349 1456,-330 1523,-330 1523,-349"/>
<text text-anchor="middle" x="1489.5" y="-337" font-family="Helvetica,sans-Serif" font-size="10.00">resize.hpp</text>
</a>
</g>
</g>
<!-- Node27&#45;&gt;Node44 -->
<g id="edge51_Node000027_Node000044" class="edge">
<title>Node27&#45;&gt;Node44</title>
<g id="a_edge51_Node000027_Node000044"><a xlink:title=" ">
<path fill="none" stroke="#63b8ff" d="M1432.62,-379.15C1446.71,-369.57 1464.79,-357.29 1476.74,-349.17"/>
<polygon fill="#63b8ff" stroke="#63b8ff" points="1430.34,-376.47 1424.03,-384.98 1434.27,-382.26 1430.34,-376.47"/>
</a>
</g>
</g>
<!-- Node45 -->
<g id="Node000045" class="node">
<title>Node45</title>
<g id="a_Node000045"><a xlink:href="zip_8hpp.html" target="_top" xlink:title=" ">
<polygon fill="white" stroke="#666666" points="1437.5,-349 1385.5,-349 1385.5,-330 1437.5,-330 1437.5,-349"/>
<text text-anchor="middle" x="1411.5" y="-337" font-family="Helvetica,sans-Serif" font-size="10.00">zip.hpp</text>
</a>
</g>
</g>
<!-- Node27&#45;&gt;Node45 -->
<g id="edge53_Node000027_Node000045" class="edge">
<title>Node27&#45;&gt;Node45</title>
<g id="a_edge53_Node000027_Node000045"><a xlink:title=" ">
<path fill="none" stroke="#63b8ff" d="M1411.5,-374.66C1411.5,-365.93 1411.5,-355.99 1411.5,-349.09"/>
<polygon fill="#63b8ff" stroke="#63b8ff" points="1408,-374.75 1411.5,-384.75 1415,-374.75 1408,-374.75"/>
</a>
</g>
</g>
<!-- Node28&#45;&gt;Node6 -->
<g id="edge32_Node000028_Node000006" class="edge">
<title>Node28&#45;&gt;Node6</title>
<g id="a_edge32_Node000028_Node000006"><a xlink:title=" ">
<path fill="none" stroke="#63b8ff" d="M624.25,-322.78C616.32,-314.94 607.67,-304.83 602.5,-294 584.36,-256.02 583.02,-204.2 583.26,-184.02"/>
<polygon fill="#63b8ff" stroke="#63b8ff" points="622.09,-325.55 631.79,-329.81 626.86,-320.43 622.09,-325.55"/>
</a>
</g>
</g>
<!-- Node29 -->
<g id="Node000029" class="node">
<title>Node29</title>
<g id="a_Node000029"><a xlink:href="Color_8hpp.html" target="_top" xlink:title=" ">
<polygon fill="white" stroke="#666666" points="673.5,-294 611.5,-294 611.5,-275 673.5,-275 673.5,-294"/>
<text text-anchor="middle" x="642.5" y="-282" font-family="Helvetica,sans-Serif" font-size="10.00">Color.hpp</text>
</a>
</g>
</g>
<!-- Node28&#45;&gt;Node29 -->
<g id="edge33_Node000028_Node000029" class="edge">
<title>Node28&#45;&gt;Node29</title>
<g id="a_edge33_Node000028_Node000029"><a xlink:title=" ">
<path fill="none" stroke="#63b8ff" d="M642.5,-319.66C642.5,-310.93 642.5,-300.99 642.5,-294.09"/>
<polygon fill="#63b8ff" stroke="#63b8ff" points="639,-319.75 642.5,-329.75 646,-319.75 639,-319.75"/>
</a>
</g>
</g>
<!-- Node30 -->
<g id="Node000030" class="node">
<title>Node30</title>
<g id="a_Node000030"><a xlink:href="FileOutputStream_8hpp.html" target="_top" xlink:title=" ">
<polygon fill="white" stroke="#666666" points="425,-294 302,-294 302,-275 425,-275 425,-294"/>
<text text-anchor="middle" x="363.5" y="-282" font-family="Helvetica,sans-Serif" font-size="10.00">FileOutputStream.hpp</text>
</a>
</g>
</g>
<!-- Node28&#45;&gt;Node30 -->
<g id="edge34_Node000028_Node000030" class="edge">
<title>Node28&#45;&gt;Node30</title>
<g id="a_edge34_Node000028_Node000030"><a xlink:title=" ">
<path fill="none" stroke="#63b8ff" d="M587.57,-328.07C535.26,-318.13 457.48,-303.35 408.68,-294.08"/>
<polygon fill="#63b8ff" stroke="#63b8ff" points="587.2,-331.56 597.67,-329.98 588.5,-324.68 587.2,-331.56"/>
</a>
</g>
</g>
<!-- Node38 -->
<g id="Node000038" class="node">
<title>Node38</title>
<g id="a_Node000038"><a xlink:href="StreamInterceptor_8hpp.html" target="_top" xlink:title=" ">
<polygon fill="white" stroke="#666666" points="817,-294 692,-294 692,-275 817,-275 817,-294"/>
<text text-anchor="middle" x="754.5" y="-282" font-family="Helvetica,sans-Serif" font-size="10.00">StreamInterceptor.hpp</text>
</a>
</g>
</g>
<!-- Node28&#45;&gt;Node38 -->
<g id="edge44_Node000028_Node000038" class="edge">
<title>Node28&#45;&gt;Node38</title>
<g id="a_edge44_Node000028_Node000038"><a xlink:title=" ">
<path fill="none" stroke="#63b8ff" d="M669.69,-325.63C690.32,-315.87 718.12,-302.71 736.18,-294.17"/>
<polygon fill="#63b8ff" stroke="#63b8ff" points="668.04,-322.54 660.49,-329.98 671.03,-328.87 668.04,-322.54"/>
</a>
</g>
</g>
<!-- Node31 -->
<g id="Node000031" class="node">
<title>Node31</title>
<g id="a_Node000031"><a xlink:href="Logger_8hpp.html" target="_top" xlink:title=" ">
<polygon fill="white" stroke="#666666" points="198.5,-239 128.5,-239 128.5,-220 198.5,-220 198.5,-239"/>
<text text-anchor="middle" x="163.5" y="-227" font-family="Helvetica,sans-Serif" font-size="10.00">Logger.hpp</text>
</a>
</g>
</g>
<!-- Node30&#45;&gt;Node31 -->
<g id="edge35_Node000030_Node000031" class="edge">
<title>Node30&#45;&gt;Node31</title>
<g id="a_edge35_Node000030_Node000031"><a xlink:title=" ">
<path fill="none" stroke="#63b8ff" d="M321.28,-272.31C283.85,-262.39 230,-248.12 195.89,-239.08"/>
<polygon fill="#63b8ff" stroke="#63b8ff" points="320.8,-275.81 331.37,-274.98 322.6,-269.04 320.8,-275.81"/>
</a>
</g>
</g>
<!-- Node32 -->
<g id="Node000032" class="node">
<title>Node32</title>
<g id="a_Node000032"><a xlink:href="LogBlock_8hpp.html" target="_top" xlink:title=" ">
<polygon fill="white" stroke="#666666" points="146.5,-184 64.5,-184 64.5,-165 146.5,-165 146.5,-184"/>
<text text-anchor="middle" x="105.5" y="-172" font-family="Helvetica,sans-Serif" font-size="10.00">LogBlock.hpp</text>
</a>
</g>
</g>
<!-- Node31&#45;&gt;Node32 -->
<g id="edge36_Node000031_Node000032" class="edge">
<title>Node31&#45;&gt;Node32</title>
<g id="a_edge36_Node000031_Node000032"><a xlink:title=" ">
<path fill="none" stroke="#63b8ff" d="M146.59,-213.04C136.3,-203.64 123.53,-191.98 114.99,-184.17"/>
<polygon fill="#63b8ff" stroke="#63b8ff" points="144.44,-215.82 154.18,-219.98 149.16,-210.66 144.44,-215.82"/>
</a>
</g>
</g>
<!-- Node33 -->
<g id="Node000033" class="node">
<title>Node33</title>
<g id="a_Node000033"><a xlink:href="Loggee_8hpp.html" target="_top" xlink:title=" ">
<polygon fill="white" stroke="#666666" points="73,-129 0,-129 0,-110 73,-110 73,-129"/>
<text text-anchor="middle" x="36.5" y="-117" font-family="Helvetica,sans-Serif" font-size="10.00">Loggee.hpp</text>
</a>
</g>
</g>
<!-- Node31&#45;&gt;Node33 -->
<g id="edge40_Node000031_Node000033" class="edge">
<title>Node31&#45;&gt;Node33</title>
<g id="a_edge40_Node000031_Node000033"><a xlink:title=" ">
<path fill="none" stroke="#63b8ff" d="M118.56,-219.53C96.8,-213.05 71.9,-202.13 55.5,-184 41.3,-168.3 37.69,-142.36 36.79,-129.02"/>
<polygon fill="#63b8ff" stroke="#63b8ff" points="117.72,-222.93 128.29,-222.21 119.58,-216.18 117.72,-222.93"/>
</a>
</g>
</g>
<!-- Node36 -->
<g id="Node000036" class="node">
<title>Node36</title>
<g id="a_Node000036"><a xlink:href="LoggerSingleton_8hpp.html" target="_top" xlink:title=" ">
<polygon fill="white" stroke="#666666" points="280.5,-184 164.5,-184 164.5,-165 280.5,-165 280.5,-184"/>
<text text-anchor="middle" x="222.5" y="-172" font-family="Helvetica,sans-Serif" font-size="10.00">LoggerSingleton.hpp</text>
</a>
</g>
</g>
<!-- Node31&#45;&gt;Node36 -->
<g id="edge41_Node000031_Node000036" class="edge">
<title>Node31&#45;&gt;Node36</title>
<g id="a_edge41_Node000031_Node000036"><a xlink:title=" ">
<path fill="none" stroke="#63b8ff" d="M180.7,-213.04C191.17,-203.64 204.15,-191.98 212.85,-184.17"/>
<polygon fill="#63b8ff" stroke="#63b8ff" points="178.08,-210.7 172.98,-219.98 182.76,-215.91 178.08,-210.7"/>
</a>
</g>
</g>
<!-- Node32&#45;&gt;Node33 -->
<g id="edge37_Node000032_Node000033" class="edge">
<title>Node32&#45;&gt;Node33</title>
<g id="a_edge37_Node000032_Node000033"><a xlink:title=" ">
<path fill="none" stroke="#63b8ff" d="M86.46,-158.88C74.04,-149.34 58.26,-137.21 47.79,-129.17"/>
<polygon fill="#63b8ff" stroke="#63b8ff" points="84.35,-161.67 94.41,-164.98 88.62,-156.12 84.35,-161.67"/>
</a>
</g>
</g>
<!-- Node34 -->
<g id="Node000034" class="node">
<title>Node34</title>
<g id="a_Node000034"><a xlink:href="testing_8hpp.html" target="_top" xlink:title=" ">
<polygon fill="white" stroke="#666666" points="162,-129 91,-129 91,-110 162,-110 162,-129"/>
<text text-anchor="middle" x="126.5" y="-117" font-family="Helvetica,sans-Serif" font-size="10.00">testing.hpp</text>
</a>
</g>
</g>
<!-- Node32&#45;&gt;Node34 -->
<g id="edge38_Node000032_Node000034" class="edge">
<title>Node32&#45;&gt;Node34</title>
<g id="a_edge38_Node000032_Node000034"><a xlink:title=" ">
<path fill="none" stroke="#63b8ff" d="M112.74,-155.24C116.25,-146.37 120.3,-136.14 123.1,-129.09"/>
<polygon fill="#63b8ff" stroke="#63b8ff" points="109.4,-154.16 108.97,-164.75 115.91,-156.74 109.4,-154.16"/>
</a>
</g>
</g>
<!-- Node35 -->
<g id="Node000035" class="node">
<title>Node35</title>
<g id="a_Node000035"><a xlink:href="essentials_8hpp.html" target="_top" xlink:title=" ">
<polygon fill="white" stroke="#666666" points="152,-74 65,-74 65,-55 152,-55 152,-74"/>
<text text-anchor="middle" x="108.5" y="-62" font-family="Helvetica,sans-Serif" font-size="10.00">essentials.hpp</text>
</a>
</g>
</g>
<!-- Node34&#45;&gt;Node35 -->
<g id="edge39_Node000034_Node000035" class="edge">
<title>Node34&#45;&gt;Node35</title>
<g id="a_edge39_Node000034_Node000035"><a xlink:title=" ">
<path fill="none" stroke="#63b8ff" d="M120.3,-100.24C117.29,-91.37 113.81,-81.14 111.42,-74.09"/>
<polygon fill="#63b8ff" stroke="#63b8ff" points="117,-101.4 123.53,-109.75 123.63,-99.15 117,-101.4"/>
</a>
</g>
</g>
<!-- Node36&#45;&gt;Node34 -->
<g id="edge42_Node000036_Node000034" class="edge">
<title>Node36&#45;&gt;Node34</title>
<g id="a_edge42_Node000036_Node000034"><a xlink:title=" ">
<path fill="none" stroke="#63b8ff" d="M197.98,-159.97C180.44,-150.28 157.33,-137.52 142.2,-129.17"/>
<polygon fill="#63b8ff" stroke="#63b8ff" points="196.63,-163.22 207.08,-164.98 200.01,-157.09 196.63,-163.22"/>
</a>
</g>
</g>
<!-- Node37 -->
<g id="Node000037" class="node">
<title>Node37</title>
<g id="a_Node000037"><a xlink:href="warning_8hpp.html" target="_top" xlink:title=" ">
<polygon fill="white" stroke="#666666" points="261,-129 184,-129 184,-110 261,-110 261,-129"/>
<text text-anchor="middle" x="222.5" y="-117" font-family="Helvetica,sans-Serif" font-size="10.00">warning.hpp</text>
</a>
</g>
</g>
<!-- Node36&#45;&gt;Node37 -->
<g id="edge43_Node000036_Node000037" class="edge">
<title>Node36&#45;&gt;Node37</title>
<g id="a_edge43_Node000036_Node000037"><a xlink:title=" ">
<path fill="none" stroke="#63b8ff" d="M222.5,-154.66C222.5,-145.93 222.5,-135.99 222.5,-129.09"/>
<polygon fill="#63b8ff" stroke="#63b8ff" points="219,-154.75 222.5,-164.75 226,-154.75 219,-154.75"/>
</a>
</g>
</g>
<!-- Node40 -->
<g id="Node000040" class="node">
<title>Node40</title>
<g id="a_Node000040"><a xlink:href="MPI_8hpp.html" target="_top" xlink:title=" ">
<polygon fill="white" stroke="#666666" points="1605.5,-294 1549.5,-294 1549.5,-275 1605.5,-275 1605.5,-294"/>
<text text-anchor="middle" x="1577.5" y="-282" font-family="Helvetica,sans-Serif" font-size="10.00">MPI.hpp</text>
</a>
</g>
</g>
<!-- Node39&#45;&gt;Node40 -->
<g id="edge46_Node000039_Node000040" class="edge">
<title>Node39&#45;&gt;Node40</title>
<g id="a_edge46_Node000039_Node000040"><a xlink:title=" ">
<path fill="none" stroke="#63b8ff" d="M1580.72,-319.66C1579.9,-310.93 1578.96,-300.99 1578.31,-294.09"/>
<polygon fill="#63b8ff" stroke="#63b8ff" points="1577.25,-320.12 1581.67,-329.75 1584.22,-319.46 1577.25,-320.12"/>
</a>
</g>
</g>
<!-- Node41 -->
<g id="Node000041" class="node">
<title>Node41</title>
<g id="a_Node000041"><a xlink:href="CommOperation_8hpp.html" target="_top" xlink:title=" ">
<polygon fill="white" stroke="#666666" points="1508.5,-239 1390.5,-239 1390.5,-220 1508.5,-220 1508.5,-239"/>
<text text-anchor="middle" x="1449.5" y="-227" font-family="Helvetica,sans-Serif" font-size="10.00">CommOperation.hpp</text>
</a>
</g>
</g>
<!-- Node40&#45;&gt;Node41 -->
<g id="edge47_Node000040_Node000041" class="edge">
<title>Node40&#45;&gt;Node41</title>
<g id="a_edge47_Node000040_Node000041"><a xlink:title=" ">
<path fill="none" stroke="#63b8ff" d="M1547.38,-271.03C1523.71,-261.23 1491.35,-247.83 1470.44,-239.17"/>
<polygon fill="#63b8ff" stroke="#63b8ff" points="1546.36,-274.39 1556.93,-274.98 1549.03,-267.93 1546.36,-274.39"/>
</a>
</g>
</g>
<!-- Node42 -->
<g id="Node000042" class="node">
<title>Node42</title>
<g id="a_Node000042"><a xlink:href="MPISingleton_8hpp.html" target="_top" xlink:title=" ">
<polygon fill="white" stroke="#666666" points="1628,-239 1527,-239 1527,-220 1628,-220 1628,-239"/>
<text text-anchor="middle" x="1577.5" y="-227" font-family="Helvetica,sans-Serif" font-size="10.00">MPISingleton.hpp</text>
</a>
</g>
</g>
<!-- Node40&#45;&gt;Node42 -->
<g id="edge48_Node000040_Node000042" class="edge">
<title>Node40&#45;&gt;Node42</title>
<g id="a_edge48_Node000040_Node000042"><a xlink:title=" ">
<path fill="none" stroke="#63b8ff" d="M1577.5,-264.66C1577.5,-255.93 1577.5,-245.99 1577.5,-239.09"/>
<polygon fill="#63b8ff" stroke="#63b8ff" points="1574,-264.75 1577.5,-274.75 1581,-264.75 1574,-264.75"/>
</a>
</g>
</g>
<!-- Node44&#45;&gt;Node4 -->
<g id="edge52_Node000044_Node000004" class="edge">
<title>Node44&#45;&gt;Node4</title>
<g id="a_edge52_Node000044_Node000004"><a xlink:title=" ">
<path fill="none" stroke="#63b8ff" d="M1449.36,-327.18C1414.2,-317.27 1363.87,-303.08 1331.94,-294.08"/>
<polygon fill="#63b8ff" stroke="#63b8ff" points="1448.72,-330.64 1459.29,-329.98 1450.62,-323.9 1448.72,-330.64"/>
</a>
</g>
</g>
<!-- Node46&#45;&gt;Node23 -->
<g id="edge55_Node000046_Node000023" class="edge">
<title>Node46&#45;&gt;Node23</title>
<g id="a_edge55_Node000046_Node000023"><a xlink:title=" ">
<path fill="none" stroke="#63b8ff" d="M1175.5,-375.67C1186.45,-351.95 1207.28,-309.04 1229.5,-275 1246.61,-248.79 1251.53,-242.3 1273.5,-220 1286.97,-206.33 1304.39,-192.58 1315.74,-184.06"/>
<polygon fill="#63b8ff" stroke="#63b8ff" points="1172.28,-374.3 1171.32,-384.85 1178.65,-377.2 1172.28,-374.3"/>
</a>
</g>
</g>
</g>
</svg>
