<?xml version="1.0" encoding="UTF-8" standalone="no"?>
<!DOCTYPE svg PUBLIC "-//W3C//DTD SVG 1.1//EN"
 "http://www.w3.org/Graphics/SVG/1.1/DTD/svg11.dtd">
<!-- Generated by graphviz version 2.43.0 (0)
 -->
<!-- Title: exception.hpp Pages: 1 -->
<svg width="717pt" height="229pt"
 viewBox="0.00 0.00 717.00 229.00" xmlns="http://www.w3.org/2000/svg" xmlns:xlink="http://www.w3.org/1999/xlink">
<g id="graph0" class="graph" transform="scale(1 1) rotate(0) translate(4 225)">
<title>exception.hpp</title>
<polygon fill="white" stroke="transparent" points="-4,4 -4,-225 713,-225 713,4 -4,4"/>
<!-- Node1 -->
<g id="node1" class="node">
<title>Node1</title>
<g id="a_node1"><a xlink:title=" ">
<polygon fill="#bfbfbf" stroke="black" points="365,-201.5 365,-220.5 451,-220.5 451,-201.5 365,-201.5"/>
<text text-anchor="middle" x="408" y="-208.5" font-family="Helvetica,sans-Serif" font-size="10.00">exception.hpp</text>
</a>
</g>
</g>
<!-- Node2 -->
<g id="node2" class="node">
<title>Node2</title>
<g id="a_node2"><a xlink:href="types_8hpp.html" target="_top" xlink:title=" ">
<polygon fill="white" stroke="black" points="210,-134.5 210,-164.5 320,-164.5 320,-134.5 210,-134.5"/>
<text text-anchor="start" x="218" y="-152.5" font-family="Helvetica,sans-Serif" font-size="10.00">packages/types/inc</text>
<text text-anchor="middle" x="265" y="-141.5" font-family="Helvetica,sans-Serif" font-size="10.00">/types.hpp</text>
</a>
</g>
</g>
<!-- Node1&#45;&gt;Node2 -->
<g id="edge1" class="edge">
<title>Node1&#45;&gt;Node2</title>
<path fill="none" stroke="midnightblue" d="M387.51,-201.48C366.88,-192.89 334.42,-179.38 308.09,-168.43"/>
<polygon fill="midnightblue" stroke="midnightblue" points="309.28,-165.13 298.7,-164.52 306.59,-171.6 309.28,-165.13"/>
</g>
<!-- Node7 -->
<g id="node7" class="node">
<title>Node7</title>
<g id="a_node7"><a xlink:title=" ">
<polygon fill="white" stroke="#bfbfbf" points="0,-73 0,-92 44,-92 44,-73 0,-73"/>
<text text-anchor="middle" x="22" y="-80" font-family="Helvetica,sans-Serif" font-size="10.00">string</text>
</a>
</g>
</g>
<!-- Node1&#45;&gt;Node7 -->
<g id="edge12" class="edge">
<title>Node1&#45;&gt;Node7</title>
<path fill="none" stroke="midnightblue" d="M364.87,-203.36C322.5,-196.2 256.34,-183.31 201,-165 132.45,-142.32 118.59,-128.19 53,-98 51.85,-97.47 50.67,-96.93 49.48,-96.38"/>
<polygon fill="midnightblue" stroke="midnightblue" points="50.88,-93.17 40.34,-92.13 47.93,-99.52 50.88,-93.17"/>
</g>
<!-- Node12 -->
<g id="node12" class="node">
<title>Node12</title>
<g id="a_node12"><a xlink:title=" ">
<polygon fill="white" stroke="#bfbfbf" points="338.5,-140 338.5,-159 403.5,-159 403.5,-140 338.5,-140"/>
<text text-anchor="middle" x="371" y="-147" font-family="Helvetica,sans-Serif" font-size="10.00">stdexcept</text>
</a>
</g>
</g>
<!-- Node1&#45;&gt;Node12 -->
<g id="edge11" class="edge">
<title>Node1&#45;&gt;Node12</title>
<path fill="none" stroke="midnightblue" d="M402.7,-201.48C397.26,-192.73 388.64,-178.87 381.76,-167.81"/>
<polygon fill="midnightblue" stroke="midnightblue" points="384.54,-165.65 376.29,-159.01 378.6,-169.35 384.54,-165.65"/>
</g>
<!-- Node13 -->
<g id="node13" class="node">
<title>Node13</title>
<g id="a_node13"><a xlink:title=" ">
<polygon fill="white" stroke="#bfbfbf" points="421.5,-140 421.5,-159 468.5,-159 468.5,-140 421.5,-140"/>
<text text-anchor="middle" x="445" y="-147" font-family="Helvetica,sans-Serif" font-size="10.00">deque</text>
</a>
</g>
</g>
<!-- Node1&#45;&gt;Node13 -->
<g id="edge13" class="edge">
<title>Node1&#45;&gt;Node13</title>
<path fill="none" stroke="midnightblue" d="M413.3,-201.48C418.74,-192.73 427.36,-178.87 434.24,-167.81"/>
<polygon fill="midnightblue" stroke="midnightblue" points="437.4,-169.35 439.71,-159.01 431.46,-165.65 437.4,-169.35"/>
</g>
<!-- Node14 -->
<g id="node14" class="node">
<title>Node14</title>
<g id="a_node14"><a xlink:title=" ">
<polygon fill="white" stroke="#bfbfbf" points="487,-140 487,-159 545,-159 545,-140 487,-140"/>
<text text-anchor="middle" x="516" y="-147" font-family="Helvetica,sans-Serif" font-size="10.00">memory</text>
</a>
</g>
</g>
<!-- Node1&#45;&gt;Node14 -->
<g id="edge14" class="edge">
<title>Node1&#45;&gt;Node14</title>
<path fill="none" stroke="midnightblue" d="M423.47,-201.48C441.28,-191.67 470.74,-175.43 491.63,-163.92"/>
<polygon fill="midnightblue" stroke="midnightblue" points="493.49,-166.9 500.55,-159.01 490.11,-160.77 493.49,-166.9"/>
</g>
<!-- Node15 -->
<g id="node15" class="node">
<title>Node15</title>
<g id="a_node15"><a xlink:title=" ">
<polygon fill="white" stroke="#bfbfbf" points="563,-134.5 563,-164.5 709,-164.5 709,-134.5 563,-134.5"/>
<text text-anchor="start" x="571" y="-152.5" font-family="Helvetica,sans-Serif" font-size="10.00">packages/exceptions</text>
<text text-anchor="middle" x="636" y="-141.5" font-family="Helvetica,sans-Serif" font-size="10.00">/impl/exceptions_impl.hpp</text>
</a>
</g>
</g>
<!-- Node1&#45;&gt;Node15 -->
<g id="edge15" class="edge">
<title>Node1&#45;&gt;Node15</title>
<path fill="none" stroke="midnightblue" d="M440.67,-201.48C474.94,-192.53 529.67,-178.25 572.49,-167.07"/>
<polygon fill="midnightblue" stroke="midnightblue" points="573.47,-170.43 582.26,-164.52 571.71,-163.66 573.47,-170.43"/>
</g>
<!-- Node3 -->
<g id="node3" class="node">
<title>Node3</title>
<g id="a_node3"><a xlink:href="debug_8hpp.html" target="_top" xlink:title=" ">
<polygon fill="white" stroke="black" points="62.5,-67.5 62.5,-97.5 181.5,-97.5 181.5,-67.5 62.5,-67.5"/>
<text text-anchor="start" x="70.5" y="-85.5" font-family="Helvetica,sans-Serif" font-size="10.00">packages/macros/inc</text>
<text text-anchor="middle" x="122" y="-74.5" font-family="Helvetica,sans-Serif" font-size="10.00">/debug.hpp</text>
</a>
</g>
</g>
<!-- Node2&#45;&gt;Node3 -->
<g id="edge2" class="edge">
<title>Node2&#45;&gt;Node3</title>
<path fill="none" stroke="midnightblue" d="M233.97,-134.4C212.98,-124.86 185.06,-112.16 162.35,-101.84"/>
<polygon fill="midnightblue" stroke="midnightblue" points="163.52,-98.53 152.97,-97.58 160.62,-104.9 163.52,-98.53"/>
</g>
<!-- Node6 -->
<g id="node6" class="node">
<title>Node6</title>
<g id="a_node6"><a xlink:title=" ">
<polygon fill="white" stroke="#bfbfbf" points="199.5,-73 199.5,-92 252.5,-92 252.5,-73 199.5,-73"/>
<text text-anchor="middle" x="226" y="-80" font-family="Helvetica,sans-Serif" font-size="10.00">cstddef</text>
</a>
</g>
</g>
<!-- Node2&#45;&gt;Node6 -->
<g id="edge5" class="edge">
<title>Node2&#45;&gt;Node6</title>
<path fill="none" stroke="midnightblue" d="M256.54,-134.4C250.64,-124.56 242.73,-111.38 236.44,-100.89"/>
<polygon fill="midnightblue" stroke="midnightblue" points="239.36,-98.97 231.22,-92.19 233.36,-102.57 239.36,-98.97"/>
</g>
<!-- Node2&#45;&gt;Node7 -->
<g id="edge6" class="edge">
<title>Node2&#45;&gt;Node7</title>
<path fill="none" stroke="midnightblue" d="M209.66,-138.53C166.35,-129.97 104.98,-116.13 53,-98 51.38,-97.43 49.73,-96.81 48.08,-96.15"/>
<polygon fill="midnightblue" stroke="midnightblue" points="49.36,-92.89 38.8,-92.11 46.57,-99.31 49.36,-92.89"/>
</g>
<!-- Node8 -->
<g id="node8" class="node">
<title>Node8</title>
<g id="a_node8"><a xlink:title=" ">
<polygon fill="white" stroke="#bfbfbf" points="270.5,-73 270.5,-92 339.5,-92 339.5,-73 270.5,-73"/>
<text text-anchor="middle" x="305" y="-80" font-family="Helvetica,sans-Serif" font-size="10.00">type_traits</text>
</a>
</g>
</g>
<!-- Node2&#45;&gt;Node8 -->
<g id="edge7" class="edge">
<title>Node2&#45;&gt;Node8</title>
<path fill="none" stroke="midnightblue" d="M273.68,-134.4C279.73,-124.56 287.84,-111.38 294.3,-100.89"/>
<polygon fill="midnightblue" stroke="midnightblue" points="297.39,-102.55 299.65,-92.19 291.43,-98.88 297.39,-102.55"/>
</g>
<!-- Node9 -->
<g id="node9" class="node">
<title>Node9</title>
<g id="a_node9"><a xlink:title=" ">
<polygon fill="white" stroke="#bfbfbf" points="358,-73 358,-92 408,-92 408,-73 358,-73"/>
<text text-anchor="middle" x="383" y="-80" font-family="Helvetica,sans-Serif" font-size="10.00">climits</text>
</a>
</g>
</g>
<!-- Node2&#45;&gt;Node9 -->
<g id="edge8" class="edge">
<title>Node2&#45;&gt;Node9</title>
<path fill="none" stroke="midnightblue" d="M290.6,-134.4C310.85,-123.24 338.92,-107.78 358.79,-96.83"/>
<polygon fill="midnightblue" stroke="midnightblue" points="360.49,-99.9 367.56,-92.01 357.11,-93.77 360.49,-99.9"/>
</g>
<!-- Node10 -->
<g id="node10" class="node">
<title>Node10</title>
<g id="a_node10"><a xlink:title=" ">
<polygon fill="white" stroke="#bfbfbf" points="426.5,-67.5 426.5,-97.5 543.5,-97.5 543.5,-67.5 426.5,-67.5"/>
<text text-anchor="start" x="434.5" y="-85.5" font-family="Helvetica,sans-Serif" font-size="10.00">packages/types/impl</text>
<text text-anchor="middle" x="485" y="-74.5" font-family="Helvetica,sans-Serif" font-size="10.00">/types_impl.hpp</text>
</a>
</g>
</g>
<!-- Node2&#45;&gt;Node10 -->
<g id="edge9" class="edge">
<title>Node2&#45;&gt;Node10</title>
<path fill="none" stroke="midnightblue" d="M312.47,-134.48C346.18,-124.51 391.63,-111.09 427.42,-100.51"/>
<polygon fill="midnightblue" stroke="midnightblue" points="428.64,-103.8 437.24,-97.61 426.66,-97.09 428.64,-103.8"/>
</g>
<!-- Node11 -->
<g id="node11" class="node">
<title>Node11</title>
<g id="a_node11"><a xlink:href="logging_8hpp.html" target="_top" xlink:title=" ">
<polygon fill="white" stroke="black" points="561.5,-67.5 561.5,-97.5 680.5,-97.5 680.5,-67.5 561.5,-67.5"/>
<text text-anchor="start" x="569.5" y="-85.5" font-family="Helvetica,sans-Serif" font-size="10.00">packages/macros/inc</text>
<text text-anchor="middle" x="621" y="-74.5" font-family="Helvetica,sans-Serif" font-size="10.00">/logging.hpp</text>
</a>
</g>
</g>
<!-- Node2&#45;&gt;Node11 -->
<g id="edge10" class="edge">
<title>Node2&#45;&gt;Node11</title>
<path fill="none" stroke="midnightblue" d="M320.27,-135.94C323.56,-135.26 326.82,-134.61 330,-134 425.41,-115.67 452.59,-116.4 551.23,-98.28"/>
<polygon fill="midnightblue" stroke="midnightblue" points="552.14,-101.67 561.33,-96.4 550.86,-94.79 552.14,-101.67"/>
</g>
<!-- Node4 -->
<g id="node4" class="node">
<title>Node4</title>
<g id="a_node4"><a xlink:href="detail_8hpp.html" target="_top" xlink:title=" ">
<polygon fill="white" stroke="black" points="8.5,-0.5 8.5,-30.5 127.5,-30.5 127.5,-0.5 8.5,-0.5"/>
<text text-anchor="start" x="16.5" y="-18.5" font-family="Helvetica,sans-Serif" font-size="10.00">packages/macros/inc</text>
<text text-anchor="middle" x="68" y="-7.5" font-family="Helvetica,sans-Serif" font-size="10.00">/detail.hpp</text>
</a>
</g>
</g>
<!-- Node3&#45;&gt;Node4 -->
<g id="edge3" class="edge">
<title>Node3&#45;&gt;Node4</title>
<path fill="none" stroke="midnightblue" d="M110.28,-67.4C103.28,-58.96 94.23,-48.07 86.29,-38.52"/>
<polygon fill="midnightblue" stroke="midnightblue" points="88.78,-36.03 79.69,-30.58 83.39,-40.51 88.78,-36.03"/>
</g>
<!-- Node5 -->
<g id="node5" class="node">
<title>Node5</title>
<g id="a_node5"><a xlink:title=" ">
<polygon fill="white" stroke="#bfbfbf" points="146,-6 146,-25 206,-25 206,-6 146,-6"/>
<text text-anchor="middle" x="176" y="-13" font-family="Helvetica,sans-Serif" font-size="10.00">iostream</text>
</a>
</g>
</g>
<!-- Node3&#45;&gt;Node5 -->
<g id="edge4" class="edge">
<title>Node3&#45;&gt;Node5</title>
<path fill="none" stroke="midnightblue" d="M133.72,-67.4C142.14,-57.26 153.51,-43.57 162.34,-32.94"/>
<polygon fill="midnightblue" stroke="midnightblue" points="165.08,-35.12 168.78,-25.19 159.69,-30.65 165.08,-35.12"/>
</g>
</g>
</svg>
