<?xml version="1.0" encoding="UTF-8" standalone="no"?>
<!DOCTYPE svg PUBLIC "-//W3C//DTD SVG 1.1//EN"
 "http://www.w3.org/Graphics/SVG/1.1/DTD/svg11.dtd">
<!-- Generated by graphviz version 2.43.0 (0)
 -->
<!-- Title: exception.hpp Pages: 1 -->
<!--zoomable 522 -->

<svg id="main" version="1.1" xmlns="http://www.w3.org/2000/svg" xmlns:xlink="http://www.w3.org/1999/xlink" xml:space="preserve" onload="init(evt)">
<style type="text/css"><![CDATA[
.node, .edge {opacity: 0.7;}
.node.selected, .edge.selected {opacity: 1;}
.edge:hover path { stroke: red; }
.edge:hover polygon { stroke: red; fill: red; }
]]></style>

<defs>
  <circle id="rim" cx="0" cy="0" r="7"/>
  <circle id="rim2" cx="0" cy="0" r="3.5"/>
  <g id="zoomPlus">
    <use xlink:href="#rim" fill="#404040"><set attributeName="fill" to="#808080" begin="zoomplus.mouseover" end="zoomplus.mouseout"/></use>
    <path d="M-4,0h8M0,-4v8" fill="none" stroke="white" stroke-width="1.5" pointer-events="none"/>
  </g>
  <g id="zoomMin">
    <use xlink:href="#rim" fill="#404040"><set attributeName="fill" to="#808080" begin="zoomminus.mouseover" end="zoomminus.mouseout"/></use>
    <path d="M-4,0h8" fill="none" stroke="white" stroke-width="1.5" pointer-events="none"/>
  </g>
  <g id="arrowUp" transform="translate(30 24)">
    <use xlink:href="#rim"/>
    <path pointer-events="none" fill="none" stroke="white" stroke-width="1.5" d="M0,-3.0v7 M-2.5,-0.5L0,-3.0L2.5,-0.5"/>
  </g>
  <g id="arrowRight" transform="rotate(90) translate(36 -43)">
    <use xlink:href="#rim"/>
    <path pointer-events="none" fill="none" stroke="white" stroke-width="1.5" d="M0,-3.0v7 M-2.5,-0.5L0,-3.0L2.5,-0.5"/>
  </g>
  <g id="arrowDown" transform="rotate(180) translate(-30 -48)">
    <use xlink:href="#rim"/>
    <path pointer-events="none" fill="none" stroke="white" stroke-width="1.5" d="M0,-3.0v7 M-2.5,-0.5L0,-3.0L2.5,-0.5"/>
  </g>
  <g id="arrowLeft" transform="rotate(270) translate(-36 17)">
    <use xlink:href="#rim"/>
    <path pointer-events="none" fill="none" stroke="white" stroke-width="1.5" d="M0,-3.0v7 M-2.5,-0.5L0,-3.0L2.5,-0.5"/>
  </g>
  <g id="resetDef">
    <use xlink:href="#rim2" fill="#404040"><set attributeName="fill" to="#808080" begin="reset.mouseover" end="reset.mouseout"/></use>
  </g>
</defs>
<script type="application/ecmascript">
var viewWidth = 1463;
var viewHeight = 522;
var sectionId = 'dynsection-1';
</script>
<script type="application/ecmascript" xlink:href="svg.min.js"/>
<svg id="graph" class="graph">
<g id="viewport">
<title>exception.hpp</title>
<!-- Node1 -->
<g id="Node000001" class="node">
<title>Node1</title>
<g id="a_Node000001"><a xlink:title=" ">
<polygon fill="#999999" stroke="#666666" points="875.5,-514 789.5,-514 789.5,-495 875.5,-495 875.5,-514"/>
<text text-anchor="middle" x="832.5" y="-502" font-family="Helvetica,sans-Serif" font-size="10.00">exception.hpp</text>
</a>
</g>
</g>
<!-- Node2 -->
<g id="Node000002" class="node">
<title>Node2</title>
<g id="a_Node000002"><a xlink:href="assertions_8hpp.html" target="_top" xlink:title=" ">
<polygon fill="white" stroke="#666666" points="767.5,-459 679.5,-459 679.5,-440 767.5,-440 767.5,-459"/>
<text text-anchor="middle" x="723.5" y="-447" font-family="Helvetica,sans-Serif" font-size="10.00">assertions.hpp</text>
</a>
</g>
</g>
<!-- Node1&#45;&gt;Node2 -->
<g id="edge1_Node000001_Node000002" class="edge">
<title>Node1&#45;&gt;Node2</title>
<g id="a_edge1_Node000001_Node000002"><a xlink:title=" ">
<path fill="none" stroke="#63b8ff" d="M805.77,-490.5C785.71,-480.75 758.82,-467.68 741.33,-459.17"/>
<polygon fill="#63b8ff" stroke="#63b8ff" points="804.46,-493.76 814.99,-494.98 807.52,-487.46 804.46,-493.76"/>
</a>
</g>
</g>
<!-- Node3 -->
<g id="Node000003" class="node">
<title>Node3</title>
<g id="a_Node000003"><a xlink:href="checks_8hpp.html" target="_top" xlink:title=" ">
<polygon fill="white" stroke="#666666" points="690,-404 619,-404 619,-385 690,-385 690,-404"/>
<text text-anchor="middle" x="654.5" y="-392" font-family="Helvetica,sans-Serif" font-size="10.00">checks.hpp</text>
</a>
</g>
</g>
<!-- Node1&#45;&gt;Node3 -->
<g id="edge2_Node000001_Node000003" class="edge">
<title>Node1&#45;&gt;Node3</title>
<g id="a_edge2_Node000001_Node000003"><a xlink:title=" ">
<path fill="none" stroke="#63b8ff" d="M821.2,-486.51C811.01,-472.34 794.82,-452.51 776.5,-440 750.15,-422.02 715.66,-410.32 690.07,-403.45"/>
<polygon fill="#63b8ff" stroke="#63b8ff" points="818.43,-488.65 827,-494.87 824.18,-484.66 818.43,-488.65"/>
</a>
</g>
</g>
<!-- Node45 -->
<g id="Node000045" class="node">
<title>Node45</title>
<g id="a_Node000045"><a xlink:href="common_8hpp.html" target="_top" xlink:title=" ">
<polygon fill="white" stroke="#666666" points="1117.5,-404 1037.5,-404 1037.5,-385 1117.5,-385 1117.5,-404"/>
<text text-anchor="middle" x="1077.5" y="-392" font-family="Helvetica,sans-Serif" font-size="10.00">common.hpp</text>
</a>
</g>
</g>
<!-- Node1&#45;&gt;Node45 -->
<g id="edge52_Node000001_Node000045" class="edge">
<title>Node1&#45;&gt;Node45</title>
<g id="a_edge52_Node000001_Node000045"><a xlink:title=" ">
<path fill="none" stroke="#63b8ff" d="M861.52,-490.71C912.14,-468.4 1015.23,-422.95 1058.11,-404.05"/>
<polygon fill="#63b8ff" stroke="#63b8ff" points="859.87,-487.61 852.14,-494.84 862.7,-494.01 859.87,-487.61"/>
</a>
</g>
</g>
<!-- Node46 -->
<g id="Node000046" class="node">
<title>Node46</title>
<g id="a_Node000046"><a xlink:href="exceptions_8hpp.html" target="_top" xlink:title=" ">
<polygon fill="white" stroke="#666666" points="915,-459 824,-459 824,-440 915,-440 915,-459"/>
<text text-anchor="middle" x="869.5" y="-447" font-family="Helvetica,sans-Serif" font-size="10.00">exceptions.hpp</text>
</a>
</g>
</g>
<!-- Node1&#45;&gt;Node46 -->
<g id="edge54_Node000001_Node000046" class="edge">
<title>Node1&#45;&gt;Node46</title>
<g id="a_edge54_Node000001_Node000046"><a xlink:title=" ">
<path fill="none" stroke="#63b8ff" d="M844.45,-486.39C850.81,-477.27 858.37,-466.45 863.5,-459.09"/>
<polygon fill="#63b8ff" stroke="#63b8ff" points="841.46,-484.55 838.61,-494.75 847.2,-488.55 841.46,-484.55"/>
</a>
</g>
</g>
<!-- Node4 -->
<g id="Node000004" class="node">
<title>Node4</title>
<g id="a_Node000004"><a xlink:href="OutputStream_8hpp.html" target="_top" xlink:title=" ">
<polygon fill="white" stroke="#666666" points="463.5,-349 357.5,-349 357.5,-330 463.5,-330 463.5,-349"/>
<text text-anchor="middle" x="410.5" y="-337" font-family="Helvetica,sans-Serif" font-size="10.00">OutputStream.hpp</text>
</a>
</g>
</g>
<!-- Node3&#45;&gt;Node4 -->
<g id="edge3_Node000003_Node000004" class="edge">
<title>Node3&#45;&gt;Node4</title>
<g id="a_edge3_Node000003_Node000004"><a xlink:title=" ">
<path fill="none" stroke="#63b8ff" d="M608.81,-383.58C563.07,-373.64 493.4,-358.51 449.98,-349.08"/>
<polygon fill="#63b8ff" stroke="#63b8ff" points="608.24,-387.03 618.76,-385.74 609.73,-380.19 608.24,-387.03"/>
</a>
</g>
</g>
<!-- Node23 -->
<g id="Node000023" class="node">
<title>Node23</title>
<g id="a_Node000023"><a xlink:href="Serializer_8hpp.html" target="_top" xlink:title=" ">
<polygon fill="white" stroke="#666666" points="565,-349 482,-349 482,-330 565,-330 565,-349"/>
<text text-anchor="middle" x="523.5" y="-337" font-family="Helvetica,sans-Serif" font-size="10.00">Serializer.hpp</text>
</a>
</g>
</g>
<!-- Node3&#45;&gt;Node23 -->
<g id="edge24_Node000003_Node000023" class="edge">
<title>Node3&#45;&gt;Node23</title>
<g id="a_edge24_Node000003_Node000023"><a xlink:title=" ">
<path fill="none" stroke="#63b8ff" d="M624,-381.16C599.75,-371.35 566.43,-357.87 544.93,-349.17"/>
<polygon fill="#63b8ff" stroke="#63b8ff" points="622.87,-384.48 633.45,-384.98 625.5,-377.99 622.87,-384.48"/>
</a>
</g>
</g>
<!-- Node27 -->
<g id="Node000027" class="node">
<title>Node27</title>
<g id="a_Node000027"><a xlink:href="getReference_8hpp.html" target="_top" xlink:title=" ">
<polygon fill="white" stroke="#666666" points="771,-349 668,-349 668,-330 771,-330 771,-349"/>
<text text-anchor="middle" x="719.5" y="-337" font-family="Helvetica,sans-Serif" font-size="10.00">getReference.hpp</text>
</a>
</g>
</g>
<!-- Node3&#45;&gt;Node27 -->
<g id="edge28_Node000003_Node000027" class="edge">
<title>Node3&#45;&gt;Node27</title>
<g id="a_edge28_Node000003_Node000027"><a xlink:title=" ">
<path fill="none" stroke="#63b8ff" d="M672.77,-378.6C684.42,-369.11 699.1,-357.13 708.87,-349.17"/>
<polygon fill="#63b8ff" stroke="#63b8ff" points="670.48,-375.95 664.94,-384.98 674.91,-381.38 670.48,-375.95"/>
</a>
</g>
</g>
<!-- Node28 -->
<g id="Node000028" class="node">
<title>Node28</title>
<g id="a_Node000028"><a xlink:href="json_8hpp.html" target="_top" xlink:title=" ">
<polygon fill="white" stroke="#666666" points="433.5,-184 375.5,-184 375.5,-165 433.5,-165 433.5,-184"/>
<text text-anchor="middle" x="404.5" y="-172" font-family="Helvetica,sans-Serif" font-size="10.00">json.hpp</text>
</a>
</g>
</g>
<!-- Node3&#45;&gt;Node28 -->
<g id="edge29_Node000003_Node000028" class="edge">
<title>Node3&#45;&gt;Node28</title>
<g id="a_edge29_Node000003_Node000028"><a xlink:title=" ">
<path fill="none" stroke="#63b8ff" d="M608.77,-391.08C502.55,-384.35 244.59,-361.27 197.5,-294 149.29,-225.14 307.7,-190.97 375.36,-179.78"/>
<polygon fill="#63b8ff" stroke="#63b8ff" points="608.67,-394.58 618.86,-391.7 609.1,-387.59 608.67,-394.58"/>
</a>
</g>
</g>
<!-- Node29 -->
<g id="Node000029" class="node">
<title>Node29</title>
<g id="a_Node000029"><a xlink:href="resize_8hpp.html" target="_top" xlink:title=" ">
<polygon fill="white" stroke="#666666" points="650,-349 583,-349 583,-330 650,-330 650,-349"/>
<text text-anchor="middle" x="616.5" y="-337" font-family="Helvetica,sans-Serif" font-size="10.00">resize.hpp</text>
</a>
</g>
</g>
<!-- Node3&#45;&gt;Node29 -->
<g id="edge30_Node000003_Node000029" class="edge">
<title>Node3&#45;&gt;Node29</title>
<g id="a_edge30_Node000003_Node000029"><a xlink:title=" ">
<path fill="none" stroke="#63b8ff" d="M642.23,-376.39C635.69,-367.27 627.93,-356.45 622.66,-349.09"/>
<polygon fill="#63b8ff" stroke="#63b8ff" points="639.55,-378.66 648.23,-384.75 645.24,-374.58 639.55,-378.66"/>
</a>
</g>
</g>
<!-- Node44 -->
<g id="Node000044" class="node">
<title>Node44</title>
<g id="a_Node000044"><a xlink:href="zip_8hpp.html" target="_top" xlink:title=" ">
<polygon fill="white" stroke="#666666" points="841.5,-349 789.5,-349 789.5,-330 841.5,-330 841.5,-349"/>
<text text-anchor="middle" x="815.5" y="-337" font-family="Helvetica,sans-Serif" font-size="10.00">zip.hpp</text>
</a>
</g>
</g>
<!-- Node3&#45;&gt;Node44 -->
<g id="edge51_Node000003_Node000044" class="edge">
<title>Node3&#45;&gt;Node44</title>
<g id="a_edge51_Node000003_Node000044"><a xlink:title=" ">
<path fill="none" stroke="#63b8ff" d="M690.05,-381.8C720.09,-371.91 762.44,-357.97 789.43,-349.08"/>
<polygon fill="#63b8ff" stroke="#63b8ff" points="688.77,-378.53 680.37,-384.98 690.96,-385.18 688.77,-378.53"/>
</a>
</g>
</g>
<!-- Node5 -->
<g id="Node000005" class="node">
<title>Node5</title>
<g id="a_Node000005"><a xlink:href="ArgParse_8hpp.html" target="_top" xlink:title=" ">
<polygon fill="white" stroke="#666666" points="617.5,-184 537.5,-184 537.5,-165 617.5,-165 617.5,-184"/>
<text text-anchor="middle" x="577.5" y="-172" font-family="Helvetica,sans-Serif" font-size="10.00">ArgParse.hpp</text>
</a>
</g>
</g>
<!-- Node4&#45;&gt;Node5 -->
<g id="edge4_Node000004_Node000005" class="edge">
<title>Node4&#45;&gt;Node5</title>
<g id="a_edge4_Node000004_Node000005"><a xlink:title=" ">
<path fill="none" stroke="#63b8ff" d="M438.34,-325.1C452.43,-317.38 469.11,-306.68 481.5,-294 508.24,-266.63 500.86,-249.27 525.5,-220 537.44,-205.82 554.14,-192.4 565.36,-184.07"/>
<polygon fill="#63b8ff" stroke="#63b8ff" points="436.32,-322.21 429.1,-329.96 439.58,-328.4 436.32,-322.21"/>
</a>
</g>
</g>
<!-- Node13 -->
<g id="Node000013" class="node">
<title>Node13</title>
<g id="a_Node000013"><a xlink:href="Color_8hpp.html" target="_top" xlink:title=" ">
<polygon fill="white" stroke="#666666" points="591.5,-294 529.5,-294 529.5,-275 591.5,-275 591.5,-294"/>
<text text-anchor="middle" x="560.5" y="-282" font-family="Helvetica,sans-Serif" font-size="10.00">Color.hpp</text>
</a>
</g>
</g>
<!-- Node4&#45;&gt;Node13 -->
<g id="edge12_Node000004_Node000013" class="edge">
<title>Node4&#45;&gt;Node13</title>
<g id="a_edge12_Node000004_Node000013"><a xlink:title=" ">
<path fill="none" stroke="#63b8ff" d="M444.32,-326.55C472.18,-316.71 511.01,-302.98 535.96,-294.17"/>
<polygon fill="#63b8ff" stroke="#63b8ff" points="442.86,-323.35 434.6,-329.98 445.19,-329.95 442.86,-323.35"/>
</a>
</g>
</g>
<!-- Node14 -->
<g id="Node000014" class="node">
<title>Node14</title>
<g id="a_Node000014"><a xlink:href="FileOutputStream_8hpp.html" target="_top" xlink:title=" ">
<polygon fill="white" stroke="#666666" points="330,-294 207,-294 207,-275 330,-275 330,-294"/>
<text text-anchor="middle" x="268.5" y="-282" font-family="Helvetica,sans-Serif" font-size="10.00">FileOutputStream.hpp</text>
</a>
</g>
</g>
<!-- Node4&#45;&gt;Node14 -->
<g id="edge13_Node000004_Node000014" class="edge">
<title>Node4&#45;&gt;Node14</title>
<g id="a_edge13_Node000004_Node000014"><a xlink:title=" ">
<path fill="none" stroke="#63b8ff" d="M378.14,-326.42C351.79,-316.59 315.24,-302.95 291.73,-294.17"/>
<polygon fill="#63b8ff" stroke="#63b8ff" points="377.09,-329.77 387.69,-329.98 379.54,-323.21 377.09,-329.77"/>
</a>
</g>
</g>
<!-- Node22 -->
<g id="Node000022" class="node">
<title>Node22</title>
<g id="a_Node000022"><a xlink:href="StreamInterceptor_8hpp.html" target="_top" xlink:title=" ">
<polygon fill="white" stroke="#666666" points="473,-294 348,-294 348,-275 473,-275 473,-294"/>
<text text-anchor="middle" x="410.5" y="-282" font-family="Helvetica,sans-Serif" font-size="10.00">StreamInterceptor.hpp</text>
</a>
</g>
</g>
<!-- Node4&#45;&gt;Node22 -->
<g id="edge23_Node000004_Node000022" class="edge">
<title>Node4&#45;&gt;Node22</title>
<g id="a_edge23_Node000004_Node000022"><a xlink:title=" ">
<path fill="none" stroke="#63b8ff" d="M410.5,-319.66C410.5,-310.93 410.5,-300.99 410.5,-294.09"/>
<polygon fill="#63b8ff" stroke="#63b8ff" points="407,-319.75 410.5,-329.75 414,-319.75 407,-319.75"/>
</a>
</g>
</g>
<!-- Node6 -->
<g id="Node000006" class="node">
<title>Node6</title>
<g id="a_Node000006"><a xlink:href="AbsArgument_8hpp.html" target="_top" xlink:title=" ">
<polygon fill="white" stroke="#666666" points="701.5,-129 597.5,-129 597.5,-110 701.5,-110 701.5,-129"/>
<text text-anchor="middle" x="649.5" y="-117" font-family="Helvetica,sans-Serif" font-size="10.00">AbsArgument.hpp</text>
</a>
</g>
</g>
<!-- Node5&#45;&gt;Node6 -->
<g id="edge5_Node000005_Node000006" class="edge">
<title>Node5&#45;&gt;Node6</title>
<g id="a_edge5_Node000005_Node000006"><a xlink:title=" ">
<path fill="none" stroke="#63b8ff" d="M597.37,-158.88C610.32,-149.34 626.8,-137.21 637.72,-129.17"/>
<polygon fill="#63b8ff" stroke="#63b8ff" points="595.05,-156.24 589.07,-164.98 599.2,-161.88 595.05,-156.24"/>
</a>
</g>
</g>
<!-- Node11 -->
<g id="Node000011" class="node">
<title>Node11</title>
<g id="a_Node000011"><a xlink:href="container__extension_8hpp.html" target="_top" xlink:title=" ">
<polygon fill="white" stroke="#666666" points="414,-129 277,-129 277,-110 414,-110 414,-129"/>
<text text-anchor="middle" x="345.5" y="-117" font-family="Helvetica,sans-Serif" font-size="10.00">container_extension.hpp</text>
</a>
</g>
</g>
<!-- Node5&#45;&gt;Node11 -->
<g id="edge10_Node000005_Node000011" class="edge">
<title>Node5&#45;&gt;Node11</title>
<g id="a_edge10_Node000005_Node000011"><a xlink:title=" ">
<path fill="none" stroke="#63b8ff" d="M530.46,-162.75C486.98,-152.82 423.23,-138.26 383.07,-129.08"/>
<polygon fill="#63b8ff" stroke="#63b8ff" points="529.7,-166.17 540.23,-164.98 531.26,-159.35 529.7,-166.17"/>
</a>
</g>
</g>
<!-- Node12 -->
<g id="Node000012" class="node">
<title>Node12</title>
<g id="a_Node000012"><a xlink:href="file__system__extension_8hpp.html" target="_top" xlink:title=" ">
<polygon fill="white" stroke="#666666" points="579,-129 432,-129 432,-110 579,-110 579,-129"/>
<text text-anchor="middle" x="505.5" y="-117" font-family="Helvetica,sans-Serif" font-size="10.00">file_system_extension.hpp</text>
</a>
</g>
</g>
<!-- Node5&#45;&gt;Node12 -->
<g id="edge11_Node000005_Node000012" class="edge">
<title>Node5&#45;&gt;Node12</title>
<g id="a_edge11_Node000005_Node000012"><a xlink:title=" ">
<path fill="none" stroke="#63b8ff" d="M557.63,-158.88C544.68,-149.34 528.2,-137.21 517.28,-129.17"/>
<polygon fill="#63b8ff" stroke="#63b8ff" points="555.8,-161.88 565.93,-164.98 559.95,-156.24 555.8,-161.88"/>
</a>
</g>
</g>
<!-- Node7 -->
<g id="Node000007" class="node">
<title>Node7</title>
<g id="a_Node000007"><a xlink:href="AggregateArgument_8hpp.html" target="_top" xlink:title=" ">
<polygon fill="white" stroke="#666666" points="853.5,-74 717.5,-74 717.5,-55 853.5,-55 853.5,-74"/>
<text text-anchor="middle" x="785.5" y="-62" font-family="Helvetica,sans-Serif" font-size="10.00">AggregateArgument.hpp</text>
</a>
</g>
</g>
<!-- Node6&#45;&gt;Node7 -->
<g id="edge6_Node000006_Node000007" class="edge">
<title>Node6&#45;&gt;Node7</title>
<g id="a_edge6_Node000006_Node000007"><a xlink:title=" ">
<path fill="none" stroke="#63b8ff" d="M680.83,-106.29C706.04,-96.47 740.83,-82.91 763.25,-74.17"/>
<polygon fill="#63b8ff" stroke="#63b8ff" points="679.4,-103.09 671.35,-109.98 681.94,-109.61 679.4,-103.09"/>
</a>
</g>
</g>
<!-- Node8 -->
<g id="Node000008" class="node">
<title>Node8</title>
<g id="a_Node000008"><a xlink:href="FlagArgument_8hpp.html" target="_top" xlink:title=" ">
<polygon fill="white" stroke="#666666" points="401,-74 294,-74 294,-55 401,-55 401,-74"/>
<text text-anchor="middle" x="347.5" y="-62" font-family="Helvetica,sans-Serif" font-size="10.00">FlagArgument.hpp</text>
</a>
</g>
</g>
<!-- Node6&#45;&gt;Node8 -->
<g id="edge7_Node000006_Node000008" class="edge">
<title>Node6&#45;&gt;Node8</title>
<g id="a_edge7_Node000006_Node000008"><a xlink:title=" ">
<path fill="none" stroke="#63b8ff" d="M591.08,-108.25C534.37,-98.3 449.29,-83.36 396.15,-74.04"/>
<polygon fill="#63b8ff" stroke="#63b8ff" points="590.52,-111.7 600.98,-109.98 591.73,-104.81 590.52,-111.7"/>
</a>
</g>
</g>
<!-- Node9 -->
<g id="Node000009" class="node">
<title>Node9</title>
<g id="a_Node000009"><a xlink:href="KeywordArgument_8hpp.html" target="_top" xlink:title=" ">
<polygon fill="white" stroke="#666666" points="547.5,-74 419.5,-74 419.5,-55 547.5,-55 547.5,-74"/>
<text text-anchor="middle" x="483.5" y="-62" font-family="Helvetica,sans-Serif" font-size="10.00">KeywordArgument.hpp</text>
</a>
</g>
</g>
<!-- Node6&#45;&gt;Node9 -->
<g id="edge8_Node000006_Node000009" class="edge">
<title>Node6&#45;&gt;Node9</title>
<g id="a_edge8_Node000006_Node000009"><a xlink:title=" ">
<path fill="none" stroke="#63b8ff" d="M613.25,-106.93C582.25,-97.03 538.33,-83.01 510.38,-74.08"/>
<polygon fill="#63b8ff" stroke="#63b8ff" points="612.24,-110.28 622.83,-109.98 614.37,-103.61 612.24,-110.28"/>
</a>
</g>
</g>
<!-- Node10 -->
<g id="Node000010" class="node">
<title>Node10</title>
<g id="a_Node000010"><a xlink:href="PositionalArgument_8hpp.html" target="_top" xlink:title=" ">
<polygon fill="white" stroke="#666666" points="699.5,-74 565.5,-74 565.5,-55 699.5,-55 699.5,-74"/>
<text text-anchor="middle" x="632.5" y="-62" font-family="Helvetica,sans-Serif" font-size="10.00">PositionalArgument.hpp</text>
</a>
</g>
</g>
<!-- Node6&#45;&gt;Node10 -->
<g id="edge9_Node000006_Node000010" class="edge">
<title>Node6&#45;&gt;Node10</title>
<g id="a_edge9_Node000006_Node000010"><a xlink:title=" ">
<path fill="none" stroke="#63b8ff" d="M643.55,-99.95C640.73,-91.15 637.49,-81.06 635.25,-74.09"/>
<polygon fill="#63b8ff" stroke="#63b8ff" points="640.31,-101.29 646.69,-109.75 646.97,-99.16 640.31,-101.29"/>
</a>
</g>
</g>
<!-- Node15 -->
<g id="Node000015" class="node">
<title>Node15</title>
<g id="a_Node000015"><a xlink:href="Logger_8hpp.html" target="_top" xlink:title=" ">
<polygon fill="white" stroke="#666666" points="146.5,-239 76.5,-239 76.5,-220 146.5,-220 146.5,-239"/>
<text text-anchor="middle" x="111.5" y="-227" font-family="Helvetica,sans-Serif" font-size="10.00">Logger.hpp</text>
</a>
</g>
</g>
<!-- Node14&#45;&gt;Node15 -->
<g id="edge14_Node000014_Node000015" class="edge">
<title>Node14&#45;&gt;Node15</title>
<g id="a_edge14_Node000014_Node000015"><a xlink:title=" ">
<path fill="none" stroke="#63b8ff" d="M233.45,-271.67C204.18,-261.79 163.13,-247.93 136.92,-239.08"/>
<polygon fill="#63b8ff" stroke="#63b8ff" points="232.68,-275.1 243.28,-274.98 234.92,-268.47 232.68,-275.1"/>
</a>
</g>
</g>
<!-- Node16 -->
<g id="Node000016" class="node">
<title>Node16</title>
<g id="a_Node000016"><a xlink:href="LogBlock_8hpp.html" target="_top" xlink:title=" ">
<polygon fill="white" stroke="#666666" points="144.5,-184 62.5,-184 62.5,-165 144.5,-165 144.5,-184"/>
<text text-anchor="middle" x="103.5" y="-172" font-family="Helvetica,sans-Serif" font-size="10.00">LogBlock.hpp</text>
</a>
</g>
</g>
<!-- Node15&#45;&gt;Node16 -->
<g id="edge15_Node000015_Node000016" class="edge">
<title>Node15&#45;&gt;Node16</title>
<g id="a_edge15_Node000015_Node000016"><a xlink:title=" ">
<path fill="none" stroke="#63b8ff" d="M108.66,-209.66C107.34,-200.93 105.84,-190.99 104.8,-184.09"/>
<polygon fill="#63b8ff" stroke="#63b8ff" points="105.23,-210.38 110.18,-219.75 112.15,-209.34 105.23,-210.38"/>
</a>
</g>
</g>
<!-- Node17 -->
<g id="Node000017" class="node">
<title>Node17</title>
<g id="a_Node000017"><a xlink:href="Loggee_8hpp.html" target="_top" xlink:title=" ">
<polygon fill="white" stroke="#666666" points="73,-129 0,-129 0,-110 73,-110 73,-129"/>
<text text-anchor="middle" x="36.5" y="-117" font-family="Helvetica,sans-Serif" font-size="10.00">Loggee.hpp</text>
</a>
</g>
</g>
<!-- Node15&#45;&gt;Node17 -->
<g id="edge19_Node000015_Node000017" class="edge">
<title>Node15&#45;&gt;Node17</title>
<g id="a_edge19_Node000015_Node000017"><a xlink:title=" ">
<path fill="none" stroke="#63b8ff" d="M86.58,-214.65C74.95,-207.01 61.87,-196.53 53.5,-184 41.96,-166.73 38.24,-141.92 37.05,-129.02"/>
<polygon fill="#63b8ff" stroke="#63b8ff" points="84.74,-217.62 95.08,-219.92 88.42,-211.67 84.74,-217.62"/>
</a>
</g>
</g>
<!-- Node20 -->
<g id="Node000020" class="node">
<title>Node20</title>
<g id="a_Node000020"><a xlink:href="LoggerSingleton_8hpp.html" target="_top" xlink:title=" ">
<polygon fill="white" stroke="#666666" points="278.5,-184 162.5,-184 162.5,-165 278.5,-165 278.5,-184"/>
<text text-anchor="middle" x="220.5" y="-172" font-family="Helvetica,sans-Serif" font-size="10.00">LoggerSingleton.hpp</text>
</a>
</g>
</g>
<!-- Node15&#45;&gt;Node20 -->
<g id="edge20_Node000015_Node000020" class="edge">
<title>Node15&#45;&gt;Node20</title>
<g id="a_edge20_Node000015_Node000020"><a xlink:title=" ">
<path fill="none" stroke="#63b8ff" d="M138.23,-215.5C158.29,-205.75 185.18,-192.68 202.67,-184.17"/>
<polygon fill="#63b8ff" stroke="#63b8ff" points="136.48,-212.46 129.01,-219.98 139.54,-218.76 136.48,-212.46"/>
</a>
</g>
</g>
<!-- Node16&#45;&gt;Node17 -->
<g id="edge16_Node000016_Node000017" class="edge">
<title>Node16&#45;&gt;Node17</title>
<g id="a_edge16_Node000016_Node000017"><a xlink:title=" ">
<path fill="none" stroke="#63b8ff" d="M84.67,-158.6C72.66,-149.11 57.53,-137.13 47.46,-129.17"/>
<polygon fill="#63b8ff" stroke="#63b8ff" points="82.72,-161.53 92.74,-164.98 87.06,-156.04 82.72,-161.53"/>
</a>
</g>
</g>
<!-- Node18 -->
<g id="Node000018" class="node">
<title>Node18</title>
<g id="a_Node000018"><a xlink:href="testing_8hpp.html" target="_top" xlink:title=" ">
<polygon fill="white" stroke="#666666" points="163,-129 92,-129 92,-110 163,-110 163,-129"/>
<text text-anchor="middle" x="127.5" y="-117" font-family="Helvetica,sans-Serif" font-size="10.00">testing.hpp</text>
</a>
</g>
</g>
<!-- Node16&#45;&gt;Node18 -->
<g id="edge17_Node000016_Node000018" class="edge">
<title>Node16&#45;&gt;Node18</title>
<g id="a_edge17_Node000016_Node000018"><a xlink:title=" ">
<path fill="none" stroke="#63b8ff" d="M111.64,-155.53C115.68,-146.6 120.38,-136.22 123.61,-129.09"/>
<polygon fill="#63b8ff" stroke="#63b8ff" points="108.4,-154.19 107.46,-164.75 114.78,-157.08 108.4,-154.19"/>
</a>
</g>
</g>
<!-- Node19 -->
<g id="Node000019" class="node">
<title>Node19</title>
<g id="a_Node000019"><a xlink:href="essentials_8hpp.html" target="_top" xlink:title=" ">
<polygon fill="white" stroke="#666666" points="171,-74 84,-74 84,-55 171,-55 171,-74"/>
<text text-anchor="middle" x="127.5" y="-62" font-family="Helvetica,sans-Serif" font-size="10.00">essentials.hpp</text>
</a>
</g>
</g>
<!-- Node18&#45;&gt;Node19 -->
<g id="edge18_Node000018_Node000019" class="edge">
<title>Node18&#45;&gt;Node19</title>
<g id="a_edge18_Node000018_Node000019"><a xlink:title=" ">
<path fill="none" stroke="#63b8ff" d="M127.5,-99.66C127.5,-90.93 127.5,-80.99 127.5,-74.09"/>
<polygon fill="#63b8ff" stroke="#63b8ff" points="124,-99.75 127.5,-109.75 131,-99.75 124,-99.75"/>
</a>
</g>
</g>
<!-- Node20&#45;&gt;Node18 -->
<g id="edge21_Node000020_Node000018" class="edge">
<title>Node20&#45;&gt;Node18</title>
<g id="a_edge21_Node000020_Node000018"><a xlink:title=" ">
<path fill="none" stroke="#63b8ff" d="M196.75,-159.97C179.75,-150.28 157.37,-137.52 142.71,-129.17"/>
<polygon fill="#63b8ff" stroke="#63b8ff" points="195.14,-163.07 205.56,-164.98 198.6,-156.99 195.14,-163.07"/>
</a>
</g>
</g>
<!-- Node21 -->
<g id="Node000021" class="node">
<title>Node21</title>
<g id="a_Node000021"><a xlink:href="warning_8hpp.html" target="_top" xlink:title=" ">
<polygon fill="white" stroke="#666666" points="259,-129 182,-129 182,-110 259,-110 259,-129"/>
<text text-anchor="middle" x="220.5" y="-117" font-family="Helvetica,sans-Serif" font-size="10.00">warning.hpp</text>
</a>
</g>
</g>
<!-- Node20&#45;&gt;Node21 -->
<g id="edge22_Node000020_Node000021" class="edge">
<title>Node20&#45;&gt;Node21</title>
<g id="a_edge22_Node000020_Node000021"><a xlink:title=" ">
<path fill="none" stroke="#63b8ff" d="M220.5,-154.66C220.5,-145.93 220.5,-135.99 220.5,-129.09"/>
<polygon fill="#63b8ff" stroke="#63b8ff" points="217,-154.75 220.5,-164.75 224,-154.75 217,-154.75"/>
</a>
</g>
</g>
<!-- Node24 -->
<g id="Node000024" class="node">
<title>Node24</title>
<g id="a_Node000024"><a xlink:href="MPI_8hpp.html" target="_top" xlink:title=" ">
<polygon fill="white" stroke="#666666" points="665.5,-294 609.5,-294 609.5,-275 665.5,-275 665.5,-294"/>
<text text-anchor="middle" x="637.5" y="-282" font-family="Helvetica,sans-Serif" font-size="10.00">MPI.hpp</text>
</a>
</g>
</g>
<!-- Node23&#45;&gt;Node24 -->
<g id="edge25_Node000023_Node000024" class="edge">
<title>Node23&#45;&gt;Node24</title>
<g id="a_edge25_Node000023_Node000024"><a xlink:title=" ">
<path fill="none" stroke="#63b8ff" d="M550.89,-325.77C571.92,-315.99 600.39,-302.75 618.85,-294.17"/>
<polygon fill="#63b8ff" stroke="#63b8ff" points="549.41,-322.6 541.82,-329.98 552.36,-328.94 549.41,-322.6"/>
</a>
</g>
</g>
<!-- Node25 -->
<g id="Node000025" class="node">
<title>Node25</title>
<g id="a_Node000025"><a xlink:href="CommOperation_8hpp.html" target="_top" xlink:title=" ">
<polygon fill="white" stroke="#666666" points="772.5,-239 654.5,-239 654.5,-220 772.5,-220 772.5,-239"/>
<text text-anchor="middle" x="713.5" y="-227" font-family="Helvetica,sans-Serif" font-size="10.00">CommOperation.hpp</text>
</a>
</g>
</g>
<!-- Node24&#45;&gt;Node25 -->
<g id="edge26_Node000024_Node000025" class="edge">
<title>Node24&#45;&gt;Node25</title>
<g id="a_edge26_Node000024_Node000025"><a xlink:title=" ">
<path fill="none" stroke="#63b8ff" d="M658.08,-269.15C671.81,-259.57 689.43,-247.29 701.07,-239.17"/>
<polygon fill="#63b8ff" stroke="#63b8ff" points="655.91,-266.39 649.71,-274.98 659.92,-272.14 655.91,-266.39"/>
</a>
</g>
</g>
<!-- Node26 -->
<g id="Node000026" class="node">
<title>Node26</title>
<g id="a_Node000026"><a xlink:href="MPISingleton_8hpp.html" target="_top" xlink:title=" ">
<polygon fill="white" stroke="#666666" points="636,-239 535,-239 535,-220 636,-220 636,-239"/>
<text text-anchor="middle" x="585.5" y="-227" font-family="Helvetica,sans-Serif" font-size="10.00">MPISingleton.hpp</text>
</a>
</g>
</g>
<!-- Node24&#45;&gt;Node26 -->
<g id="edge27_Node000024_Node000026" class="edge">
<title>Node24&#45;&gt;Node26</title>
<g id="a_edge27_Node000024_Node000026"><a xlink:title=" ">
<path fill="none" stroke="#63b8ff" d="M621.82,-267.52C612.66,-258.18 601.45,-246.75 593.93,-239.09"/>
<polygon fill="#63b8ff" stroke="#63b8ff" points="619.41,-270.06 628.91,-274.75 624.41,-265.16 619.41,-270.06"/>
</a>
</g>
</g>
<!-- Node30 -->
<g id="Node000030" class="node">
<title>Node30</title>
<g id="a_Node000030"><a xlink:href="STLContainerBase_8hpp.html" target="_top" xlink:title=" ">
<polygon fill="white" stroke="#666666" points="927.5,-294 801.5,-294 801.5,-275 927.5,-275 927.5,-294"/>
<text text-anchor="middle" x="864.5" y="-282" font-family="Helvetica,sans-Serif" font-size="10.00">STLContainerBase.hpp</text>
</a>
</g>
</g>
<!-- Node29&#45;&gt;Node30 -->
<g id="edge31_Node000029_Node000030" class="edge">
<title>Node29&#45;&gt;Node30</title>
<g id="a_edge31_Node000029_Node000030"><a xlink:title=" ">
<path fill="none" stroke="#63b8ff" d="M659.99,-329.2C706.52,-319.26 779.67,-303.63 824.72,-294"/>
<polygon fill="#63b8ff" stroke="#63b8ff" points="659.25,-325.78 650.2,-331.3 660.72,-332.63 659.25,-325.78"/>
</a>
</g>
</g>
<!-- Node31 -->
<g id="Node000031" class="node">
<title>Node31</title>
<g id="a_Node000031"><a xlink:href="DynamicArray_8hpp.html" target="_top" xlink:title=" ">
<polygon fill="white" stroke="#666666" points="1108.5,-239 1002.5,-239 1002.5,-220 1108.5,-220 1108.5,-239"/>
<text text-anchor="middle" x="1055.5" y="-227" font-family="Helvetica,sans-Serif" font-size="10.00">DynamicArray.hpp</text>
</a>
</g>
</g>
<!-- Node30&#45;&gt;Node31 -->
<g id="edge32_Node000030_Node000031" class="edge">
<title>Node30&#45;&gt;Node31</title>
<g id="a_edge32_Node000030_Node000031"><a xlink:title=" ">
<path fill="none" stroke="#63b8ff" d="M905.28,-272.18C941,-262.27 992.13,-248.08 1024.57,-239.08"/>
<polygon fill="#63b8ff" stroke="#63b8ff" points="903.89,-268.94 895.19,-274.98 905.76,-275.68 903.89,-268.94"/>
</a>
</g>
</g>
<!-- Node42 -->
<g id="Node000042" class="node">
<title>Node42</title>
<g id="a_Node000042"><a xlink:href="StaticArray_8hpp.html" target="_top" xlink:title=" ">
<polygon fill="white" stroke="#666666" points="899.5,-239 809.5,-239 809.5,-220 899.5,-220 899.5,-239"/>
<text text-anchor="middle" x="854.5" y="-227" font-family="Helvetica,sans-Serif" font-size="10.00">StaticArray.hpp</text>
</a>
</g>
</g>
<!-- Node30&#45;&gt;Node42 -->
<g id="edge47_Node000030_Node000042" class="edge">
<title>Node30&#45;&gt;Node42</title>
<g id="a_edge47_Node000030_Node000042"><a xlink:title=" ">
<path fill="none" stroke="#63b8ff" d="M860.95,-264.66C859.3,-255.93 857.42,-245.99 856.12,-239.09"/>
<polygon fill="#63b8ff" stroke="#63b8ff" points="857.56,-265.57 862.85,-274.75 864.43,-264.27 857.56,-265.57"/>
</a>
</g>
</g>
<!-- Node31&#45;&gt;Node5 -->
<g id="edge33_Node000031_Node000005" class="edge">
<title>Node31&#45;&gt;Node5</title>
<g id="a_edge33_Node000031_Node000005"><a xlink:title=" ">
<path fill="none" stroke="#63b8ff" d="M992.1,-221.47C892.2,-210.39 701.01,-189.19 617.82,-179.97"/>
<polygon fill="#63b8ff" stroke="#63b8ff" points="991.73,-224.95 1002.06,-222.57 992.51,-217.99 991.73,-224.95"/>
</a>
</g>
</g>
<!-- Node32 -->
<g id="Node000032" class="node">
<title>Node32</title>
<g id="a_Node000032"><a xlink:href="ContiguousTree_8hpp.html" target="_top" xlink:title=" ">
<polygon fill="white" stroke="#666666" points="985,-74 872,-74 872,-55 985,-55 985,-74"/>
<text text-anchor="middle" x="928.5" y="-62" font-family="Helvetica,sans-Serif" font-size="10.00">ContiguousTree.hpp</text>
</a>
</g>
</g>
<!-- Node31&#45;&gt;Node32 -->
<g id="edge34_Node000031_Node000032" class="edge">
<title>Node31&#45;&gt;Node32</title>
<g id="a_edge34_Node000031_Node000032"><a xlink:title=" ">
<path fill="none" stroke="#63b8ff" d="M1025.05,-215.52C1010.37,-208.04 993.41,-197.44 981.5,-184 951.16,-149.76 935.61,-95.31 930.47,-74.23"/>
<polygon fill="#63b8ff" stroke="#63b8ff" points="1023.77,-218.79 1034.29,-219.99 1026.81,-212.49 1023.77,-218.79"/>
</a>
</g>
</g>
<!-- Node33 -->
<g id="Node000033" class="node">
<title>Node33</title>
<g id="a_Node000033"><a xlink:href="ParallelFor_8hpp.html" target="_top" xlink:title=" ">
<polygon fill="white" stroke="#666666" points="1224.5,-74 1136.5,-74 1136.5,-55 1224.5,-55 1224.5,-74"/>
<text text-anchor="middle" x="1180.5" y="-62" font-family="Helvetica,sans-Serif" font-size="10.00">ParallelFor.hpp</text>
</a>
</g>
</g>
<!-- Node31&#45;&gt;Node33 -->
<g id="edge35_Node000031_Node000033" class="edge">
<title>Node31&#45;&gt;Node33</title>
<g id="a_edge35_Node000031_Node000033"><a xlink:title=" ">
<path fill="none" stroke="#63b8ff" d="M1086.33,-215.44C1100.97,-207.99 1117.77,-197.43 1129.5,-184 1159.41,-149.76 1173.95,-95.31 1178.69,-74.23"/>
<polygon fill="#63b8ff" stroke="#63b8ff" points="1084.59,-212.39 1077.11,-219.89 1087.64,-218.7 1084.59,-212.39"/>
</a>
</g>
</g>
<!-- Node34 -->
<g id="Node000034" class="node">
<title>Node34</title>
<g id="a_Node000034"><a xlink:href="ThreadLocal_8hpp.html" target="_top" xlink:title=" ">
<polygon fill="white" stroke="#666666" points="1312,-184 1215,-184 1215,-165 1312,-165 1312,-184"/>
<text text-anchor="middle" x="1263.5" y="-172" font-family="Helvetica,sans-Serif" font-size="10.00">ThreadLocal.hpp</text>
</a>
</g>
</g>
<!-- Node31&#45;&gt;Node34 -->
<g id="edge36_Node000031_Node000034" class="edge">
<title>Node31&#45;&gt;Node34</title>
<g id="a_edge36_Node000031_Node000034"><a xlink:title=" ">
<path fill="none" stroke="#63b8ff" d="M1098.91,-217.44C1137.85,-207.52 1194.19,-193.16 1229.82,-184.08"/>
<polygon fill="#63b8ff" stroke="#63b8ff" points="1097.74,-214.12 1088.92,-219.98 1099.47,-220.91 1097.74,-214.12"/>
</a>
</g>
</g>
<!-- Node35 -->
<g id="Node000035" class="node">
<title>Node35</title>
<g id="a_Node000035"><a xlink:href="ThreadPoolStorage_8hpp.html" target="_top" xlink:title=" ">
<polygon fill="white" stroke="#666666" points="1120.5,-184 990.5,-184 990.5,-165 1120.5,-165 1120.5,-184"/>
<text text-anchor="middle" x="1055.5" y="-172" font-family="Helvetica,sans-Serif" font-size="10.00">ThreadPoolStorage.hpp</text>
</a>
</g>
</g>
<!-- Node31&#45;&gt;Node35 -->
<g id="edge37_Node000031_Node000035" class="edge">
<title>Node31&#45;&gt;Node35</title>
<g id="a_edge37_Node000031_Node000035"><a xlink:title=" ">
<path fill="none" stroke="#63b8ff" d="M1055.5,-209.66C1055.5,-200.93 1055.5,-190.99 1055.5,-184.09"/>
<polygon fill="#63b8ff" stroke="#63b8ff" points="1052,-209.75 1055.5,-219.75 1059,-209.75 1052,-209.75"/>
</a>
</g>
</g>
<!-- Node39 -->
<g id="Node000039" class="node">
<title>Node39</title>
<g id="a_Node000039"><a xlink:href="abstree_8hpp.html" target="_top" xlink:title=" ">
<polygon fill="white" stroke="#666666" points="1316.5,-74 1242.5,-74 1242.5,-55 1316.5,-55 1316.5,-74"/>
<text text-anchor="middle" x="1279.5" y="-62" font-family="Helvetica,sans-Serif" font-size="10.00">abstree.hpp</text>
</a>
</g>
</g>
<!-- Node31&#45;&gt;Node39 -->
<g id="edge45_Node000031_Node000039" class="edge">
<title>Node31&#45;&gt;Node39</title>
<g id="a_edge45_Node000031_Node000039"><a xlink:title=" ">
<path fill="none" stroke="#63b8ff" d="M1087.85,-216.01C1106.59,-208.1 1130.22,-196.93 1149.5,-184 1200.99,-149.48 1252.56,-95.19 1271.71,-74.19"/>
<polygon fill="#63b8ff" stroke="#63b8ff" points="1086.45,-212.8 1078.54,-219.85 1089.12,-219.27 1086.45,-212.8"/>
</a>
</g>
</g>
<!-- Node40 -->
<g id="Node000040" class="node">
<title>Node40</title>
<g id="a_Node000040"><a xlink:href="UnstructuredView_8hpp.html" target="_top" xlink:title=" ">
<polygon fill="white" stroke="#666666" points="1454.5,-184 1330.5,-184 1330.5,-165 1454.5,-165 1454.5,-184"/>
<text text-anchor="middle" x="1392.5" y="-172" font-family="Helvetica,sans-Serif" font-size="10.00">UnstructuredView.hpp</text>
</a>
</g>
</g>
<!-- Node31&#45;&gt;Node40 -->
<g id="edge44_Node000031_Node000040" class="edge">
<title>Node31&#45;&gt;Node40</title>
<g id="a_edge44_Node000031_Node000040"><a xlink:title=" ">
<path fill="none" stroke="#63b8ff" d="M1118.78,-218.55C1182.12,-208.59 1278.51,-193.43 1338.39,-184.01"/>
<polygon fill="#63b8ff" stroke="#63b8ff" points="1117.86,-215.15 1108.53,-220.16 1118.95,-222.06 1117.86,-215.15"/>
</a>
</g>
</g>
<!-- Node41 -->
<g id="Node000041" class="node">
<title>Node41</title>
<g id="a_Node000041"><a xlink:href="stl__extension_8hpp.html" target="_top" xlink:title=" ">
<polygon fill="white" stroke="#666666" points="934,-184 831,-184 831,-165 934,-165 934,-184"/>
<text text-anchor="middle" x="882.5" y="-172" font-family="Helvetica,sans-Serif" font-size="10.00">stl_extension.hpp</text>
</a>
</g>
</g>
<!-- Node31&#45;&gt;Node41 -->
<g id="edge46_Node000031_Node000041" class="edge">
<title>Node31&#45;&gt;Node41</title>
<g id="a_edge46_Node000031_Node000041"><a xlink:title=" ">
<path fill="none" stroke="#63b8ff" d="M1017.73,-216.93C985.41,-207.03 939.64,-193.01 910.51,-184.08"/>
<polygon fill="#63b8ff" stroke="#63b8ff" points="1017.12,-220.4 1027.7,-219.98 1019.17,-213.71 1017.12,-220.4"/>
</a>
</g>
</g>
<!-- Node36 -->
<g id="Node000036" class="node">
<title>Node36</title>
<g id="a_Node000036"><a xlink:href="ThreadPool_8hpp.html" target="_top" xlink:title=" ">
<polygon fill="white" stroke="#666666" points="1106.5,-129 1014.5,-129 1014.5,-110 1106.5,-110 1106.5,-129"/>
<text text-anchor="middle" x="1060.5" y="-117" font-family="Helvetica,sans-Serif" font-size="10.00">ThreadPool.hpp</text>
</a>
</g>
</g>
<!-- Node35&#45;&gt;Node36 -->
<g id="edge38_Node000035_Node000036" class="edge">
<title>Node35&#45;&gt;Node36</title>
<g id="a_edge38_Node000035_Node000036"><a xlink:title=" ">
<path fill="none" stroke="#63b8ff" d="M1057.28,-154.66C1058.1,-145.93 1059.04,-135.99 1059.69,-129.09"/>
<polygon fill="#63b8ff" stroke="#63b8ff" points="1053.78,-154.46 1056.33,-164.75 1060.75,-155.12 1053.78,-154.46"/>
</a>
</g>
</g>
<!-- Node36&#45;&gt;Node32 -->
<g id="edge39_Node000036_Node000032" class="edge">
<title>Node36&#45;&gt;Node32</title>
<g id="a_edge39_Node000036_Node000032"><a xlink:title=" ">
<path fill="none" stroke="#63b8ff" d="M1029.77,-106.16C1005.33,-96.35 971.76,-82.87 950.09,-74.17"/>
<polygon fill="#63b8ff" stroke="#63b8ff" points="1028.71,-109.51 1039.29,-109.98 1031.32,-103.01 1028.71,-109.51"/>
</a>
</g>
</g>
<!-- Node36&#45;&gt;Node33 -->
<g id="edge40_Node000036_Node000033" class="edge">
<title>Node36&#45;&gt;Node33</title>
<g id="a_edge40_Node000036_Node000033"><a xlink:title=" ">
<path fill="none" stroke="#63b8ff" d="M1089.03,-105.9C1111.2,-96.11 1141.35,-82.79 1160.87,-74.17"/>
<polygon fill="#63b8ff" stroke="#63b8ff" points="1087.51,-102.74 1079.78,-109.98 1090.34,-109.15 1087.51,-102.74"/>
</a>
</g>
</g>
<!-- Node37 -->
<g id="Node000037" class="node">
<title>Node37</title>
<g id="a_Node000037"><a xlink:href="ResourceLoader_8hpp.html" target="_top" xlink:title=" ">
<polygon fill="white" stroke="#666666" points="1118,-74 1003,-74 1003,-55 1118,-55 1118,-74"/>
<text text-anchor="middle" x="1060.5" y="-62" font-family="Helvetica,sans-Serif" font-size="10.00">ResourceLoader.hpp</text>
</a>
</g>
</g>
<!-- Node36&#45;&gt;Node37 -->
<g id="edge41_Node000036_Node000037" class="edge">
<title>Node36&#45;&gt;Node37</title>
<g id="a_edge41_Node000036_Node000037"><a xlink:title=" ">
<path fill="none" stroke="#63b8ff" d="M1060.5,-99.66C1060.5,-90.93 1060.5,-80.99 1060.5,-74.09"/>
<polygon fill="#63b8ff" stroke="#63b8ff" points="1057,-99.75 1060.5,-109.75 1064,-99.75 1057,-99.75"/>
</a>
</g>
</g>
<!-- Node36&#45;&gt;Node39 -->
<g id="edge43_Node000036_Node000039" class="edge">
<title>Node36&#45;&gt;Node39</title>
<g id="a_edge43_Node000036_Node000039"><a xlink:title=" ">
<path fill="none" stroke="#63b8ff" d="M1105.43,-107.63C1146.45,-97.7 1206.29,-83.22 1244.04,-74.08"/>
<polygon fill="#63b8ff" stroke="#63b8ff" points="1104.58,-104.23 1095.69,-109.98 1106.23,-111.03 1104.58,-104.23"/>
</a>
</g>
</g>
<!-- Node38 -->
<g id="Node000038" class="node">
<title>Node38</title>
<g id="a_Node000038"><a xlink:href="ResourceQueue_8hpp.html" target="_top" xlink:title=" ">
<polygon fill="white" stroke="#666666" points="1117.5,-19 1003.5,-19 1003.5,0 1117.5,0 1117.5,-19"/>
<text text-anchor="middle" x="1060.5" y="-7" font-family="Helvetica,sans-Serif" font-size="10.00">ResourceQueue.hpp</text>
</a>
</g>
</g>
<!-- Node37&#45;&gt;Node38 -->
<g id="edge42_Node000037_Node000038" class="edge">
<title>Node37&#45;&gt;Node38</title>
<g id="a_edge42_Node000037_Node000038"><a xlink:title=" ">
<path fill="none" stroke="#63b8ff" d="M1060.5,-44.66C1060.5,-35.93 1060.5,-25.99 1060.5,-19.09"/>
<polygon fill="#63b8ff" stroke="#63b8ff" points="1057,-44.75 1060.5,-54.75 1064,-44.75 1057,-44.75"/>
</a>
</g>
</g>
<!-- Node42&#45;&gt;Node28 -->
<g id="edge49_Node000042_Node000028" class="edge">
<title>Node42&#45;&gt;Node28</title>
<g id="a_edge49_Node000042_Node000028"><a xlink:title=" ">
<path fill="none" stroke="#63b8ff" d="M799.29,-222.02C793.29,-221.33 787.27,-220.65 781.5,-220 633.57,-203.39 595.71,-206.14 448.5,-184 443.73,-183.28 438.69,-182.41 433.79,-181.51"/>
<polygon fill="#63b8ff" stroke="#63b8ff" points="799,-225.51 809.33,-223.18 799.8,-218.56 799,-225.51"/>
</a>
</g>
</g>
<!-- Node42&#45;&gt;Node41 -->
<g id="edge50_Node000042_Node000041" class="edge">
<title>Node42&#45;&gt;Node41</title>
<g id="a_edge50_Node000042_Node000041"><a xlink:title=" ">
<path fill="none" stroke="#63b8ff" d="M863.84,-210.82C868.59,-201.82 874.16,-191.29 877.96,-184.09"/>
<polygon fill="#63b8ff" stroke="#63b8ff" points="860.7,-209.27 859.12,-219.75 866.89,-212.54 860.7,-209.27"/>
</a>
</g>
</g>
<!-- Node43 -->
<g id="Node000043" class="node">
<title>Node43</title>
<g id="a_Node000043"><a xlink:href="base_8hpp.html" target="_top" xlink:title=" ">
<polygon fill="white" stroke="#666666" points="519,-184 458,-184 458,-165 519,-165 519,-184"/>
<text text-anchor="middle" x="488.5" y="-172" font-family="Helvetica,sans-Serif" font-size="10.00">base.hpp</text>
</a>
</g>
</g>
<!-- Node42&#45;&gt;Node43 -->
<g id="edge48_Node000042_Node000043" class="edge">
<title>Node42&#45;&gt;Node43</title>
<g id="a_edge48_Node000042_Node000043"><a xlink:title=" ">
<path fill="none" stroke="#63b8ff" d="M798.97,-221.42C719.99,-211.27 579.19,-192.83 528.5,-184 525.42,-183.46 522.22,-182.86 519.03,-182.23"/>
<polygon fill="#63b8ff" stroke="#63b8ff" points="798.85,-224.94 809.22,-222.74 799.74,-217.99 798.85,-224.94"/>
</a>
</g>
</g>
<!-- Node45&#45;&gt;Node41 -->
<g id="edge53_Node000045_Node000041" class="edge">
<title>Node45&#45;&gt;Node41</title>
<g id="a_edge53_Node000045_Node000041"><a xlink:title=" ">
<path fill="none" stroke="#63b8ff" d="M1063.06,-377.35C1024.44,-334.18 919.75,-217.15 890.3,-184.22"/>
<polygon fill="#63b8ff" stroke="#63b8ff" points="1060.58,-379.83 1069.86,-384.95 1065.8,-375.17 1060.58,-379.83"/>
</a>
</g>
</g>
<!-- Node46&#45;&gt;Node3 -->
<g id="edge58_Node000046_Node000003" class="edge">
<title>Node46&#45;&gt;Node3</title>
<g id="a_edge58_Node000046_Node000003"><a xlink:title=" ">
<path fill="none" stroke="#63b8ff" d="M825.14,-437.56C784.87,-427.64 726.3,-413.2 689.31,-404.08"/>
<polygon fill="#63b8ff" stroke="#63b8ff" points="824.41,-440.99 834.96,-439.98 826.08,-434.19 824.41,-440.99"/>
</a>
</g>
</g>
<!-- Node46&#45;&gt;Node30 -->
<g id="edge57_Node000046_Node000030" class="edge">
<title>Node46&#45;&gt;Node30</title>
<g id="a_edge57_Node000046_Node000030"><a xlink:title=" ">
<path fill="none" stroke="#63b8ff" d="M868.91,-429.37C867.83,-394.03 865.55,-319.79 864.77,-294.31"/>
<polygon fill="#63b8ff" stroke="#63b8ff" points="865.43,-429.85 869.23,-439.74 872.42,-429.63 865.43,-429.85"/>
</a>
</g>
</g>
<!-- Node46&#45;&gt;Node45 -->
<g id="edge59_Node000046_Node000045" class="edge">
<title>Node46&#45;&gt;Node45</title>
<g id="a_edge59_Node000046_Node000045"><a xlink:title=" ">
<path fill="none" stroke="#63b8ff" d="M912.91,-437.44C951.85,-427.52 1008.19,-413.16 1043.82,-404.08"/>
<polygon fill="#63b8ff" stroke="#63b8ff" points="911.74,-434.12 902.92,-439.98 913.47,-440.91 911.74,-434.12"/>
</a>
</g>
</g>
<!-- Node47 -->
<g id="Node000047" class="node">
<title>Node47</title>
<g id="a_Node000047"><a xlink:href="ArgumentMapper_8hpp.html" target="_top" xlink:title=" ">
<polygon fill="white" stroke="#666666" points="1019.5,-404 897.5,-404 897.5,-385 1019.5,-385 1019.5,-404"/>
<text text-anchor="middle" x="958.5" y="-392" font-family="Helvetica,sans-Serif" font-size="10.00">ArgumentMapper.hpp</text>
</a>
</g>
</g>
<!-- Node46&#45;&gt;Node47 -->
<g id="edge55_Node000046_Node000047" class="edge">
<title>Node46&#45;&gt;Node47</title>
<g id="a_edge55_Node000046_Node000047"><a xlink:title=" ">
<path fill="none" stroke="#63b8ff" d="M892.68,-434.7C908.89,-425.04 930.05,-412.44 943.94,-404.17"/>
<polygon fill="#63b8ff" stroke="#63b8ff" points="890.6,-431.86 883.8,-439.98 894.18,-437.88 890.6,-431.86"/>
</a>
</g>
</g>
<!-- Node48 -->
<g id="Node000048" class="node">
<title>Node48</title>
<g id="a_Node000048"><a xlink:href="OptionalRef_8hpp.html" target="_top" xlink:title=" ">
<polygon fill="white" stroke="#666666" points="841,-404 746,-404 746,-385 841,-385 841,-404"/>
<text text-anchor="middle" x="793.5" y="-392" font-family="Helvetica,sans-Serif" font-size="10.00">OptionalRef.hpp</text>
</a>
</g>
</g>
<!-- Node46&#45;&gt;Node48 -->
<g id="edge56_Node000046_Node000048" class="edge">
<title>Node46&#45;&gt;Node48</title>
<g id="a_edge56_Node000046_Node000048"><a xlink:title=" ">
<path fill="none" stroke="#63b8ff" d="M848.92,-434.15C835.19,-424.57 817.57,-412.29 805.93,-404.17"/>
<polygon fill="#63b8ff" stroke="#63b8ff" points="847.08,-437.14 857.29,-439.98 851.09,-431.39 847.08,-437.14"/>
</a>
</g>
</g>
</g>
</svg>

<g id="navigator" transform="translate(0 0)" fill="#404254">
  <rect fill="#f2f5e9" fill-opacity="0.5" stroke="#606060" stroke-width=".5" x="0" y="0" width="60" height="60"/>
  <use id="zoomplus" xlink:href="#zoomPlus" x="17" y="9" onmousedown="handleZoom(evt,'in')"/>
  <use id="zoomminus" xlink:href="#zoomMin" x="42" y="9" onmousedown="handleZoom(evt,'out')"/>
  <use id="reset" xlink:href="#resetDef" x="30" y="36" onmousedown="handleReset()"/>
   <use id="arrowup" xlink:href="#arrowUp" x="0" y="0" onmousedown="handlePan(0,-1)"/>
  <use id="arrowright" xlink:href="#arrowRight" x="0" y="0" onmousedown="handlePan(1,0)"/>
  <use id="arrowdown" xlink:href="#arrowDown" x="0" y="0" onmousedown="handlePan(0,1)"/>
  <use id="arrowleft" xlink:href="#arrowLeft" x="0" y="0" onmousedown="handlePan(-1,0)"/>
</g>
<svg viewBox="0 0 15 15" width="100%" height="30px" preserveAspectRatio="xMaxYMin meet">
 <g id="arrow_out" transform="scale(0.3 0.3)">
  <a xlink:href="exception_8hpp__dep__incl_org.svg" target="_base">
   <rect id="button" ry="5" rx="5" y="6" x="6" height="38" width="38"
        fill="#f2f5e9" fill-opacity="0.5" stroke="#606060" stroke-width="1.0"/>
   <path id="arrow"
     d="M 11.500037,31.436501 C 11.940474,20.09759 22.043105,11.32322 32.158766,21.979434 L 37.068811,17.246167 C 37.068811,17.246167 37.088388,32 37.088388,32 L 22.160133,31.978069 C 22.160133,31.978069 26.997745,27.140456 26.997745,27.140456 C 18.528582,18.264221 13.291696,25.230495 11.500037,31.436501 z"
     style="fill:#404040;"/>
  </a>
 </g>
</svg>

<style type='text/css'>
<![CDATA[
[data-mouse-over-selected='false'] { opacity: 0.7; }
[data-mouse-over-selected='true']  { opacity: 1.0; }
]]>
</style>
<script type="application/ecmascript"><![CDATA[
document.addEventListener('DOMContentLoaded', (event) => {
  highlightEdges();
  highlightAdjacentNodes();
});
]]></script>
</svg>
