<?xml version="1.0" encoding="UTF-8" standalone="no"?>
<!DOCTYPE svg PUBLIC "-//W3C//DTD SVG 1.1//EN"
 "http://www.w3.org/Graphics/SVG/1.1/DTD/svg11.dtd">
<!-- Generated by graphviz version 2.43.0 (0)
 -->
<!-- Title: exceptions.hpp Pages: 1 -->
<svg width="1507pt" height="476pt"
 viewBox="0.00 0.00 1506.50 476.00" xmlns="http://www.w3.org/2000/svg" xmlns:xlink="http://www.w3.org/1999/xlink">
<g id="graph0" class="graph" transform="scale(1 1) rotate(0) translate(4 472)">
<title>exceptions.hpp</title>
<polygon fill="white" stroke="transparent" points="-4,4 -4,-472 1502.5,-472 1502.5,4 -4,4"/>
<!-- Node1 -->
<g id="node1" class="node">
<title>Node1</title>
<g id="a_node1"><a xlink:title=" ">
<polygon fill="#bfbfbf" stroke="black" points="1069,-448.5 1069,-467.5 1160,-467.5 1160,-448.5 1069,-448.5"/>
<text text-anchor="middle" x="1114.5" y="-455.5" font-family="Helvetica,sans-Serif" font-size="10.00">exceptions.hpp</text>
</a>
</g>
</g>
<!-- Node2 -->
<g id="node2" class="node">
<title>Node2</title>
<g id="a_node2"><a xlink:href="ArgumentMapper_8hpp.html" target="_top" xlink:title=" ">
<polygon fill="white" stroke="black" points="829.5,-392.5 829.5,-411.5 951.5,-411.5 951.5,-392.5 829.5,-392.5"/>
<text text-anchor="middle" x="890.5" y="-399.5" font-family="Helvetica,sans-Serif" font-size="10.00">ArgumentMapper.hpp</text>
</a>
</g>
</g>
<!-- Node1&#45;&gt;Node2 -->
<g id="edge1" class="edge">
<title>Node1&#45;&gt;Node2</title>
<path fill="none" stroke="midnightblue" d="M1069.24,-446.09C1026.92,-435.89 964.59,-420.86 925.83,-411.52"/>
<polygon fill="midnightblue" stroke="midnightblue" points="1068.46,-449.5 1079.01,-448.44 1070.11,-442.7 1068.46,-449.5"/>
</g>
<!-- Node3 -->
<g id="node3" class="node">
<title>Node3</title>
<g id="a_node3"><a xlink:href="checks_8hpp.html" target="_top" xlink:title=" ">
<polygon fill="white" stroke="black" points="970,-392.5 970,-411.5 1041,-411.5 1041,-392.5 970,-392.5"/>
<text text-anchor="middle" x="1005.5" y="-399.5" font-family="Helvetica,sans-Serif" font-size="10.00">checks.hpp</text>
</a>
</g>
</g>
<!-- Node1&#45;&gt;Node3 -->
<g id="edge2" class="edge">
<title>Node1&#45;&gt;Node3</title>
<path fill="none" stroke="midnightblue" d="M1087.98,-443.86C1067.77,-433.85 1040.51,-420.35 1022.97,-411.65"/>
<polygon fill="midnightblue" stroke="midnightblue" points="1086.47,-447.02 1096.99,-448.32 1089.58,-440.75 1086.47,-447.02"/>
</g>
<!-- Node30 -->
<g id="node30" class="node">
<title>Node30</title>
<g id="a_node30"><a xlink:href="STLContainerBase_8hpp.html" target="_top" xlink:title=" ">
<polygon fill="white" stroke="black" points="1029.5,-280.5 1029.5,-299.5 1155.5,-299.5 1155.5,-280.5 1029.5,-280.5"/>
<text text-anchor="middle" x="1092.5" y="-287.5" font-family="Helvetica,sans-Serif" font-size="10.00">STLContainerBase.hpp</text>
</a>
</g>
</g>
<!-- Node1&#45;&gt;Node30 -->
<g id="edge53" class="edge">
<title>Node1&#45;&gt;Node30</title>
<path fill="none" stroke="midnightblue" d="M1111.97,-437.93C1107.2,-401.92 1097.04,-325.23 1093.64,-299.57"/>
<polygon fill="midnightblue" stroke="midnightblue" points="1108.53,-438.62 1113.32,-448.08 1115.47,-437.7 1108.53,-438.62"/>
</g>
<!-- Node45 -->
<g id="node45" class="node">
<title>Node45</title>
<g id="a_node45"><a xlink:href="OptionalRef_8hpp.html" target="_top" xlink:title=" ">
<polygon fill="white" stroke="black" points="1241,-392.5 1241,-411.5 1336,-411.5 1336,-392.5 1241,-392.5"/>
<text text-anchor="middle" x="1288.5" y="-399.5" font-family="Helvetica,sans-Serif" font-size="10.00">OptionalRef.hpp</text>
</a>
</g>
</g>
<!-- Node1&#45;&gt;Node45 -->
<g id="edge52" class="edge">
<title>Node1&#45;&gt;Node45</title>
<path fill="none" stroke="midnightblue" d="M1151.76,-445.44C1184.57,-435.26 1231.58,-420.66 1261.06,-411.52"/>
<polygon fill="midnightblue" stroke="midnightblue" points="1150.58,-442.14 1142.07,-448.44 1152.66,-448.82 1150.58,-442.14"/>
</g>
<!-- Node46 -->
<g id="node46" class="node">
<title>Node46</title>
<g id="a_node46"><a xlink:href="common_8hpp.html" target="_top" xlink:title=" ">
<polygon fill="white" stroke="black" points="1142.5,-392.5 1142.5,-411.5 1222.5,-411.5 1222.5,-392.5 1142.5,-392.5"/>
<text text-anchor="middle" x="1182.5" y="-399.5" font-family="Helvetica,sans-Serif" font-size="10.00">common.hpp</text>
</a>
</g>
</g>
<!-- Node1&#45;&gt;Node46 -->
<g id="edge54" class="edge">
<title>Node1&#45;&gt;Node46</title>
<path fill="none" stroke="midnightblue" d="M1133.26,-442.1C1145.5,-432.38 1161.06,-420.03 1171.38,-411.83"/>
<polygon fill="midnightblue" stroke="midnightblue" points="1131.08,-439.36 1125.43,-448.32 1135.43,-444.85 1131.08,-439.36"/>
</g>
<!-- Node4 -->
<g id="node4" class="node">
<title>Node4</title>
<g id="a_node4"><a xlink:href="json_8hpp.html" target="_top" xlink:title=" ">
<polygon fill="white" stroke="black" points="1440.5,-168.5 1440.5,-187.5 1498.5,-187.5 1498.5,-168.5 1440.5,-168.5"/>
<text text-anchor="middle" x="1469.5" y="-175.5" font-family="Helvetica,sans-Serif" font-size="10.00">json.hpp</text>
</a>
</g>
</g>
<!-- Node3&#45;&gt;Node4 -->
<g id="edge3" class="edge">
<title>Node3&#45;&gt;Node4</title>
<path fill="none" stroke="midnightblue" d="M1041.53,-389.22C1110.08,-366.12 1263.03,-311.18 1381.5,-244 1411.73,-226.85 1443.71,-201.01 1459.49,-187.66"/>
<polygon fill="midnightblue" stroke="midnightblue" points="1040.41,-385.91 1032.04,-392.4 1042.63,-392.54 1040.41,-385.91"/>
</g>
<!-- Node5 -->
<g id="node5" class="node">
<title>Node5</title>
<g id="a_node5"><a xlink:href="Serializer_8hpp.html" target="_top" xlink:title=" ">
<polygon fill="white" stroke="black" points="918,-336.5 918,-355.5 1001,-355.5 1001,-336.5 918,-336.5"/>
<text text-anchor="middle" x="959.5" y="-343.5" font-family="Helvetica,sans-Serif" font-size="10.00">Serializer.hpp</text>
</a>
</g>
</g>
<!-- Node3&#45;&gt;Node5 -->
<g id="edge4" class="edge">
<title>Node3&#45;&gt;Node5</title>
<path fill="none" stroke="midnightblue" d="M991.39,-384.43C983.32,-374.97 973.54,-363.48 966.95,-355.75"/>
<polygon fill="midnightblue" stroke="midnightblue" points="988.75,-386.74 997.9,-392.08 994.08,-382.2 988.75,-386.74"/>
</g>
<!-- Node9 -->
<g id="node9" class="node">
<title>Node9</title>
<g id="a_node9"><a xlink:href="OutputStream_8hpp.html" target="_top" xlink:title=" ">
<polygon fill="white" stroke="black" points="566.5,-336.5 566.5,-355.5 672.5,-355.5 672.5,-336.5 566.5,-336.5"/>
<text text-anchor="middle" x="619.5" y="-343.5" font-family="Helvetica,sans-Serif" font-size="10.00">OutputStream.hpp</text>
</a>
</g>
</g>
<!-- Node3&#45;&gt;Node9 -->
<g id="edge8" class="edge">
<title>Node3&#45;&gt;Node9</title>
<path fill="none" stroke="midnightblue" d="M959.61,-391.95C851.85,-374.3 737.69,-360.39 672.53,-352.9"/>
<polygon fill="midnightblue" stroke="midnightblue" points="959.24,-395.44 969.68,-393.61 960.38,-388.53 959.24,-395.44"/>
</g>
<!-- Node28 -->
<g id="node28" class="node">
<title>Node28</title>
<g id="a_node28"><a xlink:href="getReference_8hpp.html" target="_top" xlink:title=" ">
<polygon fill="white" stroke="black" points="726,-336.5 726,-355.5 829,-355.5 829,-336.5 726,-336.5"/>
<text text-anchor="middle" x="777.5" y="-343.5" font-family="Helvetica,sans-Serif" font-size="10.00">getReference.hpp</text>
</a>
</g>
</g>
<!-- Node3&#45;&gt;Node28 -->
<g id="edge29" class="edge">
<title>Node3&#45;&gt;Node28</title>
<path fill="none" stroke="midnightblue" d="M959.95,-390.21C916.93,-380.02 853.25,-364.94 813.63,-355.56"/>
<polygon fill="midnightblue" stroke="midnightblue" points="959.34,-393.66 969.88,-392.56 960.95,-386.85 959.34,-393.66"/>
</g>
<!-- Node29 -->
<g id="node29" class="node">
<title>Node29</title>
<g id="a_node29"><a xlink:href="resize_8hpp.html" target="_top" xlink:title=" ">
<polygon fill="white" stroke="black" points="1019,-336.5 1019,-355.5 1086,-355.5 1086,-336.5 1019,-336.5"/>
<text text-anchor="middle" x="1052.5" y="-343.5" font-family="Helvetica,sans-Serif" font-size="10.00">resize.hpp</text>
</a>
</g>
</g>
<!-- Node3&#45;&gt;Node29 -->
<g id="edge30" class="edge">
<title>Node3&#45;&gt;Node29</title>
<path fill="none" stroke="midnightblue" d="M1019.92,-384.43C1028.16,-374.97 1038.15,-363.48 1044.88,-355.75"/>
<polygon fill="midnightblue" stroke="midnightblue" points="1017.19,-382.24 1013.26,-392.08 1022.47,-386.84 1017.19,-382.24"/>
</g>
<!-- Node44 -->
<g id="node44" class="node">
<title>Node44</title>
<g id="a_node44"><a xlink:href="zip_8hpp.html" target="_top" xlink:title=" ">
<polygon fill="white" stroke="black" points="847.5,-336.5 847.5,-355.5 899.5,-355.5 899.5,-336.5 847.5,-336.5"/>
<text text-anchor="middle" x="873.5" y="-343.5" font-family="Helvetica,sans-Serif" font-size="10.00">zip.hpp</text>
</a>
</g>
</g>
<!-- Node3&#45;&gt;Node44 -->
<g id="edge51" class="edge">
<title>Node3&#45;&gt;Node44</title>
<path fill="none" stroke="midnightblue" d="M975.28,-388.64C950.51,-378.5 916.1,-364.43 894.32,-355.52"/>
<polygon fill="midnightblue" stroke="midnightblue" points="974,-391.9 984.58,-392.44 976.65,-385.42 974,-391.9"/>
</g>
<!-- Node6 -->
<g id="node6" class="node">
<title>Node6</title>
<g id="a_node6"><a xlink:href="MPI_8hpp.html" target="_top" xlink:title=" ">
<polygon fill="white" stroke="black" points="913.5,-280.5 913.5,-299.5 969.5,-299.5 969.5,-280.5 913.5,-280.5"/>
<text text-anchor="middle" x="941.5" y="-287.5" font-family="Helvetica,sans-Serif" font-size="10.00">MPI.hpp</text>
</a>
</g>
</g>
<!-- Node5&#45;&gt;Node6 -->
<g id="edge5" class="edge">
<title>Node5&#45;&gt;Node6</title>
<path fill="none" stroke="midnightblue" d="M953.3,-326.4C950.29,-317.36 946.81,-306.94 944.42,-299.75"/>
<polygon fill="midnightblue" stroke="midnightblue" points="950.04,-327.7 956.53,-336.08 956.69,-325.49 950.04,-327.7"/>
</g>
<!-- Node7 -->
<g id="node7" class="node">
<title>Node7</title>
<g id="a_node7"><a xlink:href="CommOperation_8hpp.html" target="_top" xlink:title=" ">
<polygon fill="white" stroke="black" points="882.5,-224.5 882.5,-243.5 1000.5,-243.5 1000.5,-224.5 882.5,-224.5"/>
<text text-anchor="middle" x="941.5" y="-231.5" font-family="Helvetica,sans-Serif" font-size="10.00">CommOperation.hpp</text>
</a>
</g>
</g>
<!-- Node6&#45;&gt;Node7 -->
<g id="edge6" class="edge">
<title>Node6&#45;&gt;Node7</title>
<path fill="none" stroke="midnightblue" d="M941.5,-269.8C941.5,-260.91 941.5,-250.78 941.5,-243.75"/>
<polygon fill="midnightblue" stroke="midnightblue" points="938,-270.08 941.5,-280.08 945,-270.08 938,-270.08"/>
</g>
<!-- Node8 -->
<g id="node8" class="node">
<title>Node8</title>
<g id="a_node8"><a xlink:href="MPISingleton_8hpp.html" target="_top" xlink:title=" ">
<polygon fill="white" stroke="black" points="763,-224.5 763,-243.5 864,-243.5 864,-224.5 763,-224.5"/>
<text text-anchor="middle" x="813.5" y="-231.5" font-family="Helvetica,sans-Serif" font-size="10.00">MPISingleton.hpp</text>
</a>
</g>
</g>
<!-- Node6&#45;&gt;Node8 -->
<g id="edge7" class="edge">
<title>Node6&#45;&gt;Node8</title>
<path fill="none" stroke="midnightblue" d="M911.88,-276.5C887.88,-266.38 854.72,-252.39 833.69,-243.52"/>
<polygon fill="midnightblue" stroke="midnightblue" points="910.64,-279.78 921.22,-280.44 913.36,-273.33 910.64,-279.78"/>
</g>
<!-- Node10 -->
<g id="node10" class="node">
<title>Node10</title>
<g id="a_node10"><a xlink:href="ArgParse_8hpp.html" target="_top" xlink:title=" ">
<polygon fill="white" stroke="black" points="488.5,-168.5 488.5,-187.5 568.5,-187.5 568.5,-168.5 488.5,-168.5"/>
<text text-anchor="middle" x="528.5" y="-175.5" font-family="Helvetica,sans-Serif" font-size="10.00">ArgParse.hpp</text>
</a>
</g>
</g>
<!-- Node9&#45;&gt;Node10 -->
<g id="edge9" class="edge">
<title>Node9&#45;&gt;Node10</title>
<path fill="none" stroke="midnightblue" d="M586.79,-332.08C572.5,-324.78 556.9,-314.22 547.5,-300 523.7,-263.99 525.7,-209 527.55,-187.78"/>
<polygon fill="midnightblue" stroke="midnightblue" points="585.37,-335.28 595.9,-336.41 588.37,-328.96 585.37,-335.28"/>
</g>
<!-- Node18 -->
<g id="node18" class="node">
<title>Node18</title>
<g id="a_node18"><a xlink:href="FileOutputStream_8hpp.html" target="_top" xlink:title=" ">
<polygon fill="white" stroke="black" points="226,-280.5 226,-299.5 349,-299.5 349,-280.5 226,-280.5"/>
<text text-anchor="middle" x="287.5" y="-287.5" font-family="Helvetica,sans-Serif" font-size="10.00">FileOutputStream.hpp</text>
</a>
</g>
</g>
<!-- Node9&#45;&gt;Node18 -->
<g id="edge17" class="edge">
<title>Node9&#45;&gt;Node18</title>
<path fill="none" stroke="midnightblue" d="M556.73,-334.79C494,-324.59 398.65,-309.08 339.86,-299.52"/>
<polygon fill="midnightblue" stroke="midnightblue" points="556.46,-338.29 566.89,-336.44 557.59,-331.38 556.46,-338.29"/>
</g>
<!-- Node26 -->
<g id="node26" class="node">
<title>Node26</title>
<g id="a_node26"><a xlink:href="StreamInterceptor_8hpp.html" target="_top" xlink:title=" ">
<polygon fill="white" stroke="black" points="557,-280.5 557,-299.5 682,-299.5 682,-280.5 557,-280.5"/>
<text text-anchor="middle" x="619.5" y="-287.5" font-family="Helvetica,sans-Serif" font-size="10.00">StreamInterceptor.hpp</text>
</a>
</g>
</g>
<!-- Node9&#45;&gt;Node26 -->
<g id="edge27" class="edge">
<title>Node9&#45;&gt;Node26</title>
<path fill="none" stroke="midnightblue" d="M619.5,-325.8C619.5,-316.91 619.5,-306.78 619.5,-299.75"/>
<polygon fill="midnightblue" stroke="midnightblue" points="616,-326.08 619.5,-336.08 623,-326.08 616,-326.08"/>
</g>
<!-- Node27 -->
<g id="node27" class="node">
<title>Node27</title>
<g id="a_node27"><a xlink:href="Color_8hpp.html" target="_top" xlink:title=" ">
<polygon fill="white" stroke="black" points="700.5,-280.5 700.5,-299.5 762.5,-299.5 762.5,-280.5 700.5,-280.5"/>
<text text-anchor="middle" x="731.5" y="-287.5" font-family="Helvetica,sans-Serif" font-size="10.00">Color.hpp</text>
</a>
</g>
</g>
<!-- Node9&#45;&gt;Node27 -->
<g id="edge28" class="edge">
<title>Node9&#45;&gt;Node27</title>
<path fill="none" stroke="midnightblue" d="M646.75,-331.86C667.52,-321.85 695.52,-308.35 713.55,-299.65"/>
<polygon fill="midnightblue" stroke="midnightblue" points="644.98,-328.83 637.49,-336.32 648.02,-335.13 644.98,-328.83"/>
</g>
<!-- Node11 -->
<g id="node11" class="node">
<title>Node11</title>
<g id="a_node11"><a xlink:href="AbsArgument_8hpp.html" target="_top" xlink:title=" ">
<polygon fill="white" stroke="black" points="441.5,-112.5 441.5,-131.5 545.5,-131.5 545.5,-112.5 441.5,-112.5"/>
<text text-anchor="middle" x="493.5" y="-119.5" font-family="Helvetica,sans-Serif" font-size="10.00">AbsArgument.hpp</text>
</a>
</g>
</g>
<!-- Node10&#45;&gt;Node11 -->
<g id="edge10" class="edge">
<title>Node10&#45;&gt;Node11</title>
<path fill="none" stroke="midnightblue" d="M517.2,-159.57C511.18,-150.27 504.03,-139.25 499.17,-131.75"/>
<polygon fill="midnightblue" stroke="midnightblue" points="514.34,-161.6 522.72,-168.08 520.22,-157.79 514.34,-161.6"/>
</g>
<!-- Node16 -->
<g id="node16" class="node">
<title>Node16</title>
<g id="a_node16"><a xlink:href="container__extension_8hpp.html" target="_top" xlink:title=" ">
<polygon fill="white" stroke="black" points="564,-112.5 564,-131.5 701,-131.5 701,-112.5 564,-112.5"/>
<text text-anchor="middle" x="632.5" y="-119.5" font-family="Helvetica,sans-Serif" font-size="10.00">container_extension.hpp</text>
</a>
</g>
</g>
<!-- Node10&#45;&gt;Node16 -->
<g id="edge15" class="edge">
<title>Node10&#45;&gt;Node16</title>
<path fill="none" stroke="midnightblue" d="M554.33,-163.59C573.56,-153.61 599.24,-140.27 615.83,-131.65"/>
<polygon fill="midnightblue" stroke="midnightblue" points="552.47,-160.61 545.21,-168.32 555.7,-166.82 552.47,-160.61"/>
</g>
<!-- Node17 -->
<g id="node17" class="node">
<title>Node17</title>
<g id="a_node17"><a xlink:href="file__system__extension_8hpp.html" target="_top" xlink:title=" ">
<polygon fill="white" stroke="black" points="276,-112.5 276,-131.5 423,-131.5 423,-112.5 276,-112.5"/>
<text text-anchor="middle" x="349.5" y="-119.5" font-family="Helvetica,sans-Serif" font-size="10.00">file_system_extension.hpp</text>
</a>
</g>
</g>
<!-- Node10&#45;&gt;Node17 -->
<g id="edge16" class="edge">
<title>Node10&#45;&gt;Node17</title>
<path fill="none" stroke="midnightblue" d="M490.17,-165.44C456.42,-155.26 408.05,-140.66 377.73,-131.52"/>
<polygon fill="midnightblue" stroke="midnightblue" points="489.55,-168.91 500.14,-168.44 491.57,-162.2 489.55,-168.91"/>
</g>
<!-- Node12 -->
<g id="node12" class="node">
<title>Node12</title>
<g id="a_node12"><a xlink:href="AggregateArgument_8hpp.html" target="_top" xlink:title=" ">
<polygon fill="white" stroke="black" points="495.5,-56.5 495.5,-75.5 631.5,-75.5 631.5,-56.5 495.5,-56.5"/>
<text text-anchor="middle" x="563.5" y="-63.5" font-family="Helvetica,sans-Serif" font-size="10.00">AggregateArgument.hpp</text>
</a>
</g>
</g>
<!-- Node11&#45;&gt;Node12 -->
<g id="edge11" class="edge">
<title>Node11&#45;&gt;Node12</title>
<path fill="none" stroke="midnightblue" d="M512.81,-106.1C525.41,-96.38 541.43,-84.03 552.05,-75.83"/>
<polygon fill="midnightblue" stroke="midnightblue" points="510.53,-103.44 504.75,-112.32 514.8,-108.99 510.53,-103.44"/>
</g>
<!-- Node13 -->
<g id="node13" class="node">
<title>Node13</title>
<g id="a_node13"><a xlink:href="FlagArgument_8hpp.html" target="_top" xlink:title=" ">
<polygon fill="white" stroke="black" points="650,-56.5 650,-75.5 757,-75.5 757,-56.5 650,-56.5"/>
<text text-anchor="middle" x="703.5" y="-63.5" font-family="Helvetica,sans-Serif" font-size="10.00">FlagArgument.hpp</text>
</a>
</g>
</g>
<!-- Node11&#45;&gt;Node13 -->
<g id="edge12" class="edge">
<title>Node11&#45;&gt;Node13</title>
<path fill="none" stroke="midnightblue" d="M536.69,-109.89C576.35,-99.7 634.27,-84.8 670.38,-75.52"/>
<polygon fill="midnightblue" stroke="midnightblue" points="535.59,-106.56 526.78,-112.44 537.33,-113.34 535.59,-106.56"/>
</g>
<!-- Node14 -->
<g id="node14" class="node">
<title>Node14</title>
<g id="a_node14"><a xlink:href="KeywordArgument_8hpp.html" target="_top" xlink:title=" ">
<polygon fill="white" stroke="black" points="197.5,-56.5 197.5,-75.5 325.5,-75.5 325.5,-56.5 197.5,-56.5"/>
<text text-anchor="middle" x="261.5" y="-63.5" font-family="Helvetica,sans-Serif" font-size="10.00">KeywordArgument.hpp</text>
</a>
</g>
</g>
<!-- Node11&#45;&gt;Node14 -->
<g id="edge13" class="edge">
<title>Node11&#45;&gt;Node14</title>
<path fill="none" stroke="midnightblue" d="M446.9,-110.15C403.06,-99.95 338.32,-84.88 298.09,-75.52"/>
<polygon fill="midnightblue" stroke="midnightblue" points="446.21,-113.59 456.74,-112.44 447.79,-106.77 446.21,-113.59"/>
</g>
<!-- Node15 -->
<g id="node15" class="node">
<title>Node15</title>
<g id="a_node15"><a xlink:href="PositionalArgument_8hpp.html" target="_top" xlink:title=" ">
<polygon fill="white" stroke="black" points="343.5,-56.5 343.5,-75.5 477.5,-75.5 477.5,-56.5 343.5,-56.5"/>
<text text-anchor="middle" x="410.5" y="-63.5" font-family="Helvetica,sans-Serif" font-size="10.00">PositionalArgument.hpp</text>
</a>
</g>
</g>
<!-- Node11&#45;&gt;Node15 -->
<g id="edge14" class="edge">
<title>Node11&#45;&gt;Node15</title>
<path fill="none" stroke="midnightblue" d="M471.4,-106.62C456.24,-96.76 436.62,-83.99 423.8,-75.65"/>
<polygon fill="midnightblue" stroke="midnightblue" points="469.87,-109.8 480.16,-112.32 473.69,-103.94 469.87,-109.8"/>
</g>
<!-- Node19 -->
<g id="node19" class="node">
<title>Node19</title>
<g id="a_node19"><a xlink:href="Logger_8hpp.html" target="_top" xlink:title=" ">
<polygon fill="white" stroke="black" points="126.5,-224.5 126.5,-243.5 196.5,-243.5 196.5,-224.5 126.5,-224.5"/>
<text text-anchor="middle" x="161.5" y="-231.5" font-family="Helvetica,sans-Serif" font-size="10.00">Logger.hpp</text>
</a>
</g>
</g>
<!-- Node18&#45;&gt;Node19 -->
<g id="edge18" class="edge">
<title>Node18&#45;&gt;Node19</title>
<path fill="none" stroke="midnightblue" d="M258.34,-276.5C234.72,-266.38 202.07,-252.39 181.37,-243.52"/>
<polygon fill="midnightblue" stroke="midnightblue" points="256.96,-279.72 267.53,-280.44 259.72,-273.29 256.96,-279.72"/>
</g>
<!-- Node20 -->
<g id="node20" class="node">
<title>Node20</title>
<g id="a_node20"><a xlink:href="LogBlock_8hpp.html" target="_top" xlink:title=" ">
<polygon fill="white" stroke="black" points="62.5,-168.5 62.5,-187.5 144.5,-187.5 144.5,-168.5 62.5,-168.5"/>
<text text-anchor="middle" x="103.5" y="-175.5" font-family="Helvetica,sans-Serif" font-size="10.00">LogBlock.hpp</text>
</a>
</g>
</g>
<!-- Node19&#45;&gt;Node20 -->
<g id="edge19" class="edge">
<title>Node19&#45;&gt;Node20</title>
<path fill="none" stroke="midnightblue" d="M144.59,-217.25C134.3,-207.67 121.53,-195.79 112.99,-187.83"/>
<polygon fill="midnightblue" stroke="midnightblue" points="142.48,-220.07 152.18,-224.32 147.25,-214.95 142.48,-220.07"/>
</g>
<!-- Node21 -->
<g id="node21" class="node">
<title>Node21</title>
<g id="a_node21"><a xlink:href="Loggee_8hpp.html" target="_top" xlink:title=" ">
<polygon fill="white" stroke="black" points="0,-112.5 0,-131.5 73,-131.5 73,-112.5 0,-112.5"/>
<text text-anchor="middle" x="36.5" y="-119.5" font-family="Helvetica,sans-Serif" font-size="10.00">Loggee.hpp</text>
</a>
</g>
</g>
<!-- Node19&#45;&gt;Node21 -->
<g id="edge23" class="edge">
<title>Node19&#45;&gt;Node21</title>
<path fill="none" stroke="midnightblue" d="M116.52,-224.12C94.63,-217.61 69.63,-206.54 53.5,-188 39.41,-171.81 36.79,-145.31 36.44,-131.69"/>
<polygon fill="midnightblue" stroke="midnightblue" points="115.74,-227.54 126.31,-226.81 117.59,-220.79 115.74,-227.54"/>
</g>
<!-- Node24 -->
<g id="node24" class="node">
<title>Node24</title>
<g id="a_node24"><a xlink:href="LoggerSingleton_8hpp.html" target="_top" xlink:title=" ">
<polygon fill="white" stroke="black" points="162.5,-168.5 162.5,-187.5 278.5,-187.5 278.5,-168.5 162.5,-168.5"/>
<text text-anchor="middle" x="220.5" y="-175.5" font-family="Helvetica,sans-Serif" font-size="10.00">LoggerSingleton.hpp</text>
</a>
</g>
</g>
<!-- Node19&#45;&gt;Node24 -->
<g id="edge24" class="edge">
<title>Node19&#45;&gt;Node24</title>
<path fill="none" stroke="midnightblue" d="M178.39,-217.54C188.91,-207.91 202.07,-195.87 210.85,-187.83"/>
<polygon fill="midnightblue" stroke="midnightblue" points="175.99,-214.99 170.98,-224.32 180.72,-220.15 175.99,-214.99"/>
</g>
<!-- Node20&#45;&gt;Node21 -->
<g id="edge20" class="edge">
<title>Node20&#45;&gt;Node21</title>
<path fill="none" stroke="midnightblue" d="M84.67,-161.82C72.66,-152.15 57.53,-139.95 47.46,-131.83"/>
<polygon fill="midnightblue" stroke="midnightblue" points="82.75,-164.77 92.74,-168.32 87.15,-159.32 82.75,-164.77"/>
</g>
<!-- Node22 -->
<g id="node22" class="node">
<title>Node22</title>
<g id="a_node22"><a xlink:href="testing_8hpp.html" target="_top" xlink:title=" ">
<polygon fill="white" stroke="black" points="92,-112.5 92,-131.5 163,-131.5 163,-112.5 92,-112.5"/>
<text text-anchor="middle" x="127.5" y="-119.5" font-family="Helvetica,sans-Serif" font-size="10.00">testing.hpp</text>
</a>
</g>
</g>
<!-- Node20&#45;&gt;Node22 -->
<g id="edge21" class="edge">
<title>Node20&#45;&gt;Node22</title>
<path fill="none" stroke="midnightblue" d="M111.64,-158.69C115.68,-149.59 120.38,-139.01 123.61,-131.75"/>
<polygon fill="midnightblue" stroke="midnightblue" points="108.33,-157.52 107.46,-168.08 114.72,-160.37 108.33,-157.52"/>
</g>
<!-- Node23 -->
<g id="node23" class="node">
<title>Node23</title>
<g id="a_node23"><a xlink:href="essentials_8hpp.html" target="_top" xlink:title=" ">
<polygon fill="white" stroke="black" points="84,-56.5 84,-75.5 171,-75.5 171,-56.5 84,-56.5"/>
<text text-anchor="middle" x="127.5" y="-63.5" font-family="Helvetica,sans-Serif" font-size="10.00">essentials.hpp</text>
</a>
</g>
</g>
<!-- Node22&#45;&gt;Node23 -->
<g id="edge22" class="edge">
<title>Node22&#45;&gt;Node23</title>
<path fill="none" stroke="midnightblue" d="M127.5,-101.8C127.5,-92.91 127.5,-82.78 127.5,-75.75"/>
<polygon fill="midnightblue" stroke="midnightblue" points="124,-102.08 127.5,-112.08 131,-102.08 124,-102.08"/>
</g>
<!-- Node24&#45;&gt;Node22 -->
<g id="edge25" class="edge">
<title>Node24&#45;&gt;Node22</title>
<path fill="none" stroke="midnightblue" d="M196.69,-163.18C179.58,-153.24 157.03,-140.15 142.4,-131.65"/>
<polygon fill="midnightblue" stroke="midnightblue" points="195.15,-166.33 205.56,-168.32 198.67,-160.28 195.15,-166.33"/>
</g>
<!-- Node25 -->
<g id="node25" class="node">
<title>Node25</title>
<g id="a_node25"><a xlink:href="warning_8hpp.html" target="_top" xlink:title=" ">
<polygon fill="white" stroke="black" points="181,-112.5 181,-131.5 258,-131.5 258,-112.5 181,-112.5"/>
<text text-anchor="middle" x="219.5" y="-119.5" font-family="Helvetica,sans-Serif" font-size="10.00">warning.hpp</text>
</a>
</g>
</g>
<!-- Node24&#45;&gt;Node25 -->
<g id="edge26" class="edge">
<title>Node24&#45;&gt;Node25</title>
<path fill="none" stroke="midnightblue" d="M220.14,-157.8C219.98,-148.91 219.79,-138.78 219.66,-131.75"/>
<polygon fill="midnightblue" stroke="midnightblue" points="216.65,-158.15 220.33,-168.08 223.65,-158.02 216.65,-158.15"/>
</g>
<!-- Node29&#45;&gt;Node30 -->
<g id="edge31" class="edge">
<title>Node29&#45;&gt;Node30</title>
<path fill="none" stroke="midnightblue" d="M1065.2,-327.86C1072.13,-318.5 1080.41,-307.33 1086.02,-299.75"/>
<polygon fill="midnightblue" stroke="midnightblue" points="1062.25,-325.96 1059.11,-336.08 1067.87,-330.13 1062.25,-325.96"/>
</g>
<!-- Node31 -->
<g id="node31" class="node">
<title>Node31</title>
<g id="a_node31"><a xlink:href="DynamicArray_8hpp.html" target="_top" xlink:title=" ">
<polygon fill="white" stroke="black" points="1018.5,-224.5 1018.5,-243.5 1124.5,-243.5 1124.5,-224.5 1018.5,-224.5"/>
<text text-anchor="middle" x="1071.5" y="-231.5" font-family="Helvetica,sans-Serif" font-size="10.00">DynamicArray.hpp</text>
</a>
</g>
</g>
<!-- Node30&#45;&gt;Node31 -->
<g id="edge32" class="edge">
<title>Node30&#45;&gt;Node31</title>
<path fill="none" stroke="midnightblue" d="M1085.38,-270.69C1081.84,-261.59 1077.73,-251.01 1074.9,-243.75"/>
<polygon fill="midnightblue" stroke="midnightblue" points="1082.15,-272.03 1089.03,-280.08 1088.67,-269.49 1082.15,-272.03"/>
</g>
<!-- Node42 -->
<g id="node42" class="node">
<title>Node42</title>
<g id="a_node42"><a xlink:href="StaticArray_8hpp.html" target="_top" xlink:title=" ">
<polygon fill="white" stroke="black" points="1282.5,-224.5 1282.5,-243.5 1372.5,-243.5 1372.5,-224.5 1282.5,-224.5"/>
<text text-anchor="middle" x="1327.5" y="-231.5" font-family="Helvetica,sans-Serif" font-size="10.00">StaticArray.hpp</text>
</a>
</g>
</g>
<!-- Node30&#45;&gt;Node42 -->
<g id="edge47" class="edge">
<title>Node30&#45;&gt;Node42</title>
<path fill="none" stroke="midnightblue" d="M1139.71,-278.15C1184.11,-267.95 1249.69,-252.88 1290.44,-243.52"/>
<polygon fill="midnightblue" stroke="midnightblue" points="1138.7,-274.79 1129.74,-280.44 1140.27,-281.62 1138.7,-274.79"/>
</g>
<!-- Node31&#45;&gt;Node10 -->
<g id="edge33" class="edge">
<title>Node31&#45;&gt;Node10</title>
<path fill="none" stroke="midnightblue" d="M1008.32,-223.91C838.9,-203.93 649.91,-188.41 568.8,-182.07"/>
<polygon fill="midnightblue" stroke="midnightblue" points="1008.08,-227.41 1018.42,-225.11 1008.91,-220.46 1008.08,-227.41"/>
</g>
<!-- Node32 -->
<g id="node32" class="node">
<title>Node32</title>
<g id="a_node32"><a xlink:href="ParallelFor_8hpp.html" target="_top" xlink:title=" ">
<polygon fill="white" stroke="black" points="948.5,-56.5 948.5,-75.5 1036.5,-75.5 1036.5,-56.5 948.5,-56.5"/>
<text text-anchor="middle" x="992.5" y="-63.5" font-family="Helvetica,sans-Serif" font-size="10.00">ParallelFor.hpp</text>
</a>
</g>
</g>
<!-- Node31&#45;&gt;Node32 -->
<g id="edge34" class="edge">
<title>Node31&#45;&gt;Node32</title>
<path fill="none" stroke="midnightblue" d="M1060.3,-215.57C1055.21,-207.35 1049.27,-197.33 1044.5,-188 1023.56,-147.09 1003.44,-95.83 995.77,-75.69"/>
<polygon fill="midnightblue" stroke="midnightblue" points="1057.46,-217.64 1065.76,-224.24 1063.39,-213.91 1057.46,-217.64"/>
</g>
<!-- Node33 -->
<g id="node33" class="node">
<title>Node33</title>
<g id="a_node33"><a xlink:href="ThreadLocal_8hpp.html" target="_top" xlink:title=" ">
<polygon fill="white" stroke="black" points="758,-168.5 758,-187.5 855,-187.5 855,-168.5 758,-168.5"/>
<text text-anchor="middle" x="806.5" y="-175.5" font-family="Helvetica,sans-Serif" font-size="10.00">ThreadLocal.hpp</text>
</a>
</g>
</g>
<!-- Node31&#45;&gt;Node33 -->
<g id="edge35" class="edge">
<title>Node31&#45;&gt;Node33</title>
<path fill="none" stroke="midnightblue" d="M1019.53,-222.41C969.45,-212.2 894.64,-196.96 848.29,-187.52"/>
<polygon fill="midnightblue" stroke="midnightblue" points="1019.01,-225.88 1029.51,-224.44 1020.41,-219.02 1019.01,-225.88"/>
</g>
<!-- Node34 -->
<g id="node34" class="node">
<title>Node34</title>
<g id="a_node34"><a xlink:href="ThreadPoolStorage_8hpp.html" target="_top" xlink:title=" ">
<polygon fill="white" stroke="black" points="1053.5,-168.5 1053.5,-187.5 1183.5,-187.5 1183.5,-168.5 1053.5,-168.5"/>
<text text-anchor="middle" x="1118.5" y="-175.5" font-family="Helvetica,sans-Serif" font-size="10.00">ThreadPoolStorage.hpp</text>
</a>
</g>
</g>
<!-- Node31&#45;&gt;Node34 -->
<g id="edge36" class="edge">
<title>Node31&#45;&gt;Node34</title>
<path fill="none" stroke="midnightblue" d="M1085.92,-216.43C1094.16,-206.97 1104.15,-195.48 1110.88,-187.75"/>
<polygon fill="midnightblue" stroke="midnightblue" points="1083.19,-214.24 1079.26,-224.08 1088.47,-218.84 1083.19,-214.24"/>
</g>
<!-- Node38 -->
<g id="node38" class="node">
<title>Node38</title>
<g id="a_node38"><a xlink:href="abstree_8hpp.html" target="_top" xlink:title=" ">
<polygon fill="white" stroke="black" points="1187.5,-56.5 1187.5,-75.5 1261.5,-75.5 1261.5,-56.5 1187.5,-56.5"/>
<text text-anchor="middle" x="1224.5" y="-63.5" font-family="Helvetica,sans-Serif" font-size="10.00">abstree.hpp</text>
</a>
</g>
</g>
<!-- Node31&#45;&gt;Node38 -->
<g id="edge44" class="edge">
<title>Node31&#45;&gt;Node38</title>
<path fill="none" stroke="midnightblue" d="M1134.12,-221.93C1155.24,-215.31 1177.29,-204.77 1192.5,-188 1222.43,-155 1224.94,-97.26 1224.76,-75.56"/>
<polygon fill="midnightblue" stroke="midnightblue" points="1133.14,-218.57 1124.51,-224.71 1135.08,-225.3 1133.14,-218.57"/>
</g>
<!-- Node39 -->
<g id="node39" class="node">
<title>Node39</title>
<g id="a_node39"><a xlink:href="ContiguousTree_8hpp.html" target="_top" xlink:title=" ">
<polygon fill="white" stroke="black" points="803,-56.5 803,-75.5 916,-75.5 916,-56.5 803,-56.5"/>
<text text-anchor="middle" x="859.5" y="-63.5" font-family="Helvetica,sans-Serif" font-size="10.00">ContiguousTree.hpp</text>
</a>
</g>
</g>
<!-- Node31&#45;&gt;Node39 -->
<g id="edge45" class="edge">
<title>Node31&#45;&gt;Node39</title>
<path fill="none" stroke="midnightblue" d="M1008.38,-224.1C936.38,-217.19 785.17,-230.07 748.5,-188 710.95,-144.91 800.31,-95.09 840.82,-75.52"/>
<polygon fill="midnightblue" stroke="midnightblue" points="1008.07,-227.58 1018.4,-225.27 1008.88,-220.63 1008.07,-227.58"/>
</g>
<!-- Node40 -->
<g id="node40" class="node">
<title>Node40</title>
<g id="a_node40"><a xlink:href="UnstructuredView_8hpp.html" target="_top" xlink:title=" ">
<polygon fill="white" stroke="black" points="873.5,-168.5 873.5,-187.5 997.5,-187.5 997.5,-168.5 873.5,-168.5"/>
<text text-anchor="middle" x="935.5" y="-175.5" font-family="Helvetica,sans-Serif" font-size="10.00">UnstructuredView.hpp</text>
</a>
</g>
</g>
<!-- Node31&#45;&gt;Node40 -->
<g id="edge43" class="edge">
<title>Node31&#45;&gt;Node40</title>
<path fill="none" stroke="midnightblue" d="M1040.37,-220.64C1014.84,-210.5 979.39,-196.43 956.95,-187.52"/>
<polygon fill="midnightblue" stroke="midnightblue" points="1039.36,-224.01 1049.95,-224.44 1041.95,-217.5 1039.36,-224.01"/>
</g>
<!-- Node41 -->
<g id="node41" class="node">
<title>Node41</title>
<g id="a_node41"><a xlink:href="stl__extension_8hpp.html" target="_top" xlink:title=" ">
<polygon fill="white" stroke="black" points="1240,-168.5 1240,-187.5 1343,-187.5 1343,-168.5 1240,-168.5"/>
<text text-anchor="middle" x="1291.5" y="-175.5" font-family="Helvetica,sans-Serif" font-size="10.00">stl_extension.hpp</text>
</a>
</g>
</g>
<!-- Node31&#45;&gt;Node41 -->
<g id="edge46" class="edge">
<title>Node31&#45;&gt;Node41</title>
<path fill="none" stroke="midnightblue" d="M1116.22,-222.02C1157.78,-211.82 1218.81,-196.84 1256.8,-187.52"/>
<polygon fill="midnightblue" stroke="midnightblue" points="1115.24,-218.66 1106.36,-224.44 1116.91,-225.46 1115.24,-218.66"/>
</g>
<!-- Node35 -->
<g id="node35" class="node">
<title>Node35</title>
<g id="a_node35"><a xlink:href="ThreadPool_8hpp.html" target="_top" xlink:title=" ">
<polygon fill="white" stroke="black" points="1065.5,-112.5 1065.5,-131.5 1157.5,-131.5 1157.5,-112.5 1065.5,-112.5"/>
<text text-anchor="middle" x="1111.5" y="-119.5" font-family="Helvetica,sans-Serif" font-size="10.00">ThreadPool.hpp</text>
</a>
</g>
</g>
<!-- Node34&#45;&gt;Node35 -->
<g id="edge37" class="edge">
<title>Node34&#45;&gt;Node35</title>
<path fill="none" stroke="midnightblue" d="M1116.05,-158.1C1114.89,-149.14 1113.56,-138.86 1112.63,-131.75"/>
<polygon fill="midnightblue" stroke="midnightblue" points="1112.59,-158.62 1117.34,-168.08 1119.53,-157.72 1112.59,-158.62"/>
</g>
<!-- Node35&#45;&gt;Node32 -->
<g id="edge38" class="edge">
<title>Node35&#45;&gt;Node32</title>
<path fill="none" stroke="midnightblue" d="M1083.36,-108.23C1061.1,-98.13 1030.64,-84.31 1011.27,-75.52"/>
<polygon fill="midnightblue" stroke="midnightblue" points="1082.09,-111.5 1092.64,-112.44 1084.98,-105.12 1082.09,-111.5"/>
</g>
<!-- Node36 -->
<g id="node36" class="node">
<title>Node36</title>
<g id="a_node36"><a xlink:href="ResourceLoader_8hpp.html" target="_top" xlink:title=" ">
<polygon fill="white" stroke="black" points="1054,-56.5 1054,-75.5 1169,-75.5 1169,-56.5 1054,-56.5"/>
<text text-anchor="middle" x="1111.5" y="-63.5" font-family="Helvetica,sans-Serif" font-size="10.00">ResourceLoader.hpp</text>
</a>
</g>
</g>
<!-- Node35&#45;&gt;Node36 -->
<g id="edge39" class="edge">
<title>Node35&#45;&gt;Node36</title>
<path fill="none" stroke="midnightblue" d="M1111.5,-101.8C1111.5,-92.91 1111.5,-82.78 1111.5,-75.75"/>
<polygon fill="midnightblue" stroke="midnightblue" points="1108,-102.08 1111.5,-112.08 1115,-102.08 1108,-102.08"/>
</g>
<!-- Node35&#45;&gt;Node38 -->
<g id="edge41" class="edge">
<title>Node35&#45;&gt;Node38</title>
<path fill="none" stroke="midnightblue" d="M1138.5,-108.1C1159.61,-98.01 1188.36,-84.27 1206.68,-75.52"/>
<polygon fill="midnightblue" stroke="midnightblue" points="1136.92,-104.97 1129.41,-112.44 1139.94,-111.29 1136.92,-104.97"/>
</g>
<!-- Node35&#45;&gt;Node39 -->
<g id="edge42" class="edge">
<title>Node35&#45;&gt;Node39</title>
<path fill="none" stroke="midnightblue" d="M1061.78,-110.35C1014.16,-100.14 943.22,-84.94 899.24,-75.52"/>
<polygon fill="midnightblue" stroke="midnightblue" points="1061.06,-113.77 1071.57,-112.44 1062.53,-106.93 1061.06,-113.77"/>
</g>
<!-- Node37 -->
<g id="node37" class="node">
<title>Node37</title>
<g id="a_node37"><a xlink:href="ResourceQueue_8hpp.html" target="_top" xlink:title=" ">
<polygon fill="white" stroke="black" points="1054.5,-0.5 1054.5,-19.5 1168.5,-19.5 1168.5,-0.5 1054.5,-0.5"/>
<text text-anchor="middle" x="1111.5" y="-7.5" font-family="Helvetica,sans-Serif" font-size="10.00">ResourceQueue.hpp</text>
</a>
</g>
</g>
<!-- Node36&#45;&gt;Node37 -->
<g id="edge40" class="edge">
<title>Node36&#45;&gt;Node37</title>
<path fill="none" stroke="midnightblue" d="M1111.5,-45.8C1111.5,-36.91 1111.5,-26.78 1111.5,-19.75"/>
<polygon fill="midnightblue" stroke="midnightblue" points="1108,-46.08 1111.5,-56.08 1115,-46.08 1108,-46.08"/>
</g>
<!-- Node42&#45;&gt;Node4 -->
<g id="edge48" class="edge">
<title>Node42&#45;&gt;Node4</title>
<path fill="none" stroke="midnightblue" d="M1359.66,-220.77C1386.33,-210.63 1423.57,-196.47 1447.1,-187.52"/>
<polygon fill="midnightblue" stroke="midnightblue" points="1358.1,-217.62 1350,-224.44 1360.59,-224.16 1358.1,-217.62"/>
</g>
<!-- Node42&#45;&gt;Node41 -->
<g id="edge50" class="edge">
<title>Node42&#45;&gt;Node41</title>
<path fill="none" stroke="midnightblue" d="M1315.88,-215.57C1309.68,-206.27 1302.33,-195.25 1297.33,-187.75"/>
<polygon fill="midnightblue" stroke="midnightblue" points="1313.1,-217.7 1321.56,-224.08 1318.92,-213.82 1313.1,-217.7"/>
</g>
<!-- Node43 -->
<g id="node43" class="node">
<title>Node43</title>
<g id="a_node43"><a xlink:href="base_8hpp.html" target="_top" xlink:title=" ">
<polygon fill="white" stroke="black" points="1361,-168.5 1361,-187.5 1422,-187.5 1422,-168.5 1361,-168.5"/>
<text text-anchor="middle" x="1391.5" y="-175.5" font-family="Helvetica,sans-Serif" font-size="10.00">base.hpp</text>
</a>
</g>
</g>
<!-- Node42&#45;&gt;Node43 -->
<g id="edge49" class="edge">
<title>Node42&#45;&gt;Node43</title>
<path fill="none" stroke="midnightblue" d="M1345.49,-217.82C1356.96,-208.15 1371.41,-195.95 1381.03,-187.83"/>
<polygon fill="midnightblue" stroke="midnightblue" points="1343.17,-215.2 1337.78,-224.32 1347.68,-220.55 1343.17,-215.2"/>
</g>
<!-- Node46&#45;&gt;Node41 -->
<g id="edge55" class="edge">
<title>Node46&#45;&gt;Node41</title>
<path fill="none" stroke="midnightblue" d="M1191.26,-383.16C1213.37,-338.12 1270.85,-221.06 1287.14,-187.88"/>
<polygon fill="midnightblue" stroke="midnightblue" points="1188.04,-381.78 1186.77,-392.3 1194.32,-384.86 1188.04,-381.78"/>
</g>
</g>
</svg>
