<?xml version="1.0" encoding="UTF-8" standalone="no"?>
<!DOCTYPE svg PUBLIC "-//W3C//DTD SVG 1.1//EN"
 "http://www.w3.org/Graphics/SVG/1.1/DTD/svg11.dtd">
<!-- Generated by graphviz version 2.43.0 (0)
 -->
<!-- Title: exception.hpp Pages: 1 -->
<svg width="1477pt" height="532pt"
 viewBox="0.00 0.00 1477.00 532.00" xmlns="http://www.w3.org/2000/svg" xmlns:xlink="http://www.w3.org/1999/xlink">
<g id="graph0" class="graph" transform="scale(1 1) rotate(0) translate(4 528)">
<title>exception.hpp</title>
<polygon fill="white" stroke="transparent" points="-4,4 -4,-528 1473,-528 1473,4 -4,4"/>
<!-- Node1 -->
<g id="node1" class="node">
<title>Node1</title>
<g id="a_node1"><a xlink:title=" ">
<polygon fill="#bfbfbf" stroke="black" points="1129.5,-504.5 1129.5,-523.5 1215.5,-523.5 1215.5,-504.5 1129.5,-504.5"/>
<text text-anchor="middle" x="1172.5" y="-511.5" font-family="Helvetica,sans-Serif" font-size="10.00">exception.hpp</text>
</a>
</g>
</g>
<!-- Node2 -->
<g id="node2" class="node">
<title>Node2</title>
<g id="a_node2"><a xlink:href="assertions_8hpp.html" target="_top" xlink:title=" ">
<polygon fill="white" stroke="black" points="1019.5,-448.5 1019.5,-467.5 1107.5,-467.5 1107.5,-448.5 1019.5,-448.5"/>
<text text-anchor="middle" x="1063.5" y="-455.5" font-family="Helvetica,sans-Serif" font-size="10.00">assertions.hpp</text>
</a>
</g>
</g>
<!-- Node1&#45;&gt;Node2 -->
<g id="edge1" class="edge">
<title>Node1&#45;&gt;Node2</title>
<path fill="none" stroke="midnightblue" d="M1145.98,-499.86C1125.77,-489.85 1098.51,-476.35 1080.97,-467.65"/>
<polygon fill="midnightblue" stroke="midnightblue" points="1144.47,-503.02 1154.99,-504.32 1147.58,-496.75 1144.47,-503.02"/>
</g>
<!-- Node3 -->
<g id="node3" class="node">
<title>Node3</title>
<g id="a_node3"><a xlink:href="checks_8hpp.html" target="_top" xlink:title=" ">
<polygon fill="white" stroke="black" points="992,-392.5 992,-411.5 1063,-411.5 1063,-392.5 992,-392.5"/>
<text text-anchor="middle" x="1027.5" y="-399.5" font-family="Helvetica,sans-Serif" font-size="10.00">checks.hpp</text>
</a>
</g>
</g>
<!-- Node1&#45;&gt;Node3 -->
<g id="edge2" class="edge">
<title>Node1&#45;&gt;Node3</title>
<path fill="none" stroke="midnightblue" d="M1160.89,-496.14C1150.5,-481.97 1134.21,-461.85 1116.5,-448 1096.04,-432 1069,-419.3 1050.12,-411.53"/>
<polygon fill="midnightblue" stroke="midnightblue" points="1158.17,-498.36 1166.83,-504.47 1163.88,-494.3 1158.17,-498.36"/>
</g>
<!-- Node45 -->
<g id="node45" class="node">
<title>Node45</title>
<g id="a_node45"><a xlink:href="exceptions_8hpp.html" target="_top" xlink:title=" ">
<polygon fill="white" stroke="black" points="1164,-448.5 1164,-467.5 1255,-467.5 1255,-448.5 1164,-448.5"/>
<text text-anchor="middle" x="1209.5" y="-455.5" font-family="Helvetica,sans-Serif" font-size="10.00">exceptions.hpp</text>
</a>
</g>
</g>
<!-- Node1&#45;&gt;Node45 -->
<g id="edge52" class="edge">
<title>Node1&#45;&gt;Node45</title>
<path fill="none" stroke="midnightblue" d="M1184.45,-495.57C1190.81,-486.27 1198.37,-475.25 1203.5,-467.75"/>
<polygon fill="midnightblue" stroke="midnightblue" points="1181.37,-493.86 1178.61,-504.08 1187.15,-497.81 1181.37,-493.86"/>
</g>
<!-- Node48 -->
<g id="node48" class="node">
<title>Node48</title>
<g id="a_node48"><a xlink:href="common_8hpp.html" target="_top" xlink:title=" ">
<polygon fill="white" stroke="black" points="1377.5,-392.5 1377.5,-411.5 1457.5,-411.5 1457.5,-392.5 1377.5,-392.5"/>
<text text-anchor="middle" x="1417.5" y="-399.5" font-family="Helvetica,sans-Serif" font-size="10.00">common.hpp</text>
</a>
</g>
</g>
<!-- Node1&#45;&gt;Node48 -->
<g id="edge59" class="edge">
<title>Node1&#45;&gt;Node48</title>
<path fill="none" stroke="midnightblue" d="M1201.09,-500.16C1251.64,-477.47 1355.51,-430.83 1398.36,-411.59"/>
<polygon fill="midnightblue" stroke="midnightblue" points="1199.41,-497.08 1191.72,-504.37 1202.28,-503.47 1199.41,-497.08"/>
</g>
<!-- Node4 -->
<g id="node4" class="node">
<title>Node4</title>
<g id="a_node4"><a xlink:href="json_8hpp.html" target="_top" xlink:title=" ">
<polygon fill="white" stroke="black" points="1210.5,-168.5 1210.5,-187.5 1268.5,-187.5 1268.5,-168.5 1210.5,-168.5"/>
<text text-anchor="middle" x="1239.5" y="-175.5" font-family="Helvetica,sans-Serif" font-size="10.00">json.hpp</text>
</a>
</g>
</g>
<!-- Node3&#45;&gt;Node4 -->
<g id="edge3" class="edge">
<title>Node3&#45;&gt;Node4</title>
<path fill="none" stroke="midnightblue" d="M1069.26,-389.64C1100.48,-380.48 1139.86,-367.31 1152.5,-356 1180.32,-331.12 1223.85,-220.26 1236.16,-187.9"/>
<polygon fill="midnightblue" stroke="midnightblue" points="1068.1,-386.33 1059.46,-392.46 1070.04,-393.05 1068.1,-386.33"/>
</g>
<!-- Node5 -->
<g id="node5" class="node">
<title>Node5</title>
<g id="a_node5"><a xlink:href="Serializer_8hpp.html" target="_top" xlink:title=" ">
<polygon fill="white" stroke="black" points="784,-336.5 784,-355.5 867,-355.5 867,-336.5 784,-336.5"/>
<text text-anchor="middle" x="825.5" y="-343.5" font-family="Helvetica,sans-Serif" font-size="10.00">Serializer.hpp</text>
</a>
</g>
</g>
<!-- Node3&#45;&gt;Node5 -->
<g id="edge4" class="edge">
<title>Node3&#45;&gt;Node5</title>
<path fill="none" stroke="midnightblue" d="M985.71,-389.83C947.57,-379.63 892.02,-364.78 857.36,-355.52"/>
<polygon fill="midnightblue" stroke="midnightblue" points="984.93,-393.24 995.49,-392.44 986.74,-386.48 984.93,-393.24"/>
</g>
<!-- Node9 -->
<g id="node9" class="node">
<title>Node9</title>
<g id="a_node9"><a xlink:href="OutputStream_8hpp.html" target="_top" xlink:title=" ">
<polygon fill="white" stroke="black" points="477.5,-336.5 477.5,-355.5 583.5,-355.5 583.5,-336.5 477.5,-336.5"/>
<text text-anchor="middle" x="530.5" y="-343.5" font-family="Helvetica,sans-Serif" font-size="10.00">OutputStream.hpp</text>
</a>
</g>
</g>
<!-- Node3&#45;&gt;Node9 -->
<g id="edge8" class="edge">
<title>Node3&#45;&gt;Node9</title>
<path fill="none" stroke="midnightblue" d="M981.62,-396.01C889.35,-385.99 681.82,-363.44 583.76,-352.79"/>
<polygon fill="midnightblue" stroke="midnightblue" points="981.44,-399.52 991.76,-397.12 982.19,-392.56 981.44,-399.52"/>
</g>
<!-- Node28 -->
<g id="node28" class="node">
<title>Node28</title>
<g id="a_node28"><a xlink:href="getReference_8hpp.html" target="_top" xlink:title=" ">
<polygon fill="white" stroke="black" points="970,-336.5 970,-355.5 1073,-355.5 1073,-336.5 970,-336.5"/>
<text text-anchor="middle" x="1021.5" y="-343.5" font-family="Helvetica,sans-Serif" font-size="10.00">getReference.hpp</text>
</a>
</g>
</g>
<!-- Node3&#45;&gt;Node28 -->
<g id="edge29" class="edge">
<title>Node3&#45;&gt;Node28</title>
<path fill="none" stroke="midnightblue" d="M1025.4,-382.1C1024.4,-373.14 1023.26,-362.86 1022.47,-355.75"/>
<polygon fill="midnightblue" stroke="midnightblue" points="1021.93,-382.53 1026.51,-392.08 1028.88,-381.76 1021.93,-382.53"/>
</g>
<!-- Node29 -->
<g id="node29" class="node">
<title>Node29</title>
<g id="a_node29"><a xlink:href="resize_8hpp.html" target="_top" xlink:title=" ">
<polygon fill="white" stroke="black" points="885,-336.5 885,-355.5 952,-355.5 952,-336.5 885,-336.5"/>
<text text-anchor="middle" x="918.5" y="-343.5" font-family="Helvetica,sans-Serif" font-size="10.00">resize.hpp</text>
</a>
</g>
</g>
<!-- Node3&#45;&gt;Node29 -->
<g id="edge30" class="edge">
<title>Node3&#45;&gt;Node29</title>
<path fill="none" stroke="midnightblue" d="M1000.98,-387.86C980.77,-377.85 953.51,-364.35 935.97,-355.65"/>
<polygon fill="midnightblue" stroke="midnightblue" points="999.47,-391.02 1009.99,-392.32 1002.58,-384.75 999.47,-391.02"/>
</g>
<!-- Node44 -->
<g id="node44" class="node">
<title>Node44</title>
<g id="a_node44"><a xlink:href="zip_8hpp.html" target="_top" xlink:title=" ">
<polygon fill="white" stroke="black" points="1091.5,-336.5 1091.5,-355.5 1143.5,-355.5 1143.5,-336.5 1091.5,-336.5"/>
<text text-anchor="middle" x="1117.5" y="-343.5" font-family="Helvetica,sans-Serif" font-size="10.00">zip.hpp</text>
</a>
</g>
</g>
<!-- Node3&#45;&gt;Node44 -->
<g id="edge51" class="edge">
<title>Node3&#45;&gt;Node44</title>
<path fill="none" stroke="midnightblue" d="M1050.54,-387.18C1067.1,-377.24 1088.92,-364.15 1103.08,-355.65"/>
<polygon fill="midnightblue" stroke="midnightblue" points="1048.73,-384.18 1041.96,-392.32 1052.34,-390.18 1048.73,-384.18"/>
</g>
<!-- Node6 -->
<g id="node6" class="node">
<title>Node6</title>
<g id="a_node6"><a xlink:href="MPI_8hpp.html" target="_top" xlink:title=" ">
<polygon fill="white" stroke="black" points="797.5,-280.5 797.5,-299.5 853.5,-299.5 853.5,-280.5 797.5,-280.5"/>
<text text-anchor="middle" x="825.5" y="-287.5" font-family="Helvetica,sans-Serif" font-size="10.00">MPI.hpp</text>
</a>
</g>
</g>
<!-- Node5&#45;&gt;Node6 -->
<g id="edge5" class="edge">
<title>Node5&#45;&gt;Node6</title>
<path fill="none" stroke="midnightblue" d="M825.5,-325.8C825.5,-316.91 825.5,-306.78 825.5,-299.75"/>
<polygon fill="midnightblue" stroke="midnightblue" points="822,-326.08 825.5,-336.08 829,-326.08 822,-326.08"/>
</g>
<!-- Node7 -->
<g id="node7" class="node">
<title>Node7</title>
<g id="a_node7"><a xlink:href="CommOperation_8hpp.html" target="_top" xlink:title=" ">
<polygon fill="white" stroke="black" points="810.5,-224.5 810.5,-243.5 928.5,-243.5 928.5,-224.5 810.5,-224.5"/>
<text text-anchor="middle" x="869.5" y="-231.5" font-family="Helvetica,sans-Serif" font-size="10.00">CommOperation.hpp</text>
</a>
</g>
</g>
<!-- Node6&#45;&gt;Node7 -->
<g id="edge6" class="edge">
<title>Node6&#45;&gt;Node7</title>
<path fill="none" stroke="midnightblue" d="M839.23,-272.14C846.9,-262.74 856.13,-251.4 862.37,-243.75"/>
<polygon fill="midnightblue" stroke="midnightblue" points="836.37,-270.12 832.77,-280.08 841.8,-274.54 836.37,-270.12"/>
</g>
<!-- Node8 -->
<g id="node8" class="node">
<title>Node8</title>
<g id="a_node8"><a xlink:href="MPISingleton_8hpp.html" target="_top" xlink:title=" ">
<polygon fill="white" stroke="black" points="691,-224.5 691,-243.5 792,-243.5 792,-224.5 691,-224.5"/>
<text text-anchor="middle" x="741.5" y="-231.5" font-family="Helvetica,sans-Serif" font-size="10.00">MPISingleton.hpp</text>
</a>
</g>
</g>
<!-- Node6&#45;&gt;Node8 -->
<g id="edge7" class="edge">
<title>Node6&#45;&gt;Node8</title>
<path fill="none" stroke="midnightblue" d="M803.57,-274.9C788.16,-265 768.05,-252.07 754.96,-243.65"/>
<polygon fill="midnightblue" stroke="midnightblue" points="801.7,-277.86 812,-280.32 805.48,-271.97 801.7,-277.86"/>
</g>
<!-- Node10 -->
<g id="node10" class="node">
<title>Node10</title>
<g id="a_node10"><a xlink:href="ArgParse_8hpp.html" target="_top" xlink:title=" ">
<polygon fill="white" stroke="black" points="549.5,-168.5 549.5,-187.5 629.5,-187.5 629.5,-168.5 549.5,-168.5"/>
<text text-anchor="middle" x="589.5" y="-175.5" font-family="Helvetica,sans-Serif" font-size="10.00">ArgParse.hpp</text>
</a>
</g>
</g>
<!-- Node9&#45;&gt;Node10 -->
<g id="edge9" class="edge">
<title>Node9&#45;&gt;Node10</title>
<path fill="none" stroke="midnightblue" d="M548.76,-329.08C556.7,-321.14 565.34,-310.92 570.5,-300 588.84,-261.16 590.07,-208.28 589.77,-187.7"/>
<polygon fill="midnightblue" stroke="midnightblue" points="546.09,-326.79 541.22,-336.19 550.89,-331.88 546.09,-326.79"/>
</g>
<!-- Node18 -->
<g id="node18" class="node">
<title>Node18</title>
<g id="a_node18"><a xlink:href="FileOutputStream_8hpp.html" target="_top" xlink:title=" ">
<polygon fill="white" stroke="black" points="171,-280.5 171,-299.5 294,-299.5 294,-280.5 171,-280.5"/>
<text text-anchor="middle" x="232.5" y="-287.5" font-family="Helvetica,sans-Serif" font-size="10.00">FileOutputStream.hpp</text>
</a>
</g>
</g>
<!-- Node9&#45;&gt;Node18 -->
<g id="edge17" class="edge">
<title>Node9&#45;&gt;Node18</title>
<path fill="none" stroke="midnightblue" d="M473.11,-334.6C416.79,-324.4 331.94,-309.02 279.5,-299.52"/>
<polygon fill="midnightblue" stroke="midnightblue" points="472.82,-338.1 483.28,-336.44 474.07,-331.22 472.82,-338.1"/>
</g>
<!-- Node26 -->
<g id="node26" class="node">
<title>Node26</title>
<g id="a_node26"><a xlink:href="StreamInterceptor_8hpp.html" target="_top" xlink:title=" ">
<polygon fill="white" stroke="black" points="356,-280.5 356,-299.5 481,-299.5 481,-280.5 356,-280.5"/>
<text text-anchor="middle" x="418.5" y="-287.5" font-family="Helvetica,sans-Serif" font-size="10.00">StreamInterceptor.hpp</text>
</a>
</g>
</g>
<!-- Node9&#45;&gt;Node26 -->
<g id="edge27" class="edge">
<title>Node9&#45;&gt;Node26</title>
<path fill="none" stroke="midnightblue" d="M503.25,-331.86C482.48,-321.85 454.48,-308.35 436.45,-299.65"/>
<polygon fill="midnightblue" stroke="midnightblue" points="501.98,-335.13 512.51,-336.32 505.02,-328.83 501.98,-335.13"/>
</g>
<!-- Node27 -->
<g id="node27" class="node">
<title>Node27</title>
<g id="a_node27"><a xlink:href="Color_8hpp.html" target="_top" xlink:title=" ">
<polygon fill="white" stroke="black" points="499.5,-280.5 499.5,-299.5 561.5,-299.5 561.5,-280.5 499.5,-280.5"/>
<text text-anchor="middle" x="530.5" y="-287.5" font-family="Helvetica,sans-Serif" font-size="10.00">Color.hpp</text>
</a>
</g>
</g>
<!-- Node9&#45;&gt;Node27 -->
<g id="edge28" class="edge">
<title>Node9&#45;&gt;Node27</title>
<path fill="none" stroke="midnightblue" d="M530.5,-325.8C530.5,-316.91 530.5,-306.78 530.5,-299.75"/>
<polygon fill="midnightblue" stroke="midnightblue" points="527,-326.08 530.5,-336.08 534,-326.08 527,-326.08"/>
</g>
<!-- Node11 -->
<g id="node11" class="node">
<title>Node11</title>
<g id="a_node11"><a xlink:href="AbsArgument_8hpp.html" target="_top" xlink:title=" ">
<polygon fill="white" stroke="black" points="597.5,-112.5 597.5,-131.5 701.5,-131.5 701.5,-112.5 597.5,-112.5"/>
<text text-anchor="middle" x="649.5" y="-119.5" font-family="Helvetica,sans-Serif" font-size="10.00">AbsArgument.hpp</text>
</a>
</g>
</g>
<!-- Node10&#45;&gt;Node11 -->
<g id="edge10" class="edge">
<title>Node10&#45;&gt;Node11</title>
<path fill="none" stroke="midnightblue" d="M606.68,-161.54C617.38,-151.91 630.76,-139.87 639.68,-131.83"/>
<polygon fill="midnightblue" stroke="midnightblue" points="604.23,-159.03 599.14,-168.32 608.91,-164.24 604.23,-159.03"/>
</g>
<!-- Node16 -->
<g id="node16" class="node">
<title>Node16</title>
<g id="a_node16"><a xlink:href="container__extension_8hpp.html" target="_top" xlink:title=" ">
<polygon fill="white" stroke="black" points="277,-112.5 277,-131.5 414,-131.5 414,-112.5 277,-112.5"/>
<text text-anchor="middle" x="345.5" y="-119.5" font-family="Helvetica,sans-Serif" font-size="10.00">container_extension.hpp</text>
</a>
</g>
</g>
<!-- Node10&#45;&gt;Node16 -->
<g id="edge15" class="edge">
<title>Node10&#45;&gt;Node16</title>
<path fill="none" stroke="midnightblue" d="M541.07,-166.28C494.96,-156.08 426.47,-140.92 383.98,-131.52"/>
<polygon fill="midnightblue" stroke="midnightblue" points="540.32,-169.7 550.84,-168.44 541.83,-162.87 540.32,-169.7"/>
</g>
<!-- Node17 -->
<g id="node17" class="node">
<title>Node17</title>
<g id="a_node17"><a xlink:href="file__system__extension_8hpp.html" target="_top" xlink:title=" ">
<polygon fill="white" stroke="black" points="432,-112.5 432,-131.5 579,-131.5 579,-112.5 432,-112.5"/>
<text text-anchor="middle" x="505.5" y="-119.5" font-family="Helvetica,sans-Serif" font-size="10.00">file_system_extension.hpp</text>
</a>
</g>
</g>
<!-- Node10&#45;&gt;Node17 -->
<g id="edge16" class="edge">
<title>Node10&#45;&gt;Node17</title>
<path fill="none" stroke="midnightblue" d="M567.57,-162.9C552.16,-153 532.05,-140.07 518.96,-131.65"/>
<polygon fill="midnightblue" stroke="midnightblue" points="565.7,-165.86 576,-168.32 569.48,-159.97 565.7,-165.86"/>
</g>
<!-- Node12 -->
<g id="node12" class="node">
<title>Node12</title>
<g id="a_node12"><a xlink:href="AggregateArgument_8hpp.html" target="_top" xlink:title=" ">
<polygon fill="white" stroke="black" points="628.5,-56.5 628.5,-75.5 764.5,-75.5 764.5,-56.5 628.5,-56.5"/>
<text text-anchor="middle" x="696.5" y="-63.5" font-family="Helvetica,sans-Serif" font-size="10.00">AggregateArgument.hpp</text>
</a>
</g>
</g>
<!-- Node11&#45;&gt;Node12 -->
<g id="edge11" class="edge">
<title>Node11&#45;&gt;Node12</title>
<path fill="none" stroke="midnightblue" d="M663.92,-104.43C672.16,-94.97 682.15,-83.48 688.88,-75.75"/>
<polygon fill="midnightblue" stroke="midnightblue" points="661.19,-102.24 657.26,-112.08 666.47,-106.84 661.19,-102.24"/>
</g>
<!-- Node13 -->
<g id="node13" class="node">
<title>Node13</title>
<g id="a_node13"><a xlink:href="FlagArgument_8hpp.html" target="_top" xlink:title=" ">
<polygon fill="white" stroke="black" points="205,-56.5 205,-75.5 312,-75.5 312,-56.5 205,-56.5"/>
<text text-anchor="middle" x="258.5" y="-63.5" font-family="Helvetica,sans-Serif" font-size="10.00">FlagArgument.hpp</text>
</a>
</g>
</g>
<!-- Node11&#45;&gt;Node13 -->
<g id="edge12" class="edge">
<title>Node11&#45;&gt;Node13</title>
<path fill="none" stroke="midnightblue" d="M587.8,-112.04C587.7,-112.03 587.6,-112.01 587.5,-112 469.36,-95.43 439.66,-92.44 321.5,-76 318.44,-75.57 315.29,-75.13 312.11,-74.69"/>
<polygon fill="midnightblue" stroke="midnightblue" points="587.02,-115.47 597.41,-113.4 588,-108.54 587.02,-115.47"/>
</g>
<!-- Node14 -->
<g id="node14" class="node">
<title>Node14</title>
<g id="a_node14"><a xlink:href="KeywordArgument_8hpp.html" target="_top" xlink:title=" ">
<polygon fill="white" stroke="black" points="330.5,-56.5 330.5,-75.5 458.5,-75.5 458.5,-56.5 330.5,-56.5"/>
<text text-anchor="middle" x="394.5" y="-63.5" font-family="Helvetica,sans-Serif" font-size="10.00">KeywordArgument.hpp</text>
</a>
</g>
</g>
<!-- Node11&#45;&gt;Node14 -->
<g id="edge13" class="edge">
<title>Node11&#45;&gt;Node14</title>
<path fill="none" stroke="midnightblue" d="M599.19,-110.35C551,-100.14 479.22,-84.94 434.72,-75.52"/>
<polygon fill="midnightblue" stroke="midnightblue" points="598.59,-113.8 609.09,-112.44 600.04,-106.95 598.59,-113.8"/>
</g>
<!-- Node15 -->
<g id="node15" class="node">
<title>Node15</title>
<g id="a_node15"><a xlink:href="PositionalArgument_8hpp.html" target="_top" xlink:title=" ">
<polygon fill="white" stroke="black" points="476.5,-56.5 476.5,-75.5 610.5,-75.5 610.5,-56.5 476.5,-56.5"/>
<text text-anchor="middle" x="543.5" y="-63.5" font-family="Helvetica,sans-Serif" font-size="10.00">PositionalArgument.hpp</text>
</a>
</g>
</g>
<!-- Node11&#45;&gt;Node15 -->
<g id="edge14" class="edge">
<title>Node11&#45;&gt;Node15</title>
<path fill="none" stroke="midnightblue" d="M623.44,-107.73C603.82,-97.73 577.47,-84.31 560.49,-75.65"/>
<polygon fill="midnightblue" stroke="midnightblue" points="621.97,-110.9 632.47,-112.32 625.15,-104.67 621.97,-110.9"/>
</g>
<!-- Node19 -->
<g id="node19" class="node">
<title>Node19</title>
<g id="a_node19"><a xlink:href="Logger_8hpp.html" target="_top" xlink:title=" ">
<polygon fill="white" stroke="black" points="127.5,-224.5 127.5,-243.5 197.5,-243.5 197.5,-224.5 127.5,-224.5"/>
<text text-anchor="middle" x="162.5" y="-231.5" font-family="Helvetica,sans-Serif" font-size="10.00">Logger.hpp</text>
</a>
</g>
</g>
<!-- Node18&#45;&gt;Node19 -->
<g id="edge18" class="edge">
<title>Node18&#45;&gt;Node19</title>
<path fill="none" stroke="midnightblue" d="M213.19,-274.1C200.59,-264.38 184.57,-252.03 173.95,-243.83"/>
<polygon fill="midnightblue" stroke="midnightblue" points="211.2,-276.99 221.25,-280.32 215.47,-271.44 211.2,-276.99"/>
</g>
<!-- Node20 -->
<g id="node20" class="node">
<title>Node20</title>
<g id="a_node20"><a xlink:href="LogBlock_8hpp.html" target="_top" xlink:title=" ">
<polygon fill="white" stroke="black" points="62.5,-168.5 62.5,-187.5 144.5,-187.5 144.5,-168.5 62.5,-168.5"/>
<text text-anchor="middle" x="103.5" y="-175.5" font-family="Helvetica,sans-Serif" font-size="10.00">LogBlock.hpp</text>
</a>
</g>
</g>
<!-- Node19&#45;&gt;Node20 -->
<g id="edge19" class="edge">
<title>Node19&#45;&gt;Node20</title>
<path fill="none" stroke="midnightblue" d="M145.61,-217.54C135.09,-207.91 121.93,-195.87 113.15,-187.83"/>
<polygon fill="midnightblue" stroke="midnightblue" points="143.28,-220.15 153.02,-224.32 148.01,-214.99 143.28,-220.15"/>
</g>
<!-- Node21 -->
<g id="node21" class="node">
<title>Node21</title>
<g id="a_node21"><a xlink:href="Loggee_8hpp.html" target="_top" xlink:title=" ">
<polygon fill="white" stroke="black" points="0,-112.5 0,-131.5 73,-131.5 73,-112.5 0,-112.5"/>
<text text-anchor="middle" x="36.5" y="-119.5" font-family="Helvetica,sans-Serif" font-size="10.00">Loggee.hpp</text>
</a>
</g>
</g>
<!-- Node19&#45;&gt;Node21 -->
<g id="edge23" class="edge">
<title>Node19&#45;&gt;Node21</title>
<path fill="none" stroke="midnightblue" d="M117.35,-224.29C95.2,-217.81 69.84,-206.73 53.5,-188 39.39,-171.83 36.78,-145.33 36.43,-131.7"/>
<polygon fill="midnightblue" stroke="midnightblue" points="116.68,-227.74 127.25,-226.96 118.5,-220.98 116.68,-227.74"/>
</g>
<!-- Node24 -->
<g id="node24" class="node">
<title>Node24</title>
<g id="a_node24"><a xlink:href="LoggerSingleton_8hpp.html" target="_top" xlink:title=" ">
<polygon fill="white" stroke="black" points="162.5,-168.5 162.5,-187.5 278.5,-187.5 278.5,-168.5 162.5,-168.5"/>
<text text-anchor="middle" x="220.5" y="-175.5" font-family="Helvetica,sans-Serif" font-size="10.00">LoggerSingleton.hpp</text>
</a>
</g>
</g>
<!-- Node19&#45;&gt;Node24 -->
<g id="edge24" class="edge">
<title>Node19&#45;&gt;Node24</title>
<path fill="none" stroke="midnightblue" d="M179.41,-217.25C189.7,-207.67 202.47,-195.79 211.01,-187.83"/>
<polygon fill="midnightblue" stroke="midnightblue" points="176.75,-214.95 171.82,-224.32 181.52,-220.07 176.75,-214.95"/>
</g>
<!-- Node20&#45;&gt;Node21 -->
<g id="edge20" class="edge">
<title>Node20&#45;&gt;Node21</title>
<path fill="none" stroke="midnightblue" d="M84.67,-161.82C72.66,-152.15 57.53,-139.95 47.46,-131.83"/>
<polygon fill="midnightblue" stroke="midnightblue" points="82.75,-164.77 92.74,-168.32 87.15,-159.32 82.75,-164.77"/>
</g>
<!-- Node22 -->
<g id="node22" class="node">
<title>Node22</title>
<g id="a_node22"><a xlink:href="testing_8hpp.html" target="_top" xlink:title=" ">
<polygon fill="white" stroke="black" points="92,-112.5 92,-131.5 163,-131.5 163,-112.5 92,-112.5"/>
<text text-anchor="middle" x="127.5" y="-119.5" font-family="Helvetica,sans-Serif" font-size="10.00">testing.hpp</text>
</a>
</g>
</g>
<!-- Node20&#45;&gt;Node22 -->
<g id="edge21" class="edge">
<title>Node20&#45;&gt;Node22</title>
<path fill="none" stroke="midnightblue" d="M111.64,-158.69C115.68,-149.59 120.38,-139.01 123.61,-131.75"/>
<polygon fill="midnightblue" stroke="midnightblue" points="108.33,-157.52 107.46,-168.08 114.72,-160.37 108.33,-157.52"/>
</g>
<!-- Node23 -->
<g id="node23" class="node">
<title>Node23</title>
<g id="a_node23"><a xlink:href="essentials_8hpp.html" target="_top" xlink:title=" ">
<polygon fill="white" stroke="black" points="84,-56.5 84,-75.5 171,-75.5 171,-56.5 84,-56.5"/>
<text text-anchor="middle" x="127.5" y="-63.5" font-family="Helvetica,sans-Serif" font-size="10.00">essentials.hpp</text>
</a>
</g>
</g>
<!-- Node22&#45;&gt;Node23 -->
<g id="edge22" class="edge">
<title>Node22&#45;&gt;Node23</title>
<path fill="none" stroke="midnightblue" d="M127.5,-101.8C127.5,-92.91 127.5,-82.78 127.5,-75.75"/>
<polygon fill="midnightblue" stroke="midnightblue" points="124,-102.08 127.5,-112.08 131,-102.08 124,-102.08"/>
</g>
<!-- Node24&#45;&gt;Node22 -->
<g id="edge25" class="edge">
<title>Node24&#45;&gt;Node22</title>
<path fill="none" stroke="midnightblue" d="M196.69,-163.18C179.58,-153.24 157.03,-140.15 142.4,-131.65"/>
<polygon fill="midnightblue" stroke="midnightblue" points="195.15,-166.33 205.56,-168.32 198.67,-160.28 195.15,-166.33"/>
</g>
<!-- Node25 -->
<g id="node25" class="node">
<title>Node25</title>
<g id="a_node25"><a xlink:href="warning_8hpp.html" target="_top" xlink:title=" ">
<polygon fill="white" stroke="black" points="182,-112.5 182,-131.5 259,-131.5 259,-112.5 182,-112.5"/>
<text text-anchor="middle" x="220.5" y="-119.5" font-family="Helvetica,sans-Serif" font-size="10.00">warning.hpp</text>
</a>
</g>
</g>
<!-- Node24&#45;&gt;Node25 -->
<g id="edge26" class="edge">
<title>Node24&#45;&gt;Node25</title>
<path fill="none" stroke="midnightblue" d="M220.5,-157.8C220.5,-148.91 220.5,-138.78 220.5,-131.75"/>
<polygon fill="midnightblue" stroke="midnightblue" points="217,-158.08 220.5,-168.08 224,-158.08 217,-158.08"/>
</g>
<!-- Node30 -->
<g id="node30" class="node">
<title>Node30</title>
<g id="a_node30"><a xlink:href="STLContainerBase_8hpp.html" target="_top" xlink:title=" ">
<polygon fill="white" stroke="black" points="991.5,-280.5 991.5,-299.5 1117.5,-299.5 1117.5,-280.5 991.5,-280.5"/>
<text text-anchor="middle" x="1054.5" y="-287.5" font-family="Helvetica,sans-Serif" font-size="10.00">STLContainerBase.hpp</text>
</a>
</g>
</g>
<!-- Node29&#45;&gt;Node30 -->
<g id="edge31" class="edge">
<title>Node29&#45;&gt;Node30</title>
<path fill="none" stroke="midnightblue" d="M949.63,-332.64C975.16,-322.5 1010.61,-308.43 1033.05,-299.52"/>
<polygon fill="midnightblue" stroke="midnightblue" points="948.05,-329.5 940.05,-336.44 950.64,-336.01 948.05,-329.5"/>
</g>
<!-- Node31 -->
<g id="node31" class="node">
<title>Node31</title>
<g id="a_node31"><a xlink:href="DynamicArray_8hpp.html" target="_top" xlink:title=" ">
<polygon fill="white" stroke="black" points="975.5,-224.5 975.5,-243.5 1081.5,-243.5 1081.5,-224.5 975.5,-224.5"/>
<text text-anchor="middle" x="1028.5" y="-231.5" font-family="Helvetica,sans-Serif" font-size="10.00">DynamicArray.hpp</text>
</a>
</g>
</g>
<!-- Node30&#45;&gt;Node31 -->
<g id="edge32" class="edge">
<title>Node30&#45;&gt;Node31</title>
<path fill="none" stroke="midnightblue" d="M1045.83,-270.98C1041.41,-261.82 1036.25,-251.09 1032.71,-243.75"/>
<polygon fill="midnightblue" stroke="midnightblue" points="1042.71,-272.59 1050.21,-280.08 1049.02,-269.55 1042.71,-272.59"/>
</g>
<!-- Node42 -->
<g id="node42" class="node">
<title>Node42</title>
<g id="a_node42"><a xlink:href="StaticArray_8hpp.html" target="_top" xlink:title=" ">
<polygon fill="white" stroke="black" points="1235.5,-224.5 1235.5,-243.5 1325.5,-243.5 1325.5,-224.5 1235.5,-224.5"/>
<text text-anchor="middle" x="1280.5" y="-231.5" font-family="Helvetica,sans-Serif" font-size="10.00">StaticArray.hpp</text>
</a>
</g>
</g>
<!-- Node30&#45;&gt;Node42 -->
<g id="edge47" class="edge">
<title>Node30&#45;&gt;Node42</title>
<path fill="none" stroke="midnightblue" d="M1100.17,-278.09C1142.86,-267.89 1205.75,-252.86 1244.86,-243.52"/>
<polygon fill="midnightblue" stroke="midnightblue" points="1099.22,-274.72 1090.31,-280.44 1100.85,-281.52 1099.22,-274.72"/>
</g>
<!-- Node31&#45;&gt;Node10 -->
<g id="edge33" class="edge">
<title>Node31&#45;&gt;Node10</title>
<path fill="none" stroke="midnightblue" d="M965.11,-225.2C873.32,-213.91 706.04,-193.33 629.57,-183.93"/>
<polygon fill="midnightblue" stroke="midnightblue" points="964.76,-228.69 975.11,-226.43 965.61,-221.74 964.76,-228.69"/>
</g>
<!-- Node32 -->
<g id="node32" class="node">
<title>Node32</title>
<g id="a_node32"><a xlink:href="ParallelFor_8hpp.html" target="_top" xlink:title=" ">
<polygon fill="white" stroke="black" points="782.5,-56.5 782.5,-75.5 870.5,-75.5 870.5,-56.5 782.5,-56.5"/>
<text text-anchor="middle" x="826.5" y="-63.5" font-family="Helvetica,sans-Serif" font-size="10.00">ParallelFor.hpp</text>
</a>
</g>
</g>
<!-- Node31&#45;&gt;Node32 -->
<g id="edge34" class="edge">
<title>Node31&#45;&gt;Node32</title>
<path fill="none" stroke="midnightblue" d="M965.51,-222.64C924.69,-214.72 876.44,-202.67 861.5,-188 829.51,-156.59 826.31,-97.89 826.31,-75.75"/>
<polygon fill="midnightblue" stroke="midnightblue" points="964.95,-226.1 975.43,-224.51 966.25,-219.22 964.95,-226.1"/>
</g>
<!-- Node33 -->
<g id="node33" class="node">
<title>Node33</title>
<g id="a_node33"><a xlink:href="ThreadLocal_8hpp.html" target="_top" xlink:title=" ">
<polygon fill="white" stroke="black" points="1095,-168.5 1095,-187.5 1192,-187.5 1192,-168.5 1095,-168.5"/>
<text text-anchor="middle" x="1143.5" y="-175.5" font-family="Helvetica,sans-Serif" font-size="10.00">ThreadLocal.hpp</text>
</a>
</g>
</g>
<!-- Node31&#45;&gt;Node33 -->
<g id="edge35" class="edge">
<title>Node31&#45;&gt;Node33</title>
<path fill="none" stroke="midnightblue" d="M1055.98,-220.1C1077.47,-210.01 1106.72,-196.27 1125.36,-187.52"/>
<polygon fill="midnightblue" stroke="midnightblue" points="1054.29,-217.02 1046.72,-224.44 1057.26,-223.36 1054.29,-217.02"/>
</g>
<!-- Node34 -->
<g id="node34" class="node">
<title>Node34</title>
<g id="a_node34"><a xlink:href="ThreadPoolStorage_8hpp.html" target="_top" xlink:title=" ">
<polygon fill="white" stroke="black" points="870.5,-168.5 870.5,-187.5 1000.5,-187.5 1000.5,-168.5 870.5,-168.5"/>
<text text-anchor="middle" x="935.5" y="-175.5" font-family="Helvetica,sans-Serif" font-size="10.00">ThreadPoolStorage.hpp</text>
</a>
</g>
</g>
<!-- Node31&#45;&gt;Node34 -->
<g id="edge36" class="edge">
<title>Node31&#45;&gt;Node34</title>
<path fill="none" stroke="midnightblue" d="M1004.69,-219.18C987.58,-209.24 965.03,-196.15 950.4,-187.65"/>
<polygon fill="midnightblue" stroke="midnightblue" points="1003.15,-222.33 1013.56,-224.32 1006.67,-216.28 1003.15,-222.33"/>
</g>
<!-- Node38 -->
<g id="node38" class="node">
<title>Node38</title>
<g id="a_node38"><a xlink:href="abstree_8hpp.html" target="_top" xlink:title=" ">
<polygon fill="white" stroke="black" points="1021.5,-56.5 1021.5,-75.5 1095.5,-75.5 1095.5,-56.5 1021.5,-56.5"/>
<text text-anchor="middle" x="1058.5" y="-63.5" font-family="Helvetica,sans-Serif" font-size="10.00">abstree.hpp</text>
</a>
</g>
</g>
<!-- Node31&#45;&gt;Node38 -->
<g id="edge44" class="edge">
<title>Node31&#45;&gt;Node38</title>
<path fill="none" stroke="midnightblue" d="M1031.95,-213.93C1038.45,-177.92 1052.31,-101.23 1056.95,-75.57"/>
<polygon fill="midnightblue" stroke="midnightblue" points="1028.45,-213.61 1030.11,-224.08 1035.34,-214.86 1028.45,-213.61"/>
</g>
<!-- Node39 -->
<g id="node39" class="node">
<title>Node39</title>
<g id="a_node39"><a xlink:href="ContiguousTree_8hpp.html" target="_top" xlink:title=" ">
<polygon fill="white" stroke="black" points="1114,-56.5 1114,-75.5 1227,-75.5 1227,-56.5 1114,-56.5"/>
<text text-anchor="middle" x="1170.5" y="-63.5" font-family="Helvetica,sans-Serif" font-size="10.00">ContiguousTree.hpp</text>
</a>
</g>
</g>
<!-- Node31&#45;&gt;Node39 -->
<g id="edge45" class="edge">
<title>Node31&#45;&gt;Node39</title>
<path fill="none" stroke="midnightblue" d="M1042.86,-216.21C1072.76,-181.26 1140.74,-101.79 1163.17,-75.57"/>
<polygon fill="midnightblue" stroke="midnightblue" points="1039.98,-214.2 1036.13,-224.08 1045.29,-218.75 1039.98,-214.2"/>
</g>
<!-- Node40 -->
<g id="node40" class="node">
<title>Node40</title>
<g id="a_node40"><a xlink:href="UnstructuredView_8hpp.html" target="_top" xlink:title=" ">
<polygon fill="white" stroke="black" points="690.5,-168.5 690.5,-187.5 814.5,-187.5 814.5,-168.5 690.5,-168.5"/>
<text text-anchor="middle" x="752.5" y="-175.5" font-family="Helvetica,sans-Serif" font-size="10.00">UnstructuredView.hpp</text>
</a>
</g>
</g>
<!-- Node31&#45;&gt;Node40 -->
<g id="edge43" class="edge">
<title>Node31&#45;&gt;Node40</title>
<path fill="none" stroke="midnightblue" d="M974.7,-222.47C922.54,-212.27 844.39,-196.98 796.03,-187.52"/>
<polygon fill="midnightblue" stroke="midnightblue" points="974.28,-225.96 984.77,-224.44 975.63,-219.09 974.28,-225.96"/>
</g>
<!-- Node41 -->
<g id="node41" class="node">
<title>Node41</title>
<g id="a_node41"><a xlink:href="stl__extension_8hpp.html" target="_top" xlink:title=" ">
<polygon fill="white" stroke="black" points="1366,-168.5 1366,-187.5 1469,-187.5 1469,-168.5 1366,-168.5"/>
<text text-anchor="middle" x="1417.5" y="-175.5" font-family="Helvetica,sans-Serif" font-size="10.00">stl_extension.hpp</text>
</a>
</g>
</g>
<!-- Node31&#45;&gt;Node41 -->
<g id="edge46" class="edge">
<title>Node31&#45;&gt;Node41</title>
<path fill="none" stroke="midnightblue" d="M1091.8,-224.59C1158.07,-215.73 1265.14,-201.24 1357.5,-188 1360.21,-187.61 1362.99,-187.21 1365.8,-186.8"/>
<polygon fill="midnightblue" stroke="midnightblue" points="1090.97,-221.17 1081.52,-225.96 1091.9,-228.11 1090.97,-221.17"/>
</g>
<!-- Node35 -->
<g id="node35" class="node">
<title>Node35</title>
<g id="a_node35"><a xlink:href="ThreadPool_8hpp.html" target="_top" xlink:title=" ">
<polygon fill="white" stroke="black" points="899.5,-112.5 899.5,-131.5 991.5,-131.5 991.5,-112.5 899.5,-112.5"/>
<text text-anchor="middle" x="945.5" y="-119.5" font-family="Helvetica,sans-Serif" font-size="10.00">ThreadPool.hpp</text>
</a>
</g>
</g>
<!-- Node34&#45;&gt;Node35 -->
<g id="edge37" class="edge">
<title>Node34&#45;&gt;Node35</title>
<path fill="none" stroke="midnightblue" d="M939,-158.1C940.66,-149.14 942.56,-138.86 943.88,-131.75"/>
<polygon fill="midnightblue" stroke="midnightblue" points="935.53,-157.61 937.15,-168.08 942.41,-158.89 935.53,-157.61"/>
</g>
<!-- Node35&#45;&gt;Node32 -->
<g id="edge38" class="edge">
<title>Node35&#45;&gt;Node32</title>
<path fill="none" stroke="midnightblue" d="M917.36,-108.23C895.1,-98.13 864.64,-84.31 845.27,-75.52"/>
<polygon fill="midnightblue" stroke="midnightblue" points="916.09,-111.5 926.64,-112.44 918.98,-105.12 916.09,-111.5"/>
</g>
<!-- Node36 -->
<g id="node36" class="node">
<title>Node36</title>
<g id="a_node36"><a xlink:href="ResourceLoader_8hpp.html" target="_top" xlink:title=" ">
<polygon fill="white" stroke="black" points="888,-56.5 888,-75.5 1003,-75.5 1003,-56.5 888,-56.5"/>
<text text-anchor="middle" x="945.5" y="-63.5" font-family="Helvetica,sans-Serif" font-size="10.00">ResourceLoader.hpp</text>
</a>
</g>
</g>
<!-- Node35&#45;&gt;Node36 -->
<g id="edge39" class="edge">
<title>Node35&#45;&gt;Node36</title>
<path fill="none" stroke="midnightblue" d="M945.5,-101.8C945.5,-92.91 945.5,-82.78 945.5,-75.75"/>
<polygon fill="midnightblue" stroke="midnightblue" points="942,-102.08 945.5,-112.08 949,-102.08 942,-102.08"/>
</g>
<!-- Node35&#45;&gt;Node38 -->
<g id="edge41" class="edge">
<title>Node35&#45;&gt;Node38</title>
<path fill="none" stroke="midnightblue" d="M972.5,-108.1C993.61,-98.01 1022.36,-84.27 1040.68,-75.52"/>
<polygon fill="midnightblue" stroke="midnightblue" points="970.92,-104.97 963.41,-112.44 973.94,-111.29 970.92,-104.97"/>
</g>
<!-- Node35&#45;&gt;Node39 -->
<g id="edge42" class="edge">
<title>Node35&#45;&gt;Node39</title>
<path fill="none" stroke="midnightblue" d="M990.97,-110.09C1033.47,-99.89 1096.08,-84.86 1135.01,-75.52"/>
<polygon fill="midnightblue" stroke="midnightblue" points="990.06,-106.71 981.15,-112.44 991.69,-113.51 990.06,-106.71"/>
</g>
<!-- Node37 -->
<g id="node37" class="node">
<title>Node37</title>
<g id="a_node37"><a xlink:href="ResourceQueue_8hpp.html" target="_top" xlink:title=" ">
<polygon fill="white" stroke="black" points="888.5,-0.5 888.5,-19.5 1002.5,-19.5 1002.5,-0.5 888.5,-0.5"/>
<text text-anchor="middle" x="945.5" y="-7.5" font-family="Helvetica,sans-Serif" font-size="10.00">ResourceQueue.hpp</text>
</a>
</g>
</g>
<!-- Node36&#45;&gt;Node37 -->
<g id="edge40" class="edge">
<title>Node36&#45;&gt;Node37</title>
<path fill="none" stroke="midnightblue" d="M945.5,-45.8C945.5,-36.91 945.5,-26.78 945.5,-19.75"/>
<polygon fill="midnightblue" stroke="midnightblue" points="942,-46.08 945.5,-56.08 949,-46.08 942,-46.08"/>
</g>
<!-- Node42&#45;&gt;Node4 -->
<g id="edge48" class="edge">
<title>Node42&#45;&gt;Node4</title>
<path fill="none" stroke="midnightblue" d="M1267.48,-215.86C1260.38,-206.5 1251.9,-195.33 1246.14,-187.75"/>
<polygon fill="midnightblue" stroke="midnightblue" points="1264.89,-218.24 1273.73,-224.08 1270.47,-214 1264.89,-218.24"/>
</g>
<!-- Node42&#45;&gt;Node41 -->
<g id="edge50" class="edge">
<title>Node42&#45;&gt;Node41</title>
<path fill="none" stroke="midnightblue" d="M1311.52,-220.77C1337.26,-210.63 1373.19,-196.47 1395.89,-187.52"/>
<polygon fill="midnightblue" stroke="midnightblue" points="1310.23,-217.52 1302.21,-224.44 1312.79,-224.03 1310.23,-217.52"/>
</g>
<!-- Node43 -->
<g id="node43" class="node">
<title>Node43</title>
<g id="a_node43"><a xlink:href="base_8hpp.html" target="_top" xlink:title=" ">
<polygon fill="white" stroke="black" points="1287,-168.5 1287,-187.5 1348,-187.5 1348,-168.5 1287,-168.5"/>
<text text-anchor="middle" x="1317.5" y="-175.5" font-family="Helvetica,sans-Serif" font-size="10.00">base.hpp</text>
</a>
</g>
</g>
<!-- Node42&#45;&gt;Node43 -->
<g id="edge49" class="edge">
<title>Node42&#45;&gt;Node43</title>
<path fill="none" stroke="midnightblue" d="M1292.45,-215.57C1298.81,-206.27 1306.37,-195.25 1311.5,-187.75"/>
<polygon fill="midnightblue" stroke="midnightblue" points="1289.37,-213.86 1286.61,-224.08 1295.15,-217.81 1289.37,-213.86"/>
</g>
<!-- Node45&#45;&gt;Node3 -->
<g id="edge54" class="edge">
<title>Node45&#45;&gt;Node3</title>
<path fill="none" stroke="midnightblue" d="M1170.97,-445.57C1136.64,-435.38 1087.17,-420.7 1056.2,-411.52"/>
<polygon fill="midnightblue" stroke="midnightblue" points="1170.08,-448.95 1180.66,-448.44 1172.07,-442.24 1170.08,-448.95"/>
</g>
<!-- Node45&#45;&gt;Node30 -->
<g id="edge56" class="edge">
<title>Node45&#45;&gt;Node30</title>
<path fill="none" stroke="midnightblue" d="M1205.87,-438.59C1199.66,-411.99 1184.44,-363.05 1152.5,-336 1132.21,-318.82 1104.28,-306.86 1083.42,-299.6"/>
<polygon fill="midnightblue" stroke="midnightblue" points="1202.48,-439.45 1208,-448.49 1209.32,-437.98 1202.48,-439.45"/>
</g>
<!-- Node46 -->
<g id="node46" class="node">
<title>Node46</title>
<g id="a_node46"><a xlink:href="ArgumentMapper_8hpp.html" target="_top" xlink:title=" ">
<polygon fill="white" stroke="black" points="1237.5,-392.5 1237.5,-411.5 1359.5,-411.5 1359.5,-392.5 1237.5,-392.5"/>
<text text-anchor="middle" x="1298.5" y="-399.5" font-family="Helvetica,sans-Serif" font-size="10.00">ArgumentMapper.hpp</text>
</a>
</g>
</g>
<!-- Node45&#45;&gt;Node46 -->
<g id="edge53" class="edge">
<title>Node45&#45;&gt;Node46</title>
<path fill="none" stroke="midnightblue" d="M1232.74,-442.9C1249.06,-433 1270.37,-420.07 1284.24,-411.65"/>
<polygon fill="midnightblue" stroke="midnightblue" points="1230.53,-440.14 1223.8,-448.32 1234.16,-446.13 1230.53,-440.14"/>
</g>
<!-- Node47 -->
<g id="node47" class="node">
<title>Node47</title>
<g id="a_node47"><a xlink:href="OptionalRef_8hpp.html" target="_top" xlink:title=" ">
<polygon fill="white" stroke="black" points="1086,-392.5 1086,-411.5 1181,-411.5 1181,-392.5 1086,-392.5"/>
<text text-anchor="middle" x="1133.5" y="-399.5" font-family="Helvetica,sans-Serif" font-size="10.00">OptionalRef.hpp</text>
</a>
</g>
</g>
<!-- Node45&#45;&gt;Node47 -->
<g id="edge55" class="edge">
<title>Node45&#45;&gt;Node47</title>
<path fill="none" stroke="midnightblue" d="M1188.92,-442.38C1175.19,-432.62 1157.57,-420.11 1145.93,-411.83"/>
<polygon fill="midnightblue" stroke="midnightblue" points="1187.11,-445.38 1197.29,-448.32 1191.16,-439.68 1187.11,-445.38"/>
</g>
<!-- Node45&#45;&gt;Node48 -->
<g id="edge57" class="edge">
<title>Node45&#45;&gt;Node48</title>
<path fill="none" stroke="midnightblue" d="M1252.28,-445.89C1291.56,-435.7 1348.93,-420.8 1384.7,-411.52"/>
<polygon fill="midnightblue" stroke="midnightblue" points="1251.26,-442.54 1242.46,-448.44 1253.02,-449.32 1251.26,-442.54"/>
</g>
<!-- Node48&#45;&gt;Node41 -->
<g id="edge58" class="edge">
<title>Node48&#45;&gt;Node41</title>
<path fill="none" stroke="midnightblue" d="M1417.5,-382.3C1417.5,-336.64 1417.5,-220.85 1417.5,-187.88"/>
<polygon fill="midnightblue" stroke="midnightblue" points="1414,-382.3 1417.5,-392.3 1421,-382.3 1414,-382.3"/>
</g>
</g>
</svg>
