<?xml version="1.0" encoding="UTF-8" standalone="no"?>
<!DOCTYPE svg PUBLIC "-//W3C//DTD SVG 1.1//EN"
 "http://www.w3.org/Graphics/SVG/1.1/DTD/svg11.dtd">
<!-- Generated by graphviz version 2.43.0 (0)
 -->
<!-- Title: exceptions.hpp Pages: 1 -->
<svg width="879pt" height="291pt"
 viewBox="0.00 0.00 879.00 291.00" xmlns="http://www.w3.org/2000/svg" xmlns:xlink="http://www.w3.org/1999/xlink">
<g id="graph0" class="graph" transform="scale(1 1) rotate(0) translate(4 287)">
<title>exceptions.hpp</title>
<!-- Node1 -->
<g id="Node000001" class="node">
<title>Node1</title>
<g id="a_Node000001"><a xlink:title=" ">
<polygon fill="#999999" stroke="#666666" points="782.5,-283 691.5,-283 691.5,-264 782.5,-264 782.5,-283"/>
<text text-anchor="middle" x="737" y="-271" font-family="Helvetica,sans-Serif" font-size="10.00">exceptions.hpp</text>
</a>
</g>
</g>
<!-- Node2 -->
<g id="Node000002" class="node">
<title>Node2</title>
<g id="a_Node000002"><a xlink:href="exception_8hpp.html" target="_top" xlink:title=" ">
<polygon fill="white" stroke="#666666" points="476.5,-228 357.5,-228 357.5,-198 476.5,-198 476.5,-228"/>
<text text-anchor="start" x="365.5" y="-216" font-family="Helvetica,sans-Serif" font-size="10.00">packages/exceptions</text>
<text text-anchor="middle" x="417" y="-205" font-family="Helvetica,sans-Serif" font-size="10.00">/inc/exception.hpp</text>
</a>
</g>
</g>
<!-- Node1&#45;&gt;Node2 -->
<g id="edge1_Node000001_Node000002" class="edge">
<title>Node1&#45;&gt;Node2</title>
<g id="a_edge1_Node000001_Node000002"><a xlink:title=" ">
<path fill="none" stroke="#63b8ff" d="M691.49,-264.18C638.04,-254.41 548.8,-238.09 486.63,-226.73"/>
<polygon fill="#63b8ff" stroke="#63b8ff" points="486.98,-223.24 476.51,-224.88 485.72,-230.12 486.98,-223.24"/>
</a>
</g>
</g>
<!-- Node5 -->
<g id="Node000005" class="node">
<title>Node5</title>
<g id="a_Node000005"><a xlink:href="detail_8hpp.html" target="_top" xlink:title=" ">
<polygon fill="white" stroke="#666666" points="528.5,-30 409.5,-30 409.5,0 528.5,0 528.5,-30"/>
<text text-anchor="start" x="417.5" y="-18" font-family="Helvetica,sans-Serif" font-size="10.00">packages/macros/inc</text>
<text text-anchor="middle" x="469" y="-7" font-family="Helvetica,sans-Serif" font-size="10.00">/detail.hpp</text>
</a>
</g>
</g>
<!-- Node1&#45;&gt;Node5 -->
<g id="edge17_Node000001_Node000005" class="edge">
<title>Node1&#45;&gt;Node5</title>
<g id="a_edge17_Node000001_Node000005"><a xlink:title=" ">
<path fill="none" stroke="#63b8ff" d="M735.15,-263.8C726.89,-225.01 693.64,-69.64 690,-66 668.9,-44.92 595.25,-31.27 538.71,-23.64"/>
<polygon fill="#63b8ff" stroke="#63b8ff" points="539.1,-20.17 528.73,-22.34 538.19,-27.11 539.1,-20.17"/>
</a>
</g>
</g>
<!-- Node17 -->
<g id="Node000017" class="node">
<title>Node17</title>
<g id="a_Node000017"><a xlink:title=" ">
<polygon fill="#e0e0e0" stroke="#999999" points="793,-222.5 737,-222.5 737,-203.5 793,-203.5 793,-222.5"/>
<text text-anchor="middle" x="765" y="-210.5" font-family="Helvetica,sans-Serif" font-size="10.00">sstream</text>
</a>
</g>
</g>
<!-- Node1&#45;&gt;Node17 -->
<g id="edge18_Node000001_Node000017" class="edge">
<title>Node1&#45;&gt;Node17</title>
<g id="a_edge18_Node000001_Node000017"><a xlink:title=" ">
<path fill="none" stroke="#63b8ff" d="M741.13,-263.87C745.14,-255.49 751.35,-242.51 756.44,-231.89"/>
<polygon fill="#63b8ff" stroke="#63b8ff" points="759.69,-233.2 760.85,-222.67 753.38,-230.18 759.69,-233.2"/>
</a>
</g>
</g>
<!-- Node18 -->
<g id="Node000018" class="node">
<title>Node18</title>
<g id="a_Node000018"><a xlink:title=" ">
<polygon fill="#e0e0e0" stroke="#999999" points="871,-222.5 811,-222.5 811,-203.5 871,-203.5 871,-222.5"/>
<text text-anchor="middle" x="841" y="-210.5" font-family="Helvetica,sans-Serif" font-size="10.00">concepts</text>
</a>
</g>
</g>
<!-- Node1&#45;&gt;Node18 -->
<g id="edge19_Node000001_Node000018" class="edge">
<title>Node1&#45;&gt;Node18</title>
<g id="a_edge19_Node000001_Node000018"><a xlink:title=" ">
<path fill="none" stroke="#63b8ff" d="M752.35,-263.87C769.32,-254.32 796.9,-238.81 816.79,-227.62"/>
<polygon fill="#63b8ff" stroke="#63b8ff" points="818.59,-230.62 825.59,-222.67 815.16,-224.52 818.59,-230.62"/>
</a>
</g>
</g>
<!-- Node3 -->
<g id="Node000003" class="node">
<title>Node3</title>
<g id="a_Node000003"><a xlink:href="types_8hpp.html" target="_top" xlink:title=" ">
<polygon fill="white" stroke="#666666" points="292,-162 182,-162 182,-132 292,-132 292,-162"/>
<text text-anchor="start" x="190" y="-150" font-family="Helvetica,sans-Serif" font-size="10.00">packages/types/inc</text>
<text text-anchor="middle" x="237" y="-139" font-family="Helvetica,sans-Serif" font-size="10.00">/types.hpp</text>
</a>
</g>
</g>
<!-- Node2&#45;&gt;Node3 -->
<g id="edge2_Node000002_Node000003" class="edge">
<title>Node2&#45;&gt;Node3</title>
<g id="a_edge2_Node000002_Node000003"><a xlink:title=" ">
<path fill="none" stroke="#63b8ff" d="M377.5,-197.95C350.53,-188.37 314.63,-175.6 285.87,-165.37"/>
<polygon fill="#63b8ff" stroke="#63b8ff" points="287,-162.06 276.41,-162.01 284.66,-168.66 287,-162.06"/>
</a>
</g>
</g>
<!-- Node8 -->
<g id="Node000008" class="node">
<title>Node8</title>
<g id="a_Node000008"><a xlink:title=" ">
<polygon fill="#e0e0e0" stroke="#999999" points="44,-90.5 0,-90.5 0,-71.5 44,-71.5 44,-90.5"/>
<text text-anchor="middle" x="22" y="-78.5" font-family="Helvetica,sans-Serif" font-size="10.00">string</text>
</a>
</g>
</g>
<!-- Node2&#45;&gt;Node8 -->
<g id="edge13_Node000002_Node000008" class="edge">
<title>Node2&#45;&gt;Node8</title>
<g id="a_edge13_Node000002_Node000008"><a xlink:title=" ">
<path fill="none" stroke="#63b8ff" d="M357.29,-204.62C307.08,-197.27 233.95,-183.88 173,-162 124.58,-144.62 72.48,-114.08 43.9,-96.18"/>
<polygon fill="#63b8ff" stroke="#63b8ff" points="45.46,-93.03 35.14,-90.64 41.72,-98.95 45.46,-93.03"/>
</a>
</g>
</g>
<!-- Node13 -->
<g id="Node000013" class="node">
<title>Node13</title>
<g id="a_Node000013"><a xlink:title=" ">
<polygon fill="#e0e0e0" stroke="#999999" points="375.5,-156.5 310.5,-156.5 310.5,-137.5 375.5,-137.5 375.5,-156.5"/>
<text text-anchor="middle" x="343" y="-144.5" font-family="Helvetica,sans-Serif" font-size="10.00">stdexcept</text>
</a>
</g>
</g>
<!-- Node2&#45;&gt;Node13 -->
<g id="edge12_Node000002_Node000013" class="edge">
<title>Node2&#45;&gt;Node13</title>
<g id="a_edge12_Node000002_Node000013"><a xlink:title=" ">
<path fill="none" stroke="#63b8ff" d="M400.58,-197.8C388.81,-187.62 372.98,-173.93 360.9,-163.48"/>
<polygon fill="#63b8ff" stroke="#63b8ff" points="363.08,-160.74 353.23,-156.84 358.5,-166.03 363.08,-160.74"/>
</a>
</g>
</g>
<!-- Node14 -->
<g id="Node000014" class="node">
<title>Node14</title>
<g id="a_Node000014"><a xlink:title=" ">
<polygon fill="#e0e0e0" stroke="#999999" points="440.5,-156.5 393.5,-156.5 393.5,-137.5 440.5,-137.5 440.5,-156.5"/>
<text text-anchor="middle" x="417" y="-144.5" font-family="Helvetica,sans-Serif" font-size="10.00">deque</text>
</a>
</g>
</g>
<!-- Node2&#45;&gt;Node14 -->
<g id="edge14_Node000002_Node000014" class="edge">
<title>Node2&#45;&gt;Node14</title>
<g id="a_edge14_Node000002_Node000014"><a xlink:title=" ">
<path fill="none" stroke="#63b8ff" d="M417,-197.8C417,-188.7 417,-176.79 417,-166.9"/>
<polygon fill="#63b8ff" stroke="#63b8ff" points="420.5,-166.84 417,-156.84 413.5,-166.84 420.5,-166.84"/>
</a>
</g>
</g>
<!-- Node15 -->
<g id="Node000015" class="node">
<title>Node15</title>
<g id="a_Node000015"><a xlink:title=" ">
<polygon fill="#e0e0e0" stroke="#999999" points="517,-156.5 459,-156.5 459,-137.5 517,-137.5 517,-156.5"/>
<text text-anchor="middle" x="488" y="-144.5" font-family="Helvetica,sans-Serif" font-size="10.00">memory</text>
</a>
</g>
</g>
<!-- Node2&#45;&gt;Node15 -->
<g id="edge15_Node000002_Node000015" class="edge">
<title>Node2&#45;&gt;Node15</title>
<g id="a_edge15_Node000002_Node000015"><a xlink:title=" ">
<path fill="none" stroke="#63b8ff" d="M432.76,-197.8C443.93,-187.72 458.94,-174.19 470.49,-163.78"/>
<polygon fill="#63b8ff" stroke="#63b8ff" points="473.1,-166.14 478.19,-156.84 468.42,-160.94 473.1,-166.14"/>
</a>
</g>
</g>
<!-- Node16 -->
<g id="Node000016" class="node">
<title>Node16</title>
<g id="a_Node000016"><a xlink:title=" ">
<polygon fill="#e0e0e0" stroke="#999999" points="681,-162 535,-162 535,-132 681,-132 681,-162"/>
<text text-anchor="start" x="543" y="-150" font-family="Helvetica,sans-Serif" font-size="10.00">packages/exceptions</text>
<text text-anchor="middle" x="608" y="-139" font-family="Helvetica,sans-Serif" font-size="10.00">/impl/exceptions_impl.hpp</text>
</a>
</g>
</g>
<!-- Node2&#45;&gt;Node16 -->
<g id="edge16_Node000002_Node000016" class="edge">
<title>Node2&#45;&gt;Node16</title>
<g id="a_edge16_Node000002_Node000016"><a xlink:title=" ">
<path fill="none" stroke="#63b8ff" d="M458.92,-197.95C487.65,-188.33 525.96,-175.49 556.54,-165.24"/>
<polygon fill="#63b8ff" stroke="#63b8ff" points="557.81,-168.51 566.18,-162.01 555.59,-161.87 557.81,-168.51"/>
</a>
</g>
</g>
<!-- Node4 -->
<g id="Node000004" class="node">
<title>Node4</title>
<g id="a_Node000004"><a xlink:href="debug_8hpp.html" target="_top" xlink:title=" ">
<polygon fill="white" stroke="#666666" points="181.5,-96 62.5,-96 62.5,-66 181.5,-66 181.5,-96"/>
<text text-anchor="start" x="70.5" y="-84" font-family="Helvetica,sans-Serif" font-size="10.00">packages/macros/inc</text>
<text text-anchor="middle" x="122" y="-73" font-family="Helvetica,sans-Serif" font-size="10.00">/debug.hpp</text>
</a>
</g>
</g>
<!-- Node3&#45;&gt;Node4 -->
<g id="edge3_Node000003_Node000004" class="edge">
<title>Node3&#45;&gt;Node4</title>
<g id="a_edge3_Node000003_Node000004"><a xlink:title=" ">
<path fill="none" stroke="#63b8ff" d="M211.76,-131.95C195.43,-122.87 173.98,-110.93 156.13,-101"/>
<polygon fill="#63b8ff" stroke="#63b8ff" points="157.62,-97.82 147.18,-96.01 154.21,-103.93 157.62,-97.82"/>
</a>
</g>
</g>
<!-- Node7 -->
<g id="Node000007" class="node">
<title>Node7</title>
<g id="a_Node000007"><a xlink:title=" ">
<polygon fill="#e0e0e0" stroke="#999999" points="252.5,-90.5 199.5,-90.5 199.5,-71.5 252.5,-71.5 252.5,-90.5"/>
<text text-anchor="middle" x="226" y="-78.5" font-family="Helvetica,sans-Serif" font-size="10.00">cstddef</text>
</a>
</g>
</g>
<!-- Node3&#45;&gt;Node7 -->
<g id="edge6_Node000003_Node000007" class="edge">
<title>Node3&#45;&gt;Node7</title>
<g id="a_edge6_Node000003_Node000007"><a xlink:title=" ">
<path fill="none" stroke="#63b8ff" d="M234.56,-131.8C233,-122.7 230.95,-110.79 229.25,-100.9"/>
<polygon fill="#63b8ff" stroke="#63b8ff" points="232.66,-100.11 227.52,-90.84 225.76,-101.29 232.66,-100.11"/>
</a>
</g>
</g>
<!-- Node3&#45;&gt;Node8 -->
<g id="edge7_Node000003_Node000008" class="edge">
<title>Node3&#45;&gt;Node8</title>
<g id="a_edge7_Node000003_Node000008"><a xlink:title=" ">
<path fill="none" stroke="#63b8ff" d="M181.95,-133.47C145.01,-124.47 95.53,-111.27 53,-96 51.78,-95.56 50.54,-95.1 49.3,-94.61"/>
<polygon fill="#63b8ff" stroke="#63b8ff" points="50.41,-91.28 39.83,-90.64 47.7,-97.73 50.41,-91.28"/>
</a>
</g>
</g>
<!-- Node9 -->
<g id="Node000009" class="node">
<title>Node9</title>
<g id="a_Node000009"><a xlink:title=" ">
<polygon fill="#e0e0e0" stroke="#999999" points="339.5,-90.5 270.5,-90.5 270.5,-71.5 339.5,-71.5 339.5,-90.5"/>
<text text-anchor="middle" x="305" y="-78.5" font-family="Helvetica,sans-Serif" font-size="10.00">type_traits</text>
</a>
</g>
</g>
<!-- Node3&#45;&gt;Node9 -->
<g id="edge8_Node000003_Node000009" class="edge">
<title>Node3&#45;&gt;Node9</title>
<g id="a_edge8_Node000003_Node000009"><a xlink:title=" ">
<path fill="none" stroke="#63b8ff" d="M252.09,-131.8C262.8,-121.72 277.17,-108.19 288.23,-97.78"/>
<polygon fill="#63b8ff" stroke="#63b8ff" points="290.72,-100.25 295.6,-90.84 285.92,-95.15 290.72,-100.25"/>
</a>
</g>
</g>
<!-- Node10 -->
<g id="Node000010" class="node">
<title>Node10</title>
<g id="a_Node000010"><a xlink:title=" ">
<polygon fill="#e0e0e0" stroke="#999999" points="408,-90.5 358,-90.5 358,-71.5 408,-71.5 408,-90.5"/>
<text text-anchor="middle" x="383" y="-78.5" font-family="Helvetica,sans-Serif" font-size="10.00">climits</text>
</a>
</g>
</g>
<!-- Node3&#45;&gt;Node10 -->
<g id="edge9_Node000003_Node000010" class="edge">
<title>Node3&#45;&gt;Node10</title>
<g id="a_edge9_Node000003_Node000010"><a xlink:title=" ">
<path fill="none" stroke="#63b8ff" d="M269.04,-131.95C294.42,-120.83 329.56,-105.42 354.09,-94.67"/>
<polygon fill="#63b8ff" stroke="#63b8ff" points="355.82,-97.74 363.57,-90.52 353.01,-91.33 355.82,-97.74"/>
</a>
</g>
</g>
<!-- Node11 -->
<g id="Node000011" class="node">
<title>Node11</title>
<g id="a_Node000011"><a xlink:title=" ">
<polygon fill="#e0e0e0" stroke="#999999" points="543.5,-96 426.5,-96 426.5,-66 543.5,-66 543.5,-96"/>
<text text-anchor="start" x="434.5" y="-84" font-family="Helvetica,sans-Serif" font-size="10.00">packages/types/impl</text>
<text text-anchor="middle" x="485" y="-73" font-family="Helvetica,sans-Serif" font-size="10.00">/types_impl.hpp</text>
</a>
</g>
</g>
<!-- Node3&#45;&gt;Node11 -->
<g id="edge10_Node000003_Node000011" class="edge">
<title>Node3&#45;&gt;Node11</title>
<g id="a_edge10_Node000003_Node000011"><a xlink:title=" ">
<path fill="none" stroke="#63b8ff" d="M291.42,-131.95C329.62,-122.1 380.85,-108.88 421.01,-98.51"/>
<polygon fill="#63b8ff" stroke="#63b8ff" points="421.89,-101.9 430.7,-96.01 420.14,-95.12 421.89,-101.9"/>
</a>
</g>
</g>
<!-- Node12 -->
<g id="Node000012" class="node">
<title>Node12</title>
<g id="a_Node000012"><a xlink:href="logging_8hpp.html" target="_top" xlink:title=" ">
<polygon fill="white" stroke="#666666" points="680.5,-96 561.5,-96 561.5,-66 680.5,-66 680.5,-96"/>
<text text-anchor="start" x="569.5" y="-84" font-family="Helvetica,sans-Serif" font-size="10.00">packages/macros/inc</text>
<text text-anchor="middle" x="621" y="-73" font-family="Helvetica,sans-Serif" font-size="10.00">/logging.hpp</text>
</a>
</g>
</g>
<!-- Node3&#45;&gt;Node12 -->
<g id="edge11_Node000003_Node000012" class="edge">
<title>Node3&#45;&gt;Node12</title>
<g id="a_edge11_Node000003_Node000012"><a xlink:title=" ">
<path fill="none" stroke="#63b8ff" d="M292.27,-133.82C295.56,-133.18 298.82,-132.57 302,-132 409.79,-112.69 440.27,-115.21 551.41,-96.21"/>
<polygon fill="#63b8ff" stroke="#63b8ff" points="552.08,-99.65 561.33,-94.5 550.88,-92.75 552.08,-99.65"/>
</a>
</g>
</g>
<!-- Node4&#45;&gt;Node5 -->
<g id="edge4_Node000004_Node000005" class="edge">
<title>Node4&#45;&gt;Node5</title>
<g id="a_edge4_Node000004_Node000005"><a xlink:title=" ">
<path fill="none" stroke="#63b8ff" d="M181.82,-67.78C184.93,-67.17 188,-66.57 191,-66 261.88,-52.44 343.14,-37.94 399.42,-28.07"/>
<polygon fill="#63b8ff" stroke="#63b8ff" points="400.03,-31.52 409.28,-26.35 398.82,-24.62 400.03,-31.52"/>
</a>
</g>
</g>
<!-- Node6 -->
<g id="Node000006" class="node">
<title>Node6</title>
<g id="a_Node000006"><a xlink:title=" ">
<polygon fill="#e0e0e0" stroke="#999999" points="152,-24.5 92,-24.5 92,-5.5 152,-5.5 152,-24.5"/>
<text text-anchor="middle" x="122" y="-12.5" font-family="Helvetica,sans-Serif" font-size="10.00">iostream</text>
</a>
</g>
</g>
<!-- Node4&#45;&gt;Node6 -->
<g id="edge5_Node000004_Node000006" class="edge">
<title>Node4&#45;&gt;Node6</title>
<g id="a_edge5_Node000004_Node000006"><a xlink:title=" ">
<path fill="none" stroke="#63b8ff" d="M122,-65.8C122,-56.7 122,-44.79 122,-34.9"/>
<polygon fill="#63b8ff" stroke="#63b8ff" points="125.5,-34.84 122,-24.84 118.5,-34.84 125.5,-34.84"/>
</a>
</g>
</g>
</g>
</svg>
