<?xml version="1.0" encoding="UTF-8" standalone="no"?>
<!DOCTYPE svg PUBLIC "-//W3C//DTD SVG 1.1//EN"
 "http://www.w3.org/Graphics/SVG/1.1/DTD/svg11.dtd">
<!-- Generated by graphviz version 2.43.0 (0)
 -->
<!-- Title: FileOutputStream.hpp Pages: 1 -->
<!--zoomable 530 -->
<svg id="main" version="1.1" xmlns="http://www.w3.org/2000/svg" xmlns:xlink="http://www.w3.org/1999/xlink" xml:space="preserve" onload="init(evt)">
<style type="text/css"><![CDATA[
.edge:hover path { stroke: red; }
.edge:hover polygon { stroke: red; fill: red; }
]]></style>
<script type="text/javascript"><![CDATA[
var edges = document.getElementsByTagName('g');
if (edges && edges.length) {
  for (var i=0;i<edges.length;i++) {
    if (edges[i].id.substr(0,4)=='edge') {
      edges[i].setAttribute('class','edge');
    }
  }
}
]]></script>
        <defs>
                <circle id="rim" cx="0" cy="0" r="7"/>
                <circle id="rim2" cx="0" cy="0" r="3.5"/>
                <g id="zoomPlus">
                        <use xlink:href="#rim" fill="#404040">
                                <set attributeName="fill" to="#808080" begin="zoomplus.mouseover" end="zoomplus.mouseout"/>
                        </use>
                        <path d="M-4,0h8M0,-4v8" fill="none" stroke="white" stroke-width="1.5" pointer-events="none"/>
                </g>
                <g id="zoomMin">
                        <use xlink:href="#rim" fill="#404040">
                                <set attributeName="fill" to="#808080" begin="zoomminus.mouseover" end="zoomminus.mouseout"/>
                        </use>
                        <path d="M-4,0h8" fill="none" stroke="white" stroke-width="1.5" pointer-events="none"/>
                </g>
                <g id="dirArrow">
                        <path fill="none" stroke="white" stroke-width="1.5" d="M0,-3.0v7 M-2.5,-0.5L0,-3.0L2.5,-0.5"/>
                </g>
               <g id="resetDef">
                       <use xlink:href="#rim2" fill="#404040">
                               <set attributeName="fill" to="#808080" begin="reset.mouseover" end="reset.mouseout"/>
                       </use>
               </g>
        </defs>

<script type="text/javascript">
var viewWidth = 1380;
var viewHeight = 530;
var sectionId = 'dynsection-0';
</script>
<script xlink:href="svgpan.js"/>
<svg id="graph" class="graph">
<g id="viewport">
<title>FileOutputStream.hpp</title>
<polygon fill="white" stroke="transparent" points="-4,4 -4,-526 1376,-526 1376,4 -4,4"/>
<!-- Node1 -->
<g id="node1" class="node">
<title>Node1</title>
<g id="a_node1"><a xlink:title=" ">
<polygon fill="#bfbfbf" stroke="black" points="1065.5,-502.5 1065.5,-521.5 1188.5,-521.5 1188.5,-502.5 1065.5,-502.5"/>
<text text-anchor="middle" x="1127" y="-509.5" font-family="Helvetica,sans-Serif" font-size="10.00">FileOutputStream.hpp</text>
</a>
</g>
</g>
<!-- Node2 -->
<g id="node2" class="node">
<title>Node2</title>
<g id="a_node2"><a xlink:href="OutputStream_8hpp.html" target="_top" xlink:title=" ">
<polygon fill="white" stroke="black" points="831.5,-435.5 831.5,-465.5 950.5,-465.5 950.5,-435.5 831.5,-435.5"/>
<text text-anchor="start" x="839.5" y="-453.5" font-family="Helvetica,sans-Serif" font-size="10.00">packages/logging/inc</text>
<text text-anchor="middle" x="891" y="-442.5" font-family="Helvetica,sans-Serif" font-size="10.00">/OutputStream.hpp</text>
</a>
</g>
</g>
<!-- Node1&#45;&gt;Node2 -->
<g id="edge1" class="edge">
<title>Node1&#45;&gt;Node2</title>
<path fill="none" stroke="midnightblue" d="M1093.19,-502.48C1057.64,-493.51 1000.82,-479.19 956.46,-468"/>
<polygon fill="midnightblue" stroke="midnightblue" points="957.17,-464.57 946.62,-465.52 955.46,-471.36 957.17,-464.57"/>
</g>
<!-- Node35 -->
<g id="node35" class="node">
<title>Node35</title>
<g id="a_node35"><a xlink:title=" ">
<polygon fill="white" stroke="#bfbfbf" points="1304,-212.5 1304,-231.5 1372,-231.5 1372,-212.5 1304,-212.5"/>
<text text-anchor="middle" x="1338" y="-219.5" font-family="Helvetica,sans-Serif" font-size="10.00">filesystem</text>
</a>
</g>
</g>
<!-- Node1&#45;&gt;Node35 -->
<g id="edge55" class="edge">
<title>Node1&#45;&gt;Node35</title>
<path fill="none" stroke="midnightblue" d="M1144.68,-502.35C1188.51,-479.77 1301.7,-414.26 1344,-321 1355.7,-295.21 1349.69,-261.62 1344.02,-241.21"/>
<polygon fill="midnightblue" stroke="midnightblue" points="1347.36,-240.16 1341.11,-231.61 1340.66,-242.2 1347.36,-240.16"/>
</g>
<!-- Node3 -->
<g id="node3" class="node">
<title>Node3</title>
<g id="a_node3"><a xlink:href="typedefs_8hpp.html" target="_top" xlink:title=" ">
<polygon fill="white" stroke="black" points="1039.5,-285 1039.5,-315 1158.5,-315 1158.5,-285 1039.5,-285"/>
<text text-anchor="start" x="1047.5" y="-303" font-family="Helvetica,sans-Serif" font-size="10.00">packages/macros/inc</text>
<text text-anchor="middle" x="1099" y="-292" font-family="Helvetica,sans-Serif" font-size="10.00">/typedefs.hpp</text>
</a>
</g>
</g>
<!-- Node2&#45;&gt;Node3 -->
<g id="edge2" class="edge">
<title>Node2&#45;&gt;Node3</title>
<path fill="none" stroke="midnightblue" d="M877.09,-435.3C859.78,-415.89 834.71,-380.77 854,-357 902.94,-296.69 949.48,-339.14 1025,-321 1029.41,-319.94 1033.97,-318.81 1038.54,-317.64"/>
<polygon fill="midnightblue" stroke="midnightblue" points="1039.74,-320.94 1048.54,-315.04 1037.98,-314.17 1039.74,-320.94"/>
</g>
<!-- Node4 -->
<g id="node4" class="node">
<title>Node4</title>
<g id="a_node4"><a xlink:title=" ">
<polygon fill="white" stroke="#bfbfbf" points="1086,-140 1086,-159 1144,-159 1144,-140 1086,-140"/>
<text text-anchor="middle" x="1115" y="-147" font-family="Helvetica,sans-Serif" font-size="10.00">memory</text>
</a>
</g>
</g>
<!-- Node2&#45;&gt;Node4 -->
<g id="edge53" class="edge">
<title>Node2&#45;&gt;Node4</title>
<path fill="none" stroke="midnightblue" d="M950.61,-447.27C1023.6,-443.15 1140.88,-431.52 1168,-399 1225.92,-329.57 1157.12,-212.03 1127.39,-167.92"/>
<polygon fill="midnightblue" stroke="midnightblue" points="1130.1,-165.68 1121.54,-159.44 1124.34,-169.66 1130.1,-165.68"/>
</g>
<!-- Node5 -->
<g id="node5" class="node">
<title>Node5</title>
<g id="a_node5"><a xlink:href="streamable_8hpp.html" target="_top" xlink:title=" ">
<polygon fill="white" stroke="black" points="128,-279.5 128,-320.5 260,-320.5 260,-279.5 128,-279.5"/>
<text text-anchor="start" x="136" y="-308.5" font-family="Helvetica,sans-Serif" font-size="10.00">packages/compile_time</text>
<text text-anchor="start" x="136" y="-297.5" font-family="Helvetica,sans-Serif" font-size="10.00">/packages/concepts/inc</text>
<text text-anchor="middle" x="194" y="-286.5" font-family="Helvetica,sans-Serif" font-size="10.00">/streamable.hpp</text>
</a>
</g>
</g>
<!-- Node2&#45;&gt;Node5 -->
<g id="edge4" class="edge">
<title>Node2&#45;&gt;Node5</title>
<path fill="none" stroke="midnightblue" d="M831.38,-448.64C741.62,-446.11 567.02,-436.32 424,-399 357.4,-381.62 285.06,-348.17 239.64,-325.23"/>
<polygon fill="midnightblue" stroke="midnightblue" points="241.15,-322.07 230.65,-320.64 237.97,-328.3 241.15,-322.07"/>
</g>
<!-- Node22 -->
<g id="node22" class="node">
<title>Node22</title>
<g id="a_node22"><a xlink:href="container__concepts_8hpp.html" target="_top" xlink:title=" ">
<polygon fill="white" stroke="black" points="433.5,-357.5 433.5,-398.5 568.5,-398.5 568.5,-357.5 433.5,-357.5"/>
<text text-anchor="start" x="441.5" y="-386.5" font-family="Helvetica,sans-Serif" font-size="10.00">packages/compile_time</text>
<text text-anchor="start" x="441.5" y="-375.5" font-family="Helvetica,sans-Serif" font-size="10.00">/packages/concepts/inc</text>
<text text-anchor="middle" x="501" y="-364.5" font-family="Helvetica,sans-Serif" font-size="10.00">/container_concepts.hpp</text>
</a>
</g>
</g>
<!-- Node2&#45;&gt;Node22 -->
<g id="edge22" class="edge">
<title>Node2&#45;&gt;Node22</title>
<path fill="none" stroke="midnightblue" d="M831.34,-438.72C763.68,-426.49 653.13,-406.5 578.76,-393.06"/>
<polygon fill="midnightblue" stroke="midnightblue" points="578.98,-389.54 568.51,-391.2 577.73,-396.43 578.98,-389.54"/>
</g>
<!-- Node28 -->
<g id="node28" class="node">
<title>Node28</title>
<g id="a_node28"><a xlink:href="checks_8hpp.html" target="_top" xlink:title=" ">
<polygon fill="white" stroke="black" points="686.5,-363 686.5,-393 805.5,-393 805.5,-363 686.5,-363"/>
<text text-anchor="start" x="694.5" y="-381" font-family="Helvetica,sans-Serif" font-size="10.00">packages/macros/inc</text>
<text text-anchor="middle" x="746" y="-370" font-family="Helvetica,sans-Serif" font-size="10.00">/checks.hpp</text>
</a>
</g>
</g>
<!-- Node2&#45;&gt;Node28 -->
<g id="edge33" class="edge">
<title>Node2&#45;&gt;Node28</title>
<path fill="none" stroke="midnightblue" d="M862.01,-435.4C839.68,-424.55 808.62,-409.45 784.26,-397.6"/>
<polygon fill="midnightblue" stroke="midnightblue" points="785.47,-394.3 774.94,-393.07 782.41,-400.59 785.47,-394.3"/>
</g>
<!-- Node36 -->
<g id="node36" class="node">
<title>Node36</title>
<g id="a_node36"><a xlink:title=" ">
<polygon fill="white" stroke="#bfbfbf" points="862.5,-368.5 862.5,-387.5 919.5,-387.5 919.5,-368.5 862.5,-368.5"/>
<text text-anchor="middle" x="891" y="-375.5" font-family="Helvetica,sans-Serif" font-size="10.00">ostream</text>
</a>
</g>
</g>
<!-- Node2&#45;&gt;Node36 -->
<g id="edge51" class="edge">
<title>Node2&#45;&gt;Node36</title>
<path fill="none" stroke="midnightblue" d="M891,-435.23C891,-424.5 891,-409.69 891,-397.96"/>
<polygon fill="midnightblue" stroke="midnightblue" points="894.5,-397.89 891,-387.89 887.5,-397.89 894.5,-397.89"/>
</g>
<!-- Node37 -->
<g id="node37" class="node">
<title>Node37</title>
<g id="a_node37"><a xlink:title=" ">
<polygon fill="white" stroke="#bfbfbf" points="937.5,-368.5 937.5,-387.5 1004.5,-387.5 1004.5,-368.5 937.5,-368.5"/>
<text text-anchor="middle" x="971" y="-375.5" font-family="Helvetica,sans-Serif" font-size="10.00">streambuf</text>
</a>
</g>
</g>
<!-- Node2&#45;&gt;Node37 -->
<g id="edge52" class="edge">
<title>Node2&#45;&gt;Node37</title>
<path fill="none" stroke="midnightblue" d="M907.19,-435.23C920.5,-423.5 939.34,-406.9 953.09,-394.78"/>
<polygon fill="midnightblue" stroke="midnightblue" points="955.72,-397.13 960.91,-387.89 951.09,-391.88 955.72,-397.13"/>
</g>
<!-- Node38 -->
<g id="node38" class="node">
<title>Node38</title>
<g id="a_node38"><a xlink:title=" ">
<polygon fill="white" stroke="#bfbfbf" points="1023,-363 1023,-393 1159,-393 1159,-363 1023,-363"/>
<text text-anchor="start" x="1031" y="-381" font-family="Helvetica,sans-Serif" font-size="10.00">packages/logging/impl</text>
<text text-anchor="middle" x="1091" y="-370" font-family="Helvetica,sans-Serif" font-size="10.00">/OutputStream_impl.hpp</text>
</a>
</g>
</g>
<!-- Node2&#45;&gt;Node38 -->
<g id="edge54" class="edge">
<title>Node2&#45;&gt;Node38</title>
<path fill="none" stroke="midnightblue" d="M930.99,-435.4C962.74,-424.21 1007.29,-408.51 1041.33,-396.51"/>
<polygon fill="midnightblue" stroke="midnightblue" points="1042.81,-399.7 1051.08,-393.07 1040.48,-393.1 1042.81,-399.7"/>
</g>
<!-- Node3&#45;&gt;Node4 -->
<g id="edge3" class="edge">
<title>Node3&#45;&gt;Node4</title>
<path fill="none" stroke="midnightblue" d="M1100.53,-284.76C1103.43,-257.85 1109.72,-199.54 1112.96,-169.4"/>
<polygon fill="midnightblue" stroke="midnightblue" points="1116.46,-169.66 1114.05,-159.35 1109.5,-168.91 1116.46,-169.66"/>
</g>
<!-- Node6 -->
<g id="node6" class="node">
<title>Node6</title>
<g id="a_node6"><a xlink:href="basic__concepts_8hpp.html" target="_top" xlink:title=" ">
<polygon fill="white" stroke="black" points="66,-201.5 66,-242.5 198,-242.5 198,-201.5 66,-201.5"/>
<text text-anchor="start" x="74" y="-230.5" font-family="Helvetica,sans-Serif" font-size="10.00">packages/compile_time</text>
<text text-anchor="start" x="74" y="-219.5" font-family="Helvetica,sans-Serif" font-size="10.00">/packages/concepts/inc</text>
<text text-anchor="middle" x="132" y="-208.5" font-family="Helvetica,sans-Serif" font-size="10.00">/basic_concepts.hpp</text>
</a>
</g>
</g>
<!-- Node5&#45;&gt;Node6 -->
<g id="edge5" class="edge">
<title>Node5&#45;&gt;Node6</title>
<path fill="none" stroke="midnightblue" d="M178.03,-279.43C170.8,-270.56 162.13,-259.93 154.27,-250.3"/>
<polygon fill="midnightblue" stroke="midnightblue" points="156.95,-248.04 147.91,-242.51 151.52,-252.47 156.95,-248.04"/>
</g>
<!-- Node20 -->
<g id="node20" class="node">
<title>Node20</title>
<g id="a_node20"><a xlink:title=" ">
<polygon fill="white" stroke="#bfbfbf" points="620,-212.5 620,-231.5 676,-231.5 676,-212.5 620,-212.5"/>
<text text-anchor="middle" x="648" y="-219.5" font-family="Helvetica,sans-Serif" font-size="10.00">sstream</text>
</a>
</g>
</g>
<!-- Node5&#45;&gt;Node20 -->
<g id="edge20" class="edge">
<title>Node5&#45;&gt;Node20</title>
<path fill="none" stroke="midnightblue" d="M260.16,-291.44C369.32,-278.78 578.4,-253.61 611,-243 615.95,-241.39 621.01,-239.13 625.73,-236.7"/>
<polygon fill="midnightblue" stroke="midnightblue" points="627.79,-239.56 634.82,-231.64 624.38,-233.45 627.79,-239.56"/>
</g>
<!-- Node21 -->
<g id="node21" class="node">
<title>Node21</title>
<g id="a_node21"><a xlink:title=" ">
<polygon fill="white" stroke="#bfbfbf" points="0,-212.5 0,-231.5 48,-231.5 48,-212.5 0,-212.5"/>
<text text-anchor="middle" x="24" y="-219.5" font-family="Helvetica,sans-Serif" font-size="10.00">iosfwd</text>
</a>
</g>
</g>
<!-- Node5&#45;&gt;Node21 -->
<g id="edge21" class="edge">
<title>Node5&#45;&gt;Node21</title>
<path fill="none" stroke="midnightblue" d="M140.77,-279.48C115.04,-269.49 83.97,-256.58 57,-243 53.34,-241.15 49.53,-239.05 45.87,-236.91"/>
<polygon fill="midnightblue" stroke="midnightblue" points="47.58,-233.85 37.22,-231.66 43.95,-239.84 47.58,-233.85"/>
</g>
<!-- Node7 -->
<g id="node7" class="node">
<title>Node7</title>
<g id="a_node7"><a xlink:href="types_8hpp.html" target="_top" xlink:title=" ">
<polygon fill="white" stroke="black" points="396,-134.5 396,-164.5 506,-164.5 506,-134.5 396,-134.5"/>
<text text-anchor="start" x="404" y="-152.5" font-family="Helvetica,sans-Serif" font-size="10.00">packages/types/inc</text>
<text text-anchor="middle" x="451" y="-141.5" font-family="Helvetica,sans-Serif" font-size="10.00">/types.hpp</text>
</a>
</g>
</g>
<!-- Node6&#45;&gt;Node7 -->
<g id="edge6" class="edge">
<title>Node6&#45;&gt;Node7</title>
<path fill="none" stroke="midnightblue" d="M198.2,-203.11C201.17,-202.38 204.11,-201.67 207,-201 282.93,-183.26 304.92,-181.92 385.57,-165.05"/>
<polygon fill="midnightblue" stroke="midnightblue" points="386.64,-168.41 395.7,-162.92 385.19,-161.56 386.64,-168.41"/>
</g>
<!-- Node13 -->
<g id="node13" class="node">
<title>Node13</title>
<g id="a_node13"><a xlink:title=" ">
<polygon fill="white" stroke="#bfbfbf" points="61.5,-73 61.5,-92 130.5,-92 130.5,-73 61.5,-73"/>
<text text-anchor="middle" x="96" y="-80" font-family="Helvetica,sans-Serif" font-size="10.00">type_traits</text>
</a>
</g>
</g>
<!-- Node6&#45;&gt;Node13 -->
<g id="edge17" class="edge">
<title>Node6&#45;&gt;Node13</title>
<path fill="none" stroke="midnightblue" d="M138.2,-201.35C142.84,-183.29 147.11,-156.04 139,-134 134.03,-120.49 123.66,-108.14 114.35,-99.03"/>
<polygon fill="midnightblue" stroke="midnightblue" points="116.65,-96.38 106.92,-92.18 111.91,-101.53 116.65,-96.38"/>
</g>
<!-- Node17 -->
<g id="node17" class="node">
<title>Node17</title>
<g id="a_node17"><a xlink:title=" ">
<polygon fill="white" stroke="#bfbfbf" points="191,-140 191,-159 251,-159 251,-140 191,-140"/>
<text text-anchor="middle" x="221" y="-147" font-family="Helvetica,sans-Serif" font-size="10.00">concepts</text>
</a>
</g>
</g>
<!-- Node6&#45;&gt;Node17 -->
<g id="edge16" class="edge">
<title>Node6&#45;&gt;Node17</title>
<path fill="none" stroke="midnightblue" d="M156.79,-201.36C171.14,-190 188.91,-175.92 202.11,-165.46"/>
<polygon fill="midnightblue" stroke="midnightblue" points="204.39,-168.13 210.05,-159.17 200.04,-162.64 204.39,-168.13"/>
</g>
<!-- Node18 -->
<g id="node18" class="node">
<title>Node18</title>
<g id="a_node18"><a xlink:title=" ">
<polygon fill="white" stroke="#bfbfbf" points="80,-140 80,-159 130,-159 130,-140 80,-140"/>
<text text-anchor="middle" x="105" y="-147" font-family="Helvetica,sans-Serif" font-size="10.00">cstdint</text>
</a>
</g>
</g>
<!-- Node6&#45;&gt;Node18 -->
<g id="edge18" class="edge">
<title>Node6&#45;&gt;Node18</title>
<path fill="none" stroke="midnightblue" d="M124.48,-201.36C120.54,-191.08 115.75,-178.58 111.91,-168.54"/>
<polygon fill="midnightblue" stroke="midnightblue" points="115.17,-167.26 108.32,-159.17 108.63,-169.76 115.17,-167.26"/>
</g>
<!-- Node19 -->
<g id="node19" class="node">
<title>Node19</title>
<g id="a_node19"><a xlink:title=" ">
<polygon fill="white" stroke="#bfbfbf" points="16.5,-140 16.5,-159 61.5,-159 61.5,-140 16.5,-140"/>
<text text-anchor="middle" x="39" y="-147" font-family="Helvetica,sans-Serif" font-size="10.00">utility</text>
</a>
</g>
</g>
<!-- Node6&#45;&gt;Node19 -->
<g id="edge19" class="edge">
<title>Node6&#45;&gt;Node19</title>
<path fill="none" stroke="midnightblue" d="M106.09,-201.36C91.1,-190 72.54,-175.92 58.74,-165.46"/>
<polygon fill="midnightblue" stroke="midnightblue" points="60.52,-162.43 50.44,-159.17 56.3,-168 60.52,-162.43"/>
</g>
<!-- Node8 -->
<g id="node8" class="node">
<title>Node8</title>
<g id="a_node8"><a xlink:href="debug_8hpp.html" target="_top" xlink:title=" ">
<polygon fill="white" stroke="black" points="285.5,-67.5 285.5,-97.5 404.5,-97.5 404.5,-67.5 285.5,-67.5"/>
<text text-anchor="start" x="293.5" y="-85.5" font-family="Helvetica,sans-Serif" font-size="10.00">packages/macros/inc</text>
<text text-anchor="middle" x="345" y="-74.5" font-family="Helvetica,sans-Serif" font-size="10.00">/debug.hpp</text>
</a>
</g>
</g>
<!-- Node7&#45;&gt;Node8 -->
<g id="edge7" class="edge">
<title>Node7&#45;&gt;Node8</title>
<path fill="none" stroke="midnightblue" d="M428,-134.4C413,-125.2 393.21,-113.07 376.73,-102.95"/>
<polygon fill="midnightblue" stroke="midnightblue" points="378.31,-99.82 367.96,-97.58 374.65,-105.79 378.31,-99.82"/>
</g>
<!-- Node11 -->
<g id="node11" class="node">
<title>Node11</title>
<g id="a_node11"><a xlink:title=" ">
<polygon fill="white" stroke="#bfbfbf" points="422.5,-73 422.5,-92 475.5,-92 475.5,-73 422.5,-73"/>
<text text-anchor="middle" x="449" y="-80" font-family="Helvetica,sans-Serif" font-size="10.00">cstddef</text>
</a>
</g>
</g>
<!-- Node7&#45;&gt;Node11 -->
<g id="edge10" class="edge">
<title>Node7&#45;&gt;Node11</title>
<path fill="none" stroke="midnightblue" d="M450.57,-134.4C450.28,-125.06 449.9,-112.71 449.59,-102.52"/>
<polygon fill="midnightblue" stroke="midnightblue" points="453.07,-102.08 449.27,-92.19 446.08,-102.3 453.07,-102.08"/>
</g>
<!-- Node12 -->
<g id="node12" class="node">
<title>Node12</title>
<g id="a_node12"><a xlink:title=" ">
<polygon fill="white" stroke="#bfbfbf" points="736,-73 736,-92 780,-92 780,-73 736,-73"/>
<text text-anchor="middle" x="758" y="-80" font-family="Helvetica,sans-Serif" font-size="10.00">string</text>
</a>
</g>
</g>
<!-- Node7&#45;&gt;Node12 -->
<g id="edge11" class="edge">
<title>Node7&#45;&gt;Node12</title>
<path fill="none" stroke="midnightblue" d="M506.24,-136.8C570.36,-123.23 673.93,-101.3 725.98,-90.28"/>
<polygon fill="midnightblue" stroke="midnightblue" points="726.92,-93.66 735.97,-88.16 725.47,-86.81 726.92,-93.66"/>
</g>
<!-- Node7&#45;&gt;Node13 -->
<g id="edge12" class="edge">
<title>Node7&#45;&gt;Node13</title>
<path fill="none" stroke="midnightblue" d="M395.74,-135.88C392.45,-135.22 389.18,-134.59 386,-134 276.9,-113.91 246.89,-123.83 139,-98 135.6,-97.19 132.09,-96.22 128.61,-95.18"/>
<polygon fill="midnightblue" stroke="midnightblue" points="129.58,-91.81 118.99,-92.1 127.45,-98.48 129.58,-91.81"/>
</g>
<!-- Node14 -->
<g id="node14" class="node">
<title>Node14</title>
<g id="a_node14"><a xlink:title=" ">
<polygon fill="white" stroke="#bfbfbf" points="494,-73 494,-92 544,-92 544,-73 494,-73"/>
<text text-anchor="middle" x="519" y="-80" font-family="Helvetica,sans-Serif" font-size="10.00">climits</text>
</a>
</g>
</g>
<!-- Node7&#45;&gt;Node14 -->
<g id="edge13" class="edge">
<title>Node7&#45;&gt;Node14</title>
<path fill="none" stroke="midnightblue" d="M465.75,-134.4C476.57,-124.06 491.25,-110.02 502.46,-99.31"/>
<polygon fill="midnightblue" stroke="midnightblue" points="505.09,-101.63 509.9,-92.19 500.26,-96.57 505.09,-101.63"/>
</g>
<!-- Node15 -->
<g id="node15" class="node">
<title>Node15</title>
<g id="a_node15"><a xlink:title=" ">
<polygon fill="white" stroke="#bfbfbf" points="562.5,-67.5 562.5,-97.5 679.5,-97.5 679.5,-67.5 562.5,-67.5"/>
<text text-anchor="start" x="570.5" y="-85.5" font-family="Helvetica,sans-Serif" font-size="10.00">packages/types/impl</text>
<text text-anchor="middle" x="621" y="-74.5" font-family="Helvetica,sans-Serif" font-size="10.00">/types_impl.hpp</text>
</a>
</g>
</g>
<!-- Node7&#45;&gt;Node15 -->
<g id="edge14" class="edge">
<title>Node7&#45;&gt;Node15</title>
<path fill="none" stroke="midnightblue" d="M487.89,-134.4C513.39,-124.64 547.52,-111.59 574.83,-101.15"/>
<polygon fill="midnightblue" stroke="midnightblue" points="576.09,-104.42 584.18,-97.58 573.59,-97.88 576.09,-104.42"/>
</g>
<!-- Node16 -->
<g id="node16" class="node">
<title>Node16</title>
<g id="a_node16"><a xlink:href="logging_8hpp.html" target="_top" xlink:title=" ">
<polygon fill="white" stroke="black" points="148.5,-67.5 148.5,-97.5 267.5,-97.5 267.5,-67.5 148.5,-67.5"/>
<text text-anchor="start" x="156.5" y="-85.5" font-family="Helvetica,sans-Serif" font-size="10.00">packages/macros/inc</text>
<text text-anchor="middle" x="208" y="-74.5" font-family="Helvetica,sans-Serif" font-size="10.00">/logging.hpp</text>
</a>
</g>
</g>
<!-- Node7&#45;&gt;Node16 -->
<g id="edge15" class="edge">
<title>Node7&#45;&gt;Node16</title>
<path fill="none" stroke="midnightblue" d="M398.57,-134.48C361.01,-124.43 310.27,-110.86 270.59,-100.24"/>
<polygon fill="midnightblue" stroke="midnightblue" points="271.32,-96.81 260.75,-97.61 269.51,-103.58 271.32,-96.81"/>
</g>
<!-- Node9 -->
<g id="node9" class="node">
<title>Node9</title>
<g id="a_node9"><a xlink:href="detail_8hpp.html" target="_top" xlink:title=" ">
<polygon fill="white" stroke="black" points="648.5,-0.5 648.5,-30.5 767.5,-30.5 767.5,-0.5 648.5,-0.5"/>
<text text-anchor="start" x="656.5" y="-18.5" font-family="Helvetica,sans-Serif" font-size="10.00">packages/macros/inc</text>
<text text-anchor="middle" x="708" y="-7.5" font-family="Helvetica,sans-Serif" font-size="10.00">/detail.hpp</text>
</a>
</g>
</g>
<!-- Node8&#45;&gt;Node9 -->
<g id="edge8" class="edge">
<title>Node8&#45;&gt;Node9</title>
<path fill="none" stroke="midnightblue" d="M404.68,-68.63C407.49,-68.07 410.27,-67.52 413,-67 489.82,-52.24 578.3,-37.38 638.17,-27.64"/>
<polygon fill="midnightblue" stroke="midnightblue" points="638.95,-31.05 648.26,-26 637.83,-24.14 638.95,-31.05"/>
</g>
<!-- Node10 -->
<g id="node10" class="node">
<title>Node10</title>
<g id="a_node10"><a xlink:title=" ">
<polygon fill="white" stroke="#bfbfbf" points="315,-6 315,-25 375,-25 375,-6 315,-6"/>
<text text-anchor="middle" x="345" y="-13" font-family="Helvetica,sans-Serif" font-size="10.00">iostream</text>
</a>
</g>
</g>
<!-- Node8&#45;&gt;Node10 -->
<g id="edge9" class="edge">
<title>Node8&#45;&gt;Node10</title>
<path fill="none" stroke="midnightblue" d="M345,-67.4C345,-58.06 345,-45.71 345,-35.52"/>
<polygon fill="midnightblue" stroke="midnightblue" points="348.5,-35.19 345,-25.19 341.5,-35.19 348.5,-35.19"/>
</g>
<!-- Node23 -->
<g id="node23" class="node">
<title>Node23</title>
<g id="a_node23"><a xlink:href="iterator__concepts_8hpp.html" target="_top" xlink:title=" ">
<polygon fill="white" stroke="black" points="401,-279.5 401,-320.5 533,-320.5 533,-279.5 401,-279.5"/>
<text text-anchor="start" x="409" y="-308.5" font-family="Helvetica,sans-Serif" font-size="10.00">packages/compile_time</text>
<text text-anchor="start" x="409" y="-297.5" font-family="Helvetica,sans-Serif" font-size="10.00">/packages/concepts/inc</text>
<text text-anchor="middle" x="467" y="-286.5" font-family="Helvetica,sans-Serif" font-size="10.00">/iterator_concepts.hpp</text>
</a>
</g>
</g>
<!-- Node22&#45;&gt;Node23 -->
<g id="edge23" class="edge">
<title>Node22&#45;&gt;Node23</title>
<path fill="none" stroke="midnightblue" d="M492.24,-357.43C488.48,-349.01 484,-338.99 479.86,-329.75"/>
<polygon fill="midnightblue" stroke="midnightblue" points="483,-328.2 475.73,-320.51 476.62,-331.06 483,-328.2"/>
</g>
<!-- Node23&#45;&gt;Node4 -->
<g id="edge32" class="edge">
<title>Node23&#45;&gt;Node4</title>
<path fill="none" stroke="midnightblue" d="M533.08,-291.83C648.34,-279.15 877.3,-253.16 913,-243 930.95,-237.89 1037.2,-187.65 1087.99,-163.42"/>
<polygon fill="midnightblue" stroke="midnightblue" points="1089.56,-166.55 1097.08,-159.09 1086.55,-160.24 1089.56,-166.55"/>
</g>
<!-- Node23&#45;&gt;Node6 -->
<g id="edge24" class="edge">
<title>Node23&#45;&gt;Node6</title>
<path fill="none" stroke="midnightblue" d="M400.81,-285.67C350.51,-275.32 279.39,-260.24 208.25,-243.25"/>
<polygon fill="midnightblue" stroke="midnightblue" points="208.75,-239.77 198.21,-240.84 207.12,-246.58 208.75,-239.77"/>
</g>
<!-- Node24 -->
<g id="node24" class="node">
<title>Node24</title>
<g id="a_node24"><a xlink:href="Size_8hpp.html" target="_top" xlink:title=" ">
<polygon fill="white" stroke="black" points="454,-201.5 454,-242.5 602,-242.5 602,-201.5 454,-201.5"/>
<text text-anchor="start" x="462" y="-230.5" font-family="Helvetica,sans-Serif" font-size="10.00">packages/compile_time</text>
<text text-anchor="start" x="462" y="-219.5" font-family="Helvetica,sans-Serif" font-size="10.00">/packages/parameter_pack</text>
<text text-anchor="middle" x="528" y="-208.5" font-family="Helvetica,sans-Serif" font-size="10.00">/inc/Size.hpp</text>
</a>
</g>
</g>
<!-- Node23&#45;&gt;Node24 -->
<g id="edge25" class="edge">
<title>Node23&#45;&gt;Node24</title>
<path fill="none" stroke="midnightblue" d="M482.71,-279.43C489.75,-270.65 498.19,-260.15 505.86,-250.59"/>
<polygon fill="midnightblue" stroke="midnightblue" points="508.81,-252.5 512.34,-242.51 503.36,-248.11 508.81,-252.5"/>
</g>
<!-- Node25 -->
<g id="node25" class="node">
<title>Node25</title>
<g id="a_node25"><a xlink:href="Select_8hpp.html" target="_top" xlink:title=" ">
<polygon fill="white" stroke="black" points="288,-201.5 288,-242.5 436,-242.5 436,-201.5 288,-201.5"/>
<text text-anchor="start" x="296" y="-230.5" font-family="Helvetica,sans-Serif" font-size="10.00">packages/compile_time</text>
<text text-anchor="start" x="296" y="-219.5" font-family="Helvetica,sans-Serif" font-size="10.00">/packages/parameter_pack</text>
<text text-anchor="middle" x="362" y="-208.5" font-family="Helvetica,sans-Serif" font-size="10.00">/inc/Select.hpp</text>
</a>
</g>
</g>
<!-- Node23&#45;&gt;Node25 -->
<g id="edge27" class="edge">
<title>Node23&#45;&gt;Node25</title>
<path fill="none" stroke="midnightblue" d="M439.96,-279.43C426.98,-270.03 411.25,-258.65 397.34,-248.58"/>
<polygon fill="midnightblue" stroke="midnightblue" points="399.1,-245.53 388.95,-242.51 395,-251.2 399.1,-245.53"/>
</g>
<!-- Node27 -->
<g id="node27" class="node">
<title>Node27</title>
<g id="a_node27"><a xlink:title=" ">
<polygon fill="white" stroke="#bfbfbf" points="216.5,-212.5 216.5,-231.5 269.5,-231.5 269.5,-212.5 216.5,-212.5"/>
<text text-anchor="middle" x="243" y="-219.5" font-family="Helvetica,sans-Serif" font-size="10.00">iterator</text>
</a>
</g>
</g>
<!-- Node23&#45;&gt;Node27 -->
<g id="edge31" class="edge">
<title>Node23&#45;&gt;Node27</title>
<path fill="none" stroke="midnightblue" d="M400.96,-283.1C364.35,-273.36 318.39,-259.58 279,-243 274.58,-241.14 270.01,-238.88 265.66,-236.56"/>
<polygon fill="midnightblue" stroke="midnightblue" points="267.1,-233.36 256.67,-231.52 263.67,-239.46 267.1,-233.36"/>
</g>
<!-- Node24&#45;&gt;Node7 -->
<g id="edge26" class="edge">
<title>Node24&#45;&gt;Node7</title>
<path fill="none" stroke="midnightblue" d="M506.55,-201.36C496.48,-192.14 484.46,-181.13 474.18,-171.72"/>
<polygon fill="midnightblue" stroke="midnightblue" points="476.46,-169.06 466.72,-164.89 471.73,-174.23 476.46,-169.06"/>
</g>
<!-- Node25&#45;&gt;Node7 -->
<g id="edge28" class="edge">
<title>Node25&#45;&gt;Node7</title>
<path fill="none" stroke="midnightblue" d="M386.79,-201.36C398.74,-191.89 413.07,-180.54 425.16,-170.97"/>
<polygon fill="midnightblue" stroke="midnightblue" points="427.45,-173.62 433.11,-164.67 423.1,-168.14 427.45,-173.62"/>
</g>
<!-- Node25&#45;&gt;Node13 -->
<g id="edge29" class="edge">
<title>Node25&#45;&gt;Node13</title>
<path fill="none" stroke="midnightblue" d="M343.89,-201.34C324.78,-181.69 292.93,-151.89 260,-134 210.7,-107.21 192.48,-114.97 139,-98 136.25,-97.13 133.42,-96.21 130.57,-95.28"/>
<polygon fill="midnightblue" stroke="midnightblue" points="131.55,-91.92 120.96,-92.09 129.35,-98.56 131.55,-91.92"/>
</g>
<!-- Node26 -->
<g id="node26" class="node">
<title>Node26</title>
<g id="a_node26"><a xlink:title=" ">
<polygon fill="white" stroke="#bfbfbf" points="336.5,-140 336.5,-159 377.5,-159 377.5,-140 336.5,-140"/>
<text text-anchor="middle" x="357" y="-147" font-family="Helvetica,sans-Serif" font-size="10.00">tuple</text>
</a>
</g>
</g>
<!-- Node25&#45;&gt;Node26 -->
<g id="edge30" class="edge">
<title>Node25&#45;&gt;Node26</title>
<path fill="none" stroke="midnightblue" d="M360.61,-201.36C359.89,-191.3 359.03,-179.1 358.32,-169.18"/>
<polygon fill="midnightblue" stroke="midnightblue" points="361.81,-168.9 357.62,-159.17 354.83,-169.4 361.81,-168.9"/>
</g>
<!-- Node28&#45;&gt;Node9 -->
<g id="edge46" class="edge">
<title>Node28&#45;&gt;Node9</title>
<path fill="none" stroke="midnightblue" d="M785.81,-362.91C898.07,-322.12 1205.73,-202.46 1153,-134 1107.44,-74.86 891.3,-39.45 777.88,-24.64"/>
<polygon fill="midnightblue" stroke="midnightblue" points="778.26,-21.16 767.89,-23.36 777.36,-28.1 778.26,-21.16"/>
</g>
<!-- Node28&#45;&gt;Node20 -->
<g id="edge50" class="edge">
<title>Node28&#45;&gt;Node20</title>
<path fill="none" stroke="midnightblue" d="M719.74,-362.92C703.94,-353.16 684.7,-338.73 673,-321 656.93,-296.64 651.19,-262.6 649.14,-241.72"/>
<polygon fill="midnightblue" stroke="midnightblue" points="652.62,-241.31 648.34,-231.62 645.64,-241.86 652.62,-241.31"/>
</g>
<!-- Node29 -->
<g id="node29" class="node">
<title>Node29</title>
<g id="a_node29"><a xlink:href="exception_8hpp.html" target="_top" xlink:title=" ">
<polygon fill="white" stroke="black" points="784.5,-207 784.5,-237 903.5,-237 903.5,-207 784.5,-207"/>
<text text-anchor="start" x="792.5" y="-225" font-family="Helvetica,sans-Serif" font-size="10.00">packages/exceptions</text>
<text text-anchor="middle" x="844" y="-214" font-family="Helvetica,sans-Serif" font-size="10.00">/inc/exception.hpp</text>
</a>
</g>
</g>
<!-- Node28&#45;&gt;Node29 -->
<g id="edge34" class="edge">
<title>Node28&#45;&gt;Node29</title>
<path fill="none" stroke="midnightblue" d="M767.69,-362.92C781.79,-352.78 799.61,-337.93 811,-321 826.28,-298.3 835.06,-267.88 839.67,-246.99"/>
<polygon fill="midnightblue" stroke="midnightblue" points="843.13,-247.53 841.71,-237.03 836.27,-246.12 843.13,-247.53"/>
</g>
<!-- Node33 -->
<g id="node33" class="node">
<title>Node33</title>
<g id="a_node33"><a xlink:href="exceptions_8hpp.html" target="_top" xlink:title=" ">
<polygon fill="white" stroke="black" points="682.5,-285 682.5,-315 801.5,-315 801.5,-285 682.5,-285"/>
<text text-anchor="start" x="690.5" y="-303" font-family="Helvetica,sans-Serif" font-size="10.00">packages/macros/inc</text>
<text text-anchor="middle" x="742" y="-292" font-family="Helvetica,sans-Serif" font-size="10.00">/exceptions.hpp</text>
</a>
</g>
</g>
<!-- Node28&#45;&gt;Node33 -->
<g id="edge41" class="edge">
<title>Node28&#45;&gt;Node33</title>
<path fill="none" stroke="midnightblue" d="M745.25,-362.7C744.69,-352.2 743.93,-337.66 743.28,-325.33"/>
<polygon fill="midnightblue" stroke="midnightblue" points="746.77,-325.03 742.75,-315.23 739.78,-325.4 746.77,-325.03"/>
</g>
<!-- Node34 -->
<g id="node34" class="node">
<title>Node34</title>
<g id="a_node34"><a xlink:href="cmake__variables_8hpp.html" target="_top" xlink:title=" ">
<polygon fill="white" stroke="black" points="1215,-290.5 1215,-309.5 1335,-309.5 1335,-290.5 1215,-290.5"/>
<text text-anchor="middle" x="1275" y="-297.5" font-family="Helvetica,sans-Serif" font-size="10.00">cmake_variables.hpp</text>
</a>
</g>
</g>
<!-- Node28&#45;&gt;Node34 -->
<g id="edge47" class="edge">
<title>Node28&#45;&gt;Node34</title>
<path fill="none" stroke="midnightblue" d="M805.58,-365.21C821.29,-362.31 838.25,-359.36 854,-357 992.92,-336.2 1029.1,-341.92 1168,-321 1186.04,-318.28 1205.7,-314.77 1223.18,-311.45"/>
<polygon fill="midnightblue" stroke="midnightblue" points="1224.03,-314.85 1233.19,-309.52 1222.71,-307.97 1224.03,-314.85"/>
</g>
<!-- Node29&#45;&gt;Node4 -->
<g id="edge39" class="edge">
<title>Node29&#45;&gt;Node4</title>
<path fill="none" stroke="midnightblue" d="M903.95,-208.82C951.35,-198.65 1018.98,-182.96 1077,-165 1079.42,-164.25 1081.91,-163.43 1084.4,-162.56"/>
<polygon fill="midnightblue" stroke="midnightblue" points="1085.67,-165.83 1093.86,-159.12 1083.27,-159.25 1085.67,-165.83"/>
</g>
<!-- Node29&#45;&gt;Node7 -->
<g id="edge35" class="edge">
<title>Node29&#45;&gt;Node7</title>
<path fill="none" stroke="midnightblue" d="M784.31,-210.29C712.12,-197.34 591.03,-175.62 516.38,-162.23"/>
<polygon fill="midnightblue" stroke="midnightblue" points="516.62,-158.72 506.16,-160.4 515.39,-165.61 516.62,-158.72"/>
</g>
<!-- Node29&#45;&gt;Node12 -->
<g id="edge37" class="edge">
<title>Node29&#45;&gt;Node12</title>
<path fill="none" stroke="midnightblue" d="M811.63,-206.93C794.41,-197.65 774.64,-183.72 764,-165 753.02,-145.67 753.23,-119.48 755.05,-102.06"/>
<polygon fill="midnightblue" stroke="midnightblue" points="758.53,-102.41 756.37,-92.04 751.59,-101.49 758.53,-102.41"/>
</g>
<!-- Node30 -->
<g id="node30" class="node">
<title>Node30</title>
<g id="a_node30"><a xlink:title=" ">
<polygon fill="white" stroke="#bfbfbf" points="937.5,-140 937.5,-159 1002.5,-159 1002.5,-140 937.5,-140"/>
<text text-anchor="middle" x="970" y="-147" font-family="Helvetica,sans-Serif" font-size="10.00">stdexcept</text>
</a>
</g>
</g>
<!-- Node29&#45;&gt;Node30 -->
<g id="edge36" class="edge">
<title>Node29&#45;&gt;Node30</title>
<path fill="none" stroke="midnightblue" d="M869.2,-206.9C891.47,-194.44 923.74,-176.38 945.73,-164.08"/>
<polygon fill="midnightblue" stroke="midnightblue" points="947.73,-166.97 954.75,-159.03 944.31,-160.86 947.73,-166.97"/>
</g>
<!-- Node31 -->
<g id="node31" class="node">
<title>Node31</title>
<g id="a_node31"><a xlink:title=" ">
<polygon fill="white" stroke="#bfbfbf" points="1020.5,-140 1020.5,-159 1067.5,-159 1067.5,-140 1020.5,-140"/>
<text text-anchor="middle" x="1044" y="-147" font-family="Helvetica,sans-Serif" font-size="10.00">deque</text>
</a>
</g>
</g>
<!-- Node29&#45;&gt;Node31 -->
<g id="edge38" class="edge">
<title>Node29&#45;&gt;Node31</title>
<path fill="none" stroke="midnightblue" d="M890.45,-206.94C924.44,-196.31 971.5,-180.88 1012,-165 1013.42,-164.44 1014.87,-163.86 1016.32,-163.25"/>
<polygon fill="midnightblue" stroke="midnightblue" points="1018.08,-166.3 1025.86,-159.11 1015.3,-159.88 1018.08,-166.3"/>
</g>
<!-- Node32 -->
<g id="node32" class="node">
<title>Node32</title>
<g id="a_node32"><a xlink:title=" ">
<polygon fill="white" stroke="#bfbfbf" points="773,-134.5 773,-164.5 919,-164.5 919,-134.5 773,-134.5"/>
<text text-anchor="start" x="781" y="-152.5" font-family="Helvetica,sans-Serif" font-size="10.00">packages/exceptions</text>
<text text-anchor="middle" x="846" y="-141.5" font-family="Helvetica,sans-Serif" font-size="10.00">/impl/exceptions_impl.hpp</text>
</a>
</g>
</g>
<!-- Node29&#45;&gt;Node32 -->
<g id="edge40" class="edge">
<title>Node29&#45;&gt;Node32</title>
<path fill="none" stroke="midnightblue" d="M844.4,-206.73C844.66,-197.56 845.01,-185.41 845.31,-174.74"/>
<polygon fill="midnightblue" stroke="midnightblue" points="848.81,-174.84 845.6,-164.75 841.81,-174.64 848.81,-174.84"/>
</g>
<!-- Node33&#45;&gt;Node9 -->
<g id="edge43" class="edge">
<title>Node33&#45;&gt;Node9</title>
<path fill="none" stroke="midnightblue" d="M740.31,-284.99C734.89,-239.9 717.83,-98.15 710.93,-40.87"/>
<polygon fill="midnightblue" stroke="midnightblue" points="714.37,-40.1 709.7,-30.59 707.42,-40.94 714.37,-40.1"/>
</g>
<!-- Node33&#45;&gt;Node17 -->
<g id="edge45" class="edge">
<title>Node33&#45;&gt;Node17</title>
<path fill="none" stroke="midnightblue" d="M738.24,-284.76C731.57,-262.66 715.45,-220.61 685,-201 617.78,-157.71 406.4,-174.42 327,-165 305.17,-162.41 280.86,-159.11 261.04,-156.32"/>
<polygon fill="midnightblue" stroke="midnightblue" points="261.51,-152.85 251.12,-154.91 260.53,-159.78 261.51,-152.85"/>
</g>
<!-- Node33&#45;&gt;Node20 -->
<g id="edge44" class="edge">
<title>Node33&#45;&gt;Node20</title>
<path fill="none" stroke="midnightblue" d="M724.32,-284.7C707.83,-271.38 683.34,-251.57 666.57,-238.01"/>
<polygon fill="midnightblue" stroke="midnightblue" points="668.57,-235.13 658.59,-231.56 664.17,-240.57 668.57,-235.13"/>
</g>
<!-- Node33&#45;&gt;Node29 -->
<g id="edge42" class="edge">
<title>Node33&#45;&gt;Node29</title>
<path fill="none" stroke="midnightblue" d="M761.19,-284.7C776.86,-273.03 799.2,-256.38 816.73,-243.32"/>
<polygon fill="midnightblue" stroke="midnightblue" points="818.97,-246.01 824.9,-237.23 814.79,-240.4 818.97,-246.01"/>
</g>
<!-- Node34&#45;&gt;Node12 -->
<g id="edge49" class="edge">
<title>Node34&#45;&gt;Node12</title>
<path fill="none" stroke="midnightblue" d="M1271.54,-290.25C1259.83,-261.96 1218.76,-172.58 1153,-134 1091.59,-97.97 873.3,-87.23 790.32,-84.4"/>
<polygon fill="midnightblue" stroke="midnightblue" points="790.33,-80.9 780.22,-84.08 790.1,-87.9 790.33,-80.9"/>
</g>
<!-- Node34&#45;&gt;Node35 -->
<g id="edge48" class="edge">
<title>Node34&#45;&gt;Node35</title>
<path fill="none" stroke="midnightblue" d="M1282.23,-290.28C1292.48,-277.91 1311.44,-255.04 1324.38,-239.43"/>
<polygon fill="midnightblue" stroke="midnightblue" points="1327.17,-241.55 1330.86,-231.62 1321.78,-237.08 1327.17,-241.55"/>
</g>
</g>
</svg>
        <g id="navigator" transform="translate(0 0)" fill="#404254">
                <rect fill="#f2f5e9" fill-opacity="0.5" stroke="#606060" stroke-width=".5" x="0" y="0" width="60" height="60"/>
                <use id="zoomplus" xlink:href="#zoomPlus" x="17" y="9" onmousedown="handleZoom(evt,'in')"/>
                <use id="zoomminus" xlink:href="#zoomMin" x="42" y="9" onmousedown="handleZoom(evt,'out')"/>
                <use id="reset" xlink:href="#resetDef" x="30" y="36" onmousedown="handleReset()"/>
                <g id="arrowUp" xlink:href="#dirArrow" transform="translate(30 24)" onmousedown="handlePan(0,-1)">
                  <use xlink:href="#rim" fill="#404040">
                        <set attributeName="fill" to="#808080" begin="arrowUp.mouseover" end="arrowUp.mouseout"/>
                  </use>
                  <path fill="none" stroke="white" stroke-width="1.5" d="M0,-3.0v7 M-2.5,-0.5L0,-3.0L2.5,-0.5"/>
                </g>
                <g id="arrowRight" xlink:href="#dirArrow" transform="rotate(90) translate(36 -43)" onmousedown="handlePan(1,0)">
                  <use xlink:href="#rim" fill="#404040">
                        <set attributeName="fill" to="#808080" begin="arrowRight.mouseover" end="arrowRight.mouseout"/>
                  </use>
                  <path fill="none" stroke="white" stroke-width="1.5" d="M0,-3.0v7 M-2.5,-0.5L0,-3.0L2.5,-0.5"/>
                </g>
                <g id="arrowDown" xlink:href="#dirArrow" transform="rotate(180) translate(-30 -48)" onmousedown="handlePan(0,1)">
                  <use xlink:href="#rim" fill="#404040">
                        <set attributeName="fill" to="#808080" begin="arrowDown.mouseover" end="arrowDown.mouseout"/>
                  </use>
                  <path fill="none" stroke="white" stroke-width="1.5" d="M0,-3.0v7 M-2.5,-0.5L0,-3.0L2.5,-0.5"/>
                </g>
                <g id="arrowLeft" xlink:href="#dirArrow" transform="rotate(270) translate(-36 17)" onmousedown="handlePan(-1,0)">
                  <use xlink:href="#rim" fill="#404040">
                        <set attributeName="fill" to="#808080" begin="arrowLeft.mouseover" end="arrowLeft.mouseout"/>
                  </use>
                  <path fill="none" stroke="white" stroke-width="1.5" d="M0,-3.0v7 M-2.5,-0.5L0,-3.0L2.5,-0.5"/>
                </g>
        </g>
        <svg viewBox="0 0 15 15" width="100%" height="30px" preserveAspectRatio="xMaxYMin meet">
         <g id="arrow_out" transform="scale(0.3 0.3)">
          <a xlink:href="FileOutputStream_8hpp__incl_org.svg" target="_base">
           <rect id="button" ry="5" rx="5" y="6" x="6" height="38" width="38"
                fill="#f2f5e9" fill-opacity="0.5" stroke="#606060" stroke-width="1.0"/>
           <path id="arrow"
             d="M 11.500037,31.436501 C 11.940474,20.09759 22.043105,11.32322 32.158766,21.979434 L 37.068811,17.246167 C 37.068811,17.246167 37.088388,32 37.088388,32 L 22.160133,31.978069 C 22.160133,31.978069 26.997745,27.140456 26.997745,27.140456 C 18.528582,18.264221 13.291696,25.230495 11.500037,31.436501 z"
             style="fill:#404040;"/>
          </a>
         </g>
        </svg>
</svg>
