<?xml version="1.0" encoding="UTF-8" standalone="no"?>
<!DOCTYPE svg PUBLIC "-//W3C//DTD SVG 1.1//EN"
 "http://www.w3.org/Graphics/SVG/1.1/DTD/svg11.dtd">
<!-- Generated by graphviz version 2.43.0 (0)
 -->
<!-- Title: functional.hpp Pages: 1 -->
<svg width="688pt" height="296pt"
 viewBox="0.00 0.00 688.00 296.00" xmlns="http://www.w3.org/2000/svg" xmlns:xlink="http://www.w3.org/1999/xlink">
<g id="graph0" class="graph" transform="scale(1 1) rotate(0) translate(4 292)">
<title>functional.hpp</title>
<polygon fill="white" stroke="transparent" points="-4,4 -4,-292 684,-292 684,4 -4,4"/>
<!-- Node1 -->
<g id="node1" class="node">
<title>Node1</title>
<g id="a_node1"><a xlink:title=" ">
<polygon fill="#bfbfbf" stroke="black" points="379.5,-268.5 379.5,-287.5 465.5,-287.5 465.5,-268.5 379.5,-268.5"/>
<text text-anchor="middle" x="422.5" y="-275.5" font-family="Helvetica,sans-Serif" font-size="10.00">functional.hpp</text>
</a>
</g>
</g>
<!-- Node2 -->
<g id="node2" class="node">
<title>Node2</title>
<g id="a_node2"><a xlink:href="FunctionTraits_8hpp.html" target="_top" xlink:title=" ">
<polygon fill="white" stroke="black" points="263,-201.5 263,-231.5 394,-231.5 394,-201.5 263,-201.5"/>
<text text-anchor="start" x="271" y="-219.5" font-family="Helvetica,sans-Serif" font-size="10.00">packages/stl_extension</text>
<text text-anchor="middle" x="328.5" y="-208.5" font-family="Helvetica,sans-Serif" font-size="10.00">/inc/FunctionTraits.hpp</text>
</a>
</g>
</g>
<!-- Node1&#45;&gt;Node2 -->
<g id="edge1" class="edge">
<title>Node1&#45;&gt;Node2</title>
<path fill="none" stroke="midnightblue" d="M409.03,-268.48C396.06,-260.27 375.99,-247.56 359.12,-236.88"/>
<polygon fill="midnightblue" stroke="midnightblue" points="360.98,-233.91 350.65,-231.52 357.23,-239.83 360.98,-233.91"/>
</g>
<!-- Node9 -->
<g id="node9" class="node">
<title>Node9</title>
<g id="a_node9"><a xlink:title=" ">
<polygon fill="white" stroke="#bfbfbf" points="611,-73 611,-92 680,-92 680,-73 611,-73"/>
<text text-anchor="middle" x="645.5" y="-80" font-family="Helvetica,sans-Serif" font-size="10.00">type_traits</text>
</a>
</g>
</g>
<!-- Node1&#45;&gt;Node9 -->
<g id="edge16" class="edge">
<title>Node1&#45;&gt;Node9</title>
<path fill="none" stroke="midnightblue" d="M429.54,-268.07C441.36,-253.33 466.29,-223.32 490.5,-201 535.02,-159.96 593.21,-118.77 624.08,-97.77"/>
<polygon fill="midnightblue" stroke="midnightblue" points="626.06,-100.66 632.39,-92.16 622.14,-94.86 626.06,-100.66"/>
</g>
<!-- Node13 -->
<g id="node13" class="node">
<title>Node13</title>
<g id="a_node13"><a xlink:title=" ">
<polygon fill="white" stroke="#bfbfbf" points="190,-140 190,-159 255,-159 255,-140 190,-140"/>
<text text-anchor="middle" x="222.5" y="-147" font-family="Helvetica,sans-Serif" font-size="10.00">functional</text>
</a>
</g>
</g>
<!-- Node1&#45;&gt;Node13 -->
<g id="edge15" class="edge">
<title>Node1&#45;&gt;Node13</title>
<path fill="none" stroke="midnightblue" d="M379.16,-275.93C341.88,-272.78 288.84,-262.68 254.5,-232 236.2,-215.65 228.26,-187.52 224.88,-168.96"/>
<polygon fill="midnightblue" stroke="midnightblue" points="228.34,-168.41 223.35,-159.07 221.42,-169.49 228.34,-168.41"/>
</g>
<!-- Node14 -->
<g id="node14" class="node">
<title>Node14</title>
<g id="a_node14"><a xlink:title=" ">
<polygon fill="white" stroke="#bfbfbf" points="402,-140 402,-159 443,-159 443,-140 402,-140"/>
<text text-anchor="middle" x="422.5" y="-147" font-family="Helvetica,sans-Serif" font-size="10.00">tuple</text>
</a>
</g>
</g>
<!-- Node1&#45;&gt;Node14 -->
<g id="edge17" class="edge">
<title>Node1&#45;&gt;Node14</title>
<path fill="none" stroke="midnightblue" d="M422.5,-268.31C422.5,-247.99 422.5,-197.05 422.5,-169.28"/>
<polygon fill="midnightblue" stroke="midnightblue" points="426,-169.26 422.5,-159.26 419,-169.26 426,-169.26"/>
</g>
<!-- Node15 -->
<g id="node15" class="node">
<title>Node15</title>
<g id="a_node15"><a xlink:title=" ">
<polygon fill="white" stroke="#bfbfbf" points="499.5,-207 499.5,-226 559.5,-226 559.5,-207 499.5,-207"/>
<text text-anchor="middle" x="529.5" y="-214" font-family="Helvetica,sans-Serif" font-size="10.00">concepts</text>
</a>
</g>
</g>
<!-- Node1&#45;&gt;Node15 -->
<g id="edge14" class="edge">
<title>Node1&#45;&gt;Node15</title>
<path fill="none" stroke="midnightblue" d="M437.83,-268.48C455.47,-258.67 484.66,-242.43 505.36,-230.92"/>
<polygon fill="midnightblue" stroke="midnightblue" points="507.16,-233.93 514.2,-226.01 503.76,-227.81 507.16,-233.93"/>
</g>
<!-- Node3 -->
<g id="node3" class="node">
<title>Node3</title>
<g id="a_node3"><a xlink:href="types_8hpp.html" target="_top" xlink:title=" ">
<polygon fill="white" stroke="black" points="273.5,-134.5 273.5,-164.5 383.5,-164.5 383.5,-134.5 273.5,-134.5"/>
<text text-anchor="start" x="281.5" y="-152.5" font-family="Helvetica,sans-Serif" font-size="10.00">packages/types/inc</text>
<text text-anchor="middle" x="328.5" y="-141.5" font-family="Helvetica,sans-Serif" font-size="10.00">/types.hpp</text>
</a>
</g>
</g>
<!-- Node2&#45;&gt;Node3 -->
<g id="edge2" class="edge">
<title>Node2&#45;&gt;Node3</title>
<path fill="none" stroke="midnightblue" d="M328.5,-201.4C328.5,-193.64 328.5,-183.81 328.5,-174.86"/>
<polygon fill="midnightblue" stroke="midnightblue" points="332,-174.58 328.5,-164.58 325,-174.58 332,-174.58"/>
</g>
<!-- Node2&#45;&gt;Node13 -->
<g id="edge12" class="edge">
<title>Node2&#45;&gt;Node13</title>
<path fill="none" stroke="midnightblue" d="M305.5,-201.4C287.56,-190.39 262.78,-175.2 244.98,-164.28"/>
<polygon fill="midnightblue" stroke="midnightblue" points="246.73,-161.25 236.37,-159.01 243.07,-167.22 246.73,-161.25"/>
</g>
<!-- Node2&#45;&gt;Node14 -->
<g id="edge13" class="edge">
<title>Node2&#45;&gt;Node14</title>
<path fill="none" stroke="midnightblue" d="M348.9,-201.4C364.51,-190.6 385.98,-175.76 401.69,-164.89"/>
<polygon fill="midnightblue" stroke="midnightblue" points="403.96,-167.57 410.2,-159.01 399.98,-161.82 403.96,-167.57"/>
</g>
<!-- Node4 -->
<g id="node4" class="node">
<title>Node4</title>
<g id="a_node4"><a xlink:href="debug_8hpp.html" target="_top" xlink:title=" ">
<polygon fill="white" stroke="black" points="474,-67.5 474,-97.5 593,-97.5 593,-67.5 474,-67.5"/>
<text text-anchor="start" x="482" y="-85.5" font-family="Helvetica,sans-Serif" font-size="10.00">packages/macros/inc</text>
<text text-anchor="middle" x="533.5" y="-74.5" font-family="Helvetica,sans-Serif" font-size="10.00">/debug.hpp</text>
</a>
</g>
</g>
<!-- Node3&#45;&gt;Node4 -->
<g id="edge3" class="edge">
<title>Node3&#45;&gt;Node4</title>
<path fill="none" stroke="midnightblue" d="M372.73,-134.48C404.01,-124.56 446.14,-111.2 479.42,-100.65"/>
<polygon fill="midnightblue" stroke="midnightblue" points="480.52,-103.97 489,-97.61 478.41,-97.3 480.52,-103.97"/>
</g>
<!-- Node7 -->
<g id="node7" class="node">
<title>Node7</title>
<g id="a_node7"><a xlink:title=" ">
<polygon fill="white" stroke="#bfbfbf" points="0,-73 0,-92 53,-92 53,-73 0,-73"/>
<text text-anchor="middle" x="26.5" y="-80" font-family="Helvetica,sans-Serif" font-size="10.00">cstddef</text>
</a>
</g>
</g>
<!-- Node3&#45;&gt;Node7 -->
<g id="edge6" class="edge">
<title>Node3&#45;&gt;Node7</title>
<path fill="none" stroke="midnightblue" d="M273.38,-135.84C270.38,-135.2 267.4,-134.59 264.5,-134 175.12,-115.92 150.15,-123.17 62.5,-98 60.06,-97.3 57.57,-96.49 55.08,-95.62"/>
<polygon fill="midnightblue" stroke="midnightblue" points="56.26,-92.33 45.67,-92.07 53.79,-98.88 56.26,-92.33"/>
</g>
<!-- Node8 -->
<g id="node8" class="node">
<title>Node8</title>
<g id="a_node8"><a xlink:title=" ">
<polygon fill="white" stroke="#bfbfbf" points="71.5,-73 71.5,-92 115.5,-92 115.5,-73 71.5,-73"/>
<text text-anchor="middle" x="93.5" y="-80" font-family="Helvetica,sans-Serif" font-size="10.00">string</text>
</a>
</g>
</g>
<!-- Node3&#45;&gt;Node8 -->
<g id="edge7" class="edge">
<title>Node3&#45;&gt;Node8</title>
<path fill="none" stroke="midnightblue" d="M273.35,-135.43C217.87,-122.19 138.56,-102.97 124.5,-98 122.88,-97.43 121.24,-96.8 119.59,-96.14"/>
<polygon fill="midnightblue" stroke="midnightblue" points="120.87,-92.88 110.31,-92.09 118.07,-99.29 120.87,-92.88"/>
</g>
<!-- Node3&#45;&gt;Node9 -->
<g id="edge8" class="edge">
<title>Node3&#45;&gt;Node9</title>
<path fill="none" stroke="midnightblue" d="M383.78,-135.98C387.07,-135.29 390.32,-134.63 393.5,-134 485.97,-115.73 511.12,-121.13 602.5,-98 605.71,-97.19 609.02,-96.25 612.32,-95.26"/>
<polygon fill="midnightblue" stroke="midnightblue" points="613.58,-98.53 622.04,-92.14 611.45,-91.86 613.58,-98.53"/>
</g>
<!-- Node10 -->
<g id="node10" class="node">
<title>Node10</title>
<g id="a_node10"><a xlink:title=" ">
<polygon fill="white" stroke="#bfbfbf" points="133.5,-73 133.5,-92 183.5,-92 183.5,-73 133.5,-73"/>
<text text-anchor="middle" x="158.5" y="-80" font-family="Helvetica,sans-Serif" font-size="10.00">climits</text>
</a>
</g>
</g>
<!-- Node3&#45;&gt;Node10 -->
<g id="edge9" class="edge">
<title>Node3&#45;&gt;Node10</title>
<path fill="none" stroke="midnightblue" d="M289.03,-134.41C261.78,-124.54 224.79,-110.87 192.5,-98 190.9,-97.36 189.27,-96.7 187.62,-96.02"/>
<polygon fill="midnightblue" stroke="midnightblue" points="188.79,-92.72 178.21,-92.09 186.09,-99.18 188.79,-92.72"/>
</g>
<!-- Node11 -->
<g id="node11" class="node">
<title>Node11</title>
<g id="a_node11"><a xlink:title=" ">
<polygon fill="white" stroke="#bfbfbf" points="202,-67.5 202,-97.5 319,-97.5 319,-67.5 202,-67.5"/>
<text text-anchor="start" x="210" y="-85.5" font-family="Helvetica,sans-Serif" font-size="10.00">packages/types/impl</text>
<text text-anchor="middle" x="260.5" y="-74.5" font-family="Helvetica,sans-Serif" font-size="10.00">/types_impl.hpp</text>
</a>
</g>
</g>
<!-- Node3&#45;&gt;Node11 -->
<g id="edge10" class="edge">
<title>Node3&#45;&gt;Node11</title>
<path fill="none" stroke="midnightblue" d="M313.75,-134.4C304.66,-125.71 292.83,-114.4 282.63,-104.66"/>
<polygon fill="midnightblue" stroke="midnightblue" points="284.87,-101.96 275.23,-97.58 280.04,-107.02 284.87,-101.96"/>
</g>
<!-- Node12 -->
<g id="node12" class="node">
<title>Node12</title>
<g id="a_node12"><a xlink:href="logging_8hpp.html" target="_top" xlink:title=" ">
<polygon fill="white" stroke="black" points="337,-67.5 337,-97.5 456,-97.5 456,-67.5 337,-67.5"/>
<text text-anchor="start" x="345" y="-85.5" font-family="Helvetica,sans-Serif" font-size="10.00">packages/macros/inc</text>
<text text-anchor="middle" x="396.5" y="-74.5" font-family="Helvetica,sans-Serif" font-size="10.00">/logging.hpp</text>
</a>
</g>
</g>
<!-- Node3&#45;&gt;Node12 -->
<g id="edge11" class="edge">
<title>Node3&#45;&gt;Node12</title>
<path fill="none" stroke="midnightblue" d="M343.25,-134.4C352.34,-125.71 364.17,-114.4 374.37,-104.66"/>
<polygon fill="midnightblue" stroke="midnightblue" points="376.96,-107.02 381.77,-97.58 372.13,-101.96 376.96,-107.02"/>
</g>
<!-- Node5 -->
<g id="node5" class="node">
<title>Node5</title>
<g id="a_node5"><a xlink:href="detail_8hpp.html" target="_top" xlink:title=" ">
<polygon fill="white" stroke="black" points="420,-0.5 420,-30.5 539,-30.5 539,-0.5 420,-0.5"/>
<text text-anchor="start" x="428" y="-18.5" font-family="Helvetica,sans-Serif" font-size="10.00">packages/macros/inc</text>
<text text-anchor="middle" x="479.5" y="-7.5" font-family="Helvetica,sans-Serif" font-size="10.00">/detail.hpp</text>
</a>
</g>
</g>
<!-- Node4&#45;&gt;Node5 -->
<g id="edge4" class="edge">
<title>Node4&#45;&gt;Node5</title>
<path fill="none" stroke="midnightblue" d="M521.78,-67.4C514.78,-58.96 505.73,-48.07 497.79,-38.52"/>
<polygon fill="midnightblue" stroke="midnightblue" points="500.28,-36.03 491.19,-30.58 494.89,-40.51 500.28,-36.03"/>
</g>
<!-- Node6 -->
<g id="node6" class="node">
<title>Node6</title>
<g id="a_node6"><a xlink:title=" ">
<polygon fill="white" stroke="#bfbfbf" points="557.5,-6 557.5,-25 617.5,-25 617.5,-6 557.5,-6"/>
<text text-anchor="middle" x="587.5" y="-13" font-family="Helvetica,sans-Serif" font-size="10.00">iostream</text>
</a>
</g>
</g>
<!-- Node4&#45;&gt;Node6 -->
<g id="edge5" class="edge">
<title>Node4&#45;&gt;Node6</title>
<path fill="none" stroke="midnightblue" d="M545.22,-67.4C553.64,-57.26 565.01,-43.57 573.84,-32.94"/>
<polygon fill="midnightblue" stroke="midnightblue" points="576.58,-35.12 580.28,-25.19 571.19,-30.65 576.58,-35.12"/>
</g>
</g>
</svg>
