<?xml version="1.0" encoding="UTF-8" standalone="no"?>
<!DOCTYPE svg PUBLIC "-//W3C//DTD SVG 1.1//EN"
 "http://www.w3.org/Graphics/SVG/1.1/DTD/svg11.dtd">
<!-- Generated by graphviz version 2.43.0 (0)
 -->
<!-- Title: functional.hpp Pages: 1 -->
<svg width="402pt" height="84pt"
 viewBox="0.00 0.00 401.50 84.00" xmlns="http://www.w3.org/2000/svg" xmlns:xlink="http://www.w3.org/1999/xlink">
<g id="graph0" class="graph" transform="scale(1 1) rotate(0) translate(4 80)">
<title>functional.hpp</title>
<polygon fill="white" stroke="transparent" points="-4,4 -4,-80 397.5,-80 397.5,4 -4,4"/>
<!-- Node1 -->
<g id="node1" class="node">
<title>Node1</title>
<g id="a_node1"><a xlink:title=" ">
<polygon fill="#bfbfbf" stroke="black" points="158,-56.5 158,-75.5 244,-75.5 244,-56.5 158,-56.5"/>
<text text-anchor="middle" x="201" y="-63.5" font-family="Helvetica,sans-Serif" font-size="10.00">functional.hpp</text>
</a>
</g>
</g>
<!-- Node2 -->
<g id="node2" class="node">
<title>Node2</title>
<g id="a_node2"><a xlink:href="ArgumentMapper_8hpp.html" target="_top" xlink:title=" ">
<polygon fill="white" stroke="black" points="0,-0.5 0,-19.5 122,-19.5 122,-0.5 0,-0.5"/>
<text text-anchor="middle" x="61" y="-7.5" font-family="Helvetica,sans-Serif" font-size="10.00">ArgumentMapper.hpp</text>
</a>
</g>
</g>
<!-- Node1&#45;&gt;Node2 -->
<g id="edge1" class="edge">
<title>Node1&#45;&gt;Node2</title>
<path fill="none" stroke="midnightblue" d="M169.3,-52.77C143,-42.63 106.28,-28.47 83.08,-19.52"/>
<polygon fill="midnightblue" stroke="midnightblue" points="168.23,-56.11 178.82,-56.44 170.75,-49.58 168.23,-56.11"/>
</g>
<!-- Node3 -->
<g id="node3" class="node">
<title>Node3</title>
<g id="a_node3"><a xlink:href="TransformIterator_8hpp.html" target="_top" xlink:title=" ">
<polygon fill="white" stroke="black" points="140,-0.5 140,-19.5 262,-19.5 262,-0.5 140,-0.5"/>
<text text-anchor="middle" x="201" y="-7.5" font-family="Helvetica,sans-Serif" font-size="10.00">TransformIterator.hpp</text>
</a>
</g>
</g>
<!-- Node1&#45;&gt;Node3 -->
<g id="edge2" class="edge">
<title>Node1&#45;&gt;Node3</title>
<path fill="none" stroke="midnightblue" d="M201,-45.8C201,-36.91 201,-26.78 201,-19.75"/>
<polygon fill="midnightblue" stroke="midnightblue" points="197.5,-46.08 201,-56.08 204.5,-46.08 197.5,-46.08"/>
</g>
<!-- Node4 -->
<g id="node4" class="node">
<title>Node4</title>
<g id="a_node4"><a xlink:href="ContiguousTree_8hpp.html" target="_top" xlink:title=" ">
<polygon fill="white" stroke="black" points="280.5,-0.5 280.5,-19.5 393.5,-19.5 393.5,-0.5 280.5,-0.5"/>
<text text-anchor="middle" x="337" y="-7.5" font-family="Helvetica,sans-Serif" font-size="10.00">ContiguousTree.hpp</text>
</a>
</g>
</g>
<!-- Node1&#45;&gt;Node4 -->
<g id="edge3" class="edge">
<title>Node1&#45;&gt;Node4</title>
<path fill="none" stroke="midnightblue" d="M232.13,-52.64C257.66,-42.5 293.11,-28.43 315.55,-19.52"/>
<polygon fill="midnightblue" stroke="midnightblue" points="230.55,-49.5 222.55,-56.44 233.14,-56.01 230.55,-49.5"/>
</g>
</g>
</svg>
