<?xml version="1.0" encoding="UTF-8" standalone="no"?>
<!DOCTYPE svg PUBLIC "-//W3C//DTD SVG 1.1//EN"
 "http://www.w3.org/Graphics/SVG/1.1/DTD/svg11.dtd">
<!-- Generated by graphviz version 2.43.0 (0)
 -->
<!-- Title: functional.hpp Pages: 1 -->
<svg width="688pt" height="291pt"
 viewBox="0.00 0.00 688.00 291.00" xmlns="http://www.w3.org/2000/svg" xmlns:xlink="http://www.w3.org/1999/xlink">
<g id="graph0" class="graph" transform="scale(1 1) rotate(0) translate(4 287)">
<title>functional.hpp</title>
<!-- Node1 -->
<g id="Node000001" class="node">
<title>Node1</title>
<g id="a_Node000001"><a xlink:title=" ">
<polygon fill="#999999" stroke="#666666" points="465.5,-283 379.5,-283 379.5,-264 465.5,-264 465.5,-283"/>
<text text-anchor="middle" x="422.5" y="-271" font-family="Helvetica,sans-Serif" font-size="10.00">functional.hpp</text>
</a>
</g>
</g>
<!-- Node2 -->
<g id="Node000002" class="node">
<title>Node2</title>
<g id="a_Node000002"><a xlink:href="FunctionTraits_8hpp.html" target="_top" xlink:title=" ">
<polygon fill="white" stroke="#666666" points="394,-228 263,-228 263,-198 394,-198 394,-228"/>
<text text-anchor="start" x="271" y="-216" font-family="Helvetica,sans-Serif" font-size="10.00">packages/stl_extension</text>
<text text-anchor="middle" x="328.5" y="-205" font-family="Helvetica,sans-Serif" font-size="10.00">/inc/FunctionTraits.hpp</text>
</a>
</g>
</g>
<!-- Node1&#45;&gt;Node2 -->
<g id="edge1_Node000001_Node000002" class="edge">
<title>Node1&#45;&gt;Node2</title>
<g id="a_edge1_Node000001_Node000002"><a xlink:title=" ">
<path fill="none" stroke="#63b8ff" d="M408.63,-263.87C395.88,-255.93 376.5,-243.87 359.99,-233.6"/>
<polygon fill="#63b8ff" stroke="#63b8ff" points="361.52,-230.43 351.18,-228.11 357.82,-236.37 361.52,-230.43"/>
</a>
</g>
</g>
<!-- Node9 -->
<g id="Node000009" class="node">
<title>Node9</title>
<g id="a_Node000009"><a xlink:title=" ">
<polygon fill="#e0e0e0" stroke="#999999" points="680,-90.5 611,-90.5 611,-71.5 680,-71.5 680,-90.5"/>
<text text-anchor="middle" x="645.5" y="-78.5" font-family="Helvetica,sans-Serif" font-size="10.00">type_traits</text>
</a>
</g>
</g>
<!-- Node1&#45;&gt;Node9 -->
<g id="edge16_Node000001_Node000009" class="edge">
<title>Node1&#45;&gt;Node9</title>
<g id="a_edge16_Node000001_Node000009"><a xlink:title=" ">
<path fill="none" stroke="#63b8ff" d="M429.56,-263.74C441.41,-249.3 466.37,-219.88 490.5,-198 534.95,-157.68 592.78,-117.18 623.72,-96.36"/>
<polygon fill="#63b8ff" stroke="#63b8ff" points="626.04,-99.02 632.41,-90.56 622.15,-93.2 626.04,-99.02"/>
</a>
</g>
</g>
<!-- Node13 -->
<g id="Node000013" class="node">
<title>Node13</title>
<g id="a_Node000013"><a xlink:title=" ">
<polygon fill="#e0e0e0" stroke="#999999" points="255,-156.5 190,-156.5 190,-137.5 255,-137.5 255,-156.5"/>
<text text-anchor="middle" x="222.5" y="-144.5" font-family="Helvetica,sans-Serif" font-size="10.00">functional</text>
</a>
</g>
</g>
<!-- Node1&#45;&gt;Node13 -->
<g id="edge15_Node000001_Node000013" class="edge">
<title>Node1&#45;&gt;Node13</title>
<g id="a_edge15_Node000001_Node000013"><a xlink:title=" ">
<path fill="none" stroke="#63b8ff" d="M379.22,-271.52C341.98,-268.45 288.95,-258.5 254.5,-228 236.69,-212.23 228.66,-185.19 225.13,-166.96"/>
<polygon fill="#63b8ff" stroke="#63b8ff" points="228.56,-166.22 223.47,-156.93 221.65,-167.37 228.56,-166.22"/>
</a>
</g>
</g>
<!-- Node14 -->
<g id="Node000014" class="node">
<title>Node14</title>
<g id="a_Node000014"><a xlink:title=" ">
<polygon fill="#e0e0e0" stroke="#999999" points="443,-156.5 402,-156.5 402,-137.5 443,-137.5 443,-156.5"/>
<text text-anchor="middle" x="422.5" y="-144.5" font-family="Helvetica,sans-Serif" font-size="10.00">tuple</text>
</a>
</g>
</g>
<!-- Node1&#45;&gt;Node14 -->
<g id="edge17_Node000001_Node000014" class="edge">
<title>Node1&#45;&gt;Node14</title>
<g id="a_edge17_Node000001_Node000014"><a xlink:title=" ">
<path fill="none" stroke="#63b8ff" d="M422.5,-263.94C422.5,-244.04 422.5,-194.26 422.5,-166.85"/>
<polygon fill="#63b8ff" stroke="#63b8ff" points="426,-166.62 422.5,-156.62 419,-166.62 426,-166.62"/>
</a>
</g>
</g>
<!-- Node15 -->
<g id="Node000015" class="node">
<title>Node15</title>
<g id="a_Node000015"><a xlink:title=" ">
<polygon fill="#e0e0e0" stroke="#999999" points="559.5,-222.5 499.5,-222.5 499.5,-203.5 559.5,-203.5 559.5,-222.5"/>
<text text-anchor="middle" x="529.5" y="-210.5" font-family="Helvetica,sans-Serif" font-size="10.00">concepts</text>
</a>
</g>
</g>
<!-- Node1&#45;&gt;Node15 -->
<g id="edge14_Node000001_Node000015" class="edge">
<title>Node1&#45;&gt;Node15</title>
<g id="a_edge14_Node000001_Node000015"><a xlink:title=" ">
<path fill="none" stroke="#63b8ff" d="M438.29,-263.87C455.83,-254.28 484.38,-238.67 504.87,-227.47"/>
<polygon fill="#63b8ff" stroke="#63b8ff" points="506.55,-230.54 513.65,-222.67 503.19,-224.39 506.55,-230.54"/>
</a>
</g>
</g>
<!-- Node3 -->
<g id="Node000003" class="node">
<title>Node3</title>
<g id="a_Node000003"><a xlink:href="types_8hpp.html" target="_top" xlink:title=" ">
<polygon fill="white" stroke="#666666" points="383.5,-162 273.5,-162 273.5,-132 383.5,-132 383.5,-162"/>
<text text-anchor="start" x="281.5" y="-150" font-family="Helvetica,sans-Serif" font-size="10.00">packages/types/inc</text>
<text text-anchor="middle" x="328.5" y="-139" font-family="Helvetica,sans-Serif" font-size="10.00">/types.hpp</text>
</a>
</g>
</g>
<!-- Node2&#45;&gt;Node3 -->
<g id="edge2_Node000002_Node000003" class="edge">
<title>Node2&#45;&gt;Node3</title>
<g id="a_edge2_Node000002_Node000003"><a xlink:title=" ">
<path fill="none" stroke="#63b8ff" d="M328.5,-197.8C328.5,-190.34 328.5,-180.99 328.5,-172.41"/>
<polygon fill="#63b8ff" stroke="#63b8ff" points="332,-172.16 328.5,-162.16 325,-172.16 332,-172.16"/>
</a>
</g>
</g>
<!-- Node2&#45;&gt;Node13 -->
<g id="edge12_Node000002_Node000013" class="edge">
<title>Node2&#45;&gt;Node13</title>
<g id="a_edge12_Node000002_Node000013"><a xlink:title=" ">
<path fill="none" stroke="#63b8ff" d="M305.24,-197.95C287.39,-187.18 262.88,-172.38 245.17,-161.69"/>
<polygon fill="#63b8ff" stroke="#63b8ff" points="246.98,-158.69 236.61,-156.52 243.36,-164.68 246.98,-158.69"/>
</a>
</g>
</g>
<!-- Node2&#45;&gt;Node14 -->
<g id="edge13_Node000002_Node000014" class="edge">
<title>Node2&#45;&gt;Node14</title>
<g id="a_edge13_Node000002_Node000014"><a xlink:title=" ">
<path fill="none" stroke="#63b8ff" d="M349.36,-197.8C364.82,-187.27 385.82,-172.97 401.35,-162.4"/>
<polygon fill="#63b8ff" stroke="#63b8ff" points="403.49,-165.18 409.78,-156.66 399.55,-159.39 403.49,-165.18"/>
</a>
</g>
</g>
<!-- Node4 -->
<g id="Node000004" class="node">
<title>Node4</title>
<g id="a_Node000004"><a xlink:href="debug_8hpp.html" target="_top" xlink:title=" ">
<polygon fill="white" stroke="#666666" points="593,-96 474,-96 474,-66 593,-66 593,-96"/>
<text text-anchor="start" x="482" y="-84" font-family="Helvetica,sans-Serif" font-size="10.00">packages/macros/inc</text>
<text text-anchor="middle" x="533.5" y="-73" font-family="Helvetica,sans-Serif" font-size="10.00">/debug.hpp</text>
</a>
</g>
</g>
<!-- Node3&#45;&gt;Node4 -->
<g id="edge3_Node000003_Node000004" class="edge">
<title>Node3&#45;&gt;Node4</title>
<g id="a_edge3_Node000003_Node000004"><a xlink:title=" ">
<path fill="none" stroke="#63b8ff" d="M373.49,-131.95C404.46,-122.28 445.8,-109.38 478.7,-99.11"/>
<polygon fill="#63b8ff" stroke="#63b8ff" points="480.11,-102.33 488.62,-96.01 478.03,-95.65 480.11,-102.33"/>
</a>
</g>
</g>
<!-- Node7 -->
<g id="Node000007" class="node">
<title>Node7</title>
<g id="a_Node000007"><a xlink:title=" ">
<polygon fill="#e0e0e0" stroke="#999999" points="53,-90.5 0,-90.5 0,-71.5 53,-71.5 53,-90.5"/>
<text text-anchor="middle" x="26.5" y="-78.5" font-family="Helvetica,sans-Serif" font-size="10.00">cstddef</text>
</a>
</g>
</g>
<!-- Node3&#45;&gt;Node7 -->
<g id="edge6_Node000003_Node000007" class="edge">
<title>Node3&#45;&gt;Node7</title>
<g id="a_edge6_Node000003_Node000007"><a xlink:title=" ">
<path fill="none" stroke="#63b8ff" d="M273.37,-133.8C270.37,-133.18 267.4,-132.58 264.5,-132 175.05,-114.25 150.3,-120.64 62.5,-96 60.35,-95.4 58.15,-94.71 55.95,-93.98"/>
<polygon fill="#63b8ff" stroke="#63b8ff" points="57.04,-90.65 46.45,-90.55 54.67,-97.24 57.04,-90.65"/>
</a>
</g>
</g>
<!-- Node8 -->
<g id="Node000008" class="node">
<title>Node8</title>
<g id="a_Node000008"><a xlink:title=" ">
<polygon fill="#e0e0e0" stroke="#999999" points="115.5,-90.5 71.5,-90.5 71.5,-71.5 115.5,-71.5 115.5,-90.5"/>
<text text-anchor="middle" x="93.5" y="-78.5" font-family="Helvetica,sans-Serif" font-size="10.00">string</text>
</a>
</g>
</g>
<!-- Node3&#45;&gt;Node8 -->
<g id="edge7_Node000003_Node000008" class="edge">
<title>Node3&#45;&gt;Node8</title>
<g id="a_edge7_Node000003_Node000008"><a xlink:title=" ">
<path fill="none" stroke="#63b8ff" d="M273.19,-133.65C222.61,-122.13 151.65,-105.37 124.5,-96 123.1,-95.52 121.69,-95 120.26,-94.45"/>
<polygon fill="#63b8ff" stroke="#63b8ff" points="121.55,-91.2 110.98,-90.57 118.85,-97.65 121.55,-91.2"/>
</a>
</g>
</g>
<!-- Node3&#45;&gt;Node9 -->
<g id="edge8_Node000003_Node000009" class="edge">
<title>Node3&#45;&gt;Node9</title>
<g id="a_edge8_Node000003_Node000009"><a xlink:title=" ">
<path fill="none" stroke="#63b8ff" d="M383.79,-133.93C387.07,-133.26 390.33,-132.61 393.5,-132 486.04,-114.07 511,-118.65 602.5,-96 605.45,-95.27 608.5,-94.44 611.54,-93.56"/>
<polygon fill="#63b8ff" stroke="#63b8ff" points="612.59,-96.89 621.12,-90.61 610.53,-90.2 612.59,-96.89"/>
</a>
</g>
</g>
<!-- Node10 -->
<g id="Node000010" class="node">
<title>Node10</title>
<g id="a_Node000010"><a xlink:title=" ">
<polygon fill="#e0e0e0" stroke="#999999" points="183.5,-90.5 133.5,-90.5 133.5,-71.5 183.5,-71.5 183.5,-90.5"/>
<text text-anchor="middle" x="158.5" y="-78.5" font-family="Helvetica,sans-Serif" font-size="10.00">climits</text>
</a>
</g>
</g>
<!-- Node3&#45;&gt;Node10 -->
<g id="edge9_Node000003_Node000010" class="edge">
<title>Node3&#45;&gt;Node10</title>
<g id="a_edge9_Node000003_Node000010"><a xlink:title=" ">
<path fill="none" stroke="#63b8ff" d="M289.07,-131.96C261.84,-122.15 224.85,-108.6 192.5,-96 191.12,-95.46 189.72,-94.91 188.3,-94.35"/>
<polygon fill="#63b8ff" stroke="#63b8ff" points="189.53,-91.07 178.95,-90.57 186.91,-97.56 189.53,-91.07"/>
</a>
</g>
</g>
<!-- Node11 -->
<g id="Node000011" class="node">
<title>Node11</title>
<g id="a_Node000011"><a xlink:title=" ">
<polygon fill="#e0e0e0" stroke="#999999" points="319,-96 202,-96 202,-66 319,-66 319,-96"/>
<text text-anchor="start" x="210" y="-84" font-family="Helvetica,sans-Serif" font-size="10.00">packages/types/impl</text>
<text text-anchor="middle" x="260.5" y="-73" font-family="Helvetica,sans-Serif" font-size="10.00">/types_impl.hpp</text>
</a>
</g>
</g>
<!-- Node3&#45;&gt;Node11 -->
<g id="edge10_Node000003_Node000011" class="edge">
<title>Node3&#45;&gt;Node11</title>
<g id="a_edge10_Node000003_Node000011"><a xlink:title=" ">
<path fill="none" stroke="#63b8ff" d="M313.41,-131.8C304.43,-123.34 292.87,-112.46 282.85,-103.03"/>
<polygon fill="#63b8ff" stroke="#63b8ff" points="285.23,-100.47 275.55,-96.16 280.43,-105.57 285.23,-100.47"/>
</a>
</g>
</g>
<!-- Node12 -->
<g id="Node000012" class="node">
<title>Node12</title>
<g id="a_Node000012"><a xlink:href="logging_8hpp.html" target="_top" xlink:title=" ">
<polygon fill="white" stroke="#666666" points="456,-96 337,-96 337,-66 456,-66 456,-96"/>
<text text-anchor="start" x="345" y="-84" font-family="Helvetica,sans-Serif" font-size="10.00">packages/macros/inc</text>
<text text-anchor="middle" x="396.5" y="-73" font-family="Helvetica,sans-Serif" font-size="10.00">/logging.hpp</text>
</a>
</g>
</g>
<!-- Node3&#45;&gt;Node12 -->
<g id="edge11_Node000003_Node000012" class="edge">
<title>Node3&#45;&gt;Node12</title>
<g id="a_edge11_Node000003_Node000012"><a xlink:title=" ">
<path fill="none" stroke="#63b8ff" d="M343.59,-131.8C352.57,-123.34 364.13,-112.46 374.15,-103.03"/>
<polygon fill="#63b8ff" stroke="#63b8ff" points="376.57,-105.57 381.45,-96.16 371.77,-100.47 376.57,-105.57"/>
</a>
</g>
</g>
<!-- Node5 -->
<g id="Node000005" class="node">
<title>Node5</title>
<g id="a_Node000005"><a xlink:href="detail_8hpp.html" target="_top" xlink:title=" ">
<polygon fill="white" stroke="#666666" points="539,-30 420,-30 420,0 539,0 539,-30"/>
<text text-anchor="start" x="428" y="-18" font-family="Helvetica,sans-Serif" font-size="10.00">packages/macros/inc</text>
<text text-anchor="middle" x="479.5" y="-7" font-family="Helvetica,sans-Serif" font-size="10.00">/detail.hpp</text>
</a>
</g>
</g>
<!-- Node4&#45;&gt;Node5 -->
<g id="edge4_Node000004_Node000005" class="edge">
<title>Node4&#45;&gt;Node5</title>
<g id="a_edge4_Node000004_Node000005"><a xlink:title=" ">
<path fill="none" stroke="#63b8ff" d="M521.52,-65.8C514.59,-57.59 505.74,-47.1 497.95,-37.87"/>
<polygon fill="#63b8ff" stroke="#63b8ff" points="500.57,-35.55 491.45,-30.16 495.22,-40.06 500.57,-35.55"/>
</a>
</g>
</g>
<!-- Node6 -->
<g id="Node000006" class="node">
<title>Node6</title>
<g id="a_Node000006"><a xlink:title=" ">
<polygon fill="#e0e0e0" stroke="#999999" points="617.5,-24.5 557.5,-24.5 557.5,-5.5 617.5,-5.5 617.5,-24.5"/>
<text text-anchor="middle" x="587.5" y="-12.5" font-family="Helvetica,sans-Serif" font-size="10.00">iostream</text>
</a>
</g>
</g>
<!-- Node4&#45;&gt;Node6 -->
<g id="edge5_Node000004_Node000006" class="edge">
<title>Node4&#45;&gt;Node6</title>
<g id="a_edge5_Node000004_Node000006"><a xlink:title=" ">
<path fill="none" stroke="#63b8ff" d="M545.48,-65.8C553.74,-56.01 564.74,-42.98 573.41,-32.7"/>
<polygon fill="#63b8ff" stroke="#63b8ff" points="576.26,-34.74 580.04,-24.84 570.91,-30.23 576.26,-34.74"/>
</a>
</g>
</g>
</g>
</svg>
