<?xml version="1.0" encoding="UTF-8" standalone="no"?>
<!DOCTYPE svg PUBLIC "-//W3C//DTD SVG 1.1//EN"
 "http://www.w3.org/Graphics/SVG/1.1/DTD/svg11.dtd">
<!-- Generated by graphviz version 2.43.0 (0)
 -->
<!-- Title: getReference.hpp Pages: 1 -->
<!--zoomable 441 -->
<svg id="main" version="1.1" xmlns="http://www.w3.org/2000/svg" xmlns:xlink="http://www.w3.org/1999/xlink" xml:space="preserve" onload="init(evt)">
<style type="text/css"><![CDATA[
.edge:hover path { stroke: red; }
.edge:hover polygon { stroke: red; fill: red; }
]]></style>
<script type="text/javascript"><![CDATA[
var edges = document.getElementsByTagName('g');
if (edges && edges.length) {
  for (var i=0;i<edges.length;i++) {
    if (edges[i].id.substr(0,4)=='edge') {
      edges[i].setAttribute('class','edge');
    }
  }
}
]]></script>
        <defs>
                <circle id="rim" cx="0" cy="0" r="7"/>
                <circle id="rim2" cx="0" cy="0" r="3.5"/>
                <g id="zoomPlus">
                        <use xlink:href="#rim" fill="#404040">
                                <set attributeName="fill" to="#808080" begin="zoomplus.mouseover" end="zoomplus.mouseout"/>
                        </use>
                        <path d="M-4,0h8M0,-4v8" fill="none" stroke="white" stroke-width="1.5" pointer-events="none"/>
                </g>
                <g id="zoomMin">
                        <use xlink:href="#rim" fill="#404040">
                                <set attributeName="fill" to="#808080" begin="zoomminus.mouseover" end="zoomminus.mouseout"/>
                        </use>
                        <path d="M-4,0h8" fill="none" stroke="white" stroke-width="1.5" pointer-events="none"/>
                </g>
                <g id="dirArrow">
                        <path fill="none" stroke="white" stroke-width="1.5" d="M0,-3.0v7 M-2.5,-0.5L0,-3.0L2.5,-0.5"/>
                </g>
               <g id="resetDef">
                       <use xlink:href="#rim2" fill="#404040">
                               <set attributeName="fill" to="#808080" begin="reset.mouseover" end="reset.mouseout"/>
                       </use>
               </g>
        </defs>

<script type="text/javascript">
var viewWidth = 928;
var viewHeight = 441;
var sectionId = 'dynsection-0';
</script>
<script xlink:href="svgpan.js"/>
<svg id="graph" class="graph">
<g id="viewport">
<title>getReference.hpp</title>
<polygon fill="white" stroke="transparent" points="-4,4 -4,-437 923.5,-437 923.5,4 -4,4"/>
<!-- Node1 -->
<g id="node1" class="node">
<title>Node1</title>
<g id="a_node1"><a xlink:title=" ">
<polygon fill="#bfbfbf" stroke="black" points="518.5,-413.5 518.5,-432.5 621.5,-432.5 621.5,-413.5 518.5,-413.5"/>
<text text-anchor="middle" x="570" y="-420.5" font-family="Helvetica,sans-Serif" font-size="10.00">getReference.hpp</text>
</a>
</g>
</g>
<!-- Node2 -->
<g id="node2" class="node">
<title>Node2</title>
<g id="a_node2"><a xlink:href="basic__concepts_8hpp.html" target="_top" xlink:title=" ">
<polygon fill="white" stroke="black" points="666,-268.5 666,-309.5 798,-309.5 798,-268.5 666,-268.5"/>
<text text-anchor="start" x="674" y="-297.5" font-family="Helvetica,sans-Serif" font-size="10.00">packages/compile_time</text>
<text text-anchor="start" x="674" y="-286.5" font-family="Helvetica,sans-Serif" font-size="10.00">/packages/concepts/inc</text>
<text text-anchor="middle" x="732" y="-275.5" font-family="Helvetica,sans-Serif" font-size="10.00">/basic_concepts.hpp</text>
</a>
</g>
</g>
<!-- Node1&#45;&gt;Node2 -->
<g id="edge1" class="edge">
<title>Node1&#45;&gt;Node2</title>
<path fill="none" stroke="midnightblue" d="M580.63,-413.34C604.45,-393.93 662.91,-346.3 699.81,-316.23"/>
<polygon fill="midnightblue" stroke="midnightblue" points="702.25,-318.76 707.79,-309.73 697.83,-313.33 702.25,-318.76"/>
</g>
<!-- Node16 -->
<g id="node16" class="node">
<title>Node16</title>
<g id="a_node16"><a xlink:href="checks_8hpp.html" target="_top" xlink:title=" ">
<polygon fill="white" stroke="black" points="180.5,-346.5 180.5,-376.5 299.5,-376.5 299.5,-346.5 180.5,-346.5"/>
<text text-anchor="start" x="188.5" y="-364.5" font-family="Helvetica,sans-Serif" font-size="10.00">packages/macros/inc</text>
<text text-anchor="middle" x="240" y="-353.5" font-family="Helvetica,sans-Serif" font-size="10.00">/checks.hpp</text>
</a>
</g>
</g>
<!-- Node1&#45;&gt;Node16 -->
<g id="edge16" class="edge">
<title>Node1&#45;&gt;Node16</title>
<path fill="none" stroke="midnightblue" d="M522.72,-413.48C466.98,-403.42 373.84,-386.63 309.79,-375.08"/>
<polygon fill="midnightblue" stroke="midnightblue" points="310.23,-371.61 299.77,-373.28 308.99,-378.5 310.23,-371.61"/>
</g>
<!-- Node20 -->
<g id="node20" class="node">
<title>Node20</title>
<g id="a_node20"><a xlink:title=" ">
<polygon fill="white" stroke="#bfbfbf" points="541,-140 541,-159 599,-159 599,-140 541,-140"/>
<text text-anchor="middle" x="570" y="-147" font-family="Helvetica,sans-Serif" font-size="10.00">memory</text>
</a>
</g>
</g>
<!-- Node1&#45;&gt;Node20 -->
<g id="edge34" class="edge">
<title>Node1&#45;&gt;Node20</title>
<path fill="none" stroke="midnightblue" d="M570,-413.27C570,-375.14 570,-222.63 570,-169.15"/>
<polygon fill="midnightblue" stroke="midnightblue" points="573.5,-169.06 570,-159.06 566.5,-169.06 573.5,-169.06"/>
</g>
<!-- Node3 -->
<g id="node3" class="node">
<title>Node3</title>
<g id="a_node3"><a xlink:href="types_8hpp.html" target="_top" xlink:title=" ">
<polygon fill="white" stroke="black" points="617,-134.5 617,-164.5 727,-164.5 727,-134.5 617,-134.5"/>
<text text-anchor="start" x="625" y="-152.5" font-family="Helvetica,sans-Serif" font-size="10.00">packages/types/inc</text>
<text text-anchor="middle" x="672" y="-141.5" font-family="Helvetica,sans-Serif" font-size="10.00">/types.hpp</text>
</a>
</g>
</g>
<!-- Node2&#45;&gt;Node3 -->
<g id="edge2" class="edge">
<title>Node2&#45;&gt;Node3</title>
<path fill="none" stroke="midnightblue" d="M723.4,-268.3C712.54,-243.41 693.87,-200.62 682.27,-174.04"/>
<polygon fill="midnightblue" stroke="midnightblue" points="685.41,-172.48 678.2,-164.72 678.99,-175.28 685.41,-172.48"/>
</g>
<!-- Node9 -->
<g id="node9" class="node">
<title>Node9</title>
<g id="a_node9"><a xlink:title=" ">
<polygon fill="white" stroke="#bfbfbf" points="850.5,-73 850.5,-92 919.5,-92 919.5,-73 850.5,-73"/>
<text text-anchor="middle" x="885" y="-80" font-family="Helvetica,sans-Serif" font-size="10.00">type_traits</text>
</a>
</g>
</g>
<!-- Node2&#45;&gt;Node9 -->
<g id="edge13" class="edge">
<title>Node2&#45;&gt;Node9</title>
<path fill="none" stroke="midnightblue" d="M739.42,-268.41C746.81,-250.14 759.15,-222.54 774,-201 802.06,-160.28 844.09,-119.94 867.55,-98.76"/>
<polygon fill="midnightblue" stroke="midnightblue" points="869.89,-101.36 875.03,-92.09 865.24,-96.14 869.89,-101.36"/>
</g>
<!-- Node13 -->
<g id="node13" class="node">
<title>Node13</title>
<g id="a_node13"><a xlink:title=" ">
<polygon fill="white" stroke="#bfbfbf" points="606,-207 606,-226 666,-226 666,-207 606,-207"/>
<text text-anchor="middle" x="636" y="-214" font-family="Helvetica,sans-Serif" font-size="10.00">concepts</text>
</a>
</g>
</g>
<!-- Node2&#45;&gt;Node13 -->
<g id="edge12" class="edge">
<title>Node2&#45;&gt;Node13</title>
<path fill="none" stroke="midnightblue" d="M705.26,-268.36C689.64,-256.89 670.25,-242.65 655.97,-232.16"/>
<polygon fill="midnightblue" stroke="midnightblue" points="657.94,-229.27 647.81,-226.17 653.8,-234.91 657.94,-229.27"/>
</g>
<!-- Node14 -->
<g id="node14" class="node">
<title>Node14</title>
<g id="a_node14"><a xlink:title=" ">
<polygon fill="white" stroke="#bfbfbf" points="783,-207 783,-226 833,-226 833,-207 783,-207"/>
<text text-anchor="middle" x="808" y="-214" font-family="Helvetica,sans-Serif" font-size="10.00">cstdint</text>
</a>
</g>
</g>
<!-- Node2&#45;&gt;Node14 -->
<g id="edge14" class="edge">
<title>Node2&#45;&gt;Node14</title>
<path fill="none" stroke="midnightblue" d="M753.17,-268.36C765.19,-257.21 780.02,-243.46 791.22,-233.06"/>
<polygon fill="midnightblue" stroke="midnightblue" points="793.7,-235.54 798.65,-226.17 788.94,-230.41 793.7,-235.54"/>
</g>
<!-- Node15 -->
<g id="node15" class="node">
<title>Node15</title>
<g id="a_node15"><a xlink:title=" ">
<polygon fill="white" stroke="#bfbfbf" points="851.5,-207 851.5,-226 896.5,-226 896.5,-207 851.5,-207"/>
<text text-anchor="middle" x="874" y="-214" font-family="Helvetica,sans-Serif" font-size="10.00">utility</text>
</a>
</g>
</g>
<!-- Node2&#45;&gt;Node15 -->
<g id="edge15" class="edge">
<title>Node2&#45;&gt;Node15</title>
<path fill="none" stroke="midnightblue" d="M771.55,-268.36C795.75,-256.35 826.05,-241.3 847.4,-230.7"/>
<polygon fill="midnightblue" stroke="midnightblue" points="849.13,-233.76 856.53,-226.17 846.02,-227.49 849.13,-233.76"/>
</g>
<!-- Node4 -->
<g id="node4" class="node">
<title>Node4</title>
<g id="a_node4"><a xlink:href="debug_8hpp.html" target="_top" xlink:title=" ">
<polygon fill="white" stroke="black" points="438.5,-67.5 438.5,-97.5 557.5,-97.5 557.5,-67.5 438.5,-67.5"/>
<text text-anchor="start" x="446.5" y="-85.5" font-family="Helvetica,sans-Serif" font-size="10.00">packages/macros/inc</text>
<text text-anchor="middle" x="498" y="-74.5" font-family="Helvetica,sans-Serif" font-size="10.00">/debug.hpp</text>
</a>
</g>
</g>
<!-- Node3&#45;&gt;Node4 -->
<g id="edge3" class="edge">
<title>Node3&#45;&gt;Node4</title>
<path fill="none" stroke="midnightblue" d="M634.24,-134.4C608.14,-124.64 573.21,-111.59 545.25,-101.15"/>
<polygon fill="midnightblue" stroke="midnightblue" points="546.27,-97.8 535.68,-97.58 543.82,-104.35 546.27,-97.8"/>
</g>
<!-- Node7 -->
<g id="node7" class="node">
<title>Node7</title>
<g id="a_node7"><a xlink:title=" ">
<polygon fill="white" stroke="#bfbfbf" points="575.5,-73 575.5,-92 628.5,-92 628.5,-73 575.5,-73"/>
<text text-anchor="middle" x="602" y="-80" font-family="Helvetica,sans-Serif" font-size="10.00">cstddef</text>
</a>
</g>
</g>
<!-- Node3&#45;&gt;Node7 -->
<g id="edge6" class="edge">
<title>Node3&#45;&gt;Node7</title>
<path fill="none" stroke="midnightblue" d="M656.81,-134.4C645.68,-124.06 630.56,-110.02 619.03,-99.31"/>
<polygon fill="midnightblue" stroke="midnightblue" points="621.07,-96.43 611.36,-92.19 616.31,-101.56 621.07,-96.43"/>
</g>
<!-- Node8 -->
<g id="node8" class="node">
<title>Node8</title>
<g id="a_node8"><a xlink:title=" ">
<polygon fill="white" stroke="#bfbfbf" points="239,-73 239,-92 283,-92 283,-73 239,-73"/>
<text text-anchor="middle" x="261" y="-80" font-family="Helvetica,sans-Serif" font-size="10.00">string</text>
</a>
</g>
</g>
<!-- Node3&#45;&gt;Node8 -->
<g id="edge7" class="edge">
<title>Node3&#45;&gt;Node8</title>
<path fill="none" stroke="midnightblue" d="M616.92,-135.62C613.91,-135.04 610.92,-134.5 608,-134 468.64,-110.35 428.02,-136.45 292,-98 290.07,-97.45 288.11,-96.8 286.16,-96.08"/>
<polygon fill="midnightblue" stroke="midnightblue" points="287.28,-92.75 276.71,-92.05 284.54,-99.19 287.28,-92.75"/>
</g>
<!-- Node3&#45;&gt;Node9 -->
<g id="edge8" class="edge">
<title>Node3&#45;&gt;Node9</title>
<path fill="none" stroke="midnightblue" d="M720.19,-134.49C754.06,-124.55 800.39,-110.76 841,-98 843.9,-97.09 846.9,-96.13 849.91,-95.16"/>
<polygon fill="midnightblue" stroke="midnightblue" points="851.02,-98.48 859.45,-92.06 848.85,-91.82 851.02,-98.48"/>
</g>
<!-- Node10 -->
<g id="node10" class="node">
<title>Node10</title>
<g id="a_node10"><a xlink:title=" ">
<polygon fill="white" stroke="#bfbfbf" points="647,-73 647,-92 697,-92 697,-73 647,-73"/>
<text text-anchor="middle" x="672" y="-80" font-family="Helvetica,sans-Serif" font-size="10.00">climits</text>
</a>
</g>
</g>
<!-- Node3&#45;&gt;Node10 -->
<g id="edge9" class="edge">
<title>Node3&#45;&gt;Node10</title>
<path fill="none" stroke="midnightblue" d="M672,-134.4C672,-125.06 672,-112.71 672,-102.52"/>
<polygon fill="midnightblue" stroke="midnightblue" points="675.5,-102.19 672,-92.19 668.5,-102.19 675.5,-102.19"/>
</g>
<!-- Node11 -->
<g id="node11" class="node">
<title>Node11</title>
<g id="a_node11"><a xlink:title=" ">
<polygon fill="white" stroke="#bfbfbf" points="715.5,-67.5 715.5,-97.5 832.5,-97.5 832.5,-67.5 715.5,-67.5"/>
<text text-anchor="start" x="723.5" y="-85.5" font-family="Helvetica,sans-Serif" font-size="10.00">packages/types/impl</text>
<text text-anchor="middle" x="774" y="-74.5" font-family="Helvetica,sans-Serif" font-size="10.00">/types_impl.hpp</text>
</a>
</g>
</g>
<!-- Node3&#45;&gt;Node11 -->
<g id="edge10" class="edge">
<title>Node3&#45;&gt;Node11</title>
<path fill="none" stroke="midnightblue" d="M694.13,-134.4C708.57,-125.2 727.6,-113.07 743.47,-102.95"/>
<polygon fill="midnightblue" stroke="midnightblue" points="745.36,-105.9 751.91,-97.58 741.6,-100 745.36,-105.9"/>
</g>
<!-- Node12 -->
<g id="node12" class="node">
<title>Node12</title>
<g id="a_node12"><a xlink:href="logging_8hpp.html" target="_top" xlink:title=" ">
<polygon fill="white" stroke="black" points="301.5,-67.5 301.5,-97.5 420.5,-97.5 420.5,-67.5 301.5,-67.5"/>
<text text-anchor="start" x="309.5" y="-85.5" font-family="Helvetica,sans-Serif" font-size="10.00">packages/macros/inc</text>
<text text-anchor="middle" x="361" y="-74.5" font-family="Helvetica,sans-Serif" font-size="10.00">/logging.hpp</text>
</a>
</g>
</g>
<!-- Node3&#45;&gt;Node12 -->
<g id="edge11" class="edge">
<title>Node3&#45;&gt;Node12</title>
<path fill="none" stroke="midnightblue" d="M616.86,-135.92C613.87,-135.26 610.9,-134.62 608,-134 531.74,-117.7 510.13,-114.68 430.68,-98.33"/>
<polygon fill="midnightblue" stroke="midnightblue" points="431.2,-94.87 420.7,-96.27 429.78,-101.72 431.2,-94.87"/>
</g>
<!-- Node5 -->
<g id="node5" class="node">
<title>Node5</title>
<g id="a_node5"><a xlink:href="detail_8hpp.html" target="_top" xlink:title=" ">
<polygon fill="white" stroke="black" points="102.5,-0.5 102.5,-30.5 221.5,-30.5 221.5,-0.5 102.5,-0.5"/>
<text text-anchor="start" x="110.5" y="-18.5" font-family="Helvetica,sans-Serif" font-size="10.00">packages/macros/inc</text>
<text text-anchor="middle" x="162" y="-7.5" font-family="Helvetica,sans-Serif" font-size="10.00">/detail.hpp</text>
</a>
</g>
</g>
<!-- Node4&#45;&gt;Node5 -->
<g id="edge4" class="edge">
<title>Node4&#45;&gt;Node5</title>
<path fill="none" stroke="midnightblue" d="M438.18,-68.85C435.07,-68.22 432,-67.6 429,-67 362.18,-53.66 285.76,-39.3 231.85,-29.31"/>
<polygon fill="midnightblue" stroke="midnightblue" points="232.19,-25.82 221.72,-27.44 230.91,-32.7 232.19,-25.82"/>
</g>
<!-- Node6 -->
<g id="node6" class="node">
<title>Node6</title>
<g id="a_node6"><a xlink:title=" ">
<polygon fill="white" stroke="#bfbfbf" points="468,-6 468,-25 528,-25 528,-6 468,-6"/>
<text text-anchor="middle" x="498" y="-13" font-family="Helvetica,sans-Serif" font-size="10.00">iostream</text>
</a>
</g>
</g>
<!-- Node4&#45;&gt;Node6 -->
<g id="edge5" class="edge">
<title>Node4&#45;&gt;Node6</title>
<path fill="none" stroke="midnightblue" d="M498,-67.4C498,-58.06 498,-45.71 498,-35.52"/>
<polygon fill="midnightblue" stroke="midnightblue" points="501.5,-35.19 498,-25.19 494.5,-35.19 501.5,-35.19"/>
</g>
<!-- Node16&#45;&gt;Node5 -->
<g id="edge29" class="edge">
<title>Node16&#45;&gt;Node5</title>
<path fill="none" stroke="midnightblue" d="M180.37,-359.29C136.6,-355.41 78.19,-343.61 39,-310 5.14,-280.95 0,-262.12 0,-217.5 0,-217.5 0,-217.5 0,-148.5 0,-91.14 61.79,-54.28 109.05,-34.48"/>
<polygon fill="midnightblue" stroke="midnightblue" points="110.63,-37.62 118.59,-30.63 108,-31.13 110.63,-37.62"/>
</g>
<!-- Node17 -->
<g id="node17" class="node">
<title>Node17</title>
<g id="a_node17"><a xlink:href="exception_8hpp.html" target="_top" xlink:title=" ">
<polygon fill="white" stroke="black" points="340.5,-201.5 340.5,-231.5 459.5,-231.5 459.5,-201.5 340.5,-201.5"/>
<text text-anchor="start" x="348.5" y="-219.5" font-family="Helvetica,sans-Serif" font-size="10.00">packages/exceptions</text>
<text text-anchor="middle" x="400" y="-208.5" font-family="Helvetica,sans-Serif" font-size="10.00">/inc/exception.hpp</text>
</a>
</g>
</g>
<!-- Node16&#45;&gt;Node17 -->
<g id="edge17" class="edge">
<title>Node16&#45;&gt;Node17</title>
<path fill="none" stroke="midnightblue" d="M289.13,-346.45C310.41,-338.45 334.42,-326.64 352,-310 372.12,-290.96 385.35,-261.6 392.72,-241.08"/>
<polygon fill="midnightblue" stroke="midnightblue" points="396.07,-242.12 395.97,-231.53 389.44,-239.87 396.07,-242.12"/>
</g>
<!-- Node22 -->
<g id="node22" class="node">
<title>Node22</title>
<g id="a_node22"><a xlink:href="exceptions_8hpp.html" target="_top" xlink:title=" ">
<polygon fill="white" stroke="black" points="224.5,-274 224.5,-304 343.5,-304 343.5,-274 224.5,-274"/>
<text text-anchor="start" x="232.5" y="-292" font-family="Helvetica,sans-Serif" font-size="10.00">packages/macros/inc</text>
<text text-anchor="middle" x="284" y="-281" font-family="Helvetica,sans-Serif" font-size="10.00">/exceptions.hpp</text>
</a>
</g>
</g>
<!-- Node16&#45;&gt;Node22 -->
<g id="edge24" class="edge">
<title>Node16&#45;&gt;Node22</title>
<path fill="none" stroke="midnightblue" d="M248.9,-346.23C254.87,-336.68 262.85,-323.89 269.7,-312.92"/>
<polygon fill="midnightblue" stroke="midnightblue" points="272.78,-314.58 275.11,-304.25 266.85,-310.88 272.78,-314.58"/>
</g>
<!-- Node23 -->
<g id="node23" class="node">
<title>Node23</title>
<g id="a_node23"><a xlink:title=" ">
<polygon fill="white" stroke="#bfbfbf" points="152,-207 152,-226 208,-226 208,-207 152,-207"/>
<text text-anchor="middle" x="180" y="-214" font-family="Helvetica,sans-Serif" font-size="10.00">sstream</text>
</a>
</g>
</g>
<!-- Node16&#45;&gt;Node23 -->
<g id="edge33" class="edge">
<title>Node16&#45;&gt;Node23</title>
<path fill="none" stroke="midnightblue" d="M232.4,-346.09C227.23,-336.09 220.39,-322.38 215,-310 204,-284.73 193.03,-254.79 186.38,-235.97"/>
<polygon fill="midnightblue" stroke="midnightblue" points="189.6,-234.57 183,-226.29 183,-236.88 189.6,-234.57"/>
</g>
<!-- Node24 -->
<g id="node24" class="node">
<title>Node24</title>
<g id="a_node24"><a xlink:href="cmake__variables_8hpp.html" target="_top" xlink:title=" ">
<polygon fill="white" stroke="black" points="48,-279.5 48,-298.5 168,-298.5 168,-279.5 48,-279.5"/>
<text text-anchor="middle" x="108" y="-286.5" font-family="Helvetica,sans-Serif" font-size="10.00">cmake_variables.hpp</text>
</a>
</g>
</g>
<!-- Node16&#45;&gt;Node24 -->
<g id="edge30" class="edge">
<title>Node16&#45;&gt;Node24</title>
<path fill="none" stroke="midnightblue" d="M213.61,-346.4C190.06,-333.83 155.86,-315.56 132.81,-303.25"/>
<polygon fill="midnightblue" stroke="midnightblue" points="134.45,-300.16 123.98,-298.53 131.15,-306.33 134.45,-300.16"/>
</g>
<!-- Node17&#45;&gt;Node3 -->
<g id="edge18" class="edge">
<title>Node17&#45;&gt;Node3</title>
<path fill="none" stroke="midnightblue" d="M458.69,-201.48C502.24,-191.07 561.64,-176.87 606.7,-166.1"/>
<polygon fill="midnightblue" stroke="midnightblue" points="607.75,-169.45 616.67,-163.72 606.13,-162.64 607.75,-169.45"/>
</g>
<!-- Node17&#45;&gt;Node8 -->
<g id="edge20" class="edge">
<title>Node17&#45;&gt;Node8</title>
<path fill="none" stroke="midnightblue" d="M437.8,-201.45C472.86,-186.34 516.47,-160.83 494,-134 435.45,-64.09 378.93,-125.55 292,-98 290.33,-97.47 288.62,-96.87 286.93,-96.22"/>
<polygon fill="midnightblue" stroke="midnightblue" points="287.98,-92.86 277.41,-92.15 285.23,-99.3 287.98,-92.86"/>
</g>
<!-- Node18 -->
<g id="node18" class="node">
<title>Node18</title>
<g id="a_node18"><a xlink:title=" ">
<polygon fill="white" stroke="#bfbfbf" points="190.5,-140 190.5,-159 255.5,-159 255.5,-140 190.5,-140"/>
<text text-anchor="middle" x="223" y="-147" font-family="Helvetica,sans-Serif" font-size="10.00">stdexcept</text>
</a>
</g>
</g>
<!-- Node17&#45;&gt;Node18 -->
<g id="edge19" class="edge">
<title>Node17&#45;&gt;Node18</title>
<path fill="none" stroke="midnightblue" d="M361.59,-201.4C329.99,-189.79 285.67,-173.51 255.73,-162.52"/>
<polygon fill="midnightblue" stroke="midnightblue" points="256.76,-159.17 246.17,-159.01 254.35,-165.74 256.76,-159.17"/>
</g>
<!-- Node19 -->
<g id="node19" class="node">
<title>Node19</title>
<g id="a_node19"><a xlink:title=" ">
<polygon fill="white" stroke="#bfbfbf" points="273.5,-140 273.5,-159 320.5,-159 320.5,-140 273.5,-140"/>
<text text-anchor="middle" x="297" y="-147" font-family="Helvetica,sans-Serif" font-size="10.00">deque</text>
</a>
</g>
</g>
<!-- Node17&#45;&gt;Node19 -->
<g id="edge21" class="edge">
<title>Node17&#45;&gt;Node19</title>
<path fill="none" stroke="midnightblue" d="M377.65,-201.4C360.38,-190.5 336.58,-175.48 319.32,-164.58"/>
<polygon fill="midnightblue" stroke="midnightblue" points="320.81,-161.38 310.48,-159.01 317.07,-167.3 320.81,-161.38"/>
</g>
<!-- Node17&#45;&gt;Node20 -->
<g id="edge22" class="edge">
<title>Node17&#45;&gt;Node20</title>
<path fill="none" stroke="midnightblue" d="M436.89,-201.4C467.11,-189.84 509.44,-173.66 538.19,-162.66"/>
<polygon fill="midnightblue" stroke="midnightblue" points="539.66,-165.85 547.75,-159.01 537.16,-159.31 539.66,-165.85"/>
</g>
<!-- Node21 -->
<g id="node21" class="node">
<title>Node21</title>
<g id="a_node21"><a xlink:title=" ">
<polygon fill="white" stroke="#bfbfbf" points="339,-134.5 339,-164.5 485,-164.5 485,-134.5 339,-134.5"/>
<text text-anchor="start" x="347" y="-152.5" font-family="Helvetica,sans-Serif" font-size="10.00">packages/exceptions</text>
<text text-anchor="middle" x="412" y="-141.5" font-family="Helvetica,sans-Serif" font-size="10.00">/impl/exceptions_impl.hpp</text>
</a>
</g>
</g>
<!-- Node17&#45;&gt;Node21 -->
<g id="edge23" class="edge">
<title>Node17&#45;&gt;Node21</title>
<path fill="none" stroke="midnightblue" d="M402.6,-201.4C404.05,-193.56 405.89,-183.6 407.56,-174.57"/>
<polygon fill="midnightblue" stroke="midnightblue" points="411.03,-175.05 409.4,-164.58 404.14,-173.77 411.03,-175.05"/>
</g>
<!-- Node22&#45;&gt;Node5 -->
<g id="edge26" class="edge">
<title>Node22&#45;&gt;Node5</title>
<path fill="none" stroke="midnightblue" d="M273.86,-273.7C261.18,-256.08 238.52,-225.49 217,-201 202.07,-184 190.97,-185.31 181,-165 161.31,-124.89 159.5,-71.7 160.43,-41.07"/>
<polygon fill="midnightblue" stroke="midnightblue" points="163.94,-41.01 160.87,-30.87 156.94,-40.71 163.94,-41.01"/>
</g>
<!-- Node22&#45;&gt;Node13 -->
<g id="edge28" class="edge">
<title>Node22&#45;&gt;Node13</title>
<path fill="none" stroke="midnightblue" d="M343.71,-276.04C415.47,-261.67 533.91,-237.95 595.68,-225.57"/>
<polygon fill="midnightblue" stroke="midnightblue" points="596.7,-228.94 605.82,-223.55 595.32,-222.08 596.7,-228.94"/>
</g>
<!-- Node22&#45;&gt;Node17 -->
<g id="edge25" class="edge">
<title>Node22&#45;&gt;Node17</title>
<path fill="none" stroke="midnightblue" d="M307.2,-273.9C324.66,-263.29 348.81,-248.61 368.09,-236.89"/>
<polygon fill="midnightblue" stroke="midnightblue" points="370.12,-239.76 376.84,-231.57 366.48,-233.78 370.12,-239.76"/>
</g>
<!-- Node22&#45;&gt;Node23 -->
<g id="edge27" class="edge">
<title>Node22&#45;&gt;Node23</title>
<path fill="none" stroke="midnightblue" d="M262.95,-273.73C245.06,-261.6 219.48,-244.26 201.47,-232.05"/>
<polygon fill="midnightblue" stroke="midnightblue" points="203.06,-228.91 192.82,-226.19 199.13,-234.7 203.06,-228.91"/>
</g>
<!-- Node24&#45;&gt;Node8 -->
<g id="edge32" class="edge">
<title>Node24&#45;&gt;Node8</title>
<path fill="none" stroke="midnightblue" d="M110.07,-279.22C116.46,-253.79 138.11,-178.96 181,-134 195.78,-118.5 216.27,-105.69 232.8,-96.85"/>
<polygon fill="midnightblue" stroke="midnightblue" points="234.72,-99.8 242.01,-92.11 231.52,-93.57 234.72,-99.8"/>
</g>
<!-- Node25 -->
<g id="node25" class="node">
<title>Node25</title>
<g id="a_node25"><a xlink:title=" ">
<polygon fill="white" stroke="#bfbfbf" points="28,-207 28,-226 96,-226 96,-207 28,-207"/>
<text text-anchor="middle" x="62" y="-214" font-family="Helvetica,sans-Serif" font-size="10.00">filesystem</text>
</a>
</g>
</g>
<!-- Node24&#45;&gt;Node25 -->
<g id="edge31" class="edge">
<title>Node24&#45;&gt;Node25</title>
<path fill="none" stroke="midnightblue" d="M102.36,-279.36C95.12,-268.26 82.38,-248.74 73.15,-234.59"/>
<polygon fill="midnightblue" stroke="midnightblue" points="76.08,-232.68 67.69,-226.22 70.22,-236.5 76.08,-232.68"/>
</g>
</g>
</svg>
        <g id="navigator" transform="translate(0 0)" fill="#404254">
                <rect fill="#f2f5e9" fill-opacity="0.5" stroke="#606060" stroke-width=".5" x="0" y="0" width="60" height="60"/>
                <use id="zoomplus" xlink:href="#zoomPlus" x="17" y="9" onmousedown="handleZoom(evt,'in')"/>
                <use id="zoomminus" xlink:href="#zoomMin" x="42" y="9" onmousedown="handleZoom(evt,'out')"/>
                <use id="reset" xlink:href="#resetDef" x="30" y="36" onmousedown="handleReset()"/>
                <g id="arrowUp" xlink:href="#dirArrow" transform="translate(30 24)" onmousedown="handlePan(0,-1)">
                  <use xlink:href="#rim" fill="#404040">
                        <set attributeName="fill" to="#808080" begin="arrowUp.mouseover" end="arrowUp.mouseout"/>
                  </use>
                  <path fill="none" stroke="white" stroke-width="1.5" d="M0,-3.0v7 M-2.5,-0.5L0,-3.0L2.5,-0.5"/>
                </g>
                <g id="arrowRight" xlink:href="#dirArrow" transform="rotate(90) translate(36 -43)" onmousedown="handlePan(1,0)">
                  <use xlink:href="#rim" fill="#404040">
                        <set attributeName="fill" to="#808080" begin="arrowRight.mouseover" end="arrowRight.mouseout"/>
                  </use>
                  <path fill="none" stroke="white" stroke-width="1.5" d="M0,-3.0v7 M-2.5,-0.5L0,-3.0L2.5,-0.5"/>
                </g>
                <g id="arrowDown" xlink:href="#dirArrow" transform="rotate(180) translate(-30 -48)" onmousedown="handlePan(0,1)">
                  <use xlink:href="#rim" fill="#404040">
                        <set attributeName="fill" to="#808080" begin="arrowDown.mouseover" end="arrowDown.mouseout"/>
                  </use>
                  <path fill="none" stroke="white" stroke-width="1.5" d="M0,-3.0v7 M-2.5,-0.5L0,-3.0L2.5,-0.5"/>
                </g>
                <g id="arrowLeft" xlink:href="#dirArrow" transform="rotate(270) translate(-36 17)" onmousedown="handlePan(-1,0)">
                  <use xlink:href="#rim" fill="#404040">
                        <set attributeName="fill" to="#808080" begin="arrowLeft.mouseover" end="arrowLeft.mouseout"/>
                  </use>
                  <path fill="none" stroke="white" stroke-width="1.5" d="M0,-3.0v7 M-2.5,-0.5L0,-3.0L2.5,-0.5"/>
                </g>
        </g>
        <svg viewBox="0 0 15 15" width="100%" height="30px" preserveAspectRatio="xMaxYMin meet">
         <g id="arrow_out" transform="scale(0.3 0.3)">
          <a xlink:href="getReference_8hpp__incl_org.svg" target="_base">
           <rect id="button" ry="5" rx="5" y="6" x="6" height="38" width="38"
                fill="#f2f5e9" fill-opacity="0.5" stroke="#606060" stroke-width="1.0"/>
           <path id="arrow"
             d="M 11.500037,31.436501 C 11.940474,20.09759 22.043105,11.32322 32.158766,21.979434 L 37.068811,17.246167 C 37.068811,17.246167 37.088388,32 37.088388,32 L 22.160133,31.978069 C 22.160133,31.978069 26.997745,27.140456 26.997745,27.140456 C 18.528582,18.264221 13.291696,25.230495 11.500037,31.436501 z"
             style="fill:#404040;"/>
          </a>
         </g>
        </svg>
</svg>
