<?xml version="1.0" encoding="UTF-8" standalone="no"?>
<!DOCTYPE svg PUBLIC "-//W3C//DTD SVG 1.1//EN"
 "http://www.w3.org/Graphics/SVG/1.1/DTD/svg11.dtd">
<!-- Generated by graphviz version 2.43.0 (0)
 -->
<!-- Title: getReference.hpp Pages: 1 -->
<svg width="863pt" height="434pt"
 viewBox="0.00 0.00 863.00 434.00" xmlns="http://www.w3.org/2000/svg" xmlns:xlink="http://www.w3.org/1999/xlink">
<g id="graph0" class="graph" transform="scale(1 1) rotate(0) translate(4 430)">
<title>getReference.hpp</title>
<!-- Node1 -->
<g id="Node000001" class="node">
<title>Node1</title>
<g id="a_Node000001"><a xlink:title=" ">
<polygon fill="#999999" stroke="#666666" points="466,-426 363,-426 363,-407 466,-407 466,-426"/>
<text text-anchor="middle" x="414.5" y="-414" font-family="Helvetica,sans-Serif" font-size="10.00">getReference.hpp</text>
</a>
</g>
</g>
<!-- Node2 -->
<g id="Node000002" class="node">
<title>Node2</title>
<g id="a_Node000002"><a xlink:href="basic__concepts_8hpp.html" target="_top" xlink:title=" ">
<polygon fill="white" stroke="#666666" points="586.5,-305 454.5,-305 454.5,-264 586.5,-264 586.5,-305"/>
<text text-anchor="start" x="462.5" y="-293" font-family="Helvetica,sans-Serif" font-size="10.00">packages/compile_time</text>
<text text-anchor="start" x="462.5" y="-282" font-family="Helvetica,sans-Serif" font-size="10.00">/packages/concepts/inc</text>
<text text-anchor="middle" x="520.5" y="-271" font-family="Helvetica,sans-Serif" font-size="10.00">/basic_concepts.hpp</text>
</a>
</g>
</g>
<!-- Node1&#45;&gt;Node2 -->
<g id="edge1_Node000001_Node000002" class="edge">
<title>Node1&#45;&gt;Node2</title>
<g id="a_edge1_Node000001_Node000002"><a xlink:title=" ">
<path fill="none" stroke="#63b8ff" d="M421.45,-406.97C436.7,-388.28 473.6,-343.01 497.81,-313.33"/>
<polygon fill="#63b8ff" stroke="#63b8ff" points="500.66,-315.37 504.27,-305.4 495.24,-310.94 500.66,-315.37"/>
</a>
</g>
</g>
<!-- Node16 -->
<g id="Node000016" class="node">
<title>Node16</title>
<g id="a_Node000016"><a xlink:href="checks_8hpp.html" target="_top" xlink:title=" ">
<polygon fill="white" stroke="#666666" points="254,-371 135,-371 135,-341 254,-341 254,-371"/>
<text text-anchor="start" x="143" y="-359" font-family="Helvetica,sans-Serif" font-size="10.00">packages/macros/inc</text>
<text text-anchor="middle" x="194.5" y="-348" font-family="Helvetica,sans-Serif" font-size="10.00">/checks.hpp</text>
</a>
</g>
</g>
<!-- Node1&#45;&gt;Node16 -->
<g id="edge16_Node000001_Node000016" class="edge">
<title>Node1&#45;&gt;Node16</title>
<g id="a_edge16_Node000001_Node000016"><a xlink:title=" ">
<path fill="none" stroke="#63b8ff" d="M382.51,-406.99C349.81,-398.3 298.17,-384.57 257.27,-373.69"/>
<polygon fill="#63b8ff" stroke="#63b8ff" points="257.95,-370.25 247.39,-371.06 256.16,-377.02 257.95,-370.25"/>
</a>
</g>
</g>
<!-- Node20 -->
<g id="Node000020" class="node">
<title>Node20</title>
<g id="a_Node000020"><a xlink:title=" ">
<polygon fill="#e0e0e0" stroke="#999999" points="496.5,-156.5 438.5,-156.5 438.5,-137.5 496.5,-137.5 496.5,-156.5"/>
<text text-anchor="middle" x="467.5" y="-144.5" font-family="Helvetica,sans-Serif" font-size="10.00">memory</text>
</a>
</g>
</g>
<!-- Node1&#45;&gt;Node20 -->
<g id="edge32_Node000001_Node000020" class="edge">
<title>Node1&#45;&gt;Node20</title>
<g id="a_edge32_Node000001_Node000020"><a xlink:title=" ">
<path fill="none" stroke="#63b8ff" d="M413.73,-406.88C411.39,-376.94 406.03,-275.13 433.5,-198 437.82,-185.86 445.82,-173.86 452.97,-164.67"/>
<polygon fill="#63b8ff" stroke="#63b8ff" points="455.79,-166.75 459.42,-156.79 450.38,-162.31 455.79,-166.75"/>
</a>
</g>
</g>
<!-- Node3 -->
<g id="Node000003" class="node">
<title>Node3</title>
<g id="a_Node000003"><a xlink:href="types_8hpp.html" target="_top" xlink:title=" ">
<polygon fill="white" stroke="#666666" points="624.5,-162 514.5,-162 514.5,-132 624.5,-132 624.5,-162"/>
<text text-anchor="start" x="522.5" y="-150" font-family="Helvetica,sans-Serif" font-size="10.00">packages/types/inc</text>
<text text-anchor="middle" x="569.5" y="-139" font-family="Helvetica,sans-Serif" font-size="10.00">/types.hpp</text>
</a>
</g>
</g>
<!-- Node2&#45;&gt;Node3 -->
<g id="edge2_Node000002_Node000003" class="edge">
<title>Node2&#45;&gt;Node3</title>
<g id="a_edge2_Node000002_Node000003"><a xlink:title=" ">
<path fill="none" stroke="#63b8ff" d="M541,-263.81C549.88,-253.96 559.39,-241.32 564.5,-228 571.3,-210.27 572.27,-188.7 571.7,-172.43"/>
<polygon fill="#63b8ff" stroke="#63b8ff" points="575.17,-171.9 571.1,-162.12 568.18,-172.31 575.17,-171.9"/>
</a>
</g>
</g>
<!-- Node9 -->
<g id="Node000009" class="node">
<title>Node9</title>
<g id="a_Node000009"><a xlink:title=" ">
<polygon fill="#e0e0e0" stroke="#999999" points="855,-90.5 786,-90.5 786,-71.5 855,-71.5 855,-90.5"/>
<text text-anchor="middle" x="820.5" y="-78.5" font-family="Helvetica,sans-Serif" font-size="10.00">type_traits</text>
</a>
</g>
</g>
<!-- Node2&#45;&gt;Node9 -->
<g id="edge13_Node000002_Node000009" class="edge">
<title>Node2&#45;&gt;Node9</title>
<g id="a_edge13_Node000002_Node000009"><a xlink:title=" ">
<path fill="none" stroke="#63b8ff" d="M549.54,-264C609.6,-223.65 746.29,-131.84 799.11,-96.36"/>
<polygon fill="#63b8ff" stroke="#63b8ff" points="801.34,-99.09 807.69,-90.61 797.43,-93.28 801.34,-99.09"/>
</a>
</g>
</g>
<!-- Node13 -->
<g id="Node000013" class="node">
<title>Node13</title>
<g id="a_Node000013"><a xlink:title=" ">
<polygon fill="#e0e0e0" stroke="#999999" points="381.5,-222.5 321.5,-222.5 321.5,-203.5 381.5,-203.5 381.5,-222.5"/>
<text text-anchor="middle" x="351.5" y="-210.5" font-family="Helvetica,sans-Serif" font-size="10.00">concepts</text>
</a>
</g>
</g>
<!-- Node2&#45;&gt;Node13 -->
<g id="edge12_Node000002_Node000013" class="edge">
<title>Node2&#45;&gt;Node13</title>
<g id="a_edge12_Node000002_Node000013"><a xlink:title=" ">
<path fill="none" stroke="#63b8ff" d="M472.97,-263.96C443.67,-251.9 406.98,-236.81 381.63,-226.39"/>
<polygon fill="#63b8ff" stroke="#63b8ff" points="382.76,-223.07 372.18,-222.5 380.1,-229.54 382.76,-223.07"/>
</a>
</g>
</g>
<!-- Node14 -->
<g id="Node000014" class="node">
<title>Node14</title>
<g id="a_Node000014"><a xlink:title=" ">
<polygon fill="#e0e0e0" stroke="#999999" points="492.5,-222.5 442.5,-222.5 442.5,-203.5 492.5,-203.5 492.5,-222.5"/>
<text text-anchor="middle" x="467.5" y="-210.5" font-family="Helvetica,sans-Serif" font-size="10.00">cstdint</text>
</a>
</g>
</g>
<!-- Node2&#45;&gt;Node14 -->
<g id="edge14_Node000002_Node000014" class="edge">
<title>Node2&#45;&gt;Node14</title>
<g id="a_edge14_Node000002_Node000014"><a xlink:title=" ">
<path fill="none" stroke="#63b8ff" d="M505.45,-263.77C497.58,-253.45 488.04,-240.93 480.49,-231.04"/>
<polygon fill="#63b8ff" stroke="#63b8ff" points="483.07,-228.65 474.23,-222.82 477.51,-232.89 483.07,-228.65"/>
</a>
</g>
</g>
<!-- Node15 -->
<g id="Node000015" class="node">
<title>Node15</title>
<g id="a_Node000015"><a xlink:title=" ">
<polygon fill="#e0e0e0" stroke="#999999" points="556,-222.5 511,-222.5 511,-203.5 556,-203.5 556,-222.5"/>
<text text-anchor="middle" x="533.5" y="-210.5" font-family="Helvetica,sans-Serif" font-size="10.00">utility</text>
</a>
</g>
</g>
<!-- Node2&#45;&gt;Node15 -->
<g id="edge15_Node000002_Node000015" class="edge">
<title>Node2&#45;&gt;Node15</title>
<g id="a_edge15_Node000002_Node000015"><a xlink:title=" ">
<path fill="none" stroke="#63b8ff" d="M524.19,-263.77C526,-254.08 528.18,-242.46 529.97,-232.88"/>
<polygon fill="#63b8ff" stroke="#63b8ff" points="533.45,-233.29 531.85,-222.82 526.57,-232.01 533.45,-233.29"/>
</a>
</g>
</g>
<!-- Node4 -->
<g id="Node000004" class="node">
<title>Node4</title>
<g id="a_Node000004"><a xlink:href="debug_8hpp.html" target="_top" xlink:title=" ">
<polygon fill="white" stroke="#666666" points="697,-96 578,-96 578,-66 697,-66 697,-96"/>
<text text-anchor="start" x="586" y="-84" font-family="Helvetica,sans-Serif" font-size="10.00">packages/macros/inc</text>
<text text-anchor="middle" x="637.5" y="-73" font-family="Helvetica,sans-Serif" font-size="10.00">/debug.hpp</text>
</a>
</g>
</g>
<!-- Node3&#45;&gt;Node4 -->
<g id="edge3_Node000003_Node000004" class="edge">
<title>Node3&#45;&gt;Node4</title>
<g id="a_edge3_Node000003_Node000004"><a xlink:title=" ">
<path fill="none" stroke="#63b8ff" d="M584.59,-131.8C593.57,-123.34 605.13,-112.46 615.15,-103.03"/>
<polygon fill="#63b8ff" stroke="#63b8ff" points="617.57,-105.57 622.45,-96.16 612.77,-100.47 617.57,-105.57"/>
</a>
</g>
</g>
<!-- Node7 -->
<g id="Node000007" class="node">
<title>Node7</title>
<g id="a_Node000007"><a xlink:title=" ">
<polygon fill="#e0e0e0" stroke="#999999" points="768,-90.5 715,-90.5 715,-71.5 768,-71.5 768,-90.5"/>
<text text-anchor="middle" x="741.5" y="-78.5" font-family="Helvetica,sans-Serif" font-size="10.00">cstddef</text>
</a>
</g>
</g>
<!-- Node3&#45;&gt;Node7 -->
<g id="edge6_Node000003_Node000007" class="edge">
<title>Node3&#45;&gt;Node7</title>
<g id="a_edge6_Node000003_Node000007"><a xlink:title=" ">
<path fill="none" stroke="#63b8ff" d="M608.26,-131.97C635.51,-122.05 672.79,-108.37 705.5,-96 707.1,-95.4 708.73,-94.77 710.38,-94.14"/>
<polygon fill="#63b8ff" stroke="#63b8ff" points="711.75,-97.37 719.82,-90.5 709.23,-90.83 711.75,-97.37"/>
</a>
</g>
</g>
<!-- Node8 -->
<g id="Node000008" class="node">
<title>Node8</title>
<g id="a_Node000008"><a xlink:title=" ">
<polygon fill="#e0e0e0" stroke="#999999" points="219.5,-90.5 175.5,-90.5 175.5,-71.5 219.5,-71.5 219.5,-90.5"/>
<text text-anchor="middle" x="197.5" y="-78.5" font-family="Helvetica,sans-Serif" font-size="10.00">string</text>
</a>
</g>
</g>
<!-- Node3&#45;&gt;Node8 -->
<g id="edge7_Node000003_Node000008" class="edge">
<title>Node3&#45;&gt;Node8</title>
<g id="a_edge7_Node000003_Node000008"><a xlink:title=" ">
<path fill="none" stroke="#63b8ff" d="M514.4,-133.63C511.4,-133.06 508.41,-132.51 505.5,-132 383.19,-110.72 347.92,-129.92 228.5,-96 226.86,-95.53 225.2,-95 223.53,-94.41"/>
<polygon fill="#63b8ff" stroke="#63b8ff" points="224.8,-91.14 214.22,-90.63 222.17,-97.63 224.8,-91.14"/>
</a>
</g>
</g>
<!-- Node3&#45;&gt;Node9 -->
<g id="edge8_Node000003_Node000009" class="edge">
<title>Node3&#45;&gt;Node9</title>
<g id="a_edge8_Node000003_Node000009"><a xlink:title=" ">
<path fill="none" stroke="#63b8ff" d="M624.69,-133.79C666.55,-124.26 725.4,-110.28 776.5,-96 779.25,-95.23 782.09,-94.41 784.93,-93.55"/>
<polygon fill="#63b8ff" stroke="#63b8ff" points="786.01,-96.89 794.53,-90.6 783.95,-90.2 786.01,-96.89"/>
</a>
</g>
</g>
<!-- Node10 -->
<g id="Node000010" class="node">
<title>Node10</title>
<g id="a_Node000010"><a xlink:title=" ">
<polygon fill="#e0e0e0" stroke="#999999" points="287.5,-90.5 237.5,-90.5 237.5,-71.5 287.5,-71.5 287.5,-90.5"/>
<text text-anchor="middle" x="262.5" y="-78.5" font-family="Helvetica,sans-Serif" font-size="10.00">climits</text>
</a>
</g>
</g>
<!-- Node3&#45;&gt;Node10 -->
<g id="edge9_Node000003_Node000010" class="edge">
<title>Node3&#45;&gt;Node10</title>
<g id="a_edge9_Node000003_Node000010"><a xlink:title=" ">
<path fill="none" stroke="#63b8ff" d="M514.37,-133.78C511.38,-133.16 508.4,-132.57 505.5,-132 412.99,-113.92 387.07,-122.1 296.5,-96 294.61,-95.46 292.69,-94.84 290.77,-94.18"/>
<polygon fill="#63b8ff" stroke="#63b8ff" points="291.89,-90.86 281.3,-90.6 289.42,-97.41 291.89,-90.86"/>
</a>
</g>
</g>
<!-- Node11 -->
<g id="Node000011" class="node">
<title>Node11</title>
<g id="a_Node000011"><a xlink:title=" ">
<polygon fill="#e0e0e0" stroke="#999999" points="423,-96 306,-96 306,-66 423,-66 423,-96"/>
<text text-anchor="start" x="314" y="-84" font-family="Helvetica,sans-Serif" font-size="10.00">packages/types/impl</text>
<text text-anchor="middle" x="364.5" y="-73" font-family="Helvetica,sans-Serif" font-size="10.00">/types_impl.hpp</text>
</a>
</g>
</g>
<!-- Node3&#45;&gt;Node11 -->
<g id="edge10_Node000003_Node000011" class="edge">
<title>Node3&#45;&gt;Node11</title>
<g id="a_edge10_Node000003_Node000011"><a xlink:title=" ">
<path fill="none" stroke="#63b8ff" d="M524.51,-131.95C493.54,-122.28 452.2,-109.38 419.3,-99.11"/>
<polygon fill="#63b8ff" stroke="#63b8ff" points="419.97,-95.65 409.38,-96.01 417.89,-102.33 419.97,-95.65"/>
</a>
</g>
</g>
<!-- Node12 -->
<g id="Node000012" class="node">
<title>Node12</title>
<g id="a_Node000012"><a xlink:href="logging_8hpp.html" target="_top" xlink:title=" ">
<polygon fill="white" stroke="#666666" points="560,-96 441,-96 441,-66 560,-66 560,-96"/>
<text text-anchor="start" x="449" y="-84" font-family="Helvetica,sans-Serif" font-size="10.00">packages/macros/inc</text>
<text text-anchor="middle" x="500.5" y="-73" font-family="Helvetica,sans-Serif" font-size="10.00">/logging.hpp</text>
</a>
</g>
</g>
<!-- Node3&#45;&gt;Node12 -->
<g id="edge11_Node000003_Node000012" class="edge">
<title>Node3&#45;&gt;Node12</title>
<g id="a_edge11_Node000003_Node000012"><a xlink:title=" ">
<path fill="none" stroke="#63b8ff" d="M554.19,-131.8C545.07,-123.34 533.34,-112.46 523.17,-103.03"/>
<polygon fill="#63b8ff" stroke="#63b8ff" points="525.48,-100.4 515.77,-96.16 520.72,-105.53 525.48,-100.4"/>
</a>
</g>
</g>
<!-- Node5 -->
<g id="Node000005" class="node">
<title>Node5</title>
<g id="a_Node000005"><a xlink:href="detail_8hpp.html" target="_top" xlink:title=" ">
<polygon fill="white" stroke="#666666" points="119,-30 0,-30 0,0 119,0 119,-30"/>
<text text-anchor="start" x="8" y="-18" font-family="Helvetica,sans-Serif" font-size="10.00">packages/macros/inc</text>
<text text-anchor="middle" x="59.5" y="-7" font-family="Helvetica,sans-Serif" font-size="10.00">/detail.hpp</text>
</a>
</g>
</g>
<!-- Node4&#45;&gt;Node5 -->
<g id="edge4_Node000004_Node000005" class="edge">
<title>Node4&#45;&gt;Node5</title>
<g id="a_edge4_Node000004_Node000005"><a xlink:title=" ">
<path fill="none" stroke="#63b8ff" d="M577.73,-67.48C574.61,-66.95 571.52,-66.45 568.5,-66 412.45,-42.57 227.77,-27.57 129.41,-20.59"/>
<polygon fill="#63b8ff" stroke="#63b8ff" points="129.52,-17.09 119.3,-19.88 129.03,-24.08 129.52,-17.09"/>
</a>
</g>
</g>
<!-- Node6 -->
<g id="Node000006" class="node">
<title>Node6</title>
<g id="a_Node000006"><a xlink:title=" ">
<polygon fill="#e0e0e0" stroke="#999999" points="667.5,-24.5 607.5,-24.5 607.5,-5.5 667.5,-5.5 667.5,-24.5"/>
<text text-anchor="middle" x="637.5" y="-12.5" font-family="Helvetica,sans-Serif" font-size="10.00">iostream</text>
</a>
</g>
</g>
<!-- Node4&#45;&gt;Node6 -->
<g id="edge5_Node000004_Node000006" class="edge">
<title>Node4&#45;&gt;Node6</title>
<g id="a_edge5_Node000004_Node000006"><a xlink:title=" ">
<path fill="none" stroke="#63b8ff" d="M637.5,-65.8C637.5,-56.7 637.5,-44.79 637.5,-34.9"/>
<polygon fill="#63b8ff" stroke="#63b8ff" points="641,-34.84 637.5,-24.84 634,-34.84 641,-34.84"/>
</a>
</g>
</g>
<!-- Node16&#45;&gt;Node5 -->
<g id="edge29_Node000016_Node000005" class="edge">
<title>Node16&#45;&gt;Node5</title>
<g id="a_edge29_Node000016_Node000005"><a xlink:title=" ">
<path fill="none" stroke="#63b8ff" d="M134.76,-341.79C110.11,-334.12 82.46,-322.42 61.5,-305 25.15,-274.8 6.5,-261.26 6.5,-214 6.5,-214 6.5,-214 6.5,-146 6.5,-105.84 28.45,-63.52 44.1,-38.46"/>
<polygon fill="#63b8ff" stroke="#63b8ff" points="47.05,-40.35 49.53,-30.05 41.17,-36.55 47.05,-40.35"/>
</a>
</g>
</g>
<!-- Node17 -->
<g id="Node000017" class="node">
<title>Node17</title>
<g id="a_Node000017"><a xlink:href="exception_8hpp.html" target="_top" xlink:title=" ">
<polygon fill="white" stroke="#666666" points="300,-228 181,-228 181,-198 300,-198 300,-228"/>
<text text-anchor="start" x="189" y="-216" font-family="Helvetica,sans-Serif" font-size="10.00">packages/exceptions</text>
<text text-anchor="middle" x="240.5" y="-205" font-family="Helvetica,sans-Serif" font-size="10.00">/inc/exception.hpp</text>
</a>
</g>
</g>
<!-- Node16&#45;&gt;Node17 -->
<g id="edge17_Node000016_Node000017" class="edge">
<title>Node16&#45;&gt;Node17</title>
<g id="a_edge17_Node000016_Node000017"><a xlink:title=" ">
<path fill="none" stroke="#63b8ff" d="M202.25,-340.9C207.41,-331.07 214.04,-317.52 218.5,-305 226.39,-282.86 232.39,-256.69 236.11,-238.12"/>
<polygon fill="#63b8ff" stroke="#63b8ff" points="239.58,-238.62 238.04,-228.14 232.7,-237.3 239.58,-238.62"/>
</a>
</g>
</g>
<!-- Node22 -->
<g id="Node000022" class="node">
<title>Node22</title>
<g id="a_Node000022"><a xlink:href="exceptions_8hpp.html" target="_top" xlink:title=" ">
<polygon fill="white" stroke="#666666" points="210,-299.5 91,-299.5 91,-269.5 210,-269.5 210,-299.5"/>
<text text-anchor="start" x="99" y="-287.5" font-family="Helvetica,sans-Serif" font-size="10.00">packages/macros/inc</text>
<text text-anchor="middle" x="150.5" y="-276.5" font-family="Helvetica,sans-Serif" font-size="10.00">/exceptions.hpp</text>
</a>
</g>
</g>
<!-- Node16&#45;&gt;Node22 -->
<g id="edge24_Node000016_Node000022" class="edge">
<title>Node16&#45;&gt;Node22</title>
<g id="a_edge24_Node000016_Node000022"><a xlink:title=" ">
<path fill="none" stroke="#63b8ff" d="M185.6,-340.94C179.63,-331.52 171.65,-318.91 164.8,-308.09"/>
<polygon fill="#63b8ff" stroke="#63b8ff" points="167.7,-306.12 159.39,-299.54 161.78,-309.86 167.7,-306.12"/>
</a>
</g>
</g>
<!-- Node23 -->
<g id="Node000023" class="node">
<title>Node23</title>
<g id="a_Node000023"><a xlink:title=" ">
<polygon fill="#e0e0e0" stroke="#999999" points="90.5,-222.5 34.5,-222.5 34.5,-203.5 90.5,-203.5 90.5,-222.5"/>
<text text-anchor="middle" x="62.5" y="-210.5" font-family="Helvetica,sans-Serif" font-size="10.00">sstream</text>
</a>
</g>
</g>
<!-- Node16&#45;&gt;Node23 -->
<g id="edge31_Node000016_Node000023" class="edge">
<title>Node16&#45;&gt;Node23</title>
<g id="a_edge31_Node000016_Node000023"><a xlink:title=" ">
<path fill="none" stroke="#63b8ff" d="M135.96,-340.96C115.99,-333.41 95.26,-322.01 81.5,-305 64.79,-284.34 61.72,-252.63 61.65,-232.61"/>
<polygon fill="#63b8ff" stroke="#63b8ff" points="65.15,-232.67 61.86,-222.6 58.15,-232.52 65.15,-232.67"/>
</a>
</g>
</g>
<!-- Node24 -->
<g id="Node000024" class="node">
<title>Node24</title>
<g id="a_Node000024"><a xlink:title=" ">
<polygon fill="#e0e0e0" stroke="#999999" points="386.5,-294 266.5,-294 266.5,-275 386.5,-275 386.5,-294"/>
<text text-anchor="middle" x="326.5" y="-282" font-family="Helvetica,sans-Serif" font-size="10.00">cmake_variables.hpp</text>
</a>
</g>
</g>
<!-- Node16&#45;&gt;Node24 -->
<g id="edge30_Node000016_Node000024" class="edge">
<title>Node16&#45;&gt;Node24</title>
<g id="a_edge30_Node000016_Node000024"><a xlink:title=" ">
<path fill="none" stroke="#63b8ff" d="M221.21,-340.94C244.55,-328.65 278.18,-310.94 301.12,-298.87"/>
<polygon fill="#63b8ff" stroke="#63b8ff" points="303.01,-301.82 310.23,-294.07 299.75,-295.63 303.01,-301.82"/>
</a>
</g>
</g>
<!-- Node17&#45;&gt;Node3 -->
<g id="edge18_Node000017_Node000003" class="edge">
<title>Node17&#45;&gt;Node3</title>
<g id="a_edge18_Node000017_Node000003"><a xlink:title=" ">
<path fill="none" stroke="#63b8ff" d="M300.21,-200.35C304.37,-199.55 308.5,-198.76 312.5,-198 395.12,-182.26 418.32,-179.51 504.41,-162.19"/>
<polygon fill="#63b8ff" stroke="#63b8ff" points="505.26,-165.59 514.36,-160.17 503.87,-158.72 505.26,-165.59"/>
</a>
</g>
</g>
<!-- Node17&#45;&gt;Node8 -->
<g id="edge20_Node000017_Node000008" class="edge">
<title>Node17&#45;&gt;Node8</title>
<g id="a_edge20_Node000017_Node000008"><a xlink:title=" ">
<path fill="none" stroke="#63b8ff" d="M300.06,-199.77C337.34,-190.77 380.34,-177.45 391.5,-162 399.31,-151.19 399.85,-142.4 391.5,-132 345.04,-74.16 298.91,-119.39 228.5,-96 227.1,-95.53 225.68,-95.03 224.25,-94.49"/>
<polygon fill="#63b8ff" stroke="#63b8ff" points="225.53,-91.23 214.95,-90.64 222.85,-97.7 225.53,-91.23"/>
</a>
</g>
</g>
<!-- Node18 -->
<g id="Node000018" class="node">
<title>Node18</title>
<g id="a_Node000018"><a xlink:title=" ">
<polygon fill="#e0e0e0" stroke="#999999" points="153,-156.5 88,-156.5 88,-137.5 153,-137.5 153,-156.5"/>
<text text-anchor="middle" x="120.5" y="-144.5" font-family="Helvetica,sans-Serif" font-size="10.00">stdexcept</text>
</a>
</g>
</g>
<!-- Node17&#45;&gt;Node18 -->
<g id="edge19_Node000017_Node000018" class="edge">
<title>Node17&#45;&gt;Node18</title>
<g id="a_edge19_Node000017_Node000018"><a xlink:title=" ">
<path fill="none" stroke="#63b8ff" d="M214.17,-197.95C193.68,-187.03 165.44,-171.97 145.34,-161.25"/>
<polygon fill="#63b8ff" stroke="#63b8ff" points="146.94,-158.14 136.47,-156.52 143.65,-164.31 146.94,-158.14"/>
</a>
</g>
</g>
<!-- Node19 -->
<g id="Node000019" class="node">
<title>Node19</title>
<g id="a_Node000019"><a xlink:title=" ">
<polygon fill="#e0e0e0" stroke="#999999" points="218,-156.5 171,-156.5 171,-137.5 218,-137.5 218,-156.5"/>
<text text-anchor="middle" x="194.5" y="-144.5" font-family="Helvetica,sans-Serif" font-size="10.00">deque</text>
</a>
</g>
</g>
<!-- Node17&#45;&gt;Node19 -->
<g id="edge21_Node000017_Node000019" class="edge">
<title>Node17&#45;&gt;Node19</title>
<g id="a_edge21_Node000017_Node000019"><a xlink:title=" ">
<path fill="none" stroke="#63b8ff" d="M230.29,-197.8C223.33,-188.11 214.08,-175.24 206.73,-165.01"/>
<polygon fill="#63b8ff" stroke="#63b8ff" points="209.54,-162.92 200.86,-156.84 203.85,-167.01 209.54,-162.92"/>
</a>
</g>
</g>
<!-- Node17&#45;&gt;Node20 -->
<g id="edge22_Node000017_Node000020" class="edge">
<title>Node17&#45;&gt;Node20</title>
<g id="a_edge22_Node000017_Node000020"><a xlink:title=" ">
<path fill="none" stroke="#63b8ff" d="M295.05,-197.93C331.76,-188.28 381.2,-174.92 424.5,-162 427.09,-161.23 429.76,-160.41 432.45,-159.57"/>
<polygon fill="#63b8ff" stroke="#63b8ff" points="433.63,-162.87 442.1,-156.5 431.51,-156.2 433.63,-162.87"/>
</a>
</g>
</g>
<!-- Node21 -->
<g id="Node000021" class="node">
<title>Node21</title>
<g id="a_Node000021"><a xlink:title=" ">
<polygon fill="#e0e0e0" stroke="#999999" points="382.5,-162 236.5,-162 236.5,-132 382.5,-132 382.5,-162"/>
<text text-anchor="start" x="244.5" y="-150" font-family="Helvetica,sans-Serif" font-size="10.00">packages/exceptions</text>
<text text-anchor="middle" x="309.5" y="-139" font-family="Helvetica,sans-Serif" font-size="10.00">/impl/exceptions_impl.hpp</text>
</a>
</g>
</g>
<!-- Node17&#45;&gt;Node21 -->
<g id="edge23_Node000017_Node000021" class="edge">
<title>Node17&#45;&gt;Node21</title>
<g id="a_edge23_Node000017_Node000021"><a xlink:title=" ">
<path fill="none" stroke="#63b8ff" d="M255.81,-197.8C264.93,-189.34 276.66,-178.46 286.83,-169.03"/>
<polygon fill="#63b8ff" stroke="#63b8ff" points="289.28,-171.53 294.23,-162.16 284.52,-166.4 289.28,-171.53"/>
</a>
</g>
</g>
<!-- Node22&#45;&gt;Node5 -->
<g id="edge26_Node000022_Node000005" class="edge">
<title>Node22&#45;&gt;Node5</title>
<g id="a_edge26_Node000022_Node000005"><a xlink:title=" ">
<path fill="none" stroke="#63b8ff" d="M142.03,-269.29C123.1,-237.53 79,-163.46 78.5,-162 64.31,-120.86 60.59,-69.87 59.69,-40.32"/>
<polygon fill="#63b8ff" stroke="#63b8ff" points="63.19,-40.03 59.47,-30.11 56.19,-40.19 63.19,-40.03"/>
</a>
</g>
</g>
<!-- Node22&#45;&gt;Node13 -->
<g id="edge28_Node000022_Node000013" class="edge">
<title>Node22&#45;&gt;Node13</title>
<g id="a_edge28_Node000022_Node000013"><a xlink:title=" ">
<path fill="none" stroke="#63b8ff" d="M191.18,-269.44C228.14,-256.66 282.07,-238.01 316.97,-225.94"/>
<polygon fill="#63b8ff" stroke="#63b8ff" points="318.41,-229.14 326.72,-222.57 316.13,-222.53 318.41,-229.14"/>
</a>
</g>
</g>
<!-- Node22&#45;&gt;Node17 -->
<g id="edge25_Node000022_Node000017" class="edge">
<title>Node22&#45;&gt;Node17</title>
<g id="a_edge25_Node000022_Node000017"><a xlink:title=" ">
<path fill="none" stroke="#63b8ff" d="M168.71,-269.44C181.77,-259.36 199.55,-245.63 214.15,-234.35"/>
<polygon fill="#63b8ff" stroke="#63b8ff" points="216.54,-236.93 222.31,-228.04 212.26,-231.39 216.54,-236.93"/>
</a>
</g>
</g>
<!-- Node22&#45;&gt;Node23 -->
<g id="edge27_Node000022_Node000023" class="edge">
<title>Node22&#45;&gt;Node23</title>
<g id="a_edge27_Node000022_Node000023"><a xlink:title=" ">
<path fill="none" stroke="#63b8ff" d="M132.69,-269.44C117.91,-257.76 96.94,-241.2 81.77,-229.22"/>
<polygon fill="#63b8ff" stroke="#63b8ff" points="83.62,-226.22 73.6,-222.77 79.28,-231.71 83.62,-226.22"/>
</a>
</g>
</g>
</g>
</svg>
