<?xml version="1.0" encoding="UTF-8" standalone="no"?>
<!DOCTYPE svg PUBLIC "-//W3C//DTD SVG 1.1//EN"
 "http://www.w3.org/Graphics/SVG/1.1/DTD/svg11.dtd">
<!-- Generated by graphviz version 2.43.0 (0)
 -->
<!-- Title: HierarchicalInteger.hpp Pages: 1 -->
<svg width="978pt" height="313pt"
 viewBox="0.00 0.00 977.50 313.00" xmlns="http://www.w3.org/2000/svg" xmlns:xlink="http://www.w3.org/1999/xlink">
<g id="graph0" class="graph" transform="scale(1 1) rotate(0) translate(4 309)">
<title>HierarchicalInteger.hpp</title>
<!-- Node1 -->
<g id="Node000001" class="node">
<title>Node1</title>
<g id="a_Node000001"><a xlink:title=" ">
<polygon fill="#999999" stroke="#666666" points="786.5,-305 656.5,-305 656.5,-286 786.5,-286 786.5,-305"/>
<text text-anchor="middle" x="721.5" y="-293" font-family="Helvetica,sans-Serif" font-size="10.00">HierarchicalInteger.hpp</text>
</a>
</g>
</g>
<!-- Node2 -->
<g id="Node000002" class="node">
<title>Node2</title>
<g id="a_Node000002"><a xlink:href="integer_8hpp.html" target="_top" xlink:title=" ">
<polygon fill="white" stroke="#666666" points="787.5,-250 655.5,-250 655.5,-209 787.5,-209 787.5,-250"/>
<text text-anchor="start" x="663.5" y="-238" font-family="Helvetica,sans-Serif" font-size="10.00">packages/compile_time</text>
<text text-anchor="start" x="663.5" y="-227" font-family="Helvetica,sans-Serif" font-size="10.00">/packages/type_select</text>
<text text-anchor="middle" x="721.5" y="-216" font-family="Helvetica,sans-Serif" font-size="10.00">/inc/integer.hpp</text>
</a>
</g>
</g>
<!-- Node1&#45;&gt;Node2 -->
<g id="edge1_Node000001_Node000002" class="edge">
<title>Node1&#45;&gt;Node2</title>
<g id="a_edge1_Node000001_Node000002"><a xlink:title=" ">
<path fill="none" stroke="#63b8ff" d="M721.5,-285.87C721.5,-279.22 721.5,-269.63 721.5,-260.28"/>
<polygon fill="#63b8ff" stroke="#63b8ff" points="725,-260.01 721.5,-250.01 718,-260.01 725,-260.01"/>
</a>
</g>
</g>
<!-- Node3 -->
<g id="Node000003" class="node">
<title>Node3</title>
<g id="a_Node000003"><a xlink:href="types_8hpp.html" target="_top" xlink:title=" ">
<polygon fill="white" stroke="#666666" points="455.5,-167.5 345.5,-167.5 345.5,-137.5 455.5,-137.5 455.5,-167.5"/>
<text text-anchor="start" x="353.5" y="-155.5" font-family="Helvetica,sans-Serif" font-size="10.00">packages/types/inc</text>
<text text-anchor="middle" x="400.5" y="-144.5" font-family="Helvetica,sans-Serif" font-size="10.00">/types.hpp</text>
</a>
</g>
</g>
<!-- Node1&#45;&gt;Node3 -->
<g id="edge23_Node000001_Node000003" class="edge">
<title>Node1&#45;&gt;Node3</title>
<g id="a_edge23_Node000001_Node000003"><a xlink:title=" ">
<path fill="none" stroke="#63b8ff" d="M656.48,-287.94C594.43,-280.76 506.13,-267.83 476.5,-250 447.24,-232.39 424.85,-199.06 412.18,-176.56"/>
<polygon fill="#63b8ff" stroke="#63b8ff" points="415.2,-174.78 407.36,-167.66 409.05,-178.12 415.2,-174.78"/>
</a>
</g>
</g>
<!-- Node15 -->
<g id="Node000015" class="node">
<title>Node15</title>
<g id="a_Node000015"><a xlink:title=" ">
<polygon fill="#e0e0e0" stroke="#999999" points="969.5,-162 925.5,-162 925.5,-143 969.5,-143 969.5,-162"/>
<text text-anchor="middle" x="947.5" y="-150" font-family="Helvetica,sans-Serif" font-size="10.00">limits</text>
</a>
</g>
</g>
<!-- Node1&#45;&gt;Node15 -->
<g id="edge24_Node000001_Node000015" class="edge">
<title>Node1&#45;&gt;Node15</title>
<g id="a_edge24_Node000001_Node000015"><a xlink:title=" ">
<path fill="none" stroke="#63b8ff" d="M739.05,-285.86C754.83,-277.68 778.27,-264.53 796.5,-250 816.17,-234.32 814.95,-223.5 835.5,-209 867.69,-186.29 881.74,-191.54 916.5,-173 919.68,-171.3 922.98,-169.4 926.18,-167.47"/>
<polygon fill="#63b8ff" stroke="#63b8ff" points="928.16,-170.36 934.77,-162.08 924.44,-164.42 928.16,-170.36"/>
</a>
</g>
</g>
<!-- Node17 -->
<g id="Node000017" class="node">
<title>Node17</title>
<g id="a_Node000017"><a xlink:href="basic__concepts_8hpp.html" target="_top" xlink:title=" ">
<polygon fill="white" stroke="#666666" points="617.5,-250 485.5,-250 485.5,-209 617.5,-209 617.5,-250"/>
<text text-anchor="start" x="493.5" y="-238" font-family="Helvetica,sans-Serif" font-size="10.00">packages/compile_time</text>
<text text-anchor="start" x="493.5" y="-227" font-family="Helvetica,sans-Serif" font-size="10.00">/packages/concepts/inc</text>
<text text-anchor="middle" x="551.5" y="-216" font-family="Helvetica,sans-Serif" font-size="10.00">/basic_concepts.hpp</text>
</a>
</g>
</g>
<!-- Node1&#45;&gt;Node17 -->
<g id="edge17_Node000001_Node000017" class="edge">
<title>Node1&#45;&gt;Node17</title>
<g id="a_edge17_Node000001_Node000017"><a xlink:title=" ">
<path fill="none" stroke="#63b8ff" d="M698.57,-285.87C676.66,-277.62 642.63,-264.81 612.83,-253.59"/>
<polygon fill="#63b8ff" stroke="#63b8ff" points="613.91,-250.26 603.32,-250.01 611.45,-256.81 613.91,-250.26"/>
</a>
</g>
</g>
<!-- Node20 -->
<g id="Node000020" class="node">
<title>Node20</title>
<g id="a_Node000020"><a xlink:title=" ">
<polygon fill="#e0e0e0" stroke="#999999" points="959,-250 844,-250 844,-209 959,-209 959,-250"/>
<text text-anchor="start" x="852" y="-238" font-family="Helvetica,sans-Serif" font-size="10.00">packages/trees/impl</text>
<text text-anchor="start" x="852" y="-227" font-family="Helvetica,sans-Serif" font-size="10.00">/HierarhicalInteger</text>
<text text-anchor="middle" x="901.5" y="-216" font-family="Helvetica,sans-Serif" font-size="10.00">_impl.hpp</text>
</a>
</g>
</g>
<!-- Node1&#45;&gt;Node20 -->
<g id="edge25_Node000001_Node000020" class="edge">
<title>Node1&#45;&gt;Node20</title>
<g id="a_edge25_Node000001_Node000020"><a xlink:title=" ">
<path fill="none" stroke="#63b8ff" d="M745.78,-285.87C769.08,-277.58 805.32,-264.7 836.97,-253.44"/>
<polygon fill="#63b8ff" stroke="#63b8ff" points="838.38,-256.66 846.63,-250.01 836.04,-250.06 838.38,-256.66"/>
</a>
</g>
</g>
<!-- Node2&#45;&gt;Node3 -->
<g id="edge2_Node000002_Node000003" class="edge">
<title>Node2&#45;&gt;Node3</title>
<g id="a_edge2_Node000002_Node000003"><a xlink:title=" ">
<path fill="none" stroke="#63b8ff" d="M655.38,-213.05C599.83,-200.07 520.89,-181.63 465.62,-168.72"/>
<polygon fill="#63b8ff" stroke="#63b8ff" points="466.13,-165.24 455.59,-166.37 464.53,-172.06 466.13,-165.24"/>
</a>
</g>
</g>
<!-- Node13 -->
<g id="Node000013" class="node">
<title>Node13</title>
<g id="a_Node000013"><a xlink:href="Concatenate_8hpp.html" target="_top" xlink:title=" ">
<polygon fill="white" stroke="#666666" points="907.5,-173 759.5,-173 759.5,-132 907.5,-132 907.5,-173"/>
<text text-anchor="start" x="767.5" y="-161" font-family="Helvetica,sans-Serif" font-size="10.00">packages/compile_time</text>
<text text-anchor="start" x="767.5" y="-150" font-family="Helvetica,sans-Serif" font-size="10.00">/packages/parameter_pack</text>
<text text-anchor="middle" x="833.5" y="-139" font-family="Helvetica,sans-Serif" font-size="10.00">/inc/Concatenate.hpp</text>
</a>
</g>
</g>
<!-- Node2&#45;&gt;Node13 -->
<g id="edge12_Node000002_Node000013" class="edge">
<title>Node2&#45;&gt;Node13</title>
<g id="a_edge12_Node000002_Node000013"><a xlink:title=" ">
<path fill="none" stroke="#63b8ff" d="M750.63,-208.99C764.4,-199.77 781,-188.66 795.71,-178.81"/>
<polygon fill="#63b8ff" stroke="#63b8ff" points="797.76,-181.64 804.12,-173.17 793.87,-175.83 797.76,-181.64"/>
</a>
</g>
</g>
<!-- Node14 -->
<g id="Node000014" class="node">
<title>Node14</title>
<g id="a_Node000014"><a xlink:title=" ">
<polygon fill="#e0e0e0" stroke="#999999" points="824,-90.5 783,-90.5 783,-71.5 824,-71.5 824,-90.5"/>
<text text-anchor="middle" x="803.5" y="-78.5" font-family="Helvetica,sans-Serif" font-size="10.00">tuple</text>
</a>
</g>
</g>
<!-- Node2&#45;&gt;Node14 -->
<g id="edge15_Node000002_Node000014" class="edge">
<title>Node2&#45;&gt;Node14</title>
<g id="a_edge15_Node000002_Node000014"><a xlink:title=" ">
<path fill="none" stroke="#63b8ff" d="M724.34,-208.78C727.95,-188.35 735.61,-156.11 750.5,-132 758.97,-118.28 772.15,-105.82 783.25,-96.77"/>
<polygon fill="#63b8ff" stroke="#63b8ff" points="785.49,-99.47 791.22,-90.56 781.18,-93.95 785.49,-99.47"/>
</a>
</g>
</g>
<!-- Node2&#45;&gt;Node15 -->
<g id="edge14_Node000002_Node000015" class="edge">
<title>Node2&#45;&gt;Node15</title>
<g id="a_edge14_Node000002_Node000015"><a xlink:title=" ">
<path fill="none" stroke="#63b8ff" d="M787.52,-211.85C834.55,-199.59 893.35,-183.32 916.5,-173 920.02,-171.43 923.6,-169.51 927.03,-167.5"/>
<polygon fill="#63b8ff" stroke="#63b8ff" points="928.98,-170.41 935.58,-162.12 925.25,-164.49 928.98,-170.41"/>
</a>
</g>
</g>
<!-- Node16 -->
<g id="Node000016" class="node">
<title>Node16</title>
<g id="a_Node000016"><a xlink:title=" ">
<polygon fill="#e0e0e0" stroke="#999999" points="703.5,-162 653.5,-162 653.5,-143 703.5,-143 703.5,-162"/>
<text text-anchor="middle" x="678.5" y="-150" font-family="Helvetica,sans-Serif" font-size="10.00">cstdint</text>
</a>
</g>
</g>
<!-- Node2&#45;&gt;Node16 -->
<g id="edge16_Node000002_Node000016" class="edge">
<title>Node2&#45;&gt;Node16</title>
<g id="a_edge16_Node000002_Node000016"><a xlink:title=" ">
<path fill="none" stroke="#63b8ff" d="M710.2,-208.79C703.5,-197.11 695.09,-182.43 688.61,-171.13"/>
<polygon fill="#63b8ff" stroke="#63b8ff" points="691.52,-169.17 683.51,-162.24 685.45,-172.65 691.52,-169.17"/>
</a>
</g>
</g>
<!-- Node4 -->
<g id="Node000004" class="node">
<title>Node4</title>
<g id="a_Node000004"><a xlink:href="debug_8hpp.html" target="_top" xlink:title=" ">
<polygon fill="white" stroke="#666666" points="173,-96 54,-96 54,-66 173,-66 173,-96"/>
<text text-anchor="start" x="62" y="-84" font-family="Helvetica,sans-Serif" font-size="10.00">packages/macros/inc</text>
<text text-anchor="middle" x="113.5" y="-73" font-family="Helvetica,sans-Serif" font-size="10.00">/debug.hpp</text>
</a>
</g>
</g>
<!-- Node3&#45;&gt;Node4 -->
<g id="edge3_Node000003_Node000004" class="edge">
<title>Node3&#45;&gt;Node4</title>
<g id="a_edge3_Node000003_Node000004"><a xlink:title=" ">
<path fill="none" stroke="#63b8ff" d="M345.16,-138.1C298.43,-126.78 231.34,-110.54 181.38,-98.44"/>
<polygon fill="#63b8ff" stroke="#63b8ff" points="182.16,-95.03 171.62,-96.07 180.52,-101.83 182.16,-95.03"/>
</a>
</g>
</g>
<!-- Node7 -->
<g id="Node000007" class="node">
<title>Node7</title>
<g id="a_Node000007"><a xlink:title=" ">
<polygon fill="#e0e0e0" stroke="#999999" points="244,-90.5 191,-90.5 191,-71.5 244,-71.5 244,-90.5"/>
<text text-anchor="middle" x="217.5" y="-78.5" font-family="Helvetica,sans-Serif" font-size="10.00">cstddef</text>
</a>
</g>
</g>
<!-- Node3&#45;&gt;Node7 -->
<g id="edge6_Node000003_Node000007" class="edge">
<title>Node3&#45;&gt;Node7</title>
<g id="a_edge6_Node000003_Node000007"><a xlink:title=" ">
<path fill="none" stroke="#63b8ff" d="M363,-137.46C333.27,-126.3 290.69,-110.25 253.5,-96 252.09,-95.46 250.65,-94.91 249.2,-94.35"/>
<polygon fill="#63b8ff" stroke="#63b8ff" points="250.16,-90.97 239.57,-90.62 247.64,-97.5 250.16,-90.97"/>
</a>
</g>
</g>
<!-- Node8 -->
<g id="Node000008" class="node">
<title>Node8</title>
<g id="a_Node000008"><a xlink:title=" ">
<polygon fill="#e0e0e0" stroke="#999999" points="306.5,-90.5 262.5,-90.5 262.5,-71.5 306.5,-71.5 306.5,-90.5"/>
<text text-anchor="middle" x="284.5" y="-78.5" font-family="Helvetica,sans-Serif" font-size="10.00">string</text>
</a>
</g>
</g>
<!-- Node3&#45;&gt;Node8 -->
<g id="edge7_Node000003_Node000008" class="edge">
<title>Node3&#45;&gt;Node8</title>
<g id="a_edge7_Node000003_Node000008"><a xlink:title=" ">
<path fill="none" stroke="#63b8ff" d="M377.03,-137.44C356.79,-125.31 327.75,-107.91 307.62,-95.85"/>
<polygon fill="#63b8ff" stroke="#63b8ff" points="309.18,-92.7 298.8,-90.57 305.58,-98.71 309.18,-92.7"/>
</a>
</g>
</g>
<!-- Node9 -->
<g id="Node000009" class="node">
<title>Node9</title>
<g id="a_Node000009"><a xlink:title=" ">
<polygon fill="#e0e0e0" stroke="#999999" points="734,-90.5 665,-90.5 665,-71.5 734,-71.5 734,-90.5"/>
<text text-anchor="middle" x="699.5" y="-78.5" font-family="Helvetica,sans-Serif" font-size="10.00">type_traits</text>
</a>
</g>
</g>
<!-- Node3&#45;&gt;Node9 -->
<g id="edge8_Node000003_Node000009" class="edge">
<title>Node3&#45;&gt;Node9</title>
<g id="a_edge8_Node000003_Node000009"><a xlink:title=" ">
<path fill="none" stroke="#63b8ff" d="M448.25,-137.44C455.35,-135.52 462.6,-133.64 469.5,-132 551.42,-112.53 573.91,-116.8 655.5,-96 658.51,-95.23 661.62,-94.38 664.72,-93.48"/>
<polygon fill="#63b8ff" stroke="#63b8ff" points="665.96,-96.76 674.52,-90.51 663.93,-90.06 665.96,-96.76"/>
</a>
</g>
</g>
<!-- Node10 -->
<g id="Node000010" class="node">
<title>Node10</title>
<g id="a_Node000010"><a xlink:title=" ">
<polygon fill="#e0e0e0" stroke="#999999" points="374.5,-90.5 324.5,-90.5 324.5,-71.5 374.5,-71.5 374.5,-90.5"/>
<text text-anchor="middle" x="349.5" y="-78.5" font-family="Helvetica,sans-Serif" font-size="10.00">climits</text>
</a>
</g>
</g>
<!-- Node3&#45;&gt;Node10 -->
<g id="edge9_Node000003_Node000010" class="edge">
<title>Node3&#45;&gt;Node10</title>
<g id="a_edge9_Node000003_Node000010"><a xlink:title=" ">
<path fill="none" stroke="#63b8ff" d="M390.18,-137.44C382.02,-126.31 370.59,-110.74 361.92,-98.93"/>
<polygon fill="#63b8ff" stroke="#63b8ff" points="364.67,-96.76 355.93,-90.77 359.03,-100.9 364.67,-96.76"/>
</a>
</g>
</g>
<!-- Node11 -->
<g id="Node000011" class="node">
<title>Node11</title>
<g id="a_Node000011"><a xlink:title=" ">
<polygon fill="#e0e0e0" stroke="#999999" points="510,-96 393,-96 393,-66 510,-66 510,-96"/>
<text text-anchor="start" x="401" y="-84" font-family="Helvetica,sans-Serif" font-size="10.00">packages/types/impl</text>
<text text-anchor="middle" x="451.5" y="-73" font-family="Helvetica,sans-Serif" font-size="10.00">/types_impl.hpp</text>
</a>
</g>
</g>
<!-- Node3&#45;&gt;Node11 -->
<g id="edge10_Node000003_Node000011" class="edge">
<title>Node3&#45;&gt;Node11</title>
<g id="a_edge10_Node000003_Node000011"><a xlink:title=" ">
<path fill="none" stroke="#63b8ff" d="M410.82,-137.44C417.8,-127.92 427.17,-115.15 435.16,-104.27"/>
<polygon fill="#63b8ff" stroke="#63b8ff" points="438.1,-106.18 441.19,-96.04 432.46,-102.04 438.1,-106.18"/>
</a>
</g>
</g>
<!-- Node12 -->
<g id="Node000012" class="node">
<title>Node12</title>
<g id="a_Node000012"><a xlink:href="logging_8hpp.html" target="_top" xlink:title=" ">
<polygon fill="white" stroke="#666666" points="647,-96 528,-96 528,-66 647,-66 647,-96"/>
<text text-anchor="start" x="536" y="-84" font-family="Helvetica,sans-Serif" font-size="10.00">packages/macros/inc</text>
<text text-anchor="middle" x="587.5" y="-73" font-family="Helvetica,sans-Serif" font-size="10.00">/logging.hpp</text>
</a>
</g>
</g>
<!-- Node3&#45;&gt;Node12 -->
<g id="edge11_Node000003_Node000012" class="edge">
<title>Node3&#45;&gt;Node12</title>
<g id="a_edge11_Node000003_Node000012"><a xlink:title=" ">
<path fill="none" stroke="#63b8ff" d="M438.34,-137.44C467.74,-126.51 508.69,-111.29 540.25,-99.56"/>
<polygon fill="#63b8ff" stroke="#63b8ff" points="541.56,-102.81 549.71,-96.04 539.12,-96.25 541.56,-102.81"/>
</a>
</g>
</g>
<!-- Node5 -->
<g id="Node000005" class="node">
<title>Node5</title>
<g id="a_Node000005"><a xlink:href="detail_8hpp.html" target="_top" xlink:title=" ">
<polygon fill="white" stroke="#666666" points="119,-30 0,-30 0,0 119,0 119,-30"/>
<text text-anchor="start" x="8" y="-18" font-family="Helvetica,sans-Serif" font-size="10.00">packages/macros/inc</text>
<text text-anchor="middle" x="59.5" y="-7" font-family="Helvetica,sans-Serif" font-size="10.00">/detail.hpp</text>
</a>
</g>
</g>
<!-- Node4&#45;&gt;Node5 -->
<g id="edge4_Node000004_Node000005" class="edge">
<title>Node4&#45;&gt;Node5</title>
<g id="a_edge4_Node000004_Node000005"><a xlink:title=" ">
<path fill="none" stroke="#63b8ff" d="M101.52,-65.8C94.59,-57.59 85.74,-47.1 77.95,-37.87"/>
<polygon fill="#63b8ff" stroke="#63b8ff" points="80.57,-35.55 71.45,-30.16 75.22,-40.06 80.57,-35.55"/>
</a>
</g>
</g>
<!-- Node6 -->
<g id="Node000006" class="node">
<title>Node6</title>
<g id="a_Node000006"><a xlink:title=" ">
<polygon fill="#e0e0e0" stroke="#999999" points="197.5,-24.5 137.5,-24.5 137.5,-5.5 197.5,-5.5 197.5,-24.5"/>
<text text-anchor="middle" x="167.5" y="-12.5" font-family="Helvetica,sans-Serif" font-size="10.00">iostream</text>
</a>
</g>
</g>
<!-- Node4&#45;&gt;Node6 -->
<g id="edge5_Node000004_Node000006" class="edge">
<title>Node4&#45;&gt;Node6</title>
<g id="a_edge5_Node000004_Node000006"><a xlink:title=" ">
<path fill="none" stroke="#63b8ff" d="M125.48,-65.8C133.74,-56.01 144.74,-42.98 153.41,-32.7"/>
<polygon fill="#63b8ff" stroke="#63b8ff" points="156.26,-34.74 160.04,-24.84 150.91,-30.23 156.26,-34.74"/>
</a>
</g>
</g>
<!-- Node13&#45;&gt;Node14 -->
<g id="edge13_Node000013_Node000014" class="edge">
<title>Node13&#45;&gt;Node14</title>
<g id="a_edge13_Node000013_Node000014"><a xlink:title=" ">
<path fill="none" stroke="#63b8ff" d="M824.98,-131.77C820.71,-121.87 815.56,-109.95 811.38,-100.26"/>
<polygon fill="#63b8ff" stroke="#63b8ff" points="814.48,-98.61 807.31,-90.82 808.06,-101.39 814.48,-98.61"/>
</a>
</g>
</g>
<!-- Node17&#45;&gt;Node3 -->
<g id="edge18_Node000017_Node000003" class="edge">
<title>Node17&#45;&gt;Node3</title>
<g id="a_edge18_Node000017_Node000003"><a xlink:title=" ">
<path fill="none" stroke="#63b8ff" d="M512.22,-208.99C489.44,-197.67 460.88,-183.49 438.35,-172.3"/>
<polygon fill="#63b8ff" stroke="#63b8ff" points="439.6,-169.01 429.09,-167.7 436.49,-175.28 439.6,-169.01"/>
</a>
</g>
</g>
<!-- Node17&#45;&gt;Node9 -->
<g id="edge20_Node000017_Node000009" class="edge">
<title>Node17&#45;&gt;Node9</title>
<g id="a_edge20_Node000017_Node000009"><a xlink:title=" ">
<path fill="none" stroke="#63b8ff" d="M528.89,-208.67C508.24,-188.17 483.6,-155.86 502.5,-132 545.87,-77.24 588.17,-114.6 655.5,-96 658.25,-95.24 661.09,-94.42 663.94,-93.57"/>
<polygon fill="#63b8ff" stroke="#63b8ff" points="665.01,-96.9 673.54,-90.62 662.95,-90.21 665.01,-96.9"/>
</a>
</g>
</g>
<!-- Node17&#45;&gt;Node16 -->
<g id="edge21_Node000017_Node000016" class="edge">
<title>Node17&#45;&gt;Node16</title>
<g id="a_edge21_Node000017_Node000016"><a xlink:title=" ">
<path fill="none" stroke="#63b8ff" d="M584.54,-208.99C606.74,-195.88 635.46,-178.92 655.28,-167.22"/>
<polygon fill="#63b8ff" stroke="#63b8ff" points="657.13,-170.19 663.96,-162.09 653.57,-164.16 657.13,-170.19"/>
</a>
</g>
</g>
<!-- Node18 -->
<g id="Node000018" class="node">
<title>Node18</title>
<g id="a_Node000018"><a xlink:title=" ">
<polygon fill="#e0e0e0" stroke="#999999" points="571.5,-162 511.5,-162 511.5,-143 571.5,-143 571.5,-162"/>
<text text-anchor="middle" x="541.5" y="-150" font-family="Helvetica,sans-Serif" font-size="10.00">concepts</text>
</a>
</g>
</g>
<!-- Node17&#45;&gt;Node18 -->
<g id="edge19_Node000017_Node000018" class="edge">
<title>Node17&#45;&gt;Node18</title>
<g id="a_edge19_Node000017_Node000018"><a xlink:title=" ">
<path fill="none" stroke="#63b8ff" d="M548.87,-208.79C547.36,-197.47 545.48,-183.32 543.99,-172.17"/>
<polygon fill="#63b8ff" stroke="#63b8ff" points="547.46,-171.69 542.66,-162.24 540.52,-172.61 547.46,-171.69"/>
</a>
</g>
</g>
<!-- Node19 -->
<g id="Node000019" class="node">
<title>Node19</title>
<g id="a_Node000019"><a xlink:title=" ">
<polygon fill="#e0e0e0" stroke="#999999" points="635,-162 590,-162 590,-143 635,-143 635,-162"/>
<text text-anchor="middle" x="612.5" y="-150" font-family="Helvetica,sans-Serif" font-size="10.00">utility</text>
</a>
</g>
</g>
<!-- Node17&#45;&gt;Node19 -->
<g id="edge22_Node000017_Node000019" class="edge">
<title>Node17&#45;&gt;Node19</title>
<g id="a_edge22_Node000017_Node000019"><a xlink:title=" ">
<path fill="none" stroke="#63b8ff" d="M567.53,-208.79C577.32,-196.76 589.69,-181.54 598.99,-170.12"/>
<polygon fill="#63b8ff" stroke="#63b8ff" points="601.8,-172.2 605.39,-162.24 596.37,-167.79 601.8,-172.2"/>
</a>
</g>
</g>
</g>
</svg>
