<?xml version="1.0" encoding="UTF-8" standalone="no"?>
<!DOCTYPE svg PUBLIC "-//W3C//DTD SVG 1.1//EN"
 "http://www.w3.org/Graphics/SVG/1.1/DTD/svg11.dtd">
<!-- Generated by graphviz version 2.43.0 (0)
 -->
<!-- Title: HierarchicalInteger.hpp Pages: 1 -->
<svg width="978pt" height="318pt"
 viewBox="0.00 0.00 977.50 318.00" xmlns="http://www.w3.org/2000/svg" xmlns:xlink="http://www.w3.org/1999/xlink">
<g id="graph0" class="graph" transform="scale(1 1) rotate(0) translate(4 314)">
<title>HierarchicalInteger.hpp</title>
<polygon fill="white" stroke="transparent" points="-4,4 -4,-314 973.5,-314 973.5,4 -4,4"/>
<!-- Node1 -->
<g id="node1" class="node">
<title>Node1</title>
<g id="a_node1"><a xlink:title=" ">
<polygon fill="#bfbfbf" stroke="black" points="656.5,-290.5 656.5,-309.5 786.5,-309.5 786.5,-290.5 656.5,-290.5"/>
<text text-anchor="middle" x="721.5" y="-297.5" font-family="Helvetica,sans-Serif" font-size="10.00">HierarchicalInteger.hpp</text>
</a>
</g>
</g>
<!-- Node2 -->
<g id="node2" class="node">
<title>Node2</title>
<g id="a_node2"><a xlink:href="integer_8hpp.html" target="_top" xlink:title=" ">
<polygon fill="white" stroke="black" points="655.5,-212.5 655.5,-253.5 787.5,-253.5 787.5,-212.5 655.5,-212.5"/>
<text text-anchor="start" x="663.5" y="-241.5" font-family="Helvetica,sans-Serif" font-size="10.00">packages/compile_time</text>
<text text-anchor="start" x="663.5" y="-230.5" font-family="Helvetica,sans-Serif" font-size="10.00">/packages/type_select</text>
<text text-anchor="middle" x="721.5" y="-219.5" font-family="Helvetica,sans-Serif" font-size="10.00">/inc/integer.hpp</text>
</a>
</g>
</g>
<!-- Node1&#45;&gt;Node2 -->
<g id="edge1" class="edge">
<title>Node1&#45;&gt;Node2</title>
<path fill="none" stroke="midnightblue" d="M721.5,-290.23C721.5,-283.36 721.5,-273.38 721.5,-263.73"/>
<polygon fill="midnightblue" stroke="midnightblue" points="725,-263.54 721.5,-253.54 718,-263.54 725,-263.54"/>
</g>
<!-- Node3 -->
<g id="node3" class="node">
<title>Node3</title>
<g id="a_node3"><a xlink:href="types_8hpp.html" target="_top" xlink:title=" ">
<polygon fill="white" stroke="black" points="345.5,-140 345.5,-170 455.5,-170 455.5,-140 345.5,-140"/>
<text text-anchor="start" x="353.5" y="-158" font-family="Helvetica,sans-Serif" font-size="10.00">packages/types/inc</text>
<text text-anchor="middle" x="400.5" y="-147" font-family="Helvetica,sans-Serif" font-size="10.00">/types.hpp</text>
</a>
</g>
</g>
<!-- Node1&#45;&gt;Node3 -->
<g id="edge23" class="edge">
<title>Node1&#45;&gt;Node3</title>
<path fill="none" stroke="midnightblue" d="M656.45,-292.35C594.37,-285.06 506.06,-271.98 476.5,-254 446.88,-235.99 424.46,-201.87 411.89,-179.03"/>
<polygon fill="midnightblue" stroke="midnightblue" points="414.89,-177.21 407.12,-170.01 408.71,-180.49 414.89,-177.21"/>
</g>
<!-- Node15 -->
<g id="node15" class="node">
<title>Node15</title>
<g id="a_node15"><a xlink:title=" ">
<polygon fill="white" stroke="#bfbfbf" points="925.5,-145.5 925.5,-164.5 969.5,-164.5 969.5,-145.5 925.5,-145.5"/>
<text text-anchor="middle" x="947.5" y="-152.5" font-family="Helvetica,sans-Serif" font-size="10.00">limits</text>
</a>
</g>
</g>
<!-- Node1&#45;&gt;Node15 -->
<g id="edge24" class="edge">
<title>Node1&#45;&gt;Node15</title>
<path fill="none" stroke="midnightblue" d="M738.77,-290.44C754.58,-282.19 778.22,-268.83 796.5,-254 816.28,-237.95 814.77,-226.81 835.5,-212 867.56,-189.1 881.84,-194.73 916.5,-176 919.85,-174.19 923.32,-172.14 926.67,-170.06"/>
<polygon fill="midnightblue" stroke="midnightblue" points="928.59,-172.99 935.1,-164.63 924.8,-167.1 928.59,-172.99"/>
</g>
<!-- Node17 -->
<g id="node17" class="node">
<title>Node17</title>
<g id="a_node17"><a xlink:href="basic__concepts_8hpp.html" target="_top" xlink:title=" ">
<polygon fill="white" stroke="black" points="485.5,-212.5 485.5,-253.5 617.5,-253.5 617.5,-212.5 485.5,-212.5"/>
<text text-anchor="start" x="493.5" y="-241.5" font-family="Helvetica,sans-Serif" font-size="10.00">packages/compile_time</text>
<text text-anchor="start" x="493.5" y="-230.5" font-family="Helvetica,sans-Serif" font-size="10.00">/packages/concepts/inc</text>
<text text-anchor="middle" x="551.5" y="-219.5" font-family="Helvetica,sans-Serif" font-size="10.00">/basic_concepts.hpp</text>
</a>
</g>
</g>
<!-- Node1&#45;&gt;Node17 -->
<g id="edge17" class="edge">
<title>Node1&#45;&gt;Node17</title>
<path fill="none" stroke="midnightblue" d="M698.93,-290.37C676.92,-281.95 642.48,-268.79 612.41,-257.29"/>
<polygon fill="midnightblue" stroke="midnightblue" points="613.42,-253.93 602.83,-253.63 610.92,-260.47 613.42,-253.93"/>
</g>
<!-- Node20 -->
<g id="node20" class="node">
<title>Node20</title>
<g id="a_node20"><a xlink:title=" ">
<polygon fill="white" stroke="#bfbfbf" points="844,-212.5 844,-253.5 959,-253.5 959,-212.5 844,-212.5"/>
<text text-anchor="start" x="852" y="-241.5" font-family="Helvetica,sans-Serif" font-size="10.00">packages/trees/impl</text>
<text text-anchor="start" x="852" y="-230.5" font-family="Helvetica,sans-Serif" font-size="10.00">/HierarhicalInteger</text>
<text text-anchor="middle" x="901.5" y="-219.5" font-family="Helvetica,sans-Serif" font-size="10.00">_impl.hpp</text>
</a>
</g>
</g>
<!-- Node1&#45;&gt;Node20 -->
<g id="edge25" class="edge">
<title>Node1&#45;&gt;Node20</title>
<path fill="none" stroke="midnightblue" d="M745.4,-290.37C768.8,-281.92 805.49,-268.67 837.42,-257.14"/>
<polygon fill="midnightblue" stroke="midnightblue" points="838.94,-260.31 847.15,-253.63 836.56,-253.73 838.94,-260.31"/>
</g>
<!-- Node2&#45;&gt;Node3 -->
<g id="edge2" class="edge">
<title>Node2&#45;&gt;Node3</title>
<path fill="none" stroke="midnightblue" d="M655.38,-216.34C599.83,-203.19 520.89,-184.5 465.62,-171.42"/>
<polygon fill="midnightblue" stroke="midnightblue" points="466.13,-167.94 455.59,-169.04 464.52,-174.75 466.13,-167.94"/>
</g>
<!-- Node13 -->
<g id="node13" class="node">
<title>Node13</title>
<g id="a_node13"><a xlink:href="Concatenate_8hpp.html" target="_top" xlink:title=" ">
<polygon fill="white" stroke="black" points="759.5,-134.5 759.5,-175.5 907.5,-175.5 907.5,-134.5 759.5,-134.5"/>
<text text-anchor="start" x="767.5" y="-163.5" font-family="Helvetica,sans-Serif" font-size="10.00">packages/compile_time</text>
<text text-anchor="start" x="767.5" y="-152.5" font-family="Helvetica,sans-Serif" font-size="10.00">/packages/parameter_pack</text>
<text text-anchor="middle" x="833.5" y="-141.5" font-family="Helvetica,sans-Serif" font-size="10.00">/inc/Concatenate.hpp</text>
</a>
</g>
</g>
<!-- Node2&#45;&gt;Node13 -->
<g id="edge12" class="edge">
<title>Node2&#45;&gt;Node13</title>
<path fill="none" stroke="midnightblue" d="M750.34,-212.43C764.32,-202.94 781.28,-191.44 796.22,-181.29"/>
<polygon fill="midnightblue" stroke="midnightblue" points="798.45,-184.02 804.75,-175.51 794.51,-178.22 798.45,-184.02"/>
</g>
<!-- Node14 -->
<g id="node14" class="node">
<title>Node14</title>
<g id="a_node14"><a xlink:title=" ">
<polygon fill="white" stroke="#bfbfbf" points="783,-73 783,-92 824,-92 824,-73 783,-73"/>
<text text-anchor="middle" x="803.5" y="-80" font-family="Helvetica,sans-Serif" font-size="10.00">tuple</text>
</a>
</g>
</g>
<!-- Node2&#45;&gt;Node14 -->
<g id="edge15" class="edge">
<title>Node2&#45;&gt;Node14</title>
<path fill="none" stroke="midnightblue" d="M724.23,-212.37C727.78,-191.66 735.42,-158.68 750.5,-134 758.95,-120.17 772.13,-107.59 783.23,-98.45"/>
<polygon fill="midnightblue" stroke="midnightblue" points="785.52,-101.1 791.2,-92.16 781.19,-95.6 785.52,-101.1"/>
</g>
<!-- Node2&#45;&gt;Node15 -->
<g id="edge14" class="edge">
<title>Node2&#45;&gt;Node15</title>
<path fill="none" stroke="midnightblue" d="M787.56,-215.24C834.6,-202.89 893.41,-186.49 916.5,-176 920.09,-174.37 923.75,-172.36 927.24,-170.26"/>
<polygon fill="midnightblue" stroke="midnightblue" points="929.41,-173.02 935.9,-164.65 925.6,-167.15 929.41,-173.02"/>
</g>
<!-- Node16 -->
<g id="node16" class="node">
<title>Node16</title>
<g id="a_node16"><a xlink:title=" ">
<polygon fill="white" stroke="#bfbfbf" points="653.5,-145.5 653.5,-164.5 703.5,-164.5 703.5,-145.5 653.5,-145.5"/>
<text text-anchor="middle" x="678.5" y="-152.5" font-family="Helvetica,sans-Serif" font-size="10.00">cstdint</text>
</a>
</g>
</g>
<!-- Node2&#45;&gt;Node16 -->
<g id="edge16" class="edge">
<title>Node2&#45;&gt;Node16</title>
<path fill="none" stroke="midnightblue" d="M710.43,-212.43C703.58,-200.33 694.88,-184.95 688.29,-173.3"/>
<polygon fill="midnightblue" stroke="midnightblue" points="691.31,-171.53 683.34,-164.55 685.22,-174.98 691.31,-171.53"/>
</g>
<!-- Node4 -->
<g id="node4" class="node">
<title>Node4</title>
<g id="a_node4"><a xlink:href="debug_8hpp.html" target="_top" xlink:title=" ">
<polygon fill="white" stroke="black" points="54,-67.5 54,-97.5 173,-97.5 173,-67.5 54,-67.5"/>
<text text-anchor="start" x="62" y="-85.5" font-family="Helvetica,sans-Serif" font-size="10.00">packages/macros/inc</text>
<text text-anchor="middle" x="113.5" y="-74.5" font-family="Helvetica,sans-Serif" font-size="10.00">/debug.hpp</text>
</a>
</g>
</g>
<!-- Node3&#45;&gt;Node4 -->
<g id="edge3" class="edge">
<title>Node3&#45;&gt;Node4</title>
<path fill="none" stroke="midnightblue" d="M345.16,-140.41C298.13,-128.85 230.46,-112.23 180.4,-99.93"/>
<polygon fill="midnightblue" stroke="midnightblue" points="181.18,-96.52 170.63,-97.53 179.51,-103.32 181.18,-96.52"/>
</g>
<!-- Node7 -->
<g id="node7" class="node">
<title>Node7</title>
<g id="a_node7"><a xlink:title=" ">
<polygon fill="white" stroke="#bfbfbf" points="191,-73 191,-92 244,-92 244,-73 191,-73"/>
<text text-anchor="middle" x="217.5" y="-80" font-family="Helvetica,sans-Serif" font-size="10.00">cstddef</text>
</a>
</g>
</g>
<!-- Node3&#45;&gt;Node7 -->
<g id="edge6" class="edge">
<title>Node3&#45;&gt;Node7</title>
<path fill="none" stroke="midnightblue" d="M362.96,-139.92C333.22,-128.72 290.62,-112.55 253.5,-98 251.66,-97.28 249.78,-96.54 247.88,-95.78"/>
<polygon fill="midnightblue" stroke="midnightblue" points="249,-92.46 238.41,-92 246.4,-98.96 249,-92.46"/>
</g>
<!-- Node8 -->
<g id="node8" class="node">
<title>Node8</title>
<g id="a_node8"><a xlink:title=" ">
<polygon fill="white" stroke="#bfbfbf" points="262.5,-73 262.5,-92 306.5,-92 306.5,-73 262.5,-73"/>
<text text-anchor="middle" x="284.5" y="-80" font-family="Helvetica,sans-Serif" font-size="10.00">string</text>
</a>
</g>
</g>
<!-- Node3&#45;&gt;Node8 -->
<g id="edge7" class="edge">
<title>Node3&#45;&gt;Node8</title>
<path fill="none" stroke="midnightblue" d="M377.3,-139.9C356.89,-127.5 327.36,-109.55 307.12,-97.25"/>
<polygon fill="midnightblue" stroke="midnightblue" points="308.9,-94.24 298.54,-92.03 305.27,-100.22 308.9,-94.24"/>
</g>
<!-- Node9 -->
<g id="node9" class="node">
<title>Node9</title>
<g id="a_node9"><a xlink:title=" ">
<polygon fill="white" stroke="#bfbfbf" points="665,-73 665,-92 734,-92 734,-73 665,-73"/>
<text text-anchor="middle" x="699.5" y="-80" font-family="Helvetica,sans-Serif" font-size="10.00">type_traits</text>
</a>
</g>
</g>
<!-- Node3&#45;&gt;Node9 -->
<g id="edge8" class="edge">
<title>Node3&#45;&gt;Node9</title>
<path fill="none" stroke="midnightblue" d="M446.74,-139.97C454.31,-137.85 462.1,-135.78 469.5,-134 551.35,-114.26 574.02,-119.22 655.5,-98 658.87,-97.12 662.36,-96.13 665.83,-95.08"/>
<polygon fill="midnightblue" stroke="midnightblue" points="666.98,-98.39 675.46,-92.04 664.87,-91.71 666.98,-98.39"/>
</g>
<!-- Node10 -->
<g id="node10" class="node">
<title>Node10</title>
<g id="a_node10"><a xlink:title=" ">
<polygon fill="white" stroke="#bfbfbf" points="324.5,-73 324.5,-92 374.5,-92 374.5,-73 324.5,-73"/>
<text text-anchor="middle" x="349.5" y="-80" font-family="Helvetica,sans-Serif" font-size="10.00">climits</text>
</a>
</g>
</g>
<!-- Node3&#45;&gt;Node10 -->
<g id="edge9" class="edge">
<title>Node3&#45;&gt;Node10</title>
<path fill="none" stroke="midnightblue" d="M390.18,-139.73C382.02,-128.45 370.59,-112.65 361.92,-100.67"/>
<polygon fill="midnightblue" stroke="midnightblue" points="364.63,-98.44 355.93,-92.39 358.96,-102.55 364.63,-98.44"/>
</g>
<!-- Node11 -->
<g id="node11" class="node">
<title>Node11</title>
<g id="a_node11"><a xlink:title=" ">
<polygon fill="white" stroke="#bfbfbf" points="393,-67.5 393,-97.5 510,-97.5 510,-67.5 393,-67.5"/>
<text text-anchor="start" x="401" y="-85.5" font-family="Helvetica,sans-Serif" font-size="10.00">packages/types/impl</text>
<text text-anchor="middle" x="451.5" y="-74.5" font-family="Helvetica,sans-Serif" font-size="10.00">/types_impl.hpp</text>
</a>
</g>
</g>
<!-- Node3&#45;&gt;Node11 -->
<g id="edge10" class="edge">
<title>Node3&#45;&gt;Node11</title>
<path fill="none" stroke="midnightblue" d="M410.82,-139.73C417.8,-130.08 427.17,-117.13 435.16,-106.09"/>
<polygon fill="midnightblue" stroke="midnightblue" points="438.17,-107.9 441.19,-97.75 432.5,-103.8 438.17,-107.9"/>
</g>
<!-- Node12 -->
<g id="node12" class="node">
<title>Node12</title>
<g id="a_node12"><a xlink:href="logging_8hpp.html" target="_top" xlink:title=" ">
<polygon fill="white" stroke="black" points="528,-67.5 528,-97.5 647,-97.5 647,-67.5 528,-67.5"/>
<text text-anchor="start" x="536" y="-85.5" font-family="Helvetica,sans-Serif" font-size="10.00">packages/macros/inc</text>
<text text-anchor="middle" x="587.5" y="-74.5" font-family="Helvetica,sans-Serif" font-size="10.00">/logging.hpp</text>
</a>
</g>
</g>
<!-- Node3&#45;&gt;Node12 -->
<g id="edge11" class="edge">
<title>Node3&#45;&gt;Node12</title>
<path fill="none" stroke="midnightblue" d="M437.89,-139.9C467.45,-128.76 508.88,-113.14 540.65,-101.16"/>
<polygon fill="midnightblue" stroke="midnightblue" points="542.05,-104.38 550.17,-97.57 539.58,-97.83 542.05,-104.38"/>
</g>
<!-- Node5 -->
<g id="node5" class="node">
<title>Node5</title>
<g id="a_node5"><a xlink:href="detail_8hpp.html" target="_top" xlink:title=" ">
<polygon fill="white" stroke="black" points="0,-0.5 0,-30.5 119,-30.5 119,-0.5 0,-0.5"/>
<text text-anchor="start" x="8" y="-18.5" font-family="Helvetica,sans-Serif" font-size="10.00">packages/macros/inc</text>
<text text-anchor="middle" x="59.5" y="-7.5" font-family="Helvetica,sans-Serif" font-size="10.00">/detail.hpp</text>
</a>
</g>
</g>
<!-- Node4&#45;&gt;Node5 -->
<g id="edge4" class="edge">
<title>Node4&#45;&gt;Node5</title>
<path fill="none" stroke="midnightblue" d="M101.78,-67.4C94.78,-58.96 85.73,-48.07 77.79,-38.52"/>
<polygon fill="midnightblue" stroke="midnightblue" points="80.28,-36.03 71.19,-30.58 74.89,-40.51 80.28,-36.03"/>
</g>
<!-- Node6 -->
<g id="node6" class="node">
<title>Node6</title>
<g id="a_node6"><a xlink:title=" ">
<polygon fill="white" stroke="#bfbfbf" points="137.5,-6 137.5,-25 197.5,-25 197.5,-6 137.5,-6"/>
<text text-anchor="middle" x="167.5" y="-13" font-family="Helvetica,sans-Serif" font-size="10.00">iostream</text>
</a>
</g>
</g>
<!-- Node4&#45;&gt;Node6 -->
<g id="edge5" class="edge">
<title>Node4&#45;&gt;Node6</title>
<path fill="none" stroke="midnightblue" d="M125.22,-67.4C133.64,-57.26 145.01,-43.57 153.84,-32.94"/>
<polygon fill="midnightblue" stroke="midnightblue" points="156.58,-35.12 160.28,-25.19 151.19,-30.65 156.58,-35.12"/>
</g>
<!-- Node13&#45;&gt;Node14 -->
<g id="edge13" class="edge">
<title>Node13&#45;&gt;Node14</title>
<path fill="none" stroke="midnightblue" d="M825.14,-134.36C820.77,-124.08 815.45,-111.58 811.18,-101.54"/>
<polygon fill="midnightblue" stroke="midnightblue" points="814.33,-100 807.19,-92.17 807.89,-102.75 814.33,-100"/>
</g>
<!-- Node17&#45;&gt;Node3 -->
<g id="edge18" class="edge">
<title>Node17&#45;&gt;Node3</title>
<path fill="none" stroke="midnightblue" d="M512.61,-212.43C489.57,-200.83 460.53,-186.21 437.78,-174.76"/>
<polygon fill="midnightblue" stroke="midnightblue" points="439.27,-171.59 428.76,-170.23 436.12,-177.85 439.27,-171.59"/>
</g>
<!-- Node17&#45;&gt;Node9 -->
<g id="edge20" class="edge">
<title>Node17&#45;&gt;Node9</title>
<path fill="none" stroke="midnightblue" d="M529.18,-212.22C508.38,-191.39 483.25,-158.31 502.5,-134 545.87,-79.24 588.26,-116.95 655.5,-98 658.67,-97.11 661.96,-96.13 665.24,-95.11"/>
<polygon fill="midnightblue" stroke="midnightblue" points="666.49,-98.39 674.95,-92.01 664.36,-91.72 666.49,-98.39"/>
</g>
<!-- Node17&#45;&gt;Node16 -->
<g id="edge21" class="edge">
<title>Node17&#45;&gt;Node16</title>
<path fill="none" stroke="midnightblue" d="M584.21,-212.43C606.54,-199.06 635.58,-181.69 655.5,-169.77"/>
<polygon fill="midnightblue" stroke="midnightblue" points="657.43,-172.69 664.21,-164.55 653.83,-166.68 657.43,-172.69"/>
</g>
<!-- Node18 -->
<g id="node18" class="node">
<title>Node18</title>
<g id="a_node18"><a xlink:title=" ">
<polygon fill="white" stroke="#bfbfbf" points="511.5,-145.5 511.5,-164.5 571.5,-164.5 571.5,-145.5 511.5,-145.5"/>
<text text-anchor="middle" x="541.5" y="-152.5" font-family="Helvetica,sans-Serif" font-size="10.00">concepts</text>
</a>
</g>
</g>
<!-- Node17&#45;&gt;Node18 -->
<g id="edge19" class="edge">
<title>Node17&#45;&gt;Node18</title>
<path fill="none" stroke="midnightblue" d="M548.92,-212.43C547.4,-200.82 545.47,-186.18 543.96,-174.72"/>
<polygon fill="midnightblue" stroke="midnightblue" points="547.4,-174.01 542.63,-164.55 540.46,-174.92 547.4,-174.01"/>
</g>
<!-- Node19 -->
<g id="node19" class="node">
<title>Node19</title>
<g id="a_node19"><a xlink:title=" ">
<polygon fill="white" stroke="#bfbfbf" points="590,-145.5 590,-164.5 635,-164.5 635,-145.5 590,-145.5"/>
<text text-anchor="middle" x="612.5" y="-152.5" font-family="Helvetica,sans-Serif" font-size="10.00">utility</text>
</a>
</g>
</g>
<!-- Node17&#45;&gt;Node19 -->
<g id="edge22" class="edge">
<title>Node17&#45;&gt;Node19</title>
<path fill="none" stroke="midnightblue" d="M567.21,-212.43C577.11,-200.09 589.76,-184.34 599.17,-172.61"/>
<polygon fill="midnightblue" stroke="midnightblue" points="602.11,-174.54 605.64,-164.55 596.65,-170.16 602.11,-174.54"/>
</g>
</g>
</svg>
