<?xml version="1.0" encoding="UTF-8" standalone="no"?>
<!DOCTYPE svg PUBLIC "-//W3C//DTD SVG 1.1//EN"
 "http://www.w3.org/Graphics/SVG/1.1/DTD/svg11.dtd">
<!-- Generated by graphviz version 2.43.0 (0)
 -->
<!-- Title: Graphical Class Hierarchy Pages: 1 -->
<svg width="418pt" height="256pt"
 viewBox="0.00 0.00 418.00 256.00" xmlns="http://www.w3.org/2000/svg" xmlns:xlink="http://www.w3.org/1999/xlink">
<g id="graph0" class="graph" transform="scale(1 1) rotate(0) translate(4 252)">
<title>Graphical Class Hierarchy</title>
<polygon fill="white" stroke="transparent" points="-4,4 -4,-252 414,-252 414,4 -4,4"/>
<!-- Node29 -->
<g id="node1" class="node">
<title>Node29</title>
<g id="a_node1"><a xlink:title=" ">
<polygon fill="white" stroke="#bfbfbf" points="0,-114.5 0,-133.5 86,-133.5 86,-114.5 0,-114.5"/>
<text text-anchor="middle" x="43" y="-121.5" font-family="Helvetica,sans-Serif" font-size="10.00">std::exception</text>
</a>
</g>
</g>
<!-- Node0 -->
<g id="node2" class="node">
<title>Node0</title>
<g id="a_node2"><a xlink:href="classcie_1_1Exception.html" target="_top" xlink:title=" ">
<polygon fill="white" stroke="black" points="122,-114.5 122,-133.5 207,-133.5 207,-114.5 122,-114.5"/>
<text text-anchor="middle" x="164.5" y="-121.5" font-family="Helvetica,sans-Serif" font-size="10.00">cie::Exception</text>
</a>
</g>
</g>
<!-- Node29&#45;&gt;Node0 -->
<g id="edge1" class="edge">
<title>Node29&#45;&gt;Node0</title>
<path fill="none" stroke="midnightblue" d="M96.35,-124C104.85,-124 113.55,-124 121.75,-124"/>
<polygon fill="midnightblue" stroke="midnightblue" points="96.13,-120.5 86.13,-124 96.13,-127.5 96.13,-120.5"/>
</g>
<!-- Node1 -->
<g id="node3" class="node">
<title>Node1</title>
<g id="a_node3"><a xlink:href="structcie_1_1AbstractCallException.html" target="_top" xlink:title=" ">
<polygon fill="white" stroke="black" points="254.5,-228.5 254.5,-247.5 398.5,-247.5 398.5,-228.5 254.5,-228.5"/>
<text text-anchor="middle" x="326.5" y="-235.5" font-family="Helvetica,sans-Serif" font-size="10.00">cie::AbstractCallException</text>
</a>
</g>
</g>
<!-- Node0&#45;&gt;Node1 -->
<g id="edge2" class="edge">
<title>Node0&#45;&gt;Node1</title>
<path fill="none" stroke="midnightblue" d="M175.47,-142.5C188.19,-164.28 212.28,-199.89 243,-219 249.24,-222.88 256.19,-225.97 263.33,-228.43"/>
<polygon fill="midnightblue" stroke="midnightblue" points="178.4,-140.57 170.44,-133.58 172.3,-144.01 178.4,-140.57"/>
</g>
<!-- Node2 -->
<g id="node4" class="node">
<title>Node2</title>
<g id="a_node4"><a xlink:href="structcie_1_1DivisionByZeroException.html" target="_top" xlink:title=" ">
<polygon fill="white" stroke="black" points="246.5,-190.5 246.5,-209.5 406.5,-209.5 406.5,-190.5 246.5,-190.5"/>
<text text-anchor="middle" x="326.5" y="-197.5" font-family="Helvetica,sans-Serif" font-size="10.00">cie::DivisionByZeroException</text>
</a>
</g>
</g>
<!-- Node0&#45;&gt;Node2 -->
<g id="edge3" class="edge">
<title>Node0&#45;&gt;Node2</title>
<path fill="none" stroke="midnightblue" d="M183.51,-140.6C198.41,-153.46 220.67,-170.75 243,-181 251.42,-184.86 260.69,-187.97 269.88,-190.47"/>
<polygon fill="midnightblue" stroke="midnightblue" points="185.45,-137.64 175.65,-133.63 180.81,-142.88 185.45,-137.64"/>
</g>
<!-- Node3 -->
<g id="node5" class="node">
<title>Node3</title>
<g id="a_node5"><a xlink:href="structcie_1_1GeometryException.html" target="_top" xlink:title=" ">
<polygon fill="white" stroke="black" points="259.5,-152.5 259.5,-171.5 393.5,-171.5 393.5,-152.5 259.5,-152.5"/>
<text text-anchor="middle" x="326.5" y="-159.5" font-family="Helvetica,sans-Serif" font-size="10.00">cie::GeometryException</text>
</a>
</g>
</g>
<!-- Node0&#45;&gt;Node3 -->
<g id="edge4" class="edge">
<title>Node0&#45;&gt;Node3</title>
<path fill="none" stroke="midnightblue" d="M213.94,-135.99C223.56,-138.34 233.6,-140.76 243,-143 256.16,-146.13 270.51,-149.46 283.5,-152.45"/>
<polygon fill="midnightblue" stroke="midnightblue" points="214.65,-132.56 204.11,-133.58 212.99,-139.36 214.65,-132.56"/>
</g>
<!-- Node4 -->
<g id="node6" class="node">
<title>Node4</title>
<g id="a_node6"><a xlink:href="structcie_1_1MemoryException.html" target="_top" xlink:title=" ">
<polygon fill="white" stroke="black" points="264,-114.5 264,-133.5 389,-133.5 389,-114.5 264,-114.5"/>
<text text-anchor="middle" x="326.5" y="-121.5" font-family="Helvetica,sans-Serif" font-size="10.00">cie::MemoryException</text>
</a>
</g>
</g>
<!-- Node0&#45;&gt;Node4 -->
<g id="edge5" class="edge">
<title>Node0&#45;&gt;Node4</title>
<path fill="none" stroke="midnightblue" d="M217.16,-124C232.06,-124 248.46,-124 263.89,-124"/>
<polygon fill="midnightblue" stroke="midnightblue" points="217.12,-120.5 207.12,-124 217.12,-127.5 217.12,-120.5"/>
</g>
<!-- Node5 -->
<g id="node7" class="node">
<title>Node5</title>
<g id="a_node7"><a xlink:href="structcie_1_1NotImplementedException.html" target="_top" xlink:title=" ">
<polygon fill="white" stroke="black" points="243,-76.5 243,-95.5 410,-95.5 410,-76.5 243,-76.5"/>
<text text-anchor="middle" x="326.5" y="-83.5" font-family="Helvetica,sans-Serif" font-size="10.00">cie::NotImplementedException</text>
</a>
</g>
</g>
<!-- Node0&#45;&gt;Node5 -->
<g id="edge6" class="edge">
<title>Node0&#45;&gt;Node5</title>
<path fill="none" stroke="midnightblue" d="M213.94,-112.01C223.56,-109.66 233.6,-107.24 243,-105 256.16,-101.87 270.51,-98.54 283.5,-95.55"/>
<polygon fill="midnightblue" stroke="midnightblue" points="212.99,-108.64 204.11,-114.42 214.65,-115.44 212.99,-108.64"/>
</g>
<!-- Node6 -->
<g id="node8" class="node">
<title>Node6</title>
<g id="a_node8"><a xlink:href="structcie_1_1NullPtrException.html" target="_top" xlink:title=" ">
<polygon fill="white" stroke="black" points="267.5,-38.5 267.5,-57.5 385.5,-57.5 385.5,-38.5 267.5,-38.5"/>
<text text-anchor="middle" x="326.5" y="-45.5" font-family="Helvetica,sans-Serif" font-size="10.00">cie::NullPtrException</text>
</a>
</g>
</g>
<!-- Node0&#45;&gt;Node6 -->
<g id="edge7" class="edge">
<title>Node0&#45;&gt;Node6</title>
<path fill="none" stroke="midnightblue" d="M183.51,-107.4C198.41,-94.54 220.67,-77.25 243,-67 251.42,-63.14 260.69,-60.03 269.88,-57.53"/>
<polygon fill="midnightblue" stroke="midnightblue" points="180.81,-105.12 175.65,-114.37 185.45,-110.36 180.81,-105.12"/>
</g>
<!-- Node7 -->
<g id="node9" class="node">
<title>Node7</title>
<g id="a_node9"><a xlink:href="structcie_1_1OutOfRangeException.html" target="_top" xlink:title=" ">
<polygon fill="white" stroke="black" points="254.5,-0.5 254.5,-19.5 398.5,-19.5 398.5,-0.5 254.5,-0.5"/>
<text text-anchor="middle" x="326.5" y="-7.5" font-family="Helvetica,sans-Serif" font-size="10.00">cie::OutOfRangeException</text>
</a>
</g>
</g>
<!-- Node0&#45;&gt;Node7 -->
<g id="edge8" class="edge">
<title>Node0&#45;&gt;Node7</title>
<path fill="none" stroke="midnightblue" d="M175.47,-105.5C188.19,-83.72 212.28,-48.11 243,-29 249.24,-25.12 256.19,-22.03 263.33,-19.57"/>
<polygon fill="midnightblue" stroke="midnightblue" points="172.3,-103.99 170.44,-114.42 178.4,-107.43 172.3,-103.99"/>
</g>
</g>
</svg>
