<?xml version="1.0" encoding="UTF-8" standalone="no"?>
<!DOCTYPE svg PUBLIC "-//W3C//DTD SVG 1.1//EN"
 "http://www.w3.org/Graphics/SVG/1.1/DTD/svg11.dtd">
<!-- Generated by graphviz version 2.43.0 (0)
 -->
<!-- Title: Graphical Class Hierarchy Pages: 1 -->
<svg width="521pt" height="103pt"
 viewBox="0.00 0.00 521.00 102.50" xmlns="http://www.w3.org/2000/svg" xmlns:xlink="http://www.w3.org/1999/xlink">
<g id="graph0" class="graph" transform="scale(1 1) rotate(0) translate(4 98.5)">
<title>Graphical Class Hierarchy</title>
<polygon fill="white" stroke="transparent" points="-4,4 -4,-98.5 517,-98.5 517,4 -4,4"/>
<!-- Node1 -->
<g id="node1" class="node">
<title>Node1</title>
<g id="a_node1"><a xlink:href="classmodules_1_1benchutils_1_1Parser_1_1CIEProfilerParser.html" target="_top" xlink:title=" ">
<polygon fill="white" stroke="black" points="0,-39 0,-69 147,-69 147,-39 0,-39"/>
<text text-anchor="start" x="8" y="-57" font-family="Helvetica,sans-Serif" font-size="10.00">modules.benchutils.Parser.</text>
<text text-anchor="middle" x="73.5" y="-46" font-family="Helvetica,sans-Serif" font-size="10.00">CIEProfilerParser</text>
</a>
</g>
</g>
<!-- Node0 -->
<g id="node2" class="node">
<title>Node0</title>
<g id="a_node2"><a xlink:href="classmodules_1_1benchutils_1_1Parser_1_1Parser.html" target="_top" xlink:title=" ">
<polygon fill="white" stroke="black" points="183,-39 183,-69 330,-69 330,-39 183,-39"/>
<text text-anchor="start" x="191" y="-57" font-family="Helvetica,sans-Serif" font-size="10.00">modules.benchutils.Parser.</text>
<text text-anchor="middle" x="256.5" y="-46" font-family="Helvetica,sans-Serif" font-size="10.00">Parser</text>
</a>
</g>
</g>
<!-- Node1&#45;&gt;Node0 -->
<g id="edge1" class="edge">
<title>Node1&#45;&gt;Node0</title>
<path fill="none" stroke="midnightblue" d="M157.12,-47.27C165.72,-47.22 174.42,-47.25 182.91,-47.37"/>
<polygon fill="midnightblue" stroke="midnightblue" points="157.04,-43.77 147.08,-47.37 157.11,-50.77 157.04,-43.77"/>
</g>
<!-- Node0&#45;&gt;Node1 -->
<g id="edge2" class="edge">
<title>Node0&#45;&gt;Node1</title>
<path fill="none" stroke="midnightblue" d="M172.87,-60.73C164.26,-60.78 155.56,-60.74 147.08,-60.63"/>
<polygon fill="midnightblue" stroke="midnightblue" points="172.94,-64.23 182.91,-60.63 172.87,-57.23 172.94,-64.23"/>
</g>
<!-- Node2 -->
<g id="node3" class="node">
<title>Node2</title>
<g id="a_node3"><a xlink:href="classmodules_1_1benchutils_1_1Parser_1_1GoogleTextParser.html" target="_top" xlink:title="Parses google benchmark text output and packs them into a single Result object.">
<polygon fill="white" stroke="black" points="366,-64 366,-94 513,-94 513,-64 366,-64"/>
<text text-anchor="start" x="374" y="-82" font-family="Helvetica,sans-Serif" font-size="10.00">modules.benchutils.Parser.</text>
<text text-anchor="middle" x="439.5" y="-71" font-family="Helvetica,sans-Serif" font-size="10.00">GoogleTextParser</text>
</a>
</g>
</g>
<!-- Node0&#45;&gt;Node2 -->
<g id="edge3" class="edge">
<title>Node0&#45;&gt;Node2</title>
<path fill="none" stroke="midnightblue" d="M340.12,-65.41C348.72,-66.6 357.42,-67.8 365.91,-68.97"/>
<polygon fill="midnightblue" stroke="midnightblue" points="340.46,-61.93 330.08,-64.02 339.5,-68.86 340.46,-61.93"/>
</g>
<!-- Node3 -->
<g id="node4" class="node">
<title>Node3</title>
<g id="a_node4"><a xlink:href="classmodules_1_1benchutils_1_1Parser_1_1InternalJSONParser.html" target="_top" xlink:title="Parses a stream generated from serializing a list of Result objects.">
<polygon fill="white" stroke="black" points="366,-15 366,-45 513,-45 513,-15 366,-15"/>
<text text-anchor="start" x="374" y="-33" font-family="Helvetica,sans-Serif" font-size="10.00">modules.benchutils.Parser.</text>
<text text-anchor="middle" x="439.5" y="-22" font-family="Helvetica,sans-Serif" font-size="10.00">InternalJSONParser</text>
</a>
</g>
</g>
<!-- Node0&#45;&gt;Node3 -->
<g id="edge4" class="edge">
<title>Node0&#45;&gt;Node3</title>
<path fill="none" stroke="midnightblue" d="M340.12,-43.05C348.72,-41.9 357.42,-40.75 365.91,-39.63"/>
<polygon fill="midnightblue" stroke="midnightblue" points="339.53,-39.59 330.08,-44.38 340.45,-46.53 339.53,-39.59"/>
</g>
<!-- Node61 -->
<g id="node5" class="node">
<title>Node61</title>
<g id="a_node5"><a xlink:href="classmetaclass.html" target="_top" xlink:title=" ">
<polygon fill="white" stroke="black" points="40,-0.5 40,-19.5 107,-19.5 107,-0.5 40,-0.5"/>
<text text-anchor="middle" x="73.5" y="-7.5" font-family="Helvetica,sans-Serif" font-size="10.00">metaclass</text>
</a>
</g>
</g>
<!-- Node61&#45;&gt;Node0 -->
<g id="edge5" class="edge">
<title>Node61&#45;&gt;Node0</title>
<path fill="none" stroke="midnightblue" d="M117.01,-20.33C139.85,-25.89 168.43,-32.83 193.68,-38.97"/>
<polygon fill="midnightblue" stroke="midnightblue" points="117.82,-16.93 107.28,-17.97 116.17,-23.73 117.82,-16.93"/>
</g>
</g>
</svg>
