<?xml version="1.0" encoding="UTF-8" standalone="no"?>
<!DOCTYPE svg PUBLIC "-//W3C//DTD SVG 1.1//EN"
 "http://www.w3.org/Graphics/SVG/1.1/DTD/svg11.dtd">
<!-- Generated by graphviz version 2.43.0 (0)
 -->
<!-- Title: Graphical Class Hierarchy Pages: 1 -->
<svg width="216pt" height="88pt"
 viewBox="0.00 0.00 216.00 88.00" xmlns="http://www.w3.org/2000/svg" xmlns:xlink="http://www.w3.org/1999/xlink">
<g id="graph0" class="graph" transform="scale(1 1) rotate(0) translate(4 84)">
<title>Graphical Class Hierarchy</title>
<polygon fill="white" stroke="transparent" points="-4,4 -4,-84 212,-84 212,4 -4,4"/>
<!-- Node128 -->
<g id="node1" class="node">
<title>Node128</title>
<g id="a_node1"><a xlink:title=" ">
<polygon fill="white" stroke="#bfbfbf" points="0,-30 0,-49 47,-49 47,-30 0,-30"/>
<text text-anchor="middle" x="23.5" y="-37" font-family="Helvetica,sans-Serif" font-size="10.00">TBase</text>
</a>
</g>
</g>
<!-- Node0 -->
<g id="node2" class="node">
<title>Node0</title>
<g id="a_node2"><a xlink:href="classcie_1_1STLContainerBase.html" target="_top" xlink:title=" ">
<polygon fill="white" stroke="black" points="83,-49.5 83,-79.5 208,-79.5 208,-49.5 83,-49.5"/>
<text text-anchor="start" x="91" y="-67.5" font-family="Helvetica,sans-Serif" font-size="10.00">cie::STLContainerBase</text>
<text text-anchor="middle" x="145.5" y="-56.5" font-family="Helvetica,sans-Serif" font-size="10.00">&lt; TNode &gt;</text>
</a>
</g>
</g>
<!-- Node128&#45;&gt;Node0 -->
<g id="edge1" class="edge">
<title>Node128&#45;&gt;Node0</title>
<path fill="none" stroke="darkgreen" d="M57.05,-46.28C65.06,-47.95 73.9,-49.79 82.78,-51.64"/>
<polygon fill="darkgreen" stroke="darkgreen" points="57.57,-42.82 47.07,-44.2 56.15,-49.67 57.57,-42.82"/>
</g>
<!-- Node130 -->
<g id="node3" class="node">
<title>Node130</title>
<g id="a_node3"><a xlink:href="classcie_1_1STLContainerBase.html" target="_top" xlink:title=" ">
<polygon fill="white" stroke="black" points="83,-0.5 83,-30.5 208,-30.5 208,-0.5 83,-0.5"/>
<text text-anchor="start" x="91" y="-18.5" font-family="Helvetica,sans-Serif" font-size="10.00">cie::STLContainerBase</text>
<text text-anchor="middle" x="145.5" y="-7.5" font-family="Helvetica,sans-Serif" font-size="10.00">&lt; TBase &gt;</text>
</a>
</g>
</g>
<!-- Node128&#45;&gt;Node130 -->
<g id="edge2" class="edge">
<title>Node128&#45;&gt;Node130</title>
<path fill="none" stroke="darkgreen" d="M57.05,-32.99C65.06,-31.39 73.9,-29.62 82.78,-27.84"/>
<polygon fill="darkgreen" stroke="darkgreen" points="56.19,-29.59 47.07,-34.99 57.56,-36.46 56.19,-29.59"/>
</g>
</g>
</svg>
