<?xml version="1.0" encoding="UTF-8" standalone="no"?>
<!DOCTYPE svg PUBLIC "-//W3C//DTD SVG 1.1//EN"
 "http://www.w3.org/Graphics/SVG/1.1/DTD/svg11.dtd">
<!-- Generated by graphviz version 2.43.0 (0)
 -->
<!-- Title: Graphical Class Hierarchy Pages: 1 -->
<svg width="384pt" height="88pt"
 viewBox="0.00 0.00 384.00 88.00" xmlns="http://www.w3.org/2000/svg" xmlns:xlink="http://www.w3.org/1999/xlink">
<g id="graph0" class="graph" transform="scale(1 1) rotate(0) translate(4 84)">
<title>Graphical Class Hierarchy</title>
<polygon fill="white" stroke="transparent" points="-4,4 -4,-84 380,-84 380,4 -4,4"/>
<!-- Node0 -->
<g id="node1" class="node">
<title>Node0</title>
<g id="a_node1"><a xlink:href="classstd_1_1ranges_1_1transform__view.html" target="_top" xlink:title=" ">
<polygon fill="white" stroke="black" points="8.5,-60.5 8.5,-79.5 161.5,-79.5 161.5,-60.5 8.5,-60.5"/>
<text text-anchor="middle" x="85" y="-67.5" font-family="Helvetica,sans-Serif" font-size="10.00">std::ranges::transform_view</text>
</a>
</g>
</g>
<!-- Node1 -->
<g id="node2" class="node">
<title>Node1</title>
<g id="a_node2"><a xlink:href="classcie_1_1utils_1_1TransformView.html" target="_top" xlink:title=" ">
<polygon fill="white" stroke="black" points="206,-30 206,-60 376,-60 376,-30 206,-30"/>
<text text-anchor="start" x="214" y="-48" font-family="Helvetica,sans-Serif" font-size="10.00">cie::utils::TransformView</text>
<text text-anchor="middle" x="291" y="-37" font-family="Helvetica,sans-Serif" font-size="10.00">&lt; ContainerType, OutputType &gt;</text>
</a>
</g>
</g>
<!-- Node0&#45;&gt;Node1 -->
<g id="edge1" class="edge">
<title>Node0&#45;&gt;Node1</title>
<path fill="none" stroke="midnightblue" d="M171.91,-59.47C183.15,-58.09 194.66,-56.68 205.87,-55.31"/>
<polygon fill="midnightblue" stroke="midnightblue" points="171.17,-56.04 161.67,-60.73 172.02,-62.98 171.17,-56.04"/>
</g>
<!-- Node146 -->
<g id="node3" class="node">
<title>Node146</title>
<g id="a_node3"><a xlink:title=" ">
<polygon fill="white" stroke="#bfbfbf" points="0,-0.5 0,-41.5 170,-41.5 170,-0.5 0,-0.5"/>
<text text-anchor="start" x="8" y="-29.5" font-family="Helvetica,sans-Serif" font-size="10.00">cie::utils::detail</text>
<text text-anchor="start" x="8" y="-18.5" font-family="Helvetica,sans-Serif" font-size="10.00">::TransformViewTraits</text>
<text text-anchor="middle" x="85" y="-7.5" font-family="Helvetica,sans-Serif" font-size="10.00">&lt; ContainerType, OutputType &gt;</text>
</a>
</g>
</g>
<!-- Node146&#45;&gt;Node1 -->
<g id="edge2" class="edge">
<title>Node146&#45;&gt;Node1</title>
<path fill="none" stroke="midnightblue" d="M180.12,-32.07C188.66,-33.08 197.27,-34.09 205.71,-35.08"/>
<polygon fill="midnightblue" stroke="midnightblue" points="180.49,-28.59 170.15,-30.9 179.67,-35.54 180.49,-28.59"/>
</g>
</g>
</svg>
