<?xml version="1.0" encoding="UTF-8" standalone="no"?>
<!DOCTYPE svg PUBLIC "-//W3C//DTD SVG 1.1//EN"
 "http://www.w3.org/Graphics/SVG/1.1/DTD/svg11.dtd">
<!-- Generated by graphviz version 2.43.0 (0)
 -->
<!-- Title: Graphical Class Hierarchy Pages: 1 -->
<svg width="282pt" height="64pt"
 viewBox="0.00 0.00 282.00 64.00" xmlns="http://www.w3.org/2000/svg" xmlns:xlink="http://www.w3.org/1999/xlink">
<g id="graph0" class="graph" transform="scale(1 1) rotate(0) translate(4 60)">
<title>Graphical Class Hierarchy</title>
<!-- Node0 -->
<g id="Node000000" class="node">
<title>Node0</title>
<g id="a_Node000000"><a xlink:href="classcie_1_1utils_1_1NamedObject.html" target="_top" xlink:title=" ">
<polygon fill="white" stroke="#666666" points="131,-37 0,-37 0,-18 131,-18 131,-37"/>
<text text-anchor="middle" x="65.5" y="-25" font-family="Helvetica,sans-Serif" font-size="10.00">cie::utils::NamedObject</text>
</a>
</g>
</g>
<!-- Node1 -->
<g id="Node000001" class="node">
<title>Node1</title>
<g id="a_Node000001"><a xlink:href="classcie_1_1utils_1_1ArgParse.html" target="_top" xlink:title=" ">
<polygon fill="white" stroke="#666666" points="274,-56 167,-56 167,-37 274,-37 274,-56"/>
<text text-anchor="middle" x="220.5" y="-44" font-family="Helvetica,sans-Serif" font-size="10.00">cie::utils::ArgParse</text>
</a>
</g>
</g>
<!-- Node0&#45;&gt;Node1 -->
<g id="edge22_Node000000_Node000001" class="edge">
<title>Node0&#45;&gt;Node1</title>
<g id="a_edge22_Node000000_Node000001"><a xlink:title=" ">
<path fill="none" stroke="#8b1a1a" d="M141.34,-36.79C149.86,-37.85 158.4,-38.91 166.55,-39.92"/>
<polygon fill="#8b1a1a" stroke="#8b1a1a" points="141.74,-33.32 131.39,-35.56 140.88,-40.26 141.74,-33.32"/>
</a>
</g>
</g>
<!-- Node2 -->
<g id="Node000002" class="node">
<title>Node2</title>
<g id="a_Node000002"><a xlink:href="classcie_1_1utils_1_1Loggee.html" target="_top" xlink:title=" ">
<polygon fill="white" stroke="#666666" points="270,-19 171,-19 171,0 270,0 270,-19"/>
<text text-anchor="middle" x="220.5" y="-7" font-family="Helvetica,sans-Serif" font-size="10.00">cie::utils::Loggee</text>
</a>
</g>
</g>
<!-- Node0&#45;&gt;Node2 -->
<g id="edge23_Node000000_Node000002" class="edge">
<title>Node0&#45;&gt;Node2</title>
<g id="a_edge23_Node000000_Node000002"><a xlink:title=" ">
<path fill="none" stroke="#63b8ff" d="M141.34,-18.69C151.34,-17.52 161.38,-16.34 170.76,-15.23"/>
<polygon fill="#63b8ff" stroke="#63b8ff" points="140.91,-15.22 131.39,-19.87 141.73,-22.17 140.91,-15.22"/>
</a>
</g>
</g>
</g>
</svg>
