<?xml version="1.0" encoding="UTF-8" standalone="no"?>
<!DOCTYPE svg PUBLIC "-//W3C//DTD SVG 1.1//EN"
 "http://www.w3.org/Graphics/SVG/1.1/DTD/svg11.dtd">
<!-- Generated by graphviz version 2.43.0 (0)
 -->
<!-- Title: Graphical Class Hierarchy Pages: 1 -->
<svg width="384pt" height="86pt"
 viewBox="0.00 0.00 384.00 86.00" xmlns="http://www.w3.org/2000/svg" xmlns:xlink="http://www.w3.org/1999/xlink">
<g id="graph0" class="graph" transform="scale(1 1) rotate(0) translate(4 82)">
<title>Graphical Class Hierarchy</title>
<!-- Node0 -->
<g id="Node000000" class="node">
<title>Node0</title>
<g id="a_Node000000"><a xlink:href="classstd_1_1ranges_1_1transform__view.html" target="_top" xlink:title=" ">
<polygon fill="white" stroke="#666666" points="161.5,-78 8.5,-78 8.5,-59 161.5,-59 161.5,-78"/>
<text text-anchor="middle" x="85" y="-66" font-family="Helvetica,sans-Serif" font-size="10.00">std::ranges::transform_view</text>
</a>
</g>
</g>
<!-- Node1 -->
<g id="Node000001" class="node">
<title>Node1</title>
<g id="a_Node000001"><a xlink:href="classcie_1_1utils_1_1TransformView.html" target="_top" xlink:title=" ">
<polygon fill="white" stroke="#666666" points="376,-59.5 206,-59.5 206,-29.5 376,-29.5 376,-59.5"/>
<text text-anchor="start" x="214" y="-47.5" font-family="Helvetica,sans-Serif" font-size="10.00">cie::utils::TransformView</text>
<text text-anchor="middle" x="291" y="-36.5" font-family="Helvetica,sans-Serif" font-size="10.00">&lt; ContainerType, OutputType &gt;</text>
</a>
</g>
</g>
<!-- Node0&#45;&gt;Node1 -->
<g id="edge37_Node000000_Node000001" class="edge">
<title>Node0&#45;&gt;Node1</title>
<g id="a_edge37_Node000000_Node000001"><a xlink:title=" ">
<path fill="none" stroke="#63b8ff" d="M171.91,-58.39C183.15,-57.07 194.66,-55.72 205.87,-54.4"/>
<polygon fill="#63b8ff" stroke="#63b8ff" points="171.19,-54.95 161.67,-59.6 172.01,-61.9 171.19,-54.95"/>
</a>
</g>
</g>
<!-- Node2 -->
<g id="Node000002" class="node">
<title>Node2</title>
<g id="a_Node000002"><a xlink:title=" ">
<polygon fill="#e0e0e0" stroke="#999999" points="170,-41 0,-41 0,0 170,0 170,-41"/>
<text text-anchor="start" x="8" y="-29" font-family="Helvetica,sans-Serif" font-size="10.00">cie::utils::detail</text>
<text text-anchor="start" x="8" y="-18" font-family="Helvetica,sans-Serif" font-size="10.00">::TransformViewTraits</text>
<text text-anchor="middle" x="85" y="-7" font-family="Helvetica,sans-Serif" font-size="10.00">&lt; ContainerType, OutputType &gt;</text>
</a>
</g>
</g>
<!-- Node2&#45;&gt;Node1 -->
<g id="edge38_Node000002_Node000001" class="edge">
<title>Node2&#45;&gt;Node1</title>
<g id="a_edge38_Node000002_Node000001"><a xlink:title=" ">
<path fill="none" stroke="#63b8ff" d="M180.12,-31.57C188.66,-32.58 197.27,-33.59 205.71,-34.58"/>
<polygon fill="#63b8ff" stroke="#63b8ff" points="180.49,-28.09 170.15,-30.4 179.67,-35.04 180.49,-28.09"/>
</a>
</g>
</g>
</g>
</svg>
