<?xml version="1.0" encoding="UTF-8" standalone="no"?>
<!DOCTYPE svg PUBLIC "-//W3C//DTD SVG 1.1//EN"
 "http://www.w3.org/Graphics/SVG/1.1/DTD/svg11.dtd">
<!-- Generated by graphviz version 2.43.0 (0)
 -->
<!-- Title: Graphical Class Hierarchy Pages: 1 -->
<svg width="418pt" height="249pt"
 viewBox="0.00 0.00 418.00 249.00" xmlns="http://www.w3.org/2000/svg" xmlns:xlink="http://www.w3.org/1999/xlink">
<g id="graph0" class="graph" transform="scale(1 1) rotate(0) translate(4 245)">
<title>Graphical Class Hierarchy</title>
<!-- Node0 -->
<g id="Node000000" class="node">
<title>Node0</title>
<g id="a_Node000000"><a xlink:title=" ">
<polygon fill="#e0e0e0" stroke="#999999" points="86,-130 0,-130 0,-111 86,-111 86,-130"/>
<text text-anchor="middle" x="43" y="-118" font-family="Helvetica,sans-Serif" font-size="10.00">std::exception</text>
</a>
</g>
</g>
<!-- Node1 -->
<g id="Node000001" class="node">
<title>Node1</title>
<g id="a_Node000001"><a xlink:href="classcie_1_1Exception.html" target="_top" xlink:title=" ">
<polygon fill="white" stroke="#666666" points="207,-130 122,-130 122,-111 207,-111 207,-130"/>
<text text-anchor="middle" x="164.5" y="-118" font-family="Helvetica,sans-Serif" font-size="10.00">cie::Exception</text>
</a>
</g>
</g>
<!-- Node0&#45;&gt;Node1 -->
<g id="edge27_Node000000_Node000001" class="edge">
<title>Node0&#45;&gt;Node1</title>
<g id="a_edge27_Node000000_Node000001"><a xlink:title=" ">
<path fill="none" stroke="#63b8ff" d="M96.35,-120.5C104.85,-120.5 113.55,-120.5 121.75,-120.5"/>
<polygon fill="#63b8ff" stroke="#63b8ff" points="96.13,-117 86.13,-120.5 96.13,-124 96.13,-117"/>
</a>
</g>
</g>
<!-- Node2 -->
<g id="Node000002" class="node">
<title>Node2</title>
<g id="a_Node000002"><a xlink:href="structcie_1_1AbstractCallException.html" target="_top" xlink:title=" ">
<polygon fill="white" stroke="#666666" points="398.5,-241 254.5,-241 254.5,-222 398.5,-222 398.5,-241"/>
<text text-anchor="middle" x="326.5" y="-229" font-family="Helvetica,sans-Serif" font-size="10.00">cie::AbstractCallException</text>
</a>
</g>
</g>
<!-- Node1&#45;&gt;Node2 -->
<g id="edge28_Node000001_Node000002" class="edge">
<title>Node1&#45;&gt;Node2</title>
<g id="a_edge28_Node000001_Node000002"><a xlink:title=" ">
<path fill="none" stroke="#63b8ff" d="M175.72,-139C188.56,-160.4 212.62,-195.06 243,-213.5 248.64,-216.92 254.85,-219.7 261.25,-221.95"/>
<polygon fill="#63b8ff" stroke="#63b8ff" points="178.67,-137.11 170.64,-130.2 172.61,-140.61 178.67,-137.11"/>
</a>
</g>
</g>
<!-- Node3 -->
<g id="Node000003" class="node">
<title>Node3</title>
<g id="a_Node000003"><a xlink:href="structcie_1_1DivisionByZeroException.html" target="_top" xlink:title=" ">
<polygon fill="white" stroke="#666666" points="406.5,-204 246.5,-204 246.5,-185 406.5,-185 406.5,-204"/>
<text text-anchor="middle" x="326.5" y="-192" font-family="Helvetica,sans-Serif" font-size="10.00">cie::DivisionByZeroException</text>
</a>
</g>
</g>
<!-- Node1&#45;&gt;Node3 -->
<g id="edge29_Node000001_Node000003" class="edge">
<title>Node1&#45;&gt;Node3</title>
<g id="a_edge29_Node000001_Node000003"><a xlink:title=" ">
<path fill="none" stroke="#63b8ff" d="M184.04,-137.3C198.94,-149.91 220.96,-166.65 243,-176.5 250.63,-179.91 258.95,-182.69 267.28,-184.96"/>
<polygon fill="#63b8ff" stroke="#63b8ff" points="185.99,-134.35 176.14,-130.43 181.39,-139.63 185.99,-134.35"/>
</a>
</g>
</g>
<!-- Node4 -->
<g id="Node000004" class="node">
<title>Node4</title>
<g id="a_Node000004"><a xlink:href="structcie_1_1GeometryException.html" target="_top" xlink:title=" ">
<polygon fill="white" stroke="#666666" points="393.5,-167 259.5,-167 259.5,-148 393.5,-148 393.5,-167"/>
<text text-anchor="middle" x="326.5" y="-155" font-family="Helvetica,sans-Serif" font-size="10.00">cie::GeometryException</text>
</a>
</g>
</g>
<!-- Node1&#45;&gt;Node4 -->
<g id="edge30_Node000001_Node000004" class="edge">
<title>Node1&#45;&gt;Node4</title>
<g id="a_edge30_Node000001_Node000004"><a xlink:title=" ">
<path fill="none" stroke="#63b8ff" d="M213.61,-132.5C223.33,-134.86 233.48,-137.3 243,-139.5 255.28,-142.34 268.62,-145.31 280.92,-147.99"/>
<polygon fill="#63b8ff" stroke="#63b8ff" points="214.24,-129.05 203.69,-130.07 212.57,-135.85 214.24,-129.05"/>
</a>
</g>
</g>
<!-- Node5 -->
<g id="Node000005" class="node">
<title>Node5</title>
<g id="a_Node000005"><a xlink:href="structcie_1_1MemoryException.html" target="_top" xlink:title=" ">
<polygon fill="white" stroke="#666666" points="389,-130 264,-130 264,-111 389,-111 389,-130"/>
<text text-anchor="middle" x="326.5" y="-118" font-family="Helvetica,sans-Serif" font-size="10.00">cie::MemoryException</text>
</a>
</g>
</g>
<!-- Node1&#45;&gt;Node5 -->
<g id="edge31_Node000001_Node000005" class="edge">
<title>Node1&#45;&gt;Node5</title>
<g id="a_edge31_Node000001_Node000005"><a xlink:title=" ">
<path fill="none" stroke="#63b8ff" d="M217.16,-120.5C232.06,-120.5 248.46,-120.5 263.89,-120.5"/>
<polygon fill="#63b8ff" stroke="#63b8ff" points="217.12,-117 207.12,-120.5 217.12,-124 217.12,-117"/>
</a>
</g>
</g>
<!-- Node6 -->
<g id="Node000006" class="node">
<title>Node6</title>
<g id="a_Node000006"><a xlink:href="structcie_1_1NotImplementedException.html" target="_top" xlink:title=" ">
<polygon fill="white" stroke="#666666" points="410,-93 243,-93 243,-74 410,-74 410,-93"/>
<text text-anchor="middle" x="326.5" y="-81" font-family="Helvetica,sans-Serif" font-size="10.00">cie::NotImplementedException</text>
</a>
</g>
</g>
<!-- Node1&#45;&gt;Node6 -->
<g id="edge32_Node000001_Node000006" class="edge">
<title>Node1&#45;&gt;Node6</title>
<g id="a_edge32_Node000001_Node000006"><a xlink:title=" ">
<path fill="none" stroke="#63b8ff" d="M216.38,-108.67C225.25,-106.61 234.4,-104.49 243,-102.5 256.32,-99.42 270.85,-96.07 283.95,-93.05"/>
<polygon fill="#63b8ff" stroke="#63b8ff" points="215.47,-105.29 206.52,-110.96 217.05,-112.1 215.47,-105.29"/>
</a>
</g>
</g>
<!-- Node7 -->
<g id="Node000007" class="node">
<title>Node7</title>
<g id="a_Node000007"><a xlink:href="structcie_1_1NullPtrException.html" target="_top" xlink:title=" ">
<polygon fill="white" stroke="#666666" points="385.5,-56 267.5,-56 267.5,-37 385.5,-37 385.5,-56"/>
<text text-anchor="middle" x="326.5" y="-44" font-family="Helvetica,sans-Serif" font-size="10.00">cie::NullPtrException</text>
</a>
</g>
</g>
<!-- Node1&#45;&gt;Node7 -->
<g id="edge33_Node000001_Node000007" class="edge">
<title>Node1&#45;&gt;Node7</title>
<g id="a_edge33_Node000001_Node000007"><a xlink:title=" ">
<path fill="none" stroke="#63b8ff" d="M184.13,-104.09C199.07,-91.74 221.11,-75.32 243,-65.5 251.58,-61.65 261.03,-58.54 270.37,-56.03"/>
<polygon fill="#63b8ff" stroke="#63b8ff" points="181.56,-101.67 176.2,-110.8 186.09,-107.01 181.56,-101.67"/>
</a>
</g>
</g>
<!-- Node8 -->
<g id="Node000008" class="node">
<title>Node8</title>
<g id="a_Node000008"><a xlink:href="structcie_1_1OutOfRangeException.html" target="_top" xlink:title=" ">
<polygon fill="white" stroke="#666666" points="398.5,-19 254.5,-19 254.5,0 398.5,0 398.5,-19"/>
<text text-anchor="middle" x="326.5" y="-7" font-family="Helvetica,sans-Serif" font-size="10.00">cie::OutOfRangeException</text>
</a>
</g>
</g>
<!-- Node1&#45;&gt;Node8 -->
<g id="edge34_Node000001_Node000008" class="edge">
<title>Node1&#45;&gt;Node8</title>
<g id="a_edge34_Node000001_Node000008"><a xlink:title=" ">
<path fill="none" stroke="#63b8ff" d="M175.81,-102.26C188.73,-81.14 212.87,-46.92 243,-28.5 249.4,-24.59 256.52,-21.49 263.82,-19.02"/>
<polygon fill="#63b8ff" stroke="#63b8ff" points="172.76,-100.55 170.68,-110.94 178.79,-104.11 172.76,-100.55"/>
</a>
</g>
</g>
</g>
</svg>
