<?xml version="1.0" encoding="UTF-8" standalone="no"?>
<!DOCTYPE svg PUBLIC "-//W3C//DTD SVG 1.1//EN"
 "http://www.w3.org/Graphics/SVG/1.1/DTD/svg11.dtd">
<!-- Generated by graphviz version 2.43.0 (0)
 -->
<!-- Title: Graphical Class Hierarchy Pages: 1 -->
<svg width="266pt" height="50pt"
 viewBox="0.00 0.00 266.00 50.00" xmlns="http://www.w3.org/2000/svg" xmlns:xlink="http://www.w3.org/1999/xlink">
<g id="graph0" class="graph" transform="scale(1 1) rotate(0) translate(4 46)">
<title>Graphical Class Hierarchy</title>
<polygon fill="white" stroke="transparent" points="-4,4 -4,-46 262,-46 262,4 -4,4"/>
<!-- Node148 -->
<g id="node1" class="node">
<title>Node148</title>
<g id="a_node1"><a xlink:title=" ">
<polygon fill="white" stroke="#bfbfbf" points="0,-11.5 0,-30.5 84,-30.5 84,-11.5 0,-11.5"/>
<text text-anchor="middle" x="42" y="-18.5" font-family="Helvetica,sans-Serif" font-size="10.00">std::true_type</text>
</a>
</g>
</g>
<!-- Node0 -->
<g id="node2" class="node">
<title>Node0</title>
<g id="a_node2"><a xlink:href="structcie_1_1FunctionTraits_3_01std_1_1function_3_01TReturn_07TArguments_8_8_8_08_4_01_4.html" target="_top" xlink:title=" ">
<polygon fill="white" stroke="black" points="120,-0.5 120,-41.5 258,-41.5 258,-0.5 120,-0.5"/>
<text text-anchor="start" x="128" y="-29.5" font-family="Helvetica,sans-Serif" font-size="10.00">cie::FunctionTraits</text>
<text text-anchor="start" x="128" y="-18.5" font-family="Helvetica,sans-Serif" font-size="10.00">&lt; std::function&lt; TReturn</text>
<text text-anchor="middle" x="189" y="-7.5" font-family="Helvetica,sans-Serif" font-size="10.00">(TArguments...)&gt; &gt;</text>
</a>
</g>
</g>
<!-- Node148&#45;&gt;Node0 -->
<g id="edge1" class="edge">
<title>Node148&#45;&gt;Node0</title>
<path fill="none" stroke="midnightblue" d="M94.37,-21C102.62,-21 111.28,-21 119.85,-21"/>
<polygon fill="midnightblue" stroke="midnightblue" points="94.16,-17.5 84.16,-21 94.16,-24.5 94.16,-17.5"/>
</g>
</g>
</svg>
