<?xml version="1.0" encoding="UTF-8" standalone="no"?>
<!DOCTYPE svg PUBLIC "-//W3C//DTD SVG 1.1//EN"
 "http://www.w3.org/Graphics/SVG/1.1/DTD/svg11.dtd">
<!-- Generated by graphviz version 2.43.0 (0)
 -->
<!-- Title: Graphical Class Hierarchy Pages: 1 -->
<svg width="456pt" height="134pt"
 viewBox="0.00 0.00 456.00 134.00" xmlns="http://www.w3.org/2000/svg" xmlns:xlink="http://www.w3.org/1999/xlink">
<g id="graph0" class="graph" transform="scale(1 1) rotate(0) translate(4 130)">
<title>Graphical Class Hierarchy</title>
<!-- Node0 -->
<g id="Node000000" class="node">
<title>Node0</title>
<g id="a_Node000000"><a xlink:title=" ">
<polygon fill="#e0e0e0" stroke="#999999" points="82,-91.5 0,-91.5 0,-72.5 82,-72.5 82,-91.5"/>
<text text-anchor="middle" x="41" y="-79.5" font-family="Helvetica,sans-Serif" font-size="10.00">abc.ABCMeta</text>
</a>
</g>
</g>
<!-- Node1 -->
<g id="Node000001" class="node">
<title>Node1</title>
<g id="a_Node000001"><a xlink:href="classmodules_1_1benchutils_1_1Parser_1_1Parser.html" target="_top" xlink:title=" ">
<polygon fill="white" stroke="#666666" points="265,-78 118,-78 118,-48 265,-48 265,-78"/>
<text text-anchor="start" x="126" y="-66" font-family="Helvetica,sans-Serif" font-size="10.00">modules.benchutils.Parser.</text>
<text text-anchor="middle" x="191.5" y="-55" font-family="Helvetica,sans-Serif" font-size="10.00">Parser</text>
</a>
</g>
</g>
<!-- Node0&#45;&gt;Node1 -->
<g id="edge1_Node000000_Node000001" class="edge">
<title>Node0&#45;&gt;Node1</title>
<g id="a_edge1_Node000000_Node000001"><a xlink:title=" ">
<path fill="none" stroke="#63b8ff" d="M92.36,-75.56C100.61,-74.5 109.29,-73.39 117.95,-72.28"/>
<polygon fill="#63b8ff" stroke="#63b8ff" points="91.66,-72.12 82.19,-76.86 92.55,-79.06 91.66,-72.12"/>
</a>
</g>
</g>
<!-- Node2 -->
<g id="Node000002" class="node">
<title>Node2</title>
<g id="a_Node000002"><a xlink:href="classmodules_1_1benchutils_1_1Parser_1_1CIEProfilerParser.html" target="_top" xlink:title=" ">
<polygon fill="white" stroke="#666666" points="448,-126 301,-126 301,-96 448,-96 448,-126"/>
<text text-anchor="start" x="309" y="-114" font-family="Helvetica,sans-Serif" font-size="10.00">modules.benchutils.Parser.</text>
<text text-anchor="middle" x="374.5" y="-103" font-family="Helvetica,sans-Serif" font-size="10.00">CIEProfilerParser</text>
</a>
</g>
</g>
<!-- Node1&#45;&gt;Node2 -->
<g id="edge2_Node000001_Node000002" class="edge">
<title>Node1&#45;&gt;Node2</title>
<g id="a_edge2_Node000001_Node000002"><a xlink:title=" ">
<path fill="none" stroke="#63b8ff" d="M259.05,-80.65C278.06,-85.69 298.58,-91.13 316.93,-96"/>
<polygon fill="#63b8ff" stroke="#63b8ff" points="259.84,-77.24 249.27,-78.06 258.04,-84 259.84,-77.24"/>
</a>
</g>
</g>
<!-- Node3 -->
<g id="Node000003" class="node">
<title>Node3</title>
<g id="a_Node000003"><a xlink:href="classmodules_1_1benchutils_1_1Parser_1_1GoogleTextParser.html" target="_top" xlink:title="Parses google benchmark text output and packs them into a single Result object.">
<polygon fill="white" stroke="#666666" points="448,-78 301,-78 301,-48 448,-48 448,-78"/>
<text text-anchor="start" x="309" y="-66" font-family="Helvetica,sans-Serif" font-size="10.00">modules.benchutils.Parser.</text>
<text text-anchor="middle" x="374.5" y="-55" font-family="Helvetica,sans-Serif" font-size="10.00">GoogleTextParser</text>
</a>
</g>
</g>
<!-- Node1&#45;&gt;Node3 -->
<g id="edge3_Node000001_Node000003" class="edge">
<title>Node1&#45;&gt;Node3</title>
<g id="a_edge3_Node000001_Node000003"><a xlink:title=" ">
<path fill="none" stroke="#63b8ff" d="M275.12,-63C283.72,-63 292.42,-63 300.91,-63"/>
<polygon fill="#63b8ff" stroke="#63b8ff" points="275.08,-59.5 265.08,-63 275.08,-66.5 275.08,-59.5"/>
</a>
</g>
</g>
<!-- Node4 -->
<g id="Node000004" class="node">
<title>Node4</title>
<g id="a_Node000004"><a xlink:href="classmodules_1_1benchutils_1_1Parser_1_1InternalJSONParser.html" target="_top" xlink:title="Parses a stream generated from serializing a list of Result objects.">
<polygon fill="white" stroke="#666666" points="448,-30 301,-30 301,0 448,0 448,-30"/>
<text text-anchor="start" x="309" y="-18" font-family="Helvetica,sans-Serif" font-size="10.00">modules.benchutils.Parser.</text>
<text text-anchor="middle" x="374.5" y="-7" font-family="Helvetica,sans-Serif" font-size="10.00">InternalJSONParser</text>
</a>
</g>
</g>
<!-- Node1&#45;&gt;Node4 -->
<g id="edge4_Node000001_Node000004" class="edge">
<title>Node1&#45;&gt;Node4</title>
<g id="a_edge4_Node000001_Node000004"><a xlink:title=" ">
<path fill="none" stroke="#63b8ff" d="M259.05,-45.35C278.06,-40.31 298.58,-34.87 316.93,-30"/>
<polygon fill="#63b8ff" stroke="#63b8ff" points="258.04,-42 249.27,-47.94 259.84,-48.76 258.04,-42"/>
</a>
</g>
</g>
<!-- Node5 -->
<g id="Node000005" class="node">
<title>Node5</title>
<g id="a_Node000005"><a xlink:href="classmetaclass.html" target="_top" xlink:title=" ">
<polygon fill="white" stroke="#666666" points="74.5,-54.5 7.5,-54.5 7.5,-35.5 74.5,-35.5 74.5,-54.5"/>
<text text-anchor="middle" x="41" y="-42.5" font-family="Helvetica,sans-Serif" font-size="10.00">metaclass</text>
</a>
</g>
</g>
<!-- Node5&#45;&gt;Node1 -->
<g id="edge5_Node000005_Node000001" class="edge">
<title>Node5&#45;&gt;Node1</title>
<g id="a_edge5_Node000005_Node000001"><a xlink:title=" ">
<path fill="none" stroke="#63b8ff" d="M84.61,-50.17C95.02,-51.43 106.44,-52.81 117.81,-54.19"/>
<polygon fill="#63b8ff" stroke="#63b8ff" points="84.94,-46.68 74.59,-48.95 84.1,-53.63 84.94,-46.68"/>
</a>
</g>
</g>
</g>
</svg>
