<?xml version="1.0" encoding="UTF-8" standalone="no"?>
<!DOCTYPE svg PUBLIC "-//W3C//DTD SVG 1.1//EN"
 "http://www.w3.org/Graphics/SVG/1.1/DTD/svg11.dtd">
<!-- Generated by graphviz version 2.43.0 (0)
 -->
<!-- Title: Graphical Class Hierarchy Pages: 1 -->
<svg width="216pt" height="134pt"
 viewBox="0.00 0.00 216.00 134.00" xmlns="http://www.w3.org/2000/svg" xmlns:xlink="http://www.w3.org/1999/xlink">
<g id="graph0" class="graph" transform="scale(1 1) rotate(0) translate(4 130)">
<title>Graphical Class Hierarchy</title>
<!-- Node0 -->
<g id="Node000000" class="node">
<title>Node0</title>
<g id="a_Node000000"><a xlink:title=" ">
<polygon fill="#e0e0e0" stroke="#999999" points="47,-72.5 0,-72.5 0,-53.5 47,-53.5 47,-72.5"/>
<text text-anchor="middle" x="23.5" y="-60.5" font-family="Helvetica,sans-Serif" font-size="10.00">TBase</text>
</a>
</g>
</g>
<!-- Node1 -->
<g id="Node000001" class="node">
<title>Node1</title>
<g id="a_Node000001"><a xlink:href="classcie_1_1STLContainerBase.html" target="_top" xlink:title=" ">
<polygon fill="white" stroke="#666666" points="208,-126 83,-126 83,-96 208,-96 208,-126"/>
<text text-anchor="start" x="91" y="-114" font-family="Helvetica,sans-Serif" font-size="10.00">cie::STLContainerBase</text>
<text text-anchor="middle" x="145.5" y="-103" font-family="Helvetica,sans-Serif" font-size="10.00">&lt; TNode &gt;</text>
</a>
</g>
</g>
<!-- Node0&#45;&gt;Node1 -->
<g id="edge41_Node000000_Node000001" class="edge">
<title>Node0&#45;&gt;Node1</title>
<g id="a_edge41_Node000000_Node000001"><a xlink:title=" ">
<path fill="none" stroke="darkgreen" d="M56.56,-76.27C65.14,-79.79 74.41,-83.56 83,-87 90.34,-89.94 98.19,-93.04 105.75,-95.99"/>
<polygon fill="darkgreen" stroke="darkgreen" points="57.82,-73 47.24,-72.44 55.16,-79.48 57.82,-73"/>
</a>
</g>
</g>
<!-- Node2 -->
<g id="Node000002" class="node">
<title>Node2</title>
<g id="a_Node000002"><a xlink:href="classcie_1_1STLContainerBase.html" target="_top" xlink:title=" ">
<polygon fill="white" stroke="#666666" points="208,-78 83,-78 83,-48 208,-48 208,-78"/>
<text text-anchor="start" x="91" y="-66" font-family="Helvetica,sans-Serif" font-size="10.00">cie::STLContainerBase</text>
<text text-anchor="middle" x="145.5" y="-55" font-family="Helvetica,sans-Serif" font-size="10.00">&lt; TValue * &gt;</text>
</a>
</g>
</g>
<!-- Node0&#45;&gt;Node2 -->
<g id="edge42_Node000000_Node000002" class="edge">
<title>Node0&#45;&gt;Node2</title>
<g id="a_edge42_Node000000_Node000002"><a xlink:title=" ">
<path fill="none" stroke="darkgreen" d="M57.32,-63C65.26,-63 74,-63 82.78,-63"/>
<polygon fill="darkgreen" stroke="darkgreen" points="57.07,-59.5 47.07,-63 57.07,-66.5 57.07,-59.5"/>
</a>
</g>
</g>
<!-- Node3 -->
<g id="Node000003" class="node">
<title>Node3</title>
<g id="a_Node000003"><a xlink:href="classcie_1_1STLContainerBase.html" target="_top" xlink:title=" ">
<polygon fill="white" stroke="#666666" points="208,-30 83,-30 83,0 208,0 208,-30"/>
<text text-anchor="start" x="91" y="-18" font-family="Helvetica,sans-Serif" font-size="10.00">cie::STLContainerBase</text>
<text text-anchor="middle" x="145.5" y="-7" font-family="Helvetica,sans-Serif" font-size="10.00">&lt; TBase &gt;</text>
</a>
</g>
</g>
<!-- Node0&#45;&gt;Node3 -->
<g id="edge43_Node000000_Node000003" class="edge">
<title>Node0&#45;&gt;Node3</title>
<g id="a_edge43_Node000000_Node000003"><a xlink:title=" ">
<path fill="none" stroke="darkgreen" d="M56.56,-49.73C65.14,-46.21 74.41,-42.44 83,-39 90.34,-36.06 98.19,-32.96 105.75,-30.01"/>
<polygon fill="darkgreen" stroke="darkgreen" points="55.16,-46.52 47.24,-53.56 57.82,-53 55.16,-46.52"/>
</a>
</g>
</g>
</g>
</svg>
