<?xml version="1.0" encoding="UTF-8" standalone="no"?>
<!DOCTYPE svg PUBLIC "-//W3C//DTD SVG 1.1//EN"
 "http://www.w3.org/Graphics/SVG/1.1/DTD/svg11.dtd">
<!-- Generated by graphviz version 2.43.0 (0)
 -->
<!-- Title: Graphical Class Hierarchy Pages: 1 -->
<svg width="274pt" height="104pt"
 viewBox="0.00 0.00 274.00 104.00" xmlns="http://www.w3.org/2000/svg" xmlns:xlink="http://www.w3.org/1999/xlink">
<g id="graph0" class="graph" transform="scale(1 1) rotate(0) translate(4 100)">
<title>Graphical Class Hierarchy</title>
<polygon fill="white" stroke="transparent" points="-4,4 -4,-100 270,-100 270,4 -4,4"/>
<!-- Node0 -->
<g id="node1" class="node">
<title>Node0</title>
<g id="a_node1"><a xlink:href="classcie_1_1OutputStream.html" target="_top" xlink:title=" ">
<polygon fill="white" stroke="black" points="0,-38.5 0,-57.5 105,-57.5 105,-38.5 0,-38.5"/>
<text text-anchor="middle" x="52.5" y="-45.5" font-family="Helvetica,sans-Serif" font-size="10.00">cie::OutputStream</text>
</a>
</g>
</g>
<!-- Node1 -->
<g id="node2" class="node">
<title>Node1</title>
<g id="a_node2"><a xlink:href="classcie_1_1FileOutputStream.html" target="_top" xlink:title=" ">
<polygon fill="white" stroke="black" points="142.5,-76.5 142.5,-95.5 264.5,-95.5 264.5,-76.5 142.5,-76.5"/>
<text text-anchor="middle" x="203.5" y="-83.5" font-family="Helvetica,sans-Serif" font-size="10.00">cie::FileOutputStream</text>
</a>
</g>
</g>
<!-- Node0&#45;&gt;Node1 -->
<g id="edge1" class="edge">
<title>Node0&#45;&gt;Node1</title>
<path fill="none" stroke="midnightblue" d="M100.99,-60.11C121.74,-65.4 145.73,-71.52 165.17,-76.48"/>
<polygon fill="midnightblue" stroke="midnightblue" points="101.65,-56.67 91.1,-57.59 99.92,-63.45 101.65,-56.67"/>
</g>
<!-- Node2 -->
<g id="node3" class="node">
<title>Node2</title>
<g id="a_node3"><a xlink:href="classcie_1_1StreamInterceptor.html" target="_top" xlink:title=" ">
<polygon fill="white" stroke="black" points="141,-0.5 141,-19.5 266,-19.5 266,-0.5 141,-0.5"/>
<text text-anchor="middle" x="203.5" y="-7.5" font-family="Helvetica,sans-Serif" font-size="10.00">cie::StreamInterceptor</text>
</a>
</g>
</g>
<!-- Node0&#45;&gt;Node2 -->
<g id="edge2" class="edge">
<title>Node0&#45;&gt;Node2</title>
<path fill="none" stroke="midnightblue" d="M100.99,-35.89C121.74,-30.6 145.73,-24.48 165.17,-19.52"/>
<polygon fill="midnightblue" stroke="midnightblue" points="99.92,-32.55 91.1,-38.41 101.65,-39.33 99.92,-32.55"/>
</g>
<!-- Node3 -->
<g id="node4" class="node">
<title>Node3</title>
<g id="a_node4"><a xlink:href="classcie_1_1utils_1_1Logger.html" target="_top" xlink:title=" ">
<polygon fill="white" stroke="black" points="155,-38.5 155,-57.5 252,-57.5 252,-38.5 155,-38.5"/>
<text text-anchor="middle" x="203.5" y="-45.5" font-family="Helvetica,sans-Serif" font-size="10.00">cie::utils::Logger</text>
</a>
</g>
</g>
<!-- Node0&#45;&gt;Node3 -->
<g id="edge3" class="edge">
<title>Node0&#45;&gt;Node3</title>
<path fill="none" stroke="midnightblue" d="M115.2,-48C128.45,-48 142.27,-48 154.89,-48"/>
<polygon fill="midnightblue" stroke="midnightblue" points="115.19,-44.5 105.19,-48 115.19,-51.5 115.19,-44.5"/>
</g>
<!-- Node107 -->
<g id="node5" class="node">
<title>Node107</title>
<g id="a_node5"><a xlink:title=" ">
<polygon fill="white" stroke="#bfbfbf" points="8.5,-0.5 8.5,-19.5 96.5,-19.5 96.5,-0.5 8.5,-0.5"/>
<text text-anchor="middle" x="52.5" y="-7.5" font-family="Helvetica,sans-Serif" font-size="10.00">std::streambuf</text>
</a>
</g>
</g>
<!-- Node107&#45;&gt;Node2 -->
<g id="edge4" class="edge">
<title>Node107&#45;&gt;Node2</title>
<path fill="none" stroke="midnightblue" d="M106.93,-10C117.95,-10 129.65,-10 140.94,-10"/>
<polygon fill="midnightblue" stroke="midnightblue" points="106.6,-6.5 96.6,-10 106.6,-13.5 106.6,-6.5"/>
</g>
</g>
</svg>
