<?xml version="1.0" encoding="UTF-8" standalone="no"?>
<!DOCTYPE svg PUBLIC "-//W3C//DTD SVG 1.1//EN"
 "http://www.w3.org/Graphics/SVG/1.1/DTD/svg11.dtd">
<!-- Generated by graphviz version 2.43.0 (0)
 -->
<!-- Title: integer.hpp Pages: 1 -->
<svg width="922pt" height="236pt"
 viewBox="0.00 0.00 921.50 236.00" xmlns="http://www.w3.org/2000/svg" xmlns:xlink="http://www.w3.org/1999/xlink">
<g id="graph0" class="graph" transform="scale(1 1) rotate(0) translate(4 232)">
<title>integer.hpp</title>
<!-- Node1 -->
<g id="Node000001" class="node">
<title>Node1</title>
<g id="a_Node000001"><a xlink:title=" ">
<polygon fill="#999999" stroke="#666666" points="809,-228 738,-228 738,-209 809,-209 809,-228"/>
<text text-anchor="middle" x="773.5" y="-216" font-family="Helvetica,sans-Serif" font-size="10.00">integer.hpp</text>
</a>
</g>
</g>
<!-- Node2 -->
<g id="Node000002" class="node">
<title>Node2</title>
<g id="a_Node000002"><a xlink:href="types_8hpp.html" target="_top" xlink:title=" ">
<polygon fill="white" stroke="#666666" points="453.5,-167.5 343.5,-167.5 343.5,-137.5 453.5,-137.5 453.5,-167.5"/>
<text text-anchor="start" x="351.5" y="-155.5" font-family="Helvetica,sans-Serif" font-size="10.00">packages/types/inc</text>
<text text-anchor="middle" x="398.5" y="-144.5" font-family="Helvetica,sans-Serif" font-size="10.00">/types.hpp</text>
</a>
</g>
</g>
<!-- Node1&#45;&gt;Node2 -->
<g id="edge1_Node000001_Node000002" class="edge">
<title>Node1&#45;&gt;Node2</title>
<g id="a_edge1_Node000001_Node000002"><a xlink:title=" ">
<path fill="none" stroke="#63b8ff" d="M737.88,-211.42C674.94,-200.68 543.2,-178.19 463.64,-164.62"/>
<polygon fill="#63b8ff" stroke="#63b8ff" points="464.17,-161.16 453.72,-162.92 462.99,-168.06 464.17,-161.16"/>
</a>
</g>
</g>
<!-- Node12 -->
<g id="Node000012" class="node">
<title>Node12</title>
<g id="a_Node000012"><a xlink:href="Concatenate_8hpp.html" target="_top" xlink:title=" ">
<polygon fill="white" stroke="#666666" points="745.5,-173 597.5,-173 597.5,-132 745.5,-132 745.5,-173"/>
<text text-anchor="start" x="605.5" y="-161" font-family="Helvetica,sans-Serif" font-size="10.00">packages/compile_time</text>
<text text-anchor="start" x="605.5" y="-150" font-family="Helvetica,sans-Serif" font-size="10.00">/packages/parameter_pack</text>
<text text-anchor="middle" x="671.5" y="-139" font-family="Helvetica,sans-Serif" font-size="10.00">/inc/Concatenate.hpp</text>
</a>
</g>
</g>
<!-- Node1&#45;&gt;Node12 -->
<g id="edge11_Node000001_Node000012" class="edge">
<title>Node1&#45;&gt;Node12</title>
<g id="a_edge11_Node000001_Node000012"><a xlink:title=" ">
<path fill="none" stroke="#63b8ff" d="M759.74,-208.87C747.33,-201.08 728.45,-189.24 711.34,-178.5"/>
<polygon fill="#63b8ff" stroke="#63b8ff" points="712.92,-175.36 702.59,-173.01 709.2,-181.29 712.92,-175.36"/>
</a>
</g>
</g>
<!-- Node13 -->
<g id="Node000013" class="node">
<title>Node13</title>
<g id="a_Node000013"><a xlink:title=" ">
<polygon fill="#e0e0e0" stroke="#999999" points="794,-90.5 753,-90.5 753,-71.5 794,-71.5 794,-90.5"/>
<text text-anchor="middle" x="773.5" y="-78.5" font-family="Helvetica,sans-Serif" font-size="10.00">tuple</text>
</a>
</g>
</g>
<!-- Node1&#45;&gt;Node13 -->
<g id="edge14_Node000001_Node000013" class="edge">
<title>Node1&#45;&gt;Node13</title>
<g id="a_edge14_Node000001_Node000013"><a xlink:title=" ">
<path fill="none" stroke="#63b8ff" d="M773.5,-208.61C773.5,-186.88 773.5,-130.71 773.5,-101.02"/>
<polygon fill="#63b8ff" stroke="#63b8ff" points="777,-100.75 773.5,-90.75 770,-100.75 777,-100.75"/>
</a>
</g>
</g>
<!-- Node14 -->
<g id="Node000014" class="node">
<title>Node14</title>
<g id="a_Node000014"><a xlink:title=" ">
<polygon fill="#e0e0e0" stroke="#999999" points="845.5,-162 801.5,-162 801.5,-143 845.5,-143 845.5,-162"/>
<text text-anchor="middle" x="823.5" y="-150" font-family="Helvetica,sans-Serif" font-size="10.00">limits</text>
</a>
</g>
</g>
<!-- Node1&#45;&gt;Node14 -->
<g id="edge13_Node000001_Node000014" class="edge">
<title>Node1&#45;&gt;Node14</title>
<g id="a_edge13_Node000001_Node000014"><a xlink:title=" ">
<path fill="none" stroke="#63b8ff" d="M780.24,-208.87C787.88,-199.09 800.51,-182.92 810.16,-170.58"/>
<polygon fill="#63b8ff" stroke="#63b8ff" points="813.14,-172.44 816.54,-162.41 807.63,-168.13 813.14,-172.44"/>
</a>
</g>
</g>
<!-- Node15 -->
<g id="Node000015" class="node">
<title>Node15</title>
<g id="a_Node000015"><a xlink:title=" ">
<polygon fill="#e0e0e0" stroke="#999999" points="913.5,-162 863.5,-162 863.5,-143 913.5,-143 913.5,-162"/>
<text text-anchor="middle" x="888.5" y="-150" font-family="Helvetica,sans-Serif" font-size="10.00">cstdint</text>
</a>
</g>
</g>
<!-- Node1&#45;&gt;Node15 -->
<g id="edge15_Node000001_Node000015" class="edge">
<title>Node1&#45;&gt;Node15</title>
<g id="a_edge15_Node000001_Node000015"><a xlink:title=" ">
<path fill="none" stroke="#63b8ff" d="M789.38,-208.89C805.74,-199.99 831.97,-185.65 854.5,-173 857.84,-171.12 861.36,-169.13 864.81,-167.16"/>
<polygon fill="#63b8ff" stroke="#63b8ff" points="866.7,-170.11 873.64,-162.1 863.22,-164.04 866.7,-170.11"/>
</a>
</g>
</g>
<!-- Node3 -->
<g id="Node000003" class="node">
<title>Node3</title>
<g id="a_Node000003"><a xlink:href="debug_8hpp.html" target="_top" xlink:title=" ">
<polygon fill="white" stroke="#666666" points="173,-96 54,-96 54,-66 173,-66 173,-96"/>
<text text-anchor="start" x="62" y="-84" font-family="Helvetica,sans-Serif" font-size="10.00">packages/macros/inc</text>
<text text-anchor="middle" x="113.5" y="-73" font-family="Helvetica,sans-Serif" font-size="10.00">/debug.hpp</text>
</a>
</g>
</g>
<!-- Node2&#45;&gt;Node3 -->
<g id="edge2_Node000002_Node000003" class="edge">
<title>Node2&#45;&gt;Node3</title>
<g id="a_edge2_Node000002_Node000003"><a xlink:title=" ">
<path fill="none" stroke="#63b8ff" d="M343.21,-138.02C296.87,-126.72 230.54,-110.54 181.05,-98.47"/>
<polygon fill="#63b8ff" stroke="#63b8ff" points="181.62,-95.01 171.08,-96.04 179.96,-101.81 181.62,-95.01"/>
</a>
</g>
</g>
<!-- Node6 -->
<g id="Node000006" class="node">
<title>Node6</title>
<g id="a_Node000006"><a xlink:title=" ">
<polygon fill="#e0e0e0" stroke="#999999" points="244,-90.5 191,-90.5 191,-71.5 244,-71.5 244,-90.5"/>
<text text-anchor="middle" x="217.5" y="-78.5" font-family="Helvetica,sans-Serif" font-size="10.00">cstddef</text>
</a>
</g>
</g>
<!-- Node2&#45;&gt;Node6 -->
<g id="edge5_Node000002_Node000006" class="edge">
<title>Node2&#45;&gt;Node6</title>
<g id="a_edge5_Node000002_Node000006"><a xlink:title=" ">
<path fill="none" stroke="#63b8ff" d="M361.53,-137.41C332.21,-126.23 290.22,-110.17 253.5,-96 252.09,-95.46 250.65,-94.9 249.2,-94.34"/>
<polygon fill="#63b8ff" stroke="#63b8ff" points="250.17,-90.96 239.58,-90.61 247.64,-97.49 250.17,-90.96"/>
</a>
</g>
</g>
<!-- Node7 -->
<g id="Node000007" class="node">
<title>Node7</title>
<g id="a_Node000007"><a xlink:title=" ">
<polygon fill="#e0e0e0" stroke="#999999" points="306.5,-90.5 262.5,-90.5 262.5,-71.5 306.5,-71.5 306.5,-90.5"/>
<text text-anchor="middle" x="284.5" y="-78.5" font-family="Helvetica,sans-Serif" font-size="10.00">string</text>
</a>
</g>
</g>
<!-- Node2&#45;&gt;Node7 -->
<g id="edge6_Node000002_Node000007" class="edge">
<title>Node2&#45;&gt;Node7</title>
<g id="a_edge6_Node000002_Node000007"><a xlink:title=" ">
<path fill="none" stroke="#63b8ff" d="M375.43,-137.44C355.55,-125.31 327,-107.91 307.22,-95.85"/>
<polygon fill="#63b8ff" stroke="#63b8ff" points="308.91,-92.78 298.55,-90.57 305.27,-98.76 308.91,-92.78"/>
</a>
</g>
</g>
<!-- Node8 -->
<g id="Node000008" class="node">
<title>Node8</title>
<g id="a_Node000008"><a xlink:title=" ">
<polygon fill="#e0e0e0" stroke="#999999" points="394,-90.5 325,-90.5 325,-71.5 394,-71.5 394,-90.5"/>
<text text-anchor="middle" x="359.5" y="-78.5" font-family="Helvetica,sans-Serif" font-size="10.00">type_traits</text>
</a>
</g>
</g>
<!-- Node2&#45;&gt;Node8 -->
<g id="edge7_Node000002_Node000008" class="edge">
<title>Node2&#45;&gt;Node8</title>
<g id="a_edge7_Node000002_Node000008"><a xlink:title=" ">
<path fill="none" stroke="#63b8ff" d="M390.61,-137.44C384.49,-126.53 375.97,-111.35 369.39,-99.63"/>
<polygon fill="#63b8ff" stroke="#63b8ff" points="372.37,-97.77 364.42,-90.77 366.26,-101.2 372.37,-97.77"/>
</a>
</g>
</g>
<!-- Node9 -->
<g id="Node000009" class="node">
<title>Node9</title>
<g id="a_Node000009"><a xlink:title=" ">
<polygon fill="#e0e0e0" stroke="#999999" points="462.5,-90.5 412.5,-90.5 412.5,-71.5 462.5,-71.5 462.5,-90.5"/>
<text text-anchor="middle" x="437.5" y="-78.5" font-family="Helvetica,sans-Serif" font-size="10.00">climits</text>
</a>
</g>
</g>
<!-- Node2&#45;&gt;Node9 -->
<g id="edge8_Node000002_Node000009" class="edge">
<title>Node2&#45;&gt;Node9</title>
<g id="a_edge8_Node000002_Node000009"><a xlink:title=" ">
<path fill="none" stroke="#63b8ff" d="M406.39,-137.44C412.51,-126.53 421.03,-111.35 427.61,-99.63"/>
<polygon fill="#63b8ff" stroke="#63b8ff" points="430.74,-101.2 432.58,-90.77 424.63,-97.77 430.74,-101.2"/>
</a>
</g>
</g>
<!-- Node10 -->
<g id="Node000010" class="node">
<title>Node10</title>
<g id="a_Node000010"><a xlink:title=" ">
<polygon fill="#e0e0e0" stroke="#999999" points="598,-96 481,-96 481,-66 598,-66 598,-96"/>
<text text-anchor="start" x="489" y="-84" font-family="Helvetica,sans-Serif" font-size="10.00">packages/types/impl</text>
<text text-anchor="middle" x="539.5" y="-73" font-family="Helvetica,sans-Serif" font-size="10.00">/types_impl.hpp</text>
</a>
</g>
</g>
<!-- Node2&#45;&gt;Node10 -->
<g id="edge9_Node000002_Node000010" class="edge">
<title>Node2&#45;&gt;Node10</title>
<g id="a_edge9_Node000002_Node000010"><a xlink:title=" ">
<path fill="none" stroke="#63b8ff" d="M427.03,-137.44C448.63,-126.79 478.49,-112.07 502.01,-100.48"/>
<polygon fill="#63b8ff" stroke="#63b8ff" points="503.59,-103.6 511.01,-96.04 500.49,-97.33 503.59,-103.6"/>
</a>
</g>
</g>
<!-- Node11 -->
<g id="Node000011" class="node">
<title>Node11</title>
<g id="a_Node000011"><a xlink:href="logging_8hpp.html" target="_top" xlink:title=" ">
<polygon fill="white" stroke="#666666" points="735,-96 616,-96 616,-66 735,-66 735,-96"/>
<text text-anchor="start" x="624" y="-84" font-family="Helvetica,sans-Serif" font-size="10.00">packages/macros/inc</text>
<text text-anchor="middle" x="675.5" y="-73" font-family="Helvetica,sans-Serif" font-size="10.00">/logging.hpp</text>
</a>
</g>
</g>
<!-- Node2&#45;&gt;Node11 -->
<g id="edge10_Node000002_Node000011" class="edge">
<title>Node2&#45;&gt;Node11</title>
<g id="a_edge10_Node000002_Node000011"><a xlink:title=" ">
<path fill="none" stroke="#63b8ff" d="M453.56,-137.69C498.48,-126.41 562.09,-110.46 609.69,-98.51"/>
<polygon fill="#63b8ff" stroke="#63b8ff" points="610.75,-101.85 619.6,-96.03 609.05,-95.06 610.75,-101.85"/>
</a>
</g>
</g>
<!-- Node4 -->
<g id="Node000004" class="node">
<title>Node4</title>
<g id="a_Node000004"><a xlink:href="detail_8hpp.html" target="_top" xlink:title=" ">
<polygon fill="white" stroke="#666666" points="119,-30 0,-30 0,0 119,0 119,-30"/>
<text text-anchor="start" x="8" y="-18" font-family="Helvetica,sans-Serif" font-size="10.00">packages/macros/inc</text>
<text text-anchor="middle" x="59.5" y="-7" font-family="Helvetica,sans-Serif" font-size="10.00">/detail.hpp</text>
</a>
</g>
</g>
<!-- Node3&#45;&gt;Node4 -->
<g id="edge3_Node000003_Node000004" class="edge">
<title>Node3&#45;&gt;Node4</title>
<g id="a_edge3_Node000003_Node000004"><a xlink:title=" ">
<path fill="none" stroke="#63b8ff" d="M101.52,-65.8C94.59,-57.59 85.74,-47.1 77.95,-37.87"/>
<polygon fill="#63b8ff" stroke="#63b8ff" points="80.57,-35.55 71.45,-30.16 75.22,-40.06 80.57,-35.55"/>
</a>
</g>
</g>
<!-- Node5 -->
<g id="Node000005" class="node">
<title>Node5</title>
<g id="a_Node000005"><a xlink:title=" ">
<polygon fill="#e0e0e0" stroke="#999999" points="197.5,-24.5 137.5,-24.5 137.5,-5.5 197.5,-5.5 197.5,-24.5"/>
<text text-anchor="middle" x="167.5" y="-12.5" font-family="Helvetica,sans-Serif" font-size="10.00">iostream</text>
</a>
</g>
</g>
<!-- Node3&#45;&gt;Node5 -->
<g id="edge4_Node000003_Node000005" class="edge">
<title>Node3&#45;&gt;Node5</title>
<g id="a_edge4_Node000003_Node000005"><a xlink:title=" ">
<path fill="none" stroke="#63b8ff" d="M125.48,-65.8C133.74,-56.01 144.74,-42.98 153.41,-32.7"/>
<polygon fill="#63b8ff" stroke="#63b8ff" points="156.26,-34.74 160.04,-24.84 150.91,-30.23 156.26,-34.74"/>
</a>
</g>
</g>
<!-- Node12&#45;&gt;Node13 -->
<g id="edge12_Node000012_Node000013" class="edge">
<title>Node12&#45;&gt;Node13</title>
<g id="a_edge12_Node000012_Node000013"><a xlink:title=" ">
<path fill="none" stroke="#63b8ff" d="M700.18,-131.96C716.77,-120.65 737.29,-106.67 752.4,-96.38"/>
<polygon fill="#63b8ff" stroke="#63b8ff" points="754.73,-99.03 761.02,-90.5 750.79,-93.24 754.73,-99.03"/>
</a>
</g>
</g>
</g>
</svg>
