<?xml version="1.0" encoding="UTF-8" standalone="no"?>
<!DOCTYPE svg PUBLIC "-//W3C//DTD SVG 1.1//EN"
 "http://www.w3.org/Graphics/SVG/1.1/DTD/svg11.dtd">
<!-- Generated by graphviz version 2.43.0 (0)
 -->
<!-- Title: iterator_concepts.hpp Pages: 1 -->
<!--zoomable 476 -->
<svg id="main" version="1.1" xmlns="http://www.w3.org/2000/svg" xmlns:xlink="http://www.w3.org/1999/xlink" xml:space="preserve" onload="init(evt)">
<style type="text/css"><![CDATA[
.edge:hover path { stroke: red; }
.edge:hover polygon { stroke: red; fill: red; }
]]></style>
<script type="text/javascript"><![CDATA[
var edges = document.getElementsByTagName('g');
if (edges && edges.length) {
  for (var i=0;i<edges.length;i++) {
    if (edges[i].id.substr(0,4)=='edge') {
      edges[i].setAttribute('class','edge');
    }
  }
}
]]></script>
        <defs>
                <circle id="rim" cx="0" cy="0" r="7"/>
                <circle id="rim2" cx="0" cy="0" r="3.5"/>
                <g id="zoomPlus">
                        <use xlink:href="#rim" fill="#404040">
                                <set attributeName="fill" to="#808080" begin="zoomplus.mouseover" end="zoomplus.mouseout"/>
                        </use>
                        <path d="M-4,0h8M0,-4v8" fill="none" stroke="white" stroke-width="1.5" pointer-events="none"/>
                </g>
                <g id="zoomMin">
                        <use xlink:href="#rim" fill="#404040">
                                <set attributeName="fill" to="#808080" begin="zoomminus.mouseover" end="zoomminus.mouseout"/>
                        </use>
                        <path d="M-4,0h8" fill="none" stroke="white" stroke-width="1.5" pointer-events="none"/>
                </g>
                <g id="dirArrow">
                        <path fill="none" stroke="white" stroke-width="1.5" d="M0,-3.0v7 M-2.5,-0.5L0,-3.0L2.5,-0.5"/>
                </g>
               <g id="resetDef">
                       <use xlink:href="#rim2" fill="#404040">
                               <set attributeName="fill" to="#808080" begin="reset.mouseover" end="reset.mouseout"/>
                       </use>
               </g>
        </defs>

<script type="text/javascript">
var viewWidth = 1484;
var viewHeight = 476;
var sectionId = 'dynsection-1';
</script>
<script xlink:href="svgpan.js"/>
<svg id="graph" class="graph">
<g id="viewport">
<title>iterator_concepts.hpp</title>
<polygon fill="white" stroke="transparent" points="-4,4 -4,-472 1480.21,-472 1480.21,4 -4,4"/>
<!-- Node1 -->
<g id="node1" class="node">
<title>Node1</title>
<g id="a_node1"><a xlink:title=" ">
<polygon fill="#bfbfbf" stroke="black" points="539.71,-448.5 539.71,-467.5 661.71,-467.5 661.71,-448.5 539.71,-448.5"/>
<text text-anchor="middle" x="600.71" y="-455.5" font-family="Helvetica,sans-Serif" font-size="10.00">iterator_concepts.hpp</text>
</a>
</g>
</g>
<!-- Node2 -->
<g id="node2" class="node">
<title>Node2</title>
<g id="a_node2"><a xlink:href="container__concepts_8hpp.html" target="_top" xlink:title=" ">
<polygon fill="white" stroke="black" points="375.71,-392.5 375.71,-411.5 507.71,-411.5 507.71,-392.5 375.71,-392.5"/>
<text text-anchor="middle" x="441.71" y="-399.5" font-family="Helvetica,sans-Serif" font-size="10.00">container_concepts.hpp</text>
</a>
</g>
</g>
<!-- Node1&#45;&gt;Node2 -->
<g id="edge1" class="edge">
<title>Node1&#45;&gt;Node2</title>
<path fill="none" stroke="midnightblue" d="M565.88,-445.17C535.94,-435 493.49,-420.59 466.79,-411.52"/>
<polygon fill="midnightblue" stroke="midnightblue" points="564.92,-448.54 575.52,-448.44 567.17,-441.91 564.92,-448.54"/>
</g>
<!-- Node35 -->
<g id="node35" class="node">
<title>Node35</title>
<g id="a_node35"><a xlink:href="ContiguousTree_8hpp.html" target="_top" xlink:title=" ">
<polygon fill="white" stroke="black" points="392.21,-56.5 392.21,-75.5 505.21,-75.5 505.21,-56.5 392.21,-56.5"/>
<text text-anchor="middle" x="448.71" y="-63.5" font-family="Helvetica,sans-Serif" font-size="10.00">ContiguousTree.hpp</text>
</a>
</g>
</g>
<!-- Node1&#45;&gt;Node35 -->
<g id="edge55" class="edge">
<title>Node1&#45;&gt;Node35</title>
<path fill="none" stroke="midnightblue" d="M529.44,-451.31C370.45,-437.66 0.71,-400.21 0.71,-347 0.71,-347 0.71,-347 0.71,-233 0.71,-202.9 -2.13,-188.71 19.71,-168 47.51,-141.64 294.31,-94.72 400.49,-75.53"/>
<polygon fill="midnightblue" stroke="midnightblue" points="529.34,-454.82 539.6,-452.18 529.93,-447.84 529.34,-454.82"/>
</g>
<!-- Node41 -->
<g id="node41" class="node">
<title>Node41</title>
<g id="a_node41"><a xlink:href="polynomial__evaluation_8hpp.html" target="_top" xlink:title=" ">
<polygon fill="white" stroke="black" points="526.21,-392.5 526.21,-411.5 675.21,-411.5 675.21,-392.5 526.21,-392.5"/>
<text text-anchor="middle" x="600.71" y="-399.5" font-family="Helvetica,sans-Serif" font-size="10.00">polynomial_evaluation.hpp</text>
</a>
</g>
</g>
<!-- Node1&#45;&gt;Node41 -->
<g id="edge52" class="edge">
<title>Node1&#45;&gt;Node41</title>
<path fill="none" stroke="midnightblue" d="M600.71,-437.8C600.71,-428.91 600.71,-418.78 600.71,-411.75"/>
<polygon fill="midnightblue" stroke="midnightblue" points="597.21,-438.08 600.71,-448.08 604.21,-438.08 597.21,-438.08"/>
</g>
<!-- Node42 -->
<g id="node42" class="node">
<title>Node42</title>
<g id="a_node42"><a xlink:href="TransformIterator_8hpp.html" target="_top" xlink:title=" ">
<polygon fill="white" stroke="black" points="693.71,-392.5 693.71,-411.5 815.71,-411.5 815.71,-392.5 693.71,-392.5"/>
<text text-anchor="middle" x="754.71" y="-399.5" font-family="Helvetica,sans-Serif" font-size="10.00">TransformIterator.hpp</text>
</a>
</g>
</g>
<!-- Node1&#45;&gt;Node42 -->
<g id="edge53" class="edge">
<title>Node1&#45;&gt;Node42</title>
<path fill="none" stroke="midnightblue" d="M634.82,-445.04C663.8,-434.88 704.67,-420.55 730.42,-411.52"/>
<polygon fill="midnightblue" stroke="midnightblue" points="633.39,-441.83 625.11,-448.44 635.71,-448.44 633.39,-441.83"/>
</g>
<!-- Node43 -->
<g id="node43" class="node">
<title>Node43</title>
<g id="a_node43"><a xlink:href="NoOpIterator_8hpp.html" target="_top" xlink:title=" ">
<polygon fill="white" stroke="black" points="833.71,-392.5 833.71,-411.5 933.71,-411.5 933.71,-392.5 833.71,-392.5"/>
<text text-anchor="middle" x="883.71" y="-399.5" font-family="Helvetica,sans-Serif" font-size="10.00">NoOpIterator.hpp</text>
</a>
</g>
</g>
<!-- Node1&#45;&gt;Node43 -->
<g id="edge54" class="edge">
<title>Node1&#45;&gt;Node43</title>
<path fill="none" stroke="midnightblue" d="M655.54,-446.54C709.03,-436.33 789.38,-421 839.08,-411.52"/>
<polygon fill="midnightblue" stroke="midnightblue" points="654.72,-443.13 645.55,-448.44 656.03,-450.01 654.72,-443.13"/>
</g>
<!-- Node3 -->
<g id="node3" class="node">
<title>Node3</title>
<g id="a_node3"><a xlink:href="container__extension_8hpp.html" target="_top" xlink:title=" ">
<polygon fill="white" stroke="black" points="754.21,-112.5 754.21,-131.5 891.21,-131.5 891.21,-112.5 754.21,-112.5"/>
<text text-anchor="middle" x="822.71" y="-119.5" font-family="Helvetica,sans-Serif" font-size="10.00">container_extension.hpp</text>
</a>
</g>
</g>
<!-- Node2&#45;&gt;Node3 -->
<g id="edge2" class="edge">
<title>Node2&#45;&gt;Node3</title>
<path fill="none" stroke="midnightblue" d="M517.85,-391.63C620.2,-378.99 789.8,-357.81 792.71,-356 822.11,-337.69 835.71,-325.64 835.71,-291 835.71,-291 835.71,-291 835.71,-233 835.71,-194.92 827.93,-149.94 824.41,-131.52"/>
<polygon fill="midnightblue" stroke="midnightblue" points="517.35,-388.17 507.85,-392.87 518.21,-395.12 517.35,-388.17"/>
</g>
<!-- Node4 -->
<g id="node4" class="node">
<title>Node4</title>
<g id="a_node4"><a xlink:href="ParallelFor_8hpp.html" target="_top" xlink:title=" ">
<polygon fill="white" stroke="black" points="285.71,-56.5 285.71,-75.5 373.71,-75.5 373.71,-56.5 285.71,-56.5"/>
<text text-anchor="middle" x="329.71" y="-63.5" font-family="Helvetica,sans-Serif" font-size="10.00">ParallelFor.hpp</text>
</a>
</g>
</g>
<!-- Node2&#45;&gt;Node4 -->
<g id="edge3" class="edge">
<title>Node2&#45;&gt;Node4</title>
<path fill="none" stroke="midnightblue" d="M376.16,-390.58C277.52,-370.92 94.5,-317.98 19.71,-188 -38.35,-87.1 187.05,-70.07 285.65,-67.4"/>
<polygon fill="midnightblue" stroke="midnightblue" points="375.54,-394.03 386.02,-392.49 376.87,-387.16 375.54,-394.03"/>
</g>
<!-- Node5 -->
<g id="node5" class="node">
<title>Node5</title>
<g id="a_node5"><a xlink:href="json_8hpp.html" target="_top" xlink:title=" ">
<polygon fill="white" stroke="black" points="28.71,-168.5 28.71,-187.5 86.71,-187.5 86.71,-168.5 28.71,-168.5"/>
<text text-anchor="middle" x="57.71" y="-175.5" font-family="Helvetica,sans-Serif" font-size="10.00">json.hpp</text>
</a>
</g>
</g>
<!-- Node2&#45;&gt;Node5 -->
<g id="edge4" class="edge">
<title>Node2&#45;&gt;Node5</title>
<path fill="none" stroke="midnightblue" d="M413.83,-388.26C395.2,-379.56 370.24,-367.56 348.71,-356 238.27,-296.69 111.18,-214.23 70.76,-187.63"/>
<polygon fill="midnightblue" stroke="midnightblue" points="412.41,-391.46 422.95,-392.49 415.35,-385.11 412.41,-391.46"/>
</g>
<!-- Node6 -->
<g id="node6" class="node">
<title>Node6</title>
<g id="a_node6"><a xlink:href="OutputStream_8hpp.html" target="_top" xlink:title=" ">
<polygon fill="white" stroke="black" points="953.71,-336.5 953.71,-355.5 1059.71,-355.5 1059.71,-336.5 953.71,-336.5"/>
<text text-anchor="middle" x="1006.71" y="-343.5" font-family="Helvetica,sans-Serif" font-size="10.00">OutputStream.hpp</text>
</a>
</g>
</g>
<!-- Node2&#45;&gt;Node6 -->
<g id="edge5" class="edge">
<title>Node2&#45;&gt;Node6</title>
<path fill="none" stroke="midnightblue" d="M518.38,-391.96C683.7,-374.68 865.44,-358.88 953.48,-351.44"/>
<polygon fill="midnightblue" stroke="midnightblue" points="517.6,-388.52 508.02,-393.04 518.33,-395.48 517.6,-388.52"/>
</g>
<!-- Node24 -->
<g id="node24" class="node">
<title>Node24</title>
<g id="a_node24"><a xlink:href="UnstructuredView_8hpp.html" target="_top" xlink:title=" ">
<polygon fill="white" stroke="black" points="305.71,-168.5 305.71,-187.5 429.71,-187.5 429.71,-168.5 305.71,-168.5"/>
<text text-anchor="middle" x="367.71" y="-175.5" font-family="Helvetica,sans-Serif" font-size="10.00">UnstructuredView.hpp</text>
</a>
</g>
</g>
<!-- Node2&#45;&gt;Node24 -->
<g id="edge26" class="edge">
<title>Node2&#45;&gt;Node24</title>
<path fill="none" stroke="midnightblue" d="M403.95,-388.49C388.4,-381.4 371.72,-370.9 361.71,-356 325.2,-301.63 353.6,-215.2 364.17,-187.7"/>
<polygon fill="midnightblue" stroke="midnightblue" points="402.84,-391.82 413.42,-392.47 405.56,-385.36 402.84,-391.82"/>
</g>
<!-- Node25 -->
<g id="node25" class="node">
<title>Node25</title>
<g id="a_node25"><a xlink:href="MarchingContainer_8hpp.html" target="_top" xlink:title=" ">
<polygon fill="white" stroke="black" points="377.21,-336.5 377.21,-355.5 506.21,-355.5 506.21,-336.5 377.21,-336.5"/>
<text text-anchor="middle" x="441.71" y="-343.5" font-family="Helvetica,sans-Serif" font-size="10.00">MarchingContainer.hpp</text>
</a>
</g>
</g>
<!-- Node2&#45;&gt;Node25 -->
<g id="edge27" class="edge">
<title>Node2&#45;&gt;Node25</title>
<path fill="none" stroke="midnightblue" d="M441.71,-381.8C441.71,-372.91 441.71,-362.78 441.71,-355.75"/>
<polygon fill="midnightblue" stroke="midnightblue" points="438.21,-382.08 441.71,-392.08 445.21,-382.08 438.21,-382.08"/>
</g>
<!-- Node26 -->
<g id="node26" class="node">
<title>Node26</title>
<g id="a_node26"><a xlink:href="resize_8hpp.html" target="_top" xlink:title=" ">
<polygon fill="white" stroke="black" points="716.21,-336.5 716.21,-355.5 783.21,-355.5 783.21,-336.5 716.21,-336.5"/>
<text text-anchor="middle" x="749.71" y="-343.5" font-family="Helvetica,sans-Serif" font-size="10.00">resize.hpp</text>
</a>
</g>
</g>
<!-- Node2&#45;&gt;Node26 -->
<g id="edge28" class="edge">
<title>Node2&#45;&gt;Node26</title>
<path fill="none" stroke="midnightblue" d="M505.69,-390.84C559.44,-382.13 638.22,-368.98 706.71,-356 709.71,-355.43 712.82,-354.82 715.93,-354.2"/>
<polygon fill="midnightblue" stroke="midnightblue" points="504.93,-387.41 495.62,-392.46 506.05,-394.32 504.93,-387.41"/>
</g>
<!-- Node27 -->
<g id="node27" class="node">
<title>Node27</title>
<g id="a_node27"><a xlink:href="STLContainerBase_8hpp.html" target="_top" xlink:title=" ">
<polygon fill="white" stroke="black" points="363.71,-280.5 363.71,-299.5 489.71,-299.5 489.71,-280.5 363.71,-280.5"/>
<text text-anchor="middle" x="426.71" y="-287.5" font-family="Helvetica,sans-Serif" font-size="10.00">STLContainerBase.hpp</text>
</a>
</g>
</g>
<!-- Node2&#45;&gt;Node27 -->
<g id="edge50" class="edge">
<title>Node2&#45;&gt;Node27</title>
<path fill="none" stroke="midnightblue" d="M405.47,-388.15C391.04,-381.05 375.93,-370.62 367.71,-356 354.71,-332.89 386.64,-311.16 408.43,-299.62"/>
<polygon fill="midnightblue" stroke="midnightblue" points="404.23,-391.43 414.78,-392.36 407.11,-385.05 404.23,-391.43"/>
</g>
<!-- Node39 -->
<g id="node39" class="node">
<title>Node39</title>
<g id="a_node39"><a xlink:href="state__iterator_8hpp.html" target="_top" xlink:title=" ">
<polygon fill="white" stroke="black" points="524.21,-336.5 524.21,-355.5 627.21,-355.5 627.21,-336.5 524.21,-336.5"/>
<text text-anchor="middle" x="575.71" y="-343.5" font-family="Helvetica,sans-Serif" font-size="10.00">state_iterator.hpp</text>
</a>
</g>
</g>
<!-- Node2&#45;&gt;Node39 -->
<g id="edge49" class="edge">
<title>Node2&#45;&gt;Node39</title>
<path fill="none" stroke="midnightblue" d="M472.39,-388.64C497.53,-378.5 532.46,-364.43 554.58,-355.52"/>
<polygon fill="midnightblue" stroke="midnightblue" points="470.91,-385.46 462.94,-392.44 473.53,-391.95 470.91,-385.46"/>
</g>
<!-- Node40 -->
<g id="node40" class="node">
<title>Node40</title>
<g id="a_node40"><a xlink:href="zip_8hpp.html" target="_top" xlink:title=" ">
<polygon fill="white" stroke="black" points="645.71,-336.5 645.71,-355.5 697.71,-355.5 697.71,-336.5 645.71,-336.5"/>
<text text-anchor="middle" x="671.71" y="-343.5" font-family="Helvetica,sans-Serif" font-size="10.00">zip.hpp</text>
</a>
</g>
</g>
<!-- Node2&#45;&gt;Node40 -->
<g id="edge51" class="edge">
<title>Node2&#45;&gt;Node40</title>
<path fill="none" stroke="midnightblue" d="M489.79,-390.26C529.3,-381.34 586.72,-368.19 636.71,-356 639.51,-355.32 642.44,-354.59 645.35,-353.85"/>
<polygon fill="midnightblue" stroke="midnightblue" points="488.88,-386.87 479.89,-392.48 490.41,-393.7 488.88,-386.87"/>
</g>
<!-- Node7 -->
<g id="node7" class="node">
<title>Node7</title>
<g id="a_node7"><a xlink:href="ArgParse_8hpp.html" target="_top" xlink:title=" ">
<polygon fill="white" stroke="black" points="942.71,-168.5 942.71,-187.5 1022.71,-187.5 1022.71,-168.5 942.71,-168.5"/>
<text text-anchor="middle" x="982.71" y="-175.5" font-family="Helvetica,sans-Serif" font-size="10.00">ArgParse.hpp</text>
</a>
</g>
</g>
<!-- Node6&#45;&gt;Node7 -->
<g id="edge6" class="edge">
<title>Node6&#45;&gt;Node7</title>
<path fill="none" stroke="midnightblue" d="M1041.37,-332.24C1055.61,-325.08 1070.62,-314.59 1078.71,-300 1083.02,-292.23 1082.01,-288.25 1078.71,-280 1061.84,-237.76 1017.97,-203.09 995.86,-187.65"/>
<polygon fill="midnightblue" stroke="midnightblue" points="1039.82,-329.1 1032.21,-336.47 1042.76,-335.45 1039.82,-329.1"/>
</g>
<!-- Node14 -->
<g id="node14" class="node">
<title>Node14</title>
<g id="a_node14"><a xlink:href="FileOutputStream_8hpp.html" target="_top" xlink:title=" ">
<polygon fill="white" stroke="black" points="1141.21,-280.5 1141.21,-299.5 1264.21,-299.5 1264.21,-280.5 1141.21,-280.5"/>
<text text-anchor="middle" x="1202.71" y="-287.5" font-family="Helvetica,sans-Serif" font-size="10.00">FileOutputStream.hpp</text>
</a>
</g>
</g>
<!-- Node6&#45;&gt;Node14 -->
<g id="edge14" class="edge">
<title>Node6&#45;&gt;Node14</title>
<path fill="none" stroke="midnightblue" d="M1047.73,-333.7C1084.72,-323.51 1138.31,-308.74 1171.8,-299.52"/>
<polygon fill="midnightblue" stroke="midnightblue" points="1046.48,-330.41 1037.77,-336.44 1048.34,-337.16 1046.48,-330.41"/>
</g>
<!-- Node22 -->
<g id="node22" class="node">
<title>Node22</title>
<g id="a_node22"><a xlink:href="StreamInterceptor_8hpp.html" target="_top" xlink:title=" ">
<polygon fill="white" stroke="black" points="944.21,-280.5 944.21,-299.5 1069.21,-299.5 1069.21,-280.5 944.21,-280.5"/>
<text text-anchor="middle" x="1006.71" y="-287.5" font-family="Helvetica,sans-Serif" font-size="10.00">StreamInterceptor.hpp</text>
</a>
</g>
</g>
<!-- Node6&#45;&gt;Node22 -->
<g id="edge24" class="edge">
<title>Node6&#45;&gt;Node22</title>
<path fill="none" stroke="midnightblue" d="M1006.71,-325.8C1006.71,-316.91 1006.71,-306.78 1006.71,-299.75"/>
<polygon fill="midnightblue" stroke="midnightblue" points="1003.21,-326.08 1006.71,-336.08 1010.21,-326.08 1003.21,-326.08"/>
</g>
<!-- Node23 -->
<g id="node23" class="node">
<title>Node23</title>
<g id="a_node23"><a xlink:href="Color_8hpp.html" target="_top" xlink:title=" ">
<polygon fill="white" stroke="black" points="863.71,-280.5 863.71,-299.5 925.71,-299.5 925.71,-280.5 863.71,-280.5"/>
<text text-anchor="middle" x="894.71" y="-287.5" font-family="Helvetica,sans-Serif" font-size="10.00">Color.hpp</text>
</a>
</g>
</g>
<!-- Node6&#45;&gt;Node23 -->
<g id="edge25" class="edge">
<title>Node6&#45;&gt;Node23</title>
<path fill="none" stroke="midnightblue" d="M979.46,-331.86C958.69,-321.85 930.69,-308.35 912.66,-299.65"/>
<polygon fill="midnightblue" stroke="midnightblue" points="978.19,-335.13 988.72,-336.32 981.23,-328.83 978.19,-335.13"/>
</g>
<!-- Node7&#45;&gt;Node3 -->
<g id="edge12" class="edge">
<title>Node7&#45;&gt;Node3</title>
<path fill="none" stroke="midnightblue" d="M947.66,-165.17C917.54,-155 874.81,-140.59 847.94,-131.52"/>
<polygon fill="midnightblue" stroke="midnightblue" points="946.76,-168.56 957.36,-168.44 949,-161.93 946.76,-168.56"/>
</g>
<!-- Node8 -->
<g id="node8" class="node">
<title>Node8</title>
<g id="a_node8"><a xlink:href="AbsArgument_8hpp.html" target="_top" xlink:title=" ">
<polygon fill="white" stroke="black" points="1074.71,-112.5 1074.71,-131.5 1178.71,-131.5 1178.71,-112.5 1074.71,-112.5"/>
<text text-anchor="middle" x="1126.71" y="-119.5" font-family="Helvetica,sans-Serif" font-size="10.00">AbsArgument.hpp</text>
</a>
</g>
</g>
<!-- Node7&#45;&gt;Node8 -->
<g id="edge7" class="edge">
<title>Node7&#45;&gt;Node8</title>
<path fill="none" stroke="midnightblue" d="M1014.96,-164.91C1042.03,-154.75 1080.03,-140.51 1104,-131.52"/>
<polygon fill="midnightblue" stroke="midnightblue" points="1013.66,-161.66 1005.53,-168.44 1016.12,-168.21 1013.66,-161.66"/>
</g>
<!-- Node13 -->
<g id="node13" class="node">
<title>Node13</title>
<g id="a_node13"><a xlink:href="file__system__extension_8hpp.html" target="_top" xlink:title=" ">
<polygon fill="white" stroke="black" points="909.21,-112.5 909.21,-131.5 1056.21,-131.5 1056.21,-112.5 909.21,-112.5"/>
<text text-anchor="middle" x="982.71" y="-119.5" font-family="Helvetica,sans-Serif" font-size="10.00">file_system_extension.hpp</text>
</a>
</g>
</g>
<!-- Node7&#45;&gt;Node13 -->
<g id="edge13" class="edge">
<title>Node7&#45;&gt;Node13</title>
<path fill="none" stroke="midnightblue" d="M982.71,-157.8C982.71,-148.91 982.71,-138.78 982.71,-131.75"/>
<polygon fill="midnightblue" stroke="midnightblue" points="979.21,-158.08 982.71,-168.08 986.21,-158.08 979.21,-158.08"/>
</g>
<!-- Node9 -->
<g id="node9" class="node">
<title>Node9</title>
<g id="a_node9"><a xlink:href="AggregateArgument_8hpp.html" target="_top" xlink:title=" ">
<polygon fill="white" stroke="black" points="1058.71,-56.5 1058.71,-75.5 1194.71,-75.5 1194.71,-56.5 1058.71,-56.5"/>
<text text-anchor="middle" x="1126.71" y="-63.5" font-family="Helvetica,sans-Serif" font-size="10.00">AggregateArgument.hpp</text>
</a>
</g>
</g>
<!-- Node8&#45;&gt;Node9 -->
<g id="edge8" class="edge">
<title>Node8&#45;&gt;Node9</title>
<path fill="none" stroke="midnightblue" d="M1126.71,-101.8C1126.71,-92.91 1126.71,-82.78 1126.71,-75.75"/>
<polygon fill="midnightblue" stroke="midnightblue" points="1123.21,-102.08 1126.71,-112.08 1130.21,-102.08 1123.21,-102.08"/>
</g>
<!-- Node10 -->
<g id="node10" class="node">
<title>Node10</title>
<g id="a_node10"><a xlink:href="FlagArgument_8hpp.html" target="_top" xlink:title=" ">
<polygon fill="white" stroke="black" points="1213.21,-56.5 1213.21,-75.5 1320.21,-75.5 1320.21,-56.5 1213.21,-56.5"/>
<text text-anchor="middle" x="1266.71" y="-63.5" font-family="Helvetica,sans-Serif" font-size="10.00">FlagArgument.hpp</text>
</a>
</g>
</g>
<!-- Node8&#45;&gt;Node10 -->
<g id="edge9" class="edge">
<title>Node8&#45;&gt;Node10</title>
<path fill="none" stroke="midnightblue" d="M1158.41,-108.77C1184.71,-98.63 1221.43,-84.47 1244.63,-75.52"/>
<polygon fill="midnightblue" stroke="midnightblue" points="1156.96,-105.58 1148.89,-112.44 1159.48,-112.11 1156.96,-105.58"/>
</g>
<!-- Node11 -->
<g id="node11" class="node">
<title>Node11</title>
<g id="a_node11"><a xlink:href="KeywordArgument_8hpp.html" target="_top" xlink:title=" ">
<polygon fill="white" stroke="black" points="760.71,-56.5 760.71,-75.5 888.71,-75.5 888.71,-56.5 760.71,-56.5"/>
<text text-anchor="middle" x="824.71" y="-63.5" font-family="Helvetica,sans-Serif" font-size="10.00">KeywordArgument.hpp</text>
</a>
</g>
</g>
<!-- Node8&#45;&gt;Node11 -->
<g id="edge10" class="edge">
<title>Node8&#45;&gt;Node11</title>
<path fill="none" stroke="midnightblue" d="M1068.91,-110.66C1011.83,-100.46 925.59,-85.04 872.34,-75.52"/>
<polygon fill="midnightblue" stroke="midnightblue" points="1068.4,-114.13 1078.86,-112.44 1069.63,-107.24 1068.4,-114.13"/>
</g>
<!-- Node12 -->
<g id="node12" class="node">
<title>Node12</title>
<g id="a_node12"><a xlink:href="PositionalArgument_8hpp.html" target="_top" xlink:title=" ">
<polygon fill="white" stroke="black" points="906.71,-56.5 906.71,-75.5 1040.71,-75.5 1040.71,-56.5 906.71,-56.5"/>
<text text-anchor="middle" x="973.71" y="-63.5" font-family="Helvetica,sans-Serif" font-size="10.00">PositionalArgument.hpp</text>
</a>
</g>
</g>
<!-- Node8&#45;&gt;Node12 -->
<g id="edge11" class="edge">
<title>Node8&#45;&gt;Node12</title>
<path fill="none" stroke="midnightblue" d="M1092.82,-109.04C1064.03,-98.88 1023.42,-84.55 997.84,-75.52"/>
<polygon fill="midnightblue" stroke="midnightblue" points="1091.87,-112.42 1102.47,-112.44 1094.2,-105.81 1091.87,-112.42"/>
</g>
<!-- Node15 -->
<g id="node15" class="node">
<title>Node15</title>
<g id="a_node15"><a xlink:href="Logger_8hpp.html" target="_top" xlink:title=" ">
<polygon fill="white" stroke="black" points="1184.71,-224.5 1184.71,-243.5 1254.71,-243.5 1254.71,-224.5 1184.71,-224.5"/>
<text text-anchor="middle" x="1219.71" y="-231.5" font-family="Helvetica,sans-Serif" font-size="10.00">Logger.hpp</text>
</a>
</g>
</g>
<!-- Node14&#45;&gt;Node15 -->
<g id="edge15" class="edge">
<title>Node14&#45;&gt;Node15</title>
<path fill="none" stroke="midnightblue" d="M1208.57,-270.4C1211.41,-261.36 1214.69,-250.94 1216.96,-243.75"/>
<polygon fill="midnightblue" stroke="midnightblue" points="1205.18,-269.49 1205.52,-280.08 1211.86,-271.6 1205.18,-269.49"/>
</g>
<!-- Node16 -->
<g id="node16" class="node">
<title>Node16</title>
<g id="a_node16"><a xlink:href="LogBlock_8hpp.html" target="_top" xlink:title=" ">
<polygon fill="white" stroke="black" points="1229.71,-168.5 1229.71,-187.5 1311.71,-187.5 1311.71,-168.5 1229.71,-168.5"/>
<text text-anchor="middle" x="1270.71" y="-175.5" font-family="Helvetica,sans-Serif" font-size="10.00">LogBlock.hpp</text>
</a>
</g>
</g>
<!-- Node15&#45;&gt;Node16 -->
<g id="edge16" class="edge">
<title>Node15&#45;&gt;Node16</title>
<path fill="none" stroke="midnightblue" d="M1235.09,-216.72C1244.08,-207.2 1255.07,-195.56 1262.45,-187.75"/>
<polygon fill="midnightblue" stroke="midnightblue" points="1232.45,-214.41 1228.13,-224.08 1237.54,-219.22 1232.45,-214.41"/>
</g>
<!-- Node17 -->
<g id="node17" class="node">
<title>Node17</title>
<g id="a_node17"><a xlink:href="Loggee_8hpp.html" target="_top" xlink:title=" ">
<polygon fill="white" stroke="black" points="1215.21,-112.5 1215.21,-131.5 1288.21,-131.5 1288.21,-112.5 1215.21,-112.5"/>
<text text-anchor="middle" x="1251.71" y="-119.5" font-family="Helvetica,sans-Serif" font-size="10.00">Loggee.hpp</text>
</a>
</g>
</g>
<!-- Node15&#45;&gt;Node17 -->
<g id="edge20" class="edge">
<title>Node15&#45;&gt;Node17</title>
<path fill="none" stroke="midnightblue" d="M1217.16,-214.11C1216.05,-200.88 1215.93,-182.97 1220.71,-168 1225.22,-153.9 1235.74,-140.28 1243.28,-131.78"/>
<polygon fill="midnightblue" stroke="midnightblue" points="1213.71,-214.78 1218.29,-224.33 1220.67,-214.01 1213.71,-214.78"/>
</g>
<!-- Node20 -->
<g id="node20" class="node">
<title>Node20</title>
<g id="a_node20"><a xlink:href="LoggerSingleton_8hpp.html" target="_top" xlink:title=" ">
<polygon fill="white" stroke="black" points="1329.71,-168.5 1329.71,-187.5 1445.71,-187.5 1445.71,-168.5 1329.71,-168.5"/>
<text text-anchor="middle" x="1387.71" y="-175.5" font-family="Helvetica,sans-Serif" font-size="10.00">LoggerSingleton.hpp</text>
</a>
</g>
</g>
<!-- Node15&#45;&gt;Node20 -->
<g id="edge21" class="edge">
<title>Node15&#45;&gt;Node20</title>
<path fill="none" stroke="midnightblue" d="M1256.1,-221.3C1287.75,-211.13 1332.88,-196.62 1361.21,-187.52"/>
<polygon fill="midnightblue" stroke="midnightblue" points="1254.78,-218.05 1246.33,-224.44 1256.92,-224.72 1254.78,-218.05"/>
</g>
<!-- Node16&#45;&gt;Node17 -->
<g id="edge17" class="edge">
<title>Node16&#45;&gt;Node17</title>
<path fill="none" stroke="midnightblue" d="M1264.16,-158.4C1260.99,-149.36 1257.32,-138.94 1254.79,-131.75"/>
<polygon fill="midnightblue" stroke="midnightblue" points="1260.95,-159.81 1267.57,-168.08 1267.56,-157.49 1260.95,-159.81"/>
</g>
<!-- Node18 -->
<g id="node18" class="node">
<title>Node18</title>
<g id="a_node18"><a xlink:href="testing_8hpp.html" target="_top" xlink:title=" ">
<polygon fill="white" stroke="black" points="1310.21,-112.5 1310.21,-131.5 1381.21,-131.5 1381.21,-112.5 1310.21,-112.5"/>
<text text-anchor="middle" x="1345.71" y="-119.5" font-family="Helvetica,sans-Serif" font-size="10.00">testing.hpp</text>
</a>
</g>
</g>
<!-- Node16&#45;&gt;Node18 -->
<g id="edge18" class="edge">
<title>Node16&#45;&gt;Node18</title>
<path fill="none" stroke="midnightblue" d="M1291.02,-162.38C1304.57,-152.62 1321.95,-140.11 1333.44,-131.83"/>
<polygon fill="midnightblue" stroke="midnightblue" points="1288.83,-159.64 1282.76,-168.32 1292.92,-165.32 1288.83,-159.64"/>
</g>
<!-- Node19 -->
<g id="node19" class="node">
<title>Node19</title>
<g id="a_node19"><a xlink:href="essentials_8hpp.html" target="_top" xlink:title=" ">
<polygon fill="white" stroke="black" points="1338.21,-56.5 1338.21,-75.5 1425.21,-75.5 1425.21,-56.5 1338.21,-56.5"/>
<text text-anchor="middle" x="1381.71" y="-63.5" font-family="Helvetica,sans-Serif" font-size="10.00">essentials.hpp</text>
</a>
</g>
</g>
<!-- Node18&#45;&gt;Node19 -->
<g id="edge19" class="edge">
<title>Node18&#45;&gt;Node19</title>
<path fill="none" stroke="midnightblue" d="M1357.33,-103.57C1363.53,-94.27 1370.88,-83.25 1375.88,-75.75"/>
<polygon fill="midnightblue" stroke="midnightblue" points="1354.29,-101.82 1351.65,-112.08 1360.11,-105.7 1354.29,-101.82"/>
</g>
<!-- Node20&#45;&gt;Node18 -->
<g id="edge22" class="edge">
<title>Node20&#45;&gt;Node18</title>
<path fill="none" stroke="midnightblue" d="M1374.6,-160.14C1367.28,-150.74 1358.47,-139.4 1352.52,-131.75"/>
<polygon fill="midnightblue" stroke="midnightblue" points="1371.87,-162.34 1380.77,-168.08 1377.4,-158.04 1371.87,-162.34"/>
</g>
<!-- Node21 -->
<g id="node21" class="node">
<title>Node21</title>
<g id="a_node21"><a xlink:href="warning_8hpp.html" target="_top" xlink:title=" ">
<polygon fill="white" stroke="black" points="1399.21,-112.5 1399.21,-131.5 1476.21,-131.5 1476.21,-112.5 1399.21,-112.5"/>
<text text-anchor="middle" x="1437.71" y="-119.5" font-family="Helvetica,sans-Serif" font-size="10.00">warning.hpp</text>
</a>
</g>
</g>
<!-- Node20&#45;&gt;Node21 -->
<g id="edge23" class="edge">
<title>Node20&#45;&gt;Node21</title>
<path fill="none" stroke="midnightblue" d="M1402.79,-160.72C1411.6,-151.2 1422.38,-139.56 1429.61,-131.75"/>
<polygon fill="midnightblue" stroke="midnightblue" points="1400.19,-158.37 1395.97,-168.08 1405.33,-163.12 1400.19,-158.37"/>
</g>
<!-- Node26&#45;&gt;Node27 -->
<g id="edge29" class="edge">
<title>Node26&#45;&gt;Node27</title>
<path fill="none" stroke="midnightblue" d="M705.88,-335.92C623.33,-320.78 539.27,-307.7 484.76,-299.52"/>
<polygon fill="midnightblue" stroke="midnightblue" points="705.47,-339.4 715.94,-337.78 706.74,-332.52 705.47,-339.4"/>
</g>
<!-- Node28 -->
<g id="node28" class="node">
<title>Node28</title>
<g id="a_node28"><a xlink:href="DynamicArray_8hpp.html" target="_top" xlink:title=" ">
<polygon fill="white" stroke="black" points="442.71,-224.5 442.71,-243.5 548.71,-243.5 548.71,-224.5 442.71,-224.5"/>
<text text-anchor="middle" x="495.71" y="-231.5" font-family="Helvetica,sans-Serif" font-size="10.00">DynamicArray.hpp</text>
</a>
</g>
</g>
<!-- Node27&#45;&gt;Node28 -->
<g id="edge30" class="edge">
<title>Node27&#45;&gt;Node28</title>
<path fill="none" stroke="midnightblue" d="M445.75,-274.1C458.17,-264.38 473.95,-252.03 484.42,-243.83"/>
<polygon fill="midnightblue" stroke="midnightblue" points="443.51,-271.4 437.8,-280.32 447.83,-276.92 443.51,-271.4"/>
</g>
<!-- Node37 -->
<g id="node37" class="node">
<title>Node37</title>
<g id="a_node37"><a xlink:href="StaticArray_8hpp.html" target="_top" xlink:title=" ">
<polygon fill="white" stroke="black" points="168.71,-224.5 168.71,-243.5 258.71,-243.5 258.71,-224.5 168.71,-224.5"/>
<text text-anchor="middle" x="213.71" y="-231.5" font-family="Helvetica,sans-Serif" font-size="10.00">StaticArray.hpp</text>
</a>
</g>
</g>
<!-- Node27&#45;&gt;Node37 -->
<g id="edge45" class="edge">
<title>Node27&#45;&gt;Node37</title>
<path fill="none" stroke="midnightblue" d="M383.16,-277.96C342.93,-267.76 284.01,-252.82 247.3,-243.52"/>
<polygon fill="midnightblue" stroke="midnightblue" points="382.41,-281.38 392.96,-280.44 384.13,-274.59 382.41,-281.38"/>
</g>
<!-- Node28&#45;&gt;Node4 -->
<g id="edge32" class="edge">
<title>Node28&#45;&gt;Node4</title>
<path fill="none" stroke="midnightblue" d="M482.03,-216.46C470.75,-203.07 454.16,-183.88 438.71,-168 403.81,-132.13 359.21,-92.62 339.65,-75.59"/>
<polygon fill="midnightblue" stroke="midnightblue" points="479.51,-218.9 488.6,-224.33 484.88,-214.42 479.51,-218.9"/>
</g>
<!-- Node28&#45;&gt;Node7 -->
<g id="edge31" class="edge">
<title>Node28&#45;&gt;Node7</title>
<path fill="none" stroke="midnightblue" d="M558.9,-225.99C660.69,-214.71 858.1,-192.82 942.67,-183.44"/>
<polygon fill="midnightblue" stroke="midnightblue" points="558.31,-222.54 548.75,-227.12 559.08,-229.49 558.31,-222.54"/>
</g>
<!-- Node28&#45;&gt;Node24 -->
<g id="edge41" class="edge">
<title>Node28&#45;&gt;Node24</title>
<path fill="none" stroke="midnightblue" d="M466.09,-220.5C442.09,-210.38 408.93,-196.39 387.9,-187.52"/>
<polygon fill="midnightblue" stroke="midnightblue" points="464.85,-223.78 475.43,-224.44 467.57,-217.33 464.85,-223.78"/>
</g>
<!-- Node29 -->
<g id="node29" class="node">
<title>Node29</title>
<g id="a_node29"><a xlink:href="ThreadLocal_8hpp.html" target="_top" xlink:title=" ">
<polygon fill="white" stroke="black" points="710.21,-168.5 710.21,-187.5 807.21,-187.5 807.21,-168.5 710.21,-168.5"/>
<text text-anchor="middle" x="758.71" y="-175.5" font-family="Helvetica,sans-Serif" font-size="10.00">ThreadLocal.hpp</text>
</a>
</g>
</g>
<!-- Node28&#45;&gt;Node29 -->
<g id="edge33" class="edge">
<title>Node28&#45;&gt;Node29</title>
<path fill="none" stroke="midnightblue" d="M547.29,-222.41C596.99,-212.2 671.24,-196.96 717.23,-187.52"/>
<polygon fill="midnightblue" stroke="midnightblue" points="546.47,-219 537.38,-224.44 547.88,-225.86 546.47,-219"/>
</g>
<!-- Node30 -->
<g id="node30" class="node">
<title>Node30</title>
<g id="a_node30"><a xlink:href="ThreadPoolStorage_8hpp.html" target="_top" xlink:title=" ">
<polygon fill="white" stroke="black" points="523.71,-168.5 523.71,-187.5 653.71,-187.5 653.71,-168.5 523.71,-168.5"/>
<text text-anchor="middle" x="588.71" y="-175.5" font-family="Helvetica,sans-Serif" font-size="10.00">ThreadPoolStorage.hpp</text>
</a>
</g>
</g>
<!-- Node28&#45;&gt;Node30 -->
<g id="edge34" class="edge">
<title>Node28&#45;&gt;Node30</title>
<path fill="none" stroke="midnightblue" d="M519.52,-219.18C536.63,-209.24 559.18,-196.15 573.81,-187.65"/>
<polygon fill="midnightblue" stroke="midnightblue" points="517.54,-216.28 510.65,-224.32 521.06,-222.33 517.54,-216.28"/>
</g>
<!-- Node34 -->
<g id="node34" class="node">
<title>Node34</title>
<g id="a_node34"><a xlink:href="abstree_8hpp.html" target="_top" xlink:title=" ">
<polygon fill="white" stroke="black" points="656.71,-56.5 656.71,-75.5 730.71,-75.5 730.71,-56.5 656.71,-56.5"/>
<text text-anchor="middle" x="693.71" y="-63.5" font-family="Helvetica,sans-Serif" font-size="10.00">abstree.hpp</text>
</a>
</g>
</g>
<!-- Node28&#45;&gt;Node34 -->
<g id="edge42" class="edge">
<title>Node28&#45;&gt;Node34</title>
<path fill="none" stroke="midnightblue" d="M559.05,-231C594.03,-226.57 635.73,-215.32 662.71,-188 693.95,-156.37 695.04,-97.81 694.23,-75.73"/>
<polygon fill="midnightblue" stroke="midnightblue" points="558.47,-227.54 548.91,-232.12 559.24,-234.5 558.47,-227.54"/>
</g>
<!-- Node28&#45;&gt;Node35 -->
<g id="edge43" class="edge">
<title>Node28&#45;&gt;Node35</title>
<path fill="none" stroke="midnightblue" d="M490.44,-214.39C480.3,-178.59 458.43,-101.34 451.14,-75.57"/>
<polygon fill="midnightblue" stroke="midnightblue" points="487.09,-215.41 493.18,-224.08 493.83,-213.5 487.09,-215.41"/>
</g>
<!-- Node36 -->
<g id="node36" class="node">
<title>Node36</title>
<g id="a_node36"><a xlink:href="stl__extension_8hpp.html" target="_top" xlink:title=" ">
<polygon fill="white" stroke="black" points="184.21,-168.5 184.21,-187.5 287.21,-187.5 287.21,-168.5 184.21,-168.5"/>
<text text-anchor="middle" x="235.71" y="-175.5" font-family="Helvetica,sans-Serif" font-size="10.00">stl_extension.hpp</text>
</a>
</g>
</g>
<!-- Node28&#45;&gt;Node36 -->
<g id="edge44" class="edge">
<title>Node28&#45;&gt;Node36</title>
<path fill="none" stroke="midnightblue" d="M444.72,-222.41C395.58,-212.2 322.18,-196.96 276.72,-187.52"/>
<polygon fill="midnightblue" stroke="midnightblue" points="444.01,-225.84 454.51,-224.44 445.43,-218.98 444.01,-225.84"/>
</g>
<!-- Node31 -->
<g id="node31" class="node">
<title>Node31</title>
<g id="a_node31"><a xlink:href="ThreadPool_8hpp.html" target="_top" xlink:title=" ">
<polygon fill="white" stroke="black" points="534.71,-112.5 534.71,-131.5 626.71,-131.5 626.71,-112.5 534.71,-112.5"/>
<text text-anchor="middle" x="580.71" y="-119.5" font-family="Helvetica,sans-Serif" font-size="10.00">ThreadPool.hpp</text>
</a>
</g>
</g>
<!-- Node30&#45;&gt;Node31 -->
<g id="edge35" class="edge">
<title>Node30&#45;&gt;Node31</title>
<path fill="none" stroke="midnightblue" d="M585.91,-158.1C584.58,-149.14 583.06,-138.86 582.01,-131.75"/>
<polygon fill="midnightblue" stroke="midnightblue" points="582.46,-158.7 587.39,-168.08 589.39,-157.68 582.46,-158.7"/>
</g>
<!-- Node31&#45;&gt;Node4 -->
<g id="edge36" class="edge">
<title>Node31&#45;&gt;Node4</title>
<path fill="none" stroke="midnightblue" d="M530.89,-110.28C483.46,-100.08 413.01,-84.92 369.3,-75.52"/>
<polygon fill="midnightblue" stroke="midnightblue" points="530.43,-113.76 540.94,-112.44 531.9,-106.92 530.43,-113.76"/>
</g>
<!-- Node32 -->
<g id="node32" class="node">
<title>Node32</title>
<g id="a_node32"><a xlink:href="ResourceLoader_8hpp.html" target="_top" xlink:title=" ">
<polygon fill="white" stroke="black" points="523.21,-56.5 523.21,-75.5 638.21,-75.5 638.21,-56.5 523.21,-56.5"/>
<text text-anchor="middle" x="580.71" y="-63.5" font-family="Helvetica,sans-Serif" font-size="10.00">ResourceLoader.hpp</text>
</a>
</g>
</g>
<!-- Node31&#45;&gt;Node32 -->
<g id="edge37" class="edge">
<title>Node31&#45;&gt;Node32</title>
<path fill="none" stroke="midnightblue" d="M580.71,-101.8C580.71,-92.91 580.71,-82.78 580.71,-75.75"/>
<polygon fill="midnightblue" stroke="midnightblue" points="577.21,-102.08 580.71,-112.08 584.21,-102.08 577.21,-102.08"/>
</g>
<!-- Node31&#45;&gt;Node34 -->
<g id="edge39" class="edge">
<title>Node31&#45;&gt;Node34</title>
<path fill="none" stroke="midnightblue" d="M607.71,-108.1C628.82,-98.01 657.57,-84.27 675.89,-75.52"/>
<polygon fill="midnightblue" stroke="midnightblue" points="606.13,-104.97 598.62,-112.44 609.15,-111.29 606.13,-104.97"/>
</g>
<!-- Node31&#45;&gt;Node35 -->
<g id="edge40" class="edge">
<title>Node31&#45;&gt;Node35</title>
<path fill="none" stroke="midnightblue" d="M550.49,-108.64C525.72,-98.5 491.31,-84.43 469.53,-75.52"/>
<polygon fill="midnightblue" stroke="midnightblue" points="549.21,-111.9 559.79,-112.44 551.86,-105.42 549.21,-111.9"/>
</g>
<!-- Node33 -->
<g id="node33" class="node">
<title>Node33</title>
<g id="a_node33"><a xlink:href="ResourceQueue_8hpp.html" target="_top" xlink:title=" ">
<polygon fill="white" stroke="black" points="523.71,-0.5 523.71,-19.5 637.71,-19.5 637.71,-0.5 523.71,-0.5"/>
<text text-anchor="middle" x="580.71" y="-7.5" font-family="Helvetica,sans-Serif" font-size="10.00">ResourceQueue.hpp</text>
</a>
</g>
</g>
<!-- Node32&#45;&gt;Node33 -->
<g id="edge38" class="edge">
<title>Node32&#45;&gt;Node33</title>
<path fill="none" stroke="midnightblue" d="M580.71,-45.8C580.71,-36.91 580.71,-26.78 580.71,-19.75"/>
<polygon fill="midnightblue" stroke="midnightblue" points="577.21,-46.08 580.71,-56.08 584.21,-46.08 577.21,-46.08"/>
</g>
<!-- Node37&#45;&gt;Node5 -->
<g id="edge46" class="edge">
<title>Node37&#45;&gt;Node5</title>
<path fill="none" stroke="midnightblue" d="M179.54,-221.17C150.17,-211 108.51,-196.59 82.31,-187.52"/>
<polygon fill="midnightblue" stroke="midnightblue" points="178.4,-224.48 188.99,-224.44 180.69,-217.86 178.4,-224.48"/>
</g>
<!-- Node37&#45;&gt;Node36 -->
<g id="edge48" class="edge">
<title>Node37&#45;&gt;Node36</title>
<path fill="none" stroke="midnightblue" d="M221.17,-214.69C224.88,-205.59 229.19,-195.01 232.14,-187.75"/>
<polygon fill="midnightblue" stroke="midnightblue" points="217.87,-213.5 217.34,-224.08 224.36,-216.14 217.87,-213.5"/>
</g>
<!-- Node38 -->
<g id="node38" class="node">
<title>Node38</title>
<g id="a_node38"><a xlink:href="base_8hpp.html" target="_top" xlink:title=" ">
<polygon fill="white" stroke="black" points="105.21,-168.5 105.21,-187.5 166.21,-187.5 166.21,-168.5 105.21,-168.5"/>
<text text-anchor="middle" x="135.71" y="-175.5" font-family="Helvetica,sans-Serif" font-size="10.00">base.hpp</text>
</a>
</g>
</g>
<!-- Node37&#45;&gt;Node38 -->
<g id="edge47" class="edge">
<title>Node37&#45;&gt;Node38</title>
<path fill="none" stroke="midnightblue" d="M192.94,-218.62C178.69,-208.76 160.25,-195.99 148.21,-187.65"/>
<polygon fill="midnightblue" stroke="midnightblue" points="190.96,-221.51 201.18,-224.32 194.95,-215.75 190.96,-221.51"/>
</g>
</g>
</svg>
        <g id="navigator" transform="translate(0 0)" fill="#404254">
                <rect fill="#f2f5e9" fill-opacity="0.5" stroke="#606060" stroke-width=".5" x="0" y="0" width="60" height="60"/>
                <use id="zoomplus" xlink:href="#zoomPlus" x="17" y="9" onmousedown="handleZoom(evt,'in')"/>
                <use id="zoomminus" xlink:href="#zoomMin" x="42" y="9" onmousedown="handleZoom(evt,'out')"/>
                <use id="reset" xlink:href="#resetDef" x="30" y="36" onmousedown="handleReset()"/>
                <g id="arrowUp" xlink:href="#dirArrow" transform="translate(30 24)" onmousedown="handlePan(0,-1)">
                  <use xlink:href="#rim" fill="#404040">
                        <set attributeName="fill" to="#808080" begin="arrowUp.mouseover" end="arrowUp.mouseout"/>
                  </use>
                  <path fill="none" stroke="white" stroke-width="1.5" d="M0,-3.0v7 M-2.5,-0.5L0,-3.0L2.5,-0.5"/>
                </g>
                <g id="arrowRight" xlink:href="#dirArrow" transform="rotate(90) translate(36 -43)" onmousedown="handlePan(1,0)">
                  <use xlink:href="#rim" fill="#404040">
                        <set attributeName="fill" to="#808080" begin="arrowRight.mouseover" end="arrowRight.mouseout"/>
                  </use>
                  <path fill="none" stroke="white" stroke-width="1.5" d="M0,-3.0v7 M-2.5,-0.5L0,-3.0L2.5,-0.5"/>
                </g>
                <g id="arrowDown" xlink:href="#dirArrow" transform="rotate(180) translate(-30 -48)" onmousedown="handlePan(0,1)">
                  <use xlink:href="#rim" fill="#404040">
                        <set attributeName="fill" to="#808080" begin="arrowDown.mouseover" end="arrowDown.mouseout"/>
                  </use>
                  <path fill="none" stroke="white" stroke-width="1.5" d="M0,-3.0v7 M-2.5,-0.5L0,-3.0L2.5,-0.5"/>
                </g>
                <g id="arrowLeft" xlink:href="#dirArrow" transform="rotate(270) translate(-36 17)" onmousedown="handlePan(-1,0)">
                  <use xlink:href="#rim" fill="#404040">
                        <set attributeName="fill" to="#808080" begin="arrowLeft.mouseover" end="arrowLeft.mouseout"/>
                  </use>
                  <path fill="none" stroke="white" stroke-width="1.5" d="M0,-3.0v7 M-2.5,-0.5L0,-3.0L2.5,-0.5"/>
                </g>
        </g>
        <svg viewBox="0 0 15 15" width="100%" height="30px" preserveAspectRatio="xMaxYMin meet">
         <g id="arrow_out" transform="scale(0.3 0.3)">
          <a xlink:href="iterator__concepts_8hpp__dep__incl_org.svg" target="_base">
           <rect id="button" ry="5" rx="5" y="6" x="6" height="38" width="38"
                fill="#f2f5e9" fill-opacity="0.5" stroke="#606060" stroke-width="1.0"/>
           <path id="arrow"
             d="M 11.500037,31.436501 C 11.940474,20.09759 22.043105,11.32322 32.158766,21.979434 L 37.068811,17.246167 C 37.068811,17.246167 37.088388,32 37.088388,32 L 22.160133,31.978069 C 22.160133,31.978069 26.997745,27.140456 26.997745,27.140456 C 18.528582,18.264221 13.291696,25.230495 11.500037,31.436501 z"
             style="fill:#404040;"/>
          </a>
         </g>
        </svg>
</svg>
