<?xml version="1.0" encoding="UTF-8" standalone="no"?>
<!DOCTYPE svg PUBLIC "-//W3C//DTD SVG 1.1//EN"
 "http://www.w3.org/Graphics/SVG/1.1/DTD/svg11.dtd">
<!-- Generated by graphviz version 2.43.0 (0)
 -->
<!-- Title: iterator_concepts.hpp Pages: 1 -->
<svg width="1638pt" height="467pt"
 viewBox="0.00 0.00 1638.00 467.00" xmlns="http://www.w3.org/2000/svg" xmlns:xlink="http://www.w3.org/1999/xlink">
<g id="graph0" class="graph" transform="scale(1 1) rotate(0) translate(4 463)">
<title>iterator_concepts.hpp</title>
<!-- Node1 -->
<g id="Node000001" class="node">
<title>Node1</title>
<g id="a_Node000001"><a xlink:title=" ">
<polygon fill="#999999" stroke="#666666" points="1333.5,-459 1211.5,-459 1211.5,-440 1333.5,-440 1333.5,-459"/>
<text text-anchor="middle" x="1272.5" y="-447" font-family="Helvetica,sans-Serif" font-size="10.00">iterator_concepts.hpp</text>
</a>
</g>
</g>
<!-- Node2 -->
<g id="Node000002" class="node">
<title>Node2</title>
<g id="a_Node000002"><a xlink:href="ContiguousTree_8hpp.html" target="_top" xlink:title=" ">
<polygon fill="white" stroke="#666666" points="867,-74 754,-74 754,-55 867,-55 867,-74"/>
<text text-anchor="middle" x="810.5" y="-62" font-family="Helvetica,sans-Serif" font-size="10.00">ContiguousTree.hpp</text>
</a>
</g>
</g>
<!-- Node1&#45;&gt;Node2 -->
<g id="edge1_Node000001_Node000002" class="edge">
<title>Node1&#45;&gt;Node2</title>
<g id="a_edge1_Node000001_Node000002"><a xlink:title=" ">
<path fill="none" stroke="#63b8ff" d="M1201.27,-447.2C1067.15,-442.8 790.5,-423.66 790.5,-340.5 790.5,-340.5 790.5,-340.5 790.5,-173.5 790.5,-135.93 802.34,-92.23 807.8,-74.08"/>
<polygon fill="#63b8ff" stroke="#63b8ff" points="1201.35,-450.7 1211.45,-447.51 1201.57,-443.71 1201.35,-450.7"/>
</a>
</g>
</g>
<!-- Node3 -->
<g id="Node000003" class="node">
<title>Node3</title>
<g id="a_Node000003"><a xlink:href="NoOpIterator_8hpp.html" target="_top" xlink:title=" ">
<polygon fill="white" stroke="#666666" points="1322.5,-404 1222.5,-404 1222.5,-385 1322.5,-385 1322.5,-404"/>
<text text-anchor="middle" x="1272.5" y="-392" font-family="Helvetica,sans-Serif" font-size="10.00">NoOpIterator.hpp</text>
</a>
</g>
</g>
<!-- Node1&#45;&gt;Node3 -->
<g id="edge2_Node000001_Node000003" class="edge">
<title>Node1&#45;&gt;Node3</title>
<g id="a_edge2_Node000001_Node000003"><a xlink:title=" ">
<path fill="none" stroke="#63b8ff" d="M1272.5,-429.66C1272.5,-420.93 1272.5,-410.99 1272.5,-404.09"/>
<polygon fill="#63b8ff" stroke="#63b8ff" points="1269,-429.75 1272.5,-439.75 1276,-429.75 1269,-429.75"/>
</a>
</g>
</g>
<!-- Node4 -->
<g id="Node000004" class="node">
<title>Node4</title>
<g id="a_Node000004"><a xlink:href="TransformIterator_8hpp.html" target="_top" xlink:title=" ">
<polygon fill="white" stroke="#666666" points="1462.5,-404 1340.5,-404 1340.5,-385 1462.5,-385 1462.5,-404"/>
<text text-anchor="middle" x="1401.5" y="-392" font-family="Helvetica,sans-Serif" font-size="10.00">TransformIterator.hpp</text>
</a>
</g>
</g>
<!-- Node1&#45;&gt;Node4 -->
<g id="edge3_Node000001_Node000004" class="edge">
<title>Node1&#45;&gt;Node4</title>
<g id="a_edge3_Node000001_Node000004"><a xlink:title=" ">
<path fill="none" stroke="#63b8ff" d="M1302.54,-436.16C1326.42,-426.35 1359.22,-412.87 1380.4,-404.17"/>
<polygon fill="#63b8ff" stroke="#63b8ff" points="1301.15,-432.95 1293.23,-439.98 1303.81,-439.42 1301.15,-432.95"/>
</a>
</g>
</g>
<!-- Node5 -->
<g id="Node000005" class="node">
<title>Node5</title>
<g id="a_Node000005"><a xlink:href="container__concepts_8hpp.html" target="_top" xlink:title=" ">
<polygon fill="white" stroke="#666666" points="1204.5,-404 1072.5,-404 1072.5,-385 1204.5,-385 1204.5,-404"/>
<text text-anchor="middle" x="1138.5" y="-392" font-family="Helvetica,sans-Serif" font-size="10.00">container_concepts.hpp</text>
</a>
</g>
</g>
<!-- Node1&#45;&gt;Node5 -->
<g id="edge4_Node000001_Node000005" class="edge">
<title>Node1&#45;&gt;Node5</title>
<g id="a_edge4_Node000001_Node000005"><a xlink:title=" ">
<path fill="none" stroke="#63b8ff" d="M1241.63,-436.29C1216.8,-426.47 1182.51,-412.91 1160.42,-404.17"/>
<polygon fill="#63b8ff" stroke="#63b8ff" points="1240.38,-439.56 1250.97,-439.98 1242.96,-433.05 1240.38,-439.56"/>
</a>
</g>
</g>
<!-- Node44 -->
<g id="Node000044" class="node">
<title>Node44</title>
<g id="a_Node000044"><a xlink:href="polynomial__evaluation_8hpp.html" target="_top" xlink:title=" ">
<polygon fill="white" stroke="#666666" points="1630,-404 1481,-404 1481,-385 1630,-385 1630,-404"/>
<text text-anchor="middle" x="1555.5" y="-392" font-family="Helvetica,sans-Serif" font-size="10.00">polynomial_evaluation.hpp</text>
</a>
</g>
</g>
<!-- Node1&#45;&gt;Node44 -->
<g id="edge56_Node000001_Node000044" class="edge">
<title>Node1&#45;&gt;Node44</title>
<g id="a_edge56_Node000001_Node000044"><a xlink:title=" ">
<path fill="none" stroke="#63b8ff" d="M1327.89,-438.13C1380.94,-428.19 1460.07,-413.37 1509.67,-404.08"/>
<polygon fill="#63b8ff" stroke="#63b8ff" points="1327.15,-434.7 1317.97,-439.98 1328.44,-441.58 1327.15,-434.7"/>
</a>
</g>
</g>
<!-- Node6 -->
<g id="Node000006" class="node">
<title>Node6</title>
<g id="a_Node000006"><a xlink:href="Comparison_8hpp.html" target="_top" xlink:title=" ">
<polygon fill="white" stroke="#666666" points="997.5,-349 901.5,-349 901.5,-330 997.5,-330 997.5,-349"/>
<text text-anchor="middle" x="949.5" y="-337" font-family="Helvetica,sans-Serif" font-size="10.00">Comparison.hpp</text>
</a>
</g>
</g>
<!-- Node5&#45;&gt;Node6 -->
<g id="edge5_Node000005_Node000006" class="edge">
<title>Node5&#45;&gt;Node6</title>
<g id="a_edge5_Node000005_Node000006"><a xlink:title=" ">
<path fill="none" stroke="#63b8ff" d="M1098.15,-382.18C1062.8,-372.27 1012.2,-358.08 980.1,-349.08"/>
<polygon fill="#63b8ff" stroke="#63b8ff" points="1097.56,-385.65 1108.13,-384.98 1099.45,-378.91 1097.56,-385.65"/>
</a>
</g>
</g>
<!-- Node7 -->
<g id="Node000007" class="node">
<title>Node7</title>
<g id="a_Node000007"><a xlink:href="MarchingContainer_8hpp.html" target="_top" xlink:title=" ">
<polygon fill="white" stroke="#666666" points="1145,-349 1016,-349 1016,-330 1145,-330 1145,-349"/>
<text text-anchor="middle" x="1080.5" y="-337" font-family="Helvetica,sans-Serif" font-size="10.00">MarchingContainer.hpp</text>
</a>
</g>
</g>
<!-- Node5&#45;&gt;Node7 -->
<g id="edge6_Node000005_Node000007" class="edge">
<title>Node5&#45;&gt;Node7</title>
<g id="a_edge6_Node000005_Node000007"><a xlink:title=" ">
<path fill="none" stroke="#63b8ff" d="M1121.59,-378.04C1111.3,-368.64 1098.53,-356.98 1089.99,-349.17"/>
<polygon fill="#63b8ff" stroke="#63b8ff" points="1119.44,-380.82 1129.18,-384.98 1124.16,-375.66 1119.44,-380.82"/>
</a>
</g>
</g>
<!-- Node8 -->
<g id="Node000008" class="node">
<title>Node8</title>
<g id="a_Node000008"><a xlink:href="OutputStream_8hpp.html" target="_top" xlink:title=" ">
<polygon fill="white" stroke="#666666" points="635.5,-349 529.5,-349 529.5,-330 635.5,-330 635.5,-349"/>
<text text-anchor="middle" x="582.5" y="-337" font-family="Helvetica,sans-Serif" font-size="10.00">OutputStream.hpp</text>
</a>
</g>
</g>
<!-- Node5&#45;&gt;Node8 -->
<g id="edge7_Node000005_Node000008" class="edge">
<title>Node5&#45;&gt;Node8</title>
<g id="a_edge7_Node000005_Node000008"><a xlink:title=" ">
<path fill="none" stroke="#63b8ff" d="M1062.17,-386.22C947.71,-375.31 734.47,-354.99 635.5,-345.55"/>
<polygon fill="#63b8ff" stroke="#63b8ff" points="1061.97,-389.72 1072.26,-387.19 1062.64,-382.75 1061.97,-389.72"/>
</a>
</g>
</g>
<!-- Node15 -->
<g id="Node000015" class="node">
<title>Node15</title>
<g id="a_Node000015"><a xlink:href="container__extension_8hpp.html" target="_top" xlink:title=" ">
<polygon fill="white" stroke="#666666" points="452,-129 315,-129 315,-110 452,-110 452,-129"/>
<text text-anchor="middle" x="383.5" y="-117" font-family="Helvetica,sans-Serif" font-size="10.00">container_extension.hpp</text>
</a>
</g>
</g>
<!-- Node5&#45;&gt;Node15 -->
<g id="edge50_Node000005_Node000015" class="edge">
<title>Node5&#45;&gt;Node15</title>
<g id="a_edge50_Node000005_Node000015"><a xlink:title=" ">
<path fill="none" stroke="#63b8ff" d="M1061.85,-392.6C919.3,-390.17 618.98,-381.26 520.5,-349 470.11,-332.49 419.5,-338.52 419.5,-285.5 419.5,-285.5 419.5,-285.5 419.5,-228.5 419.5,-189.76 398.4,-147.03 388.51,-129.13"/>
<polygon fill="#63b8ff" stroke="#63b8ff" points="1062.19,-396.11 1072.25,-392.77 1062.31,-389.11 1062.19,-396.11"/>
</a>
</g>
</g>
<!-- Node27 -->
<g id="Node000027" class="node">
<title>Node27</title>
<g id="a_Node000027"><a xlink:href="ParallelFor_8hpp.html" target="_top" xlink:title=" ">
<polygon fill="white" stroke="#666666" points="1198.5,-74 1110.5,-74 1110.5,-55 1198.5,-55 1198.5,-74"/>
<text text-anchor="middle" x="1154.5" y="-62" font-family="Helvetica,sans-Serif" font-size="10.00">ParallelFor.hpp</text>
</a>
</g>
</g>
<!-- Node5&#45;&gt;Node27 -->
<g id="edge28_Node000005_Node000027" class="edge">
<title>Node5&#45;&gt;Node27</title>
<g id="a_edge28_Node000005_Node000027"><a xlink:title=" ">
<path fill="none" stroke="#63b8ff" d="M1214.77,-385.05C1316.35,-377.86 1540.88,-402.69 1606.5,-349 1629.3,-330.35 1625.5,-314.96 1625.5,-285.5 1625.5,-285.5 1625.5,-285.5 1625.5,-173.5 1625.5,-86.46 1316.06,-69.57 1198.81,-66.29"/>
<polygon fill="#63b8ff" stroke="#63b8ff" points="1214.41,-381.57 1204.75,-385.91 1215.01,-388.55 1214.41,-381.57"/>
</a>
</g>
</g>
<!-- Node28 -->
<g id="Node000028" class="node">
<title>Node28</title>
<g id="a_Node000028"><a xlink:href="STLContainerBase_8hpp.html" target="_top" xlink:title=" ">
<polygon fill="white" stroke="#666666" points="1173.5,-294 1047.5,-294 1047.5,-275 1173.5,-275 1173.5,-294"/>
<text text-anchor="middle" x="1110.5" y="-282" font-family="Helvetica,sans-Serif" font-size="10.00">STLContainerBase.hpp</text>
</a>
</g>
</g>
<!-- Node5&#45;&gt;Node28 -->
<g id="edge29_Node000005_Node000028" class="edge">
<title>Node5&#45;&gt;Node28</title>
<g id="a_edge29_Node000005_Node000028"><a xlink:title=" ">
<path fill="none" stroke="#63b8ff" d="M1062.38,-390.13C998.35,-385.51 913.89,-374.61 892.5,-349 847.96,-295.68 968.08,-285.68 1047.24,-284.62"/>
<polygon fill="#63b8ff" stroke="#63b8ff" points="1062.26,-393.63 1072.47,-390.82 1062.73,-386.65 1062.26,-393.63"/>
</a>
</g>
</g>
<!-- Node36 -->
<g id="Node000036" class="node">
<title>Node36</title>
<g id="a_Node000036"><a xlink:href="UnstructuredView_8hpp.html" target="_top" xlink:title=" ">
<polygon fill="white" stroke="#666666" points="1320.5,-184 1196.5,-184 1196.5,-165 1320.5,-165 1320.5,-184"/>
<text text-anchor="middle" x="1258.5" y="-172" font-family="Helvetica,sans-Serif" font-size="10.00">UnstructuredView.hpp</text>
</a>
</g>
</g>
<!-- Node5&#45;&gt;Node36 -->
<g id="edge49_Node000005_Node000036" class="edge">
<title>Node5&#45;&gt;Node36</title>
<g id="a_edge49_Node000005_Node000036"><a xlink:title=" ">
<path fill="none" stroke="#63b8ff" d="M1190.8,-381.62C1208.64,-374.96 1226.97,-364.7 1238.5,-349 1276.73,-296.95 1265.19,-211.4 1260.23,-184.13"/>
<polygon fill="#63b8ff" stroke="#63b8ff" points="1189.33,-378.43 1180.99,-384.97 1191.58,-385.06 1189.33,-378.43"/>
</a>
</g>
</g>
<!-- Node40 -->
<g id="Node000040" class="node">
<title>Node40</title>
<g id="a_Node000040"><a xlink:href="json_8hpp.html" target="_top" xlink:title=" ">
<polygon fill="white" stroke="#666666" points="1597.5,-184 1539.5,-184 1539.5,-165 1597.5,-165 1597.5,-184"/>
<text text-anchor="middle" x="1568.5" y="-172" font-family="Helvetica,sans-Serif" font-size="10.00">json.hpp</text>
</a>
</g>
</g>
<!-- Node5&#45;&gt;Node40 -->
<g id="edge51_Node000005_Node000040" class="edge">
<title>Node5&#45;&gt;Node40</title>
<g id="a_edge51_Node000005_Node000040"><a xlink:title=" ">
<path fill="none" stroke="#63b8ff" d="M1174.68,-381.73C1198.8,-373.48 1231.02,-361.69 1258.5,-349 1377.48,-294.05 1512.53,-210.78 1555,-184.07"/>
<polygon fill="#63b8ff" stroke="#63b8ff" points="1173.55,-378.41 1165.2,-384.93 1175.79,-385.05 1173.55,-378.41"/>
</a>
</g>
</g>
<!-- Node41 -->
<g id="Node000041" class="node">
<title>Node41</title>
<g id="a_Node000041"><a xlink:href="resize_8hpp.html" target="_top" xlink:title=" ">
<polygon fill="white" stroke="#666666" points="1230,-349 1163,-349 1163,-330 1230,-330 1230,-349"/>
<text text-anchor="middle" x="1196.5" y="-337" font-family="Helvetica,sans-Serif" font-size="10.00">resize.hpp</text>
</a>
</g>
</g>
<!-- Node5&#45;&gt;Node41 -->
<g id="edge52_Node000005_Node000041" class="edge">
<title>Node5&#45;&gt;Node41</title>
<g id="a_edge52_Node000005_Node000041"><a xlink:title=" ">
<path fill="none" stroke="#63b8ff" d="M1155.41,-378.04C1165.7,-368.64 1178.47,-356.98 1187.01,-349.17"/>
<polygon fill="#63b8ff" stroke="#63b8ff" points="1152.84,-375.66 1147.82,-384.98 1157.56,-380.82 1152.84,-375.66"/>
</a>
</g>
</g>
<!-- Node42 -->
<g id="Node000042" class="node">
<title>Node42</title>
<g id="a_Node000042"><a xlink:href="state__iterator_8hpp.html" target="_top" xlink:title=" ">
<polygon fill="white" stroke="#666666" points="1527,-349 1424,-349 1424,-330 1527,-330 1527,-349"/>
<text text-anchor="middle" x="1475.5" y="-337" font-family="Helvetica,sans-Serif" font-size="10.00">state_iterator.hpp</text>
</a>
</g>
</g>
<!-- Node5&#45;&gt;Node42 -->
<g id="edge54_Node000005_Node000042" class="edge">
<title>Node5&#45;&gt;Node42</title>
<g id="a_edge54_Node000005_Node000042"><a xlink:title=" ">
<path fill="none" stroke="#63b8ff" d="M1202.66,-383.41C1266.93,-373.3 1364.59,-357.94 1423.98,-348.6"/>
<polygon fill="#63b8ff" stroke="#63b8ff" points="1201.98,-379.97 1192.64,-384.98 1203.07,-386.89 1201.98,-379.97"/>
</a>
</g>
</g>
<!-- Node43 -->
<g id="Node000043" class="node">
<title>Node43</title>
<g id="a_Node000043"><a xlink:href="zip_8hpp.html" target="_top" xlink:title=" ">
<polygon fill="white" stroke="#666666" points="1597.5,-349 1545.5,-349 1545.5,-330 1597.5,-330 1597.5,-349"/>
<text text-anchor="middle" x="1571.5" y="-337" font-family="Helvetica,sans-Serif" font-size="10.00">zip.hpp</text>
</a>
</g>
</g>
<!-- Node5&#45;&gt;Node43 -->
<g id="edge55_Node000005_Node000043" class="edge">
<title>Node5&#45;&gt;Node43</title>
<g id="a_edge55_Node000005_Node000043"><a xlink:title=" ">
<path fill="none" stroke="#63b8ff" d="M1214.84,-384.86C1358.77,-369.09 1397.45,-373.53 1536.5,-349 1539.33,-348.5 1542.28,-347.91 1545.2,-347.27"/>
<polygon fill="#63b8ff" stroke="#63b8ff" points="1214.31,-381.4 1204.75,-385.98 1215.08,-388.36 1214.31,-381.4"/>
</a>
</g>
</g>
<!-- Node9 -->
<g id="Node000009" class="node">
<title>Node9</title>
<g id="a_Node000009"><a xlink:href="ArgParse_8hpp.html" target="_top" xlink:title=" ">
<polygon fill="white" stroke="#666666" points="563.5,-184 483.5,-184 483.5,-165 563.5,-165 563.5,-184"/>
<text text-anchor="middle" x="523.5" y="-172" font-family="Helvetica,sans-Serif" font-size="10.00">ArgParse.hpp</text>
</a>
</g>
</g>
<!-- Node8&#45;&gt;Node9 -->
<g id="edge8_Node000008_Node000009" class="edge">
<title>Node8&#45;&gt;Node9</title>
<g id="a_edge8_Node000008_Node000009"><a xlink:title=" ">
<path fill="none" stroke="#63b8ff" d="M564.25,-322.78C556.32,-314.94 547.67,-304.83 542.5,-294 524.36,-256.02 523.02,-204.2 523.26,-184.02"/>
<polygon fill="#63b8ff" stroke="#63b8ff" points="562.09,-325.55 571.79,-329.81 566.86,-320.43 562.09,-325.55"/>
</a>
</g>
</g>
<!-- Node17 -->
<g id="Node000017" class="node">
<title>Node17</title>
<g id="a_Node000017"><a xlink:href="Color_8hpp.html" target="_top" xlink:title=" ">
<polygon fill="white" stroke="#666666" points="613.5,-294 551.5,-294 551.5,-275 613.5,-275 613.5,-294"/>
<text text-anchor="middle" x="582.5" y="-282" font-family="Helvetica,sans-Serif" font-size="10.00">Color.hpp</text>
</a>
</g>
</g>
<!-- Node8&#45;&gt;Node17 -->
<g id="edge16_Node000008_Node000017" class="edge">
<title>Node8&#45;&gt;Node17</title>
<g id="a_edge16_Node000008_Node000017"><a xlink:title=" ">
<path fill="none" stroke="#63b8ff" d="M582.5,-319.66C582.5,-310.93 582.5,-300.99 582.5,-294.09"/>
<polygon fill="#63b8ff" stroke="#63b8ff" points="579,-319.75 582.5,-329.75 586,-319.75 579,-319.75"/>
</a>
</g>
</g>
<!-- Node18 -->
<g id="Node000018" class="node">
<title>Node18</title>
<g id="a_Node000018"><a xlink:href="FileOutputStream_8hpp.html" target="_top" xlink:title=" ">
<polygon fill="white" stroke="#666666" points="359,-294 236,-294 236,-275 359,-275 359,-294"/>
<text text-anchor="middle" x="297.5" y="-282" font-family="Helvetica,sans-Serif" font-size="10.00">FileOutputStream.hpp</text>
</a>
</g>
</g>
<!-- Node8&#45;&gt;Node18 -->
<g id="edge17_Node000008_Node000018" class="edge">
<title>Node8&#45;&gt;Node18</title>
<g id="a_edge17_Node000008_Node000018"><a xlink:title=" ">
<path fill="none" stroke="#63b8ff" d="M526.72,-328.13C473.29,-318.19 393.61,-303.37 343.65,-294.08"/>
<polygon fill="#63b8ff" stroke="#63b8ff" points="526.24,-331.6 536.71,-329.98 527.52,-324.72 526.24,-331.6"/>
</a>
</g>
</g>
<!-- Node26 -->
<g id="Node000026" class="node">
<title>Node26</title>
<g id="a_Node000026"><a xlink:href="StreamInterceptor_8hpp.html" target="_top" xlink:title=" ">
<polygon fill="white" stroke="#666666" points="757,-294 632,-294 632,-275 757,-275 757,-294"/>
<text text-anchor="middle" x="694.5" y="-282" font-family="Helvetica,sans-Serif" font-size="10.00">StreamInterceptor.hpp</text>
</a>
</g>
</g>
<!-- Node8&#45;&gt;Node26 -->
<g id="edge27_Node000008_Node000026" class="edge">
<title>Node8&#45;&gt;Node26</title>
<g id="a_edge27_Node000008_Node000026"><a xlink:title=" ">
<path fill="none" stroke="#63b8ff" d="M609.69,-325.63C630.32,-315.87 658.12,-302.71 676.18,-294.17"/>
<polygon fill="#63b8ff" stroke="#63b8ff" points="608.04,-322.54 600.49,-329.98 611.03,-328.87 608.04,-322.54"/>
</a>
</g>
</g>
<!-- Node10 -->
<g id="Node000010" class="node">
<title>Node10</title>
<g id="a_Node000010"><a xlink:href="AbsArgument_8hpp.html" target="_top" xlink:title=" ">
<polygon fill="white" stroke="#666666" points="574.5,-129 470.5,-129 470.5,-110 574.5,-110 574.5,-129"/>
<text text-anchor="middle" x="522.5" y="-117" font-family="Helvetica,sans-Serif" font-size="10.00">AbsArgument.hpp</text>
</a>
</g>
</g>
<!-- Node9&#45;&gt;Node10 -->
<g id="edge9_Node000009_Node000010" class="edge">
<title>Node9&#45;&gt;Node10</title>
<g id="a_edge9_Node000009_Node000010"><a xlink:title=" ">
<path fill="none" stroke="#63b8ff" d="M523.14,-154.66C522.98,-145.93 522.79,-135.99 522.66,-129.09"/>
<polygon fill="#63b8ff" stroke="#63b8ff" points="519.65,-154.82 523.33,-164.75 526.65,-154.68 519.65,-154.82"/>
</a>
</g>
</g>
<!-- Node9&#45;&gt;Node15 -->
<g id="edge14_Node000009_Node000015" class="edge">
<title>Node9&#45;&gt;Node15</title>
<g id="a_edge14_Node000009_Node000015"><a xlink:title=" ">
<path fill="none" stroke="#63b8ff" d="M491.59,-161.42C465.62,-151.59 429.58,-137.95 406.4,-129.17"/>
<polygon fill="#63b8ff" stroke="#63b8ff" points="490.42,-164.72 501.01,-164.98 492.89,-158.17 490.42,-164.72"/>
</a>
</g>
</g>
<!-- Node16 -->
<g id="Node000016" class="node">
<title>Node16</title>
<g id="a_Node000016"><a xlink:href="file__system__extension_8hpp.html" target="_top" xlink:title=" ">
<polygon fill="white" stroke="#666666" points="740,-129 593,-129 593,-110 740,-110 740,-129"/>
<text text-anchor="middle" x="666.5" y="-117" font-family="Helvetica,sans-Serif" font-size="10.00">file_system_extension.hpp</text>
</a>
</g>
</g>
<!-- Node9&#45;&gt;Node16 -->
<g id="edge15_Node000009_Node000016" class="edge">
<title>Node9&#45;&gt;Node16</title>
<g id="a_edge15_Node000009_Node000016"><a xlink:title=" ">
<path fill="none" stroke="#63b8ff" d="M556.09,-161.42C582.62,-151.59 619.43,-137.95 643.11,-129.17"/>
<polygon fill="#63b8ff" stroke="#63b8ff" points="554.64,-158.23 546.48,-164.98 557.07,-164.79 554.64,-158.23"/>
</a>
</g>
</g>
<!-- Node11 -->
<g id="Node000011" class="node">
<title>Node11</title>
<g id="a_Node000011"><a xlink:href="AggregateArgument_8hpp.html" target="_top" xlink:title=" ">
<polygon fill="white" stroke="#666666" points="311.5,-74 175.5,-74 175.5,-55 311.5,-55 311.5,-74"/>
<text text-anchor="middle" x="243.5" y="-62" font-family="Helvetica,sans-Serif" font-size="10.00">AggregateArgument.hpp</text>
</a>
</g>
</g>
<!-- Node10&#45;&gt;Node11 -->
<g id="edge10_Node000010_Node000011" class="edge">
<title>Node10&#45;&gt;Node11</title>
<g id="a_edge10_Node000010_Node000011"><a xlink:title=" ">
<path fill="none" stroke="#63b8ff" d="M467.57,-108.07C415.26,-98.13 337.48,-83.35 288.68,-74.08"/>
<polygon fill="#63b8ff" stroke="#63b8ff" points="467.2,-111.56 477.67,-109.98 468.5,-104.68 467.2,-111.56"/>
</a>
</g>
</g>
<!-- Node12 -->
<g id="Node000012" class="node">
<title>Node12</title>
<g id="a_Node000012"><a xlink:href="FlagArgument_8hpp.html" target="_top" xlink:title=" ">
<polygon fill="white" stroke="#666666" points="437,-74 330,-74 330,-55 437,-55 437,-74"/>
<text text-anchor="middle" x="383.5" y="-62" font-family="Helvetica,sans-Serif" font-size="10.00">FlagArgument.hpp</text>
</a>
</g>
</g>
<!-- Node10&#45;&gt;Node12 -->
<g id="edge11_Node000010_Node000012" class="edge">
<title>Node10&#45;&gt;Node12</title>
<g id="a_edge11_Node000010_Node000012"><a xlink:title=" ">
<path fill="none" stroke="#63b8ff" d="M490.82,-106.42C465.03,-96.59 429.26,-82.95 406.24,-74.17"/>
<polygon fill="#63b8ff" stroke="#63b8ff" points="489.58,-109.69 500.17,-109.98 492.07,-103.15 489.58,-109.69"/>
</a>
</g>
</g>
<!-- Node13 -->
<g id="Node000013" class="node">
<title>Node13</title>
<g id="a_Node000013"><a xlink:href="KeywordArgument_8hpp.html" target="_top" xlink:title=" ">
<polygon fill="white" stroke="#666666" points="583.5,-74 455.5,-74 455.5,-55 583.5,-55 583.5,-74"/>
<text text-anchor="middle" x="519.5" y="-62" font-family="Helvetica,sans-Serif" font-size="10.00">KeywordArgument.hpp</text>
</a>
</g>
</g>
<!-- Node10&#45;&gt;Node13 -->
<g id="edge12_Node000010_Node000013" class="edge">
<title>Node10&#45;&gt;Node13</title>
<g id="a_edge12_Node000010_Node000013"><a xlink:title=" ">
<path fill="none" stroke="#63b8ff" d="M521.43,-99.66C520.94,-90.93 520.38,-80.99 519.99,-74.09"/>
<polygon fill="#63b8ff" stroke="#63b8ff" points="517.94,-99.96 522,-109.75 524.93,-99.57 517.94,-99.96"/>
</a>
</g>
</g>
<!-- Node14 -->
<g id="Node000014" class="node">
<title>Node14</title>
<g id="a_Node000014"><a xlink:href="PositionalArgument_8hpp.html" target="_top" xlink:title=" ">
<polygon fill="white" stroke="#666666" points="735.5,-74 601.5,-74 601.5,-55 735.5,-55 735.5,-74"/>
<text text-anchor="middle" x="668.5" y="-62" font-family="Helvetica,sans-Serif" font-size="10.00">PositionalArgument.hpp</text>
</a>
</g>
</g>
<!-- Node10&#45;&gt;Node14 -->
<g id="edge13_Node000010_Node000014" class="edge">
<title>Node10&#45;&gt;Node14</title>
<g id="a_edge13_Node000010_Node000014"><a xlink:title=" ">
<path fill="none" stroke="#63b8ff" d="M555.42,-106.55C582.53,-96.71 620.33,-82.98 644.62,-74.17"/>
<polygon fill="#63b8ff" stroke="#63b8ff" points="554.16,-103.28 545.96,-109.98 556.55,-109.86 554.16,-103.28"/>
</a>
</g>
</g>
<!-- Node19 -->
<g id="Node000019" class="node">
<title>Node19</title>
<g id="a_Node000019"><a xlink:href="Logger_8hpp.html" target="_top" xlink:title=" ">
<polygon fill="white" stroke="#666666" points="266.5,-239 196.5,-239 196.5,-220 266.5,-220 266.5,-239"/>
<text text-anchor="middle" x="231.5" y="-227" font-family="Helvetica,sans-Serif" font-size="10.00">Logger.hpp</text>
</a>
</g>
</g>
<!-- Node18&#45;&gt;Node19 -->
<g id="edge18_Node000018_Node000019" class="edge">
<title>Node18&#45;&gt;Node19</title>
<g id="a_edge18_Node000018_Node000019"><a xlink:title=" ">
<path fill="none" stroke="#63b8ff" d="M278.95,-268.6C267.12,-259.11 252.21,-247.13 242.3,-239.17"/>
<polygon fill="#63b8ff" stroke="#63b8ff" points="276.91,-271.45 286.9,-274.98 281.29,-265.99 276.91,-271.45"/>
</a>
</g>
</g>
<!-- Node20 -->
<g id="Node000020" class="node">
<title>Node20</title>
<g id="a_Node000020"><a xlink:href="LogBlock_8hpp.html" target="_top" xlink:title=" ">
<polygon fill="white" stroke="#666666" points="256.5,-184 174.5,-184 174.5,-165 256.5,-165 256.5,-184"/>
<text text-anchor="middle" x="215.5" y="-172" font-family="Helvetica,sans-Serif" font-size="10.00">LogBlock.hpp</text>
</a>
</g>
</g>
<!-- Node19&#45;&gt;Node20 -->
<g id="edge19_Node000019_Node000020" class="edge">
<title>Node19&#45;&gt;Node20</title>
<g id="a_edge19_Node000019_Node000020"><a xlink:title=" ">
<path fill="none" stroke="#63b8ff" d="M225.9,-209.95C223.24,-201.15 220.2,-191.06 218.09,-184.09"/>
<polygon fill="#63b8ff" stroke="#63b8ff" points="222.62,-211.19 228.86,-219.75 229.32,-209.16 222.62,-211.19"/>
</a>
</g>
</g>
<!-- Node21 -->
<g id="Node000021" class="node">
<title>Node21</title>
<g id="a_Node000021"><a xlink:href="Loggee_8hpp.html" target="_top" xlink:title=" ">
<polygon fill="white" stroke="#666666" points="284,-129 211,-129 211,-110 284,-110 284,-129"/>
<text text-anchor="middle" x="247.5" y="-117" font-family="Helvetica,sans-Serif" font-size="10.00">Loggee.hpp</text>
</a>
</g>
</g>
<!-- Node19&#45;&gt;Node21 -->
<g id="edge23_Node000019_Node000021" class="edge">
<title>Node19&#45;&gt;Node21</title>
<g id="a_edge23_Node000019_Node000021"><a xlink:title=" ">
<path fill="none" stroke="#63b8ff" d="M247.95,-212.37C254.78,-204.52 261.94,-194.53 265.5,-184 272.04,-164.68 260.78,-141.53 253.32,-129.21"/>
<polygon fill="#63b8ff" stroke="#63b8ff" points="245.37,-209.99 241.11,-219.69 250.49,-214.77 245.37,-209.99"/>
</a>
</g>
</g>
<!-- Node24 -->
<g id="Node000024" class="node">
<title>Node24</title>
<g id="a_Node000024"><a xlink:href="LoggerSingleton_8hpp.html" target="_top" xlink:title=" ">
<polygon fill="white" stroke="#666666" points="156.5,-184 40.5,-184 40.5,-165 156.5,-165 156.5,-184"/>
<text text-anchor="middle" x="98.5" y="-172" font-family="Helvetica,sans-Serif" font-size="10.00">LoggerSingleton.hpp</text>
</a>
</g>
</g>
<!-- Node19&#45;&gt;Node24 -->
<g id="edge24_Node000019_Node000024" class="edge">
<title>Node19&#45;&gt;Node24</title>
<g id="a_edge24_Node000019_Node000024"><a xlink:title=" ">
<path fill="none" stroke="#63b8ff" d="M200.53,-216.16C175.91,-206.35 142.09,-192.87 120.26,-184.17"/>
<polygon fill="#63b8ff" stroke="#63b8ff" points="199.55,-219.53 210.13,-219.98 202.14,-213.03 199.55,-219.53"/>
</a>
</g>
</g>
<!-- Node20&#45;&gt;Node21 -->
<g id="edge20_Node000020_Node000021" class="edge">
<title>Node20&#45;&gt;Node21</title>
<g id="a_edge20_Node000020_Node000021"><a xlink:title=" ">
<path fill="none" stroke="#63b8ff" d="M226,-156.1C231.47,-147.04 237.92,-136.37 242.31,-129.09"/>
<polygon fill="#63b8ff" stroke="#63b8ff" points="222.96,-154.38 220.78,-164.75 228.95,-158 222.96,-154.38"/>
</a>
</g>
</g>
<!-- Node22 -->
<g id="Node000022" class="node">
<title>Node22</title>
<g id="a_Node000022"><a xlink:href="testing_8hpp.html" target="_top" xlink:title=" ">
<polygon fill="white" stroke="#666666" points="166,-129 95,-129 95,-110 166,-110 166,-129"/>
<text text-anchor="middle" x="130.5" y="-117" font-family="Helvetica,sans-Serif" font-size="10.00">testing.hpp</text>
</a>
</g>
</g>
<!-- Node20&#45;&gt;Node22 -->
<g id="edge21_Node000020_Node000022" class="edge">
<title>Node20&#45;&gt;Node22</title>
<g id="a_edge21_Node000020_Node000022"><a xlink:title=" ">
<path fill="none" stroke="#63b8ff" d="M192.93,-159.42C177.5,-149.81 157.55,-137.37 144.41,-129.17"/>
<polygon fill="#63b8ff" stroke="#63b8ff" points="191.51,-162.66 201.84,-164.98 195.21,-156.72 191.51,-162.66"/>
</a>
</g>
</g>
<!-- Node23 -->
<g id="Node000023" class="node">
<title>Node23</title>
<g id="a_Node000023"><a xlink:href="essentials_8hpp.html" target="_top" xlink:title=" ">
<polygon fill="white" stroke="#666666" points="157,-74 70,-74 70,-55 157,-55 157,-74"/>
<text text-anchor="middle" x="113.5" y="-62" font-family="Helvetica,sans-Serif" font-size="10.00">essentials.hpp</text>
</a>
</g>
</g>
<!-- Node22&#45;&gt;Node23 -->
<g id="edge22_Node000022_Node000023" class="edge">
<title>Node22&#45;&gt;Node23</title>
<g id="a_edge22_Node000022_Node000023"><a xlink:title=" ">
<path fill="none" stroke="#63b8ff" d="M124.55,-99.95C121.73,-91.15 118.49,-81.06 116.25,-74.09"/>
<polygon fill="#63b8ff" stroke="#63b8ff" points="121.31,-101.29 127.69,-109.75 127.97,-99.16 121.31,-101.29"/>
</a>
</g>
</g>
<!-- Node24&#45;&gt;Node22 -->
<g id="edge25_Node000024_Node000022" class="edge">
<title>Node24&#45;&gt;Node22</title>
<g id="a_edge25_Node000024_Node000022"><a xlink:title=" ">
<path fill="none" stroke="#63b8ff" d="M109,-156.1C114.47,-147.04 120.92,-136.37 125.31,-129.09"/>
<polygon fill="#63b8ff" stroke="#63b8ff" points="105.96,-154.38 103.78,-164.75 111.95,-158 105.96,-154.38"/>
</a>
</g>
</g>
<!-- Node25 -->
<g id="Node000025" class="node">
<title>Node25</title>
<g id="a_Node000025"><a xlink:href="warning_8hpp.html" target="_top" xlink:title=" ">
<polygon fill="white" stroke="#666666" points="77,-129 0,-129 0,-110 77,-110 77,-129"/>
<text text-anchor="middle" x="38.5" y="-117" font-family="Helvetica,sans-Serif" font-size="10.00">warning.hpp</text>
</a>
</g>
</g>
<!-- Node24&#45;&gt;Node25 -->
<g id="edge26_Node000024_Node000025" class="edge">
<title>Node24&#45;&gt;Node25</title>
<g id="a_edge26_Node000024_Node000025"><a xlink:title=" ">
<path fill="none" stroke="#63b8ff" d="M81.32,-158.32C70.62,-148.87 57.24,-137.06 48.32,-129.17"/>
<polygon fill="#63b8ff" stroke="#63b8ff" points="79.05,-160.99 88.86,-164.98 83.68,-155.74 79.05,-160.99"/>
</a>
</g>
</g>
<!-- Node29 -->
<g id="Node000029" class="node">
<title>Node29</title>
<g id="a_Node000029"><a xlink:href="DynamicArray_8hpp.html" target="_top" xlink:title=" ">
<polygon fill="white" stroke="#666666" points="1105.5,-239 999.5,-239 999.5,-220 1105.5,-220 1105.5,-239"/>
<text text-anchor="middle" x="1052.5" y="-227" font-family="Helvetica,sans-Serif" font-size="10.00">DynamicArray.hpp</text>
</a>
</g>
</g>
<!-- Node28&#45;&gt;Node29 -->
<g id="edge30_Node000028_Node000029" class="edge">
<title>Node28&#45;&gt;Node29</title>
<g id="a_edge30_Node000028_Node000029"><a xlink:title=" ">
<path fill="none" stroke="#63b8ff" d="M1093.59,-268.04C1083.3,-258.64 1070.53,-246.98 1061.99,-239.17"/>
<polygon fill="#63b8ff" stroke="#63b8ff" points="1091.44,-270.82 1101.18,-274.98 1096.16,-265.66 1091.44,-270.82"/>
</a>
</g>
</g>
<!-- Node38 -->
<g id="Node000038" class="node">
<title>Node38</title>
<g id="a_Node000038"><a xlink:href="StaticArray_8hpp.html" target="_top" xlink:title=" ">
<polygon fill="white" stroke="#666666" points="1376.5,-239 1286.5,-239 1286.5,-220 1376.5,-220 1376.5,-239"/>
<text text-anchor="middle" x="1331.5" y="-227" font-family="Helvetica,sans-Serif" font-size="10.00">StaticArray.hpp</text>
</a>
</g>
</g>
<!-- Node28&#45;&gt;Node38 -->
<g id="edge45_Node000028_Node000038" class="edge">
<title>Node28&#45;&gt;Node38</title>
<g id="a_edge45_Node000028_Node000038"><a xlink:title=" ">
<path fill="none" stroke="#63b8ff" d="M1155.84,-272.63C1197.24,-262.7 1257.62,-248.22 1295.71,-239.08"/>
<polygon fill="#63b8ff" stroke="#63b8ff" points="1154.92,-269.25 1146.01,-274.98 1156.55,-276.06 1154.92,-269.25"/>
</a>
</g>
</g>
<!-- Node29&#45;&gt;Node2 -->
<g id="edge32_Node000029_Node000002" class="edge">
<title>Node29&#45;&gt;Node2</title>
<g id="a_edge32_Node000029_Node000002"><a xlink:title=" ">
<path fill="none" stroke="#63b8ff" d="M988.96,-221.73C936.67,-214.92 867.97,-202.73 847.5,-184 814.9,-154.18 810.79,-96.13 810.44,-74.18"/>
<polygon fill="#63b8ff" stroke="#63b8ff" points="988.81,-225.24 999.17,-223.02 989.69,-218.3 988.81,-225.24"/>
</a>
</g>
</g>
<!-- Node29&#45;&gt;Node9 -->
<g id="edge31_Node000029_Node000009" class="edge">
<title>Node29&#45;&gt;Node9</title>
<g id="a_edge31_Node000029_Node000009"><a xlink:title=" ">
<path fill="none" stroke="#63b8ff" d="M989.38,-222.18C879.24,-211.14 654.99,-188.67 563.61,-179.52"/>
<polygon fill="#63b8ff" stroke="#63b8ff" points="989.06,-225.66 999.36,-223.18 989.75,-218.7 989.06,-225.66"/>
</a>
</g>
</g>
<!-- Node29&#45;&gt;Node27 -->
<g id="edge33_Node000029_Node000027" class="edge">
<title>Node29&#45;&gt;Node27</title>
<g id="a_edge33_Node000029_Node000027"><a xlink:title=" ">
<path fill="none" stroke="#63b8ff" d="M1056.02,-209.72C1058.96,-196.66 1063.92,-179.11 1071.5,-165 1091.83,-127.15 1128.03,-90.39 1145.1,-74.17"/>
<polygon fill="#63b8ff" stroke="#63b8ff" points="1052.52,-209.36 1053.94,-219.86 1059.38,-210.77 1052.52,-209.36"/>
</a>
</g>
</g>
<!-- Node30 -->
<g id="Node000030" class="node">
<title>Node30</title>
<g id="a_Node000030"><a xlink:href="ThreadLocal_8hpp.html" target="_top" xlink:title=" ">
<polygon fill="white" stroke="#666666" points="1178,-184 1081,-184 1081,-165 1178,-165 1178,-184"/>
<text text-anchor="middle" x="1129.5" y="-172" font-family="Helvetica,sans-Serif" font-size="10.00">ThreadLocal.hpp</text>
</a>
</g>
</g>
<!-- Node29&#45;&gt;Node30 -->
<g id="edge34_Node000029_Node000030" class="edge">
<title>Node29&#45;&gt;Node30</title>
<g id="a_edge34_Node000029_Node000030"><a xlink:title=" ">
<path fill="none" stroke="#63b8ff" d="M1073.35,-214.15C1087.26,-204.57 1105.11,-192.29 1116.9,-184.17"/>
<polygon fill="#63b8ff" stroke="#63b8ff" points="1071.12,-211.43 1064.87,-219.98 1075.09,-217.2 1071.12,-211.43"/>
</a>
</g>
</g>
<!-- Node31 -->
<g id="Node000031" class="node">
<title>Node31</title>
<g id="a_Node000031"><a xlink:href="ThreadPoolStorage_8hpp.html" target="_top" xlink:title=" ">
<polygon fill="white" stroke="#666666" points="986.5,-184 856.5,-184 856.5,-165 986.5,-165 986.5,-184"/>
<text text-anchor="middle" x="921.5" y="-172" font-family="Helvetica,sans-Serif" font-size="10.00">ThreadPoolStorage.hpp</text>
</a>
</g>
</g>
<!-- Node29&#45;&gt;Node31 -->
<g id="edge35_Node000029_Node000031" class="edge">
<title>Node29&#45;&gt;Node31</title>
<g id="a_edge35_Node000029_Node000031"><a xlink:title=" ">
<path fill="none" stroke="#63b8ff" d="M1022,-216.16C997.75,-206.35 964.43,-192.87 942.93,-184.17"/>
<polygon fill="#63b8ff" stroke="#63b8ff" points="1020.87,-219.48 1031.45,-219.98 1023.5,-212.99 1020.87,-219.48"/>
</a>
</g>
</g>
<!-- Node35 -->
<g id="Node000035" class="node">
<title>Node35</title>
<g id="a_Node000035"><a xlink:href="abstree_8hpp.html" target="_top" xlink:title=" ">
<polygon fill="white" stroke="#666666" points="1092.5,-74 1018.5,-74 1018.5,-55 1092.5,-55 1092.5,-74"/>
<text text-anchor="middle" x="1055.5" y="-62" font-family="Helvetica,sans-Serif" font-size="10.00">abstree.hpp</text>
</a>
</g>
</g>
<!-- Node29&#45;&gt;Node35 -->
<g id="edge43_Node000029_Node000035" class="edge">
<title>Node29&#45;&gt;Node35</title>
<g id="a_edge43_Node000029_Node000035"><a xlink:title=" ">
<path fill="none" stroke="#63b8ff" d="M1045.35,-210.18C1042.63,-202.26 1039.85,-192.81 1038.5,-184 1033.51,-151.49 1032.53,-142.34 1038.5,-110 1040.9,-96.99 1046.94,-82.86 1051.13,-74.09"/>
<polygon fill="#63b8ff" stroke="#63b8ff" points="1042.16,-211.65 1048.9,-219.82 1048.73,-209.23 1042.16,-211.65"/>
</a>
</g>
</g>
<!-- Node29&#45;&gt;Node36 -->
<g id="edge42_Node000029_Node000036" class="edge">
<title>Node29&#45;&gt;Node36</title>
<g id="a_edge42_Node000029_Node000036"><a xlink:title=" ">
<path fill="none" stroke="#63b8ff" d="M1095.5,-217.44C1134.06,-207.52 1189.86,-193.16 1225.14,-184.08"/>
<polygon fill="#63b8ff" stroke="#63b8ff" points="1094.41,-214.1 1085.6,-219.98 1096.15,-220.88 1094.41,-214.1"/>
</a>
</g>
</g>
<!-- Node37 -->
<g id="Node000037" class="node">
<title>Node37</title>
<g id="a_Node000037"><a xlink:href="stl__extension_8hpp.html" target="_top" xlink:title=" ">
<polygon fill="white" stroke="#666666" points="1442,-184 1339,-184 1339,-165 1442,-165 1442,-184"/>
<text text-anchor="middle" x="1390.5" y="-172" font-family="Helvetica,sans-Serif" font-size="10.00">stl_extension.hpp</text>
</a>
</g>
</g>
<!-- Node29&#45;&gt;Node37 -->
<g id="edge44_Node000029_Node000037" class="edge">
<title>Node29&#45;&gt;Node37</title>
<g id="a_edge44_Node000029_Node000037"><a xlink:title=" ">
<path fill="none" stroke="#63b8ff" d="M1115.72,-218.59C1180.12,-208.49 1278.81,-193.01 1338.73,-183.62"/>
<polygon fill="#63b8ff" stroke="#63b8ff" points="1115.02,-215.15 1105.68,-220.16 1116.11,-222.07 1115.02,-215.15"/>
</a>
</g>
</g>
<!-- Node32 -->
<g id="Node000032" class="node">
<title>Node32</title>
<g id="a_Node000032"><a xlink:href="ThreadPool_8hpp.html" target="_top" xlink:title=" ">
<polygon fill="white" stroke="#666666" points="986.5,-129 894.5,-129 894.5,-110 986.5,-110 986.5,-129"/>
<text text-anchor="middle" x="940.5" y="-117" font-family="Helvetica,sans-Serif" font-size="10.00">ThreadPool.hpp</text>
</a>
</g>
</g>
<!-- Node31&#45;&gt;Node32 -->
<g id="edge36_Node000031_Node000032" class="edge">
<title>Node31&#45;&gt;Node32</title>
<g id="a_edge36_Node000031_Node000032"><a xlink:title=" ">
<path fill="none" stroke="#63b8ff" d="M928.05,-155.24C931.22,-146.37 934.89,-136.14 937.42,-129.09"/>
<polygon fill="#63b8ff" stroke="#63b8ff" points="924.72,-154.15 924.64,-164.75 931.31,-156.52 924.72,-154.15"/>
</a>
</g>
</g>
<!-- Node32&#45;&gt;Node2 -->
<g id="edge37_Node000032_Node000002" class="edge">
<title>Node32&#45;&gt;Node2</title>
<g id="a_edge37_Node000032_Node000002"><a xlink:title=" ">
<path fill="none" stroke="#63b8ff" d="M910.23,-106.16C886.16,-96.35 853.1,-82.87 831.77,-74.17"/>
<polygon fill="#63b8ff" stroke="#63b8ff" points="909.03,-109.45 919.61,-109.98 911.67,-102.97 909.03,-109.45"/>
</a>
</g>
</g>
<!-- Node32&#45;&gt;Node27 -->
<g id="edge38_Node000032_Node000027" class="edge">
<title>Node32&#45;&gt;Node27</title>
<g id="a_edge38_Node000032_Node000027"><a xlink:title=" ">
<path fill="none" stroke="#63b8ff" d="M984.66,-107.56C1024.74,-97.64 1083.04,-83.2 1119.85,-74.08"/>
<polygon fill="#63b8ff" stroke="#63b8ff" points="983.75,-104.18 974.88,-109.98 985.43,-110.98 983.75,-104.18"/>
</a>
</g>
</g>
<!-- Node33 -->
<g id="Node000033" class="node">
<title>Node33</title>
<g id="a_Node000033"><a xlink:href="ResourceLoader_8hpp.html" target="_top" xlink:title=" ">
<polygon fill="white" stroke="#666666" points="1000,-74 885,-74 885,-55 1000,-55 1000,-74"/>
<text text-anchor="middle" x="942.5" y="-62" font-family="Helvetica,sans-Serif" font-size="10.00">ResourceLoader.hpp</text>
</a>
</g>
</g>
<!-- Node32&#45;&gt;Node33 -->
<g id="edge39_Node000032_Node000033" class="edge">
<title>Node32&#45;&gt;Node33</title>
<g id="a_edge39_Node000032_Node000033"><a xlink:title=" ">
<path fill="none" stroke="#63b8ff" d="M941.21,-99.66C941.54,-90.93 941.92,-80.99 942.18,-74.09"/>
<polygon fill="#63b8ff" stroke="#63b8ff" points="937.71,-99.62 940.83,-109.75 944.7,-99.89 937.71,-99.62"/>
</a>
</g>
</g>
<!-- Node32&#45;&gt;Node35 -->
<g id="edge41_Node000032_Node000035" class="edge">
<title>Node32&#45;&gt;Node35</title>
<g id="a_edge41_Node000032_Node000035"><a xlink:title=" ">
<path fill="none" stroke="#63b8ff" d="M968.13,-105.77C989.34,-95.99 1018.06,-82.75 1036.69,-74.17"/>
<polygon fill="#63b8ff" stroke="#63b8ff" points="966.59,-102.62 958.98,-109.98 969.52,-108.98 966.59,-102.62"/>
</a>
</g>
</g>
<!-- Node34 -->
<g id="Node000034" class="node">
<title>Node34</title>
<g id="a_Node000034"><a xlink:href="ResourceQueue_8hpp.html" target="_top" xlink:title=" ">
<polygon fill="white" stroke="#666666" points="999.5,-19 885.5,-19 885.5,0 999.5,0 999.5,-19"/>
<text text-anchor="middle" x="942.5" y="-7" font-family="Helvetica,sans-Serif" font-size="10.00">ResourceQueue.hpp</text>
</a>
</g>
</g>
<!-- Node33&#45;&gt;Node34 -->
<g id="edge40_Node000033_Node000034" class="edge">
<title>Node33&#45;&gt;Node34</title>
<g id="a_edge40_Node000033_Node000034"><a xlink:title=" ">
<path fill="none" stroke="#63b8ff" d="M942.5,-44.66C942.5,-35.93 942.5,-25.99 942.5,-19.09"/>
<polygon fill="#63b8ff" stroke="#63b8ff" points="939,-44.75 942.5,-54.75 946,-44.75 939,-44.75"/>
</a>
</g>
</g>
<!-- Node38&#45;&gt;Node37 -->
<g id="edge48_Node000038_Node000037" class="edge">
<title>Node38&#45;&gt;Node37</title>
<g id="a_edge48_Node000038_Node000037"><a xlink:title=" ">
<path fill="none" stroke="#63b8ff" d="M1348.7,-213.04C1359.17,-203.64 1372.15,-191.98 1380.85,-184.17"/>
<polygon fill="#63b8ff" stroke="#63b8ff" points="1346.08,-210.7 1340.98,-219.98 1350.76,-215.91 1346.08,-210.7"/>
</a>
</g>
</g>
<!-- Node39 -->
<g id="Node000039" class="node">
<title>Node39</title>
<g id="a_Node000039"><a xlink:href="base_8hpp.html" target="_top" xlink:title=" ">
<polygon fill="white" stroke="#666666" points="1521,-184 1460,-184 1460,-165 1521,-165 1521,-184"/>
<text text-anchor="middle" x="1490.5" y="-172" font-family="Helvetica,sans-Serif" font-size="10.00">base.hpp</text>
</a>
</g>
</g>
<!-- Node38&#45;&gt;Node39 -->
<g id="edge46_Node000038_Node000039" class="edge">
<title>Node38&#45;&gt;Node39</title>
<g id="a_edge46_Node000038_Node000039"><a xlink:title=" ">
<path fill="none" stroke="#63b8ff" d="M1366.6,-216.8C1396.28,-206.91 1438.1,-192.97 1464.75,-184.08"/>
<polygon fill="#63b8ff" stroke="#63b8ff" points="1365.43,-213.5 1357.05,-219.98 1367.64,-220.14 1365.43,-213.5"/>
</a>
</g>
</g>
<!-- Node38&#45;&gt;Node40 -->
<g id="edge47_Node000038_Node000040" class="edge">
<title>Node38&#45;&gt;Node40</title>
<g id="a_edge47_Node000038_Node000040"><a xlink:title=" ">
<path fill="none" stroke="#63b8ff" d="M1379.42,-217.78C1427.38,-207.06 1499.61,-190.91 1539.48,-181.99"/>
<polygon fill="#63b8ff" stroke="#63b8ff" points="1378.57,-214.39 1369.58,-219.98 1380.1,-221.22 1378.57,-214.39"/>
</a>
</g>
</g>
<!-- Node41&#45;&gt;Node28 -->
<g id="edge53_Node000041_Node000028" class="edge">
<title>Node41&#45;&gt;Node28</title>
<g id="a_edge53_Node000041_Node000028"><a xlink:title=" ">
<path fill="none" stroke="#63b8ff" d="M1174.1,-324.7C1158.43,-315.04 1137.99,-302.44 1124.57,-294.17"/>
<polygon fill="#63b8ff" stroke="#63b8ff" points="1172.33,-327.72 1182.68,-329.98 1176.01,-321.76 1172.33,-327.72"/>
</a>
</g>
</g>
</g>
</svg>
