<?xml version="1.0" encoding="UTF-8" standalone="no"?>
<!DOCTYPE svg PUBLIC "-//W3C//DTD SVG 1.1//EN"
 "http://www.w3.org/Graphics/SVG/1.1/DTD/svg11.dtd">
<!-- Generated by graphviz version 2.43.0 (0)
 -->
<!-- Title: iterator_concepts.hpp Pages: 1 -->
<svg width="832pt" height="302pt"
 viewBox="0.00 0.00 832.00 302.00" xmlns="http://www.w3.org/2000/svg" xmlns:xlink="http://www.w3.org/1999/xlink">
<g id="graph0" class="graph" transform="scale(1 1) rotate(0) translate(4 298)">
<title>iterator_concepts.hpp</title>
<!-- Node1 -->
<g id="Node000001" class="node">
<title>Node1</title>
<g id="a_Node000001"><a xlink:title=" ">
<polygon fill="#999999" stroke="#666666" points="671,-294 549,-294 549,-275 671,-275 671,-294"/>
<text text-anchor="middle" x="610" y="-282" font-family="Helvetica,sans-Serif" font-size="10.00">iterator_concepts.hpp</text>
</a>
</g>
</g>
<!-- Node2 -->
<g id="Node000002" class="node">
<title>Node2</title>
<g id="a_Node000002"><a xlink:href="basic__concepts_8hpp.html" target="_top" xlink:title=" ">
<polygon fill="white" stroke="#666666" points="676,-239 544,-239 544,-198 676,-198 676,-239"/>
<text text-anchor="start" x="552" y="-227" font-family="Helvetica,sans-Serif" font-size="10.00">packages/compile_time</text>
<text text-anchor="start" x="552" y="-216" font-family="Helvetica,sans-Serif" font-size="10.00">/packages/concepts/inc</text>
<text text-anchor="middle" x="610" y="-205" font-family="Helvetica,sans-Serif" font-size="10.00">/basic_concepts.hpp</text>
</a>
</g>
</g>
<!-- Node1&#45;&gt;Node2 -->
<g id="edge1_Node000001_Node000002" class="edge">
<title>Node1&#45;&gt;Node2</title>
<g id="a_edge1_Node000001_Node000002"><a xlink:title=" ">
<path fill="none" stroke="#63b8ff" d="M610,-274.87C610,-268.22 610,-258.63 610,-249.28"/>
<polygon fill="#63b8ff" stroke="#63b8ff" points="613.5,-249.01 610,-239.01 606.5,-249.01 613.5,-249.01"/>
</a>
</g>
</g>
<!-- Node16 -->
<g id="Node000016" class="node">
<title>Node16</title>
<g id="a_Node000016"><a xlink:href="Size_8hpp.html" target="_top" xlink:title=" ">
<polygon fill="white" stroke="#666666" points="526,-239 378,-239 378,-198 526,-198 526,-239"/>
<text text-anchor="start" x="386" y="-227" font-family="Helvetica,sans-Serif" font-size="10.00">packages/compile_time</text>
<text text-anchor="start" x="386" y="-216" font-family="Helvetica,sans-Serif" font-size="10.00">/packages/parameter_pack</text>
<text text-anchor="middle" x="452" y="-205" font-family="Helvetica,sans-Serif" font-size="10.00">/inc/Size.hpp</text>
</a>
</g>
</g>
<!-- Node1&#45;&gt;Node16 -->
<g id="edge16_Node000001_Node000016" class="edge">
<title>Node1&#45;&gt;Node16</title>
<g id="a_edge16_Node000001_Node000016"><a xlink:title=" ">
<path fill="none" stroke="#63b8ff" d="M588.69,-274.87C568.5,-266.69 537.25,-254.03 509.72,-242.88"/>
<polygon fill="#63b8ff" stroke="#63b8ff" points="510.75,-239.52 500.16,-239.01 508.12,-246.01 510.75,-239.52"/>
</a>
</g>
</g>
<!-- Node17 -->
<g id="Node000017" class="node">
<title>Node17</title>
<g id="a_Node000017"><a xlink:href="Select_8hpp.html" target="_top" xlink:title=" ">
<polygon fill="white" stroke="#666666" points="360,-239 212,-239 212,-198 360,-198 360,-239"/>
<text text-anchor="start" x="220" y="-227" font-family="Helvetica,sans-Serif" font-size="10.00">packages/compile_time</text>
<text text-anchor="start" x="220" y="-216" font-family="Helvetica,sans-Serif" font-size="10.00">/packages/parameter_pack</text>
<text text-anchor="middle" x="286" y="-205" font-family="Helvetica,sans-Serif" font-size="10.00">/inc/Select.hpp</text>
</a>
</g>
</g>
<!-- Node1&#45;&gt;Node17 -->
<g id="edge18_Node000001_Node000017" class="edge">
<title>Node1&#45;&gt;Node17</title>
<g id="a_edge18_Node000001_Node000017"><a xlink:title=" ">
<path fill="none" stroke="#63b8ff" d="M560.01,-274.99C513.37,-266.89 441.6,-254.02 370.24,-239.21"/>
<polygon fill="#63b8ff" stroke="#63b8ff" points="370.68,-235.73 360.17,-237.11 369.25,-242.58 370.68,-235.73"/>
</a>
</g>
</g>
<!-- Node19 -->
<g id="Node000019" class="node">
<title>Node19</title>
<g id="a_Node000019"><a xlink:title=" ">
<polygon fill="#e0e0e0" stroke="#999999" points="747.5,-228 694.5,-228 694.5,-209 747.5,-209 747.5,-228"/>
<text text-anchor="middle" x="721" y="-216" font-family="Helvetica,sans-Serif" font-size="10.00">iterator</text>
</a>
</g>
</g>
<!-- Node1&#45;&gt;Node19 -->
<g id="edge22_Node000001_Node000019" class="edge">
<title>Node1&#45;&gt;Node19</title>
<g id="a_edge22_Node000001_Node000019"><a xlink:title=" ">
<path fill="none" stroke="#63b8ff" d="M624.97,-274.87C643.51,-264.18 675.31,-245.85 697.2,-233.22"/>
<polygon fill="#63b8ff" stroke="#63b8ff" points="699,-236.23 705.91,-228.2 695.5,-230.16 699,-236.23"/>
</a>
</g>
</g>
<!-- Node20 -->
<g id="Node000020" class="node">
<title>Node20</title>
<g id="a_Node000020"><a xlink:title=" ">
<polygon fill="#e0e0e0" stroke="#999999" points="824,-228 766,-228 766,-209 824,-209 824,-228"/>
<text text-anchor="middle" x="795" y="-216" font-family="Helvetica,sans-Serif" font-size="10.00">memory</text>
</a>
</g>
</g>
<!-- Node1&#45;&gt;Node20 -->
<g id="edge23_Node000001_Node000020" class="edge">
<title>Node1&#45;&gt;Node20</title>
<g id="a_edge23_Node000001_Node000020"><a xlink:title=" ">
<path fill="none" stroke="#63b8ff" d="M644.46,-274.95C674.64,-267.03 719.42,-254.19 757,-239 761.57,-237.15 766.33,-234.95 770.88,-232.7"/>
<polygon fill="#63b8ff" stroke="#63b8ff" points="772.48,-235.81 779.77,-228.12 769.27,-229.59 772.48,-235.81"/>
</a>
</g>
</g>
<!-- Node3 -->
<g id="Node000003" class="node">
<title>Node3</title>
<g id="a_Node000003"><a xlink:href="types_8hpp.html" target="_top" xlink:title=" ">
<polygon fill="white" stroke="#666666" points="507,-162 397,-162 397,-132 507,-132 507,-162"/>
<text text-anchor="start" x="405" y="-150" font-family="Helvetica,sans-Serif" font-size="10.00">packages/types/inc</text>
<text text-anchor="middle" x="452" y="-139" font-family="Helvetica,sans-Serif" font-size="10.00">/types.hpp</text>
</a>
</g>
</g>
<!-- Node2&#45;&gt;Node3 -->
<g id="edge2_Node000002_Node000003" class="edge">
<title>Node2&#45;&gt;Node3</title>
<g id="a_edge2_Node000002_Node000003"><a xlink:title=" ">
<path fill="none" stroke="#63b8ff" d="M565.57,-197.96C542.89,-187.98 515.47,-175.92 493.26,-166.15"/>
<polygon fill="#63b8ff" stroke="#63b8ff" points="494.65,-162.94 484.08,-162.11 491.83,-169.34 494.65,-162.94"/>
</a>
</g>
</g>
<!-- Node9 -->
<g id="Node000009" class="node">
<title>Node9</title>
<g id="a_Node000009"><a xlink:title=" ">
<polygon fill="#e0e0e0" stroke="#999999" points="680.5,-90.5 611.5,-90.5 611.5,-71.5 680.5,-71.5 680.5,-90.5"/>
<text text-anchor="middle" x="646" y="-78.5" font-family="Helvetica,sans-Serif" font-size="10.00">type_traits</text>
</a>
</g>
</g>
<!-- Node2&#45;&gt;Node9 -->
<g id="edge13_Node000002_Node000009" class="edge">
<title>Node2&#45;&gt;Node9</title>
<g id="a_edge13_Node000002_Node000009"><a xlink:title=" ">
<path fill="none" stroke="#63b8ff" d="M603.34,-197.83C598.44,-180.06 593.89,-153.48 602,-132 607.1,-118.48 617.71,-106.24 627.24,-97.26"/>
<polygon fill="#63b8ff" stroke="#63b8ff" points="629.67,-99.77 634.83,-90.52 625.03,-94.53 629.67,-99.77"/>
</a>
</g>
</g>
<!-- Node13 -->
<g id="Node000013" class="node">
<title>Node13</title>
<g id="a_Node000013"><a xlink:title=" ">
<polygon fill="#e0e0e0" stroke="#999999" points="379,-156.5 319,-156.5 319,-137.5 379,-137.5 379,-156.5"/>
<text text-anchor="middle" x="349" y="-144.5" font-family="Helvetica,sans-Serif" font-size="10.00">concepts</text>
</a>
</g>
</g>
<!-- Node2&#45;&gt;Node13 -->
<g id="edge12_Node000002_Node000013" class="edge">
<title>Node2&#45;&gt;Node13</title>
<g id="a_edge12_Node000002_Node000013"><a xlink:title=" ">
<path fill="none" stroke="#63b8ff" d="M543.76,-200.22C540.8,-199.47 537.87,-198.72 535,-198 469.78,-181.54 452.41,-181.39 388,-162 385.73,-161.32 383.4,-160.58 381.07,-159.81"/>
<polygon fill="#63b8ff" stroke="#63b8ff" points="382.15,-156.48 371.55,-156.55 379.88,-163.1 382.15,-156.48"/>
</a>
</g>
</g>
<!-- Node14 -->
<g id="Node000014" class="node">
<title>Node14</title>
<g id="a_Node000014"><a xlink:title=" ">
<polygon fill="#e0e0e0" stroke="#999999" points="661,-156.5 611,-156.5 611,-137.5 661,-137.5 661,-156.5"/>
<text text-anchor="middle" x="636" y="-144.5" font-family="Helvetica,sans-Serif" font-size="10.00">cstdint</text>
</a>
</g>
</g>
<!-- Node2&#45;&gt;Node14 -->
<g id="edge14_Node000002_Node000014" class="edge">
<title>Node2&#45;&gt;Node14</title>
<g id="a_edge14_Node000002_Node000014"><a xlink:title=" ">
<path fill="none" stroke="#63b8ff" d="M617.38,-197.77C621.09,-187.87 625.54,-175.95 629.17,-166.26"/>
<polygon fill="#63b8ff" stroke="#63b8ff" points="632.47,-167.41 632.7,-156.82 625.92,-164.96 632.47,-167.41"/>
</a>
</g>
</g>
<!-- Node15 -->
<g id="Node000015" class="node">
<title>Node15</title>
<g id="a_Node000015"><a xlink:title=" ">
<polygon fill="#e0e0e0" stroke="#999999" points="724.5,-156.5 679.5,-156.5 679.5,-137.5 724.5,-137.5 724.5,-156.5"/>
<text text-anchor="middle" x="702" y="-144.5" font-family="Helvetica,sans-Serif" font-size="10.00">utility</text>
</a>
</g>
</g>
<!-- Node2&#45;&gt;Node15 -->
<g id="edge15_Node000002_Node000015" class="edge">
<title>Node2&#45;&gt;Node15</title>
<g id="a_edge15_Node000002_Node000015"><a xlink:title=" ">
<path fill="none" stroke="#63b8ff" d="M636.12,-197.77C650.76,-186.71 668.73,-173.13 682.2,-162.96"/>
<polygon fill="#63b8ff" stroke="#63b8ff" points="684.46,-165.64 690.32,-156.82 680.24,-160.05 684.46,-165.64"/>
</a>
</g>
</g>
<!-- Node4 -->
<g id="Node000004" class="node">
<title>Node4</title>
<g id="a_Node000004"><a xlink:href="debug_8hpp.html" target="_top" xlink:title=" ">
<polygon fill="white" stroke="#666666" points="459.5,-96 340.5,-96 340.5,-66 459.5,-66 459.5,-96"/>
<text text-anchor="start" x="348.5" y="-84" font-family="Helvetica,sans-Serif" font-size="10.00">packages/macros/inc</text>
<text text-anchor="middle" x="400" y="-73" font-family="Helvetica,sans-Serif" font-size="10.00">/debug.hpp</text>
</a>
</g>
</g>
<!-- Node3&#45;&gt;Node4 -->
<g id="edge3_Node000003_Node000004" class="edge">
<title>Node3&#45;&gt;Node4</title>
<g id="a_edge3_Node000003_Node000004"><a xlink:title=" ">
<path fill="none" stroke="#63b8ff" d="M440.46,-131.8C433.86,-123.68 425.44,-113.31 418,-104.15"/>
<polygon fill="#63b8ff" stroke="#63b8ff" points="420.53,-101.72 411.51,-96.16 415.1,-106.13 420.53,-101.72"/>
</a>
</g>
</g>
<!-- Node7 -->
<g id="Node000007" class="node">
<title>Node7</title>
<g id="a_Node000007"><a xlink:title=" ">
<polygon fill="#e0e0e0" stroke="#999999" points="530.5,-90.5 477.5,-90.5 477.5,-71.5 530.5,-71.5 530.5,-90.5"/>
<text text-anchor="middle" x="504" y="-78.5" font-family="Helvetica,sans-Serif" font-size="10.00">cstddef</text>
</a>
</g>
</g>
<!-- Node3&#45;&gt;Node7 -->
<g id="edge6_Node000003_Node000007" class="edge">
<title>Node3&#45;&gt;Node7</title>
<g id="a_edge6_Node000003_Node000007"><a xlink:title=" ">
<path fill="none" stroke="#63b8ff" d="M463.54,-131.8C471.49,-122.01 482.08,-108.98 490.43,-98.7"/>
<polygon fill="#63b8ff" stroke="#63b8ff" points="493.22,-100.81 496.81,-90.84 487.79,-96.4 493.22,-100.81"/>
</a>
</g>
</g>
<!-- Node8 -->
<g id="Node000008" class="node">
<title>Node8</title>
<g id="a_Node000008"><a xlink:title=" ">
<polygon fill="#e0e0e0" stroke="#999999" points="593,-90.5 549,-90.5 549,-71.5 593,-71.5 593,-90.5"/>
<text text-anchor="middle" x="571" y="-78.5" font-family="Helvetica,sans-Serif" font-size="10.00">string</text>
</a>
</g>
</g>
<!-- Node3&#45;&gt;Node8 -->
<g id="edge7_Node000003_Node000008" class="edge">
<title>Node3&#45;&gt;Node8</title>
<g id="a_edge7_Node000003_Node000008"><a xlink:title=" ">
<path fill="none" stroke="#63b8ff" d="M478.12,-131.95C498.34,-121.08 526.18,-106.11 546.09,-95.4"/>
<polygon fill="#63b8ff" stroke="#63b8ff" points="548.01,-98.34 555.16,-90.52 544.7,-92.17 548.01,-98.34"/>
</a>
</g>
</g>
<!-- Node3&#45;&gt;Node9 -->
<g id="edge8_Node000003_Node000009" class="edge">
<title>Node3&#45;&gt;Node9</title>
<g id="a_edge8_Node000003_Node000009"><a xlink:title=" ">
<path fill="none" stroke="#63b8ff" d="M494.57,-131.95C529.35,-120.48 577.91,-104.46 610.59,-93.68"/>
<polygon fill="#63b8ff" stroke="#63b8ff" points="611.78,-96.97 620.18,-90.52 609.59,-90.33 611.78,-96.97"/>
</a>
</g>
</g>
<!-- Node10 -->
<g id="Node000010" class="node">
<title>Node10</title>
<g id="a_Node000010"><a xlink:title=" ">
<polygon fill="#e0e0e0" stroke="#999999" points="50,-90.5 0,-90.5 0,-71.5 50,-71.5 50,-90.5"/>
<text text-anchor="middle" x="25" y="-78.5" font-family="Helvetica,sans-Serif" font-size="10.00">climits</text>
</a>
</g>
</g>
<!-- Node3&#45;&gt;Node10 -->
<g id="edge9_Node000003_Node000010" class="edge">
<title>Node3&#45;&gt;Node10</title>
<g id="a_edge9_Node000003_Node000010"><a xlink:title=" ">
<path fill="none" stroke="#63b8ff" d="M396.91,-133.56C393.9,-133 390.92,-132.48 388,-132 242.84,-108.25 201.53,-132.36 59,-96 56.84,-95.45 54.63,-94.79 52.44,-94.06"/>
<polygon fill="#63b8ff" stroke="#63b8ff" points="53.62,-90.76 43.03,-90.53 51.16,-97.32 53.62,-90.76"/>
</a>
</g>
</g>
<!-- Node11 -->
<g id="Node000011" class="node">
<title>Node11</title>
<g id="a_Node000011"><a xlink:title=" ">
<polygon fill="#e0e0e0" stroke="#999999" points="185.5,-96 68.5,-96 68.5,-66 185.5,-66 185.5,-96"/>
<text text-anchor="start" x="76.5" y="-84" font-family="Helvetica,sans-Serif" font-size="10.00">packages/types/impl</text>
<text text-anchor="middle" x="127" y="-73" font-family="Helvetica,sans-Serif" font-size="10.00">/types_impl.hpp</text>
</a>
</g>
</g>
<!-- Node3&#45;&gt;Node11 -->
<g id="edge10_Node000003_Node000011" class="edge">
<title>Node3&#45;&gt;Node11</title>
<g id="a_edge10_Node000003_Node000011"><a xlink:title=" ">
<path fill="none" stroke="#63b8ff" d="M396.87,-133.82C393.87,-133.2 390.9,-132.59 388,-132 305.15,-115.26 281.71,-113.11 195.75,-96.32"/>
<polygon fill="#63b8ff" stroke="#63b8ff" points="196.3,-92.86 185.81,-94.37 194.95,-99.73 196.3,-92.86"/>
</a>
</g>
</g>
<!-- Node12 -->
<g id="Node000012" class="node">
<title>Node12</title>
<g id="a_Node000012"><a xlink:href="logging_8hpp.html" target="_top" xlink:title=" ">
<polygon fill="white" stroke="#666666" points="322.5,-96 203.5,-96 203.5,-66 322.5,-66 322.5,-96"/>
<text text-anchor="start" x="211.5" y="-84" font-family="Helvetica,sans-Serif" font-size="10.00">packages/macros/inc</text>
<text text-anchor="middle" x="263" y="-73" font-family="Helvetica,sans-Serif" font-size="10.00">/logging.hpp</text>
</a>
</g>
</g>
<!-- Node3&#45;&gt;Node12 -->
<g id="edge11_Node000003_Node000012" class="edge">
<title>Node3&#45;&gt;Node12</title>
<g id="a_edge11_Node000003_Node000012"><a xlink:title=" ">
<path fill="none" stroke="#63b8ff" d="M410.52,-131.95C382.09,-122.33 344.18,-109.49 313.92,-99.24"/>
<polygon fill="#63b8ff" stroke="#63b8ff" points="314.97,-95.9 304.38,-96.01 312.73,-102.53 314.97,-95.9"/>
</a>
</g>
</g>
<!-- Node5 -->
<g id="Node000005" class="node">
<title>Node5</title>
<g id="a_Node000005"><a xlink:href="detail_8hpp.html" target="_top" xlink:title=" ">
<polygon fill="white" stroke="#666666" points="405.5,-30 286.5,-30 286.5,0 405.5,0 405.5,-30"/>
<text text-anchor="start" x="294.5" y="-18" font-family="Helvetica,sans-Serif" font-size="10.00">packages/macros/inc</text>
<text text-anchor="middle" x="346" y="-7" font-family="Helvetica,sans-Serif" font-size="10.00">/detail.hpp</text>
</a>
</g>
</g>
<!-- Node4&#45;&gt;Node5 -->
<g id="edge4_Node000004_Node000005" class="edge">
<title>Node4&#45;&gt;Node5</title>
<g id="a_edge4_Node000004_Node000005"><a xlink:title=" ">
<path fill="none" stroke="#63b8ff" d="M388.02,-65.8C381.09,-57.59 372.24,-47.1 364.45,-37.87"/>
<polygon fill="#63b8ff" stroke="#63b8ff" points="367.07,-35.55 357.95,-30.16 361.72,-40.06 367.07,-35.55"/>
</a>
</g>
</g>
<!-- Node6 -->
<g id="Node000006" class="node">
<title>Node6</title>
<g id="a_Node000006"><a xlink:title=" ">
<polygon fill="#e0e0e0" stroke="#999999" points="484,-24.5 424,-24.5 424,-5.5 484,-5.5 484,-24.5"/>
<text text-anchor="middle" x="454" y="-12.5" font-family="Helvetica,sans-Serif" font-size="10.00">iostream</text>
</a>
</g>
</g>
<!-- Node4&#45;&gt;Node6 -->
<g id="edge5_Node000004_Node000006" class="edge">
<title>Node4&#45;&gt;Node6</title>
<g id="a_edge5_Node000004_Node000006"><a xlink:title=" ">
<path fill="none" stroke="#63b8ff" d="M411.98,-65.8C420.24,-56.01 431.24,-42.98 439.91,-32.7"/>
<polygon fill="#63b8ff" stroke="#63b8ff" points="442.76,-34.74 446.54,-24.84 437.41,-30.23 442.76,-34.74"/>
</a>
</g>
</g>
<!-- Node16&#45;&gt;Node3 -->
<g id="edge17_Node000016_Node000003" class="edge">
<title>Node16&#45;&gt;Node3</title>
<g id="a_edge17_Node000016_Node000003"><a xlink:title=" ">
<path fill="none" stroke="#63b8ff" d="M452,-197.77C452,-189.85 452,-180.63 452,-172.3"/>
<polygon fill="#63b8ff" stroke="#63b8ff" points="455.5,-172.04 452,-162.04 448.5,-172.04 455.5,-172.04"/>
</a>
</g>
</g>
<!-- Node17&#45;&gt;Node3 -->
<g id="edge19_Node000017_Node000003" class="edge">
<title>Node17&#45;&gt;Node3</title>
<g id="a_edge19_Node000017_Node000003"><a xlink:title=" ">
<path fill="none" stroke="#63b8ff" d="M332.68,-197.96C356.7,-187.9 385.78,-175.73 409.21,-165.91"/>
<polygon fill="#63b8ff" stroke="#63b8ff" points="410.68,-169.09 418.55,-162 407.98,-162.64 410.68,-169.09"/>
</a>
</g>
</g>
<!-- Node17&#45;&gt;Node13 -->
<g id="edge21_Node000017_Node000013" class="edge">
<title>Node17&#45;&gt;Node13</title>
<g id="a_edge21_Node000017_Node000013"><a xlink:title=" ">
<path fill="none" stroke="#63b8ff" d="M303.88,-197.77C313.43,-187.24 325.05,-174.42 334.1,-164.43"/>
<polygon fill="#63b8ff" stroke="#63b8ff" points="336.88,-166.58 341.01,-156.82 331.7,-161.88 336.88,-166.58"/>
</a>
</g>
</g>
<!-- Node18 -->
<g id="Node000018" class="node">
<title>Node18</title>
<g id="a_Node000018"><a xlink:title=" ">
<polygon fill="#e0e0e0" stroke="#999999" points="300.5,-156.5 259.5,-156.5 259.5,-137.5 300.5,-137.5 300.5,-156.5"/>
<text text-anchor="middle" x="280" y="-144.5" font-family="Helvetica,sans-Serif" font-size="10.00">tuple</text>
</a>
</g>
</g>
<!-- Node17&#45;&gt;Node18 -->
<g id="edge20_Node000017_Node000018" class="edge">
<title>Node17&#45;&gt;Node18</title>
<g id="a_edge20_Node000017_Node000018"><a xlink:title=" ">
<path fill="none" stroke="#63b8ff" d="M284.3,-197.77C283.46,-188.08 282.46,-176.46 281.63,-166.88"/>
<polygon fill="#63b8ff" stroke="#63b8ff" points="285.11,-166.48 280.76,-156.82 278.13,-167.08 285.11,-166.48"/>
</a>
</g>
</g>
</g>
</svg>
