<?xml version="1.0" encoding="UTF-8" standalone="no"?>
<!DOCTYPE svg PUBLIC "-//W3C//DTD SVG 1.1//EN"
 "http://www.w3.org/Graphics/SVG/1.1/DTD/svg11.dtd">
<!-- Generated by graphviz version 2.43.0 (0)
 -->
<!-- Title: json.hpp Pages: 1 -->
<svg width="1340pt" height="664pt"
 viewBox="0.00 0.00 1340.12 664.00" xmlns="http://www.w3.org/2000/svg" xmlns:xlink="http://www.w3.org/1999/xlink">
<g id="graph0" class="graph" transform="scale(1 1) rotate(0) translate(4 660)">
<title>json.hpp</title>
<polygon fill="white" stroke="transparent" points="-4,4 -4,-660 1336.12,-660 1336.12,4 -4,4"/>
<!-- Node1 -->
<g id="node1" class="node">
<title>Node1</title>
<g id="a_node1"><a xlink:title=" ">
<polygon fill="#bfbfbf" stroke="black" points="870.12,-636.5 870.12,-655.5 928.12,-655.5 928.12,-636.5 870.12,-636.5"/>
<text text-anchor="middle" x="899.12" y="-643.5" font-family="Helvetica,sans-Serif" font-size="10.00">json.hpp</text>
</a>
</g>
</g>
<!-- Node2 -->
<g id="node2" class="node">
<title>Node2</title>
<g id="a_node2"><a xlink:title=" ">
<polygon fill="white" stroke="#bfbfbf" points="119.12,-575 119.12,-594 251.12,-594 251.12,-575 119.12,-575"/>
<text text-anchor="middle" x="185.12" y="-582" font-family="Helvetica,sans-Serif" font-size="10.00">nlohmann/json_fwd.hpp</text>
</a>
</g>
</g>
<!-- Node1&#45;&gt;Node2 -->
<g id="edge1" class="edge">
<title>Node1&#45;&gt;Node2</title>
<path fill="none" stroke="midnightblue" d="M870.06,-644.17C779.57,-641.33 494.83,-630.43 261.12,-600 252.69,-598.9 243.79,-597.46 235.16,-595.92"/>
<polygon fill="midnightblue" stroke="midnightblue" points="235.68,-592.45 225.21,-594.07 234.4,-599.33 235.68,-592.45"/>
</g>
<!-- Node3 -->
<g id="node3" class="node">
<title>Node3</title>
<g id="a_node3"><a xlink:href="RuntimeConst_8hpp.html" target="_top" xlink:title=" ">
<polygon fill="white" stroke="black" points="269.62,-569.5 269.62,-599.5 400.62,-599.5 400.62,-569.5 269.62,-569.5"/>
<text text-anchor="start" x="277.62" y="-587.5" font-family="Helvetica,sans-Serif" font-size="10.00">packages/stl_extension</text>
<text text-anchor="middle" x="335.12" y="-576.5" font-family="Helvetica,sans-Serif" font-size="10.00">/inc/RuntimeConst.hpp</text>
</a>
</g>
</g>
<!-- Node1&#45;&gt;Node3 -->
<g id="edge2" class="edge">
<title>Node1&#45;&gt;Node3</title>
<path fill="none" stroke="midnightblue" d="M870.1,-643.18C794.79,-638.27 586.94,-623.51 415.12,-600 413.82,-599.82 412.51,-599.64 411.19,-599.45"/>
<polygon fill="midnightblue" stroke="midnightblue" points="411.38,-595.94 400.97,-597.9 410.33,-602.86 411.38,-595.94"/>
</g>
<!-- Node5 -->
<g id="node5" class="node">
<title>Node5</title>
<g id="a_node5"><a xlink:href="container__concepts_8hpp.html" target="_top" xlink:title=" ">
<polygon fill="white" stroke="black" points="457.62,-357.5 457.62,-398.5 592.62,-398.5 592.62,-357.5 457.62,-357.5"/>
<text text-anchor="start" x="465.62" y="-386.5" font-family="Helvetica,sans-Serif" font-size="10.00">packages/compile_time</text>
<text text-anchor="start" x="465.62" y="-375.5" font-family="Helvetica,sans-Serif" font-size="10.00">/packages/concepts/inc</text>
<text text-anchor="middle" x="525.12" y="-364.5" font-family="Helvetica,sans-Serif" font-size="10.00">/container_concepts.hpp</text>
</a>
</g>
</g>
<!-- Node1&#45;&gt;Node5 -->
<g id="edge4" class="edge">
<title>Node1&#45;&gt;Node5</title>
<path fill="none" stroke="midnightblue" d="M869.88,-637.65C804.59,-619.75 645.98,-567.72 560.12,-466 546.18,-449.49 537.29,-426.72 531.96,-408.62"/>
<polygon fill="midnightblue" stroke="midnightblue" points="535.3,-407.57 529.28,-398.85 528.55,-409.41 535.3,-407.57"/>
</g>
<!-- Node26 -->
<g id="node26" class="node">
<title>Node26</title>
<g id="a_node26"><a xlink:href="checks_8hpp.html" target="_top" xlink:title=" ">
<polygon fill="white" stroke="black" points="886.62,-363 886.62,-393 1005.62,-393 1005.62,-363 886.62,-363"/>
<text text-anchor="start" x="894.62" y="-381" font-family="Helvetica,sans-Serif" font-size="10.00">packages/macros/inc</text>
<text text-anchor="middle" x="946.12" y="-370" font-family="Helvetica,sans-Serif" font-size="10.00">/checks.hpp</text>
</a>
</g>
</g>
<!-- Node1&#45;&gt;Node26 -->
<g id="edge29" class="edge">
<title>Node1&#45;&gt;Node26</title>
<path fill="none" stroke="midnightblue" d="M906.27,-636.33C912.94,-627.7 922.53,-613.79 927.12,-600 949.89,-531.55 949.51,-444.94 947.67,-403.4"/>
<polygon fill="midnightblue" stroke="midnightblue" points="951.15,-402.97 947.14,-393.16 944.16,-403.33 951.15,-402.97"/>
</g>
<!-- Node34 -->
<g id="node34" class="node">
<title>Node34</title>
<g id="a_node34"><a xlink:title=" ">
<polygon fill="white" stroke="#bfbfbf" points="1199.12,-212.5 1199.12,-231.5 1267.12,-231.5 1267.12,-212.5 1199.12,-212.5"/>
<text text-anchor="middle" x="1233.12" y="-219.5" font-family="Helvetica,sans-Serif" font-size="10.00">filesystem</text>
</a>
</g>
</g>
<!-- Node1&#45;&gt;Node34 -->
<g id="edge66" class="edge">
<title>Node1&#45;&gt;Node34</title>
<path fill="none" stroke="midnightblue" d="M914.5,-636.46C970.63,-604.24 1164.51,-483.67 1229.12,-321 1239.47,-294.95 1238.16,-261.88 1235.91,-241.59"/>
<polygon fill="midnightblue" stroke="midnightblue" points="1239.36,-240.98 1234.59,-231.51 1232.42,-241.88 1239.36,-240.98"/>
</g>
<!-- Node35 -->
<g id="node35" class="node">
<title>Node35</title>
<g id="a_node35"><a xlink:href="modifiers_8hpp.html" target="_top" xlink:title=" ">
<polygon fill="white" stroke="black" points="30.12,-285 30.12,-315 140.12,-315 140.12,-285 30.12,-285"/>
<text text-anchor="start" x="38.12" y="-303" font-family="Helvetica,sans-Serif" font-size="10.00">packages/types/inc</text>
<text text-anchor="middle" x="85.12" y="-292" font-family="Helvetica,sans-Serif" font-size="10.00">/modifiers.hpp</text>
</a>
</g>
</g>
<!-- Node1&#45;&gt;Node35 -->
<g id="edge47" class="edge">
<title>Node1&#45;&gt;Node35</title>
<path fill="none" stroke="midnightblue" d="M870.07,-643.49C767.6,-637.39 429.12,-610.29 429.12,-518.5 429.12,-518.5 429.12,-518.5 429.12,-449.5 429.12,-329.5 250.5,-305.33 150.68,-301.2"/>
<polygon fill="midnightblue" stroke="midnightblue" points="150.51,-297.69 140.39,-300.83 150.26,-304.68 150.51,-297.69"/>
</g>
<!-- Node36 -->
<g id="node36" class="node">
<title>Node36</title>
<g id="a_node36"><a xlink:href="StaticArray_8hpp.html" target="_top" xlink:title=" ">
<polygon fill="white" stroke="black" points="786.62,-569.5 786.62,-599.5 917.62,-599.5 917.62,-569.5 786.62,-569.5"/>
<text text-anchor="start" x="794.62" y="-587.5" font-family="Helvetica,sans-Serif" font-size="10.00">packages/stl_extension</text>
<text text-anchor="middle" x="852.12" y="-576.5" font-family="Helvetica,sans-Serif" font-size="10.00">/inc/StaticArray.hpp</text>
</a>
</g>
</g>
<!-- Node1&#45;&gt;Node36 -->
<g id="edge50" class="edge">
<title>Node1&#45;&gt;Node36</title>
<path fill="none" stroke="midnightblue" d="M892.38,-636.48C886.44,-628.94 877.5,-617.63 869.55,-607.57"/>
<polygon fill="midnightblue" stroke="midnightblue" points="872.14,-605.2 863.2,-599.52 866.65,-609.54 872.14,-605.2"/>
</g>
<!-- Node43 -->
<g id="node43" class="node">
<title>Node43</title>
<g id="a_node43"><a xlink:title=" ">
<polygon fill="white" stroke="#bfbfbf" points="1062.12,-575 1062.12,-594 1116.12,-594 1116.12,-575 1062.12,-575"/>
<text text-anchor="middle" x="1089.12" y="-582" font-family="Helvetica,sans-Serif" font-size="10.00">istream</text>
</a>
</g>
</g>
<!-- Node1&#45;&gt;Node43 -->
<g id="edge64" class="edge">
<title>Node1&#45;&gt;Node43</title>
<path fill="none" stroke="midnightblue" d="M928.37,-636.6C958.5,-627.85 1006.78,-613.55 1048.12,-600 1050.57,-599.2 1053.09,-598.35 1055.63,-597.49"/>
<polygon fill="midnightblue" stroke="midnightblue" points="1057.03,-600.71 1065.33,-594.12 1054.74,-594.09 1057.03,-600.71"/>
</g>
<!-- Node44 -->
<g id="node44" class="node">
<title>Node44</title>
<g id="a_node44"><a xlink:title=" ">
<polygon fill="white" stroke="#bfbfbf" points="1134.62,-575 1134.62,-594 1191.62,-594 1191.62,-575 1134.62,-575"/>
<text text-anchor="middle" x="1163.12" y="-582" font-family="Helvetica,sans-Serif" font-size="10.00">ostream</text>
</a>
</g>
</g>
<!-- Node1&#45;&gt;Node44 -->
<g id="edge65" class="edge">
<title>Node1&#45;&gt;Node44</title>
<path fill="none" stroke="midnightblue" d="M928.39,-640.78C971.84,-634.16 1055.73,-619.99 1125.12,-600 1127.7,-599.26 1130.36,-598.41 1133,-597.52"/>
<polygon fill="midnightblue" stroke="midnightblue" points="1134.21,-600.8 1142.43,-594.12 1131.83,-594.22 1134.21,-600.8"/>
</g>
<!-- Node45 -->
<g id="node45" class="node">
<title>Node45</title>
<g id="a_node45"><a xlink:title=" ">
<polygon fill="white" stroke="#bfbfbf" points="1210.12,-569.5 1210.12,-599.5 1332.12,-599.5 1332.12,-569.5 1210.12,-569.5"/>
<text text-anchor="start" x="1218.12" y="-587.5" font-family="Helvetica,sans-Serif" font-size="10.00">packages/io/impl/json</text>
<text text-anchor="middle" x="1271.12" y="-576.5" font-family="Helvetica,sans-Serif" font-size="10.00">_impl.hpp</text>
</a>
</g>
</g>
<!-- Node1&#45;&gt;Node45 -->
<g id="edge67" class="edge">
<title>Node1&#45;&gt;Node45</title>
<path fill="none" stroke="midnightblue" d="M928.36,-641.2C980.75,-634.27 1094.29,-618.72 1200.18,-600.11"/>
<polygon fill="midnightblue" stroke="midnightblue" points="1200.84,-603.55 1210.07,-598.36 1199.62,-596.65 1200.84,-603.55"/>
</g>
<!-- Node4 -->
<g id="node4" class="node">
<title>Node4</title>
<g id="a_node4"><a xlink:title=" ">
<polygon fill="white" stroke="#bfbfbf" points="239.62,-502.5 239.62,-532.5 400.62,-532.5 400.62,-502.5 239.62,-502.5"/>
<text text-anchor="start" x="247.62" y="-520.5" font-family="Helvetica,sans-Serif" font-size="10.00">packages/stl_extension</text>
<text text-anchor="middle" x="320.12" y="-509.5" font-family="Helvetica,sans-Serif" font-size="10.00">/impl/RuntimeConst_impl.hpp</text>
</a>
</g>
</g>
<!-- Node3&#45;&gt;Node4 -->
<g id="edge3" class="edge">
<title>Node3&#45;&gt;Node4</title>
<path fill="none" stroke="midnightblue" d="M331.86,-569.4C330.06,-561.56 327.76,-551.6 325.67,-542.57"/>
<polygon fill="midnightblue" stroke="midnightblue" points="329.03,-541.53 323.37,-532.58 322.21,-543.11 329.03,-541.53"/>
</g>
<!-- Node6 -->
<g id="node6" class="node">
<title>Node6</title>
<g id="a_node6"><a xlink:href="iterator__concepts_8hpp.html" target="_top" xlink:title=" ">
<polygon fill="white" stroke="black" points="370.12,-279.5 370.12,-320.5 502.12,-320.5 502.12,-279.5 370.12,-279.5"/>
<text text-anchor="start" x="378.12" y="-308.5" font-family="Helvetica,sans-Serif" font-size="10.00">packages/compile_time</text>
<text text-anchor="start" x="378.12" y="-297.5" font-family="Helvetica,sans-Serif" font-size="10.00">/packages/concepts/inc</text>
<text text-anchor="middle" x="436.12" y="-286.5" font-family="Helvetica,sans-Serif" font-size="10.00">/iterator_concepts.hpp</text>
</a>
</g>
</g>
<!-- Node5&#45;&gt;Node6 -->
<g id="edge5" class="edge">
<title>Node5&#45;&gt;Node6</title>
<path fill="none" stroke="midnightblue" d="M502.2,-357.43C491.4,-348.21 478.37,-337.08 466.74,-327.15"/>
<polygon fill="midnightblue" stroke="midnightblue" points="468.84,-324.34 458.96,-320.51 464.29,-329.66 468.84,-324.34"/>
</g>
<!-- Node7 -->
<g id="node7" class="node">
<title>Node7</title>
<g id="a_node7"><a xlink:href="basic__concepts_8hpp.html" target="_top" xlink:title=" ">
<polygon fill="white" stroke="black" points="19.12,-201.5 19.12,-242.5 151.12,-242.5 151.12,-201.5 19.12,-201.5"/>
<text text-anchor="start" x="27.12" y="-230.5" font-family="Helvetica,sans-Serif" font-size="10.00">packages/compile_time</text>
<text text-anchor="start" x="27.12" y="-219.5" font-family="Helvetica,sans-Serif" font-size="10.00">/packages/concepts/inc</text>
<text text-anchor="middle" x="85.12" y="-208.5" font-family="Helvetica,sans-Serif" font-size="10.00">/basic_concepts.hpp</text>
</a>
</g>
</g>
<!-- Node6&#45;&gt;Node7 -->
<g id="edge6" class="edge">
<title>Node6&#45;&gt;Node7</title>
<path fill="none" stroke="midnightblue" d="M370.05,-286.63C314.2,-275.92 232.17,-259.57 161.12,-243 161.02,-242.98 160.92,-242.95 160.82,-242.93"/>
<polygon fill="midnightblue" stroke="midnightblue" points="161.92,-239.6 151.38,-240.67 160.29,-246.4 161.92,-239.6"/>
</g>
<!-- Node21 -->
<g id="node21" class="node">
<title>Node21</title>
<g id="a_node21"><a xlink:href="Size_8hpp.html" target="_top" xlink:title=" ">
<polygon fill="white" stroke="black" points="445.12,-201.5 445.12,-242.5 593.12,-242.5 593.12,-201.5 445.12,-201.5"/>
<text text-anchor="start" x="453.12" y="-230.5" font-family="Helvetica,sans-Serif" font-size="10.00">packages/compile_time</text>
<text text-anchor="start" x="453.12" y="-219.5" font-family="Helvetica,sans-Serif" font-size="10.00">/packages/parameter_pack</text>
<text text-anchor="middle" x="519.12" y="-208.5" font-family="Helvetica,sans-Serif" font-size="10.00">/inc/Size.hpp</text>
</a>
</g>
</g>
<!-- Node6&#45;&gt;Node21 -->
<g id="edge21" class="edge">
<title>Node6&#45;&gt;Node21</title>
<path fill="none" stroke="midnightblue" d="M457.49,-279.43C467.46,-270.3 479.48,-259.29 490.25,-249.44"/>
<polygon fill="midnightblue" stroke="midnightblue" points="492.8,-251.84 497.82,-242.51 488.08,-246.68 492.8,-251.84"/>
</g>
<!-- Node22 -->
<g id="node22" class="node">
<title>Node22</title>
<g id="a_node22"><a xlink:href="Select_8hpp.html" target="_top" xlink:title=" ">
<polygon fill="white" stroke="black" points="279.12,-201.5 279.12,-242.5 427.12,-242.5 427.12,-201.5 279.12,-201.5"/>
<text text-anchor="start" x="287.12" y="-230.5" font-family="Helvetica,sans-Serif" font-size="10.00">packages/compile_time</text>
<text text-anchor="start" x="287.12" y="-219.5" font-family="Helvetica,sans-Serif" font-size="10.00">/packages/parameter_pack</text>
<text text-anchor="middle" x="353.12" y="-208.5" font-family="Helvetica,sans-Serif" font-size="10.00">/inc/Select.hpp</text>
</a>
</g>
</g>
<!-- Node6&#45;&gt;Node22 -->
<g id="edge23" class="edge">
<title>Node6&#45;&gt;Node22</title>
<path fill="none" stroke="midnightblue" d="M414.74,-279.43C404.77,-270.3 392.75,-259.29 381.99,-249.44"/>
<polygon fill="midnightblue" stroke="midnightblue" points="384.16,-246.68 374.42,-242.51 379.43,-251.84 384.16,-246.68"/>
</g>
<!-- Node24 -->
<g id="node24" class="node">
<title>Node24</title>
<g id="a_node24"><a xlink:title=" ">
<polygon fill="white" stroke="#bfbfbf" points="169.62,-212.5 169.62,-231.5 222.62,-231.5 222.62,-212.5 169.62,-212.5"/>
<text text-anchor="middle" x="196.12" y="-219.5" font-family="Helvetica,sans-Serif" font-size="10.00">iterator</text>
</a>
</g>
</g>
<!-- Node6&#45;&gt;Node24 -->
<g id="edge27" class="edge">
<title>Node6&#45;&gt;Node24</title>
<path fill="none" stroke="midnightblue" d="M369.73,-283.5C330.57,-273.58 280.38,-259.49 237.12,-243 231.98,-241.04 226.61,-238.67 221.51,-236.26"/>
<polygon fill="midnightblue" stroke="midnightblue" points="222.7,-232.94 212.18,-231.67 219.61,-239.22 222.7,-232.94"/>
</g>
<!-- Node25 -->
<g id="node25" class="node">
<title>Node25</title>
<g id="a_node25"><a xlink:title=" ">
<polygon fill="white" stroke="#bfbfbf" points="1029.12,-140 1029.12,-159 1087.12,-159 1087.12,-140 1029.12,-140"/>
<text text-anchor="middle" x="1058.12" y="-147" font-family="Helvetica,sans-Serif" font-size="10.00">memory</text>
</a>
</g>
</g>
<!-- Node6&#45;&gt;Node25 -->
<g id="edge28" class="edge">
<title>Node6&#45;&gt;Node25</title>
<path fill="none" stroke="midnightblue" d="M502.33,-296.33C610.2,-291.05 818.34,-276.72 883.12,-243 905.45,-231.38 900.23,-215.05 921.12,-201 959.97,-174.87 976.25,-181.35 1020.12,-165 1022,-164.3 1023.94,-163.57 1025.89,-162.84"/>
<polygon fill="midnightblue" stroke="midnightblue" points="1027.52,-165.96 1035.64,-159.15 1025.04,-159.42 1027.52,-165.96"/>
</g>
<!-- Node8 -->
<g id="node8" class="node">
<title>Node8</title>
<g id="a_node8"><a xlink:href="types_8hpp.html" target="_top" xlink:title=" ">
<polygon fill="white" stroke="black" points="390.12,-134.5 390.12,-164.5 500.12,-164.5 500.12,-134.5 390.12,-134.5"/>
<text text-anchor="start" x="398.12" y="-152.5" font-family="Helvetica,sans-Serif" font-size="10.00">packages/types/inc</text>
<text text-anchor="middle" x="445.12" y="-141.5" font-family="Helvetica,sans-Serif" font-size="10.00">/types.hpp</text>
</a>
</g>
</g>
<!-- Node7&#45;&gt;Node8 -->
<g id="edge7" class="edge">
<title>Node7&#45;&gt;Node8</title>
<path fill="none" stroke="midnightblue" d="M151.35,-203.17C154.65,-202.41 157.92,-201.68 161.12,-201 254.9,-181.03 282.13,-183.75 379.99,-165.14"/>
<polygon fill="midnightblue" stroke="midnightblue" points="380.85,-168.54 390.01,-163.21 379.52,-161.67 380.85,-168.54"/>
</g>
<!-- Node14 -->
<g id="node14" class="node">
<title>Node14</title>
<g id="a_node14"><a xlink:title=" ">
<polygon fill="white" stroke="#bfbfbf" points="2.62,-73 2.62,-92 71.62,-92 71.62,-73 2.62,-73"/>
<text text-anchor="middle" x="37.12" y="-80" font-family="Helvetica,sans-Serif" font-size="10.00">type_traits</text>
</a>
</g>
</g>
<!-- Node7&#45;&gt;Node14 -->
<g id="edge18" class="edge">
<title>Node7&#45;&gt;Node14</title>
<path fill="none" stroke="midnightblue" d="M72.9,-201.4C66.82,-190.93 59.79,-177.62 55.12,-165 47.43,-144.24 42.51,-119.24 39.79,-102.45"/>
<polygon fill="midnightblue" stroke="midnightblue" points="43.21,-101.65 38.25,-92.29 36.29,-102.7 43.21,-101.65"/>
</g>
<!-- Node18 -->
<g id="node18" class="node">
<title>Node18</title>
<g id="a_node18"><a xlink:title=" ">
<polygon fill="white" stroke="#bfbfbf" points="206.12,-140 206.12,-159 266.12,-159 266.12,-140 206.12,-140"/>
<text text-anchor="middle" x="236.12" y="-147" font-family="Helvetica,sans-Serif" font-size="10.00">concepts</text>
</a>
</g>
</g>
<!-- Node7&#45;&gt;Node18 -->
<g id="edge17" class="edge">
<title>Node7&#45;&gt;Node18</title>
<path fill="none" stroke="midnightblue" d="M127.18,-201.36C153.14,-189.24 185.71,-174.03 208.45,-163.42"/>
<polygon fill="midnightblue" stroke="midnightblue" points="209.96,-166.58 217.54,-159.17 207,-160.23 209.96,-166.58"/>
</g>
<!-- Node19 -->
<g id="node19" class="node">
<title>Node19</title>
<g id="a_node19"><a xlink:title=" ">
<polygon fill="white" stroke="#bfbfbf" points="127.12,-140 127.12,-159 177.12,-159 177.12,-140 127.12,-140"/>
<text text-anchor="middle" x="152.12" y="-147" font-family="Helvetica,sans-Serif" font-size="10.00">cstdint</text>
</a>
</g>
</g>
<!-- Node7&#45;&gt;Node19 -->
<g id="edge19" class="edge">
<title>Node7&#45;&gt;Node19</title>
<path fill="none" stroke="midnightblue" d="M103.78,-201.36C114.17,-190.43 126.94,-176.99 136.75,-166.67"/>
<polygon fill="midnightblue" stroke="midnightblue" points="139.52,-168.83 143.88,-159.17 134.45,-164.01 139.52,-168.83"/>
</g>
<!-- Node20 -->
<g id="node20" class="node">
<title>Node20</title>
<g id="a_node20"><a xlink:title=" ">
<polygon fill="white" stroke="#bfbfbf" points="63.62,-140 63.62,-159 108.62,-159 108.62,-140 63.62,-140"/>
<text text-anchor="middle" x="86.12" y="-147" font-family="Helvetica,sans-Serif" font-size="10.00">utility</text>
</a>
</g>
</g>
<!-- Node7&#45;&gt;Node20 -->
<g id="edge20" class="edge">
<title>Node7&#45;&gt;Node20</title>
<path fill="none" stroke="midnightblue" d="M85.4,-201.36C85.54,-191.3 85.71,-179.1 85.85,-169.18"/>
<polygon fill="midnightblue" stroke="midnightblue" points="89.35,-169.22 86,-159.17 82.35,-169.12 89.35,-169.22"/>
</g>
<!-- Node9 -->
<g id="node9" class="node">
<title>Node9</title>
<g id="a_node9"><a xlink:href="debug_8hpp.html" target="_top" xlink:title=" ">
<polygon fill="white" stroke="black" points="502.62,-67.5 502.62,-97.5 621.62,-97.5 621.62,-67.5 502.62,-67.5"/>
<text text-anchor="start" x="510.62" y="-85.5" font-family="Helvetica,sans-Serif" font-size="10.00">packages/macros/inc</text>
<text text-anchor="middle" x="562.12" y="-74.5" font-family="Helvetica,sans-Serif" font-size="10.00">/debug.hpp</text>
</a>
</g>
</g>
<!-- Node8&#45;&gt;Node9 -->
<g id="edge8" class="edge">
<title>Node8&#45;&gt;Node9</title>
<path fill="none" stroke="midnightblue" d="M470.51,-134.4C487.29,-125.07 509.51,-112.73 527.86,-102.53"/>
<polygon fill="midnightblue" stroke="midnightblue" points="529.74,-105.49 536.78,-97.58 526.34,-99.37 529.74,-105.49"/>
</g>
<!-- Node12 -->
<g id="node12" class="node">
<title>Node12</title>
<g id="a_node12"><a xlink:title=" ">
<polygon fill="white" stroke="#bfbfbf" points="90.62,-73 90.62,-92 143.62,-92 143.62,-73 90.62,-73"/>
<text text-anchor="middle" x="117.12" y="-80" font-family="Helvetica,sans-Serif" font-size="10.00">cstddef</text>
</a>
</g>
</g>
<!-- Node8&#45;&gt;Node12 -->
<g id="edge11" class="edge">
<title>Node8&#45;&gt;Node12</title>
<path fill="none" stroke="midnightblue" d="M390.01,-135.77C387.01,-135.15 384.03,-134.56 381.12,-134 280.37,-114.66 252,-125.34 153.12,-98 150.67,-97.32 148.17,-96.53 145.68,-95.68"/>
<polygon fill="midnightblue" stroke="midnightblue" points="146.86,-92.38 136.27,-92.15 144.4,-98.94 146.86,-92.38"/>
</g>
<!-- Node13 -->
<g id="node13" class="node">
<title>Node13</title>
<g id="a_node13"><a xlink:title=" ">
<polygon fill="white" stroke="#bfbfbf" points="678.12,-73 678.12,-92 722.12,-92 722.12,-73 678.12,-73"/>
<text text-anchor="middle" x="700.12" y="-80" font-family="Helvetica,sans-Serif" font-size="10.00">string</text>
</a>
</g>
</g>
<!-- Node8&#45;&gt;Node13 -->
<g id="edge12" class="edge">
<title>Node8&#45;&gt;Node13</title>
<path fill="none" stroke="midnightblue" d="M500.14,-134.48C551.4,-121.41 626.07,-102.37 668.16,-91.65"/>
<polygon fill="midnightblue" stroke="midnightblue" points="669.05,-95.03 677.88,-89.17 667.32,-88.25 669.05,-95.03"/>
</g>
<!-- Node8&#45;&gt;Node14 -->
<g id="edge13" class="edge">
<title>Node8&#45;&gt;Node14</title>
<path fill="none" stroke="midnightblue" d="M390.03,-135.64C387.02,-135.06 384.04,-134.5 381.12,-134 249.23,-111.18 212.86,-126.66 82.12,-98 78.26,-97.15 74.26,-96.11 70.31,-94.98"/>
<polygon fill="midnightblue" stroke="midnightblue" points="71.29,-91.62 60.71,-92.04 69.24,-98.32 71.29,-91.62"/>
</g>
<!-- Node15 -->
<g id="node15" class="node">
<title>Node15</title>
<g id="a_node15"><a xlink:title=" ">
<polygon fill="white" stroke="#bfbfbf" points="162.12,-73 162.12,-92 212.12,-92 212.12,-73 162.12,-73"/>
<text text-anchor="middle" x="187.12" y="-80" font-family="Helvetica,sans-Serif" font-size="10.00">climits</text>
</a>
</g>
</g>
<!-- Node8&#45;&gt;Node15 -->
<g id="edge14" class="edge">
<title>Node8&#45;&gt;Node15</title>
<path fill="none" stroke="midnightblue" d="M389.96,-136C386.97,-135.33 384.01,-134.65 381.12,-134 310.45,-118 291.17,-119.95 222.12,-98 219.98,-97.32 217.79,-96.56 215.6,-95.76"/>
<polygon fill="midnightblue" stroke="midnightblue" points="216.74,-92.45 206.16,-92.07 214.2,-98.97 216.74,-92.45"/>
</g>
<!-- Node16 -->
<g id="node16" class="node">
<title>Node16</title>
<g id="a_node16"><a xlink:title=" ">
<polygon fill="white" stroke="#bfbfbf" points="230.62,-67.5 230.62,-97.5 347.62,-97.5 347.62,-67.5 230.62,-67.5"/>
<text text-anchor="start" x="238.62" y="-85.5" font-family="Helvetica,sans-Serif" font-size="10.00">packages/types/impl</text>
<text text-anchor="middle" x="289.12" y="-74.5" font-family="Helvetica,sans-Serif" font-size="10.00">/types_impl.hpp</text>
</a>
</g>
</g>
<!-- Node8&#45;&gt;Node16 -->
<g id="edge15" class="edge">
<title>Node8&#45;&gt;Node16</title>
<path fill="none" stroke="midnightblue" d="M411.27,-134.4C388.07,-124.73 357.09,-111.82 332.14,-101.43"/>
<polygon fill="midnightblue" stroke="midnightblue" points="333.48,-98.19 322.9,-97.58 330.79,-104.65 333.48,-98.19"/>
</g>
<!-- Node17 -->
<g id="node17" class="node">
<title>Node17</title>
<g id="a_node17"><a xlink:href="logging_8hpp.html" target="_top" xlink:title=" ">
<polygon fill="white" stroke="black" points="365.62,-67.5 365.62,-97.5 484.62,-97.5 484.62,-67.5 365.62,-67.5"/>
<text text-anchor="start" x="373.62" y="-85.5" font-family="Helvetica,sans-Serif" font-size="10.00">packages/macros/inc</text>
<text text-anchor="middle" x="425.12" y="-74.5" font-family="Helvetica,sans-Serif" font-size="10.00">/logging.hpp</text>
</a>
</g>
</g>
<!-- Node8&#45;&gt;Node17 -->
<g id="edge16" class="edge">
<title>Node8&#45;&gt;Node17</title>
<path fill="none" stroke="midnightblue" d="M440.78,-134.4C438.34,-126.47 435.23,-116.38 432.43,-107.27"/>
<polygon fill="midnightblue" stroke="midnightblue" points="435.74,-106.1 429.45,-97.58 429.05,-108.16 435.74,-106.1"/>
</g>
<!-- Node10 -->
<g id="node10" class="node">
<title>Node10</title>
<g id="a_node10"><a xlink:href="detail_8hpp.html" target="_top" xlink:title=" ">
<polygon fill="white" stroke="black" points="600.62,-0.5 600.62,-30.5 719.62,-30.5 719.62,-0.5 600.62,-0.5"/>
<text text-anchor="start" x="608.62" y="-18.5" font-family="Helvetica,sans-Serif" font-size="10.00">packages/macros/inc</text>
<text text-anchor="middle" x="660.12" y="-7.5" font-family="Helvetica,sans-Serif" font-size="10.00">/detail.hpp</text>
</a>
</g>
</g>
<!-- Node9&#45;&gt;Node10 -->
<g id="edge9" class="edge">
<title>Node9&#45;&gt;Node10</title>
<path fill="none" stroke="midnightblue" d="M583.38,-67.4C597.12,-58.28 615.2,-46.29 630.36,-36.24"/>
<polygon fill="midnightblue" stroke="midnightblue" points="632.5,-39.02 638.9,-30.58 628.63,-33.19 632.5,-39.02"/>
</g>
<!-- Node11 -->
<g id="node11" class="node">
<title>Node11</title>
<g id="a_node11"><a xlink:title=" ">
<polygon fill="white" stroke="#bfbfbf" points="522.12,-6 522.12,-25 582.12,-25 582.12,-6 522.12,-6"/>
<text text-anchor="middle" x="552.12" y="-13" font-family="Helvetica,sans-Serif" font-size="10.00">iostream</text>
</a>
</g>
</g>
<!-- Node9&#45;&gt;Node11 -->
<g id="edge10" class="edge">
<title>Node9&#45;&gt;Node11</title>
<path fill="none" stroke="midnightblue" d="M559.95,-67.4C558.5,-57.96 556.57,-45.45 554.99,-35.19"/>
<polygon fill="midnightblue" stroke="midnightblue" points="558.44,-34.55 553.46,-25.19 551.52,-35.61 558.44,-34.55"/>
</g>
<!-- Node21&#45;&gt;Node8 -->
<g id="edge22" class="edge">
<title>Node21&#45;&gt;Node8</title>
<path fill="none" stroke="midnightblue" d="M498.51,-201.36C488.92,-192.23 477.5,-181.35 467.69,-172"/>
<polygon fill="midnightblue" stroke="midnightblue" points="469.88,-169.26 460.22,-164.89 465.05,-174.32 469.88,-169.26"/>
</g>
<!-- Node22&#45;&gt;Node8 -->
<g id="edge24" class="edge">
<title>Node22&#45;&gt;Node8</title>
<path fill="none" stroke="midnightblue" d="M378.75,-201.36C391.1,-191.89 405.91,-180.54 418.41,-170.97"/>
<polygon fill="midnightblue" stroke="midnightblue" points="420.82,-173.53 426.63,-164.67 416.56,-167.97 420.82,-173.53"/>
</g>
<!-- Node22&#45;&gt;Node14 -->
<g id="edge25" class="edge">
<title>Node22&#45;&gt;Node14</title>
<path fill="none" stroke="midnightblue" d="M341.13,-201.31C327.68,-181.04 303.94,-150.2 275.12,-134 199.06,-91.24 166.7,-119.42 82.12,-98 78.67,-97.13 75.1,-96.13 71.55,-95.09"/>
<polygon fill="midnightblue" stroke="midnightblue" points="72.3,-91.65 61.71,-92.05 70.23,-98.34 72.3,-91.65"/>
</g>
<!-- Node23 -->
<g id="node23" class="node">
<title>Node23</title>
<g id="a_node23"><a xlink:title=" ">
<polygon fill="white" stroke="#bfbfbf" points="330.62,-140 330.62,-159 371.62,-159 371.62,-140 330.62,-140"/>
<text text-anchor="middle" x="351.12" y="-147" font-family="Helvetica,sans-Serif" font-size="10.00">tuple</text>
</a>
</g>
</g>
<!-- Node22&#45;&gt;Node23 -->
<g id="edge26" class="edge">
<title>Node22&#45;&gt;Node23</title>
<path fill="none" stroke="midnightblue" d="M352.56,-201.36C352.28,-191.3 351.93,-179.1 351.65,-169.18"/>
<polygon fill="midnightblue" stroke="midnightblue" points="355.15,-169.07 351.36,-159.17 348.15,-169.27 355.15,-169.07"/>
</g>
<!-- Node26&#45;&gt;Node10 -->
<g id="edge42" class="edge">
<title>Node26&#45;&gt;Node10</title>
<path fill="none" stroke="midnightblue" d="M966.97,-362.93C1021.28,-324.59 1158.69,-215.66 1096.12,-134 1051.73,-76.07 841.28,-40.25 729.8,-25.02"/>
<polygon fill="midnightblue" stroke="midnightblue" points="730.04,-21.52 719.66,-23.66 729.1,-28.46 730.04,-21.52"/>
</g>
<!-- Node27 -->
<g id="node27" class="node">
<title>Node27</title>
<g id="a_node27"><a xlink:href="exception_8hpp.html" target="_top" xlink:title=" ">
<polygon fill="white" stroke="black" points="754.62,-207 754.62,-237 873.62,-237 873.62,-207 754.62,-207"/>
<text text-anchor="start" x="762.62" y="-225" font-family="Helvetica,sans-Serif" font-size="10.00">packages/exceptions</text>
<text text-anchor="middle" x="814.12" y="-214" font-family="Helvetica,sans-Serif" font-size="10.00">/inc/exception.hpp</text>
</a>
</g>
</g>
<!-- Node26&#45;&gt;Node27 -->
<g id="edge30" class="edge">
<title>Node26&#45;&gt;Node27</title>
<path fill="none" stroke="midnightblue" d="M939.37,-362.99C929.33,-343 909.04,-305.73 885.12,-279 873.18,-265.66 857.79,-253.09 844.4,-243.26"/>
<polygon fill="midnightblue" stroke="midnightblue" points="846.11,-240.18 835.94,-237.21 842.03,-245.87 846.11,-240.18"/>
</g>
<!-- Node31 -->
<g id="node31" class="node">
<title>Node31</title>
<g id="a_node31"><a xlink:href="exceptions_8hpp.html" target="_top" xlink:title=" ">
<polygon fill="white" stroke="black" points="756.62,-285 756.62,-315 875.62,-315 875.62,-285 756.62,-285"/>
<text text-anchor="start" x="764.62" y="-303" font-family="Helvetica,sans-Serif" font-size="10.00">packages/macros/inc</text>
<text text-anchor="middle" x="816.12" y="-292" font-family="Helvetica,sans-Serif" font-size="10.00">/exceptions.hpp</text>
</a>
</g>
</g>
<!-- Node26&#45;&gt;Node31 -->
<g id="edge37" class="edge">
<title>Node26&#45;&gt;Node31</title>
<path fill="none" stroke="midnightblue" d="M921.97,-362.88C901.36,-350.83 871.53,-333.39 848.78,-320.1"/>
<polygon fill="midnightblue" stroke="midnightblue" points="850.54,-317.07 840.14,-315.04 847,-323.11 850.54,-317.07"/>
</g>
<!-- Node32 -->
<g id="node32" class="node">
<title>Node32</title>
<g id="a_node32"><a xlink:title=" ">
<polygon fill="white" stroke="#bfbfbf" points="930.12,-212.5 930.12,-231.5 986.12,-231.5 986.12,-212.5 930.12,-212.5"/>
<text text-anchor="middle" x="958.12" y="-219.5" font-family="Helvetica,sans-Serif" font-size="10.00">sstream</text>
</a>
</g>
</g>
<!-- Node26&#45;&gt;Node32 -->
<g id="edge46" class="edge">
<title>Node26&#45;&gt;Node32</title>
<path fill="none" stroke="midnightblue" d="M947.23,-362.79C949.4,-334.93 954.21,-273.12 956.65,-241.87"/>
<polygon fill="midnightblue" stroke="midnightblue" points="960.17,-241.77 957.45,-231.53 953.19,-241.22 960.17,-241.77"/>
</g>
<!-- Node33 -->
<g id="node33" class="node">
<title>Node33</title>
<g id="a_node33"><a xlink:href="cmake__variables_8hpp.html" target="_top" xlink:title=" ">
<polygon fill="white" stroke="black" points="1100.12,-290.5 1100.12,-309.5 1220.12,-309.5 1220.12,-290.5 1100.12,-290.5"/>
<text text-anchor="middle" x="1160.12" y="-297.5" font-family="Helvetica,sans-Serif" font-size="10.00">cmake_variables.hpp</text>
</a>
</g>
</g>
<!-- Node26&#45;&gt;Node33 -->
<g id="edge43" class="edge">
<title>Node26&#45;&gt;Node33</title>
<path fill="none" stroke="midnightblue" d="M985.62,-362.97C1026.08,-348.6 1088.32,-326.5 1126.5,-312.94"/>
<polygon fill="midnightblue" stroke="midnightblue" points="1127.87,-316.17 1136.13,-309.52 1125.53,-309.57 1127.87,-316.17"/>
</g>
<!-- Node27&#45;&gt;Node8 -->
<g id="edge31" class="edge">
<title>Node27&#45;&gt;Node8</title>
<path fill="none" stroke="midnightblue" d="M754.42,-209.59C687.45,-196.8 579.16,-176.11 510.1,-162.92"/>
<polygon fill="midnightblue" stroke="midnightblue" points="510.69,-159.46 500.21,-161.03 509.37,-166.34 510.69,-159.46"/>
</g>
<!-- Node27&#45;&gt;Node13 -->
<g id="edge33" class="edge">
<title>Node27&#45;&gt;Node13</title>
<path fill="none" stroke="midnightblue" d="M765.49,-206.95C744.4,-198.31 721.52,-184.96 708.12,-165 695.64,-146.42 695.48,-119.87 697.21,-102.18"/>
<polygon fill="midnightblue" stroke="midnightblue" points="700.69,-102.6 698.48,-92.23 693.74,-101.71 700.69,-102.6"/>
</g>
<!-- Node27&#45;&gt;Node25 -->
<g id="edge35" class="edge">
<title>Node27&#45;&gt;Node25</title>
<path fill="none" stroke="midnightblue" d="M865.92,-206.98C925.7,-190.8 1016.35,-166.23 1020.12,-165 1022.53,-164.22 1025.01,-163.37 1027.49,-162.48"/>
<polygon fill="midnightblue" stroke="midnightblue" points="1028.77,-165.74 1036.95,-159 1026.35,-159.17 1028.77,-165.74"/>
</g>
<!-- Node28 -->
<g id="node28" class="node">
<title>Node28</title>
<g id="a_node28"><a xlink:title=" ">
<polygon fill="white" stroke="#bfbfbf" points="716.62,-140 716.62,-159 781.62,-159 781.62,-140 716.62,-140"/>
<text text-anchor="middle" x="749.12" y="-147" font-family="Helvetica,sans-Serif" font-size="10.00">stdexcept</text>
</a>
</g>
</g>
<!-- Node27&#45;&gt;Node28 -->
<g id="edge32" class="edge">
<title>Node27&#45;&gt;Node28</title>
<path fill="none" stroke="midnightblue" d="M800.96,-206.73C790.36,-195.23 775.42,-179.03 764.3,-166.97"/>
<polygon fill="midnightblue" stroke="midnightblue" points="766.67,-164.37 757.32,-159.39 761.52,-169.12 766.67,-164.37"/>
</g>
<!-- Node29 -->
<g id="node29" class="node">
<title>Node29</title>
<g id="a_node29"><a xlink:title=" ">
<polygon fill="white" stroke="#bfbfbf" points="799.62,-140 799.62,-159 846.62,-159 846.62,-140 799.62,-140"/>
<text text-anchor="middle" x="823.12" y="-147" font-family="Helvetica,sans-Serif" font-size="10.00">deque</text>
</a>
</g>
</g>
<!-- Node27&#45;&gt;Node29 -->
<g id="edge34" class="edge">
<title>Node27&#45;&gt;Node29</title>
<path fill="none" stroke="midnightblue" d="M815.94,-206.73C817.31,-196 819.2,-181.19 820.7,-169.46"/>
<polygon fill="midnightblue" stroke="midnightblue" points="824.19,-169.76 821.98,-159.39 817.24,-168.87 824.19,-169.76"/>
</g>
<!-- Node30 -->
<g id="node30" class="node">
<title>Node30</title>
<g id="a_node30"><a xlink:title=" ">
<polygon fill="white" stroke="#bfbfbf" points="865.12,-134.5 865.12,-164.5 1011.12,-164.5 1011.12,-134.5 865.12,-134.5"/>
<text text-anchor="start" x="873.12" y="-152.5" font-family="Helvetica,sans-Serif" font-size="10.00">packages/exceptions</text>
<text text-anchor="middle" x="938.12" y="-141.5" font-family="Helvetica,sans-Serif" font-size="10.00">/impl/exceptions_impl.hpp</text>
</a>
</g>
</g>
<!-- Node27&#45;&gt;Node30 -->
<g id="edge36" class="edge">
<title>Node27&#45;&gt;Node30</title>
<path fill="none" stroke="midnightblue" d="M838.91,-206.9C857.75,-196.19 883.86,-181.35 904.57,-169.57"/>
<polygon fill="midnightblue" stroke="midnightblue" points="906.4,-172.56 913.37,-164.57 902.94,-166.47 906.4,-172.56"/>
</g>
<!-- Node31&#45;&gt;Node10 -->
<g id="edge39" class="edge">
<title>Node31&#45;&gt;Node10</title>
<path fill="none" stroke="midnightblue" d="M795.14,-284.78C780.46,-274.24 760.91,-259 746.12,-243 717.66,-212.23 712.11,-202.36 693.12,-165 678.78,-136.8 676.24,-128.82 669.12,-98 664.75,-79.07 662.48,-57.15 661.31,-40.82"/>
<polygon fill="midnightblue" stroke="midnightblue" points="664.79,-40.27 660.67,-30.51 657.8,-40.71 664.79,-40.27"/>
</g>
<!-- Node31&#45;&gt;Node18 -->
<g id="edge41" class="edge">
<title>Node31&#45;&gt;Node18</title>
<path fill="none" stroke="midnightblue" d="M756.53,-294.58C618.9,-284.16 289.14,-257.78 270.12,-243 247.33,-225.3 239.81,-190.76 237.33,-169.26"/>
<polygon fill="midnightblue" stroke="midnightblue" points="240.8,-168.76 236.43,-159.11 233.83,-169.38 240.8,-168.76"/>
</g>
<!-- Node31&#45;&gt;Node27 -->
<g id="edge38" class="edge">
<title>Node31&#45;&gt;Node27</title>
<path fill="none" stroke="midnightblue" d="M815.74,-284.7C815.47,-274.2 815.08,-259.66 814.76,-247.33"/>
<polygon fill="midnightblue" stroke="midnightblue" points="818.25,-247.14 814.49,-237.23 811.26,-247.32 818.25,-247.14"/>
</g>
<!-- Node31&#45;&gt;Node32 -->
<g id="edge40" class="edge">
<title>Node31&#45;&gt;Node32</title>
<path fill="none" stroke="midnightblue" d="M842.49,-284.88C868.38,-271.03 907.58,-250.05 933.02,-236.43"/>
<polygon fill="midnightblue" stroke="midnightblue" points="934.87,-239.41 942.04,-231.61 931.57,-233.24 934.87,-239.41"/>
</g>
<!-- Node33&#45;&gt;Node13 -->
<g id="edge45" class="edge">
<title>Node33&#45;&gt;Node13</title>
<path fill="none" stroke="midnightblue" d="M1159.7,-290.4C1157.83,-262.59 1147.91,-174.51 1096.12,-134 1039.77,-89.92 816.76,-84.09 732.55,-83.49"/>
<polygon fill="midnightblue" stroke="midnightblue" points="732.32,-79.99 722.3,-83.44 732.28,-86.99 732.32,-79.99"/>
</g>
<!-- Node33&#45;&gt;Node34 -->
<g id="edge44" class="edge">
<title>Node33&#45;&gt;Node34</title>
<path fill="none" stroke="midnightblue" d="M1168.49,-290.28C1180.48,-277.8 1202.75,-254.62 1217.75,-239"/>
<polygon fill="midnightblue" stroke="midnightblue" points="1220.44,-241.25 1224.84,-231.62 1215.39,-236.4 1220.44,-241.25"/>
</g>
<!-- Node35&#45;&gt;Node7 -->
<g id="edge48" class="edge">
<title>Node35&#45;&gt;Node7</title>
<path fill="none" stroke="midnightblue" d="M85.12,-284.7C85.12,-275.71 85.12,-263.77 85.12,-252.79"/>
<polygon fill="midnightblue" stroke="midnightblue" points="88.62,-252.68 85.12,-242.68 81.62,-252.68 88.62,-252.68"/>
</g>
<!-- Node35&#45;&gt;Node14 -->
<g id="edge49" class="edge">
<title>Node35&#45;&gt;Node14</title>
<path fill="none" stroke="midnightblue" d="M54.61,-284.95C38.19,-275.59 19.44,-261.59 10.12,-243 -13.52,-195.86 12.05,-132.06 27.35,-101.4"/>
<polygon fill="midnightblue" stroke="midnightblue" points="30.55,-102.84 32.06,-92.35 24.34,-99.6 30.55,-102.84"/>
</g>
<!-- Node37 -->
<g id="node37" class="node">
<title>Node37</title>
<g id="a_node37"><a xlink:href="STLContainerBase_8hpp.html" target="_top" xlink:title=" ">
<polygon fill="white" stroke="black" points="690.12,-502.5 690.12,-532.5 836.12,-532.5 836.12,-502.5 690.12,-502.5"/>
<text text-anchor="start" x="698.12" y="-520.5" font-family="Helvetica,sans-Serif" font-size="10.00">packages/stl_extension</text>
<text text-anchor="middle" x="763.12" y="-509.5" font-family="Helvetica,sans-Serif" font-size="10.00">/inc/STLContainerBase.hpp</text>
</a>
</g>
</g>
<!-- Node36&#45;&gt;Node37 -->
<g id="edge51" class="edge">
<title>Node36&#45;&gt;Node37</title>
<path fill="none" stroke="midnightblue" d="M832.81,-569.4C820.44,-560.37 804.21,-548.51 790.53,-538.52"/>
<polygon fill="midnightblue" stroke="midnightblue" points="792.53,-535.65 782.39,-532.58 788.4,-541.3 792.53,-535.65"/>
</g>
<!-- Node42 -->
<g id="node42" class="node">
<title>Node42</title>
<g id="a_node42"><a xlink:title=" ">
<polygon fill="white" stroke="#bfbfbf" points="854.12,-508 854.12,-527 896.12,-527 896.12,-508 854.12,-508"/>
<text text-anchor="middle" x="875.12" y="-515" font-family="Helvetica,sans-Serif" font-size="10.00">array</text>
</a>
</g>
</g>
<!-- Node36&#45;&gt;Node42 -->
<g id="edge63" class="edge">
<title>Node36&#45;&gt;Node42</title>
<path fill="none" stroke="midnightblue" d="M857.11,-569.4C860.48,-559.86 864.97,-547.18 868.62,-536.86"/>
<polygon fill="midnightblue" stroke="midnightblue" points="872.01,-537.79 872.04,-527.19 865.41,-535.45 872.01,-537.79"/>
</g>
<!-- Node37&#45;&gt;Node5 -->
<g id="edge52" class="edge">
<title>Node37&#45;&gt;Node5</title>
<path fill="none" stroke="midnightblue" d="M689.97,-504.25C659.16,-496.68 624.06,-484.71 596.12,-466 573.6,-450.92 554.61,-426.57 541.95,-407.46"/>
<polygon fill="midnightblue" stroke="midnightblue" points="544.76,-405.37 536.42,-398.84 538.87,-409.14 544.76,-405.37"/>
</g>
<!-- Node37&#45;&gt;Node8 -->
<g id="edge55" class="edge">
<title>Node37&#45;&gt;Node8</title>
<path fill="none" stroke="midnightblue" d="M689.86,-504.22C667.38,-496.82 644.74,-484.98 630.12,-466 557.82,-372.19 676.81,-292.91 602.12,-201 579.94,-173.71 542.92,-160.99 510.39,-155.13"/>
<polygon fill="midnightblue" stroke="midnightblue" points="510.89,-151.66 500.46,-153.52 509.78,-158.57 510.89,-151.66"/>
</g>
<!-- Node37&#45;&gt;Node31 -->
<g id="edge56" class="edge">
<title>Node37&#45;&gt;Node31</title>
<path fill="none" stroke="midnightblue" d="M814.26,-502.43C832.29,-494.74 850.66,-483.16 861.12,-466 888.95,-420.35 855.36,-357.28 832.99,-323.89"/>
<polygon fill="midnightblue" stroke="midnightblue" points="835.61,-321.52 827.04,-315.29 829.86,-325.51 835.61,-321.52"/>
</g>
<!-- Node38 -->
<g id="node38" class="node">
<title>Node38</title>
<g id="a_node38"><a xlink:href="typedefs_8hpp.html" target="_top" xlink:title=" ">
<polygon fill="white" stroke="black" points="974.62,-435.5 974.62,-465.5 1093.62,-465.5 1093.62,-435.5 974.62,-435.5"/>
<text text-anchor="start" x="982.62" y="-453.5" font-family="Helvetica,sans-Serif" font-size="10.00">packages/macros/inc</text>
<text text-anchor="middle" x="1034.12" y="-442.5" font-family="Helvetica,sans-Serif" font-size="10.00">/typedefs.hpp</text>
</a>
</g>
</g>
<!-- Node37&#45;&gt;Node38 -->
<g id="edge53" class="edge">
<title>Node37&#45;&gt;Node38</title>
<path fill="none" stroke="midnightblue" d="M821.59,-502.48C863.83,-492.34 921.02,-478.63 965.44,-467.97"/>
<polygon fill="midnightblue" stroke="midnightblue" points="966.38,-471.35 975.29,-465.61 964.75,-464.54 966.38,-471.35"/>
</g>
<!-- Node39 -->
<g id="node39" class="node">
<title>Node39</title>
<g id="a_node39"><a xlink:href="resize_8hpp.html" target="_top" xlink:title=" ">
<polygon fill="white" stroke="black" points="638.62,-435.5 638.62,-465.5 769.62,-465.5 769.62,-435.5 638.62,-435.5"/>
<text text-anchor="start" x="646.62" y="-453.5" font-family="Helvetica,sans-Serif" font-size="10.00">packages/stl_extension</text>
<text text-anchor="middle" x="704.12" y="-442.5" font-family="Helvetica,sans-Serif" font-size="10.00">/inc/resize.hpp</text>
</a>
</g>
</g>
<!-- Node37&#45;&gt;Node39 -->
<g id="edge57" class="edge">
<title>Node37&#45;&gt;Node39</title>
<path fill="none" stroke="midnightblue" d="M750.32,-502.4C742.58,-493.88 732.57,-482.85 723.85,-473.23"/>
<polygon fill="midnightblue" stroke="midnightblue" points="726.21,-470.63 716.9,-465.58 721.02,-475.33 726.21,-470.63"/>
</g>
<!-- Node41 -->
<g id="node41" class="node">
<title>Node41</title>
<g id="a_node41"><a xlink:title=" ">
<polygon fill="white" stroke="#bfbfbf" points="788.12,-441 788.12,-460 852.12,-460 852.12,-441 788.12,-441"/>
<text text-anchor="middle" x="820.12" y="-448" font-family="Helvetica,sans-Serif" font-size="10.00">algorithm</text>
</a>
</g>
</g>
<!-- Node37&#45;&gt;Node41 -->
<g id="edge62" class="edge">
<title>Node37&#45;&gt;Node41</title>
<path fill="none" stroke="midnightblue" d="M775.49,-502.4C784.37,-492.26 796.38,-478.57 805.7,-467.94"/>
<polygon fill="midnightblue" stroke="midnightblue" points="808.53,-470.02 812.49,-460.19 803.27,-465.41 808.53,-470.02"/>
</g>
<!-- Node38&#45;&gt;Node25 -->
<g id="edge54" class="edge">
<title>Node38&#45;&gt;Node25</title>
<path fill="none" stroke="midnightblue" d="M1035.24,-435.48C1039.15,-386.76 1052.16,-224.77 1056.61,-169.31"/>
<polygon fill="midnightblue" stroke="midnightblue" points="1060.11,-169.42 1057.42,-159.17 1053.13,-168.86 1060.11,-169.42"/>
</g>
<!-- Node39&#45;&gt;Node5 -->
<g id="edge59" class="edge">
<title>Node39&#45;&gt;Node5</title>
<path fill="none" stroke="midnightblue" d="M668.33,-435.4C644.32,-425.95 612.14,-413.27 584.37,-402.34"/>
<polygon fill="midnightblue" stroke="midnightblue" points="585.33,-398.95 574.75,-398.55 582.77,-405.47 585.33,-398.95"/>
</g>
<!-- Node39&#45;&gt;Node8 -->
<g id="edge60" class="edge">
<title>Node39&#45;&gt;Node8</title>
<path fill="none" stroke="midnightblue" d="M695.57,-435.37C689.91,-425.48 682.72,-411.81 678.12,-399 647.69,-314.24 697.32,-266.12 635.12,-201 617.9,-182.97 558.44,-169.07 510.57,-160.46"/>
<polygon fill="midnightblue" stroke="midnightblue" points="511.01,-156.98 500.55,-158.7 509.8,-163.88 511.01,-156.98"/>
</g>
<!-- Node39&#45;&gt;Node26 -->
<g id="edge58" class="edge">
<title>Node39&#45;&gt;Node26</title>
<path fill="none" stroke="midnightblue" d="M752.22,-435.49C791.27,-424.11 846.47,-408.03 887.99,-395.93"/>
<polygon fill="midnightblue" stroke="midnightblue" points="889.07,-399.26 897.69,-393.11 887.11,-392.54 889.07,-399.26"/>
</g>
<!-- Node40 -->
<g id="node40" class="node">
<title>Node40</title>
<g id="a_node40"><a xlink:title=" ">
<polygon fill="white" stroke="#bfbfbf" points="687.12,-368.5 687.12,-387.5 739.12,-387.5 739.12,-368.5 687.12,-368.5"/>
<text text-anchor="middle" x="713.12" y="-375.5" font-family="Helvetica,sans-Serif" font-size="10.00">cassert</text>
</a>
</g>
</g>
<!-- Node39&#45;&gt;Node40 -->
<g id="edge61" class="edge">
<title>Node39&#45;&gt;Node40</title>
<path fill="none" stroke="midnightblue" d="M705.94,-435.23C707.31,-424.5 709.2,-409.69 710.7,-397.96"/>
<polygon fill="midnightblue" stroke="midnightblue" points="714.19,-398.26 711.98,-387.89 707.24,-397.37 714.19,-398.26"/>
</g>
</g>
</svg>
