<?xml version="1.0" encoding="UTF-8" standalone="no"?>
<!DOCTYPE svg PUBLIC "-//W3C//DTD SVG 1.1//EN"
 "http://www.w3.org/Graphics/SVG/1.1/DTD/svg11.dtd">
<!-- Generated by graphviz version 2.43.0 (0)
 -->
<!-- Title: json.hpp Pages: 1 -->
<svg width="1197pt" height="654pt"
 viewBox="0.00 0.00 1197.00 654.00" xmlns="http://www.w3.org/2000/svg" xmlns:xlink="http://www.w3.org/1999/xlink">
<g id="graph0" class="graph" transform="scale(1 1) rotate(0) translate(4 650)">
<title>json.hpp</title>
<!-- Node1 -->
<g id="Node000001" class="node">
<title>Node1</title>
<g id="a_Node000001"><a xlink:title=" ">
<polygon fill="#999999" stroke="#666666" points="756,-646 698,-646 698,-627 756,-627 756,-646"/>
<text text-anchor="middle" x="727" y="-634" font-family="Helvetica,sans-Serif" font-size="10.00">json.hpp</text>
</a>
</g>
</g>
<!-- Node2 -->
<g id="Node000002" class="node">
<title>Node2</title>
<g id="a_Node000002"><a xlink:title=" ">
<polygon fill="#e0e0e0" stroke="#999999" points="132,-585.5 0,-585.5 0,-566.5 132,-566.5 132,-585.5"/>
<text text-anchor="middle" x="66" y="-573.5" font-family="Helvetica,sans-Serif" font-size="10.00">nlohmann/json_fwd.hpp</text>
</a>
</g>
</g>
<!-- Node1&#45;&gt;Node2 -->
<g id="edge1_Node000001_Node000002" class="edge">
<title>Node1&#45;&gt;Node2</title>
<g id="a_edge1_Node000001_Node000002"><a xlink:title=" ">
<path fill="none" stroke="#63b8ff" d="M697.98,-634.38C612.5,-630.87 354.37,-618.56 142,-591 134.14,-589.98 125.86,-588.69 117.78,-587.3"/>
<polygon fill="#63b8ff" stroke="#63b8ff" points="118.15,-583.81 107.69,-585.5 116.92,-590.7 118.15,-583.81"/>
</a>
</g>
</g>
<!-- Node3 -->
<g id="Node000003" class="node">
<title>Node3</title>
<g id="a_Node000003"><a xlink:href="RuntimeConst_8hpp.html" target="_top" xlink:title=" ">
<polygon fill="white" stroke="#666666" points="281.5,-591 150.5,-591 150.5,-561 281.5,-561 281.5,-591"/>
<text text-anchor="start" x="158.5" y="-579" font-family="Helvetica,sans-Serif" font-size="10.00">packages/stl_extension</text>
<text text-anchor="middle" x="216" y="-568" font-family="Helvetica,sans-Serif" font-size="10.00">/inc/RuntimeConst.hpp</text>
</a>
</g>
</g>
<!-- Node1&#45;&gt;Node3 -->
<g id="edge2_Node000001_Node000003" class="edge">
<title>Node1&#45;&gt;Node3</title>
<g id="a_edge2_Node000001_Node000003"><a xlink:title=" ">
<path fill="none" stroke="#63b8ff" d="M697.91,-633.21C628.29,-627.57 446.69,-611.94 296,-591 294.7,-590.82 293.4,-590.63 292.08,-590.44"/>
<polygon fill="#63b8ff" stroke="#63b8ff" points="292.27,-586.93 281.86,-588.9 291.23,-593.86 292.27,-586.93"/>
</a>
</g>
</g>
<!-- Node5 -->
<g id="Node000005" class="node">
<title>Node5</title>
<g id="a_Node000005"><a xlink:href="container__concepts_8hpp.html" target="_top" xlink:title=" ">
<polygon fill="white" stroke="#666666" points="903.5,-393 768.5,-393 768.5,-352 903.5,-352 903.5,-393"/>
<text text-anchor="start" x="776.5" y="-381" font-family="Helvetica,sans-Serif" font-size="10.00">packages/compile_time</text>
<text text-anchor="start" x="776.5" y="-370" font-family="Helvetica,sans-Serif" font-size="10.00">/packages/concepts/inc</text>
<text text-anchor="middle" x="836" y="-359" font-family="Helvetica,sans-Serif" font-size="10.00">/container_concepts.hpp</text>
</a>
</g>
</g>
<!-- Node1&#45;&gt;Node5 -->
<g id="edge4_Node000001_Node000005" class="edge">
<title>Node1&#45;&gt;Node5</title>
<g id="a_edge4_Node000001_Node000005"><a xlink:title=" ">
<path fill="none" stroke="#63b8ff" d="M734.79,-626.63C764.89,-592.26 872.21,-469.36 876,-459 880.58,-446.48 880.1,-441.69 876,-429 872.8,-419.08 867.09,-409.44 860.97,-401.06"/>
<polygon fill="#63b8ff" stroke="#63b8ff" points="863.7,-398.86 854.8,-393.12 858.18,-403.16 863.7,-398.86"/>
</a>
</g>
</g>
<!-- Node26 -->
<g id="Node000026" class="node">
<title>Node26</title>
<g id="a_Node000026"><a xlink:href="checks_8hpp.html" target="_top" xlink:title=" ">
<polygon fill="white" stroke="#666666" points="457.5,-387.5 338.5,-387.5 338.5,-357.5 457.5,-357.5 457.5,-387.5"/>
<text text-anchor="start" x="346.5" y="-375.5" font-family="Helvetica,sans-Serif" font-size="10.00">packages/macros/inc</text>
<text text-anchor="middle" x="398" y="-364.5" font-family="Helvetica,sans-Serif" font-size="10.00">/checks.hpp</text>
</a>
</g>
</g>
<!-- Node1&#45;&gt;Node26 -->
<g id="edge29_Node000001_Node000026" class="edge">
<title>Node1&#45;&gt;Node26</title>
<g id="a_edge29_Node000001_Node000026"><a xlink:title=" ">
<path fill="none" stroke="#63b8ff" d="M697.96,-628C635.66,-610.28 489.18,-559.53 420,-459 407.49,-440.83 402.1,-416.06 399.77,-397.86"/>
<polygon fill="#63b8ff" stroke="#63b8ff" points="403.23,-397.32 398.7,-387.75 396.27,-398.06 403.23,-397.32"/>
</a>
</g>
</g>
<!-- Node34 -->
<g id="Node000034" class="node">
<title>Node34</title>
<g id="a_Node000034"><a xlink:href="modifiers_8hpp.html" target="_top" xlink:title=" ">
<polygon fill="white" stroke="#666666" points="260,-310.5 150,-310.5 150,-280.5 260,-280.5 260,-310.5"/>
<text text-anchor="start" x="158" y="-298.5" font-family="Helvetica,sans-Serif" font-size="10.00">packages/types/inc</text>
<text text-anchor="middle" x="205" y="-287.5" font-family="Helvetica,sans-Serif" font-size="10.00">/modifiers.hpp</text>
</a>
</g>
</g>
<!-- Node1&#45;&gt;Node34 -->
<g id="edge45_Node000001_Node000034" class="edge">
<title>Node1&#45;&gt;Node34</title>
<g id="a_edge45_Node000001_Node000034"><a xlink:title=" ">
<path fill="none" stroke="#63b8ff" d="M697.68,-633.13C602.76,-624.68 310,-592.03 310,-511 310,-511 310,-511 310,-443 310,-389.86 263.79,-342.75 232.68,-317.06"/>
<polygon fill="#63b8ff" stroke="#63b8ff" points="234.74,-314.22 224.75,-310.7 230.36,-319.68 234.74,-314.22"/>
</a>
</g>
</g>
<!-- Node35 -->
<g id="Node000035" class="node">
<title>Node35</title>
<g id="a_Node000035"><a xlink:href="StaticArray_8hpp.html" target="_top" xlink:title=" ">
<polygon fill="white" stroke="#666666" points="745.5,-591 614.5,-591 614.5,-561 745.5,-561 745.5,-591"/>
<text text-anchor="start" x="622.5" y="-579" font-family="Helvetica,sans-Serif" font-size="10.00">packages/stl_extension</text>
<text text-anchor="middle" x="680" y="-568" font-family="Helvetica,sans-Serif" font-size="10.00">/inc/StaticArray.hpp</text>
</a>
</g>
</g>
<!-- Node1&#45;&gt;Node35 -->
<g id="edge48_Node000001_Node000035" class="edge">
<title>Node1&#45;&gt;Node35</title>
<g id="a_edge48_Node000001_Node000035"><a xlink:title=" ">
<path fill="none" stroke="#63b8ff" d="M720.06,-626.87C714.22,-619.59 705.59,-608.85 697.84,-599.2"/>
<polygon fill="#63b8ff" stroke="#63b8ff" points="700.33,-596.72 691.34,-591.11 694.87,-601.1 700.33,-596.72"/>
</a>
</g>
</g>
<!-- Node42 -->
<g id="Node000042" class="node">
<title>Node42</title>
<g id="a_Node000042"><a xlink:title=" ">
<polygon fill="#e0e0e0" stroke="#999999" points="856,-585.5 802,-585.5 802,-566.5 856,-566.5 856,-585.5"/>
<text text-anchor="middle" x="829" y="-573.5" font-family="Helvetica,sans-Serif" font-size="10.00">istream</text>
</a>
</g>
</g>
<!-- Node1&#45;&gt;Node42 -->
<g id="edge62_Node000001_Node000042" class="edge">
<title>Node1&#45;&gt;Node42</title>
<g id="a_edge62_Node000001_Node000042"><a xlink:title=" ">
<path fill="none" stroke="#63b8ff" d="M742.05,-626.87C758.62,-617.36 785.5,-601.95 804.99,-590.77"/>
<polygon fill="#63b8ff" stroke="#63b8ff" points="806.95,-593.68 813.89,-585.67 803.47,-587.61 806.95,-593.68"/>
</a>
</g>
</g>
<!-- Node43 -->
<g id="Node000043" class="node">
<title>Node43</title>
<g id="a_Node000043"><a xlink:title=" ">
<polygon fill="#e0e0e0" stroke="#999999" points="931.5,-585.5 874.5,-585.5 874.5,-566.5 931.5,-566.5 931.5,-585.5"/>
<text text-anchor="middle" x="903" y="-573.5" font-family="Helvetica,sans-Serif" font-size="10.00">ostream</text>
</a>
</g>
</g>
<!-- Node1&#45;&gt;Node43 -->
<g id="edge63_Node000001_Node000043" class="edge">
<title>Node1&#45;&gt;Node43</title>
<g id="a_edge63_Node000001_Node000043"><a xlink:title=" ">
<path fill="none" stroke="#63b8ff" d="M754.6,-626.97C782.54,-618.24 826.93,-604.15 865,-591 866.84,-590.36 868.74,-589.7 870.64,-589.02"/>
<polygon fill="#63b8ff" stroke="#63b8ff" points="871.93,-592.28 880.15,-585.59 869.55,-585.7 871.93,-592.28"/>
</a>
</g>
</g>
<!-- Node44 -->
<g id="Node000044" class="node">
<title>Node44</title>
<g id="a_Node000044"><a xlink:title=" ">
<polygon fill="#e0e0e0" stroke="#999999" points="1018,-585.5 950,-585.5 950,-566.5 1018,-566.5 1018,-585.5"/>
<text text-anchor="middle" x="984" y="-573.5" font-family="Helvetica,sans-Serif" font-size="10.00">filesystem</text>
</a>
</g>
</g>
<!-- Node1&#45;&gt;Node44 -->
<g id="edge64_Node000001_Node000044" class="edge">
<title>Node1&#45;&gt;Node44</title>
<g id="a_edge64_Node000001_Node000044"><a xlink:title=" ">
<path fill="none" stroke="#63b8ff" d="M756.31,-630.46C797.76,-623.09 875.72,-608.36 941,-591 943.77,-590.26 946.63,-589.45 949.5,-588.6"/>
<polygon fill="#63b8ff" stroke="#63b8ff" points="950.61,-591.92 959.13,-585.61 948.54,-585.23 950.61,-591.92"/>
</a>
</g>
</g>
<!-- Node45 -->
<g id="Node000045" class="node">
<title>Node45</title>
<g id="a_Node000045"><a xlink:title=" ">
<polygon fill="#e0e0e0" stroke="#999999" points="1158,-591 1036,-591 1036,-561 1158,-561 1158,-591"/>
<text text-anchor="start" x="1044" y="-579" font-family="Helvetica,sans-Serif" font-size="10.00">packages/io/impl/json</text>
<text text-anchor="middle" x="1097" y="-568" font-family="Helvetica,sans-Serif" font-size="10.00">_impl.hpp</text>
</a>
</g>
</g>
<!-- Node1&#45;&gt;Node45 -->
<g id="edge65_Node000001_Node000045" class="edge">
<title>Node1&#45;&gt;Node45</title>
<g id="a_edge65_Node000001_Node000045"><a xlink:title=" ">
<path fill="none" stroke="#63b8ff" d="M756.04,-631.69C808.01,-624.75 920.6,-609.25 1025.8,-591.16"/>
<polygon fill="#63b8ff" stroke="#63b8ff" points="1026.69,-594.55 1035.95,-589.4 1025.5,-587.66 1026.69,-594.55"/>
</a>
</g>
</g>
<!-- Node4 -->
<g id="Node000004" class="node">
<title>Node4</title>
<g id="a_Node000004"><a xlink:title=" ">
<polygon fill="#e0e0e0" stroke="#999999" points="281.5,-525 120.5,-525 120.5,-495 281.5,-495 281.5,-525"/>
<text text-anchor="start" x="128.5" y="-513" font-family="Helvetica,sans-Serif" font-size="10.00">packages/stl_extension</text>
<text text-anchor="middle" x="201" y="-502" font-family="Helvetica,sans-Serif" font-size="10.00">/impl/RuntimeConst_impl.hpp</text>
</a>
</g>
</g>
<!-- Node3&#45;&gt;Node4 -->
<g id="edge3_Node000003_Node000004" class="edge">
<title>Node3&#45;&gt;Node4</title>
<g id="a_edge3_Node000003_Node000004"><a xlink:title=" ">
<path fill="none" stroke="#63b8ff" d="M212.67,-560.8C210.9,-553.26 208.68,-543.78 206.66,-535.13"/>
<polygon fill="#63b8ff" stroke="#63b8ff" points="210.01,-534.1 204.32,-525.16 203.19,-535.7 210.01,-534.1"/>
</a>
</g>
</g>
<!-- Node6 -->
<g id="Node000006" class="node">
<title>Node6</title>
<g id="a_Node000006"><a xlink:href="iterator__concepts_8hpp.html" target="_top" xlink:title=" ">
<polygon fill="white" stroke="#666666" points="983,-316 851,-316 851,-275 983,-275 983,-316"/>
<text text-anchor="start" x="859" y="-304" font-family="Helvetica,sans-Serif" font-size="10.00">packages/compile_time</text>
<text text-anchor="start" x="859" y="-293" font-family="Helvetica,sans-Serif" font-size="10.00">/packages/concepts/inc</text>
<text text-anchor="middle" x="917" y="-282" font-family="Helvetica,sans-Serif" font-size="10.00">/iterator_concepts.hpp</text>
</a>
</g>
</g>
<!-- Node5&#45;&gt;Node6 -->
<g id="edge5_Node000005_Node000006" class="edge">
<title>Node5&#45;&gt;Node6</title>
<g id="a_edge5_Node000005_Node000006"><a xlink:title=" ">
<path fill="none" stroke="#63b8ff" d="M857.28,-351.79C866.77,-343.01 878.09,-332.53 888.31,-323.07"/>
<polygon fill="#63b8ff" stroke="#63b8ff" points="890.9,-325.44 895.86,-316.07 886.14,-320.3 890.9,-325.44"/>
</a>
</g>
</g>
<!-- Node7 -->
<g id="Node000007" class="node">
<title>Node7</title>
<g id="a_Node000007"><a xlink:href="basic__concepts_8hpp.html" target="_top" xlink:title=" ">
<polygon fill="white" stroke="#666666" points="283,-239 151,-239 151,-198 283,-198 283,-239"/>
<text text-anchor="start" x="159" y="-227" font-family="Helvetica,sans-Serif" font-size="10.00">packages/compile_time</text>
<text text-anchor="start" x="159" y="-216" font-family="Helvetica,sans-Serif" font-size="10.00">/packages/concepts/inc</text>
<text text-anchor="middle" x="217" y="-205" font-family="Helvetica,sans-Serif" font-size="10.00">/basic_concepts.hpp</text>
</a>
</g>
</g>
<!-- Node6&#45;&gt;Node7 -->
<g id="edge6_Node000006_Node000007" class="edge">
<title>Node6&#45;&gt;Node7</title>
<g id="a_edge6_Node000006_Node000007"><a xlink:title=" ">
<path fill="none" stroke="#63b8ff" d="M850.89,-288.69C746.49,-279.35 537.1,-259.89 360,-239 338.3,-236.44 314.8,-233.36 293.23,-230.42"/>
<polygon fill="#63b8ff" stroke="#63b8ff" points="293.53,-226.92 283.15,-229.03 292.58,-233.86 293.53,-226.92"/>
</a>
</g>
</g>
<!-- Node21 -->
<g id="Node000021" class="node">
<title>Node21</title>
<g id="a_Node000021"><a xlink:href="Size_8hpp.html" target="_top" xlink:title=" ">
<polygon fill="white" stroke="#666666" points="1132,-239 984,-239 984,-198 1132,-198 1132,-239"/>
<text text-anchor="start" x="992" y="-227" font-family="Helvetica,sans-Serif" font-size="10.00">packages/compile_time</text>
<text text-anchor="start" x="992" y="-216" font-family="Helvetica,sans-Serif" font-size="10.00">/packages/parameter_pack</text>
<text text-anchor="middle" x="1058" y="-205" font-family="Helvetica,sans-Serif" font-size="10.00">/inc/Size.hpp</text>
</a>
</g>
</g>
<!-- Node6&#45;&gt;Node21 -->
<g id="edge21_Node000006_Node000021" class="edge">
<title>Node6&#45;&gt;Node21</title>
<g id="a_edge21_Node000006_Node000021"><a xlink:title=" ">
<path fill="none" stroke="#63b8ff" d="M953.68,-274.99C971.49,-265.52 993.07,-254.03 1011.98,-243.98"/>
<polygon fill="#63b8ff" stroke="#63b8ff" points="1013.83,-246.96 1021.02,-239.17 1010.54,-240.78 1013.83,-246.96"/>
</a>
</g>
</g>
<!-- Node22 -->
<g id="Node000022" class="node">
<title>Node22</title>
<g id="a_Node000022"><a xlink:href="Select_8hpp.html" target="_top" xlink:title=" ">
<polygon fill="white" stroke="#666666" points="856,-239 708,-239 708,-198 856,-198 856,-239"/>
<text text-anchor="start" x="716" y="-227" font-family="Helvetica,sans-Serif" font-size="10.00">packages/compile_time</text>
<text text-anchor="start" x="716" y="-216" font-family="Helvetica,sans-Serif" font-size="10.00">/packages/parameter_pack</text>
<text text-anchor="middle" x="782" y="-205" font-family="Helvetica,sans-Serif" font-size="10.00">/inc/Select.hpp</text>
</a>
</g>
</g>
<!-- Node6&#45;&gt;Node22 -->
<g id="edge23_Node000006_Node000022" class="edge">
<title>Node6&#45;&gt;Node22</title>
<g id="a_edge23_Node000006_Node000022"><a xlink:title=" ">
<path fill="none" stroke="#63b8ff" d="M881.88,-274.99C864.98,-265.6 844.54,-254.24 826.56,-244.25"/>
<polygon fill="#63b8ff" stroke="#63b8ff" points="827.85,-240.97 817.41,-239.17 824.45,-247.09 827.85,-240.97"/>
</a>
</g>
</g>
<!-- Node24 -->
<g id="Node000024" class="node">
<title>Node24</title>
<g id="a_Node000024"><a xlink:title=" ">
<polygon fill="#e0e0e0" stroke="#999999" points="965.5,-228 912.5,-228 912.5,-209 965.5,-209 965.5,-228"/>
<text text-anchor="middle" x="939" y="-216" font-family="Helvetica,sans-Serif" font-size="10.00">iterator</text>
</a>
</g>
</g>
<!-- Node6&#45;&gt;Node24 -->
<g id="edge27_Node000006_Node000024" class="edge">
<title>Node6&#45;&gt;Node24</title>
<g id="a_edge27_Node000006_Node000024"><a xlink:title=" ">
<path fill="none" stroke="#63b8ff" d="M922.78,-274.79C926.1,-263.47 930.25,-249.32 933.52,-238.17"/>
<polygon fill="#63b8ff" stroke="#63b8ff" points="936.98,-238.82 936.44,-228.24 930.26,-236.85 936.98,-238.82"/>
</a>
</g>
</g>
<!-- Node25 -->
<g id="Node000025" class="node">
<title>Node25</title>
<g id="a_Node000025"><a xlink:title=" ">
<polygon fill="#e0e0e0" stroke="#999999" points="1189,-156.5 1131,-156.5 1131,-137.5 1189,-137.5 1189,-156.5"/>
<text text-anchor="middle" x="1160" y="-144.5" font-family="Helvetica,sans-Serif" font-size="10.00">memory</text>
</a>
</g>
</g>
<!-- Node6&#45;&gt;Node25 -->
<g id="edge28_Node000006_Node000025" class="edge">
<title>Node6&#45;&gt;Node25</title>
<g id="a_edge28_Node000006_Node000025"><a xlink:title=" ">
<path fill="none" stroke="#63b8ff" d="M983.19,-285.97C1041.13,-277.14 1119.35,-261.47 1141,-239 1159.53,-219.77 1162.04,-187.39 1161.5,-166.88"/>
<polygon fill="#63b8ff" stroke="#63b8ff" points="1164.98,-166.42 1160.95,-156.62 1158,-166.8 1164.98,-166.42"/>
</a>
</g>
</g>
<!-- Node8 -->
<g id="Node000008" class="node">
<title>Node8</title>
<g id="a_Node000008"><a xlink:href="types_8hpp.html" target="_top" xlink:title=" ">
<polygon fill="white" stroke="#666666" points="796,-162 686,-162 686,-132 796,-132 796,-162"/>
<text text-anchor="start" x="694" y="-150" font-family="Helvetica,sans-Serif" font-size="10.00">packages/types/inc</text>
<text text-anchor="middle" x="741" y="-139" font-family="Helvetica,sans-Serif" font-size="10.00">/types.hpp</text>
</a>
</g>
</g>
<!-- Node7&#45;&gt;Node8 -->
<g id="edge7_Node000007_Node000008" class="edge">
<title>Node7&#45;&gt;Node8</title>
<g id="a_edge7_Node000007_Node000008"><a xlink:title=" ">
<path fill="none" stroke="#63b8ff" d="M283.17,-208.16C307.33,-204.83 334.89,-201.14 360,-198 497.4,-180.83 535.35,-184.97 675.63,-162.12"/>
<polygon fill="#63b8ff" stroke="#63b8ff" points="676.61,-165.5 685.91,-160.43 675.48,-158.6 676.61,-165.5"/>
</a>
</g>
</g>
<!-- Node14 -->
<g id="Node000014" class="node">
<title>Node14</title>
<g id="a_Node000014"><a xlink:title=" ">
<polygon fill="#e0e0e0" stroke="#999999" points="132.5,-90.5 63.5,-90.5 63.5,-71.5 132.5,-71.5 132.5,-90.5"/>
<text text-anchor="middle" x="98" y="-78.5" font-family="Helvetica,sans-Serif" font-size="10.00">type_traits</text>
</a>
</g>
</g>
<!-- Node7&#45;&gt;Node14 -->
<g id="edge18_Node000007_Node000014" class="edge">
<title>Node7&#45;&gt;Node14</title>
<g id="a_edge18_Node000007_Node000014"><a xlink:title=" ">
<path fill="none" stroke="#63b8ff" d="M163.18,-197.89C146.16,-189.27 128.76,-177.51 117,-162 103.49,-144.18 99.4,-118.2 98.26,-100.73"/>
<polygon fill="#63b8ff" stroke="#63b8ff" points="101.75,-100.51 97.87,-90.65 94.76,-100.78 101.75,-100.51"/>
</a>
</g>
</g>
<!-- Node18 -->
<g id="Node000018" class="node">
<title>Node18</title>
<g id="a_Node000018"><a xlink:title=" ">
<polygon fill="#e0e0e0" stroke="#999999" points="668,-156.5 608,-156.5 608,-137.5 668,-137.5 668,-156.5"/>
<text text-anchor="middle" x="638" y="-144.5" font-family="Helvetica,sans-Serif" font-size="10.00">concepts</text>
</a>
</g>
</g>
<!-- Node7&#45;&gt;Node18 -->
<g id="edge17_Node000007_Node000018" class="edge">
<title>Node7&#45;&gt;Node18</title>
<g id="a_edge17_Node000007_Node000018"><a xlink:title=" ">
<path fill="none" stroke="#63b8ff" d="M283.25,-208.23C388.55,-193.43 583.86,-165.78 599,-162 601.5,-161.38 604.07,-160.65 606.64,-159.87"/>
<polygon fill="#63b8ff" stroke="#63b8ff" points="607.99,-163.11 616.37,-156.63 605.78,-156.46 607.99,-163.11"/>
</a>
</g>
</g>
<!-- Node19 -->
<g id="Node000019" class="node">
<title>Node19</title>
<g id="a_Node000019"><a xlink:title=" ">
<polygon fill="#e0e0e0" stroke="#999999" points="176,-156.5 126,-156.5 126,-137.5 176,-137.5 176,-156.5"/>
<text text-anchor="middle" x="151" y="-144.5" font-family="Helvetica,sans-Serif" font-size="10.00">cstdint</text>
</a>
</g>
</g>
<!-- Node7&#45;&gt;Node19 -->
<g id="edge19_Node000007_Node000019" class="edge">
<title>Node7&#45;&gt;Node19</title>
<g id="a_edge19_Node000007_Node000019"><a xlink:title=" ">
<path fill="none" stroke="#63b8ff" d="M198.26,-197.77C188.16,-187.13 175.85,-174.16 166.32,-164.13"/>
<polygon fill="#63b8ff" stroke="#63b8ff" points="168.8,-161.66 159.38,-156.82 163.72,-166.48 168.8,-161.66"/>
</a>
</g>
</g>
<!-- Node20 -->
<g id="Node000020" class="node">
<title>Node20</title>
<g id="a_Node000020"><a xlink:title=" ">
<polygon fill="#e0e0e0" stroke="#999999" points="239.5,-156.5 194.5,-156.5 194.5,-137.5 239.5,-137.5 239.5,-156.5"/>
<text text-anchor="middle" x="217" y="-144.5" font-family="Helvetica,sans-Serif" font-size="10.00">utility</text>
</a>
</g>
</g>
<!-- Node7&#45;&gt;Node20 -->
<g id="edge20_Node000007_Node000020" class="edge">
<title>Node7&#45;&gt;Node20</title>
<g id="a_edge20_Node000007_Node000020"><a xlink:title=" ">
<path fill="none" stroke="#63b8ff" d="M217,-197.77C217,-188.08 217,-176.46 217,-166.88"/>
<polygon fill="#63b8ff" stroke="#63b8ff" points="220.5,-166.82 217,-156.82 213.5,-166.82 220.5,-166.82"/>
</a>
</g>
</g>
<!-- Node9 -->
<g id="Node000009" class="node">
<title>Node9</title>
<g id="a_Node000009"><a xlink:href="debug_8hpp.html" target="_top" xlink:title=" ">
<polygon fill="white" stroke="#666666" points="1031.5,-96 912.5,-96 912.5,-66 1031.5,-66 1031.5,-96"/>
<text text-anchor="start" x="920.5" y="-84" font-family="Helvetica,sans-Serif" font-size="10.00">packages/macros/inc</text>
<text text-anchor="middle" x="972" y="-73" font-family="Helvetica,sans-Serif" font-size="10.00">/debug.hpp</text>
</a>
</g>
</g>
<!-- Node8&#45;&gt;Node9 -->
<g id="edge8_Node000008_Node000009" class="edge">
<title>Node8&#45;&gt;Node9</title>
<g id="a_edge8_Node000008_Node000009"><a xlink:title=" ">
<path fill="none" stroke="#63b8ff" d="M791.69,-131.95C827.05,-122.16 874.38,-109.05 911.68,-98.71"/>
<polygon fill="#63b8ff" stroke="#63b8ff" points="912.72,-102.06 921.42,-96.01 910.85,-95.31 912.72,-102.06"/>
</a>
</g>
</g>
<!-- Node12 -->
<g id="Node000012" class="node">
<title>Node12</title>
<g id="a_Node000012"><a xlink:title=" ">
<polygon fill="#e0e0e0" stroke="#999999" points="514.5,-90.5 461.5,-90.5 461.5,-71.5 514.5,-71.5 514.5,-90.5"/>
<text text-anchor="middle" x="488" y="-78.5" font-family="Helvetica,sans-Serif" font-size="10.00">cstddef</text>
</a>
</g>
</g>
<!-- Node8&#45;&gt;Node12 -->
<g id="edge11_Node000008_Node000012" class="edge">
<title>Node8&#45;&gt;Node12</title>
<g id="a_edge11_Node000008_Node000012"><a xlink:title=" ">
<path fill="none" stroke="#63b8ff" d="M685.88,-133.73C626.81,-120.52 539.4,-100.74 524,-96 522.08,-95.41 520.11,-94.76 518.14,-94.08"/>
<polygon fill="#63b8ff" stroke="#63b8ff" points="518.97,-90.66 508.38,-90.51 516.57,-97.24 518.97,-90.66"/>
</a>
</g>
</g>
<!-- Node13 -->
<g id="Node000013" class="node">
<title>Node13</title>
<g id="a_Node000013"><a xlink:title=" ">
<polygon fill="#e0e0e0" stroke="#999999" points="440,-90.5 396,-90.5 396,-71.5 440,-71.5 440,-90.5"/>
<text text-anchor="middle" x="418" y="-78.5" font-family="Helvetica,sans-Serif" font-size="10.00">string</text>
</a>
</g>
</g>
<!-- Node8&#45;&gt;Node13 -->
<g id="edge12_Node000008_Node000013" class="edge">
<title>Node8&#45;&gt;Node13</title>
<g id="a_edge12_Node000008_Node000013"><a xlink:title=" ">
<path fill="none" stroke="#63b8ff" d="M685.88,-133.74C682.88,-133.13 679.91,-132.55 677,-132 577.93,-113.22 550.18,-122.89 453,-96 451.06,-95.46 449.08,-94.85 447.1,-94.2"/>
<polygon fill="#63b8ff" stroke="#63b8ff" points="447.95,-90.78 437.36,-90.63 445.55,-97.35 447.95,-90.78"/>
</a>
</g>
</g>
<!-- Node8&#45;&gt;Node14 -->
<g id="edge13_Node000008_Node000014" class="edge">
<title>Node8&#45;&gt;Node14</title>
<g id="a_edge13_Node000008_Node000014"><a xlink:title=" ">
<path fill="none" stroke="#63b8ff" d="M685.93,-133.48C682.91,-132.94 679.92,-132.44 677,-132 479.22,-101.96 240.48,-88.46 142.87,-83.9"/>
<polygon fill="#63b8ff" stroke="#63b8ff" points="142.92,-80.4 132.77,-83.43 142.6,-87.39 142.92,-80.4"/>
</a>
</g>
</g>
<!-- Node15 -->
<g id="Node000015" class="node">
<title>Node15</title>
<g id="a_Node000015"><a xlink:title=" ">
<polygon fill="#e0e0e0" stroke="#999999" points="583,-90.5 533,-90.5 533,-71.5 583,-71.5 583,-90.5"/>
<text text-anchor="middle" x="558" y="-78.5" font-family="Helvetica,sans-Serif" font-size="10.00">climits</text>
</a>
</g>
</g>
<!-- Node8&#45;&gt;Node15 -->
<g id="edge14_Node000008_Node000015" class="edge">
<title>Node8&#45;&gt;Node15</title>
<g id="a_edge14_Node000008_Node000015"><a xlink:title=" ">
<path fill="none" stroke="#63b8ff" d="M697.39,-131.96C667.8,-122.27 627.86,-108.85 593,-96 591.58,-95.48 590.13,-94.93 588.67,-94.38"/>
<polygon fill="#63b8ff" stroke="#63b8ff" points="589.62,-90.99 579.03,-90.63 587.08,-97.51 589.62,-90.99"/>
</a>
</g>
</g>
<!-- Node16 -->
<g id="Node000016" class="node">
<title>Node16</title>
<g id="a_Node000016"><a xlink:title=" ">
<polygon fill="#e0e0e0" stroke="#999999" points="718.5,-96 601.5,-96 601.5,-66 718.5,-66 718.5,-96"/>
<text text-anchor="start" x="609.5" y="-84" font-family="Helvetica,sans-Serif" font-size="10.00">packages/types/impl</text>
<text text-anchor="middle" x="660" y="-73" font-family="Helvetica,sans-Serif" font-size="10.00">/types_impl.hpp</text>
</a>
</g>
</g>
<!-- Node8&#45;&gt;Node16 -->
<g id="edge15_Node000008_Node000016" class="edge">
<title>Node8&#45;&gt;Node16</title>
<g id="a_edge15_Node000008_Node000016"><a xlink:title=" ">
<path fill="none" stroke="#63b8ff" d="M723.02,-131.8C712.12,-123.18 698.02,-112.04 685.92,-102.48"/>
<polygon fill="#63b8ff" stroke="#63b8ff" points="687.94,-99.62 677.93,-96.16 683.6,-105.11 687.94,-99.62"/>
</a>
</g>
</g>
<!-- Node17 -->
<g id="Node000017" class="node">
<title>Node17</title>
<g id="a_Node000017"><a xlink:href="logging_8hpp.html" target="_top" xlink:title=" ">
<polygon fill="white" stroke="#666666" points="855.5,-96 736.5,-96 736.5,-66 855.5,-66 855.5,-96"/>
<text text-anchor="start" x="744.5" y="-84" font-family="Helvetica,sans-Serif" font-size="10.00">packages/macros/inc</text>
<text text-anchor="middle" x="796" y="-73" font-family="Helvetica,sans-Serif" font-size="10.00">/logging.hpp</text>
</a>
</g>
</g>
<!-- Node8&#45;&gt;Node17 -->
<g id="edge16_Node000008_Node000017" class="edge">
<title>Node8&#45;&gt;Node17</title>
<g id="a_edge16_Node000008_Node000017"><a xlink:title=" ">
<path fill="none" stroke="#63b8ff" d="M753.21,-131.8C760.26,-123.59 769.27,-113.1 777.21,-103.87"/>
<polygon fill="#63b8ff" stroke="#63b8ff" points="779.96,-106.03 783.83,-96.16 774.66,-101.47 779.96,-106.03"/>
</a>
</g>
</g>
<!-- Node10 -->
<g id="Node000010" class="node">
<title>Node10</title>
<g id="a_Node000010"><a xlink:href="detail_8hpp.html" target="_top" xlink:title=" ">
<polygon fill="white" stroke="#666666" points="933.5,-30 814.5,-30 814.5,0 933.5,0 933.5,-30"/>
<text text-anchor="start" x="822.5" y="-18" font-family="Helvetica,sans-Serif" font-size="10.00">packages/macros/inc</text>
<text text-anchor="middle" x="874" y="-7" font-family="Helvetica,sans-Serif" font-size="10.00">/detail.hpp</text>
</a>
</g>
</g>
<!-- Node9&#45;&gt;Node10 -->
<g id="edge9_Node000009_Node000010" class="edge">
<title>Node9&#45;&gt;Node10</title>
<g id="a_edge9_Node000009_Node000010"><a xlink:title=" ">
<path fill="none" stroke="#63b8ff" d="M950.25,-65.8C936.67,-56.93 919.01,-45.39 904.1,-35.66"/>
<polygon fill="#63b8ff" stroke="#63b8ff" points="905.98,-32.7 895.69,-30.16 902.15,-38.56 905.98,-32.7"/>
</a>
</g>
</g>
<!-- Node11 -->
<g id="Node000011" class="node">
<title>Node11</title>
<g id="a_Node000011"><a xlink:title=" ">
<polygon fill="#e0e0e0" stroke="#999999" points="1012,-24.5 952,-24.5 952,-5.5 1012,-5.5 1012,-24.5"/>
<text text-anchor="middle" x="982" y="-12.5" font-family="Helvetica,sans-Serif" font-size="10.00">iostream</text>
</a>
</g>
</g>
<!-- Node9&#45;&gt;Node11 -->
<g id="edge10_Node000009_Node000011" class="edge">
<title>Node9&#45;&gt;Node11</title>
<g id="a_edge10_Node000009_Node000011"><a xlink:title=" ">
<path fill="none" stroke="#63b8ff" d="M974.22,-65.8C975.64,-56.7 977.5,-44.79 979.05,-34.9"/>
<polygon fill="#63b8ff" stroke="#63b8ff" points="982.53,-35.26 980.62,-24.84 975.62,-34.18 982.53,-35.26"/>
</a>
</g>
</g>
<!-- Node21&#45;&gt;Node8 -->
<g id="edge22_Node000021_Node000008" class="edge">
<title>Node21&#45;&gt;Node8</title>
<g id="a_edge22_Node000021_Node000008"><a xlink:title=" ">
<path fill="none" stroke="#63b8ff" d="M983.81,-199.99C980.83,-199.31 977.89,-198.65 975,-198 903.13,-181.91 882.74,-178.36 806.42,-162.08"/>
<polygon fill="#63b8ff" stroke="#63b8ff" points="806.83,-158.59 796.32,-159.92 805.36,-165.44 806.83,-158.59"/>
</a>
</g>
</g>
<!-- Node22&#45;&gt;Node8 -->
<g id="edge24_Node000022_Node000008" class="edge">
<title>Node22&#45;&gt;Node8</title>
<g id="a_edge24_Node000022_Node000008"><a xlink:title=" ">
<path fill="none" stroke="#63b8ff" d="M770.36,-197.77C765.42,-189.4 759.64,-179.59 754.51,-170.9"/>
<polygon fill="#63b8ff" stroke="#63b8ff" points="757.38,-168.87 749.28,-162.04 751.35,-172.43 757.38,-168.87"/>
</a>
</g>
</g>
<!-- Node22&#45;&gt;Node18 -->
<g id="edge26_Node000022_Node000018" class="edge">
<title>Node22&#45;&gt;Node18</title>
<g id="a_edge26_Node000022_Node000018"><a xlink:title=" ">
<path fill="none" stroke="#63b8ff" d="M741.5,-197.96C716.98,-186.12 686.37,-171.35 664.83,-160.95"/>
<polygon fill="#63b8ff" stroke="#63b8ff" points="666.15,-157.7 655.62,-156.5 663.1,-164 666.15,-157.7"/>
</a>
</g>
</g>
<!-- Node23 -->
<g id="Node000023" class="node">
<title>Node23</title>
<g id="a_Node000023"><a xlink:title=" ">
<polygon fill="#e0e0e0" stroke="#999999" points="855.5,-156.5 814.5,-156.5 814.5,-137.5 855.5,-137.5 855.5,-156.5"/>
<text text-anchor="middle" x="835" y="-144.5" font-family="Helvetica,sans-Serif" font-size="10.00">tuple</text>
</a>
</g>
</g>
<!-- Node22&#45;&gt;Node23 -->
<g id="edge25_Node000022_Node000023" class="edge">
<title>Node22&#45;&gt;Node23</title>
<g id="a_edge25_Node000022_Node000023"><a xlink:title=" ">
<path fill="none" stroke="#63b8ff" d="M797.05,-197.77C804.92,-187.45 814.46,-174.93 822.01,-165.04"/>
<polygon fill="#63b8ff" stroke="#63b8ff" points="824.99,-166.89 828.27,-156.82 819.43,-162.65 824.99,-166.89"/>
</a>
</g>
</g>
<!-- Node26&#45;&gt;Node10 -->
<g id="edge42_Node000026_Node000010" class="edge">
<title>Node26&#45;&gt;Node10</title>
<g id="a_edge42_Node000026_Node000010"><a xlink:title=" ">
<path fill="none" stroke="#63b8ff" d="M338.3,-366.56C284.52,-360.3 204.39,-346.39 141,-316 79.6,-286.56 22,-287.59 22,-219.5 22,-219.5 22,-219.5 22,-146 22,-107.71 22.96,-88.42 54,-66 114.07,-22.61 617.01,-16.72 804.18,-16.04"/>
<polygon fill="#63b8ff" stroke="#63b8ff" points="804.47,-19.53 814.46,-16 804.45,-12.53 804.47,-19.53"/>
</a>
</g>
</g>
<!-- Node27 -->
<g id="Node000027" class="node">
<title>Node27</title>
<g id="a_Node000027"><a xlink:href="exception_8hpp.html" target="_top" xlink:title=" ">
<polygon fill="white" stroke="#666666" points="487.5,-233.5 368.5,-233.5 368.5,-203.5 487.5,-203.5 487.5,-233.5"/>
<text text-anchor="start" x="376.5" y="-221.5" font-family="Helvetica,sans-Serif" font-size="10.00">packages/exceptions</text>
<text text-anchor="middle" x="428" y="-210.5" font-family="Helvetica,sans-Serif" font-size="10.00">/inc/exception.hpp</text>
</a>
</g>
</g>
<!-- Node26&#45;&gt;Node27 -->
<g id="edge30_Node000026_Node000027" class="edge">
<title>Node26&#45;&gt;Node27</title>
<g id="a_edge30_Node000026_Node000027"><a xlink:title=" ">
<path fill="none" stroke="#63b8ff" d="M400.77,-357.47C405.88,-331.59 416.84,-276.03 423.19,-243.87"/>
<polygon fill="#63b8ff" stroke="#63b8ff" points="426.65,-244.43 425.15,-233.94 419.78,-243.07 426.65,-244.43"/>
</a>
</g>
</g>
<!-- Node31 -->
<g id="Node000031" class="node">
<title>Node31</title>
<g id="a_Node000031"><a xlink:href="exceptions_8hpp.html" target="_top" xlink:title=" ">
<polygon fill="white" stroke="#666666" points="611.5,-310.5 492.5,-310.5 492.5,-280.5 611.5,-280.5 611.5,-310.5"/>
<text text-anchor="start" x="500.5" y="-298.5" font-family="Helvetica,sans-Serif" font-size="10.00">packages/macros/inc</text>
<text text-anchor="middle" x="552" y="-287.5" font-family="Helvetica,sans-Serif" font-size="10.00">/exceptions.hpp</text>
</a>
</g>
</g>
<!-- Node26&#45;&gt;Node31 -->
<g id="edge37_Node000026_Node000031" class="edge">
<title>Node26&#45;&gt;Node31</title>
<g id="a_edge37_Node000026_Node000031"><a xlink:title=" ">
<path fill="none" stroke="#63b8ff" d="M426.97,-357.39C451.6,-345.4 487.14,-328.09 514.04,-314.99"/>
<polygon fill="#63b8ff" stroke="#63b8ff" points="515.71,-318.07 523.16,-310.54 512.64,-311.78 515.71,-318.07"/>
</a>
</g>
</g>
<!-- Node32 -->
<g id="Node000032" class="node">
<title>Node32</title>
<g id="a_Node000032"><a xlink:title=" ">
<polygon fill="#e0e0e0" stroke="#999999" points="570,-228 514,-228 514,-209 570,-209 570,-228"/>
<text text-anchor="middle" x="542" y="-216" font-family="Helvetica,sans-Serif" font-size="10.00">sstream</text>
</a>
</g>
</g>
<!-- Node26&#45;&gt;Node32 -->
<g id="edge44_Node000026_Node000032" class="edge">
<title>Node26&#45;&gt;Node32</title>
<g id="a_edge44_Node000026_Node000032"><a xlink:title=" ">
<path fill="none" stroke="#63b8ff" d="M409.91,-357.44C426.21,-338.37 456.57,-303.42 484,-275 497.37,-261.15 513.2,-246.09 524.94,-235.15"/>
<polygon fill="#63b8ff" stroke="#63b8ff" points="527.37,-237.67 532.33,-228.31 522.62,-232.53 527.37,-237.67"/>
</a>
</g>
</g>
<!-- Node33 -->
<g id="Node000033" class="node">
<title>Node33</title>
<g id="a_Node000033"><a xlink:title=" ">
<polygon fill="#e0e0e0" stroke="#999999" points="398,-305 278,-305 278,-286 398,-286 398,-305"/>
<text text-anchor="middle" x="338" y="-293" font-family="Helvetica,sans-Serif" font-size="10.00">cmake_variables.hpp</text>
</a>
</g>
</g>
<!-- Node26&#45;&gt;Node33 -->
<g id="edge43_Node000026_Node000033" class="edge">
<title>Node26&#45;&gt;Node33</title>
<g id="a_edge43_Node000026_Node000033"><a xlink:title=" ">
<path fill="none" stroke="#63b8ff" d="M386.71,-357.39C376.69,-344.86 362.02,-326.53 351.4,-313.26"/>
<polygon fill="#63b8ff" stroke="#63b8ff" points="354.08,-311 345.1,-305.37 348.61,-315.37 354.08,-311"/>
</a>
</g>
</g>
<!-- Node27&#45;&gt;Node8 -->
<g id="edge31_Node000027_Node000008" class="edge">
<title>Node27&#45;&gt;Node8</title>
<g id="a_edge31_Node000027_Node000008"><a xlink:title=" ">
<path fill="none" stroke="#63b8ff" d="M482.2,-203.47C489.84,-201.58 497.61,-199.71 505,-198 577.97,-181.13 598.93,-178.54 675.69,-162.26"/>
<polygon fill="#63b8ff" stroke="#63b8ff" points="676.8,-165.6 685.85,-160.1 675.34,-158.76 676.8,-165.6"/>
</a>
</g>
</g>
<!-- Node27&#45;&gt;Node13 -->
<g id="edge33_Node000027_Node000013" class="edge">
<title>Node27&#45;&gt;Node13</title>
<g id="a_edge33_Node000027_Node000013"><a xlink:title=" ">
<path fill="none" stroke="#63b8ff" d="M426.95,-203.26C425.13,-178.64 421.41,-128.16 419.38,-100.73"/>
<polygon fill="#63b8ff" stroke="#63b8ff" points="422.86,-100.25 418.63,-90.53 415.88,-100.77 422.86,-100.25"/>
</a>
</g>
</g>
<!-- Node27&#45;&gt;Node25 -->
<g id="edge35_Node000027_Node000025" class="edge">
<title>Node27&#45;&gt;Node25</title>
<g id="a_edge35_Node000027_Node000025"><a xlink:title=" ">
<path fill="none" stroke="#63b8ff" d="M478.27,-203.45C487.12,-201.36 496.29,-199.42 505,-198 624.75,-178.41 998,-156.84 1120.57,-150.12"/>
<polygon fill="#63b8ff" stroke="#63b8ff" points="1120.84,-153.61 1130.63,-149.57 1120.46,-146.62 1120.84,-153.61"/>
</a>
</g>
</g>
<!-- Node28 -->
<g id="Node000028" class="node">
<title>Node28</title>
<g id="a_Node000028"><a xlink:title=" ">
<polygon fill="#e0e0e0" stroke="#999999" points="322.5,-156.5 257.5,-156.5 257.5,-137.5 322.5,-137.5 322.5,-156.5"/>
<text text-anchor="middle" x="290" y="-144.5" font-family="Helvetica,sans-Serif" font-size="10.00">stdexcept</text>
</a>
</g>
</g>
<!-- Node27&#45;&gt;Node28 -->
<g id="edge32_Node000027_Node000028" class="edge">
<title>Node27&#45;&gt;Node28</title>
<g id="a_edge32_Node000027_Node000028"><a xlink:title=" ">
<path fill="none" stroke="#63b8ff" d="M400.07,-203.44C375.57,-191.09 340.2,-173.28 316.22,-161.2"/>
<polygon fill="#63b8ff" stroke="#63b8ff" points="317.52,-157.94 307.01,-156.57 314.37,-164.19 317.52,-157.94"/>
</a>
</g>
</g>
<!-- Node29 -->
<g id="Node000029" class="node">
<title>Node29</title>
<g id="a_Node000029"><a xlink:title=" ">
<polygon fill="#e0e0e0" stroke="#999999" points="387.5,-156.5 340.5,-156.5 340.5,-137.5 387.5,-137.5 387.5,-156.5"/>
<text text-anchor="middle" x="364" y="-144.5" font-family="Helvetica,sans-Serif" font-size="10.00">deque</text>
</a>
</g>
</g>
<!-- Node27&#45;&gt;Node29 -->
<g id="edge34_Node000027_Node000029" class="edge">
<title>Node27&#45;&gt;Node29</title>
<g id="a_edge34_Node000027_Node000029"><a xlink:title=" ">
<path fill="none" stroke="#63b8ff" d="M415.05,-203.44C404.6,-192.09 389.9,-176.12 378.95,-164.24"/>
<polygon fill="#63b8ff" stroke="#63b8ff" points="381.42,-161.75 372.07,-156.77 376.27,-166.49 381.42,-161.75"/>
</a>
</g>
</g>
<!-- Node30 -->
<g id="Node000030" class="node">
<title>Node30</title>
<g id="a_Node000030"><a xlink:title=" ">
<polygon fill="#e0e0e0" stroke="#999999" points="590,-162 444,-162 444,-132 590,-132 590,-162"/>
<text text-anchor="start" x="452" y="-150" font-family="Helvetica,sans-Serif" font-size="10.00">packages/exceptions</text>
<text text-anchor="middle" x="517" y="-139" font-family="Helvetica,sans-Serif" font-size="10.00">/impl/exceptions_impl.hpp</text>
</a>
</g>
</g>
<!-- Node27&#45;&gt;Node30 -->
<g id="edge36_Node000027_Node000030" class="edge">
<title>Node27&#45;&gt;Node30</title>
<g id="a_edge36_Node000027_Node000030"><a xlink:title=" ">
<path fill="none" stroke="#63b8ff" d="M446.01,-203.44C458.92,-193.36 476.5,-179.63 490.94,-168.35"/>
<polygon fill="#63b8ff" stroke="#63b8ff" points="493.29,-170.96 499.02,-162.04 488.98,-165.44 493.29,-170.96"/>
</a>
</g>
</g>
<!-- Node31&#45;&gt;Node10 -->
<g id="edge39_Node000031_Node000010" class="edge">
<title>Node31&#45;&gt;Node10</title>
<g id="a_edge39_Node000031_Node000010"><a xlink:title=" ">
<path fill="none" stroke="#63b8ff" d="M611.78,-292.52C693.21,-288.45 832.6,-276.1 865,-239 914.08,-182.8 894.41,-84.97 881.66,-39.94"/>
<polygon fill="#63b8ff" stroke="#63b8ff" points="884.96,-38.77 878.76,-30.18 878.25,-40.76 884.96,-38.77"/>
</a>
</g>
</g>
<!-- Node31&#45;&gt;Node18 -->
<g id="edge41_Node000031_Node000018" class="edge">
<title>Node31&#45;&gt;Node18</title>
<g id="a_edge41_Node000031_Node000018"><a xlink:title=" ">
<path fill="none" stroke="#63b8ff" d="M560.25,-280.45C576.03,-253.56 610.49,-194.86 627.74,-165.48"/>
<polygon fill="#63b8ff" stroke="#63b8ff" points="630.83,-167.12 632.88,-156.73 624.8,-163.58 630.83,-167.12"/>
</a>
</g>
</g>
<!-- Node31&#45;&gt;Node27 -->
<g id="edge38_Node000031_Node000027" class="edge">
<title>Node31&#45;&gt;Node27</title>
<g id="a_edge38_Node000031_Node000027"><a xlink:title=" ">
<path fill="none" stroke="#63b8ff" d="M528.68,-280.39C509.28,-268.66 481.47,-251.84 459.99,-238.85"/>
<polygon fill="#63b8ff" stroke="#63b8ff" points="461.59,-235.72 451.22,-233.54 457.96,-241.71 461.59,-235.72"/>
</a>
</g>
</g>
<!-- Node31&#45;&gt;Node32 -->
<g id="edge40_Node000031_Node000032" class="edge">
<title>Node31&#45;&gt;Node32</title>
<g id="a_edge40_Node000031_Node000032"><a xlink:title=" ">
<path fill="none" stroke="#63b8ff" d="M550.12,-280.39C548.54,-268.58 546.28,-251.6 544.54,-238.58"/>
<polygon fill="#63b8ff" stroke="#63b8ff" points="547.97,-237.82 543.18,-228.37 541.04,-238.75 547.97,-237.82"/>
</a>
</g>
</g>
<!-- Node34&#45;&gt;Node7 -->
<g id="edge46_Node000034_Node000007" class="edge">
<title>Node34&#45;&gt;Node7</title>
<g id="a_edge46_Node000034_Node000007"><a xlink:title=" ">
<path fill="none" stroke="#63b8ff" d="M207.26,-280.39C208.67,-271.58 210.54,-259.9 212.26,-249.13"/>
<polygon fill="#63b8ff" stroke="#63b8ff" points="215.72,-249.63 213.85,-239.2 208.81,-248.53 215.72,-249.63"/>
</a>
</g>
</g>
<!-- Node34&#45;&gt;Node14 -->
<g id="edge47_Node000034_Node000014" class="edge">
<title>Node34&#45;&gt;Node14</title>
<g id="a_edge47_Node000034_Node000014"><a xlink:title=" ">
<path fill="none" stroke="#63b8ff" d="M185.81,-280.42C172.46,-269.99 154.82,-254.88 142,-239 117.39,-208.5 109.11,-199.87 99,-162 93.53,-141.5 94.23,-116.98 95.69,-100.54"/>
<polygon fill="#63b8ff" stroke="#63b8ff" points="99.17,-100.91 96.75,-90.59 92.21,-100.17 99.17,-100.91"/>
</a>
</g>
</g>
<!-- Node36 -->
<g id="Node000036" class="node">
<title>Node36</title>
<g id="a_Node000036"><a xlink:href="STLContainerBase_8hpp.html" target="_top" xlink:title=" ">
<polygon fill="white" stroke="#666666" points="697,-525 551,-525 551,-495 697,-495 697,-525"/>
<text text-anchor="start" x="559" y="-513" font-family="Helvetica,sans-Serif" font-size="10.00">packages/stl_extension</text>
<text text-anchor="middle" x="624" y="-502" font-family="Helvetica,sans-Serif" font-size="10.00">/inc/STLContainerBase.hpp</text>
</a>
</g>
</g>
<!-- Node35&#45;&gt;Node36 -->
<g id="edge49_Node000035_Node000036" class="edge">
<title>Node35&#45;&gt;Node36</title>
<g id="a_edge49_Node000035_Node000036"><a xlink:title=" ">
<path fill="none" stroke="#63b8ff" d="M667.57,-560.8C660.39,-552.59 651.21,-542.1 643.13,-532.87"/>
<polygon fill="#63b8ff" stroke="#63b8ff" points="645.61,-530.38 636.39,-525.16 640.34,-534.99 645.61,-530.38"/>
</a>
</g>
</g>
<!-- Node41 -->
<g id="Node000041" class="node">
<title>Node41</title>
<g id="a_Node000041"><a xlink:title=" ">
<polygon fill="#e0e0e0" stroke="#999999" points="757,-519.5 715,-519.5 715,-500.5 757,-500.5 757,-519.5"/>
<text text-anchor="middle" x="736" y="-507.5" font-family="Helvetica,sans-Serif" font-size="10.00">array</text>
</a>
</g>
</g>
<!-- Node35&#45;&gt;Node41 -->
<g id="edge61_Node000035_Node000041" class="edge">
<title>Node35&#45;&gt;Node41</title>
<g id="a_edge61_Node000035_Node000041"><a xlink:title=" ">
<path fill="none" stroke="#63b8ff" d="M692.43,-560.8C701.07,-550.92 712.62,-537.72 721.66,-527.39"/>
<polygon fill="#63b8ff" stroke="#63b8ff" points="724.31,-529.67 728.26,-519.84 719.04,-525.07 724.31,-529.67"/>
</a>
</g>
</g>
<!-- Node36&#45;&gt;Node5 -->
<g id="edge50_Node000036_Node000005" class="edge">
<title>Node36&#45;&gt;Node5</title>
<g id="a_edge50_Node000036_Node000005"><a xlink:title=" ">
<path fill="none" stroke="#63b8ff" d="M643.93,-494.99C674.27,-473.69 729.54,-434.98 739,-429 755.74,-418.42 774.56,-407.45 791.13,-398.08"/>
<polygon fill="#63b8ff" stroke="#63b8ff" points="793.07,-401.01 800.08,-393.06 789.65,-394.9 793.07,-401.01"/>
</a>
</g>
</g>
<!-- Node36&#45;&gt;Node8 -->
<g id="edge53_Node000036_Node000008" class="edge">
<title>Node36&#45;&gt;Node8</title>
<g id="a_edge53_Node000036_Node000008"><a xlink:title=" ">
<path fill="none" stroke="#63b8ff" d="M637.83,-494.94C646.23,-485.55 656.37,-472.48 662,-459 707.12,-350.88 651.25,-304.99 699,-198 703.62,-187.64 711.04,-177.75 718.37,-169.53"/>
<polygon fill="#63b8ff" stroke="#63b8ff" points="720.96,-171.89 725.28,-162.21 715.87,-167.08 720.96,-171.89"/>
</a>
</g>
</g>
<!-- Node36&#45;&gt;Node31 -->
<g id="edge54_Node000036_Node000031" class="edge">
<title>Node36&#45;&gt;Node31</title>
<g id="a_edge54_Node000036_Node000031"><a xlink:title=" ">
<path fill="none" stroke="#63b8ff" d="M550.82,-499.53C502.35,-491.58 445.02,-478.38 430,-459 421.83,-448.46 424.81,-441.28 430,-429 438.93,-407.86 451.18,-409.62 467,-393 490.7,-368.09 516.65,-338.23 533.56,-318.39"/>
<polygon fill="#63b8ff" stroke="#63b8ff" points="536.42,-320.43 540.22,-310.54 531.08,-315.9 536.42,-320.43"/>
</a>
</g>
</g>
<!-- Node37 -->
<g id="Node000037" class="node">
<title>Node37</title>
<g id="a_Node000037"><a xlink:href="typedefs_8hpp.html" target="_top" xlink:title=" ">
<polygon fill="white" stroke="#666666" points="866.5,-459 747.5,-459 747.5,-429 866.5,-429 866.5,-459"/>
<text text-anchor="start" x="755.5" y="-447" font-family="Helvetica,sans-Serif" font-size="10.00">packages/macros/inc</text>
<text text-anchor="middle" x="807" y="-436" font-family="Helvetica,sans-Serif" font-size="10.00">/typedefs.hpp</text>
</a>
</g>
</g>
<!-- Node36&#45;&gt;Node37 -->
<g id="edge51_Node000036_Node000037" class="edge">
<title>Node36&#45;&gt;Node37</title>
<g id="a_edge51_Node000036_Node000037"><a xlink:title=" ">
<path fill="none" stroke="#63b8ff" d="M664.16,-494.95C691.57,-485.37 728.08,-472.6 757.32,-462.37"/>
<polygon fill="#63b8ff" stroke="#63b8ff" points="758.65,-465.62 766.93,-459.01 756.34,-459.01 758.65,-465.62"/>
</a>
</g>
</g>
<!-- Node38 -->
<g id="Node000038" class="node">
<title>Node38</title>
<g id="a_Node000038"><a xlink:href="resize_8hpp.html" target="_top" xlink:title=" ">
<polygon fill="white" stroke="#666666" points="652.5,-459 521.5,-459 521.5,-429 652.5,-429 652.5,-459"/>
<text text-anchor="start" x="529.5" y="-447" font-family="Helvetica,sans-Serif" font-size="10.00">packages/stl_extension</text>
<text text-anchor="middle" x="587" y="-436" font-family="Helvetica,sans-Serif" font-size="10.00">/inc/resize.hpp</text>
</a>
</g>
</g>
<!-- Node36&#45;&gt;Node38 -->
<g id="edge55_Node000036_Node000038" class="edge">
<title>Node36&#45;&gt;Node38</title>
<g id="a_edge55_Node000036_Node000038"><a xlink:title=" ">
<path fill="none" stroke="#63b8ff" d="M615.79,-494.8C611.24,-486.92 605.47,-476.95 600.29,-467.99"/>
<polygon fill="#63b8ff" stroke="#63b8ff" points="603.22,-466.07 595.19,-459.16 597.16,-469.57 603.22,-466.07"/>
</a>
</g>
</g>
<!-- Node40 -->
<g id="Node000040" class="node">
<title>Node40</title>
<g id="a_Node000040"><a xlink:title=" ">
<polygon fill="#e0e0e0" stroke="#999999" points="503,-453.5 439,-453.5 439,-434.5 503,-434.5 503,-453.5"/>
<text text-anchor="middle" x="471" y="-441.5" font-family="Helvetica,sans-Serif" font-size="10.00">algorithm</text>
</a>
</g>
</g>
<!-- Node36&#45;&gt;Node40 -->
<g id="edge60_Node000036_Node000040" class="edge">
<title>Node36&#45;&gt;Node40</title>
<g id="a_edge60_Node000036_Node000040"><a xlink:title=" ">
<path fill="none" stroke="#63b8ff" d="M590.42,-494.95C563.59,-483.73 526.34,-468.15 500.61,-457.39"/>
<polygon fill="#63b8ff" stroke="#63b8ff" points="501.94,-454.15 491.36,-453.52 499.24,-460.61 501.94,-454.15"/>
</a>
</g>
</g>
<!-- Node37&#45;&gt;Node25 -->
<g id="edge52_Node000037_Node000025" class="edge">
<title>Node37&#45;&gt;Node25</title>
<g id="a_edge52_Node000037_Node000025"><a xlink:title=" ">
<path fill="none" stroke="#63b8ff" d="M866.82,-429.19C951.08,-406.12 1101.42,-350.81 1164,-239 1176.58,-216.52 1171.53,-185.79 1166.19,-166.42"/>
<polygon fill="#63b8ff" stroke="#63b8ff" points="1169.5,-165.26 1163.23,-156.72 1162.8,-167.3 1169.5,-165.26"/>
</a>
</g>
</g>
<!-- Node38&#45;&gt;Node5 -->
<g id="edge57_Node000038_Node000005" class="edge">
<title>Node38&#45;&gt;Node5</title>
<g id="a_edge57_Node000038_Node000005"><a xlink:title=" ">
<path fill="none" stroke="#63b8ff" d="M637.39,-428.94C672.11,-419.25 718.91,-406.18 758.36,-395.17"/>
<polygon fill="#63b8ff" stroke="#63b8ff" points="759.53,-398.48 768.22,-392.42 757.65,-391.74 759.53,-398.48"/>
</a>
</g>
</g>
<!-- Node38&#45;&gt;Node8 -->
<g id="edge58_Node000038_Node000008" class="edge">
<title>Node38&#45;&gt;Node8</title>
<g id="a_edge58_Node000038_Node000008"><a xlink:title=" ">
<path fill="none" stroke="#63b8ff" d="M599.36,-428.6C606.94,-419.08 616.26,-405.99 622,-393 657.93,-311.74 615.66,-271.21 666,-198 674.72,-185.32 687.8,-175.01 700.61,-167.11"/>
<polygon fill="#63b8ff" stroke="#63b8ff" points="702.48,-170.07 709.38,-162.03 698.97,-164.02 702.48,-170.07"/>
</a>
</g>
</g>
<!-- Node38&#45;&gt;Node26 -->
<g id="edge56_Node000038_Node000026" class="edge">
<title>Node38&#45;&gt;Node26</title>
<g id="a_edge56_Node000038_Node000026"><a xlink:title=" ">
<path fill="none" stroke="#63b8ff" d="M548.75,-428.94C519.04,-418.01 477.65,-402.79 445.76,-391.06"/>
<polygon fill="#63b8ff" stroke="#63b8ff" points="446.78,-387.71 436.19,-387.54 444.37,-394.28 446.78,-387.71"/>
</a>
</g>
</g>
<!-- Node39 -->
<g id="Node000039" class="node">
<title>Node39</title>
<g id="a_Node000039"><a xlink:title=" ">
<polygon fill="#e0e0e0" stroke="#999999" points="613,-382 561,-382 561,-363 613,-363 613,-382"/>
<text text-anchor="middle" x="587" y="-370" font-family="Helvetica,sans-Serif" font-size="10.00">cassert</text>
</a>
</g>
</g>
<!-- Node38&#45;&gt;Node39 -->
<g id="edge59_Node000038_Node000039" class="edge">
<title>Node38&#45;&gt;Node39</title>
<g id="a_edge59_Node000038_Node000039"><a xlink:title=" ">
<path fill="none" stroke="#63b8ff" d="M587,-428.94C587,-418.46 587,-404.05 587,-392.55"/>
<polygon fill="#63b8ff" stroke="#63b8ff" points="590.5,-392.27 587,-382.27 583.5,-392.27 590.5,-392.27"/>
</a>
</g>
</g>
</g>
</svg>
