<?xml version="1.0" encoding="UTF-8" standalone="no"?>
<!DOCTYPE svg PUBLIC "-//W3C//DTD SVG 1.1//EN"
 "http://www.w3.org/Graphics/SVG/1.1/DTD/svg11.dtd">
<!-- Generated by graphviz version 2.43.0 (0)
 -->
<!-- Title: LogBlock.hpp Pages: 1 -->
<svg width="1380pt" height="654pt"
 viewBox="0.00 0.00 1379.50 654.00" xmlns="http://www.w3.org/2000/svg" xmlns:xlink="http://www.w3.org/1999/xlink">
<g id="graph0" class="graph" transform="scale(1 1) rotate(0) translate(4 650)">
<title>LogBlock.hpp</title>
<!-- Node1 -->
<g id="Node000001" class="node">
<title>Node1</title>
<g id="a_Node000001"><a xlink:title=" ">
<polygon fill="#999999" stroke="#666666" points="1103.5,-646 1021.5,-646 1021.5,-627 1103.5,-627 1103.5,-646"/>
<text text-anchor="middle" x="1062.5" y="-634" font-family="Helvetica,sans-Serif" font-size="10.00">LogBlock.hpp</text>
</a>
</g>
</g>
<!-- Node2 -->
<g id="Node000002" class="node">
<title>Node2</title>
<g id="a_Node000002"><a xlink:href="Logger_8hpp.html" target="_top" xlink:title=" ">
<polygon fill="white" stroke="#666666" points="969,-591 850,-591 850,-561 969,-561 969,-591"/>
<text text-anchor="start" x="858" y="-579" font-family="Helvetica,sans-Serif" font-size="10.00">packages/logging/inc</text>
<text text-anchor="middle" x="909.5" y="-568" font-family="Helvetica,sans-Serif" font-size="10.00">/Logger.hpp</text>
</a>
</g>
</g>
<!-- Node1&#45;&gt;Node2 -->
<g id="edge1_Node000001_Node000002" class="edge">
<title>Node1&#45;&gt;Node2</title>
<g id="a_edge1_Node000001_Node000002"><a xlink:title=" ">
<path fill="none" stroke="#63b8ff" d="M1040.25,-626.99C1018.23,-618.57 983.86,-605.43 955.88,-594.73"/>
<polygon fill="#63b8ff" stroke="#63b8ff" points="956.87,-591.37 946.28,-591.06 954.37,-597.9 956.87,-591.37"/>
</a>
</g>
</g>
<!-- Node9 -->
<g id="Node000009" class="node">
<title>Node9</title>
<g id="a_Node000009"><a xlink:href="types_8hpp.html" target="_top" xlink:title=" ">
<polygon fill="white" stroke="#666666" points="399.5,-162 289.5,-162 289.5,-132 399.5,-132 399.5,-162"/>
<text text-anchor="start" x="297.5" y="-150" font-family="Helvetica,sans-Serif" font-size="10.00">packages/types/inc</text>
<text text-anchor="middle" x="344.5" y="-139" font-family="Helvetica,sans-Serif" font-size="10.00">/types.hpp</text>
</a>
</g>
</g>
<!-- Node1&#45;&gt;Node9 -->
<g id="edge65_Node000001_Node000009" class="edge">
<title>Node1&#45;&gt;Node9</title>
<g id="a_edge65_Node000001_Node000009"><a xlink:title=" ">
<path fill="none" stroke="#63b8ff" d="M1021.35,-635.06C826.33,-632.46 4.5,-615.32 4.5,-511 4.5,-511 4.5,-511 4.5,-294.5 4.5,-250.79 -8.24,-228.05 23.5,-198 63.26,-160.36 208.41,-170.9 279.33,-161.7"/>
<polygon fill="#63b8ff" stroke="#63b8ff" points="279.88,-165.15 289.24,-160.19 278.82,-158.23 279.88,-165.15"/>
</a>
</g>
</g>
<!-- Node14 -->
<g id="Node000014" class="node">
<title>Node14</title>
<g id="a_Node000014"><a xlink:title=" ">
<polygon fill="#e0e0e0" stroke="#999999" points="1111.5,-90.5 1067.5,-90.5 1067.5,-71.5 1111.5,-71.5 1111.5,-90.5"/>
<text text-anchor="middle" x="1089.5" y="-78.5" font-family="Helvetica,sans-Serif" font-size="10.00">string</text>
</a>
</g>
</g>
<!-- Node1&#45;&gt;Node14 -->
<g id="edge66_Node000001_Node000014" class="edge">
<title>Node1&#45;&gt;Node14</title>
<g id="a_edge66_Node000001_Node000014"><a xlink:title=" ">
<path fill="none" stroke="#63b8ff" d="M1091.29,-626.94C1136.12,-611.63 1217.5,-575.03 1217.5,-511 1217.5,-511 1217.5,-511 1217.5,-217.5 1217.5,-176.27 1209.17,-162.57 1181.5,-132 1165.11,-113.9 1140.6,-101.03 1120.99,-92.88"/>
<polygon fill="#63b8ff" stroke="#63b8ff" points="1122.13,-89.57 1111.54,-89.16 1119.56,-96.08 1122.13,-89.57"/>
</a>
</g>
</g>
<!-- Node45 -->
<g id="Node000045" class="node">
<title>Node45</title>
<g id="a_Node000045"><a xlink:title=" ">
<polygon fill="#e0e0e0" stroke="#999999" points="1371.5,-591 1245.5,-591 1245.5,-561 1371.5,-561 1371.5,-591"/>
<text text-anchor="start" x="1253.5" y="-579" font-family="Helvetica,sans-Serif" font-size="10.00">packages/logging/impl</text>
<text text-anchor="middle" x="1308.5" y="-568" font-family="Helvetica,sans-Serif" font-size="10.00">/LogBlock_impl.hpp</text>
</a>
</g>
</g>
<!-- Node1&#45;&gt;Node45 -->
<g id="edge67_Node000001_Node000045" class="edge">
<title>Node1&#45;&gt;Node45</title>
<g id="a_edge67_Node000001_Node000045"><a xlink:title=" ">
<path fill="none" stroke="#63b8ff" d="M1098.27,-626.99C1135.14,-618.23 1193.56,-604.33 1239.47,-593.42"/>
<polygon fill="#63b8ff" stroke="#63b8ff" points="1240.44,-596.78 1249.36,-591.06 1238.82,-589.97 1240.44,-596.78"/>
</a>
</g>
</g>
<!-- Node3 -->
<g id="Node000003" class="node">
<title>Node3</title>
<g id="a_Node000003"><a xlink:href="FileOutputStream_8hpp.html" target="_top" xlink:title=" ">
<polygon fill="white" stroke="#666666" points="1063.5,-525 937.5,-525 937.5,-495 1063.5,-495 1063.5,-525"/>
<text text-anchor="start" x="945.5" y="-513" font-family="Helvetica,sans-Serif" font-size="10.00">packages/logging/inc</text>
<text text-anchor="middle" x="1000.5" y="-502" font-family="Helvetica,sans-Serif" font-size="10.00">/FileOutputStream.hpp</text>
</a>
</g>
</g>
<!-- Node2&#45;&gt;Node3 -->
<g id="edge2_Node000002_Node000003" class="edge">
<title>Node2&#45;&gt;Node3</title>
<g id="a_edge2_Node000002_Node000003"><a xlink:title=" ">
<path fill="none" stroke="#63b8ff" d="M929.7,-560.8C942.18,-552.01 958.4,-540.61 972.16,-530.93"/>
<polygon fill="#63b8ff" stroke="#63b8ff" points="974.19,-533.78 980.36,-525.16 970.17,-528.05 974.19,-533.78"/>
</a>
</g>
</g>
<!-- Node6 -->
<g id="Node000006" class="node">
<title>Node6</title>
<g id="a_Node000006"><a xlink:title=" ">
<polygon fill="#e0e0e0" stroke="#999999" points="1085.5,-156.5 1027.5,-156.5 1027.5,-137.5 1085.5,-137.5 1085.5,-156.5"/>
<text text-anchor="middle" x="1056.5" y="-144.5" font-family="Helvetica,sans-Serif" font-size="10.00">memory</text>
</a>
</g>
</g>
<!-- Node2&#45;&gt;Node6 -->
<g id="edge59_Node000002_Node000006" class="edge">
<title>Node2&#45;&gt;Node6</title>
<g id="a_edge59_Node000002_Node000006"><a xlink:title=" ">
<path fill="none" stroke="#63b8ff" d="M969.17,-571.11C1003.92,-565.72 1045.98,-553.29 1072.5,-525 1097.49,-498.34 1091.5,-481.54 1091.5,-445 1091.5,-445 1091.5,-445 1091.5,-294.5 1091.5,-247.17 1074.01,-193.55 1063.76,-166.18"/>
<polygon fill="#63b8ff" stroke="#63b8ff" points="1066.98,-164.81 1060.11,-156.74 1060.45,-167.33 1066.98,-164.81"/>
</a>
</g>
</g>
<!-- Node2&#45;&gt;Node14 -->
<g id="edge60_Node000002_Node000014" class="edge">
<title>Node2&#45;&gt;Node14</title>
<g id="a_edge60_Node000002_Node000014"><a xlink:title=" ">
<path fill="none" stroke="#63b8ff" d="M969.09,-571.97C1048.6,-564.36 1179.5,-537.74 1179.5,-445 1179.5,-445 1179.5,-445 1179.5,-217.5 1179.5,-178.57 1182.09,-164.39 1160.5,-132 1149.97,-116.21 1132.63,-103.86 1117.73,-95.38"/>
<polygon fill="#63b8ff" stroke="#63b8ff" points="1119.31,-92.26 1108.84,-90.61 1115.99,-98.43 1119.31,-92.26"/>
</a>
</g>
</g>
<!-- Node23 -->
<g id="Node000023" class="node">
<title>Node23</title>
<g id="a_Node000023"><a xlink:title=" ">
<polygon fill="#e0e0e0" stroke="#999999" points="454.5,-305 406.5,-305 406.5,-286 454.5,-286 454.5,-305"/>
<text text-anchor="middle" x="430.5" y="-293" font-family="Helvetica,sans-Serif" font-size="10.00">iosfwd</text>
</a>
</g>
</g>
<!-- Node2&#45;&gt;Node23 -->
<g id="edge57_Node000002_Node000023" class="edge">
<title>Node2&#45;&gt;Node23</title>
<g id="a_edge57_Node000002_Node000023"><a xlink:title=" ">
<path fill="none" stroke="#63b8ff" d="M849.84,-574.86C757.54,-573.37 586.22,-565.1 542.5,-525 484.41,-471.72 546.12,-418.3 503.5,-352 496.81,-341.59 471.35,-323.37 452.36,-310.66"/>
<polygon fill="#63b8ff" stroke="#63b8ff" points="454.21,-307.68 443.93,-305.08 450.34,-313.52 454.21,-307.68"/>
</a>
</g>
</g>
<!-- Node33 -->
<g id="Node000033" class="node">
<title>Node33</title>
<g id="a_Node000033"><a xlink:title=" ">
<polygon fill="#e0e0e0" stroke="#999999" points="1151,-156.5 1104,-156.5 1104,-137.5 1151,-137.5 1151,-156.5"/>
<text text-anchor="middle" x="1127.5" y="-144.5" font-family="Helvetica,sans-Serif" font-size="10.00">deque</text>
</a>
</g>
</g>
<!-- Node2&#45;&gt;Node33 -->
<g id="edge58_Node000002_Node000033" class="edge">
<title>Node2&#45;&gt;Node33</title>
<g id="a_edge58_Node000002_Node000033"><a xlink:title=" ">
<path fill="none" stroke="#63b8ff" d="M969.01,-572.03C1008.67,-567.16 1059.72,-554.97 1094.5,-525 1123.9,-499.67 1129.5,-483.81 1129.5,-445 1129.5,-445 1129.5,-445 1129.5,-294.5 1129.5,-248.65 1128.51,-194.74 1127.92,-166.85"/>
<polygon fill="#63b8ff" stroke="#63b8ff" points="1131.42,-166.51 1127.7,-156.59 1124.42,-166.66 1131.42,-166.51"/>
</a>
</g>
</g>
<!-- Node40 -->
<g id="Node000040" class="node">
<title>Node40</title>
<g id="a_Node000040"><a xlink:title=" ">
<polygon fill="#e0e0e0" stroke="#999999" points="841.5,-453.5 773.5,-453.5 773.5,-434.5 841.5,-434.5 841.5,-453.5"/>
<text text-anchor="middle" x="807.5" y="-441.5" font-family="Helvetica,sans-Serif" font-size="10.00">filesystem</text>
</a>
</g>
</g>
<!-- Node2&#45;&gt;Node40 -->
<g id="edge63_Node000002_Node000040" class="edge">
<title>Node2&#45;&gt;Node40</title>
<g id="a_edge63_Node000002_Node000040"><a xlink:title=" ">
<path fill="none" stroke="#63b8ff" d="M909.37,-560.92C908.54,-543.78 904.9,-514.71 890.5,-495 878.19,-478.15 858.33,-465.89 841.12,-457.73"/>
<polygon fill="#63b8ff" stroke="#63b8ff" points="842.45,-454.49 831.89,-453.61 839.6,-460.89 842.45,-454.49"/>
</a>
</g>
</g>
<!-- Node41 -->
<g id="Node000041" class="node">
<title>Node41</title>
<g id="a_Node000041"><a xlink:title=" ">
<polygon fill="#e0e0e0" stroke="#999999" points="607,-519.5 552,-519.5 552,-500.5 607,-500.5 607,-519.5"/>
<text text-anchor="middle" x="579.5" y="-507.5" font-family="Helvetica,sans-Serif" font-size="10.00">fstream</text>
</a>
</g>
</g>
<!-- Node2&#45;&gt;Node41 -->
<g id="edge56_Node000002_Node000041" class="edge">
<title>Node2&#45;&gt;Node41</title>
<g id="a_edge56_Node000002_Node000041"><a xlink:title=" ">
<path fill="none" stroke="#63b8ff" d="M849.85,-568.24C790.12,-560.68 695.93,-546.59 616.5,-525 614.21,-524.38 611.86,-523.67 609.51,-522.9"/>
<polygon fill="#63b8ff" stroke="#63b8ff" points="610.61,-519.58 600.01,-519.56 608.28,-526.18 610.61,-519.58"/>
</a>
</g>
</g>
<!-- Node42 -->
<g id="Node000042" class="node">
<title>Node42</title>
<g id="a_Node000042"><a xlink:title=" ">
<polygon fill="#e0e0e0" stroke="#999999" points="675.5,-519.5 625.5,-519.5 625.5,-500.5 675.5,-500.5 675.5,-519.5"/>
<text text-anchor="middle" x="650.5" y="-507.5" font-family="Helvetica,sans-Serif" font-size="10.00">chrono</text>
</a>
</g>
</g>
<!-- Node2&#45;&gt;Node42 -->
<g id="edge61_Node000002_Node000042" class="edge">
<title>Node2&#45;&gt;Node42</title>
<g id="a_edge61_Node000002_Node000042"><a xlink:title=" ">
<path fill="none" stroke="#63b8ff" d="M849.55,-564.59C803.79,-555.94 739.47,-542.28 684.5,-525 682.83,-524.47 681.12,-523.9 679.4,-523.29"/>
<polygon fill="#63b8ff" stroke="#63b8ff" points="680.3,-519.89 669.71,-519.58 677.8,-526.42 680.3,-519.89"/>
</a>
</g>
</g>
<!-- Node43 -->
<g id="Node000043" class="node">
<title>Node43</title>
<g id="a_Node000043"><a xlink:title=" ">
<polygon fill="#e0e0e0" stroke="#999999" points="737.5,-519.5 693.5,-519.5 693.5,-500.5 737.5,-500.5 737.5,-519.5"/>
<text text-anchor="middle" x="715.5" y="-507.5" font-family="Helvetica,sans-Serif" font-size="10.00">ctime</text>
</a>
</g>
</g>
<!-- Node2&#45;&gt;Node43 -->
<g id="edge62_Node000002_Node000043" class="edge">
<title>Node2&#45;&gt;Node43</title>
<g id="a_edge62_Node000002_Node000043"><a xlink:title=" ">
<path fill="none" stroke="#63b8ff" d="M857.92,-560.99C825.57,-551.76 783.19,-538.85 746.5,-525 745.29,-524.54 744.06,-524.06 742.82,-523.56"/>
<polygon fill="#63b8ff" stroke="#63b8ff" points="743.94,-520.24 733.37,-519.53 741.2,-526.68 743.94,-520.24"/>
</a>
</g>
</g>
<!-- Node44 -->
<g id="Node000044" class="node">
<title>Node44</title>
<g id="a_Node000044"><a xlink:title=" ">
<polygon fill="#e0e0e0" stroke="#999999" points="881.5,-525 755.5,-525 755.5,-495 881.5,-495 881.5,-525"/>
<text text-anchor="start" x="763.5" y="-513" font-family="Helvetica,sans-Serif" font-size="10.00">packages/logging/impl</text>
<text text-anchor="middle" x="818.5" y="-502" font-family="Helvetica,sans-Serif" font-size="10.00">/Logger_impl.hpp</text>
</a>
</g>
</g>
<!-- Node2&#45;&gt;Node44 -->
<g id="edge64_Node000002_Node000044" class="edge">
<title>Node2&#45;&gt;Node44</title>
<g id="a_edge64_Node000002_Node000044"><a xlink:title=" ">
<path fill="none" stroke="#63b8ff" d="M889.3,-560.8C876.82,-552.01 860.6,-540.61 846.84,-530.93"/>
<polygon fill="#63b8ff" stroke="#63b8ff" points="848.83,-528.05 838.64,-525.16 844.81,-533.78 848.83,-528.05"/>
</a>
</g>
</g>
<!-- Node4 -->
<g id="Node000004" class="node">
<title>Node4</title>
<g id="a_Node000004"><a xlink:href="OutputStream_8hpp.html" target="_top" xlink:title=" ">
<polygon fill="white" stroke="#666666" points="979,-459 860,-459 860,-429 979,-429 979,-459"/>
<text text-anchor="start" x="868" y="-447" font-family="Helvetica,sans-Serif" font-size="10.00">packages/logging/inc</text>
<text text-anchor="middle" x="919.5" y="-436" font-family="Helvetica,sans-Serif" font-size="10.00">/OutputStream.hpp</text>
</a>
</g>
</g>
<!-- Node3&#45;&gt;Node4 -->
<g id="edge3_Node000003_Node000004" class="edge">
<title>Node3&#45;&gt;Node4</title>
<g id="a_edge3_Node000003_Node000004"><a xlink:title=" ">
<path fill="none" stroke="#63b8ff" d="M982.52,-494.8C971.62,-486.18 957.52,-475.04 945.42,-465.48"/>
<polygon fill="#63b8ff" stroke="#63b8ff" points="947.44,-462.62 937.43,-459.16 943.1,-468.11 947.44,-462.62"/>
</a>
</g>
</g>
<!-- Node3&#45;&gt;Node40 -->
<g id="edge55_Node000003_Node000040" class="edge">
<title>Node3&#45;&gt;Node40</title>
<g id="a_edge55_Node000003_Node000040"><a xlink:title=" ">
<path fill="none" stroke="#63b8ff" d="M958.15,-494.95C923.55,-483.48 875.24,-467.46 842.73,-456.68"/>
<polygon fill="#63b8ff" stroke="#63b8ff" points="843.78,-453.34 833.19,-453.52 841.58,-459.99 843.78,-453.34"/>
</a>
</g>
</g>
<!-- Node5 -->
<g id="Node000005" class="node">
<title>Node5</title>
<g id="a_Node000005"><a xlink:href="typedefs_8hpp.html" target="_top" xlink:title=" ">
<polygon fill="white" stroke="#666666" points="1025,-310.5 906,-310.5 906,-280.5 1025,-280.5 1025,-310.5"/>
<text text-anchor="start" x="914" y="-298.5" font-family="Helvetica,sans-Serif" font-size="10.00">packages/macros/inc</text>
<text text-anchor="middle" x="965.5" y="-287.5" font-family="Helvetica,sans-Serif" font-size="10.00">/typedefs.hpp</text>
</a>
</g>
</g>
<!-- Node4&#45;&gt;Node5 -->
<g id="edge4_Node000004_Node000005" class="edge">
<title>Node4&#45;&gt;Node5</title>
<g id="a_edge4_Node000004_Node000005"><a xlink:title=" ">
<path fill="none" stroke="#63b8ff" d="M955.88,-428.86C971.33,-420.83 987.75,-409.11 996.5,-393 1009.45,-369.16 995.55,-339.03 982.45,-318.84"/>
<polygon fill="#63b8ff" stroke="#63b8ff" points="985.33,-316.84 976.78,-310.58 979.56,-320.8 985.33,-316.84"/>
</a>
</g>
</g>
<!-- Node4&#45;&gt;Node6 -->
<g id="edge53_Node000004_Node000006" class="edge">
<title>Node4&#45;&gt;Node6</title>
<g id="a_edge53_Node000004_Node000006"><a xlink:title=" ">
<path fill="none" stroke="#63b8ff" d="M961.5,-428.94C979.52,-420.97 999.39,-409.28 1012.5,-393 1067.35,-324.88 1062.98,-211.34 1058.74,-166.77"/>
<polygon fill="#63b8ff" stroke="#63b8ff" points="1062.21,-166.35 1057.67,-156.78 1055.25,-167.09 1062.21,-166.35"/>
</a>
</g>
</g>
<!-- Node7 -->
<g id="Node000007" class="node">
<title>Node7</title>
<g id="a_Node000007"><a xlink:href="streamable_8hpp.html" target="_top" xlink:title=" ">
<polygon fill="white" stroke="#666666" points="494.5,-393 362.5,-393 362.5,-352 494.5,-352 494.5,-393"/>
<text text-anchor="start" x="370.5" y="-381" font-family="Helvetica,sans-Serif" font-size="10.00">packages/compile_time</text>
<text text-anchor="start" x="370.5" y="-370" font-family="Helvetica,sans-Serif" font-size="10.00">/packages/concepts/inc</text>
<text text-anchor="middle" x="428.5" y="-359" font-family="Helvetica,sans-Serif" font-size="10.00">/streamable.hpp</text>
</a>
</g>
</g>
<!-- Node4&#45;&gt;Node7 -->
<g id="edge6_Node000004_Node000007" class="edge">
<title>Node4&#45;&gt;Node7</title>
<g id="a_edge6_Node000004_Node000007"><a xlink:title=" ">
<path fill="none" stroke="#63b8ff" d="M859.72,-430.55C856.6,-430 853.52,-429.48 850.5,-429 715.28,-407.37 680.06,-412.36 544.5,-393 531.61,-391.16 517.95,-389.03 504.7,-386.86"/>
<polygon fill="#63b8ff" stroke="#63b8ff" points="505.1,-383.38 494.66,-385.2 503.96,-390.29 505.1,-383.38"/>
</a>
</g>
</g>
<!-- Node24 -->
<g id="Node000024" class="node">
<title>Node24</title>
<g id="a_Node000024"><a xlink:href="container__concepts_8hpp.html" target="_top" xlink:title=" ">
<polygon fill="white" stroke="#666666" points="328,-393 193,-393 193,-352 328,-352 328,-393"/>
<text text-anchor="start" x="201" y="-381" font-family="Helvetica,sans-Serif" font-size="10.00">packages/compile_time</text>
<text text-anchor="start" x="201" y="-370" font-family="Helvetica,sans-Serif" font-size="10.00">/packages/concepts/inc</text>
<text text-anchor="middle" x="260.5" y="-359" font-family="Helvetica,sans-Serif" font-size="10.00">/container_concepts.hpp</text>
</a>
</g>
</g>
<!-- Node4&#45;&gt;Node24 -->
<g id="edge24_Node000004_Node000024" class="edge">
<title>Node4&#45;&gt;Node24</title>
<g id="a_edge24_Node000004_Node000024"><a xlink:title=" ">
<path fill="none" stroke="#63b8ff" d="M859.74,-430.39C856.62,-429.88 853.53,-429.42 850.5,-429 631.08,-398.92 572.82,-423.79 353.5,-393 348.47,-392.29 343.31,-391.48 338.12,-390.58"/>
<polygon fill="#63b8ff" stroke="#63b8ff" points="338.58,-387.11 328.12,-388.78 337.34,-394 338.58,-387.11"/>
</a>
</g>
</g>
<!-- Node30 -->
<g id="Node000030" class="node">
<title>Node30</title>
<g id="a_Node000030"><a xlink:href="checks_8hpp.html" target="_top" xlink:title=" ">
<polygon fill="white" stroke="#666666" points="748,-387.5 629,-387.5 629,-357.5 748,-357.5 748,-387.5"/>
<text text-anchor="start" x="637" y="-375.5" font-family="Helvetica,sans-Serif" font-size="10.00">packages/macros/inc</text>
<text text-anchor="middle" x="688.5" y="-364.5" font-family="Helvetica,sans-Serif" font-size="10.00">/checks.hpp</text>
</a>
</g>
</g>
<!-- Node4&#45;&gt;Node30 -->
<g id="edge35_Node000004_Node000030" class="edge">
<title>Node4&#45;&gt;Node30</title>
<g id="a_edge35_Node000004_Node000030"><a xlink:title=" ">
<path fill="none" stroke="#63b8ff" d="M872.75,-428.94C835.81,-417.82 784.1,-402.26 744.87,-390.46"/>
<polygon fill="#63b8ff" stroke="#63b8ff" points="745.76,-387.07 735.18,-387.54 743.74,-393.78 745.76,-387.07"/>
</a>
</g>
</g>
<!-- Node37 -->
<g id="Node000037" class="node">
<title>Node37</title>
<g id="a_Node000037"><a xlink:title=" ">
<polygon fill="#e0e0e0" stroke="#999999" points="611,-382 554,-382 554,-363 611,-363 611,-382"/>
<text text-anchor="middle" x="582.5" y="-370" font-family="Helvetica,sans-Serif" font-size="10.00">ostream</text>
</a>
</g>
</g>
<!-- Node4&#45;&gt;Node37 -->
<g id="edge51_Node000004_Node000037" class="edge">
<title>Node4&#45;&gt;Node37</title>
<g id="a_edge51_Node000004_Node000037"><a xlink:title=" ">
<path fill="none" stroke="#63b8ff" d="M859.69,-430.69C856.59,-430.11 853.51,-429.54 850.5,-429 748.22,-410.66 718.14,-425.67 619.5,-393 614.67,-391.4 609.71,-389.22 605.06,-386.89"/>
<polygon fill="#63b8ff" stroke="#63b8ff" points="606.54,-383.71 596.07,-382.04 603.21,-389.87 606.54,-383.71"/>
</a>
</g>
</g>
<!-- Node38 -->
<g id="Node000038" class="node">
<title>Node38</title>
<g id="a_Node000038"><a xlink:title=" ">
<polygon fill="#e0e0e0" stroke="#999999" points="833,-382 766,-382 766,-363 833,-363 833,-382"/>
<text text-anchor="middle" x="799.5" y="-370" font-family="Helvetica,sans-Serif" font-size="10.00">streambuf</text>
</a>
</g>
</g>
<!-- Node4&#45;&gt;Node38 -->
<g id="edge52_Node000004_Node000038" class="edge">
<title>Node4&#45;&gt;Node38</title>
<g id="a_edge52_Node000004_Node000038"><a xlink:title=" ">
<path fill="none" stroke="#63b8ff" d="M895.22,-428.94C874.19,-416.76 843.97,-399.26 823.14,-387.19"/>
<polygon fill="#63b8ff" stroke="#63b8ff" points="824.7,-384.05 814.29,-382.07 821.19,-390.11 824.7,-384.05"/>
</a>
</g>
</g>
<!-- Node39 -->
<g id="Node000039" class="node">
<title>Node39</title>
<g id="a_Node000039"><a xlink:title=" ">
<polygon fill="#e0e0e0" stroke="#999999" points="987.5,-387.5 851.5,-387.5 851.5,-357.5 987.5,-357.5 987.5,-387.5"/>
<text text-anchor="start" x="859.5" y="-375.5" font-family="Helvetica,sans-Serif" font-size="10.00">packages/logging/impl</text>
<text text-anchor="middle" x="919.5" y="-364.5" font-family="Helvetica,sans-Serif" font-size="10.00">/OutputStream_impl.hpp</text>
</a>
</g>
</g>
<!-- Node4&#45;&gt;Node39 -->
<g id="edge54_Node000004_Node000039" class="edge">
<title>Node4&#45;&gt;Node39</title>
<g id="a_edge54_Node000004_Node000039"><a xlink:title=" ">
<path fill="none" stroke="#63b8ff" d="M919.5,-428.94C919.5,-419.99 919.5,-408.16 919.5,-397.73"/>
<polygon fill="#63b8ff" stroke="#63b8ff" points="923,-397.54 919.5,-387.54 916,-397.54 923,-397.54"/>
</a>
</g>
</g>
<!-- Node5&#45;&gt;Node6 -->
<g id="edge5_Node000005_Node000006" class="edge">
<title>Node5&#45;&gt;Node6</title>
<g id="a_edge5_Node000005_Node000006"><a xlink:title=" ">
<path fill="none" stroke="#63b8ff" d="M974.23,-280.45C990.93,-253.56 1027.39,-194.86 1045.64,-165.48"/>
<polygon fill="#63b8ff" stroke="#63b8ff" points="1048.78,-167.07 1051.08,-156.73 1042.83,-163.38 1048.78,-167.07"/>
</a>
</g>
</g>
<!-- Node8 -->
<g id="Node000008" class="node">
<title>Node8</title>
<g id="a_Node000008"><a xlink:href="basic__concepts_8hpp.html" target="_top" xlink:title=" ">
<polygon fill="white" stroke="#666666" points="568.5,-239 436.5,-239 436.5,-198 568.5,-198 568.5,-239"/>
<text text-anchor="start" x="444.5" y="-227" font-family="Helvetica,sans-Serif" font-size="10.00">packages/compile_time</text>
<text text-anchor="start" x="444.5" y="-216" font-family="Helvetica,sans-Serif" font-size="10.00">/packages/concepts/inc</text>
<text text-anchor="middle" x="502.5" y="-205" font-family="Helvetica,sans-Serif" font-size="10.00">/basic_concepts.hpp</text>
</a>
</g>
</g>
<!-- Node7&#45;&gt;Node8 -->
<g id="edge7_Node000007_Node000008" class="edge">
<title>Node7&#45;&gt;Node8</title>
<g id="a_edge7_Node000007_Node000008"><a xlink:title=" ">
<path fill="none" stroke="#63b8ff" d="M395.67,-351.79C383.52,-342.59 371.1,-330.45 364.5,-316 356.93,-299.42 354.3,-290.1 364.5,-275 372.42,-263.28 398.85,-251.42 426.48,-241.69"/>
<polygon fill="#63b8ff" stroke="#63b8ff" points="427.95,-244.89 436.28,-238.35 425.69,-238.27 427.95,-244.89"/>
</a>
</g>
</g>
<!-- Node22 -->
<g id="Node000022" class="node">
<title>Node22</title>
<g id="a_Node000022"><a xlink:title=" ">
<polygon fill="#e0e0e0" stroke="#999999" points="642.5,-228 586.5,-228 586.5,-209 642.5,-209 642.5,-228"/>
<text text-anchor="middle" x="614.5" y="-216" font-family="Helvetica,sans-Serif" font-size="10.00">sstream</text>
</a>
</g>
</g>
<!-- Node7&#45;&gt;Node22 -->
<g id="edge22_Node000007_Node000022" class="edge">
<title>Node7&#45;&gt;Node22</title>
<g id="a_edge22_Node000007_Node000022"><a xlink:title=" ">
<path fill="none" stroke="#63b8ff" d="M412.28,-351.72C397.07,-330.64 379.2,-297.32 397.5,-275 449.22,-211.91 500.62,-266.3 577.5,-239 582.21,-237.33 587.07,-235.14 591.65,-232.84"/>
<polygon fill="#63b8ff" stroke="#63b8ff" points="593.36,-235.89 600.53,-228.09 590.06,-229.72 593.36,-235.89"/>
</a>
</g>
</g>
<!-- Node7&#45;&gt;Node23 -->
<g id="edge23_Node000007_Node000023" class="edge">
<title>Node7&#45;&gt;Node23</title>
<g id="a_edge23_Node000007_Node000023"><a xlink:title=" ">
<path fill="none" stroke="#63b8ff" d="M429.03,-351.79C429.32,-340.59 429.7,-326.61 429.99,-315.52"/>
<polygon fill="#63b8ff" stroke="#63b8ff" points="433.5,-315.33 430.27,-305.24 426.5,-315.14 433.5,-315.33"/>
</a>
</g>
</g>
<!-- Node8&#45;&gt;Node9 -->
<g id="edge8_Node000008_Node000009" class="edge">
<title>Node8&#45;&gt;Node9</title>
<g id="a_edge8_Node000008_Node000009"><a xlink:title=" ">
<path fill="none" stroke="#63b8ff" d="M458.07,-197.96C435.39,-187.98 407.97,-175.92 385.76,-166.15"/>
<polygon fill="#63b8ff" stroke="#63b8ff" points="387.15,-162.94 376.58,-162.11 384.33,-169.34 387.15,-162.94"/>
</a>
</g>
</g>
<!-- Node15 -->
<g id="Node000015" class="node">
<title>Node15</title>
<g id="a_Node000015"><a xlink:title=" ">
<polygon fill="#e0e0e0" stroke="#999999" points="618,-90.5 549,-90.5 549,-71.5 618,-71.5 618,-90.5"/>
<text text-anchor="middle" x="583.5" y="-78.5" font-family="Helvetica,sans-Serif" font-size="10.00">type_traits</text>
</a>
</g>
</g>
<!-- Node8&#45;&gt;Node15 -->
<g id="edge19_Node000008_Node000015" class="edge">
<title>Node8&#45;&gt;Node15</title>
<g id="a_edge19_Node000008_Node000015"><a xlink:title=" ">
<path fill="none" stroke="#63b8ff" d="M521.7,-197.82C530.91,-187.68 541.62,-174.79 549.5,-162 561.71,-142.19 571.55,-117.21 577.44,-100.49"/>
<polygon fill="#63b8ff" stroke="#63b8ff" points="580.82,-101.42 580.73,-90.82 574.19,-99.16 580.82,-101.42"/>
</a>
</g>
</g>
<!-- Node19 -->
<g id="Node000019" class="node">
<title>Node19</title>
<g id="a_Node000019"><a xlink:title=" ">
<polygon fill="#e0e0e0" stroke="#999999" points="477.5,-156.5 417.5,-156.5 417.5,-137.5 477.5,-137.5 477.5,-156.5"/>
<text text-anchor="middle" x="447.5" y="-144.5" font-family="Helvetica,sans-Serif" font-size="10.00">concepts</text>
</a>
</g>
</g>
<!-- Node8&#45;&gt;Node19 -->
<g id="edge18_Node000008_Node000019" class="edge">
<title>Node8&#45;&gt;Node19</title>
<g id="a_edge18_Node000008_Node000019"><a xlink:title=" ">
<path fill="none" stroke="#63b8ff" d="M486.89,-197.77C478.63,-187.34 468.61,-174.68 460.74,-164.73"/>
<polygon fill="#63b8ff" stroke="#63b8ff" points="463.43,-162.49 454.48,-156.82 457.94,-166.83 463.43,-162.49"/>
</a>
</g>
</g>
<!-- Node20 -->
<g id="Node000020" class="node">
<title>Node20</title>
<g id="a_Node000020"><a xlink:title=" ">
<polygon fill="#e0e0e0" stroke="#999999" points="647.5,-156.5 597.5,-156.5 597.5,-137.5 647.5,-137.5 647.5,-156.5"/>
<text text-anchor="middle" x="622.5" y="-144.5" font-family="Helvetica,sans-Serif" font-size="10.00">cstdint</text>
</a>
</g>
</g>
<!-- Node8&#45;&gt;Node20 -->
<g id="edge20_Node000008_Node000020" class="edge">
<title>Node8&#45;&gt;Node20</title>
<g id="a_edge20_Node000008_Node000020"><a xlink:title=" ">
<path fill="none" stroke="#63b8ff" d="M536.25,-197.96C556.13,-186.44 580.81,-172.14 598.67,-161.8"/>
<polygon fill="#63b8ff" stroke="#63b8ff" points="600.92,-164.54 607.82,-156.5 597.41,-158.49 600.92,-164.54"/>
</a>
</g>
</g>
<!-- Node21 -->
<g id="Node000021" class="node">
<title>Node21</title>
<g id="a_Node000021"><a xlink:title=" ">
<polygon fill="#e0e0e0" stroke="#999999" points="541,-156.5 496,-156.5 496,-137.5 541,-137.5 541,-156.5"/>
<text text-anchor="middle" x="518.5" y="-144.5" font-family="Helvetica,sans-Serif" font-size="10.00">utility</text>
</a>
</g>
</g>
<!-- Node8&#45;&gt;Node21 -->
<g id="edge21_Node000008_Node000021" class="edge">
<title>Node8&#45;&gt;Node21</title>
<g id="a_edge21_Node000008_Node000021"><a xlink:title=" ">
<path fill="none" stroke="#63b8ff" d="M507.04,-197.77C509.3,-187.97 512.01,-176.2 514.22,-166.57"/>
<polygon fill="#63b8ff" stroke="#63b8ff" points="517.64,-167.35 516.47,-156.82 510.82,-165.78 517.64,-167.35"/>
</a>
</g>
</g>
<!-- Node10 -->
<g id="Node000010" class="node">
<title>Node10</title>
<g id="a_Node000010"><a xlink:href="debug_8hpp.html" target="_top" xlink:title=" ">
<polygon fill="white" stroke="#666666" points="391,-96 272,-96 272,-66 391,-66 391,-96"/>
<text text-anchor="start" x="280" y="-84" font-family="Helvetica,sans-Serif" font-size="10.00">packages/macros/inc</text>
<text text-anchor="middle" x="331.5" y="-73" font-family="Helvetica,sans-Serif" font-size="10.00">/debug.hpp</text>
</a>
</g>
</g>
<!-- Node9&#45;&gt;Node10 -->
<g id="edge9_Node000009_Node000010" class="edge">
<title>Node9&#45;&gt;Node10</title>
<g id="a_edge9_Node000009_Node000010"><a xlink:title=" ">
<path fill="none" stroke="#63b8ff" d="M341.61,-131.8C340.08,-124.26 338.16,-114.78 336.4,-106.13"/>
<polygon fill="#63b8ff" stroke="#63b8ff" points="339.8,-105.27 334.38,-96.16 332.94,-106.66 339.8,-105.27"/>
</a>
</g>
</g>
<!-- Node13 -->
<g id="Node000013" class="node">
<title>Node13</title>
<g id="a_Node000013"><a xlink:title=" ">
<polygon fill="#e0e0e0" stroke="#999999" points="462,-90.5 409,-90.5 409,-71.5 462,-71.5 462,-90.5"/>
<text text-anchor="middle" x="435.5" y="-78.5" font-family="Helvetica,sans-Serif" font-size="10.00">cstddef</text>
</a>
</g>
</g>
<!-- Node9&#45;&gt;Node13 -->
<g id="edge12_Node000009_Node000013" class="edge">
<title>Node9&#45;&gt;Node13</title>
<g id="a_edge12_Node000009_Node000013"><a xlink:title=" ">
<path fill="none" stroke="#63b8ff" d="M364.7,-131.8C379.53,-121.37 399.61,-107.24 414.61,-96.69"/>
<polygon fill="#63b8ff" stroke="#63b8ff" points="417.02,-99.27 423.19,-90.66 413,-93.55 417.02,-99.27"/>
</a>
</g>
</g>
<!-- Node9&#45;&gt;Node14 -->
<g id="edge13_Node000009_Node000014" class="edge">
<title>Node9&#45;&gt;Node14</title>
<g id="a_edge13_Node000009_Node000014"><a xlink:title=" ">
<path fill="none" stroke="#63b8ff" d="M399.57,-133.43C402.58,-132.91 405.57,-132.43 408.5,-132 656.42,-95.97 959.09,-85.35 1057.17,-82.74"/>
<polygon fill="#63b8ff" stroke="#63b8ff" points="1057.42,-86.24 1067.33,-82.48 1057.24,-79.24 1057.42,-86.24"/>
</a>
</g>
</g>
<!-- Node9&#45;&gt;Node15 -->
<g id="edge14_Node000009_Node000015" class="edge">
<title>Node9&#45;&gt;Node15</title>
<g id="a_edge14_Node000009_Node000015"><a xlink:title=" ">
<path fill="none" stroke="#63b8ff" d="M399.78,-132.72C438.95,-123.09 492.64,-109.45 539.5,-96 542.24,-95.21 545.08,-94.37 547.92,-93.51"/>
<polygon fill="#63b8ff" stroke="#63b8ff" points="549,-96.84 557.52,-90.54 546.93,-90.15 549,-96.84"/>
</a>
</g>
</g>
<!-- Node16 -->
<g id="Node000016" class="node">
<title>Node16</title>
<g id="a_Node000016"><a xlink:title=" ">
<polygon fill="#e0e0e0" stroke="#999999" points="530.5,-90.5 480.5,-90.5 480.5,-71.5 530.5,-71.5 530.5,-90.5"/>
<text text-anchor="middle" x="505.5" y="-78.5" font-family="Helvetica,sans-Serif" font-size="10.00">climits</text>
</a>
</g>
</g>
<!-- Node9&#45;&gt;Node16 -->
<g id="edge15_Node000009_Node000016" class="edge">
<title>Node9&#45;&gt;Node16</title>
<g id="a_edge15_Node000009_Node000016"><a xlink:title=" ">
<path fill="none" stroke="#63b8ff" d="M380.08,-131.91C405.33,-121.91 440,-108.15 470.5,-96 471.87,-95.45 473.27,-94.9 474.68,-94.33"/>
<polygon fill="#63b8ff" stroke="#63b8ff" points="476.04,-97.56 484.03,-90.6 473.45,-91.06 476.04,-97.56"/>
</a>
</g>
</g>
<!-- Node17 -->
<g id="Node000017" class="node">
<title>Node17</title>
<g id="a_Node000017"><a xlink:title=" ">
<polygon fill="#e0e0e0" stroke="#999999" points="117,-96 0,-96 0,-66 117,-66 117,-96"/>
<text text-anchor="start" x="8" y="-84" font-family="Helvetica,sans-Serif" font-size="10.00">packages/types/impl</text>
<text text-anchor="middle" x="58.5" y="-73" font-family="Helvetica,sans-Serif" font-size="10.00">/types_impl.hpp</text>
</a>
</g>
</g>
<!-- Node9&#45;&gt;Node17 -->
<g id="edge16_Node000009_Node000017" class="edge">
<title>Node9&#45;&gt;Node17</title>
<g id="a_edge16_Node000009_Node000017"><a xlink:title=" ">
<path fill="none" stroke="#63b8ff" d="M289.36,-133.66C243.19,-123.33 177.08,-108.54 127.43,-97.42"/>
<polygon fill="#63b8ff" stroke="#63b8ff" points="127.94,-93.95 117.41,-95.18 126.41,-100.78 127.94,-93.95"/>
</a>
</g>
</g>
<!-- Node18 -->
<g id="Node000018" class="node">
<title>Node18</title>
<g id="a_Node000018"><a xlink:href="logging_8hpp.html" target="_top" xlink:title=" ">
<polygon fill="white" stroke="#666666" points="254,-96 135,-96 135,-66 254,-66 254,-96"/>
<text text-anchor="start" x="143" y="-84" font-family="Helvetica,sans-Serif" font-size="10.00">packages/macros/inc</text>
<text text-anchor="middle" x="194.5" y="-73" font-family="Helvetica,sans-Serif" font-size="10.00">/logging.hpp</text>
</a>
</g>
</g>
<!-- Node9&#45;&gt;Node18 -->
<g id="edge17_Node000009_Node000018" class="edge">
<title>Node9&#45;&gt;Node18</title>
<g id="a_edge17_Node000009_Node000018"><a xlink:title=" ">
<path fill="none" stroke="#63b8ff" d="M311.58,-131.95C289.6,-122.58 260.49,-110.16 236.79,-100.05"/>
<polygon fill="#63b8ff" stroke="#63b8ff" points="237.91,-96.72 227.34,-96.01 235.17,-103.16 237.91,-96.72"/>
</a>
</g>
</g>
<!-- Node11 -->
<g id="Node000011" class="node">
<title>Node11</title>
<g id="a_Node000011"><a xlink:href="detail_8hpp.html" target="_top" xlink:title=" ">
<polygon fill="white" stroke="#666666" points="735,-30 616,-30 616,0 735,0 735,-30"/>
<text text-anchor="start" x="624" y="-18" font-family="Helvetica,sans-Serif" font-size="10.00">packages/macros/inc</text>
<text text-anchor="middle" x="675.5" y="-7" font-family="Helvetica,sans-Serif" font-size="10.00">/detail.hpp</text>
</a>
</g>
</g>
<!-- Node10&#45;&gt;Node11 -->
<g id="edge10_Node000010_Node000011" class="edge">
<title>Node10&#45;&gt;Node11</title>
<g id="a_edge10_Node000010_Node000011"><a xlink:title=" ">
<path fill="none" stroke="#63b8ff" d="M391.19,-67.63C394,-67.07 396.78,-66.53 399.5,-66 469.6,-52.44 549.94,-38.01 605.8,-28.15"/>
<polygon fill="#63b8ff" stroke="#63b8ff" points="606.69,-31.55 615.93,-26.37 605.48,-24.66 606.69,-31.55"/>
</a>
</g>
</g>
<!-- Node12 -->
<g id="Node000012" class="node">
<title>Node12</title>
<g id="a_Node000012"><a xlink:title=" ">
<polygon fill="#e0e0e0" stroke="#999999" points="361.5,-24.5 301.5,-24.5 301.5,-5.5 361.5,-5.5 361.5,-24.5"/>
<text text-anchor="middle" x="331.5" y="-12.5" font-family="Helvetica,sans-Serif" font-size="10.00">iostream</text>
</a>
</g>
</g>
<!-- Node10&#45;&gt;Node12 -->
<g id="edge11_Node000010_Node000012" class="edge">
<title>Node10&#45;&gt;Node12</title>
<g id="a_edge11_Node000010_Node000012"><a xlink:title=" ">
<path fill="none" stroke="#63b8ff" d="M331.5,-65.8C331.5,-56.7 331.5,-44.79 331.5,-34.9"/>
<polygon fill="#63b8ff" stroke="#63b8ff" points="335,-34.84 331.5,-24.84 328,-34.84 335,-34.84"/>
</a>
</g>
</g>
<!-- Node25 -->
<g id="Node000025" class="node">
<title>Node25</title>
<g id="a_Node000025"><a xlink:href="iterator__concepts_8hpp.html" target="_top" xlink:title=" ">
<polygon fill="white" stroke="#666666" points="312.5,-316 180.5,-316 180.5,-275 312.5,-275 312.5,-316"/>
<text text-anchor="start" x="188.5" y="-304" font-family="Helvetica,sans-Serif" font-size="10.00">packages/compile_time</text>
<text text-anchor="start" x="188.5" y="-293" font-family="Helvetica,sans-Serif" font-size="10.00">/packages/concepts/inc</text>
<text text-anchor="middle" x="246.5" y="-282" font-family="Helvetica,sans-Serif" font-size="10.00">/iterator_concepts.hpp</text>
</a>
</g>
</g>
<!-- Node24&#45;&gt;Node25 -->
<g id="edge25_Node000024_Node000025" class="edge">
<title>Node24&#45;&gt;Node25</title>
<g id="a_edge25_Node000024_Node000025"><a xlink:title=" ">
<path fill="none" stroke="#63b8ff" d="M256.82,-351.79C255.36,-343.96 253.64,-334.77 252.04,-326.16"/>
<polygon fill="#63b8ff" stroke="#63b8ff" points="255.43,-325.26 250.15,-316.07 248.55,-326.55 255.43,-325.26"/>
</a>
</g>
</g>
<!-- Node25&#45;&gt;Node6 -->
<g id="edge34_Node000025_Node000006" class="edge">
<title>Node25&#45;&gt;Node6</title>
<g id="a_edge34_Node000025_Node000006"><a xlink:title=" ">
<path fill="none" stroke="#63b8ff" d="M312.55,-285.06C338.93,-281.53 369.61,-277.72 397.5,-275 518.3,-263.22 829.33,-282.87 942.5,-239 948.06,-236.85 1007.11,-188.63 1037.96,-163.28"/>
<polygon fill="#63b8ff" stroke="#63b8ff" points="1040.35,-165.84 1045.85,-156.79 1035.9,-160.44 1040.35,-165.84"/>
</a>
</g>
</g>
<!-- Node25&#45;&gt;Node8 -->
<g id="edge26_Node000025_Node000008" class="edge">
<title>Node25&#45;&gt;Node8</title>
<g id="a_edge26_Node000025_Node000008"><a xlink:title=" ">
<path fill="none" stroke="#63b8ff" d="M312.76,-275.09C347.43,-264.93 390.04,-252.45 426.09,-241.89"/>
<polygon fill="#63b8ff" stroke="#63b8ff" points="427.46,-245.13 436.07,-238.96 425.49,-238.41 427.46,-245.13"/>
</a>
</g>
</g>
<!-- Node26 -->
<g id="Node000026" class="node">
<title>Node26</title>
<g id="a_Node000026"><a xlink:href="Size_8hpp.html" target="_top" xlink:title=" ">
<polygon fill="white" stroke="#666666" points="180.5,-239 32.5,-239 32.5,-198 180.5,-198 180.5,-239"/>
<text text-anchor="start" x="40.5" y="-227" font-family="Helvetica,sans-Serif" font-size="10.00">packages/compile_time</text>
<text text-anchor="start" x="40.5" y="-216" font-family="Helvetica,sans-Serif" font-size="10.00">/packages/parameter_pack</text>
<text text-anchor="middle" x="106.5" y="-205" font-family="Helvetica,sans-Serif" font-size="10.00">/inc/Size.hpp</text>
</a>
</g>
</g>
<!-- Node25&#45;&gt;Node26 -->
<g id="edge27_Node000025_Node000026" class="edge">
<title>Node25&#45;&gt;Node26</title>
<g id="a_edge27_Node000025_Node000026"><a xlink:title=" ">
<path fill="none" stroke="#63b8ff" d="M210.08,-274.99C192.4,-265.52 170.96,-254.03 152.19,-243.98"/>
<polygon fill="#63b8ff" stroke="#63b8ff" points="153.69,-240.81 143.22,-239.17 150.38,-246.98 153.69,-240.81"/>
</a>
</g>
</g>
<!-- Node27 -->
<g id="Node000027" class="node">
<title>Node27</title>
<g id="a_Node000027"><a xlink:href="Select_8hpp.html" target="_top" xlink:title=" ">
<polygon fill="white" stroke="#666666" points="418.5,-239 270.5,-239 270.5,-198 418.5,-198 418.5,-239"/>
<text text-anchor="start" x="278.5" y="-227" font-family="Helvetica,sans-Serif" font-size="10.00">packages/compile_time</text>
<text text-anchor="start" x="278.5" y="-216" font-family="Helvetica,sans-Serif" font-size="10.00">/packages/parameter_pack</text>
<text text-anchor="middle" x="344.5" y="-205" font-family="Helvetica,sans-Serif" font-size="10.00">/inc/Select.hpp</text>
</a>
</g>
</g>
<!-- Node25&#45;&gt;Node27 -->
<g id="edge29_Node000025_Node000027" class="edge">
<title>Node25&#45;&gt;Node27</title>
<g id="a_edge29_Node000025_Node000027"><a xlink:title=" ">
<path fill="none" stroke="#63b8ff" d="M271.99,-274.99C283.81,-265.95 298.02,-255.07 310.71,-245.36"/>
<polygon fill="#63b8ff" stroke="#63b8ff" points="312.98,-248.03 318.79,-239.17 308.73,-242.47 312.98,-248.03"/>
</a>
</g>
</g>
<!-- Node29 -->
<g id="Node000029" class="node">
<title>Node29</title>
<g id="a_Node000029"><a xlink:title=" ">
<polygon fill="#e0e0e0" stroke="#999999" points="252,-228 199,-228 199,-209 252,-209 252,-228"/>
<text text-anchor="middle" x="225.5" y="-216" font-family="Helvetica,sans-Serif" font-size="10.00">iterator</text>
</a>
</g>
</g>
<!-- Node25&#45;&gt;Node29 -->
<g id="edge33_Node000025_Node000029" class="edge">
<title>Node25&#45;&gt;Node29</title>
<g id="a_edge33_Node000025_Node000029"><a xlink:title=" ">
<path fill="none" stroke="#63b8ff" d="M240.98,-274.79C237.81,-263.47 233.85,-249.32 230.73,-238.17"/>
<polygon fill="#63b8ff" stroke="#63b8ff" points="234.01,-236.92 227.95,-228.24 227.27,-238.81 234.01,-236.92"/>
</a>
</g>
</g>
<!-- Node26&#45;&gt;Node9 -->
<g id="edge28_Node000026_Node000009" class="edge">
<title>Node26&#45;&gt;Node9</title>
<g id="a_edge28_Node000026_Node000009"><a xlink:title=" ">
<path fill="none" stroke="#63b8ff" d="M173.43,-197.96C209.09,-187.54 252.53,-174.86 286.71,-164.88"/>
<polygon fill="#63b8ff" stroke="#63b8ff" points="287.93,-168.17 296.54,-162 285.96,-161.45 287.93,-168.17"/>
</a>
</g>
</g>
<!-- Node27&#45;&gt;Node9 -->
<g id="edge30_Node000027_Node000009" class="edge">
<title>Node27&#45;&gt;Node9</title>
<g id="a_edge30_Node000027_Node000009"><a xlink:title=" ">
<path fill="none" stroke="#63b8ff" d="M344.5,-197.77C344.5,-189.85 344.5,-180.63 344.5,-172.3"/>
<polygon fill="#63b8ff" stroke="#63b8ff" points="348,-172.04 344.5,-162.04 341,-172.04 348,-172.04"/>
</a>
</g>
</g>
<!-- Node27&#45;&gt;Node19 -->
<g id="edge32_Node000027_Node000019" class="edge">
<title>Node27&#45;&gt;Node19</title>
<g id="a_edge32_Node000027_Node000019"><a xlink:title=" ">
<path fill="none" stroke="#63b8ff" d="M373.47,-197.96C390.22,-186.65 410.94,-172.67 426.19,-162.38"/>
<polygon fill="#63b8ff" stroke="#63b8ff" points="428.57,-165 434.9,-156.5 424.65,-159.2 428.57,-165"/>
</a>
</g>
</g>
<!-- Node28 -->
<g id="Node000028" class="node">
<title>Node28</title>
<g id="a_Node000028"><a xlink:title=" ">
<polygon fill="#e0e0e0" stroke="#999999" points="271,-156.5 230,-156.5 230,-137.5 271,-137.5 271,-156.5"/>
<text text-anchor="middle" x="250.5" y="-144.5" font-family="Helvetica,sans-Serif" font-size="10.00">tuple</text>
</a>
</g>
</g>
<!-- Node27&#45;&gt;Node28 -->
<g id="edge31_Node000027_Node000028" class="edge">
<title>Node27&#45;&gt;Node28</title>
<g id="a_edge31_Node000027_Node000028"><a xlink:title=" ">
<path fill="none" stroke="#63b8ff" d="M318.07,-197.96C302.92,-186.76 284.23,-172.94 270.34,-162.67"/>
<polygon fill="#63b8ff" stroke="#63b8ff" points="272.12,-159.63 262,-156.5 267.96,-165.26 272.12,-159.63"/>
</a>
</g>
</g>
<!-- Node30&#45;&gt;Node11 -->
<g id="edge48_Node000030_Node000011" class="edge">
<title>Node30&#45;&gt;Node11</title>
<g id="a_edge48_Node000030_Node000011"><a xlink:title=" ">
<path fill="none" stroke="#63b8ff" d="M727.3,-357.44C745.71,-348.58 765.94,-335.14 776.5,-316 785.3,-300.04 779.86,-292.91 776.5,-275 766.55,-222.03 751.51,-212.43 732.5,-162 716.48,-119.5 714.43,-108.14 697.5,-66 693.99,-57.27 689.9,-47.8 686.2,-39.47"/>
<polygon fill="#63b8ff" stroke="#63b8ff" points="689.39,-38.03 682.1,-30.34 683,-40.89 689.39,-38.03"/>
</a>
</g>
</g>
<!-- Node30&#45;&gt;Node22 -->
<g id="edge50_Node000030_Node000022" class="edge">
<title>Node30&#45;&gt;Node22</title>
<g id="a_edge50_Node000030_Node000022"><a xlink:title=" ">
<path fill="none" stroke="#63b8ff" d="M672.64,-357.43C661.81,-347 647.94,-331.89 639.5,-316 626.2,-290.97 619.69,-258.47 616.72,-238.31"/>
<polygon fill="#63b8ff" stroke="#63b8ff" points="620.17,-237.7 615.38,-228.25 613.23,-238.62 620.17,-237.7"/>
</a>
</g>
</g>
<!-- Node31 -->
<g id="Node000031" class="node">
<title>Node31</title>
<g id="a_Node000031"><a xlink:href="exception_8hpp.html" target="_top" xlink:title=" ">
<polygon fill="white" stroke="#666666" points="933,-233.5 814,-233.5 814,-203.5 933,-203.5 933,-233.5"/>
<text text-anchor="start" x="822" y="-221.5" font-family="Helvetica,sans-Serif" font-size="10.00">packages/exceptions</text>
<text text-anchor="middle" x="873.5" y="-210.5" font-family="Helvetica,sans-Serif" font-size="10.00">/inc/exception.hpp</text>
</a>
</g>
</g>
<!-- Node30&#45;&gt;Node31 -->
<g id="edge36_Node000030_Node000031" class="edge">
<title>Node30&#45;&gt;Node31</title>
<g id="a_edge36_Node000030_Node000031"><a xlink:title=" ">
<path fill="none" stroke="#63b8ff" d="M734.9,-357.45C759.3,-348.41 788.61,-334.8 810.5,-316 834.19,-295.65 852.41,-264.24 863.03,-242.82"/>
<polygon fill="#63b8ff" stroke="#63b8ff" points="866.21,-244.29 867.36,-233.76 859.89,-241.27 866.21,-244.29"/>
</a>
</g>
</g>
<!-- Node35 -->
<g id="Node000035" class="node">
<title>Node35</title>
<g id="a_Node000035"><a xlink:href="exceptions_8hpp.html" target="_top" xlink:title=" ">
<polygon fill="white" stroke="#666666" points="768,-310.5 649,-310.5 649,-280.5 768,-280.5 768,-310.5"/>
<text text-anchor="start" x="657" y="-298.5" font-family="Helvetica,sans-Serif" font-size="10.00">packages/macros/inc</text>
<text text-anchor="middle" x="708.5" y="-287.5" font-family="Helvetica,sans-Serif" font-size="10.00">/exceptions.hpp</text>
</a>
</g>
</g>
<!-- Node30&#45;&gt;Node35 -->
<g id="edge43_Node000030_Node000035" class="edge">
<title>Node30&#45;&gt;Node35</title>
<g id="a_edge43_Node000030_Node000035"><a xlink:title=" ">
<path fill="none" stroke="#63b8ff" d="M692.26,-357.39C695.03,-347.02 698.85,-332.68 702.1,-320.51"/>
<polygon fill="#63b8ff" stroke="#63b8ff" points="705.56,-321.11 704.76,-310.54 698.8,-319.3 705.56,-321.11"/>
</a>
</g>
</g>
<!-- Node36 -->
<g id="Node000036" class="node">
<title>Node36</title>
<g id="a_Node000036"><a xlink:title=" ">
<polygon fill="#e0e0e0" stroke="#999999" points="592.5,-305 472.5,-305 472.5,-286 592.5,-286 592.5,-305"/>
<text text-anchor="middle" x="532.5" y="-293" font-family="Helvetica,sans-Serif" font-size="10.00">cmake_variables.hpp</text>
</a>
</g>
</g>
<!-- Node30&#45;&gt;Node36 -->
<g id="edge49_Node000030_Node000036" class="edge">
<title>Node30&#45;&gt;Node36</title>
<g id="a_edge49_Node000030_Node000036"><a xlink:title=" ">
<path fill="none" stroke="#63b8ff" d="M659.16,-357.39C630.58,-343.65 587.48,-322.93 559.67,-309.56"/>
<polygon fill="#63b8ff" stroke="#63b8ff" points="561.05,-306.34 550.52,-305.16 558.01,-312.65 561.05,-306.34"/>
</a>
</g>
</g>
<!-- Node31&#45;&gt;Node6 -->
<g id="edge41_Node000031_Node000006" class="edge">
<title>Node31&#45;&gt;Node6</title>
<g id="a_edge41_Node000031_Node000006"><a xlink:title=" ">
<path fill="none" stroke="#63b8ff" d="M910.53,-203.44C943.89,-190.77 992.44,-172.33 1024.24,-160.25"/>
<polygon fill="#63b8ff" stroke="#63b8ff" points="1025.83,-163.39 1033.94,-156.57 1023.35,-156.85 1025.83,-163.39"/>
</a>
</g>
</g>
<!-- Node31&#45;&gt;Node9 -->
<g id="edge37_Node000031_Node000009" class="edge">
<title>Node31&#45;&gt;Node9</title>
<g id="a_edge37_Node000031_Node000009"><a xlink:title=" ">
<path fill="none" stroke="#63b8ff" d="M813.78,-212.23C726.93,-204.16 560.55,-187.16 409.52,-162.07"/>
<polygon fill="#63b8ff" stroke="#63b8ff" points="410.03,-158.61 399.59,-160.41 408.88,-165.51 410.03,-158.61"/>
</a>
</g>
</g>
<!-- Node31&#45;&gt;Node14 -->
<g id="edge39_Node000031_Node000014" class="edge">
<title>Node31&#45;&gt;Node14</title>
<g id="a_edge39_Node000031_Node000014"><a xlink:title=" ">
<path fill="none" stroke="#63b8ff" d="M904.34,-203.43C926.19,-193 955.89,-177.89 980.5,-162 998.58,-150.33 1001.25,-144.87 1018.5,-132 1034.96,-119.72 1053.99,-106.36 1068.21,-96.54"/>
<polygon fill="#63b8ff" stroke="#63b8ff" points="1070.53,-99.2 1076.78,-90.65 1066.56,-93.43 1070.53,-99.2"/>
</a>
</g>
</g>
<!-- Node32 -->
<g id="Node000032" class="node">
<title>Node32</title>
<g id="a_Node000032"><a xlink:title=" ">
<polygon fill="#e0e0e0" stroke="#999999" points="807,-156.5 742,-156.5 742,-137.5 807,-137.5 807,-156.5"/>
<text text-anchor="middle" x="774.5" y="-144.5" font-family="Helvetica,sans-Serif" font-size="10.00">stdexcept</text>
</a>
</g>
</g>
<!-- Node31&#45;&gt;Node32 -->
<g id="edge38_Node000031_Node000032" class="edge">
<title>Node31&#45;&gt;Node32</title>
<g id="a_edge38_Node000031_Node000032"><a xlink:title=" ">
<path fill="none" stroke="#63b8ff" d="M853.47,-203.44C836.43,-191.48 812.08,-174.38 794.94,-162.35"/>
<polygon fill="#63b8ff" stroke="#63b8ff" points="796.9,-159.45 786.7,-156.57 792.88,-165.18 796.9,-159.45"/>
</a>
</g>
</g>
<!-- Node31&#45;&gt;Node33 -->
<g id="edge40_Node000031_Node000033" class="edge">
<title>Node31&#45;&gt;Node33</title>
<g id="a_edge40_Node000031_Node000033"><a xlink:title=" ">
<path fill="none" stroke="#63b8ff" d="M933.32,-205.12C978.19,-195.2 1040.87,-179.99 1094.5,-162 1096.12,-161.46 1097.78,-160.87 1099.44,-160.25"/>
<polygon fill="#63b8ff" stroke="#63b8ff" points="1100.85,-163.46 1108.85,-156.51 1098.26,-156.95 1100.85,-163.46"/>
</a>
</g>
</g>
<!-- Node34 -->
<g id="Node000034" class="node">
<title>Node34</title>
<g id="a_Node000034"><a xlink:title=" ">
<polygon fill="#e0e0e0" stroke="#999999" points="971.5,-162 825.5,-162 825.5,-132 971.5,-132 971.5,-162"/>
<text text-anchor="start" x="833.5" y="-150" font-family="Helvetica,sans-Serif" font-size="10.00">packages/exceptions</text>
<text text-anchor="middle" x="898.5" y="-139" font-family="Helvetica,sans-Serif" font-size="10.00">/impl/exceptions_impl.hpp</text>
</a>
</g>
</g>
<!-- Node31&#45;&gt;Node34 -->
<g id="edge42_Node000031_Node000034" class="edge">
<title>Node31&#45;&gt;Node34</title>
<g id="a_edge42_Node000031_Node000034"><a xlink:title=" ">
<path fill="none" stroke="#63b8ff" d="M878.56,-203.44C881.85,-194.3 886.21,-182.16 890.02,-171.57"/>
<polygon fill="#63b8ff" stroke="#63b8ff" points="893.36,-172.64 893.45,-162.04 886.77,-170.27 893.36,-172.64"/>
</a>
</g>
</g>
<!-- Node35&#45;&gt;Node11 -->
<g id="edge45_Node000035_Node000011" class="edge">
<title>Node35&#45;&gt;Node11</title>
<g id="a_edge45_Node000035_Node000011"><a xlink:title=" ">
<path fill="none" stroke="#63b8ff" d="M706.82,-280.31C701.51,-235.52 685.08,-96.81 678.38,-40.32"/>
<polygon fill="#63b8ff" stroke="#63b8ff" points="681.83,-39.68 677.18,-30.17 674.88,-40.51 681.83,-39.68"/>
</a>
</g>
</g>
<!-- Node35&#45;&gt;Node19 -->
<g id="edge47_Node000035_Node000019" class="edge">
<title>Node35&#45;&gt;Node19</title>
<g id="a_edge47_Node000035_Node000019"><a xlink:title=" ">
<path fill="none" stroke="#63b8ff" d="M704.16,-280.17C696.9,-258.77 680.2,-218.75 651.5,-198 590.68,-154.02 558.64,-182.72 486.5,-162 484.22,-161.35 481.89,-160.63 479.55,-159.88"/>
<polygon fill="#63b8ff" stroke="#63b8ff" points="480.62,-156.54 470.02,-156.65 478.37,-163.17 480.62,-156.54"/>
</a>
</g>
</g>
<!-- Node35&#45;&gt;Node22 -->
<g id="edge46_Node000035_Node000022" class="edge">
<title>Node35&#45;&gt;Node22</title>
<g id="a_edge46_Node000035_Node000022"><a xlink:title=" ">
<path fill="none" stroke="#63b8ff" d="M690.82,-280.39C674.42,-267.31 650.11,-247.91 633.35,-234.54"/>
<polygon fill="#63b8ff" stroke="#63b8ff" points="635.36,-231.66 625.36,-228.16 630.99,-237.13 635.36,-231.66"/>
</a>
</g>
</g>
<!-- Node35&#45;&gt;Node31 -->
<g id="edge44_Node000035_Node000031" class="edge">
<title>Node35&#45;&gt;Node31</title>
<g id="a_edge44_Node000035_Node000031"><a xlink:title=" ">
<path fill="none" stroke="#63b8ff" d="M739.54,-280.39C766.04,-268.35 804.34,-250.94 833.21,-237.82"/>
<polygon fill="#63b8ff" stroke="#63b8ff" points="834.95,-240.87 842.6,-233.54 832.05,-234.5 834.95,-240.87"/>
</a>
</g>
</g>
</g>
</svg>
