<?xml version="1.0" encoding="UTF-8" standalone="no"?>
<!DOCTYPE svg PUBLIC "-//W3C//DTD SVG 1.1//EN"
 "http://www.w3.org/Graphics/SVG/1.1/DTD/svg11.dtd">
<!-- Generated by graphviz version 2.43.0 (0)
 -->
<!-- Title: Logger.hpp Pages: 1 -->
<svg width="1573pt" height="597pt"
 viewBox="0.00 0.00 1573.00 597.00" xmlns="http://www.w3.org/2000/svg" xmlns:xlink="http://www.w3.org/1999/xlink">
<g id="graph0" class="graph" transform="scale(1 1) rotate(0) translate(4 593)">
<title>Logger.hpp</title>
<polygon fill="white" stroke="transparent" points="-4,4 -4,-593 1569,-593 1569,4 -4,4"/>
<!-- Node1 -->
<g id="node1" class="node">
<title>Node1</title>
<g id="a_node1"><a xlink:title=" ">
<polygon fill="#bfbfbf" stroke="black" points="1153,-569.5 1153,-588.5 1223,-588.5 1223,-569.5 1153,-569.5"/>
<text text-anchor="middle" x="1188" y="-576.5" font-family="Helvetica,sans-Serif" font-size="10.00">Logger.hpp</text>
</a>
</g>
</g>
<!-- Node2 -->
<g id="node2" class="node">
<title>Node2</title>
<g id="a_node2"><a xlink:href="FileOutputStream_8hpp.html" target="_top" xlink:title=" ">
<polygon fill="white" stroke="black" points="581,-502.5 581,-532.5 707,-532.5 707,-502.5 581,-502.5"/>
<text text-anchor="start" x="589" y="-520.5" font-family="Helvetica,sans-Serif" font-size="10.00">packages/logging/inc</text>
<text text-anchor="middle" x="644" y="-509.5" font-family="Helvetica,sans-Serif" font-size="10.00">/FileOutputStream.hpp</text>
</a>
</g>
</g>
<!-- Node1&#45;&gt;Node2 -->
<g id="edge1" class="edge">
<title>Node1&#45;&gt;Node2</title>
<path fill="none" stroke="midnightblue" d="M1152.72,-575.69C1074.65,-570.34 881.48,-555.79 721,-533 719.89,-532.84 718.77,-532.68 717.64,-532.51"/>
<polygon fill="midnightblue" stroke="midnightblue" points="717.8,-528.99 707.37,-530.9 716.71,-535.91 717.8,-528.99"/>
</g>
<!-- Node5 -->
<g id="node5" class="node">
<title>Node5</title>
<g id="a_node5"><a xlink:title=" ">
<polygon fill="white" stroke="#bfbfbf" points="47,-140 47,-159 105,-159 105,-140 47,-140"/>
<text text-anchor="middle" x="76" y="-147" font-family="Helvetica,sans-Serif" font-size="10.00">memory</text>
</a>
</g>
</g>
<!-- Node1&#45;&gt;Node5 -->
<g id="edge60" class="edge">
<title>Node1&#45;&gt;Node5</title>
<path fill="none" stroke="midnightblue" d="M1152.77,-578.04C955.82,-577.81 0,-570.57 0,-451.5 0,-451.5 0,-451.5 0,-299 0,-245.92 38.96,-192.73 61.09,-166.79"/>
<polygon fill="midnightblue" stroke="midnightblue" points="63.89,-168.9 67.87,-159.08 58.64,-164.28 63.89,-168.9"/>
</g>
<!-- Node13 -->
<g id="node13" class="node">
<title>Node13</title>
<g id="a_node13"><a xlink:title=" ">
<polygon fill="white" stroke="#bfbfbf" points="1042,-73 1042,-92 1086,-92 1086,-73 1042,-73"/>
<text text-anchor="middle" x="1064" y="-80" font-family="Helvetica,sans-Serif" font-size="10.00">string</text>
</a>
</g>
</g>
<!-- Node1&#45;&gt;Node13 -->
<g id="edge61" class="edge">
<title>Node1&#45;&gt;Node13</title>
<path fill="none" stroke="midnightblue" d="M1190.18,-569.48C1195.17,-549.19 1207,-496.36 1207,-451.5 1207,-451.5 1207,-451.5 1207,-377 1207,-297.5 1210.89,-271.94 1175,-201 1152.9,-157.32 1109.38,-118.61 1083.89,-98.38"/>
<polygon fill="midnightblue" stroke="midnightblue" points="1085.74,-95.38 1075.7,-92.02 1081.45,-100.91 1085.74,-95.38"/>
</g>
<!-- Node22 -->
<g id="node22" class="node">
<title>Node22</title>
<g id="a_node22"><a xlink:title=" ">
<polygon fill="white" stroke="#bfbfbf" points="627,-290.5 627,-309.5 675,-309.5 675,-290.5 627,-290.5"/>
<text text-anchor="middle" x="651" y="-297.5" font-family="Helvetica,sans-Serif" font-size="10.00">iosfwd</text>
</a>
</g>
</g>
<!-- Node1&#45;&gt;Node22 -->
<g id="edge58" class="edge">
<title>Node1&#45;&gt;Node22</title>
<path fill="none" stroke="midnightblue" d="M1152.91,-576.61C1055.76,-572.44 788.47,-558.74 759,-533 698.35,-480.04 758.06,-425.66 716,-357 705.5,-339.86 688,-325.22 673.8,-315.22"/>
<polygon fill="midnightblue" stroke="midnightblue" points="675.73,-312.29 665.48,-309.61 671.81,-318.1 675.73,-312.29"/>
</g>
<!-- Node32 -->
<g id="node32" class="node">
<title>Node32</title>
<g id="a_node32"><a xlink:title=" ">
<polygon fill="white" stroke="#bfbfbf" points="685.5,-140 685.5,-159 732.5,-159 732.5,-140 685.5,-140"/>
<text text-anchor="middle" x="709" y="-147" font-family="Helvetica,sans-Serif" font-size="10.00">deque</text>
</a>
</g>
</g>
<!-- Node1&#45;&gt;Node32 -->
<g id="edge59" class="edge">
<title>Node1&#45;&gt;Node32</title>
<path fill="none" stroke="midnightblue" d="M1152.93,-570.03C1078.88,-551.63 904.58,-499.84 797,-399 739.55,-345.15 733.9,-318.92 713,-243 706.15,-218.11 706.32,-188.05 707.4,-169.1"/>
<polygon fill="midnightblue" stroke="midnightblue" points="710.89,-169.34 708.11,-159.11 703.91,-168.84 710.89,-169.34"/>
</g>
<!-- Node36 -->
<g id="node36" class="node">
<title>Node36</title>
<g id="a_node36"><a xlink:title=" ">
<polygon fill="white" stroke="#bfbfbf" points="1098,-212.5 1098,-231.5 1166,-231.5 1166,-212.5 1098,-212.5"/>
<text text-anchor="middle" x="1132" y="-219.5" font-family="Helvetica,sans-Serif" font-size="10.00">filesystem</text>
</a>
</g>
</g>
<!-- Node1&#45;&gt;Node36 -->
<g id="edge64" class="edge">
<title>Node1&#45;&gt;Node36</title>
<path fill="none" stroke="midnightblue" d="M1185.82,-569.48C1180.83,-549.19 1169,-496.36 1169,-451.5 1169,-451.5 1169,-451.5 1169,-377 1169,-326.53 1149.98,-269.26 1139.21,-240.89"/>
<polygon fill="midnightblue" stroke="midnightblue" points="1142.45,-239.55 1135.55,-231.51 1135.93,-242.1 1142.45,-239.55"/>
</g>
<!-- Node40 -->
<g id="node40" class="node">
<title>Node40</title>
<g id="a_node40"><a xlink:title=" ">
<polygon fill="white" stroke="#bfbfbf" points="1235.5,-508 1235.5,-527 1290.5,-527 1290.5,-508 1235.5,-508"/>
<text text-anchor="middle" x="1263" y="-515" font-family="Helvetica,sans-Serif" font-size="10.00">fstream</text>
</a>
</g>
</g>
<!-- Node1&#45;&gt;Node40 -->
<g id="edge57" class="edge">
<title>Node1&#45;&gt;Node40</title>
<path fill="none" stroke="midnightblue" d="M1198.75,-569.48C1210.55,-560.11 1229.74,-544.88 1244.08,-533.51"/>
<polygon fill="midnightblue" stroke="midnightblue" points="1246.62,-535.97 1252.27,-527.01 1242.26,-530.48 1246.62,-535.97"/>
</g>
<!-- Node41 -->
<g id="node41" class="node">
<title>Node41</title>
<g id="a_node41"><a xlink:title=" ">
<polygon fill="white" stroke="#bfbfbf" points="1309,-508 1309,-527 1359,-527 1359,-508 1309,-508"/>
<text text-anchor="middle" x="1334" y="-515" font-family="Helvetica,sans-Serif" font-size="10.00">chrono</text>
</a>
</g>
</g>
<!-- Node1&#45;&gt;Node41 -->
<g id="edge62" class="edge">
<title>Node1&#45;&gt;Node41</title>
<path fill="none" stroke="midnightblue" d="M1209.95,-569.34C1232.57,-560.38 1268.83,-545.91 1300,-533 1301.59,-532.34 1303.22,-531.66 1304.86,-530.97"/>
<polygon fill="midnightblue" stroke="midnightblue" points="1306.4,-534.12 1314.25,-527 1303.68,-527.67 1306.4,-534.12"/>
</g>
<!-- Node42 -->
<g id="node42" class="node">
<title>Node42</title>
<g id="a_node42"><a xlink:title=" ">
<polygon fill="white" stroke="#bfbfbf" points="1377,-508 1377,-527 1421,-527 1421,-508 1377,-508"/>
<text text-anchor="middle" x="1399" y="-515" font-family="Helvetica,sans-Serif" font-size="10.00">ctime</text>
</a>
</g>
</g>
<!-- Node1&#45;&gt;Node42 -->
<g id="edge63" class="edge">
<title>Node1&#45;&gt;Node42</title>
<path fill="none" stroke="midnightblue" d="M1223.09,-571.32C1259.81,-563.85 1318.83,-550.46 1368,-533 1369.62,-532.43 1371.26,-531.8 1372.91,-531.13"/>
<polygon fill="midnightblue" stroke="midnightblue" points="1374.43,-534.29 1382.19,-527.08 1371.63,-527.87 1374.43,-534.29"/>
</g>
<!-- Node43 -->
<g id="node43" class="node">
<title>Node43</title>
<g id="a_node43"><a xlink:title=" ">
<polygon fill="white" stroke="#bfbfbf" points="1439,-502.5 1439,-532.5 1565,-532.5 1565,-502.5 1439,-502.5"/>
<text text-anchor="start" x="1447" y="-520.5" font-family="Helvetica,sans-Serif" font-size="10.00">packages/logging/impl</text>
<text text-anchor="middle" x="1502" y="-509.5" font-family="Helvetica,sans-Serif" font-size="10.00">/Logger_impl.hpp</text>
</a>
</g>
</g>
<!-- Node1&#45;&gt;Node43 -->
<g id="edge65" class="edge">
<title>Node1&#45;&gt;Node43</title>
<path fill="none" stroke="midnightblue" d="M1223.3,-571.61C1268.52,-563.38 1349.58,-548.5 1428.66,-533.24"/>
<polygon fill="midnightblue" stroke="midnightblue" points="1429.64,-536.62 1438.79,-531.28 1428.31,-529.75 1429.64,-536.62"/>
</g>
<!-- Node3 -->
<g id="node3" class="node">
<title>Node3</title>
<g id="a_node3"><a xlink:href="OutputStream_8hpp.html" target="_top" xlink:title=" ">
<polygon fill="white" stroke="black" points="353.5,-435.5 353.5,-465.5 472.5,-465.5 472.5,-435.5 353.5,-435.5"/>
<text text-anchor="start" x="361.5" y="-453.5" font-family="Helvetica,sans-Serif" font-size="10.00">packages/logging/inc</text>
<text text-anchor="middle" x="413" y="-442.5" font-family="Helvetica,sans-Serif" font-size="10.00">/OutputStream.hpp</text>
</a>
</g>
</g>
<!-- Node2&#45;&gt;Node3 -->
<g id="edge2" class="edge">
<title>Node2&#45;&gt;Node3</title>
<path fill="none" stroke="midnightblue" d="M594.16,-502.48C558.61,-492.47 510.63,-478.97 472.98,-468.38"/>
<polygon fill="midnightblue" stroke="midnightblue" points="473.72,-464.95 463.15,-465.61 471.83,-471.69 473.72,-464.95"/>
</g>
<!-- Node2&#45;&gt;Node36 -->
<g id="edge56" class="edge">
<title>Node2&#45;&gt;Node36</title>
<path fill="none" stroke="midnightblue" d="M707.16,-509.16C809.2,-493.75 1009.21,-448.23 1112,-321 1130.32,-298.33 1133.21,-263.26 1133.03,-241.8"/>
<polygon fill="midnightblue" stroke="midnightblue" points="1136.53,-241.58 1132.71,-231.69 1129.53,-241.8 1136.53,-241.58"/>
</g>
<!-- Node4 -->
<g id="node4" class="node">
<title>Node4</title>
<g id="a_node4"><a xlink:href="typedefs_8hpp.html" target="_top" xlink:title=" ">
<polygon fill="white" stroke="black" points="66.5,-285 66.5,-315 185.5,-315 185.5,-285 66.5,-285"/>
<text text-anchor="start" x="74.5" y="-303" font-family="Helvetica,sans-Serif" font-size="10.00">packages/macros/inc</text>
<text text-anchor="middle" x="126" y="-292" font-family="Helvetica,sans-Serif" font-size="10.00">/typedefs.hpp</text>
</a>
</g>
</g>
<!-- Node3&#45;&gt;Node4 -->
<g id="edge3" class="edge">
<title>Node3&#45;&gt;Node4</title>
<path fill="none" stroke="midnightblue" d="M353.35,-448.85C270.86,-446.54 128.42,-436.99 96,-399 77.73,-377.59 93.5,-345.21 108.21,-323.6"/>
<polygon fill="midnightblue" stroke="midnightblue" points="111.15,-325.51 114.14,-315.34 105.47,-321.42 111.15,-325.51"/>
</g>
<!-- Node3&#45;&gt;Node5 -->
<g id="edge54" class="edge">
<title>Node3&#45;&gt;Node5</title>
<path fill="none" stroke="midnightblue" d="M353.44,-447.58C269.96,-443.71 123.89,-432.26 84,-399 15.72,-342.07 52.13,-215.9 68.97,-168.75"/>
<polygon fill="midnightblue" stroke="midnightblue" points="72.3,-169.83 72.49,-159.24 65.74,-167.4 72.3,-169.83"/>
</g>
<!-- Node6 -->
<g id="node6" class="node">
<title>Node6</title>
<g id="a_node6"><a xlink:href="streamable_8hpp.html" target="_top" xlink:title=" ">
<polygon fill="white" stroke="black" points="499,-357.5 499,-398.5 631,-398.5 631,-357.5 499,-357.5"/>
<text text-anchor="start" x="507" y="-386.5" font-family="Helvetica,sans-Serif" font-size="10.00">packages/compile_time</text>
<text text-anchor="start" x="507" y="-375.5" font-family="Helvetica,sans-Serif" font-size="10.00">/packages/concepts/inc</text>
<text text-anchor="middle" x="565" y="-364.5" font-family="Helvetica,sans-Serif" font-size="10.00">/streamable.hpp</text>
</a>
</g>
</g>
<!-- Node3&#45;&gt;Node6 -->
<g id="edge5" class="edge">
<title>Node3&#45;&gt;Node6</title>
<path fill="none" stroke="midnightblue" d="M443.39,-435.4C463.51,-426.07 490.39,-413.61 513.76,-402.77"/>
<polygon fill="midnightblue" stroke="midnightblue" points="515.26,-405.93 522.86,-398.55 512.31,-399.58 515.26,-405.93"/>
</g>
<!-- Node23 -->
<g id="node23" class="node">
<title>Node23</title>
<g id="a_node23"><a xlink:href="container__concepts_8hpp.html" target="_top" xlink:title=" ">
<polygon fill="white" stroke="black" points="345.5,-357.5 345.5,-398.5 480.5,-398.5 480.5,-357.5 345.5,-357.5"/>
<text text-anchor="start" x="353.5" y="-386.5" font-family="Helvetica,sans-Serif" font-size="10.00">packages/compile_time</text>
<text text-anchor="start" x="353.5" y="-375.5" font-family="Helvetica,sans-Serif" font-size="10.00">/packages/concepts/inc</text>
<text text-anchor="middle" x="413" y="-364.5" font-family="Helvetica,sans-Serif" font-size="10.00">/container_concepts.hpp</text>
</a>
</g>
</g>
<!-- Node3&#45;&gt;Node23 -->
<g id="edge23" class="edge">
<title>Node3&#45;&gt;Node23</title>
<path fill="none" stroke="midnightblue" d="M413,-435.23C413,-427.57 413,-417.84 413,-408.63"/>
<polygon fill="midnightblue" stroke="midnightblue" points="416.5,-408.59 413,-398.59 409.5,-408.59 416.5,-408.59"/>
</g>
<!-- Node29 -->
<g id="node29" class="node">
<title>Node29</title>
<g id="a_node29"><a xlink:href="checks_8hpp.html" target="_top" xlink:title=" ">
<polygon fill="white" stroke="black" points="805.5,-363 805.5,-393 924.5,-393 924.5,-363 805.5,-363"/>
<text text-anchor="start" x="813.5" y="-381" font-family="Helvetica,sans-Serif" font-size="10.00">packages/macros/inc</text>
<text text-anchor="middle" x="865" y="-370" font-family="Helvetica,sans-Serif" font-size="10.00">/checks.hpp</text>
</a>
</g>
</g>
<!-- Node3&#45;&gt;Node29 -->
<g id="edge34" class="edge">
<title>Node3&#45;&gt;Node29</title>
<path fill="none" stroke="midnightblue" d="M472.56,-440.21C555.88,-427.21 706.95,-403.65 795.38,-389.86"/>
<polygon fill="midnightblue" stroke="midnightblue" points="795.97,-393.31 805.31,-388.31 794.89,-386.39 795.97,-393.31"/>
</g>
<!-- Node37 -->
<g id="node37" class="node">
<title>Node37</title>
<g id="a_node37"><a xlink:title=" ">
<polygon fill="white" stroke="#bfbfbf" points="649.5,-368.5 649.5,-387.5 706.5,-387.5 706.5,-368.5 649.5,-368.5"/>
<text text-anchor="middle" x="678" y="-375.5" font-family="Helvetica,sans-Serif" font-size="10.00">ostream</text>
</a>
</g>
</g>
<!-- Node3&#45;&gt;Node37 -->
<g id="edge52" class="edge">
<title>Node3&#45;&gt;Node37</title>
<path fill="none" stroke="midnightblue" d="M472.54,-440.71C519.06,-432.78 584.85,-419.24 640,-399 645.03,-397.15 650.24,-394.77 655.12,-392.29"/>
<polygon fill="midnightblue" stroke="midnightblue" points="656.82,-395.34 663.98,-387.53 653.51,-389.18 656.82,-395.34"/>
</g>
<!-- Node38 -->
<g id="node38" class="node">
<title>Node38</title>
<g id="a_node38"><a xlink:title=" ">
<polygon fill="white" stroke="#bfbfbf" points="105.5,-368.5 105.5,-387.5 172.5,-387.5 172.5,-368.5 105.5,-368.5"/>
<text text-anchor="middle" x="139" y="-375.5" font-family="Helvetica,sans-Serif" font-size="10.00">streambuf</text>
</a>
</g>
</g>
<!-- Node3&#45;&gt;Node38 -->
<g id="edge53" class="edge">
<title>Node3&#45;&gt;Node38</title>
<path fill="none" stroke="midnightblue" d="M353.16,-440.15C305.94,-431.89 238.79,-418.15 182,-399 176.2,-397.04 170.15,-394.54 164.47,-391.97"/>
<polygon fill="midnightblue" stroke="midnightblue" points="165.93,-388.79 155.4,-387.66 162.93,-395.11 165.93,-388.79"/>
</g>
<!-- Node39 -->
<g id="node39" class="node">
<title>Node39</title>
<g id="a_node39"><a xlink:title=" ">
<polygon fill="white" stroke="#bfbfbf" points="191,-363 191,-393 327,-393 327,-363 191,-363"/>
<text text-anchor="start" x="199" y="-381" font-family="Helvetica,sans-Serif" font-size="10.00">packages/logging/impl</text>
<text text-anchor="middle" x="259" y="-370" font-family="Helvetica,sans-Serif" font-size="10.00">/OutputStream_impl.hpp</text>
</a>
</g>
</g>
<!-- Node3&#45;&gt;Node39 -->
<g id="edge55" class="edge">
<title>Node3&#45;&gt;Node39</title>
<path fill="none" stroke="midnightblue" d="M382.21,-435.4C358.28,-424.45 324.92,-409.18 298.95,-397.29"/>
<polygon fill="midnightblue" stroke="midnightblue" points="300.29,-394.05 289.74,-393.07 297.38,-400.42 300.29,-394.05"/>
</g>
<!-- Node4&#45;&gt;Node5 -->
<g id="edge4" class="edge">
<title>Node4&#45;&gt;Node5</title>
<path fill="none" stroke="midnightblue" d="M118.42,-284.57C112.78,-273.43 105.21,-257.53 100,-243 91.01,-217.92 83.85,-187.91 79.77,-169.02"/>
<polygon fill="midnightblue" stroke="midnightblue" points="83.16,-168.14 77.68,-159.07 76.31,-169.58 83.16,-168.14"/>
</g>
<!-- Node7 -->
<g id="node7" class="node">
<title>Node7</title>
<g id="a_node7"><a xlink:href="basic__concepts_8hpp.html" target="_top" xlink:title=" ">
<polygon fill="white" stroke="black" points="722,-201.5 722,-242.5 854,-242.5 854,-201.5 722,-201.5"/>
<text text-anchor="start" x="730" y="-230.5" font-family="Helvetica,sans-Serif" font-size="10.00">packages/compile_time</text>
<text text-anchor="start" x="730" y="-219.5" font-family="Helvetica,sans-Serif" font-size="10.00">/packages/concepts/inc</text>
<text text-anchor="middle" x="788" y="-208.5" font-family="Helvetica,sans-Serif" font-size="10.00">/basic_concepts.hpp</text>
</a>
</g>
</g>
<!-- Node6&#45;&gt;Node7 -->
<g id="edge6" class="edge">
<title>Node6&#45;&gt;Node7</title>
<path fill="none" stroke="midnightblue" d="M563.39,-357.38C562.72,-335.44 565.2,-300.19 585,-279 602.52,-260.25 661.88,-245.22 711.91,-235.47"/>
<polygon fill="midnightblue" stroke="midnightblue" points="712.61,-238.9 721.78,-233.6 711.3,-232.03 712.61,-238.9"/>
</g>
<!-- Node21 -->
<g id="node21" class="node">
<title>Node21</title>
<g id="a_node21"><a xlink:title=" ">
<polygon fill="white" stroke="#bfbfbf" points="872,-212.5 872,-231.5 928,-231.5 928,-212.5 872,-212.5"/>
<text text-anchor="middle" x="900" y="-219.5" font-family="Helvetica,sans-Serif" font-size="10.00">sstream</text>
</a>
</g>
</g>
<!-- Node6&#45;&gt;Node21 -->
<g id="edge21" class="edge">
<title>Node6&#45;&gt;Node21</title>
<path fill="none" stroke="midnightblue" d="M573.21,-357.13C584.23,-331.42 604.05,-288.76 618,-279 708.18,-215.91 758.55,-277.7 863,-243 867.94,-241.36 872.99,-239.08 877.72,-236.65"/>
<polygon fill="midnightblue" stroke="midnightblue" points="879.77,-239.52 886.81,-231.6 876.37,-233.4 879.77,-239.52"/>
</g>
<!-- Node6&#45;&gt;Node22 -->
<g id="edge22" class="edge">
<title>Node6&#45;&gt;Node22</title>
<path fill="none" stroke="midnightblue" d="M587.15,-357.43C601.65,-344.61 620.34,-328.09 633.74,-316.25"/>
<polygon fill="midnightblue" stroke="midnightblue" points="636.15,-318.8 641.32,-309.55 631.51,-313.55 636.15,-318.8"/>
</g>
<!-- Node8 -->
<g id="node8" class="node">
<title>Node8</title>
<g id="a_node8"><a xlink:href="types_8hpp.html" target="_top" xlink:title=" ">
<polygon fill="white" stroke="black" points="233,-134.5 233,-164.5 343,-164.5 343,-134.5 233,-134.5"/>
<text text-anchor="start" x="241" y="-152.5" font-family="Helvetica,sans-Serif" font-size="10.00">packages/types/inc</text>
<text text-anchor="middle" x="288" y="-141.5" font-family="Helvetica,sans-Serif" font-size="10.00">/types.hpp</text>
</a>
</g>
</g>
<!-- Node7&#45;&gt;Node8 -->
<g id="edge7" class="edge">
<title>Node7&#45;&gt;Node8</title>
<path fill="none" stroke="midnightblue" d="M721.77,-208.72C706.43,-206.03 690.17,-203.3 675,-201 549.21,-181.91 517.11,-181.87 391,-165 378.71,-163.36 365.61,-161.55 353.01,-159.79"/>
<polygon fill="midnightblue" stroke="midnightblue" points="353.43,-156.31 343.04,-158.39 352.46,-163.25 353.43,-156.31"/>
</g>
<!-- Node14 -->
<g id="node14" class="node">
<title>Node14</title>
<g id="a_node14"><a xlink:title=" ">
<polygon fill="white" stroke="#bfbfbf" points="638.5,-73 638.5,-92 707.5,-92 707.5,-73 638.5,-73"/>
<text text-anchor="middle" x="673" y="-80" font-family="Helvetica,sans-Serif" font-size="10.00">type_traits</text>
</a>
</g>
</g>
<!-- Node7&#45;&gt;Node14 -->
<g id="edge18" class="edge">
<title>Node7&#45;&gt;Node14</title>
<path fill="none" stroke="midnightblue" d="M780.7,-201.49C773.04,-182.78 759.65,-154.42 742,-134 729.34,-119.35 711.67,-106.52 697.38,-97.46"/>
<polygon fill="midnightblue" stroke="midnightblue" points="698.92,-94.3 688.56,-92.06 695.27,-100.27 698.92,-94.3"/>
</g>
<!-- Node18 -->
<g id="node18" class="node">
<title>Node18</title>
<g id="a_node18"><a xlink:title=" ">
<polygon fill="white" stroke="#bfbfbf" points="921,-140 921,-159 981,-159 981,-140 921,-140"/>
<text text-anchor="middle" x="951" y="-147" font-family="Helvetica,sans-Serif" font-size="10.00">concepts</text>
</a>
</g>
</g>
<!-- Node7&#45;&gt;Node18 -->
<g id="edge17" class="edge">
<title>Node7&#45;&gt;Node18</title>
<path fill="none" stroke="midnightblue" d="M833.4,-201.36C861.55,-189.19 896.9,-173.9 921.46,-163.28"/>
<polygon fill="midnightblue" stroke="midnightblue" points="923.16,-166.36 930.95,-159.17 920.38,-159.93 923.16,-166.36"/>
</g>
<!-- Node19 -->
<g id="node19" class="node">
<title>Node19</title>
<g id="a_node19"><a xlink:title=" ">
<polygon fill="white" stroke="#bfbfbf" points="789,-140 789,-159 839,-159 839,-140 789,-140"/>
<text text-anchor="middle" x="814" y="-147" font-family="Helvetica,sans-Serif" font-size="10.00">cstdint</text>
</a>
</g>
</g>
<!-- Node7&#45;&gt;Node19 -->
<g id="edge19" class="edge">
<title>Node7&#45;&gt;Node19</title>
<path fill="none" stroke="midnightblue" d="M795.24,-201.36C798.99,-191.19 803.55,-178.84 807.23,-168.86"/>
<polygon fill="midnightblue" stroke="midnightblue" points="810.62,-169.77 810.8,-159.17 804.06,-167.34 810.62,-169.77"/>
</g>
<!-- Node20 -->
<g id="node20" class="node">
<title>Node20</title>
<g id="a_node20"><a xlink:title=" ">
<polygon fill="white" stroke="#bfbfbf" points="857.5,-140 857.5,-159 902.5,-159 902.5,-140 857.5,-140"/>
<text text-anchor="middle" x="880" y="-147" font-family="Helvetica,sans-Serif" font-size="10.00">utility</text>
</a>
</g>
</g>
<!-- Node7&#45;&gt;Node20 -->
<g id="edge20" class="edge">
<title>Node7&#45;&gt;Node20</title>
<path fill="none" stroke="midnightblue" d="M813.63,-201.36C828.46,-190 846.82,-175.92 860.48,-165.46"/>
<polygon fill="midnightblue" stroke="midnightblue" points="862.87,-168.03 868.68,-159.17 858.62,-162.48 862.87,-168.03"/>
</g>
<!-- Node9 -->
<g id="node9" class="node">
<title>Node9</title>
<g id="a_node9"><a xlink:href="debug_8hpp.html" target="_top" xlink:title=" ">
<polygon fill="white" stroke="black" points="501.5,-67.5 501.5,-97.5 620.5,-97.5 620.5,-67.5 501.5,-67.5"/>
<text text-anchor="start" x="509.5" y="-85.5" font-family="Helvetica,sans-Serif" font-size="10.00">packages/macros/inc</text>
<text text-anchor="middle" x="561" y="-74.5" font-family="Helvetica,sans-Serif" font-size="10.00">/debug.hpp</text>
</a>
</g>
</g>
<!-- Node8&#45;&gt;Node9 -->
<g id="edge8" class="edge">
<title>Node8&#45;&gt;Node9</title>
<path fill="none" stroke="midnightblue" d="M343.25,-135.35C386.21,-125.12 446.06,-110.87 492.15,-99.89"/>
<polygon fill="midnightblue" stroke="midnightblue" points="493.14,-103.26 502.06,-97.53 491.52,-96.45 493.14,-103.26"/>
</g>
<!-- Node12 -->
<g id="node12" class="node">
<title>Node12</title>
<g id="a_node12"><a xlink:title=" ">
<polygon fill="white" stroke="#bfbfbf" points="89.5,-73 89.5,-92 142.5,-92 142.5,-73 89.5,-73"/>
<text text-anchor="middle" x="116" y="-80" font-family="Helvetica,sans-Serif" font-size="10.00">cstddef</text>
</a>
</g>
</g>
<!-- Node8&#45;&gt;Node12 -->
<g id="edge11" class="edge">
<title>Node8&#45;&gt;Node12</title>
<path fill="none" stroke="midnightblue" d="M249.2,-134.41C221.94,-124.44 184.65,-110.63 152,-98 150.16,-97.29 148.27,-96.55 146.37,-95.8"/>
<polygon fill="midnightblue" stroke="midnightblue" points="147.49,-92.48 136.9,-92.03 144.9,-98.98 147.49,-92.48"/>
</g>
<!-- Node8&#45;&gt;Node13 -->
<g id="edge12" class="edge">
<title>Node8&#45;&gt;Node13</title>
<path fill="none" stroke="midnightblue" d="M343.24,-140.05C358.67,-137.87 375.47,-135.67 391,-134 636.9,-107.49 934.85,-90.36 1031.83,-85.17"/>
<polygon fill="midnightblue" stroke="midnightblue" points="1032.08,-88.66 1041.88,-84.64 1031.7,-81.67 1032.08,-88.66"/>
</g>
<!-- Node8&#45;&gt;Node14 -->
<g id="edge13" class="edge">
<title>Node8&#45;&gt;Node14</title>
<path fill="none" stroke="midnightblue" d="M343.29,-136.49C347.92,-135.61 352.54,-134.76 357,-134 477.64,-113.4 510.79,-125.68 630,-98 633.48,-97.19 637.08,-96.21 640.65,-95.15"/>
<polygon fill="midnightblue" stroke="midnightblue" points="642.01,-98.39 650.48,-92.01 639.88,-91.72 642.01,-98.39"/>
</g>
<!-- Node15 -->
<g id="node15" class="node">
<title>Node15</title>
<g id="a_node15"><a xlink:title=" ">
<polygon fill="white" stroke="#bfbfbf" points="161,-73 161,-92 211,-92 211,-73 161,-73"/>
<text text-anchor="middle" x="186" y="-80" font-family="Helvetica,sans-Serif" font-size="10.00">climits</text>
</a>
</g>
</g>
<!-- Node8&#45;&gt;Node15 -->
<g id="edge14" class="edge">
<title>Node8&#45;&gt;Node15</title>
<path fill="none" stroke="midnightblue" d="M265.87,-134.4C248.76,-123.5 225.2,-108.48 208.1,-97.58"/>
<polygon fill="midnightblue" stroke="midnightblue" points="209.66,-94.43 199.35,-92.01 205.9,-100.33 209.66,-94.43"/>
</g>
<!-- Node16 -->
<g id="node16" class="node">
<title>Node16</title>
<g id="a_node16"><a xlink:title=" ">
<polygon fill="white" stroke="#bfbfbf" points="229.5,-67.5 229.5,-97.5 346.5,-97.5 346.5,-67.5 229.5,-67.5"/>
<text text-anchor="start" x="237.5" y="-85.5" font-family="Helvetica,sans-Serif" font-size="10.00">packages/types/impl</text>
<text text-anchor="middle" x="288" y="-74.5" font-family="Helvetica,sans-Serif" font-size="10.00">/types_impl.hpp</text>
</a>
</g>
</g>
<!-- Node8&#45;&gt;Node16 -->
<g id="edge15" class="edge">
<title>Node8&#45;&gt;Node16</title>
<path fill="none" stroke="midnightblue" d="M288,-134.4C288,-126.64 288,-116.81 288,-107.86"/>
<polygon fill="midnightblue" stroke="midnightblue" points="291.5,-107.58 288,-97.58 284.5,-107.58 291.5,-107.58"/>
</g>
<!-- Node17 -->
<g id="node17" class="node">
<title>Node17</title>
<g id="a_node17"><a xlink:href="logging_8hpp.html" target="_top" xlink:title=" ">
<polygon fill="white" stroke="black" points="364.5,-67.5 364.5,-97.5 483.5,-97.5 483.5,-67.5 364.5,-67.5"/>
<text text-anchor="start" x="372.5" y="-85.5" font-family="Helvetica,sans-Serif" font-size="10.00">packages/macros/inc</text>
<text text-anchor="middle" x="424" y="-74.5" font-family="Helvetica,sans-Serif" font-size="10.00">/logging.hpp</text>
</a>
</g>
</g>
<!-- Node8&#45;&gt;Node17 -->
<g id="edge16" class="edge">
<title>Node8&#45;&gt;Node17</title>
<path fill="none" stroke="midnightblue" d="M317.51,-134.4C337.38,-124.9 363.79,-112.28 385.34,-101.98"/>
<polygon fill="midnightblue" stroke="midnightblue" points="387.03,-105.05 394.55,-97.58 384.02,-98.73 387.03,-105.05"/>
</g>
<!-- Node10 -->
<g id="node10" class="node">
<title>Node10</title>
<g id="a_node10"><a xlink:href="detail_8hpp.html" target="_top" xlink:title=" ">
<polygon fill="white" stroke="black" points="949.5,-0.5 949.5,-30.5 1068.5,-30.5 1068.5,-0.5 949.5,-0.5"/>
<text text-anchor="start" x="957.5" y="-18.5" font-family="Helvetica,sans-Serif" font-size="10.00">packages/macros/inc</text>
<text text-anchor="middle" x="1009" y="-7.5" font-family="Helvetica,sans-Serif" font-size="10.00">/detail.hpp</text>
</a>
</g>
</g>
<!-- Node9&#45;&gt;Node10 -->
<g id="edge9" class="edge">
<title>Node9&#45;&gt;Node10</title>
<path fill="none" stroke="midnightblue" d="M620.79,-68.65C623.9,-68.07 626.98,-67.52 630,-67 737.54,-48.56 863.23,-32.98 939.43,-24.19"/>
<polygon fill="midnightblue" stroke="midnightblue" points="939.85,-27.67 949.38,-23.05 939.05,-20.71 939.85,-27.67"/>
</g>
<!-- Node11 -->
<g id="node11" class="node">
<title>Node11</title>
<g id="a_node11"><a xlink:title=" ">
<polygon fill="white" stroke="#bfbfbf" points="531,-6 531,-25 591,-25 591,-6 531,-6"/>
<text text-anchor="middle" x="561" y="-13" font-family="Helvetica,sans-Serif" font-size="10.00">iostream</text>
</a>
</g>
</g>
<!-- Node9&#45;&gt;Node11 -->
<g id="edge10" class="edge">
<title>Node9&#45;&gt;Node11</title>
<path fill="none" stroke="midnightblue" d="M561,-67.4C561,-58.06 561,-45.71 561,-35.52"/>
<polygon fill="midnightblue" stroke="midnightblue" points="564.5,-35.19 561,-25.19 557.5,-35.19 564.5,-35.19"/>
</g>
<!-- Node24 -->
<g id="node24" class="node">
<title>Node24</title>
<g id="a_node24"><a xlink:href="iterator__concepts_8hpp.html" target="_top" xlink:title=" ">
<polygon fill="white" stroke="black" points="284,-279.5 284,-320.5 416,-320.5 416,-279.5 284,-279.5"/>
<text text-anchor="start" x="292" y="-308.5" font-family="Helvetica,sans-Serif" font-size="10.00">packages/compile_time</text>
<text text-anchor="start" x="292" y="-297.5" font-family="Helvetica,sans-Serif" font-size="10.00">/packages/concepts/inc</text>
<text text-anchor="middle" x="350" y="-286.5" font-family="Helvetica,sans-Serif" font-size="10.00">/iterator_concepts.hpp</text>
</a>
</g>
</g>
<!-- Node23&#45;&gt;Node24 -->
<g id="edge24" class="edge">
<title>Node23&#45;&gt;Node24</title>
<path fill="none" stroke="midnightblue" d="M396.78,-357.43C389.43,-348.56 380.62,-337.93 372.63,-328.3"/>
<polygon fill="midnightblue" stroke="midnightblue" points="375.25,-325.97 366.17,-320.51 369.86,-330.44 375.25,-325.97"/>
</g>
<!-- Node24&#45;&gt;Node5 -->
<g id="edge33" class="edge">
<title>Node24&#45;&gt;Node5</title>
<path fill="none" stroke="midnightblue" d="M283.71,-294.84C237.62,-289.05 176.84,-275.33 133,-243 119.52,-233.06 97.3,-192.38 84.97,-168.4"/>
<polygon fill="midnightblue" stroke="midnightblue" points="87.99,-166.62 80.34,-159.29 81.74,-169.79 87.99,-166.62"/>
</g>
<!-- Node24&#45;&gt;Node7 -->
<g id="edge25" class="edge">
<title>Node24&#45;&gt;Node7</title>
<path fill="none" stroke="midnightblue" d="M416.31,-287.67C482,-276.42 585.46,-258.64 675,-243 687,-240.9 699.72,-238.67 712.12,-236.48"/>
<polygon fill="midnightblue" stroke="midnightblue" points="712.74,-239.92 721.98,-234.74 711.53,-233.03 712.74,-239.92"/>
</g>
<!-- Node25 -->
<g id="node25" class="node">
<title>Node25</title>
<g id="a_node25"><a xlink:href="Size_8hpp.html" target="_top" xlink:title=" ">
<polygon fill="white" stroke="black" points="380,-201.5 380,-242.5 528,-242.5 528,-201.5 380,-201.5"/>
<text text-anchor="start" x="388" y="-230.5" font-family="Helvetica,sans-Serif" font-size="10.00">packages/compile_time</text>
<text text-anchor="start" x="388" y="-219.5" font-family="Helvetica,sans-Serif" font-size="10.00">/packages/parameter_pack</text>
<text text-anchor="middle" x="454" y="-208.5" font-family="Helvetica,sans-Serif" font-size="10.00">/inc/Size.hpp</text>
</a>
</g>
</g>
<!-- Node24&#45;&gt;Node25 -->
<g id="edge26" class="edge">
<title>Node24&#45;&gt;Node25</title>
<path fill="none" stroke="midnightblue" d="M376.78,-279.43C389.64,-270.03 405.21,-258.65 419,-248.58"/>
<polygon fill="midnightblue" stroke="midnightblue" points="421.3,-251.23 427.31,-242.51 417.17,-245.58 421.3,-251.23"/>
</g>
<!-- Node26 -->
<g id="node26" class="node">
<title>Node26</title>
<g id="a_node26"><a xlink:href="Select_8hpp.html" target="_top" xlink:title=" ">
<polygon fill="white" stroke="black" points="214,-201.5 214,-242.5 362,-242.5 362,-201.5 214,-201.5"/>
<text text-anchor="start" x="222" y="-230.5" font-family="Helvetica,sans-Serif" font-size="10.00">packages/compile_time</text>
<text text-anchor="start" x="222" y="-219.5" font-family="Helvetica,sans-Serif" font-size="10.00">/packages/parameter_pack</text>
<text text-anchor="middle" x="288" y="-208.5" font-family="Helvetica,sans-Serif" font-size="10.00">/inc/Select.hpp</text>
</a>
</g>
</g>
<!-- Node24&#45;&gt;Node26 -->
<g id="edge28" class="edge">
<title>Node24&#45;&gt;Node26</title>
<path fill="none" stroke="midnightblue" d="M334.03,-279.43C326.8,-270.56 318.13,-259.93 310.27,-250.3"/>
<polygon fill="midnightblue" stroke="midnightblue" points="312.95,-248.04 303.91,-242.51 307.52,-252.47 312.95,-248.04"/>
</g>
<!-- Node28 -->
<g id="node28" class="node">
<title>Node28</title>
<g id="a_node28"><a xlink:title=" ">
<polygon fill="white" stroke="#bfbfbf" points="142.5,-212.5 142.5,-231.5 195.5,-231.5 195.5,-212.5 142.5,-212.5"/>
<text text-anchor="middle" x="169" y="-219.5" font-family="Helvetica,sans-Serif" font-size="10.00">iterator</text>
</a>
</g>
</g>
<!-- Node24&#45;&gt;Node28 -->
<g id="edge32" class="edge">
<title>Node24&#45;&gt;Node28</title>
<path fill="none" stroke="midnightblue" d="M294.16,-279.49C266.9,-269.45 233.84,-256.5 205,-243 200.81,-241.04 196.43,-238.79 192.24,-236.52"/>
<polygon fill="midnightblue" stroke="midnightblue" points="193.91,-233.45 183.47,-231.64 190.51,-239.57 193.91,-233.45"/>
</g>
<!-- Node25&#45;&gt;Node8 -->
<g id="edge27" class="edge">
<title>Node25&#45;&gt;Node8</title>
<path fill="none" stroke="midnightblue" d="M407.76,-201.36C383.56,-191.08 354.14,-178.59 330.51,-168.55"/>
<polygon fill="midnightblue" stroke="midnightblue" points="331.68,-165.25 321.1,-164.56 328.94,-171.69 331.68,-165.25"/>
</g>
<!-- Node26&#45;&gt;Node8 -->
<g id="edge29" class="edge">
<title>Node26&#45;&gt;Node8</title>
<path fill="none" stroke="midnightblue" d="M288,-201.36C288,-193.23 288,-183.7 288,-175.11"/>
<polygon fill="midnightblue" stroke="midnightblue" points="291.5,-174.89 288,-164.89 284.5,-174.89 291.5,-174.89"/>
</g>
<!-- Node26&#45;&gt;Node14 -->
<g id="edge30" class="edge">
<title>Node26&#45;&gt;Node14</title>
<path fill="none" stroke="midnightblue" d="M310.51,-201.44C339.38,-176.45 386.31,-136.13 391,-134 488.84,-89.66 525.59,-123.26 630,-98 633.4,-97.18 636.9,-96.21 640.39,-95.16"/>
<polygon fill="midnightblue" stroke="midnightblue" points="641.55,-98.46 650.01,-92.08 639.42,-91.8 641.55,-98.46"/>
</g>
<!-- Node27 -->
<g id="node27" class="node">
<title>Node27</title>
<g id="a_node27"><a xlink:title=" ">
<polygon fill="white" stroke="#bfbfbf" points="173.5,-140 173.5,-159 214.5,-159 214.5,-140 173.5,-140"/>
<text text-anchor="middle" x="194" y="-147" font-family="Helvetica,sans-Serif" font-size="10.00">tuple</text>
</a>
</g>
</g>
<!-- Node26&#45;&gt;Node27 -->
<g id="edge31" class="edge">
<title>Node26&#45;&gt;Node27</title>
<path fill="none" stroke="midnightblue" d="M261.82,-201.36C246.66,-190 227.9,-175.92 213.95,-165.46"/>
<polygon fill="midnightblue" stroke="midnightblue" points="215.66,-162.37 205.56,-159.17 211.46,-167.97 215.66,-162.37"/>
</g>
<!-- Node29&#45;&gt;Node10 -->
<g id="edge47" class="edge">
<title>Node29&#45;&gt;Node10</title>
<path fill="none" stroke="midnightblue" d="M885.87,-362.95C900.74,-352.39 920.73,-337.03 936,-321 977.98,-276.93 1076.45,-155.97 1095,-98 1099.2,-84.88 1101.84,-78.96 1095,-67 1087.17,-53.32 1074.03,-42.98 1060.35,-35.34"/>
<polygon fill="midnightblue" stroke="midnightblue" points="1061.82,-32.16 1051.33,-30.7 1058.62,-38.39 1061.82,-32.16"/>
</g>
<!-- Node29&#45;&gt;Node21 -->
<g id="edge51" class="edge">
<title>Node29&#45;&gt;Node21</title>
<path fill="none" stroke="midnightblue" d="M839.41,-362.98C824.62,-353.33 807.33,-339 799,-321 791.16,-304.06 789.53,-295.08 799,-279 799.55,-278.06 845.61,-252.75 875.34,-236.48"/>
<polygon fill="midnightblue" stroke="midnightblue" points="877.24,-239.43 884.33,-231.56 873.88,-233.28 877.24,-239.43"/>
</g>
<!-- Node30 -->
<g id="node30" class="node">
<title>Node30</title>
<g id="a_node30"><a xlink:href="exception_8hpp.html" target="_top" xlink:title=" ">
<polygon fill="white" stroke="black" points="546.5,-207 546.5,-237 665.5,-237 665.5,-207 546.5,-207"/>
<text text-anchor="start" x="554.5" y="-225" font-family="Helvetica,sans-Serif" font-size="10.00">packages/exceptions</text>
<text text-anchor="middle" x="606" y="-214" font-family="Helvetica,sans-Serif" font-size="10.00">/inc/exception.hpp</text>
</a>
</g>
</g>
<!-- Node29&#45;&gt;Node30 -->
<g id="edge35" class="edge">
<title>Node29&#45;&gt;Node30</title>
<path fill="none" stroke="midnightblue" d="M841.1,-362.79C794.46,-335.05 691.26,-273.7 638.48,-242.31"/>
<polygon fill="midnightblue" stroke="midnightblue" points="640.23,-239.28 629.84,-237.18 636.65,-245.3 640.23,-239.28"/>
</g>
<!-- Node34 -->
<g id="node34" class="node">
<title>Node34</title>
<g id="a_node34"><a xlink:href="exceptions_8hpp.html" target="_top" xlink:title=" ">
<polygon fill="white" stroke="black" points="807.5,-285 807.5,-315 926.5,-315 926.5,-285 807.5,-285"/>
<text text-anchor="start" x="815.5" y="-303" font-family="Helvetica,sans-Serif" font-size="10.00">packages/macros/inc</text>
<text text-anchor="middle" x="867" y="-292" font-family="Helvetica,sans-Serif" font-size="10.00">/exceptions.hpp</text>
</a>
</g>
</g>
<!-- Node29&#45;&gt;Node34 -->
<g id="edge42" class="edge">
<title>Node29&#45;&gt;Node34</title>
<path fill="none" stroke="midnightblue" d="M865.38,-362.7C865.65,-352.2 866.04,-337.66 866.36,-325.33"/>
<polygon fill="midnightblue" stroke="midnightblue" points="869.86,-325.32 866.63,-315.23 862.86,-325.14 869.86,-325.32"/>
</g>
<!-- Node35 -->
<g id="node35" class="node">
<title>Node35</title>
<g id="a_node35"><a xlink:href="cmake__variables_8hpp.html" target="_top" xlink:title=" ">
<polygon fill="white" stroke="black" points="983,-290.5 983,-309.5 1103,-309.5 1103,-290.5 983,-290.5"/>
<text text-anchor="middle" x="1043" y="-297.5" font-family="Helvetica,sans-Serif" font-size="10.00">cmake_variables.hpp</text>
</a>
</g>
</g>
<!-- Node29&#45;&gt;Node35 -->
<g id="edge48" class="edge">
<title>Node29&#45;&gt;Node35</title>
<path fill="none" stroke="midnightblue" d="M898.06,-362.88C931.23,-348.72 981.82,-327.12 1013.62,-313.54"/>
<polygon fill="midnightblue" stroke="midnightblue" points="1015.02,-316.75 1022.84,-309.61 1012.27,-310.31 1015.02,-316.75"/>
</g>
<!-- Node30&#45;&gt;Node5 -->
<g id="edge40" class="edge">
<title>Node30&#45;&gt;Node5</title>
<path fill="none" stroke="midnightblue" d="M562.13,-206.96C553.84,-204.69 545.21,-202.57 537,-201 373.42,-169.68 329.15,-186.55 164,-165 148.03,-162.92 130.51,-160.13 115.34,-157.56"/>
<polygon fill="midnightblue" stroke="midnightblue" points="115.71,-154.07 105.26,-155.83 114.52,-160.97 115.71,-154.07"/>
</g>
<!-- Node30&#45;&gt;Node8 -->
<g id="edge36" class="edge">
<title>Node30&#45;&gt;Node8</title>
<path fill="none" stroke="midnightblue" d="M559.37,-206.92C551.92,-204.83 544.27,-202.79 537,-201 475.09,-185.78 403.71,-171.64 353.29,-162.23"/>
<polygon fill="midnightblue" stroke="midnightblue" points="353.65,-158.73 343.18,-160.35 352.37,-165.61 353.65,-158.73"/>
</g>
<!-- Node30&#45;&gt;Node13 -->
<g id="edge38" class="edge">
<title>Node30&#45;&gt;Node13</title>
<path fill="none" stroke="midnightblue" d="M613.13,-206.73C623.95,-186.75 646.51,-150.98 677,-134 737.76,-100.17 949.93,-88.12 1031.61,-84.68"/>
<polygon fill="midnightblue" stroke="midnightblue" points="1031.94,-88.17 1041.79,-84.26 1031.66,-81.17 1031.94,-88.17"/>
</g>
<!-- Node31 -->
<g id="node31" class="node">
<title>Node31</title>
<g id="a_node31"><a xlink:title=" ">
<polygon fill="white" stroke="#bfbfbf" points="399.5,-140 399.5,-159 464.5,-159 464.5,-140 399.5,-140"/>
<text text-anchor="middle" x="432" y="-147" font-family="Helvetica,sans-Serif" font-size="10.00">stdexcept</text>
</a>
</g>
</g>
<!-- Node30&#45;&gt;Node31 -->
<g id="edge37" class="edge">
<title>Node30&#45;&gt;Node31</title>
<path fill="none" stroke="midnightblue" d="M571.21,-206.9C539.49,-194.05 493.07,-175.24 462.7,-162.94"/>
<polygon fill="midnightblue" stroke="midnightblue" points="463.64,-159.54 453.06,-159.03 461.02,-166.03 463.64,-159.54"/>
</g>
<!-- Node30&#45;&gt;Node32 -->
<g id="edge39" class="edge">
<title>Node30&#45;&gt;Node32</title>
<path fill="none" stroke="midnightblue" d="M626.84,-206.73C644.56,-194.6 669.9,-177.26 687.74,-165.05"/>
<polygon fill="midnightblue" stroke="midnightblue" points="690.03,-167.73 696.3,-159.19 686.07,-161.95 690.03,-167.73"/>
</g>
<!-- Node33 -->
<g id="node33" class="node">
<title>Node33</title>
<g id="a_node33"><a xlink:title=" ">
<polygon fill="white" stroke="#bfbfbf" points="483,-134.5 483,-164.5 629,-164.5 629,-134.5 483,-134.5"/>
<text text-anchor="start" x="491" y="-152.5" font-family="Helvetica,sans-Serif" font-size="10.00">packages/exceptions</text>
<text text-anchor="middle" x="556" y="-141.5" font-family="Helvetica,sans-Serif" font-size="10.00">/impl/exceptions_impl.hpp</text>
</a>
</g>
</g>
<!-- Node30&#45;&gt;Node33 -->
<g id="edge41" class="edge">
<title>Node30&#45;&gt;Node33</title>
<path fill="none" stroke="midnightblue" d="M595.88,-206.73C589.04,-197.08 579.85,-184.13 572.02,-173.09"/>
<polygon fill="midnightblue" stroke="midnightblue" points="574.74,-170.88 566.1,-164.75 569.03,-174.93 574.74,-170.88"/>
</g>
<!-- Node34&#45;&gt;Node10 -->
<g id="edge44" class="edge">
<title>Node34&#45;&gt;Node10</title>
<path fill="none" stroke="midnightblue" d="M899.65,-284.87C918.49,-275.34 941.46,-261.19 957,-243 1007.37,-184.07 1011.42,-85.99 1010.31,-40.74"/>
<polygon fill="midnightblue" stroke="midnightblue" points="1013.8,-40.54 1009.95,-30.67 1006.81,-40.79 1013.8,-40.54"/>
</g>
<!-- Node34&#45;&gt;Node18 -->
<g id="edge46" class="edge">
<title>Node34&#45;&gt;Node18</title>
<path fill="none" stroke="midnightblue" d="M893.14,-284.84C908.45,-275.13 926.74,-260.8 937,-243 950.23,-220.07 952.29,-188.83 952.04,-169.17"/>
<polygon fill="midnightblue" stroke="midnightblue" points="955.53,-168.95 951.69,-159.08 948.53,-169.19 955.53,-168.95"/>
</g>
<!-- Node34&#45;&gt;Node21 -->
<g id="edge45" class="edge">
<title>Node34&#45;&gt;Node21</title>
<path fill="none" stroke="midnightblue" d="M873.21,-284.7C878.57,-272.35 886.35,-254.44 892.14,-241.1"/>
<polygon fill="midnightblue" stroke="midnightblue" points="895.51,-242.13 896.28,-231.56 889.09,-239.34 895.51,-242.13"/>
</g>
<!-- Node34&#45;&gt;Node30 -->
<g id="edge43" class="edge">
<title>Node34&#45;&gt;Node30</title>
<path fill="none" stroke="midnightblue" d="M818.82,-284.97C775.1,-272.24 710.52,-253.44 663.98,-239.88"/>
<polygon fill="midnightblue" stroke="midnightblue" points="664.92,-236.51 654.34,-237.07 662.96,-243.23 664.92,-236.51"/>
</g>
<!-- Node35&#45;&gt;Node13 -->
<g id="edge50" class="edge">
<title>Node35&#45;&gt;Node13</title>
<path fill="none" stroke="midnightblue" d="M1043.85,-290.29C1046.97,-258.27 1057.84,-146.69 1062.19,-102.11"/>
<polygon fill="midnightblue" stroke="midnightblue" points="1065.68,-102.38 1063.16,-92.09 1058.71,-101.7 1065.68,-102.38"/>
</g>
<!-- Node35&#45;&gt;Node36 -->
<g id="edge49" class="edge">
<title>Node35&#45;&gt;Node36</title>
<path fill="none" stroke="midnightblue" d="M1053.21,-290.28C1068.1,-277.57 1095.98,-253.76 1114.26,-238.15"/>
<polygon fill="midnightblue" stroke="midnightblue" points="1116.58,-240.77 1121.91,-231.62 1112.03,-235.45 1116.58,-240.77"/>
</g>
</g>
</svg>
