<?xml version="1.0" encoding="UTF-8" standalone="no"?>
<!DOCTYPE svg PUBLIC "-//W3C//DTD SVG 1.1//EN"
 "http://www.w3.org/Graphics/SVG/1.1/DTD/svg11.dtd">
<!-- Generated by graphviz version 2.43.0 (0)
 -->
<!-- Title: LoggerSingleton.hpp Pages: 1 -->
<svg width="182pt" height="140pt"
 viewBox="0.00 0.00 182.00 140.00" xmlns="http://www.w3.org/2000/svg" xmlns:xlink="http://www.w3.org/1999/xlink">
<g id="graph0" class="graph" transform="scale(1 1) rotate(0) translate(4 136)">
<title>LoggerSingleton.hpp</title>
<polygon fill="white" stroke="transparent" points="-4,4 -4,-136 178,-136 178,4 -4,4"/>
<!-- Node1 -->
<g id="node1" class="node">
<title>Node1</title>
<g id="a_node1"><a xlink:title=" ">
<polygon fill="#bfbfbf" stroke="black" points="31.5,-112.5 31.5,-131.5 147.5,-131.5 147.5,-112.5 31.5,-112.5"/>
<text text-anchor="middle" x="89.5" y="-119.5" font-family="Helvetica,sans-Serif" font-size="10.00">LoggerSingleton.hpp</text>
</a>
</g>
</g>
<!-- Node2 -->
<g id="node2" class="node">
<title>Node2</title>
<g id="a_node2"><a xlink:href="testing_8hpp.html" target="_top" xlink:title=" ">
<polygon fill="white" stroke="black" points="8,-56.5 8,-75.5 79,-75.5 79,-56.5 8,-56.5"/>
<text text-anchor="middle" x="43.5" y="-63.5" font-family="Helvetica,sans-Serif" font-size="10.00">testing.hpp</text>
</a>
</g>
</g>
<!-- Node1&#45;&gt;Node2 -->
<g id="edge1" class="edge">
<title>Node1&#45;&gt;Node2</title>
<path fill="none" stroke="midnightblue" d="M75.39,-104.43C67.32,-94.97 57.54,-83.48 50.95,-75.75"/>
<polygon fill="midnightblue" stroke="midnightblue" points="72.75,-106.74 81.9,-112.08 78.08,-102.2 72.75,-106.74"/>
</g>
<!-- Node4 -->
<g id="node4" class="node">
<title>Node4</title>
<g id="a_node4"><a xlink:href="warning_8hpp.html" target="_top" xlink:title=" ">
<polygon fill="white" stroke="black" points="97,-56.5 97,-75.5 174,-75.5 174,-56.5 97,-56.5"/>
<text text-anchor="middle" x="135.5" y="-63.5" font-family="Helvetica,sans-Serif" font-size="10.00">warning.hpp</text>
</a>
</g>
</g>
<!-- Node1&#45;&gt;Node4 -->
<g id="edge3" class="edge">
<title>Node1&#45;&gt;Node4</title>
<path fill="none" stroke="midnightblue" d="M103.61,-104.43C111.68,-94.97 121.46,-83.48 128.05,-75.75"/>
<polygon fill="midnightblue" stroke="midnightblue" points="100.92,-102.2 97.1,-112.08 106.25,-106.74 100.92,-102.2"/>
</g>
<!-- Node3 -->
<g id="node3" class="node">
<title>Node3</title>
<g id="a_node3"><a xlink:href="essentials_8hpp.html" target="_top" xlink:title=" ">
<polygon fill="white" stroke="black" points="0,-0.5 0,-19.5 87,-19.5 87,-0.5 0,-0.5"/>
<text text-anchor="middle" x="43.5" y="-7.5" font-family="Helvetica,sans-Serif" font-size="10.00">essentials.hpp</text>
</a>
</g>
</g>
<!-- Node2&#45;&gt;Node3 -->
<g id="edge2" class="edge">
<title>Node2&#45;&gt;Node3</title>
<path fill="none" stroke="midnightblue" d="M43.5,-45.8C43.5,-36.91 43.5,-26.78 43.5,-19.75"/>
<polygon fill="midnightblue" stroke="midnightblue" points="40,-46.08 43.5,-56.08 47,-46.08 40,-46.08"/>
</g>
</g>
</svg>
