<?xml version="1.0" encoding="UTF-8" standalone="no"?>
<!DOCTYPE svg PUBLIC "-//W3C//DTD SVG 1.1//EN"
 "http://www.w3.org/Graphics/SVG/1.1/DTD/svg11.dtd">
<!-- Generated by graphviz version 2.43.0 (0)
 -->
<!-- Title: Logger.hpp Pages: 1 -->
<svg width="288pt" height="192pt"
 viewBox="0.00 0.00 287.50 192.00" xmlns="http://www.w3.org/2000/svg" xmlns:xlink="http://www.w3.org/1999/xlink">
<g id="graph0" class="graph" transform="scale(1 1) rotate(0) translate(4 188)">
<title>Logger.hpp</title>
<!-- Node1 -->
<g id="Node000001" class="node">
<title>Node1</title>
<g id="a_Node000001"><a xlink:title=" ">
<polygon fill="#999999" stroke="#666666" points="139.5,-184 69.5,-184 69.5,-165 139.5,-165 139.5,-184"/>
<text text-anchor="middle" x="104.5" y="-172" font-family="Helvetica,sans-Serif" font-size="10.00">Logger.hpp</text>
</a>
</g>
</g>
<!-- Node2 -->
<g id="Node000002" class="node">
<title>Node2</title>
<g id="a_Node000002"><a xlink:href="LogBlock_8hpp.html" target="_top" xlink:title=" ">
<polygon fill="white" stroke="#666666" points="145.5,-129 63.5,-129 63.5,-110 145.5,-110 145.5,-129"/>
<text text-anchor="middle" x="104.5" y="-117" font-family="Helvetica,sans-Serif" font-size="10.00">LogBlock.hpp</text>
</a>
</g>
</g>
<!-- Node1&#45;&gt;Node2 -->
<g id="edge1_Node000001_Node000002" class="edge">
<title>Node1&#45;&gt;Node2</title>
<g id="a_edge1_Node000001_Node000002"><a xlink:title=" ">
<path fill="none" stroke="#63b8ff" d="M104.5,-154.66C104.5,-145.93 104.5,-135.99 104.5,-129.09"/>
<polygon fill="#63b8ff" stroke="#63b8ff" points="101,-154.75 104.5,-164.75 108,-154.75 101,-154.75"/>
</a>
</g>
</g>
<!-- Node3 -->
<g id="Node000003" class="node">
<title>Node3</title>
<g id="a_Node000003"><a xlink:href="Loggee_8hpp.html" target="_top" xlink:title=" ">
<polygon fill="white" stroke="#666666" points="73,-74 0,-74 0,-55 73,-55 73,-74"/>
<text text-anchor="middle" x="36.5" y="-62" font-family="Helvetica,sans-Serif" font-size="10.00">Loggee.hpp</text>
</a>
</g>
</g>
<!-- Node1&#45;&gt;Node3 -->
<g id="edge5_Node000001_Node000003" class="edge">
<title>Node1&#45;&gt;Node3</title>
<g id="a_edge5_Node000001_Node000003"><a xlink:title=" ">
<path fill="none" stroke="#63b8ff" d="M82.81,-158.69C72.89,-150.9 61.76,-140.58 54.5,-129 43.55,-111.52 39.1,-87.23 37.42,-74.35"/>
<polygon fill="#63b8ff" stroke="#63b8ff" points="80.98,-161.69 91.09,-164.84 85.16,-156.07 80.98,-161.69"/>
</a>
</g>
</g>
<!-- Node6 -->
<g id="Node000006" class="node">
<title>Node6</title>
<g id="a_Node000006"><a xlink:href="LoggerSingleton_8hpp.html" target="_top" xlink:title=" ">
<polygon fill="white" stroke="#666666" points="279.5,-129 163.5,-129 163.5,-110 279.5,-110 279.5,-129"/>
<text text-anchor="middle" x="221.5" y="-117" font-family="Helvetica,sans-Serif" font-size="10.00">LoggerSingleton.hpp</text>
</a>
</g>
</g>
<!-- Node1&#45;&gt;Node6 -->
<g id="edge6_Node000001_Node000006" class="edge">
<title>Node1&#45;&gt;Node6</title>
<g id="a_edge6_Node000001_Node000006"><a xlink:title=" ">
<path fill="none" stroke="#63b8ff" d="M132.61,-160.77C154.19,-150.99 183.41,-137.75 202.36,-129.17"/>
<polygon fill="#63b8ff" stroke="#63b8ff" points="130.96,-157.67 123.3,-164.98 133.85,-164.05 130.96,-157.67"/>
</a>
</g>
</g>
<!-- Node2&#45;&gt;Node3 -->
<g id="edge2_Node000002_Node000003" class="edge">
<title>Node2&#45;&gt;Node3</title>
<g id="a_edge2_Node000002_Node000003"><a xlink:title=" ">
<path fill="none" stroke="#63b8ff" d="M85.38,-103.6C73.2,-94.11 57.84,-82.13 47.62,-74.17"/>
<polygon fill="#63b8ff" stroke="#63b8ff" points="83.54,-106.6 93.57,-109.98 87.84,-101.08 83.54,-106.6"/>
</a>
</g>
</g>
<!-- Node4 -->
<g id="Node000004" class="node">
<title>Node4</title>
<g id="a_Node000004"><a xlink:href="testing_8hpp.html" target="_top" xlink:title=" ">
<polygon fill="white" stroke="#666666" points="164,-74 93,-74 93,-55 164,-55 164,-74"/>
<text text-anchor="middle" x="128.5" y="-62" font-family="Helvetica,sans-Serif" font-size="10.00">testing.hpp</text>
</a>
</g>
</g>
<!-- Node2&#45;&gt;Node4 -->
<g id="edge3_Node000002_Node000004" class="edge">
<title>Node2&#45;&gt;Node4</title>
<g id="a_edge3_Node000002_Node000004"><a xlink:title=" ">
<path fill="none" stroke="#63b8ff" d="M112.64,-100.53C116.68,-91.6 121.38,-81.22 124.61,-74.09"/>
<polygon fill="#63b8ff" stroke="#63b8ff" points="109.4,-99.19 108.46,-109.75 115.78,-102.08 109.4,-99.19"/>
</a>
</g>
</g>
<!-- Node5 -->
<g id="Node000005" class="node">
<title>Node5</title>
<g id="a_Node000005"><a xlink:href="essentials_8hpp.html" target="_top" xlink:title=" ">
<polygon fill="white" stroke="#666666" points="172,-19 85,-19 85,0 172,0 172,-19"/>
<text text-anchor="middle" x="128.5" y="-7" font-family="Helvetica,sans-Serif" font-size="10.00">essentials.hpp</text>
</a>
</g>
</g>
<!-- Node4&#45;&gt;Node5 -->
<g id="edge4_Node000004_Node000005" class="edge">
<title>Node4&#45;&gt;Node5</title>
<g id="a_edge4_Node000004_Node000005"><a xlink:title=" ">
<path fill="none" stroke="#63b8ff" d="M128.5,-44.66C128.5,-35.93 128.5,-25.99 128.5,-19.09"/>
<polygon fill="#63b8ff" stroke="#63b8ff" points="125,-44.75 128.5,-54.75 132,-44.75 125,-44.75"/>
</a>
</g>
</g>
<!-- Node6&#45;&gt;Node4 -->
<g id="edge7_Node000006_Node000004" class="edge">
<title>Node6&#45;&gt;Node4</title>
<g id="a_edge7_Node000006_Node000004"><a xlink:title=" ">
<path fill="none" stroke="#63b8ff" d="M197.75,-104.97C180.75,-95.28 158.37,-82.52 143.71,-74.17"/>
<polygon fill="#63b8ff" stroke="#63b8ff" points="196.14,-108.07 206.56,-109.98 199.6,-101.99 196.14,-108.07"/>
</a>
</g>
</g>
<!-- Node7 -->
<g id="Node000007" class="node">
<title>Node7</title>
<g id="a_Node000007"><a xlink:href="warning_8hpp.html" target="_top" xlink:title=" ">
<polygon fill="white" stroke="#666666" points="260,-74 183,-74 183,-55 260,-55 260,-74"/>
<text text-anchor="middle" x="221.5" y="-62" font-family="Helvetica,sans-Serif" font-size="10.00">warning.hpp</text>
</a>
</g>
</g>
<!-- Node6&#45;&gt;Node7 -->
<g id="edge8_Node000006_Node000007" class="edge">
<title>Node6&#45;&gt;Node7</title>
<g id="a_edge8_Node000006_Node000007"><a xlink:title=" ">
<path fill="none" stroke="#63b8ff" d="M221.5,-99.66C221.5,-90.93 221.5,-80.99 221.5,-74.09"/>
<polygon fill="#63b8ff" stroke="#63b8ff" points="218,-99.75 221.5,-109.75 225,-99.75 218,-99.75"/>
</a>
</g>
</g>
</g>
</svg>
