<?xml version="1.0" encoding="UTF-8" standalone="no"?>
<!DOCTYPE svg PUBLIC "-//W3C//DTD SVG 1.1//EN"
 "http://www.w3.org/Graphics/SVG/1.1/DTD/svg11.dtd">
<!-- Generated by graphviz version 2.43.0 (0)
 -->
<!-- Title: Loggee.hpp Pages: 1 -->
<svg width="1608pt" height="731pt"
 viewBox="0.00 0.00 1608.00 731.00" xmlns="http://www.w3.org/2000/svg" xmlns:xlink="http://www.w3.org/1999/xlink">
<g id="graph0" class="graph" transform="scale(1 1) rotate(0) translate(4 727)">
<title>Loggee.hpp</title>
<polygon fill="white" stroke="transparent" points="-4,4 -4,-727 1604,-727 1604,4 -4,4"/>
<!-- Node1 -->
<g id="node1" class="node">
<title>Node1</title>
<g id="a_node1"><a xlink:title=" ">
<polygon fill="#bfbfbf" stroke="black" points="165.5,-703.5 165.5,-722.5 238.5,-722.5 238.5,-703.5 165.5,-703.5"/>
<text text-anchor="middle" x="202" y="-710.5" font-family="Helvetica,sans-Serif" font-size="10.00">Loggee.hpp</text>
</a>
</g>
</g>
<!-- Node2 -->
<g id="node2" class="node">
<title>Node2</title>
<g id="a_node2"><a xlink:href="Logger_8hpp.html" target="_top" xlink:title=" ">
<polygon fill="white" stroke="black" points="567.5,-569.5 567.5,-599.5 686.5,-599.5 686.5,-569.5 567.5,-569.5"/>
<text text-anchor="start" x="575.5" y="-587.5" font-family="Helvetica,sans-Serif" font-size="10.00">packages/logging/inc</text>
<text text-anchor="middle" x="627" y="-576.5" font-family="Helvetica,sans-Serif" font-size="10.00">/Logger.hpp</text>
</a>
</g>
</g>
<!-- Node1&#45;&gt;Node2 -->
<g id="edge1" class="edge">
<title>Node1&#45;&gt;Node2</title>
<path fill="none" stroke="midnightblue" d="M238.64,-705.95C281.07,-698.54 352.83,-684.76 413,-667 474.33,-648.9 543.06,-621.37 585.69,-603.41"/>
<polygon fill="midnightblue" stroke="midnightblue" points="587.06,-606.63 594.9,-599.51 584.33,-600.19 587.06,-606.63"/>
</g>
<!-- Node14 -->
<g id="node14" class="node">
<title>Node14</title>
<g id="a_node14"><a xlink:title=" ">
<polygon fill="white" stroke="#bfbfbf" points="317,-73 317,-92 361,-92 361,-73 317,-73"/>
<text text-anchor="middle" x="339" y="-80" font-family="Helvetica,sans-Serif" font-size="10.00">string</text>
</a>
</g>
</g>
<!-- Node1&#45;&gt;Node14 -->
<g id="edge74" class="edge">
<title>Node1&#45;&gt;Node14</title>
<path fill="none" stroke="midnightblue" d="M193.89,-703.26C176.67,-683.75 138,-634.48 138,-585.5 138,-585.5 138,-585.5 138,-221 138,-140.2 250.01,-103.41 306.8,-89.95"/>
<polygon fill="midnightblue" stroke="midnightblue" points="307.74,-93.33 316.72,-87.7 306.2,-86.5 307.74,-93.33"/>
</g>
<!-- Node45 -->
<g id="node45" class="node">
<title>Node45</title>
<g id="a_node45"><a xlink:href="LogBlock_8hpp.html" target="_top" xlink:title=" ">
<polygon fill="white" stroke="black" points="285.5,-636.5 285.5,-666.5 404.5,-666.5 404.5,-636.5 285.5,-636.5"/>
<text text-anchor="start" x="293.5" y="-654.5" font-family="Helvetica,sans-Serif" font-size="10.00">packages/logging/inc</text>
<text text-anchor="middle" x="345" y="-643.5" font-family="Helvetica,sans-Serif" font-size="10.00">/LogBlock.hpp</text>
</a>
</g>
</g>
<!-- Node1&#45;&gt;Node45 -->
<g id="edge67" class="edge">
<title>Node1&#45;&gt;Node45</title>
<path fill="none" stroke="midnightblue" d="M222.49,-703.48C243.12,-694.89 275.58,-681.38 301.91,-670.43"/>
<polygon fill="midnightblue" stroke="midnightblue" points="303.41,-673.6 311.3,-666.52 300.72,-667.13 303.41,-673.6"/>
</g>
<!-- Node47 -->
<g id="node47" class="node">
<title>Node47</title>
<g id="a_node47"><a xlink:href="NamedObject_8hpp.html" target="_top" xlink:title=" ">
<polygon fill="white" stroke="black" points="0,-435.5 0,-465.5 110,-465.5 110,-435.5 0,-435.5"/>
<text text-anchor="start" x="8" y="-453.5" font-family="Helvetica,sans-Serif" font-size="10.00">packages/types/inc</text>
<text text-anchor="middle" x="55" y="-442.5" font-family="Helvetica,sans-Serif" font-size="10.00">/NamedObject.hpp</text>
</a>
</g>
</g>
<!-- Node1&#45;&gt;Node47 -->
<g id="edge72" class="edge">
<title>Node1&#45;&gt;Node47</title>
<path fill="none" stroke="midnightblue" d="M177.66,-703.46C160.41,-696.24 137.94,-684.28 124,-667 77.27,-609.05 61.91,-518.81 57.09,-475.84"/>
<polygon fill="midnightblue" stroke="midnightblue" points="60.56,-475.33 56.05,-465.74 53.59,-476.05 60.56,-475.33"/>
</g>
<!-- Node3 -->
<g id="node3" class="node">
<title>Node3</title>
<g id="a_node3"><a xlink:href="FileOutputStream_8hpp.html" target="_top" xlink:title=" ">
<polygon fill="white" stroke="black" points="494,-502.5 494,-532.5 620,-532.5 620,-502.5 494,-502.5"/>
<text text-anchor="start" x="502" y="-520.5" font-family="Helvetica,sans-Serif" font-size="10.00">packages/logging/inc</text>
<text text-anchor="middle" x="557" y="-509.5" font-family="Helvetica,sans-Serif" font-size="10.00">/FileOutputStream.hpp</text>
</a>
</g>
</g>
<!-- Node2&#45;&gt;Node3 -->
<g id="edge2" class="edge">
<title>Node2&#45;&gt;Node3</title>
<path fill="none" stroke="midnightblue" d="M611.81,-569.4C602.45,-560.71 590.28,-549.4 579.79,-539.66"/>
<polygon fill="midnightblue" stroke="midnightblue" points="581.87,-536.82 572.16,-532.58 577.11,-541.95 581.87,-536.82"/>
</g>
<!-- Node6 -->
<g id="node6" class="node">
<title>Node6</title>
<g id="a_node6"><a xlink:title=" ">
<polygon fill="white" stroke="#bfbfbf" points="1066,-140 1066,-159 1124,-159 1124,-140 1066,-140"/>
<text text-anchor="middle" x="1095" y="-147" font-family="Helvetica,sans-Serif" font-size="10.00">memory</text>
</a>
</g>
</g>
<!-- Node2&#45;&gt;Node6 -->
<g id="edge61" class="edge">
<title>Node2&#45;&gt;Node6</title>
<path fill="none" stroke="midnightblue" d="M686.52,-582.89C837.78,-579.75 1225,-561.01 1225,-451.5 1225,-451.5 1225,-451.5 1225,-377 1225,-287.59 1147.87,-201.53 1112.43,-166.71"/>
<polygon fill="midnightblue" stroke="midnightblue" points="1114.41,-163.76 1104.77,-159.35 1109.55,-168.8 1114.41,-163.76"/>
</g>
<!-- Node2&#45;&gt;Node14 -->
<g id="edge62" class="edge">
<title>Node2&#45;&gt;Node14</title>
<path fill="none" stroke="midnightblue" d="M567.42,-575.8C538.7,-569.08 506,-556.51 485,-533 460.22,-505.26 466,-488.69 466,-451.5 466,-451.5 466,-451.5 466,-377 466,-267.32 485.14,-224.38 423,-134 410.47,-115.78 389.02,-103.05 370.93,-94.92"/>
<polygon fill="midnightblue" stroke="midnightblue" points="371.88,-91.53 361.31,-90.88 369.17,-97.98 371.88,-91.53"/>
</g>
<!-- Node23 -->
<g id="node23" class="node">
<title>Node23</title>
<g id="a_node23"><a xlink:title=" ">
<polygon fill="white" stroke="#bfbfbf" points="1552,-290.5 1552,-309.5 1600,-309.5 1600,-290.5 1552,-290.5"/>
<text text-anchor="middle" x="1576" y="-297.5" font-family="Helvetica,sans-Serif" font-size="10.00">iosfwd</text>
</a>
</g>
</g>
<!-- Node2&#45;&gt;Node23 -->
<g id="edge59" class="edge">
<title>Node2&#45;&gt;Node23</title>
<path fill="none" stroke="midnightblue" d="M686.63,-582.47C819.95,-579.55 1138.33,-568.91 1239,-533 1378.48,-483.25 1514.28,-360.66 1559.89,-316.87"/>
<polygon fill="midnightblue" stroke="midnightblue" points="1562.37,-319.34 1567.12,-309.87 1557.5,-314.32 1562.37,-319.34"/>
</g>
<!-- Node33 -->
<g id="node33" class="node">
<title>Node33</title>
<g id="a_node33"><a xlink:title=" ">
<polygon fill="white" stroke="#bfbfbf" points="367.5,-140 367.5,-159 414.5,-159 414.5,-140 367.5,-140"/>
<text text-anchor="middle" x="391" y="-147" font-family="Helvetica,sans-Serif" font-size="10.00">deque</text>
</a>
</g>
</g>
<!-- Node2&#45;&gt;Node33 -->
<g id="edge60" class="edge">
<title>Node2&#45;&gt;Node33</title>
<path fill="none" stroke="midnightblue" d="M567.24,-578.92C484.91,-571.86 341.46,-556.59 295,-533 249.46,-509.88 214,-502.57 214,-451.5 214,-451.5 214,-451.5 214,-299 214,-254.55 204.34,-234.11 234,-201 265.47,-165.87 321.45,-155.04 357.37,-151.78"/>
<polygon fill="midnightblue" stroke="midnightblue" points="357.67,-155.27 367.37,-151.02 357.14,-148.29 357.67,-155.27"/>
</g>
<!-- Node37 -->
<g id="node37" class="node">
<title>Node37</title>
<g id="a_node37"><a xlink:title=" ">
<polygon fill="white" stroke="#bfbfbf" points="243,-212.5 243,-231.5 311,-231.5 311,-212.5 243,-212.5"/>
<text text-anchor="middle" x="277" y="-219.5" font-family="Helvetica,sans-Serif" font-size="10.00">filesystem</text>
</a>
</g>
</g>
<!-- Node2&#45;&gt;Node37 -->
<g id="edge65" class="edge">
<title>Node2&#45;&gt;Node37</title>
<path fill="none" stroke="midnightblue" d="M567.17,-575.11C461.29,-558.56 252,-517.5 252,-451.5 252,-451.5 252,-451.5 252,-377 252,-327.5 264.74,-270.2 272.03,-241.46"/>
<polygon fill="midnightblue" stroke="midnightblue" points="275.46,-242.16 274.6,-231.6 268.69,-240.39 275.46,-242.16"/>
</g>
<!-- Node41 -->
<g id="node41" class="node">
<title>Node41</title>
<g id="a_node41"><a xlink:title=" ">
<polygon fill="white" stroke="#bfbfbf" points="638.5,-508 638.5,-527 693.5,-527 693.5,-508 638.5,-508"/>
<text text-anchor="middle" x="666" y="-515" font-family="Helvetica,sans-Serif" font-size="10.00">fstream</text>
</a>
</g>
</g>
<!-- Node2&#45;&gt;Node41 -->
<g id="edge58" class="edge">
<title>Node2&#45;&gt;Node41</title>
<path fill="none" stroke="midnightblue" d="M635.46,-569.4C641.36,-559.56 649.27,-546.38 655.56,-535.89"/>
<polygon fill="midnightblue" stroke="midnightblue" points="658.64,-537.57 660.78,-527.19 652.64,-533.97 658.64,-537.57"/>
</g>
<!-- Node42 -->
<g id="node42" class="node">
<title>Node42</title>
<g id="a_node42"><a xlink:title=" ">
<polygon fill="white" stroke="#bfbfbf" points="712,-508 712,-527 762,-527 762,-508 712,-508"/>
<text text-anchor="middle" x="737" y="-515" font-family="Helvetica,sans-Serif" font-size="10.00">chrono</text>
</a>
</g>
</g>
<!-- Node2&#45;&gt;Node42 -->
<g id="edge63" class="edge">
<title>Node2&#45;&gt;Node42</title>
<path fill="none" stroke="midnightblue" d="M650.87,-569.4C669.57,-558.34 695.44,-543.06 713.93,-532.13"/>
<polygon fill="midnightblue" stroke="midnightblue" points="715.77,-535.11 722.6,-527.01 712.21,-529.08 715.77,-535.11"/>
</g>
<!-- Node43 -->
<g id="node43" class="node">
<title>Node43</title>
<g id="a_node43"><a xlink:title=" ">
<polygon fill="white" stroke="#bfbfbf" points="780,-508 780,-527 824,-527 824,-508 780,-508"/>
<text text-anchor="middle" x="802" y="-515" font-family="Helvetica,sans-Serif" font-size="10.00">ctime</text>
</a>
</g>
</g>
<!-- Node2&#45;&gt;Node43 -->
<g id="edge64" class="edge">
<title>Node2&#45;&gt;Node43</title>
<path fill="none" stroke="midnightblue" d="M670.59,-569.48C699.37,-559.91 737.76,-546.56 771,-533 772.38,-532.44 773.78,-531.85 775.19,-531.24"/>
<polygon fill="midnightblue" stroke="midnightblue" points="776.74,-534.38 784.43,-527.09 773.87,-527.99 776.74,-534.38"/>
</g>
<!-- Node44 -->
<g id="node44" class="node">
<title>Node44</title>
<g id="a_node44"><a xlink:title=" ">
<polygon fill="white" stroke="#bfbfbf" points="842,-502.5 842,-532.5 968,-532.5 968,-502.5 842,-502.5"/>
<text text-anchor="start" x="850" y="-520.5" font-family="Helvetica,sans-Serif" font-size="10.00">packages/logging/impl</text>
<text text-anchor="middle" x="905" y="-509.5" font-family="Helvetica,sans-Serif" font-size="10.00">/Logger_impl.hpp</text>
</a>
</g>
</g>
<!-- Node2&#45;&gt;Node44 -->
<g id="edge66" class="edge">
<title>Node2&#45;&gt;Node44</title>
<path fill="none" stroke="midnightblue" d="M686.64,-569.56C730.19,-559.37 789.37,-545.54 835.14,-534.84"/>
<polygon fill="midnightblue" stroke="midnightblue" points="836.04,-538.22 844.98,-532.53 834.45,-531.4 836.04,-538.22"/>
</g>
<!-- Node4 -->
<g id="node4" class="node">
<title>Node4</title>
<g id="a_node4"><a xlink:href="OutputStream_8hpp.html" target="_top" xlink:title=" ">
<polygon fill="white" stroke="black" points="773.5,-435.5 773.5,-465.5 892.5,-465.5 892.5,-435.5 773.5,-435.5"/>
<text text-anchor="start" x="781.5" y="-453.5" font-family="Helvetica,sans-Serif" font-size="10.00">packages/logging/inc</text>
<text text-anchor="middle" x="833" y="-442.5" font-family="Helvetica,sans-Serif" font-size="10.00">/OutputStream.hpp</text>
</a>
</g>
</g>
<!-- Node3&#45;&gt;Node4 -->
<g id="edge3" class="edge">
<title>Node3&#45;&gt;Node4</title>
<path fill="none" stroke="midnightblue" d="M616.55,-502.48C659.66,-492.32 718.06,-478.57 763.34,-467.91"/>
<polygon fill="midnightblue" stroke="midnightblue" points="764.15,-471.31 773.08,-465.61 762.55,-464.5 764.15,-471.31"/>
</g>
<!-- Node3&#45;&gt;Node37 -->
<g id="edge57" class="edge">
<title>Node3&#45;&gt;Node37</title>
<path fill="none" stroke="midnightblue" d="M529.94,-502.36C479.2,-474.47 369.41,-407.54 309,-321 291.97,-296.61 283.57,-262.57 279.76,-241.71"/>
<polygon fill="midnightblue" stroke="midnightblue" points="283.18,-240.91 278.1,-231.61 276.27,-242.05 283.18,-240.91"/>
</g>
<!-- Node5 -->
<g id="node5" class="node">
<title>Node5</title>
<g id="a_node5"><a xlink:href="typedefs_8hpp.html" target="_top" xlink:title=" ">
<polygon fill="white" stroke="black" points="1047.5,-285 1047.5,-315 1166.5,-315 1166.5,-285 1047.5,-285"/>
<text text-anchor="start" x="1055.5" y="-303" font-family="Helvetica,sans-Serif" font-size="10.00">packages/macros/inc</text>
<text text-anchor="middle" x="1107" y="-292" font-family="Helvetica,sans-Serif" font-size="10.00">/typedefs.hpp</text>
</a>
</g>
</g>
<!-- Node4&#45;&gt;Node5 -->
<g id="edge4" class="edge">
<title>Node4&#45;&gt;Node5</title>
<path fill="none" stroke="midnightblue" d="M892.63,-444.36C933.95,-438.48 988.74,-425.9 1030,-399 1045.32,-389.01 1073.99,-349.47 1091.69,-323.77"/>
<polygon fill="midnightblue" stroke="midnightblue" points="1094.71,-325.56 1097.46,-315.33 1088.93,-321.61 1094.71,-325.56"/>
</g>
<!-- Node4&#45;&gt;Node6 -->
<g id="edge55" class="edge">
<title>Node4&#45;&gt;Node6</title>
<path fill="none" stroke="midnightblue" d="M773.45,-438.19C751.58,-430.85 729.01,-418.78 716,-399 705.74,-383.4 703.96,-371.26 716,-357 777.66,-283.98 837.7,-352.31 928,-321 996.4,-297.28 1026.46,-300.07 1071,-243 1087.8,-221.47 1092.92,-189.38 1094.43,-169.22"/>
<polygon fill="midnightblue" stroke="midnightblue" points="1097.93,-169.31 1094.96,-159.14 1090.94,-168.94 1097.93,-169.31"/>
</g>
<!-- Node7 -->
<g id="node7" class="node">
<title>Node7</title>
<g id="a_node7"><a xlink:href="streamable_8hpp.html" target="_top" xlink:title=" ">
<polygon fill="white" stroke="black" points="1253,-357.5 1253,-398.5 1385,-398.5 1385,-357.5 1253,-357.5"/>
<text text-anchor="start" x="1261" y="-386.5" font-family="Helvetica,sans-Serif" font-size="10.00">packages/compile_time</text>
<text text-anchor="start" x="1261" y="-375.5" font-family="Helvetica,sans-Serif" font-size="10.00">/packages/concepts/inc</text>
<text text-anchor="middle" x="1319" y="-364.5" font-family="Helvetica,sans-Serif" font-size="10.00">/streamable.hpp</text>
</a>
</g>
</g>
<!-- Node4&#45;&gt;Node7 -->
<g id="edge6" class="edge">
<title>Node4&#45;&gt;Node7</title>
<path fill="none" stroke="midnightblue" d="M892.54,-442.2C966.26,-432.98 1095.59,-416.24 1206,-399 1217.84,-397.15 1230.36,-395.07 1242.58,-392.96"/>
<polygon fill="midnightblue" stroke="midnightblue" points="1243.5,-396.35 1252.75,-391.19 1242.3,-389.46 1243.5,-396.35"/>
</g>
<!-- Node24 -->
<g id="node24" class="node">
<title>Node24</title>
<g id="a_node24"><a xlink:href="container__concepts_8hpp.html" target="_top" xlink:title=" ">
<polygon fill="white" stroke="black" points="532.5,-357.5 532.5,-398.5 667.5,-398.5 667.5,-357.5 532.5,-357.5"/>
<text text-anchor="start" x="540.5" y="-386.5" font-family="Helvetica,sans-Serif" font-size="10.00">packages/compile_time</text>
<text text-anchor="start" x="540.5" y="-375.5" font-family="Helvetica,sans-Serif" font-size="10.00">/packages/concepts/inc</text>
<text text-anchor="middle" x="600" y="-364.5" font-family="Helvetica,sans-Serif" font-size="10.00">/container_concepts.hpp</text>
</a>
</g>
</g>
<!-- Node4&#45;&gt;Node24 -->
<g id="edge24" class="edge">
<title>Node4&#45;&gt;Node24</title>
<path fill="none" stroke="midnightblue" d="M786.69,-435.49C754.65,-425.79 711.31,-412.68 674.46,-401.53"/>
<polygon fill="midnightblue" stroke="midnightblue" points="675.34,-398.14 664.75,-398.59 673.31,-404.84 675.34,-398.14"/>
</g>
<!-- Node30 -->
<g id="node30" class="node">
<title>Node30</title>
<g id="a_node30"><a xlink:href="checks_8hpp.html" target="_top" xlink:title=" ">
<polygon fill="white" stroke="black" points="1077.5,-363 1077.5,-393 1196.5,-393 1196.5,-363 1077.5,-363"/>
<text text-anchor="start" x="1085.5" y="-381" font-family="Helvetica,sans-Serif" font-size="10.00">packages/macros/inc</text>
<text text-anchor="middle" x="1137" y="-370" font-family="Helvetica,sans-Serif" font-size="10.00">/checks.hpp</text>
</a>
</g>
</g>
<!-- Node4&#45;&gt;Node30 -->
<g id="edge35" class="edge">
<title>Node4&#45;&gt;Node30</title>
<path fill="none" stroke="midnightblue" d="M892.75,-437.2C939.28,-427.42 1005.42,-413.09 1063,-399 1067.33,-397.94 1071.8,-396.81 1076.3,-395.66"/>
<polygon fill="midnightblue" stroke="midnightblue" points="1077.34,-399 1086.13,-393.09 1075.57,-392.23 1077.34,-399"/>
</g>
<!-- Node38 -->
<g id="node38" class="node">
<title>Node38</title>
<g id="a_node38"><a xlink:title=" ">
<polygon fill="white" stroke="#bfbfbf" points="724.5,-368.5 724.5,-387.5 781.5,-387.5 781.5,-368.5 724.5,-368.5"/>
<text text-anchor="middle" x="753" y="-375.5" font-family="Helvetica,sans-Serif" font-size="10.00">ostream</text>
</a>
</g>
</g>
<!-- Node4&#45;&gt;Node38 -->
<g id="edge53" class="edge">
<title>Node4&#45;&gt;Node38</title>
<path fill="none" stroke="midnightblue" d="M816.81,-435.23C803.5,-423.5 784.66,-406.9 770.91,-394.78"/>
<polygon fill="midnightblue" stroke="midnightblue" points="772.91,-391.88 763.09,-387.89 768.28,-397.13 772.91,-391.88"/>
</g>
<!-- Node39 -->
<g id="node39" class="node">
<title>Node39</title>
<g id="a_node39"><a xlink:title=" ">
<polygon fill="white" stroke="#bfbfbf" points="799.5,-368.5 799.5,-387.5 866.5,-387.5 866.5,-368.5 799.5,-368.5"/>
<text text-anchor="middle" x="833" y="-375.5" font-family="Helvetica,sans-Serif" font-size="10.00">streambuf</text>
</a>
</g>
</g>
<!-- Node4&#45;&gt;Node39 -->
<g id="edge54" class="edge">
<title>Node4&#45;&gt;Node39</title>
<path fill="none" stroke="midnightblue" d="M833,-435.23C833,-424.5 833,-409.69 833,-397.96"/>
<polygon fill="midnightblue" stroke="midnightblue" points="836.5,-397.89 833,-387.89 829.5,-397.89 836.5,-397.89"/>
</g>
<!-- Node40 -->
<g id="node40" class="node">
<title>Node40</title>
<g id="a_node40"><a xlink:title=" ">
<polygon fill="white" stroke="#bfbfbf" points="885,-363 885,-393 1021,-393 1021,-363 885,-363"/>
<text text-anchor="start" x="893" y="-381" font-family="Helvetica,sans-Serif" font-size="10.00">packages/logging/impl</text>
<text text-anchor="middle" x="953" y="-370" font-family="Helvetica,sans-Serif" font-size="10.00">/OutputStream_impl.hpp</text>
</a>
</g>
</g>
<!-- Node4&#45;&gt;Node40 -->
<g id="edge56" class="edge">
<title>Node4&#45;&gt;Node40</title>
<path fill="none" stroke="midnightblue" d="M857,-435.4C875.15,-424.74 900.27,-409.98 920.26,-398.23"/>
<polygon fill="midnightblue" stroke="midnightblue" points="922.2,-401.16 929.05,-393.07 918.65,-395.12 922.2,-401.16"/>
</g>
<!-- Node5&#45;&gt;Node6 -->
<g id="edge5" class="edge">
<title>Node5&#45;&gt;Node6</title>
<path fill="none" stroke="midnightblue" d="M1109.58,-284.94C1112.67,-265.81 1116.85,-230.59 1112,-201 1110.2,-189.99 1106.32,-178.14 1102.72,-168.7"/>
<polygon fill="midnightblue" stroke="midnightblue" points="1105.89,-167.19 1098.91,-159.22 1099.39,-169.8 1105.89,-167.19"/>
</g>
<!-- Node8 -->
<g id="node8" class="node">
<title>Node8</title>
<g id="a_node8"><a xlink:href="basic__concepts_8hpp.html" target="_top" xlink:title=" ">
<polygon fill="white" stroke="black" points="1202,-201.5 1202,-242.5 1334,-242.5 1334,-201.5 1202,-201.5"/>
<text text-anchor="start" x="1210" y="-230.5" font-family="Helvetica,sans-Serif" font-size="10.00">packages/compile_time</text>
<text text-anchor="start" x="1210" y="-219.5" font-family="Helvetica,sans-Serif" font-size="10.00">/packages/concepts/inc</text>
<text text-anchor="middle" x="1268" y="-208.5" font-family="Helvetica,sans-Serif" font-size="10.00">/basic_concepts.hpp</text>
</a>
</g>
</g>
<!-- Node7&#45;&gt;Node8 -->
<g id="edge7" class="edge">
<title>Node7&#45;&gt;Node8</title>
<path fill="none" stroke="midnightblue" d="M1308.34,-357.48C1302.89,-346.91 1296.49,-333.49 1292,-321 1283.92,-298.5 1277.64,-272.14 1273.53,-252.43"/>
<polygon fill="midnightblue" stroke="midnightblue" points="1276.93,-251.62 1271.52,-242.5 1270.07,-253 1276.93,-251.62"/>
</g>
<!-- Node22 -->
<g id="node22" class="node">
<title>Node22</title>
<g id="a_node22"><a xlink:title=" ">
<polygon fill="white" stroke="#bfbfbf" points="1428,-212.5 1428,-231.5 1484,-231.5 1484,-212.5 1428,-212.5"/>
<text text-anchor="middle" x="1456" y="-219.5" font-family="Helvetica,sans-Serif" font-size="10.00">sstream</text>
</a>
</g>
</g>
<!-- Node7&#45;&gt;Node22 -->
<g id="edge22" class="edge">
<title>Node7&#45;&gt;Node22</title>
<path fill="none" stroke="midnightblue" d="M1385.24,-358.95C1418.02,-348.55 1452.57,-334.82 1462,-321 1478.2,-297.26 1470.46,-262.28 1463.28,-241.16"/>
<polygon fill="midnightblue" stroke="midnightblue" points="1466.47,-239.68 1459.71,-231.52 1459.9,-242.11 1466.47,-239.68"/>
</g>
<!-- Node7&#45;&gt;Node23 -->
<g id="edge23" class="edge">
<title>Node7&#45;&gt;Node23</title>
<path fill="none" stroke="midnightblue" d="M1385.28,-360.25C1448.38,-344.27 1534.31,-322.42 1538,-321 1542.79,-319.16 1547.76,-316.86 1552.45,-314.48"/>
<polygon fill="midnightblue" stroke="midnightblue" points="1554.4,-317.41 1561.58,-309.62 1551.11,-311.23 1554.4,-317.41"/>
</g>
<!-- Node9 -->
<g id="node9" class="node">
<title>Node9</title>
<g id="a_node9"><a xlink:href="types_8hpp.html" target="_top" xlink:title=" ">
<polygon fill="white" stroke="black" points="568,-134.5 568,-164.5 678,-164.5 678,-134.5 568,-134.5"/>
<text text-anchor="start" x="576" y="-152.5" font-family="Helvetica,sans-Serif" font-size="10.00">packages/types/inc</text>
<text text-anchor="middle" x="623" y="-141.5" font-family="Helvetica,sans-Serif" font-size="10.00">/types.hpp</text>
</a>
</g>
</g>
<!-- Node8&#45;&gt;Node9 -->
<g id="edge8" class="edge">
<title>Node8&#45;&gt;Node9</title>
<path fill="none" stroke="midnightblue" d="M1201.93,-215.08C1067.23,-202.96 767.58,-175.64 688.28,-164.78"/>
<polygon fill="midnightblue" stroke="midnightblue" points="688.63,-161.3 678.23,-163.31 687.61,-168.22 688.63,-161.3"/>
</g>
<!-- Node15 -->
<g id="node15" class="node">
<title>Node15</title>
<g id="a_node15"><a xlink:title=" ">
<polygon fill="white" stroke="#bfbfbf" points="979.5,-73 979.5,-92 1048.5,-92 1048.5,-73 979.5,-73"/>
<text text-anchor="middle" x="1014" y="-80" font-family="Helvetica,sans-Serif" font-size="10.00">type_traits</text>
</a>
</g>
</g>
<!-- Node8&#45;&gt;Node15 -->
<g id="edge19" class="edge">
<title>Node8&#45;&gt;Node15</title>
<path fill="none" stroke="midnightblue" d="M1273.65,-201.25C1277.9,-181.82 1280.64,-152.44 1265,-134 1238.92,-103.25 1123.77,-90.72 1058.88,-86.03"/>
<polygon fill="midnightblue" stroke="midnightblue" points="1058.75,-82.52 1048.53,-85.32 1058.27,-89.5 1058.75,-82.52"/>
</g>
<!-- Node19 -->
<g id="node19" class="node">
<title>Node19</title>
<g id="a_node19"><a xlink:title=" ">
<polygon fill="white" stroke="#bfbfbf" points="1312,-140 1312,-159 1372,-159 1372,-140 1312,-140"/>
<text text-anchor="middle" x="1342" y="-147" font-family="Helvetica,sans-Serif" font-size="10.00">concepts</text>
</a>
</g>
</g>
<!-- Node8&#45;&gt;Node19 -->
<g id="edge18" class="edge">
<title>Node8&#45;&gt;Node19</title>
<path fill="none" stroke="midnightblue" d="M1288.61,-201.36C1300.2,-190.32 1314.47,-176.72 1325.35,-166.37"/>
<polygon fill="midnightblue" stroke="midnightblue" points="1328.07,-168.61 1332.9,-159.17 1323.24,-163.54 1328.07,-168.61"/>
</g>
<!-- Node20 -->
<g id="node20" class="node">
<title>Node20</title>
<g id="a_node20"><a xlink:title=" ">
<polygon fill="white" stroke="#bfbfbf" points="1142,-140 1142,-159 1192,-159 1192,-140 1142,-140"/>
<text text-anchor="middle" x="1167" y="-147" font-family="Helvetica,sans-Serif" font-size="10.00">cstdint</text>
</a>
</g>
</g>
<!-- Node8&#45;&gt;Node20 -->
<g id="edge20" class="edge">
<title>Node8&#45;&gt;Node20</title>
<path fill="none" stroke="midnightblue" d="M1239.87,-201.36C1223.43,-189.89 1203.04,-175.65 1188.01,-165.16"/>
<polygon fill="midnightblue" stroke="midnightblue" points="1189.63,-162.03 1179.43,-159.17 1185.62,-167.77 1189.63,-162.03"/>
</g>
<!-- Node21 -->
<g id="node21" class="node">
<title>Node21</title>
<g id="a_node21"><a xlink:title=" ">
<polygon fill="white" stroke="#bfbfbf" points="1210.5,-140 1210.5,-159 1255.5,-159 1255.5,-140 1210.5,-140"/>
<text text-anchor="middle" x="1233" y="-147" font-family="Helvetica,sans-Serif" font-size="10.00">utility</text>
</a>
</g>
</g>
<!-- Node8&#45;&gt;Node21 -->
<g id="edge21" class="edge">
<title>Node8&#45;&gt;Node21</title>
<path fill="none" stroke="midnightblue" d="M1258.25,-201.36C1253.09,-190.97 1246.81,-178.32 1241.8,-168.23"/>
<polygon fill="midnightblue" stroke="midnightblue" points="1244.89,-166.57 1237.31,-159.17 1238.62,-169.69 1244.89,-166.57"/>
</g>
<!-- Node10 -->
<g id="node10" class="node">
<title>Node10</title>
<g id="a_node10"><a xlink:href="debug_8hpp.html" target="_top" xlink:title=" ">
<polygon fill="white" stroke="black" points="742.5,-67.5 742.5,-97.5 861.5,-97.5 861.5,-67.5 742.5,-67.5"/>
<text text-anchor="start" x="750.5" y="-85.5" font-family="Helvetica,sans-Serif" font-size="10.00">packages/macros/inc</text>
<text text-anchor="middle" x="802" y="-74.5" font-family="Helvetica,sans-Serif" font-size="10.00">/debug.hpp</text>
</a>
</g>
</g>
<!-- Node9&#45;&gt;Node10 -->
<g id="edge9" class="edge">
<title>Node9&#45;&gt;Node10</title>
<path fill="none" stroke="midnightblue" d="M661.84,-134.4C688.82,-124.6 724.94,-111.48 753.77,-101.02"/>
<polygon fill="midnightblue" stroke="midnightblue" points="755.03,-104.28 763.24,-97.58 752.64,-97.7 755.03,-104.28"/>
</g>
<!-- Node13 -->
<g id="node13" class="node">
<title>Node13</title>
<g id="a_node13"><a xlink:title=" ">
<polygon fill="white" stroke="#bfbfbf" points="879.5,-73 879.5,-92 932.5,-92 932.5,-73 879.5,-73"/>
<text text-anchor="middle" x="906" y="-80" font-family="Helvetica,sans-Serif" font-size="10.00">cstddef</text>
</a>
</g>
</g>
<!-- Node9&#45;&gt;Node13 -->
<g id="edge12" class="edge">
<title>Node9&#45;&gt;Node13</title>
<path fill="none" stroke="midnightblue" d="M678.3,-136.06C681.58,-135.36 684.83,-134.66 688,-134 769.12,-116.97 791.65,-121.98 871,-98 873.28,-97.31 875.62,-96.52 877.96,-95.68"/>
<polygon fill="midnightblue" stroke="midnightblue" points="879.31,-98.91 887.36,-92.03 876.77,-92.39 879.31,-98.91"/>
</g>
<!-- Node9&#45;&gt;Node14 -->
<g id="edge13" class="edge">
<title>Node9&#45;&gt;Node14</title>
<path fill="none" stroke="midnightblue" d="M568,-137.17C521.3,-127.37 452.58,-112.53 393,-98 385.82,-96.25 378.14,-94.26 370.88,-92.32"/>
<polygon fill="midnightblue" stroke="midnightblue" points="371.58,-88.88 361.01,-89.66 369.75,-95.64 371.58,-88.88"/>
</g>
<!-- Node9&#45;&gt;Node15 -->
<g id="edge14" class="edge">
<title>Node9&#45;&gt;Node15</title>
<path fill="none" stroke="midnightblue" d="M678.26,-135.86C681.55,-135.21 684.81,-134.58 688,-134 800.17,-113.57 829.62,-117.26 942,-98 950.86,-96.48 960.29,-94.7 969.32,-92.92"/>
<polygon fill="midnightblue" stroke="midnightblue" points="970.17,-96.32 979.29,-90.91 968.79,-89.45 970.17,-96.32"/>
</g>
<!-- Node16 -->
<g id="node16" class="node">
<title>Node16</title>
<g id="a_node16"><a xlink:title=" ">
<polygon fill="white" stroke="#bfbfbf" points="402,-73 402,-92 452,-92 452,-73 402,-73"/>
<text text-anchor="middle" x="427" y="-80" font-family="Helvetica,sans-Serif" font-size="10.00">climits</text>
</a>
</g>
</g>
<!-- Node9&#45;&gt;Node16 -->
<g id="edge15" class="edge">
<title>Node9&#45;&gt;Node16</title>
<path fill="none" stroke="midnightblue" d="M573.29,-134.42C541.01,-124.93 498.19,-111.69 461,-98 459.34,-97.39 457.65,-96.74 455.95,-96.08"/>
<polygon fill="midnightblue" stroke="midnightblue" points="456.86,-92.67 446.28,-92.12 454.21,-99.15 456.86,-92.67"/>
</g>
<!-- Node17 -->
<g id="node17" class="node">
<title>Node17</title>
<g id="a_node17"><a xlink:title=" ">
<polygon fill="white" stroke="#bfbfbf" points="470.5,-67.5 470.5,-97.5 587.5,-97.5 587.5,-67.5 470.5,-67.5"/>
<text text-anchor="start" x="478.5" y="-85.5" font-family="Helvetica,sans-Serif" font-size="10.00">packages/types/impl</text>
<text text-anchor="middle" x="529" y="-74.5" font-family="Helvetica,sans-Serif" font-size="10.00">/types_impl.hpp</text>
</a>
</g>
</g>
<!-- Node9&#45;&gt;Node17 -->
<g id="edge16" class="edge">
<title>Node9&#45;&gt;Node17</title>
<path fill="none" stroke="midnightblue" d="M602.6,-134.4C589.55,-125.37 572.4,-113.51 557.95,-103.52"/>
<polygon fill="midnightblue" stroke="midnightblue" points="559.57,-100.39 549.36,-97.58 555.59,-106.14 559.57,-100.39"/>
</g>
<!-- Node18 -->
<g id="node18" class="node">
<title>Node18</title>
<g id="a_node18"><a xlink:href="logging_8hpp.html" target="_top" xlink:title=" ">
<polygon fill="white" stroke="black" points="605.5,-67.5 605.5,-97.5 724.5,-97.5 724.5,-67.5 605.5,-67.5"/>
<text text-anchor="start" x="613.5" y="-85.5" font-family="Helvetica,sans-Serif" font-size="10.00">packages/macros/inc</text>
<text text-anchor="middle" x="665" y="-74.5" font-family="Helvetica,sans-Serif" font-size="10.00">/logging.hpp</text>
</a>
</g>
</g>
<!-- Node9&#45;&gt;Node18 -->
<g id="edge17" class="edge">
<title>Node9&#45;&gt;Node18</title>
<path fill="none" stroke="midnightblue" d="M632.11,-134.4C637.45,-126.13 644.32,-115.51 650.4,-106.1"/>
<polygon fill="midnightblue" stroke="midnightblue" points="653.42,-107.88 655.9,-97.58 647.54,-104.08 653.42,-107.88"/>
</g>
<!-- Node11 -->
<g id="node11" class="node">
<title>Node11</title>
<g id="a_node11"><a xlink:href="detail_8hpp.html" target="_top" xlink:title=" ">
<polygon fill="white" stroke="black" points="1340.5,-0.5 1340.5,-30.5 1459.5,-30.5 1459.5,-0.5 1340.5,-0.5"/>
<text text-anchor="start" x="1348.5" y="-18.5" font-family="Helvetica,sans-Serif" font-size="10.00">packages/macros/inc</text>
<text text-anchor="middle" x="1400" y="-7.5" font-family="Helvetica,sans-Serif" font-size="10.00">/detail.hpp</text>
</a>
</g>
</g>
<!-- Node10&#45;&gt;Node11 -->
<g id="edge10" class="edge">
<title>Node10&#45;&gt;Node11</title>
<path fill="none" stroke="midnightblue" d="M861.76,-68.51C864.88,-67.97 867.97,-67.46 871,-67 1034.57,-42.09 1228.58,-27.3 1330.1,-20.67"/>
<polygon fill="midnightblue" stroke="midnightblue" points="1330.48,-24.15 1340.23,-20.02 1330.03,-17.17 1330.48,-24.15"/>
</g>
<!-- Node12 -->
<g id="node12" class="node">
<title>Node12</title>
<g id="a_node12"><a xlink:title=" ">
<polygon fill="white" stroke="#bfbfbf" points="772,-6 772,-25 832,-25 832,-6 772,-6"/>
<text text-anchor="middle" x="802" y="-13" font-family="Helvetica,sans-Serif" font-size="10.00">iostream</text>
</a>
</g>
</g>
<!-- Node10&#45;&gt;Node12 -->
<g id="edge11" class="edge">
<title>Node10&#45;&gt;Node12</title>
<path fill="none" stroke="midnightblue" d="M802,-67.4C802,-58.06 802,-45.71 802,-35.52"/>
<polygon fill="midnightblue" stroke="midnightblue" points="805.5,-35.19 802,-25.19 798.5,-35.19 805.5,-35.19"/>
</g>
<!-- Node25 -->
<g id="node25" class="node">
<title>Node25</title>
<g id="a_node25"><a xlink:href="iterator__concepts_8hpp.html" target="_top" xlink:title=" ">
<polygon fill="white" stroke="black" points="787,-279.5 787,-320.5 919,-320.5 919,-279.5 787,-279.5"/>
<text text-anchor="start" x="795" y="-308.5" font-family="Helvetica,sans-Serif" font-size="10.00">packages/compile_time</text>
<text text-anchor="start" x="795" y="-297.5" font-family="Helvetica,sans-Serif" font-size="10.00">/packages/concepts/inc</text>
<text text-anchor="middle" x="853" y="-286.5" font-family="Helvetica,sans-Serif" font-size="10.00">/iterator_concepts.hpp</text>
</a>
</g>
</g>
<!-- Node24&#45;&gt;Node25 -->
<g id="edge25" class="edge">
<title>Node24&#45;&gt;Node25</title>
<path fill="none" stroke="midnightblue" d="M665.15,-357.43C699.68,-347.06 742.25,-334.27 778.14,-323.49"/>
<polygon fill="midnightblue" stroke="midnightblue" points="779.5,-326.73 788.07,-320.51 777.48,-320.03 779.5,-326.73"/>
</g>
<!-- Node25&#45;&gt;Node6 -->
<g id="edge34" class="edge">
<title>Node25&#45;&gt;Node6</title>
<path fill="none" stroke="midnightblue" d="M919.36,-284.69C965.44,-273.75 1021.85,-258.04 1041,-243 1065.65,-223.63 1081.26,-189.65 1089.04,-168.71"/>
<polygon fill="midnightblue" stroke="midnightblue" points="1092.4,-169.68 1092.4,-159.09 1085.79,-167.37 1092.4,-169.68"/>
</g>
<!-- Node25&#45;&gt;Node8 -->
<g id="edge26" class="edge">
<title>Node25&#45;&gt;Node8</title>
<path fill="none" stroke="midnightblue" d="M919.22,-286.87C993.35,-273.3 1113.3,-251.33 1191.42,-237.03"/>
<polygon fill="midnightblue" stroke="midnightblue" points="1192.47,-240.39 1201.68,-235.15 1191.21,-233.5 1192.47,-240.39"/>
</g>
<!-- Node26 -->
<g id="node26" class="node">
<title>Node26</title>
<g id="a_node26"><a xlink:href="Size_8hpp.html" target="_top" xlink:title=" ">
<polygon fill="white" stroke="black" points="509,-201.5 509,-242.5 657,-242.5 657,-201.5 509,-201.5"/>
<text text-anchor="start" x="517" y="-230.5" font-family="Helvetica,sans-Serif" font-size="10.00">packages/compile_time</text>
<text text-anchor="start" x="517" y="-219.5" font-family="Helvetica,sans-Serif" font-size="10.00">/packages/parameter_pack</text>
<text text-anchor="middle" x="583" y="-208.5" font-family="Helvetica,sans-Serif" font-size="10.00">/inc/Size.hpp</text>
</a>
</g>
</g>
<!-- Node25&#45;&gt;Node26 -->
<g id="edge27" class="edge">
<title>Node25&#45;&gt;Node26</title>
<path fill="none" stroke="midnightblue" d="M786.95,-280.41C749.31,-269.81 701.89,-256.46 662.25,-245.31"/>
<polygon fill="midnightblue" stroke="midnightblue" points="663.18,-241.93 652.61,-242.59 661.29,-248.67 663.18,-241.93"/>
</g>
<!-- Node27 -->
<g id="node27" class="node">
<title>Node27</title>
<g id="a_node27"><a xlink:href="Select_8hpp.html" target="_top" xlink:title=" ">
<polygon fill="white" stroke="black" points="884,-201.5 884,-242.5 1032,-242.5 1032,-201.5 884,-201.5"/>
<text text-anchor="start" x="892" y="-230.5" font-family="Helvetica,sans-Serif" font-size="10.00">packages/compile_time</text>
<text text-anchor="start" x="892" y="-219.5" font-family="Helvetica,sans-Serif" font-size="10.00">/packages/parameter_pack</text>
<text text-anchor="middle" x="958" y="-208.5" font-family="Helvetica,sans-Serif" font-size="10.00">/inc/Select.hpp</text>
</a>
</g>
</g>
<!-- Node25&#45;&gt;Node27 -->
<g id="edge29" class="edge">
<title>Node25&#45;&gt;Node27</title>
<path fill="none" stroke="midnightblue" d="M880.04,-279.43C893.02,-270.03 908.75,-258.65 922.66,-248.58"/>
<polygon fill="midnightblue" stroke="midnightblue" points="925,-251.2 931.05,-242.51 920.9,-245.53 925,-251.2"/>
</g>
<!-- Node29 -->
<g id="node29" class="node">
<title>Node29</title>
<g id="a_node29"><a xlink:title=" ">
<polygon fill="white" stroke="#bfbfbf" points="812.5,-212.5 812.5,-231.5 865.5,-231.5 865.5,-212.5 812.5,-212.5"/>
<text text-anchor="middle" x="839" y="-219.5" font-family="Helvetica,sans-Serif" font-size="10.00">iterator</text>
</a>
</g>
</g>
<!-- Node25&#45;&gt;Node29 -->
<g id="edge33" class="edge">
<title>Node25&#45;&gt;Node29</title>
<path fill="none" stroke="midnightblue" d="M849.39,-279.43C847.26,-267.82 844.56,-253.18 842.45,-241.72"/>
<polygon fill="midnightblue" stroke="midnightblue" points="845.83,-240.75 840.58,-231.55 838.94,-242.02 845.83,-240.75"/>
</g>
<!-- Node26&#45;&gt;Node9 -->
<g id="edge28" class="edge">
<title>Node26&#45;&gt;Node9</title>
<path fill="none" stroke="midnightblue" d="M594.14,-201.36C599.01,-192.77 604.77,-182.64 609.85,-173.68"/>
<polygon fill="midnightblue" stroke="midnightblue" points="612.94,-175.32 614.83,-164.89 606.86,-171.86 612.94,-175.32"/>
</g>
<!-- Node27&#45;&gt;Node9 -->
<g id="edge30" class="edge">
<title>Node27&#45;&gt;Node9</title>
<path fill="none" stroke="midnightblue" d="M883.83,-202.95C880.85,-202.28 877.9,-201.63 875,-201 795.35,-183.75 772.54,-182.3 688.31,-165.02"/>
<polygon fill="midnightblue" stroke="midnightblue" points="688.8,-161.55 678.29,-162.95 687.38,-168.4 688.8,-161.55"/>
</g>
<!-- Node27&#45;&gt;Node15 -->
<g id="edge31" class="edge">
<title>Node27&#45;&gt;Node15</title>
<path fill="none" stroke="midnightblue" d="M973.55,-201.25C981,-190.95 989.47,-177.84 995,-165 1003.77,-144.62 1008.84,-119.54 1011.5,-102.63"/>
<polygon fill="midnightblue" stroke="midnightblue" points="1015.02,-102.78 1012.98,-92.39 1008.09,-101.79 1015.02,-102.78"/>
</g>
<!-- Node28 -->
<g id="node28" class="node">
<title>Node28</title>
<g id="a_node28"><a xlink:title=" ">
<polygon fill="white" stroke="#bfbfbf" points="944.5,-140 944.5,-159 985.5,-159 985.5,-140 944.5,-140"/>
<text text-anchor="middle" x="965" y="-147" font-family="Helvetica,sans-Serif" font-size="10.00">tuple</text>
</a>
</g>
</g>
<!-- Node27&#45;&gt;Node28 -->
<g id="edge32" class="edge">
<title>Node27&#45;&gt;Node28</title>
<path fill="none" stroke="midnightblue" d="M959.95,-201.36C960.95,-191.3 962.16,-179.1 963.15,-169.18"/>
<polygon fill="midnightblue" stroke="midnightblue" points="966.63,-169.47 964.14,-159.17 959.67,-168.78 966.63,-169.47"/>
</g>
<!-- Node30&#45;&gt;Node11 -->
<g id="edge48" class="edge">
<title>Node30&#45;&gt;Node11</title>
<path fill="none" stroke="midnightblue" d="M1196.68,-365.69C1212.09,-362.81 1228.65,-359.76 1244,-357 1336.77,-340.34 1377.05,-376.82 1453,-321 1498.3,-287.71 1506.01,-255.69 1493,-201 1478.13,-138.48 1438.53,-73.11 1416.09,-39.49"/>
<polygon fill="midnightblue" stroke="midnightblue" points="1418.76,-37.19 1410.25,-30.88 1412.97,-41.12 1418.76,-37.19"/>
</g>
<!-- Node30&#45;&gt;Node22 -->
<g id="edge52" class="edge">
<title>Node30&#45;&gt;Node22</title>
<path fill="none" stroke="midnightblue" d="M1196.52,-365.78C1281.6,-349.73 1427.92,-321.99 1429,-321 1451.08,-300.61 1455.73,-263.97 1456.37,-241.73"/>
<polygon fill="midnightblue" stroke="midnightblue" points="1459.87,-241.59 1456.41,-231.58 1452.87,-241.56 1459.87,-241.59"/>
</g>
<!-- Node31 -->
<g id="node31" class="node">
<title>Node31</title>
<g id="a_node31"><a xlink:href="exception_8hpp.html" target="_top" xlink:title=" ">
<polygon fill="white" stroke="black" points="675.5,-207 675.5,-237 794.5,-237 794.5,-207 675.5,-207"/>
<text text-anchor="start" x="683.5" y="-225" font-family="Helvetica,sans-Serif" font-size="10.00">packages/exceptions</text>
<text text-anchor="middle" x="735" y="-214" font-family="Helvetica,sans-Serif" font-size="10.00">/inc/exception.hpp</text>
</a>
</g>
</g>
<!-- Node30&#45;&gt;Node31 -->
<g id="edge36" class="edge">
<title>Node30&#45;&gt;Node31</title>
<path fill="none" stroke="midnightblue" d="M1077.37,-365.39C1061.96,-362.51 1045.38,-359.54 1030,-357 974.18,-347.8 823.05,-355.22 778,-321 754.63,-303.25 743.73,-270.08 738.8,-247.29"/>
<polygon fill="midnightblue" stroke="midnightblue" points="742.22,-246.5 736.89,-237.34 735.34,-247.83 742.22,-246.5"/>
</g>
<!-- Node35 -->
<g id="node35" class="node">
<title>Node35</title>
<g id="a_node35"><a xlink:href="exceptions_8hpp.html" target="_top" xlink:title=" ">
<polygon fill="white" stroke="black" points="1300.5,-285 1300.5,-315 1419.5,-315 1419.5,-285 1300.5,-285"/>
<text text-anchor="start" x="1308.5" y="-303" font-family="Helvetica,sans-Serif" font-size="10.00">packages/macros/inc</text>
<text text-anchor="middle" x="1360" y="-292" font-family="Helvetica,sans-Serif" font-size="10.00">/exceptions.hpp</text>
</a>
</g>
</g>
<!-- Node30&#45;&gt;Node35 -->
<g id="edge43" class="edge">
<title>Node30&#45;&gt;Node35</title>
<path fill="none" stroke="midnightblue" d="M1178.16,-362.97C1215.13,-350.37 1269.54,-331.83 1309.21,-318.31"/>
<polygon fill="midnightblue" stroke="midnightblue" points="1310.36,-321.61 1318.7,-315.07 1308.11,-314.99 1310.36,-321.61"/>
</g>
<!-- Node36 -->
<g id="node36" class="node">
<title>Node36</title>
<g id="a_node36"><a xlink:href="cmake__variables_8hpp.html" target="_top" xlink:title=" ">
<polygon fill="white" stroke="black" points="318,-290.5 318,-309.5 438,-309.5 438,-290.5 318,-290.5"/>
<text text-anchor="middle" x="378" y="-297.5" font-family="Helvetica,sans-Serif" font-size="10.00">cmake_variables.hpp</text>
</a>
</g>
</g>
<!-- Node30&#45;&gt;Node36 -->
<g id="edge49" class="edge">
<title>Node30&#45;&gt;Node36</title>
<path fill="none" stroke="midnightblue" d="M1077.46,-364.79C1062.05,-361.93 1045.45,-359.1 1030,-357 819.43,-328.35 568.49,-311.67 448.59,-304.76"/>
<polygon fill="midnightblue" stroke="midnightblue" points="448.63,-301.26 438.45,-304.18 448.23,-308.25 448.63,-301.26"/>
</g>
<!-- Node31&#45;&gt;Node6 -->
<g id="edge41" class="edge">
<title>Node31&#45;&gt;Node6</title>
<path fill="none" stroke="midnightblue" d="M780.84,-206.95C788.53,-204.81 796.47,-202.74 804,-201 893.18,-180.4 999.47,-163.98 1055.65,-155.92"/>
<polygon fill="midnightblue" stroke="midnightblue" points="1056.47,-159.34 1065.88,-154.47 1055.48,-152.41 1056.47,-159.34"/>
</g>
<!-- Node31&#45;&gt;Node9 -->
<g id="edge37" class="edge">
<title>Node31&#45;&gt;Node9</title>
<path fill="none" stroke="midnightblue" d="M712.6,-206.9C695.82,-196.34 672.64,-181.74 654.06,-170.05"/>
<polygon fill="midnightblue" stroke="midnightblue" points="655.68,-166.94 645.36,-164.57 651.96,-172.86 655.68,-166.94"/>
</g>
<!-- Node31&#45;&gt;Node14 -->
<g id="edge39" class="edge">
<title>Node31&#45;&gt;Node14</title>
<path fill="none" stroke="midnightblue" d="M688.86,-206.96C653.24,-195.97 602.81,-180.08 559,-165 491.43,-141.75 413.15,-112.09 370.58,-95.73"/>
<polygon fill="midnightblue" stroke="midnightblue" points="371.64,-92.38 361.05,-92.06 369.12,-98.92 371.64,-92.38"/>
</g>
<!-- Node32 -->
<g id="node32" class="node">
<title>Node32</title>
<g id="a_node32"><a xlink:title=" ">
<polygon fill="white" stroke="#bfbfbf" points="696.5,-140 696.5,-159 761.5,-159 761.5,-140 696.5,-140"/>
<text text-anchor="middle" x="729" y="-147" font-family="Helvetica,sans-Serif" font-size="10.00">stdexcept</text>
</a>
</g>
</g>
<!-- Node31&#45;&gt;Node32 -->
<g id="edge38" class="edge">
<title>Node31&#45;&gt;Node32</title>
<path fill="none" stroke="midnightblue" d="M733.79,-206.73C732.87,-196 731.61,-181.19 730.61,-169.46"/>
<polygon fill="midnightblue" stroke="midnightblue" points="734.09,-169.06 729.76,-159.39 727.12,-169.65 734.09,-169.06"/>
</g>
<!-- Node31&#45;&gt;Node33 -->
<g id="edge40" class="edge">
<title>Node31&#45;&gt;Node33</title>
<path fill="none" stroke="midnightblue" d="M688.77,-206.91C681.2,-204.8 673.4,-202.75 666,-201 579.81,-180.65 476.81,-163.66 424.73,-155.57"/>
<polygon fill="midnightblue" stroke="midnightblue" points="425.13,-152.09 414.71,-154.03 424.06,-159.01 425.13,-152.09"/>
</g>
<!-- Node34 -->
<g id="node34" class="node">
<title>Node34</title>
<g id="a_node34"><a xlink:title=" ">
<polygon fill="white" stroke="#bfbfbf" points="780,-134.5 780,-164.5 926,-164.5 926,-134.5 780,-134.5"/>
<text text-anchor="start" x="788" y="-152.5" font-family="Helvetica,sans-Serif" font-size="10.00">packages/exceptions</text>
<text text-anchor="middle" x="853" y="-141.5" font-family="Helvetica,sans-Serif" font-size="10.00">/impl/exceptions_impl.hpp</text>
</a>
</g>
</g>
<!-- Node31&#45;&gt;Node34 -->
<g id="edge42" class="edge">
<title>Node31&#45;&gt;Node34</title>
<path fill="none" stroke="midnightblue" d="M758.6,-206.9C776.44,-196.24 801.15,-181.48 820.81,-169.73"/>
<polygon fill="midnightblue" stroke="midnightblue" points="822.66,-172.71 829.45,-164.57 819.07,-166.7 822.66,-172.71"/>
</g>
<!-- Node35&#45;&gt;Node11 -->
<g id="edge45" class="edge">
<title>Node35&#45;&gt;Node11</title>
<path fill="none" stroke="midnightblue" d="M1362.34,-284.94C1366.36,-260.55 1374.76,-208.83 1381,-165 1387.2,-121.42 1393.51,-70.51 1397.08,-41.04"/>
<polygon fill="midnightblue" stroke="midnightblue" points="1400.58,-41.2 1398.3,-30.85 1393.63,-40.36 1400.58,-41.2"/>
</g>
<!-- Node35&#45;&gt;Node19 -->
<g id="edge47" class="edge">
<title>Node35&#45;&gt;Node19</title>
<path fill="none" stroke="midnightblue" d="M1358.27,-284.76C1355.01,-257.85 1347.94,-199.54 1344.29,-169.4"/>
<polygon fill="midnightblue" stroke="midnightblue" points="1347.75,-168.85 1343.07,-159.35 1340.8,-169.69 1347.75,-168.85"/>
</g>
<!-- Node35&#45;&gt;Node22 -->
<g id="edge46" class="edge">
<title>Node35&#45;&gt;Node22</title>
<path fill="none" stroke="midnightblue" d="M1378.06,-284.7C1394.89,-271.38 1419.91,-251.57 1437.03,-238.01"/>
<polygon fill="midnightblue" stroke="midnightblue" points="1439.51,-240.51 1445.18,-231.56 1435.17,-235.03 1439.51,-240.51"/>
</g>
<!-- Node35&#45;&gt;Node31 -->
<g id="edge44" class="edge">
<title>Node35&#45;&gt;Node31</title>
<path fill="none" stroke="midnightblue" d="M1300.36,-292.34C1264.35,-288.36 1217.55,-283.27 1176,-279 1010.76,-262.03 967.14,-274.26 804,-243 799,-242.04 793.84,-240.88 788.7,-239.61"/>
<polygon fill="midnightblue" stroke="midnightblue" points="789.44,-236.18 778.87,-237.04 787.66,-242.95 789.44,-236.18"/>
</g>
<!-- Node36&#45;&gt;Node14 -->
<g id="edge51" class="edge">
<title>Node36&#45;&gt;Node14</title>
<path fill="none" stroke="midnightblue" d="M376.42,-290.29C370.63,-258.27 350.44,-146.69 342.37,-102.11"/>
<polygon fill="midnightblue" stroke="midnightblue" points="345.78,-101.3 340.55,-92.09 338.89,-102.55 345.78,-101.3"/>
</g>
<!-- Node36&#45;&gt;Node37 -->
<g id="edge50" class="edge">
<title>Node36&#45;&gt;Node37</title>
<path fill="none" stroke="midnightblue" d="M366.41,-290.28C349.37,-277.45 317.31,-253.33 296.57,-237.73"/>
<polygon fill="midnightblue" stroke="midnightblue" points="298.55,-234.83 288.45,-231.62 294.34,-240.43 298.55,-234.83"/>
</g>
<!-- Node45&#45;&gt;Node2 -->
<g id="edge68" class="edge">
<title>Node45&#45;&gt;Node2</title>
<path fill="none" stroke="midnightblue" d="M404.8,-636.72C449.48,-626.42 510.66,-612.32 557.51,-601.52"/>
<polygon fill="midnightblue" stroke="midnightblue" points="558.32,-604.92 567.28,-599.26 556.75,-598.1 558.32,-604.92"/>
</g>
<!-- Node45&#45;&gt;Node9 -->
<g id="edge69" class="edge">
<title>Node45&#45;&gt;Node9</title>
<path fill="none" stroke="midnightblue" d="M404.69,-648.96C548.34,-643.83 906.59,-622.18 977,-533 985.54,-522.19 985.89,-512.53 977,-502 946.17,-465.49 811.64,-476.39 765,-466 656.07,-441.74 596.89,-482.64 523,-399 493.67,-365.8 475.33,-237.79 500,-201 513.27,-181.21 535.84,-169.17 558.04,-161.84"/>
<polygon fill="midnightblue" stroke="midnightblue" points="559.28,-165.13 567.85,-158.89 557.26,-158.42 559.28,-165.13"/>
</g>
<!-- Node45&#45;&gt;Node14 -->
<g id="edge70" class="edge">
<title>Node45&#45;&gt;Node14</title>
<path fill="none" stroke="midnightblue" d="M298.37,-636.44C248.35,-618.13 176,-580.86 176,-518.5 176,-518.5 176,-518.5 176,-221 176,-153.08 259.7,-111.9 307.15,-94.01"/>
<polygon fill="midnightblue" stroke="midnightblue" points="308.48,-97.25 316.68,-90.54 306.08,-90.67 308.48,-97.25"/>
</g>
<!-- Node46 -->
<g id="node46" class="node">
<title>Node46</title>
<g id="a_node46"><a xlink:title=" ">
<polygon fill="white" stroke="#bfbfbf" points="282,-569.5 282,-599.5 408,-599.5 408,-569.5 282,-569.5"/>
<text text-anchor="start" x="290" y="-587.5" font-family="Helvetica,sans-Serif" font-size="10.00">packages/logging/impl</text>
<text text-anchor="middle" x="345" y="-576.5" font-family="Helvetica,sans-Serif" font-size="10.00">/LogBlock_impl.hpp</text>
</a>
</g>
</g>
<!-- Node45&#45;&gt;Node46 -->
<g id="edge71" class="edge">
<title>Node45&#45;&gt;Node46</title>
<path fill="none" stroke="midnightblue" d="M345,-636.4C345,-628.64 345,-618.81 345,-609.86"/>
<polygon fill="midnightblue" stroke="midnightblue" points="348.5,-609.58 345,-599.58 341.5,-609.58 348.5,-609.58"/>
</g>
<!-- Node47&#45;&gt;Node14 -->
<g id="edge73" class="edge">
<title>Node47&#45;&gt;Node14</title>
<path fill="none" stroke="midnightblue" d="M58.7,-435.28C65.2,-408.97 78,-350.83 78,-301 78,-301 78,-301 78,-221 78,-177.26 89.38,-160.73 124,-134 178.22,-92.13 261.49,-84.11 306.84,-83.08"/>
<polygon fill="midnightblue" stroke="midnightblue" points="307.03,-86.58 316.99,-82.95 306.94,-79.58 307.03,-86.58"/>
</g>
</g>
</svg>
