<?xml version="1.0" encoding="UTF-8" standalone="no"?>
<!DOCTYPE svg PUBLIC "-//W3C//DTD SVG 1.1//EN"
 "http://www.w3.org/Graphics/SVG/1.1/DTD/svg11.dtd">
<!-- Generated by graphviz version 2.43.0 (0)
 -->
<!-- Title: logical.hpp Pages: 1 -->
<svg width="799pt" height="385pt"
 viewBox="0.00 0.00 798.66 385.00" xmlns="http://www.w3.org/2000/svg" xmlns:xlink="http://www.w3.org/1999/xlink">
<g id="graph0" class="graph" transform="scale(1 1) rotate(0) translate(4 381)">
<title>logical.hpp</title>
<polygon fill="white" stroke="transparent" points="-4,4 -4,-381 794.66,-381 794.66,4 -4,4"/>
<!-- Node1 -->
<g id="node1" class="node">
<title>Node1</title>
<g id="a_node1"><a xlink:title=" ">
<polygon fill="#bfbfbf" stroke="black" points="239.66,-357.5 239.66,-376.5 309.66,-376.5 309.66,-357.5 239.66,-357.5"/>
<text text-anchor="middle" x="274.66" y="-364.5" font-family="Helvetica,sans-Serif" font-size="10.00">logical.hpp</text>
</a>
</g>
</g>
<!-- Node2 -->
<g id="node2" class="node">
<title>Node2</title>
<g id="a_node2"><a xlink:href="Match_8hpp.html" target="_top" xlink:title=" ">
<polygon fill="white" stroke="black" points="130.66,-279.5 130.66,-320.5 278.66,-320.5 278.66,-279.5 130.66,-279.5"/>
<text text-anchor="start" x="138.66" y="-308.5" font-family="Helvetica,sans-Serif" font-size="10.00">packages/compile_time</text>
<text text-anchor="start" x="138.66" y="-297.5" font-family="Helvetica,sans-Serif" font-size="10.00">/packages/parameter_pack</text>
<text text-anchor="middle" x="204.66" y="-286.5" font-family="Helvetica,sans-Serif" font-size="10.00">/inc/Match.hpp</text>
</a>
</g>
</g>
<!-- Node1&#45;&gt;Node2 -->
<g id="edge1" class="edge">
<title>Node1&#45;&gt;Node2</title>
<path fill="none" stroke="midnightblue" d="M265.22,-357.23C256.95,-349.56 244.51,-338 233.04,-327.36"/>
<polygon fill="midnightblue" stroke="midnightblue" points="235.41,-324.78 225.7,-320.54 230.65,-329.91 235.41,-324.78"/>
</g>
<!-- Node13 -->
<g id="node13" class="node">
<title>Node13</title>
<g id="a_node13"><a xlink:href="Select_8hpp.html" target="_top" xlink:title=" ">
<polygon fill="white" stroke="black" points="19.66,-201.5 19.66,-242.5 167.66,-242.5 167.66,-201.5 19.66,-201.5"/>
<text text-anchor="start" x="27.66" y="-230.5" font-family="Helvetica,sans-Serif" font-size="10.00">packages/compile_time</text>
<text text-anchor="start" x="27.66" y="-219.5" font-family="Helvetica,sans-Serif" font-size="10.00">/packages/parameter_pack</text>
<text text-anchor="middle" x="93.66" y="-208.5" font-family="Helvetica,sans-Serif" font-size="10.00">/inc/Select.hpp</text>
</a>
</g>
</g>
<!-- Node1&#45;&gt;Node13 -->
<g id="edge20" class="edge">
<title>Node1&#45;&gt;Node13</title>
<path fill="none" stroke="midnightblue" d="M239.41,-365.03C204.83,-362.16 152.86,-352.45 121.66,-321 103.77,-302.97 97.14,-274.36 94.77,-252.69"/>
<polygon fill="midnightblue" stroke="midnightblue" points="98.25,-252.36 93.91,-242.69 91.28,-252.95 98.25,-252.36"/>
</g>
<!-- Node15 -->
<g id="node15" class="node">
<title>Node15</title>
<g id="a_node15"><a xlink:href="Size_8hpp.html" target="_top" xlink:title=" ">
<polygon fill="white" stroke="black" points="261.66,-201.5 261.66,-242.5 409.66,-242.5 409.66,-201.5 261.66,-201.5"/>
<text text-anchor="start" x="269.66" y="-230.5" font-family="Helvetica,sans-Serif" font-size="10.00">packages/compile_time</text>
<text text-anchor="start" x="269.66" y="-219.5" font-family="Helvetica,sans-Serif" font-size="10.00">/packages/parameter_pack</text>
<text text-anchor="middle" x="335.66" y="-208.5" font-family="Helvetica,sans-Serif" font-size="10.00">/inc/Size.hpp</text>
</a>
</g>
</g>
<!-- Node1&#45;&gt;Node15 -->
<g id="edge27" class="edge">
<title>Node1&#45;&gt;Node15</title>
<path fill="none" stroke="midnightblue" d="M278.29,-357.48C286.94,-337.21 309.07,-285.33 323.18,-252.25"/>
<polygon fill="midnightblue" stroke="midnightblue" points="326.57,-253.22 327.28,-242.65 320.13,-250.47 326.57,-253.22"/>
</g>
<!-- Node16 -->
<g id="node16" class="node">
<title>Node16</title>
<g id="a_node16"><a xlink:href="Range_8hpp.html" target="_top" xlink:title=" ">
<polygon fill="white" stroke="black" points="372.66,-279.5 372.66,-320.5 520.66,-320.5 520.66,-279.5 372.66,-279.5"/>
<text text-anchor="start" x="380.66" y="-308.5" font-family="Helvetica,sans-Serif" font-size="10.00">packages/compile_time</text>
<text text-anchor="start" x="380.66" y="-297.5" font-family="Helvetica,sans-Serif" font-size="10.00">/packages/parameter_pack</text>
<text text-anchor="middle" x="446.66" y="-286.5" font-family="Helvetica,sans-Serif" font-size="10.00">/inc/Range.hpp</text>
</a>
</g>
</g>
<!-- Node1&#45;&gt;Node16 -->
<g id="edge21" class="edge">
<title>Node1&#45;&gt;Node16</title>
<path fill="none" stroke="midnightblue" d="M297.5,-357.37C319.76,-348.95 354.61,-335.79 385.03,-324.29"/>
<polygon fill="midnightblue" stroke="midnightblue" points="386.61,-327.43 394.73,-320.63 384.14,-320.89 386.61,-327.43"/>
</g>
<!-- Node3 -->
<g id="node3" class="node">
<title>Node3</title>
<g id="a_node3"><a xlink:href="types_8hpp.html" target="_top" xlink:title=" ">
<polygon fill="white" stroke="black" points="329.66,-134.5 329.66,-164.5 439.66,-164.5 439.66,-134.5 329.66,-134.5"/>
<text text-anchor="start" x="337.66" y="-152.5" font-family="Helvetica,sans-Serif" font-size="10.00">packages/types/inc</text>
<text text-anchor="middle" x="384.66" y="-141.5" font-family="Helvetica,sans-Serif" font-size="10.00">/types.hpp</text>
</a>
</g>
</g>
<!-- Node2&#45;&gt;Node3 -->
<g id="edge2" class="edge">
<title>Node2&#45;&gt;Node3</title>
<path fill="none" stroke="midnightblue" d="M209.56,-279.44C215.99,-257.54 229.3,-222.34 252.66,-201 271.36,-183.91 296.45,-172.39 319.73,-164.73"/>
<polygon fill="midnightblue" stroke="midnightblue" points="321.06,-167.98 329.57,-161.68 318.99,-161.3 321.06,-167.98"/>
</g>
<!-- Node9 -->
<g id="node9" class="node">
<title>Node9</title>
<g id="a_node9"><a xlink:title=" ">
<polygon fill="white" stroke="#bfbfbf" points="78.16,-73 78.16,-92 147.16,-92 147.16,-73 78.16,-73"/>
<text text-anchor="middle" x="112.66" y="-80" font-family="Helvetica,sans-Serif" font-size="10.00">type_traits</text>
</a>
</g>
</g>
<!-- Node2&#45;&gt;Node9 -->
<g id="edge18" class="edge">
<title>Node2&#45;&gt;Node9</title>
<path fill="none" stroke="midnightblue" d="M130.6,-287.06C82.25,-277.57 25.44,-262.65 10.66,-243 -27.73,-191.96 50.92,-126.51 91.05,-97.93"/>
<polygon fill="midnightblue" stroke="midnightblue" points="93.22,-100.69 99.43,-92.1 89.22,-94.94 93.22,-100.69"/>
</g>
<!-- Node2&#45;&gt;Node13 -->
<g id="edge12" class="edge">
<title>Node2&#45;&gt;Node13</title>
<path fill="none" stroke="midnightblue" d="M176.07,-279.43C162.22,-269.94 145.41,-258.44 130.6,-248.29"/>
<polygon fill="midnightblue" stroke="midnightblue" points="132.38,-245.27 122.15,-242.51 128.42,-251.04 132.38,-245.27"/>
</g>
<!-- Node14 -->
<g id="node14" class="node">
<title>Node14</title>
<g id="a_node14"><a xlink:title=" ">
<polygon fill="white" stroke="#bfbfbf" points="175.16,-140 175.16,-159 216.16,-159 216.16,-140 175.16,-140"/>
<text text-anchor="middle" x="195.66" y="-147" font-family="Helvetica,sans-Serif" font-size="10.00">tuple</text>
</a>
</g>
</g>
<!-- Node2&#45;&gt;Node14 -->
<g id="edge19" class="edge">
<title>Node2&#45;&gt;Node14</title>
<path fill="none" stroke="midnightblue" d="M203.46,-279.28C201.72,-250.57 198.52,-197.63 196.8,-169.39"/>
<polygon fill="midnightblue" stroke="midnightblue" points="200.29,-169.03 196.19,-159.26 193.3,-169.45 200.29,-169.03"/>
</g>
<!-- Node2&#45;&gt;Node15 -->
<g id="edge16" class="edge">
<title>Node2&#45;&gt;Node15</title>
<path fill="none" stroke="midnightblue" d="M238.4,-279.43C255.05,-269.77 275.32,-258.01 293.04,-247.73"/>
<polygon fill="midnightblue" stroke="midnightblue" points="295.14,-250.55 302.04,-242.51 291.63,-244.5 295.14,-250.55"/>
</g>
<!-- Node4 -->
<g id="node4" class="node">
<title>Node4</title>
<g id="a_node4"><a xlink:href="debug_8hpp.html" target="_top" xlink:title=" ">
<polygon fill="white" stroke="black" points="647.16,-67.5 647.16,-97.5 766.16,-97.5 766.16,-67.5 647.16,-67.5"/>
<text text-anchor="start" x="655.16" y="-85.5" font-family="Helvetica,sans-Serif" font-size="10.00">packages/macros/inc</text>
<text text-anchor="middle" x="706.66" y="-74.5" font-family="Helvetica,sans-Serif" font-size="10.00">/debug.hpp</text>
</a>
</g>
</g>
<!-- Node3&#45;&gt;Node4 -->
<g id="edge3" class="edge">
<title>Node3&#45;&gt;Node4</title>
<path fill="none" stroke="midnightblue" d="M439.7,-137.78C488.97,-128.14 563.45,-113.44 637.06,-98.32"/>
<polygon fill="midnightblue" stroke="midnightblue" points="637.88,-101.72 646.96,-96.28 636.46,-94.87 637.88,-101.72"/>
</g>
<!-- Node7 -->
<g id="node7" class="node">
<title>Node7</title>
<g id="a_node7"><a xlink:title=" ">
<polygon fill="white" stroke="#bfbfbf" points="173.16,-73 173.16,-92 226.16,-92 226.16,-73 173.16,-73"/>
<text text-anchor="middle" x="199.66" y="-80" font-family="Helvetica,sans-Serif" font-size="10.00">cstddef</text>
</a>
</g>
</g>
<!-- Node3&#45;&gt;Node7 -->
<g id="edge6" class="edge">
<title>Node3&#45;&gt;Node7</title>
<path fill="none" stroke="midnightblue" d="M341.08,-134.44C311.25,-124.65 270.88,-111.05 235.66,-98 233.81,-97.32 231.92,-96.6 230.01,-95.86"/>
<polygon fill="midnightblue" stroke="midnightblue" points="231.11,-92.54 220.52,-92.13 228.55,-99.05 231.11,-92.54"/>
</g>
<!-- Node8 -->
<g id="node8" class="node">
<title>Node8</title>
<g id="a_node8"><a xlink:title=" ">
<polygon fill="white" stroke="#bfbfbf" points="244.66,-73 244.66,-92 288.66,-92 288.66,-73 244.66,-73"/>
<text text-anchor="middle" x="266.66" y="-80" font-family="Helvetica,sans-Serif" font-size="10.00">string</text>
</a>
</g>
</g>
<!-- Node3&#45;&gt;Node8 -->
<g id="edge7" class="edge">
<title>Node3&#45;&gt;Node8</title>
<path fill="none" stroke="midnightblue" d="M359.06,-134.4C338.81,-123.24 310.74,-107.78 290.86,-96.83"/>
<polygon fill="midnightblue" stroke="midnightblue" points="292.55,-93.77 282.1,-92.01 289.17,-99.9 292.55,-93.77"/>
</g>
<!-- Node3&#45;&gt;Node9 -->
<g id="edge8" class="edge">
<title>Node3&#45;&gt;Node9</title>
<path fill="none" stroke="midnightblue" d="M329.52,-136.74C284.69,-126.98 219.89,-112.41 163.66,-98 159.76,-97 155.7,-95.92 151.65,-94.81"/>
<polygon fill="midnightblue" stroke="midnightblue" points="152.29,-91.36 141.72,-92.05 150.41,-98.1 152.29,-91.36"/>
</g>
<!-- Node10 -->
<g id="node10" class="node">
<title>Node10</title>
<g id="a_node10"><a xlink:title=" ">
<polygon fill="white" stroke="#bfbfbf" points="306.66,-73 306.66,-92 356.66,-92 356.66,-73 306.66,-73"/>
<text text-anchor="middle" x="331.66" y="-80" font-family="Helvetica,sans-Serif" font-size="10.00">climits</text>
</a>
</g>
</g>
<!-- Node3&#45;&gt;Node10 -->
<g id="edge9" class="edge">
<title>Node3&#45;&gt;Node10</title>
<path fill="none" stroke="midnightblue" d="M373.16,-134.4C364.98,-124.36 353.95,-110.84 345.32,-100.25"/>
<polygon fill="midnightblue" stroke="midnightblue" points="347.78,-97.73 338.75,-92.19 342.36,-102.16 347.78,-97.73"/>
</g>
<!-- Node11 -->
<g id="node11" class="node">
<title>Node11</title>
<g id="a_node11"><a xlink:title=" ">
<polygon fill="white" stroke="#bfbfbf" points="375.16,-67.5 375.16,-97.5 492.16,-97.5 492.16,-67.5 375.16,-67.5"/>
<text text-anchor="start" x="383.16" y="-85.5" font-family="Helvetica,sans-Serif" font-size="10.00">packages/types/impl</text>
<text text-anchor="middle" x="433.66" y="-74.5" font-family="Helvetica,sans-Serif" font-size="10.00">/types_impl.hpp</text>
</a>
</g>
</g>
<!-- Node3&#45;&gt;Node11 -->
<g id="edge10" class="edge">
<title>Node3&#45;&gt;Node11</title>
<path fill="none" stroke="midnightblue" d="M395.29,-134.4C401.58,-126.05 409.7,-115.29 416.84,-105.81"/>
<polygon fill="midnightblue" stroke="midnightblue" points="419.82,-107.67 423.05,-97.58 414.23,-103.45 419.82,-107.67"/>
</g>
<!-- Node12 -->
<g id="node12" class="node">
<title>Node12</title>
<g id="a_node12"><a xlink:href="logging_8hpp.html" target="_top" xlink:title=" ">
<polygon fill="white" stroke="black" points="510.16,-67.5 510.16,-97.5 629.16,-97.5 629.16,-67.5 510.16,-67.5"/>
<text text-anchor="start" x="518.16" y="-85.5" font-family="Helvetica,sans-Serif" font-size="10.00">packages/macros/inc</text>
<text text-anchor="middle" x="569.66" y="-74.5" font-family="Helvetica,sans-Serif" font-size="10.00">/logging.hpp</text>
</a>
</g>
</g>
<!-- Node3&#45;&gt;Node12 -->
<g id="edge11" class="edge">
<title>Node3&#45;&gt;Node12</title>
<path fill="none" stroke="midnightblue" d="M424.8,-134.4C452.68,-124.6 490.02,-111.48 519.81,-101.02"/>
<polygon fill="midnightblue" stroke="midnightblue" points="521.32,-104.19 529.6,-97.58 519,-97.59 521.32,-104.19"/>
</g>
<!-- Node5 -->
<g id="node5" class="node">
<title>Node5</title>
<g id="a_node5"><a xlink:href="detail_8hpp.html" target="_top" xlink:title=" ">
<polygon fill="white" stroke="black" points="593.16,-0.5 593.16,-30.5 712.16,-30.5 712.16,-0.5 593.16,-0.5"/>
<text text-anchor="start" x="601.16" y="-18.5" font-family="Helvetica,sans-Serif" font-size="10.00">packages/macros/inc</text>
<text text-anchor="middle" x="652.66" y="-7.5" font-family="Helvetica,sans-Serif" font-size="10.00">/detail.hpp</text>
</a>
</g>
</g>
<!-- Node4&#45;&gt;Node5 -->
<g id="edge4" class="edge">
<title>Node4&#45;&gt;Node5</title>
<path fill="none" stroke="midnightblue" d="M694.94,-67.4C687.94,-58.96 678.88,-48.07 670.95,-38.52"/>
<polygon fill="midnightblue" stroke="midnightblue" points="673.44,-36.03 664.35,-30.58 668.05,-40.51 673.44,-36.03"/>
</g>
<!-- Node6 -->
<g id="node6" class="node">
<title>Node6</title>
<g id="a_node6"><a xlink:title=" ">
<polygon fill="white" stroke="#bfbfbf" points="730.66,-6 730.66,-25 790.66,-25 790.66,-6 730.66,-6"/>
<text text-anchor="middle" x="760.66" y="-13" font-family="Helvetica,sans-Serif" font-size="10.00">iostream</text>
</a>
</g>
</g>
<!-- Node4&#45;&gt;Node6 -->
<g id="edge5" class="edge">
<title>Node4&#45;&gt;Node6</title>
<path fill="none" stroke="midnightblue" d="M718.38,-67.4C726.8,-57.26 738.17,-43.57 747,-32.94"/>
<polygon fill="midnightblue" stroke="midnightblue" points="749.74,-35.12 753.44,-25.19 744.35,-30.65 749.74,-35.12"/>
</g>
<!-- Node13&#45;&gt;Node3 -->
<g id="edge13" class="edge">
<title>Node13&#45;&gt;Node3</title>
<path fill="none" stroke="midnightblue" d="M167.84,-203.03C214.65,-191.69 274.54,-177.18 319.51,-166.28"/>
<polygon fill="midnightblue" stroke="midnightblue" points="320.56,-169.63 329.45,-163.88 318.91,-162.83 320.56,-169.63"/>
</g>
<!-- Node13&#45;&gt;Node9 -->
<g id="edge14" class="edge">
<title>Node13&#45;&gt;Node9</title>
<path fill="none" stroke="midnightblue" d="M96.38,-201.3C100.05,-174.78 106.52,-127.94 110.1,-102.03"/>
<polygon fill="midnightblue" stroke="midnightblue" points="113.58,-102.42 111.48,-92.04 106.64,-101.46 113.58,-102.42"/>
</g>
<!-- Node13&#45;&gt;Node14 -->
<g id="edge15" class="edge">
<title>Node13&#45;&gt;Node14</title>
<path fill="none" stroke="midnightblue" d="M122.07,-201.36C138.83,-189.78 159.66,-175.39 174.87,-164.87"/>
<polygon fill="midnightblue" stroke="midnightblue" points="176.87,-167.74 183.11,-159.17 172.89,-161.98 176.87,-167.74"/>
</g>
<!-- Node15&#45;&gt;Node3 -->
<g id="edge17" class="edge">
<title>Node15&#45;&gt;Node3</title>
<path fill="none" stroke="midnightblue" d="M349.31,-201.36C355.4,-192.59 362.62,-182.21 368.94,-173.12"/>
<polygon fill="midnightblue" stroke="midnightblue" points="371.82,-175.1 374.66,-164.89 366.08,-171.11 371.82,-175.1"/>
</g>
<!-- Node16&#45;&gt;Node3 -->
<g id="edge22" class="edge">
<title>Node16&#45;&gt;Node3</title>
<path fill="none" stroke="midnightblue" d="M514.77,-279.47C532.04,-271.11 548.54,-259.37 558.66,-243 568.47,-227.12 569.87,-215.93 558.66,-201 545.3,-183.21 493.56,-169.66 449.95,-161.09"/>
<polygon fill="midnightblue" stroke="midnightblue" points="450.4,-157.62 439.92,-159.18 449.09,-164.49 450.4,-157.62"/>
</g>
<!-- Node16&#45;&gt;Node9 -->
<g id="edge24" class="edge">
<title>Node16&#45;&gt;Node9</title>
<path fill="none" stroke="midnightblue" d="M452.22,-279.47C457.08,-257.92 460.95,-223.35 443.66,-201 408.81,-155.94 374.56,-183.41 320.66,-165 256.2,-142.99 182.3,-112.82 142.24,-96.05"/>
<polygon fill="midnightblue" stroke="midnightblue" points="143.38,-92.73 132.81,-92.09 140.67,-99.19 143.38,-92.73"/>
</g>
<!-- Node16&#45;&gt;Node14 -->
<g id="edge25" class="edge">
<title>Node16&#45;&gt;Node14</title>
<path fill="none" stroke="midnightblue" d="M446.66,-279.46C445.57,-257.25 440.26,-221.43 418.66,-201 404.71,-187.81 284.49,-165.71 226.59,-155.71"/>
<polygon fill="midnightblue" stroke="midnightblue" points="226.99,-152.22 216.54,-153.98 225.8,-159.12 226.99,-152.22"/>
</g>
<!-- Node16&#45;&gt;Node15 -->
<g id="edge23" class="edge">
<title>Node16&#45;&gt;Node15</title>
<path fill="none" stroke="midnightblue" d="M418.07,-279.43C404.22,-269.94 387.41,-258.44 372.6,-248.29"/>
<polygon fill="midnightblue" stroke="midnightblue" points="374.38,-245.27 364.15,-242.51 370.42,-251.04 374.38,-245.27"/>
</g>
<!-- Node17 -->
<g id="node17" class="node">
<title>Node17</title>
<g id="a_node17"><a xlink:title=" ">
<polygon fill="white" stroke="#bfbfbf" points="504.16,-212.5 504.16,-231.5 549.16,-231.5 549.16,-212.5 504.16,-212.5"/>
<text text-anchor="middle" x="526.66" y="-219.5" font-family="Helvetica,sans-Serif" font-size="10.00">utility</text>
</a>
</g>
</g>
<!-- Node16&#45;&gt;Node17 -->
<g id="edge26" class="edge">
<title>Node16&#45;&gt;Node17</title>
<path fill="none" stroke="midnightblue" d="M467.26,-279.43C480.63,-266.73 497.81,-250.41 510.25,-238.59"/>
<polygon fill="midnightblue" stroke="midnightblue" points="512.82,-240.98 517.66,-231.55 508,-235.9 512.82,-240.98"/>
</g>
</g>
</svg>
