<?xml version="1.0" encoding="UTF-8" standalone="no"?>
<!DOCTYPE svg PUBLIC "-//W3C//DTD SVG 1.1//EN"
 "http://www.w3.org/Graphics/SVG/1.1/DTD/svg11.dtd">
<!-- Generated by graphviz version 2.43.0 (0)
 -->
<!-- Title: MarchingContainer.hpp Pages: 1 -->
<svg width="795pt" height="456pt"
 viewBox="0.00 0.00 795.00 456.00" xmlns="http://www.w3.org/2000/svg" xmlns:xlink="http://www.w3.org/1999/xlink">
<g id="graph0" class="graph" transform="scale(1 1) rotate(0) translate(4 452)">
<title>MarchingContainer.hpp</title>
<!-- Node1 -->
<g id="Node000001" class="node">
<title>Node1</title>
<g id="a_Node000001"><a xlink:title=" ">
<polygon fill="#999999" stroke="#666666" points="425,-448 296,-448 296,-429 425,-429 425,-448"/>
<text text-anchor="middle" x="360.5" y="-436" font-family="Helvetica,sans-Serif" font-size="10.00">MarchingContainer.hpp</text>
</a>
</g>
</g>
<!-- Node2 -->
<g id="Node000002" class="node">
<title>Node2</title>
<g id="a_Node000002"><a xlink:href="types_8hpp.html" target="_top" xlink:title=" ">
<polygon fill="white" stroke="#666666" points="315.5,-162 205.5,-162 205.5,-132 315.5,-132 315.5,-162"/>
<text text-anchor="start" x="213.5" y="-150" font-family="Helvetica,sans-Serif" font-size="10.00">packages/types/inc</text>
<text text-anchor="middle" x="260.5" y="-139" font-family="Helvetica,sans-Serif" font-size="10.00">/types.hpp</text>
</a>
</g>
</g>
<!-- Node1&#45;&gt;Node2 -->
<g id="edge1_Node000001_Node000002" class="edge">
<title>Node1&#45;&gt;Node2</title>
<g id="a_edge1_Node000001_Node000002"><a xlink:title=" ">
<path fill="none" stroke="#63b8ff" d="M309.33,-428.97C283.46,-422.57 252.89,-411.6 230.5,-393 170.03,-342.77 163.49,-315.03 143.5,-239 138.87,-221.38 133.46,-213.21 143.5,-198 155.48,-179.86 175.54,-168.27 195.69,-160.89"/>
<polygon fill="#63b8ff" stroke="#63b8ff" points="196.88,-164.18 205.25,-157.69 194.65,-157.55 196.88,-164.18"/>
</a>
</g>
</g>
<!-- Node12 -->
<g id="Node000012" class="node">
<title>Node12</title>
<g id="a_Node000012"><a xlink:href="container__concepts_8hpp.html" target="_top" xlink:title=" ">
<polygon fill="white" stroke="#666666" points="374,-393 239,-393 239,-352 374,-352 374,-393"/>
<text text-anchor="start" x="247" y="-381" font-family="Helvetica,sans-Serif" font-size="10.00">packages/compile_time</text>
<text text-anchor="start" x="247" y="-370" font-family="Helvetica,sans-Serif" font-size="10.00">/packages/concepts/inc</text>
<text text-anchor="middle" x="306.5" y="-359" font-family="Helvetica,sans-Serif" font-size="10.00">/container_concepts.hpp</text>
</a>
</g>
</g>
<!-- Node1&#45;&gt;Node12 -->
<g id="edge11_Node000001_Node000012" class="edge">
<title>Node1&#45;&gt;Node12</title>
<g id="a_edge11_Node000001_Node000012"><a xlink:title=" ">
<path fill="none" stroke="#63b8ff" d="M353.22,-428.87C347.13,-421.65 338.1,-410.95 329.6,-400.88"/>
<polygon fill="#63b8ff" stroke="#63b8ff" points="332.08,-398.39 322.96,-393.01 326.73,-402.91 332.08,-398.39"/>
</a>
</g>
</g>
<!-- Node23 -->
<g id="Node000023" class="node">
<title>Node23</title>
<g id="a_Node000023"><a xlink:title=" ">
<polygon fill="#e0e0e0" stroke="#999999" points="439,-382 392,-382 392,-363 439,-363 439,-382"/>
<text text-anchor="middle" x="415.5" y="-370" font-family="Helvetica,sans-Serif" font-size="10.00">vector</text>
</a>
</g>
</g>
<!-- Node1&#45;&gt;Node23 -->
<g id="edge27_Node000001_Node000023" class="edge">
<title>Node1&#45;&gt;Node23</title>
<g id="a_edge27_Node000001_Node000023"><a xlink:title=" ">
<path fill="none" stroke="#63b8ff" d="M367.92,-428.87C376.4,-419 390.48,-402.61 401.13,-390.22"/>
<polygon fill="#63b8ff" stroke="#63b8ff" points="403.98,-392.27 407.85,-382.41 398.67,-387.71 403.98,-392.27"/>
</a>
</g>
</g>
<!-- Node24 -->
<g id="Node000024" class="node">
<title>Node24</title>
<g id="a_Node000024"><a xlink:title=" ">
<polygon fill="#e0e0e0" stroke="#999999" points="594,-393 457,-393 457,-352 594,-352 594,-393"/>
<text text-anchor="start" x="465" y="-381" font-family="Helvetica,sans-Serif" font-size="10.00">packages/stl_extension</text>
<text text-anchor="start" x="465" y="-370" font-family="Helvetica,sans-Serif" font-size="10.00">/impl/MarchingContainer</text>
<text text-anchor="middle" x="525.5" y="-359" font-family="Helvetica,sans-Serif" font-size="10.00">_impl.hpp</text>
</a>
</g>
</g>
<!-- Node1&#45;&gt;Node24 -->
<g id="edge28_Node000001_Node000024" class="edge">
<title>Node1&#45;&gt;Node24</title>
<g id="a_edge28_Node000001_Node000024"><a xlink:title=" ">
<path fill="none" stroke="#63b8ff" d="M382.75,-428.87C403.93,-420.65 436.76,-407.92 465.6,-396.73"/>
<polygon fill="#63b8ff" stroke="#63b8ff" points="467.15,-399.89 475.2,-393.01 464.61,-393.36 467.15,-399.89"/>
</a>
</g>
</g>
<!-- Node3 -->
<g id="Node000003" class="node">
<title>Node3</title>
<g id="a_Node000003"><a xlink:href="debug_8hpp.html" target="_top" xlink:title=" ">
<polygon fill="white" stroke="#666666" points="593,-96 474,-96 474,-66 593,-66 593,-96"/>
<text text-anchor="start" x="482" y="-84" font-family="Helvetica,sans-Serif" font-size="10.00">packages/macros/inc</text>
<text text-anchor="middle" x="533.5" y="-73" font-family="Helvetica,sans-Serif" font-size="10.00">/debug.hpp</text>
</a>
</g>
</g>
<!-- Node2&#45;&gt;Node3 -->
<g id="edge2_Node000002_Node000003" class="edge">
<title>Node2&#45;&gt;Node3</title>
<g id="a_edge2_Node000002_Node000003"><a xlink:title=" ">
<path fill="none" stroke="#63b8ff" d="M315.75,-133.05C358.42,-123.04 417.75,-109.13 463.71,-98.36"/>
<polygon fill="#63b8ff" stroke="#63b8ff" points="464.66,-101.73 473.6,-96.04 463.06,-94.92 464.66,-101.73"/>
</a>
</g>
</g>
<!-- Node6 -->
<g id="Node000006" class="node">
<title>Node6</title>
<g id="a_Node000006"><a xlink:title=" ">
<polygon fill="#e0e0e0" stroke="#999999" points="53,-90.5 0,-90.5 0,-71.5 53,-71.5 53,-90.5"/>
<text text-anchor="middle" x="26.5" y="-78.5" font-family="Helvetica,sans-Serif" font-size="10.00">cstddef</text>
</a>
</g>
</g>
<!-- Node2&#45;&gt;Node6 -->
<g id="edge5_Node000002_Node000006" class="edge">
<title>Node2&#45;&gt;Node6</title>
<g id="a_edge5_Node000002_Node000006"><a xlink:title=" ">
<path fill="none" stroke="#63b8ff" d="M205.36,-134C165.35,-124.83 110.12,-111.21 62.5,-96 60.63,-95.4 58.72,-94.76 56.8,-94.09"/>
<polygon fill="#63b8ff" stroke="#63b8ff" points="57.88,-90.76 47.28,-90.58 55.46,-97.32 57.88,-90.76"/>
</a>
</g>
</g>
<!-- Node7 -->
<g id="Node000007" class="node">
<title>Node7</title>
<g id="a_Node000007"><a xlink:title=" ">
<polygon fill="#e0e0e0" stroke="#999999" points="115.5,-90.5 71.5,-90.5 71.5,-71.5 115.5,-71.5 115.5,-90.5"/>
<text text-anchor="middle" x="93.5" y="-78.5" font-family="Helvetica,sans-Serif" font-size="10.00">string</text>
</a>
</g>
</g>
<!-- Node2&#45;&gt;Node7 -->
<g id="edge6_Node000002_Node000007" class="edge">
<title>Node2&#45;&gt;Node7</title>
<g id="a_edge6_Node000002_Node000007"><a xlink:title=" ">
<path fill="none" stroke="#63b8ff" d="M220.04,-131.98C192.84,-122.35 156.28,-109 124.5,-96 123.33,-95.52 122.14,-95.03 120.94,-94.52"/>
<polygon fill="#63b8ff" stroke="#63b8ff" points="122.33,-91.31 111.76,-90.51 119.53,-97.72 122.33,-91.31"/>
</a>
</g>
</g>
<!-- Node8 -->
<g id="Node000008" class="node">
<title>Node8</title>
<g id="a_Node000008"><a xlink:title=" ">
<polygon fill="#e0e0e0" stroke="#999999" points="680,-90.5 611,-90.5 611,-71.5 680,-71.5 680,-90.5"/>
<text text-anchor="middle" x="645.5" y="-78.5" font-family="Helvetica,sans-Serif" font-size="10.00">type_traits</text>
</a>
</g>
</g>
<!-- Node2&#45;&gt;Node8 -->
<g id="edge7_Node000002_Node000008" class="edge">
<title>Node2&#45;&gt;Node8</title>
<g id="a_edge7_Node000002_Node000008"><a xlink:title=" ">
<path fill="none" stroke="#63b8ff" d="M315.69,-138.45C405.29,-126.13 575.19,-102.39 602.5,-96 605.54,-95.29 608.67,-94.46 611.79,-93.57"/>
<polygon fill="#63b8ff" stroke="#63b8ff" points="613.05,-96.84 621.6,-90.58 611.01,-90.15 613.05,-96.84"/>
</a>
</g>
</g>
<!-- Node9 -->
<g id="Node000009" class="node">
<title>Node9</title>
<g id="a_Node000009"><a xlink:title=" ">
<polygon fill="#e0e0e0" stroke="#999999" points="183.5,-90.5 133.5,-90.5 133.5,-71.5 183.5,-71.5 183.5,-90.5"/>
<text text-anchor="middle" x="158.5" y="-78.5" font-family="Helvetica,sans-Serif" font-size="10.00">climits</text>
</a>
</g>
</g>
<!-- Node2&#45;&gt;Node9 -->
<g id="edge8_Node000002_Node000009" class="edge">
<title>Node2&#45;&gt;Node9</title>
<g id="a_edge8_Node000002_Node000009"><a xlink:title=" ">
<path fill="none" stroke="#63b8ff" d="M238.12,-131.95C221.09,-121.27 197.79,-106.65 180.79,-95.98"/>
<polygon fill="#63b8ff" stroke="#63b8ff" points="182.41,-92.87 172.07,-90.52 178.68,-98.8 182.41,-92.87"/>
</a>
</g>
</g>
<!-- Node10 -->
<g id="Node000010" class="node">
<title>Node10</title>
<g id="a_Node000010"><a xlink:title=" ">
<polygon fill="#e0e0e0" stroke="#999999" points="319,-96 202,-96 202,-66 319,-66 319,-96"/>
<text text-anchor="start" x="210" y="-84" font-family="Helvetica,sans-Serif" font-size="10.00">packages/types/impl</text>
<text text-anchor="middle" x="260.5" y="-73" font-family="Helvetica,sans-Serif" font-size="10.00">/types_impl.hpp</text>
</a>
</g>
</g>
<!-- Node2&#45;&gt;Node10 -->
<g id="edge9_Node000002_Node000010" class="edge">
<title>Node2&#45;&gt;Node10</title>
<g id="a_edge9_Node000002_Node000010"><a xlink:title=" ">
<path fill="none" stroke="#63b8ff" d="M260.5,-131.8C260.5,-124.34 260.5,-114.99 260.5,-106.41"/>
<polygon fill="#63b8ff" stroke="#63b8ff" points="264,-106.16 260.5,-96.16 257,-106.16 264,-106.16"/>
</a>
</g>
</g>
<!-- Node11 -->
<g id="Node000011" class="node">
<title>Node11</title>
<g id="a_Node000011"><a xlink:href="logging_8hpp.html" target="_top" xlink:title=" ">
<polygon fill="white" stroke="#666666" points="456,-96 337,-96 337,-66 456,-66 456,-96"/>
<text text-anchor="start" x="345" y="-84" font-family="Helvetica,sans-Serif" font-size="10.00">packages/macros/inc</text>
<text text-anchor="middle" x="396.5" y="-73" font-family="Helvetica,sans-Serif" font-size="10.00">/logging.hpp</text>
</a>
</g>
</g>
<!-- Node2&#45;&gt;Node11 -->
<g id="edge10_Node000002_Node000011" class="edge">
<title>Node2&#45;&gt;Node11</title>
<g id="a_edge10_Node000002_Node000011"><a xlink:title=" ">
<path fill="none" stroke="#63b8ff" d="M290.35,-131.95C310.1,-122.66 336.2,-110.38 357.58,-100.32"/>
<polygon fill="#63b8ff" stroke="#63b8ff" points="359.17,-103.44 366.72,-96.01 356.19,-97.1 359.17,-103.44"/>
</a>
</g>
</g>
<!-- Node4 -->
<g id="Node000004" class="node">
<title>Node4</title>
<g id="a_Node000004"><a xlink:href="detail_8hpp.html" target="_top" xlink:title=" ">
<polygon fill="white" stroke="#666666" points="539,-30 420,-30 420,0 539,0 539,-30"/>
<text text-anchor="start" x="428" y="-18" font-family="Helvetica,sans-Serif" font-size="10.00">packages/macros/inc</text>
<text text-anchor="middle" x="479.5" y="-7" font-family="Helvetica,sans-Serif" font-size="10.00">/detail.hpp</text>
</a>
</g>
</g>
<!-- Node3&#45;&gt;Node4 -->
<g id="edge3_Node000003_Node000004" class="edge">
<title>Node3&#45;&gt;Node4</title>
<g id="a_edge3_Node000003_Node000004"><a xlink:title=" ">
<path fill="none" stroke="#63b8ff" d="M521.52,-65.8C514.59,-57.59 505.74,-47.1 497.95,-37.87"/>
<polygon fill="#63b8ff" stroke="#63b8ff" points="500.57,-35.55 491.45,-30.16 495.22,-40.06 500.57,-35.55"/>
</a>
</g>
</g>
<!-- Node5 -->
<g id="Node000005" class="node">
<title>Node5</title>
<g id="a_Node000005"><a xlink:title=" ">
<polygon fill="#e0e0e0" stroke="#999999" points="617.5,-24.5 557.5,-24.5 557.5,-5.5 617.5,-5.5 617.5,-24.5"/>
<text text-anchor="middle" x="587.5" y="-12.5" font-family="Helvetica,sans-Serif" font-size="10.00">iostream</text>
</a>
</g>
</g>
<!-- Node3&#45;&gt;Node5 -->
<g id="edge4_Node000003_Node000005" class="edge">
<title>Node3&#45;&gt;Node5</title>
<g id="a_edge4_Node000003_Node000005"><a xlink:title=" ">
<path fill="none" stroke="#63b8ff" d="M545.48,-65.8C553.74,-56.01 564.74,-42.98 573.41,-32.7"/>
<polygon fill="#63b8ff" stroke="#63b8ff" points="576.26,-34.74 580.04,-24.84 570.91,-30.23 576.26,-34.74"/>
</a>
</g>
</g>
<!-- Node13 -->
<g id="Node000013" class="node">
<title>Node13</title>
<g id="a_Node000013"><a xlink:href="iterator__concepts_8hpp.html" target="_top" xlink:title=" ">
<polygon fill="white" stroke="#666666" points="517.5,-316 385.5,-316 385.5,-275 517.5,-275 517.5,-316"/>
<text text-anchor="start" x="393.5" y="-304" font-family="Helvetica,sans-Serif" font-size="10.00">packages/compile_time</text>
<text text-anchor="start" x="393.5" y="-293" font-family="Helvetica,sans-Serif" font-size="10.00">/packages/concepts/inc</text>
<text text-anchor="middle" x="451.5" y="-282" font-family="Helvetica,sans-Serif" font-size="10.00">/iterator_concepts.hpp</text>
</a>
</g>
</g>
<!-- Node12&#45;&gt;Node13 -->
<g id="edge12_Node000012_Node000013" class="edge">
<title>Node12&#45;&gt;Node13</title>
<g id="a_edge12_Node000012_Node000013"><a xlink:title=" ">
<path fill="none" stroke="#63b8ff" d="M344.22,-351.99C362.69,-342.44 385.11,-330.84 404.67,-320.72"/>
<polygon fill="#63b8ff" stroke="#63b8ff" points="406.44,-323.75 413.72,-316.04 403.23,-317.53 406.44,-323.75"/>
</a>
</g>
</g>
<!-- Node14 -->
<g id="Node000014" class="node">
<title>Node14</title>
<g id="a_Node000014"><a xlink:href="basic__concepts_8hpp.html" target="_top" xlink:title=" ">
<polygon fill="white" stroke="#666666" points="764.5,-239 632.5,-239 632.5,-198 764.5,-198 764.5,-239"/>
<text text-anchor="start" x="640.5" y="-227" font-family="Helvetica,sans-Serif" font-size="10.00">packages/compile_time</text>
<text text-anchor="start" x="640.5" y="-216" font-family="Helvetica,sans-Serif" font-size="10.00">/packages/concepts/inc</text>
<text text-anchor="middle" x="698.5" y="-205" font-family="Helvetica,sans-Serif" font-size="10.00">/basic_concepts.hpp</text>
</a>
</g>
</g>
<!-- Node13&#45;&gt;Node14 -->
<g id="edge13_Node000013_Node000014" class="edge">
<title>Node13&#45;&gt;Node14</title>
<g id="a_edge13_Node000013_Node000014"><a xlink:title=" ">
<path fill="none" stroke="#63b8ff" d="M515.75,-274.99C549.07,-264.87 589.93,-252.47 624.55,-241.95"/>
<polygon fill="#63b8ff" stroke="#63b8ff" points="625.59,-245.3 634.14,-239.04 623.56,-238.6 625.59,-245.3"/>
</a>
</g>
</g>
<!-- Node18 -->
<g id="Node000018" class="node">
<title>Node18</title>
<g id="a_Node000018"><a xlink:href="Size_8hpp.html" target="_top" xlink:title=" ">
<polygon fill="white" stroke="#666666" points="300.5,-239 152.5,-239 152.5,-198 300.5,-198 300.5,-239"/>
<text text-anchor="start" x="160.5" y="-227" font-family="Helvetica,sans-Serif" font-size="10.00">packages/compile_time</text>
<text text-anchor="start" x="160.5" y="-216" font-family="Helvetica,sans-Serif" font-size="10.00">/packages/parameter_pack</text>
<text text-anchor="middle" x="226.5" y="-205" font-family="Helvetica,sans-Serif" font-size="10.00">/inc/Size.hpp</text>
</a>
</g>
</g>
<!-- Node13&#45;&gt;Node18 -->
<g id="edge19_Node000013_Node000018" class="edge">
<title>Node13&#45;&gt;Node18</title>
<g id="a_edge19_Node000013_Node000018"><a xlink:title=" ">
<path fill="none" stroke="#63b8ff" d="M392.97,-274.99C362.88,-264.96 326.04,-252.68 294.67,-242.22"/>
<polygon fill="#63b8ff" stroke="#63b8ff" points="295.72,-238.88 285.13,-239.04 293.51,-245.52 295.72,-238.88"/>
</a>
</g>
</g>
<!-- Node19 -->
<g id="Node000019" class="node">
<title>Node19</title>
<g id="a_Node000019"><a xlink:href="Select_8hpp.html" target="_top" xlink:title=" ">
<polygon fill="white" stroke="#666666" points="466.5,-239 318.5,-239 318.5,-198 466.5,-198 466.5,-239"/>
<text text-anchor="start" x="326.5" y="-227" font-family="Helvetica,sans-Serif" font-size="10.00">packages/compile_time</text>
<text text-anchor="start" x="326.5" y="-216" font-family="Helvetica,sans-Serif" font-size="10.00">/packages/parameter_pack</text>
<text text-anchor="middle" x="392.5" y="-205" font-family="Helvetica,sans-Serif" font-size="10.00">/inc/Select.hpp</text>
</a>
</g>
</g>
<!-- Node13&#45;&gt;Node19 -->
<g id="edge21_Node000013_Node000019" class="edge">
<title>Node13&#45;&gt;Node19</title>
<g id="a_edge21_Node000013_Node000019"><a xlink:title=" ">
<path fill="none" stroke="#63b8ff" d="M436,-274.79C429.36,-266.35 421.49,-256.35 414.28,-247.18"/>
<polygon fill="#63b8ff" stroke="#63b8ff" points="416.83,-244.77 407.9,-239.07 411.33,-249.1 416.83,-244.77"/>
</a>
</g>
</g>
<!-- Node21 -->
<g id="Node000021" class="node">
<title>Node21</title>
<g id="a_Node000021"><a xlink:title=" ">
<polygon fill="#e0e0e0" stroke="#999999" points="538,-228 485,-228 485,-209 538,-209 538,-228"/>
<text text-anchor="middle" x="511.5" y="-216" font-family="Helvetica,sans-Serif" font-size="10.00">iterator</text>
</a>
</g>
</g>
<!-- Node13&#45;&gt;Node21 -->
<g id="edge25_Node000013_Node000021" class="edge">
<title>Node13&#45;&gt;Node21</title>
<g id="a_edge25_Node000013_Node000021"><a xlink:title=" ">
<path fill="none" stroke="#63b8ff" d="M467.26,-274.79C476.89,-262.76 489.07,-247.54 498.21,-236.12"/>
<polygon fill="#63b8ff" stroke="#63b8ff" points="501,-238.23 504.51,-228.24 495.53,-233.86 501,-238.23"/>
</a>
</g>
</g>
<!-- Node22 -->
<g id="Node000022" class="node">
<title>Node22</title>
<g id="a_Node000022"><a xlink:title=" ">
<polygon fill="#e0e0e0" stroke="#999999" points="614.5,-228 556.5,-228 556.5,-209 614.5,-209 614.5,-228"/>
<text text-anchor="middle" x="585.5" y="-216" font-family="Helvetica,sans-Serif" font-size="10.00">memory</text>
</a>
</g>
</g>
<!-- Node13&#45;&gt;Node22 -->
<g id="edge26_Node000013_Node000022" class="edge">
<title>Node13&#45;&gt;Node22</title>
<g id="a_edge26_Node000013_Node000022"><a xlink:title=" ">
<path fill="none" stroke="#63b8ff" d="M486.36,-274.99C509.89,-261.82 540.37,-244.76 561.28,-233.06"/>
<polygon fill="#63b8ff" stroke="#63b8ff" points="563.14,-236.03 570.16,-228.09 559.72,-229.92 563.14,-236.03"/>
</a>
</g>
</g>
<!-- Node14&#45;&gt;Node2 -->
<g id="edge14_Node000014_Node000002" class="edge">
<title>Node14&#45;&gt;Node2</title>
<g id="a_edge14_Node000014_Node000002"><a xlink:title=" ">
<path fill="none" stroke="#63b8ff" d="M632.34,-199.85C629.36,-199.2 626.4,-198.58 623.5,-198 616.25,-196.56 428.29,-170.87 325.76,-156.89"/>
<polygon fill="#63b8ff" stroke="#63b8ff" points="326.2,-153.42 315.81,-155.53 325.25,-160.35 326.2,-153.42"/>
</a>
</g>
</g>
<!-- Node14&#45;&gt;Node8 -->
<g id="edge16_Node000014_Node000008" class="edge">
<title>Node14&#45;&gt;Node8</title>
<g id="a_edge16_Node000014_Node000008"><a xlink:title=" ">
<path fill="none" stroke="#63b8ff" d="M684.29,-197.76C677.47,-187.51 669.67,-174.53 664.5,-162 656.18,-141.84 651.03,-117.26 648.22,-100.71"/>
<polygon fill="#63b8ff" stroke="#63b8ff" points="651.65,-100.02 646.64,-90.68 644.74,-101.11 651.65,-100.02"/>
</a>
</g>
</g>
<!-- Node15 -->
<g id="Node000015" class="node">
<title>Node15</title>
<g id="a_Node000015"><a xlink:title=" ">
<polygon fill="#e0e0e0" stroke="#999999" points="554.5,-156.5 494.5,-156.5 494.5,-137.5 554.5,-137.5 554.5,-156.5"/>
<text text-anchor="middle" x="524.5" y="-144.5" font-family="Helvetica,sans-Serif" font-size="10.00">concepts</text>
</a>
</g>
</g>
<!-- Node14&#45;&gt;Node15 -->
<g id="edge15_Node000014_Node000015" class="edge">
<title>Node14&#45;&gt;Node15</title>
<g id="a_edge15_Node000014_Node000015"><a xlink:title=" ">
<path fill="none" stroke="#63b8ff" d="M649.57,-197.96C619.26,-185.85 581.28,-170.68 555.17,-160.25"/>
<polygon fill="#63b8ff" stroke="#63b8ff" points="556.37,-156.96 545.79,-156.5 553.78,-163.46 556.37,-156.96"/>
</a>
</g>
</g>
<!-- Node16 -->
<g id="Node000016" class="node">
<title>Node16</title>
<g id="a_Node000016"><a xlink:title=" ">
<polygon fill="#e0e0e0" stroke="#999999" points="723.5,-156.5 673.5,-156.5 673.5,-137.5 723.5,-137.5 723.5,-156.5"/>
<text text-anchor="middle" x="698.5" y="-144.5" font-family="Helvetica,sans-Serif" font-size="10.00">cstdint</text>
</a>
</g>
</g>
<!-- Node14&#45;&gt;Node16 -->
<g id="edge17_Node000014_Node000016" class="edge">
<title>Node14&#45;&gt;Node16</title>
<g id="a_edge17_Node000014_Node000016"><a xlink:title=" ">
<path fill="none" stroke="#63b8ff" d="M698.5,-197.77C698.5,-188.08 698.5,-176.46 698.5,-166.88"/>
<polygon fill="#63b8ff" stroke="#63b8ff" points="702,-166.82 698.5,-156.82 695,-166.82 702,-166.82"/>
</a>
</g>
</g>
<!-- Node17 -->
<g id="Node000017" class="node">
<title>Node17</title>
<g id="a_Node000017"><a xlink:title=" ">
<polygon fill="#e0e0e0" stroke="#999999" points="787,-156.5 742,-156.5 742,-137.5 787,-137.5 787,-156.5"/>
<text text-anchor="middle" x="764.5" y="-144.5" font-family="Helvetica,sans-Serif" font-size="10.00">utility</text>
</a>
</g>
</g>
<!-- Node14&#45;&gt;Node17 -->
<g id="edge18_Node000014_Node000017" class="edge">
<title>Node14&#45;&gt;Node17</title>
<g id="a_edge18_Node000014_Node000017"><a xlink:title=" ">
<path fill="none" stroke="#63b8ff" d="M717.24,-197.77C727.34,-187.13 739.65,-174.16 749.18,-164.13"/>
<polygon fill="#63b8ff" stroke="#63b8ff" points="751.78,-166.48 756.12,-156.82 746.7,-161.66 751.78,-166.48"/>
</a>
</g>
</g>
<!-- Node18&#45;&gt;Node2 -->
<g id="edge20_Node000018_Node000002" class="edge">
<title>Node18&#45;&gt;Node2</title>
<g id="a_edge20_Node000018_Node000002"><a xlink:title=" ">
<path fill="none" stroke="#63b8ff" d="M236.15,-197.77C240.2,-189.49 244.94,-179.8 249.16,-171.18"/>
<polygon fill="#63b8ff" stroke="#63b8ff" points="252.38,-172.56 253.63,-162.04 246.09,-169.48 252.38,-172.56"/>
</a>
</g>
</g>
<!-- Node19&#45;&gt;Node2 -->
<g id="edge22_Node000019_Node000002" class="edge">
<title>Node19&#45;&gt;Node2</title>
<g id="a_edge22_Node000019_Node000002"><a xlink:title=" ">
<path fill="none" stroke="#63b8ff" d="M355.38,-197.96C336.85,-188.2 314.55,-176.46 296.22,-166.81"/>
<polygon fill="#63b8ff" stroke="#63b8ff" points="297.78,-163.67 287.3,-162.11 294.52,-169.87 297.78,-163.67"/>
</a>
</g>
</g>
<!-- Node19&#45;&gt;Node15 -->
<g id="edge24_Node000019_Node000015" class="edge">
<title>Node19&#45;&gt;Node15</title>
<g id="a_edge24_Node000019_Node000015"><a xlink:title=" ">
<path fill="none" stroke="#63b8ff" d="M429.62,-197.96C451.9,-186.22 479.65,-171.61 499.37,-161.23"/>
<polygon fill="#63b8ff" stroke="#63b8ff" points="501.13,-164.26 508.35,-156.5 497.87,-158.07 501.13,-164.26"/>
</a>
</g>
</g>
<!-- Node20 -->
<g id="Node000020" class="node">
<title>Node20</title>
<g id="a_Node000020"><a xlink:title=" ">
<polygon fill="#e0e0e0" stroke="#999999" points="413,-156.5 372,-156.5 372,-137.5 413,-137.5 413,-156.5"/>
<text text-anchor="middle" x="392.5" y="-144.5" font-family="Helvetica,sans-Serif" font-size="10.00">tuple</text>
</a>
</g>
</g>
<!-- Node19&#45;&gt;Node20 -->
<g id="edge23_Node000019_Node000020" class="edge">
<title>Node19&#45;&gt;Node20</title>
<g id="a_edge23_Node000019_Node000020"><a xlink:title=" ">
<path fill="none" stroke="#63b8ff" d="M392.5,-197.77C392.5,-188.08 392.5,-176.46 392.5,-166.88"/>
<polygon fill="#63b8ff" stroke="#63b8ff" points="396,-166.82 392.5,-156.82 389,-166.82 396,-166.82"/>
</a>
</g>
</g>
</g>
</svg>
