<?xml version="1.0" encoding="UTF-8" standalone="no"?>
<!DOCTYPE svg PUBLIC "-//W3C//DTD SVG 1.1//EN"
 "http://www.w3.org/Graphics/SVG/1.1/DTD/svg11.dtd">
<!-- Generated by graphviz version 2.43.0 (0)
 -->
<!-- Title: MPI.hpp Pages: 1 -->
<svg width="1788pt" height="500pt"
 viewBox="0.00 0.00 1788.00 500.00" xmlns="http://www.w3.org/2000/svg" xmlns:xlink="http://www.w3.org/1999/xlink">
<g id="graph0" class="graph" transform="scale(1 1) rotate(0) translate(4 496)">
<title>MPI.hpp</title>
<!-- Node1 -->
<g id="Node000001" class="node">
<title>Node1</title>
<g id="a_Node000001"><a xlink:title=" ">
<polygon fill="#999999" stroke="#666666" points="1349.5,-492 1293.5,-492 1293.5,-473 1349.5,-473 1349.5,-492"/>
<text text-anchor="middle" x="1321.5" y="-480" font-family="Helvetica,sans-Serif" font-size="10.00">MPI.hpp</text>
</a>
</g>
</g>
<!-- Node2 -->
<g id="Node000002" class="node">
<title>Node2</title>
<g id="a_Node000002"><a xlink:href="mpi__fwd_8hpp.html" target="_top" xlink:title=" ">
<polygon fill="white" stroke="#666666" points="125,-437 0,-437 0,-407 125,-407 125,-437"/>
<text text-anchor="start" x="8" y="-425" font-family="Helvetica,sans-Serif" font-size="10.00">packages/concurrency</text>
<text text-anchor="middle" x="62.5" y="-414" font-family="Helvetica,sans-Serif" font-size="10.00">/inc/mpi_fwd.hpp</text>
</a>
</g>
</g>
<!-- Node1&#45;&gt;Node2 -->
<g id="edge1_Node000001_Node000002" class="edge">
<title>Node1&#45;&gt;Node2</title>
<g id="a_edge1_Node000001_Node000002"><a xlink:title=" ">
<path fill="none" stroke="#63b8ff" d="M1293.4,-480.99C1137.12,-478.04 373.62,-462.56 139.5,-437 138.02,-436.84 136.53,-436.67 135.03,-436.48"/>
<polygon fill="#63b8ff" stroke="#63b8ff" points="135.38,-433 125.01,-435.13 134.45,-439.94 135.38,-433"/>
</a>
</g>
</g>
<!-- Node3 -->
<g id="Node000003" class="node">
<title>Node3</title>
<g id="a_Node000003"><a xlink:href="Serializer_8hpp.html" target="_top" xlink:title=" ">
<polygon fill="white" stroke="#666666" points="1119,-431.5 958,-431.5 958,-412.5 1119,-412.5 1119,-431.5"/>
<text text-anchor="middle" x="1038.5" y="-419.5" font-family="Helvetica,sans-Serif" font-size="10.00">packages/io/inc/Serializer.hpp</text>
</a>
</g>
</g>
<!-- Node1&#45;&gt;Node3 -->
<g id="edge2_Node000001_Node000003" class="edge">
<title>Node1&#45;&gt;Node3</title>
<g id="a_edge2_Node000001_Node000003"><a xlink:title=" ">
<path fill="none" stroke="#63b8ff" d="M1293.33,-475.68C1245.88,-465.87 1149.38,-445.92 1089.69,-433.58"/>
<polygon fill="#63b8ff" stroke="#63b8ff" points="1090.22,-430.12 1079.72,-431.52 1088.81,-436.97 1090.22,-430.12"/>
</a>
</g>
</g>
<!-- Node5 -->
<g id="Node000005" class="node">
<title>Node5</title>
<g id="a_Node000005"><a xlink:href="types_8hpp.html" target="_top" xlink:title=" ">
<polygon fill="white" stroke="#666666" points="1068.5,-162 958.5,-162 958.5,-132 1068.5,-132 1068.5,-162"/>
<text text-anchor="start" x="966.5" y="-150" font-family="Helvetica,sans-Serif" font-size="10.00">packages/types/inc</text>
<text text-anchor="middle" x="1013.5" y="-139" font-family="Helvetica,sans-Serif" font-size="10.00">/types.hpp</text>
</a>
</g>
</g>
<!-- Node1&#45;&gt;Node5 -->
<g id="edge48_Node000001_Node000005" class="edge">
<title>Node1&#45;&gt;Node5</title>
<g id="a_edge48_Node000001_Node000005"><a xlink:title=" ">
<path fill="none" stroke="#63b8ff" d="M1334.78,-472.8C1368.12,-450.05 1454.93,-384.99 1486.5,-305 1493.19,-288.05 1497.14,-278.79 1486.5,-264 1439.11,-198.15 1196.97,-165.84 1078.69,-153.79"/>
<polygon fill="#63b8ff" stroke="#63b8ff" points="1078.97,-150.3 1068.67,-152.79 1078.27,-157.27 1078.97,-150.3"/>
</a>
</g>
</g>
<!-- Node10 -->
<g id="Node000010" class="node">
<title>Node10</title>
<g id="a_Node000010"><a xlink:title=" ">
<polygon fill="#e0e0e0" stroke="#999999" points="289.5,-90.5 245.5,-90.5 245.5,-71.5 289.5,-71.5 289.5,-90.5"/>
<text text-anchor="middle" x="267.5" y="-78.5" font-family="Helvetica,sans-Serif" font-size="10.00">string</text>
</a>
</g>
</g>
<!-- Node1&#45;&gt;Node10 -->
<g id="edge50_Node000001_Node000010" class="edge">
<title>Node1&#45;&gt;Node10</title>
<g id="a_edge50_Node000001_Node000010"><a xlink:title=" ">
<path fill="none" stroke="#63b8ff" d="M1293.2,-481.38C1154.82,-480.64 548.74,-475.2 364.5,-437 266.3,-416.64 153.5,-457.29 153.5,-357 153.5,-357 153.5,-357 153.5,-212 153.5,-175.46 150.1,-160.88 172.5,-132 188.28,-111.66 214.69,-98.71 235.66,-91.1"/>
<polygon fill="#63b8ff" stroke="#63b8ff" points="236.81,-94.41 245.15,-87.88 234.56,-87.78 236.81,-94.41"/>
</a>
</g>
</g>
<!-- Node27 -->
<g id="Node000027" class="node">
<title>Node27</title>
<g id="a_Node000027"><a xlink:title=" ">
<polygon fill="#e0e0e0" stroke="#999999" points="239.5,-156.5 181.5,-156.5 181.5,-137.5 239.5,-137.5 239.5,-156.5"/>
<text text-anchor="middle" x="210.5" y="-144.5" font-family="Helvetica,sans-Serif" font-size="10.00">memory</text>
</a>
</g>
</g>
<!-- Node1&#45;&gt;Node27 -->
<g id="edge49_Node000001_Node000027" class="edge">
<title>Node1&#45;&gt;Node27</title>
<g id="a_edge49_Node000001_Node000027"><a xlink:title=" ">
<path fill="none" stroke="#63b8ff" d="M1293.33,-481.18C1126.82,-478.92 278.5,-462.26 278.5,-357 278.5,-357 278.5,-357 278.5,-283.5 278.5,-236.38 245.25,-188.9 225.25,-164.61"/>
<polygon fill="#63b8ff" stroke="#63b8ff" points="227.71,-162.1 218.57,-156.75 222.38,-166.64 227.71,-162.1"/>
</a>
</g>
</g>
<!-- Node32 -->
<g id="Node000032" class="node">
<title>Node32</title>
<g id="a_Node000032"><a xlink:href="RankID_8hpp.html" target="_top" xlink:title=" ">
<polygon fill="white" stroke="#666666" points="1384,-371 1259,-371 1259,-341 1384,-341 1384,-371"/>
<text text-anchor="start" x="1267" y="-359" font-family="Helvetica,sans-Serif" font-size="10.00">packages/concurrency</text>
<text text-anchor="middle" x="1321.5" y="-348" font-family="Helvetica,sans-Serif" font-size="10.00">/inc/RankID.hpp</text>
</a>
</g>
</g>
<!-- Node1&#45;&gt;Node32 -->
<g id="edge43_Node000001_Node000032" class="edge">
<title>Node1&#45;&gt;Node32</title>
<g id="a_edge43_Node000001_Node000032"><a xlink:title=" ">
<path fill="none" stroke="#63b8ff" d="M1321.5,-472.94C1321.5,-454.32 1321.5,-409.53 1321.5,-381.39"/>
<polygon fill="#63b8ff" stroke="#63b8ff" points="1325,-381.16 1321.5,-371.16 1318,-381.16 1325,-381.16"/>
</a>
</g>
</g>
<!-- Node34 -->
<g id="Node000034" class="node">
<title>Node34</title>
<g id="a_Node000034"><a xlink:href="MessageTag_8hpp.html" target="_top" xlink:title=" ">
<polygon fill="white" stroke="#666666" points="1562,-437 1437,-437 1437,-407 1562,-407 1562,-437"/>
<text text-anchor="start" x="1445" y="-425" font-family="Helvetica,sans-Serif" font-size="10.00">packages/concurrency</text>
<text text-anchor="middle" x="1499.5" y="-414" font-family="Helvetica,sans-Serif" font-size="10.00">/inc/MessageTag.hpp</text>
</a>
</g>
</g>
<!-- Node1&#45;&gt;Node34 -->
<g id="edge47_Node000001_Node000034" class="edge">
<title>Node1&#45;&gt;Node34</title>
<g id="a_edge47_Node000001_Node000034"><a xlink:title=" ">
<path fill="none" stroke="#63b8ff" d="M1347.38,-472.99C1373.34,-464.46 1414.04,-451.09 1446.81,-440.32"/>
<polygon fill="#63b8ff" stroke="#63b8ff" points="1448.3,-443.51 1456.71,-437.06 1446.11,-436.86 1448.3,-443.51"/>
</a>
</g>
</g>
<!-- Node35 -->
<g id="Node000035" class="node">
<title>Node35</title>
<g id="a_Node000035"><a xlink:title=" ">
<polygon fill="#e0e0e0" stroke="#999999" points="1636.5,-431.5 1580.5,-431.5 1580.5,-412.5 1636.5,-412.5 1636.5,-431.5"/>
<text text-anchor="middle" x="1608.5" y="-419.5" font-family="Helvetica,sans-Serif" font-size="10.00">optional</text>
</a>
</g>
</g>
<!-- Node1&#45;&gt;Node35 -->
<g id="edge51_Node000001_Node000035" class="edge">
<title>Node1&#45;&gt;Node35</title>
<g id="a_edge51_Node000001_Node000035"><a xlink:title=" ">
<path fill="none" stroke="#63b8ff" d="M1349.86,-478.09C1396.46,-472.11 1491.88,-458.33 1570.5,-437 1572.93,-436.34 1575.43,-435.59 1577.93,-434.79"/>
<polygon fill="#63b8ff" stroke="#63b8ff" points="1579.1,-438.09 1587.41,-431.52 1576.82,-431.47 1579.1,-438.09"/>
</a>
</g>
</g>
<!-- Node36 -->
<g id="Node000036" class="node">
<title>Node36</title>
<g id="a_Node000036"><a xlink:title=" ">
<polygon fill="#e0e0e0" stroke="#999999" points="1780,-437 1655,-437 1655,-407 1780,-407 1780,-437"/>
<text text-anchor="start" x="1663" y="-425" font-family="Helvetica,sans-Serif" font-size="10.00">packages/concurrency</text>
<text text-anchor="middle" x="1717.5" y="-414" font-family="Helvetica,sans-Serif" font-size="10.00">/impl/MPI_impl.hpp</text>
</a>
</g>
</g>
<!-- Node1&#45;&gt;Node36 -->
<g id="edge52_Node000001_Node000036" class="edge">
<title>Node1&#45;&gt;Node36</title>
<g id="a_edge52_Node000001_Node000036"><a xlink:title=" ">
<path fill="none" stroke="#63b8ff" d="M1349.75,-478.16C1404.53,-471.56 1529.23,-455.98 1644.64,-437.08"/>
<polygon fill="#63b8ff" stroke="#63b8ff" points="1645.41,-440.5 1654.71,-435.42 1644.27,-433.6 1645.41,-440.5"/>
</a>
</g>
</g>
<!-- Node4 -->
<g id="Node000004" class="node">
<title>Node4</title>
<g id="a_Node000004"><a xlink:href="basic__concepts_8hpp.html" target="_top" xlink:title=" ">
<polygon fill="white" stroke="#666666" points="989.5,-305 857.5,-305 857.5,-264 989.5,-264 989.5,-305"/>
<text text-anchor="start" x="865.5" y="-293" font-family="Helvetica,sans-Serif" font-size="10.00">packages/compile_time</text>
<text text-anchor="start" x="865.5" y="-282" font-family="Helvetica,sans-Serif" font-size="10.00">/packages/concepts/inc</text>
<text text-anchor="middle" x="923.5" y="-271" font-family="Helvetica,sans-Serif" font-size="10.00">/basic_concepts.hpp</text>
</a>
</g>
</g>
<!-- Node3&#45;&gt;Node4 -->
<g id="edge3_Node000003_Node000004" class="edge">
<title>Node3&#45;&gt;Node4</title>
<g id="a_edge3_Node000003_Node000004"><a xlink:title=" ">
<path fill="none" stroke="#63b8ff" d="M1030.95,-412.11C1014.17,-392.33 973.14,-343.99 946.92,-313.09"/>
<polygon fill="#63b8ff" stroke="#63b8ff" points="949.41,-310.62 940.27,-305.26 944.07,-315.15 949.41,-310.62"/>
</a>
</g>
</g>
<!-- Node3&#45;&gt;Node5 -->
<g id="edge26_Node000003_Node000005" class="edge">
<title>Node3&#45;&gt;Node5</title>
<g id="a_edge26_Node000003_Node000005"><a xlink:title=" ">
<path fill="none" stroke="#63b8ff" d="M1037.7,-412.23C1034.3,-375.1 1021.03,-230.18 1015.71,-172.19"/>
<polygon fill="#63b8ff" stroke="#63b8ff" points="1019.19,-171.75 1014.79,-162.11 1012.22,-172.39 1019.19,-171.75"/>
</a>
</g>
</g>
<!-- Node18 -->
<g id="Node000018" class="node">
<title>Node18</title>
<g id="a_Node000018"><a xlink:href="Traits_8hpp.html" target="_top" xlink:title=" ">
<polygon fill="white" stroke="#666666" points="1236.5,-365.5 1094.5,-365.5 1094.5,-346.5 1236.5,-346.5 1236.5,-365.5"/>
<text text-anchor="middle" x="1165.5" y="-353.5" font-family="Helvetica,sans-Serif" font-size="10.00">packages/io/inc/Traits.hpp</text>
</a>
</g>
</g>
<!-- Node3&#45;&gt;Node18 -->
<g id="edge18_Node000003_Node000018" class="edge">
<title>Node3&#45;&gt;Node18</title>
<g id="a_edge18_Node000003_Node000018"><a xlink:title=" ">
<path fill="none" stroke="#63b8ff" d="M1055.63,-412.37C1077.12,-401.54 1114.2,-382.85 1139.27,-370.22"/>
<polygon fill="#63b8ff" stroke="#63b8ff" points="1140.88,-373.32 1148.24,-365.7 1137.73,-367.07 1140.88,-373.32"/>
</a>
</g>
</g>
<!-- Node19 -->
<g id="Node000019" class="node">
<title>Node19</title>
<g id="a_Node000019"><a xlink:href="tags_8hpp.html" target="_top" xlink:title=" ">
<polygon fill="white" stroke="#666666" points="1189.5,-299.5 1079.5,-299.5 1079.5,-269.5 1189.5,-269.5 1189.5,-299.5"/>
<text text-anchor="start" x="1087.5" y="-287.5" font-family="Helvetica,sans-Serif" font-size="10.00">packages/types/inc</text>
<text text-anchor="middle" x="1134.5" y="-276.5" font-family="Helvetica,sans-Serif" font-size="10.00">/tags.hpp</text>
</a>
</g>
</g>
<!-- Node3&#45;&gt;Node19 -->
<g id="edge25_Node000003_Node000019" class="edge">
<title>Node3&#45;&gt;Node19</title>
<g id="a_edge25_Node000003_Node000019"><a xlink:title=" ">
<path fill="none" stroke="#63b8ff" d="M1042.92,-412.26C1050.71,-397.17 1067.73,-365.52 1085.5,-341 1093.95,-329.34 1104.39,-317.25 1113.46,-307.35"/>
<polygon fill="#63b8ff" stroke="#63b8ff" points="1116.12,-309.63 1120.38,-299.92 1111,-304.86 1116.12,-309.63"/>
</a>
</g>
</g>
<!-- Node23 -->
<g id="Node000023" class="node">
<title>Node23</title>
<g id="a_Node000023"><a xlink:href="checks_8hpp.html" target="_top" xlink:title=" ">
<polygon fill="white" stroke="#666666" points="707,-371 588,-371 588,-341 707,-341 707,-371"/>
<text text-anchor="start" x="596" y="-359" font-family="Helvetica,sans-Serif" font-size="10.00">packages/macros/inc</text>
<text text-anchor="middle" x="647.5" y="-348" font-family="Helvetica,sans-Serif" font-size="10.00">/checks.hpp</text>
</a>
</g>
</g>
<!-- Node3&#45;&gt;Node23 -->
<g id="edge27_Node000003_Node000023" class="edge">
<title>Node3&#45;&gt;Node23</title>
<g id="a_edge27_Node000003_Node000023"><a xlink:title=" ">
<path fill="none" stroke="#63b8ff" d="M986.17,-412.44C916.87,-401.09 794.43,-381.05 717.3,-368.42"/>
<polygon fill="#63b8ff" stroke="#63b8ff" points="717.63,-364.93 707.19,-366.77 716.5,-371.84 717.63,-364.93"/>
</a>
</g>
</g>
<!-- Node4&#45;&gt;Node5 -->
<g id="edge4_Node000004_Node000005" class="edge">
<title>Node4&#45;&gt;Node5</title>
<g id="a_edge4_Node000004_Node000005"><a xlink:title=" ">
<path fill="none" stroke="#63b8ff" d="M917.76,-263.68C913.66,-245.32 910.71,-217.93 922.5,-198 930.63,-184.25 944.03,-174.03 958.08,-166.55"/>
<polygon fill="#63b8ff" stroke="#63b8ff" points="959.91,-169.55 967.36,-162.01 956.84,-163.26 959.91,-169.55"/>
</a>
</g>
</g>
<!-- Node11 -->
<g id="Node000011" class="node">
<title>Node11</title>
<g id="a_Node000011"><a xlink:title=" ">
<polygon fill="#e0e0e0" stroke="#999999" points="766,-90.5 697,-90.5 697,-71.5 766,-71.5 766,-90.5"/>
<text text-anchor="middle" x="731.5" y="-78.5" font-family="Helvetica,sans-Serif" font-size="10.00">type_traits</text>
</a>
</g>
</g>
<!-- Node4&#45;&gt;Node11 -->
<g id="edge15_Node000004_Node000011" class="edge">
<title>Node4&#45;&gt;Node11</title>
<g id="a_edge15_Node000004_Node000011"><a xlink:title=" ">
<path fill="none" stroke="#63b8ff" d="M874.95,-263.92C856.47,-254.88 836.12,-242.81 820.5,-228 780.4,-189.98 751.56,-130.06 738.81,-100.19"/>
<polygon fill="#63b8ff" stroke="#63b8ff" points="741.91,-98.54 734.85,-90.64 735.45,-101.22 741.91,-98.54"/>
</a>
</g>
</g>
<!-- Node15 -->
<g id="Node000015" class="node">
<title>Node15</title>
<g id="a_Node000015"><a xlink:title=" ">
<polygon fill="#e0e0e0" stroke="#999999" points="773.5,-222.5 713.5,-222.5 713.5,-203.5 773.5,-203.5 773.5,-222.5"/>
<text text-anchor="middle" x="743.5" y="-210.5" font-family="Helvetica,sans-Serif" font-size="10.00">concepts</text>
</a>
</g>
</g>
<!-- Node4&#45;&gt;Node15 -->
<g id="edge14_Node000004_Node000015" class="edge">
<title>Node4&#45;&gt;Node15</title>
<g id="a_edge14_Node000004_Node000015"><a xlink:title=" ">
<path fill="none" stroke="#63b8ff" d="M872.88,-263.96C841.39,-251.8 801.9,-236.55 774.88,-226.11"/>
<polygon fill="#63b8ff" stroke="#63b8ff" points="776.11,-222.84 765.52,-222.5 773.59,-229.37 776.11,-222.84"/>
</a>
</g>
</g>
<!-- Node16 -->
<g id="Node000016" class="node">
<title>Node16</title>
<g id="a_Node000016"><a xlink:title=" ">
<polygon fill="#e0e0e0" stroke="#999999" points="981.5,-222.5 931.5,-222.5 931.5,-203.5 981.5,-203.5 981.5,-222.5"/>
<text text-anchor="middle" x="956.5" y="-210.5" font-family="Helvetica,sans-Serif" font-size="10.00">cstdint</text>
</a>
</g>
</g>
<!-- Node4&#45;&gt;Node16 -->
<g id="edge16_Node000004_Node000016" class="edge">
<title>Node4&#45;&gt;Node16</title>
<g id="a_edge16_Node000004_Node000016"><a xlink:title=" ">
<path fill="none" stroke="#63b8ff" d="M932.87,-263.77C937.62,-253.76 943.35,-241.7 947.98,-231.95"/>
<polygon fill="#63b8ff" stroke="#63b8ff" points="951.18,-233.35 952.31,-222.82 944.86,-230.35 951.18,-233.35"/>
</a>
</g>
</g>
<!-- Node17 -->
<g id="Node000017" class="node">
<title>Node17</title>
<g id="a_Node000017"><a xlink:title=" ">
<polygon fill="#e0e0e0" stroke="#999999" points="875,-222.5 830,-222.5 830,-203.5 875,-203.5 875,-222.5"/>
<text text-anchor="middle" x="852.5" y="-210.5" font-family="Helvetica,sans-Serif" font-size="10.00">utility</text>
</a>
</g>
</g>
<!-- Node4&#45;&gt;Node17 -->
<g id="edge17_Node000004_Node000017" class="edge">
<title>Node4&#45;&gt;Node17</title>
<g id="a_edge17_Node000004_Node000017"><a xlink:title=" ">
<path fill="none" stroke="#63b8ff" d="M903.34,-263.77C892.37,-253.02 878.97,-239.91 868.68,-229.84"/>
<polygon fill="#63b8ff" stroke="#63b8ff" points="871.1,-227.31 861.51,-222.82 866.21,-232.32 871.1,-227.31"/>
</a>
</g>
</g>
<!-- Node6 -->
<g id="Node000006" class="node">
<title>Node6</title>
<g id="a_Node000006"><a xlink:href="debug_8hpp.html" target="_top" xlink:title=" ">
<polygon fill="white" stroke="#666666" points="903,-96 784,-96 784,-66 903,-66 903,-96"/>
<text text-anchor="start" x="792" y="-84" font-family="Helvetica,sans-Serif" font-size="10.00">packages/macros/inc</text>
<text text-anchor="middle" x="843.5" y="-73" font-family="Helvetica,sans-Serif" font-size="10.00">/debug.hpp</text>
</a>
</g>
</g>
<!-- Node5&#45;&gt;Node6 -->
<g id="edge5_Node000005_Node000006" class="edge">
<title>Node5&#45;&gt;Node6</title>
<g id="a_edge5_Node000005_Node000006"><a xlink:title=" ">
<path fill="none" stroke="#63b8ff" d="M976.19,-131.95C950.95,-122.45 917.41,-109.82 890.36,-99.64"/>
<polygon fill="#63b8ff" stroke="#63b8ff" points="891.31,-96.26 880.72,-96.01 888.85,-102.81 891.31,-96.26"/>
</a>
</g>
</g>
<!-- Node9 -->
<g id="Node000009" class="node">
<title>Node9</title>
<g id="a_Node000009"><a xlink:title=" ">
<polygon fill="#e0e0e0" stroke="#999999" points="974,-90.5 921,-90.5 921,-71.5 974,-71.5 974,-90.5"/>
<text text-anchor="middle" x="947.5" y="-78.5" font-family="Helvetica,sans-Serif" font-size="10.00">cstddef</text>
</a>
</g>
</g>
<!-- Node5&#45;&gt;Node9 -->
<g id="edge8_Node000005_Node000009" class="edge">
<title>Node5&#45;&gt;Node9</title>
<g id="a_edge8_Node000005_Node000009"><a xlink:title=" ">
<path fill="none" stroke="#63b8ff" d="M998.85,-131.8C988.56,-121.82 974.78,-108.46 964.09,-98.09"/>
<polygon fill="#63b8ff" stroke="#63b8ff" points="966.24,-95.29 956.62,-90.84 961.36,-100.32 966.24,-95.29"/>
</a>
</g>
</g>
<!-- Node5&#45;&gt;Node10 -->
<g id="edge9_Node000005_Node000010" class="edge">
<title>Node5&#45;&gt;Node10</title>
<g id="a_edge9_Node000005_Node000010"><a xlink:title=" ">
<path fill="none" stroke="#63b8ff" d="M958.34,-141.27C811.74,-128.69 415.71,-94.71 299.79,-84.77"/>
<polygon fill="#63b8ff" stroke="#63b8ff" points="300.03,-81.28 289.77,-83.91 299.43,-88.25 300.03,-81.28"/>
</a>
</g>
</g>
<!-- Node5&#45;&gt;Node11 -->
<g id="edge10_Node000005_Node000011" class="edge">
<title>Node5&#45;&gt;Node11</title>
<g id="a_edge10_Node000005_Node000011"><a xlink:title=" ">
<path fill="none" stroke="#63b8ff" d="M958.04,-136.17C909.34,-127.11 836.76,-112.6 774.5,-96 771.73,-95.26 768.87,-94.45 766.01,-93.6"/>
<polygon fill="#63b8ff" stroke="#63b8ff" points="766.96,-90.23 756.37,-90.61 764.89,-96.91 766.96,-90.23"/>
</a>
</g>
</g>
<!-- Node12 -->
<g id="Node000012" class="node">
<title>Node12</title>
<g id="a_Node000012"><a xlink:title=" ">
<polygon fill="#e0e0e0" stroke="#999999" points="1042.5,-90.5 992.5,-90.5 992.5,-71.5 1042.5,-71.5 1042.5,-90.5"/>
<text text-anchor="middle" x="1017.5" y="-78.5" font-family="Helvetica,sans-Serif" font-size="10.00">climits</text>
</a>
</g>
</g>
<!-- Node5&#45;&gt;Node12 -->
<g id="edge11_Node000005_Node000012" class="edge">
<title>Node5&#45;&gt;Node12</title>
<g id="a_edge11_Node000005_Node000012"><a xlink:title=" ">
<path fill="none" stroke="#63b8ff" d="M1014.39,-131.8C1014.96,-122.7 1015.7,-110.79 1016.32,-100.9"/>
<polygon fill="#63b8ff" stroke="#63b8ff" points="1019.82,-101.04 1016.95,-90.84 1012.83,-100.61 1019.82,-101.04"/>
</a>
</g>
</g>
<!-- Node13 -->
<g id="Node000013" class="node">
<title>Node13</title>
<g id="a_Node000013"><a xlink:title=" ">
<polygon fill="#e0e0e0" stroke="#999999" points="1178,-96 1061,-96 1061,-66 1178,-66 1178,-96"/>
<text text-anchor="start" x="1069" y="-84" font-family="Helvetica,sans-Serif" font-size="10.00">packages/types/impl</text>
<text text-anchor="middle" x="1119.5" y="-73" font-family="Helvetica,sans-Serif" font-size="10.00">/types_impl.hpp</text>
</a>
</g>
</g>
<!-- Node5&#45;&gt;Node13 -->
<g id="edge12_Node000005_Node000013" class="edge">
<title>Node5&#45;&gt;Node13</title>
<g id="a_edge12_Node000005_Node000013"><a xlink:title=" ">
<path fill="none" stroke="#63b8ff" d="M1036.76,-131.95C1051.67,-122.95 1071.23,-111.14 1087.59,-101.27"/>
<polygon fill="#63b8ff" stroke="#63b8ff" points="1089.54,-104.18 1096.29,-96.01 1085.92,-98.18 1089.54,-104.18"/>
</a>
</g>
</g>
<!-- Node14 -->
<g id="Node000014" class="node">
<title>Node14</title>
<g id="a_Node000014"><a xlink:href="logging_8hpp.html" target="_top" xlink:title=" ">
<polygon fill="white" stroke="#666666" points="1315,-96 1196,-96 1196,-66 1315,-66 1315,-96"/>
<text text-anchor="start" x="1204" y="-84" font-family="Helvetica,sans-Serif" font-size="10.00">packages/macros/inc</text>
<text text-anchor="middle" x="1255.5" y="-73" font-family="Helvetica,sans-Serif" font-size="10.00">/logging.hpp</text>
</a>
</g>
</g>
<!-- Node5&#45;&gt;Node14 -->
<g id="edge13_Node000005_Node000014" class="edge">
<title>Node5&#45;&gt;Node14</title>
<g id="a_edge13_Node000005_Node000014"><a xlink:title=" ">
<path fill="none" stroke="#63b8ff" d="M1066.61,-131.95C1103.8,-122.12 1153.66,-108.93 1192.81,-98.58"/>
<polygon fill="#63b8ff" stroke="#63b8ff" points="1193.74,-101.95 1202.52,-96.01 1191.95,-95.19 1193.74,-101.95"/>
</a>
</g>
</g>
<!-- Node7 -->
<g id="Node000007" class="node">
<title>Node7</title>
<g id="a_Node000007"><a xlink:href="detail_8hpp.html" target="_top" xlink:title=" ">
<polygon fill="white" stroke="#666666" points="717,-30 598,-30 598,0 717,0 717,-30"/>
<text text-anchor="start" x="606" y="-18" font-family="Helvetica,sans-Serif" font-size="10.00">packages/macros/inc</text>
<text text-anchor="middle" x="657.5" y="-7" font-family="Helvetica,sans-Serif" font-size="10.00">/detail.hpp</text>
</a>
</g>
</g>
<!-- Node6&#45;&gt;Node7 -->
<g id="edge6_Node000006_Node000007" class="edge">
<title>Node6&#45;&gt;Node7</title>
<g id="a_edge6_Node000006_Node000007"><a xlink:title=" ">
<path fill="none" stroke="#63b8ff" d="M802.68,-65.95C774.82,-56.37 737.72,-43.6 708,-33.37"/>
<polygon fill="#63b8ff" stroke="#63b8ff" points="708.82,-29.96 698.22,-30.01 706.54,-36.58 708.82,-29.96"/>
</a>
</g>
</g>
<!-- Node8 -->
<g id="Node000008" class="node">
<title>Node8</title>
<g id="a_Node000008"><a xlink:title=" ">
<polygon fill="#e0e0e0" stroke="#999999" points="873.5,-24.5 813.5,-24.5 813.5,-5.5 873.5,-5.5 873.5,-24.5"/>
<text text-anchor="middle" x="843.5" y="-12.5" font-family="Helvetica,sans-Serif" font-size="10.00">iostream</text>
</a>
</g>
</g>
<!-- Node6&#45;&gt;Node8 -->
<g id="edge7_Node000006_Node000008" class="edge">
<title>Node6&#45;&gt;Node8</title>
<g id="a_edge7_Node000006_Node000008"><a xlink:title=" ">
<path fill="none" stroke="#63b8ff" d="M843.5,-65.8C843.5,-56.7 843.5,-44.79 843.5,-34.9"/>
<polygon fill="#63b8ff" stroke="#63b8ff" points="847,-34.84 843.5,-24.84 840,-34.84 847,-34.84"/>
</a>
</g>
</g>
<!-- Node18&#45;&gt;Node5 -->
<g id="edge19_Node000018_Node000005" class="edge">
<title>Node18&#45;&gt;Node5</title>
<g id="a_edge19_Node000018_Node000005"><a xlink:title=" ">
<path fill="none" stroke="#63b8ff" d="M1172.51,-346.17C1195.38,-316.92 1265.1,-223.53 1244.5,-198 1224.01,-172.6 1139.82,-159.46 1078.98,-153.15"/>
<polygon fill="#63b8ff" stroke="#63b8ff" points="1078.98,-149.64 1068.68,-152.13 1078.28,-156.6 1078.98,-149.64"/>
</a>
</g>
</g>
<!-- Node18&#45;&gt;Node19 -->
<g id="edge20_Node000018_Node000019" class="edge">
<title>Node18&#45;&gt;Node19</title>
<g id="a_edge20_Node000018_Node000019"><a xlink:title=" ">
<path fill="none" stroke="#63b8ff" d="M1161.7,-346.48C1157.55,-337.18 1150.73,-321.88 1144.96,-308.94"/>
<polygon fill="#63b8ff" stroke="#63b8ff" points="1148.08,-307.34 1140.81,-299.64 1141.68,-310.2 1148.08,-307.34"/>
</a>
</g>
</g>
<!-- Node22 -->
<g id="Node000022" class="node">
<title>Node22</title>
<g id="a_Node000022"><a xlink:title=" ">
<polygon fill="#e0e0e0" stroke="#999999" points="1293.5,-294 1245.5,-294 1245.5,-275 1293.5,-275 1293.5,-294"/>
<text text-anchor="middle" x="1269.5" y="-282" font-family="Helvetica,sans-Serif" font-size="10.00">iosfwd</text>
</a>
</g>
</g>
<!-- Node18&#45;&gt;Node22 -->
<g id="edge24_Node000018_Node000022" class="edge">
<title>Node18&#45;&gt;Node22</title>
<g id="a_edge24_Node000018_Node000022"><a xlink:title=" ">
<path fill="none" stroke="#63b8ff" d="M1178.25,-346.48C1195.64,-334.86 1227.02,-313.89 1248.06,-299.83"/>
<polygon fill="#63b8ff" stroke="#63b8ff" points="1250.27,-302.56 1256.64,-294.09 1246.38,-296.74 1250.27,-302.56"/>
</a>
</g>
</g>
<!-- Node19&#45;&gt;Node5 -->
<g id="edge21_Node000019_Node000005" class="edge">
<title>Node19&#45;&gt;Node5</title>
<g id="a_edge21_Node000019_Node000005"><a xlink:title=" ">
<path fill="none" stroke="#63b8ff" d="M1169.58,-269.46C1204.17,-253.57 1248.85,-226.2 1226.5,-198 1208.26,-174.98 1134.35,-161.53 1078.67,-154.48"/>
<polygon fill="#63b8ff" stroke="#63b8ff" points="1078.85,-150.98 1068.5,-153.24 1078,-157.93 1078.85,-150.98"/>
</a>
</g>
</g>
<!-- Node20 -->
<g id="Node000020" class="node">
<title>Node20</title>
<g id="a_Node000020"><a xlink:title=" ">
<polygon fill="#e0e0e0" stroke="#999999" points="1217.5,-222.5 1173.5,-222.5 1173.5,-203.5 1217.5,-203.5 1217.5,-222.5"/>
<text text-anchor="middle" x="1195.5" y="-210.5" font-family="Helvetica,sans-Serif" font-size="10.00">bitset</text>
</a>
</g>
</g>
<!-- Node19&#45;&gt;Node20 -->
<g id="edge22_Node000019_Node000020" class="edge">
<title>Node19&#45;&gt;Node20</title>
<g id="a_edge22_Node000019_Node000020"><a xlink:title=" ">
<path fill="none" stroke="#63b8ff" d="M1146.84,-269.44C1156.71,-258.2 1170.55,-242.43 1180.95,-230.58"/>
<polygon fill="#63b8ff" stroke="#63b8ff" points="1183.84,-232.59 1187.81,-222.77 1178.58,-227.97 1183.84,-232.59"/>
</a>
</g>
</g>
<!-- Node21 -->
<g id="Node000021" class="node">
<title>Node21</title>
<g id="a_Node000021"><a xlink:title=" ">
<polygon fill="#e0e0e0" stroke="#999999" points="1155,-228 1038,-228 1038,-198 1155,-198 1155,-228"/>
<text text-anchor="start" x="1046" y="-216" font-family="Helvetica,sans-Serif" font-size="10.00">packages/types/impl</text>
<text text-anchor="middle" x="1096.5" y="-205" font-family="Helvetica,sans-Serif" font-size="10.00">/tags_impl.hpp</text>
</a>
</g>
</g>
<!-- Node19&#45;&gt;Node21 -->
<g id="edge23_Node000019_Node000021" class="edge">
<title>Node19&#45;&gt;Node21</title>
<g id="a_edge23_Node000019_Node000021"><a xlink:title=" ">
<path fill="none" stroke="#63b8ff" d="M1126.81,-269.44C1121.71,-260.11 1114.9,-247.66 1109.03,-236.92"/>
<polygon fill="#63b8ff" stroke="#63b8ff" points="1112.05,-235.14 1104.18,-228.04 1105.9,-238.5 1112.05,-235.14"/>
</a>
</g>
</g>
<!-- Node23&#45;&gt;Node7 -->
<g id="edge40_Node000023_Node000007" class="edge">
<title>Node23&#45;&gt;Node7</title>
<g id="a_edge40_Node000023_Node000007"><a xlink:title=" ">
<path fill="none" stroke="#63b8ff" d="M587.87,-342.72C567.4,-335.34 546.61,-323.61 534.5,-305 524.56,-289.73 529.4,-281.49 534.5,-264 549.55,-212.39 575.02,-209.86 599.5,-162 620.74,-120.48 639.48,-69.28 649.59,-39.87"/>
<polygon fill="#63b8ff" stroke="#63b8ff" points="653.01,-40.67 652.91,-30.07 646.38,-38.42 653.01,-40.67"/>
</a>
</g>
</g>
<!-- Node24 -->
<g id="Node000024" class="node">
<title>Node24</title>
<g id="a_Node000024"><a xlink:href="exception_8hpp.html" target="_top" xlink:title=" ">
<polygon fill="white" stroke="#666666" points="501,-228 382,-228 382,-198 501,-198 501,-228"/>
<text text-anchor="start" x="390" y="-216" font-family="Helvetica,sans-Serif" font-size="10.00">packages/exceptions</text>
<text text-anchor="middle" x="441.5" y="-205" font-family="Helvetica,sans-Serif" font-size="10.00">/inc/exception.hpp</text>
</a>
</g>
</g>
<!-- Node23&#45;&gt;Node24 -->
<g id="edge28_Node000023_Node000024" class="edge">
<title>Node23&#45;&gt;Node24</title>
<g id="a_edge28_Node000023_Node000024"><a xlink:title=" ">
<path fill="none" stroke="#63b8ff" d="M587.75,-343.95C559.47,-336.49 526.5,-324.36 501.5,-305 478.48,-287.18 461.46,-257.92 451.54,-237.4"/>
<polygon fill="#63b8ff" stroke="#63b8ff" points="454.63,-235.72 447.25,-228.12 448.27,-238.66 454.63,-235.72"/>
</a>
</g>
</g>
<!-- Node29 -->
<g id="Node000029" class="node">
<title>Node29</title>
<g id="a_Node000029"><a xlink:href="exceptions_8hpp.html" target="_top" xlink:title=" ">
<polygon fill="white" stroke="#666666" points="663,-299.5 544,-299.5 544,-269.5 663,-269.5 663,-299.5"/>
<text text-anchor="start" x="552" y="-287.5" font-family="Helvetica,sans-Serif" font-size="10.00">packages/macros/inc</text>
<text text-anchor="middle" x="603.5" y="-276.5" font-family="Helvetica,sans-Serif" font-size="10.00">/exceptions.hpp</text>
</a>
</g>
</g>
<!-- Node23&#45;&gt;Node29 -->
<g id="edge35_Node000023_Node000029" class="edge">
<title>Node23&#45;&gt;Node29</title>
<g id="a_edge35_Node000023_Node000029"><a xlink:title=" ">
<path fill="none" stroke="#63b8ff" d="M638.6,-340.94C632.63,-331.52 624.65,-318.91 617.8,-308.09"/>
<polygon fill="#63b8ff" stroke="#63b8ff" points="620.7,-306.12 612.39,-299.54 614.78,-309.86 620.7,-306.12"/>
</a>
</g>
</g>
<!-- Node30 -->
<g id="Node000030" class="node">
<title>Node30</title>
<g id="a_Node000030"><a xlink:title=" ">
<polygon fill="#e0e0e0" stroke="#999999" points="695.5,-222.5 639.5,-222.5 639.5,-203.5 695.5,-203.5 695.5,-222.5"/>
<text text-anchor="middle" x="667.5" y="-210.5" font-family="Helvetica,sans-Serif" font-size="10.00">sstream</text>
</a>
</g>
</g>
<!-- Node23&#45;&gt;Node30 -->
<g id="edge42_Node000023_Node000030" class="edge">
<title>Node23&#45;&gt;Node30</title>
<g id="a_edge42_Node000023_Node000030"><a xlink:title=" ">
<path fill="none" stroke="#63b8ff" d="M656.46,-340.76C662,-331.08 668.59,-317.77 671.5,-305 677.08,-280.48 674.19,-251.32 671.19,-232.73"/>
<polygon fill="#63b8ff" stroke="#63b8ff" points="674.6,-231.89 669.39,-222.67 667.71,-233.13 674.6,-231.89"/>
</a>
</g>
</g>
<!-- Node31 -->
<g id="Node000031" class="node">
<title>Node31</title>
<g id="a_Node000031"><a xlink:title=" ">
<polygon fill="#e0e0e0" stroke="#999999" points="839.5,-294 719.5,-294 719.5,-275 839.5,-275 839.5,-294"/>
<text text-anchor="middle" x="779.5" y="-282" font-family="Helvetica,sans-Serif" font-size="10.00">cmake_variables.hpp</text>
</a>
</g>
</g>
<!-- Node23&#45;&gt;Node31 -->
<g id="edge41_Node000023_Node000031" class="edge">
<title>Node23&#45;&gt;Node31</title>
<g id="a_edge41_Node000023_Node000031"><a xlink:title=" ">
<path fill="none" stroke="#63b8ff" d="M674.21,-340.94C697.55,-328.65 731.18,-310.94 754.12,-298.87"/>
<polygon fill="#63b8ff" stroke="#63b8ff" points="756.01,-301.82 763.23,-294.07 752.75,-295.63 756.01,-301.82"/>
</a>
</g>
</g>
<!-- Node24&#45;&gt;Node5 -->
<g id="edge29_Node000024_Node000005" class="edge">
<title>Node24&#45;&gt;Node5</title>
<g id="a_edge29_Node000024_Node000005"><a xlink:title=" ">
<path fill="none" stroke="#63b8ff" d="M501.1,-205.33C609.03,-193.25 836.07,-167.85 948.11,-155.32"/>
<polygon fill="#63b8ff" stroke="#63b8ff" points="948.71,-158.77 958.26,-154.18 947.94,-151.81 948.71,-158.77"/>
</a>
</g>
</g>
<!-- Node24&#45;&gt;Node10 -->
<g id="edge31_Node000024_Node000010" class="edge">
<title>Node24&#45;&gt;Node10</title>
<g id="a_edge31_Node000024_Node000010"><a xlink:title=" ">
<path fill="none" stroke="#63b8ff" d="M381.66,-206.8C349.21,-200.88 310.87,-188.37 286.5,-162 271.17,-145.41 267.53,-118.76 266.99,-100.83"/>
<polygon fill="#63b8ff" stroke="#63b8ff" points="270.49,-100.72 266.98,-90.73 263.49,-100.73 270.49,-100.72"/>
</a>
</g>
</g>
<!-- Node25 -->
<g id="Node000025" class="node">
<title>Node25</title>
<g id="a_Node000025"><a xlink:title=" ">
<polygon fill="#e0e0e0" stroke="#999999" points="591,-156.5 526,-156.5 526,-137.5 591,-137.5 591,-156.5"/>
<text text-anchor="middle" x="558.5" y="-144.5" font-family="Helvetica,sans-Serif" font-size="10.00">stdexcept</text>
</a>
</g>
</g>
<!-- Node24&#45;&gt;Node25 -->
<g id="edge30_Node000024_Node000025" class="edge">
<title>Node24&#45;&gt;Node25</title>
<g id="a_edge30_Node000024_Node000025"><a xlink:title=" ">
<path fill="none" stroke="#63b8ff" d="M467.18,-197.95C487.06,-187.08 514.43,-172.11 534.01,-161.4"/>
<polygon fill="#63b8ff" stroke="#63b8ff" points="535.84,-164.39 542.93,-156.52 532.48,-158.25 535.84,-164.39"/>
</a>
</g>
</g>
<!-- Node26 -->
<g id="Node000026" class="node">
<title>Node26</title>
<g id="a_Node000026"><a xlink:title=" ">
<polygon fill="#e0e0e0" stroke="#999999" points="343,-156.5 296,-156.5 296,-137.5 343,-137.5 343,-156.5"/>
<text text-anchor="middle" x="319.5" y="-144.5" font-family="Helvetica,sans-Serif" font-size="10.00">deque</text>
</a>
</g>
</g>
<!-- Node24&#45;&gt;Node26 -->
<g id="edge32_Node000024_Node000026" class="edge">
<title>Node24&#45;&gt;Node26</title>
<g id="a_edge32_Node000024_Node000026"><a xlink:title=" ">
<path fill="none" stroke="#63b8ff" d="M414.73,-197.95C393.9,-187.03 365.19,-171.97 344.76,-161.25"/>
<polygon fill="#63b8ff" stroke="#63b8ff" points="346.22,-158.06 335.74,-156.52 342.97,-164.26 346.22,-158.06"/>
</a>
</g>
</g>
<!-- Node24&#45;&gt;Node27 -->
<g id="edge33_Node000024_Node000027" class="edge">
<title>Node24&#45;&gt;Node27</title>
<g id="a_edge33_Node000024_Node000027"><a xlink:title=" ">
<path fill="none" stroke="#63b8ff" d="M385.34,-197.92C347.85,-188.32 297.55,-175.02 253.5,-162 250.91,-161.23 248.23,-160.42 245.55,-159.59"/>
<polygon fill="#63b8ff" stroke="#63b8ff" points="246.48,-156.21 235.89,-156.52 244.37,-162.88 246.48,-156.21"/>
</a>
</g>
</g>
<!-- Node28 -->
<g id="Node000028" class="node">
<title>Node28</title>
<g id="a_Node000028"><a xlink:title=" ">
<polygon fill="#e0e0e0" stroke="#999999" points="507.5,-162 361.5,-162 361.5,-132 507.5,-132 507.5,-162"/>
<text text-anchor="start" x="369.5" y="-150" font-family="Helvetica,sans-Serif" font-size="10.00">packages/exceptions</text>
<text text-anchor="middle" x="434.5" y="-139" font-family="Helvetica,sans-Serif" font-size="10.00">/impl/exceptions_impl.hpp</text>
</a>
</g>
</g>
<!-- Node24&#45;&gt;Node28 -->
<g id="edge34_Node000024_Node000028" class="edge">
<title>Node24&#45;&gt;Node28</title>
<g id="a_edge34_Node000024_Node000028"><a xlink:title=" ">
<path fill="none" stroke="#63b8ff" d="M439.95,-197.8C439.12,-190.26 438.09,-180.78 437.14,-172.13"/>
<polygon fill="#63b8ff" stroke="#63b8ff" points="440.62,-171.72 436.05,-162.16 433.66,-172.49 440.62,-171.72"/>
</a>
</g>
</g>
<!-- Node29&#45;&gt;Node7 -->
<g id="edge37_Node000029_Node000007" class="edge">
<title>Node29&#45;&gt;Node7</title>
<g id="a_edge37_Node000029_Node000007"><a xlink:title=" ">
<path fill="none" stroke="#63b8ff" d="M607.38,-269.37C613.48,-246.8 625.46,-201.16 633.5,-162 642.25,-119.38 649.93,-69.25 654.12,-40.2"/>
<polygon fill="#63b8ff" stroke="#63b8ff" points="657.61,-40.56 655.55,-30.16 650.68,-39.57 657.61,-40.56"/>
</a>
</g>
</g>
<!-- Node29&#45;&gt;Node15 -->
<g id="edge39_Node000029_Node000015" class="edge">
<title>Node29&#45;&gt;Node15</title>
<g id="a_edge39_Node000029_Node000015"><a xlink:title=" ">
<path fill="none" stroke="#63b8ff" d="M631.83,-269.44C656.8,-257.04 692.89,-239.12 717.23,-227.04"/>
<polygon fill="#63b8ff" stroke="#63b8ff" points="718.84,-230.15 726.24,-222.57 715.73,-223.88 718.84,-230.15"/>
</a>
</g>
</g>
<!-- Node29&#45;&gt;Node24 -->
<g id="edge36_Node000029_Node000024" class="edge">
<title>Node29&#45;&gt;Node24</title>
<g id="a_edge36_Node000029_Node000024"><a xlink:title=" ">
<path fill="none" stroke="#63b8ff" d="M570.72,-269.44C545.57,-258.65 510.69,-243.68 483.5,-232.02"/>
<polygon fill="#63b8ff" stroke="#63b8ff" points="484.8,-228.77 474.23,-228.04 482.04,-235.2 484.8,-228.77"/>
</a>
</g>
</g>
<!-- Node29&#45;&gt;Node30 -->
<g id="edge38_Node000029_Node000030" class="edge">
<title>Node29&#45;&gt;Node30</title>
<g id="a_edge38_Node000029_Node000030"><a xlink:title=" ">
<path fill="none" stroke="#63b8ff" d="M616.45,-269.44C626.9,-258.09 641.6,-242.12 652.55,-230.24"/>
<polygon fill="#63b8ff" stroke="#63b8ff" points="655.23,-232.49 659.43,-222.77 650.08,-227.75 655.23,-232.49"/>
</a>
</g>
</g>
<!-- Node32&#45;&gt;Node5 -->
<g id="edge44_Node000032_Node000005" class="edge">
<title>Node32&#45;&gt;Node5</title>
<g id="a_edge44_Node000032_Node000005"><a xlink:title=" ">
<path fill="none" stroke="#63b8ff" d="M1320.97,-340.98C1318.92,-309.09 1308.95,-231.28 1260.5,-198 1231.55,-178.11 1141.75,-163.5 1078.82,-155.37"/>
<polygon fill="#63b8ff" stroke="#63b8ff" points="1078.94,-151.86 1068.57,-154.08 1078.06,-158.81 1078.94,-151.86"/>
</a>
</g>
</g>
<!-- Node32&#45;&gt;Node22 -->
<g id="edge45_Node000032_Node000022" class="edge">
<title>Node32&#45;&gt;Node22</title>
<g id="a_edge45_Node000032_Node000022"><a xlink:title=" ">
<path fill="none" stroke="#63b8ff" d="M1310.98,-340.94C1302.65,-329.81 1291,-314.24 1282.17,-302.43"/>
<polygon fill="#63b8ff" stroke="#63b8ff" points="1284.85,-300.18 1276.06,-294.27 1279.25,-304.37 1284.85,-300.18"/>
</a>
</g>
</g>
<!-- Node33 -->
<g id="Node000033" class="node">
<title>Node33</title>
<g id="a_Node000033"><a xlink:title=" ">
<polygon fill="#e0e0e0" stroke="#999999" points="1477.5,-299.5 1349.5,-299.5 1349.5,-269.5 1477.5,-269.5 1477.5,-299.5"/>
<text text-anchor="start" x="1357.5" y="-287.5" font-family="Helvetica,sans-Serif" font-size="10.00">packages/concurrency</text>
<text text-anchor="middle" x="1413.5" y="-276.5" font-family="Helvetica,sans-Serif" font-size="10.00">/impl/RankID_impl.hpp</text>
</a>
</g>
</g>
<!-- Node32&#45;&gt;Node33 -->
<g id="edge46_Node000032_Node000033" class="edge">
<title>Node32&#45;&gt;Node33</title>
<g id="a_edge46_Node000032_Node000033"><a xlink:title=" ">
<path fill="none" stroke="#63b8ff" d="M1340.12,-340.94C1353.46,-330.86 1371.64,-317.13 1386.56,-305.85"/>
<polygon fill="#63b8ff" stroke="#63b8ff" points="1389.04,-308.36 1394.91,-299.54 1384.82,-302.78 1389.04,-308.36"/>
</a>
</g>
</g>
</g>
</svg>
