<?xml version="1.0" encoding="UTF-8" standalone="no"?>
<!DOCTYPE svg PUBLIC "-//W3C//DTD SVG 1.1//EN"
 "http://www.w3.org/Graphics/SVG/1.1/DTD/svg11.dtd">
<!-- Generated by graphviz version 2.43.0 (0)
 -->
<!-- Title: mpi_fwd.hpp Pages: 1 -->
<svg width="518pt" height="140pt"
 viewBox="0.00 0.00 517.50 140.00" xmlns="http://www.w3.org/2000/svg" xmlns:xlink="http://www.w3.org/1999/xlink">
<g id="graph0" class="graph" transform="scale(1 1) rotate(0) translate(4 136)">
<title>mpi_fwd.hpp</title>
<polygon fill="white" stroke="transparent" points="-4,4 -4,-136 513.5,-136 513.5,4 -4,4"/>
<!-- Node1 -->
<g id="node1" class="node">
<title>Node1</title>
<g id="a_node1"><a xlink:title=" ">
<polygon fill="#bfbfbf" stroke="black" points="247.5,-112.5 247.5,-131.5 326.5,-131.5 326.5,-112.5 247.5,-112.5"/>
<text text-anchor="middle" x="287" y="-119.5" font-family="Helvetica,sans-Serif" font-size="10.00">mpi_fwd.hpp</text>
</a>
</g>
</g>
<!-- Node2 -->
<g id="node2" class="node">
<title>Node2</title>
<g id="a_node2"><a xlink:href="MPI_8hpp.html" target="_top" xlink:title=" ">
<polygon fill="white" stroke="black" points="159,-56.5 159,-75.5 215,-75.5 215,-56.5 159,-56.5"/>
<text text-anchor="middle" x="187" y="-63.5" font-family="Helvetica,sans-Serif" font-size="10.00">MPI.hpp</text>
</a>
</g>
</g>
<!-- Node1&#45;&gt;Node2 -->
<g id="edge1" class="edge">
<title>Node1&#45;&gt;Node2</title>
<path fill="none" stroke="midnightblue" d="M261.91,-107.45C243.45,-97.48 218.9,-84.23 203.03,-75.65"/>
<polygon fill="midnightblue" stroke="midnightblue" points="260.47,-110.65 270.93,-112.32 263.8,-104.49 260.47,-110.65"/>
</g>
<!-- Node5 -->
<g id="node5" class="node">
<title>Node5</title>
<g id="a_node5"><a xlink:href="MPIDistributedImpl_8hpp.html" target="_top" xlink:title=" ">
<polygon fill="white" stroke="black" points="255.5,-0.5 255.5,-19.5 386.5,-19.5 386.5,-0.5 255.5,-0.5"/>
<text text-anchor="middle" x="321" y="-7.5" font-family="Helvetica,sans-Serif" font-size="10.00">MPIDistributedImpl.hpp</text>
</a>
</g>
</g>
<!-- Node1&#45;&gt;Node5 -->
<g id="edge4" class="edge">
<title>Node1&#45;&gt;Node5</title>
<path fill="none" stroke="midnightblue" d="M292.22,-102.47C295.94,-89.44 301.12,-71.6 306,-56 309.98,-43.27 314.93,-28.63 318.03,-19.6"/>
<polygon fill="midnightblue" stroke="midnightblue" points="288.84,-101.56 289.48,-112.14 295.57,-103.47 288.84,-101.56"/>
</g>
<!-- Node6 -->
<g id="node6" class="node">
<title>Node6</title>
<g id="a_node6"><a xlink:href="MPIImpl_8hpp.html" target="_top" xlink:title=" ">
<polygon fill="white" stroke="black" points="315.5,-56.5 315.5,-75.5 392.5,-75.5 392.5,-56.5 315.5,-56.5"/>
<text text-anchor="middle" x="354" y="-63.5" font-family="Helvetica,sans-Serif" font-size="10.00">MPIImpl.hpp</text>
</a>
</g>
</g>
<!-- Node1&#45;&gt;Node6 -->
<g id="edge5" class="edge">
<title>Node1&#45;&gt;Node6</title>
<path fill="none" stroke="midnightblue" d="M305.83,-105.82C317.84,-96.15 332.97,-83.95 343.04,-75.83"/>
<polygon fill="midnightblue" stroke="midnightblue" points="303.35,-103.32 297.76,-112.32 307.75,-108.77 303.35,-103.32"/>
</g>
<!-- Node3 -->
<g id="node3" class="node">
<title>Node3</title>
<g id="a_node3"><a xlink:href="CommOperation_8hpp.html" target="_top" xlink:title=" ">
<polygon fill="white" stroke="black" points="0,-0.5 0,-19.5 118,-19.5 118,-0.5 0,-0.5"/>
<text text-anchor="middle" x="59" y="-7.5" font-family="Helvetica,sans-Serif" font-size="10.00">CommOperation.hpp</text>
</a>
</g>
</g>
<!-- Node2&#45;&gt;Node3 -->
<g id="edge2" class="edge">
<title>Node2&#45;&gt;Node3</title>
<path fill="none" stroke="midnightblue" d="M157.38,-52.5C133.38,-42.38 100.22,-28.39 79.19,-19.52"/>
<polygon fill="midnightblue" stroke="midnightblue" points="156.14,-55.78 166.72,-56.44 158.86,-49.33 156.14,-55.78"/>
</g>
<!-- Node4 -->
<g id="node4" class="node">
<title>Node4</title>
<g id="a_node4"><a xlink:href="MPISingleton_8hpp.html" target="_top" xlink:title=" ">
<polygon fill="white" stroke="black" points="136.5,-0.5 136.5,-19.5 237.5,-19.5 237.5,-0.5 136.5,-0.5"/>
<text text-anchor="middle" x="187" y="-7.5" font-family="Helvetica,sans-Serif" font-size="10.00">MPISingleton.hpp</text>
</a>
</g>
</g>
<!-- Node2&#45;&gt;Node4 -->
<g id="edge3" class="edge">
<title>Node2&#45;&gt;Node4</title>
<path fill="none" stroke="midnightblue" d="M187,-45.8C187,-36.91 187,-26.78 187,-19.75"/>
<polygon fill="midnightblue" stroke="midnightblue" points="183.5,-46.08 187,-56.08 190.5,-46.08 183.5,-46.08"/>
</g>
<!-- Node6&#45;&gt;Node5 -->
<g id="edge6" class="edge">
<title>Node6&#45;&gt;Node5</title>
<path fill="none" stroke="midnightblue" d="M343.17,-47.27C337.53,-38.05 330.88,-27.17 326.35,-19.75"/>
<polygon fill="midnightblue" stroke="midnightblue" points="340.35,-49.38 348.55,-56.08 346.32,-45.73 340.35,-49.38"/>
</g>
<!-- Node7 -->
<g id="node7" class="node">
<title>Node7</title>
<g id="a_node7"><a xlink:href="MPISerialImpl_8hpp.html" target="_top" xlink:title=" ">
<polygon fill="white" stroke="black" points="404.5,-0.5 404.5,-19.5 509.5,-19.5 509.5,-0.5 404.5,-0.5"/>
<text text-anchor="middle" x="457" y="-7.5" font-family="Helvetica,sans-Serif" font-size="10.00">MPISerialImpl.hpp</text>
</a>
</g>
</g>
<!-- Node6&#45;&gt;Node7 -->
<g id="edge7" class="edge">
<title>Node6&#45;&gt;Node7</title>
<path fill="none" stroke="midnightblue" d="M379.58,-51.59C398.62,-41.61 424.06,-28.27 440.49,-19.65"/>
<polygon fill="midnightblue" stroke="midnightblue" points="377.78,-48.58 370.55,-56.32 381.03,-54.78 377.78,-48.58"/>
</g>
</g>
</svg>
