<?xml version="1.0" encoding="UTF-8" standalone="no"?>
<!DOCTYPE svg PUBLIC "-//W3C//DTD SVG 1.1//EN"
 "http://www.w3.org/Graphics/SVG/1.1/DTD/svg11.dtd">
<!-- Generated by graphviz version 2.43.0 (0)
 -->
<!-- Title: MPI.hpp Pages: 1 -->
<svg width="1480pt" height="508pt"
 viewBox="0.00 0.00 1479.50 508.00" xmlns="http://www.w3.org/2000/svg" xmlns:xlink="http://www.w3.org/1999/xlink">
<g id="graph0" class="graph" transform="scale(1 1) rotate(0) translate(4 504)">
<title>MPI.hpp</title>
<polygon fill="white" stroke="transparent" points="-4,4 -4,-504 1475.5,-504 1475.5,4 -4,4"/>
<!-- Node1 -->
<g id="node1" class="node">
<title>Node1</title>
<g id="a_node1"><a xlink:title=" ">
<polygon fill="#bfbfbf" stroke="black" points="937.5,-480.5 937.5,-499.5 993.5,-499.5 993.5,-480.5 937.5,-480.5"/>
<text text-anchor="middle" x="965.5" y="-487.5" font-family="Helvetica,sans-Serif" font-size="10.00">MPI.hpp</text>
</a>
</g>
</g>
<!-- Node2 -->
<g id="node2" class="node">
<title>Node2</title>
<g id="a_node2"><a xlink:href="mpi__fwd_8hpp.html" target="_top" xlink:title=" ">
<polygon fill="white" stroke="black" points="0,-413.5 0,-443.5 125,-443.5 125,-413.5 0,-413.5"/>
<text text-anchor="start" x="8" y="-431.5" font-family="Helvetica,sans-Serif" font-size="10.00">packages/concurrency</text>
<text text-anchor="middle" x="62.5" y="-420.5" font-family="Helvetica,sans-Serif" font-size="10.00">/inc/mpi_fwd.hpp</text>
</a>
</g>
</g>
<!-- Node1&#45;&gt;Node2 -->
<g id="edge1" class="edge">
<title>Node1&#45;&gt;Node2</title>
<path fill="none" stroke="midnightblue" d="M937.21,-488.81C831.63,-487.8 450.68,-481.61 139.5,-444 138.02,-443.82 136.53,-443.63 135.03,-443.43"/>
<polygon fill="midnightblue" stroke="midnightblue" points="135.41,-439.95 125.01,-441.98 134.4,-446.88 135.41,-439.95"/>
</g>
<!-- Node3 -->
<g id="node3" class="node">
<title>Node3</title>
<g id="a_node3"><a xlink:href="Serializer_8hpp.html" target="_top" xlink:title=" ">
<polygon fill="white" stroke="black" points="776,-419 776,-438 937,-438 937,-419 776,-419"/>
<text text-anchor="middle" x="856.5" y="-426" font-family="Helvetica,sans-Serif" font-size="10.00">packages/io/inc/Serializer.hpp</text>
</a>
</g>
</g>
<!-- Node1&#45;&gt;Node3 -->
<g id="edge2" class="edge">
<title>Node1&#45;&gt;Node3</title>
<path fill="none" stroke="midnightblue" d="M949.88,-480.48C931.91,-470.67 902.18,-454.43 881.09,-442.92"/>
<polygon fill="midnightblue" stroke="midnightblue" points="882.54,-439.73 872.09,-438.01 879.19,-445.87 882.54,-439.73"/>
</g>
<!-- Node5 -->
<g id="node5" class="node">
<title>Node5</title>
<g id="a_node5"><a xlink:href="types_8hpp.html" target="_top" xlink:title=" ">
<polygon fill="white" stroke="black" points="941.5,-134.5 941.5,-164.5 1051.5,-164.5 1051.5,-134.5 941.5,-134.5"/>
<text text-anchor="start" x="949.5" y="-152.5" font-family="Helvetica,sans-Serif" font-size="10.00">packages/types/inc</text>
<text text-anchor="middle" x="996.5" y="-141.5" font-family="Helvetica,sans-Serif" font-size="10.00">/types.hpp</text>
</a>
</g>
</g>
<!-- Node1&#45;&gt;Node5 -->
<g id="edge52" class="edge">
<title>Node1&#45;&gt;Node5</title>
<path fill="none" stroke="midnightblue" d="M965.5,-480.41C965.5,-459.98 965.5,-406.86 965.5,-362.5 965.5,-362.5 965.5,-362.5 965.5,-288 965.5,-247.39 978.53,-201.64 987.69,-174.49"/>
<polygon fill="midnightblue" stroke="midnightblue" points="991.11,-175.31 991.1,-164.71 984.5,-173 991.11,-175.31"/>
</g>
<!-- Node10 -->
<g id="node10" class="node">
<title>Node10</title>
<g id="a_node10"><a xlink:title=" ">
<polygon fill="white" stroke="#bfbfbf" points="634.5,-73 634.5,-92 678.5,-92 678.5,-73 634.5,-73"/>
<text text-anchor="middle" x="656.5" y="-80" font-family="Helvetica,sans-Serif" font-size="10.00">string</text>
</a>
</g>
</g>
<!-- Node1&#45;&gt;Node10 -->
<g id="edge54" class="edge">
<title>Node1&#45;&gt;Node10</title>
<path fill="none" stroke="midnightblue" d="M937.27,-486.93C806.69,-477 267.5,-431.77 267.5,-362.5 267.5,-362.5 267.5,-362.5 267.5,-215.5 267.5,-178.31 259,-159.04 286.5,-134 335.58,-89.3 542.94,-83.8 623.92,-83.39"/>
<polygon fill="midnightblue" stroke="midnightblue" points="624.04,-86.89 634.03,-83.36 624.02,-79.89 624.04,-86.89"/>
</g>
<!-- Node27 -->
<g id="node27" class="node">
<title>Node27</title>
<g id="a_node27"><a xlink:title=" ">
<polygon fill="white" stroke="#bfbfbf" points="105.5,-140 105.5,-159 163.5,-159 163.5,-140 105.5,-140"/>
<text text-anchor="middle" x="134.5" y="-147" font-family="Helvetica,sans-Serif" font-size="10.00">memory</text>
</a>
</g>
</g>
<!-- Node1&#45;&gt;Node27 -->
<g id="edge53" class="edge">
<title>Node1&#45;&gt;Node27</title>
<path fill="none" stroke="midnightblue" d="M937.1,-488.23C812.55,-484.71 317.93,-469.25 253.5,-444 200.12,-423.08 153.5,-419.84 153.5,-362.5 153.5,-362.5 153.5,-362.5 153.5,-288 153.5,-245.18 144.34,-195.55 138.74,-169.2"/>
<polygon fill="midnightblue" stroke="midnightblue" points="142.1,-168.15 136.53,-159.13 135.26,-169.65 142.1,-168.15"/>
</g>
<!-- Node34 -->
<g id="node34" class="node">
<title>Node34</title>
<g id="a_node34"><a xlink:href="RankID_8hpp.html" target="_top" xlink:title=" ">
<polygon fill="white" stroke="black" points="1306,-346.5 1306,-376.5 1431,-376.5 1431,-346.5 1306,-346.5"/>
<text text-anchor="start" x="1314" y="-364.5" font-family="Helvetica,sans-Serif" font-size="10.00">packages/concurrency</text>
<text text-anchor="middle" x="1368.5" y="-353.5" font-family="Helvetica,sans-Serif" font-size="10.00">/inc/RankID.hpp</text>
</a>
</g>
</g>
<!-- Node1&#45;&gt;Node34 -->
<g id="edge47" class="edge">
<title>Node1&#45;&gt;Node34</title>
<path fill="none" stroke="midnightblue" d="M969.28,-480.13C976.78,-463.76 995.18,-429.01 1022.5,-413 1126.56,-352 1172.41,-396.17 1291.5,-377 1292.97,-376.76 1294.45,-376.52 1295.95,-376.27"/>
<polygon fill="midnightblue" stroke="midnightblue" points="1296.66,-379.7 1305.93,-374.57 1295.49,-372.8 1296.66,-379.7"/>
</g>
<!-- Node36 -->
<g id="node36" class="node">
<title>Node36</title>
<g id="a_node36"><a xlink:href="MessageTag_8hpp.html" target="_top" xlink:title=" ">
<polygon fill="white" stroke="black" points="1032,-413.5 1032,-443.5 1157,-443.5 1157,-413.5 1032,-413.5"/>
<text text-anchor="start" x="1040" y="-431.5" font-family="Helvetica,sans-Serif" font-size="10.00">packages/concurrency</text>
<text text-anchor="middle" x="1094.5" y="-420.5" font-family="Helvetica,sans-Serif" font-size="10.00">/inc/MessageTag.hpp</text>
</a>
</g>
</g>
<!-- Node1&#45;&gt;Node36 -->
<g id="edge51" class="edge">
<title>Node1&#45;&gt;Node36</title>
<path fill="none" stroke="midnightblue" d="M983.98,-480.48C1002.43,-471.96 1031.37,-458.62 1055,-447.72"/>
<polygon fill="midnightblue" stroke="midnightblue" points="1056.48,-450.89 1064.1,-443.52 1053.55,-444.53 1056.48,-450.89"/>
</g>
<!-- Node37 -->
<g id="node37" class="node">
<title>Node37</title>
<g id="a_node37"><a xlink:title=" ">
<polygon fill="white" stroke="#bfbfbf" points="1175.5,-419 1175.5,-438 1231.5,-438 1231.5,-419 1175.5,-419"/>
<text text-anchor="middle" x="1203.5" y="-426" font-family="Helvetica,sans-Serif" font-size="10.00">optional</text>
</a>
</g>
</g>
<!-- Node1&#45;&gt;Node37 -->
<g id="edge55" class="edge">
<title>Node1&#45;&gt;Node37</title>
<path fill="none" stroke="midnightblue" d="M993.65,-483.99C1032.67,-476.74 1105.19,-462.19 1165.5,-444 1168.07,-443.22 1170.72,-442.36 1173.37,-441.45"/>
<polygon fill="midnightblue" stroke="midnightblue" points="1174.58,-444.73 1182.78,-438.02 1172.19,-438.15 1174.58,-444.73"/>
</g>
<!-- Node38 -->
<g id="node38" class="node">
<title>Node38</title>
<g id="a_node38"><a xlink:title=" ">
<polygon fill="white" stroke="#bfbfbf" points="1250,-413.5 1250,-443.5 1375,-443.5 1375,-413.5 1250,-413.5"/>
<text text-anchor="start" x="1258" y="-431.5" font-family="Helvetica,sans-Serif" font-size="10.00">packages/concurrency</text>
<text text-anchor="middle" x="1312.5" y="-420.5" font-family="Helvetica,sans-Serif" font-size="10.00">/impl/MPI_impl.hpp</text>
</a>
</g>
</g>
<!-- Node1&#45;&gt;Node38 -->
<g id="edge56" class="edge">
<title>Node1&#45;&gt;Node38</title>
<path fill="none" stroke="midnightblue" d="M993.67,-484.74C1041.87,-477.37 1143.51,-461.51 1239.8,-444.09"/>
<polygon fill="midnightblue" stroke="midnightblue" points="1240.48,-447.52 1249.7,-442.29 1239.23,-440.63 1240.48,-447.52"/>
</g>
<!-- Node4 -->
<g id="node4" class="node">
<title>Node4</title>
<g id="a_node4"><a xlink:href="basic__concepts_8hpp.html" target="_top" xlink:title=" ">
<polygon fill="white" stroke="black" points="747.5,-268.5 747.5,-309.5 879.5,-309.5 879.5,-268.5 747.5,-268.5"/>
<text text-anchor="start" x="755.5" y="-297.5" font-family="Helvetica,sans-Serif" font-size="10.00">packages/compile_time</text>
<text text-anchor="start" x="755.5" y="-286.5" font-family="Helvetica,sans-Serif" font-size="10.00">/packages/concepts/inc</text>
<text text-anchor="middle" x="813.5" y="-275.5" font-family="Helvetica,sans-Serif" font-size="10.00">/basic_concepts.hpp</text>
</a>
</g>
</g>
<!-- Node3&#45;&gt;Node4 -->
<g id="edge3" class="edge">
<title>Node3&#45;&gt;Node4</title>
<path fill="none" stroke="midnightblue" d="M851.62,-418.82C846.26,-408.95 837.71,-392.25 832.5,-377 826.12,-358.34 821.38,-336.68 818.23,-319.64"/>
<polygon fill="midnightblue" stroke="midnightblue" points="821.66,-318.94 816.48,-309.7 814.77,-320.16 821.66,-318.94"/>
</g>
<!-- Node3&#45;&gt;Node5 -->
<g id="edge26" class="edge">
<title>Node3&#45;&gt;Node5</title>
<path fill="none" stroke="midnightblue" d="M928.71,-418.99C1017.93,-408.06 1160.7,-389.06 1182.5,-377 1216.96,-357.93 1222.87,-345.22 1240.5,-310 1262.44,-266.16 1288.7,-238.82 1257.5,-201 1233.16,-171.5 1130.93,-159.03 1061.88,-153.9"/>
<polygon fill="midnightblue" stroke="midnightblue" points="1061.74,-150.39 1051.52,-153.17 1061.25,-157.37 1061.74,-150.39"/>
</g>
<!-- Node3&#45;&gt;Node10 -->
<g id="edge45" class="edge">
<title>Node3&#45;&gt;Node10</title>
<path fill="none" stroke="midnightblue" d="M836.87,-418.99C798.99,-401.1 719.5,-355.71 719.5,-290 719.5,-290 719.5,-290 719.5,-215.5 719.5,-170.24 688.96,-124.02 670.41,-100.11"/>
<polygon fill="midnightblue" stroke="midnightblue" points="672.96,-97.7 663.97,-92.09 667.5,-102.08 672.96,-97.7"/>
</g>
<!-- Node18 -->
<g id="node18" class="node">
<title>Node18</title>
<g id="a_node18"><a xlink:href="Traits_8hpp.html" target="_top" xlink:title=" ">
<polygon fill="white" stroke="black" points="1031.5,-352 1031.5,-371 1173.5,-371 1173.5,-352 1031.5,-352"/>
<text text-anchor="middle" x="1102.5" y="-359" font-family="Helvetica,sans-Serif" font-size="10.00">packages/io/inc/Traits.hpp</text>
</a>
</g>
</g>
<!-- Node3&#45;&gt;Node18 -->
<g id="edge18" class="edge">
<title>Node3&#45;&gt;Node18</title>
<path fill="none" stroke="midnightblue" d="M888.91,-418.94C932.88,-407.32 1011.51,-386.54 1060.12,-373.7"/>
<polygon fill="midnightblue" stroke="midnightblue" points="1061.24,-377.02 1070.02,-371.08 1059.45,-370.25 1061.24,-377.02"/>
</g>
<!-- Node19 -->
<g id="node19" class="node">
<title>Node19</title>
<g id="a_node19"><a xlink:href="tags_8hpp.html" target="_top" xlink:title=" ">
<polygon fill="white" stroke="black" points="1036.5,-274 1036.5,-304 1146.5,-304 1146.5,-274 1036.5,-274"/>
<text text-anchor="start" x="1044.5" y="-292" font-family="Helvetica,sans-Serif" font-size="10.00">packages/types/inc</text>
<text text-anchor="middle" x="1091.5" y="-281" font-family="Helvetica,sans-Serif" font-size="10.00">/tags.hpp</text>
</a>
</g>
</g>
<!-- Node3&#45;&gt;Node19 -->
<g id="edge25" class="edge">
<title>Node3&#45;&gt;Node19</title>
<path fill="none" stroke="midnightblue" d="M871.2,-418.9C908.36,-397.16 1006.76,-339.58 1058.56,-309.27"/>
<polygon fill="midnightblue" stroke="midnightblue" points="1060.5,-312.2 1067.36,-304.12 1056.96,-306.15 1060.5,-312.2"/>
</g>
<!-- Node23 -->
<g id="node23" class="node">
<title>Node23</title>
<g id="a_node23"><a xlink:href="checks_8hpp.html" target="_top" xlink:title=" ">
<polygon fill="white" stroke="black" points="422,-346.5 422,-376.5 541,-376.5 541,-346.5 422,-346.5"/>
<text text-anchor="start" x="430" y="-364.5" font-family="Helvetica,sans-Serif" font-size="10.00">packages/macros/inc</text>
<text text-anchor="middle" x="481.5" y="-353.5" font-family="Helvetica,sans-Serif" font-size="10.00">/checks.hpp</text>
</a>
</g>
</g>
<!-- Node3&#45;&gt;Node23 -->
<g id="edge27" class="edge">
<title>Node3&#45;&gt;Node23</title>
<path fill="none" stroke="midnightblue" d="M807.09,-418.94C741.65,-407.59 625.86,-387.52 551.46,-374.63"/>
<polygon fill="midnightblue" stroke="midnightblue" points="551.69,-371.11 541.24,-372.86 550.5,-378.01 551.69,-371.11"/>
</g>
<!-- Node33 -->
<g id="node33" class="node">
<title>Node33</title>
<g id="a_node33"><a xlink:title=" ">
<polygon fill="white" stroke="#bfbfbf" points="842,-352 842,-371 883,-371 883,-352 842,-352"/>
<text text-anchor="middle" x="862.5" y="-359" font-family="Helvetica,sans-Serif" font-size="10.00">tuple</text>
</a>
</g>
</g>
<!-- Node3&#45;&gt;Node33 -->
<g id="edge46" class="edge">
<title>Node3&#45;&gt;Node33</title>
<path fill="none" stroke="midnightblue" d="M857.31,-418.73C858.19,-409.18 859.63,-393.62 860.77,-381.28"/>
<polygon fill="midnightblue" stroke="midnightblue" points="864.27,-381.41 861.7,-371.13 857.3,-380.76 864.27,-381.41"/>
</g>
<!-- Node4&#45;&gt;Node5 -->
<g id="edge4" class="edge">
<title>Node4&#45;&gt;Node5</title>
<path fill="none" stroke="midnightblue" d="M850.76,-268.48C868.78,-258.44 890.38,-245.49 908.5,-232 933.13,-213.67 958.57,-189.42 975.73,-172.15"/>
<polygon fill="midnightblue" stroke="midnightblue" points="978.48,-174.34 982.99,-164.76 973.49,-169.44 978.48,-174.34"/>
</g>
<!-- Node11 -->
<g id="node11" class="node">
<title>Node11</title>
<g id="a_node11"><a xlink:title=" ">
<polygon fill="white" stroke="#bfbfbf" points="709,-73 709,-92 778,-92 778,-73 709,-73"/>
<text text-anchor="middle" x="743.5" y="-80" font-family="Helvetica,sans-Serif" font-size="10.00">type_traits</text>
</a>
</g>
</g>
<!-- Node4&#45;&gt;Node11 -->
<g id="edge15" class="edge">
<title>Node4&#45;&gt;Node11</title>
<path fill="none" stroke="midnightblue" d="M797.89,-268.28C790.43,-257.98 781.96,-244.87 776.5,-232 757.73,-187.77 748.97,-131.4 745.48,-102.49"/>
<polygon fill="midnightblue" stroke="midnightblue" points="748.91,-101.75 744.32,-92.21 741.96,-102.54 748.91,-101.75"/>
</g>
<!-- Node15 -->
<g id="node15" class="node">
<title>Node15</title>
<g id="a_node15"><a xlink:title=" ">
<polygon fill="white" stroke="#bfbfbf" points="507.5,-207 507.5,-226 567.5,-226 567.5,-207 507.5,-207"/>
<text text-anchor="middle" x="537.5" y="-214" font-family="Helvetica,sans-Serif" font-size="10.00">concepts</text>
</a>
</g>
</g>
<!-- Node4&#45;&gt;Node15 -->
<g id="edge14" class="edge">
<title>Node4&#45;&gt;Node15</title>
<path fill="none" stroke="midnightblue" d="M747.39,-271.11C694.42,-257.58 621.85,-239.05 577.4,-227.69"/>
<polygon fill="midnightblue" stroke="midnightblue" points="578.1,-224.26 567.55,-225.18 576.37,-231.04 578.1,-224.26"/>
</g>
<!-- Node16 -->
<g id="node16" class="node">
<title>Node16</title>
<g id="a_node16"><a xlink:title=" ">
<polygon fill="white" stroke="#bfbfbf" points="849.5,-207 849.5,-226 899.5,-226 899.5,-207 849.5,-207"/>
<text text-anchor="middle" x="874.5" y="-214" font-family="Helvetica,sans-Serif" font-size="10.00">cstdint</text>
</a>
</g>
</g>
<!-- Node4&#45;&gt;Node16 -->
<g id="edge16" class="edge">
<title>Node4&#45;&gt;Node16</title>
<path fill="none" stroke="midnightblue" d="M830.49,-268.36C839.86,-257.54 851.35,-244.26 860.24,-233.98"/>
<polygon fill="midnightblue" stroke="midnightblue" points="863.1,-236.03 867,-226.17 857.81,-231.45 863.1,-236.03"/>
</g>
<!-- Node17 -->
<g id="node17" class="node">
<title>Node17</title>
<g id="a_node17"><a xlink:title=" ">
<polygon fill="white" stroke="#bfbfbf" points="786,-207 786,-226 831,-226 831,-207 786,-207"/>
<text text-anchor="middle" x="808.5" y="-214" font-family="Helvetica,sans-Serif" font-size="10.00">utility</text>
</a>
</g>
</g>
<!-- Node4&#45;&gt;Node17 -->
<g id="edge17" class="edge">
<title>Node4&#45;&gt;Node17</title>
<path fill="none" stroke="midnightblue" d="M812.11,-268.36C811.39,-258.3 810.53,-246.1 809.82,-236.18"/>
<polygon fill="midnightblue" stroke="midnightblue" points="813.31,-235.9 809.12,-226.17 806.33,-236.4 813.31,-235.9"/>
</g>
<!-- Node6 -->
<g id="node6" class="node">
<title>Node6</title>
<g id="a_node6"><a xlink:href="debug_8hpp.html" target="_top" xlink:title=" ">
<polygon fill="white" stroke="black" points="1068,-67.5 1068,-97.5 1187,-97.5 1187,-67.5 1068,-67.5"/>
<text text-anchor="start" x="1076" y="-85.5" font-family="Helvetica,sans-Serif" font-size="10.00">packages/macros/inc</text>
<text text-anchor="middle" x="1127.5" y="-74.5" font-family="Helvetica,sans-Serif" font-size="10.00">/debug.hpp</text>
</a>
</g>
</g>
<!-- Node5&#45;&gt;Node6 -->
<g id="edge5" class="edge">
<title>Node5&#45;&gt;Node6</title>
<path fill="none" stroke="midnightblue" d="M1024.93,-134.4C1043.98,-124.94 1069.28,-112.39 1089.98,-102.12"/>
<polygon fill="midnightblue" stroke="midnightblue" points="1091.73,-105.16 1099.13,-97.58 1088.62,-98.89 1091.73,-105.16"/>
</g>
<!-- Node9 -->
<g id="node9" class="node">
<title>Node9</title>
<g id="a_node9"><a xlink:title=" ">
<polygon fill="white" stroke="#bfbfbf" points="1205,-73 1205,-92 1258,-92 1258,-73 1205,-73"/>
<text text-anchor="middle" x="1231.5" y="-80" font-family="Helvetica,sans-Serif" font-size="10.00">cstddef</text>
</a>
</g>
</g>
<!-- Node5&#45;&gt;Node9 -->
<g id="edge8" class="edge">
<title>Node5&#45;&gt;Node9</title>
<path fill="none" stroke="midnightblue" d="M1051.54,-136.63C1091.82,-127.44 1147.56,-113.66 1195.5,-98 1197.63,-97.3 1199.82,-96.54 1202.01,-95.75"/>
<polygon fill="midnightblue" stroke="midnightblue" points="1203.41,-98.96 1211.49,-92.11 1200.9,-92.42 1203.41,-98.96"/>
</g>
<!-- Node5&#45;&gt;Node10 -->
<g id="edge9" class="edge">
<title>Node5&#45;&gt;Node10</title>
<path fill="none" stroke="midnightblue" d="M941.5,-141.78C881.47,-133.83 782.8,-118.99 699.5,-98 695.85,-97.08 692.06,-96 688.31,-94.85"/>
<polygon fill="midnightblue" stroke="midnightblue" points="689.21,-91.46 678.62,-91.7 687.05,-98.12 689.21,-91.46"/>
</g>
<!-- Node5&#45;&gt;Node11 -->
<g id="edge10" class="edge">
<title>Node5&#45;&gt;Node11</title>
<path fill="none" stroke="midnightblue" d="M941.32,-136.65C898.76,-127.16 838.56,-113.01 786.5,-98 783.49,-97.13 780.38,-96.19 777.28,-95.21"/>
<polygon fill="midnightblue" stroke="midnightblue" points="778.08,-91.79 767.49,-92.01 775.91,-98.44 778.08,-91.79"/>
</g>
<!-- Node12 -->
<g id="node12" class="node">
<title>Node12</title>
<g id="a_node12"><a xlink:title=" ">
<polygon fill="white" stroke="#bfbfbf" points="1276.5,-73 1276.5,-92 1326.5,-92 1326.5,-73 1276.5,-73"/>
<text text-anchor="middle" x="1301.5" y="-80" font-family="Helvetica,sans-Serif" font-size="10.00">climits</text>
</a>
</g>
</g>
<!-- Node5&#45;&gt;Node12 -->
<g id="edge11" class="edge">
<title>Node5&#45;&gt;Node12</title>
<path fill="none" stroke="midnightblue" d="M1051.59,-141.62C1106.72,-133.94 1193.59,-119.66 1266.5,-98 1268.79,-97.32 1271.13,-96.54 1273.46,-95.71"/>
<polygon fill="midnightblue" stroke="midnightblue" points="1274.81,-98.94 1282.87,-92.06 1272.28,-92.41 1274.81,-98.94"/>
</g>
<!-- Node13 -->
<g id="node13" class="node">
<title>Node13</title>
<g id="a_node13"><a xlink:title=" ">
<polygon fill="white" stroke="#bfbfbf" points="796,-67.5 796,-97.5 913,-97.5 913,-67.5 796,-67.5"/>
<text text-anchor="start" x="804" y="-85.5" font-family="Helvetica,sans-Serif" font-size="10.00">packages/types/impl</text>
<text text-anchor="middle" x="854.5" y="-74.5" font-family="Helvetica,sans-Serif" font-size="10.00">/types_impl.hpp</text>
</a>
</g>
</g>
<!-- Node5&#45;&gt;Node13 -->
<g id="edge12" class="edge">
<title>Node5&#45;&gt;Node13</title>
<path fill="none" stroke="midnightblue" d="M965.69,-134.4C944.85,-124.86 917.12,-112.16 894.57,-101.84"/>
<polygon fill="midnightblue" stroke="midnightblue" points="895.8,-98.56 885.25,-97.58 892.89,-104.92 895.8,-98.56"/>
</g>
<!-- Node14 -->
<g id="node14" class="node">
<title>Node14</title>
<g id="a_node14"><a xlink:href="logging_8hpp.html" target="_top" xlink:title=" ">
<polygon fill="white" stroke="black" points="931,-67.5 931,-97.5 1050,-97.5 1050,-67.5 931,-67.5"/>
<text text-anchor="start" x="939" y="-85.5" font-family="Helvetica,sans-Serif" font-size="10.00">packages/macros/inc</text>
<text text-anchor="middle" x="990.5" y="-74.5" font-family="Helvetica,sans-Serif" font-size="10.00">/logging.hpp</text>
</a>
</g>
</g>
<!-- Node5&#45;&gt;Node14 -->
<g id="edge13" class="edge">
<title>Node5&#45;&gt;Node14</title>
<path fill="none" stroke="midnightblue" d="M995.2,-134.4C994.47,-126.56 993.55,-116.6 992.72,-107.57"/>
<polygon fill="midnightblue" stroke="midnightblue" points="996.2,-107.21 991.8,-97.58 989.23,-107.86 996.2,-107.21"/>
</g>
<!-- Node7 -->
<g id="node7" class="node">
<title>Node7</title>
<g id="a_node7"><a xlink:href="detail_8hpp.html" target="_top" xlink:title=" ">
<polygon fill="white" stroke="black" points="170,-0.5 170,-30.5 289,-30.5 289,-0.5 170,-0.5"/>
<text text-anchor="start" x="178" y="-18.5" font-family="Helvetica,sans-Serif" font-size="10.00">packages/macros/inc</text>
<text text-anchor="middle" x="229.5" y="-7.5" font-family="Helvetica,sans-Serif" font-size="10.00">/detail.hpp</text>
</a>
</g>
</g>
<!-- Node6&#45;&gt;Node7 -->
<g id="edge6" class="edge">
<title>Node6&#45;&gt;Node7</title>
<path fill="none" stroke="midnightblue" d="M1067.75,-68.39C1064.63,-67.88 1061.53,-67.41 1058.5,-67 778.98,-29.32 442.63,-19.74 299.48,-17.31"/>
<polygon fill="midnightblue" stroke="midnightblue" points="299.15,-13.81 289.1,-17.15 299.04,-20.81 299.15,-13.81"/>
</g>
<!-- Node8 -->
<g id="node8" class="node">
<title>Node8</title>
<g id="a_node8"><a xlink:title=" ">
<polygon fill="white" stroke="#bfbfbf" points="1097.5,-6 1097.5,-25 1157.5,-25 1157.5,-6 1097.5,-6"/>
<text text-anchor="middle" x="1127.5" y="-13" font-family="Helvetica,sans-Serif" font-size="10.00">iostream</text>
</a>
</g>
</g>
<!-- Node6&#45;&gt;Node8 -->
<g id="edge7" class="edge">
<title>Node6&#45;&gt;Node8</title>
<path fill="none" stroke="midnightblue" d="M1127.5,-67.4C1127.5,-58.06 1127.5,-45.71 1127.5,-35.52"/>
<polygon fill="midnightblue" stroke="midnightblue" points="1131,-35.19 1127.5,-25.19 1124,-35.19 1131,-35.19"/>
</g>
<!-- Node18&#45;&gt;Node5 -->
<g id="edge19" class="edge">
<title>Node18&#45;&gt;Node5</title>
<path fill="none" stroke="midnightblue" d="M1081.61,-351.96C1064.33,-343.78 1040.59,-329.76 1027.5,-310 999.93,-268.38 995.66,-208.07 995.66,-174.81"/>
<polygon fill="midnightblue" stroke="midnightblue" points="999.16,-174.67 995.79,-164.63 992.16,-174.58 999.16,-174.67"/>
</g>
<!-- Node18&#45;&gt;Node19 -->
<g id="edge20" class="edge">
<title>Node18&#45;&gt;Node19</title>
<path fill="none" stroke="midnightblue" d="M1101.15,-351.86C1099.7,-342.55 1097.32,-327.33 1095.29,-314.31"/>
<polygon fill="midnightblue" stroke="midnightblue" points="1098.7,-313.42 1093.7,-304.08 1091.78,-314.5 1098.7,-313.42"/>
</g>
<!-- Node22 -->
<g id="node22" class="node">
<title>Node22</title>
<g id="a_node22"><a xlink:title=" ">
<polygon fill="white" stroke="#bfbfbf" points="1183.5,-279.5 1183.5,-298.5 1231.5,-298.5 1231.5,-279.5 1183.5,-279.5"/>
<text text-anchor="middle" x="1207.5" y="-286.5" font-family="Helvetica,sans-Serif" font-size="10.00">iosfwd</text>
</a>
</g>
</g>
<!-- Node18&#45;&gt;Node22 -->
<g id="edge24" class="edge">
<title>Node18&#45;&gt;Node22</title>
<path fill="none" stroke="midnightblue" d="M1115.38,-351.86C1133.01,-340.02 1164.9,-318.6 1186.14,-304.34"/>
<polygon fill="midnightblue" stroke="midnightblue" points="1188.17,-307.2 1194.52,-298.72 1184.27,-301.38 1188.17,-307.2"/>
</g>
<!-- Node19&#45;&gt;Node5 -->
<g id="edge21" class="edge">
<title>Node19&#45;&gt;Node5</title>
<path fill="none" stroke="midnightblue" d="M1081.69,-273.8C1065.26,-250.03 1032.05,-201.96 1012.3,-173.37"/>
<polygon fill="midnightblue" stroke="midnightblue" points="1014.96,-171.06 1006.4,-164.83 1009.2,-175.04 1014.96,-171.06"/>
</g>
<!-- Node20 -->
<g id="node20" class="node">
<title>Node20</title>
<g id="a_node20"><a xlink:title=" ">
<polygon fill="white" stroke="#bfbfbf" points="1069.5,-207 1069.5,-226 1113.5,-226 1113.5,-207 1069.5,-207"/>
<text text-anchor="middle" x="1091.5" y="-214" font-family="Helvetica,sans-Serif" font-size="10.00">bitset</text>
</a>
</g>
</g>
<!-- Node19&#45;&gt;Node20 -->
<g id="edge22" class="edge">
<title>Node19&#45;&gt;Node20</title>
<path fill="none" stroke="midnightblue" d="M1091.5,-273.73C1091.5,-263 1091.5,-248.19 1091.5,-236.46"/>
<polygon fill="midnightblue" stroke="midnightblue" points="1095,-236.39 1091.5,-226.39 1088,-236.39 1095,-236.39"/>
</g>
<!-- Node21 -->
<g id="node21" class="node">
<title>Node21</title>
<g id="a_node21"><a xlink:title=" ">
<polygon fill="white" stroke="#bfbfbf" points="1132,-201.5 1132,-231.5 1249,-231.5 1249,-201.5 1132,-201.5"/>
<text text-anchor="start" x="1140" y="-219.5" font-family="Helvetica,sans-Serif" font-size="10.00">packages/types/impl</text>
<text text-anchor="middle" x="1190.5" y="-208.5" font-family="Helvetica,sans-Serif" font-size="10.00">/tags_impl.hpp</text>
</a>
</g>
</g>
<!-- Node19&#45;&gt;Node21 -->
<g id="edge23" class="edge">
<title>Node19&#45;&gt;Node21</title>
<path fill="none" stroke="midnightblue" d="M1111.53,-273.73C1126.12,-263.35 1146.08,-249.13 1162.28,-237.6"/>
<polygon fill="midnightblue" stroke="midnightblue" points="1164.72,-240.16 1170.83,-231.5 1160.66,-234.45 1164.72,-240.16"/>
</g>
<!-- Node23&#45;&gt;Node7 -->
<g id="edge40" class="edge">
<title>Node23&#45;&gt;Node7</title>
<path fill="none" stroke="midnightblue" d="M433.25,-346.44C407.65,-337.87 376.26,-325.57 350.5,-310 305.49,-282.79 291.09,-275.48 261.5,-232 221.17,-172.74 223.01,-83.13 226.69,-40.57"/>
<polygon fill="midnightblue" stroke="midnightblue" points="230.18,-40.87 227.67,-30.58 223.21,-40.19 230.18,-40.87"/>
</g>
<!-- Node24 -->
<g id="node24" class="node">
<title>Node24</title>
<g id="a_node24"><a xlink:href="exception_8hpp.html" target="_top" xlink:title=" ">
<polygon fill="white" stroke="black" points="296,-201.5 296,-231.5 415,-231.5 415,-201.5 296,-201.5"/>
<text text-anchor="start" x="304" y="-219.5" font-family="Helvetica,sans-Serif" font-size="10.00">packages/exceptions</text>
<text text-anchor="middle" x="355.5" y="-208.5" font-family="Helvetica,sans-Serif" font-size="10.00">/inc/exception.hpp</text>
</a>
</g>
</g>
<!-- Node23&#45;&gt;Node24 -->
<g id="edge28" class="edge">
<title>Node23&#45;&gt;Node24</title>
<path fill="none" stroke="midnightblue" d="M421.74,-346.45C401.89,-338.86 381.55,-327.34 368.5,-310 353.79,-290.45 351.9,-261.81 352.83,-241.59"/>
<polygon fill="midnightblue" stroke="midnightblue" points="356.33,-241.83 353.55,-231.6 349.34,-241.33 356.33,-241.83"/>
</g>
<!-- Node29 -->
<g id="node29" class="node">
<title>Node29</title>
<g id="a_node29"><a xlink:href="exceptions_8hpp.html" target="_top" xlink:title=" ">
<polygon fill="white" stroke="black" points="378,-274 378,-304 497,-304 497,-274 378,-274"/>
<text text-anchor="start" x="386" y="-292" font-family="Helvetica,sans-Serif" font-size="10.00">packages/macros/inc</text>
<text text-anchor="middle" x="437.5" y="-281" font-family="Helvetica,sans-Serif" font-size="10.00">/exceptions.hpp</text>
</a>
</g>
</g>
<!-- Node23&#45;&gt;Node29 -->
<g id="edge35" class="edge">
<title>Node23&#45;&gt;Node29</title>
<path fill="none" stroke="midnightblue" d="M472.6,-346.23C466.63,-336.68 458.65,-323.89 451.8,-312.92"/>
<polygon fill="midnightblue" stroke="midnightblue" points="454.65,-310.88 446.39,-304.25 448.72,-314.58 454.65,-310.88"/>
</g>
<!-- Node30 -->
<g id="node30" class="node">
<title>Node30</title>
<g id="a_node30"><a xlink:title=" ">
<polygon fill="white" stroke="#bfbfbf" points="433.5,-207 433.5,-226 489.5,-226 489.5,-207 433.5,-207"/>
<text text-anchor="middle" x="461.5" y="-214" font-family="Helvetica,sans-Serif" font-size="10.00">sstream</text>
</a>
</g>
</g>
<!-- Node23&#45;&gt;Node30 -->
<g id="edge44" class="edge">
<title>Node23&#45;&gt;Node30</title>
<path fill="none" stroke="midnightblue" d="M490.43,-346.43C500.9,-328.05 515.63,-295.03 505.5,-268 500.4,-254.39 489.79,-242.03 480.27,-232.94"/>
<polygon fill="midnightblue" stroke="midnightblue" points="482.45,-230.2 472.67,-226.13 477.78,-235.41 482.45,-230.2"/>
</g>
<!-- Node31 -->
<g id="node31" class="node">
<title>Node31</title>
<g id="a_node31"><a xlink:href="cmake__variables_8hpp.html" target="_top" xlink:title=" ">
<polygon fill="white" stroke="black" points="553.5,-279.5 553.5,-298.5 673.5,-298.5 673.5,-279.5 553.5,-279.5"/>
<text text-anchor="middle" x="613.5" y="-286.5" font-family="Helvetica,sans-Serif" font-size="10.00">cmake_variables.hpp</text>
</a>
</g>
</g>
<!-- Node23&#45;&gt;Node31 -->
<g id="edge41" class="edge">
<title>Node23&#45;&gt;Node31</title>
<path fill="none" stroke="midnightblue" d="M507.89,-346.4C531.44,-333.83 565.64,-315.56 588.69,-303.25"/>
<polygon fill="midnightblue" stroke="midnightblue" points="590.35,-306.33 597.52,-298.53 587.05,-300.16 590.35,-306.33"/>
</g>
<!-- Node24&#45;&gt;Node5 -->
<g id="edge29" class="edge">
<title>Node24&#45;&gt;Node5</title>
<path fill="none" stroke="midnightblue" d="M415.26,-202.49C418.38,-201.95 421.47,-201.45 424.5,-201 607.01,-173.87 824.61,-159.57 931.16,-153.73"/>
<polygon fill="midnightblue" stroke="midnightblue" points="931.63,-157.21 941.43,-153.18 931.25,-150.22 931.63,-157.21"/>
</g>
<!-- Node24&#45;&gt;Node10 -->
<g id="edge31" class="edge">
<title>Node24&#45;&gt;Node10</title>
<path fill="none" stroke="midnightblue" d="M415.34,-202.91C418.44,-202.27 421.5,-201.62 424.5,-201 501.81,-184.88 532.36,-208.16 598.5,-165 622.43,-149.39 639.56,-120.18 648.74,-101.3"/>
<polygon fill="midnightblue" stroke="midnightblue" points="652.01,-102.57 653.02,-92.02 645.65,-99.64 652.01,-102.57"/>
</g>
<!-- Node25 -->
<g id="node25" class="node">
<title>Node25</title>
<g id="a_node25"><a xlink:title=" ">
<polygon fill="white" stroke="#bfbfbf" points="460,-140 460,-159 525,-159 525,-140 460,-140"/>
<text text-anchor="middle" x="492.5" y="-147" font-family="Helvetica,sans-Serif" font-size="10.00">stdexcept</text>
</a>
</g>
</g>
<!-- Node24&#45;&gt;Node25 -->
<g id="edge30" class="edge">
<title>Node24&#45;&gt;Node25</title>
<path fill="none" stroke="midnightblue" d="M385.23,-201.4C409.05,-190.09 442.21,-174.36 465.33,-163.39"/>
<polygon fill="midnightblue" stroke="midnightblue" points="467.04,-166.46 474.57,-159.01 464.03,-160.13 467.04,-166.46"/>
</g>
<!-- Node26 -->
<g id="node26" class="node">
<title>Node26</title>
<g id="a_node26"><a xlink:title=" ">
<polygon fill="white" stroke="#bfbfbf" points="543,-140 543,-159 590,-159 590,-140 543,-140"/>
<text text-anchor="middle" x="566.5" y="-147" font-family="Helvetica,sans-Serif" font-size="10.00">deque</text>
</a>
</g>
</g>
<!-- Node24&#45;&gt;Node26 -->
<g id="edge32" class="edge">
<title>Node24&#45;&gt;Node26</title>
<path fill="none" stroke="midnightblue" d="M412.65,-201.43C447.87,-192.23 493.75,-179.29 533.5,-165 535.16,-164.4 536.85,-163.76 538.56,-163.09"/>
<polygon fill="midnightblue" stroke="midnightblue" points="540.3,-166.16 548.18,-159.08 537.6,-159.7 540.3,-166.16"/>
</g>
<!-- Node24&#45;&gt;Node27 -->
<g id="edge33" class="edge">
<title>Node24&#45;&gt;Node27</title>
<path fill="none" stroke="midnightblue" d="M307.82,-201.48C267.69,-189.67 211,-173 173.53,-161.98"/>
<polygon fill="midnightblue" stroke="midnightblue" points="174.08,-158.49 163.5,-159.03 172.1,-165.21 174.08,-158.49"/>
</g>
<!-- Node28 -->
<g id="node28" class="node">
<title>Node28</title>
<g id="a_node28"><a xlink:title=" ">
<polygon fill="white" stroke="#bfbfbf" points="295.5,-134.5 295.5,-164.5 441.5,-164.5 441.5,-134.5 295.5,-134.5"/>
<text text-anchor="start" x="303.5" y="-152.5" font-family="Helvetica,sans-Serif" font-size="10.00">packages/exceptions</text>
<text text-anchor="middle" x="368.5" y="-141.5" font-family="Helvetica,sans-Serif" font-size="10.00">/impl/exceptions_impl.hpp</text>
</a>
</g>
</g>
<!-- Node24&#45;&gt;Node28 -->
<g id="edge34" class="edge">
<title>Node24&#45;&gt;Node28</title>
<path fill="none" stroke="midnightblue" d="M358.32,-201.4C359.89,-193.56 361.88,-183.6 363.69,-174.57"/>
<polygon fill="midnightblue" stroke="midnightblue" points="367.16,-175.07 365.68,-164.58 360.29,-173.7 367.16,-175.07"/>
</g>
<!-- Node29&#45;&gt;Node7 -->
<g id="edge37" class="edge">
<title>Node29&#45;&gt;Node7</title>
<path fill="none" stroke="midnightblue" d="M377.8,-279.34C346.54,-271.84 309.99,-257.88 286.5,-232 236.86,-177.32 229.55,-84.42 229.05,-40.66"/>
<polygon fill="midnightblue" stroke="midnightblue" points="232.55,-40.64 229.05,-30.64 225.55,-40.65 232.55,-40.64"/>
</g>
<!-- Node29&#45;&gt;Node15 -->
<g id="edge39" class="edge">
<title>Node29&#45;&gt;Node15</title>
<path fill="none" stroke="midnightblue" d="M457.74,-273.73C474.94,-261.6 499.54,-244.26 516.86,-232.05"/>
<polygon fill="midnightblue" stroke="midnightblue" points="519.02,-234.81 525.17,-226.19 514.98,-229.09 519.02,-234.81"/>
</g>
<!-- Node29&#45;&gt;Node24 -->
<g id="edge36" class="edge">
<title>Node29&#45;&gt;Node24</title>
<path fill="none" stroke="midnightblue" d="M420.91,-273.73C409.05,-263.54 392.91,-249.66 379.62,-238.24"/>
<polygon fill="midnightblue" stroke="midnightblue" points="381.65,-235.37 371.79,-231.5 377.09,-240.68 381.65,-235.37"/>
</g>
<!-- Node29&#45;&gt;Node30 -->
<g id="edge38" class="edge">
<title>Node29&#45;&gt;Node30</title>
<path fill="none" stroke="midnightblue" d="M442.36,-273.73C446.05,-262.89 451.16,-247.88 455.17,-236.1"/>
<polygon fill="midnightblue" stroke="midnightblue" points="458.56,-236.99 458.47,-226.39 451.94,-234.73 458.56,-236.99"/>
</g>
<!-- Node31&#45;&gt;Node10 -->
<g id="edge43" class="edge">
<title>Node31&#45;&gt;Node10</title>
<path fill="none" stroke="midnightblue" d="M612.58,-279.25C611.14,-263.45 609.05,-229.18 614.5,-201 617.76,-184.15 622.6,-181.12 628.5,-165 636.43,-143.33 644.97,-118.19 650.5,-101.63"/>
<polygon fill="midnightblue" stroke="midnightblue" points="653.84,-102.7 653.67,-92.11 647.19,-100.49 653.84,-102.7"/>
</g>
<!-- Node32 -->
<g id="node32" class="node">
<title>Node32</title>
<g id="a_node32"><a xlink:title=" ">
<polygon fill="white" stroke="#bfbfbf" points="623.5,-207 623.5,-226 691.5,-226 691.5,-207 623.5,-207"/>
<text text-anchor="middle" x="657.5" y="-214" font-family="Helvetica,sans-Serif" font-size="10.00">filesystem</text>
</a>
</g>
</g>
<!-- Node31&#45;&gt;Node32 -->
<g id="edge42" class="edge">
<title>Node31&#45;&gt;Node32</title>
<path fill="none" stroke="midnightblue" d="M618.9,-279.36C625.76,-268.36 637.77,-249.11 646.58,-235"/>
<polygon fill="midnightblue" stroke="midnightblue" points="649.74,-236.55 652.06,-226.22 643.8,-232.85 649.74,-236.55"/>
</g>
<!-- Node34&#45;&gt;Node5 -->
<g id="edge48" class="edge">
<title>Node34&#45;&gt;Node5</title>
<path fill="none" stroke="midnightblue" d="M1357.82,-346.43C1350.64,-336.58 1341.29,-322.91 1334.5,-310 1310.26,-263.91 1331.92,-233.84 1291.5,-201 1257.17,-173.11 1138.04,-159.98 1062.08,-154.32"/>
<polygon fill="midnightblue" stroke="midnightblue" points="1061.88,-150.79 1051.66,-153.56 1061.38,-157.77 1061.88,-150.79"/>
</g>
<!-- Node34&#45;&gt;Node22 -->
<g id="edge49" class="edge">
<title>Node34&#45;&gt;Node22</title>
<path fill="none" stroke="midnightblue" d="M1336.31,-346.4C1307.08,-333.61 1264.38,-314.91 1236.28,-302.6"/>
<polygon fill="midnightblue" stroke="midnightblue" points="1237.55,-299.34 1226.99,-298.53 1234.74,-305.75 1237.55,-299.34"/>
</g>
<!-- Node35 -->
<g id="node35" class="node">
<title>Node35</title>
<g id="a_node35"><a xlink:title=" ">
<polygon fill="white" stroke="#bfbfbf" points="1343.5,-274 1343.5,-304 1471.5,-304 1471.5,-274 1343.5,-274"/>
<text text-anchor="start" x="1351.5" y="-292" font-family="Helvetica,sans-Serif" font-size="10.00">packages/concurrency</text>
<text text-anchor="middle" x="1407.5" y="-281" font-family="Helvetica,sans-Serif" font-size="10.00">/impl/RankID_impl.hpp</text>
</a>
</g>
</g>
<!-- Node34&#45;&gt;Node35 -->
<g id="edge50" class="edge">
<title>Node34&#45;&gt;Node35</title>
<path fill="none" stroke="midnightblue" d="M1376.39,-346.23C1381.63,-336.77 1388.61,-324.14 1394.64,-313.25"/>
<polygon fill="midnightblue" stroke="midnightblue" points="1397.84,-314.69 1399.62,-304.25 1391.72,-311.3 1397.84,-314.69"/>
</g>
</g>
</svg>
