<?xml version="1.0" encoding="UTF-8" standalone="no"?>
<!DOCTYPE svg PUBLIC "-//W3C//DTD SVG 1.1//EN"
 "http://www.w3.org/Graphics/SVG/1.1/DTD/svg11.dtd">
<!-- Generated by graphviz version 2.43.0 (0)
 -->
<!-- Title: mpi_fwd.hpp Pages: 1 -->
<svg width="518pt" height="137pt"
 viewBox="0.00 0.00 517.50 137.00" xmlns="http://www.w3.org/2000/svg" xmlns:xlink="http://www.w3.org/1999/xlink">
<g id="graph0" class="graph" transform="scale(1 1) rotate(0) translate(4 133)">
<title>mpi_fwd.hpp</title>
<!-- Node1 -->
<g id="Node000001" class="node">
<title>Node1</title>
<g id="a_Node000001"><a xlink:title=" ">
<polygon fill="#999999" stroke="#666666" points="326.5,-129 247.5,-129 247.5,-110 326.5,-110 326.5,-129"/>
<text text-anchor="middle" x="287" y="-117" font-family="Helvetica,sans-Serif" font-size="10.00">mpi_fwd.hpp</text>
</a>
</g>
</g>
<!-- Node2 -->
<g id="Node000002" class="node">
<title>Node2</title>
<g id="a_Node000002"><a xlink:href="MPI_8hpp.html" target="_top" xlink:title=" ">
<polygon fill="white" stroke="#666666" points="215,-74 159,-74 159,-55 215,-55 215,-74"/>
<text text-anchor="middle" x="187" y="-62" font-family="Helvetica,sans-Serif" font-size="10.00">MPI.hpp</text>
</a>
</g>
</g>
<!-- Node1&#45;&gt;Node2 -->
<g id="edge1_Node000001_Node000002" class="edge">
<title>Node1&#45;&gt;Node2</title>
<g id="a_edge1_Node000001_Node000002"><a xlink:title=" ">
<path fill="none" stroke="#63b8ff" d="M261.97,-105.23C243.63,-95.51 219.26,-82.6 203.36,-74.17"/>
<polygon fill="#63b8ff" stroke="#63b8ff" points="260.46,-108.39 270.93,-109.98 263.74,-102.21 260.46,-108.39"/>
</a>
</g>
</g>
<!-- Node5 -->
<g id="Node000005" class="node">
<title>Node5</title>
<g id="a_Node000005"><a xlink:href="MPIDistributedImpl_8hpp.html" target="_top" xlink:title=" ">
<polygon fill="white" stroke="#666666" points="386.5,-19 255.5,-19 255.5,0 386.5,0 386.5,-19"/>
<text text-anchor="middle" x="321" y="-7" font-family="Helvetica,sans-Serif" font-size="10.00">MPIDistributedImpl.hpp</text>
</a>
</g>
</g>
<!-- Node1&#45;&gt;Node5 -->
<g id="edge4_Node000001_Node000005" class="edge">
<title>Node1&#45;&gt;Node5</title>
<g id="a_edge4_Node000001_Node000005"><a xlink:title=" ">
<path fill="none" stroke="#63b8ff" d="M292.35,-100.02C296.07,-87.32 301.2,-70.1 306,-55 310,-42.41 314.95,-27.94 318.04,-19"/>
<polygon fill="#63b8ff" stroke="#63b8ff" points="288.92,-99.26 289.49,-109.84 295.64,-101.22 288.92,-99.26"/>
</a>
</g>
</g>
<!-- Node6 -->
<g id="Node000006" class="node">
<title>Node6</title>
<g id="a_Node000006"><a xlink:href="MPIImpl_8hpp.html" target="_top" xlink:title=" ">
<polygon fill="white" stroke="#666666" points="392.5,-74 315.5,-74 315.5,-55 392.5,-55 392.5,-74"/>
<text text-anchor="middle" x="354" y="-62" font-family="Helvetica,sans-Serif" font-size="10.00">MPIImpl.hpp</text>
</a>
</g>
</g>
<!-- Node1&#45;&gt;Node6 -->
<g id="edge5_Node000001_Node000006" class="edge">
<title>Node1&#45;&gt;Node6</title>
<g id="a_edge5_Node000001_Node000006"><a xlink:title=" ">
<path fill="none" stroke="#63b8ff" d="M305.83,-103.6C317.84,-94.11 332.97,-82.13 343.04,-74.17"/>
<polygon fill="#63b8ff" stroke="#63b8ff" points="303.44,-101.04 297.76,-109.98 307.78,-106.53 303.44,-101.04"/>
</a>
</g>
</g>
<!-- Node3 -->
<g id="Node000003" class="node">
<title>Node3</title>
<g id="a_Node000003"><a xlink:href="CommOperation_8hpp.html" target="_top" xlink:title=" ">
<polygon fill="white" stroke="#666666" points="118,-19 0,-19 0,0 118,0 118,-19"/>
<text text-anchor="middle" x="59" y="-7" font-family="Helvetica,sans-Serif" font-size="10.00">CommOperation.hpp</text>
</a>
</g>
</g>
<!-- Node2&#45;&gt;Node3 -->
<g id="edge2_Node000002_Node000003" class="edge">
<title>Node2&#45;&gt;Node3</title>
<g id="a_edge2_Node000002_Node000003"><a xlink:title=" ">
<path fill="none" stroke="#63b8ff" d="M156.88,-51.03C133.21,-41.23 100.85,-27.83 79.94,-19.17"/>
<polygon fill="#63b8ff" stroke="#63b8ff" points="155.86,-54.39 166.43,-54.98 158.53,-47.93 155.86,-54.39"/>
</a>
</g>
</g>
<!-- Node4 -->
<g id="Node000004" class="node">
<title>Node4</title>
<g id="a_Node000004"><a xlink:href="MPISingleton_8hpp.html" target="_top" xlink:title=" ">
<polygon fill="white" stroke="#666666" points="237.5,-19 136.5,-19 136.5,0 237.5,0 237.5,-19"/>
<text text-anchor="middle" x="187" y="-7" font-family="Helvetica,sans-Serif" font-size="10.00">MPISingleton.hpp</text>
</a>
</g>
</g>
<!-- Node2&#45;&gt;Node4 -->
<g id="edge3_Node000002_Node000004" class="edge">
<title>Node2&#45;&gt;Node4</title>
<g id="a_edge3_Node000002_Node000004"><a xlink:title=" ">
<path fill="none" stroke="#63b8ff" d="M187,-44.66C187,-35.93 187,-25.99 187,-19.09"/>
<polygon fill="#63b8ff" stroke="#63b8ff" points="183.5,-44.75 187,-54.75 190.5,-44.75 183.5,-44.75"/>
</a>
</g>
</g>
<!-- Node6&#45;&gt;Node5 -->
<g id="edge6_Node000006_Node000005" class="edge">
<title>Node6&#45;&gt;Node5</title>
<g id="a_edge6_Node000006_Node000005"><a xlink:title=" ">
<path fill="none" stroke="#63b8ff" d="M343.17,-46.1C337.53,-37.04 330.88,-26.37 326.35,-19.09"/>
<polygon fill="#63b8ff" stroke="#63b8ff" points="340.29,-48.11 348.55,-54.75 346.24,-44.41 340.29,-48.11"/>
</a>
</g>
</g>
<!-- Node7 -->
<g id="Node000007" class="node">
<title>Node7</title>
<g id="a_Node000007"><a xlink:href="MPISerialImpl_8hpp.html" target="_top" xlink:title=" ">
<polygon fill="white" stroke="#666666" points="509.5,-19 404.5,-19 404.5,0 509.5,0 509.5,-19"/>
<text text-anchor="middle" x="457" y="-7" font-family="Helvetica,sans-Serif" font-size="10.00">MPISerialImpl.hpp</text>
</a>
</g>
</g>
<!-- Node6&#45;&gt;Node7 -->
<g id="edge7_Node000006_Node000007" class="edge">
<title>Node6&#45;&gt;Node7</title>
<g id="a_edge7_Node000006_Node000007"><a xlink:title=" ">
<path fill="none" stroke="#63b8ff" d="M379.52,-50.37C398.44,-40.63 423.7,-27.64 440.15,-19.17"/>
<polygon fill="#63b8ff" stroke="#63b8ff" points="377.84,-47.3 370.55,-54.98 381.04,-53.52 377.84,-47.3"/>
</a>
</g>
</g>
</g>
</svg>
