<?xml version="1.0" encoding="UTF-8" standalone="no"?>
<!DOCTYPE svg PUBLIC "-//W3C//DTD SVG 1.1//EN"
 "http://www.w3.org/Graphics/SVG/1.1/DTD/svg11.dtd">
<!-- Generated by graphviz version 2.43.0 (0)
 -->
<!-- Title: MPISingleton.hpp Pages: 1 -->
<svg width="1255pt" height="575pt"
 viewBox="0.00 0.00 1254.82 575.00" xmlns="http://www.w3.org/2000/svg" xmlns:xlink="http://www.w3.org/1999/xlink">
<g id="graph0" class="graph" transform="scale(1 1) rotate(0) translate(4 571)">
<title>MPISingleton.hpp</title>
<polygon fill="white" stroke="transparent" points="-4,4 -4,-571 1250.82,-571 1250.82,4 -4,4"/>
<!-- Node1 -->
<g id="node1" class="node">
<title>Node1</title>
<g id="a_node1"><a xlink:title=" ">
<polygon fill="#bfbfbf" stroke="black" points="314.87,-547.5 314.87,-566.5 415.87,-566.5 415.87,-547.5 314.87,-547.5"/>
<text text-anchor="middle" x="365.37" y="-554.5" font-family="Helvetica,sans-Serif" font-size="10.00">MPISingleton.hpp</text>
</a>
</g>
</g>
<!-- Node2 -->
<g id="node2" class="node">
<title>Node2</title>
<g id="a_node2"><a xlink:href="MPI_8hpp.html" target="_top" xlink:title=" ">
<polygon fill="white" stroke="black" points="302.87,-480.5 302.87,-510.5 427.87,-510.5 427.87,-480.5 302.87,-480.5"/>
<text text-anchor="start" x="310.87" y="-498.5" font-family="Helvetica,sans-Serif" font-size="10.00">packages/concurrency</text>
<text text-anchor="middle" x="365.37" y="-487.5" font-family="Helvetica,sans-Serif" font-size="10.00">/inc/MPI.hpp</text>
</a>
</g>
</g>
<!-- Node1&#45;&gt;Node2 -->
<g id="edge1" class="edge">
<title>Node1&#45;&gt;Node2</title>
<path fill="none" stroke="midnightblue" d="M365.37,-547.48C365.37,-540.47 365.37,-530.19 365.37,-520.7"/>
<polygon fill="midnightblue" stroke="midnightblue" points="368.87,-520.52 365.37,-510.52 361.87,-520.52 368.87,-520.52"/>
</g>
<!-- Node28 -->
<g id="node28" class="node">
<title>Node28</title>
<g id="a_node28"><a xlink:title=" ">
<polygon fill="white" stroke="#bfbfbf" points="29.37,-140 29.37,-159 87.37,-159 87.37,-140 29.37,-140"/>
<text text-anchor="middle" x="58.37" y="-147" font-family="Helvetica,sans-Serif" font-size="10.00">memory</text>
</a>
</g>
</g>
<!-- Node1&#45;&gt;Node28 -->
<g id="edge59" class="edge">
<title>Node1&#45;&gt;Node28</title>
<path fill="none" stroke="midnightblue" d="M314.61,-552.37C247.6,-544.61 131.47,-520.27 74.37,-444 10.82,-359.12 39.89,-218.67 53.1,-168.78"/>
<polygon fill="midnightblue" stroke="midnightblue" points="56.49,-169.65 55.77,-159.08 49.74,-167.78 56.49,-169.65"/>
</g>
<!-- Node40 -->
<g id="node40" class="node">
<title>Node40</title>
<g id="a_node40"><a xlink:title=" ">
<polygon fill="white" stroke="#bfbfbf" points="446.37,-486 446.37,-505 494.37,-505 494.37,-486 446.37,-486"/>
<text text-anchor="middle" x="470.37" y="-493" font-family="Helvetica,sans-Serif" font-size="10.00">mutex</text>
</a>
</g>
</g>
<!-- Node1&#45;&gt;Node40 -->
<g id="edge58" class="edge">
<title>Node1&#45;&gt;Node40</title>
<path fill="none" stroke="midnightblue" d="M380.41,-547.48C397.65,-537.71 426.11,-521.58 446.4,-510.08"/>
<polygon fill="midnightblue" stroke="midnightblue" points="448.38,-512.98 455.35,-505.01 444.93,-506.89 448.38,-512.98"/>
</g>
<!-- Node3 -->
<g id="node3" class="node">
<title>Node3</title>
<g id="a_node3"><a xlink:href="mpi__fwd_8hpp.html" target="_top" xlink:title=" ">
<polygon fill="white" stroke="black" points="105.87,-413.5 105.87,-443.5 230.87,-443.5 230.87,-413.5 105.87,-413.5"/>
<text text-anchor="start" x="113.87" y="-431.5" font-family="Helvetica,sans-Serif" font-size="10.00">packages/concurrency</text>
<text text-anchor="middle" x="168.37" y="-420.5" font-family="Helvetica,sans-Serif" font-size="10.00">/inc/mpi_fwd.hpp</text>
</a>
</g>
</g>
<!-- Node2&#45;&gt;Node3 -->
<g id="edge2" class="edge">
<title>Node2&#45;&gt;Node3</title>
<path fill="none" stroke="midnightblue" d="M322.62,-480.4C292.68,-470.52 252.48,-457.25 220.63,-446.74"/>
<polygon fill="midnightblue" stroke="midnightblue" points="221.63,-443.39 211.03,-443.58 219.43,-450.03 221.63,-443.39"/>
</g>
<!-- Node4 -->
<g id="node4" class="node">
<title>Node4</title>
<g id="a_node4"><a xlink:href="Serializer_8hpp.html" target="_top" xlink:title=" ">
<polygon fill="white" stroke="black" points="609.87,-419 609.87,-438 770.87,-438 770.87,-419 609.87,-419"/>
<text text-anchor="middle" x="690.37" y="-426" font-family="Helvetica,sans-Serif" font-size="10.00">packages/io/inc/Serializer.hpp</text>
</a>
</g>
</g>
<!-- Node2&#45;&gt;Node4 -->
<g id="edge3" class="edge">
<title>Node2&#45;&gt;Node4</title>
<path fill="none" stroke="midnightblue" d="M428.2,-481.84C431.3,-481.22 434.37,-480.6 437.37,-480 506.54,-466.13 586.36,-450.21 637.55,-440.02"/>
<polygon fill="midnightblue" stroke="midnightblue" points="638.27,-443.44 647.39,-438.06 636.9,-436.58 638.27,-443.44"/>
</g>
<!-- Node6 -->
<g id="node6" class="node">
<title>Node6</title>
<g id="a_node6"><a xlink:href="types_8hpp.html" target="_top" xlink:title=" ">
<polygon fill="white" stroke="black" points="851.37,-134.5 851.37,-164.5 961.37,-164.5 961.37,-134.5 851.37,-134.5"/>
<text text-anchor="start" x="859.37" y="-152.5" font-family="Helvetica,sans-Serif" font-size="10.00">packages/types/inc</text>
<text text-anchor="middle" x="906.37" y="-141.5" font-family="Helvetica,sans-Serif" font-size="10.00">/types.hpp</text>
</a>
</g>
</g>
<!-- Node2&#45;&gt;Node6 -->
<g id="edge53" class="edge">
<title>Node2&#45;&gt;Node6</title>
<path fill="none" stroke="midnightblue" d="M428.13,-481.47C431.25,-480.95 434.34,-480.45 437.37,-480 616.61,-453.28 1244.37,-543.72 1244.37,-362.5 1244.37,-362.5 1244.37,-362.5 1244.37,-288 1244.37,-248.42 1254.16,-228.16 1225.37,-201 1189.75,-167.38 1054.17,-156.13 971.66,-152.37"/>
<polygon fill="midnightblue" stroke="midnightblue" points="971.76,-148.87 961.62,-151.94 971.46,-155.87 971.76,-148.87"/>
</g>
<!-- Node11 -->
<g id="node11" class="node">
<title>Node11</title>
<g id="a_node11"><a xlink:title=" ">
<polygon fill="white" stroke="#bfbfbf" points="131.37,-73 131.37,-92 175.37,-92 175.37,-73 131.37,-73"/>
<text text-anchor="middle" x="153.37" y="-80" font-family="Helvetica,sans-Serif" font-size="10.00">string</text>
</a>
</g>
</g>
<!-- Node2&#45;&gt;Node11 -->
<g id="edge55" class="edge">
<title>Node2&#45;&gt;Node11</title>
<path fill="none" stroke="midnightblue" d="M302.63,-490.32C228.08,-484.23 109.37,-470.61 74.37,-444 14.07,-398.16 1.37,-365.74 1.37,-290 1.37,-290 1.37,-290 1.37,-215.5 1.37,-178.31 -4.11,-162 20.37,-134 46.04,-104.64 90.63,-92.29 121.05,-87.13"/>
<polygon fill="midnightblue" stroke="midnightblue" points="121.8,-90.56 131.16,-85.59 120.75,-83.64 121.8,-90.56"/>
</g>
<!-- Node2&#45;&gt;Node28 -->
<g id="edge54" class="edge">
<title>Node2&#45;&gt;Node28</title>
<path fill="none" stroke="midnightblue" d="M302.71,-490.54C232.68,-484.8 125.29,-471.69 96.37,-444 69.51,-418.28 77.37,-399.69 77.37,-362.5 77.37,-362.5 77.37,-362.5 77.37,-288 77.37,-245.18 68.22,-195.55 62.62,-169.2"/>
<polygon fill="midnightblue" stroke="midnightblue" points="65.97,-168.15 60.4,-159.13 59.13,-169.65 65.97,-168.15"/>
</g>
<!-- Node35 -->
<g id="node35" class="node">
<title>Node35</title>
<g id="a_node35"><a xlink:href="RankID_8hpp.html" target="_top" xlink:title=" ">
<polygon fill="white" stroke="black" points="756.87,-346.5 756.87,-376.5 881.87,-376.5 881.87,-346.5 756.87,-346.5"/>
<text text-anchor="start" x="764.87" y="-364.5" font-family="Helvetica,sans-Serif" font-size="10.00">packages/concurrency</text>
<text text-anchor="middle" x="819.37" y="-353.5" font-family="Helvetica,sans-Serif" font-size="10.00">/inc/RankID.hpp</text>
</a>
</g>
</g>
<!-- Node2&#45;&gt;Node35 -->
<g id="edge48" class="edge">
<title>Node2&#45;&gt;Node35</title>
<path fill="none" stroke="midnightblue" d="M428.14,-481.5C431.25,-480.97 434.35,-480.46 437.37,-480 512.91,-468.44 716.72,-487.76 779.37,-444 798.56,-430.6 808.95,-405.32 814.28,-386.45"/>
<polygon fill="midnightblue" stroke="midnightblue" points="817.68,-387.3 816.76,-376.75 810.9,-385.58 817.68,-387.3"/>
</g>
<!-- Node37 -->
<g id="node37" class="node">
<title>Node37</title>
<g id="a_node37"><a xlink:href="MessageTag_8hpp.html" target="_top" xlink:title=" ">
<polygon fill="white" stroke="black" points="248.87,-413.5 248.87,-443.5 373.87,-443.5 373.87,-413.5 248.87,-413.5"/>
<text text-anchor="start" x="256.87" y="-431.5" font-family="Helvetica,sans-Serif" font-size="10.00">packages/concurrency</text>
<text text-anchor="middle" x="311.37" y="-420.5" font-family="Helvetica,sans-Serif" font-size="10.00">/inc/MessageTag.hpp</text>
</a>
</g>
</g>
<!-- Node2&#45;&gt;Node37 -->
<g id="edge52" class="edge">
<title>Node2&#45;&gt;Node37</title>
<path fill="none" stroke="midnightblue" d="M353.65,-480.4C346.65,-471.96 337.6,-461.07 329.67,-451.52"/>
<polygon fill="midnightblue" stroke="midnightblue" points="332.15,-449.03 323.06,-443.58 326.76,-453.51 332.15,-449.03"/>
</g>
<!-- Node38 -->
<g id="node38" class="node">
<title>Node38</title>
<g id="a_node38"><a xlink:title=" ">
<polygon fill="white" stroke="#bfbfbf" points="392.37,-419 392.37,-438 448.37,-438 448.37,-419 392.37,-419"/>
<text text-anchor="middle" x="420.37" y="-426" font-family="Helvetica,sans-Serif" font-size="10.00">optional</text>
</a>
</g>
</g>
<!-- Node2&#45;&gt;Node38 -->
<g id="edge56" class="edge">
<title>Node2&#45;&gt;Node38</title>
<path fill="none" stroke="midnightblue" d="M377.3,-480.4C385.88,-470.26 397.47,-456.57 406.46,-445.94"/>
<polygon fill="midnightblue" stroke="midnightblue" points="409.23,-448.09 413.01,-438.19 403.88,-443.57 409.23,-448.09"/>
</g>
<!-- Node39 -->
<g id="node39" class="node">
<title>Node39</title>
<g id="a_node39"><a xlink:title=" ">
<polygon fill="white" stroke="#bfbfbf" points="466.87,-413.5 466.87,-443.5 591.87,-443.5 591.87,-413.5 466.87,-413.5"/>
<text text-anchor="start" x="474.87" y="-431.5" font-family="Helvetica,sans-Serif" font-size="10.00">packages/concurrency</text>
<text text-anchor="middle" x="529.37" y="-420.5" font-family="Helvetica,sans-Serif" font-size="10.00">/impl/MPI_impl.hpp</text>
</a>
</g>
</g>
<!-- Node2&#45;&gt;Node39 -->
<g id="edge57" class="edge">
<title>Node2&#45;&gt;Node39</title>
<path fill="none" stroke="midnightblue" d="M400.96,-480.4C425.46,-470.69 458.2,-457.71 484.49,-447.29"/>
<polygon fill="midnightblue" stroke="midnightblue" points="485.85,-450.51 493.85,-443.58 483.27,-444.01 485.85,-450.51"/>
</g>
<!-- Node5 -->
<g id="node5" class="node">
<title>Node5</title>
<g id="a_node5"><a xlink:href="basic__concepts_8hpp.html" target="_top" xlink:title=" ">
<polygon fill="white" stroke="black" points="564.37,-268.5 564.37,-309.5 696.37,-309.5 696.37,-268.5 564.37,-268.5"/>
<text text-anchor="start" x="572.37" y="-297.5" font-family="Helvetica,sans-Serif" font-size="10.00">packages/compile_time</text>
<text text-anchor="start" x="572.37" y="-286.5" font-family="Helvetica,sans-Serif" font-size="10.00">/packages/concepts/inc</text>
<text text-anchor="middle" x="630.37" y="-275.5" font-family="Helvetica,sans-Serif" font-size="10.00">/basic_concepts.hpp</text>
</a>
</g>
</g>
<!-- Node4&#45;&gt;Node5 -->
<g id="edge4" class="edge">
<title>Node4&#45;&gt;Node5</title>
<path fill="none" stroke="midnightblue" d="M688.63,-418.64C685.44,-403.35 677.9,-371.22 666.37,-346 662.05,-336.56 656.34,-326.85 650.73,-318.23"/>
<polygon fill="midnightblue" stroke="midnightblue" points="653.48,-316.03 644.99,-309.68 647.66,-319.94 653.48,-316.03"/>
</g>
<!-- Node4&#45;&gt;Node6 -->
<g id="edge27" class="edge">
<title>Node4&#45;&gt;Node6</title>
<path fill="none" stroke="midnightblue" d="M690.85,-418.65C692.72,-392.29 701.7,-313.33 743.37,-268 770.86,-238.1 793.91,-255.03 827.37,-232 851.5,-215.39 874.25,-190.58 889.08,-172.7"/>
<polygon fill="midnightblue" stroke="midnightblue" points="892.11,-174.52 895.7,-164.55 886.68,-170.11 892.11,-174.52"/>
</g>
<!-- Node4&#45;&gt;Node11 -->
<g id="edge46" class="edge">
<title>Node4&#45;&gt;Node11</title>
<path fill="none" stroke="midnightblue" d="M637.55,-418.99C625.34,-417.02 612.4,-414.94 600.37,-413 490.59,-395.34 115.37,-401.19 115.37,-290 115.37,-290 115.37,-290 115.37,-215.5 115.37,-173.35 133.48,-126.48 144.7,-101.5"/>
<polygon fill="midnightblue" stroke="midnightblue" points="147.98,-102.76 149.01,-92.21 141.63,-99.81 147.98,-102.76"/>
</g>
<!-- Node19 -->
<g id="node19" class="node">
<title>Node19</title>
<g id="a_node19"><a xlink:href="Traits_8hpp.html" target="_top" xlink:title=" ">
<polygon fill="white" stroke="black" points="904.37,-352 904.37,-371 1046.37,-371 1046.37,-352 904.37,-352"/>
<text text-anchor="middle" x="975.37" y="-359" font-family="Helvetica,sans-Serif" font-size="10.00">packages/io/inc/Traits.hpp</text>
</a>
</g>
</g>
<!-- Node4&#45;&gt;Node19 -->
<g id="edge19" class="edge">
<title>Node4&#45;&gt;Node19</title>
<path fill="none" stroke="midnightblue" d="M727.92,-418.94C779.29,-407.22 871.49,-386.19 927.68,-373.38"/>
<polygon fill="midnightblue" stroke="midnightblue" points="928.76,-376.72 937.74,-371.08 927.21,-369.89 928.76,-376.72"/>
</g>
<!-- Node20 -->
<g id="node20" class="node">
<title>Node20</title>
<g id="a_node20"><a xlink:href="tags_8hpp.html" target="_top" xlink:title=" ">
<polygon fill="white" stroke="black" points="1040.37,-274 1040.37,-304 1150.37,-304 1150.37,-274 1040.37,-274"/>
<text text-anchor="start" x="1048.37" y="-292" font-family="Helvetica,sans-Serif" font-size="10.00">packages/types/inc</text>
<text text-anchor="middle" x="1095.37" y="-281" font-family="Helvetica,sans-Serif" font-size="10.00">/tags.hpp</text>
</a>
</g>
</g>
<!-- Node4&#45;&gt;Node20 -->
<g id="edge26" class="edge">
<title>Node4&#45;&gt;Node20</title>
<path fill="none" stroke="midnightblue" d="M771.08,-425.22C864.65,-421.08 1011.65,-409.46 1055.37,-377 1075.62,-361.96 1085.92,-334.19 1090.95,-314.06"/>
<polygon fill="midnightblue" stroke="midnightblue" points="1094.42,-314.59 1093.18,-304.06 1087.58,-313.06 1094.42,-314.59"/>
</g>
<!-- Node24 -->
<g id="node24" class="node">
<title>Node24</title>
<g id="a_node24"><a xlink:href="checks_8hpp.html" target="_top" xlink:title=" ">
<polygon fill="white" stroke="black" points="385.87,-346.5 385.87,-376.5 504.87,-376.5 504.87,-346.5 385.87,-346.5"/>
<text text-anchor="start" x="393.87" y="-364.5" font-family="Helvetica,sans-Serif" font-size="10.00">packages/macros/inc</text>
<text text-anchor="middle" x="445.37" y="-353.5" font-family="Helvetica,sans-Serif" font-size="10.00">/checks.hpp</text>
</a>
</g>
</g>
<!-- Node4&#45;&gt;Node24 -->
<g id="edge28" class="edge">
<title>Node4&#45;&gt;Node24</title>
<path fill="none" stroke="midnightblue" d="M658.09,-418.94C620.12,-408.86 556.2,-391.9 508.32,-379.2"/>
<polygon fill="midnightblue" stroke="midnightblue" points="508.93,-375.74 498.36,-376.56 507.13,-382.51 508.93,-375.74"/>
</g>
<!-- Node34 -->
<g id="node34" class="node">
<title>Node34</title>
<g id="a_node34"><a xlink:title=" ">
<polygon fill="white" stroke="#bfbfbf" points="616.87,-352 616.87,-371 657.87,-371 657.87,-352 616.87,-352"/>
<text text-anchor="middle" x="637.37" y="-359" font-family="Helvetica,sans-Serif" font-size="10.00">tuple</text>
</a>
</g>
</g>
<!-- Node4&#45;&gt;Node34 -->
<g id="edge47" class="edge">
<title>Node4&#45;&gt;Node34</title>
<path fill="none" stroke="midnightblue" d="M683.22,-418.73C674.96,-408.6 661.17,-391.69 650.87,-379.06"/>
<polygon fill="midnightblue" stroke="midnightblue" points="653.44,-376.67 644.41,-371.13 648.01,-381.09 653.44,-376.67"/>
</g>
<!-- Node5&#45;&gt;Node6 -->
<g id="edge5" class="edge">
<title>Node5&#45;&gt;Node6</title>
<path fill="none" stroke="midnightblue" d="M696.62,-269.09C725.81,-259.65 760.07,-247.01 789.37,-232 807.44,-222.74 850.39,-191.89 878.92,-170.91"/>
<polygon fill="midnightblue" stroke="midnightblue" points="881.29,-173.51 887.26,-164.76 877.14,-167.88 881.29,-173.51"/>
</g>
<!-- Node12 -->
<g id="node12" class="node">
<title>Node12</title>
<g id="a_node12"><a xlink:title=" ">
<polygon fill="white" stroke="#bfbfbf" points="621.87,-73 621.87,-92 690.87,-92 690.87,-73 621.87,-73"/>
<text text-anchor="middle" x="656.37" y="-80" font-family="Helvetica,sans-Serif" font-size="10.00">type_traits</text>
</a>
</g>
</g>
<!-- Node5&#45;&gt;Node12 -->
<g id="edge16" class="edge">
<title>Node5&#45;&gt;Node12</title>
<path fill="none" stroke="midnightblue" d="M690.22,-268.48C718.71,-257.86 748.32,-244.39 756.37,-232 788.67,-182.3 717.35,-124.23 678.87,-97.85"/>
<polygon fill="midnightblue" stroke="midnightblue" points="680.58,-94.78 670.32,-92.14 676.69,-100.6 680.58,-94.78"/>
</g>
<!-- Node16 -->
<g id="node16" class="node">
<title>Node16</title>
<g id="a_node16"><a xlink:title=" ">
<polygon fill="white" stroke="#bfbfbf" points="555.37,-207 555.37,-226 615.37,-226 615.37,-207 555.37,-207"/>
<text text-anchor="middle" x="585.37" y="-214" font-family="Helvetica,sans-Serif" font-size="10.00">concepts</text>
</a>
</g>
</g>
<!-- Node5&#45;&gt;Node16 -->
<g id="edge15" class="edge">
<title>Node5&#45;&gt;Node16</title>
<path fill="none" stroke="midnightblue" d="M617.84,-268.36C611.13,-257.86 602.96,-245.05 596.48,-234.91"/>
<polygon fill="midnightblue" stroke="midnightblue" points="599.24,-232.72 590.91,-226.17 593.34,-236.49 599.24,-232.72"/>
</g>
<!-- Node17 -->
<g id="node17" class="node">
<title>Node17</title>
<g id="a_node17"><a xlink:title=" ">
<polygon fill="white" stroke="#bfbfbf" points="697.37,-207 697.37,-226 747.37,-226 747.37,-207 697.37,-207"/>
<text text-anchor="middle" x="722.37" y="-214" font-family="Helvetica,sans-Serif" font-size="10.00">cstdint</text>
</a>
</g>
</g>
<!-- Node5&#45;&gt;Node17 -->
<g id="edge17" class="edge">
<title>Node5&#45;&gt;Node17</title>
<path fill="none" stroke="midnightblue" d="M656,-268.36C670.83,-257 689.2,-242.92 702.85,-232.46"/>
<polygon fill="midnightblue" stroke="midnightblue" points="705.24,-235.03 711.05,-226.17 700.99,-229.48 705.24,-235.03"/>
</g>
<!-- Node18 -->
<g id="node18" class="node">
<title>Node18</title>
<g id="a_node18"><a xlink:title=" ">
<polygon fill="white" stroke="#bfbfbf" points="633.87,-207 633.87,-226 678.87,-226 678.87,-207 633.87,-207"/>
<text text-anchor="middle" x="656.37" y="-214" font-family="Helvetica,sans-Serif" font-size="10.00">utility</text>
</a>
</g>
</g>
<!-- Node5&#45;&gt;Node18 -->
<g id="edge18" class="edge">
<title>Node5&#45;&gt;Node18</title>
<path fill="none" stroke="midnightblue" d="M637.61,-268.36C641.36,-258.19 645.92,-245.84 649.6,-235.86"/>
<polygon fill="midnightblue" stroke="midnightblue" points="653,-236.77 653.17,-226.17 646.43,-234.34 653,-236.77"/>
</g>
<!-- Node7 -->
<g id="node7" class="node">
<title>Node7</title>
<g id="a_node7"><a xlink:href="debug_8hpp.html" target="_top" xlink:title=" ">
<polygon fill="white" stroke="black" points="845.87,-67.5 845.87,-97.5 964.87,-97.5 964.87,-67.5 845.87,-67.5"/>
<text text-anchor="start" x="853.87" y="-85.5" font-family="Helvetica,sans-Serif" font-size="10.00">packages/macros/inc</text>
<text text-anchor="middle" x="905.37" y="-74.5" font-family="Helvetica,sans-Serif" font-size="10.00">/debug.hpp</text>
</a>
</g>
</g>
<!-- Node6&#45;&gt;Node7 -->
<g id="edge6" class="edge">
<title>Node6&#45;&gt;Node7</title>
<path fill="none" stroke="midnightblue" d="M906.15,-134.4C906.03,-126.64 905.88,-116.81 905.75,-107.86"/>
<polygon fill="midnightblue" stroke="midnightblue" points="909.24,-107.52 905.59,-97.58 902.24,-107.63 909.24,-107.52"/>
</g>
<!-- Node10 -->
<g id="node10" class="node">
<title>Node10</title>
<g id="a_node10"><a xlink:title=" ">
<polygon fill="white" stroke="#bfbfbf" points="982.87,-73 982.87,-92 1035.87,-92 1035.87,-73 982.87,-73"/>
<text text-anchor="middle" x="1009.37" y="-80" font-family="Helvetica,sans-Serif" font-size="10.00">cstddef</text>
</a>
</g>
</g>
<!-- Node6&#45;&gt;Node10 -->
<g id="edge9" class="edge">
<title>Node6&#45;&gt;Node10</title>
<path fill="none" stroke="midnightblue" d="M928.72,-134.4C945.99,-123.5 969.79,-108.48 987.05,-97.58"/>
<polygon fill="midnightblue" stroke="midnightblue" points="989.3,-100.3 995.89,-92.01 985.57,-94.38 989.3,-100.3"/>
</g>
<!-- Node6&#45;&gt;Node11 -->
<g id="edge10" class="edge">
<title>Node6&#45;&gt;Node11</title>
<path fill="none" stroke="midnightblue" d="M851.31,-143.75C703.69,-131 302.4,-96.36 185.64,-86.29"/>
<polygon fill="midnightblue" stroke="midnightblue" points="185.82,-82.79 175.56,-85.42 185.22,-89.76 185.82,-82.79"/>
</g>
<!-- Node6&#45;&gt;Node12 -->
<g id="edge11" class="edge">
<title>Node6&#45;&gt;Node12</title>
<path fill="none" stroke="midnightblue" d="M851.12,-136.38C809.22,-126.86 750.35,-112.79 699.37,-98 696.44,-97.15 693.41,-96.22 690.38,-95.27"/>
<polygon fill="midnightblue" stroke="midnightblue" points="691.41,-91.92 680.81,-92.15 689.24,-98.58 691.41,-91.92"/>
</g>
<!-- Node13 -->
<g id="node13" class="node">
<title>Node13</title>
<g id="a_node13"><a xlink:title=" ">
<polygon fill="white" stroke="#bfbfbf" points="1054.37,-73 1054.37,-92 1104.37,-92 1104.37,-73 1054.37,-73"/>
<text text-anchor="middle" x="1079.37" y="-80" font-family="Helvetica,sans-Serif" font-size="10.00">climits</text>
</a>
</g>
</g>
<!-- Node6&#45;&gt;Node13 -->
<g id="edge12" class="edge">
<title>Node6&#45;&gt;Node13</title>
<path fill="none" stroke="midnightblue" d="M946.09,-134.46C973.76,-124.56 1011.45,-110.84 1044.37,-98 1046.01,-97.36 1047.7,-96.69 1049.39,-96.02"/>
<polygon fill="midnightblue" stroke="midnightblue" points="1051.13,-99.09 1059.07,-92.08 1048.49,-92.6 1051.13,-99.09"/>
</g>
<!-- Node14 -->
<g id="node14" class="node">
<title>Node14</title>
<g id="a_node14"><a xlink:title=" ">
<polygon fill="white" stroke="#bfbfbf" points="1122.87,-67.5 1122.87,-97.5 1239.87,-97.5 1239.87,-67.5 1122.87,-67.5"/>
<text text-anchor="start" x="1130.87" y="-85.5" font-family="Helvetica,sans-Serif" font-size="10.00">packages/types/impl</text>
<text text-anchor="middle" x="1181.37" y="-74.5" font-family="Helvetica,sans-Serif" font-size="10.00">/types_impl.hpp</text>
</a>
</g>
</g>
<!-- Node6&#45;&gt;Node14 -->
<g id="edge13" class="edge">
<title>Node6&#45;&gt;Node14</title>
<path fill="none" stroke="midnightblue" d="M961.69,-135.42C1005.23,-125.13 1066.15,-110.73 1112.79,-99.71"/>
<polygon fill="midnightblue" stroke="midnightblue" points="1113.89,-103.05 1122.81,-97.34 1112.28,-96.23 1113.89,-103.05"/>
</g>
<!-- Node15 -->
<g id="node15" class="node">
<title>Node15</title>
<g id="a_node15"><a xlink:href="logging_8hpp.html" target="_top" xlink:title=" ">
<polygon fill="white" stroke="black" points="708.87,-67.5 708.87,-97.5 827.87,-97.5 827.87,-67.5 708.87,-67.5"/>
<text text-anchor="start" x="716.87" y="-85.5" font-family="Helvetica,sans-Serif" font-size="10.00">packages/macros/inc</text>
<text text-anchor="middle" x="768.37" y="-74.5" font-family="Helvetica,sans-Serif" font-size="10.00">/logging.hpp</text>
</a>
</g>
</g>
<!-- Node6&#45;&gt;Node15 -->
<g id="edge14" class="edge">
<title>Node6&#45;&gt;Node15</title>
<path fill="none" stroke="midnightblue" d="M876.43,-134.4C856.17,-124.86 829.22,-112.16 807.31,-101.84"/>
<polygon fill="midnightblue" stroke="midnightblue" points="808.79,-98.67 798.26,-97.58 805.81,-105 808.79,-98.67"/>
</g>
<!-- Node8 -->
<g id="node8" class="node">
<title>Node8</title>
<g id="a_node8"><a xlink:href="detail_8hpp.html" target="_top" xlink:title=" ">
<polygon fill="white" stroke="black" points="533.87,-0.5 533.87,-30.5 652.87,-30.5 652.87,-0.5 533.87,-0.5"/>
<text text-anchor="start" x="541.87" y="-18.5" font-family="Helvetica,sans-Serif" font-size="10.00">packages/macros/inc</text>
<text text-anchor="middle" x="593.37" y="-7.5" font-family="Helvetica,sans-Serif" font-size="10.00">/detail.hpp</text>
</a>
</g>
</g>
<!-- Node7&#45;&gt;Node8 -->
<g id="edge7" class="edge">
<title>Node7&#45;&gt;Node8</title>
<path fill="none" stroke="midnightblue" d="M845.53,-68.92C842.43,-68.27 839.37,-67.63 836.37,-67 778.09,-54.82 711.94,-41.08 663.38,-31.01"/>
<polygon fill="midnightblue" stroke="midnightblue" points="663.8,-27.52 653.3,-28.91 662.38,-34.37 663.8,-27.52"/>
</g>
<!-- Node9 -->
<g id="node9" class="node">
<title>Node9</title>
<g id="a_node9"><a xlink:title=" ">
<polygon fill="white" stroke="#bfbfbf" points="875.37,-6 875.37,-25 935.37,-25 935.37,-6 875.37,-6"/>
<text text-anchor="middle" x="905.37" y="-13" font-family="Helvetica,sans-Serif" font-size="10.00">iostream</text>
</a>
</g>
</g>
<!-- Node7&#45;&gt;Node9 -->
<g id="edge8" class="edge">
<title>Node7&#45;&gt;Node9</title>
<path fill="none" stroke="midnightblue" d="M905.37,-67.4C905.37,-58.06 905.37,-45.71 905.37,-35.52"/>
<polygon fill="midnightblue" stroke="midnightblue" points="908.87,-35.19 905.37,-25.19 901.87,-35.19 908.87,-35.19"/>
</g>
<!-- Node19&#45;&gt;Node6 -->
<g id="edge20" class="edge">
<title>Node19&#45;&gt;Node6</title>
<path fill="none" stroke="midnightblue" d="M979.9,-351.9C988.01,-335.33 1003.26,-297.99 993.37,-268 980.71,-229.62 950.14,-193.53 928.84,-171.72"/>
<polygon fill="midnightblue" stroke="midnightblue" points="931.28,-169.22 921.74,-164.63 926.34,-174.17 931.28,-169.22"/>
</g>
<!-- Node19&#45;&gt;Node20 -->
<g id="edge21" class="edge">
<title>Node19&#45;&gt;Node20</title>
<path fill="none" stroke="midnightblue" d="M990.08,-351.86C1008.07,-341.29 1039.02,-323.11 1062.72,-309.18"/>
<polygon fill="midnightblue" stroke="midnightblue" points="1064.56,-312.16 1071.41,-304.08 1061.02,-306.12 1064.56,-312.16"/>
</g>
<!-- Node23 -->
<g id="node23" class="node">
<title>Node23</title>
<g id="a_node23"><a xlink:title=" ">
<polygon fill="white" stroke="#bfbfbf" points="936.37,-279.5 936.37,-298.5 984.37,-298.5 984.37,-279.5 936.37,-279.5"/>
<text text-anchor="middle" x="960.37" y="-286.5" font-family="Helvetica,sans-Serif" font-size="10.00">iosfwd</text>
</a>
</g>
</g>
<!-- Node19&#45;&gt;Node23 -->
<g id="edge25" class="edge">
<title>Node19&#45;&gt;Node23</title>
<path fill="none" stroke="midnightblue" d="M973.53,-351.86C971.26,-341.18 967.33,-322.72 964.36,-308.73"/>
<polygon fill="midnightblue" stroke="midnightblue" points="967.73,-307.77 962.22,-298.72 960.88,-309.22 967.73,-307.77"/>
</g>
<!-- Node20&#45;&gt;Node6 -->
<g id="edge22" class="edge">
<title>Node20&#45;&gt;Node6</title>
<path fill="none" stroke="midnightblue" d="M1078.43,-273.95C1056.98,-256.32 1018.65,-225.46 984.37,-201 969.36,-190.29 952.21,-179.08 937.82,-169.95"/>
<polygon fill="midnightblue" stroke="midnightblue" points="939.58,-166.93 929.26,-164.56 935.85,-172.85 939.58,-166.93"/>
</g>
<!-- Node21 -->
<g id="node21" class="node">
<title>Node21</title>
<g id="a_node21"><a xlink:title=" ">
<polygon fill="white" stroke="#bfbfbf" points="1172.37,-207 1172.37,-226 1216.37,-226 1216.37,-207 1172.37,-207"/>
<text text-anchor="middle" x="1194.37" y="-214" font-family="Helvetica,sans-Serif" font-size="10.00">bitset</text>
</a>
</g>
</g>
<!-- Node20&#45;&gt;Node21 -->
<g id="edge23" class="edge">
<title>Node20&#45;&gt;Node21</title>
<path fill="none" stroke="midnightblue" d="M1115.4,-273.73C1132.44,-261.6 1156.79,-244.26 1173.93,-232.05"/>
<polygon fill="midnightblue" stroke="midnightblue" points="1176.05,-234.84 1182.17,-226.19 1171.99,-229.14 1176.05,-234.84"/>
</g>
<!-- Node22 -->
<g id="node22" class="node">
<title>Node22</title>
<g id="a_node22"><a xlink:title=" ">
<polygon fill="white" stroke="#bfbfbf" points="1036.87,-201.5 1036.87,-231.5 1153.87,-231.5 1153.87,-201.5 1036.87,-201.5"/>
<text text-anchor="start" x="1044.87" y="-219.5" font-family="Helvetica,sans-Serif" font-size="10.00">packages/types/impl</text>
<text text-anchor="middle" x="1095.37" y="-208.5" font-family="Helvetica,sans-Serif" font-size="10.00">/tags_impl.hpp</text>
</a>
</g>
</g>
<!-- Node20&#45;&gt;Node22 -->
<g id="edge24" class="edge">
<title>Node20&#45;&gt;Node22</title>
<path fill="none" stroke="midnightblue" d="M1095.37,-273.73C1095.37,-264.66 1095.37,-252.66 1095.37,-242.08"/>
<polygon fill="midnightblue" stroke="midnightblue" points="1098.87,-241.75 1095.37,-231.75 1091.87,-241.75 1098.87,-241.75"/>
</g>
<!-- Node24&#45;&gt;Node8 -->
<g id="edge41" class="edge">
<title>Node24&#45;&gt;Node8</title>
<path fill="none" stroke="midnightblue" d="M457.93,-346.44C466.43,-336.59 477.67,-322.93 486.37,-310 517.25,-264.13 516.37,-247.46 546.37,-201 557.22,-184.2 565.79,-183.51 573.37,-165 590.32,-123.62 593.52,-70.86 593.8,-40.66"/>
<polygon fill="midnightblue" stroke="midnightblue" points="597.3,-40.61 593.79,-30.61 590.3,-40.62 597.3,-40.61"/>
</g>
<!-- Node25 -->
<g id="node25" class="node">
<title>Node25</title>
<g id="a_node25"><a xlink:href="exception_8hpp.html" target="_top" xlink:title=" ">
<polygon fill="white" stroke="black" points="305.87,-201.5 305.87,-231.5 424.87,-231.5 424.87,-201.5 305.87,-201.5"/>
<text text-anchor="start" x="313.87" y="-219.5" font-family="Helvetica,sans-Serif" font-size="10.00">packages/exceptions</text>
<text text-anchor="middle" x="365.37" y="-208.5" font-family="Helvetica,sans-Serif" font-size="10.00">/inc/exception.hpp</text>
</a>
</g>
</g>
<!-- Node24&#45;&gt;Node25 -->
<g id="edge29" class="edge">
<title>Node24&#45;&gt;Node25</title>
<path fill="none" stroke="midnightblue" d="M385.73,-347.95C365.26,-340.49 344.47,-328.66 332.37,-310 318.15,-288.07 332.8,-259.23 346.84,-239.62"/>
<polygon fill="midnightblue" stroke="midnightblue" points="349.68,-241.66 352.93,-231.58 344.1,-237.43 349.68,-241.66"/>
</g>
<!-- Node30 -->
<g id="node30" class="node">
<title>Node30</title>
<g id="a_node30"><a xlink:href="exceptions_8hpp.html" target="_top" xlink:title=" ">
<polygon fill="white" stroke="black" points="341.87,-274 341.87,-304 460.87,-304 460.87,-274 341.87,-274"/>
<text text-anchor="start" x="349.87" y="-292" font-family="Helvetica,sans-Serif" font-size="10.00">packages/macros/inc</text>
<text text-anchor="middle" x="401.37" y="-281" font-family="Helvetica,sans-Serif" font-size="10.00">/exceptions.hpp</text>
</a>
</g>
</g>
<!-- Node24&#45;&gt;Node30 -->
<g id="edge36" class="edge">
<title>Node24&#45;&gt;Node30</title>
<path fill="none" stroke="midnightblue" d="M436.47,-346.23C430.5,-336.68 422.52,-323.89 415.67,-312.92"/>
<polygon fill="midnightblue" stroke="midnightblue" points="418.53,-310.88 410.26,-304.25 412.59,-314.58 418.53,-310.88"/>
</g>
<!-- Node31 -->
<g id="node31" class="node">
<title>Node31</title>
<g id="a_node31"><a xlink:title=" ">
<polygon fill="white" stroke="#bfbfbf" points="443.37,-207 443.37,-226 499.37,-226 499.37,-207 443.37,-207"/>
<text text-anchor="middle" x="471.37" y="-214" font-family="Helvetica,sans-Serif" font-size="10.00">sstream</text>
</a>
</g>
</g>
<!-- Node24&#45;&gt;Node31 -->
<g id="edge45" class="edge">
<title>Node24&#45;&gt;Node31</title>
<path fill="none" stroke="midnightblue" d="M454.24,-346.08C459.74,-336.3 466.33,-322.85 469.37,-310 475.29,-285.03 474.6,-255.2 473.24,-236.31"/>
<polygon fill="midnightblue" stroke="midnightblue" points="476.73,-235.99 472.39,-226.33 469.76,-236.59 476.73,-235.99"/>
</g>
<!-- Node32 -->
<g id="node32" class="node">
<title>Node32</title>
<g id="a_node32"><a xlink:href="cmake__variables_8hpp.html" target="_top" xlink:title=" ">
<polygon fill="white" stroke="black" points="155.37,-279.5 155.37,-298.5 275.37,-298.5 275.37,-279.5 155.37,-279.5"/>
<text text-anchor="middle" x="215.37" y="-286.5" font-family="Helvetica,sans-Serif" font-size="10.00">cmake_variables.hpp</text>
</a>
</g>
</g>
<!-- Node24&#45;&gt;Node32 -->
<g id="edge42" class="edge">
<title>Node24&#45;&gt;Node32</title>
<path fill="none" stroke="midnightblue" d="M399.65,-346.49C356.66,-333.31 293.07,-313.82 252.95,-301.52"/>
<polygon fill="midnightblue" stroke="midnightblue" points="253.87,-298.14 243.28,-298.55 251.82,-304.83 253.87,-298.14"/>
</g>
<!-- Node25&#45;&gt;Node6 -->
<g id="edge30" class="edge">
<title>Node25&#45;&gt;Node6</title>
<path fill="none" stroke="midnightblue" d="M425.14,-202.56C428.26,-202 431.35,-201.48 434.37,-201 578.79,-178.16 749.73,-162.72 841.07,-155.4"/>
<polygon fill="midnightblue" stroke="midnightblue" points="841.58,-158.87 851.27,-154.59 841.02,-151.89 841.58,-158.87"/>
</g>
<!-- Node25&#45;&gt;Node11 -->
<g id="edge32" class="edge">
<title>Node25&#45;&gt;Node11</title>
<path fill="none" stroke="midnightblue" d="M332.18,-201.38C311.32,-192.02 284.14,-178.94 261.37,-165 227.74,-144.41 191.77,-115.78 171,-98.51"/>
<polygon fill="midnightblue" stroke="midnightblue" points="173.23,-95.81 163.32,-92.06 168.73,-101.17 173.23,-95.81"/>
</g>
<!-- Node26 -->
<g id="node26" class="node">
<title>Node26</title>
<g id="a_node26"><a xlink:title=" ">
<polygon fill="white" stroke="#bfbfbf" points="434.87,-140 434.87,-159 499.87,-159 499.87,-140 434.87,-140"/>
<text text-anchor="middle" x="467.37" y="-147" font-family="Helvetica,sans-Serif" font-size="10.00">stdexcept</text>
</a>
</g>
</g>
<!-- Node25&#45;&gt;Node26 -->
<g id="edge31" class="edge">
<title>Node25&#45;&gt;Node26</title>
<path fill="none" stroke="midnightblue" d="M387.5,-201.4C404.61,-190.5 428.17,-175.48 445.27,-164.58"/>
<polygon fill="midnightblue" stroke="midnightblue" points="447.47,-167.33 454.02,-159.01 443.71,-161.43 447.47,-167.33"/>
</g>
<!-- Node27 -->
<g id="node27" class="node">
<title>Node27</title>
<g id="a_node27"><a xlink:title=" ">
<polygon fill="white" stroke="#bfbfbf" points="517.87,-140 517.87,-159 564.87,-159 564.87,-140 517.87,-140"/>
<text text-anchor="middle" x="541.37" y="-147" font-family="Helvetica,sans-Serif" font-size="10.00">deque</text>
</a>
</g>
</g>
<!-- Node25&#45;&gt;Node27 -->
<g id="edge33" class="edge">
<title>Node25&#45;&gt;Node27</title>
<path fill="none" stroke="midnightblue" d="M407.91,-201.4C436.52,-191.7 474.95,-178.22 508.37,-165 509.97,-164.37 511.61,-163.7 513.26,-163.02"/>
<polygon fill="midnightblue" stroke="midnightblue" points="514.8,-166.17 522.63,-159.03 512.05,-159.73 514.8,-166.17"/>
</g>
<!-- Node25&#45;&gt;Node28 -->
<g id="edge34" class="edge">
<title>Node25&#45;&gt;Node28</title>
<path fill="none" stroke="midnightblue" d="M305.81,-202.89C244.35,-189.88 150.23,-169.95 97.55,-158.8"/>
<polygon fill="midnightblue" stroke="midnightblue" points="98.1,-155.33 87.59,-156.69 96.65,-162.18 98.1,-155.33"/>
</g>
<!-- Node29 -->
<g id="node29" class="node">
<title>Node29</title>
<g id="a_node29"><a xlink:title=" ">
<polygon fill="white" stroke="#bfbfbf" points="270.37,-134.5 270.37,-164.5 416.37,-164.5 416.37,-134.5 270.37,-134.5"/>
<text text-anchor="start" x="278.37" y="-152.5" font-family="Helvetica,sans-Serif" font-size="10.00">packages/exceptions</text>
<text text-anchor="middle" x="343.37" y="-141.5" font-family="Helvetica,sans-Serif" font-size="10.00">/impl/exceptions_impl.hpp</text>
</a>
</g>
</g>
<!-- Node25&#45;&gt;Node29 -->
<g id="edge35" class="edge">
<title>Node25&#45;&gt;Node29</title>
<path fill="none" stroke="midnightblue" d="M360.6,-201.4C357.92,-193.47 354.5,-183.38 351.42,-174.27"/>
<polygon fill="midnightblue" stroke="midnightblue" points="354.66,-172.93 348.13,-164.58 348.03,-175.17 354.66,-172.93"/>
</g>
<!-- Node30&#45;&gt;Node8 -->
<g id="edge38" class="edge">
<title>Node30&#45;&gt;Node8</title>
<path fill="none" stroke="midnightblue" d="M362.58,-273.97C341.03,-264.67 314.92,-250.71 296.37,-232 263.81,-199.16 234.67,-171.77 261.37,-134 320.56,-50.26 444.7,-25.81 523.27,-18.91"/>
<polygon fill="midnightblue" stroke="midnightblue" points="523.89,-22.37 533.57,-18.08 523.32,-15.39 523.89,-22.37"/>
</g>
<!-- Node30&#45;&gt;Node16 -->
<g id="edge40" class="edge">
<title>Node30&#45;&gt;Node16</title>
<path fill="none" stroke="midnightblue" d="M438.16,-273.9C472,-260.94 521.64,-241.92 553.74,-229.62"/>
<polygon fill="midnightblue" stroke="midnightblue" points="555.01,-232.88 563.1,-226.03 552.51,-226.34 555.01,-232.88"/>
</g>
<!-- Node30&#45;&gt;Node25 -->
<g id="edge37" class="edge">
<title>Node30&#45;&gt;Node25</title>
<path fill="none" stroke="midnightblue" d="M394.09,-273.73C389.25,-264.27 382.81,-251.64 377.24,-240.75"/>
<polygon fill="midnightblue" stroke="midnightblue" points="380.31,-239.06 372.64,-231.75 374.08,-242.24 380.31,-239.06"/>
</g>
<!-- Node30&#45;&gt;Node31 -->
<g id="edge39" class="edge">
<title>Node30&#45;&gt;Node31</title>
<path fill="none" stroke="midnightblue" d="M415.54,-273.73C427.07,-262.12 443.35,-245.72 455.36,-233.62"/>
<polygon fill="midnightblue" stroke="midnightblue" points="457.98,-235.96 462.54,-226.39 453.01,-231.02 457.98,-235.96"/>
</g>
<!-- Node32&#45;&gt;Node11 -->
<g id="edge44" class="edge">
<title>Node32&#45;&gt;Node11</title>
<path fill="none" stroke="midnightblue" d="M206.4,-279.45C196.29,-269.21 180.22,-251.04 172.37,-232 154.35,-188.28 152.35,-131.7 152.7,-102.62"/>
<polygon fill="midnightblue" stroke="midnightblue" points="156.2,-102.35 152.94,-92.27 149.2,-102.19 156.2,-102.35"/>
</g>
<!-- Node33 -->
<g id="node33" class="node">
<title>Node33</title>
<g id="a_node33"><a xlink:title=" ">
<polygon fill="white" stroke="#bfbfbf" points="181.37,-207 181.37,-226 249.37,-226 249.37,-207 181.37,-207"/>
<text text-anchor="middle" x="215.37" y="-214" font-family="Helvetica,sans-Serif" font-size="10.00">filesystem</text>
</a>
</g>
</g>
<!-- Node32&#45;&gt;Node33 -->
<g id="edge43" class="edge">
<title>Node32&#45;&gt;Node33</title>
<path fill="none" stroke="midnightblue" d="M215.37,-279.36C215.37,-268.68 215.37,-250.22 215.37,-236.23"/>
<polygon fill="midnightblue" stroke="midnightblue" points="218.87,-236.22 215.37,-226.22 211.87,-236.22 218.87,-236.22"/>
</g>
<!-- Node35&#45;&gt;Node6 -->
<g id="edge49" class="edge">
<title>Node35&#45;&gt;Node6</title>
<path fill="none" stroke="midnightblue" d="M849.28,-346.47C863.86,-338.02 880.19,-325.81 889.37,-310 913.99,-267.59 912.78,-208.06 909.63,-175.02"/>
<polygon fill="midnightblue" stroke="midnightblue" points="913.09,-174.46 908.52,-164.9 906.13,-175.22 913.09,-174.46"/>
</g>
<!-- Node35&#45;&gt;Node23 -->
<g id="edge50" class="edge">
<title>Node35&#45;&gt;Node23</title>
<path fill="none" stroke="midnightblue" d="M848.78,-346.36C869.45,-336.35 897.69,-322.54 922.37,-310 926.52,-307.89 930.91,-305.62 935.17,-303.39"/>
<polygon fill="midnightblue" stroke="midnightblue" points="936.93,-306.42 944.15,-298.67 933.67,-300.23 936.93,-306.42"/>
</g>
<!-- Node36 -->
<g id="node36" class="node">
<title>Node36</title>
<g id="a_node36"><a xlink:title=" ">
<polygon fill="white" stroke="#bfbfbf" points="752.37,-274 752.37,-304 880.37,-304 880.37,-274 752.37,-274"/>
<text text-anchor="start" x="760.37" y="-292" font-family="Helvetica,sans-Serif" font-size="10.00">packages/concurrency</text>
<text text-anchor="middle" x="816.37" y="-281" font-family="Helvetica,sans-Serif" font-size="10.00">/impl/RankID_impl.hpp</text>
</a>
</g>
</g>
<!-- Node35&#45;&gt;Node36 -->
<g id="edge51" class="edge">
<title>Node35&#45;&gt;Node36</title>
<path fill="none" stroke="midnightblue" d="M818.76,-346.23C818.37,-337.06 817.86,-324.91 817.4,-314.24"/>
<polygon fill="midnightblue" stroke="midnightblue" points="820.9,-314.09 816.98,-304.25 813.91,-314.39 820.9,-314.09"/>
</g>
</g>
</svg>
