<?xml version="1.0" encoding="UTF-8" standalone="no"?>
<!DOCTYPE svg PUBLIC "-//W3C//DTD SVG 1.1//EN"
 "http://www.w3.org/Graphics/SVG/1.1/DTD/svg11.dtd">
<!-- Generated by graphviz version 2.43.0 (0)
 -->
<!-- Title: NChooseK.hpp Pages: 1 -->
<svg width="689pt" height="225pt"
 viewBox="0.00 0.00 688.50 225.00" xmlns="http://www.w3.org/2000/svg" xmlns:xlink="http://www.w3.org/1999/xlink">
<g id="graph0" class="graph" transform="scale(1 1) rotate(0) translate(4 221)">
<title>NChooseK.hpp</title>
<!-- Node1 -->
<g id="Node000001" class="node">
<title>Node1</title>
<g id="a_Node000001"><a xlink:title=" ">
<polygon fill="#999999" stroke="#666666" points="309,-217 221,-217 221,-198 309,-198 309,-217"/>
<text text-anchor="middle" x="265" y="-205" font-family="Helvetica,sans-Serif" font-size="10.00">NChooseK.hpp</text>
</a>
</g>
</g>
<!-- Node2 -->
<g id="Node000002" class="node">
<title>Node2</title>
<g id="a_Node000002"><a xlink:href="types_8hpp.html" target="_top" xlink:title=" ">
<polygon fill="white" stroke="#666666" points="320,-162 210,-162 210,-132 320,-132 320,-162"/>
<text text-anchor="start" x="218" y="-150" font-family="Helvetica,sans-Serif" font-size="10.00">packages/types/inc</text>
<text text-anchor="middle" x="265" y="-139" font-family="Helvetica,sans-Serif" font-size="10.00">/types.hpp</text>
</a>
</g>
</g>
<!-- Node1&#45;&gt;Node2 -->
<g id="edge1_Node000001_Node000002" class="edge">
<title>Node1&#45;&gt;Node2</title>
<g id="a_edge1_Node000001_Node000002"><a xlink:title=" ">
<path fill="none" stroke="#63b8ff" d="M265,-197.87C265,-191.11 265,-181.35 265,-172.26"/>
<polygon fill="#63b8ff" stroke="#63b8ff" points="268.5,-172.11 265,-162.11 261.5,-172.11 268.5,-172.11"/>
</a>
</g>
</g>
<!-- Node7 -->
<g id="Node000007" class="node">
<title>Node7</title>
<g id="a_Node000007"><a xlink:title=" ">
<polygon fill="#e0e0e0" stroke="#999999" points="44,-90.5 0,-90.5 0,-71.5 44,-71.5 44,-90.5"/>
<text text-anchor="middle" x="22" y="-78.5" font-family="Helvetica,sans-Serif" font-size="10.00">string</text>
</a>
</g>
</g>
<!-- Node1&#45;&gt;Node7 -->
<g id="edge12_Node000001_Node000007" class="edge">
<title>Node1&#45;&gt;Node7</title>
<g id="a_edge12_Node000001_Node000007"><a xlink:title=" ">
<path fill="none" stroke="#63b8ff" d="M248.3,-197.94C206.68,-176.62 98.12,-121 48.02,-95.33"/>
<polygon fill="#63b8ff" stroke="#63b8ff" points="49.32,-92.06 38.82,-90.62 46.12,-98.29 49.32,-92.06"/>
</a>
</g>
</g>
<!-- Node12 -->
<g id="Node000012" class="node">
<title>Node12</title>
<g id="a_Node000012"><a xlink:title=" ">
<polygon fill="#e0e0e0" stroke="#999999" points="385.5,-156.5 338.5,-156.5 338.5,-137.5 385.5,-137.5 385.5,-156.5"/>
<text text-anchor="middle" x="362" y="-144.5" font-family="Helvetica,sans-Serif" font-size="10.00">vector</text>
</a>
</g>
</g>
<!-- Node1&#45;&gt;Node12 -->
<g id="edge11_Node000001_Node000012" class="edge">
<title>Node1&#45;&gt;Node12</title>
<g id="a_edge11_Node000001_Node000012"><a xlink:title=" ">
<path fill="none" stroke="#63b8ff" d="M279.31,-197.87C295,-188.41 320.4,-173.09 338.91,-161.92"/>
<polygon fill="#63b8ff" stroke="#63b8ff" points="340.87,-164.83 347.63,-156.67 337.26,-158.83 340.87,-164.83"/>
</a>
</g>
</g>
<!-- Node3 -->
<g id="Node000003" class="node">
<title>Node3</title>
<g id="a_Node000003"><a xlink:href="debug_8hpp.html" target="_top" xlink:title=" ">
<polygon fill="white" stroke="#666666" points="181.5,-96 62.5,-96 62.5,-66 181.5,-66 181.5,-96"/>
<text text-anchor="start" x="70.5" y="-84" font-family="Helvetica,sans-Serif" font-size="10.00">packages/macros/inc</text>
<text text-anchor="middle" x="122" y="-73" font-family="Helvetica,sans-Serif" font-size="10.00">/debug.hpp</text>
</a>
</g>
</g>
<!-- Node2&#45;&gt;Node3 -->
<g id="edge2_Node000002_Node000003" class="edge">
<title>Node2&#45;&gt;Node3</title>
<g id="a_edge2_Node000002_Node000003"><a xlink:title=" ">
<path fill="none" stroke="#63b8ff" d="M233.62,-131.95C212.76,-122.62 185.16,-110.27 162.62,-100.18"/>
<polygon fill="#63b8ff" stroke="#63b8ff" points="163.87,-96.9 153.31,-96.01 161.01,-103.29 163.87,-96.9"/>
</a>
</g>
</g>
<!-- Node6 -->
<g id="Node000006" class="node">
<title>Node6</title>
<g id="a_Node000006"><a xlink:title=" ">
<polygon fill="#e0e0e0" stroke="#999999" points="252.5,-90.5 199.5,-90.5 199.5,-71.5 252.5,-71.5 252.5,-90.5"/>
<text text-anchor="middle" x="226" y="-78.5" font-family="Helvetica,sans-Serif" font-size="10.00">cstddef</text>
</a>
</g>
</g>
<!-- Node2&#45;&gt;Node6 -->
<g id="edge5_Node000002_Node000006" class="edge">
<title>Node2&#45;&gt;Node6</title>
<g id="a_edge5_Node000002_Node000006"><a xlink:title=" ">
<path fill="none" stroke="#63b8ff" d="M256.34,-131.8C250.56,-122.31 242.92,-109.76 236.74,-99.63"/>
<polygon fill="#63b8ff" stroke="#63b8ff" points="239.58,-97.56 231.39,-90.84 233.6,-101.21 239.58,-97.56"/>
</a>
</g>
</g>
<!-- Node2&#45;&gt;Node7 -->
<g id="edge6_Node000002_Node000007" class="edge">
<title>Node2&#45;&gt;Node7</title>
<g id="a_edge6_Node000002_Node000007"><a xlink:title=" ">
<path fill="none" stroke="#63b8ff" d="M209.72,-136C166.45,-127.45 105.09,-113.72 53,-96 51.6,-95.52 50.18,-95.01 48.76,-94.46"/>
<polygon fill="#63b8ff" stroke="#63b8ff" points="50.05,-91.21 39.47,-90.6 47.35,-97.67 50.05,-91.21"/>
</a>
</g>
</g>
<!-- Node8 -->
<g id="Node000008" class="node">
<title>Node8</title>
<g id="a_Node000008"><a xlink:title=" ">
<polygon fill="#e0e0e0" stroke="#999999" points="339.5,-90.5 270.5,-90.5 270.5,-71.5 339.5,-71.5 339.5,-90.5"/>
<text text-anchor="middle" x="305" y="-78.5" font-family="Helvetica,sans-Serif" font-size="10.00">type_traits</text>
</a>
</g>
</g>
<!-- Node2&#45;&gt;Node8 -->
<g id="edge7_Node000002_Node000008" class="edge">
<title>Node2&#45;&gt;Node8</title>
<g id="a_edge7_Node000002_Node000008"><a xlink:title=" ">
<path fill="none" stroke="#63b8ff" d="M273.88,-131.8C279.81,-122.31 287.65,-109.76 293.98,-99.63"/>
<polygon fill="#63b8ff" stroke="#63b8ff" points="297.14,-101.18 299.47,-90.84 291.2,-97.47 297.14,-101.18"/>
</a>
</g>
</g>
<!-- Node9 -->
<g id="Node000009" class="node">
<title>Node9</title>
<g id="a_Node000009"><a xlink:title=" ">
<polygon fill="#e0e0e0" stroke="#999999" points="408,-90.5 358,-90.5 358,-71.5 408,-71.5 408,-90.5"/>
<text text-anchor="middle" x="383" y="-78.5" font-family="Helvetica,sans-Serif" font-size="10.00">climits</text>
</a>
</g>
</g>
<!-- Node2&#45;&gt;Node9 -->
<g id="edge8_Node000002_Node000009" class="edge">
<title>Node2&#45;&gt;Node9</title>
<g id="a_edge8_Node000002_Node000009"><a xlink:title=" ">
<path fill="none" stroke="#63b8ff" d="M290.9,-131.95C310.95,-121.08 338.55,-106.11 358.3,-95.4"/>
<polygon fill="#63b8ff" stroke="#63b8ff" points="360.17,-98.36 367.3,-90.52 356.84,-92.21 360.17,-98.36"/>
</a>
</g>
</g>
<!-- Node10 -->
<g id="Node000010" class="node">
<title>Node10</title>
<g id="a_Node000010"><a xlink:title=" ">
<polygon fill="#e0e0e0" stroke="#999999" points="543.5,-96 426.5,-96 426.5,-66 543.5,-66 543.5,-96"/>
<text text-anchor="start" x="434.5" y="-84" font-family="Helvetica,sans-Serif" font-size="10.00">packages/types/impl</text>
<text text-anchor="middle" x="485" y="-73" font-family="Helvetica,sans-Serif" font-size="10.00">/types_impl.hpp</text>
</a>
</g>
</g>
<!-- Node2&#45;&gt;Node10 -->
<g id="edge9_Node000002_Node000010" class="edge">
<title>Node2&#45;&gt;Node10</title>
<g id="a_edge9_Node000002_Node000010"><a xlink:title=" ">
<path fill="none" stroke="#63b8ff" d="M313.28,-131.95C346.81,-122.2 391.65,-109.16 427.1,-98.84"/>
<polygon fill="#63b8ff" stroke="#63b8ff" points="428.21,-102.17 436.83,-96.01 426.25,-95.44 428.21,-102.17"/>
</a>
</g>
</g>
<!-- Node11 -->
<g id="Node000011" class="node">
<title>Node11</title>
<g id="a_Node000011"><a xlink:href="logging_8hpp.html" target="_top" xlink:title=" ">
<polygon fill="white" stroke="#666666" points="680.5,-96 561.5,-96 561.5,-66 680.5,-66 680.5,-96"/>
<text text-anchor="start" x="569.5" y="-84" font-family="Helvetica,sans-Serif" font-size="10.00">packages/macros/inc</text>
<text text-anchor="middle" x="621" y="-73" font-family="Helvetica,sans-Serif" font-size="10.00">/logging.hpp</text>
</a>
</g>
</g>
<!-- Node2&#45;&gt;Node11 -->
<g id="edge10_Node000002_Node000011" class="edge">
<title>Node2&#45;&gt;Node11</title>
<g id="a_edge10_Node000002_Node000011"><a xlink:title=" ">
<path fill="none" stroke="#63b8ff" d="M320.28,-133.89C323.56,-133.23 326.82,-132.6 330,-132 425.48,-114.02 452.53,-114.1 551.22,-96.28"/>
<polygon fill="#63b8ff" stroke="#63b8ff" points="552.11,-99.67 561.32,-94.44 550.86,-92.79 552.11,-99.67"/>
</a>
</g>
</g>
<!-- Node4 -->
<g id="Node000004" class="node">
<title>Node4</title>
<g id="a_Node000004"><a xlink:href="detail_8hpp.html" target="_top" xlink:title=" ">
<polygon fill="white" stroke="#666666" points="127.5,-30 8.5,-30 8.5,0 127.5,0 127.5,-30"/>
<text text-anchor="start" x="16.5" y="-18" font-family="Helvetica,sans-Serif" font-size="10.00">packages/macros/inc</text>
<text text-anchor="middle" x="68" y="-7" font-family="Helvetica,sans-Serif" font-size="10.00">/detail.hpp</text>
</a>
</g>
</g>
<!-- Node3&#45;&gt;Node4 -->
<g id="edge3_Node000003_Node000004" class="edge">
<title>Node3&#45;&gt;Node4</title>
<g id="a_edge3_Node000003_Node000004"><a xlink:title=" ">
<path fill="none" stroke="#63b8ff" d="M110.02,-65.8C103.09,-57.59 94.24,-47.1 86.45,-37.87"/>
<polygon fill="#63b8ff" stroke="#63b8ff" points="89.07,-35.55 79.95,-30.16 83.72,-40.06 89.07,-35.55"/>
</a>
</g>
</g>
<!-- Node5 -->
<g id="Node000005" class="node">
<title>Node5</title>
<g id="a_Node000005"><a xlink:title=" ">
<polygon fill="#e0e0e0" stroke="#999999" points="206,-24.5 146,-24.5 146,-5.5 206,-5.5 206,-24.5"/>
<text text-anchor="middle" x="176" y="-12.5" font-family="Helvetica,sans-Serif" font-size="10.00">iostream</text>
</a>
</g>
</g>
<!-- Node3&#45;&gt;Node5 -->
<g id="edge4_Node000003_Node000005" class="edge">
<title>Node3&#45;&gt;Node5</title>
<g id="a_edge4_Node000003_Node000005"><a xlink:title=" ">
<path fill="none" stroke="#63b8ff" d="M133.98,-65.8C142.24,-56.01 153.24,-42.98 161.91,-32.7"/>
<polygon fill="#63b8ff" stroke="#63b8ff" points="164.76,-34.74 168.54,-24.84 159.41,-30.23 164.76,-34.74"/>
</a>
</g>
</g>
</g>
</svg>
