<?xml version="1.0" encoding="UTF-8" standalone="no"?>
<!DOCTYPE svg PUBLIC "-//W3C//DTD SVG 1.1//EN"
 "http://www.w3.org/Graphics/SVG/1.1/DTD/svg11.dtd">
<!-- Generated by graphviz version 2.43.0 (0)
 -->
<!-- Title: NoOpIterator.hpp Pages: 1 -->
<svg width="927pt" height="385pt"
 viewBox="0.00 0.00 927.00 385.00" xmlns="http://www.w3.org/2000/svg" xmlns:xlink="http://www.w3.org/1999/xlink">
<g id="graph0" class="graph" transform="scale(1 1) rotate(0) translate(4 381)">
<title>NoOpIterator.hpp</title>
<polygon fill="white" stroke="transparent" points="-4,4 -4,-381 923,-381 923,4 -4,4"/>
<!-- Node1 -->
<g id="node1" class="node">
<title>Node1</title>
<g id="a_node1"><a xlink:title=" ">
<polygon fill="#bfbfbf" stroke="black" points="546.5,-357.5 546.5,-376.5 646.5,-376.5 646.5,-357.5 546.5,-357.5"/>
<text text-anchor="middle" x="596.5" y="-364.5" font-family="Helvetica,sans-Serif" font-size="10.00">NoOpIterator.hpp</text>
</a>
</g>
</g>
<!-- Node2 -->
<g id="node2" class="node">
<title>Node2</title>
<g id="a_node2"><a xlink:href="basic__concepts_8hpp.html" target="_top" xlink:title=" ">
<polygon fill="white" stroke="black" points="760.5,-201.5 760.5,-242.5 892.5,-242.5 892.5,-201.5 760.5,-201.5"/>
<text text-anchor="start" x="768.5" y="-230.5" font-family="Helvetica,sans-Serif" font-size="10.00">packages/compile_time</text>
<text text-anchor="start" x="768.5" y="-219.5" font-family="Helvetica,sans-Serif" font-size="10.00">/packages/concepts/inc</text>
<text text-anchor="middle" x="826.5" y="-208.5" font-family="Helvetica,sans-Serif" font-size="10.00">/basic_concepts.hpp</text>
</a>
</g>
</g>
<!-- Node1&#45;&gt;Node2 -->
<g id="edge1" class="edge">
<title>Node1&#45;&gt;Node2</title>
<path fill="none" stroke="midnightblue" d="M610.94,-357.47C626.09,-348.5 650.56,-333.9 671.5,-321 711.27,-296.5 756.36,-267.9 787.61,-247.94"/>
<polygon fill="midnightblue" stroke="midnightblue" points="789.5,-250.88 796.05,-242.55 785.73,-244.99 789.5,-250.88"/>
</g>
<!-- Node3 -->
<g id="node3" class="node">
<title>Node3</title>
<g id="a_node3"><a xlink:href="types_8hpp.html" target="_top" xlink:title=" ">
<polygon fill="white" stroke="black" points="299.5,-134.5 299.5,-164.5 409.5,-164.5 409.5,-134.5 299.5,-134.5"/>
<text text-anchor="start" x="307.5" y="-152.5" font-family="Helvetica,sans-Serif" font-size="10.00">packages/types/inc</text>
<text text-anchor="middle" x="354.5" y="-141.5" font-family="Helvetica,sans-Serif" font-size="10.00">/types.hpp</text>
</a>
</g>
</g>
<!-- Node1&#45;&gt;Node3 -->
<g id="edge26" class="edge">
<title>Node1&#45;&gt;Node3</title>
<path fill="none" stroke="midnightblue" d="M546.37,-363.76C471.84,-357.4 333.9,-333.34 271.5,-243 260.89,-227.64 262.35,-217.27 271.5,-201 279.16,-187.37 292.16,-176.99 305.62,-169.29"/>
<polygon fill="midnightblue" stroke="midnightblue" points="307.27,-172.38 314.48,-164.62 304,-166.19 307.27,-172.38"/>
</g>
<!-- Node16 -->
<g id="node16" class="node">
<title>Node16</title>
<g id="a_node16"><a xlink:href="iterator__concepts_8hpp.html" target="_top" xlink:title=" ">
<polygon fill="white" stroke="black" points="530.5,-279.5 530.5,-320.5 662.5,-320.5 662.5,-279.5 530.5,-279.5"/>
<text text-anchor="start" x="538.5" y="-308.5" font-family="Helvetica,sans-Serif" font-size="10.00">packages/compile_time</text>
<text text-anchor="start" x="538.5" y="-297.5" font-family="Helvetica,sans-Serif" font-size="10.00">/packages/concepts/inc</text>
<text text-anchor="middle" x="596.5" y="-286.5" font-family="Helvetica,sans-Serif" font-size="10.00">/iterator_concepts.hpp</text>
</a>
</g>
</g>
<!-- Node1&#45;&gt;Node16 -->
<g id="edge16" class="edge">
<title>Node1&#45;&gt;Node16</title>
<path fill="none" stroke="midnightblue" d="M596.5,-357.23C596.5,-350.36 596.5,-340.38 596.5,-330.73"/>
<polygon fill="midnightblue" stroke="midnightblue" points="600,-330.54 596.5,-320.54 593,-330.54 600,-330.54"/>
</g>
<!-- Node2&#45;&gt;Node3 -->
<g id="edge2" class="edge">
<title>Node2&#45;&gt;Node3</title>
<path fill="none" stroke="midnightblue" d="M760.36,-202.85C757.37,-202.19 754.41,-201.57 751.5,-201 635.84,-178.33 499.15,-163.53 420.08,-156.12"/>
<polygon fill="midnightblue" stroke="midnightblue" points="420.06,-152.61 409.78,-155.17 419.42,-159.58 420.06,-152.61"/>
</g>
<!-- Node9 -->
<g id="node9" class="node">
<title>Node9</title>
<g id="a_node9"><a xlink:title=" ">
<polygon fill="white" stroke="#bfbfbf" points="665,-73 665,-92 734,-92 734,-73 665,-73"/>
<text text-anchor="middle" x="699.5" y="-80" font-family="Helvetica,sans-Serif" font-size="10.00">type_traits</text>
</a>
</g>
</g>
<!-- Node2&#45;&gt;Node9 -->
<g id="edge13" class="edge">
<title>Node2&#45;&gt;Node9</title>
<path fill="none" stroke="midnightblue" d="M767.25,-201.48C749.24,-192.89 730.94,-181.01 718.5,-165 704.39,-146.85 700.46,-119.99 699.52,-102.13"/>
<polygon fill="midnightblue" stroke="midnightblue" points="703.02,-102.01 699.26,-92.1 696.02,-102.19 703.02,-102.01"/>
</g>
<!-- Node13 -->
<g id="node13" class="node">
<title>Node13</title>
<g id="a_node13"><a xlink:title=" ">
<polygon fill="white" stroke="#bfbfbf" points="727.5,-140 727.5,-159 787.5,-159 787.5,-140 727.5,-140"/>
<text text-anchor="middle" x="757.5" y="-147" font-family="Helvetica,sans-Serif" font-size="10.00">concepts</text>
</a>
</g>
</g>
<!-- Node2&#45;&gt;Node13 -->
<g id="edge12" class="edge">
<title>Node2&#45;&gt;Node13</title>
<path fill="none" stroke="midnightblue" d="M807.28,-201.36C796.48,-190.32 783.17,-176.72 773.03,-166.37"/>
<polygon fill="midnightblue" stroke="midnightblue" points="775.48,-163.87 765.99,-159.17 770.48,-168.77 775.48,-163.87"/>
</g>
<!-- Node14 -->
<g id="node14" class="node">
<title>Node14</title>
<g id="a_node14"><a xlink:title=" ">
<polygon fill="white" stroke="#bfbfbf" points="805.5,-140 805.5,-159 855.5,-159 855.5,-140 805.5,-140"/>
<text text-anchor="middle" x="830.5" y="-147" font-family="Helvetica,sans-Serif" font-size="10.00">cstdint</text>
</a>
</g>
</g>
<!-- Node2&#45;&gt;Node14 -->
<g id="edge14" class="edge">
<title>Node2&#45;&gt;Node14</title>
<path fill="none" stroke="midnightblue" d="M827.61,-201.36C828.19,-191.3 828.88,-179.1 829.44,-169.18"/>
<polygon fill="midnightblue" stroke="midnightblue" points="832.94,-169.36 830.01,-159.17 825.95,-168.96 832.94,-169.36"/>
</g>
<!-- Node15 -->
<g id="node15" class="node">
<title>Node15</title>
<g id="a_node15"><a xlink:title=" ">
<polygon fill="white" stroke="#bfbfbf" points="874,-140 874,-159 919,-159 919,-140 874,-140"/>
<text text-anchor="middle" x="896.5" y="-147" font-family="Helvetica,sans-Serif" font-size="10.00">utility</text>
</a>
</g>
</g>
<!-- Node2&#45;&gt;Node15 -->
<g id="edge15" class="edge">
<title>Node2&#45;&gt;Node15</title>
<path fill="none" stroke="midnightblue" d="M846,-201.36C856.96,-190.32 870.46,-176.72 880.75,-166.37"/>
<polygon fill="midnightblue" stroke="midnightblue" points="883.33,-168.74 887.89,-159.17 878.36,-163.8 883.33,-168.74"/>
</g>
<!-- Node4 -->
<g id="node4" class="node">
<title>Node4</title>
<g id="a_node4"><a xlink:href="debug_8hpp.html" target="_top" xlink:title=" ">
<polygon fill="white" stroke="black" points="54,-67.5 54,-97.5 173,-97.5 173,-67.5 54,-67.5"/>
<text text-anchor="start" x="62" y="-85.5" font-family="Helvetica,sans-Serif" font-size="10.00">packages/macros/inc</text>
<text text-anchor="middle" x="113.5" y="-74.5" font-family="Helvetica,sans-Serif" font-size="10.00">/debug.hpp</text>
</a>
</g>
</g>
<!-- Node3&#45;&gt;Node4 -->
<g id="edge3" class="edge">
<title>Node3&#45;&gt;Node4</title>
<path fill="none" stroke="midnightblue" d="M302.5,-134.48C265.25,-124.43 214.93,-110.86 175.57,-100.24"/>
<polygon fill="midnightblue" stroke="midnightblue" points="176.39,-96.84 165.82,-97.61 174.56,-103.59 176.39,-96.84"/>
</g>
<!-- Node7 -->
<g id="node7" class="node">
<title>Node7</title>
<g id="a_node7"><a xlink:title=" ">
<polygon fill="white" stroke="#bfbfbf" points="191,-73 191,-92 244,-92 244,-73 191,-73"/>
<text text-anchor="middle" x="217.5" y="-80" font-family="Helvetica,sans-Serif" font-size="10.00">cstddef</text>
</a>
</g>
</g>
<!-- Node3&#45;&gt;Node7 -->
<g id="edge6" class="edge">
<title>Node3&#45;&gt;Node7</title>
<path fill="none" stroke="midnightblue" d="M324.77,-134.4C300.95,-123.09 267.79,-107.36 244.67,-96.39"/>
<polygon fill="midnightblue" stroke="midnightblue" points="245.97,-93.13 235.43,-92.01 242.96,-99.46 245.97,-93.13"/>
</g>
<!-- Node8 -->
<g id="node8" class="node">
<title>Node8</title>
<g id="a_node8"><a xlink:title=" ">
<polygon fill="white" stroke="#bfbfbf" points="262.5,-73 262.5,-92 306.5,-92 306.5,-73 262.5,-73"/>
<text text-anchor="middle" x="284.5" y="-80" font-family="Helvetica,sans-Serif" font-size="10.00">string</text>
</a>
</g>
</g>
<!-- Node3&#45;&gt;Node8 -->
<g id="edge7" class="edge">
<title>Node3&#45;&gt;Node8</title>
<path fill="none" stroke="midnightblue" d="M339.31,-134.4C328.18,-124.06 313.06,-110.02 301.53,-99.31"/>
<polygon fill="midnightblue" stroke="midnightblue" points="303.57,-96.43 293.86,-92.19 298.81,-101.56 303.57,-96.43"/>
</g>
<!-- Node3&#45;&gt;Node9 -->
<g id="edge8" class="edge">
<title>Node3&#45;&gt;Node9</title>
<path fill="none" stroke="midnightblue" d="M409.6,-141.97C470.55,-134.13 571.42,-119.31 656.5,-98 659.89,-97.15 663.39,-96.16 666.87,-95.1"/>
<polygon fill="midnightblue" stroke="midnightblue" points="668.04,-98.4 676.49,-92.01 665.9,-91.74 668.04,-98.4"/>
</g>
<!-- Node10 -->
<g id="node10" class="node">
<title>Node10</title>
<g id="a_node10"><a xlink:title=" ">
<polygon fill="white" stroke="#bfbfbf" points="324.5,-73 324.5,-92 374.5,-92 374.5,-73 324.5,-73"/>
<text text-anchor="middle" x="349.5" y="-80" font-family="Helvetica,sans-Serif" font-size="10.00">climits</text>
</a>
</g>
</g>
<!-- Node3&#45;&gt;Node10 -->
<g id="edge9" class="edge">
<title>Node3&#45;&gt;Node10</title>
<path fill="none" stroke="midnightblue" d="M353.42,-134.4C352.69,-124.96 351.73,-112.45 350.94,-102.19"/>
<polygon fill="midnightblue" stroke="midnightblue" points="354.43,-101.9 350.17,-92.19 347.45,-102.43 354.43,-101.9"/>
</g>
<!-- Node11 -->
<g id="node11" class="node">
<title>Node11</title>
<g id="a_node11"><a xlink:title=" ">
<polygon fill="white" stroke="#bfbfbf" points="393,-67.5 393,-97.5 510,-97.5 510,-67.5 393,-67.5"/>
<text text-anchor="start" x="401" y="-85.5" font-family="Helvetica,sans-Serif" font-size="10.00">packages/types/impl</text>
<text text-anchor="middle" x="451.5" y="-74.5" font-family="Helvetica,sans-Serif" font-size="10.00">/types_impl.hpp</text>
</a>
</g>
</g>
<!-- Node3&#45;&gt;Node11 -->
<g id="edge10" class="edge">
<title>Node3&#45;&gt;Node11</title>
<path fill="none" stroke="midnightblue" d="M375.55,-134.4C389.15,-125.28 407.04,-113.29 422.05,-103.24"/>
<polygon fill="midnightblue" stroke="midnightblue" points="424.13,-106.05 430.49,-97.58 420.24,-100.24 424.13,-106.05"/>
</g>
<!-- Node12 -->
<g id="node12" class="node">
<title>Node12</title>
<g id="a_node12"><a xlink:href="logging_8hpp.html" target="_top" xlink:title=" ">
<polygon fill="white" stroke="black" points="528,-67.5 528,-97.5 647,-97.5 647,-67.5 528,-67.5"/>
<text text-anchor="start" x="536" y="-85.5" font-family="Helvetica,sans-Serif" font-size="10.00">packages/macros/inc</text>
<text text-anchor="middle" x="587.5" y="-74.5" font-family="Helvetica,sans-Serif" font-size="10.00">/logging.hpp</text>
</a>
</g>
</g>
<!-- Node3&#45;&gt;Node12 -->
<g id="edge11" class="edge">
<title>Node3&#45;&gt;Node12</title>
<path fill="none" stroke="midnightblue" d="M404.77,-134.48C440.63,-124.47 489.03,-110.97 527,-100.38"/>
<polygon fill="midnightblue" stroke="midnightblue" points="528.23,-103.67 536.92,-97.61 526.35,-96.93 528.23,-103.67"/>
</g>
<!-- Node5 -->
<g id="node5" class="node">
<title>Node5</title>
<g id="a_node5"><a xlink:href="detail_8hpp.html" target="_top" xlink:title=" ">
<polygon fill="white" stroke="black" points="0,-0.5 0,-30.5 119,-30.5 119,-0.5 0,-0.5"/>
<text text-anchor="start" x="8" y="-18.5" font-family="Helvetica,sans-Serif" font-size="10.00">packages/macros/inc</text>
<text text-anchor="middle" x="59.5" y="-7.5" font-family="Helvetica,sans-Serif" font-size="10.00">/detail.hpp</text>
</a>
</g>
</g>
<!-- Node4&#45;&gt;Node5 -->
<g id="edge4" class="edge">
<title>Node4&#45;&gt;Node5</title>
<path fill="none" stroke="midnightblue" d="M101.78,-67.4C94.78,-58.96 85.73,-48.07 77.79,-38.52"/>
<polygon fill="midnightblue" stroke="midnightblue" points="80.28,-36.03 71.19,-30.58 74.89,-40.51 80.28,-36.03"/>
</g>
<!-- Node6 -->
<g id="node6" class="node">
<title>Node6</title>
<g id="a_node6"><a xlink:title=" ">
<polygon fill="white" stroke="#bfbfbf" points="137.5,-6 137.5,-25 197.5,-25 197.5,-6 137.5,-6"/>
<text text-anchor="middle" x="167.5" y="-13" font-family="Helvetica,sans-Serif" font-size="10.00">iostream</text>
</a>
</g>
</g>
<!-- Node4&#45;&gt;Node6 -->
<g id="edge5" class="edge">
<title>Node4&#45;&gt;Node6</title>
<path fill="none" stroke="midnightblue" d="M125.22,-67.4C133.64,-57.26 145.01,-43.57 153.84,-32.94"/>
<polygon fill="midnightblue" stroke="midnightblue" points="156.58,-35.12 160.28,-25.19 151.19,-30.65 156.58,-35.12"/>
</g>
<!-- Node16&#45;&gt;Node2 -->
<g id="edge17" class="edge">
<title>Node16&#45;&gt;Node2</title>
<path fill="none" stroke="midnightblue" d="M655.73,-279.43C686.85,-269.14 725.16,-256.49 757.6,-245.77"/>
<polygon fill="midnightblue" stroke="midnightblue" points="759.07,-248.97 767.47,-242.51 756.88,-242.32 759.07,-248.97"/>
</g>
<!-- Node17 -->
<g id="node17" class="node">
<title>Node17</title>
<g id="a_node17"><a xlink:href="Size_8hpp.html" target="_top" xlink:title=" ">
<polygon fill="white" stroke="black" points="280.5,-201.5 280.5,-242.5 428.5,-242.5 428.5,-201.5 280.5,-201.5"/>
<text text-anchor="start" x="288.5" y="-230.5" font-family="Helvetica,sans-Serif" font-size="10.00">packages/compile_time</text>
<text text-anchor="start" x="288.5" y="-219.5" font-family="Helvetica,sans-Serif" font-size="10.00">/packages/parameter_pack</text>
<text text-anchor="middle" x="354.5" y="-208.5" font-family="Helvetica,sans-Serif" font-size="10.00">/inc/Size.hpp</text>
</a>
</g>
</g>
<!-- Node16&#45;&gt;Node17 -->
<g id="edge18" class="edge">
<title>Node16&#45;&gt;Node17</title>
<path fill="none" stroke="midnightblue" d="M534.18,-279.43C501.29,-269.1 460.78,-256.38 426.55,-245.63"/>
<polygon fill="midnightblue" stroke="midnightblue" points="427.2,-242.16 416.61,-242.51 425.1,-248.84 427.2,-242.16"/>
</g>
<!-- Node18 -->
<g id="node18" class="node">
<title>Node18</title>
<g id="a_node18"><a xlink:href="Select_8hpp.html" target="_top" xlink:title=" ">
<polygon fill="white" stroke="black" points="522.5,-201.5 522.5,-242.5 670.5,-242.5 670.5,-201.5 522.5,-201.5"/>
<text text-anchor="start" x="530.5" y="-230.5" font-family="Helvetica,sans-Serif" font-size="10.00">packages/compile_time</text>
<text text-anchor="start" x="530.5" y="-219.5" font-family="Helvetica,sans-Serif" font-size="10.00">/packages/parameter_pack</text>
<text text-anchor="middle" x="596.5" y="-208.5" font-family="Helvetica,sans-Serif" font-size="10.00">/inc/Select.hpp</text>
</a>
</g>
</g>
<!-- Node16&#45;&gt;Node18 -->
<g id="edge20" class="edge">
<title>Node16&#45;&gt;Node18</title>
<path fill="none" stroke="midnightblue" d="M596.5,-279.43C596.5,-271.27 596.5,-261.62 596.5,-252.63"/>
<polygon fill="midnightblue" stroke="midnightblue" points="600,-252.51 596.5,-242.51 593,-252.51 600,-252.51"/>
</g>
<!-- Node20 -->
<g id="node20" class="node">
<title>Node20</title>
<g id="a_node20"><a xlink:title=" ">
<polygon fill="white" stroke="#bfbfbf" points="689,-212.5 689,-231.5 742,-231.5 742,-212.5 689,-212.5"/>
<text text-anchor="middle" x="715.5" y="-219.5" font-family="Helvetica,sans-Serif" font-size="10.00">iterator</text>
</a>
</g>
</g>
<!-- Node16&#45;&gt;Node20 -->
<g id="edge24" class="edge">
<title>Node16&#45;&gt;Node20</title>
<path fill="none" stroke="midnightblue" d="M627.15,-279.43C647.88,-266.18 674.79,-249 693.44,-237.09"/>
<polygon fill="midnightblue" stroke="midnightblue" points="695.57,-239.88 702.11,-231.55 691.8,-233.98 695.57,-239.88"/>
</g>
<!-- Node21 -->
<g id="node21" class="node">
<title>Node21</title>
<g id="a_node21"><a xlink:title=" ">
<polygon fill="white" stroke="#bfbfbf" points="446.5,-212.5 446.5,-231.5 504.5,-231.5 504.5,-212.5 446.5,-212.5"/>
<text text-anchor="middle" x="475.5" y="-219.5" font-family="Helvetica,sans-Serif" font-size="10.00">memory</text>
</a>
</g>
</g>
<!-- Node16&#45;&gt;Node21 -->
<g id="edge25" class="edge">
<title>Node16&#45;&gt;Node21</title>
<path fill="none" stroke="midnightblue" d="M565.34,-279.43C544.16,-266.12 516.65,-248.84 497.68,-236.93"/>
<polygon fill="midnightblue" stroke="midnightblue" points="499.45,-233.91 489.12,-231.55 495.72,-239.83 499.45,-233.91"/>
</g>
<!-- Node17&#45;&gt;Node3 -->
<g id="edge19" class="edge">
<title>Node17&#45;&gt;Node3</title>
<path fill="none" stroke="midnightblue" d="M354.5,-201.36C354.5,-193.23 354.5,-183.7 354.5,-175.11"/>
<polygon fill="midnightblue" stroke="midnightblue" points="358,-174.89 354.5,-164.89 351,-174.89 358,-174.89"/>
</g>
<!-- Node18&#45;&gt;Node3 -->
<g id="edge21" class="edge">
<title>Node18&#45;&gt;Node3</title>
<path fill="none" stroke="midnightblue" d="M529.41,-201.46C492.72,-190.77 447.7,-177.65 412.53,-167.41"/>
<polygon fill="midnightblue" stroke="midnightblue" points="413.47,-164.03 402.89,-164.6 411.51,-170.75 413.47,-164.03"/>
</g>
<!-- Node18&#45;&gt;Node9 -->
<g id="edge22" class="edge">
<title>Node18&#45;&gt;Node9</title>
<path fill="none" stroke="midnightblue" d="M611.26,-201.3C631.57,-174.18 667.79,-125.83 686.9,-100.32"/>
<polygon fill="midnightblue" stroke="midnightblue" points="689.91,-102.14 693.1,-92.04 684.31,-97.94 689.91,-102.14"/>
</g>
<!-- Node19 -->
<g id="node19" class="node">
<title>Node19</title>
<g id="a_node19"><a xlink:title=" ">
<polygon fill="white" stroke="#bfbfbf" points="576,-140 576,-159 617,-159 617,-140 576,-140"/>
<text text-anchor="middle" x="596.5" y="-147" font-family="Helvetica,sans-Serif" font-size="10.00">tuple</text>
</a>
</g>
</g>
<!-- Node18&#45;&gt;Node19 -->
<g id="edge23" class="edge">
<title>Node18&#45;&gt;Node19</title>
<path fill="none" stroke="midnightblue" d="M596.5,-201.36C596.5,-191.3 596.5,-179.1 596.5,-169.18"/>
<polygon fill="midnightblue" stroke="midnightblue" points="600,-169.17 596.5,-159.17 593,-169.17 600,-169.17"/>
</g>
</g>
</svg>
