<?xml version="1.0" encoding="UTF-8" standalone="no"?>
<!DOCTYPE svg PUBLIC "-//W3C//DTD SVG 1.1//EN"
 "http://www.w3.org/Graphics/SVG/1.1/DTD/svg11.dtd">
<!-- Generated by graphviz version 2.43.0 (0)
 -->
<!-- Title: NoOpIterator.hpp Pages: 1 -->
<svg width="689pt" height="379pt"
 viewBox="0.00 0.00 688.50 379.00" xmlns="http://www.w3.org/2000/svg" xmlns:xlink="http://www.w3.org/1999/xlink">
<g id="graph0" class="graph" transform="scale(1 1) rotate(0) translate(4 375)">
<title>NoOpIterator.hpp</title>
<!-- Node1 -->
<g id="Node000001" class="node">
<title>Node1</title>
<g id="a_Node000001"><a xlink:title=" ">
<polygon fill="#999999" stroke="#666666" points="231.5,-371 131.5,-371 131.5,-352 231.5,-352 231.5,-371"/>
<text text-anchor="middle" x="181.5" y="-359" font-family="Helvetica,sans-Serif" font-size="10.00">NoOpIterator.hpp</text>
</a>
</g>
</g>
<!-- Node2 -->
<g id="Node000002" class="node">
<title>Node2</title>
<g id="a_Node000002"><a xlink:href="basic__concepts_8hpp.html" target="_top" xlink:title=" ">
<polygon fill="white" stroke="#666666" points="153.5,-239 21.5,-239 21.5,-198 153.5,-198 153.5,-239"/>
<text text-anchor="start" x="29.5" y="-227" font-family="Helvetica,sans-Serif" font-size="10.00">packages/compile_time</text>
<text text-anchor="start" x="29.5" y="-216" font-family="Helvetica,sans-Serif" font-size="10.00">/packages/concepts/inc</text>
<text text-anchor="middle" x="87.5" y="-205" font-family="Helvetica,sans-Serif" font-size="10.00">/basic_concepts.hpp</text>
</a>
</g>
</g>
<!-- Node1&#45;&gt;Node2 -->
<g id="edge1_Node000001_Node000002" class="edge">
<title>Node1&#45;&gt;Node2</title>
<g id="a_edge1_Node000001_Node000002"><a xlink:title=" ">
<path fill="none" stroke="#63b8ff" d="M175.62,-351.68C162.03,-331.29 127.94,-280.16 106.37,-247.8"/>
<polygon fill="#63b8ff" stroke="#63b8ff" points="109.1,-245.59 100.64,-239.21 103.28,-249.48 109.1,-245.59"/>
</a>
</g>
</g>
<!-- Node3 -->
<g id="Node000003" class="node">
<title>Node3</title>
<g id="a_Node000003"><a xlink:href="types_8hpp.html" target="_top" xlink:title=" ">
<polygon fill="white" stroke="#666666" points="405.5,-162 295.5,-162 295.5,-132 405.5,-132 405.5,-162"/>
<text text-anchor="start" x="303.5" y="-150" font-family="Helvetica,sans-Serif" font-size="10.00">packages/types/inc</text>
<text text-anchor="middle" x="350.5" y="-139" font-family="Helvetica,sans-Serif" font-size="10.00">/types.hpp</text>
</a>
</g>
</g>
<!-- Node1&#45;&gt;Node3 -->
<g id="edge26_Node000001_Node000003" class="edge">
<title>Node1&#45;&gt;Node3</title>
<g id="a_edge26_Node000001_Node000003"><a xlink:title=" ">
<path fill="none" stroke="#63b8ff" d="M179.62,-351.89C174.41,-325.5 162.51,-244.72 200.5,-198 221.12,-172.65 254.99,-160.06 285.34,-153.85"/>
<polygon fill="#63b8ff" stroke="#63b8ff" points="286.28,-157.24 295.47,-151.98 285.01,-150.35 286.28,-157.24"/>
</a>
</g>
</g>
<!-- Node16 -->
<g id="Node000016" class="node">
<title>Node16</title>
<g id="a_Node000016"><a xlink:href="iterator__concepts_8hpp.html" target="_top" xlink:title=" ">
<polygon fill="white" stroke="#666666" points="358.5,-316 226.5,-316 226.5,-275 358.5,-275 358.5,-316"/>
<text text-anchor="start" x="234.5" y="-304" font-family="Helvetica,sans-Serif" font-size="10.00">packages/compile_time</text>
<text text-anchor="start" x="234.5" y="-293" font-family="Helvetica,sans-Serif" font-size="10.00">/packages/concepts/inc</text>
<text text-anchor="middle" x="292.5" y="-282" font-family="Helvetica,sans-Serif" font-size="10.00">/iterator_concepts.hpp</text>
</a>
</g>
</g>
<!-- Node1&#45;&gt;Node16 -->
<g id="edge16_Node000001_Node000016" class="edge">
<title>Node1&#45;&gt;Node16</title>
<g id="a_edge16_Node000001_Node000016"><a xlink:title=" ">
<path fill="none" stroke="#63b8ff" d="M196.47,-351.87C210.16,-343.97 231.09,-331.91 249.91,-321.05"/>
<polygon fill="#63b8ff" stroke="#63b8ff" points="251.75,-324.04 258.66,-316.01 248.25,-317.97 251.75,-324.04"/>
</a>
</g>
</g>
<!-- Node2&#45;&gt;Node3 -->
<g id="edge2_Node000002_Node000003" class="edge">
<title>Node2&#45;&gt;Node3</title>
<g id="a_edge2_Node000002_Node000003"><a xlink:title=" ">
<path fill="none" stroke="#63b8ff" d="M153.53,-200.05C194.57,-189.21 247.05,-175.34 287.51,-164.65"/>
<polygon fill="#63b8ff" stroke="#63b8ff" points="288.49,-168.01 297.26,-162.07 286.7,-161.24 288.49,-168.01"/>
</a>
</g>
</g>
<!-- Node9 -->
<g id="Node000009" class="node">
<title>Node9</title>
<g id="a_Node000009"><a xlink:title=" ">
<polygon fill="#e0e0e0" stroke="#999999" points="69,-90.5 0,-90.5 0,-71.5 69,-71.5 69,-90.5"/>
<text text-anchor="middle" x="34.5" y="-78.5" font-family="Helvetica,sans-Serif" font-size="10.00">type_traits</text>
</a>
</g>
</g>
<!-- Node2&#45;&gt;Node9 -->
<g id="edge13_Node000002_Node000009" class="edge">
<title>Node2&#45;&gt;Node9</title>
<g id="a_edge13_Node000002_Node000009"><a xlink:title=" ">
<path fill="none" stroke="#63b8ff" d="M73.29,-197.76C66.47,-187.51 58.67,-174.53 53.5,-162 45.18,-141.84 40.03,-117.26 37.22,-100.71"/>
<polygon fill="#63b8ff" stroke="#63b8ff" points="40.65,-100.02 35.64,-90.68 33.74,-101.11 40.65,-100.02"/>
</a>
</g>
</g>
<!-- Node13 -->
<g id="Node000013" class="node">
<title>Node13</title>
<g id="a_Node000013"><a xlink:title=" ">
<polygon fill="#e0e0e0" stroke="#999999" points="521.5,-156.5 461.5,-156.5 461.5,-137.5 521.5,-137.5 521.5,-156.5"/>
<text text-anchor="middle" x="491.5" y="-144.5" font-family="Helvetica,sans-Serif" font-size="10.00">concepts</text>
</a>
</g>
</g>
<!-- Node2&#45;&gt;Node13 -->
<g id="edge12_Node000002_Node000013" class="edge">
<title>Node2&#45;&gt;Node13</title>
<g id="a_edge12_Node000002_Node000013"><a xlink:title=" ">
<path fill="none" stroke="#63b8ff" d="M153.52,-206.06C168.93,-203.4 185.29,-200.59 200.5,-198 295.58,-181.8 319.5,-178.63 414.5,-162 426.4,-159.92 439.33,-157.59 451.13,-155.44"/>
<polygon fill="#63b8ff" stroke="#63b8ff" points="451.95,-158.85 461.16,-153.61 450.7,-151.96 451.95,-158.85"/>
</a>
</g>
</g>
<!-- Node14 -->
<g id="Node000014" class="node">
<title>Node14</title>
<g id="a_Node000014"><a xlink:title=" ">
<polygon fill="#e0e0e0" stroke="#999999" points="112.5,-156.5 62.5,-156.5 62.5,-137.5 112.5,-137.5 112.5,-156.5"/>
<text text-anchor="middle" x="87.5" y="-144.5" font-family="Helvetica,sans-Serif" font-size="10.00">cstdint</text>
</a>
</g>
</g>
<!-- Node2&#45;&gt;Node14 -->
<g id="edge14_Node000002_Node000014" class="edge">
<title>Node2&#45;&gt;Node14</title>
<g id="a_edge14_Node000002_Node000014"><a xlink:title=" ">
<path fill="none" stroke="#63b8ff" d="M87.5,-197.77C87.5,-188.08 87.5,-176.46 87.5,-166.88"/>
<polygon fill="#63b8ff" stroke="#63b8ff" points="91,-166.82 87.5,-156.82 84,-166.82 91,-166.82"/>
</a>
</g>
</g>
<!-- Node15 -->
<g id="Node000015" class="node">
<title>Node15</title>
<g id="a_Node000015"><a xlink:title=" ">
<polygon fill="#e0e0e0" stroke="#999999" points="176,-156.5 131,-156.5 131,-137.5 176,-137.5 176,-156.5"/>
<text text-anchor="middle" x="153.5" y="-144.5" font-family="Helvetica,sans-Serif" font-size="10.00">utility</text>
</a>
</g>
</g>
<!-- Node2&#45;&gt;Node15 -->
<g id="edge15_Node000002_Node000015" class="edge">
<title>Node2&#45;&gt;Node15</title>
<g id="a_edge15_Node000002_Node000015"><a xlink:title=" ">
<path fill="none" stroke="#63b8ff" d="M106.24,-197.77C116.34,-187.13 128.65,-174.16 138.18,-164.13"/>
<polygon fill="#63b8ff" stroke="#63b8ff" points="140.78,-166.48 145.12,-156.82 135.7,-161.66 140.78,-166.48"/>
</a>
</g>
</g>
<!-- Node4 -->
<g id="Node000004" class="node">
<title>Node4</title>
<g id="a_Node000004"><a xlink:href="debug_8hpp.html" target="_top" xlink:title=" ">
<polygon fill="white" stroke="#666666" points="547,-96 428,-96 428,-66 547,-66 547,-96"/>
<text text-anchor="start" x="436" y="-84" font-family="Helvetica,sans-Serif" font-size="10.00">packages/macros/inc</text>
<text text-anchor="middle" x="487.5" y="-73" font-family="Helvetica,sans-Serif" font-size="10.00">/debug.hpp</text>
</a>
</g>
</g>
<!-- Node3&#45;&gt;Node4 -->
<g id="edge3_Node000003_Node000004" class="edge">
<title>Node3&#45;&gt;Node4</title>
<g id="a_edge3_Node000003_Node000004"><a xlink:title=" ">
<path fill="none" stroke="#63b8ff" d="M380.57,-131.95C400.46,-122.66 426.76,-110.38 448.29,-100.32"/>
<polygon fill="#63b8ff" stroke="#63b8ff" points="449.93,-103.42 457.5,-96.01 446.96,-97.07 449.93,-103.42"/>
</a>
</g>
</g>
<!-- Node7 -->
<g id="Node000007" class="node">
<title>Node7</title>
<g id="a_Node000007"><a xlink:title=" ">
<polygon fill="#e0e0e0" stroke="#999999" points="618,-90.5 565,-90.5 565,-71.5 618,-71.5 618,-90.5"/>
<text text-anchor="middle" x="591.5" y="-78.5" font-family="Helvetica,sans-Serif" font-size="10.00">cstddef</text>
</a>
</g>
</g>
<!-- Node3&#45;&gt;Node7 -->
<g id="edge6_Node000003_Node000007" class="edge">
<title>Node3&#45;&gt;Node7</title>
<g id="a_edge6_Node000003_Node000007"><a xlink:title=" ">
<path fill="none" stroke="#63b8ff" d="M405.74,-134.83C447.56,-125.84 506.19,-112.08 556.5,-96 558.17,-95.47 559.88,-94.89 561.59,-94.29"/>
<polygon fill="#63b8ff" stroke="#63b8ff" points="563.19,-97.43 571.32,-90.64 560.73,-90.87 563.19,-97.43"/>
</a>
</g>
</g>
<!-- Node8 -->
<g id="Node000008" class="node">
<title>Node8</title>
<g id="a_Node000008"><a xlink:title=" ">
<polygon fill="#e0e0e0" stroke="#999999" points="680.5,-90.5 636.5,-90.5 636.5,-71.5 680.5,-71.5 680.5,-90.5"/>
<text text-anchor="middle" x="658.5" y="-78.5" font-family="Helvetica,sans-Serif" font-size="10.00">string</text>
</a>
</g>
</g>
<!-- Node3&#45;&gt;Node8 -->
<g id="edge7_Node000003_Node000008" class="edge">
<title>Node3&#45;&gt;Node8</title>
<g id="a_edge7_Node000003_Node000008"><a xlink:title=" ">
<path fill="none" stroke="#63b8ff" d="M405.65,-137.69C474.18,-127.08 587.02,-108.58 627.5,-96 628.95,-95.55 630.41,-95.05 631.88,-94.52"/>
<polygon fill="#63b8ff" stroke="#63b8ff" points="633.48,-97.64 641.41,-90.62 630.83,-91.16 633.48,-97.64"/>
</a>
</g>
</g>
<!-- Node3&#45;&gt;Node9 -->
<g id="edge8_Node000003_Node000009" class="edge">
<title>Node3&#45;&gt;Node9</title>
<g id="a_edge8_Node000003_Node000009"><a xlink:title=" ">
<path fill="none" stroke="#63b8ff" d="M295.36,-137.96C240.1,-129.41 152.8,-114.57 78.5,-96 75.49,-95.25 72.38,-94.4 69.27,-93.51"/>
<polygon fill="#63b8ff" stroke="#63b8ff" points="70.06,-90.09 59.47,-90.55 68.03,-96.79 70.06,-90.09"/>
</a>
</g>
</g>
<!-- Node10 -->
<g id="Node000010" class="node">
<title>Node10</title>
<g id="a_Node000010"><a xlink:title=" ">
<polygon fill="#e0e0e0" stroke="#999999" points="137.5,-90.5 87.5,-90.5 87.5,-71.5 137.5,-71.5 137.5,-90.5"/>
<text text-anchor="middle" x="112.5" y="-78.5" font-family="Helvetica,sans-Serif" font-size="10.00">climits</text>
</a>
</g>
</g>
<!-- Node3&#45;&gt;Node10 -->
<g id="edge9_Node000003_Node000010" class="edge">
<title>Node3&#45;&gt;Node10</title>
<g id="a_edge9_Node000003_Node000010"><a xlink:title=" ">
<path fill="none" stroke="#63b8ff" d="M295.32,-134.83C253.92,-125.88 196.07,-112.18 146.5,-96 144.83,-95.46 143.13,-94.87 141.42,-94.25"/>
<polygon fill="#63b8ff" stroke="#63b8ff" points="142.32,-90.84 131.73,-90.51 139.8,-97.37 142.32,-90.84"/>
</a>
</g>
</g>
<!-- Node11 -->
<g id="Node000011" class="node">
<title>Node11</title>
<g id="a_Node000011"><a xlink:title=" ">
<polygon fill="#e0e0e0" stroke="#999999" points="273,-96 156,-96 156,-66 273,-66 273,-96"/>
<text text-anchor="start" x="164" y="-84" font-family="Helvetica,sans-Serif" font-size="10.00">packages/types/impl</text>
<text text-anchor="middle" x="214.5" y="-73" font-family="Helvetica,sans-Serif" font-size="10.00">/types_impl.hpp</text>
</a>
</g>
</g>
<!-- Node3&#45;&gt;Node11 -->
<g id="edge10_Node000003_Node000011" class="edge">
<title>Node3&#45;&gt;Node11</title>
<g id="a_edge10_Node000003_Node000011"><a xlink:title=" ">
<path fill="none" stroke="#63b8ff" d="M320.65,-131.95C300.9,-122.66 274.8,-110.38 253.42,-100.32"/>
<polygon fill="#63b8ff" stroke="#63b8ff" points="254.81,-97.1 244.28,-96.01 251.83,-103.44 254.81,-97.1"/>
</a>
</g>
</g>
<!-- Node12 -->
<g id="Node000012" class="node">
<title>Node12</title>
<g id="a_Node000012"><a xlink:href="logging_8hpp.html" target="_top" xlink:title=" ">
<polygon fill="white" stroke="#666666" points="410,-96 291,-96 291,-66 410,-66 410,-96"/>
<text text-anchor="start" x="299" y="-84" font-family="Helvetica,sans-Serif" font-size="10.00">packages/macros/inc</text>
<text text-anchor="middle" x="350.5" y="-73" font-family="Helvetica,sans-Serif" font-size="10.00">/logging.hpp</text>
</a>
</g>
</g>
<!-- Node3&#45;&gt;Node12 -->
<g id="edge11_Node000003_Node000012" class="edge">
<title>Node3&#45;&gt;Node12</title>
<g id="a_edge11_Node000003_Node000012"><a xlink:title=" ">
<path fill="none" stroke="#63b8ff" d="M350.5,-131.8C350.5,-124.34 350.5,-114.99 350.5,-106.41"/>
<polygon fill="#63b8ff" stroke="#63b8ff" points="354,-106.16 350.5,-96.16 347,-106.16 354,-106.16"/>
</a>
</g>
</g>
<!-- Node5 -->
<g id="Node000005" class="node">
<title>Node5</title>
<g id="a_Node000005"><a xlink:href="detail_8hpp.html" target="_top" xlink:title=" ">
<polygon fill="white" stroke="#666666" points="493,-30 374,-30 374,0 493,0 493,-30"/>
<text text-anchor="start" x="382" y="-18" font-family="Helvetica,sans-Serif" font-size="10.00">packages/macros/inc</text>
<text text-anchor="middle" x="433.5" y="-7" font-family="Helvetica,sans-Serif" font-size="10.00">/detail.hpp</text>
</a>
</g>
</g>
<!-- Node4&#45;&gt;Node5 -->
<g id="edge4_Node000004_Node000005" class="edge">
<title>Node4&#45;&gt;Node5</title>
<g id="a_edge4_Node000004_Node000005"><a xlink:title=" ">
<path fill="none" stroke="#63b8ff" d="M475.52,-65.8C468.59,-57.59 459.74,-47.1 451.95,-37.87"/>
<polygon fill="#63b8ff" stroke="#63b8ff" points="454.57,-35.55 445.45,-30.16 449.22,-40.06 454.57,-35.55"/>
</a>
</g>
</g>
<!-- Node6 -->
<g id="Node000006" class="node">
<title>Node6</title>
<g id="a_Node000006"><a xlink:title=" ">
<polygon fill="#e0e0e0" stroke="#999999" points="571.5,-24.5 511.5,-24.5 511.5,-5.5 571.5,-5.5 571.5,-24.5"/>
<text text-anchor="middle" x="541.5" y="-12.5" font-family="Helvetica,sans-Serif" font-size="10.00">iostream</text>
</a>
</g>
</g>
<!-- Node4&#45;&gt;Node6 -->
<g id="edge5_Node000004_Node000006" class="edge">
<title>Node4&#45;&gt;Node6</title>
<g id="a_edge5_Node000004_Node000006"><a xlink:title=" ">
<path fill="none" stroke="#63b8ff" d="M499.48,-65.8C507.74,-56.01 518.74,-42.98 527.41,-32.7"/>
<polygon fill="#63b8ff" stroke="#63b8ff" points="530.26,-34.74 534.04,-24.84 524.91,-30.23 530.26,-34.74"/>
</a>
</g>
</g>
<!-- Node16&#45;&gt;Node2 -->
<g id="edge17_Node000016_Node000002" class="edge">
<title>Node16&#45;&gt;Node2</title>
<g id="a_edge17_Node000016_Node000002"><a xlink:title=" ">
<path fill="none" stroke="#63b8ff" d="M239.17,-274.99C211.99,-265.05 178.77,-252.89 150.35,-242.49"/>
<polygon fill="#63b8ff" stroke="#63b8ff" points="151.51,-239.19 140.91,-239.04 149.1,-245.76 151.51,-239.19"/>
</a>
</g>
</g>
<!-- Node17 -->
<g id="Node000017" class="node">
<title>Node17</title>
<g id="a_Node000017"><a xlink:href="Size_8hpp.html" target="_top" xlink:title=" ">
<polygon fill="white" stroke="#666666" points="505.5,-239 357.5,-239 357.5,-198 505.5,-198 505.5,-239"/>
<text text-anchor="start" x="365.5" y="-227" font-family="Helvetica,sans-Serif" font-size="10.00">packages/compile_time</text>
<text text-anchor="start" x="365.5" y="-216" font-family="Helvetica,sans-Serif" font-size="10.00">/packages/parameter_pack</text>
<text text-anchor="middle" x="431.5" y="-205" font-family="Helvetica,sans-Serif" font-size="10.00">/inc/Size.hpp</text>
</a>
</g>
</g>
<!-- Node16&#45;&gt;Node17 -->
<g id="edge18_Node000016_Node000017" class="edge">
<title>Node16&#45;&gt;Node17</title>
<g id="a_edge18_Node000016_Node000017"><a xlink:title=" ">
<path fill="none" stroke="#63b8ff" d="M328.66,-274.99C346.22,-265.52 367.5,-254.03 386.13,-243.98"/>
<polygon fill="#63b8ff" stroke="#63b8ff" points="387.9,-247 395.04,-239.17 384.58,-240.84 387.9,-247"/>
</a>
</g>
</g>
<!-- Node18 -->
<g id="Node000018" class="node">
<title>Node18</title>
<g id="a_Node000018"><a xlink:href="Select_8hpp.html" target="_top" xlink:title=" ">
<polygon fill="white" stroke="#666666" points="671.5,-239 523.5,-239 523.5,-198 671.5,-198 671.5,-239"/>
<text text-anchor="start" x="531.5" y="-227" font-family="Helvetica,sans-Serif" font-size="10.00">packages/compile_time</text>
<text text-anchor="start" x="531.5" y="-216" font-family="Helvetica,sans-Serif" font-size="10.00">/packages/parameter_pack</text>
<text text-anchor="middle" x="597.5" y="-205" font-family="Helvetica,sans-Serif" font-size="10.00">/inc/Select.hpp</text>
</a>
</g>
</g>
<!-- Node16&#45;&gt;Node18 -->
<g id="edge20_Node000016_Node000018" class="edge">
<title>Node16&#45;&gt;Node18</title>
<g id="a_edge20_Node000016_Node000018"><a xlink:title=" ">
<path fill="none" stroke="#63b8ff" d="M358.68,-278.23C404.08,-267.06 464.71,-252.15 513.51,-240.15"/>
<polygon fill="#63b8ff" stroke="#63b8ff" points="514.55,-243.5 523.42,-237.72 512.88,-236.71 514.55,-243.5"/>
</a>
</g>
</g>
<!-- Node20 -->
<g id="Node000020" class="node">
<title>Node20</title>
<g id="a_Node000020"><a xlink:title=" ">
<polygon fill="#e0e0e0" stroke="#999999" points="263,-228 210,-228 210,-209 263,-209 263,-228"/>
<text text-anchor="middle" x="236.5" y="-216" font-family="Helvetica,sans-Serif" font-size="10.00">iterator</text>
</a>
</g>
</g>
<!-- Node16&#45;&gt;Node20 -->
<g id="edge24_Node000016_Node000020" class="edge">
<title>Node16&#45;&gt;Node20</title>
<g id="a_edge24_Node000016_Node000020"><a xlink:title=" ">
<path fill="none" stroke="#63b8ff" d="M277.79,-274.79C268.89,-262.88 257.66,-247.84 249.16,-236.45"/>
<polygon fill="#63b8ff" stroke="#63b8ff" points="251.81,-234.16 243.02,-228.24 246.2,-238.34 251.81,-234.16"/>
</a>
</g>
</g>
<!-- Node21 -->
<g id="Node000021" class="node">
<title>Node21</title>
<g id="a_Node000021"><a xlink:title=" ">
<polygon fill="#e0e0e0" stroke="#999999" points="339.5,-228 281.5,-228 281.5,-209 339.5,-209 339.5,-228"/>
<text text-anchor="middle" x="310.5" y="-216" font-family="Helvetica,sans-Serif" font-size="10.00">memory</text>
</a>
</g>
</g>
<!-- Node16&#45;&gt;Node21 -->
<g id="edge25_Node000016_Node000021" class="edge">
<title>Node16&#45;&gt;Node21</title>
<g id="a_edge25_Node000016_Node000021"><a xlink:title=" ">
<path fill="none" stroke="#63b8ff" d="M297.23,-274.79C299.95,-263.47 303.34,-249.32 306.02,-238.17"/>
<polygon fill="#63b8ff" stroke="#63b8ff" points="309.47,-238.78 308.4,-228.24 302.67,-237.14 309.47,-238.78"/>
</a>
</g>
</g>
<!-- Node17&#45;&gt;Node3 -->
<g id="edge19_Node000017_Node000003" class="edge">
<title>Node17&#45;&gt;Node3</title>
<g id="a_edge19_Node000017_Node000003"><a xlink:title=" ">
<path fill="none" stroke="#63b8ff" d="M408.51,-197.77C397.92,-188.69 385.36,-177.91 374.64,-168.71"/>
<polygon fill="#63b8ff" stroke="#63b8ff" points="376.73,-165.89 366.86,-162.04 372.17,-171.21 376.73,-165.89"/>
</a>
</g>
</g>
<!-- Node18&#45;&gt;Node3 -->
<g id="edge21_Node000018_Node000003" class="edge">
<title>Node18&#45;&gt;Node3</title>
<g id="a_edge21_Node000018_Node000003"><a xlink:title=" ">
<path fill="none" stroke="#63b8ff" d="M528.04,-197.96C490.87,-187.5 445.56,-174.75 410.02,-164.75"/>
<polygon fill="#63b8ff" stroke="#63b8ff" points="410.84,-161.34 400.27,-162 408.95,-168.08 410.84,-161.34"/>
</a>
</g>
</g>
<!-- Node18&#45;&gt;Node13 -->
<g id="edge23_Node000018_Node000013" class="edge">
<title>Node18&#45;&gt;Node13</title>
<g id="a_edge23_Node000018_Node000013"><a xlink:title=" ">
<path fill="none" stroke="#63b8ff" d="M567.69,-197.96C550.29,-186.54 528.73,-172.41 512.99,-162.09"/>
<polygon fill="#63b8ff" stroke="#63b8ff" points="514.75,-159.06 504.47,-156.5 510.91,-164.91 514.75,-159.06"/>
</a>
</g>
</g>
<!-- Node19 -->
<g id="Node000019" class="node">
<title>Node19</title>
<g id="a_Node000019"><a xlink:title=" ">
<polygon fill="#e0e0e0" stroke="#999999" points="618,-156.5 577,-156.5 577,-137.5 618,-137.5 618,-156.5"/>
<text text-anchor="middle" x="597.5" y="-144.5" font-family="Helvetica,sans-Serif" font-size="10.00">tuple</text>
</a>
</g>
</g>
<!-- Node18&#45;&gt;Node19 -->
<g id="edge22_Node000018_Node000019" class="edge">
<title>Node18&#45;&gt;Node19</title>
<g id="a_edge22_Node000018_Node000019"><a xlink:title=" ">
<path fill="none" stroke="#63b8ff" d="M597.5,-197.77C597.5,-188.08 597.5,-176.46 597.5,-166.88"/>
<polygon fill="#63b8ff" stroke="#63b8ff" points="601,-166.82 597.5,-156.82 594,-166.82 601,-166.82"/>
</a>
</g>
</g>
</g>
</svg>
