<?xml version="1.0" encoding="UTF-8" standalone="no"?>
<!DOCTYPE svg PUBLIC "-//W3C//DTD SVG 1.1//EN"
 "http://www.w3.org/Graphics/SVG/1.1/DTD/svg11.dtd">
<!-- Generated by graphviz version 2.43.0 (0)
 -->
<!-- Title: OptionalRef.hpp Pages: 1 -->
<svg width="746pt" height="357pt"
 viewBox="0.00 0.00 746.12 357.00" xmlns="http://www.w3.org/2000/svg" xmlns:xlink="http://www.w3.org/1999/xlink">
<g id="graph0" class="graph" transform="scale(1 1) rotate(0) translate(4 353)">
<title>OptionalRef.hpp</title>
<!-- Node1 -->
<g id="Node000001" class="node">
<title>Node1</title>
<g id="a_Node000001"><a xlink:title=" ">
<polygon fill="#999999" stroke="#666666" points="688.12,-349 593.12,-349 593.12,-330 688.12,-330 688.12,-349"/>
<text text-anchor="middle" x="640.62" y="-337" font-family="Helvetica,sans-Serif" font-size="10.00">OptionalRef.hpp</text>
</a>
</g>
</g>
<!-- Node2 -->
<g id="Node000002" class="node">
<title>Node2</title>
<g id="a_Node000002"><a xlink:href="exceptions_8hpp.html" target="_top" xlink:title=" ">
<polygon fill="white" stroke="#666666" points="220.12,-294 101.12,-294 101.12,-264 220.12,-264 220.12,-294"/>
<text text-anchor="start" x="109.12" y="-282" font-family="Helvetica,sans-Serif" font-size="10.00">packages/macros/inc</text>
<text text-anchor="middle" x="160.62" y="-271" font-family="Helvetica,sans-Serif" font-size="10.00">/exceptions.hpp</text>
</a>
</g>
</g>
<!-- Node1&#45;&gt;Node2 -->
<g id="edge1_Node000001_Node000002" class="edge">
<title>Node1&#45;&gt;Node2</title>
<g id="a_edge1_Node000001_Node000002"><a xlink:title=" ">
<path fill="none" stroke="#63b8ff" d="M592.84,-332.68C507.76,-322.31 329.66,-300.6 230.7,-288.54"/>
<polygon fill="#63b8ff" stroke="#63b8ff" points="230.85,-285.03 220.5,-287.3 230,-291.98 230.85,-285.03"/>
</a>
</g>
</g>
<!-- Node10 -->
<g id="Node000010" class="node">
<title>Node10</title>
<g id="a_Node000010"><a xlink:title=" ">
<polygon fill="#e0e0e0" stroke="#999999" points="738.12,-90.5 669.12,-90.5 669.12,-71.5 738.12,-71.5 738.12,-90.5"/>
<text text-anchor="middle" x="703.62" y="-78.5" font-family="Helvetica,sans-Serif" font-size="10.00">type_traits</text>
</a>
</g>
</g>
<!-- Node1&#45;&gt;Node10 -->
<g id="edge21_Node000001_Node000010" class="edge">
<title>Node1&#45;&gt;Node10</title>
<g id="a_edge21_Node000001_Node000010"><a xlink:title=" ">
<path fill="none" stroke="#63b8ff" d="M642.71,-329.97C651.63,-293.68 686.49,-151.74 699.06,-100.54"/>
<polygon fill="#63b8ff" stroke="#63b8ff" points="702.53,-101.11 701.51,-90.57 695.73,-99.44 702.53,-101.11"/>
</a>
</g>
</g>
<!-- Node20 -->
<g id="Node000020" class="node">
<title>Node20</title>
<g id="a_Node000020"><a xlink:title=" ">
<polygon fill="#e0e0e0" stroke="#999999" points="718.62,-288.5 668.62,-288.5 668.62,-269.5 718.62,-269.5 718.62,-288.5"/>
<text text-anchor="middle" x="693.62" y="-276.5" font-family="Helvetica,sans-Serif" font-size="10.00">cstdint</text>
</a>
</g>
</g>
<!-- Node1&#45;&gt;Node20 -->
<g id="edge22_Node000001_Node000020" class="edge">
<title>Node1&#45;&gt;Node20</title>
<g id="a_edge22_Node000001_Node000020"><a xlink:title=" ">
<path fill="none" stroke="#63b8ff" d="M648.44,-329.87C656.42,-321.05 669.01,-307.16 678.88,-296.27"/>
<polygon fill="#63b8ff" stroke="#63b8ff" points="681.65,-298.43 685.77,-288.67 676.46,-293.73 681.65,-298.43"/>
</a>
</g>
</g>
<!-- Node3 -->
<g id="Node000003" class="node">
<title>Node3</title>
<g id="a_Node000003"><a xlink:href="exception_8hpp.html" target="_top" xlink:title=" ">
<polygon fill="white" stroke="#666666" points="328.12,-228 209.12,-228 209.12,-198 328.12,-198 328.12,-228"/>
<text text-anchor="start" x="217.12" y="-216" font-family="Helvetica,sans-Serif" font-size="10.00">packages/exceptions</text>
<text text-anchor="middle" x="268.62" y="-205" font-family="Helvetica,sans-Serif" font-size="10.00">/inc/exception.hpp</text>
</a>
</g>
</g>
<!-- Node2&#45;&gt;Node3 -->
<g id="edge2_Node000002_Node000003" class="edge">
<title>Node2&#45;&gt;Node3</title>
<g id="a_edge2_Node000002_Node000003"><a xlink:title=" ">
<path fill="none" stroke="#63b8ff" d="M184.32,-263.95C199.51,-254.95 219.44,-243.14 236.1,-233.27"/>
<polygon fill="#63b8ff" stroke="#63b8ff" points="238.15,-236.12 244.97,-228.01 234.59,-230.1 238.15,-236.12"/>
</a>
</g>
</g>
<!-- Node6 -->
<g id="Node000006" class="node">
<title>Node6</title>
<g id="a_Node000006"><a xlink:href="detail_8hpp.html" target="_top" xlink:title=" ">
<polygon fill="white" stroke="#666666" points="246.12,-30 127.12,-30 127.12,0 246.12,0 246.12,-30"/>
<text text-anchor="start" x="135.12" y="-18" font-family="Helvetica,sans-Serif" font-size="10.00">packages/macros/inc</text>
<text text-anchor="middle" x="186.62" y="-7" font-family="Helvetica,sans-Serif" font-size="10.00">/detail.hpp</text>
</a>
</g>
</g>
<!-- Node2&#45;&gt;Node6 -->
<g id="edge18_Node000002_Node000006" class="edge">
<title>Node2&#45;&gt;Node6</title>
<g id="a_edge18_Node000002_Node000006"><a xlink:title=" ">
<path fill="none" stroke="#63b8ff" d="M113.2,-263.96C91.55,-255.9 66.57,-244.13 47.62,-228 12.01,-197.7 -8.93,-176.75 4.62,-132 14.83,-98.26 20.88,-87.76 48.62,-66 68.62,-50.31 93.99,-39.26 117.5,-31.61"/>
<polygon fill="#63b8ff" stroke="#63b8ff" points="118.58,-34.94 127.1,-28.64 116.51,-28.25 118.58,-34.94"/>
</a>
</g>
</g>
<!-- Node18 -->
<g id="Node000018" class="node">
<title>Node18</title>
<g id="a_Node000018"><a xlink:title=" ">
<polygon fill="#e0e0e0" stroke="#999999" points="112.62,-222.5 56.62,-222.5 56.62,-203.5 112.62,-203.5 112.62,-222.5"/>
<text text-anchor="middle" x="84.62" y="-210.5" font-family="Helvetica,sans-Serif" font-size="10.00">sstream</text>
</a>
</g>
</g>
<!-- Node2&#45;&gt;Node18 -->
<g id="edge19_Node000002_Node000018" class="edge">
<title>Node2&#45;&gt;Node18</title>
<g id="a_edge19_Node000002_Node000018"><a xlink:title=" ">
<path fill="none" stroke="#63b8ff" d="M143.75,-263.8C131.67,-253.62 115.41,-239.93 103,-229.48"/>
<polygon fill="#63b8ff" stroke="#63b8ff" points="105.02,-226.61 95.12,-222.84 100.52,-231.96 105.02,-226.61"/>
</a>
</g>
</g>
<!-- Node19 -->
<g id="Node000019" class="node">
<title>Node19</title>
<g id="a_Node000019"><a xlink:title=" ">
<polygon fill="#e0e0e0" stroke="#999999" points="190.62,-222.5 130.62,-222.5 130.62,-203.5 190.62,-203.5 190.62,-222.5"/>
<text text-anchor="middle" x="160.62" y="-210.5" font-family="Helvetica,sans-Serif" font-size="10.00">concepts</text>
</a>
</g>
</g>
<!-- Node2&#45;&gt;Node19 -->
<g id="edge20_Node000002_Node000019" class="edge">
<title>Node2&#45;&gt;Node19</title>
<g id="a_edge20_Node000002_Node000019"><a xlink:title=" ">
<path fill="none" stroke="#63b8ff" d="M160.62,-263.8C160.62,-254.7 160.62,-242.79 160.62,-232.9"/>
<polygon fill="#63b8ff" stroke="#63b8ff" points="164.12,-232.84 160.62,-222.84 157.12,-232.84 164.12,-232.84"/>
</a>
</g>
</g>
<!-- Node4 -->
<g id="Node000004" class="node">
<title>Node4</title>
<g id="a_Node000004"><a xlink:href="types_8hpp.html" target="_top" xlink:title=" ">
<polygon fill="white" stroke="#666666" points="550.62,-162 440.62,-162 440.62,-132 550.62,-132 550.62,-162"/>
<text text-anchor="start" x="448.62" y="-150" font-family="Helvetica,sans-Serif" font-size="10.00">packages/types/inc</text>
<text text-anchor="middle" x="495.62" y="-139" font-family="Helvetica,sans-Serif" font-size="10.00">/types.hpp</text>
</a>
</g>
</g>
<!-- Node3&#45;&gt;Node4 -->
<g id="edge3_Node000003_Node000004" class="edge">
<title>Node3&#45;&gt;Node4</title>
<g id="a_edge3_Node000003_Node000004"><a xlink:title=" ">
<path fill="none" stroke="#63b8ff" d="M318.43,-197.95C353.03,-188.2 399.3,-175.16 435.88,-164.84"/>
<polygon fill="#63b8ff" stroke="#63b8ff" points="437.24,-168.09 445.92,-162.01 435.34,-161.36 437.24,-168.09"/>
</a>
</g>
</g>
<!-- Node9 -->
<g id="Node000009" class="node">
<title>Node9</title>
<g id="a_Node000009"><a xlink:title=" ">
<polygon fill="#e0e0e0" stroke="#999999" points="101.62,-90.5 57.62,-90.5 57.62,-71.5 101.62,-71.5 101.62,-90.5"/>
<text text-anchor="middle" x="79.62" y="-78.5" font-family="Helvetica,sans-Serif" font-size="10.00">string</text>
</a>
</g>
</g>
<!-- Node3&#45;&gt;Node9 -->
<g id="edge14_Node000003_Node000009" class="edge">
<title>Node3&#45;&gt;Node9</title>
<g id="a_edge14_Node000003_Node000009"><a xlink:title=" ">
<path fill="none" stroke="#63b8ff" d="M325.69,-197.94C369.94,-184.38 419.68,-161.58 393.62,-132 351.71,-84.43 171.63,-113.24 110.62,-96 108.98,-95.54 107.31,-95 105.65,-94.41"/>
<polygon fill="#63b8ff" stroke="#63b8ff" points="106.91,-91.15 96.33,-90.64 104.29,-97.64 106.91,-91.15"/>
</a>
</g>
</g>
<!-- Node14 -->
<g id="Node000014" class="node">
<title>Node14</title>
<g id="a_Node000014"><a xlink:title=" ">
<polygon fill="#e0e0e0" stroke="#999999" points="79.12,-156.5 14.12,-156.5 14.12,-137.5 79.12,-137.5 79.12,-156.5"/>
<text text-anchor="middle" x="46.62" y="-144.5" font-family="Helvetica,sans-Serif" font-size="10.00">stdexcept</text>
</a>
</g>
</g>
<!-- Node3&#45;&gt;Node14 -->
<g id="edge13_Node000003_Node000014" class="edge">
<title>Node3&#45;&gt;Node14</title>
<g id="a_edge13_Node000003_Node000014"><a xlink:title=" ">
<path fill="none" stroke="#63b8ff" d="M214.52,-197.96C178.42,-188.37 129.98,-175.07 87.62,-162 85.31,-161.29 82.94,-160.54 80.56,-159.76"/>
<polygon fill="#63b8ff" stroke="#63b8ff" points="81.42,-156.36 70.82,-156.53 79.21,-163 81.42,-156.36"/>
</a>
</g>
</g>
<!-- Node15 -->
<g id="Node000015" class="node">
<title>Node15</title>
<g id="a_Node000015"><a xlink:title=" ">
<polygon fill="#e0e0e0" stroke="#999999" points="144.12,-156.5 97.12,-156.5 97.12,-137.5 144.12,-137.5 144.12,-156.5"/>
<text text-anchor="middle" x="120.62" y="-144.5" font-family="Helvetica,sans-Serif" font-size="10.00">deque</text>
</a>
</g>
</g>
<!-- Node3&#45;&gt;Node15 -->
<g id="edge15_Node000003_Node000015" class="edge">
<title>Node3&#45;&gt;Node15</title>
<g id="a_edge15_Node000003_Node000015"><a xlink:title=" ">
<path fill="none" stroke="#63b8ff" d="M236.14,-197.95C210.3,-186.78 174.47,-171.29 149.59,-160.53"/>
<polygon fill="#63b8ff" stroke="#63b8ff" points="150.88,-157.27 140.31,-156.52 148.1,-163.7 150.88,-157.27"/>
</a>
</g>
</g>
<!-- Node16 -->
<g id="Node000016" class="node">
<title>Node16</title>
<g id="a_Node000016"><a xlink:title=" ">
<polygon fill="#e0e0e0" stroke="#999999" points="220.62,-156.5 162.62,-156.5 162.62,-137.5 220.62,-137.5 220.62,-156.5"/>
<text text-anchor="middle" x="191.62" y="-144.5" font-family="Helvetica,sans-Serif" font-size="10.00">memory</text>
</a>
</g>
</g>
<!-- Node3&#45;&gt;Node16 -->
<g id="edge16_Node000003_Node000016" class="edge">
<title>Node3&#45;&gt;Node16</title>
<g id="a_edge16_Node000003_Node000016"><a xlink:title=" ">
<path fill="none" stroke="#63b8ff" d="M251.53,-197.8C239.29,-187.62 222.82,-173.93 210.24,-163.48"/>
<polygon fill="#63b8ff" stroke="#63b8ff" points="212.19,-160.54 202.26,-156.84 207.71,-165.93 212.19,-160.54"/>
</a>
</g>
</g>
<!-- Node17 -->
<g id="Node000017" class="node">
<title>Node17</title>
<g id="a_Node000017"><a xlink:title=" ">
<polygon fill="#e0e0e0" stroke="#999999" points="384.62,-162 238.62,-162 238.62,-132 384.62,-132 384.62,-162"/>
<text text-anchor="start" x="246.62" y="-150" font-family="Helvetica,sans-Serif" font-size="10.00">packages/exceptions</text>
<text text-anchor="middle" x="311.62" y="-139" font-family="Helvetica,sans-Serif" font-size="10.00">/impl/exceptions_impl.hpp</text>
</a>
</g>
</g>
<!-- Node3&#45;&gt;Node17 -->
<g id="edge17_Node000003_Node000017" class="edge">
<title>Node3&#45;&gt;Node17</title>
<g id="a_edge17_Node000003_Node000017"><a xlink:title=" ">
<path fill="none" stroke="#63b8ff" d="M278.16,-197.8C283.51,-189.84 290.3,-179.74 296.36,-170.71"/>
<polygon fill="#63b8ff" stroke="#63b8ff" points="299.43,-172.42 302.1,-162.16 293.62,-168.51 299.43,-172.42"/>
</a>
</g>
</g>
<!-- Node5 -->
<g id="Node000005" class="node">
<title>Node5</title>
<g id="a_Node000005"><a xlink:href="debug_8hpp.html" target="_top" xlink:title=" ">
<polygon fill="white" stroke="#666666" points="511.12,-96 392.12,-96 392.12,-66 511.12,-66 511.12,-96"/>
<text text-anchor="start" x="400.12" y="-84" font-family="Helvetica,sans-Serif" font-size="10.00">packages/macros/inc</text>
<text text-anchor="middle" x="451.62" y="-73" font-family="Helvetica,sans-Serif" font-size="10.00">/debug.hpp</text>
</a>
</g>
</g>
<!-- Node4&#45;&gt;Node5 -->
<g id="edge4_Node000004_Node000005" class="edge">
<title>Node4&#45;&gt;Node5</title>
<g id="a_edge4_Node000004_Node000005"><a xlink:title=" ">
<path fill="none" stroke="#63b8ff" d="M485.85,-131.8C480.33,-123.76 473.29,-113.53 467.04,-104.43"/>
<polygon fill="#63b8ff" stroke="#63b8ff" points="469.91,-102.42 461.36,-96.16 464.14,-106.39 469.91,-102.42"/>
</a>
</g>
</g>
<!-- Node8 -->
<g id="Node000008" class="node">
<title>Node8</title>
<g id="a_Node000008"><a xlink:title=" ">
<polygon fill="#e0e0e0" stroke="#999999" points="582.12,-90.5 529.12,-90.5 529.12,-71.5 582.12,-71.5 582.12,-90.5"/>
<text text-anchor="middle" x="555.62" y="-78.5" font-family="Helvetica,sans-Serif" font-size="10.00">cstddef</text>
</a>
</g>
</g>
<!-- Node4&#45;&gt;Node8 -->
<g id="edge7_Node000004_Node000008" class="edge">
<title>Node4&#45;&gt;Node8</title>
<g id="a_edge7_Node000004_Node000008"><a xlink:title=" ">
<path fill="none" stroke="#63b8ff" d="M508.93,-131.8C518.2,-121.92 530.57,-108.72 540.25,-98.39"/>
<polygon fill="#63b8ff" stroke="#63b8ff" points="543.04,-100.53 547.33,-90.84 537.93,-95.75 543.04,-100.53"/>
</a>
</g>
</g>
<!-- Node4&#45;&gt;Node9 -->
<g id="edge8_Node000004_Node000009" class="edge">
<title>Node4&#45;&gt;Node9</title>
<g id="a_edge8_Node000004_Node000009"><a xlink:title=" ">
<path fill="none" stroke="#63b8ff" d="M440.33,-134.34C435.7,-133.5 431.09,-132.71 426.62,-132 287,-109.93 246.89,-133.54 110.62,-96 108.94,-95.54 107.23,-94.99 105.52,-94.39"/>
<polygon fill="#63b8ff" stroke="#63b8ff" points="106.58,-91.05 96,-90.54 103.95,-97.53 106.58,-91.05"/>
</a>
</g>
</g>
<!-- Node4&#45;&gt;Node10 -->
<g id="edge9_Node000004_Node000010" class="edge">
<title>Node4&#45;&gt;Node10</title>
<g id="a_edge9_Node000004_Node000010"><a xlink:title=" ">
<path fill="none" stroke="#63b8ff" d="M542.32,-131.93C575.16,-121.99 620.12,-108.31 659.62,-96 662.03,-95.25 664.51,-94.47 667.02,-93.68"/>
<polygon fill="#63b8ff" stroke="#63b8ff" points="668.16,-96.99 676.64,-90.64 666.05,-90.32 668.16,-96.99"/>
</a>
</g>
</g>
<!-- Node11 -->
<g id="Node000011" class="node">
<title>Node11</title>
<g id="a_Node000011"><a xlink:title=" ">
<polygon fill="#e0e0e0" stroke="#999999" points="650.62,-90.5 600.62,-90.5 600.62,-71.5 650.62,-71.5 650.62,-90.5"/>
<text text-anchor="middle" x="625.62" y="-78.5" font-family="Helvetica,sans-Serif" font-size="10.00">climits</text>
</a>
</g>
</g>
<!-- Node4&#45;&gt;Node11 -->
<g id="edge10_Node000004_Node000011" class="edge">
<title>Node4&#45;&gt;Node11</title>
<g id="a_edge10_Node000004_Node000011"><a xlink:title=" ">
<path fill="none" stroke="#63b8ff" d="M524.15,-131.95C546.54,-120.93 577.48,-105.7 599.29,-94.96"/>
<polygon fill="#63b8ff" stroke="#63b8ff" points="600.89,-98.07 608.32,-90.52 597.8,-91.79 600.89,-98.07"/>
</a>
</g>
</g>
<!-- Node12 -->
<g id="Node000012" class="node">
<title>Node12</title>
<g id="a_Node000012"><a xlink:title=" ">
<polygon fill="#e0e0e0" stroke="#999999" points="237.12,-96 120.12,-96 120.12,-66 237.12,-66 237.12,-96"/>
<text text-anchor="start" x="128.12" y="-84" font-family="Helvetica,sans-Serif" font-size="10.00">packages/types/impl</text>
<text text-anchor="middle" x="178.62" y="-73" font-family="Helvetica,sans-Serif" font-size="10.00">/types_impl.hpp</text>
</a>
</g>
</g>
<!-- Node4&#45;&gt;Node12 -->
<g id="edge11_Node000004_Node000012" class="edge">
<title>Node4&#45;&gt;Node12</title>
<g id="a_edge11_Node000004_Node000012"><a xlink:title=" ">
<path fill="none" stroke="#63b8ff" d="M440.26,-134.75C435.65,-133.82 431.05,-132.89 426.62,-132 349.35,-116.48 327.66,-112.68 247.51,-96.38"/>
<polygon fill="#63b8ff" stroke="#63b8ff" points="247.94,-92.89 237.44,-94.32 246.54,-99.75 247.94,-92.89"/>
</a>
</g>
</g>
<!-- Node13 -->
<g id="Node000013" class="node">
<title>Node13</title>
<g id="a_Node000013"><a xlink:href="logging_8hpp.html" target="_top" xlink:title=" ">
<polygon fill="white" stroke="#666666" points="374.12,-96 255.12,-96 255.12,-66 374.12,-66 374.12,-96"/>
<text text-anchor="start" x="263.12" y="-84" font-family="Helvetica,sans-Serif" font-size="10.00">packages/macros/inc</text>
<text text-anchor="middle" x="314.62" y="-73" font-family="Helvetica,sans-Serif" font-size="10.00">/logging.hpp</text>
</a>
</g>
</g>
<!-- Node4&#45;&gt;Node13 -->
<g id="edge12_Node000004_Node000013" class="edge">
<title>Node4&#45;&gt;Node13</title>
<g id="a_edge12_Node000004_Node000013"><a xlink:title=" ">
<path fill="none" stroke="#63b8ff" d="M455.9,-131.95C428.78,-122.37 392.68,-109.6 363.76,-99.37"/>
<polygon fill="#63b8ff" stroke="#63b8ff" points="364.84,-96.05 354.25,-96.01 362.51,-102.65 364.84,-96.05"/>
</a>
</g>
</g>
<!-- Node5&#45;&gt;Node6 -->
<g id="edge5_Node000005_Node000006" class="edge">
<title>Node5&#45;&gt;Node6</title>
<g id="a_edge5_Node000005_Node000006"><a xlink:title=" ">
<path fill="none" stroke="#63b8ff" d="M393.46,-65.95C352.47,-56.06 297.45,-42.77 254.45,-32.38"/>
<polygon fill="#63b8ff" stroke="#63b8ff" points="255.18,-28.96 244.64,-30.01 253.54,-35.76 255.18,-28.96"/>
</a>
</g>
</g>
<!-- Node7 -->
<g id="Node000007" class="node">
<title>Node7</title>
<g id="a_Node000007"><a xlink:title=" ">
<polygon fill="#e0e0e0" stroke="#999999" points="481.62,-24.5 421.62,-24.5 421.62,-5.5 481.62,-5.5 481.62,-24.5"/>
<text text-anchor="middle" x="451.62" y="-12.5" font-family="Helvetica,sans-Serif" font-size="10.00">iostream</text>
</a>
</g>
</g>
<!-- Node5&#45;&gt;Node7 -->
<g id="edge6_Node000005_Node000007" class="edge">
<title>Node5&#45;&gt;Node7</title>
<g id="a_edge6_Node000005_Node000007"><a xlink:title=" ">
<path fill="none" stroke="#63b8ff" d="M451.62,-65.8C451.62,-56.7 451.62,-44.79 451.62,-34.9"/>
<polygon fill="#63b8ff" stroke="#63b8ff" points="455.12,-34.84 451.62,-24.84 448.12,-34.84 455.12,-34.84"/>
</a>
</g>
</g>
</g>
</svg>
