<?xml version="1.0" encoding="UTF-8" standalone="no"?>
<!DOCTYPE svg PUBLIC "-//W3C//DTD SVG 1.1//EN"
 "http://www.w3.org/Graphics/SVG/1.1/DTD/svg11.dtd">
<!-- Generated by graphviz version 2.43.0 (0)
 -->
<!-- Title: OptionalRef.hpp Pages: 1 -->
<!--zoomable 363 -->
<svg id="main" version="1.1" xmlns="http://www.w3.org/2000/svg" xmlns:xlink="http://www.w3.org/1999/xlink" xml:space="preserve" onload="init(evt)">
<style type="text/css"><![CDATA[
.edge:hover path { stroke: red; }
.edge:hover polygon { stroke: red; fill: red; }
]]></style>
<script type="text/javascript"><![CDATA[
var edges = document.getElementsByTagName('g');
if (edges && edges.length) {
  for (var i=0;i<edges.length;i++) {
    if (edges[i].id.substr(0,4)=='edge') {
      edges[i].setAttribute('class','edge');
    }
  }
}
]]></script>
        <defs>
                <circle id="rim" cx="0" cy="0" r="7"/>
                <circle id="rim2" cx="0" cy="0" r="3.5"/>
                <g id="zoomPlus">
                        <use xlink:href="#rim" fill="#404040">
                                <set attributeName="fill" to="#808080" begin="zoomplus.mouseover" end="zoomplus.mouseout"/>
                        </use>
                        <path d="M-4,0h8M0,-4v8" fill="none" stroke="white" stroke-width="1.5" pointer-events="none"/>
                </g>
                <g id="zoomMin">
                        <use xlink:href="#rim" fill="#404040">
                                <set attributeName="fill" to="#808080" begin="zoomminus.mouseover" end="zoomminus.mouseout"/>
                        </use>
                        <path d="M-4,0h8" fill="none" stroke="white" stroke-width="1.5" pointer-events="none"/>
                </g>
                <g id="dirArrow">
                        <path fill="none" stroke="white" stroke-width="1.5" d="M0,-3.0v7 M-2.5,-0.5L0,-3.0L2.5,-0.5"/>
                </g>
               <g id="resetDef">
                       <use xlink:href="#rim2" fill="#404040">
                               <set attributeName="fill" to="#808080" begin="reset.mouseover" end="reset.mouseout"/>
                       </use>
               </g>
        </defs>

<script type="text/javascript">
var viewWidth = 830;
var viewHeight = 363;
var sectionId = 'dynsection-0';
</script>
<script xlink:href="svgpan.js"/>
<svg id="graph" class="graph">
<g id="viewport">
<title>OptionalRef.hpp</title>
<polygon fill="white" stroke="transparent" points="-4,4 -4,-359 826.35,-359 826.35,4 -4,4"/>
<!-- Node1 -->
<g id="node1" class="node">
<title>Node1</title>
<g id="a_node1"><a xlink:title=" ">
<polygon fill="#bfbfbf" stroke="black" points="588.85,-335.5 588.85,-354.5 683.85,-354.5 683.85,-335.5 588.85,-335.5"/>
<text text-anchor="middle" x="636.35" y="-342.5" font-family="Helvetica,sans-Serif" font-size="10.00">OptionalRef.hpp</text>
</a>
</g>
</g>
<!-- Node2 -->
<g id="node2" class="node">
<title>Node2</title>
<g id="a_node2"><a xlink:href="exceptions_8hpp.html" target="_top" xlink:title=" ">
<polygon fill="white" stroke="black" points="166.85,-268.5 166.85,-298.5 285.85,-298.5 285.85,-268.5 166.85,-268.5"/>
<text text-anchor="start" x="174.85" y="-286.5" font-family="Helvetica,sans-Serif" font-size="10.00">packages/macros/inc</text>
<text text-anchor="middle" x="226.35" y="-275.5" font-family="Helvetica,sans-Serif" font-size="10.00">/exceptions.hpp</text>
</a>
</g>
</g>
<!-- Node1&#45;&gt;Node2 -->
<g id="edge1" class="edge">
<title>Node1&#45;&gt;Node2</title>
<path fill="none" stroke="midnightblue" d="M588.52,-337.06C516.43,-326.6 379.54,-306.73 296.26,-294.65"/>
<polygon fill="midnightblue" stroke="midnightblue" points="296.53,-291.15 286.13,-293.18 295.52,-298.08 296.53,-291.15"/>
</g>
<!-- Node10 -->
<g id="node10" class="node">
<title>Node10</title>
<g id="a_node10"><a xlink:title=" ">
<polygon fill="white" stroke="#bfbfbf" points="624.85,-73 624.85,-92 693.85,-92 693.85,-73 624.85,-73"/>
<text text-anchor="middle" x="659.35" y="-80" font-family="Helvetica,sans-Serif" font-size="10.00">type_traits</text>
</a>
</g>
</g>
<!-- Node1&#45;&gt;Node10 -->
<g id="edge23" class="edge">
<title>Node1&#45;&gt;Node10</title>
<path fill="none" stroke="midnightblue" d="M634.12,-335.45C631.89,-326.45 628.62,-311.84 627.35,-299 620.09,-225.66 642.42,-139.12 653.5,-101.96"/>
<polygon fill="midnightblue" stroke="midnightblue" points="656.95,-102.67 656.54,-92.09 650.26,-100.62 656.95,-102.67"/>
</g>
<!-- Node14 -->
<g id="node14" class="node">
<title>Node14</title>
<g id="a_node14"><a xlink:title=" ">
<polygon fill="white" stroke="#bfbfbf" points="514.85,-140 514.85,-159 579.85,-159 579.85,-140 514.85,-140"/>
<text text-anchor="middle" x="547.35" y="-147" font-family="Helvetica,sans-Serif" font-size="10.00">stdexcept</text>
</a>
</g>
</g>
<!-- Node1&#45;&gt;Node14 -->
<g id="edge22" class="edge">
<title>Node1&#45;&gt;Node14</title>
<path fill="none" stroke="midnightblue" d="M625.98,-335.35C616.52,-326.96 602.76,-313.39 594.35,-299 569.3,-256.13 556.01,-198.35 550.49,-169.12"/>
<polygon fill="midnightblue" stroke="midnightblue" points="553.9,-168.31 548.7,-159.08 547.01,-169.54 553.9,-168.31"/>
</g>
<!-- Node20 -->
<g id="node20" class="node">
<title>Node20</title>
<g id="a_node20"><a xlink:title=" ">
<polygon fill="white" stroke="#bfbfbf" points="636.35,-274 636.35,-293 692.35,-293 692.35,-274 636.35,-274"/>
<text text-anchor="middle" x="664.35" y="-281" font-family="Helvetica,sans-Serif" font-size="10.00">optional</text>
</a>
</g>
</g>
<!-- Node1&#45;&gt;Node20 -->
<g id="edge21" class="edge">
<title>Node1&#45;&gt;Node20</title>
<path fill="none" stroke="midnightblue" d="M640.36,-335.48C644.44,-326.82 650.87,-313.15 656.05,-302.15"/>
<polygon fill="midnightblue" stroke="midnightblue" points="659.26,-303.55 660.35,-293.01 652.92,-300.57 659.26,-303.55"/>
</g>
<!-- Node21 -->
<g id="node21" class="node">
<title>Node21</title>
<g id="a_node21"><a xlink:title=" ">
<polygon fill="white" stroke="#bfbfbf" points="710.35,-274 710.35,-293 754.35,-293 754.35,-274 710.35,-274"/>
<text text-anchor="middle" x="732.35" y="-281" font-family="Helvetica,sans-Serif" font-size="10.00">bitset</text>
</a>
</g>
</g>
<!-- Node1&#45;&gt;Node21 -->
<g id="edge24" class="edge">
<title>Node1&#45;&gt;Node21</title>
<path fill="none" stroke="midnightblue" d="M650.11,-335.48C665.72,-325.8 691.42,-309.87 709.94,-298.39"/>
<polygon fill="midnightblue" stroke="midnightblue" points="711.97,-301.25 718.62,-293.01 708.28,-295.3 711.97,-301.25"/>
</g>
<!-- Node22 -->
<g id="node22" class="node">
<title>Node22</title>
<g id="a_node22"><a xlink:title=" ">
<polygon fill="white" stroke="#bfbfbf" points="772.35,-274 772.35,-293 822.35,-293 822.35,-274 772.35,-274"/>
<text text-anchor="middle" x="797.35" y="-281" font-family="Helvetica,sans-Serif" font-size="10.00">cstdint</text>
</a>
</g>
</g>
<!-- Node1&#45;&gt;Node22 -->
<g id="edge25" class="edge">
<title>Node1&#45;&gt;Node22</title>
<path fill="none" stroke="midnightblue" d="M661.83,-335.5C687.59,-326.78 728.48,-312.6 763.35,-299 764.96,-298.37 766.6,-297.72 768.25,-297.05"/>
<polygon fill="midnightblue" stroke="midnightblue" points="769.77,-300.21 777.66,-293.14 767.08,-293.75 769.77,-300.21"/>
</g>
<!-- Node3 -->
<g id="node3" class="node">
<title>Node3</title>
<g id="a_node3"><a xlink:href="exception_8hpp.html" target="_top" xlink:title=" ">
<polygon fill="white" stroke="black" points="274.85,-201.5 274.85,-231.5 393.85,-231.5 393.85,-201.5 274.85,-201.5"/>
<text text-anchor="start" x="282.85" y="-219.5" font-family="Helvetica,sans-Serif" font-size="10.00">packages/exceptions</text>
<text text-anchor="middle" x="334.35" y="-208.5" font-family="Helvetica,sans-Serif" font-size="10.00">/inc/exception.hpp</text>
</a>
</g>
</g>
<!-- Node2&#45;&gt;Node3 -->
<g id="edge2" class="edge">
<title>Node2&#45;&gt;Node3</title>
<path fill="none" stroke="midnightblue" d="M249.79,-268.4C265.07,-259.2 285.23,-247.07 302.03,-236.95"/>
<polygon fill="midnightblue" stroke="midnightblue" points="304.2,-239.73 310.96,-231.58 300.59,-233.73 304.2,-239.73"/>
</g>
<!-- Node6 -->
<g id="node6" class="node">
<title>Node6</title>
<g id="a_node6"><a xlink:href="detail_8hpp.html" target="_top" xlink:title=" ">
<polygon fill="white" stroke="black" points="82.85,-0.5 82.85,-30.5 201.85,-30.5 201.85,-0.5 82.85,-0.5"/>
<text text-anchor="start" x="90.85" y="-18.5" font-family="Helvetica,sans-Serif" font-size="10.00">packages/macros/inc</text>
<text text-anchor="middle" x="142.35" y="-7.5" font-family="Helvetica,sans-Serif" font-size="10.00">/detail.hpp</text>
</a>
</g>
</g>
<!-- Node2&#45;&gt;Node6 -->
<g id="edge18" class="edge">
<title>Node2&#45;&gt;Node6</title>
<path fill="none" stroke="midnightblue" d="M187.83,-268.45C165.32,-259.47 136.81,-246.77 113.35,-232 48.38,-191.1 20.39,-173.08 4.35,-98 1.47,-84.53 -3.54,-78.29 4.35,-67 20.1,-44.47 47.03,-31.96 72.95,-25.03"/>
<polygon fill="midnightblue" stroke="midnightblue" points="73.91,-28.39 82.81,-22.63 72.26,-21.59 73.91,-28.39"/>
</g>
<!-- Node18 -->
<g id="node18" class="node">
<title>Node18</title>
<g id="a_node18"><a xlink:title=" ">
<polygon fill="white" stroke="#bfbfbf" points="122.35,-207 122.35,-226 178.35,-226 178.35,-207 122.35,-207"/>
<text text-anchor="middle" x="150.35" y="-214" font-family="Helvetica,sans-Serif" font-size="10.00">sstream</text>
</a>
</g>
</g>
<!-- Node2&#45;&gt;Node18 -->
<g id="edge19" class="edge">
<title>Node2&#45;&gt;Node18</title>
<path fill="none" stroke="midnightblue" d="M209.86,-268.4C197.66,-257.96 181.05,-243.75 168.47,-233"/>
<polygon fill="midnightblue" stroke="midnightblue" points="170.39,-230.03 160.52,-226.19 165.84,-235.35 170.39,-230.03"/>
</g>
<!-- Node19 -->
<g id="node19" class="node">
<title>Node19</title>
<g id="a_node19"><a xlink:title=" ">
<polygon fill="white" stroke="#bfbfbf" points="196.35,-207 196.35,-226 256.35,-226 256.35,-207 196.35,-207"/>
<text text-anchor="middle" x="226.35" y="-214" font-family="Helvetica,sans-Serif" font-size="10.00">concepts</text>
</a>
</g>
</g>
<!-- Node2&#45;&gt;Node19 -->
<g id="edge20" class="edge">
<title>Node2&#45;&gt;Node19</title>
<path fill="none" stroke="midnightblue" d="M226.35,-268.4C226.35,-259.06 226.35,-246.71 226.35,-236.52"/>
<polygon fill="midnightblue" stroke="midnightblue" points="229.85,-236.19 226.35,-226.19 222.85,-236.19 229.85,-236.19"/>
</g>
<!-- Node4 -->
<g id="node4" class="node">
<title>Node4</title>
<g id="a_node4"><a xlink:href="types_8hpp.html" target="_top" xlink:title=" ">
<polygon fill="white" stroke="black" points="321.35,-134.5 321.35,-164.5 431.35,-164.5 431.35,-134.5 321.35,-134.5"/>
<text text-anchor="start" x="329.35" y="-152.5" font-family="Helvetica,sans-Serif" font-size="10.00">packages/types/inc</text>
<text text-anchor="middle" x="376.35" y="-141.5" font-family="Helvetica,sans-Serif" font-size="10.00">/types.hpp</text>
</a>
</g>
</g>
<!-- Node3&#45;&gt;Node4 -->
<g id="edge3" class="edge">
<title>Node3&#45;&gt;Node4</title>
<path fill="none" stroke="midnightblue" d="M343.47,-201.4C348.8,-193.13 355.67,-182.51 361.75,-173.1"/>
<polygon fill="midnightblue" stroke="midnightblue" points="364.77,-174.88 367.26,-164.58 358.89,-171.08 364.77,-174.88"/>
</g>
<!-- Node9 -->
<g id="node9" class="node">
<title>Node9</title>
<g id="a_node9"><a xlink:title=" ">
<polygon fill="white" stroke="#bfbfbf" points="13.35,-73 13.35,-92 57.35,-92 57.35,-73 13.35,-73"/>
<text text-anchor="middle" x="35.35" y="-80" font-family="Helvetica,sans-Serif" font-size="10.00">string</text>
</a>
</g>
</g>
<!-- Node3&#45;&gt;Node9 -->
<g id="edge14" class="edge">
<title>Node3&#45;&gt;Node9</title>
<path fill="none" stroke="midnightblue" d="M328.14,-201.36C319.15,-182.69 300.65,-150.26 274.35,-134 194.56,-84.66 155.86,-126.12 66.35,-98 64.48,-97.41 62.58,-96.74 60.68,-96"/>
<polygon fill="midnightblue" stroke="midnightblue" points="62.01,-92.76 51.44,-92.01 59.23,-99.19 62.01,-92.76"/>
</g>
<!-- Node3&#45;&gt;Node14 -->
<g id="edge13" class="edge">
<title>Node3&#45;&gt;Node14</title>
<path fill="none" stroke="midnightblue" d="M384.29,-201.4C418.49,-191.58 464.82,-177.98 505.35,-165 507.95,-164.17 510.63,-163.29 513.32,-162.39"/>
<polygon fill="midnightblue" stroke="midnightblue" points="514.64,-165.64 522.99,-159.12 512.39,-159.01 514.64,-165.64"/>
</g>
<!-- Node15 -->
<g id="node15" class="node">
<title>Node15</title>
<g id="a_node15"><a xlink:title=" ">
<polygon fill="white" stroke="#bfbfbf" points="449.85,-140 449.85,-159 496.85,-159 496.85,-140 449.85,-140"/>
<text text-anchor="middle" x="473.35" y="-147" font-family="Helvetica,sans-Serif" font-size="10.00">deque</text>
</a>
</g>
</g>
<!-- Node3&#45;&gt;Node15 -->
<g id="edge15" class="edge">
<title>Node3&#45;&gt;Node15</title>
<path fill="none" stroke="midnightblue" d="M364.51,-201.4C388.79,-190.04 422.63,-174.22 446.1,-163.24"/>
<polygon fill="midnightblue" stroke="midnightblue" points="447.58,-166.41 455.16,-159.01 444.62,-160.07 447.58,-166.41"/>
</g>
<!-- Node16 -->
<g id="node16" class="node">
<title>Node16</title>
<g id="a_node16"><a xlink:title=" ">
<polygon fill="white" stroke="#bfbfbf" points="43.35,-140 43.35,-159 101.35,-159 101.35,-140 43.35,-140"/>
<text text-anchor="middle" x="72.35" y="-147" font-family="Helvetica,sans-Serif" font-size="10.00">memory</text>
</a>
</g>
</g>
<!-- Node3&#45;&gt;Node16 -->
<g id="edge16" class="edge">
<title>Node3&#45;&gt;Node16</title>
<path fill="none" stroke="midnightblue" d="M274.7,-202.51C213.8,-189.18 126.02,-169.73 110.35,-165 107.78,-164.22 105.13,-163.36 102.49,-162.45"/>
<polygon fill="midnightblue" stroke="midnightblue" points="103.67,-159.15 93.07,-159.02 101.27,-165.73 103.67,-159.15"/>
</g>
<!-- Node17 -->
<g id="node17" class="node">
<title>Node17</title>
<g id="a_node17"><a xlink:title=" ">
<polygon fill="white" stroke="#bfbfbf" points="119.35,-134.5 119.35,-164.5 265.35,-164.5 265.35,-134.5 119.35,-134.5"/>
<text text-anchor="start" x="127.35" y="-152.5" font-family="Helvetica,sans-Serif" font-size="10.00">packages/exceptions</text>
<text text-anchor="middle" x="192.35" y="-141.5" font-family="Helvetica,sans-Serif" font-size="10.00">/impl/exceptions_impl.hpp</text>
</a>
</g>
</g>
<!-- Node3&#45;&gt;Node17 -->
<g id="edge17" class="edge">
<title>Node3&#45;&gt;Node17</title>
<path fill="none" stroke="midnightblue" d="M303.54,-201.4C282.7,-191.86 254.97,-179.16 232.42,-168.84"/>
<polygon fill="midnightblue" stroke="midnightblue" points="233.65,-165.56 223.1,-164.58 230.74,-171.92 233.65,-165.56"/>
</g>
<!-- Node5 -->
<g id="node5" class="node">
<title>Node5</title>
<g id="a_node5"><a xlink:href="debug_8hpp.html" target="_top" xlink:title=" ">
<polygon fill="white" stroke="black" points="347.85,-67.5 347.85,-97.5 466.85,-97.5 466.85,-67.5 347.85,-67.5"/>
<text text-anchor="start" x="355.85" y="-85.5" font-family="Helvetica,sans-Serif" font-size="10.00">packages/macros/inc</text>
<text text-anchor="middle" x="407.35" y="-74.5" font-family="Helvetica,sans-Serif" font-size="10.00">/debug.hpp</text>
</a>
</g>
</g>
<!-- Node4&#45;&gt;Node5 -->
<g id="edge4" class="edge">
<title>Node4&#45;&gt;Node5</title>
<path fill="none" stroke="midnightblue" d="M383.08,-134.4C386.94,-126.3 391.88,-115.94 396.3,-106.69"/>
<polygon fill="midnightblue" stroke="midnightblue" points="399.49,-108.11 400.64,-97.58 393.18,-105.1 399.49,-108.11"/>
</g>
<!-- Node8 -->
<g id="node8" class="node">
<title>Node8</title>
<g id="a_node8"><a xlink:title=" ">
<polygon fill="white" stroke="#bfbfbf" points="484.85,-73 484.85,-92 537.85,-92 537.85,-73 484.85,-73"/>
<text text-anchor="middle" x="511.35" y="-80" font-family="Helvetica,sans-Serif" font-size="10.00">cstddef</text>
</a>
</g>
</g>
<!-- Node4&#45;&gt;Node8 -->
<g id="edge7" class="edge">
<title>Node4&#45;&gt;Node8</title>
<path fill="none" stroke="midnightblue" d="M405.65,-134.4C429.12,-123.09 461.8,-107.36 484.58,-96.39"/>
<polygon fill="midnightblue" stroke="midnightblue" points="486.19,-99.5 493.68,-92.01 483.16,-93.19 486.19,-99.5"/>
</g>
<!-- Node4&#45;&gt;Node9 -->
<g id="edge8" class="edge">
<title>Node4&#45;&gt;Node9</title>
<path fill="none" stroke="midnightblue" d="M321.05,-136.58C316.42,-135.67 311.81,-134.8 307.35,-134 200.76,-114.86 170.04,-129.27 66.35,-98 64.48,-97.43 62.57,-96.77 60.67,-96.05"/>
<polygon fill="midnightblue" stroke="midnightblue" points="61.98,-92.81 51.41,-92.09 59.23,-99.24 61.98,-92.81"/>
</g>
<!-- Node4&#45;&gt;Node10 -->
<g id="edge9" class="edge">
<title>Node4&#45;&gt;Node10</title>
<path fill="none" stroke="midnightblue" d="M431.5,-135.93C434.49,-135.27 437.46,-134.63 440.35,-134 517.97,-117.23 538.63,-118.46 615.35,-98 618.54,-97.15 621.83,-96.2 625.12,-95.21"/>
<polygon fill="midnightblue" stroke="midnightblue" points="626.36,-98.49 634.84,-92.13 624.25,-91.81 626.36,-98.49"/>
</g>
<!-- Node11 -->
<g id="node11" class="node">
<title>Node11</title>
<g id="a_node11"><a xlink:title=" ">
<polygon fill="white" stroke="#bfbfbf" points="556.35,-73 556.35,-92 606.35,-92 606.35,-73 556.35,-73"/>
<text text-anchor="middle" x="581.35" y="-80" font-family="Helvetica,sans-Serif" font-size="10.00">climits</text>
</a>
</g>
</g>
<!-- Node4&#45;&gt;Node11 -->
<g id="edge10" class="edge">
<title>Node4&#45;&gt;Node11</title>
<path fill="none" stroke="midnightblue" d="M428.89,-134.42C462.71,-124.98 507.47,-111.79 546.35,-98 548.21,-97.34 550.12,-96.64 552.03,-95.91"/>
<polygon fill="midnightblue" stroke="midnightblue" points="553.5,-99.09 561.5,-92.14 550.92,-92.58 553.5,-99.09"/>
</g>
<!-- Node12 -->
<g id="node12" class="node">
<title>Node12</title>
<g id="a_node12"><a xlink:title=" ">
<polygon fill="white" stroke="#bfbfbf" points="75.85,-67.5 75.85,-97.5 192.85,-97.5 192.85,-67.5 75.85,-67.5"/>
<text text-anchor="start" x="83.85" y="-85.5" font-family="Helvetica,sans-Serif" font-size="10.00">packages/types/impl</text>
<text text-anchor="middle" x="134.35" y="-74.5" font-family="Helvetica,sans-Serif" font-size="10.00">/types_impl.hpp</text>
</a>
</g>
</g>
<!-- Node4&#45;&gt;Node12 -->
<g id="edge11" class="edge">
<title>Node4&#45;&gt;Node12</title>
<path fill="none" stroke="midnightblue" d="M324.14,-134.48C286.74,-124.43 236.2,-110.86 196.68,-100.24"/>
<polygon fill="midnightblue" stroke="midnightblue" points="197.45,-96.82 186.89,-97.61 195.64,-103.59 197.45,-96.82"/>
</g>
<!-- Node13 -->
<g id="node13" class="node">
<title>Node13</title>
<g id="a_node13"><a xlink:href="logging_8hpp.html" target="_top" xlink:title=" ">
<polygon fill="white" stroke="black" points="210.85,-67.5 210.85,-97.5 329.85,-97.5 329.85,-67.5 210.85,-67.5"/>
<text text-anchor="start" x="218.85" y="-85.5" font-family="Helvetica,sans-Serif" font-size="10.00">packages/macros/inc</text>
<text text-anchor="middle" x="270.35" y="-74.5" font-family="Helvetica,sans-Serif" font-size="10.00">/logging.hpp</text>
</a>
</g>
</g>
<!-- Node4&#45;&gt;Node13 -->
<g id="edge12" class="edge">
<title>Node4&#45;&gt;Node13</title>
<path fill="none" stroke="midnightblue" d="M353.35,-134.4C338.35,-125.2 318.57,-113.07 302.08,-102.95"/>
<polygon fill="midnightblue" stroke="midnightblue" points="303.66,-99.82 293.31,-97.58 300,-105.79 303.66,-99.82"/>
</g>
<!-- Node5&#45;&gt;Node6 -->
<g id="edge5" class="edge">
<title>Node5&#45;&gt;Node6</title>
<path fill="none" stroke="midnightblue" d="M350.18,-67.48C308.96,-57.37 253.18,-43.68 209.78,-33.04"/>
<polygon fill="midnightblue" stroke="midnightblue" points="210.43,-29.59 199.88,-30.61 208.76,-36.39 210.43,-29.59"/>
</g>
<!-- Node7 -->
<g id="node7" class="node">
<title>Node7</title>
<g id="a_node7"><a xlink:title=" ">
<polygon fill="white" stroke="#bfbfbf" points="377.35,-6 377.35,-25 437.35,-25 437.35,-6 377.35,-6"/>
<text text-anchor="middle" x="407.35" y="-13" font-family="Helvetica,sans-Serif" font-size="10.00">iostream</text>
</a>
</g>
</g>
<!-- Node5&#45;&gt;Node7 -->
<g id="edge6" class="edge">
<title>Node5&#45;&gt;Node7</title>
<path fill="none" stroke="midnightblue" d="M407.35,-67.4C407.35,-58.06 407.35,-45.71 407.35,-35.52"/>
<polygon fill="midnightblue" stroke="midnightblue" points="410.85,-35.19 407.35,-25.19 403.85,-35.19 410.85,-35.19"/>
</g>
</g>
</svg>
        <g id="navigator" transform="translate(0 0)" fill="#404254">
                <rect fill="#f2f5e9" fill-opacity="0.5" stroke="#606060" stroke-width=".5" x="0" y="0" width="60" height="60"/>
                <use id="zoomplus" xlink:href="#zoomPlus" x="17" y="9" onmousedown="handleZoom(evt,'in')"/>
                <use id="zoomminus" xlink:href="#zoomMin" x="42" y="9" onmousedown="handleZoom(evt,'out')"/>
                <use id="reset" xlink:href="#resetDef" x="30" y="36" onmousedown="handleReset()"/>
                <g id="arrowUp" xlink:href="#dirArrow" transform="translate(30 24)" onmousedown="handlePan(0,-1)">
                  <use xlink:href="#rim" fill="#404040">
                        <set attributeName="fill" to="#808080" begin="arrowUp.mouseover" end="arrowUp.mouseout"/>
                  </use>
                  <path fill="none" stroke="white" stroke-width="1.5" d="M0,-3.0v7 M-2.5,-0.5L0,-3.0L2.5,-0.5"/>
                </g>
                <g id="arrowRight" xlink:href="#dirArrow" transform="rotate(90) translate(36 -43)" onmousedown="handlePan(1,0)">
                  <use xlink:href="#rim" fill="#404040">
                        <set attributeName="fill" to="#808080" begin="arrowRight.mouseover" end="arrowRight.mouseout"/>
                  </use>
                  <path fill="none" stroke="white" stroke-width="1.5" d="M0,-3.0v7 M-2.5,-0.5L0,-3.0L2.5,-0.5"/>
                </g>
                <g id="arrowDown" xlink:href="#dirArrow" transform="rotate(180) translate(-30 -48)" onmousedown="handlePan(0,1)">
                  <use xlink:href="#rim" fill="#404040">
                        <set attributeName="fill" to="#808080" begin="arrowDown.mouseover" end="arrowDown.mouseout"/>
                  </use>
                  <path fill="none" stroke="white" stroke-width="1.5" d="M0,-3.0v7 M-2.5,-0.5L0,-3.0L2.5,-0.5"/>
                </g>
                <g id="arrowLeft" xlink:href="#dirArrow" transform="rotate(270) translate(-36 17)" onmousedown="handlePan(-1,0)">
                  <use xlink:href="#rim" fill="#404040">
                        <set attributeName="fill" to="#808080" begin="arrowLeft.mouseover" end="arrowLeft.mouseout"/>
                  </use>
                  <path fill="none" stroke="white" stroke-width="1.5" d="M0,-3.0v7 M-2.5,-0.5L0,-3.0L2.5,-0.5"/>
                </g>
        </g>
        <svg viewBox="0 0 15 15" width="100%" height="30px" preserveAspectRatio="xMaxYMin meet">
         <g id="arrow_out" transform="scale(0.3 0.3)">
          <a xlink:href="OptionalRef_8hpp__incl_org.svg" target="_base">
           <rect id="button" ry="5" rx="5" y="6" x="6" height="38" width="38"
                fill="#f2f5e9" fill-opacity="0.5" stroke="#606060" stroke-width="1.0"/>
           <path id="arrow"
             d="M 11.500037,31.436501 C 11.940474,20.09759 22.043105,11.32322 32.158766,21.979434 L 37.068811,17.246167 C 37.068811,17.246167 37.088388,32 37.088388,32 L 22.160133,31.978069 C 22.160133,31.978069 26.997745,27.140456 26.997745,27.140456 C 18.528582,18.264221 13.291696,25.230495 11.500037,31.436501 z"
             style="fill:#404040;"/>
          </a>
         </g>
        </svg>
</svg>
