<?xml version="1.0" encoding="UTF-8" standalone="no"?>
<!DOCTYPE svg PUBLIC "-//W3C//DTD SVG 1.1//EN"
 "http://www.w3.org/Graphics/SVG/1.1/DTD/svg11.dtd">
<!-- Generated by graphviz version 2.43.0 (0)
 -->
<!-- Title: OutputStream.hpp Pages: 1 -->
<svg width="962pt" height="308pt"
 viewBox="0.00 0.00 962.00 308.00" xmlns="http://www.w3.org/2000/svg" xmlns:xlink="http://www.w3.org/1999/xlink">
<g id="graph0" class="graph" transform="scale(1 1) rotate(0) translate(4 304)">
<title>OutputStream.hpp</title>
<polygon fill="white" stroke="transparent" points="-4,4 -4,-304 958,-304 958,4 -4,4"/>
<!-- Node1 -->
<g id="node1" class="node">
<title>Node1</title>
<g id="a_node1"><a xlink:title=" ">
<polygon fill="#bfbfbf" stroke="black" points="687,-280.5 687,-299.5 793,-299.5 793,-280.5 687,-280.5"/>
<text text-anchor="middle" x="740" y="-287.5" font-family="Helvetica,sans-Serif" font-size="10.00">OutputStream.hpp</text>
</a>
</g>
</g>
<!-- Node2 -->
<g id="node2" class="node">
<title>Node2</title>
<g id="a_node2"><a xlink:href="ArgParse_8hpp.html" target="_top" xlink:title=" ">
<polygon fill="white" stroke="black" points="466,-224.5 466,-243.5 546,-243.5 546,-224.5 466,-224.5"/>
<text text-anchor="middle" x="506" y="-231.5" font-family="Helvetica,sans-Serif" font-size="10.00">ArgParse.hpp</text>
</a>
</g>
</g>
<!-- Node1&#45;&gt;Node2 -->
<g id="edge1" class="edge">
<title>Node1&#45;&gt;Node2</title>
<path fill="none" stroke="midnightblue" d="M693,-278.15C648.78,-267.95 583.48,-252.88 542.9,-243.52"/>
<polygon fill="midnightblue" stroke="midnightblue" points="692.39,-281.61 702.92,-280.44 693.97,-274.78 692.39,-281.61"/>
</g>
<!-- Node10 -->
<g id="node10" class="node">
<title>Node10</title>
<g id="a_node10"><a xlink:href="FileOutputStream_8hpp.html" target="_top" xlink:title=" ">
<polygon fill="white" stroke="black" points="607.5,-224.5 607.5,-243.5 730.5,-243.5 730.5,-224.5 607.5,-224.5"/>
<text text-anchor="middle" x="669" y="-231.5" font-family="Helvetica,sans-Serif" font-size="10.00">FileOutputStream.hpp</text>
</a>
</g>
</g>
<!-- Node1&#45;&gt;Node10 -->
<g id="edge9" class="edge">
<title>Node1&#45;&gt;Node10</title>
<path fill="none" stroke="midnightblue" d="M720.41,-274.1C707.63,-264.38 691.39,-252.03 680.61,-243.83"/>
<polygon fill="midnightblue" stroke="midnightblue" points="718.51,-277.06 728.59,-280.32 722.75,-271.48 718.51,-277.06"/>
</g>
<!-- Node18 -->
<g id="node18" class="node">
<title>Node18</title>
<g id="a_node18"><a xlink:href="StreamInterceptor_8hpp.html" target="_top" xlink:title=" ">
<polygon fill="white" stroke="black" points="748.5,-224.5 748.5,-243.5 873.5,-243.5 873.5,-224.5 748.5,-224.5"/>
<text text-anchor="middle" x="811" y="-231.5" font-family="Helvetica,sans-Serif" font-size="10.00">StreamInterceptor.hpp</text>
</a>
</g>
</g>
<!-- Node1&#45;&gt;Node18 -->
<g id="edge19" class="edge">
<title>Node1&#45;&gt;Node18</title>
<path fill="none" stroke="midnightblue" d="M759.59,-274.1C772.37,-264.38 788.61,-252.03 799.39,-243.83"/>
<polygon fill="midnightblue" stroke="midnightblue" points="757.25,-271.48 751.41,-280.32 761.49,-277.06 757.25,-271.48"/>
</g>
<!-- Node19 -->
<g id="node19" class="node">
<title>Node19</title>
<g id="a_node19"><a xlink:href="Color_8hpp.html" target="_top" xlink:title=" ">
<polygon fill="white" stroke="black" points="892,-224.5 892,-243.5 954,-243.5 954,-224.5 892,-224.5"/>
<text text-anchor="middle" x="923" y="-231.5" font-family="Helvetica,sans-Serif" font-size="10.00">Color.hpp</text>
</a>
</g>
</g>
<!-- Node1&#45;&gt;Node19 -->
<g id="edge20" class="edge">
<title>Node1&#45;&gt;Node19</title>
<path fill="none" stroke="midnightblue" d="M778.74,-277.57C813.26,-267.38 863.01,-252.7 894.14,-243.52"/>
<polygon fill="midnightblue" stroke="midnightblue" points="777.6,-274.26 769,-280.44 779.58,-280.97 777.6,-274.26"/>
</g>
<!-- Node3 -->
<g id="node3" class="node">
<title>Node3</title>
<g id="a_node3"><a xlink:href="AbsArgument_8hpp.html" target="_top" xlink:title=" ">
<polygon fill="white" stroke="black" points="235,-168.5 235,-187.5 339,-187.5 339,-168.5 235,-168.5"/>
<text text-anchor="middle" x="287" y="-175.5" font-family="Helvetica,sans-Serif" font-size="10.00">AbsArgument.hpp</text>
</a>
</g>
</g>
<!-- Node2&#45;&gt;Node3 -->
<g id="edge2" class="edge">
<title>Node2&#45;&gt;Node3</title>
<path fill="none" stroke="midnightblue" d="M461.49,-222.02C420.12,-211.82 359.36,-196.84 321.54,-187.52"/>
<polygon fill="midnightblue" stroke="midnightblue" points="460.75,-225.45 471.3,-224.44 462.43,-218.65 460.75,-225.45"/>
</g>
<!-- Node8 -->
<g id="node8" class="node">
<title>Node8</title>
<g id="a_node8"><a xlink:href="container__extension_8hpp.html" target="_top" xlink:title=" ">
<polygon fill="white" stroke="black" points="357.5,-168.5 357.5,-187.5 494.5,-187.5 494.5,-168.5 357.5,-168.5"/>
<text text-anchor="middle" x="426" y="-175.5" font-family="Helvetica,sans-Serif" font-size="10.00">container_extension.hpp</text>
</a>
</g>
</g>
<!-- Node2&#45;&gt;Node8 -->
<g id="edge7" class="edge">
<title>Node2&#45;&gt;Node8</title>
<path fill="none" stroke="midnightblue" d="M484.7,-218.62C470.08,-208.76 451.17,-195.99 438.82,-187.65"/>
<polygon fill="midnightblue" stroke="midnightblue" points="482.9,-221.63 493.15,-224.32 486.82,-215.83 482.9,-221.63"/>
</g>
<!-- Node9 -->
<g id="node9" class="node">
<title>Node9</title>
<g id="a_node9"><a xlink:href="file__system__extension_8hpp.html" target="_top" xlink:title=" ">
<polygon fill="white" stroke="black" points="512.5,-168.5 512.5,-187.5 659.5,-187.5 659.5,-168.5 512.5,-168.5"/>
<text text-anchor="middle" x="586" y="-175.5" font-family="Helvetica,sans-Serif" font-size="10.00">file_system_extension.hpp</text>
</a>
</g>
</g>
<!-- Node2&#45;&gt;Node9 -->
<g id="edge8" class="edge">
<title>Node2&#45;&gt;Node9</title>
<path fill="none" stroke="midnightblue" d="M527.3,-218.62C541.92,-208.76 560.83,-195.99 573.18,-187.65"/>
<polygon fill="midnightblue" stroke="midnightblue" points="525.18,-215.83 518.85,-224.32 529.1,-221.63 525.18,-215.83"/>
</g>
<!-- Node4 -->
<g id="node4" class="node">
<title>Node4</title>
<g id="a_node4"><a xlink:href="AggregateArgument_8hpp.html" target="_top" xlink:title=" ">
<polygon fill="white" stroke="black" points="0,-112.5 0,-131.5 136,-131.5 136,-112.5 0,-112.5"/>
<text text-anchor="middle" x="68" y="-119.5" font-family="Helvetica,sans-Serif" font-size="10.00">AggregateArgument.hpp</text>
</a>
</g>
</g>
<!-- Node3&#45;&gt;Node4 -->
<g id="edge3" class="edge">
<title>Node3&#45;&gt;Node4</title>
<path fill="none" stroke="midnightblue" d="M242.49,-166.02C201.12,-155.82 140.36,-140.84 102.54,-131.52"/>
<polygon fill="midnightblue" stroke="midnightblue" points="241.75,-169.45 252.3,-168.44 243.43,-162.65 241.75,-169.45"/>
</g>
<!-- Node5 -->
<g id="node5" class="node">
<title>Node5</title>
<g id="a_node5"><a xlink:href="FlagArgument_8hpp.html" target="_top" xlink:title=" ">
<polygon fill="white" stroke="black" points="154.5,-112.5 154.5,-131.5 261.5,-131.5 261.5,-112.5 154.5,-112.5"/>
<text text-anchor="middle" x="208" y="-119.5" font-family="Helvetica,sans-Serif" font-size="10.00">FlagArgument.hpp</text>
</a>
</g>
</g>
<!-- Node3&#45;&gt;Node5 -->
<g id="edge4" class="edge">
<title>Node3&#45;&gt;Node5</title>
<path fill="none" stroke="midnightblue" d="M265.97,-162.62C251.53,-152.76 232.86,-139.99 220.66,-131.65"/>
<polygon fill="midnightblue" stroke="midnightblue" points="264.08,-165.57 274.31,-168.32 268.03,-159.79 264.08,-165.57"/>
</g>
<!-- Node6 -->
<g id="node6" class="node">
<title>Node6</title>
<g id="a_node6"><a xlink:href="KeywordArgument_8hpp.html" target="_top" xlink:title=" ">
<polygon fill="white" stroke="black" points="280,-112.5 280,-131.5 408,-131.5 408,-112.5 280,-112.5"/>
<text text-anchor="middle" x="344" y="-119.5" font-family="Helvetica,sans-Serif" font-size="10.00">KeywordArgument.hpp</text>
</a>
</g>
</g>
<!-- Node3&#45;&gt;Node6 -->
<g id="edge5" class="edge">
<title>Node3&#45;&gt;Node6</title>
<path fill="none" stroke="midnightblue" d="M303.62,-161.25C313.73,-151.67 326.28,-139.79 334.68,-131.83"/>
<polygon fill="midnightblue" stroke="midnightblue" points="301.01,-158.91 296.16,-168.32 305.82,-163.99 301.01,-158.91"/>
</g>
<!-- Node7 -->
<g id="node7" class="node">
<title>Node7</title>
<g id="a_node7"><a xlink:href="PositionalArgument_8hpp.html" target="_top" xlink:title=" ">
<polygon fill="white" stroke="black" points="426,-112.5 426,-131.5 560,-131.5 560,-112.5 426,-112.5"/>
<text text-anchor="middle" x="493" y="-119.5" font-family="Helvetica,sans-Serif" font-size="10.00">PositionalArgument.hpp</text>
</a>
</g>
</g>
<!-- Node3&#45;&gt;Node7 -->
<g id="edge6" class="edge">
<title>Node3&#45;&gt;Node7</title>
<path fill="none" stroke="midnightblue" d="M329.62,-165.83C368.51,-155.63 425.16,-140.78 460.51,-131.52"/>
<polygon fill="midnightblue" stroke="midnightblue" points="328.43,-162.52 319.64,-168.44 330.2,-169.29 328.43,-162.52"/>
</g>
<!-- Node11 -->
<g id="node11" class="node">
<title>Node11</title>
<g id="a_node11"><a xlink:href="Logger_8hpp.html" target="_top" xlink:title=" ">
<polygon fill="white" stroke="black" points="678,-168.5 678,-187.5 748,-187.5 748,-168.5 678,-168.5"/>
<text text-anchor="middle" x="713" y="-175.5" font-family="Helvetica,sans-Serif" font-size="10.00">Logger.hpp</text>
</a>
</g>
</g>
<!-- Node10&#45;&gt;Node11 -->
<g id="edge10" class="edge">
<title>Node10&#45;&gt;Node11</title>
<path fill="none" stroke="midnightblue" d="M682.73,-216.14C690.4,-206.74 699.63,-195.4 705.87,-187.75"/>
<polygon fill="midnightblue" stroke="midnightblue" points="679.87,-214.12 676.27,-224.08 685.3,-218.54 679.87,-214.12"/>
</g>
<!-- Node12 -->
<g id="node12" class="node">
<title>Node12</title>
<g id="a_node12"><a xlink:href="LogBlock_8hpp.html" target="_top" xlink:title=" ">
<polygon fill="white" stroke="black" points="672,-112.5 672,-131.5 754,-131.5 754,-112.5 672,-112.5"/>
<text text-anchor="middle" x="713" y="-119.5" font-family="Helvetica,sans-Serif" font-size="10.00">LogBlock.hpp</text>
</a>
</g>
</g>
<!-- Node11&#45;&gt;Node12 -->
<g id="edge11" class="edge">
<title>Node11&#45;&gt;Node12</title>
<path fill="none" stroke="midnightblue" d="M713,-157.8C713,-148.91 713,-138.78 713,-131.75"/>
<polygon fill="midnightblue" stroke="midnightblue" points="709.5,-158.08 713,-168.08 716.5,-158.08 709.5,-158.08"/>
</g>
<!-- Node13 -->
<g id="node13" class="node">
<title>Node13</title>
<g id="a_node13"><a xlink:href="Loggee_8hpp.html" target="_top" xlink:title=" ">
<polygon fill="white" stroke="black" points="608.5,-56.5 608.5,-75.5 681.5,-75.5 681.5,-56.5 608.5,-56.5"/>
<text text-anchor="middle" x="645" y="-63.5" font-family="Helvetica,sans-Serif" font-size="10.00">Loggee.hpp</text>
</a>
</g>
</g>
<!-- Node11&#45;&gt;Node13 -->
<g id="edge15" class="edge">
<title>Node11&#45;&gt;Node13</title>
<path fill="none" stroke="midnightblue" d="M691.29,-162C681.36,-154.12 670.22,-143.68 663,-132 651.79,-113.88 647.42,-88.67 645.83,-75.61"/>
<polygon fill="midnightblue" stroke="midnightblue" points="689.48,-165.02 699.57,-168.23 693.68,-159.42 689.48,-165.02"/>
</g>
<!-- Node16 -->
<g id="node16" class="node">
<title>Node16</title>
<g id="a_node16"><a xlink:href="LoggerSingleton_8hpp.html" target="_top" xlink:title=" ">
<polygon fill="white" stroke="black" points="772,-112.5 772,-131.5 888,-131.5 888,-112.5 772,-112.5"/>
<text text-anchor="middle" x="830" y="-119.5" font-family="Helvetica,sans-Serif" font-size="10.00">LoggerSingleton.hpp</text>
</a>
</g>
</g>
<!-- Node11&#45;&gt;Node16 -->
<g id="edge16" class="edge">
<title>Node11&#45;&gt;Node16</title>
<path fill="none" stroke="midnightblue" d="M740.66,-164.23C762.55,-154.13 792.5,-140.31 811.55,-131.52"/>
<polygon fill="midnightblue" stroke="midnightblue" points="739.15,-161.08 731.54,-168.44 742.09,-167.43 739.15,-161.08"/>
</g>
<!-- Node12&#45;&gt;Node13 -->
<g id="edge12" class="edge">
<title>Node12&#45;&gt;Node13</title>
<path fill="none" stroke="midnightblue" d="M694.24,-106.1C682,-96.38 666.44,-84.03 656.12,-75.83"/>
<polygon fill="midnightblue" stroke="midnightblue" points="692.07,-108.85 702.07,-112.32 696.42,-103.36 692.07,-108.85"/>
</g>
<!-- Node14 -->
<g id="node14" class="node">
<title>Node14</title>
<g id="a_node14"><a xlink:href="testing_8hpp.html" target="_top" xlink:title=" ">
<polygon fill="white" stroke="black" points="701.5,-56.5 701.5,-75.5 772.5,-75.5 772.5,-56.5 701.5,-56.5"/>
<text text-anchor="middle" x="737" y="-63.5" font-family="Helvetica,sans-Serif" font-size="10.00">testing.hpp</text>
</a>
</g>
</g>
<!-- Node12&#45;&gt;Node14 -->
<g id="edge13" class="edge">
<title>Node12&#45;&gt;Node14</title>
<path fill="none" stroke="midnightblue" d="M721.14,-102.69C725.18,-93.59 729.88,-83.01 733.11,-75.75"/>
<polygon fill="midnightblue" stroke="midnightblue" points="717.83,-101.52 716.96,-112.08 724.22,-104.37 717.83,-101.52"/>
</g>
<!-- Node15 -->
<g id="node15" class="node">
<title>Node15</title>
<g id="a_node15"><a xlink:href="essentials_8hpp.html" target="_top" xlink:title=" ">
<polygon fill="white" stroke="black" points="693.5,-0.5 693.5,-19.5 780.5,-19.5 780.5,-0.5 693.5,-0.5"/>
<text text-anchor="middle" x="737" y="-7.5" font-family="Helvetica,sans-Serif" font-size="10.00">essentials.hpp</text>
</a>
</g>
</g>
<!-- Node14&#45;&gt;Node15 -->
<g id="edge14" class="edge">
<title>Node14&#45;&gt;Node15</title>
<path fill="none" stroke="midnightblue" d="M737,-45.8C737,-36.91 737,-26.78 737,-19.75"/>
<polygon fill="midnightblue" stroke="midnightblue" points="733.5,-46.08 737,-56.08 740.5,-46.08 733.5,-46.08"/>
</g>
<!-- Node16&#45;&gt;Node14 -->
<g id="edge17" class="edge">
<title>Node16&#45;&gt;Node14</title>
<path fill="none" stroke="midnightblue" d="M806.19,-107.18C789.08,-97.24 766.53,-84.15 751.9,-75.65"/>
<polygon fill="midnightblue" stroke="midnightblue" points="804.65,-110.33 815.06,-112.32 808.17,-104.28 804.65,-110.33"/>
</g>
<!-- Node17 -->
<g id="node17" class="node">
<title>Node17</title>
<g id="a_node17"><a xlink:href="warning_8hpp.html" target="_top" xlink:title=" ">
<polygon fill="white" stroke="black" points="791.5,-56.5 791.5,-75.5 868.5,-75.5 868.5,-56.5 791.5,-56.5"/>
<text text-anchor="middle" x="830" y="-63.5" font-family="Helvetica,sans-Serif" font-size="10.00">warning.hpp</text>
</a>
</g>
</g>
<!-- Node16&#45;&gt;Node17 -->
<g id="edge18" class="edge">
<title>Node16&#45;&gt;Node17</title>
<path fill="none" stroke="midnightblue" d="M830,-101.8C830,-92.91 830,-82.78 830,-75.75"/>
<polygon fill="midnightblue" stroke="midnightblue" points="826.5,-102.08 830,-112.08 833.5,-102.08 826.5,-102.08"/>
</g>
</g>
</svg>
