<?xml version="1.0" encoding="UTF-8" standalone="no"?>
<!DOCTYPE svg PUBLIC "-//W3C//DTD SVG 1.1//EN"
 "http://www.w3.org/Graphics/SVG/1.1/DTD/svg11.dtd">
<!-- Generated by graphviz version 2.43.0 (0)
 -->
<!-- Title: OutputStream.hpp Pages: 1 -->
<!--zoomable 456 -->

<svg id="main" version="1.1" xmlns="http://www.w3.org/2000/svg" xmlns:xlink="http://www.w3.org/1999/xlink" xml:space="preserve" onload="init(evt)">
<style type="text/css"><![CDATA[
.node, .edge {opacity: 0.7;}
.node.selected, .edge.selected {opacity: 1;}
.edge:hover path { stroke: red; }
.edge:hover polygon { stroke: red; fill: red; }
]]></style>

<defs>
  <circle id="rim" cx="0" cy="0" r="7"/>
  <circle id="rim2" cx="0" cy="0" r="3.5"/>
  <g id="zoomPlus">
    <use xlink:href="#rim" fill="#404040"><set attributeName="fill" to="#808080" begin="zoomplus.mouseover" end="zoomplus.mouseout"/></use>
    <path d="M-4,0h8M0,-4v8" fill="none" stroke="white" stroke-width="1.5" pointer-events="none"/>
  </g>
  <g id="zoomMin">
    <use xlink:href="#rim" fill="#404040"><set attributeName="fill" to="#808080" begin="zoomminus.mouseover" end="zoomminus.mouseout"/></use>
    <path d="M-4,0h8" fill="none" stroke="white" stroke-width="1.5" pointer-events="none"/>
  </g>
  <g id="arrowUp" transform="translate(30 24)">
    <use xlink:href="#rim"/>
    <path pointer-events="none" fill="none" stroke="white" stroke-width="1.5" d="M0,-3.0v7 M-2.5,-0.5L0,-3.0L2.5,-0.5"/>
  </g>
  <g id="arrowRight" transform="rotate(90) translate(36 -43)">
    <use xlink:href="#rim"/>
    <path pointer-events="none" fill="none" stroke="white" stroke-width="1.5" d="M0,-3.0v7 M-2.5,-0.5L0,-3.0L2.5,-0.5"/>
  </g>
  <g id="arrowDown" transform="rotate(180) translate(-30 -48)">
    <use xlink:href="#rim"/>
    <path pointer-events="none" fill="none" stroke="white" stroke-width="1.5" d="M0,-3.0v7 M-2.5,-0.5L0,-3.0L2.5,-0.5"/>
  </g>
  <g id="arrowLeft" transform="rotate(270) translate(-36 17)">
    <use xlink:href="#rim"/>
    <path pointer-events="none" fill="none" stroke="white" stroke-width="1.5" d="M0,-3.0v7 M-2.5,-0.5L0,-3.0L2.5,-0.5"/>
  </g>
  <g id="resetDef">
    <use xlink:href="#rim2" fill="#404040"><set attributeName="fill" to="#808080" begin="reset.mouseover" end="reset.mouseout"/></use>
  </g>
</defs>
<script type="application/ecmascript">
var viewWidth = 1235;
var viewHeight = 456;
var sectionId = 'dynsection-0';
</script>
<script type="application/ecmascript" xlink:href="svg.min.js"/>
<svg id="graph" class="graph">
<g id="viewport">
<title>OutputStream.hpp</title>
<!-- Node1 -->
<g id="Node000001" class="node">
<title>Node1</title>
<g id="a_Node000001"><a xlink:title=" ">
<polygon fill="#999999" stroke="#666666" points="774.5,-448 668.5,-448 668.5,-429 774.5,-429 774.5,-448"/>
<text text-anchor="middle" x="721.5" y="-436" font-family="Helvetica,sans-Serif" font-size="10.00">OutputStream.hpp</text>
</a>
</g>
</g>
<!-- Node2 -->
<g id="Node000002" class="node">
<title>Node2</title>
<g id="a_Node000002"><a xlink:href="typedefs_8hpp.html" target="_top" xlink:title=" ">
<polygon fill="white" stroke="#666666" points="119,-310.5 0,-310.5 0,-280.5 119,-280.5 119,-310.5"/>
<text text-anchor="start" x="8" y="-298.5" font-family="Helvetica,sans-Serif" font-size="10.00">packages/macros/inc</text>
<text text-anchor="middle" x="59.5" y="-287.5" font-family="Helvetica,sans-Serif" font-size="10.00">/typedefs.hpp</text>
</a>
</g>
</g>
<!-- Node1&#45;&gt;Node2 -->
<g id="edge1_Node000001_Node000002" class="edge">
<title>Node1&#45;&gt;Node2</title>
<g id="a_edge1_Node000001_Node000002"><a xlink:title=" ">
<path fill="none" stroke="#63b8ff" d="M668.28,-435.94C532.36,-431.62 179.87,-418.09 133.5,-393 103.61,-376.82 82.04,-342.82 70.16,-319.82"/>
<polygon fill="#63b8ff" stroke="#63b8ff" points="73.23,-318.13 65.66,-310.72 66.95,-321.23 73.23,-318.13"/>
</a>
</g>
</g>
<!-- Node3 -->
<g id="Node000003" class="node">
<title>Node3</title>
<g id="a_Node000003"><a xlink:title=" ">
<polygon fill="#e0e0e0" stroke="#999999" points="177.5,-156.5 119.5,-156.5 119.5,-137.5 177.5,-137.5 177.5,-156.5"/>
<text text-anchor="middle" x="148.5" y="-144.5" font-family="Helvetica,sans-Serif" font-size="10.00">memory</text>
</a>
</g>
</g>
<!-- Node1&#45;&gt;Node3 -->
<g id="edge50_Node000001_Node000003" class="edge">
<title>Node1&#45;&gt;Node3</title>
<g id="a_edge50_Node000001_Node000003"><a xlink:title=" ">
<path fill="none" stroke="#63b8ff" d="M668.3,-436.58C605.21,-433.97 497.73,-424.75 411.5,-393 291.16,-348.69 240.63,-344.34 167.5,-239 152.5,-217.39 148.9,-186.4 148.26,-166.74"/>
<polygon fill="#63b8ff" stroke="#63b8ff" points="151.76,-166.6 148.17,-156.63 144.76,-166.67 151.76,-166.6"/>
</a>
</g>
</g>
<!-- Node4 -->
<g id="Node000004" class="node">
<title>Node4</title>
<g id="a_Node000004"><a xlink:href="streamable_8hpp.html" target="_top" xlink:title=" ">
<polygon fill="white" stroke="#666666" points="1226.5,-316 1094.5,-316 1094.5,-275 1226.5,-275 1226.5,-316"/>
<text text-anchor="start" x="1102.5" y="-304" font-family="Helvetica,sans-Serif" font-size="10.00">packages/compile_time</text>
<text text-anchor="start" x="1102.5" y="-293" font-family="Helvetica,sans-Serif" font-size="10.00">/packages/concepts/inc</text>
<text text-anchor="middle" x="1160.5" y="-282" font-family="Helvetica,sans-Serif" font-size="10.00">/streamable.hpp</text>
</a>
</g>
</g>
<!-- Node1&#45;&gt;Node4 -->
<g id="edge3_Node000001_Node000004" class="edge">
<title>Node1&#45;&gt;Node4</title>
<g id="a_edge3_Node000001_Node000004"><a xlink:title=" ">
<path fill="none" stroke="#63b8ff" d="M726.68,-428.95C738.82,-409.21 769.31,-361.41 785.5,-352 896.25,-287.6 945.24,-337.73 1071.5,-316 1075.62,-315.29 1079.84,-314.52 1084.09,-313.71"/>
<polygon fill="#63b8ff" stroke="#63b8ff" points="1084.91,-317.11 1094.05,-311.75 1083.56,-310.25 1084.91,-317.11"/>
</a>
</g>
</g>
<!-- Node21 -->
<g id="Node000021" class="node">
<title>Node21</title>
<g id="a_Node000021"><a xlink:href="container__concepts_8hpp.html" target="_top" xlink:title=" ">
<polygon fill="white" stroke="#666666" points="556,-393 421,-393 421,-352 556,-352 556,-393"/>
<text text-anchor="start" x="429" y="-381" font-family="Helvetica,sans-Serif" font-size="10.00">packages/compile_time</text>
<text text-anchor="start" x="429" y="-370" font-family="Helvetica,sans-Serif" font-size="10.00">/packages/concepts/inc</text>
<text text-anchor="middle" x="488.5" y="-359" font-family="Helvetica,sans-Serif" font-size="10.00">/container_concepts.hpp</text>
</a>
</g>
</g>
<!-- Node1&#45;&gt;Node21 -->
<g id="edge21_Node000001_Node000021" class="edge">
<title>Node1&#45;&gt;Node21</title>
<g id="a_edge21_Node000001_Node000021"><a xlink:title=" ">
<path fill="none" stroke="#63b8ff" d="M690.08,-428.87C658.39,-420.16 608.23,-406.39 565.87,-394.75"/>
<polygon fill="#63b8ff" stroke="#63b8ff" points="566.7,-391.35 556.13,-392.08 564.85,-398.1 566.7,-391.35"/>
</a>
</g>
</g>
<!-- Node27 -->
<g id="Node000027" class="node">
<title>Node27</title>
<g id="a_Node000027"><a xlink:href="checks_8hpp.html" target="_top" xlink:title=" ">
<polygon fill="white" stroke="#666666" points="737,-387.5 618,-387.5 618,-357.5 737,-357.5 737,-387.5"/>
<text text-anchor="start" x="626" y="-375.5" font-family="Helvetica,sans-Serif" font-size="10.00">packages/macros/inc</text>
<text text-anchor="middle" x="677.5" y="-364.5" font-family="Helvetica,sans-Serif" font-size="10.00">/checks.hpp</text>
</a>
</g>
</g>
<!-- Node1&#45;&gt;Node27 -->
<g id="edge32_Node000001_Node000027" class="edge">
<title>Node1&#45;&gt;Node27</title>
<g id="a_edge32_Node000001_Node000027"><a xlink:title=" ">
<path fill="none" stroke="#63b8ff" d="M715.57,-428.87C709.87,-420.58 701,-407.68 693.26,-396.42"/>
<polygon fill="#63b8ff" stroke="#63b8ff" points="695.92,-394.12 687.37,-387.86 690.15,-398.08 695.92,-394.12"/>
</a>
</g>
</g>
<!-- Node34 -->
<g id="Node000034" class="node">
<title>Node34</title>
<g id="a_Node000034"><a xlink:title=" ">
<polygon fill="#e0e0e0" stroke="#999999" points="851,-382 794,-382 794,-363 851,-363 851,-382"/>
<text text-anchor="middle" x="822.5" y="-370" font-family="Helvetica,sans-Serif" font-size="10.00">ostream</text>
</a>
</g>
</g>
<!-- Node1&#45;&gt;Node34 -->
<g id="edge48_Node000001_Node000034" class="edge">
<title>Node1&#45;&gt;Node34</title>
<g id="a_edge48_Node000001_Node000034"><a xlink:title=" ">
<path fill="none" stroke="#63b8ff" d="M735.12,-428.87C751.84,-418.28 780.41,-400.17 800.31,-387.56"/>
<polygon fill="#63b8ff" stroke="#63b8ff" points="802.2,-390.51 808.77,-382.2 798.45,-384.6 802.2,-390.51"/>
</a>
</g>
</g>
<!-- Node35 -->
<g id="Node000035" class="node">
<title>Node35</title>
<g id="a_Node000035"><a xlink:title=" ">
<polygon fill="#e0e0e0" stroke="#999999" points="936,-382 869,-382 869,-363 936,-363 936,-382"/>
<text text-anchor="middle" x="902.5" y="-370" font-family="Helvetica,sans-Serif" font-size="10.00">streambuf</text>
</a>
</g>
</g>
<!-- Node1&#45;&gt;Node35 -->
<g id="edge49_Node000001_Node000035" class="edge">
<title>Node1&#45;&gt;Node35</title>
<g id="a_edge49_Node000001_Node000035"><a xlink:title=" ">
<path fill="none" stroke="#63b8ff" d="M751.98,-428.94C780.4,-420.67 823.8,-407.33 860.5,-393 865.52,-391.04 870.79,-388.77 875.84,-386.49"/>
<polygon fill="#63b8ff" stroke="#63b8ff" points="877.55,-389.55 885.14,-382.15 874.59,-383.2 877.55,-389.55"/>
</a>
</g>
</g>
<!-- Node36 -->
<g id="Node000036" class="node">
<title>Node36</title>
<g id="a_Node000036"><a xlink:title=" ">
<polygon fill="#e0e0e0" stroke="#999999" points="1090.5,-387.5 954.5,-387.5 954.5,-357.5 1090.5,-357.5 1090.5,-387.5"/>
<text text-anchor="start" x="962.5" y="-375.5" font-family="Helvetica,sans-Serif" font-size="10.00">packages/logging/impl</text>
<text text-anchor="middle" x="1022.5" y="-364.5" font-family="Helvetica,sans-Serif" font-size="10.00">/OutputStream_impl.hpp</text>
</a>
</g>
</g>
<!-- Node1&#45;&gt;Node36 -->
<g id="edge51_Node000001_Node000036" class="edge">
<title>Node1&#45;&gt;Node36</title>
<g id="a_edge51_Node000001_Node000036"><a xlink:title=" ">
<path fill="none" stroke="#63b8ff" d="M767.98,-428.99C813.39,-420.51 884.39,-406.8 945.5,-393 949.66,-392.06 953.94,-391.06 958.25,-390.04"/>
<polygon fill="#63b8ff" stroke="#63b8ff" points="959.42,-393.35 968.32,-387.6 957.77,-386.55 959.42,-393.35"/>
</a>
</g>
</g>
<!-- Node2&#45;&gt;Node3 -->
<g id="edge2_Node000002_Node000003" class="edge">
<title>Node2&#45;&gt;Node3</title>
<g id="a_edge2_Node000002_Node000003"><a xlink:title=" ">
<path fill="none" stroke="#63b8ff" d="M68.03,-280.45C84.37,-253.56 120.03,-194.86 137.88,-165.48"/>
<polygon fill="#63b8ff" stroke="#63b8ff" points="141,-167.09 143.2,-156.73 135.01,-163.46 141,-167.09"/>
</a>
</g>
</g>
<!-- Node5 -->
<g id="Node000005" class="node">
<title>Node5</title>
<g id="a_Node000005"><a xlink:href="basic__concepts_8hpp.html" target="_top" xlink:title=" ">
<polygon fill="white" stroke="#666666" points="925.5,-239 793.5,-239 793.5,-198 925.5,-198 925.5,-239"/>
<text text-anchor="start" x="801.5" y="-227" font-family="Helvetica,sans-Serif" font-size="10.00">packages/compile_time</text>
<text text-anchor="start" x="801.5" y="-216" font-family="Helvetica,sans-Serif" font-size="10.00">/packages/concepts/inc</text>
<text text-anchor="middle" x="859.5" y="-205" font-family="Helvetica,sans-Serif" font-size="10.00">/basic_concepts.hpp</text>
</a>
</g>
</g>
<!-- Node4&#45;&gt;Node5 -->
<g id="edge4_Node000004_Node000005" class="edge">
<title>Node4&#45;&gt;Node5</title>
<g id="a_edge4_Node000004_Node000005"><a xlink:title=" ">
<path fill="none" stroke="#63b8ff" d="M1094.44,-278.04C1047.57,-266.36 984.55,-250.66 935.57,-238.46"/>
<polygon fill="#63b8ff" stroke="#63b8ff" points="936.21,-235.01 925.66,-235.99 934.52,-241.8 936.21,-235.01"/>
</a>
</g>
</g>
<!-- Node19 -->
<g id="Node000019" class="node">
<title>Node19</title>
<g id="a_Node000019"><a xlink:title=" ">
<polygon fill="#e0e0e0" stroke="#999999" points="1115.5,-228 1059.5,-228 1059.5,-209 1115.5,-209 1115.5,-228"/>
<text text-anchor="middle" x="1087.5" y="-216" font-family="Helvetica,sans-Serif" font-size="10.00">sstream</text>
</a>
</g>
</g>
<!-- Node4&#45;&gt;Node19 -->
<g id="edge19_Node000004_Node000019" class="edge">
<title>Node4&#45;&gt;Node19</title>
<g id="a_edge19_Node000004_Node000019"><a xlink:title=" ">
<path fill="none" stroke="#63b8ff" d="M1141.32,-274.79C1129.38,-262.52 1114.21,-246.94 1103.02,-235.45"/>
<polygon fill="#63b8ff" stroke="#63b8ff" points="1105.49,-232.96 1096,-228.24 1100.47,-237.84 1105.49,-232.96"/>
</a>
</g>
</g>
<!-- Node20 -->
<g id="Node000020" class="node">
<title>Node20</title>
<g id="a_Node000020"><a xlink:title=" ">
<polygon fill="#e0e0e0" stroke="#999999" points="1184.5,-228 1136.5,-228 1136.5,-209 1184.5,-209 1184.5,-228"/>
<text text-anchor="middle" x="1160.5" y="-216" font-family="Helvetica,sans-Serif" font-size="10.00">iosfwd</text>
</a>
</g>
</g>
<!-- Node4&#45;&gt;Node20 -->
<g id="edge20_Node000004_Node000020" class="edge">
<title>Node4&#45;&gt;Node20</title>
<g id="a_edge20_Node000004_Node000020"><a xlink:title=" ">
<path fill="none" stroke="#63b8ff" d="M1160.5,-274.79C1160.5,-263.59 1160.5,-249.61 1160.5,-238.52"/>
<polygon fill="#63b8ff" stroke="#63b8ff" points="1164,-238.24 1160.5,-228.24 1157,-238.24 1164,-238.24"/>
</a>
</g>
</g>
<!-- Node6 -->
<g id="Node000006" class="node">
<title>Node6</title>
<g id="a_Node000006"><a xlink:href="types_8hpp.html" target="_top" xlink:title=" ">
<polygon fill="white" stroke="#666666" points="366.5,-162 256.5,-162 256.5,-132 366.5,-132 366.5,-162"/>
<text text-anchor="start" x="264.5" y="-150" font-family="Helvetica,sans-Serif" font-size="10.00">packages/types/inc</text>
<text text-anchor="middle" x="311.5" y="-139" font-family="Helvetica,sans-Serif" font-size="10.00">/types.hpp</text>
</a>
</g>
</g>
<!-- Node5&#45;&gt;Node6 -->
<g id="edge5_Node000005_Node000006" class="edge">
<title>Node5&#45;&gt;Node6</title>
<g id="a_edge5_Node000005_Node000006"><a xlink:title=" ">
<path fill="none" stroke="#63b8ff" d="M793.3,-205.23C777.97,-202.62 761.69,-200.05 746.5,-198 585.52,-176.33 540.88,-187.3 376.54,-162.04"/>
<polygon fill="#63b8ff" stroke="#63b8ff" points="377,-158.57 366.58,-160.48 375.92,-165.48 377,-158.57"/>
</a>
</g>
</g>
<!-- Node12 -->
<g id="Node000012" class="node">
<title>Node12</title>
<g id="a_Node000012"><a xlink:title=" ">
<polygon fill="#e0e0e0" stroke="#999999" points="826,-90.5 757,-90.5 757,-71.5 826,-71.5 826,-90.5"/>
<text text-anchor="middle" x="791.5" y="-78.5" font-family="Helvetica,sans-Serif" font-size="10.00">type_traits</text>
</a>
</g>
</g>
<!-- Node5&#45;&gt;Node12 -->
<g id="edge16_Node000005_Node000012" class="edge">
<title>Node5&#45;&gt;Node12</title>
<g id="a_edge16_Node000005_Node000012"><a xlink:title=" ">
<path fill="none" stroke="#63b8ff" d="M867.63,-197.92C873.84,-179.74 879.61,-152.46 868.5,-132 859.28,-115.02 841.53,-102.91 825.39,-94.87"/>
<polygon fill="#63b8ff" stroke="#63b8ff" points="826.7,-91.62 816.16,-90.59 823.76,-97.97 826.7,-91.62"/>
</a>
</g>
</g>
<!-- Node16 -->
<g id="Node000016" class="node">
<title>Node16</title>
<g id="a_Node000016"><a xlink:title=" ">
<polygon fill="#e0e0e0" stroke="#999999" points="795.5,-156.5 735.5,-156.5 735.5,-137.5 795.5,-137.5 795.5,-156.5"/>
<text text-anchor="middle" x="765.5" y="-144.5" font-family="Helvetica,sans-Serif" font-size="10.00">concepts</text>
</a>
</g>
</g>
<!-- Node5&#45;&gt;Node16 -->
<g id="edge15_Node000005_Node000016" class="edge">
<title>Node5&#45;&gt;Node16</title>
<g id="a_edge15_Node000005_Node000016"><a xlink:title=" ">
<path fill="none" stroke="#63b8ff" d="M833.07,-197.96C817.92,-186.76 799.23,-172.94 785.34,-162.67"/>
<polygon fill="#63b8ff" stroke="#63b8ff" points="787.12,-159.63 777,-156.5 782.96,-165.26 787.12,-159.63"/>
</a>
</g>
</g>
<!-- Node17 -->
<g id="Node000017" class="node">
<title>Node17</title>
<g id="a_Node000017"><a xlink:title=" ">
<polygon fill="#e0e0e0" stroke="#999999" points="965.5,-156.5 915.5,-156.5 915.5,-137.5 965.5,-137.5 965.5,-156.5"/>
<text text-anchor="middle" x="940.5" y="-144.5" font-family="Helvetica,sans-Serif" font-size="10.00">cstdint</text>
</a>
</g>
</g>
<!-- Node5&#45;&gt;Node17 -->
<g id="edge17_Node000005_Node000017" class="edge">
<title>Node5&#45;&gt;Node17</title>
<g id="a_edge17_Node000005_Node000017"><a xlink:title=" ">
<path fill="none" stroke="#63b8ff" d="M882.49,-197.77C895.14,-186.92 910.61,-173.65 922.39,-163.54"/>
<polygon fill="#63b8ff" stroke="#63b8ff" points="924.91,-165.99 930.22,-156.82 920.35,-160.68 924.91,-165.99"/>
</a>
</g>
</g>
<!-- Node18 -->
<g id="Node000018" class="node">
<title>Node18</title>
<g id="a_Node000018"><a xlink:title=" ">
<polygon fill="#e0e0e0" stroke="#999999" points="859,-156.5 814,-156.5 814,-137.5 859,-137.5 859,-156.5"/>
<text text-anchor="middle" x="836.5" y="-144.5" font-family="Helvetica,sans-Serif" font-size="10.00">utility</text>
</a>
</g>
</g>
<!-- Node5&#45;&gt;Node18 -->
<g id="edge18_Node000005_Node000018" class="edge">
<title>Node5&#45;&gt;Node18</title>
<g id="a_edge18_Node000005_Node000018"><a xlink:title=" ">
<path fill="none" stroke="#63b8ff" d="M852.97,-197.77C849.73,-187.97 845.83,-176.2 842.65,-166.57"/>
<polygon fill="#63b8ff" stroke="#63b8ff" points="845.88,-165.21 839.42,-156.82 839.24,-167.41 845.88,-165.21"/>
</a>
</g>
</g>
<!-- Node7 -->
<g id="Node000007" class="node">
<title>Node7</title>
<g id="a_Node000007"><a xlink:href="debug_8hpp.html" target="_top" xlink:title=" ">
<polygon fill="white" stroke="#666666" points="478,-96 359,-96 359,-66 478,-66 478,-96"/>
<text text-anchor="start" x="367" y="-84" font-family="Helvetica,sans-Serif" font-size="10.00">packages/macros/inc</text>
<text text-anchor="middle" x="418.5" y="-73" font-family="Helvetica,sans-Serif" font-size="10.00">/debug.hpp</text>
</a>
</g>
</g>
<!-- Node6&#45;&gt;Node7 -->
<g id="edge6_Node000006_Node000007" class="edge">
<title>Node6&#45;&gt;Node7</title>
<g id="a_edge6_Node000006_Node000007"><a xlink:title=" ">
<path fill="none" stroke="#63b8ff" d="M334.98,-131.95C350.03,-122.95 369.77,-111.14 386.28,-101.27"/>
<polygon fill="#63b8ff" stroke="#63b8ff" points="388.29,-104.15 395.07,-96.01 384.69,-98.14 388.29,-104.15"/>
</a>
</g>
</g>
<!-- Node10 -->
<g id="Node000010" class="node">
<title>Node10</title>
<g id="a_Node000010"><a xlink:title=" ">
<polygon fill="#e0e0e0" stroke="#999999" points="549,-90.5 496,-90.5 496,-71.5 549,-71.5 549,-90.5"/>
<text text-anchor="middle" x="522.5" y="-78.5" font-family="Helvetica,sans-Serif" font-size="10.00">cstddef</text>
</a>
</g>
</g>
<!-- Node6&#45;&gt;Node10 -->
<g id="edge9_Node000006_Node000010" class="edge">
<title>Node6&#45;&gt;Node10</title>
<g id="a_edge9_Node000006_Node000010"><a xlink:title=" ">
<path fill="none" stroke="#63b8ff" d="M366.65,-131.91C401.57,-122.6 447.51,-109.64 487.5,-96 489.16,-95.43 490.86,-94.83 492.56,-94.21"/>
<polygon fill="#63b8ff" stroke="#63b8ff" points="494.18,-97.34 502.28,-90.5 491.68,-90.8 494.18,-97.34"/>
</a>
</g>
</g>
<!-- Node11 -->
<g id="Node000011" class="node">
<title>Node11</title>
<g id="a_Node000011"><a xlink:title=" ">
<polygon fill="#e0e0e0" stroke="#999999" points="611.5,-90.5 567.5,-90.5 567.5,-71.5 611.5,-71.5 611.5,-90.5"/>
<text text-anchor="middle" x="589.5" y="-78.5" font-family="Helvetica,sans-Serif" font-size="10.00">string</text>
</a>
</g>
</g>
<!-- Node6&#45;&gt;Node11 -->
<g id="edge10_Node000006_Node000011" class="edge">
<title>Node6&#45;&gt;Node11</title>
<g id="a_edge10_Node000006_Node000011"><a xlink:title=" ">
<path fill="none" stroke="#63b8ff" d="M366.64,-133.86C369.64,-133.23 372.6,-132.6 375.5,-132 456.66,-115.14 479.54,-121.23 558.5,-96 559.94,-95.54 561.4,-95.03 562.87,-94.49"/>
<polygon fill="#63b8ff" stroke="#63b8ff" points="564.48,-97.61 572.4,-90.57 561.82,-91.14 564.48,-97.61"/>
</a>
</g>
</g>
<!-- Node6&#45;&gt;Node12 -->
<g id="edge11_Node000006_Node000012" class="edge">
<title>Node6&#45;&gt;Node12</title>
<g id="a_edge11_Node000006_Node000012"><a xlink:title=" ">
<path fill="none" stroke="#63b8ff" d="M366.59,-133.6C369.6,-133.03 372.58,-132.49 375.5,-132 509.76,-109.3 670.11,-93.06 746.6,-85.97"/>
<polygon fill="#63b8ff" stroke="#63b8ff" points="747.19,-89.44 756.82,-85.04 746.55,-82.46 747.19,-89.44"/>
</a>
</g>
</g>
<!-- Node13 -->
<g id="Node000013" class="node">
<title>Node13</title>
<g id="a_Node000013"><a xlink:title=" ">
<polygon fill="#e0e0e0" stroke="#999999" points="68.5,-90.5 18.5,-90.5 18.5,-71.5 68.5,-71.5 68.5,-90.5"/>
<text text-anchor="middle" x="43.5" y="-78.5" font-family="Helvetica,sans-Serif" font-size="10.00">climits</text>
</a>
</g>
</g>
<!-- Node6&#45;&gt;Node13 -->
<g id="edge12_Node000006_Node000013" class="edge">
<title>Node6&#45;&gt;Node13</title>
<g id="a_edge12_Node000006_Node000013"><a xlink:title=" ">
<path fill="none" stroke="#63b8ff" d="M256.18,-134.08C252.91,-133.37 249.66,-132.68 246.5,-132 171.41,-115.92 150.86,-118.71 77.5,-96 75.82,-95.48 74.11,-94.91 72.4,-94.31"/>
<polygon fill="#63b8ff" stroke="#63b8ff" points="73.29,-90.9 62.7,-90.61 70.79,-97.44 73.29,-90.9"/>
</a>
</g>
</g>
<!-- Node14 -->
<g id="Node000014" class="node">
<title>Node14</title>
<g id="a_Node000014"><a xlink:title=" ">
<polygon fill="#e0e0e0" stroke="#999999" points="204,-96 87,-96 87,-66 204,-66 204,-96"/>
<text text-anchor="start" x="95" y="-84" font-family="Helvetica,sans-Serif" font-size="10.00">packages/types/impl</text>
<text text-anchor="middle" x="145.5" y="-73" font-family="Helvetica,sans-Serif" font-size="10.00">/types_impl.hpp</text>
</a>
</g>
</g>
<!-- Node6&#45;&gt;Node14 -->
<g id="edge13_Node000006_Node000014" class="edge">
<title>Node6&#45;&gt;Node14</title>
<g id="a_edge13_Node000006_Node000014"><a xlink:title=" ">
<path fill="none" stroke="#63b8ff" d="M275.07,-131.95C250.42,-122.45 217.67,-109.82 191.26,-99.64"/>
<polygon fill="#63b8ff" stroke="#63b8ff" points="192.43,-96.34 181.84,-96.01 189.92,-102.88 192.43,-96.34"/>
</a>
</g>
</g>
<!-- Node15 -->
<g id="Node000015" class="node">
<title>Node15</title>
<g id="a_Node000015"><a xlink:href="logging_8hpp.html" target="_top" xlink:title=" ">
<polygon fill="white" stroke="#666666" points="341,-96 222,-96 222,-66 341,-66 341,-96"/>
<text text-anchor="start" x="230" y="-84" font-family="Helvetica,sans-Serif" font-size="10.00">packages/macros/inc</text>
<text text-anchor="middle" x="281.5" y="-73" font-family="Helvetica,sans-Serif" font-size="10.00">/logging.hpp</text>
</a>
</g>
</g>
<!-- Node6&#45;&gt;Node15 -->
<g id="edge14_Node000006_Node000015" class="edge">
<title>Node6&#45;&gt;Node15</title>
<g id="a_edge14_Node000006_Node000015"><a xlink:title=" ">
<path fill="none" stroke="#63b8ff" d="M304.84,-131.8C301.19,-124.01 296.57,-114.16 292.41,-105.28"/>
<polygon fill="#63b8ff" stroke="#63b8ff" points="295.55,-103.73 288.14,-96.16 289.21,-106.7 295.55,-103.73"/>
</a>
</g>
</g>
<!-- Node8 -->
<g id="Node000008" class="node">
<title>Node8</title>
<g id="a_Node000008"><a xlink:href="detail_8hpp.html" target="_top" xlink:title=" ">
<polygon fill="white" stroke="#666666" points="1053,-30 934,-30 934,0 1053,0 1053,-30"/>
<text text-anchor="start" x="942" y="-18" font-family="Helvetica,sans-Serif" font-size="10.00">packages/macros/inc</text>
<text text-anchor="middle" x="993.5" y="-7" font-family="Helvetica,sans-Serif" font-size="10.00">/detail.hpp</text>
</a>
</g>
</g>
<!-- Node7&#45;&gt;Node8 -->
<g id="edge7_Node000007_Node000008" class="edge">
<title>Node7&#45;&gt;Node8</title>
<g id="a_edge7_Node000007_Node000008"><a xlink:title=" ">
<path fill="none" stroke="#63b8ff" d="M478.27,-67.49C481.39,-66.95 484.48,-66.45 487.5,-66 642.42,-42.69 825.72,-27.67 923.6,-20.65"/>
<polygon fill="#63b8ff" stroke="#63b8ff" points="923.94,-24.13 933.67,-19.93 923.44,-17.15 923.94,-24.13"/>
</a>
</g>
</g>
<!-- Node9 -->
<g id="Node000009" class="node">
<title>Node9</title>
<g id="a_Node000009"><a xlink:title=" ">
<polygon fill="#e0e0e0" stroke="#999999" points="448.5,-24.5 388.5,-24.5 388.5,-5.5 448.5,-5.5 448.5,-24.5"/>
<text text-anchor="middle" x="418.5" y="-12.5" font-family="Helvetica,sans-Serif" font-size="10.00">iostream</text>
</a>
</g>
</g>
<!-- Node7&#45;&gt;Node9 -->
<g id="edge8_Node000007_Node000009" class="edge">
<title>Node7&#45;&gt;Node9</title>
<g id="a_edge8_Node000007_Node000009"><a xlink:title=" ">
<path fill="none" stroke="#63b8ff" d="M418.5,-65.8C418.5,-56.7 418.5,-44.79 418.5,-34.9"/>
<polygon fill="#63b8ff" stroke="#63b8ff" points="422,-34.84 418.5,-24.84 415,-34.84 422,-34.84"/>
</a>
</g>
</g>
<!-- Node22 -->
<g id="Node000022" class="node">
<title>Node22</title>
<g id="a_Node000022"><a xlink:href="iterator__concepts_8hpp.html" target="_top" xlink:title=" ">
<polygon fill="white" stroke="#666666" points="468.5,-316 336.5,-316 336.5,-275 468.5,-275 468.5,-316"/>
<text text-anchor="start" x="344.5" y="-304" font-family="Helvetica,sans-Serif" font-size="10.00">packages/compile_time</text>
<text text-anchor="start" x="344.5" y="-293" font-family="Helvetica,sans-Serif" font-size="10.00">/packages/concepts/inc</text>
<text text-anchor="middle" x="402.5" y="-282" font-family="Helvetica,sans-Serif" font-size="10.00">/iterator_concepts.hpp</text>
</a>
</g>
</g>
<!-- Node21&#45;&gt;Node22 -->
<g id="edge22_Node000021_Node000022" class="edge">
<title>Node21&#45;&gt;Node22</title>
<g id="a_edge22_Node000021_Node000022"><a xlink:title=" ">
<path fill="none" stroke="#63b8ff" d="M465.9,-351.79C455.73,-342.92 443.58,-332.32 432.64,-322.79"/>
<polygon fill="#63b8ff" stroke="#63b8ff" points="434.78,-320.01 424.94,-316.07 430.18,-325.28 434.78,-320.01"/>
</a>
</g>
</g>
<!-- Node22&#45;&gt;Node3 -->
<g id="edge31_Node000022_Node000003" class="edge">
<title>Node22&#45;&gt;Node3</title>
<g id="a_edge31_Node000022_Node000003"><a xlink:title=" ">
<path fill="none" stroke="#63b8ff" d="M336.48,-288.33C295.15,-281.66 242.69,-267.81 204.5,-239 179.65,-220.26 163.32,-187 155.02,-166.3"/>
<polygon fill="#63b8ff" stroke="#63b8ff" points="158.22,-164.88 151.4,-156.77 151.67,-167.36 158.22,-164.88"/>
</a>
</g>
</g>
<!-- Node22&#45;&gt;Node5 -->
<g id="edge23_Node000022_Node000005" class="edge">
<title>Node22&#45;&gt;Node5</title>
<g id="a_edge23_Node000022_Node000005"><a xlink:title=" ">
<path fill="none" stroke="#63b8ff" d="M468.64,-283.5C485.55,-280.71 503.69,-277.73 520.5,-275 620.9,-258.71 646.16,-255.65 746.5,-239 758.51,-237.01 771.23,-234.85 783.64,-232.73"/>
<polygon fill="#63b8ff" stroke="#63b8ff" points="784.23,-236.18 793.5,-231.04 783.05,-229.28 784.23,-236.18"/>
</a>
</g>
</g>
<!-- Node23 -->
<g id="Node000023" class="node">
<title>Node23</title>
<g id="a_Node000023"><a xlink:href="Size_8hpp.html" target="_top" xlink:title=" ">
<polygon fill="white" stroke="#666666" points="433.5,-239 285.5,-239 285.5,-198 433.5,-198 433.5,-239"/>
<text text-anchor="start" x="293.5" y="-227" font-family="Helvetica,sans-Serif" font-size="10.00">packages/compile_time</text>
<text text-anchor="start" x="293.5" y="-216" font-family="Helvetica,sans-Serif" font-size="10.00">/packages/parameter_pack</text>
<text text-anchor="middle" x="359.5" y="-205" font-family="Helvetica,sans-Serif" font-size="10.00">/inc/Size.hpp</text>
</a>
</g>
</g>
<!-- Node22&#45;&gt;Node23 -->
<g id="edge24_Node000022_Node000023" class="edge">
<title>Node22&#45;&gt;Node23</title>
<g id="a_edge24_Node000022_Node000023"><a xlink:title=" ">
<path fill="none" stroke="#63b8ff" d="M391.2,-274.79C386.51,-266.61 380.98,-256.96 375.86,-248.03"/>
<polygon fill="#63b8ff" stroke="#63b8ff" points="378.73,-246.01 370.72,-239.07 372.66,-249.49 378.73,-246.01"/>
</a>
</g>
</g>
<!-- Node24 -->
<g id="Node000024" class="node">
<title>Node24</title>
<g id="a_Node000024"><a xlink:href="Select_8hpp.html" target="_top" xlink:title=" ">
<polygon fill="white" stroke="#666666" points="599.5,-239 451.5,-239 451.5,-198 599.5,-198 599.5,-239"/>
<text text-anchor="start" x="459.5" y="-227" font-family="Helvetica,sans-Serif" font-size="10.00">packages/compile_time</text>
<text text-anchor="start" x="459.5" y="-216" font-family="Helvetica,sans-Serif" font-size="10.00">/packages/parameter_pack</text>
<text text-anchor="middle" x="525.5" y="-205" font-family="Helvetica,sans-Serif" font-size="10.00">/inc/Select.hpp</text>
</a>
</g>
</g>
<!-- Node22&#45;&gt;Node24 -->
<g id="edge26_Node000022_Node000024" class="edge">
<title>Node22&#45;&gt;Node24</title>
<g id="a_edge26_Node000022_Node000024"><a xlink:title=" ">
<path fill="none" stroke="#63b8ff" d="M434.5,-274.99C449.75,-265.69 468.18,-254.45 484.45,-244.53"/>
<polygon fill="#63b8ff" stroke="#63b8ff" points="486.52,-247.37 493.24,-239.17 482.88,-241.39 486.52,-247.37"/>
</a>
</g>
</g>
<!-- Node26 -->
<g id="Node000026" class="node">
<title>Node26</title>
<g id="a_Node000026"><a xlink:title=" ">
<polygon fill="#e0e0e0" stroke="#999999" points="267,-228 214,-228 214,-209 267,-209 267,-228"/>
<text text-anchor="middle" x="240.5" y="-216" font-family="Helvetica,sans-Serif" font-size="10.00">iterator</text>
</a>
</g>
</g>
<!-- Node22&#45;&gt;Node26 -->
<g id="edge30_Node000022_Node000026" class="edge">
<title>Node22&#45;&gt;Node26</title>
<g id="a_edge30_Node000022_Node000026"><a xlink:title=" ">
<path fill="none" stroke="#63b8ff" d="M355.71,-274.97C331.8,-264.71 302.36,-251.68 276.5,-239 272.62,-237.1 268.56,-235 264.61,-232.91"/>
<polygon fill="#63b8ff" stroke="#63b8ff" points="266.23,-229.81 255.77,-228.13 262.9,-235.97 266.23,-229.81"/>
</a>
</g>
</g>
<!-- Node23&#45;&gt;Node6 -->
<g id="edge25_Node000023_Node000006" class="edge">
<title>Node23&#45;&gt;Node6</title>
<g id="a_edge25_Node000023_Node000006"><a xlink:title=" ">
<path fill="none" stroke="#63b8ff" d="M345.87,-197.77C339.97,-189.22 333.03,-179.17 326.94,-170.35"/>
<polygon fill="#63b8ff" stroke="#63b8ff" points="329.76,-168.28 321.2,-162.04 324,-172.26 329.76,-168.28"/>
</a>
</g>
</g>
<!-- Node24&#45;&gt;Node6 -->
<g id="edge27_Node000024_Node000006" class="edge">
<title>Node24&#45;&gt;Node6</title>
<g id="a_edge27_Node000024_Node000006"><a xlink:title=" ">
<path fill="none" stroke="#63b8ff" d="M465.32,-197.96C433.53,-187.63 394.87,-175.07 364.26,-165.13"/>
<polygon fill="#63b8ff" stroke="#63b8ff" points="365.21,-161.76 354.62,-162 363.05,-168.42 365.21,-161.76"/>
</a>
</g>
</g>
<!-- Node24&#45;&gt;Node16 -->
<g id="edge29_Node000024_Node000016" class="edge">
<title>Node24&#45;&gt;Node16</title>
<g id="a_edge29_Node000024_Node000016"><a xlink:title=" ">
<path fill="none" stroke="#63b8ff" d="M599.87,-198.39C637.95,-188.25 684.92,-175.18 726.5,-162 728.62,-161.33 730.79,-160.62 732.98,-159.88"/>
<polygon fill="#63b8ff" stroke="#63b8ff" points="734.2,-163.16 742.5,-156.58 731.91,-156.55 734.2,-163.16"/>
</a>
</g>
</g>
<!-- Node25 -->
<g id="Node000025" class="node">
<title>Node25</title>
<g id="a_Node000025"><a xlink:title=" ">
<polygon fill="#e0e0e0" stroke="#999999" points="238,-156.5 197,-156.5 197,-137.5 238,-137.5 238,-156.5"/>
<text text-anchor="middle" x="217.5" y="-144.5" font-family="Helvetica,sans-Serif" font-size="10.00">tuple</text>
</a>
</g>
</g>
<!-- Node24&#45;&gt;Node25 -->
<g id="edge28_Node000024_Node000025" class="edge">
<title>Node24&#45;&gt;Node25</title>
<g id="a_edge28_Node000024_Node000025"><a xlink:title=" ">
<path fill="none" stroke="#63b8ff" d="M451.33,-199.89C448.35,-199.24 445.4,-198.61 442.5,-198 356.24,-179.92 331.44,-188.85 247.5,-162 246.1,-161.55 244.67,-161.05 243.25,-160.52"/>
<polygon fill="#63b8ff" stroke="#63b8ff" points="244.59,-157.28 234.02,-156.62 241.87,-163.73 244.59,-157.28"/>
</a>
</g>
</g>
<!-- Node27&#45;&gt;Node8 -->
<g id="edge45_Node000027_Node000008" class="edge">
<title>Node27&#45;&gt;Node8</title>
<g id="a_edge45_Node000027_Node000008"><a xlink:title=" ">
<path fill="none" stroke="#63b8ff" d="M724.84,-357.47C756.52,-347.44 798.78,-332.77 834.5,-316 894.94,-287.62 918.99,-288.77 963.5,-239 1016.46,-179.78 1020.04,-144.61 1008.5,-66 1007.22,-57.3 1004.76,-48.01 1002.19,-39.83"/>
<polygon fill="#63b8ff" stroke="#63b8ff" points="1005.46,-38.56 998.97,-30.19 998.82,-40.78 1005.46,-38.56"/>
</a>
</g>
</g>
<!-- Node27&#45;&gt;Node19 -->
<g id="edge47_Node000027_Node000019" class="edge">
<title>Node27&#45;&gt;Node19</title>
<g id="a_edge47_Node000027_Node000019"><a xlink:title=" ">
<path fill="none" stroke="#63b8ff" d="M727.05,-357.46C735.18,-355.44 743.54,-353.53 751.5,-352 815.48,-339.67 989.8,-354.32 1042.5,-316 1068.08,-297.4 1079.57,-260.56 1084.37,-238.17"/>
<polygon fill="#63b8ff" stroke="#63b8ff" points="1087.84,-238.69 1086.27,-228.21 1080.96,-237.38 1087.84,-238.69"/>
</a>
</g>
</g>
<!-- Node28 -->
<g id="Node000028" class="node">
<title>Node28</title>
<g id="a_Node000028"><a xlink:href="exception_8hpp.html" target="_top" xlink:title=" ">
<polygon fill="white" stroke="#666666" points="737,-233.5 618,-233.5 618,-203.5 737,-203.5 737,-233.5"/>
<text text-anchor="start" x="626" y="-221.5" font-family="Helvetica,sans-Serif" font-size="10.00">packages/exceptions</text>
<text text-anchor="middle" x="677.5" y="-210.5" font-family="Helvetica,sans-Serif" font-size="10.00">/inc/exception.hpp</text>
</a>
</g>
</g>
<!-- Node27&#45;&gt;Node28 -->
<g id="edge33_Node000027_Node000028" class="edge">
<title>Node27&#45;&gt;Node28</title>
<g id="a_edge33_Node000027_Node000028"><a xlink:title=" ">
<path fill="none" stroke="#63b8ff" d="M677.5,-357.47C677.5,-331.7 677.5,-276.51 677.5,-244.29"/>
<polygon fill="#63b8ff" stroke="#63b8ff" points="681,-243.94 677.5,-233.94 674,-243.94 681,-243.94"/>
</a>
</g>
</g>
<!-- Node32 -->
<g id="Node000032" class="node">
<title>Node32</title>
<g id="a_Node000032"><a xlink:href="exceptions_8hpp.html" target="_top" xlink:title=" ">
<polygon fill="white" stroke="#666666" points="825,-310.5 706,-310.5 706,-280.5 825,-280.5 825,-310.5"/>
<text text-anchor="start" x="714" y="-298.5" font-family="Helvetica,sans-Serif" font-size="10.00">packages/macros/inc</text>
<text text-anchor="middle" x="765.5" y="-287.5" font-family="Helvetica,sans-Serif" font-size="10.00">/exceptions.hpp</text>
</a>
</g>
</g>
<!-- Node27&#45;&gt;Node32 -->
<g id="edge40_Node000027_Node000032" class="edge">
<title>Node27&#45;&gt;Node32</title>
<g id="a_edge40_Node000027_Node000032"><a xlink:title=" ">
<path fill="none" stroke="#63b8ff" d="M694.05,-357.39C707.33,-346.08 726.15,-330.04 741.15,-317.26"/>
<polygon fill="#63b8ff" stroke="#63b8ff" points="743.68,-319.69 749.02,-310.54 739.14,-314.37 743.68,-319.69"/>
</a>
</g>
</g>
<!-- Node33 -->
<g id="Node000033" class="node">
<title>Node33</title>
<g id="a_Node000033"><a xlink:title=" ">
<polygon fill="#e0e0e0" stroke="#999999" points="649.5,-305 529.5,-305 529.5,-286 649.5,-286 649.5,-305"/>
<text text-anchor="middle" x="589.5" y="-293" font-family="Helvetica,sans-Serif" font-size="10.00">cmake_variables.hpp</text>
</a>
</g>
</g>
<!-- Node27&#45;&gt;Node33 -->
<g id="edge46_Node000027_Node000033" class="edge">
<title>Node27&#45;&gt;Node33</title>
<g id="a_edge46_Node000027_Node000033"><a xlink:title=" ">
<path fill="none" stroke="#63b8ff" d="M660.95,-357.39C645.82,-344.5 623.5,-325.48 607.84,-312.13"/>
<polygon fill="#63b8ff" stroke="#63b8ff" points="609.79,-309.2 599.91,-305.37 605.25,-314.53 609.79,-309.2"/>
</a>
</g>
</g>
<!-- Node28&#45;&gt;Node3 -->
<g id="edge38_Node000028_Node000003" class="edge">
<title>Node28&#45;&gt;Node3</title>
<g id="a_edge38_Node000028_Node000003"><a xlink:title=" ">
<path fill="none" stroke="#63b8ff" d="M632.51,-203.46C624.57,-201.36 616.34,-199.43 608.5,-198 423.75,-164.31 370.97,-202.06 187.5,-162 184.67,-161.38 181.76,-160.61 178.87,-159.75"/>
<polygon fill="#63b8ff" stroke="#63b8ff" points="179.85,-156.39 169.26,-156.58 177.65,-163.04 179.85,-156.39"/>
</a>
</g>
</g>
<!-- Node28&#45;&gt;Node6 -->
<g id="edge34_Node000028_Node000006" class="edge">
<title>Node28&#45;&gt;Node6</title>
<g id="a_edge34_Node000028_Node000006"><a xlink:title=" ">
<path fill="none" stroke="#63b8ff" d="M630.55,-203.41C623.21,-201.44 615.68,-199.56 608.5,-198 509.21,-176.38 480.25,-180.9 376.55,-162.11"/>
<polygon fill="#63b8ff" stroke="#63b8ff" points="377.08,-158.65 366.61,-160.28 375.81,-165.54 377.08,-158.65"/>
</a>
</g>
</g>
<!-- Node28&#45;&gt;Node11 -->
<g id="edge36_Node000028_Node000011" class="edge">
<title>Node28&#45;&gt;Node11</title>
<g id="a_edge36_Node000028_Node000011"><a xlink:title=" ">
<path fill="none" stroke="#63b8ff" d="M631.17,-203.44C611.28,-194.85 590,-181.64 578.5,-162 567.35,-142.97 574.06,-117.11 580.89,-100.01"/>
<polygon fill="#63b8ff" stroke="#63b8ff" points="584.19,-101.19 585,-90.63 577.78,-98.38 584.19,-101.19"/>
</a>
</g>
</g>
<!-- Node29 -->
<g id="Node000029" class="node">
<title>Node29</title>
<g id="a_Node000029"><a xlink:title=" ">
<polygon fill="#e0e0e0" stroke="#999999" points="652,-156.5 587,-156.5 587,-137.5 652,-137.5 652,-156.5"/>
<text text-anchor="middle" x="619.5" y="-144.5" font-family="Helvetica,sans-Serif" font-size="10.00">stdexcept</text>
</a>
</g>
</g>
<!-- Node28&#45;&gt;Node29 -->
<g id="edge35_Node000028_Node000029" class="edge">
<title>Node28&#45;&gt;Node29</title>
<g id="a_edge35_Node000028_Node000029"><a xlink:title=" ">
<path fill="none" stroke="#63b8ff" d="M665.76,-203.44C656.39,-192.2 643.23,-176.43 633.34,-164.58"/>
<polygon fill="#63b8ff" stroke="#63b8ff" points="635.91,-162.2 626.82,-156.77 630.54,-166.69 635.91,-162.2"/>
</a>
</g>
</g>
<!-- Node30 -->
<g id="Node000030" class="node">
<title>Node30</title>
<g id="a_Node000030"><a xlink:title=" ">
<polygon fill="#e0e0e0" stroke="#999999" points="717,-156.5 670,-156.5 670,-137.5 717,-137.5 717,-156.5"/>
<text text-anchor="middle" x="693.5" y="-144.5" font-family="Helvetica,sans-Serif" font-size="10.00">deque</text>
</a>
</g>
</g>
<!-- Node28&#45;&gt;Node30 -->
<g id="edge37_Node000028_Node000030" class="edge">
<title>Node28&#45;&gt;Node30</title>
<g id="a_edge37_Node000028_Node000030"><a xlink:title=" ">
<path fill="none" stroke="#63b8ff" d="M680.74,-203.44C683.17,-192.86 686.54,-178.25 689.2,-166.69"/>
<polygon fill="#63b8ff" stroke="#63b8ff" points="692.65,-167.3 691.48,-156.77 685.83,-165.73 692.65,-167.3"/>
</a>
</g>
</g>
<!-- Node31 -->
<g id="Node000031" class="node">
<title>Node31</title>
<g id="a_Node000031"><a xlink:title=" ">
<polygon fill="#e0e0e0" stroke="#999999" points="530.5,-162 384.5,-162 384.5,-132 530.5,-132 530.5,-162"/>
<text text-anchor="start" x="392.5" y="-150" font-family="Helvetica,sans-Serif" font-size="10.00">packages/exceptions</text>
<text text-anchor="middle" x="457.5" y="-139" font-family="Helvetica,sans-Serif" font-size="10.00">/impl/exceptions_impl.hpp</text>
</a>
</g>
</g>
<!-- Node28&#45;&gt;Node31 -->
<g id="edge39_Node000028_Node000031" class="edge">
<title>Node28&#45;&gt;Node31</title>
<g id="a_edge39_Node000028_Node000031"><a xlink:title=" ">
<path fill="none" stroke="#63b8ff" d="M632.98,-203.44C597.94,-192.37 548.97,-176.9 511.66,-165.11"/>
<polygon fill="#63b8ff" stroke="#63b8ff" points="512.54,-161.72 501.95,-162.04 510.44,-168.39 512.54,-161.72"/>
</a>
</g>
</g>
<!-- Node32&#45;&gt;Node8 -->
<g id="edge42_Node000032_Node000008" class="edge">
<title>Node32&#45;&gt;Node8</title>
<g id="a_edge42_Node000032_Node000008"><a xlink:title=" ">
<path fill="none" stroke="#63b8ff" d="M825.39,-286.38C860.48,-279.01 903.79,-265.1 934.5,-239 993.68,-188.7 997.05,-86.61 995.21,-40.09"/>
<polygon fill="#63b8ff" stroke="#63b8ff" points="998.7,-39.83 994.69,-30.02 991.71,-40.19 998.7,-39.83"/>
</a>
</g>
</g>
<!-- Node32&#45;&gt;Node16 -->
<g id="edge44_Node000032_Node000016" class="edge">
<title>Node32&#45;&gt;Node16</title>
<g id="a_edge44_Node000032_Node000016"><a xlink:title=" ">
<path fill="none" stroke="#63b8ff" d="M765.5,-280.45C765.5,-254.03 765.5,-196.89 765.5,-167.04"/>
<polygon fill="#63b8ff" stroke="#63b8ff" points="769,-166.73 765.5,-156.73 762,-166.73 769,-166.73"/>
</a>
</g>
</g>
<!-- Node32&#45;&gt;Node19 -->
<g id="edge43_Node000032_Node000019" class="edge">
<title>Node32&#45;&gt;Node19</title>
<g id="a_edge43_Node000032_Node000019"><a xlink:title=" ">
<path fill="none" stroke="#63b8ff" d="M825.22,-281.04C874.24,-269.94 945.42,-253.68 1007.5,-239 1021.25,-235.75 1036.3,-232.1 1049.6,-228.85"/>
<polygon fill="#63b8ff" stroke="#63b8ff" points="1050.51,-232.23 1059.38,-226.45 1048.84,-225.43 1050.51,-232.23"/>
</a>
</g>
</g>
<!-- Node32&#45;&gt;Node28 -->
<g id="edge41_Node000032_Node000028" class="edge">
<title>Node32&#45;&gt;Node28</title>
<g id="a_edge41_Node000032_Node000028"><a xlink:title=" ">
<path fill="none" stroke="#63b8ff" d="M748.95,-280.39C735.67,-269.08 716.85,-253.04 701.85,-240.26"/>
<polygon fill="#63b8ff" stroke="#63b8ff" points="703.86,-237.37 693.98,-233.54 699.32,-242.69 703.86,-237.37"/>
</a>
</g>
</g>
</g>
</svg>

<g id="navigator" transform="translate(0 0)" fill="#404254">
  <rect fill="#f2f5e9" fill-opacity="0.5" stroke="#606060" stroke-width=".5" x="0" y="0" width="60" height="60"/>
  <use id="zoomplus" xlink:href="#zoomPlus" x="17" y="9" onmousedown="handleZoom(evt,'in')"/>
  <use id="zoomminus" xlink:href="#zoomMin" x="42" y="9" onmousedown="handleZoom(evt,'out')"/>
  <use id="reset" xlink:href="#resetDef" x="30" y="36" onmousedown="handleReset()"/>
   <use id="arrowup" xlink:href="#arrowUp" x="0" y="0" onmousedown="handlePan(0,-1)"/>
  <use id="arrowright" xlink:href="#arrowRight" x="0" y="0" onmousedown="handlePan(1,0)"/>
  <use id="arrowdown" xlink:href="#arrowDown" x="0" y="0" onmousedown="handlePan(0,1)"/>
  <use id="arrowleft" xlink:href="#arrowLeft" x="0" y="0" onmousedown="handlePan(-1,0)"/>
</g>
<svg viewBox="0 0 15 15" width="100%" height="30px" preserveAspectRatio="xMaxYMin meet">
 <g id="arrow_out" transform="scale(0.3 0.3)">
  <a xlink:href="OutputStream_8hpp__incl_org.svg" target="_base">
   <rect id="button" ry="5" rx="5" y="6" x="6" height="38" width="38"
        fill="#f2f5e9" fill-opacity="0.5" stroke="#606060" stroke-width="1.0"/>
   <path id="arrow"
     d="M 11.500037,31.436501 C 11.940474,20.09759 22.043105,11.32322 32.158766,21.979434 L 37.068811,17.246167 C 37.068811,17.246167 37.088388,32 37.088388,32 L 22.160133,31.978069 C 22.160133,31.978069 26.997745,27.140456 26.997745,27.140456 C 18.528582,18.264221 13.291696,25.230495 11.500037,31.436501 z"
     style="fill:#404040;"/>
  </a>
 </g>
</svg>

<style type='text/css'>
<![CDATA[
[data-mouse-over-selected='false'] { opacity: 0.7; }
[data-mouse-over-selected='true']  { opacity: 1.0; }
]]>
</style>
<script type="application/ecmascript"><![CDATA[
document.addEventListener('DOMContentLoaded', (event) => {
  highlightEdges();
  highlightAdjacentNodes();
});
]]></script>
</svg>
