<?xml version="1.0" encoding="UTF-8" standalone="no"?>
<!DOCTYPE svg PUBLIC "-//W3C//DTD SVG 1.1//EN"
 "http://www.w3.org/Graphics/SVG/1.1/DTD/svg11.dtd">
<!-- Generated by graphviz version 2.43.0 (0)
 -->
<!-- Title: OutputStream.hpp Pages: 1 -->
<!--zoomable 463 -->
<svg id="main" version="1.1" xmlns="http://www.w3.org/2000/svg" xmlns:xlink="http://www.w3.org/1999/xlink" xml:space="preserve" onload="init(evt)">
<style type="text/css"><![CDATA[
.edge:hover path { stroke: red; }
.edge:hover polygon { stroke: red; fill: red; }
]]></style>
<script type="text/javascript"><![CDATA[
var edges = document.getElementsByTagName('g');
if (edges && edges.length) {
  for (var i=0;i<edges.length;i++) {
    if (edges[i].id.substr(0,4)=='edge') {
      edges[i].setAttribute('class','edge');
    }
  }
}
]]></script>
        <defs>
                <circle id="rim" cx="0" cy="0" r="7"/>
                <circle id="rim2" cx="0" cy="0" r="3.5"/>
                <g id="zoomPlus">
                        <use xlink:href="#rim" fill="#404040">
                                <set attributeName="fill" to="#808080" begin="zoomplus.mouseover" end="zoomplus.mouseout"/>
                        </use>
                        <path d="M-4,0h8M0,-4v8" fill="none" stroke="white" stroke-width="1.5" pointer-events="none"/>
                </g>
                <g id="zoomMin">
                        <use xlink:href="#rim" fill="#404040">
                                <set attributeName="fill" to="#808080" begin="zoomminus.mouseover" end="zoomminus.mouseout"/>
                        </use>
                        <path d="M-4,0h8" fill="none" stroke="white" stroke-width="1.5" pointer-events="none"/>
                </g>
                <g id="dirArrow">
                        <path fill="none" stroke="white" stroke-width="1.5" d="M0,-3.0v7 M-2.5,-0.5L0,-3.0L2.5,-0.5"/>
                </g>
               <g id="resetDef">
                       <use xlink:href="#rim2" fill="#404040">
                               <set attributeName="fill" to="#808080" begin="reset.mouseover" end="reset.mouseout"/>
                       </use>
               </g>
        </defs>

<script type="text/javascript">
var viewWidth = 1247;
var viewHeight = 463;
var sectionId = 'dynsection-0';
</script>
<script xlink:href="svgpan.js"/>
<svg id="graph" class="graph">
<g id="viewport">
<title>OutputStream.hpp</title>
<polygon fill="white" stroke="transparent" points="-4,4 -4,-459 1242.53,-459 1242.53,4 -4,4"/>
<!-- Node1 -->
<g id="node1" class="node">
<title>Node1</title>
<g id="a_node1"><a xlink:title=" ">
<polygon fill="#bfbfbf" stroke="black" points="580,-435.5 580,-454.5 686,-454.5 686,-435.5 580,-435.5"/>
<text text-anchor="middle" x="633" y="-442.5" font-family="Helvetica,sans-Serif" font-size="10.00">OutputStream.hpp</text>
</a>
</g>
</g>
<!-- Node2 -->
<g id="node2" class="node">
<title>Node2</title>
<g id="a_node2"><a xlink:href="typedefs_8hpp.html" target="_top" xlink:title=" ">
<polygon fill="white" stroke="black" points="111.5,-285 111.5,-315 230.5,-315 230.5,-285 111.5,-285"/>
<text text-anchor="start" x="119.5" y="-303" font-family="Helvetica,sans-Serif" font-size="10.00">packages/macros/inc</text>
<text text-anchor="middle" x="171" y="-292" font-family="Helvetica,sans-Serif" font-size="10.00">/typedefs.hpp</text>
</a>
</g>
</g>
<!-- Node1&#45;&gt;Node2 -->
<g id="edge1" class="edge">
<title>Node1&#45;&gt;Node2</title>
<path fill="none" stroke="midnightblue" d="M579.79,-440.29C523.69,-435.22 433.32,-423.76 359,-399 300.09,-379.37 237.18,-343.05 201.12,-320.57"/>
<polygon fill="midnightblue" stroke="midnightblue" points="202.88,-317.54 192.55,-315.17 199.15,-323.46 202.88,-317.54"/>
</g>
<!-- Node3 -->
<g id="node3" class="node">
<title>Node3</title>
<g id="a_node3"><a xlink:title=" ">
<polygon fill="white" stroke="#bfbfbf" points="0,-140 0,-159 58,-159 58,-140 0,-140"/>
<text text-anchor="middle" x="29" y="-147" font-family="Helvetica,sans-Serif" font-size="10.00">memory</text>
</a>
</g>
</g>
<!-- Node1&#45;&gt;Node3 -->
<g id="edge52" class="edge">
<title>Node1&#45;&gt;Node3</title>
<path fill="none" stroke="midnightblue" d="M579.82,-442.87C507.28,-440.13 373.9,-430.79 265,-399 140.72,-362.72 70.39,-361.83 19,-243 8.55,-218.85 15.45,-187.97 21.85,-168.71"/>
<polygon fill="midnightblue" stroke="midnightblue" points="25.22,-169.68 25.34,-159.09 18.64,-167.3 25.22,-169.68"/>
</g>
<!-- Node4 -->
<g id="node4" class="node">
<title>Node4</title>
<g id="a_node4"><a xlink:href="streamable_8hpp.html" target="_top" xlink:title=" ">
<polygon fill="white" stroke="black" points="520,-279.5 520,-320.5 652,-320.5 652,-279.5 520,-279.5"/>
<text text-anchor="start" x="528" y="-308.5" font-family="Helvetica,sans-Serif" font-size="10.00">packages/compile_time</text>
<text text-anchor="start" x="528" y="-297.5" font-family="Helvetica,sans-Serif" font-size="10.00">/packages/concepts/inc</text>
<text text-anchor="middle" x="586" y="-286.5" font-family="Helvetica,sans-Serif" font-size="10.00">/streamable.hpp</text>
</a>
</g>
</g>
<!-- Node1&#45;&gt;Node4 -->
<g id="edge3" class="edge">
<title>Node1&#45;&gt;Node4</title>
<path fill="none" stroke="midnightblue" d="M628.34,-435.23C623.73,-426.3 616.7,-411.97 612,-399 603.86,-376.56 597.05,-350.39 592.44,-330.74"/>
<polygon fill="midnightblue" stroke="midnightblue" points="595.82,-329.81 590.17,-320.84 588.99,-331.37 595.82,-329.81"/>
</g>
<!-- Node21 -->
<g id="node21" class="node">
<title>Node21</title>
<g id="a_node21"><a xlink:href="container__concepts_8hpp.html" target="_top" xlink:title=" ">
<polygon fill="white" stroke="black" points="368.5,-357.5 368.5,-398.5 503.5,-398.5 503.5,-357.5 368.5,-357.5"/>
<text text-anchor="start" x="376.5" y="-386.5" font-family="Helvetica,sans-Serif" font-size="10.00">packages/compile_time</text>
<text text-anchor="start" x="376.5" y="-375.5" font-family="Helvetica,sans-Serif" font-size="10.00">/packages/concepts/inc</text>
<text text-anchor="middle" x="436" y="-364.5" font-family="Helvetica,sans-Serif" font-size="10.00">/container_concepts.hpp</text>
</a>
</g>
</g>
<!-- Node1&#45;&gt;Node21 -->
<g id="edge21" class="edge">
<title>Node1&#45;&gt;Node21</title>
<path fill="none" stroke="midnightblue" d="M606.84,-435.37C581.01,-426.85 540.39,-413.44 505.23,-401.84"/>
<polygon fill="midnightblue" stroke="midnightblue" points="506.07,-398.44 495.48,-398.63 503.88,-405.08 506.07,-398.44"/>
</g>
<!-- Node27 -->
<g id="node27" class="node">
<title>Node27</title>
<g id="a_node27"><a xlink:href="checks_8hpp.html" target="_top" xlink:title=" ">
<polygon fill="white" stroke="black" points="620.5,-363 620.5,-393 739.5,-393 739.5,-363 620.5,-363"/>
<text text-anchor="start" x="628.5" y="-381" font-family="Helvetica,sans-Serif" font-size="10.00">packages/macros/inc</text>
<text text-anchor="middle" x="680" y="-370" font-family="Helvetica,sans-Serif" font-size="10.00">/checks.hpp</text>
</a>
</g>
</g>
<!-- Node1&#45;&gt;Node27 -->
<g id="edge32" class="edge">
<title>Node1&#45;&gt;Node27</title>
<path fill="none" stroke="midnightblue" d="M639.34,-435.23C645.57,-426.62 655.34,-413.11 663.74,-401.49"/>
<polygon fill="midnightblue" stroke="midnightblue" points="666.79,-403.24 669.81,-393.09 661.12,-399.14 666.79,-403.24"/>
</g>
<!-- Node35 -->
<g id="node35" class="node">
<title>Node35</title>
<g id="a_node35"><a xlink:title=" ">
<polygon fill="white" stroke="#bfbfbf" points="757.5,-368.5 757.5,-387.5 814.5,-387.5 814.5,-368.5 757.5,-368.5"/>
<text text-anchor="middle" x="786" y="-375.5" font-family="Helvetica,sans-Serif" font-size="10.00">ostream</text>
</a>
</g>
</g>
<!-- Node1&#45;&gt;Node35 -->
<g id="edge50" class="edge">
<title>Node1&#45;&gt;Node35</title>
<path fill="none" stroke="midnightblue" d="M657.81,-435.4C681.56,-426.93 718.21,-413.22 749,-399 753.29,-397.02 757.78,-394.76 762.09,-392.49"/>
<polygon fill="midnightblue" stroke="midnightblue" points="763.97,-395.45 771.1,-387.61 760.64,-389.3 763.97,-395.45"/>
</g>
<!-- Node36 -->
<g id="node36" class="node">
<title>Node36</title>
<g id="a_node36"><a xlink:title=" ">
<polygon fill="white" stroke="#bfbfbf" points="832.5,-368.5 832.5,-387.5 899.5,-387.5 899.5,-368.5 832.5,-368.5"/>
<text text-anchor="middle" x="866" y="-375.5" font-family="Helvetica,sans-Serif" font-size="10.00">streambuf</text>
</a>
</g>
</g>
<!-- Node1&#45;&gt;Node36 -->
<g id="edge51" class="edge">
<title>Node1&#45;&gt;Node36</title>
<path fill="none" stroke="midnightblue" d="M682.1,-435.43C721.17,-427.89 776.91,-415.55 824,-399 829.52,-397.06 835.29,-394.61 840.71,-392.1"/>
<polygon fill="midnightblue" stroke="midnightblue" points="842.51,-395.12 849.99,-387.62 839.46,-388.82 842.51,-395.12"/>
</g>
<!-- Node37 -->
<g id="node37" class="node">
<title>Node37</title>
<g id="a_node37"><a xlink:title=" ">
<polygon fill="white" stroke="#bfbfbf" points="918,-363 918,-393 1054,-393 1054,-363 918,-363"/>
<text text-anchor="start" x="926" y="-381" font-family="Helvetica,sans-Serif" font-size="10.00">packages/logging/impl</text>
<text text-anchor="middle" x="986" y="-370" font-family="Helvetica,sans-Serif" font-size="10.00">/OutputStream_impl.hpp</text>
</a>
</g>
</g>
<!-- Node1&#45;&gt;Node37 -->
<g id="edge53" class="edge">
<title>Node1&#45;&gt;Node37</title>
<path fill="none" stroke="midnightblue" d="M686.18,-436.82C741.96,-428.94 832.04,-415.23 909,-399 914.24,-397.9 919.65,-396.67 925.07,-395.38"/>
<polygon fill="midnightblue" stroke="midnightblue" points="925.91,-398.78 934.8,-393 924.25,-391.98 925.91,-398.78"/>
</g>
<!-- Node2&#45;&gt;Node3 -->
<g id="edge2" class="edge">
<title>Node2&#45;&gt;Node3</title>
<path fill="none" stroke="midnightblue" d="M111.22,-289.65C83.09,-282 51.88,-268.12 34,-243 18.58,-221.33 21,-189.06 24.64,-168.92"/>
<polygon fill="midnightblue" stroke="midnightblue" points="28.07,-169.63 26.68,-159.13 21.21,-168.2 28.07,-169.63"/>
</g>
<!-- Node5 -->
<g id="node5" class="node">
<title>Node5</title>
<g id="a_node5"><a xlink:href="basic__concepts_8hpp.html" target="_top" xlink:title=" ">
<polygon fill="white" stroke="black" points="480,-201.5 480,-242.5 612,-242.5 612,-201.5 480,-201.5"/>
<text text-anchor="start" x="488" y="-230.5" font-family="Helvetica,sans-Serif" font-size="10.00">packages/compile_time</text>
<text text-anchor="start" x="488" y="-219.5" font-family="Helvetica,sans-Serif" font-size="10.00">/packages/concepts/inc</text>
<text text-anchor="middle" x="546" y="-208.5" font-family="Helvetica,sans-Serif" font-size="10.00">/basic_concepts.hpp</text>
</a>
</g>
</g>
<!-- Node4&#45;&gt;Node5 -->
<g id="edge4" class="edge">
<title>Node4&#45;&gt;Node5</title>
<path fill="none" stroke="midnightblue" d="M575.7,-279.43C571.22,-270.92 565.88,-260.78 560.98,-251.46"/>
<polygon fill="midnightblue" stroke="midnightblue" points="564.02,-249.72 556.27,-242.51 557.83,-252.98 564.02,-249.72"/>
</g>
<!-- Node19 -->
<g id="node19" class="node">
<title>Node19</title>
<g id="a_node19"><a xlink:title=" ">
<polygon fill="white" stroke="#bfbfbf" points="696,-212.5 696,-231.5 752,-231.5 752,-212.5 696,-212.5"/>
<text text-anchor="middle" x="724" y="-219.5" font-family="Helvetica,sans-Serif" font-size="10.00">sstream</text>
</a>
</g>
</g>
<!-- Node4&#45;&gt;Node19 -->
<g id="edge19" class="edge">
<title>Node4&#45;&gt;Node19</title>
<path fill="none" stroke="midnightblue" d="M621.54,-279.43C646.03,-265.94 677.93,-248.37 699.59,-236.44"/>
<polygon fill="midnightblue" stroke="midnightblue" points="701.4,-239.44 708.47,-231.55 698.02,-233.31 701.4,-239.44"/>
</g>
<!-- Node20 -->
<g id="node20" class="node">
<title>Node20</title>
<g id="a_node20"><a xlink:title=" ">
<polygon fill="white" stroke="#bfbfbf" points="630,-212.5 630,-231.5 678,-231.5 678,-212.5 630,-212.5"/>
<text text-anchor="middle" x="654" y="-219.5" font-family="Helvetica,sans-Serif" font-size="10.00">iosfwd</text>
</a>
</g>
</g>
<!-- Node4&#45;&gt;Node20 -->
<g id="edge20" class="edge">
<title>Node4&#45;&gt;Node20</title>
<path fill="none" stroke="midnightblue" d="M603.51,-279.43C614.66,-266.97 628.92,-251.03 639.45,-239.27"/>
<polygon fill="midnightblue" stroke="midnightblue" points="642.29,-241.34 646.35,-231.55 637.07,-236.67 642.29,-241.34"/>
</g>
<!-- Node6 -->
<g id="node6" class="node">
<title>Node6</title>
<g id="a_node6"><a xlink:href="types_8hpp.html" target="_top" xlink:title=" ">
<polygon fill="white" stroke="black" points="393,-134.5 393,-164.5 503,-164.5 503,-134.5 393,-134.5"/>
<text text-anchor="start" x="401" y="-152.5" font-family="Helvetica,sans-Serif" font-size="10.00">packages/types/inc</text>
<text text-anchor="middle" x="448" y="-141.5" font-family="Helvetica,sans-Serif" font-size="10.00">/types.hpp</text>
</a>
</g>
</g>
<!-- Node5&#45;&gt;Node6 -->
<g id="edge5" class="edge">
<title>Node5&#45;&gt;Node6</title>
<path fill="none" stroke="midnightblue" d="M518.7,-201.36C505.41,-191.8 489.46,-180.33 476.07,-170.69"/>
<polygon fill="midnightblue" stroke="midnightblue" points="477.86,-167.67 467.7,-164.67 473.77,-173.35 477.86,-167.67"/>
</g>
<!-- Node12 -->
<g id="node12" class="node">
<title>Node12</title>
<g id="a_node12"><a xlink:title=" ">
<polygon fill="white" stroke="#bfbfbf" points="167.5,-73 167.5,-92 236.5,-92 236.5,-73 167.5,-73"/>
<text text-anchor="middle" x="202" y="-80" font-family="Helvetica,sans-Serif" font-size="10.00">type_traits</text>
</a>
</g>
</g>
<!-- Node5&#45;&gt;Node12 -->
<g id="edge16" class="edge">
<title>Node5&#45;&gt;Node12</title>
<path fill="none" stroke="midnightblue" d="M485.14,-201.38C454.56,-191.16 417.06,-178.09 384,-165 327.95,-142.81 263.94,-113.1 228.74,-96.37"/>
<polygon fill="midnightblue" stroke="midnightblue" points="230.14,-93.16 219.6,-92.01 227.12,-99.47 230.14,-93.16"/>
</g>
<!-- Node16 -->
<g id="node16" class="node">
<title>Node16</title>
<g id="a_node16"><a xlink:title=" ">
<polygon fill="white" stroke="#bfbfbf" points="692,-140 692,-159 752,-159 752,-140 692,-140"/>
<text text-anchor="middle" x="722" y="-147" font-family="Helvetica,sans-Serif" font-size="10.00">concepts</text>
</a>
</g>
</g>
<!-- Node5&#45;&gt;Node16 -->
<g id="edge15" class="edge">
<title>Node5&#45;&gt;Node16</title>
<path fill="none" stroke="midnightblue" d="M595.03,-201.36C625.69,-189.08 664.27,-173.63 690.81,-162.99"/>
<polygon fill="midnightblue" stroke="midnightblue" points="692.37,-166.14 700.35,-159.17 689.76,-159.64 692.37,-166.14"/>
</g>
<!-- Node17 -->
<g id="node17" class="node">
<title>Node17</title>
<g id="a_node17"><a xlink:title=" ">
<polygon fill="white" stroke="#bfbfbf" points="521,-140 521,-159 571,-159 571,-140 521,-140"/>
<text text-anchor="middle" x="546" y="-147" font-family="Helvetica,sans-Serif" font-size="10.00">cstdint</text>
</a>
</g>
</g>
<!-- Node5&#45;&gt;Node17 -->
<g id="edge17" class="edge">
<title>Node5&#45;&gt;Node17</title>
<path fill="none" stroke="midnightblue" d="M546,-201.36C546,-191.3 546,-179.1 546,-169.18"/>
<polygon fill="midnightblue" stroke="midnightblue" points="549.5,-169.17 546,-159.17 542.5,-169.17 549.5,-169.17"/>
</g>
<!-- Node18 -->
<g id="node18" class="node">
<title>Node18</title>
<g id="a_node18"><a xlink:title=" ">
<polygon fill="white" stroke="#bfbfbf" points="589.5,-140 589.5,-159 634.5,-159 634.5,-140 589.5,-140"/>
<text text-anchor="middle" x="612" y="-147" font-family="Helvetica,sans-Serif" font-size="10.00">utility</text>
</a>
</g>
</g>
<!-- Node5&#45;&gt;Node18 -->
<g id="edge18" class="edge">
<title>Node5&#45;&gt;Node18</title>
<path fill="none" stroke="midnightblue" d="M564.38,-201.36C574.62,-190.43 587.2,-176.99 596.86,-166.67"/>
<polygon fill="midnightblue" stroke="midnightblue" points="599.6,-168.87 603.88,-159.17 594.49,-164.08 599.6,-168.87"/>
</g>
<!-- Node7 -->
<g id="node7" class="node">
<title>Node7</title>
<g id="a_node7"><a xlink:href="debug_8hpp.html" target="_top" xlink:title=" ">
<polygon fill="white" stroke="black" points="666.5,-67.5 666.5,-97.5 785.5,-97.5 785.5,-67.5 666.5,-67.5"/>
<text text-anchor="start" x="674.5" y="-85.5" font-family="Helvetica,sans-Serif" font-size="10.00">packages/macros/inc</text>
<text text-anchor="middle" x="726" y="-74.5" font-family="Helvetica,sans-Serif" font-size="10.00">/debug.hpp</text>
</a>
</g>
</g>
<!-- Node6&#45;&gt;Node7 -->
<g id="edge6" class="edge">
<title>Node6&#45;&gt;Node7</title>
<path fill="none" stroke="midnightblue" d="M503.26,-135.58C547.16,-125.31 608.84,-110.89 656.16,-99.83"/>
<polygon fill="midnightblue" stroke="midnightblue" points="657.09,-103.21 666.03,-97.52 655.5,-96.39 657.09,-103.21"/>
</g>
<!-- Node10 -->
<g id="node10" class="node">
<title>Node10</title>
<g id="a_node10"><a xlink:title=" ">
<polygon fill="white" stroke="#bfbfbf" points="254.5,-73 254.5,-92 307.5,-92 307.5,-73 254.5,-73"/>
<text text-anchor="middle" x="281" y="-80" font-family="Helvetica,sans-Serif" font-size="10.00">cstddef</text>
</a>
</g>
</g>
<!-- Node6&#45;&gt;Node10 -->
<g id="edge9" class="edge">
<title>Node6&#45;&gt;Node10</title>
<path fill="none" stroke="midnightblue" d="M411.24,-134.5C384.95,-124.44 348.75,-110.51 317,-98 315.36,-97.35 313.68,-96.69 311.99,-96.02"/>
<polygon fill="midnightblue" stroke="midnightblue" points="312.88,-92.6 302.3,-92.14 310.28,-99.1 312.88,-92.6"/>
</g>
<!-- Node11 -->
<g id="node11" class="node">
<title>Node11</title>
<g id="a_node11"><a xlink:title=" ">
<polygon fill="white" stroke="#bfbfbf" points="884,-73 884,-92 928,-92 928,-73 884,-73"/>
<text text-anchor="middle" x="906" y="-80" font-family="Helvetica,sans-Serif" font-size="10.00">string</text>
</a>
</g>
</g>
<!-- Node6&#45;&gt;Node11 -->
<g id="edge10" class="edge">
<title>Node6&#45;&gt;Node11</title>
<path fill="none" stroke="midnightblue" d="M503.09,-135.66C506.1,-135.07 509.08,-134.51 512,-134 636.86,-111.97 669.25,-114.21 795,-98 821.5,-94.58 851.56,-90.65 873.7,-87.75"/>
<polygon fill="midnightblue" stroke="midnightblue" points="874.43,-91.18 883.89,-86.41 873.52,-84.24 874.43,-91.18"/>
</g>
<!-- Node6&#45;&gt;Node12 -->
<g id="edge11" class="edge">
<title>Node6&#45;&gt;Node12</title>
<path fill="none" stroke="midnightblue" d="M392.96,-136.09C351.94,-126.53 294.67,-112.53 245,-98 242.07,-97.14 239.04,-96.21 236.01,-95.25"/>
<polygon fill="midnightblue" stroke="midnightblue" points="237.04,-91.91 226.45,-92.13 234.87,-98.56 237.04,-91.91"/>
</g>
<!-- Node13 -->
<g id="node13" class="node">
<title>Node13</title>
<g id="a_node13"><a xlink:title=" ">
<polygon fill="white" stroke="#bfbfbf" points="326,-73 326,-92 376,-92 376,-73 326,-73"/>
<text text-anchor="middle" x="351" y="-80" font-family="Helvetica,sans-Serif" font-size="10.00">climits</text>
</a>
</g>
</g>
<!-- Node6&#45;&gt;Node13 -->
<g id="edge12" class="edge">
<title>Node6&#45;&gt;Node13</title>
<path fill="none" stroke="midnightblue" d="M426.95,-134.4C410.69,-123.5 388.28,-108.48 372.02,-97.58"/>
<polygon fill="midnightblue" stroke="midnightblue" points="373.95,-94.67 363.7,-92.01 370.05,-100.48 373.95,-94.67"/>
</g>
<!-- Node14 -->
<g id="node14" class="node">
<title>Node14</title>
<g id="a_node14"><a xlink:title=" ">
<polygon fill="white" stroke="#bfbfbf" points="394.5,-67.5 394.5,-97.5 511.5,-97.5 511.5,-67.5 394.5,-67.5"/>
<text text-anchor="start" x="402.5" y="-85.5" font-family="Helvetica,sans-Serif" font-size="10.00">packages/types/impl</text>
<text text-anchor="middle" x="453" y="-74.5" font-family="Helvetica,sans-Serif" font-size="10.00">/types_impl.hpp</text>
</a>
</g>
</g>
<!-- Node6&#45;&gt;Node14 -->
<g id="edge13" class="edge">
<title>Node6&#45;&gt;Node14</title>
<path fill="none" stroke="midnightblue" d="M449.08,-134.4C449.69,-126.56 450.45,-116.6 451.15,-107.57"/>
<polygon fill="midnightblue" stroke="midnightblue" points="454.64,-107.82 451.92,-97.58 447.66,-107.28 454.64,-107.82"/>
</g>
<!-- Node15 -->
<g id="node15" class="node">
<title>Node15</title>
<g id="a_node15"><a xlink:href="logging_8hpp.html" target="_top" xlink:title=" ">
<polygon fill="white" stroke="black" points="529.5,-67.5 529.5,-97.5 648.5,-97.5 648.5,-67.5 529.5,-67.5"/>
<text text-anchor="start" x="537.5" y="-85.5" font-family="Helvetica,sans-Serif" font-size="10.00">packages/macros/inc</text>
<text text-anchor="middle" x="589" y="-74.5" font-family="Helvetica,sans-Serif" font-size="10.00">/logging.hpp</text>
</a>
</g>
</g>
<!-- Node6&#45;&gt;Node15 -->
<g id="edge14" class="edge">
<title>Node6&#45;&gt;Node15</title>
<path fill="none" stroke="midnightblue" d="M478.59,-134.4C499.29,-124.86 526.82,-112.16 549.22,-101.84"/>
<polygon fill="midnightblue" stroke="midnightblue" points="550.85,-104.94 558.46,-97.58 547.92,-98.58 550.85,-104.94"/>
</g>
<!-- Node8 -->
<g id="node8" class="node">
<title>Node8</title>
<g id="a_node8"><a xlink:href="detail_8hpp.html" target="_top" xlink:title=" ">
<polygon fill="white" stroke="black" points="766.5,-0.5 766.5,-30.5 885.5,-30.5 885.5,-0.5 766.5,-0.5"/>
<text text-anchor="start" x="774.5" y="-18.5" font-family="Helvetica,sans-Serif" font-size="10.00">packages/macros/inc</text>
<text text-anchor="middle" x="826" y="-7.5" font-family="Helvetica,sans-Serif" font-size="10.00">/detail.hpp</text>
</a>
</g>
</g>
<!-- Node7&#45;&gt;Node8 -->
<g id="edge7" class="edge">
<title>Node7&#45;&gt;Node8</title>
<path fill="none" stroke="midnightblue" d="M747.7,-67.4C761.72,-58.28 780.17,-46.29 795.64,-36.24"/>
<polygon fill="midnightblue" stroke="midnightblue" points="797.87,-38.96 804.34,-30.58 794.05,-33.09 797.87,-38.96"/>
</g>
<!-- Node9 -->
<g id="node9" class="node">
<title>Node9</title>
<g id="a_node9"><a xlink:title=" ">
<polygon fill="white" stroke="#bfbfbf" points="688,-6 688,-25 748,-25 748,-6 688,-6"/>
<text text-anchor="middle" x="718" y="-13" font-family="Helvetica,sans-Serif" font-size="10.00">iostream</text>
</a>
</g>
</g>
<!-- Node7&#45;&gt;Node9 -->
<g id="edge8" class="edge">
<title>Node7&#45;&gt;Node9</title>
<path fill="none" stroke="midnightblue" d="M724.26,-67.4C723.1,-57.96 721.56,-45.45 720.3,-35.19"/>
<polygon fill="midnightblue" stroke="midnightblue" points="723.77,-34.69 719.07,-25.19 716.82,-35.55 723.77,-34.69"/>
</g>
<!-- Node22 -->
<g id="node22" class="node">
<title>Node22</title>
<g id="a_node22"><a xlink:href="iterator__concepts_8hpp.html" target="_top" xlink:title=" ">
<polygon fill="white" stroke="black" points="305,-279.5 305,-320.5 437,-320.5 437,-279.5 305,-279.5"/>
<text text-anchor="start" x="313" y="-308.5" font-family="Helvetica,sans-Serif" font-size="10.00">packages/compile_time</text>
<text text-anchor="start" x="313" y="-297.5" font-family="Helvetica,sans-Serif" font-size="10.00">/packages/concepts/inc</text>
<text text-anchor="middle" x="371" y="-286.5" font-family="Helvetica,sans-Serif" font-size="10.00">/iterator_concepts.hpp</text>
</a>
</g>
</g>
<!-- Node21&#45;&gt;Node22 -->
<g id="edge22" class="edge">
<title>Node21&#45;&gt;Node22</title>
<path fill="none" stroke="midnightblue" d="M419.26,-357.43C411.68,-348.56 402.59,-337.93 394.35,-328.3"/>
<polygon fill="midnightblue" stroke="midnightblue" points="396.84,-325.83 387.68,-320.51 391.52,-330.38 396.84,-325.83"/>
</g>
<!-- Node22&#45;&gt;Node3 -->
<g id="edge31" class="edge">
<title>Node22&#45;&gt;Node3</title>
<path fill="none" stroke="midnightblue" d="M304.65,-288.43C218.02,-274.39 76.22,-250.48 67,-243 44.37,-224.64 35.08,-190.6 31.37,-169.32"/>
<polygon fill="midnightblue" stroke="midnightblue" points="34.8,-168.63 29.86,-159.26 27.88,-169.67 34.8,-168.63"/>
</g>
<!-- Node22&#45;&gt;Node5 -->
<g id="edge23" class="edge">
<title>Node22&#45;&gt;Node5</title>
<path fill="none" stroke="midnightblue" d="M416.07,-279.43C439.13,-269.41 467.39,-257.14 491.66,-246.6"/>
<polygon fill="midnightblue" stroke="midnightblue" points="493.31,-249.7 501.09,-242.51 490.52,-243.28 493.31,-249.7"/>
</g>
<!-- Node23 -->
<g id="node23" class="node">
<title>Node23</title>
<g id="a_node23"><a xlink:href="Size_8hpp.html" target="_top" xlink:title=" ">
<polygon fill="white" stroke="black" points="242,-201.5 242,-242.5 390,-242.5 390,-201.5 242,-201.5"/>
<text text-anchor="start" x="250" y="-230.5" font-family="Helvetica,sans-Serif" font-size="10.00">packages/compile_time</text>
<text text-anchor="start" x="250" y="-219.5" font-family="Helvetica,sans-Serif" font-size="10.00">/packages/parameter_pack</text>
<text text-anchor="middle" x="316" y="-208.5" font-family="Helvetica,sans-Serif" font-size="10.00">/inc/Size.hpp</text>
</a>
</g>
</g>
<!-- Node22&#45;&gt;Node23 -->
<g id="edge24" class="edge">
<title>Node22&#45;&gt;Node23</title>
<path fill="none" stroke="midnightblue" d="M356.84,-279.43C350.55,-270.74 343.03,-260.36 336.18,-250.88"/>
<polygon fill="midnightblue" stroke="midnightblue" points="338.81,-248.55 330.12,-242.51 333.14,-252.66 338.81,-248.55"/>
</g>
<!-- Node24 -->
<g id="node24" class="node">
<title>Node24</title>
<g id="a_node24"><a xlink:href="Select_8hpp.html" target="_top" xlink:title=" ">
<polygon fill="white" stroke="black" points="76,-201.5 76,-242.5 224,-242.5 224,-201.5 76,-201.5"/>
<text text-anchor="start" x="84" y="-230.5" font-family="Helvetica,sans-Serif" font-size="10.00">packages/compile_time</text>
<text text-anchor="start" x="84" y="-219.5" font-family="Helvetica,sans-Serif" font-size="10.00">/packages/parameter_pack</text>
<text text-anchor="middle" x="150" y="-208.5" font-family="Helvetica,sans-Serif" font-size="10.00">/inc/Select.hpp</text>
</a>
</g>
</g>
<!-- Node22&#45;&gt;Node24 -->
<g id="edge26" class="edge">
<title>Node22&#45;&gt;Node24</title>
<path fill="none" stroke="midnightblue" d="M314.09,-279.43C284.18,-269.14 247.37,-256.49 216.2,-245.77"/>
<polygon fill="midnightblue" stroke="midnightblue" points="217.31,-242.45 206.72,-242.51 215.04,-249.07 217.31,-242.45"/>
</g>
<!-- Node26 -->
<g id="node26" class="node">
<title>Node26</title>
<g id="a_node26"><a xlink:title=" ">
<polygon fill="white" stroke="#bfbfbf" points="408.5,-212.5 408.5,-231.5 461.5,-231.5 461.5,-212.5 408.5,-212.5"/>
<text text-anchor="middle" x="435" y="-219.5" font-family="Helvetica,sans-Serif" font-size="10.00">iterator</text>
</a>
</g>
</g>
<!-- Node22&#45;&gt;Node26 -->
<g id="edge30" class="edge">
<title>Node22&#45;&gt;Node26</title>
<path fill="none" stroke="midnightblue" d="M387.48,-279.43C397.97,-266.97 411.4,-251.03 421.3,-239.27"/>
<polygon fill="midnightblue" stroke="midnightblue" points="424.03,-241.46 427.8,-231.55 418.68,-236.95 424.03,-241.46"/>
</g>
<!-- Node23&#45;&gt;Node6 -->
<g id="edge25" class="edge">
<title>Node23&#45;&gt;Node6</title>
<path fill="none" stroke="midnightblue" d="M352.77,-201.36C371.43,-191.39 394.01,-179.34 412.49,-169.47"/>
<polygon fill="midnightblue" stroke="midnightblue" points="414.3,-172.47 421.47,-164.67 411,-166.29 414.3,-172.47"/>
</g>
<!-- Node24&#45;&gt;Node6 -->
<g id="edge27" class="edge">
<title>Node24&#45;&gt;Node6</title>
<path fill="none" stroke="midnightblue" d="M224.21,-203.1C227.18,-202.39 230.12,-201.69 233,-201 283.24,-189.05 340.14,-175.69 382.78,-165.72"/>
<polygon fill="midnightblue" stroke="midnightblue" points="383.8,-169.07 392.74,-163.39 382.21,-162.26 383.8,-169.07"/>
</g>
<!-- Node24&#45;&gt;Node12 -->
<g id="edge28" class="edge">
<title>Node24&#45;&gt;Node12</title>
<path fill="none" stroke="midnightblue" d="M152.21,-201.38C154.73,-183.33 159.74,-156.1 169,-134 174.03,-122 181.96,-109.74 188.78,-100.32"/>
<polygon fill="midnightblue" stroke="midnightblue" points="191.64,-102.34 194.85,-92.24 186.04,-98.13 191.64,-102.34"/>
</g>
<!-- Node25 -->
<g id="node25" class="node">
<title>Node25</title>
<g id="a_node25"><a xlink:title=" ">
<polygon fill="white" stroke="#bfbfbf" points="178.5,-140 178.5,-159 219.5,-159 219.5,-140 178.5,-140"/>
<text text-anchor="middle" x="199" y="-147" font-family="Helvetica,sans-Serif" font-size="10.00">tuple</text>
</a>
</g>
</g>
<!-- Node24&#45;&gt;Node25 -->
<g id="edge29" class="edge">
<title>Node24&#45;&gt;Node25</title>
<path fill="none" stroke="midnightblue" d="M163.65,-201.36C171.02,-190.76 180.03,-177.79 187.12,-167.6"/>
<polygon fill="midnightblue" stroke="midnightblue" points="190.14,-169.38 192.97,-159.17 184.39,-165.39 190.14,-169.38"/>
</g>
<!-- Node27&#45;&gt;Node8 -->
<g id="edge45" class="edge">
<title>Node27&#45;&gt;Node8</title>
<path fill="none" stroke="midnightblue" d="M726.49,-362.99C770.01,-349.46 829.46,-329.78 837,-321 865.91,-287.35 856,-267.37 856,-223 856,-223 856,-223 856,-148.5 856,-109.87 843.63,-66.44 834.78,-40.29"/>
<polygon fill="midnightblue" stroke="midnightblue" points="837.97,-38.8 831.36,-30.52 831.36,-41.12 837.97,-38.8"/>
</g>
<!-- Node27&#45;&gt;Node19 -->
<g id="edge49" class="edge">
<title>Node27&#45;&gt;Node19</title>
<path fill="none" stroke="midnightblue" d="M681.97,-362.82C684.85,-343.55 690.88,-308.17 700,-279 704.12,-265.84 710.26,-251.56 715.3,-240.72"/>
<polygon fill="midnightblue" stroke="midnightblue" points="718.55,-242.05 719.7,-231.52 712.23,-239.04 718.55,-242.05"/>
</g>
<!-- Node28 -->
<g id="node28" class="node">
<title>Node28</title>
<g id="a_node28"><a xlink:href="exception_8hpp.html" target="_top" xlink:title=" ">
<polygon fill="white" stroke="black" points="884.5,-207 884.5,-237 1003.5,-237 1003.5,-207 884.5,-207"/>
<text text-anchor="start" x="892.5" y="-225" font-family="Helvetica,sans-Serif" font-size="10.00">packages/exceptions</text>
<text text-anchor="middle" x="944" y="-214" font-family="Helvetica,sans-Serif" font-size="10.00">/inc/exception.hpp</text>
</a>
</g>
</g>
<!-- Node27&#45;&gt;Node28 -->
<g id="edge33" class="edge">
<title>Node27&#45;&gt;Node28</title>
<path fill="none" stroke="midnightblue" d="M728.43,-362.92C784.22,-346.68 868.49,-322.05 870,-321 897.92,-301.68 919.74,-268.47 932.24,-246.13"/>
<polygon fill="midnightblue" stroke="midnightblue" points="935.34,-247.76 937.02,-237.3 929.19,-244.43 935.34,-247.76"/>
</g>
<!-- Node32 -->
<g id="node32" class="node">
<title>Node32</title>
<g id="a_node32"><a xlink:href="exceptions_8hpp.html" target="_top" xlink:title=" ">
<polygon fill="white" stroke="black" points="708.5,-285 708.5,-315 827.5,-315 827.5,-285 708.5,-285"/>
<text text-anchor="start" x="716.5" y="-303" font-family="Helvetica,sans-Serif" font-size="10.00">packages/macros/inc</text>
<text text-anchor="middle" x="768" y="-292" font-family="Helvetica,sans-Serif" font-size="10.00">/exceptions.hpp</text>
</a>
</g>
</g>
<!-- Node27&#45;&gt;Node32 -->
<g id="edge40" class="edge">
<title>Node27&#45;&gt;Node32</title>
<path fill="none" stroke="midnightblue" d="M696.55,-362.7C709.83,-351.24 728.65,-334.98 743.65,-322.03"/>
<polygon fill="midnightblue" stroke="midnightblue" points="746.24,-324.42 751.52,-315.23 741.67,-319.12 746.24,-324.42"/>
</g>
<!-- Node33 -->
<g id="node33" class="node">
<title>Node33</title>
<g id="a_node33"><a xlink:href="cmake__variables_8hpp.html" target="_top" xlink:title=" ">
<polygon fill="white" stroke="black" points="1059,-290.5 1059,-309.5 1179,-309.5 1179,-290.5 1059,-290.5"/>
<text text-anchor="middle" x="1119" y="-297.5" font-family="Helvetica,sans-Serif" font-size="10.00">cmake_variables.hpp</text>
</a>
</g>
</g>
<!-- Node27&#45;&gt;Node33 -->
<g id="edge46" class="edge">
<title>Node27&#45;&gt;Node33</title>
<path fill="none" stroke="midnightblue" d="M725.43,-362.91C733.25,-360.75 741.33,-358.69 749,-357 852.33,-334.31 973.91,-317.83 1048.72,-308.84"/>
<polygon fill="midnightblue" stroke="midnightblue" points="1049.44,-312.27 1058.96,-307.62 1048.61,-305.32 1049.44,-312.27"/>
</g>
<!-- Node28&#45;&gt;Node3 -->
<g id="edge38" class="edge">
<title>Node28&#45;&gt;Node3</title>
<path fill="none" stroke="midnightblue" d="M884.32,-213.74C848.58,-209.58 802.24,-204.51 761,-201 498.35,-178.67 431.71,-186.58 169,-165 134.99,-162.21 96.42,-158.14 68.39,-155.03"/>
<polygon fill="midnightblue" stroke="midnightblue" points="68.52,-151.52 58.19,-153.89 67.74,-158.48 68.52,-151.52"/>
</g>
<!-- Node28&#45;&gt;Node6 -->
<g id="edge34" class="edge">
<title>Node28&#45;&gt;Node6</title>
<path fill="none" stroke="midnightblue" d="M884.37,-213.97C787.28,-202.42 598.12,-179.41 513.16,-165.07"/>
<polygon fill="midnightblue" stroke="midnightblue" points="513.54,-161.59 503.09,-163.33 512.35,-168.48 513.54,-161.59"/>
</g>
<!-- Node28&#45;&gt;Node11 -->
<g id="edge36" class="edge">
<title>Node28&#45;&gt;Node11</title>
<path fill="none" stroke="midnightblue" d="M934.45,-206.95C927.53,-196.02 918.62,-180.2 914,-165 907.69,-144.22 906.06,-119.22 905.77,-102.44"/>
<polygon fill="midnightblue" stroke="midnightblue" points="909.27,-102.27 905.75,-92.28 902.27,-102.29 909.27,-102.27"/>
</g>
<!-- Node29 -->
<g id="node29" class="node">
<title>Node29</title>
<g id="a_node29"><a xlink:title=" ">
<polygon fill="white" stroke="#bfbfbf" points="922.5,-140 922.5,-159 987.5,-159 987.5,-140 922.5,-140"/>
<text text-anchor="middle" x="955" y="-147" font-family="Helvetica,sans-Serif" font-size="10.00">stdexcept</text>
</a>
</g>
</g>
<!-- Node28&#45;&gt;Node29 -->
<g id="edge35" class="edge">
<title>Node28&#45;&gt;Node29</title>
<path fill="none" stroke="midnightblue" d="M946.23,-206.73C947.9,-196 950.21,-181.19 952.04,-169.46"/>
<polygon fill="midnightblue" stroke="midnightblue" points="955.53,-169.81 953.61,-159.39 948.61,-168.73 955.53,-169.81"/>
</g>
<!-- Node30 -->
<g id="node30" class="node">
<title>Node30</title>
<g id="a_node30"><a xlink:title=" ">
<polygon fill="white" stroke="#bfbfbf" points="1005.5,-140 1005.5,-159 1052.5,-159 1052.5,-140 1005.5,-140"/>
<text text-anchor="middle" x="1029" y="-147" font-family="Helvetica,sans-Serif" font-size="10.00">deque</text>
</a>
</g>
</g>
<!-- Node28&#45;&gt;Node30 -->
<g id="edge37" class="edge">
<title>Node28&#45;&gt;Node30</title>
<path fill="none" stroke="midnightblue" d="M961.2,-206.73C975.48,-194.89 995.74,-178.09 1010.39,-165.94"/>
<polygon fill="midnightblue" stroke="midnightblue" points="1012.82,-168.47 1018.28,-159.39 1008.35,-163.08 1012.82,-168.47"/>
</g>
<!-- Node31 -->
<g id="node31" class="node">
<title>Node31</title>
<g id="a_node31"><a xlink:title=" ">
<polygon fill="white" stroke="#bfbfbf" points="1071,-134.5 1071,-164.5 1217,-164.5 1217,-134.5 1071,-134.5"/>
<text text-anchor="start" x="1079" y="-152.5" font-family="Helvetica,sans-Serif" font-size="10.00">packages/exceptions</text>
<text text-anchor="middle" x="1144" y="-141.5" font-family="Helvetica,sans-Serif" font-size="10.00">/impl/exceptions_impl.hpp</text>
</a>
</g>
</g>
<!-- Node28&#45;&gt;Node31 -->
<g id="edge39" class="edge">
<title>Node28&#45;&gt;Node31</title>
<path fill="none" stroke="midnightblue" d="M983.99,-206.9C1015.74,-195.71 1060.29,-180.01 1094.33,-168.01"/>
<polygon fill="midnightblue" stroke="midnightblue" points="1095.81,-171.2 1104.08,-164.57 1093.48,-164.6 1095.81,-171.2"/>
</g>
<!-- Node32&#45;&gt;Node8 -->
<g id="edge42" class="edge">
<title>Node32&#45;&gt;Node8</title>
<path fill="none" stroke="midnightblue" d="M770.88,-284.99C780.15,-239.81 809.36,-97.56 821.07,-40.51"/>
<polygon fill="midnightblue" stroke="midnightblue" points="824.52,-41.09 823.11,-30.59 817.67,-39.69 824.52,-41.09"/>
</g>
<!-- Node32&#45;&gt;Node16 -->
<g id="edge44" class="edge">
<title>Node32&#45;&gt;Node16</title>
<path fill="none" stroke="midnightblue" d="M769.49,-284.82C770.99,-265.26 771.76,-229.21 761,-201 756.05,-188.03 746.61,-175.66 738.25,-166.41"/>
<polygon fill="midnightblue" stroke="midnightblue" points="740.76,-163.97 731.33,-159.14 735.69,-168.8 740.76,-163.97"/>
</g>
<!-- Node32&#45;&gt;Node19 -->
<g id="edge43" class="edge">
<title>Node32&#45;&gt;Node19</title>
<path fill="none" stroke="midnightblue" d="M759.72,-284.7C752.43,-272.11 741.79,-253.73 734.02,-240.31"/>
<polygon fill="midnightblue" stroke="midnightblue" points="737,-238.46 728.96,-231.56 730.94,-241.97 737,-238.46"/>
</g>
<!-- Node32&#45;&gt;Node28 -->
<g id="edge41" class="edge">
<title>Node32&#45;&gt;Node28</title>
<path fill="none" stroke="midnightblue" d="M800.69,-284.88C829.34,-272.51 871.14,-254.46 902.21,-241.04"/>
<polygon fill="midnightblue" stroke="midnightblue" points="903.69,-244.22 911.48,-237.04 900.92,-237.79 903.69,-244.22"/>
</g>
<!-- Node33&#45;&gt;Node11 -->
<g id="edge48" class="edge">
<title>Node33&#45;&gt;Node11</title>
<path fill="none" stroke="midnightblue" d="M1132.36,-290.39C1170.25,-264.98 1272.69,-188.64 1226,-134 1189.17,-90.9 1011.92,-84.37 938.23,-83.53"/>
<polygon fill="midnightblue" stroke="midnightblue" points="938.17,-80.03 928.14,-83.45 938.11,-87.03 938.17,-80.03"/>
</g>
<!-- Node34 -->
<g id="node34" class="node">
<title>Node34</title>
<g id="a_node34"><a xlink:title=" ">
<polygon fill="white" stroke="#bfbfbf" points="1085,-212.5 1085,-231.5 1153,-231.5 1153,-212.5 1085,-212.5"/>
<text text-anchor="middle" x="1119" y="-219.5" font-family="Helvetica,sans-Serif" font-size="10.00">filesystem</text>
</a>
</g>
</g>
<!-- Node33&#45;&gt;Node34 -->
<g id="edge47" class="edge">
<title>Node33&#45;&gt;Node34</title>
<path fill="none" stroke="midnightblue" d="M1119,-290.28C1119,-278.49 1119,-257.13 1119,-241.64"/>
<polygon fill="midnightblue" stroke="midnightblue" points="1122.5,-241.62 1119,-231.62 1115.5,-241.62 1122.5,-241.62"/>
</g>
</g>
</svg>
        <g id="navigator" transform="translate(0 0)" fill="#404254">
                <rect fill="#f2f5e9" fill-opacity="0.5" stroke="#606060" stroke-width=".5" x="0" y="0" width="60" height="60"/>
                <use id="zoomplus" xlink:href="#zoomPlus" x="17" y="9" onmousedown="handleZoom(evt,'in')"/>
                <use id="zoomminus" xlink:href="#zoomMin" x="42" y="9" onmousedown="handleZoom(evt,'out')"/>
                <use id="reset" xlink:href="#resetDef" x="30" y="36" onmousedown="handleReset()"/>
                <g id="arrowUp" xlink:href="#dirArrow" transform="translate(30 24)" onmousedown="handlePan(0,-1)">
                  <use xlink:href="#rim" fill="#404040">
                        <set attributeName="fill" to="#808080" begin="arrowUp.mouseover" end="arrowUp.mouseout"/>
                  </use>
                  <path fill="none" stroke="white" stroke-width="1.5" d="M0,-3.0v7 M-2.5,-0.5L0,-3.0L2.5,-0.5"/>
                </g>
                <g id="arrowRight" xlink:href="#dirArrow" transform="rotate(90) translate(36 -43)" onmousedown="handlePan(1,0)">
                  <use xlink:href="#rim" fill="#404040">
                        <set attributeName="fill" to="#808080" begin="arrowRight.mouseover" end="arrowRight.mouseout"/>
                  </use>
                  <path fill="none" stroke="white" stroke-width="1.5" d="M0,-3.0v7 M-2.5,-0.5L0,-3.0L2.5,-0.5"/>
                </g>
                <g id="arrowDown" xlink:href="#dirArrow" transform="rotate(180) translate(-30 -48)" onmousedown="handlePan(0,1)">
                  <use xlink:href="#rim" fill="#404040">
                        <set attributeName="fill" to="#808080" begin="arrowDown.mouseover" end="arrowDown.mouseout"/>
                  </use>
                  <path fill="none" stroke="white" stroke-width="1.5" d="M0,-3.0v7 M-2.5,-0.5L0,-3.0L2.5,-0.5"/>
                </g>
                <g id="arrowLeft" xlink:href="#dirArrow" transform="rotate(270) translate(-36 17)" onmousedown="handlePan(-1,0)">
                  <use xlink:href="#rim" fill="#404040">
                        <set attributeName="fill" to="#808080" begin="arrowLeft.mouseover" end="arrowLeft.mouseout"/>
                  </use>
                  <path fill="none" stroke="white" stroke-width="1.5" d="M0,-3.0v7 M-2.5,-0.5L0,-3.0L2.5,-0.5"/>
                </g>
        </g>
        <svg viewBox="0 0 15 15" width="100%" height="30px" preserveAspectRatio="xMaxYMin meet">
         <g id="arrow_out" transform="scale(0.3 0.3)">
          <a xlink:href="OutputStream_8hpp__incl_org.svg" target="_base">
           <rect id="button" ry="5" rx="5" y="6" x="6" height="38" width="38"
                fill="#f2f5e9" fill-opacity="0.5" stroke="#606060" stroke-width="1.0"/>
           <path id="arrow"
             d="M 11.500037,31.436501 C 11.940474,20.09759 22.043105,11.32322 32.158766,21.979434 L 37.068811,17.246167 C 37.068811,17.246167 37.088388,32 37.088388,32 L 22.160133,31.978069 C 22.160133,31.978069 26.997745,27.140456 26.997745,27.140456 C 18.528582,18.264221 13.291696,25.230495 11.500037,31.436501 z"
             style="fill:#404040;"/>
          </a>
         </g>
        </svg>
</svg>
