<?xml version="1.0" encoding="UTF-8" standalone="no"?>
<!DOCTYPE svg PUBLIC "-//W3C//DTD SVG 1.1//EN"
 "http://www.w3.org/Graphics/SVG/1.1/DTD/svg11.dtd">
<!-- Generated by graphviz version 2.43.0 (0)
 -->
<!-- Title: power.hpp Pages: 1 -->
<svg width="863pt" height="307pt"
 viewBox="0.00 0.00 863.00 307.00" xmlns="http://www.w3.org/2000/svg" xmlns:xlink="http://www.w3.org/1999/xlink">
<g id="graph0" class="graph" transform="scale(1 1) rotate(0) translate(4 303)">
<title>power.hpp</title>
<polygon fill="white" stroke="transparent" points="-4,4 -4,-303 859,-303 859,4 -4,4"/>
<!-- Node1 -->
<g id="node1" class="node">
<title>Node1</title>
<g id="a_node1"><a xlink:title=" ">
<polygon fill="#bfbfbf" stroke="black" points="688,-279.5 688,-298.5 755,-298.5 755,-279.5 688,-279.5"/>
<text text-anchor="middle" x="721.5" y="-286.5" font-family="Helvetica,sans-Serif" font-size="10.00">power.hpp</text>
</a>
</g>
</g>
<!-- Node2 -->
<g id="node2" class="node">
<title>Node2</title>
<g id="a_node2"><a xlink:href="basic__concepts_8hpp.html" target="_top" xlink:title=" ">
<polygon fill="white" stroke="black" points="583.5,-201.5 583.5,-242.5 715.5,-242.5 715.5,-201.5 583.5,-201.5"/>
<text text-anchor="start" x="591.5" y="-230.5" font-family="Helvetica,sans-Serif" font-size="10.00">packages/compile_time</text>
<text text-anchor="start" x="591.5" y="-219.5" font-family="Helvetica,sans-Serif" font-size="10.00">/packages/concepts/inc</text>
<text text-anchor="middle" x="649.5" y="-208.5" font-family="Helvetica,sans-Serif" font-size="10.00">/basic_concepts.hpp</text>
</a>
</g>
</g>
<!-- Node1&#45;&gt;Node2 -->
<g id="edge1" class="edge">
<title>Node1&#45;&gt;Node2</title>
<path fill="none" stroke="midnightblue" d="M711.79,-279.23C703.29,-271.56 690.49,-260 678.69,-249.36"/>
<polygon fill="midnightblue" stroke="midnightblue" points="680.91,-246.65 671.15,-242.54 676.22,-251.84 680.91,-246.65"/>
</g>
<!-- Node16 -->
<g id="node16" class="node">
<title>Node16</title>
<g id="a_node16"><a xlink:title=" ">
<polygon fill="white" stroke="#bfbfbf" points="734,-207 734,-237 855,-237 855,-207 734,-207"/>
<text text-anchor="start" x="742" y="-225" font-family="Helvetica,sans-Serif" font-size="10.00">packages/maths/impl</text>
<text text-anchor="middle" x="794.5" y="-214" font-family="Helvetica,sans-Serif" font-size="10.00">/power_impl.hpp</text>
</a>
</g>
</g>
<!-- Node1&#45;&gt;Node16 -->
<g id="edge16" class="edge">
<title>Node1&#45;&gt;Node16</title>
<path fill="none" stroke="midnightblue" d="M731.35,-279.23C741.5,-270.2 757.69,-255.77 771.14,-243.8"/>
<polygon fill="midnightblue" stroke="midnightblue" points="773.54,-246.35 778.68,-237.09 768.88,-241.13 773.54,-246.35"/>
</g>
<!-- Node3 -->
<g id="node3" class="node">
<title>Node3</title>
<g id="a_node3"><a xlink:href="types_8hpp.html" target="_top" xlink:title=" ">
<polygon fill="white" stroke="black" points="345.5,-134.5 345.5,-164.5 455.5,-164.5 455.5,-134.5 345.5,-134.5"/>
<text text-anchor="start" x="353.5" y="-152.5" font-family="Helvetica,sans-Serif" font-size="10.00">packages/types/inc</text>
<text text-anchor="middle" x="400.5" y="-141.5" font-family="Helvetica,sans-Serif" font-size="10.00">/types.hpp</text>
</a>
</g>
</g>
<!-- Node2&#45;&gt;Node3 -->
<g id="edge2" class="edge">
<title>Node2&#45;&gt;Node3</title>
<path fill="none" stroke="midnightblue" d="M583.43,-202.29C545.07,-191.43 497.15,-177.86 459.98,-167.34"/>
<polygon fill="midnightblue" stroke="midnightblue" points="460.86,-163.95 450.28,-164.6 458.95,-170.69 460.86,-163.95"/>
</g>
<!-- Node9 -->
<g id="node9" class="node">
<title>Node9</title>
<g id="a_node9"><a xlink:title=" ">
<polygon fill="white" stroke="#bfbfbf" points="665,-73 665,-92 734,-92 734,-73 665,-73"/>
<text text-anchor="middle" x="699.5" y="-80" font-family="Helvetica,sans-Serif" font-size="10.00">type_traits</text>
</a>
</g>
</g>
<!-- Node2&#45;&gt;Node9 -->
<g id="edge13" class="edge">
<title>Node2&#45;&gt;Node9</title>
<path fill="none" stroke="midnightblue" d="M630.05,-201.41C614.61,-183.39 597.59,-156.17 610.5,-134 617.22,-122.46 646.72,-107.07 669.94,-96.32"/>
<polygon fill="midnightblue" stroke="midnightblue" points="671.45,-99.48 679.11,-92.16 668.56,-93.11 671.45,-99.48"/>
</g>
<!-- Node13 -->
<g id="node13" class="node">
<title>Node13</title>
<g id="a_node13"><a xlink:title=" ">
<polygon fill="white" stroke="#bfbfbf" points="619.5,-140 619.5,-159 679.5,-159 679.5,-140 619.5,-140"/>
<text text-anchor="middle" x="649.5" y="-147" font-family="Helvetica,sans-Serif" font-size="10.00">concepts</text>
</a>
</g>
</g>
<!-- Node2&#45;&gt;Node13 -->
<g id="edge12" class="edge">
<title>Node2&#45;&gt;Node13</title>
<path fill="none" stroke="midnightblue" d="M649.5,-201.36C649.5,-191.3 649.5,-179.1 649.5,-169.18"/>
<polygon fill="midnightblue" stroke="midnightblue" points="653,-169.17 649.5,-159.17 646,-169.17 653,-169.17"/>
</g>
<!-- Node14 -->
<g id="node14" class="node">
<title>Node14</title>
<g id="a_node14"><a xlink:title=" ">
<polygon fill="white" stroke="#bfbfbf" points="697.5,-140 697.5,-159 747.5,-159 747.5,-140 697.5,-140"/>
<text text-anchor="middle" x="722.5" y="-147" font-family="Helvetica,sans-Serif" font-size="10.00">cstdint</text>
</a>
</g>
</g>
<!-- Node2&#45;&gt;Node14 -->
<g id="edge14" class="edge">
<title>Node2&#45;&gt;Node14</title>
<path fill="none" stroke="midnightblue" d="M669.83,-201.36C681.26,-190.32 695.35,-176.72 706.07,-166.37"/>
<polygon fill="midnightblue" stroke="midnightblue" points="708.76,-168.64 713.52,-159.17 703.89,-163.6 708.76,-168.64"/>
</g>
<!-- Node15 -->
<g id="node15" class="node">
<title>Node15</title>
<g id="a_node15"><a xlink:title=" ">
<polygon fill="white" stroke="#bfbfbf" points="766,-140 766,-159 811,-159 811,-140 766,-140"/>
<text text-anchor="middle" x="788.5" y="-147" font-family="Helvetica,sans-Serif" font-size="10.00">utility</text>
</a>
</g>
</g>
<!-- Node2&#45;&gt;Node15 -->
<g id="edge15" class="edge">
<title>Node2&#45;&gt;Node15</title>
<path fill="none" stroke="midnightblue" d="M688.22,-201.36C711.9,-189.35 741.57,-174.3 762.47,-163.7"/>
<polygon fill="midnightblue" stroke="midnightblue" points="764.06,-166.82 771.4,-159.17 760.9,-160.58 764.06,-166.82"/>
</g>
<!-- Node4 -->
<g id="node4" class="node">
<title>Node4</title>
<g id="a_node4"><a xlink:href="debug_8hpp.html" target="_top" xlink:title=" ">
<polygon fill="white" stroke="black" points="54,-67.5 54,-97.5 173,-97.5 173,-67.5 54,-67.5"/>
<text text-anchor="start" x="62" y="-85.5" font-family="Helvetica,sans-Serif" font-size="10.00">packages/macros/inc</text>
<text text-anchor="middle" x="113.5" y="-74.5" font-family="Helvetica,sans-Serif" font-size="10.00">/debug.hpp</text>
</a>
</g>
</g>
<!-- Node3&#45;&gt;Node4 -->
<g id="edge3" class="edge">
<title>Node3&#45;&gt;Node4</title>
<path fill="none" stroke="midnightblue" d="M345.16,-135.97C298.99,-125.51 232.93,-110.55 183.16,-99.28"/>
<polygon fill="midnightblue" stroke="midnightblue" points="183.65,-95.8 173.12,-97 182.1,-102.63 183.65,-95.8"/>
</g>
<!-- Node7 -->
<g id="node7" class="node">
<title>Node7</title>
<g id="a_node7"><a xlink:title=" ">
<polygon fill="white" stroke="#bfbfbf" points="191,-73 191,-92 244,-92 244,-73 191,-73"/>
<text text-anchor="middle" x="217.5" y="-80" font-family="Helvetica,sans-Serif" font-size="10.00">cstddef</text>
</a>
</g>
</g>
<!-- Node3&#45;&gt;Node7 -->
<g id="edge6" class="edge">
<title>Node3&#45;&gt;Node7</title>
<path fill="none" stroke="midnightblue" d="M357.84,-134.5C328.38,-124.67 288.39,-111.01 253.5,-98 251.65,-97.31 249.76,-96.59 247.85,-95.85"/>
<polygon fill="midnightblue" stroke="midnightblue" points="248.96,-92.53 238.37,-92.12 246.39,-99.04 248.96,-92.53"/>
</g>
<!-- Node8 -->
<g id="node8" class="node">
<title>Node8</title>
<g id="a_node8"><a xlink:title=" ">
<polygon fill="white" stroke="#bfbfbf" points="262.5,-73 262.5,-92 306.5,-92 306.5,-73 262.5,-73"/>
<text text-anchor="middle" x="284.5" y="-80" font-family="Helvetica,sans-Serif" font-size="10.00">string</text>
</a>
</g>
</g>
<!-- Node3&#45;&gt;Node8 -->
<g id="edge7" class="edge">
<title>Node3&#45;&gt;Node8</title>
<path fill="none" stroke="midnightblue" d="M375.33,-134.4C355.52,-123.29 328.08,-107.92 308.56,-96.98"/>
<polygon fill="midnightblue" stroke="midnightblue" points="310.12,-93.84 299.68,-92.01 306.69,-99.95 310.12,-93.84"/>
</g>
<!-- Node3&#45;&gt;Node9 -->
<g id="edge8" class="edge">
<title>Node3&#45;&gt;Node9</title>
<path fill="none" stroke="midnightblue" d="M455.91,-139.72C508.08,-130.95 588.21,-116.17 656.5,-98 659.7,-97.15 663,-96.19 666.3,-95.17"/>
<polygon fill="midnightblue" stroke="midnightblue" points="667.57,-98.44 676.01,-92.04 665.42,-91.78 667.57,-98.44"/>
</g>
<!-- Node10 -->
<g id="node10" class="node">
<title>Node10</title>
<g id="a_node10"><a xlink:title=" ">
<polygon fill="white" stroke="#bfbfbf" points="324.5,-73 324.5,-92 374.5,-92 374.5,-73 324.5,-73"/>
<text text-anchor="middle" x="349.5" y="-80" font-family="Helvetica,sans-Serif" font-size="10.00">climits</text>
</a>
</g>
</g>
<!-- Node3&#45;&gt;Node10 -->
<g id="edge9" class="edge">
<title>Node3&#45;&gt;Node10</title>
<path fill="none" stroke="midnightblue" d="M389.43,-134.4C381.56,-124.36 370.95,-110.84 362.65,-100.25"/>
<polygon fill="midnightblue" stroke="midnightblue" points="365.25,-97.9 356.32,-92.19 359.74,-102.22 365.25,-97.9"/>
</g>
<!-- Node11 -->
<g id="node11" class="node">
<title>Node11</title>
<g id="a_node11"><a xlink:title=" ">
<polygon fill="white" stroke="#bfbfbf" points="393,-67.5 393,-97.5 510,-97.5 510,-67.5 393,-67.5"/>
<text text-anchor="start" x="401" y="-85.5" font-family="Helvetica,sans-Serif" font-size="10.00">packages/types/impl</text>
<text text-anchor="middle" x="451.5" y="-74.5" font-family="Helvetica,sans-Serif" font-size="10.00">/types_impl.hpp</text>
</a>
</g>
</g>
<!-- Node3&#45;&gt;Node11 -->
<g id="edge10" class="edge">
<title>Node3&#45;&gt;Node11</title>
<path fill="none" stroke="midnightblue" d="M411.57,-134.4C418.18,-125.96 426.73,-115.07 434.22,-105.52"/>
<polygon fill="midnightblue" stroke="midnightblue" points="437.04,-107.6 440.46,-97.58 431.53,-103.28 437.04,-107.6"/>
</g>
<!-- Node12 -->
<g id="node12" class="node">
<title>Node12</title>
<g id="a_node12"><a xlink:href="logging_8hpp.html" target="_top" xlink:title=" ">
<polygon fill="white" stroke="black" points="528,-67.5 528,-97.5 647,-97.5 647,-67.5 528,-67.5"/>
<text text-anchor="start" x="536" y="-85.5" font-family="Helvetica,sans-Serif" font-size="10.00">packages/macros/inc</text>
<text text-anchor="middle" x="587.5" y="-74.5" font-family="Helvetica,sans-Serif" font-size="10.00">/logging.hpp</text>
</a>
</g>
</g>
<!-- Node3&#45;&gt;Node12 -->
<g id="edge11" class="edge">
<title>Node3&#45;&gt;Node12</title>
<path fill="none" stroke="midnightblue" d="M441.08,-134.4C469.38,-124.56 507.33,-111.37 537.5,-100.88"/>
<polygon fill="midnightblue" stroke="midnightblue" points="538.71,-104.17 547,-97.58 536.41,-97.55 538.71,-104.17"/>
</g>
<!-- Node5 -->
<g id="node5" class="node">
<title>Node5</title>
<g id="a_node5"><a xlink:href="detail_8hpp.html" target="_top" xlink:title=" ">
<polygon fill="white" stroke="black" points="0,-0.5 0,-30.5 119,-30.5 119,-0.5 0,-0.5"/>
<text text-anchor="start" x="8" y="-18.5" font-family="Helvetica,sans-Serif" font-size="10.00">packages/macros/inc</text>
<text text-anchor="middle" x="59.5" y="-7.5" font-family="Helvetica,sans-Serif" font-size="10.00">/detail.hpp</text>
</a>
</g>
</g>
<!-- Node4&#45;&gt;Node5 -->
<g id="edge4" class="edge">
<title>Node4&#45;&gt;Node5</title>
<path fill="none" stroke="midnightblue" d="M101.78,-67.4C94.78,-58.96 85.73,-48.07 77.79,-38.52"/>
<polygon fill="midnightblue" stroke="midnightblue" points="80.28,-36.03 71.19,-30.58 74.89,-40.51 80.28,-36.03"/>
</g>
<!-- Node6 -->
<g id="node6" class="node">
<title>Node6</title>
<g id="a_node6"><a xlink:title=" ">
<polygon fill="white" stroke="#bfbfbf" points="137.5,-6 137.5,-25 197.5,-25 197.5,-6 137.5,-6"/>
<text text-anchor="middle" x="167.5" y="-13" font-family="Helvetica,sans-Serif" font-size="10.00">iostream</text>
</a>
</g>
</g>
<!-- Node4&#45;&gt;Node6 -->
<g id="edge5" class="edge">
<title>Node4&#45;&gt;Node6</title>
<path fill="none" stroke="midnightblue" d="M125.22,-67.4C133.64,-57.26 145.01,-43.57 153.84,-32.94"/>
<polygon fill="midnightblue" stroke="midnightblue" points="156.58,-35.12 160.28,-25.19 151.19,-30.65 156.58,-35.12"/>
</g>
</g>
</svg>
