<?xml version="1.0" encoding="UTF-8" standalone="no"?>
<!DOCTYPE svg PUBLIC "-//W3C//DTD SVG 1.1//EN"
 "http://www.w3.org/Graphics/SVG/1.1/DTD/svg11.dtd">
<!-- Generated by graphviz version 2.43.0 (0)
 -->
<!-- Title: Profiler.hpp Pages: 1 -->
<svg width="768pt" height="95pt"
 viewBox="0.00 0.00 767.50 95.00" xmlns="http://www.w3.org/2000/svg" xmlns:xlink="http://www.w3.org/1999/xlink">
<g id="graph0" class="graph" transform="scale(1 1) rotate(0) translate(4 91)">
<title>Profiler.hpp</title>
<polygon fill="white" stroke="transparent" points="-4,4 -4,-91 763.5,-91 763.5,4 -4,4"/>
<!-- Node1 -->
<g id="node1" class="node">
<title>Node1</title>
<g id="a_node1"><a xlink:title=" ">
<polygon fill="#bfbfbf" stroke="black" points="366,-67.5 366,-86.5 437,-86.5 437,-67.5 366,-67.5"/>
<text text-anchor="middle" x="401.5" y="-74.5" font-family="Helvetica,sans-Serif" font-size="10.00">Profiler.hpp</text>
</a>
</g>
</g>
<!-- Node2 -->
<g id="node2" class="node">
<title>Node2</title>
<g id="a_node2"><a xlink:title=" ">
<polygon fill="white" stroke="#bfbfbf" points="0,-6 0,-25 93,-25 93,-6 0,-6"/>
<text text-anchor="middle" x="46.5" y="-13" font-family="Helvetica,sans-Serif" font-size="10.00">unordered_map</text>
</a>
</g>
</g>
<!-- Node1&#45;&gt;Node2 -->
<g id="edge1" class="edge">
<title>Node1&#45;&gt;Node2</title>
<path fill="none" stroke="midnightblue" d="M365.85,-71.85C309.58,-65.03 196.88,-50.27 102.5,-31 97.46,-29.97 92.2,-28.78 87.01,-27.52"/>
<polygon fill="midnightblue" stroke="midnightblue" points="87.73,-24.09 77.18,-25.06 86.03,-30.88 87.73,-24.09"/>
</g>
<!-- Node3 -->
<g id="node3" class="node">
<title>Node3</title>
<g id="a_node3"><a xlink:title=" ">
<polygon fill="white" stroke="#bfbfbf" points="111.5,-6 111.5,-25 179.5,-25 179.5,-6 111.5,-6"/>
<text text-anchor="middle" x="145.5" y="-13" font-family="Helvetica,sans-Serif" font-size="10.00">filesystem</text>
</a>
</g>
</g>
<!-- Node1&#45;&gt;Node3 -->
<g id="edge2" class="edge">
<title>Node1&#45;&gt;Node3</title>
<path fill="none" stroke="midnightblue" d="M365.77,-69.77C323.21,-62.05 250.12,-47.84 188.5,-31 185.48,-30.18 182.36,-29.26 179.25,-28.3"/>
<polygon fill="midnightblue" stroke="midnightblue" points="180.05,-24.87 169.45,-25.13 177.89,-31.53 180.05,-24.87"/>
</g>
<!-- Node4 -->
<g id="node4" class="node">
<title>Node4</title>
<g id="a_node4"><a xlink:title=" ">
<polygon fill="white" stroke="#bfbfbf" points="198,-6 198,-25 291,-25 291,-6 198,-6"/>
<text text-anchor="middle" x="244.5" y="-13" font-family="Helvetica,sans-Serif" font-size="10.00">source_location</text>
</a>
</g>
</g>
<!-- Node1&#45;&gt;Node4 -->
<g id="edge3" class="edge">
<title>Node1&#45;&gt;Node4</title>
<path fill="none" stroke="midnightblue" d="M379.01,-67.48C352.19,-57.31 307.18,-40.26 276.69,-28.7"/>
<polygon fill="midnightblue" stroke="midnightblue" points="277.54,-25.28 266.95,-25.01 275.06,-31.83 277.54,-25.28"/>
</g>
<!-- Node5 -->
<g id="node5" class="node">
<title>Node5</title>
<g id="a_node5"><a xlink:title=" ">
<polygon fill="white" stroke="#bfbfbf" points="309.5,-6 309.5,-25 359.5,-25 359.5,-6 309.5,-6"/>
<text text-anchor="middle" x="334.5" y="-13" font-family="Helvetica,sans-Serif" font-size="10.00">chrono</text>
</a>
</g>
</g>
<!-- Node1&#45;&gt;Node5 -->
<g id="edge4" class="edge">
<title>Node1&#45;&gt;Node5</title>
<path fill="none" stroke="midnightblue" d="M391.9,-67.48C381.45,-58.2 364.53,-43.17 351.76,-31.83"/>
<polygon fill="midnightblue" stroke="midnightblue" points="353.88,-29.03 344.08,-25.01 349.23,-34.27 353.88,-29.03"/>
</g>
<!-- Node6 -->
<g id="node6" class="node">
<title>Node6</title>
<g id="a_node6"><a xlink:title=" ">
<polygon fill="white" stroke="#bfbfbf" points="377.5,-6 377.5,-25 425.5,-25 425.5,-6 377.5,-6"/>
<text text-anchor="middle" x="401.5" y="-13" font-family="Helvetica,sans-Serif" font-size="10.00">thread</text>
</a>
</g>
</g>
<!-- Node1&#45;&gt;Node6 -->
<g id="edge5" class="edge">
<title>Node1&#45;&gt;Node6</title>
<path fill="none" stroke="midnightblue" d="M401.5,-67.48C401.5,-59.08 401.5,-45.98 401.5,-35.16"/>
<polygon fill="midnightblue" stroke="midnightblue" points="405,-35.01 401.5,-25.01 398,-35.01 405,-35.01"/>
</g>
<!-- Node7 -->
<g id="node7" class="node">
<title>Node7</title>
<g id="a_node7"><a xlink:title=" ">
<polygon fill="white" stroke="#bfbfbf" points="443.5,-6 443.5,-25 499.5,-25 499.5,-6 443.5,-6"/>
<text text-anchor="middle" x="471.5" y="-13" font-family="Helvetica,sans-Serif" font-size="10.00">optional</text>
</a>
</g>
</g>
<!-- Node1&#45;&gt;Node7 -->
<g id="edge6" class="edge">
<title>Node1&#45;&gt;Node7</title>
<path fill="none" stroke="midnightblue" d="M411.53,-67.48C422.55,-58.11 440.46,-42.88 453.84,-31.51"/>
<polygon fill="midnightblue" stroke="midnightblue" points="456.14,-34.15 461.49,-25.01 451.6,-28.82 456.14,-34.15"/>
</g>
<!-- Node8 -->
<g id="node8" class="node">
<title>Node8</title>
<g id="a_node8"><a xlink:title=" ">
<polygon fill="white" stroke="#bfbfbf" points="517.5,-6 517.5,-25 549.5,-25 549.5,-6 517.5,-6"/>
<text text-anchor="middle" x="533.5" y="-13" font-family="Helvetica,sans-Serif" font-size="10.00">list</text>
</a>
</g>
</g>
<!-- Node1&#45;&gt;Node8 -->
<g id="edge7" class="edge">
<title>Node1&#45;&gt;Node8</title>
<path fill="none" stroke="midnightblue" d="M424.42,-67.34C446.35,-58.83 480.18,-45.1 508.5,-31 509.17,-30.66 509.85,-30.32 510.54,-29.96"/>
<polygon fill="midnightblue" stroke="midnightblue" points="512.31,-32.98 519.39,-25.1 508.94,-26.85 512.31,-32.98"/>
</g>
<!-- Node9 -->
<g id="node9" class="node">
<title>Node9</title>
<g id="a_node9"><a xlink:title=" ">
<polygon fill="white" stroke="#bfbfbf" points="567.5,-6 567.5,-25 615.5,-25 615.5,-6 567.5,-6"/>
<text text-anchor="middle" x="591.5" y="-13" font-family="Helvetica,sans-Serif" font-size="10.00">mutex</text>
</a>
</g>
</g>
<!-- Node1&#45;&gt;Node9 -->
<g id="edge8" class="edge">
<title>Node1&#45;&gt;Node9</title>
<path fill="none" stroke="midnightblue" d="M436.23,-67.48C468.33,-59.28 517.16,-45.93 558.5,-31 560.16,-30.4 561.85,-29.76 563.55,-29.09"/>
<polygon fill="midnightblue" stroke="midnightblue" points="565.3,-32.15 573.18,-25.07 562.6,-25.69 565.3,-32.15"/>
</g>
<!-- Node10 -->
<g id="node10" class="node">
<title>Node10</title>
<g id="a_node10"><a xlink:title=" ">
<polygon fill="white" stroke="#bfbfbf" points="633.5,-0.5 633.5,-30.5 759.5,-30.5 759.5,-0.5 633.5,-0.5"/>
<text text-anchor="start" x="641.5" y="-18.5" font-family="Helvetica,sans-Serif" font-size="10.00">packages/logging/impl</text>
<text text-anchor="middle" x="696.5" y="-7.5" font-family="Helvetica,sans-Serif" font-size="10.00">/Profiler_impl.hpp</text>
</a>
</g>
</g>
<!-- Node1&#45;&gt;Node10 -->
<g id="edge9" class="edge">
<title>Node1&#45;&gt;Node10</title>
<path fill="none" stroke="midnightblue" d="M437.08,-68.82C483.01,-59.56 564.04,-43.22 623.35,-31.25"/>
<polygon fill="midnightblue" stroke="midnightblue" points="624.3,-34.63 633.41,-29.22 622.92,-27.77 624.3,-34.63"/>
</g>
</g>
</svg>
