<?xml version="1.0" encoding="UTF-8" standalone="no"?>
<!DOCTYPE svg PUBLIC "-//W3C//DTD SVG 1.1//EN"
 "http://www.w3.org/Graphics/SVG/1.1/DTD/svg11.dtd">
<!-- Generated by graphviz version 2.43.0 (0)
 -->
<!-- Title: Profiler.hpp Pages: 1 -->
<svg width="768pt" height="93pt"
 viewBox="0.00 0.00 767.50 93.00" xmlns="http://www.w3.org/2000/svg" xmlns:xlink="http://www.w3.org/1999/xlink">
<g id="graph0" class="graph" transform="scale(1 1) rotate(0) translate(4 89)">
<title>Profiler.hpp</title>
<!-- Node1 -->
<g id="Node000001" class="node">
<title>Node1</title>
<g id="a_Node000001"><a xlink:title=" ">
<polygon fill="#999999" stroke="#666666" points="437,-85 366,-85 366,-66 437,-66 437,-85"/>
<text text-anchor="middle" x="401.5" y="-73" font-family="Helvetica,sans-Serif" font-size="10.00">Profiler.hpp</text>
</a>
</g>
</g>
<!-- Node2 -->
<g id="Node000002" class="node">
<title>Node2</title>
<g id="a_Node000002"><a xlink:title=" ">
<polygon fill="#e0e0e0" stroke="#999999" points="93,-24.5 0,-24.5 0,-5.5 93,-5.5 93,-24.5"/>
<text text-anchor="middle" x="46.5" y="-12.5" font-family="Helvetica,sans-Serif" font-size="10.00">unordered_map</text>
</a>
</g>
</g>
<!-- Node1&#45;&gt;Node2 -->
<g id="edge1_Node000001_Node000002" class="edge">
<title>Node1&#45;&gt;Node2</title>
<g id="a_edge1_Node000001_Node000002"><a xlink:title=" ">
<path fill="none" stroke="#63b8ff" d="M365.87,-70.34C309.62,-63.51 196.95,-48.79 102.5,-30 97.83,-29.07 92.97,-28.01 88.14,-26.88"/>
<polygon fill="#63b8ff" stroke="#63b8ff" points="88.9,-23.47 78.36,-24.53 87.27,-30.27 88.9,-23.47"/>
</a>
</g>
</g>
<!-- Node3 -->
<g id="Node000003" class="node">
<title>Node3</title>
<g id="a_Node000003"><a xlink:title=" ">
<polygon fill="#e0e0e0" stroke="#999999" points="179.5,-24.5 111.5,-24.5 111.5,-5.5 179.5,-5.5 179.5,-24.5"/>
<text text-anchor="middle" x="145.5" y="-12.5" font-family="Helvetica,sans-Serif" font-size="10.00">filesystem</text>
</a>
</g>
</g>
<!-- Node1&#45;&gt;Node3 -->
<g id="edge2_Node000001_Node000003" class="edge">
<title>Node1&#45;&gt;Node3</title>
<g id="a_edge2_Node000001_Node000003"><a xlink:title=" ">
<path fill="none" stroke="#63b8ff" d="M365.8,-68.27C323.26,-60.56 250.19,-46.44 188.5,-30 185.73,-29.26 182.87,-28.45 180.01,-27.6"/>
<polygon fill="#63b8ff" stroke="#63b8ff" points="180.96,-24.23 170.37,-24.61 178.89,-30.91 180.96,-24.23"/>
</a>
</g>
</g>
<!-- Node4 -->
<g id="Node000004" class="node">
<title>Node4</title>
<g id="a_Node000004"><a xlink:title=" ">
<polygon fill="#e0e0e0" stroke="#999999" points="291,-24.5 198,-24.5 198,-5.5 291,-5.5 291,-24.5"/>
<text text-anchor="middle" x="244.5" y="-12.5" font-family="Helvetica,sans-Serif" font-size="10.00">source_location</text>
</a>
</g>
</g>
<!-- Node1&#45;&gt;Node4 -->
<g id="edge3_Node000001_Node000004" class="edge">
<title>Node1&#45;&gt;Node4</title>
<g id="a_edge3_Node000001_Node000004"><a xlink:title=" ">
<path fill="none" stroke="#63b8ff" d="M378.67,-65.99C351.93,-56.03 307.42,-39.45 277.06,-28.13"/>
<polygon fill="#63b8ff" stroke="#63b8ff" points="277.95,-24.73 267.36,-24.52 275.51,-31.29 277.95,-24.73"/>
</a>
</g>
</g>
<!-- Node5 -->
<g id="Node000005" class="node">
<title>Node5</title>
<g id="a_Node000005"><a xlink:title=" ">
<polygon fill="#e0e0e0" stroke="#999999" points="359.5,-24.5 309.5,-24.5 309.5,-5.5 359.5,-5.5 359.5,-24.5"/>
<text text-anchor="middle" x="334.5" y="-12.5" font-family="Helvetica,sans-Serif" font-size="10.00">chrono</text>
</a>
</g>
</g>
<!-- Node1&#45;&gt;Node5 -->
<g id="edge4_Node000001_Node000005" class="edge">
<title>Node1&#45;&gt;Node5</title>
<g id="a_edge4_Node000001_Node000005"><a xlink:title=" ">
<path fill="none" stroke="#63b8ff" d="M391.61,-65.87C381.22,-56.8 364.66,-42.34 352.05,-31.32"/>
<polygon fill="#63b8ff" stroke="#63b8ff" points="354.26,-28.61 344.43,-24.67 349.66,-33.88 354.26,-28.61"/>
</a>
</g>
</g>
<!-- Node6 -->
<g id="Node000006" class="node">
<title>Node6</title>
<g id="a_Node000006"><a xlink:title=" ">
<polygon fill="#e0e0e0" stroke="#999999" points="425.5,-24.5 377.5,-24.5 377.5,-5.5 425.5,-5.5 425.5,-24.5"/>
<text text-anchor="middle" x="401.5" y="-12.5" font-family="Helvetica,sans-Serif" font-size="10.00">thread</text>
</a>
</g>
</g>
<!-- Node1&#45;&gt;Node6 -->
<g id="edge5_Node000001_Node000006" class="edge">
<title>Node1&#45;&gt;Node6</title>
<g id="a_edge5_Node000001_Node000006"><a xlink:title=" ">
<path fill="none" stroke="#63b8ff" d="M401.5,-65.87C401.5,-57.75 401.5,-45.31 401.5,-34.89"/>
<polygon fill="#63b8ff" stroke="#63b8ff" points="405,-34.67 401.5,-24.67 398,-34.67 405,-34.67"/>
</a>
</g>
</g>
<!-- Node7 -->
<g id="Node000007" class="node">
<title>Node7</title>
<g id="a_Node000007"><a xlink:title=" ">
<polygon fill="#e0e0e0" stroke="#999999" points="499.5,-24.5 443.5,-24.5 443.5,-5.5 499.5,-5.5 499.5,-24.5"/>
<text text-anchor="middle" x="471.5" y="-12.5" font-family="Helvetica,sans-Serif" font-size="10.00">optional</text>
</a>
</g>
</g>
<!-- Node1&#45;&gt;Node7 -->
<g id="edge6_Node000001_Node000007" class="edge">
<title>Node1&#45;&gt;Node7</title>
<g id="a_edge6_Node000001_Node000007"><a xlink:title=" ">
<path fill="none" stroke="#63b8ff" d="M411.83,-65.87C422.69,-56.8 439.99,-42.34 453.17,-31.32"/>
<polygon fill="#63b8ff" stroke="#63b8ff" points="455.7,-33.77 461.13,-24.67 451.21,-28.39 455.7,-33.77"/>
</a>
</g>
</g>
<!-- Node8 -->
<g id="Node000008" class="node">
<title>Node8</title>
<g id="a_Node000008"><a xlink:title=" ">
<polygon fill="#e0e0e0" stroke="#999999" points="549.5,-24.5 517.5,-24.5 517.5,-5.5 549.5,-5.5 549.5,-24.5"/>
<text text-anchor="middle" x="533.5" y="-12.5" font-family="Helvetica,sans-Serif" font-size="10.00">list</text>
</a>
</g>
</g>
<!-- Node1&#45;&gt;Node8 -->
<g id="edge7_Node000001_Node000008" class="edge">
<title>Node1&#45;&gt;Node8</title>
<g id="a_edge7_Node000001_Node000008"><a xlink:title=" ">
<path fill="none" stroke="#63b8ff" d="M424.38,-65.88C446.28,-57.41 480.09,-43.8 508.5,-30 508.93,-29.79 509.35,-29.58 509.78,-29.37"/>
<polygon fill="#63b8ff" stroke="#63b8ff" points="511.64,-32.35 518.85,-24.58 508.37,-26.16 511.64,-32.35"/>
</a>
</g>
</g>
<!-- Node9 -->
<g id="Node000009" class="node">
<title>Node9</title>
<g id="a_Node000009"><a xlink:title=" ">
<polygon fill="#e0e0e0" stroke="#999999" points="615.5,-24.5 567.5,-24.5 567.5,-5.5 615.5,-5.5 615.5,-24.5"/>
<text text-anchor="middle" x="591.5" y="-12.5" font-family="Helvetica,sans-Serif" font-size="10.00">mutex</text>
</a>
</g>
</g>
<!-- Node1&#45;&gt;Node9 -->
<g id="edge8_Node000001_Node000009" class="edge">
<title>Node1&#45;&gt;Node9</title>
<g id="a_edge8_Node000001_Node000009"><a xlink:title=" ">
<path fill="none" stroke="#63b8ff" d="M436.19,-66C468.26,-57.83 517.08,-44.59 558.5,-30 559.93,-29.5 561.39,-28.96 562.85,-28.41"/>
<polygon fill="#63b8ff" stroke="#63b8ff" points="564.48,-31.52 572.46,-24.55 561.88,-25.03 564.48,-31.52"/>
</a>
</g>
</g>
<!-- Node10 -->
<g id="Node000010" class="node">
<title>Node10</title>
<g id="a_Node000010"><a xlink:title=" ">
<polygon fill="#e0e0e0" stroke="#999999" points="759.5,-30 633.5,-30 633.5,0 759.5,0 759.5,-30"/>
<text text-anchor="start" x="641.5" y="-18" font-family="Helvetica,sans-Serif" font-size="10.00">packages/logging/impl</text>
<text text-anchor="middle" x="696.5" y="-7" font-family="Helvetica,sans-Serif" font-size="10.00">/Profiler_impl.hpp</text>
</a>
</g>
</g>
<!-- Node1&#45;&gt;Node10 -->
<g id="edge9_Node000001_Node000010" class="edge">
<title>Node1&#45;&gt;Node10</title>
<g id="a_edge9_Node000001_Node000010"><a xlink:title=" ">
<path fill="none" stroke="#63b8ff" d="M437.08,-67.44C483.01,-58.34 564.04,-42.27 623.35,-30.51"/>
<polygon fill="#63b8ff" stroke="#63b8ff" points="624.29,-33.89 633.41,-28.51 622.92,-27.02 624.29,-33.89"/>
</a>
</g>
</g>
</g>
</svg>
