<?xml version="1.0" encoding="UTF-8" standalone="no"?>
<!DOCTYPE svg PUBLIC "-//W3C//DTD SVG 1.1//EN"
 "http://www.w3.org/Graphics/SVG/1.1/DTD/svg11.dtd">
<!-- Generated by graphviz version 2.43.0 (0)
 -->
<!-- Title: Range.hpp Pages: 1 -->
<svg width="745pt" height="307pt"
 viewBox="0.00 0.00 745.00 307.00" xmlns="http://www.w3.org/2000/svg" xmlns:xlink="http://www.w3.org/1999/xlink">
<g id="graph0" class="graph" transform="scale(1 1) rotate(0) translate(4 303)">
<title>Range.hpp</title>
<polygon fill="white" stroke="transparent" points="-4,4 -4,-303 741,-303 741,4 -4,4"/>
<!-- Node1 -->
<g id="node1" class="node">
<title>Node1</title>
<g id="a_node1"><a xlink:title=" ">
<polygon fill="#bfbfbf" stroke="black" points="570.5,-279.5 570.5,-298.5 638.5,-298.5 638.5,-279.5 570.5,-279.5"/>
<text text-anchor="middle" x="604.5" y="-286.5" font-family="Helvetica,sans-Serif" font-size="10.00">Range.hpp</text>
</a>
</g>
</g>
<!-- Node2 -->
<g id="node2" class="node">
<title>Node2</title>
<g id="a_node2"><a xlink:href="types_8hpp.html" target="_top" xlink:title=" ">
<polygon fill="white" stroke="black" points="345.5,-134.5 345.5,-164.5 455.5,-164.5 455.5,-134.5 345.5,-134.5"/>
<text text-anchor="start" x="353.5" y="-152.5" font-family="Helvetica,sans-Serif" font-size="10.00">packages/types/inc</text>
<text text-anchor="middle" x="400.5" y="-141.5" font-family="Helvetica,sans-Serif" font-size="10.00">/types.hpp</text>
</a>
</g>
</g>
<!-- Node1&#45;&gt;Node2 -->
<g id="edge1" class="edge">
<title>Node1&#45;&gt;Node2</title>
<path fill="none" stroke="midnightblue" d="M570.33,-284.07C522.76,-277.88 440.1,-264.35 419.5,-243 402.13,-225 398.72,-195.6 398.79,-174.78"/>
<polygon fill="midnightblue" stroke="midnightblue" points="402.3,-174.6 399.11,-164.5 395.3,-174.39 402.3,-174.6"/>
</g>
<!-- Node8 -->
<g id="node8" class="node">
<title>Node8</title>
<g id="a_node8"><a xlink:title=" ">
<polygon fill="white" stroke="#bfbfbf" points="665,-73 665,-92 734,-92 734,-73 665,-73"/>
<text text-anchor="middle" x="699.5" y="-80" font-family="Helvetica,sans-Serif" font-size="10.00">type_traits</text>
</a>
</g>
</g>
<!-- Node1&#45;&gt;Node8 -->
<g id="edge13" class="edge">
<title>Node1&#45;&gt;Node8</title>
<path fill="none" stroke="midnightblue" d="M605.5,-279.3C607.55,-263.29 613.05,-228.3 624.5,-201 640.79,-162.16 669.59,-121.83 686.36,-99.98"/>
<polygon fill="midnightblue" stroke="midnightblue" points="689.16,-102.09 692.55,-92.06 683.64,-97.79 689.16,-102.09"/>
</g>
<!-- Node12 -->
<g id="node12" class="node">
<title>Node12</title>
<g id="a_node12"><a xlink:href="Size_8hpp.html" target="_top" xlink:title=" ">
<polygon fill="white" stroke="black" points="428.5,-201.5 428.5,-242.5 576.5,-242.5 576.5,-201.5 428.5,-201.5"/>
<text text-anchor="start" x="436.5" y="-230.5" font-family="Helvetica,sans-Serif" font-size="10.00">packages/compile_time</text>
<text text-anchor="start" x="436.5" y="-219.5" font-family="Helvetica,sans-Serif" font-size="10.00">/packages/parameter_pack</text>
<text text-anchor="middle" x="502.5" y="-208.5" font-family="Helvetica,sans-Serif" font-size="10.00">/inc/Size.hpp</text>
</a>
</g>
</g>
<!-- Node1&#45;&gt;Node12 -->
<g id="edge11" class="edge">
<title>Node1&#45;&gt;Node12</title>
<path fill="none" stroke="midnightblue" d="M590.74,-279.23C578.24,-271.27 559.17,-259.11 541.96,-248.14"/>
<polygon fill="midnightblue" stroke="midnightblue" points="543.48,-244.96 533.17,-242.54 539.72,-250.87 543.48,-244.96"/>
</g>
<!-- Node13 -->
<g id="node13" class="node">
<title>Node13</title>
<g id="a_node13"><a xlink:title=" ">
<polygon fill="white" stroke="#bfbfbf" points="633,-212.5 633,-231.5 674,-231.5 674,-212.5 633,-212.5"/>
<text text-anchor="middle" x="653.5" y="-219.5" font-family="Helvetica,sans-Serif" font-size="10.00">tuple</text>
</a>
</g>
</g>
<!-- Node1&#45;&gt;Node13 -->
<g id="edge14" class="edge">
<title>Node1&#45;&gt;Node13</title>
<path fill="none" stroke="midnightblue" d="M611.11,-279.23C618.68,-269.2 631.25,-252.51 640.74,-239.92"/>
<polygon fill="midnightblue" stroke="midnightblue" points="643.77,-241.72 647,-231.63 638.18,-237.51 643.77,-241.72"/>
</g>
<!-- Node14 -->
<g id="node14" class="node">
<title>Node14</title>
<g id="a_node14"><a xlink:title=" ">
<polygon fill="white" stroke="#bfbfbf" points="692,-212.5 692,-231.5 737,-231.5 737,-212.5 692,-212.5"/>
<text text-anchor="middle" x="714.5" y="-219.5" font-family="Helvetica,sans-Serif" font-size="10.00">utility</text>
</a>
</g>
</g>
<!-- Node1&#45;&gt;Node14 -->
<g id="edge15" class="edge">
<title>Node1&#45;&gt;Node14</title>
<path fill="none" stroke="midnightblue" d="M620.09,-279.45C636.13,-270.58 661.77,-256.18 683.5,-243 686.61,-241.12 689.86,-239.08 693.04,-237.06"/>
<polygon fill="midnightblue" stroke="midnightblue" points="695.12,-239.89 701.63,-231.53 691.33,-234 695.12,-239.89"/>
</g>
<!-- Node3 -->
<g id="node3" class="node">
<title>Node3</title>
<g id="a_node3"><a xlink:href="debug_8hpp.html" target="_top" xlink:title=" ">
<polygon fill="white" stroke="black" points="54,-67.5 54,-97.5 173,-97.5 173,-67.5 54,-67.5"/>
<text text-anchor="start" x="62" y="-85.5" font-family="Helvetica,sans-Serif" font-size="10.00">packages/macros/inc</text>
<text text-anchor="middle" x="113.5" y="-74.5" font-family="Helvetica,sans-Serif" font-size="10.00">/debug.hpp</text>
</a>
</g>
</g>
<!-- Node2&#45;&gt;Node3 -->
<g id="edge2" class="edge">
<title>Node2&#45;&gt;Node3</title>
<path fill="none" stroke="midnightblue" d="M345.16,-135.97C298.99,-125.51 232.93,-110.55 183.16,-99.28"/>
<polygon fill="midnightblue" stroke="midnightblue" points="183.65,-95.8 173.12,-97 182.1,-102.63 183.65,-95.8"/>
</g>
<!-- Node6 -->
<g id="node6" class="node">
<title>Node6</title>
<g id="a_node6"><a xlink:title=" ">
<polygon fill="white" stroke="#bfbfbf" points="191,-73 191,-92 244,-92 244,-73 191,-73"/>
<text text-anchor="middle" x="217.5" y="-80" font-family="Helvetica,sans-Serif" font-size="10.00">cstddef</text>
</a>
</g>
</g>
<!-- Node2&#45;&gt;Node6 -->
<g id="edge5" class="edge">
<title>Node2&#45;&gt;Node6</title>
<path fill="none" stroke="midnightblue" d="M357.84,-134.5C328.38,-124.67 288.39,-111.01 253.5,-98 251.65,-97.31 249.76,-96.59 247.85,-95.85"/>
<polygon fill="midnightblue" stroke="midnightblue" points="248.96,-92.53 238.37,-92.12 246.39,-99.04 248.96,-92.53"/>
</g>
<!-- Node7 -->
<g id="node7" class="node">
<title>Node7</title>
<g id="a_node7"><a xlink:title=" ">
<polygon fill="white" stroke="#bfbfbf" points="262.5,-73 262.5,-92 306.5,-92 306.5,-73 262.5,-73"/>
<text text-anchor="middle" x="284.5" y="-80" font-family="Helvetica,sans-Serif" font-size="10.00">string</text>
</a>
</g>
</g>
<!-- Node2&#45;&gt;Node7 -->
<g id="edge6" class="edge">
<title>Node2&#45;&gt;Node7</title>
<path fill="none" stroke="midnightblue" d="M375.33,-134.4C355.52,-123.29 328.08,-107.92 308.56,-96.98"/>
<polygon fill="midnightblue" stroke="midnightblue" points="310.12,-93.84 299.68,-92.01 306.69,-99.95 310.12,-93.84"/>
</g>
<!-- Node2&#45;&gt;Node8 -->
<g id="edge7" class="edge">
<title>Node2&#45;&gt;Node8</title>
<path fill="none" stroke="midnightblue" d="M455.91,-139.72C508.08,-130.95 588.21,-116.17 656.5,-98 659.7,-97.15 663,-96.19 666.3,-95.17"/>
<polygon fill="midnightblue" stroke="midnightblue" points="667.57,-98.44 676.01,-92.04 665.42,-91.78 667.57,-98.44"/>
</g>
<!-- Node9 -->
<g id="node9" class="node">
<title>Node9</title>
<g id="a_node9"><a xlink:title=" ">
<polygon fill="white" stroke="#bfbfbf" points="324.5,-73 324.5,-92 374.5,-92 374.5,-73 324.5,-73"/>
<text text-anchor="middle" x="349.5" y="-80" font-family="Helvetica,sans-Serif" font-size="10.00">climits</text>
</a>
</g>
</g>
<!-- Node2&#45;&gt;Node9 -->
<g id="edge8" class="edge">
<title>Node2&#45;&gt;Node9</title>
<path fill="none" stroke="midnightblue" d="M389.43,-134.4C381.56,-124.36 370.95,-110.84 362.65,-100.25"/>
<polygon fill="midnightblue" stroke="midnightblue" points="365.25,-97.9 356.32,-92.19 359.74,-102.22 365.25,-97.9"/>
</g>
<!-- Node10 -->
<g id="node10" class="node">
<title>Node10</title>
<g id="a_node10"><a xlink:title=" ">
<polygon fill="white" stroke="#bfbfbf" points="393,-67.5 393,-97.5 510,-97.5 510,-67.5 393,-67.5"/>
<text text-anchor="start" x="401" y="-85.5" font-family="Helvetica,sans-Serif" font-size="10.00">packages/types/impl</text>
<text text-anchor="middle" x="451.5" y="-74.5" font-family="Helvetica,sans-Serif" font-size="10.00">/types_impl.hpp</text>
</a>
</g>
</g>
<!-- Node2&#45;&gt;Node10 -->
<g id="edge9" class="edge">
<title>Node2&#45;&gt;Node10</title>
<path fill="none" stroke="midnightblue" d="M411.57,-134.4C418.18,-125.96 426.73,-115.07 434.22,-105.52"/>
<polygon fill="midnightblue" stroke="midnightblue" points="437.04,-107.6 440.46,-97.58 431.53,-103.28 437.04,-107.6"/>
</g>
<!-- Node11 -->
<g id="node11" class="node">
<title>Node11</title>
<g id="a_node11"><a xlink:href="logging_8hpp.html" target="_top" xlink:title=" ">
<polygon fill="white" stroke="black" points="528,-67.5 528,-97.5 647,-97.5 647,-67.5 528,-67.5"/>
<text text-anchor="start" x="536" y="-85.5" font-family="Helvetica,sans-Serif" font-size="10.00">packages/macros/inc</text>
<text text-anchor="middle" x="587.5" y="-74.5" font-family="Helvetica,sans-Serif" font-size="10.00">/logging.hpp</text>
</a>
</g>
</g>
<!-- Node2&#45;&gt;Node11 -->
<g id="edge10" class="edge">
<title>Node2&#45;&gt;Node11</title>
<path fill="none" stroke="midnightblue" d="M441.08,-134.4C469.38,-124.56 507.33,-111.37 537.5,-100.88"/>
<polygon fill="midnightblue" stroke="midnightblue" points="538.71,-104.17 547,-97.58 536.41,-97.55 538.71,-104.17"/>
</g>
<!-- Node4 -->
<g id="node4" class="node">
<title>Node4</title>
<g id="a_node4"><a xlink:href="detail_8hpp.html" target="_top" xlink:title=" ">
<polygon fill="white" stroke="black" points="0,-0.5 0,-30.5 119,-30.5 119,-0.5 0,-0.5"/>
<text text-anchor="start" x="8" y="-18.5" font-family="Helvetica,sans-Serif" font-size="10.00">packages/macros/inc</text>
<text text-anchor="middle" x="59.5" y="-7.5" font-family="Helvetica,sans-Serif" font-size="10.00">/detail.hpp</text>
</a>
</g>
</g>
<!-- Node3&#45;&gt;Node4 -->
<g id="edge3" class="edge">
<title>Node3&#45;&gt;Node4</title>
<path fill="none" stroke="midnightblue" d="M101.78,-67.4C94.78,-58.96 85.73,-48.07 77.79,-38.52"/>
<polygon fill="midnightblue" stroke="midnightblue" points="80.28,-36.03 71.19,-30.58 74.89,-40.51 80.28,-36.03"/>
</g>
<!-- Node5 -->
<g id="node5" class="node">
<title>Node5</title>
<g id="a_node5"><a xlink:title=" ">
<polygon fill="white" stroke="#bfbfbf" points="137.5,-6 137.5,-25 197.5,-25 197.5,-6 137.5,-6"/>
<text text-anchor="middle" x="167.5" y="-13" font-family="Helvetica,sans-Serif" font-size="10.00">iostream</text>
</a>
</g>
</g>
<!-- Node3&#45;&gt;Node5 -->
<g id="edge4" class="edge">
<title>Node3&#45;&gt;Node5</title>
<path fill="none" stroke="midnightblue" d="M125.22,-67.4C133.64,-57.26 145.01,-43.57 153.84,-32.94"/>
<polygon fill="midnightblue" stroke="midnightblue" points="156.58,-35.12 160.28,-25.19 151.19,-30.65 156.58,-35.12"/>
</g>
<!-- Node12&#45;&gt;Node2 -->
<g id="edge12" class="edge">
<title>Node12&#45;&gt;Node2</title>
<path fill="none" stroke="midnightblue" d="M474.09,-201.36C460.13,-191.71 443.33,-180.11 429.32,-170.42"/>
<polygon fill="midnightblue" stroke="midnightblue" points="431.22,-167.48 421,-164.67 427.24,-173.24 431.22,-167.48"/>
</g>
</g>
</svg>
