<?xml version="1.0" encoding="UTF-8" standalone="no"?>
<!DOCTYPE svg PUBLIC "-//W3C//DTD SVG 1.1//EN"
 "http://www.w3.org/Graphics/SVG/1.1/DTD/svg11.dtd">
<!-- Generated by graphviz version 2.43.0 (0)
 -->
<!-- Title: resize.hpp Pages: 1 -->
<svg width="1088pt" height="456pt"
 viewBox="0.00 0.00 1088.00 456.00" xmlns="http://www.w3.org/2000/svg" xmlns:xlink="http://www.w3.org/1999/xlink">
<g id="graph0" class="graph" transform="scale(1 1) rotate(0) translate(4 452)">
<title>resize.hpp</title>
<!-- Node1 -->
<g id="Node000001" class="node">
<title>Node1</title>
<g id="a_Node000001"><a xlink:title=" ">
<polygon fill="#999999" stroke="#666666" points="521.5,-448 454.5,-448 454.5,-429 521.5,-429 521.5,-448"/>
<text text-anchor="middle" x="488" y="-436" font-family="Helvetica,sans-Serif" font-size="10.00">resize.hpp</text>
</a>
</g>
</g>
<!-- Node2 -->
<g id="Node000002" class="node">
<title>Node2</title>
<g id="a_Node000002"><a xlink:href="checks_8hpp.html" target="_top" xlink:title=" ">
<polygon fill="white" stroke="#666666" points="268.5,-387.5 149.5,-387.5 149.5,-357.5 268.5,-357.5 268.5,-387.5"/>
<text text-anchor="start" x="157.5" y="-375.5" font-family="Helvetica,sans-Serif" font-size="10.00">packages/macros/inc</text>
<text text-anchor="middle" x="209" y="-364.5" font-family="Helvetica,sans-Serif" font-size="10.00">/checks.hpp</text>
</a>
</g>
</g>
<!-- Node1&#45;&gt;Node2 -->
<g id="edge1_Node000001_Node000002" class="edge">
<title>Node1&#45;&gt;Node2</title>
<g id="a_edge1_Node000001_Node000002"><a xlink:title=" ">
<path fill="none" stroke="#63b8ff" d="M454.35,-429.78C411,-419.84 334.59,-402.31 278.53,-389.45"/>
<polygon fill="#63b8ff" stroke="#63b8ff" points="279.19,-386.01 268.66,-387.19 277.63,-392.83 279.19,-386.01"/>
</a>
</g>
</g>
<!-- Node4 -->
<g id="Node000004" class="node">
<title>Node4</title>
<g id="a_Node000004"><a xlink:href="types_8hpp.html" target="_top" xlink:title=" ">
<polygon fill="white" stroke="#666666" points="697,-162 587,-162 587,-132 697,-132 697,-162"/>
<text text-anchor="start" x="595" y="-150" font-family="Helvetica,sans-Serif" font-size="10.00">packages/types/inc</text>
<text text-anchor="middle" x="642" y="-139" font-family="Helvetica,sans-Serif" font-size="10.00">/types.hpp</text>
</a>
</g>
</g>
<!-- Node1&#45;&gt;Node4 -->
<g id="edge42_Node000001_Node000004" class="edge">
<title>Node1&#45;&gt;Node4</title>
<g id="a_edge42_Node000001_Node000004"><a xlink:title=" ">
<path fill="none" stroke="#63b8ff" d="M480.06,-428.75C472.97,-420.3 463.1,-406.79 459,-393 440.37,-330.3 479.97,-216.64 497,-198 508.36,-185.57 543.91,-173.21 576.96,-163.89"/>
<polygon fill="#63b8ff" stroke="#63b8ff" points="577.93,-167.25 586.65,-161.22 576.07,-160.5 577.93,-167.25"/>
</a>
</g>
</g>
<!-- Node22 -->
<g id="Node000022" class="node">
<title>Node22</title>
<g id="a_Node000022"><a xlink:href="container__concepts_8hpp.html" target="_top" xlink:title=" ">
<polygon fill="white" stroke="#666666" points="603.5,-393 468.5,-393 468.5,-352 603.5,-352 603.5,-393"/>
<text text-anchor="start" x="476.5" y="-381" font-family="Helvetica,sans-Serif" font-size="10.00">packages/compile_time</text>
<text text-anchor="start" x="476.5" y="-370" font-family="Helvetica,sans-Serif" font-size="10.00">/packages/concepts/inc</text>
<text text-anchor="middle" x="536" y="-359" font-family="Helvetica,sans-Serif" font-size="10.00">/container_concepts.hpp</text>
</a>
</g>
</g>
<!-- Node1&#45;&gt;Node22 -->
<g id="edge26_Node000001_Node000022" class="edge">
<title>Node1&#45;&gt;Node22</title>
<g id="a_edge26_Node000001_Node000022"><a xlink:title=" ">
<path fill="none" stroke="#63b8ff" d="M494.47,-428.87C499.83,-421.72 507.75,-411.16 515.24,-401.18"/>
<polygon fill="#63b8ff" stroke="#63b8ff" points="518.17,-403.11 521.37,-393.01 512.57,-398.91 518.17,-403.11"/>
</a>
</g>
</g>
<!-- Node31 -->
<g id="Node000031" class="node">
<title>Node31</title>
<g id="a_Node000031"><a xlink:title=" ">
<polygon fill="#e0e0e0" stroke="#999999" points="674,-382 622,-382 622,-363 674,-363 674,-382"/>
<text text-anchor="middle" x="648" y="-370" font-family="Helvetica,sans-Serif" font-size="10.00">cassert</text>
</a>
</g>
</g>
<!-- Node1&#45;&gt;Node31 -->
<g id="edge43_Node000001_Node000031" class="edge">
<title>Node1&#45;&gt;Node31</title>
<g id="a_edge43_Node000001_Node000031"><a xlink:title=" ">
<path fill="none" stroke="#63b8ff" d="M515.56,-428.94C541.01,-420.73 579.64,-407.47 612,-393 616.01,-391.2 620.19,-389.14 624.22,-387.04"/>
<polygon fill="#63b8ff" stroke="#63b8ff" points="626.06,-390.02 633.19,-382.18 622.73,-383.86 626.06,-390.02"/>
</a>
</g>
</g>
<!-- Node3 -->
<g id="Node000003" class="node">
<title>Node3</title>
<g id="a_Node000003"><a xlink:href="exception_8hpp.html" target="_top" xlink:title=" ">
<polygon fill="white" stroke="#666666" points="411.5,-233.5 292.5,-233.5 292.5,-203.5 411.5,-203.5 411.5,-233.5"/>
<text text-anchor="start" x="300.5" y="-221.5" font-family="Helvetica,sans-Serif" font-size="10.00">packages/exceptions</text>
<text text-anchor="middle" x="352" y="-210.5" font-family="Helvetica,sans-Serif" font-size="10.00">/inc/exception.hpp</text>
</a>
</g>
</g>
<!-- Node2&#45;&gt;Node3 -->
<g id="edge2_Node000002_Node000003" class="edge">
<title>Node2&#45;&gt;Node3</title>
<g id="a_edge2_Node000002_Node000003"><a xlink:title=" ">
<path fill="none" stroke="#63b8ff" d="M268.68,-362.31C296.78,-354.75 328.01,-340.99 346,-316 360.95,-295.24 360.22,-264.99 357.19,-243.91"/>
<polygon fill="#63b8ff" stroke="#63b8ff" points="360.6,-243.09 355.46,-233.82 353.7,-244.27 360.6,-243.09"/>
</a>
</g>
</g>
<!-- Node6 -->
<g id="Node000006" class="node">
<title>Node6</title>
<g id="a_Node000006"><a xlink:href="detail_8hpp.html" target="_top" xlink:title=" ">
<polygon fill="white" stroke="#666666" points="171.5,-30 52.5,-30 52.5,0 171.5,0 171.5,-30"/>
<text text-anchor="start" x="60.5" y="-18" font-family="Helvetica,sans-Serif" font-size="10.00">packages/macros/inc</text>
<text text-anchor="middle" x="112" y="-7" font-family="Helvetica,sans-Serif" font-size="10.00">/detail.hpp</text>
</a>
</g>
</g>
<!-- Node2&#45;&gt;Node6 -->
<g id="edge23_Node000002_Node000006" class="edge">
<title>Node2&#45;&gt;Node6</title>
<g id="a_edge23_Node000002_Node000006"><a xlink:title=" ">
<path fill="none" stroke="#63b8ff" d="M149.24,-361.5C117.15,-353.62 78.64,-339.82 51,-316 14.25,-284.34 0,-268.01 0,-219.5 0,-219.5 0,-219.5 0,-146 0,-97.32 45.63,-57.82 78.64,-35.62"/>
<polygon fill="#63b8ff" stroke="#63b8ff" points="80.67,-38.47 87.14,-30.08 76.85,-32.6 80.67,-38.47"/>
</a>
</g>
</g>
<!-- Node18 -->
<g id="Node000018" class="node">
<title>Node18</title>
<g id="a_Node000018"><a xlink:href="exceptions_8hpp.html" target="_top" xlink:title=" ">
<polygon fill="white" stroke="#666666" points="337.5,-310.5 218.5,-310.5 218.5,-280.5 337.5,-280.5 337.5,-310.5"/>
<text text-anchor="start" x="226.5" y="-298.5" font-family="Helvetica,sans-Serif" font-size="10.00">packages/macros/inc</text>
<text text-anchor="middle" x="278" y="-287.5" font-family="Helvetica,sans-Serif" font-size="10.00">/exceptions.hpp</text>
</a>
</g>
</g>
<!-- Node2&#45;&gt;Node18 -->
<g id="edge18_Node000002_Node000018" class="edge">
<title>Node2&#45;&gt;Node18</title>
<g id="a_edge18_Node000002_Node000018"><a xlink:title=" ">
<path fill="none" stroke="#63b8ff" d="M221.98,-357.39C232.19,-346.29 246.6,-330.63 258.25,-317.97"/>
<polygon fill="#63b8ff" stroke="#63b8ff" points="260.88,-320.27 265.08,-310.54 255.73,-315.53 260.88,-320.27"/>
</a>
</g>
</g>
<!-- Node19 -->
<g id="Node000019" class="node">
<title>Node19</title>
<g id="a_Node000019"><a xlink:title=" ">
<polygon fill="#e0e0e0" stroke="#999999" points="84,-228 28,-228 28,-209 84,-209 84,-228"/>
<text text-anchor="middle" x="56" y="-216" font-family="Helvetica,sans-Serif" font-size="10.00">sstream</text>
</a>
</g>
</g>
<!-- Node2&#45;&gt;Node19 -->
<g id="edge25_Node000002_Node000019" class="edge">
<title>Node2&#45;&gt;Node19</title>
<g id="a_edge25_Node000002_Node000019"><a xlink:title=" ">
<path fill="none" stroke="#63b8ff" d="M149.16,-361.5C121.28,-353.75 90.11,-340.06 71,-316 53.3,-293.72 52.36,-259.18 53.81,-238.02"/>
<polygon fill="#63b8ff" stroke="#63b8ff" points="57.3,-238.35 54.75,-228.07 50.33,-237.7 57.3,-238.35"/>
</a>
</g>
</g>
<!-- Node21 -->
<g id="Node000021" class="node">
<title>Node21</title>
<g id="a_Node000021"><a xlink:title=" ">
<polygon fill="#e0e0e0" stroke="#999999" points="200,-305 80,-305 80,-286 200,-286 200,-305"/>
<text text-anchor="middle" x="140" y="-293" font-family="Helvetica,sans-Serif" font-size="10.00">cmake_variables.hpp</text>
</a>
</g>
</g>
<!-- Node2&#45;&gt;Node21 -->
<g id="edge24_Node000002_Node000021" class="edge">
<title>Node2&#45;&gt;Node21</title>
<g id="a_edge24_Node000002_Node000021"><a xlink:title=" ">
<path fill="none" stroke="#63b8ff" d="M196.02,-357.39C184.38,-344.74 167.3,-326.18 155.07,-312.88"/>
<polygon fill="#63b8ff" stroke="#63b8ff" points="157.51,-310.36 148.16,-305.37 152.36,-315.1 157.51,-310.36"/>
</a>
</g>
</g>
<!-- Node3&#45;&gt;Node4 -->
<g id="edge3_Node000003_Node000004" class="edge">
<title>Node3&#45;&gt;Node4</title>
<g id="a_edge3_Node000003_Node000004"><a xlink:title=" ">
<path fill="none" stroke="#63b8ff" d="M404.5,-203.46C411.72,-201.59 419.04,-199.72 426,-198 476.61,-185.48 534.13,-172.21 577.09,-162.49"/>
<polygon fill="#63b8ff" stroke="#63b8ff" points="577.86,-165.9 586.85,-160.28 576.32,-159.07 577.86,-165.9"/>
</a>
</g>
</g>
<!-- Node9 -->
<g id="Node000009" class="node">
<title>Node9</title>
<g id="a_Node000009"><a xlink:title=" ">
<polygon fill="#e0e0e0" stroke="#999999" points="357,-90.5 313,-90.5 313,-71.5 357,-71.5 357,-90.5"/>
<text text-anchor="middle" x="335" y="-78.5" font-family="Helvetica,sans-Serif" font-size="10.00">string</text>
</a>
</g>
</g>
<!-- Node3&#45;&gt;Node9 -->
<g id="edge14_Node000003_Node000009" class="edge">
<title>Node3&#45;&gt;Node9</title>
<g id="a_edge14_Node000003_Node000009"><a xlink:title=" ">
<path fill="none" stroke="#63b8ff" d="M387.82,-203.41C421.16,-188.07 463.07,-161.73 444,-132 443.7,-131.53 395.52,-109.54 363.32,-94.88"/>
<polygon fill="#63b8ff" stroke="#63b8ff" points="364.47,-91.56 353.92,-90.6 361.57,-97.93 364.47,-91.56"/>
</a>
</g>
</g>
<!-- Node14 -->
<g id="Node000014" class="node">
<title>Node14</title>
<g id="a_Node000014"><a xlink:title=" ">
<polygon fill="#e0e0e0" stroke="#999999" points="205.5,-156.5 140.5,-156.5 140.5,-137.5 205.5,-137.5 205.5,-156.5"/>
<text text-anchor="middle" x="173" y="-144.5" font-family="Helvetica,sans-Serif" font-size="10.00">stdexcept</text>
</a>
</g>
</g>
<!-- Node3&#45;&gt;Node14 -->
<g id="edge13_Node000003_Node000014" class="edge">
<title>Node3&#45;&gt;Node14</title>
<g id="a_edge13_Node000003_Node000014"><a xlink:title=" ">
<path fill="none" stroke="#63b8ff" d="M315.78,-203.44C283.14,-190.77 235.66,-172.33 204.55,-160.25"/>
<polygon fill="#63b8ff" stroke="#63b8ff" points="205.66,-156.92 195.07,-156.57 203.12,-163.45 205.66,-156.92"/>
</a>
</g>
</g>
<!-- Node15 -->
<g id="Node000015" class="node">
<title>Node15</title>
<g id="a_Node000015"><a xlink:title=" ">
<polygon fill="#e0e0e0" stroke="#999999" points="270.5,-156.5 223.5,-156.5 223.5,-137.5 270.5,-137.5 270.5,-156.5"/>
<text text-anchor="middle" x="247" y="-144.5" font-family="Helvetica,sans-Serif" font-size="10.00">deque</text>
</a>
</g>
</g>
<!-- Node3&#45;&gt;Node15 -->
<g id="edge15_Node000003_Node000015" class="edge">
<title>Node3&#45;&gt;Node15</title>
<g id="a_edge15_Node000003_Node000015"><a xlink:title=" ">
<path fill="none" stroke="#63b8ff" d="M330.75,-203.44C312.69,-191.48 286.86,-174.38 268.68,-162.35"/>
<polygon fill="#63b8ff" stroke="#63b8ff" points="270.21,-159.17 259.94,-156.57 266.35,-165.01 270.21,-159.17"/>
</a>
</g>
</g>
<!-- Node16 -->
<g id="Node000016" class="node">
<title>Node16</title>
<g id="a_Node000016"><a xlink:title=" ">
<polygon fill="#e0e0e0" stroke="#999999" points="549,-156.5 491,-156.5 491,-137.5 549,-137.5 549,-156.5"/>
<text text-anchor="middle" x="520" y="-144.5" font-family="Helvetica,sans-Serif" font-size="10.00">memory</text>
</a>
</g>
</g>
<!-- Node3&#45;&gt;Node16 -->
<g id="edge16_Node000003_Node000016" class="edge">
<title>Node3&#45;&gt;Node16</title>
<g id="a_edge16_Node000003_Node000016"><a xlink:title=" ">
<path fill="none" stroke="#63b8ff" d="M386,-203.44C416.49,-190.82 460.81,-172.49 490.01,-160.41"/>
<polygon fill="#63b8ff" stroke="#63b8ff" points="491.39,-163.62 499.29,-156.57 488.71,-157.16 491.39,-163.62"/>
</a>
</g>
</g>
<!-- Node17 -->
<g id="Node000017" class="node">
<title>Node17</title>
<g id="a_Node000017"><a xlink:title=" ">
<polygon fill="#e0e0e0" stroke="#999999" points="435,-162 289,-162 289,-132 435,-132 435,-162"/>
<text text-anchor="start" x="297" y="-150" font-family="Helvetica,sans-Serif" font-size="10.00">packages/exceptions</text>
<text text-anchor="middle" x="362" y="-139" font-family="Helvetica,sans-Serif" font-size="10.00">/impl/exceptions_impl.hpp</text>
</a>
</g>
</g>
<!-- Node3&#45;&gt;Node17 -->
<g id="edge17_Node000003_Node000017" class="edge">
<title>Node3&#45;&gt;Node17</title>
<g id="a_edge17_Node000003_Node000017"><a xlink:title=" ">
<path fill="none" stroke="#63b8ff" d="M354.02,-203.44C355.31,-194.49 357.01,-182.66 358.51,-172.23"/>
<polygon fill="#63b8ff" stroke="#63b8ff" points="362.02,-172.44 359.98,-162.04 355.09,-171.44 362.02,-172.44"/>
</a>
</g>
</g>
<!-- Node5 -->
<g id="Node000005" class="node">
<title>Node5</title>
<g id="a_Node000005"><a xlink:href="debug_8hpp.html" target="_top" xlink:title=" ">
<polygon fill="white" stroke="#666666" points="631.5,-96 512.5,-96 512.5,-66 631.5,-66 631.5,-96"/>
<text text-anchor="start" x="520.5" y="-84" font-family="Helvetica,sans-Serif" font-size="10.00">packages/macros/inc</text>
<text text-anchor="middle" x="572" y="-73" font-family="Helvetica,sans-Serif" font-size="10.00">/debug.hpp</text>
</a>
</g>
</g>
<!-- Node4&#45;&gt;Node5 -->
<g id="edge4_Node000004_Node000005" class="edge">
<title>Node4&#45;&gt;Node5</title>
<g id="a_edge4_Node000004_Node000005"><a xlink:title=" ">
<path fill="none" stroke="#63b8ff" d="M626.46,-131.8C617.22,-123.34 605.32,-112.46 595,-103.03"/>
<polygon fill="#63b8ff" stroke="#63b8ff" points="597.23,-100.33 587.49,-96.16 592.51,-105.49 597.23,-100.33"/>
</a>
</g>
</g>
<!-- Node8 -->
<g id="Node000008" class="node">
<title>Node8</title>
<g id="a_Node000008"><a xlink:title=" ">
<polygon fill="#e0e0e0" stroke="#999999" points="702.5,-90.5 649.5,-90.5 649.5,-71.5 702.5,-71.5 702.5,-90.5"/>
<text text-anchor="middle" x="676" y="-78.5" font-family="Helvetica,sans-Serif" font-size="10.00">cstddef</text>
</a>
</g>
</g>
<!-- Node4&#45;&gt;Node8 -->
<g id="edge7_Node000004_Node000008" class="edge">
<title>Node4&#45;&gt;Node8</title>
<g id="a_edge7_Node000004_Node000008"><a xlink:title=" ">
<path fill="none" stroke="#63b8ff" d="M649.55,-131.8C654.53,-122.41 661.12,-110.02 666.47,-99.95"/>
<polygon fill="#63b8ff" stroke="#63b8ff" points="669.7,-101.32 671.3,-90.84 663.52,-98.03 669.7,-101.32"/>
</a>
</g>
</g>
<!-- Node4&#45;&gt;Node9 -->
<g id="edge8_Node000004_Node000009" class="edge">
<title>Node4&#45;&gt;Node9</title>
<g id="a_edge8_Node000004_Node000009"><a xlink:title=" ">
<path fill="none" stroke="#63b8ff" d="M586.82,-136.75C512.4,-124.16 386.72,-102.45 366,-96 364.56,-95.55 363.09,-95.05 361.62,-94.51"/>
<polygon fill="#63b8ff" stroke="#63b8ff" points="362.67,-91.16 352.09,-90.62 360.02,-97.64 362.67,-91.16"/>
</a>
</g>
</g>
<!-- Node10 -->
<g id="Node000010" class="node">
<title>Node10</title>
<g id="a_Node000010"><a xlink:title=" ">
<polygon fill="#e0e0e0" stroke="#999999" points="1061.5,-90.5 992.5,-90.5 992.5,-71.5 1061.5,-71.5 1061.5,-90.5"/>
<text text-anchor="middle" x="1027" y="-78.5" font-family="Helvetica,sans-Serif" font-size="10.00">type_traits</text>
</a>
</g>
</g>
<!-- Node4&#45;&gt;Node10 -->
<g id="edge9_Node000004_Node000010" class="edge">
<title>Node4&#45;&gt;Node10</title>
<g id="a_edge9_Node000004_Node000010"><a xlink:title=" ">
<path fill="none" stroke="#63b8ff" d="M697.27,-135.52C703.91,-134.31 710.61,-133.11 717,-132 811.18,-115.62 921.79,-98.22 982.13,-88.88"/>
<polygon fill="#63b8ff" stroke="#63b8ff" points="982.74,-92.33 992.09,-87.34 981.67,-85.41 982.74,-92.33"/>
</a>
</g>
</g>
<!-- Node11 -->
<g id="Node000011" class="node">
<title>Node11</title>
<g id="a_Node000011"><a xlink:title=" ">
<polygon fill="#e0e0e0" stroke="#999999" points="771,-90.5 721,-90.5 721,-71.5 771,-71.5 771,-90.5"/>
<text text-anchor="middle" x="746" y="-78.5" font-family="Helvetica,sans-Serif" font-size="10.00">climits</text>
</a>
</g>
</g>
<!-- Node4&#45;&gt;Node11 -->
<g id="edge10_Node000004_Node000011" class="edge">
<title>Node4&#45;&gt;Node11</title>
<g id="a_edge10_Node000004_Node000011"><a xlink:title=" ">
<path fill="none" stroke="#63b8ff" d="M664.82,-131.95C682.18,-121.27 705.94,-106.65 723.27,-95.98"/>
<polygon fill="#63b8ff" stroke="#63b8ff" points="725.48,-98.74 732.16,-90.52 721.81,-92.78 725.48,-98.74"/>
</a>
</g>
</g>
<!-- Node12 -->
<g id="Node000012" class="node">
<title>Node12</title>
<g id="a_Node000012"><a xlink:title=" ">
<polygon fill="#e0e0e0" stroke="#999999" points="906.5,-96 789.5,-96 789.5,-66 906.5,-66 906.5,-96"/>
<text text-anchor="start" x="797.5" y="-84" font-family="Helvetica,sans-Serif" font-size="10.00">packages/types/impl</text>
<text text-anchor="middle" x="848" y="-73" font-family="Helvetica,sans-Serif" font-size="10.00">/types_impl.hpp</text>
</a>
</g>
</g>
<!-- Node4&#45;&gt;Node12 -->
<g id="edge11_Node000004_Node000012" class="edge">
<title>Node4&#45;&gt;Node12</title>
<g id="a_edge11_Node000004_Node000012"><a xlink:title=" ">
<path fill="none" stroke="#63b8ff" d="M687.21,-131.95C718.33,-122.28 759.87,-109.38 792.93,-99.11"/>
<polygon fill="#63b8ff" stroke="#63b8ff" points="794.39,-102.32 802.9,-96.01 792.31,-95.64 794.39,-102.32"/>
</a>
</g>
</g>
<!-- Node13 -->
<g id="Node000013" class="node">
<title>Node13</title>
<g id="a_Node000013"><a xlink:href="logging_8hpp.html" target="_top" xlink:title=" ">
<polygon fill="white" stroke="#666666" points="494.5,-96 375.5,-96 375.5,-66 494.5,-66 494.5,-96"/>
<text text-anchor="start" x="383.5" y="-84" font-family="Helvetica,sans-Serif" font-size="10.00">packages/macros/inc</text>
<text text-anchor="middle" x="435" y="-73" font-family="Helvetica,sans-Serif" font-size="10.00">/logging.hpp</text>
</a>
</g>
</g>
<!-- Node4&#45;&gt;Node13 -->
<g id="edge12_Node000004_Node000013" class="edge">
<title>Node4&#45;&gt;Node13</title>
<g id="a_edge12_Node000004_Node000013"><a xlink:title=" ">
<path fill="none" stroke="#63b8ff" d="M596.57,-131.95C565.16,-122.24 523.2,-109.27 489.91,-98.98"/>
<polygon fill="#63b8ff" stroke="#63b8ff" points="490.91,-95.62 480.32,-96.01 488.84,-102.31 490.91,-95.62"/>
</a>
</g>
</g>
<!-- Node5&#45;&gt;Node6 -->
<g id="edge5_Node000005_Node000006" class="edge">
<title>Node5&#45;&gt;Node6</title>
<g id="a_edge5_Node000005_Node000006"><a xlink:title=" ">
<path fill="none" stroke="#63b8ff" d="M512.21,-67.59C509.1,-67.03 506.01,-66.5 503,-66 391.21,-47.54 260.47,-32.04 182.05,-23.4"/>
<polygon fill="#63b8ff" stroke="#63b8ff" points="182.14,-19.89 171.82,-22.28 181.37,-26.84 182.14,-19.89"/>
</a>
</g>
</g>
<!-- Node7 -->
<g id="Node000007" class="node">
<title>Node7</title>
<g id="a_Node000007"><a xlink:title=" ">
<polygon fill="#e0e0e0" stroke="#999999" points="602,-24.5 542,-24.5 542,-5.5 602,-5.5 602,-24.5"/>
<text text-anchor="middle" x="572" y="-12.5" font-family="Helvetica,sans-Serif" font-size="10.00">iostream</text>
</a>
</g>
</g>
<!-- Node5&#45;&gt;Node7 -->
<g id="edge6_Node000005_Node000007" class="edge">
<title>Node5&#45;&gt;Node7</title>
<g id="a_edge6_Node000005_Node000007"><a xlink:title=" ">
<path fill="none" stroke="#63b8ff" d="M572,-65.8C572,-56.7 572,-44.79 572,-34.9"/>
<polygon fill="#63b8ff" stroke="#63b8ff" points="575.5,-34.84 572,-24.84 568.5,-34.84 575.5,-34.84"/>
</a>
</g>
</g>
<!-- Node18&#45;&gt;Node3 -->
<g id="edge19_Node000018_Node000003" class="edge">
<title>Node18&#45;&gt;Node3</title>
<g id="a_edge19_Node000018_Node000003"><a xlink:title=" ">
<path fill="none" stroke="#63b8ff" d="M291.92,-280.39C302.87,-269.29 318.33,-253.63 330.82,-240.97"/>
<polygon fill="#63b8ff" stroke="#63b8ff" points="333.61,-243.12 338.14,-233.54 328.63,-238.2 333.61,-243.12"/>
</a>
</g>
</g>
<!-- Node18&#45;&gt;Node6 -->
<g id="edge20_Node000018_Node000006" class="edge">
<title>Node18&#45;&gt;Node6</title>
<g id="a_edge20_Node000018_Node000006"><a xlink:title=" ">
<path fill="none" stroke="#63b8ff" d="M253.58,-280.35C219.72,-259.3 159.5,-216.3 131,-162 110.58,-123.1 109.02,-70.61 110.19,-40.33"/>
<polygon fill="#63b8ff" stroke="#63b8ff" points="113.69,-40.41 110.72,-30.24 106.7,-40.04 113.69,-40.41"/>
</a>
</g>
</g>
<!-- Node18&#45;&gt;Node19 -->
<g id="edge21_Node000018_Node000019" class="edge">
<title>Node18&#45;&gt;Node19</title>
<g id="a_edge21_Node000018_Node000019"><a xlink:title=" ">
<path fill="none" stroke="#63b8ff" d="M229.66,-280.4C185.03,-267.24 122.12,-248.27 98,-239 92.88,-237.03 87.5,-234.73 82.37,-232.41"/>
<polygon fill="#63b8ff" stroke="#63b8ff" points="83.48,-229.06 72.94,-228 80.52,-235.4 83.48,-229.06"/>
</a>
</g>
</g>
<!-- Node20 -->
<g id="Node000020" class="node">
<title>Node20</title>
<g id="a_Node000020"><a xlink:title=" ">
<polygon fill="#e0e0e0" stroke="#999999" points="878,-156.5 818,-156.5 818,-137.5 878,-137.5 878,-156.5"/>
<text text-anchor="middle" x="848" y="-144.5" font-family="Helvetica,sans-Serif" font-size="10.00">concepts</text>
</a>
</g>
</g>
<!-- Node18&#45;&gt;Node20 -->
<g id="edge22_Node000018_Node000020" class="edge">
<title>Node18&#45;&gt;Node20</title>
<g id="a_edge22_Node000018_Node000020"><a xlink:title=" ">
<path fill="none" stroke="#63b8ff" d="M337.51,-290.39C476.26,-280.56 810.9,-255.29 829,-239 849.04,-220.97 851.02,-187.72 849.97,-166.79"/>
<polygon fill="#63b8ff" stroke="#63b8ff" points="853.44,-166.3 849.17,-156.61 846.47,-166.85 853.44,-166.3"/>
</a>
</g>
</g>
<!-- Node23 -->
<g id="Node000023" class="node">
<title>Node23</title>
<g id="a_Node000023"><a xlink:href="iterator__concepts_8hpp.html" target="_top" xlink:title=" ">
<polygon fill="white" stroke="#666666" points="729,-316 597,-316 597,-275 729,-275 729,-316"/>
<text text-anchor="start" x="605" y="-304" font-family="Helvetica,sans-Serif" font-size="10.00">packages/compile_time</text>
<text text-anchor="start" x="605" y="-293" font-family="Helvetica,sans-Serif" font-size="10.00">/packages/concepts/inc</text>
<text text-anchor="middle" x="663" y="-282" font-family="Helvetica,sans-Serif" font-size="10.00">/iterator_concepts.hpp</text>
</a>
</g>
</g>
<!-- Node22&#45;&gt;Node23 -->
<g id="edge27_Node000022_Node000023" class="edge">
<title>Node22&#45;&gt;Node23</title>
<g id="a_edge27_Node000022_Node000023"><a xlink:title=" ">
<path fill="none" stroke="#63b8ff" d="M569.04,-351.99C584.79,-342.69 603.82,-331.45 620.62,-321.53"/>
<polygon fill="#63b8ff" stroke="#63b8ff" points="622.86,-324.27 629.69,-316.17 619.3,-318.24 622.86,-324.27"/>
</a>
</g>
</g>
<!-- Node23&#45;&gt;Node16 -->
<g id="edge41_Node000023_Node000016" class="edge">
<title>Node23&#45;&gt;Node16</title>
<g id="a_edge41_Node000023_Node000016"><a xlink:title=" ">
<path fill="none" stroke="#63b8ff" d="M596.63,-290.35C560.9,-284.33 519.64,-270.44 497,-239 481.04,-216.84 495.83,-184.7 507.95,-165.14"/>
<polygon fill="#63b8ff" stroke="#63b8ff" points="510.97,-166.92 513.54,-156.65 505.12,-163.07 510.97,-166.92"/>
</a>
</g>
</g>
<!-- Node24 -->
<g id="Node000024" class="node">
<title>Node24</title>
<g id="a_Node000024"><a xlink:href="basic__concepts_8hpp.html" target="_top" xlink:title=" ">
<polygon fill="white" stroke="#666666" points="1080,-239 948,-239 948,-198 1080,-198 1080,-239"/>
<text text-anchor="start" x="956" y="-227" font-family="Helvetica,sans-Serif" font-size="10.00">packages/compile_time</text>
<text text-anchor="start" x="956" y="-216" font-family="Helvetica,sans-Serif" font-size="10.00">/packages/concepts/inc</text>
<text text-anchor="middle" x="1014" y="-205" font-family="Helvetica,sans-Serif" font-size="10.00">/basic_concepts.hpp</text>
</a>
</g>
</g>
<!-- Node23&#45;&gt;Node24 -->
<g id="edge28_Node000023_Node000024" class="edge">
<title>Node23&#45;&gt;Node24</title>
<g id="a_edge28_Node000023_Node000024"><a xlink:title=" ">
<path fill="none" stroke="#63b8ff" d="M729.03,-282.3C782.78,-272.12 860.84,-256.78 937.91,-239.2"/>
<polygon fill="#63b8ff" stroke="#63b8ff" points="938.83,-242.58 947.8,-236.93 937.27,-235.75 938.83,-242.58"/>
</a>
</g>
</g>
<!-- Node27 -->
<g id="Node000027" class="node">
<title>Node27</title>
<g id="a_Node000027"><a xlink:href="Size_8hpp.html" target="_top" xlink:title=" ">
<polygon fill="white" stroke="#666666" points="654,-239 506,-239 506,-198 654,-198 654,-239"/>
<text text-anchor="start" x="514" y="-227" font-family="Helvetica,sans-Serif" font-size="10.00">packages/compile_time</text>
<text text-anchor="start" x="514" y="-216" font-family="Helvetica,sans-Serif" font-size="10.00">/packages/parameter_pack</text>
<text text-anchor="middle" x="580" y="-205" font-family="Helvetica,sans-Serif" font-size="10.00">/inc/Size.hpp</text>
</a>
</g>
</g>
<!-- Node23&#45;&gt;Node27 -->
<g id="edge34_Node000023_Node000027" class="edge">
<title>Node23&#45;&gt;Node27</title>
<g id="a_edge34_Node000023_Node000027"><a xlink:title=" ">
<path fill="none" stroke="#63b8ff" d="M641.19,-274.79C631.38,-265.92 619.64,-255.32 609.09,-245.79"/>
<polygon fill="#63b8ff" stroke="#63b8ff" points="611.43,-243.18 601.66,-239.07 606.73,-248.38 611.43,-243.18"/>
</a>
</g>
</g>
<!-- Node28 -->
<g id="Node000028" class="node">
<title>Node28</title>
<g id="a_Node000028"><a xlink:href="Select_8hpp.html" target="_top" xlink:title=" ">
<polygon fill="white" stroke="#666666" points="820,-239 672,-239 672,-198 820,-198 820,-239"/>
<text text-anchor="start" x="680" y="-227" font-family="Helvetica,sans-Serif" font-size="10.00">packages/compile_time</text>
<text text-anchor="start" x="680" y="-216" font-family="Helvetica,sans-Serif" font-size="10.00">/packages/parameter_pack</text>
<text text-anchor="middle" x="746" y="-205" font-family="Helvetica,sans-Serif" font-size="10.00">/inc/Select.hpp</text>
</a>
</g>
</g>
<!-- Node23&#45;&gt;Node28 -->
<g id="edge36_Node000023_Node000028" class="edge">
<title>Node23&#45;&gt;Node28</title>
<g id="a_edge36_Node000023_Node000028"><a xlink:title=" ">
<path fill="none" stroke="#63b8ff" d="M684.81,-274.79C694.62,-265.92 706.36,-255.32 716.91,-245.79"/>
<polygon fill="#63b8ff" stroke="#63b8ff" points="719.27,-248.38 724.34,-239.07 714.57,-243.18 719.27,-248.38"/>
</a>
</g>
</g>
<!-- Node30 -->
<g id="Node000030" class="node">
<title>Node30</title>
<g id="a_Node000030"><a xlink:title=" ">
<polygon fill="#e0e0e0" stroke="#999999" points="929.5,-228 876.5,-228 876.5,-209 929.5,-209 929.5,-228"/>
<text text-anchor="middle" x="903" y="-216" font-family="Helvetica,sans-Serif" font-size="10.00">iterator</text>
</a>
</g>
</g>
<!-- Node23&#45;&gt;Node30 -->
<g id="edge40_Node000023_Node000030" class="edge">
<title>Node23&#45;&gt;Node30</title>
<g id="a_edge40_Node000023_Node000030"><a xlink:title=" ">
<path fill="none" stroke="#63b8ff" d="M729.34,-279.04C768.47,-269.18 818.66,-255.21 862,-239 867.04,-237.12 872.3,-234.85 877.32,-232.54"/>
<polygon fill="#63b8ff" stroke="#63b8ff" points="879.02,-235.61 886.52,-228.13 875.99,-229.29 879.02,-235.61"/>
</a>
</g>
</g>
<!-- Node24&#45;&gt;Node4 -->
<g id="edge29_Node000024_Node000004" class="edge">
<title>Node24&#45;&gt;Node4</title>
<g id="a_edge29_Node000024_Node000004"><a xlink:title=" ">
<path fill="none" stroke="#63b8ff" d="M947.83,-199.94C944.85,-199.26 941.9,-198.61 939,-198 841.19,-177.4 815.47,-179.17 717,-162 713.8,-161.44 710.53,-160.86 707.23,-160.27"/>
<polygon fill="#63b8ff" stroke="#63b8ff" points="707.73,-156.81 697.27,-158.47 706.48,-163.69 707.73,-156.81"/>
</a>
</g>
</g>
<!-- Node24&#45;&gt;Node10 -->
<g id="edge31_Node000024_Node000010" class="edge">
<title>Node24&#45;&gt;Node10</title>
<g id="a_edge31_Node000024_Node000010"><a xlink:title=" ">
<path fill="none" stroke="#63b8ff" d="M1022.05,-197.83C1025.89,-187.38 1030.07,-174.21 1032,-162 1035.28,-141.23 1032.95,-117.1 1030.48,-100.82"/>
<polygon fill="#63b8ff" stroke="#63b8ff" points="1033.93,-100.22 1028.82,-90.94 1027.03,-101.38 1033.93,-100.22"/>
</a>
</g>
</g>
<!-- Node24&#45;&gt;Node20 -->
<g id="edge30_Node000024_Node000020" class="edge">
<title>Node24&#45;&gt;Node20</title>
<g id="a_edge30_Node000024_Node000020"><a xlink:title=" ">
<path fill="none" stroke="#63b8ff" d="M967.32,-197.96C938.53,-185.9 902.49,-170.81 877.59,-160.39"/>
<polygon fill="#63b8ff" stroke="#63b8ff" points="878.89,-157.14 868.31,-156.5 876.18,-163.59 878.89,-157.14"/>
</a>
</g>
</g>
<!-- Node25 -->
<g id="Node000025" class="node">
<title>Node25</title>
<g id="a_Node000025"><a xlink:title=" ">
<polygon fill="#e0e0e0" stroke="#999999" points="959,-156.5 909,-156.5 909,-137.5 959,-137.5 959,-156.5"/>
<text text-anchor="middle" x="934" y="-144.5" font-family="Helvetica,sans-Serif" font-size="10.00">cstdint</text>
</a>
</g>
</g>
<!-- Node24&#45;&gt;Node25 -->
<g id="edge32_Node000024_Node000025" class="edge">
<title>Node24&#45;&gt;Node25</title>
<g id="a_edge32_Node000024_Node000025"><a xlink:title=" ">
<path fill="none" stroke="#63b8ff" d="M991.29,-197.77C978.8,-186.92 963.52,-173.65 951.89,-163.54"/>
<polygon fill="#63b8ff" stroke="#63b8ff" points="954,-160.74 944.15,-156.82 949.41,-166.02 954,-160.74"/>
</a>
</g>
</g>
<!-- Node26 -->
<g id="Node000026" class="node">
<title>Node26</title>
<g id="a_Node000026"><a xlink:title=" ">
<polygon fill="#e0e0e0" stroke="#999999" points="1022.5,-156.5 977.5,-156.5 977.5,-137.5 1022.5,-137.5 1022.5,-156.5"/>
<text text-anchor="middle" x="1000" y="-144.5" font-family="Helvetica,sans-Serif" font-size="10.00">utility</text>
</a>
</g>
</g>
<!-- Node24&#45;&gt;Node26 -->
<g id="edge33_Node000024_Node000026" class="edge">
<title>Node24&#45;&gt;Node26</title>
<g id="a_edge33_Node000024_Node000026"><a xlink:title=" ">
<path fill="none" stroke="#63b8ff" d="M1010.03,-197.77C1008.07,-188.08 1005.73,-176.46 1003.8,-166.88"/>
<polygon fill="#63b8ff" stroke="#63b8ff" points="1007.18,-165.93 1001.78,-156.82 1000.32,-167.31 1007.18,-165.93"/>
</a>
</g>
</g>
<!-- Node27&#45;&gt;Node4 -->
<g id="edge35_Node000027_Node000004" class="edge">
<title>Node27&#45;&gt;Node4</title>
<g id="a_edge35_Node000027_Node000004"><a xlink:title=" ">
<path fill="none" stroke="#63b8ff" d="M597.6,-197.77C605.46,-188.95 614.75,-178.54 622.8,-169.53"/>
<polygon fill="#63b8ff" stroke="#63b8ff" points="625.43,-171.83 629.48,-162.04 620.21,-167.17 625.43,-171.83"/>
</a>
</g>
</g>
<!-- Node28&#45;&gt;Node4 -->
<g id="edge37_Node000028_Node000004" class="edge">
<title>Node28&#45;&gt;Node4</title>
<g id="a_edge37_Node000028_Node000004"><a xlink:title=" ">
<path fill="none" stroke="#63b8ff" d="M716.75,-197.96C702.62,-188.51 685.7,-177.2 671.53,-167.74"/>
<polygon fill="#63b8ff" stroke="#63b8ff" points="673.38,-164.76 663.12,-162.11 669.49,-170.58 673.38,-164.76"/>
</a>
</g>
</g>
<!-- Node28&#45;&gt;Node20 -->
<g id="edge39_Node000028_Node000020" class="edge">
<title>Node28&#45;&gt;Node20</title>
<g id="a_edge39_Node000028_Node000020"><a xlink:title=" ">
<path fill="none" stroke="#63b8ff" d="M774.68,-197.96C791.27,-186.65 811.79,-172.67 826.9,-162.38"/>
<polygon fill="#63b8ff" stroke="#63b8ff" points="829.23,-165.03 835.52,-156.5 825.29,-159.24 829.23,-165.03"/>
</a>
</g>
</g>
<!-- Node29 -->
<g id="Node000029" class="node">
<title>Node29</title>
<g id="a_Node000029"><a xlink:title=" ">
<polygon fill="#e0e0e0" stroke="#999999" points="766.5,-156.5 725.5,-156.5 725.5,-137.5 766.5,-137.5 766.5,-156.5"/>
<text text-anchor="middle" x="746" y="-144.5" font-family="Helvetica,sans-Serif" font-size="10.00">tuple</text>
</a>
</g>
</g>
<!-- Node28&#45;&gt;Node29 -->
<g id="edge38_Node000028_Node000029" class="edge">
<title>Node28&#45;&gt;Node29</title>
<g id="a_edge38_Node000028_Node000029"><a xlink:title=" ">
<path fill="none" stroke="#63b8ff" d="M746,-197.77C746,-188.08 746,-176.46 746,-166.88"/>
<polygon fill="#63b8ff" stroke="#63b8ff" points="749.5,-166.82 746,-156.82 742.5,-166.82 749.5,-166.82"/>
</a>
</g>
</g>
</g>
</svg>
