<?xml version="1.0" encoding="UTF-8" standalone="no"?>
<!DOCTYPE svg PUBLIC "-//W3C//DTD SVG 1.1//EN"
 "http://www.w3.org/Graphics/SVG/1.1/DTD/svg11.dtd">
<!-- Generated by graphviz version 2.43.0 (0)
 -->
<!-- Title: resize.hpp Pages: 1 -->
<!--zoomable 463 -->
<svg id="main" version="1.1" xmlns="http://www.w3.org/2000/svg" xmlns:xlink="http://www.w3.org/1999/xlink" xml:space="preserve" onload="init(evt)">
<style type="text/css"><![CDATA[
.edge:hover path { stroke: red; }
.edge:hover polygon { stroke: red; fill: red; }
]]></style>
<script type="text/javascript"><![CDATA[
var edges = document.getElementsByTagName('g');
if (edges && edges.length) {
  for (var i=0;i<edges.length;i++) {
    if (edges[i].id.substr(0,4)=='edge') {
      edges[i].setAttribute('class','edge');
    }
  }
}
]]></script>
        <defs>
                <circle id="rim" cx="0" cy="0" r="7"/>
                <circle id="rim2" cx="0" cy="0" r="3.5"/>
                <g id="zoomPlus">
                        <use xlink:href="#rim" fill="#404040">
                                <set attributeName="fill" to="#808080" begin="zoomplus.mouseover" end="zoomplus.mouseout"/>
                        </use>
                        <path d="M-4,0h8M0,-4v8" fill="none" stroke="white" stroke-width="1.5" pointer-events="none"/>
                </g>
                <g id="zoomMin">
                        <use xlink:href="#rim" fill="#404040">
                                <set attributeName="fill" to="#808080" begin="zoomminus.mouseover" end="zoomminus.mouseout"/>
                        </use>
                        <path d="M-4,0h8" fill="none" stroke="white" stroke-width="1.5" pointer-events="none"/>
                </g>
                <g id="dirArrow">
                        <path fill="none" stroke="white" stroke-width="1.5" d="M0,-3.0v7 M-2.5,-0.5L0,-3.0L2.5,-0.5"/>
                </g>
               <g id="resetDef">
                       <use xlink:href="#rim2" fill="#404040">
                               <set attributeName="fill" to="#808080" begin="reset.mouseover" end="reset.mouseout"/>
                       </use>
               </g>
        </defs>

<script type="text/javascript">
var viewWidth = 1199;
var viewHeight = 463;
var sectionId = 'dynsection-0';
</script>
<script xlink:href="svgpan.js"/>
<svg id="graph" class="graph">
<g id="viewport">
<title>resize.hpp</title>
<polygon fill="white" stroke="transparent" points="-4,4 -4,-459 1195,-459 1195,4 -4,4"/>
<!-- Node1 -->
<g id="node1" class="node">
<title>Node1</title>
<g id="a_node1"><a xlink:title=" ">
<polygon fill="#bfbfbf" stroke="black" points="603.5,-435.5 603.5,-454.5 670.5,-454.5 670.5,-435.5 603.5,-435.5"/>
<text text-anchor="middle" x="637" y="-442.5" font-family="Helvetica,sans-Serif" font-size="10.00">resize.hpp</text>
</a>
</g>
</g>
<!-- Node2 -->
<g id="node2" class="node">
<title>Node2</title>
<g id="a_node2"><a xlink:href="checks_8hpp.html" target="_top" xlink:title=" ">
<polygon fill="white" stroke="black" points="278.5,-363 278.5,-393 397.5,-393 397.5,-363 278.5,-363"/>
<text text-anchor="start" x="286.5" y="-381" font-family="Helvetica,sans-Serif" font-size="10.00">packages/macros/inc</text>
<text text-anchor="middle" x="338" y="-370" font-family="Helvetica,sans-Serif" font-size="10.00">/checks.hpp</text>
</a>
</g>
</g>
<!-- Node1&#45;&gt;Node2 -->
<g id="edge1" class="edge">
<title>Node1&#45;&gt;Node2</title>
<path fill="none" stroke="midnightblue" d="M603.28,-436.67C556.05,-426.4 469.08,-407.5 407.61,-394.13"/>
<polygon fill="midnightblue" stroke="midnightblue" points="408.11,-390.66 397.6,-391.96 406.63,-397.5 408.11,-390.66"/>
</g>
<!-- Node4 -->
<g id="node4" class="node">
<title>Node4</title>
<g id="a_node4"><a xlink:href="types_8hpp.html" target="_top" xlink:title=" ">
<polygon fill="white" stroke="black" points="748,-134.5 748,-164.5 858,-164.5 858,-134.5 748,-134.5"/>
<text text-anchor="start" x="756" y="-152.5" font-family="Helvetica,sans-Serif" font-size="10.00">packages/types/inc</text>
<text text-anchor="middle" x="803" y="-141.5" font-family="Helvetica,sans-Serif" font-size="10.00">/types.hpp</text>
</a>
</g>
</g>
<!-- Node1&#45;&gt;Node4 -->
<g id="edge44" class="edge">
<title>Node1&#45;&gt;Node4</title>
<path fill="none" stroke="midnightblue" d="M629.33,-435.46C622.22,-426.93 612.15,-413.09 608,-399 589.29,-335.42 629.55,-218.69 646,-201 658.93,-187.1 700.62,-174.04 737.78,-164.69"/>
<polygon fill="midnightblue" stroke="midnightblue" points="738.74,-168.06 747.61,-162.27 737.07,-161.26 738.74,-168.06"/>
</g>
<!-- Node23 -->
<g id="node23" class="node">
<title>Node23</title>
<g id="a_node23"><a xlink:href="container__concepts_8hpp.html" target="_top" xlink:title=" ">
<polygon fill="white" stroke="black" points="617.5,-357.5 617.5,-398.5 752.5,-398.5 752.5,-357.5 617.5,-357.5"/>
<text text-anchor="start" x="625.5" y="-386.5" font-family="Helvetica,sans-Serif" font-size="10.00">packages/compile_time</text>
<text text-anchor="start" x="625.5" y="-375.5" font-family="Helvetica,sans-Serif" font-size="10.00">/packages/concepts/inc</text>
<text text-anchor="middle" x="685" y="-364.5" font-family="Helvetica,sans-Serif" font-size="10.00">/container_concepts.hpp</text>
</a>
</g>
</g>
<!-- Node1&#45;&gt;Node23 -->
<g id="edge28" class="edge">
<title>Node1&#45;&gt;Node23</title>
<path fill="none" stroke="midnightblue" d="M643.47,-435.23C648.87,-427.92 656.87,-417.09 664.41,-406.88"/>
<polygon fill="midnightblue" stroke="midnightblue" points="667.44,-408.67 670.57,-398.54 661.81,-404.51 667.44,-408.67"/>
</g>
<!-- Node32 -->
<g id="node32" class="node">
<title>Node32</title>
<g id="a_node32"><a xlink:title=" ">
<polygon fill="white" stroke="#bfbfbf" points="771,-368.5 771,-387.5 823,-387.5 823,-368.5 771,-368.5"/>
<text text-anchor="middle" x="797" y="-375.5" font-family="Helvetica,sans-Serif" font-size="10.00">cassert</text>
</a>
</g>
</g>
<!-- Node1&#45;&gt;Node32 -->
<g id="edge45" class="edge">
<title>Node1&#45;&gt;Node32</title>
<path fill="none" stroke="midnightblue" d="M664.59,-435.39C690.05,-427.11 728.7,-413.72 761,-399 765.29,-397.05 769.75,-394.77 774.02,-392.47"/>
<polygon fill="midnightblue" stroke="midnightblue" points="775.88,-395.45 782.9,-387.51 772.47,-389.33 775.88,-395.45"/>
</g>
<!-- Node3 -->
<g id="node3" class="node">
<title>Node3</title>
<g id="a_node3"><a xlink:href="exception_8hpp.html" target="_top" xlink:title=" ">
<polygon fill="white" stroke="black" points="365.5,-207 365.5,-237 484.5,-237 484.5,-207 365.5,-207"/>
<text text-anchor="start" x="373.5" y="-225" font-family="Helvetica,sans-Serif" font-size="10.00">packages/exceptions</text>
<text text-anchor="middle" x="425" y="-214" font-family="Helvetica,sans-Serif" font-size="10.00">/inc/exception.hpp</text>
</a>
</g>
</g>
<!-- Node2&#45;&gt;Node3 -->
<g id="edge2" class="edge">
<title>Node2&#45;&gt;Node3</title>
<path fill="none" stroke="midnightblue" d="M341.75,-362.99C347.38,-343.31 359.18,-306.79 376,-279 383.5,-266.62 393.82,-254.35 403.05,-244.46"/>
<polygon fill="midnightblue" stroke="midnightblue" points="405.74,-246.72 410.16,-237.09 400.7,-241.86 405.74,-246.72"/>
</g>
<!-- Node6 -->
<g id="node6" class="node">
<title>Node6</title>
<g id="a_node6"><a xlink:href="detail_8hpp.html" target="_top" xlink:title=" ">
<polygon fill="white" stroke="black" points="453.5,-0.5 453.5,-30.5 572.5,-30.5 572.5,-0.5 453.5,-0.5"/>
<text text-anchor="start" x="461.5" y="-18.5" font-family="Helvetica,sans-Serif" font-size="10.00">packages/macros/inc</text>
<text text-anchor="middle" x="513" y="-7.5" font-family="Helvetica,sans-Serif" font-size="10.00">/detail.hpp</text>
</a>
</g>
</g>
<!-- Node2&#45;&gt;Node6 -->
<g id="edge23" class="edge">
<title>Node2&#45;&gt;Node6</title>
<path fill="none" stroke="midnightblue" d="M278.48,-371.11C206.31,-362.97 89.97,-346.36 55,-321 14.56,-291.68 0,-272.95 0,-223 0,-223 0,-223 0,-148.5 0,-58.05 302.87,-28.67 443.18,-19.91"/>
<polygon fill="midnightblue" stroke="midnightblue" points="443.63,-23.39 453.4,-19.29 443.21,-16.4 443.63,-23.39"/>
</g>
<!-- Node18 -->
<g id="node18" class="node">
<title>Node18</title>
<g id="a_node18"><a xlink:href="exceptions_8hpp.html" target="_top" xlink:title=" ">
<polygon fill="white" stroke="black" points="385.5,-285 385.5,-315 504.5,-315 504.5,-285 385.5,-285"/>
<text text-anchor="start" x="393.5" y="-303" font-family="Helvetica,sans-Serif" font-size="10.00">packages/macros/inc</text>
<text text-anchor="middle" x="445" y="-292" font-family="Helvetica,sans-Serif" font-size="10.00">/exceptions.hpp</text>
</a>
</g>
</g>
<!-- Node2&#45;&gt;Node18 -->
<g id="edge18" class="edge">
<title>Node2&#45;&gt;Node18</title>
<path fill="none" stroke="midnightblue" d="M357.88,-362.88C374.47,-351.1 398.31,-334.16 416.87,-320.98"/>
<polygon fill="midnightblue" stroke="midnightblue" points="419.11,-323.69 425.23,-315.04 415.05,-317.98 419.11,-323.69"/>
</g>
<!-- Node19 -->
<g id="node19" class="node">
<title>Node19</title>
<g id="a_node19"><a xlink:title=" ">
<polygon fill="white" stroke="#bfbfbf" points="291,-212.5 291,-231.5 347,-231.5 347,-212.5 291,-212.5"/>
<text text-anchor="middle" x="319" y="-219.5" font-family="Helvetica,sans-Serif" font-size="10.00">sstream</text>
</a>
</g>
</g>
<!-- Node2&#45;&gt;Node19 -->
<g id="edge27" class="edge">
<title>Node2&#45;&gt;Node19</title>
<path fill="none" stroke="midnightblue" d="M336.25,-362.79C332.79,-334.8 325.12,-272.58 321.28,-241.46"/>
<polygon fill="midnightblue" stroke="midnightblue" points="324.75,-241.02 320.05,-231.53 317.8,-241.88 324.75,-241.02"/>
</g>
<!-- Node21 -->
<g id="node21" class="node">
<title>Node21</title>
<g id="a_node21"><a xlink:href="cmake__variables_8hpp.html" target="_top" xlink:title=" ">
<polygon fill="white" stroke="black" points="64,-290.5 64,-309.5 184,-309.5 184,-290.5 64,-290.5"/>
<text text-anchor="middle" x="124" y="-297.5" font-family="Helvetica,sans-Serif" font-size="10.00">cmake_variables.hpp</text>
</a>
</g>
</g>
<!-- Node2&#45;&gt;Node21 -->
<g id="edge24" class="edge">
<title>Node2&#45;&gt;Node21</title>
<path fill="none" stroke="midnightblue" d="M298.5,-362.97C258.03,-348.6 195.8,-326.5 157.62,-312.94"/>
<polygon fill="midnightblue" stroke="midnightblue" points="158.59,-309.57 147.99,-309.52 156.24,-316.17 158.59,-309.57"/>
</g>
<!-- Node3&#45;&gt;Node4 -->
<g id="edge3" class="edge">
<title>Node3&#45;&gt;Node4</title>
<path fill="none" stroke="midnightblue" d="M484.69,-209.94C545.42,-198.67 642.28,-180.67 726,-165 729.88,-164.27 733.86,-163.53 737.88,-162.77"/>
<polygon fill="midnightblue" stroke="midnightblue" points="738.72,-166.18 747.9,-160.89 737.43,-159.3 738.72,-166.18"/>
</g>
<!-- Node9 -->
<g id="node9" class="node">
<title>Node9</title>
<g id="a_node9"><a xlink:title=" ">
<polygon fill="white" stroke="#bfbfbf" points="441,-73 441,-92 485,-92 485,-73 441,-73"/>
<text text-anchor="middle" x="463" y="-80" font-family="Helvetica,sans-Serif" font-size="10.00">string</text>
</a>
</g>
</g>
<!-- Node3&#45;&gt;Node9 -->
<g id="edge14" class="edge">
<title>Node3&#45;&gt;Node9</title>
<path fill="none" stroke="midnightblue" d="M434.55,-206.95C441.47,-196.02 450.38,-180.2 455,-165 461.31,-144.22 462.94,-119.22 463.23,-102.44"/>
<polygon fill="midnightblue" stroke="midnightblue" points="466.73,-102.29 463.25,-92.28 459.73,-102.27 466.73,-102.29"/>
</g>
<!-- Node14 -->
<g id="node14" class="node">
<title>Node14</title>
<g id="a_node14"><a xlink:title=" ">
<polygon fill="white" stroke="#bfbfbf" points="316.5,-140 316.5,-159 381.5,-159 381.5,-140 316.5,-140"/>
<text text-anchor="middle" x="349" y="-147" font-family="Helvetica,sans-Serif" font-size="10.00">stdexcept</text>
</a>
</g>
</g>
<!-- Node3&#45;&gt;Node14 -->
<g id="edge13" class="edge">
<title>Node3&#45;&gt;Node14</title>
<path fill="none" stroke="midnightblue" d="M409.62,-206.73C396.98,-195 379.08,-178.4 366.01,-166.28"/>
<polygon fill="midnightblue" stroke="midnightblue" points="368.3,-163.63 358.59,-159.39 363.54,-168.76 368.3,-163.63"/>
</g>
<!-- Node15 -->
<g id="node15" class="node">
<title>Node15</title>
<g id="a_node15"><a xlink:title=" ">
<polygon fill="white" stroke="#bfbfbf" points="399.5,-140 399.5,-159 446.5,-159 446.5,-140 399.5,-140"/>
<text text-anchor="middle" x="423" y="-147" font-family="Helvetica,sans-Serif" font-size="10.00">deque</text>
</a>
</g>
</g>
<!-- Node3&#45;&gt;Node15 -->
<g id="edge15" class="edge">
<title>Node3&#45;&gt;Node15</title>
<path fill="none" stroke="midnightblue" d="M424.6,-206.73C424.29,-196 423.87,-181.19 423.54,-169.46"/>
<polygon fill="midnightblue" stroke="midnightblue" points="427.03,-169.29 423.25,-159.39 420.04,-169.49 427.03,-169.29"/>
</g>
<!-- Node16 -->
<g id="node16" class="node">
<title>Node16</title>
<g id="a_node16"><a xlink:title=" ">
<polygon fill="white" stroke="#bfbfbf" points="554,-140 554,-159 612,-159 612,-140 554,-140"/>
<text text-anchor="middle" x="583" y="-147" font-family="Helvetica,sans-Serif" font-size="10.00">memory</text>
</a>
</g>
</g>
<!-- Node3&#45;&gt;Node16 -->
<g id="edge16" class="edge">
<title>Node3&#45;&gt;Node16</title>
<path fill="none" stroke="midnightblue" d="M456.59,-206.9C485.15,-194.16 526.81,-175.57 554.4,-163.26"/>
<polygon fill="midnightblue" stroke="midnightblue" points="556.17,-166.3 563.88,-159.03 553.32,-159.91 556.17,-166.3"/>
</g>
<!-- Node17 -->
<g id="node17" class="node">
<title>Node17</title>
<g id="a_node17"><a xlink:title=" ">
<polygon fill="white" stroke="#bfbfbf" points="152,-134.5 152,-164.5 298,-164.5 298,-134.5 152,-134.5"/>
<text text-anchor="start" x="160" y="-152.5" font-family="Helvetica,sans-Serif" font-size="10.00">packages/exceptions</text>
<text text-anchor="middle" x="225" y="-141.5" font-family="Helvetica,sans-Serif" font-size="10.00">/impl/exceptions_impl.hpp</text>
</a>
</g>
</g>
<!-- Node3&#45;&gt;Node17 -->
<g id="edge17" class="edge">
<title>Node3&#45;&gt;Node17</title>
<path fill="none" stroke="midnightblue" d="M385.01,-206.9C353.26,-195.71 308.71,-180.01 274.67,-168.01"/>
<polygon fill="midnightblue" stroke="midnightblue" points="275.52,-164.6 264.92,-164.57 273.19,-171.2 275.52,-164.6"/>
</g>
<!-- Node5 -->
<g id="node5" class="node">
<title>Node5</title>
<g id="a_node5"><a xlink:href="debug_8hpp.html" target="_top" xlink:title=" ">
<polygon fill="white" stroke="black" points="881.5,-67.5 881.5,-97.5 1000.5,-97.5 1000.5,-67.5 881.5,-67.5"/>
<text text-anchor="start" x="889.5" y="-85.5" font-family="Helvetica,sans-Serif" font-size="10.00">packages/macros/inc</text>
<text text-anchor="middle" x="941" y="-74.5" font-family="Helvetica,sans-Serif" font-size="10.00">/debug.hpp</text>
</a>
</g>
</g>
<!-- Node4&#45;&gt;Node5 -->
<g id="edge4" class="edge">
<title>Node4&#45;&gt;Node5</title>
<path fill="none" stroke="midnightblue" d="M832.94,-134.4C853.2,-124.86 880.15,-112.16 902.06,-101.84"/>
<polygon fill="midnightblue" stroke="midnightblue" points="903.56,-105 911.11,-97.58 900.58,-98.67 903.56,-105"/>
</g>
<!-- Node8 -->
<g id="node8" class="node">
<title>Node8</title>
<g id="a_node8"><a xlink:title=" ">
<polygon fill="white" stroke="#bfbfbf" points="1018.5,-73 1018.5,-92 1071.5,-92 1071.5,-73 1018.5,-73"/>
<text text-anchor="middle" x="1045" y="-80" font-family="Helvetica,sans-Serif" font-size="10.00">cstddef</text>
</a>
</g>
</g>
<!-- Node4&#45;&gt;Node8 -->
<g id="edge7" class="edge">
<title>Node4&#45;&gt;Node8</title>
<path fill="none" stroke="midnightblue" d="M858.12,-137.47C900.2,-128.46 959.37,-114.56 1010,-98 1012.13,-97.3 1014.32,-96.53 1016.51,-95.72"/>
<polygon fill="midnightblue" stroke="midnightblue" points="1017.92,-98.93 1025.94,-92.02 1015.36,-92.42 1017.92,-98.93"/>
</g>
<!-- Node4&#45;&gt;Node9 -->
<g id="edge8" class="edge">
<title>Node4&#45;&gt;Node9</title>
<path fill="none" stroke="midnightblue" d="M747.9,-138.11C740.54,-136.72 733.09,-135.32 726,-134 639.8,-117.89 618.03,-115.02 532,-98 519.96,-95.62 506.76,-92.88 495.16,-90.42"/>
<polygon fill="midnightblue" stroke="midnightblue" points="495.55,-86.93 485.04,-88.27 494.09,-93.77 495.55,-86.93"/>
</g>
<!-- Node10 -->
<g id="node10" class="node">
<title>Node10</title>
<g id="a_node10"><a xlink:title=" ">
<polygon fill="white" stroke="#bfbfbf" points="1089.5,-73 1089.5,-92 1158.5,-92 1158.5,-73 1089.5,-73"/>
<text text-anchor="middle" x="1124" y="-80" font-family="Helvetica,sans-Serif" font-size="10.00">type_traits</text>
</a>
</g>
</g>
<!-- Node4&#45;&gt;Node10 -->
<g id="edge9" class="edge">
<title>Node4&#45;&gt;Node10</title>
<path fill="none" stroke="midnightblue" d="M858.17,-139.46C926.75,-128.05 1039.79,-108.63 1081,-98 1084.2,-97.17 1087.51,-96.23 1090.81,-95.22"/>
<polygon fill="midnightblue" stroke="midnightblue" points="1092.08,-98.49 1100.53,-92.1 1089.94,-91.83 1092.08,-98.49"/>
</g>
<!-- Node11 -->
<g id="node11" class="node">
<title>Node11</title>
<g id="a_node11"><a xlink:title=" ">
<polygon fill="white" stroke="#bfbfbf" points="541,-73 541,-92 591,-92 591,-73 541,-73"/>
<text text-anchor="middle" x="566" y="-80" font-family="Helvetica,sans-Serif" font-size="10.00">climits</text>
</a>
</g>
</g>
<!-- Node4&#45;&gt;Node11 -->
<g id="edge10" class="edge">
<title>Node4&#45;&gt;Node11</title>
<path fill="none" stroke="midnightblue" d="M747.61,-137.22C706.41,-128.23 649.07,-114.45 600,-98 598.08,-97.36 596.12,-96.65 594.16,-95.91"/>
<polygon fill="midnightblue" stroke="midnightblue" points="595.08,-92.51 584.5,-92.02 592.47,-99 595.08,-92.51"/>
</g>
<!-- Node12 -->
<g id="node12" class="node">
<title>Node12</title>
<g id="a_node12"><a xlink:title=" ">
<polygon fill="white" stroke="#bfbfbf" points="609.5,-67.5 609.5,-97.5 726.5,-97.5 726.5,-67.5 609.5,-67.5"/>
<text text-anchor="start" x="617.5" y="-85.5" font-family="Helvetica,sans-Serif" font-size="10.00">packages/types/impl</text>
<text text-anchor="middle" x="668" y="-74.5" font-family="Helvetica,sans-Serif" font-size="10.00">/types_impl.hpp</text>
</a>
</g>
</g>
<!-- Node4&#45;&gt;Node12 -->
<g id="edge11" class="edge">
<title>Node4&#45;&gt;Node12</title>
<path fill="none" stroke="midnightblue" d="M773.71,-134.4C753.98,-124.9 727.77,-112.28 706.38,-101.98"/>
<polygon fill="midnightblue" stroke="midnightblue" points="707.76,-98.76 697.24,-97.58 704.73,-105.07 707.76,-98.76"/>
</g>
<!-- Node13 -->
<g id="node13" class="node">
<title>Node13</title>
<g id="a_node13"><a xlink:href="logging_8hpp.html" target="_top" xlink:title=" ">
<polygon fill="white" stroke="black" points="744.5,-67.5 744.5,-97.5 863.5,-97.5 863.5,-67.5 744.5,-67.5"/>
<text text-anchor="start" x="752.5" y="-85.5" font-family="Helvetica,sans-Serif" font-size="10.00">packages/macros/inc</text>
<text text-anchor="middle" x="804" y="-74.5" font-family="Helvetica,sans-Serif" font-size="10.00">/logging.hpp</text>
</a>
</g>
</g>
<!-- Node4&#45;&gt;Node13 -->
<g id="edge12" class="edge">
<title>Node4&#45;&gt;Node13</title>
<path fill="none" stroke="midnightblue" d="M803.22,-134.4C803.34,-126.64 803.49,-116.81 803.63,-107.86"/>
<polygon fill="midnightblue" stroke="midnightblue" points="807.13,-107.63 803.78,-97.58 800.13,-107.52 807.13,-107.63"/>
</g>
<!-- Node5&#45;&gt;Node6 -->
<g id="edge5" class="edge">
<title>Node5&#45;&gt;Node6</title>
<path fill="none" stroke="midnightblue" d="M881.21,-68.68C878.1,-68.09 875.01,-67.53 872,-67 771.79,-49.44 654.99,-33.92 582.51,-24.87"/>
<polygon fill="midnightblue" stroke="midnightblue" points="582.94,-21.39 572.59,-23.63 582.08,-28.34 582.94,-21.39"/>
</g>
<!-- Node7 -->
<g id="node7" class="node">
<title>Node7</title>
<g id="a_node7"><a xlink:title=" ">
<polygon fill="white" stroke="#bfbfbf" points="911,-6 911,-25 971,-25 971,-6 911,-6"/>
<text text-anchor="middle" x="941" y="-13" font-family="Helvetica,sans-Serif" font-size="10.00">iostream</text>
</a>
</g>
</g>
<!-- Node5&#45;&gt;Node7 -->
<g id="edge6" class="edge">
<title>Node5&#45;&gt;Node7</title>
<path fill="none" stroke="midnightblue" d="M941,-67.4C941,-58.06 941,-45.71 941,-35.52"/>
<polygon fill="midnightblue" stroke="midnightblue" points="944.5,-35.19 941,-25.19 937.5,-35.19 944.5,-35.19"/>
</g>
<!-- Node18&#45;&gt;Node3 -->
<g id="edge19" class="edge">
<title>Node18&#45;&gt;Node3</title>
<path fill="none" stroke="midnightblue" d="M441.24,-284.7C438.44,-274.09 434.57,-259.37 431.31,-246.96"/>
<polygon fill="midnightblue" stroke="midnightblue" points="434.67,-246.01 428.74,-237.23 427.91,-247.79 434.67,-246.01"/>
</g>
<!-- Node18&#45;&gt;Node6 -->
<g id="edge20" class="edge">
<title>Node18&#45;&gt;Node6</title>
<path fill="none" stroke="midnightblue" d="M461.82,-284.66C472.73,-274.29 486.15,-259.29 493,-243 521.95,-174.22 519.05,-83.51 515.55,-40.76"/>
<polygon fill="midnightblue" stroke="midnightblue" points="519.03,-40.38 514.65,-30.74 512.06,-41.01 519.03,-40.38"/>
</g>
<!-- Node18&#45;&gt;Node19 -->
<g id="edge21" class="edge">
<title>Node18&#45;&gt;Node19</title>
<path fill="none" stroke="midnightblue" d="M421.6,-284.88C398.83,-271.15 364.46,-250.42 341.87,-236.8"/>
<polygon fill="midnightblue" stroke="midnightblue" points="343.64,-233.77 333.27,-231.61 340.02,-239.77 343.64,-233.77"/>
</g>
<!-- Node20 -->
<g id="node20" class="node">
<title>Node20</title>
<g id="a_node20"><a xlink:title=" ">
<polygon fill="white" stroke="#bfbfbf" points="657,-140 657,-159 717,-159 717,-140 657,-140"/>
<text text-anchor="middle" x="687" y="-147" font-family="Helvetica,sans-Serif" font-size="10.00">concepts</text>
</a>
</g>
</g>
<!-- Node18&#45;&gt;Node20 -->
<g id="edge22" class="edge">
<title>Node18&#45;&gt;Node20</title>
<path fill="none" stroke="midnightblue" d="M467.08,-284.95C483.88,-274.02 507.37,-258.2 527,-243 549.41,-225.64 551.15,-216.33 575,-201 599.7,-185.13 630.21,-171.73 653.15,-162.73"/>
<polygon fill="midnightblue" stroke="midnightblue" points="654.71,-165.88 662.79,-159.03 652.2,-159.34 654.71,-165.88"/>
</g>
<!-- Node21&#45;&gt;Node9 -->
<g id="edge26" class="edge">
<title>Node21&#45;&gt;Node9</title>
<path fill="none" stroke="midnightblue" d="M121.83,-290.35C115.57,-263.12 100.49,-178.33 143,-134 182.14,-93.18 357.27,-85.33 430.57,-83.84"/>
<polygon fill="midnightblue" stroke="midnightblue" points="430.68,-87.34 440.62,-83.66 430.56,-80.34 430.68,-87.34"/>
</g>
<!-- Node22 -->
<g id="node22" class="node">
<title>Node22</title>
<g id="a_node22"><a xlink:title=" ">
<polygon fill="white" stroke="#bfbfbf" points="28,-212.5 28,-231.5 96,-231.5 96,-212.5 28,-212.5"/>
<text text-anchor="middle" x="62" y="-219.5" font-family="Helvetica,sans-Serif" font-size="10.00">filesystem</text>
</a>
</g>
</g>
<!-- Node21&#45;&gt;Node22 -->
<g id="edge25" class="edge">
<title>Node21&#45;&gt;Node22</title>
<path fill="none" stroke="midnightblue" d="M116.89,-290.28C106.8,-277.91 88.14,-255.04 75.4,-239.43"/>
<polygon fill="midnightblue" stroke="midnightblue" points="78.06,-237.15 69.03,-231.62 72.64,-241.58 78.06,-237.15"/>
</g>
<!-- Node24 -->
<g id="node24" class="node">
<title>Node24</title>
<g id="a_node24"><a xlink:href="iterator__concepts_8hpp.html" target="_top" xlink:title=" ">
<polygon fill="white" stroke="black" points="677,-279.5 677,-320.5 809,-320.5 809,-279.5 677,-279.5"/>
<text text-anchor="start" x="685" y="-308.5" font-family="Helvetica,sans-Serif" font-size="10.00">packages/compile_time</text>
<text text-anchor="start" x="685" y="-297.5" font-family="Helvetica,sans-Serif" font-size="10.00">/packages/concepts/inc</text>
<text text-anchor="middle" x="743" y="-286.5" font-family="Helvetica,sans-Serif" font-size="10.00">/iterator_concepts.hpp</text>
</a>
</g>
</g>
<!-- Node23&#45;&gt;Node24 -->
<g id="edge29" class="edge">
<title>Node23&#45;&gt;Node24</title>
<path fill="none" stroke="midnightblue" d="M699.94,-357.43C706.63,-348.65 714.65,-338.15 721.94,-328.59"/>
<polygon fill="midnightblue" stroke="midnightblue" points="724.83,-330.58 728.11,-320.51 719.27,-326.33 724.83,-330.58"/>
</g>
<!-- Node24&#45;&gt;Node16 -->
<g id="edge43" class="edge">
<title>Node24&#45;&gt;Node16</title>
<path fill="none" stroke="midnightblue" d="M699.63,-279.33C681.79,-269.94 661.68,-257.55 646,-243 622.12,-220.84 602.5,-188.02 591.8,-168.02"/>
<polygon fill="midnightblue" stroke="midnightblue" points="594.88,-166.35 587.16,-159.09 588.66,-169.58 594.88,-166.35"/>
</g>
<!-- Node25 -->
<g id="node25" class="node">
<title>Node25</title>
<g id="a_node25"><a xlink:href="basic__concepts_8hpp.html" target="_top" xlink:title=" ">
<polygon fill="white" stroke="black" points="893,-201.5 893,-242.5 1025,-242.5 1025,-201.5 893,-201.5"/>
<text text-anchor="start" x="901" y="-230.5" font-family="Helvetica,sans-Serif" font-size="10.00">packages/compile_time</text>
<text text-anchor="start" x="901" y="-219.5" font-family="Helvetica,sans-Serif" font-size="10.00">/packages/concepts/inc</text>
<text text-anchor="middle" x="959" y="-208.5" font-family="Helvetica,sans-Serif" font-size="10.00">/basic_concepts.hpp</text>
</a>
</g>
</g>
<!-- Node24&#45;&gt;Node25 -->
<g id="edge30" class="edge">
<title>Node24&#45;&gt;Node25</title>
<path fill="none" stroke="midnightblue" d="M798.63,-279.43C827.73,-269.19 863.52,-256.59 893.9,-245.9"/>
<polygon fill="midnightblue" stroke="midnightblue" points="895.29,-249.13 903.56,-242.51 892.97,-242.52 895.29,-249.13"/>
</g>
<!-- Node28 -->
<g id="node28" class="node">
<title>Node28</title>
<g id="a_node28"><a xlink:href="Size_8hpp.html" target="_top" xlink:title=" ">
<polygon fill="white" stroke="black" points="727,-201.5 727,-242.5 875,-242.5 875,-201.5 727,-201.5"/>
<text text-anchor="start" x="735" y="-230.5" font-family="Helvetica,sans-Serif" font-size="10.00">packages/compile_time</text>
<text text-anchor="start" x="735" y="-219.5" font-family="Helvetica,sans-Serif" font-size="10.00">/packages/parameter_pack</text>
<text text-anchor="middle" x="801" y="-208.5" font-family="Helvetica,sans-Serif" font-size="10.00">/inc/Size.hpp</text>
</a>
</g>
</g>
<!-- Node24&#45;&gt;Node28 -->
<g id="edge36" class="edge">
<title>Node24&#45;&gt;Node28</title>
<path fill="none" stroke="midnightblue" d="M757.94,-279.43C764.63,-270.65 772.65,-260.15 779.94,-250.59"/>
<polygon fill="midnightblue" stroke="midnightblue" points="782.83,-252.58 786.11,-242.51 777.27,-248.33 782.83,-252.58"/>
</g>
<!-- Node29 -->
<g id="node29" class="node">
<title>Node29</title>
<g id="a_node29"><a xlink:href="Select_8hpp.html" target="_top" xlink:title=" ">
<polygon fill="white" stroke="black" points="1043,-201.5 1043,-242.5 1191,-242.5 1191,-201.5 1043,-201.5"/>
<text text-anchor="start" x="1051" y="-230.5" font-family="Helvetica,sans-Serif" font-size="10.00">packages/compile_time</text>
<text text-anchor="start" x="1051" y="-219.5" font-family="Helvetica,sans-Serif" font-size="10.00">/packages/parameter_pack</text>
<text text-anchor="middle" x="1117" y="-208.5" font-family="Helvetica,sans-Serif" font-size="10.00">/inc/Select.hpp</text>
</a>
</g>
</g>
<!-- Node24&#45;&gt;Node29 -->
<g id="edge38" class="edge">
<title>Node24&#45;&gt;Node29</title>
<path fill="none" stroke="midnightblue" d="M809.05,-287.19C865.9,-276.82 950.34,-260.93 1033.02,-243.17"/>
<polygon fill="midnightblue" stroke="midnightblue" points="1033.79,-246.58 1042.83,-241.05 1032.31,-239.74 1033.79,-246.58"/>
</g>
<!-- Node31 -->
<g id="node31" class="node">
<title>Node31</title>
<g id="a_node31"><a xlink:title=" ">
<polygon fill="white" stroke="#bfbfbf" points="655.5,-212.5 655.5,-231.5 708.5,-231.5 708.5,-212.5 655.5,-212.5"/>
<text text-anchor="middle" x="682" y="-219.5" font-family="Helvetica,sans-Serif" font-size="10.00">iterator</text>
</a>
</g>
</g>
<!-- Node24&#45;&gt;Node31 -->
<g id="edge42" class="edge">
<title>Node24&#45;&gt;Node31</title>
<path fill="none" stroke="midnightblue" d="M727.29,-279.43C717.39,-267.09 704.74,-251.34 695.33,-239.61"/>
<polygon fill="midnightblue" stroke="midnightblue" points="697.85,-237.16 688.86,-231.55 692.39,-241.54 697.85,-237.16"/>
</g>
<!-- Node25&#45;&gt;Node4 -->
<g id="edge31" class="edge">
<title>Node25&#45;&gt;Node4</title>
<path fill="none" stroke="midnightblue" d="M915.55,-201.36C892.98,-191.17 865.59,-178.79 843.48,-168.79"/>
<polygon fill="midnightblue" stroke="midnightblue" points="844.91,-165.6 834.35,-164.67 842.03,-171.98 844.91,-165.6"/>
</g>
<!-- Node25&#45;&gt;Node10 -->
<g id="edge33" class="edge">
<title>Node25&#45;&gt;Node10</title>
<path fill="none" stroke="midnightblue" d="M941.93,-201.24C927.77,-182.35 912.27,-153.86 928,-134 971.37,-79.24 1013.83,-117.18 1081,-98 1084.01,-97.14 1087.12,-96.2 1090.23,-95.22"/>
<polygon fill="midnightblue" stroke="midnightblue" points="1091.59,-98.46 1100.02,-92.03 1089.43,-91.8 1091.59,-98.46"/>
</g>
<!-- Node25&#45;&gt;Node20 -->
<g id="edge32" class="edge">
<title>Node25&#45;&gt;Node20</title>
<path fill="none" stroke="midnightblue" d="M892.76,-203.27C889.8,-202.5 886.87,-201.74 884,-201 819.7,-184.44 803.21,-181.92 739,-165 734.97,-163.94 730.78,-162.81 726.59,-161.67"/>
<polygon fill="midnightblue" stroke="midnightblue" points="727.5,-158.29 716.93,-159 725.64,-165.04 727.5,-158.29"/>
</g>
<!-- Node26 -->
<g id="node26" class="node">
<title>Node26</title>
<g id="a_node26"><a xlink:title=" ">
<polygon fill="white" stroke="#bfbfbf" points="1000,-140 1000,-159 1050,-159 1050,-140 1000,-140"/>
<text text-anchor="middle" x="1025" y="-147" font-family="Helvetica,sans-Serif" font-size="10.00">cstdint</text>
</a>
</g>
</g>
<!-- Node25&#45;&gt;Node26 -->
<g id="edge34" class="edge">
<title>Node25&#45;&gt;Node26</title>
<path fill="none" stroke="midnightblue" d="M977.38,-201.36C987.62,-190.43 1000.2,-176.99 1009.86,-166.67"/>
<polygon fill="midnightblue" stroke="midnightblue" points="1012.6,-168.87 1016.88,-159.17 1007.49,-164.08 1012.6,-168.87"/>
</g>
<!-- Node27 -->
<g id="node27" class="node">
<title>Node27</title>
<g id="a_node27"><a xlink:title=" ">
<polygon fill="white" stroke="#bfbfbf" points="936.5,-140 936.5,-159 981.5,-159 981.5,-140 936.5,-140"/>
<text text-anchor="middle" x="959" y="-147" font-family="Helvetica,sans-Serif" font-size="10.00">utility</text>
</a>
</g>
</g>
<!-- Node25&#45;&gt;Node27 -->
<g id="edge35" class="edge">
<title>Node25&#45;&gt;Node27</title>
<path fill="none" stroke="midnightblue" d="M959,-201.36C959,-191.3 959,-179.1 959,-169.18"/>
<polygon fill="midnightblue" stroke="midnightblue" points="962.5,-169.17 959,-159.17 955.5,-169.17 962.5,-169.17"/>
</g>
<!-- Node28&#45;&gt;Node4 -->
<g id="edge37" class="edge">
<title>Node28&#45;&gt;Node4</title>
<path fill="none" stroke="midnightblue" d="M801.56,-201.36C801.79,-193.23 802.06,-183.7 802.3,-175.11"/>
<polygon fill="midnightblue" stroke="midnightblue" points="805.81,-174.99 802.59,-164.89 798.81,-174.79 805.81,-174.99"/>
</g>
<!-- Node29&#45;&gt;Node4 -->
<g id="edge39" class="edge">
<title>Node29&#45;&gt;Node4</title>
<path fill="none" stroke="midnightblue" d="M1042.81,-203.04C1039.83,-202.35 1036.89,-201.66 1034,-201 978.09,-188.15 914.38,-174.28 868.06,-164.34"/>
<polygon fill="midnightblue" stroke="midnightblue" points="868.66,-160.89 858.15,-162.21 867.19,-167.73 868.66,-160.89"/>
</g>
<!-- Node29&#45;&gt;Node10 -->
<g id="edge40" class="edge">
<title>Node29&#45;&gt;Node10</title>
<path fill="none" stroke="midnightblue" d="M1118,-201.3C1119.35,-174.78 1121.74,-127.94 1123.06,-102.03"/>
<polygon fill="midnightblue" stroke="midnightblue" points="1126.55,-102.2 1123.57,-92.04 1119.56,-101.85 1126.55,-102.2"/>
</g>
<!-- Node30 -->
<g id="node30" class="node">
<title>Node30</title>
<g id="a_node30"><a xlink:title=" ">
<polygon fill="white" stroke="#bfbfbf" points="1068.5,-140 1068.5,-159 1109.5,-159 1109.5,-140 1068.5,-140"/>
<text text-anchor="middle" x="1089" y="-147" font-family="Helvetica,sans-Serif" font-size="10.00">tuple</text>
</a>
</g>
</g>
<!-- Node29&#45;&gt;Node30 -->
<g id="edge41" class="edge">
<title>Node29&#45;&gt;Node30</title>
<path fill="none" stroke="midnightblue" d="M1109.2,-201.36C1105.12,-191.08 1100.15,-178.58 1096.17,-168.54"/>
<polygon fill="midnightblue" stroke="midnightblue" points="1099.39,-167.18 1092.44,-159.17 1092.88,-169.76 1099.39,-167.18"/>
</g>
</g>
</svg>
        <g id="navigator" transform="translate(0 0)" fill="#404254">
                <rect fill="#f2f5e9" fill-opacity="0.5" stroke="#606060" stroke-width=".5" x="0" y="0" width="60" height="60"/>
                <use id="zoomplus" xlink:href="#zoomPlus" x="17" y="9" onmousedown="handleZoom(evt,'in')"/>
                <use id="zoomminus" xlink:href="#zoomMin" x="42" y="9" onmousedown="handleZoom(evt,'out')"/>
                <use id="reset" xlink:href="#resetDef" x="30" y="36" onmousedown="handleReset()"/>
                <g id="arrowUp" xlink:href="#dirArrow" transform="translate(30 24)" onmousedown="handlePan(0,-1)">
                  <use xlink:href="#rim" fill="#404040">
                        <set attributeName="fill" to="#808080" begin="arrowUp.mouseover" end="arrowUp.mouseout"/>
                  </use>
                  <path fill="none" stroke="white" stroke-width="1.5" d="M0,-3.0v7 M-2.5,-0.5L0,-3.0L2.5,-0.5"/>
                </g>
                <g id="arrowRight" xlink:href="#dirArrow" transform="rotate(90) translate(36 -43)" onmousedown="handlePan(1,0)">
                  <use xlink:href="#rim" fill="#404040">
                        <set attributeName="fill" to="#808080" begin="arrowRight.mouseover" end="arrowRight.mouseout"/>
                  </use>
                  <path fill="none" stroke="white" stroke-width="1.5" d="M0,-3.0v7 M-2.5,-0.5L0,-3.0L2.5,-0.5"/>
                </g>
                <g id="arrowDown" xlink:href="#dirArrow" transform="rotate(180) translate(-30 -48)" onmousedown="handlePan(0,1)">
                  <use xlink:href="#rim" fill="#404040">
                        <set attributeName="fill" to="#808080" begin="arrowDown.mouseover" end="arrowDown.mouseout"/>
                  </use>
                  <path fill="none" stroke="white" stroke-width="1.5" d="M0,-3.0v7 M-2.5,-0.5L0,-3.0L2.5,-0.5"/>
                </g>
                <g id="arrowLeft" xlink:href="#dirArrow" transform="rotate(270) translate(-36 17)" onmousedown="handlePan(-1,0)">
                  <use xlink:href="#rim" fill="#404040">
                        <set attributeName="fill" to="#808080" begin="arrowLeft.mouseover" end="arrowLeft.mouseout"/>
                  </use>
                  <path fill="none" stroke="white" stroke-width="1.5" d="M0,-3.0v7 M-2.5,-0.5L0,-3.0L2.5,-0.5"/>
                </g>
        </g>
        <svg viewBox="0 0 15 15" width="100%" height="30px" preserveAspectRatio="xMaxYMin meet">
         <g id="arrow_out" transform="scale(0.3 0.3)">
          <a xlink:href="resize_8hpp__incl_org.svg" target="_base">
           <rect id="button" ry="5" rx="5" y="6" x="6" height="38" width="38"
                fill="#f2f5e9" fill-opacity="0.5" stroke="#606060" stroke-width="1.0"/>
           <path id="arrow"
             d="M 11.500037,31.436501 C 11.940474,20.09759 22.043105,11.32322 32.158766,21.979434 L 37.068811,17.246167 C 37.068811,17.246167 37.088388,32 37.088388,32 L 22.160133,31.978069 C 22.160133,31.978069 26.997745,27.140456 26.997745,27.140456 C 18.528582,18.264221 13.291696,25.230495 11.500037,31.436501 z"
             style="fill:#404040;"/>
          </a>
         </g>
        </svg>
</svg>
