<?xml version="1.0" encoding="UTF-8" standalone="no"?>
<!DOCTYPE svg PUBLIC "-//W3C//DTD SVG 1.1//EN"
 "http://www.w3.org/Graphics/SVG/1.1/DTD/svg11.dtd">
<!-- Generated by graphviz version 2.43.0 (0)
 -->
<!-- Title: Select.hpp Pages: 1 -->
<!--zoomable 532 -->
<svg id="main" version="1.1" xmlns="http://www.w3.org/2000/svg" xmlns:xlink="http://www.w3.org/1999/xlink" xml:space="preserve" onload="init(evt)">
<style type="text/css"><![CDATA[
.edge:hover path { stroke: red; }
.edge:hover polygon { stroke: red; fill: red; }
]]></style>
<script type="text/javascript"><![CDATA[
var edges = document.getElementsByTagName('g');
if (edges && edges.length) {
  for (var i=0;i<edges.length;i++) {
    if (edges[i].id.substr(0,4)=='edge') {
      edges[i].setAttribute('class','edge');
    }
  }
}
]]></script>
        <defs>
                <circle id="rim" cx="0" cy="0" r="7"/>
                <circle id="rim2" cx="0" cy="0" r="3.5"/>
                <g id="zoomPlus">
                        <use xlink:href="#rim" fill="#404040">
                                <set attributeName="fill" to="#808080" begin="zoomplus.mouseover" end="zoomplus.mouseout"/>
                        </use>
                        <path d="M-4,0h8M0,-4v8" fill="none" stroke="white" stroke-width="1.5" pointer-events="none"/>
                </g>
                <g id="zoomMin">
                        <use xlink:href="#rim" fill="#404040">
                                <set attributeName="fill" to="#808080" begin="zoomminus.mouseover" end="zoomminus.mouseout"/>
                        </use>
                        <path d="M-4,0h8" fill="none" stroke="white" stroke-width="1.5" pointer-events="none"/>
                </g>
                <g id="dirArrow">
                        <path fill="none" stroke="white" stroke-width="1.5" d="M0,-3.0v7 M-2.5,-0.5L0,-3.0L2.5,-0.5"/>
                </g>
               <g id="resetDef">
                       <use xlink:href="#rim2" fill="#404040">
                               <set attributeName="fill" to="#808080" begin="reset.mouseover" end="reset.mouseout"/>
                       </use>
               </g>
        </defs>

<script type="text/javascript">
var viewWidth = 1754;
var viewHeight = 532;
var sectionId = 'dynsection-1';
</script>
<script xlink:href="svgpan.js"/>
<svg id="graph" class="graph">
<g id="viewport">
<title>Select.hpp</title>
<polygon fill="white" stroke="transparent" points="-4,4 -4,-528 1749.5,-528 1749.5,4 -4,4"/>
<!-- Node1 -->
<g id="node1" class="node">
<title>Node1</title>
<g id="a_node1"><a xlink:title=" ">
<polygon fill="#bfbfbf" stroke="black" points="90,-504.5 90,-523.5 158,-523.5 158,-504.5 90,-504.5"/>
<text text-anchor="middle" x="124" y="-511.5" font-family="Helvetica,sans-Serif" font-size="10.00">Select.hpp</text>
</a>
</g>
</g>
<!-- Node2 -->
<g id="node2" class="node">
<title>Node2</title>
<g id="a_node2"><a xlink:href="iterator__concepts_8hpp.html" target="_top" xlink:title=" ">
<polygon fill="white" stroke="black" points="902,-448.5 902,-467.5 1024,-467.5 1024,-448.5 902,-448.5"/>
<text text-anchor="middle" x="963" y="-455.5" font-family="Helvetica,sans-Serif" font-size="10.00">iterator_concepts.hpp</text>
</a>
</g>
</g>
<!-- Node1&#45;&gt;Node2 -->
<g id="edge1" class="edge">
<title>Node1&#45;&gt;Node2</title>
<path fill="none" stroke="midnightblue" d="M168.54,-510.13C308.73,-501.11 741.1,-473.28 901.92,-462.93"/>
<polygon fill="midnightblue" stroke="midnightblue" points="167.95,-506.66 158.19,-510.8 168.4,-513.65 167.95,-506.66"/>
</g>
<!-- Node45 -->
<g id="node45" class="node">
<title>Node45</title>
<g id="a_node45"><a xlink:href="logical_8hpp.html" target="_top" xlink:title=" ">
<polygon fill="white" stroke="black" points="0,-392.5 0,-411.5 70,-411.5 70,-392.5 0,-392.5"/>
<text text-anchor="middle" x="35" y="-399.5" font-family="Helvetica,sans-Serif" font-size="10.00">logical.hpp</text>
</a>
</g>
</g>
<!-- Node1&#45;&gt;Node45 -->
<g id="edge57" class="edge">
<title>Node1&#45;&gt;Node45</title>
<path fill="none" stroke="midnightblue" d="M107.73,-497.13C99.42,-488.74 89.33,-478.11 81,-468 65.17,-448.8 48.86,-424.46 40.57,-411.71"/>
<polygon fill="midnightblue" stroke="midnightblue" points="105.47,-499.82 115.03,-504.39 110.41,-494.86 105.47,-499.82"/>
</g>
<!-- Node46 -->
<g id="node46" class="node">
<title>Node46</title>
<g id="a_node46"><a xlink:href="Match_8hpp.html" target="_top" xlink:title=" ">
<polygon fill="white" stroke="black" points="90,-448.5 90,-467.5 158,-467.5 158,-448.5 90,-448.5"/>
<text text-anchor="middle" x="124" y="-455.5" font-family="Helvetica,sans-Serif" font-size="10.00">Match.hpp</text>
</a>
</g>
</g>
<!-- Node1&#45;&gt;Node46 -->
<g id="edge58" class="edge">
<title>Node1&#45;&gt;Node46</title>
<path fill="none" stroke="midnightblue" d="M124,-493.8C124,-484.91 124,-474.78 124,-467.75"/>
<polygon fill="midnightblue" stroke="midnightblue" points="120.5,-494.08 124,-504.08 127.5,-494.08 120.5,-494.08"/>
</g>
<!-- Node3 -->
<g id="node3" class="node">
<title>Node3</title>
<g id="a_node3"><a xlink:href="container__concepts_8hpp.html" target="_top" xlink:title=" ">
<polygon fill="white" stroke="black" points="801,-392.5 801,-411.5 933,-411.5 933,-392.5 801,-392.5"/>
<text text-anchor="middle" x="867" y="-399.5" font-family="Helvetica,sans-Serif" font-size="10.00">container_concepts.hpp</text>
</a>
</g>
</g>
<!-- Node2&#45;&gt;Node3 -->
<g id="edge2" class="edge">
<title>Node2&#45;&gt;Node3</title>
<path fill="none" stroke="midnightblue" d="M938.43,-443.18C920.76,-433.24 897.49,-420.15 882.39,-411.65"/>
<polygon fill="midnightblue" stroke="midnightblue" points="937.14,-446.47 947.58,-448.32 940.58,-440.37 937.14,-446.47"/>
</g>
<!-- Node36 -->
<g id="node36" class="node">
<title>Node36</title>
<g id="a_node36"><a xlink:href="ContiguousTree_8hpp.html" target="_top" xlink:title=" ">
<polygon fill="white" stroke="black" points="447.5,-56.5 447.5,-75.5 560.5,-75.5 560.5,-56.5 447.5,-56.5"/>
<text text-anchor="middle" x="504" y="-63.5" font-family="Helvetica,sans-Serif" font-size="10.00">ContiguousTree.hpp</text>
</a>
</g>
</g>
<!-- Node2&#45;&gt;Node36 -->
<g id="edge56" class="edge">
<title>Node2&#45;&gt;Node36</title>
<path fill="none" stroke="midnightblue" d="M891.61,-454.31C699.85,-446.13 188,-417.68 188,-347 188,-347 188,-347 188,-177 188,-122.76 356.16,-89.12 447.14,-74.89"/>
<polygon fill="midnightblue" stroke="midnightblue" points="891.73,-457.82 901.86,-454.74 892.02,-450.82 891.73,-457.82"/>
</g>
<!-- Node42 -->
<g id="node42" class="node">
<title>Node42</title>
<g id="a_node42"><a xlink:href="polynomial__evaluation_8hpp.html" target="_top" xlink:title=" ">
<polygon fill="white" stroke="black" points="1257.5,-392.5 1257.5,-411.5 1406.5,-411.5 1406.5,-392.5 1257.5,-392.5"/>
<text text-anchor="middle" x="1332" y="-399.5" font-family="Helvetica,sans-Serif" font-size="10.00">polynomial_evaluation.hpp</text>
</a>
</g>
</g>
<!-- Node2&#45;&gt;Node42 -->
<g id="edge53" class="edge">
<title>Node2&#45;&gt;Node42</title>
<path fill="none" stroke="midnightblue" d="M1031.47,-446.98C1101.18,-436.78 1208.06,-421.14 1273.8,-411.52"/>
<polygon fill="midnightblue" stroke="midnightblue" points="1030.86,-443.53 1021.47,-448.44 1031.87,-450.46 1030.86,-443.53"/>
</g>
<!-- Node43 -->
<g id="node43" class="node">
<title>Node43</title>
<g id="a_node43"><a xlink:href="TransformIterator_8hpp.html" target="_top" xlink:title=" ">
<polygon fill="white" stroke="black" points="999,-392.5 999,-411.5 1121,-411.5 1121,-392.5 999,-392.5"/>
<text text-anchor="middle" x="1060" y="-399.5" font-family="Helvetica,sans-Serif" font-size="10.00">TransformIterator.hpp</text>
</a>
</g>
</g>
<!-- Node2&#45;&gt;Node43 -->
<g id="edge54" class="edge">
<title>Node2&#45;&gt;Node43</title>
<path fill="none" stroke="midnightblue" d="M987.34,-443.45C1005.24,-433.48 1029.05,-420.23 1044.45,-411.65"/>
<polygon fill="midnightblue" stroke="midnightblue" points="985.62,-440.4 978.58,-448.32 989.02,-446.52 985.62,-440.4"/>
</g>
<!-- Node44 -->
<g id="node44" class="node">
<title>Node44</title>
<g id="a_node44"><a xlink:href="NoOpIterator_8hpp.html" target="_top" xlink:title=" ">
<polygon fill="white" stroke="black" points="1139,-392.5 1139,-411.5 1239,-411.5 1239,-392.5 1139,-392.5"/>
<text text-anchor="middle" x="1189" y="-399.5" font-family="Helvetica,sans-Serif" font-size="10.00">NoOpIterator.hpp</text>
</a>
</g>
</g>
<!-- Node2&#45;&gt;Node44 -->
<g id="edge55" class="edge">
<title>Node2&#45;&gt;Node44</title>
<path fill="none" stroke="midnightblue" d="M1008.67,-446.09C1051.36,-435.89 1114.25,-420.86 1153.36,-411.52"/>
<polygon fill="midnightblue" stroke="midnightblue" points="1007.72,-442.72 998.81,-448.44 1009.35,-449.52 1007.72,-442.72"/>
</g>
<!-- Node4 -->
<g id="node4" class="node">
<title>Node4</title>
<g id="a_node4"><a xlink:href="container__extension_8hpp.html" target="_top" xlink:title=" ">
<polygon fill="white" stroke="black" points="1330.5,-112.5 1330.5,-131.5 1467.5,-131.5 1467.5,-112.5 1330.5,-112.5"/>
<text text-anchor="middle" x="1399" y="-119.5" font-family="Helvetica,sans-Serif" font-size="10.00">container_extension.hpp</text>
</a>
</g>
</g>
<!-- Node3&#45;&gt;Node4 -->
<g id="edge3" class="edge">
<title>Node3&#45;&gt;Node4</title>
<path fill="none" stroke="midnightblue" d="M943.32,-393.72C1095.46,-378.19 1422,-339.22 1422,-291 1422,-291 1422,-291 1422,-233 1422,-194.56 1408.38,-150.14 1402.1,-131.71"/>
<polygon fill="midnightblue" stroke="midnightblue" points="942.72,-390.27 933.12,-394.76 943.42,-397.23 942.72,-390.27"/>
</g>
<!-- Node5 -->
<g id="node5" class="node">
<title>Node5</title>
<g id="a_node5"><a xlink:href="ParallelFor_8hpp.html" target="_top" xlink:title=" ">
<polygon fill="white" stroke="black" points="833,-56.5 833,-75.5 921,-75.5 921,-56.5 833,-56.5"/>
<text text-anchor="middle" x="877" y="-63.5" font-family="Helvetica,sans-Serif" font-size="10.00">ParallelFor.hpp</text>
</a>
</g>
</g>
<!-- Node3&#45;&gt;Node5 -->
<g id="edge4" class="edge">
<title>Node3&#45;&gt;Node5</title>
<path fill="none" stroke="midnightblue" d="M882.44,-384.75C913.09,-351.23 980.73,-270.62 1005,-188 1021.46,-131.96 942.11,-92.19 900.75,-75.6"/>
<polygon fill="midnightblue" stroke="midnightblue" points="879.74,-382.52 875.5,-392.23 884.87,-387.28 879.74,-382.52"/>
</g>
<!-- Node6 -->
<g id="node6" class="node">
<title>Node6</title>
<g id="a_node6"><a xlink:href="json_8hpp.html" target="_top" xlink:title=" ">
<polygon fill="white" stroke="black" points="296,-168.5 296,-187.5 354,-187.5 354,-168.5 296,-168.5"/>
<text text-anchor="middle" x="325" y="-175.5" font-family="Helvetica,sans-Serif" font-size="10.00">json.hpp</text>
</a>
</g>
</g>
<!-- Node3&#45;&gt;Node6 -->
<g id="edge5" class="edge">
<title>Node3&#45;&gt;Node6</title>
<path fill="none" stroke="midnightblue" d="M866.16,-381.82C864.52,-367.39 860.03,-348.11 848,-336 811.64,-299.38 458.75,-211.47 354.1,-186.01"/>
<polygon fill="midnightblue" stroke="midnightblue" points="862.7,-382.41 866.95,-392.11 869.68,-381.87 862.7,-382.41"/>
</g>
<!-- Node7 -->
<g id="node7" class="node">
<title>Node7</title>
<g id="a_node7"><a xlink:href="OutputStream_8hpp.html" target="_top" xlink:title=" ">
<polygon fill="white" stroke="black" points="1025,-336.5 1025,-355.5 1131,-355.5 1131,-336.5 1025,-336.5"/>
<text text-anchor="middle" x="1078" y="-343.5" font-family="Helvetica,sans-Serif" font-size="10.00">OutputStream.hpp</text>
</a>
</g>
</g>
<!-- Node3&#45;&gt;Node7 -->
<g id="edge6" class="edge">
<title>Node3&#45;&gt;Node7</title>
<path fill="none" stroke="midnightblue" d="M910.14,-389.96C949.99,-379.76 1008.36,-364.82 1044.72,-355.52"/>
<polygon fill="midnightblue" stroke="midnightblue" points="909.25,-386.57 900.43,-392.44 910.99,-393.35 909.25,-386.57"/>
</g>
<!-- Node25 -->
<g id="node25" class="node">
<title>Node25</title>
<g id="a_node25"><a xlink:href="UnstructuredView_8hpp.html" target="_top" xlink:title=" ">
<polygon fill="white" stroke="black" points="872,-168.5 872,-187.5 996,-187.5 996,-168.5 872,-168.5"/>
<text text-anchor="middle" x="934" y="-175.5" font-family="Helvetica,sans-Serif" font-size="10.00">UnstructuredView.hpp</text>
</a>
</g>
</g>
<!-- Node3&#45;&gt;Node25 -->
<g id="edge27" class="edge">
<title>Node3&#45;&gt;Node25</title>
<path fill="none" stroke="midnightblue" d="M872.72,-382.76C875.28,-374.58 878.31,-364.81 881,-356 900.67,-291.57 923.73,-213.74 931.39,-187.85"/>
<polygon fill="midnightblue" stroke="midnightblue" points="869.36,-381.79 869.71,-392.38 876.04,-383.88 869.36,-381.79"/>
</g>
<!-- Node26 -->
<g id="node26" class="node">
<title>Node26</title>
<g id="a_node26"><a xlink:href="MarchingContainer_8hpp.html" target="_top" xlink:title=" ">
<polygon fill="white" stroke="black" points="518.5,-336.5 518.5,-355.5 647.5,-355.5 647.5,-336.5 518.5,-336.5"/>
<text text-anchor="middle" x="583" y="-343.5" font-family="Helvetica,sans-Serif" font-size="10.00">MarchingContainer.hpp</text>
</a>
</g>
</g>
<!-- Node3&#45;&gt;Node26 -->
<g id="edge28" class="edge">
<title>Node3&#45;&gt;Node26</title>
<path fill="none" stroke="midnightblue" d="M811.97,-390.54C758.3,-380.33 677.66,-365 627.79,-355.52"/>
<polygon fill="midnightblue" stroke="midnightblue" points="811.52,-394.01 822,-392.44 812.83,-387.14 811.52,-394.01"/>
</g>
<!-- Node27 -->
<g id="node27" class="node">
<title>Node27</title>
<g id="a_node27"><a xlink:href="resize_8hpp.html" target="_top" xlink:title=" ">
<polygon fill="white" stroke="black" points="394.5,-336.5 394.5,-355.5 461.5,-355.5 461.5,-336.5 394.5,-336.5"/>
<text text-anchor="middle" x="428" y="-343.5" font-family="Helvetica,sans-Serif" font-size="10.00">resize.hpp</text>
</a>
</g>
</g>
<!-- Node3&#45;&gt;Node27 -->
<g id="edge29" class="edge">
<title>Node3&#45;&gt;Node27</title>
<path fill="none" stroke="midnightblue" d="M790.4,-393.8C711.41,-386 584.79,-372.44 476,-356 471.31,-355.29 466.37,-354.46 461.52,-353.6"/>
<polygon fill="midnightblue" stroke="midnightblue" points="790.45,-397.32 800.74,-394.82 791.13,-390.36 790.45,-397.32"/>
</g>
<!-- Node28 -->
<g id="node28" class="node">
<title>Node28</title>
<g id="a_node28"><a xlink:href="STLContainerBase_8hpp.html" target="_top" xlink:title=" ">
<polygon fill="white" stroke="black" points="396,-280.5 396,-299.5 522,-299.5 522,-280.5 396,-280.5"/>
<text text-anchor="middle" x="459" y="-287.5" font-family="Helvetica,sans-Serif" font-size="10.00">STLContainerBase.hpp</text>
</a>
</g>
</g>
<!-- Node3&#45;&gt;Node28 -->
<g id="edge51" class="edge">
<title>Node3&#45;&gt;Node28</title>
<path fill="none" stroke="midnightblue" d="M790.68,-398.13C700.41,-393.58 556.51,-382.35 510,-356 486.54,-342.71 470.03,-313.88 462.92,-299.51"/>
<polygon fill="midnightblue" stroke="midnightblue" points="790.71,-401.64 800.87,-398.63 791.05,-394.65 790.71,-401.64"/>
</g>
<!-- Node40 -->
<g id="node40" class="node">
<title>Node40</title>
<g id="a_node40"><a xlink:href="state__iterator_8hpp.html" target="_top" xlink:title=" ">
<polygon fill="white" stroke="black" points="665.5,-336.5 665.5,-355.5 768.5,-355.5 768.5,-336.5 665.5,-336.5"/>
<text text-anchor="middle" x="717" y="-343.5" font-family="Helvetica,sans-Serif" font-size="10.00">state_iterator.hpp</text>
</a>
</g>
</g>
<!-- Node3&#45;&gt;Node40 -->
<g id="edge50" class="edge">
<title>Node3&#45;&gt;Node40</title>
<path fill="none" stroke="midnightblue" d="M833.78,-389.04C805.55,-378.88 765.74,-364.55 740.66,-355.52"/>
<polygon fill="midnightblue" stroke="midnightblue" points="832.64,-392.35 843.23,-392.44 835.01,-385.76 832.64,-392.35"/>
</g>
<!-- Node41 -->
<g id="node41" class="node">
<title>Node41</title>
<g id="a_node41"><a xlink:href="zip_8hpp.html" target="_top" xlink:title=" ">
<polygon fill="white" stroke="black" points="787,-336.5 787,-355.5 839,-355.5 839,-336.5 787,-336.5"/>
<text text-anchor="middle" x="813" y="-343.5" font-family="Helvetica,sans-Serif" font-size="10.00">zip.hpp</text>
</a>
</g>
</g>
<!-- Node3&#45;&gt;Node41 -->
<g id="edge52" class="edge">
<title>Node3&#45;&gt;Node41</title>
<path fill="none" stroke="midnightblue" d="M851,-385C841.43,-375.43 829.64,-363.64 821.75,-355.75"/>
<polygon fill="midnightblue" stroke="midnightblue" points="848.54,-387.49 858.08,-392.08 853.49,-382.54 848.54,-387.49"/>
</g>
<!-- Node8 -->
<g id="node8" class="node">
<title>Node8</title>
<g id="a_node8"><a xlink:href="ArgParse_8hpp.html" target="_top" xlink:title=" ">
<polygon fill="white" stroke="black" points="1068,-168.5 1068,-187.5 1148,-187.5 1148,-168.5 1068,-168.5"/>
<text text-anchor="middle" x="1108" y="-175.5" font-family="Helvetica,sans-Serif" font-size="10.00">ArgParse.hpp</text>
</a>
</g>
</g>
<!-- Node7&#45;&gt;Node8 -->
<g id="edge7" class="edge">
<title>Node7&#45;&gt;Node8</title>
<path fill="none" stroke="midnightblue" d="M1059.21,-329.66C1051.03,-321.76 1042.34,-311.4 1038,-300 1034.84,-291.69 1035.35,-288.48 1038,-280 1050.16,-241.11 1083.14,-204.03 1099.11,-187.71"/>
<polygon fill="midnightblue" stroke="midnightblue" points="1056.96,-332.34 1066.73,-336.43 1061.64,-327.14 1056.96,-332.34"/>
</g>
<!-- Node15 -->
<g id="node15" class="node">
<title>Node15</title>
<g id="a_node15"><a xlink:href="FileOutputStream_8hpp.html" target="_top" xlink:title=" ">
<polygon fill="white" stroke="black" points="1270.5,-280.5 1270.5,-299.5 1393.5,-299.5 1393.5,-280.5 1270.5,-280.5"/>
<text text-anchor="middle" x="1332" y="-287.5" font-family="Helvetica,sans-Serif" font-size="10.00">FileOutputStream.hpp</text>
</a>
</g>
</g>
<!-- Node7&#45;&gt;Node15 -->
<g id="edge15" class="edge">
<title>Node7&#45;&gt;Node15</title>
<path fill="none" stroke="midnightblue" d="M1128.12,-334.35C1176.12,-324.14 1247.62,-308.94 1291.94,-299.52"/>
<polygon fill="midnightblue" stroke="midnightblue" points="1127.3,-330.94 1118.25,-336.44 1128.76,-337.79 1127.3,-330.94"/>
</g>
<!-- Node23 -->
<g id="node23" class="node">
<title>Node23</title>
<g id="a_node23"><a xlink:href="StreamInterceptor_8hpp.html" target="_top" xlink:title=" ">
<polygon fill="white" stroke="black" points="1127.5,-280.5 1127.5,-299.5 1252.5,-299.5 1252.5,-280.5 1127.5,-280.5"/>
<text text-anchor="middle" x="1190" y="-287.5" font-family="Helvetica,sans-Serif" font-size="10.00">StreamInterceptor.hpp</text>
</a>
</g>
</g>
<!-- Node7&#45;&gt;Node23 -->
<g id="edge25" class="edge">
<title>Node7&#45;&gt;Node23</title>
<path fill="none" stroke="midnightblue" d="M1105.25,-331.86C1126.02,-321.85 1154.02,-308.35 1172.05,-299.65"/>
<polygon fill="midnightblue" stroke="midnightblue" points="1103.48,-328.83 1095.99,-336.32 1106.52,-335.13 1103.48,-328.83"/>
</g>
<!-- Node24 -->
<g id="node24" class="node">
<title>Node24</title>
<g id="a_node24"><a xlink:href="Color_8hpp.html" target="_top" xlink:title=" ">
<polygon fill="white" stroke="black" points="1047,-280.5 1047,-299.5 1109,-299.5 1109,-280.5 1047,-280.5"/>
<text text-anchor="middle" x="1078" y="-287.5" font-family="Helvetica,sans-Serif" font-size="10.00">Color.hpp</text>
</a>
</g>
</g>
<!-- Node7&#45;&gt;Node24 -->
<g id="edge26" class="edge">
<title>Node7&#45;&gt;Node24</title>
<path fill="none" stroke="midnightblue" d="M1078,-325.8C1078,-316.91 1078,-306.78 1078,-299.75"/>
<polygon fill="midnightblue" stroke="midnightblue" points="1074.5,-326.08 1078,-336.08 1081.5,-326.08 1074.5,-326.08"/>
</g>
<!-- Node8&#45;&gt;Node4 -->
<g id="edge13" class="edge">
<title>Node8&#45;&gt;Node4</title>
<path fill="none" stroke="midnightblue" d="M1157.99,-167.72C1212.77,-157.56 1299.9,-141.39 1353.03,-131.53"/>
<polygon fill="midnightblue" stroke="midnightblue" points="1157.35,-164.28 1148.16,-169.55 1158.63,-171.16 1157.35,-164.28"/>
</g>
<!-- Node9 -->
<g id="node9" class="node">
<title>Node9</title>
<g id="a_node9"><a xlink:href="AbsArgument_8hpp.html" target="_top" xlink:title=" ">
<polygon fill="white" stroke="black" points="1208,-112.5 1208,-131.5 1312,-131.5 1312,-112.5 1208,-112.5"/>
<text text-anchor="middle" x="1260" y="-119.5" font-family="Helvetica,sans-Serif" font-size="10.00">AbsArgument.hpp</text>
</a>
</g>
</g>
<!-- Node8&#45;&gt;Node9 -->
<g id="edge8" class="edge">
<title>Node8&#45;&gt;Node9</title>
<path fill="none" stroke="midnightblue" d="M1141.67,-165.04C1170.27,-154.88 1210.61,-140.55 1236.03,-131.52"/>
<polygon fill="midnightblue" stroke="midnightblue" points="1140.34,-161.8 1132.08,-168.44 1142.68,-168.39 1140.34,-161.8"/>
</g>
<!-- Node14 -->
<g id="node14" class="node">
<title>Node14</title>
<g id="a_node14"><a xlink:href="file__system__extension_8hpp.html" target="_top" xlink:title=" ">
<polygon fill="white" stroke="black" points="1042.5,-112.5 1042.5,-131.5 1189.5,-131.5 1189.5,-112.5 1042.5,-112.5"/>
<text text-anchor="middle" x="1116" y="-119.5" font-family="Helvetica,sans-Serif" font-size="10.00">file_system_extension.hpp</text>
</a>
</g>
</g>
<!-- Node8&#45;&gt;Node14 -->
<g id="edge14" class="edge">
<title>Node8&#45;&gt;Node14</title>
<path fill="none" stroke="midnightblue" d="M1110.8,-158.1C1112.13,-149.14 1113.65,-138.86 1114.7,-131.75"/>
<polygon fill="midnightblue" stroke="midnightblue" points="1107.32,-157.68 1109.32,-168.08 1114.25,-158.7 1107.32,-157.68"/>
</g>
<!-- Node10 -->
<g id="node10" class="node">
<title>Node10</title>
<g id="a_node10"><a xlink:href="AggregateArgument_8hpp.html" target="_top" xlink:title=" ">
<polygon fill="white" stroke="black" points="1132,-56.5 1132,-75.5 1268,-75.5 1268,-56.5 1132,-56.5"/>
<text text-anchor="middle" x="1200" y="-63.5" font-family="Helvetica,sans-Serif" font-size="10.00">AggregateArgument.hpp</text>
</a>
</g>
</g>
<!-- Node9&#45;&gt;Node10 -->
<g id="edge9" class="edge">
<title>Node9&#45;&gt;Node10</title>
<path fill="none" stroke="midnightblue" d="M1242.82,-105.54C1232.12,-95.91 1218.74,-83.87 1209.82,-75.83"/>
<polygon fill="midnightblue" stroke="midnightblue" points="1240.59,-108.24 1250.36,-112.32 1245.27,-103.03 1240.59,-108.24"/>
</g>
<!-- Node11 -->
<g id="node11" class="node">
<title>Node11</title>
<g id="a_node11"><a xlink:href="FlagArgument_8hpp.html" target="_top" xlink:title=" ">
<polygon fill="white" stroke="black" points="1286.5,-56.5 1286.5,-75.5 1393.5,-75.5 1393.5,-56.5 1286.5,-56.5"/>
<text text-anchor="middle" x="1340" y="-63.5" font-family="Helvetica,sans-Serif" font-size="10.00">FlagArgument.hpp</text>
</a>
</g>
</g>
<!-- Node9&#45;&gt;Node11 -->
<g id="edge10" class="edge">
<title>Node9&#45;&gt;Node11</title>
<path fill="none" stroke="midnightblue" d="M1281.3,-106.62C1295.92,-96.76 1314.83,-83.99 1327.18,-75.65"/>
<polygon fill="midnightblue" stroke="midnightblue" points="1279.18,-103.83 1272.85,-112.32 1283.1,-109.63 1279.18,-103.83"/>
</g>
<!-- Node12 -->
<g id="node12" class="node">
<title>Node12</title>
<g id="a_node12"><a xlink:href="KeywordArgument_8hpp.html" target="_top" xlink:title=" ">
<polygon fill="white" stroke="black" points="1412,-56.5 1412,-75.5 1540,-75.5 1540,-56.5 1412,-56.5"/>
<text text-anchor="middle" x="1476" y="-63.5" font-family="Helvetica,sans-Serif" font-size="10.00">KeywordArgument.hpp</text>
</a>
</g>
</g>
<!-- Node9&#45;&gt;Node12 -->
<g id="edge11" class="edge">
<title>Node9&#45;&gt;Node12</title>
<path fill="none" stroke="midnightblue" d="M1304.16,-109.96C1344.96,-99.76 1404.71,-84.82 1441.93,-75.52"/>
<polygon fill="midnightblue" stroke="midnightblue" points="1303.08,-106.62 1294.23,-112.44 1304.78,-113.41 1303.08,-106.62"/>
</g>
<!-- Node13 -->
<g id="node13" class="node">
<title>Node13</title>
<g id="a_node13"><a xlink:href="PositionalArgument_8hpp.html" target="_top" xlink:title=" ">
<polygon fill="white" stroke="black" points="980,-56.5 980,-75.5 1114,-75.5 1114,-56.5 980,-56.5"/>
<text text-anchor="middle" x="1047" y="-63.5" font-family="Helvetica,sans-Serif" font-size="10.00">PositionalArgument.hpp</text>
</a>
</g>
</g>
<!-- Node9&#45;&gt;Node13 -->
<g id="edge12" class="edge">
<title>Node9&#45;&gt;Node13</title>
<path fill="none" stroke="midnightblue" d="M1216.45,-109.96C1176.22,-99.76 1117.3,-84.82 1080.59,-75.52"/>
<polygon fill="midnightblue" stroke="midnightblue" points="1215.7,-113.38 1226.25,-112.44 1217.42,-106.59 1215.7,-113.38"/>
</g>
<!-- Node16 -->
<g id="node16" class="node">
<title>Node16</title>
<g id="a_node16"><a xlink:href="Logger_8hpp.html" target="_top" xlink:title=" ">
<polygon fill="white" stroke="black" points="1546,-224.5 1546,-243.5 1616,-243.5 1616,-224.5 1546,-224.5"/>
<text text-anchor="middle" x="1581" y="-231.5" font-family="Helvetica,sans-Serif" font-size="10.00">Logger.hpp</text>
</a>
</g>
</g>
<!-- Node15&#45;&gt;Node16 -->
<g id="edge16" class="edge">
<title>Node15&#45;&gt;Node16</title>
<path fill="none" stroke="midnightblue" d="M1381.42,-278.28C1429.96,-267.75 1502.8,-251.96 1545.76,-242.64"/>
<polygon fill="midnightblue" stroke="midnightblue" points="1380.49,-274.9 1371.45,-280.44 1381.97,-281.74 1380.49,-274.9"/>
</g>
<!-- Node17 -->
<g id="node17" class="node">
<title>Node17</title>
<g id="a_node17"><a xlink:href="LogBlock_8hpp.html" target="_top" xlink:title=" ">
<polygon fill="white" stroke="black" points="1599,-168.5 1599,-187.5 1681,-187.5 1681,-168.5 1599,-168.5"/>
<text text-anchor="middle" x="1640" y="-175.5" font-family="Helvetica,sans-Serif" font-size="10.00">LogBlock.hpp</text>
</a>
</g>
</g>
<!-- Node16&#45;&gt;Node17 -->
<g id="edge17" class="edge">
<title>Node16&#45;&gt;Node17</title>
<path fill="none" stroke="midnightblue" d="M1597.89,-217.54C1608.41,-207.91 1621.57,-195.87 1630.35,-187.83"/>
<polygon fill="midnightblue" stroke="midnightblue" points="1595.49,-214.99 1590.48,-224.32 1600.22,-220.15 1595.49,-214.99"/>
</g>
<!-- Node18 -->
<g id="node18" class="node">
<title>Node18</title>
<g id="a_node18"><a xlink:href="Loggee_8hpp.html" target="_top" xlink:title=" ">
<polygon fill="white" stroke="black" points="1672.5,-112.5 1672.5,-131.5 1745.5,-131.5 1745.5,-112.5 1672.5,-112.5"/>
<text text-anchor="middle" x="1709" y="-119.5" font-family="Helvetica,sans-Serif" font-size="10.00">Loggee.hpp</text>
</a>
</g>
</g>
<!-- Node16&#45;&gt;Node18 -->
<g id="edge21" class="edge">
<title>Node16&#45;&gt;Node18</title>
<path fill="none" stroke="midnightblue" d="M1625.93,-224.1C1648.02,-217.56 1673.39,-206.49 1690,-188 1704.46,-171.91 1707.95,-145.37 1708.77,-131.71"/>
<polygon fill="midnightblue" stroke="midnightblue" points="1624.79,-220.78 1616.06,-226.79 1626.63,-227.54 1624.79,-220.78"/>
</g>
<!-- Node21 -->
<g id="node21" class="node">
<title>Node21</title>
<g id="a_node21"><a xlink:href="LoggerSingleton_8hpp.html" target="_top" xlink:title=" ">
<polygon fill="white" stroke="black" points="1465,-168.5 1465,-187.5 1581,-187.5 1581,-168.5 1465,-168.5"/>
<text text-anchor="middle" x="1523" y="-175.5" font-family="Helvetica,sans-Serif" font-size="10.00">LoggerSingleton.hpp</text>
</a>
</g>
</g>
<!-- Node16&#45;&gt;Node21 -->
<g id="edge22" class="edge">
<title>Node16&#45;&gt;Node21</title>
<path fill="none" stroke="midnightblue" d="M1564.09,-217.25C1553.8,-207.67 1541.03,-195.79 1532.49,-187.83"/>
<polygon fill="midnightblue" stroke="midnightblue" points="1561.98,-220.07 1571.68,-224.32 1566.75,-214.95 1561.98,-220.07"/>
</g>
<!-- Node17&#45;&gt;Node18 -->
<g id="edge18" class="edge">
<title>Node17&#45;&gt;Node18</title>
<path fill="none" stroke="midnightblue" d="M1659.04,-162.1C1671.46,-152.38 1687.24,-140.03 1697.71,-131.83"/>
<polygon fill="midnightblue" stroke="midnightblue" points="1656.8,-159.4 1651.09,-168.32 1661.12,-164.92 1656.8,-159.4"/>
</g>
<!-- Node19 -->
<g id="node19" class="node">
<title>Node19</title>
<g id="a_node19"><a xlink:href="testing_8hpp.html" target="_top" xlink:title=" ">
<polygon fill="white" stroke="black" points="1582.5,-112.5 1582.5,-131.5 1653.5,-131.5 1653.5,-112.5 1582.5,-112.5"/>
<text text-anchor="middle" x="1618" y="-119.5" font-family="Helvetica,sans-Serif" font-size="10.00">testing.hpp</text>
</a>
</g>
</g>
<!-- Node17&#45;&gt;Node19 -->
<g id="edge19" class="edge">
<title>Node17&#45;&gt;Node19</title>
<path fill="none" stroke="midnightblue" d="M1632.54,-158.69C1628.83,-149.59 1624.52,-139.01 1621.57,-131.75"/>
<polygon fill="midnightblue" stroke="midnightblue" points="1629.35,-160.14 1636.37,-168.08 1635.84,-157.5 1629.35,-160.14"/>
</g>
<!-- Node20 -->
<g id="node20" class="node">
<title>Node20</title>
<g id="a_node20"><a xlink:href="essentials_8hpp.html" target="_top" xlink:title=" ">
<polygon fill="white" stroke="black" points="1574.5,-56.5 1574.5,-75.5 1661.5,-75.5 1661.5,-56.5 1574.5,-56.5"/>
<text text-anchor="middle" x="1618" y="-63.5" font-family="Helvetica,sans-Serif" font-size="10.00">essentials.hpp</text>
</a>
</g>
</g>
<!-- Node19&#45;&gt;Node20 -->
<g id="edge20" class="edge">
<title>Node19&#45;&gt;Node20</title>
<path fill="none" stroke="midnightblue" d="M1618,-101.8C1618,-92.91 1618,-82.78 1618,-75.75"/>
<polygon fill="midnightblue" stroke="midnightblue" points="1614.5,-102.08 1618,-112.08 1621.5,-102.08 1614.5,-102.08"/>
</g>
<!-- Node21&#45;&gt;Node19 -->
<g id="edge23" class="edge">
<title>Node21&#45;&gt;Node19</title>
<path fill="none" stroke="midnightblue" d="M1547.32,-163.18C1564.8,-153.24 1587.83,-140.15 1602.77,-131.65"/>
<polygon fill="midnightblue" stroke="midnightblue" points="1545.23,-160.34 1538.26,-168.32 1548.69,-166.43 1545.23,-160.34"/>
</g>
<!-- Node22 -->
<g id="node22" class="node">
<title>Node22</title>
<g id="a_node22"><a xlink:href="warning_8hpp.html" target="_top" xlink:title=" ">
<polygon fill="white" stroke="black" points="1485.5,-112.5 1485.5,-131.5 1562.5,-131.5 1562.5,-112.5 1485.5,-112.5"/>
<text text-anchor="middle" x="1524" y="-119.5" font-family="Helvetica,sans-Serif" font-size="10.00">warning.hpp</text>
</a>
</g>
</g>
<!-- Node21&#45;&gt;Node22 -->
<g id="edge24" class="edge">
<title>Node21&#45;&gt;Node22</title>
<path fill="none" stroke="midnightblue" d="M1523.36,-157.8C1523.52,-148.91 1523.71,-138.78 1523.84,-131.75"/>
<polygon fill="midnightblue" stroke="midnightblue" points="1519.85,-158.02 1523.17,-168.08 1526.85,-158.15 1519.85,-158.02"/>
</g>
<!-- Node27&#45;&gt;Node28 -->
<g id="edge30" class="edge">
<title>Node27&#45;&gt;Node28</title>
<path fill="none" stroke="midnightblue" d="M438.18,-327.27C443.47,-318.05 449.72,-307.17 453.98,-299.75"/>
<polygon fill="midnightblue" stroke="midnightblue" points="435.06,-325.67 433.12,-336.08 441.13,-329.15 435.06,-325.67"/>
</g>
<!-- Node29 -->
<g id="node29" class="node">
<title>Node29</title>
<g id="a_node29"><a xlink:href="DynamicArray_8hpp.html" target="_top" xlink:title=" ">
<polygon fill="white" stroke="black" points="768,-224.5 768,-243.5 874,-243.5 874,-224.5 768,-224.5"/>
<text text-anchor="middle" x="821" y="-231.5" font-family="Helvetica,sans-Serif" font-size="10.00">DynamicArray.hpp</text>
</a>
</g>
</g>
<!-- Node28&#45;&gt;Node29 -->
<g id="edge31" class="edge">
<title>Node28&#45;&gt;Node29</title>
<path fill="none" stroke="midnightblue" d="M526.37,-278.95C596.13,-268.54 703.69,-252.5 767.74,-242.94"/>
<polygon fill="midnightblue" stroke="midnightblue" points="525.73,-275.51 516.36,-280.44 526.77,-282.43 525.73,-275.51"/>
</g>
<!-- Node38 -->
<g id="node38" class="node">
<title>Node38</title>
<g id="a_node38"><a xlink:href="StaticArray_8hpp.html" target="_top" xlink:title=" ">
<polygon fill="white" stroke="black" points="329,-224.5 329,-243.5 419,-243.5 419,-224.5 329,-224.5"/>
<text text-anchor="middle" x="374" y="-231.5" font-family="Helvetica,sans-Serif" font-size="10.00">StaticArray.hpp</text>
</a>
</g>
</g>
<!-- Node28&#45;&gt;Node38 -->
<g id="edge46" class="edge">
<title>Node28&#45;&gt;Node38</title>
<path fill="none" stroke="midnightblue" d="M436.81,-274.9C421.22,-265 400.87,-252.07 387.62,-243.65"/>
<polygon fill="midnightblue" stroke="midnightblue" points="435.03,-277.92 445.34,-280.32 438.78,-272.01 435.03,-277.92"/>
</g>
<!-- Node29&#45;&gt;Node5 -->
<g id="edge33" class="edge">
<title>Node29&#45;&gt;Node5</title>
<path fill="none" stroke="midnightblue" d="M827.28,-214.39C839.36,-178.59 865.41,-101.34 874.11,-75.57"/>
<polygon fill="midnightblue" stroke="midnightblue" points="823.89,-213.48 824.01,-224.08 830.52,-215.72 823.89,-213.48"/>
</g>
<!-- Node29&#45;&gt;Node8 -->
<g id="edge32" class="edge">
<title>Node29&#45;&gt;Node8</title>
<path fill="none" stroke="midnightblue" d="M876.6,-222.54C932.71,-211.98 1017.98,-195.94 1067.83,-186.56"/>
<polygon fill="midnightblue" stroke="midnightblue" points="875.66,-219.15 866.48,-224.44 876.95,-226.03 875.66,-219.15"/>
</g>
<!-- Node29&#45;&gt;Node25 -->
<g id="edge42" class="edge">
<title>Node29&#45;&gt;Node25</title>
<path fill="none" stroke="midnightblue" d="M848,-220.1C869.11,-210.01 897.86,-196.27 916.18,-187.52"/>
<polygon fill="midnightblue" stroke="midnightblue" points="846.42,-216.97 838.91,-224.44 849.44,-223.29 846.42,-216.97"/>
</g>
<!-- Node30 -->
<g id="node30" class="node">
<title>Node30</title>
<g id="a_node30"><a xlink:href="ThreadLocal_8hpp.html" target="_top" xlink:title=" ">
<polygon fill="white" stroke="black" points="532.5,-168.5 532.5,-187.5 629.5,-187.5 629.5,-168.5 532.5,-168.5"/>
<text text-anchor="middle" x="581" y="-175.5" font-family="Helvetica,sans-Serif" font-size="10.00">ThreadLocal.hpp</text>
</a>
</g>
</g>
<!-- Node29&#45;&gt;Node30 -->
<g id="edge34" class="edge">
<title>Node29&#45;&gt;Node30</title>
<path fill="none" stroke="midnightblue" d="M773.08,-222.22C727.73,-212.01 660.56,-196.9 618.85,-187.52"/>
<polygon fill="midnightblue" stroke="midnightblue" points="772.45,-225.66 782.97,-224.44 773.98,-218.83 772.45,-225.66"/>
</g>
<!-- Node31 -->
<g id="node31" class="node">
<title>Node31</title>
<g id="a_node31"><a xlink:href="ThreadPoolStorage_8hpp.html" target="_top" xlink:title=" ">
<polygon fill="white" stroke="black" points="648,-168.5 648,-187.5 778,-187.5 778,-168.5 648,-168.5"/>
<text text-anchor="middle" x="713" y="-175.5" font-family="Helvetica,sans-Serif" font-size="10.00">ThreadPoolStorage.hpp</text>
</a>
</g>
</g>
<!-- Node29&#45;&gt;Node31 -->
<g id="edge35" class="edge">
<title>Node29&#45;&gt;Node31</title>
<path fill="none" stroke="midnightblue" d="M794.45,-219.73C774.45,-209.73 747.61,-196.31 730.31,-187.65"/>
<polygon fill="midnightblue" stroke="midnightblue" points="793.14,-222.98 803.65,-224.32 796.27,-216.72 793.14,-222.98"/>
</g>
<!-- Node35 -->
<g id="node35" class="node">
<title>Node35</title>
<g id="a_node35"><a xlink:href="abstree_8hpp.html" target="_top" xlink:title=" ">
<polygon fill="white" stroke="black" points="741,-56.5 741,-75.5 815,-75.5 815,-56.5 741,-56.5"/>
<text text-anchor="middle" x="778" y="-63.5" font-family="Helvetica,sans-Serif" font-size="10.00">abstree.hpp</text>
</a>
</g>
</g>
<!-- Node29&#45;&gt;Node35 -->
<g id="edge43" class="edge">
<title>Node29&#45;&gt;Node35</title>
<path fill="none" stroke="midnightblue" d="M816.06,-213.93C806.73,-177.92 786.87,-101.23 780.22,-75.57"/>
<polygon fill="midnightblue" stroke="midnightblue" points="812.79,-215.27 818.69,-224.08 819.57,-213.52 812.79,-215.27"/>
</g>
<!-- Node29&#45;&gt;Node36 -->
<g id="edge44" class="edge">
<title>Node29&#45;&gt;Node36</title>
<path fill="none" stroke="midnightblue" d="M757.91,-224.38C671.95,-212.5 528.16,-192.1 524,-188 492.78,-157.19 498.85,-97.62 502.42,-75.52"/>
<polygon fill="midnightblue" stroke="midnightblue" points="757.45,-227.85 767.83,-225.75 758.41,-220.91 757.45,-227.85"/>
</g>
<!-- Node37 -->
<g id="node37" class="node">
<title>Node37</title>
<g id="a_node37"><a xlink:href="stl__extension_8hpp.html" target="_top" xlink:title=" ">
<polygon fill="white" stroke="black" points="372.5,-168.5 372.5,-187.5 475.5,-187.5 475.5,-168.5 372.5,-168.5"/>
<text text-anchor="middle" x="424" y="-175.5" font-family="Helvetica,sans-Serif" font-size="10.00">stl_extension.hpp</text>
</a>
</g>
</g>
<!-- Node29&#45;&gt;Node37 -->
<g id="edge45" class="edge">
<title>Node29&#45;&gt;Node37</title>
<path fill="none" stroke="midnightblue" d="M758.05,-224.45C691.46,-215.4 583.33,-200.71 490,-188 485.3,-187.36 480.42,-186.69 475.52,-186.03"/>
<polygon fill="midnightblue" stroke="midnightblue" points="757.59,-227.92 767.97,-225.8 758.53,-220.98 757.59,-227.92"/>
</g>
<!-- Node32 -->
<g id="node32" class="node">
<title>Node32</title>
<g id="a_node32"><a xlink:href="ThreadPool_8hpp.html" target="_top" xlink:title=" ">
<polygon fill="white" stroke="black" points="667,-112.5 667,-131.5 759,-131.5 759,-112.5 667,-112.5"/>
<text text-anchor="middle" x="713" y="-119.5" font-family="Helvetica,sans-Serif" font-size="10.00">ThreadPool.hpp</text>
</a>
</g>
</g>
<!-- Node31&#45;&gt;Node32 -->
<g id="edge36" class="edge">
<title>Node31&#45;&gt;Node32</title>
<path fill="none" stroke="midnightblue" d="M713,-157.8C713,-148.91 713,-138.78 713,-131.75"/>
<polygon fill="midnightblue" stroke="midnightblue" points="709.5,-158.08 713,-168.08 716.5,-158.08 709.5,-158.08"/>
</g>
<!-- Node32&#45;&gt;Node5 -->
<g id="edge37" class="edge">
<title>Node32&#45;&gt;Node5</title>
<path fill="none" stroke="midnightblue" d="M748.52,-109.3C779.42,-99.13 823.47,-84.62 851.14,-75.52"/>
<polygon fill="midnightblue" stroke="midnightblue" points="747.39,-105.99 738.99,-112.44 749.58,-112.64 747.39,-105.99"/>
</g>
<!-- Node33 -->
<g id="node33" class="node">
<title>Node33</title>
<g id="a_node33"><a xlink:href="ResourceLoader_8hpp.html" target="_top" xlink:title=" ">
<polygon fill="white" stroke="black" points="607.5,-56.5 607.5,-75.5 722.5,-75.5 722.5,-56.5 607.5,-56.5"/>
<text text-anchor="middle" x="665" y="-63.5" font-family="Helvetica,sans-Serif" font-size="10.00">ResourceLoader.hpp</text>
</a>
</g>
</g>
<!-- Node32&#45;&gt;Node33 -->
<g id="edge38" class="edge">
<title>Node32&#45;&gt;Node33</title>
<path fill="none" stroke="midnightblue" d="M698.27,-104.43C689.86,-94.97 679.65,-83.48 672.78,-75.75"/>
<polygon fill="midnightblue" stroke="midnightblue" points="695.81,-106.93 705.07,-112.08 701.05,-102.28 695.81,-106.93"/>
</g>
<!-- Node32&#45;&gt;Node35 -->
<g id="edge40" class="edge">
<title>Node32&#45;&gt;Node35</title>
<path fill="none" stroke="midnightblue" d="M731.27,-105.82C742.92,-96.15 757.6,-83.95 767.37,-75.83"/>
<polygon fill="midnightblue" stroke="midnightblue" points="728.9,-103.24 723.44,-112.32 733.37,-108.63 728.9,-103.24"/>
</g>
<!-- Node32&#45;&gt;Node36 -->
<g id="edge41" class="edge">
<title>Node32&#45;&gt;Node36</title>
<path fill="none" stroke="midnightblue" d="M670.02,-109.89C630.55,-99.7 572.9,-84.8 536.96,-75.52"/>
<polygon fill="midnightblue" stroke="midnightblue" points="669.33,-113.33 679.88,-112.44 671.08,-106.55 669.33,-113.33"/>
</g>
<!-- Node34 -->
<g id="node34" class="node">
<title>Node34</title>
<g id="a_node34"><a xlink:href="ResourceQueue_8hpp.html" target="_top" xlink:title=" ">
<polygon fill="white" stroke="black" points="608,-0.5 608,-19.5 722,-19.5 722,-0.5 608,-0.5"/>
<text text-anchor="middle" x="665" y="-7.5" font-family="Helvetica,sans-Serif" font-size="10.00">ResourceQueue.hpp</text>
</a>
</g>
</g>
<!-- Node33&#45;&gt;Node34 -->
<g id="edge39" class="edge">
<title>Node33&#45;&gt;Node34</title>
<path fill="none" stroke="midnightblue" d="M665,-45.8C665,-36.91 665,-26.78 665,-19.75"/>
<polygon fill="midnightblue" stroke="midnightblue" points="661.5,-46.08 665,-56.08 668.5,-46.08 661.5,-46.08"/>
</g>
<!-- Node38&#45;&gt;Node6 -->
<g id="edge47" class="edge">
<title>Node38&#45;&gt;Node6</title>
<path fill="none" stroke="midnightblue" d="M358.97,-216.43C350.38,-206.97 339.96,-195.48 332.94,-187.75"/>
<polygon fill="midnightblue" stroke="midnightblue" points="356.6,-219.03 365.91,-224.08 361.78,-214.33 356.6,-219.03"/>
</g>
<!-- Node38&#45;&gt;Node37 -->
<g id="edge49" class="edge">
<title>Node38&#45;&gt;Node37</title>
<path fill="none" stroke="midnightblue" d="M389.08,-216.72C397.89,-207.2 408.67,-195.56 415.9,-187.75"/>
<polygon fill="midnightblue" stroke="midnightblue" points="386.48,-214.37 382.26,-224.08 391.62,-219.12 386.48,-214.37"/>
</g>
<!-- Node39 -->
<g id="node39" class="node">
<title>Node39</title>
<g id="a_node39"><a xlink:href="base_8hpp.html" target="_top" xlink:title=" ">
<polygon fill="white" stroke="black" points="216.5,-168.5 216.5,-187.5 277.5,-187.5 277.5,-168.5 216.5,-168.5"/>
<text text-anchor="middle" x="247" y="-175.5" font-family="Helvetica,sans-Serif" font-size="10.00">base.hpp</text>
</a>
</g>
</g>
<!-- Node38&#45;&gt;Node39 -->
<g id="edge48" class="edge">
<title>Node38&#45;&gt;Node39</title>
<path fill="none" stroke="midnightblue" d="M344.61,-220.5C320.8,-210.38 287.89,-196.39 267.03,-187.52"/>
<polygon fill="midnightblue" stroke="midnightblue" points="343.3,-223.75 353.88,-224.44 346.04,-217.31 343.3,-223.75"/>
</g>
<!-- Node46&#45;&gt;Node8 -->
<g id="edge59" class="edge">
<title>Node46&#45;&gt;Node8</title>
<path fill="none" stroke="midnightblue" d="M168.43,-457C329.38,-456.66 875.93,-452.52 942,-412 1024.33,-361.5 987.75,-297 1051,-224 1063.71,-209.33 1081.76,-196.02 1094.12,-187.75"/>
<polygon fill="midnightblue" stroke="midnightblue" points="168.39,-453.5 158.4,-457.02 168.4,-460.5 168.39,-453.5"/>
</g>
<!-- Node46&#45;&gt;Node45 -->
<g id="edge60" class="edge">
<title>Node46&#45;&gt;Node45</title>
<path fill="none" stroke="midnightblue" d="M100.76,-442.9C84.44,-433 63.13,-420.07 49.26,-411.65"/>
<polygon fill="midnightblue" stroke="midnightblue" points="99.34,-446.13 109.7,-448.32 102.97,-440.14 99.34,-446.13"/>
</g>
<!-- Node47 -->
<g id="node47" class="node">
<title>Node47</title>
<g id="a_node47"><a xlink:href="Unique_8hpp.html" target="_top" xlink:title=" ">
<polygon fill="white" stroke="black" points="88,-392.5 88,-411.5 160,-411.5 160,-392.5 88,-392.5"/>
<text text-anchor="middle" x="124" y="-399.5" font-family="Helvetica,sans-Serif" font-size="10.00">Unique.hpp</text>
</a>
</g>
</g>
<!-- Node46&#45;&gt;Node47 -->
<g id="edge61" class="edge">
<title>Node46&#45;&gt;Node47</title>
<path fill="none" stroke="midnightblue" d="M124,-437.8C124,-428.91 124,-418.78 124,-411.75"/>
<polygon fill="midnightblue" stroke="midnightblue" points="120.5,-438.08 124,-448.08 127.5,-438.08 120.5,-438.08"/>
</g>
</g>
</svg>
        <g id="navigator" transform="translate(0 0)" fill="#404254">
                <rect fill="#f2f5e9" fill-opacity="0.5" stroke="#606060" stroke-width=".5" x="0" y="0" width="60" height="60"/>
                <use id="zoomplus" xlink:href="#zoomPlus" x="17" y="9" onmousedown="handleZoom(evt,'in')"/>
                <use id="zoomminus" xlink:href="#zoomMin" x="42" y="9" onmousedown="handleZoom(evt,'out')"/>
                <use id="reset" xlink:href="#resetDef" x="30" y="36" onmousedown="handleReset()"/>
                <g id="arrowUp" xlink:href="#dirArrow" transform="translate(30 24)" onmousedown="handlePan(0,-1)">
                  <use xlink:href="#rim" fill="#404040">
                        <set attributeName="fill" to="#808080" begin="arrowUp.mouseover" end="arrowUp.mouseout"/>
                  </use>
                  <path fill="none" stroke="white" stroke-width="1.5" d="M0,-3.0v7 M-2.5,-0.5L0,-3.0L2.5,-0.5"/>
                </g>
                <g id="arrowRight" xlink:href="#dirArrow" transform="rotate(90) translate(36 -43)" onmousedown="handlePan(1,0)">
                  <use xlink:href="#rim" fill="#404040">
                        <set attributeName="fill" to="#808080" begin="arrowRight.mouseover" end="arrowRight.mouseout"/>
                  </use>
                  <path fill="none" stroke="white" stroke-width="1.5" d="M0,-3.0v7 M-2.5,-0.5L0,-3.0L2.5,-0.5"/>
                </g>
                <g id="arrowDown" xlink:href="#dirArrow" transform="rotate(180) translate(-30 -48)" onmousedown="handlePan(0,1)">
                  <use xlink:href="#rim" fill="#404040">
                        <set attributeName="fill" to="#808080" begin="arrowDown.mouseover" end="arrowDown.mouseout"/>
                  </use>
                  <path fill="none" stroke="white" stroke-width="1.5" d="M0,-3.0v7 M-2.5,-0.5L0,-3.0L2.5,-0.5"/>
                </g>
                <g id="arrowLeft" xlink:href="#dirArrow" transform="rotate(270) translate(-36 17)" onmousedown="handlePan(-1,0)">
                  <use xlink:href="#rim" fill="#404040">
                        <set attributeName="fill" to="#808080" begin="arrowLeft.mouseover" end="arrowLeft.mouseout"/>
                  </use>
                  <path fill="none" stroke="white" stroke-width="1.5" d="M0,-3.0v7 M-2.5,-0.5L0,-3.0L2.5,-0.5"/>
                </g>
        </g>
        <svg viewBox="0 0 15 15" width="100%" height="30px" preserveAspectRatio="xMaxYMin meet">
         <g id="arrow_out" transform="scale(0.3 0.3)">
          <a xlink:href="Select_8hpp__dep__incl_org.svg" target="_base">
           <rect id="button" ry="5" rx="5" y="6" x="6" height="38" width="38"
                fill="#f2f5e9" fill-opacity="0.5" stroke="#606060" stroke-width="1.0"/>
           <path id="arrow"
             d="M 11.500037,31.436501 C 11.940474,20.09759 22.043105,11.32322 32.158766,21.979434 L 37.068811,17.246167 C 37.068811,17.246167 37.088388,32 37.088388,32 L 22.160133,31.978069 C 22.160133,31.978069 26.997745,27.140456 26.997745,27.140456 C 18.528582,18.264221 13.291696,25.230495 11.500037,31.436501 z"
             style="fill:#404040;"/>
          </a>
         </g>
        </svg>
</svg>
