<?xml version="1.0" encoding="UTF-8" standalone="no"?>
<!DOCTYPE svg PUBLIC "-//W3C//DTD SVG 1.1//EN"
 "http://www.w3.org/Graphics/SVG/1.1/DTD/svg11.dtd">
<!-- Generated by graphviz version 2.43.0 (0)
 -->
<!-- Title: Serializer.hpp Pages: 1 -->
<!--zoomable 434 -->

<svg id="main" version="1.1" xmlns="http://www.w3.org/2000/svg" xmlns:xlink="http://www.w3.org/1999/xlink" xml:space="preserve" onload="init(evt)">
<style type="text/css"><![CDATA[
.node, .edge {opacity: 0.7;}
.node.selected, .edge.selected {opacity: 1;}
.edge:hover path { stroke: red; }
.edge:hover polygon { stroke: red; fill: red; }
]]></style>

<defs>
  <circle id="rim" cx="0" cy="0" r="7"/>
  <circle id="rim2" cx="0" cy="0" r="3.5"/>
  <g id="zoomPlus">
    <use xlink:href="#rim" fill="#404040"><set attributeName="fill" to="#808080" begin="zoomplus.mouseover" end="zoomplus.mouseout"/></use>
    <path d="M-4,0h8M0,-4v8" fill="none" stroke="white" stroke-width="1.5" pointer-events="none"/>
  </g>
  <g id="zoomMin">
    <use xlink:href="#rim" fill="#404040"><set attributeName="fill" to="#808080" begin="zoomminus.mouseover" end="zoomminus.mouseout"/></use>
    <path d="M-4,0h8" fill="none" stroke="white" stroke-width="1.5" pointer-events="none"/>
  </g>
  <g id="arrowUp" transform="translate(30 24)">
    <use xlink:href="#rim"/>
    <path pointer-events="none" fill="none" stroke="white" stroke-width="1.5" d="M0,-3.0v7 M-2.5,-0.5L0,-3.0L2.5,-0.5"/>
  </g>
  <g id="arrowRight" transform="rotate(90) translate(36 -43)">
    <use xlink:href="#rim"/>
    <path pointer-events="none" fill="none" stroke="white" stroke-width="1.5" d="M0,-3.0v7 M-2.5,-0.5L0,-3.0L2.5,-0.5"/>
  </g>
  <g id="arrowDown" transform="rotate(180) translate(-30 -48)">
    <use xlink:href="#rim"/>
    <path pointer-events="none" fill="none" stroke="white" stroke-width="1.5" d="M0,-3.0v7 M-2.5,-0.5L0,-3.0L2.5,-0.5"/>
  </g>
  <g id="arrowLeft" transform="rotate(270) translate(-36 17)">
    <use xlink:href="#rim"/>
    <path pointer-events="none" fill="none" stroke="white" stroke-width="1.5" d="M0,-3.0v7 M-2.5,-0.5L0,-3.0L2.5,-0.5"/>
  </g>
  <g id="resetDef">
    <use xlink:href="#rim2" fill="#404040"><set attributeName="fill" to="#808080" begin="reset.mouseover" end="reset.mouseout"/></use>
  </g>
</defs>
<script type="application/ecmascript">
var viewWidth = 1045;
var viewHeight = 434;
var sectionId = 'dynsection-0';
</script>
<script type="application/ecmascript" xlink:href="svg.min.js"/>
<svg id="graph" class="graph">
<g id="viewport">
<title>Serializer.hpp</title>
<!-- Node1 -->
<g id="Node000001" class="node">
<title>Node1</title>
<g id="a_Node000001"><a xlink:title=" ">
<polygon fill="#999999" stroke="#666666" points="488.5,-426 405.5,-426 405.5,-407 488.5,-407 488.5,-426"/>
<text text-anchor="middle" x="447" y="-414" font-family="Helvetica,sans-Serif" font-size="10.00">Serializer.hpp</text>
</a>
</g>
</g>
<!-- Node2 -->
<g id="Node000002" class="node">
<title>Node2</title>
<g id="a_Node000002"><a xlink:href="basic__concepts_8hpp.html" target="_top" xlink:title=" ">
<polygon fill="white" stroke="#666666" points="221,-305 89,-305 89,-264 221,-264 221,-305"/>
<text text-anchor="start" x="97" y="-293" font-family="Helvetica,sans-Serif" font-size="10.00">packages/compile_time</text>
<text text-anchor="start" x="97" y="-282" font-family="Helvetica,sans-Serif" font-size="10.00">/packages/concepts/inc</text>
<text text-anchor="middle" x="155" y="-271" font-family="Helvetica,sans-Serif" font-size="10.00">/basic_concepts.hpp</text>
</a>
</g>
</g>
<!-- Node1&#45;&gt;Node2 -->
<g id="edge1_Node000001_Node000002" class="edge">
<title>Node1&#45;&gt;Node2</title>
<g id="a_edge1_Node000001_Node000002"><a xlink:title=" ">
<path fill="none" stroke="#63b8ff" d="M405.22,-410C367.87,-403.97 312.35,-392.19 268,-371 236.17,-355.79 204.55,-330.8 182.88,-311.75"/>
<polygon fill="#63b8ff" stroke="#63b8ff" points="185.16,-309.09 175.37,-305.03 180.49,-314.31 185.16,-309.09"/>
</a>
</g>
</g>
<!-- Node3 -->
<g id="Node000003" class="node">
<title>Node3</title>
<g id="a_Node000003"><a xlink:href="types_8hpp.html" target="_top" xlink:title=" ">
<polygon fill="white" stroke="#666666" points="393,-162 283,-162 283,-132 393,-132 393,-162"/>
<text text-anchor="start" x="291" y="-150" font-family="Helvetica,sans-Serif" font-size="10.00">packages/types/inc</text>
<text text-anchor="middle" x="338" y="-139" font-family="Helvetica,sans-Serif" font-size="10.00">/types.hpp</text>
</a>
</g>
</g>
<!-- Node1&#45;&gt;Node3 -->
<g id="edge24_Node000001_Node000003" class="edge">
<title>Node1&#45;&gt;Node3</title>
<g id="a_edge24_Node000001_Node000003"><a xlink:title=" ">
<path fill="none" stroke="#63b8ff" d="M455.86,-406.72C486.38,-375.4 582.51,-267.32 529,-198 524.97,-192.78 456.74,-175.76 402.97,-163.02"/>
<polygon fill="#63b8ff" stroke="#63b8ff" points="403.65,-159.58 393.11,-160.69 402.04,-166.4 403.65,-159.58"/>
</a>
</g>
</g>
<!-- Node16 -->
<g id="Node000016" class="node">
<title>Node16</title>
<g id="a_Node000016"><a xlink:href="Traits_8hpp.html" target="_top" xlink:title=" ">
<polygon fill="white" stroke="#666666" points="419,-365.5 277,-365.5 277,-346.5 419,-346.5 419,-365.5"/>
<text text-anchor="middle" x="348" y="-353.5" font-family="Helvetica,sans-Serif" font-size="10.00">packages/io/inc/Traits.hpp</text>
</a>
</g>
</g>
<!-- Node1&#45;&gt;Node16 -->
<g id="edge16_Node000001_Node000016" class="edge">
<title>Node1&#45;&gt;Node16</title>
<g id="a_edge16_Node000001_Node000016"><a xlink:title=" ">
<path fill="none" stroke="#63b8ff" d="M432.39,-406.87C416.31,-397.36 390.22,-381.95 371.3,-370.77"/>
<polygon fill="#63b8ff" stroke="#63b8ff" points="373.06,-367.74 362.67,-365.67 369.5,-373.77 373.06,-367.74"/>
</a>
</g>
</g>
<!-- Node17 -->
<g id="Node000017" class="node">
<title>Node17</title>
<g id="a_Node000017"><a xlink:href="tags_8hpp.html" target="_top" xlink:title=" ">
<polygon fill="white" stroke="#666666" points="500,-299.5 390,-299.5 390,-269.5 500,-269.5 500,-299.5"/>
<text text-anchor="start" x="398" y="-287.5" font-family="Helvetica,sans-Serif" font-size="10.00">packages/types/inc</text>
<text text-anchor="middle" x="445" y="-276.5" font-family="Helvetica,sans-Serif" font-size="10.00">/tags.hpp</text>
</a>
</g>
</g>
<!-- Node1&#45;&gt;Node17 -->
<g id="edge23_Node000001_Node000017" class="edge">
<title>Node1&#45;&gt;Node17</title>
<g id="a_edge23_Node000001_Node000017"><a xlink:title=" ">
<path fill="none" stroke="#63b8ff" d="M446.87,-406.97C446.57,-387.54 445.83,-339.37 445.37,-309.86"/>
<polygon fill="#63b8ff" stroke="#63b8ff" points="448.87,-309.51 445.22,-299.57 441.87,-309.62 448.87,-309.51"/>
</a>
</g>
</g>
<!-- Node21 -->
<g id="Node000021" class="node">
<title>Node21</title>
<g id="a_Node000021"><a xlink:href="checks_8hpp.html" target="_top" xlink:title=" ">
<polygon fill="white" stroke="#666666" points="849.5,-371 730.5,-371 730.5,-341 849.5,-341 849.5,-371"/>
<text text-anchor="start" x="738.5" y="-359" font-family="Helvetica,sans-Serif" font-size="10.00">packages/macros/inc</text>
<text text-anchor="middle" x="790" y="-348" font-family="Helvetica,sans-Serif" font-size="10.00">/checks.hpp</text>
</a>
</g>
</g>
<!-- Node1&#45;&gt;Node21 -->
<g id="edge25_Node000001_Node000021" class="edge">
<title>Node1&#45;&gt;Node21</title>
<g id="a_edge25_Node000001_Node000021"><a xlink:title=" ">
<path fill="none" stroke="#63b8ff" d="M488.72,-408.39C546.32,-398.56 650.96,-380.71 720.48,-368.86"/>
<polygon fill="#63b8ff" stroke="#63b8ff" points="721.21,-372.28 730.48,-367.15 720.03,-365.38 721.21,-372.28"/>
</a>
</g>
</g>
<!-- Node2&#45;&gt;Node3 -->
<g id="edge2_Node000002_Node000003" class="edge">
<title>Node2&#45;&gt;Node3</title>
<g id="a_edge2_Node000002_Node000003"><a xlink:title=" ">
<path fill="none" stroke="#63b8ff" d="M160.45,-263.88C166.76,-244.61 178.93,-215.62 199,-198 219.76,-179.78 247.65,-168.04 273.01,-160.55"/>
<polygon fill="#63b8ff" stroke="#63b8ff" points="274.25,-163.84 282.94,-157.79 272.37,-157.1 274.25,-163.84"/>
</a>
</g>
</g>
<!-- Node9 -->
<g id="Node000009" class="node">
<title>Node9</title>
<g id="a_Node000009"><a xlink:title=" ">
<polygon fill="#e0e0e0" stroke="#999999" points="118.5,-90.5 49.5,-90.5 49.5,-71.5 118.5,-71.5 118.5,-90.5"/>
<text text-anchor="middle" x="84" y="-78.5" font-family="Helvetica,sans-Serif" font-size="10.00">type_traits</text>
</a>
</g>
</g>
<!-- Node2&#45;&gt;Node9 -->
<g id="edge13_Node000002_Node000009" class="edge">
<title>Node2&#45;&gt;Node9</title>
<g id="a_edge13_Node000002_Node000009"><a xlink:title=" ">
<path fill="none" stroke="#63b8ff" d="M127.01,-263.93C115.71,-254.45 103.76,-242.07 97,-228 76.85,-186.09 78.84,-129.62 81.63,-100.73"/>
<polygon fill="#63b8ff" stroke="#63b8ff" points="85.11,-101.11 82.74,-90.78 78.16,-100.33 85.11,-101.11"/>
</a>
</g>
</g>
<!-- Node13 -->
<g id="Node000013" class="node">
<title>Node13</title>
<g id="a_Node000013"><a xlink:title=" ">
<polygon fill="#e0e0e0" stroke="#999999" points="268,-222.5 208,-222.5 208,-203.5 268,-203.5 268,-222.5"/>
<text text-anchor="middle" x="238" y="-210.5" font-family="Helvetica,sans-Serif" font-size="10.00">concepts</text>
</a>
</g>
</g>
<!-- Node2&#45;&gt;Node13 -->
<g id="edge12_Node000002_Node000013" class="edge">
<title>Node2&#45;&gt;Node13</title>
<g id="a_edge12_Node000002_Node000013"><a xlink:title=" ">
<path fill="none" stroke="#63b8ff" d="M178.56,-263.77C191.65,-252.81 207.68,-239.39 219.79,-229.25"/>
<polygon fill="#63b8ff" stroke="#63b8ff" points="222.05,-231.92 227.47,-222.82 217.55,-226.56 222.05,-231.92"/>
</a>
</g>
</g>
<!-- Node14 -->
<g id="Node000014" class="node">
<title>Node14</title>
<g id="a_Node000014"><a xlink:title=" ">
<polygon fill="#e0e0e0" stroke="#999999" points="50,-222.5 0,-222.5 0,-203.5 50,-203.5 50,-222.5"/>
<text text-anchor="middle" x="25" y="-210.5" font-family="Helvetica,sans-Serif" font-size="10.00">cstdint</text>
</a>
</g>
</g>
<!-- Node2&#45;&gt;Node14 -->
<g id="edge14_Node000002_Node000014" class="edge">
<title>Node2&#45;&gt;Node14</title>
<g id="a_edge14_Node000002_Node000014"><a xlink:title=" ">
<path fill="none" stroke="#63b8ff" d="M118.44,-263.96C96.5,-252.22 69.17,-237.61 49.75,-227.23"/>
<polygon fill="#63b8ff" stroke="#63b8ff" points="51.37,-224.13 40.91,-222.5 48.07,-230.3 51.37,-224.13"/>
</a>
</g>
</g>
<!-- Node15 -->
<g id="Node000015" class="node">
<title>Node15</title>
<g id="a_Node000015"><a xlink:title=" ">
<polygon fill="#e0e0e0" stroke="#999999" points="151.5,-222.5 106.5,-222.5 106.5,-203.5 151.5,-203.5 151.5,-222.5"/>
<text text-anchor="middle" x="129" y="-210.5" font-family="Helvetica,sans-Serif" font-size="10.00">utility</text>
</a>
</g>
</g>
<!-- Node2&#45;&gt;Node15 -->
<g id="edge15_Node000002_Node000015" class="edge">
<title>Node2&#45;&gt;Node15</title>
<g id="a_edge15_Node000002_Node000015"><a xlink:title=" ">
<path fill="none" stroke="#63b8ff" d="M147.62,-263.77C143.91,-253.87 139.46,-241.95 135.83,-232.26"/>
<polygon fill="#63b8ff" stroke="#63b8ff" points="139.08,-230.96 132.3,-222.82 132.53,-233.41 139.08,-230.96"/>
</a>
</g>
</g>
<!-- Node4 -->
<g id="Node000004" class="node">
<title>Node4</title>
<g id="a_Node000004"><a xlink:href="debug_8hpp.html" target="_top" xlink:title=" ">
<polygon fill="white" stroke="#666666" points="670.5,-96 551.5,-96 551.5,-66 670.5,-66 670.5,-96"/>
<text text-anchor="start" x="559.5" y="-84" font-family="Helvetica,sans-Serif" font-size="10.00">packages/macros/inc</text>
<text text-anchor="middle" x="611" y="-73" font-family="Helvetica,sans-Serif" font-size="10.00">/debug.hpp</text>
</a>
</g>
</g>
<!-- Node3&#45;&gt;Node4 -->
<g id="edge3_Node000003_Node000004" class="edge">
<title>Node3&#45;&gt;Node4</title>
<g id="a_edge3_Node000003_Node000004"><a xlink:title=" ">
<path fill="none" stroke="#63b8ff" d="M393.25,-133.05C435.92,-123.04 495.25,-109.13 541.21,-98.36"/>
<polygon fill="#63b8ff" stroke="#63b8ff" points="542.16,-101.73 551.1,-96.04 540.56,-94.92 542.16,-101.73"/>
</a>
</g>
</g>
<!-- Node7 -->
<g id="Node000007" class="node">
<title>Node7</title>
<g id="a_Node000007"><a xlink:title=" ">
<polygon fill="#e0e0e0" stroke="#999999" points="192.5,-90.5 139.5,-90.5 139.5,-71.5 192.5,-71.5 192.5,-90.5"/>
<text text-anchor="middle" x="166" y="-78.5" font-family="Helvetica,sans-Serif" font-size="10.00">cstddef</text>
</a>
</g>
</g>
<!-- Node3&#45;&gt;Node7 -->
<g id="edge6_Node000003_Node000007" class="edge">
<title>Node3&#45;&gt;Node7</title>
<g id="a_edge6_Node000003_Node000007"><a xlink:title=" ">
<path fill="none" stroke="#63b8ff" d="M299.24,-131.97C271.99,-122.05 234.71,-108.37 202,-96 200.4,-95.4 198.77,-94.77 197.12,-94.14"/>
<polygon fill="#63b8ff" stroke="#63b8ff" points="198.27,-90.83 187.68,-90.5 195.75,-97.37 198.27,-90.83"/>
</a>
</g>
</g>
<!-- Node8 -->
<g id="Node000008" class="node">
<title>Node8</title>
<g id="a_Node000008"><a xlink:title=" ">
<polygon fill="#e0e0e0" stroke="#999999" points="733,-90.5 689,-90.5 689,-71.5 733,-71.5 733,-90.5"/>
<text text-anchor="middle" x="711" y="-78.5" font-family="Helvetica,sans-Serif" font-size="10.00">string</text>
</a>
</g>
</g>
<!-- Node3&#45;&gt;Node8 -->
<g id="edge7_Node000003_Node000008" class="edge">
<title>Node3&#45;&gt;Node8</title>
<g id="a_edge7_Node000003_Node000008"><a xlink:title=" ">
<path fill="none" stroke="#63b8ff" d="M393.15,-134.13C397.15,-133.38 401.13,-132.66 405,-132 526.53,-111.38 561.44,-129.73 680,-96 681.64,-95.53 683.3,-94.99 684.97,-94.4"/>
<polygon fill="#63b8ff" stroke="#63b8ff" points="686.33,-97.63 694.28,-90.63 683.7,-91.14 686.33,-97.63"/>
</a>
</g>
</g>
<!-- Node3&#45;&gt;Node9 -->
<g id="edge8_Node000003_Node000009" class="edge">
<title>Node3&#45;&gt;Node9</title>
<g id="a_edge8_Node000003_Node000009"><a xlink:title=" ">
<path fill="none" stroke="#63b8ff" d="M282.59,-133.63C240.55,-124.01 181.43,-109.99 130,-96 127.03,-95.19 123.97,-94.33 120.9,-93.44"/>
<polygon fill="#63b8ff" stroke="#63b8ff" points="121.75,-90.04 111.17,-90.56 119.76,-96.75 121.75,-90.04"/>
</a>
</g>
</g>
<!-- Node10 -->
<g id="Node000010" class="node">
<title>Node10</title>
<g id="a_Node000010"><a xlink:title=" ">
<polygon fill="#e0e0e0" stroke="#999999" points="261,-90.5 211,-90.5 211,-71.5 261,-71.5 261,-90.5"/>
<text text-anchor="middle" x="236" y="-78.5" font-family="Helvetica,sans-Serif" font-size="10.00">climits</text>
</a>
</g>
</g>
<!-- Node3&#45;&gt;Node10 -->
<g id="edge9_Node000003_Node000010" class="edge">
<title>Node3&#45;&gt;Node10</title>
<g id="a_edge9_Node000003_Node000010"><a xlink:title=" ">
<path fill="none" stroke="#63b8ff" d="M315.62,-131.95C298.59,-121.27 275.29,-106.65 258.29,-95.98"/>
<polygon fill="#63b8ff" stroke="#63b8ff" points="259.91,-92.87 249.57,-90.52 256.18,-98.8 259.91,-92.87"/>
</a>
</g>
</g>
<!-- Node11 -->
<g id="Node000011" class="node">
<title>Node11</title>
<g id="a_Node000011"><a xlink:title=" ">
<polygon fill="#e0e0e0" stroke="#999999" points="396.5,-96 279.5,-96 279.5,-66 396.5,-66 396.5,-96"/>
<text text-anchor="start" x="287.5" y="-84" font-family="Helvetica,sans-Serif" font-size="10.00">packages/types/impl</text>
<text text-anchor="middle" x="338" y="-73" font-family="Helvetica,sans-Serif" font-size="10.00">/types_impl.hpp</text>
</a>
</g>
</g>
<!-- Node3&#45;&gt;Node11 -->
<g id="edge10_Node000003_Node000011" class="edge">
<title>Node3&#45;&gt;Node11</title>
<g id="a_edge10_Node000003_Node000011"><a xlink:title=" ">
<path fill="none" stroke="#63b8ff" d="M338,-131.8C338,-124.34 338,-114.99 338,-106.41"/>
<polygon fill="#63b8ff" stroke="#63b8ff" points="341.5,-106.16 338,-96.16 334.5,-106.16 341.5,-106.16"/>
</a>
</g>
</g>
<!-- Node12 -->
<g id="Node000012" class="node">
<title>Node12</title>
<g id="a_Node000012"><a xlink:href="logging_8hpp.html" target="_top" xlink:title=" ">
<polygon fill="white" stroke="#666666" points="533.5,-96 414.5,-96 414.5,-66 533.5,-66 533.5,-96"/>
<text text-anchor="start" x="422.5" y="-84" font-family="Helvetica,sans-Serif" font-size="10.00">packages/macros/inc</text>
<text text-anchor="middle" x="474" y="-73" font-family="Helvetica,sans-Serif" font-size="10.00">/logging.hpp</text>
</a>
</g>
</g>
<!-- Node3&#45;&gt;Node12 -->
<g id="edge11_Node000003_Node000012" class="edge">
<title>Node3&#45;&gt;Node12</title>
<g id="a_edge11_Node000003_Node000012"><a xlink:title=" ">
<path fill="none" stroke="#63b8ff" d="M367.85,-131.95C387.6,-122.66 413.7,-110.38 435.08,-100.32"/>
<polygon fill="#63b8ff" stroke="#63b8ff" points="436.67,-103.44 444.22,-96.01 433.69,-97.1 436.67,-103.44"/>
</a>
</g>
</g>
<!-- Node5 -->
<g id="Node000005" class="node">
<title>Node5</title>
<g id="a_Node000005"><a xlink:href="detail_8hpp.html" target="_top" xlink:title=" ">
<polygon fill="white" stroke="#666666" points="909.5,-30 790.5,-30 790.5,0 909.5,0 909.5,-30"/>
<text text-anchor="start" x="798.5" y="-18" font-family="Helvetica,sans-Serif" font-size="10.00">packages/macros/inc</text>
<text text-anchor="middle" x="850" y="-7" font-family="Helvetica,sans-Serif" font-size="10.00">/detail.hpp</text>
</a>
</g>
</g>
<!-- Node4&#45;&gt;Node5 -->
<g id="edge4_Node000004_Node000005" class="edge">
<title>Node4&#45;&gt;Node5</title>
<g id="a_edge4_Node000004_Node000005"><a xlink:title=" ">
<path fill="none" stroke="#63b8ff" d="M663.45,-65.95C700.03,-56.16 749,-43.05 787.59,-32.71"/>
<polygon fill="#63b8ff" stroke="#63b8ff" points="788.92,-35.98 797.67,-30.01 787.11,-29.22 788.92,-35.98"/>
</a>
</g>
</g>
<!-- Node6 -->
<g id="Node000006" class="node">
<title>Node6</title>
<g id="a_Node000006"><a xlink:title=" ">
<polygon fill="#e0e0e0" stroke="#999999" points="641,-24.5 581,-24.5 581,-5.5 641,-5.5 641,-24.5"/>
<text text-anchor="middle" x="611" y="-12.5" font-family="Helvetica,sans-Serif" font-size="10.00">iostream</text>
</a>
</g>
</g>
<!-- Node4&#45;&gt;Node6 -->
<g id="edge5_Node000004_Node000006" class="edge">
<title>Node4&#45;&gt;Node6</title>
<g id="a_edge5_Node000004_Node000006"><a xlink:title=" ">
<path fill="none" stroke="#63b8ff" d="M611,-65.8C611,-56.7 611,-44.79 611,-34.9"/>
<polygon fill="#63b8ff" stroke="#63b8ff" points="614.5,-34.84 611,-24.84 607.5,-34.84 614.5,-34.84"/>
</a>
</g>
</g>
<!-- Node16&#45;&gt;Node3 -->
<g id="edge17_Node000016_Node000003" class="edge">
<title>Node16&#45;&gt;Node3</title>
<g id="a_edge17_Node000016_Node000003"><a xlink:title=" ">
<path fill="none" stroke="#63b8ff" d="M339.88,-346.25C331.77,-336.87 319.85,-321.14 315,-305 301.32,-259.45 304.83,-244.45 315,-198 317,-188.88 320.82,-179.43 324.79,-171.24"/>
<polygon fill="#63b8ff" stroke="#63b8ff" points="327.93,-172.78 329.41,-162.29 321.71,-169.57 327.93,-172.78"/>
</a>
</g>
</g>
<!-- Node16&#45;&gt;Node17 -->
<g id="edge18_Node000016_Node000017" class="edge">
<title>Node16&#45;&gt;Node17</title>
<g id="a_edge18_Node000016_Node000017"><a xlink:title=" ">
<path fill="none" stroke="#63b8ff" d="M359.89,-346.48C374.02,-336.36 398.05,-319.14 416.98,-305.57"/>
<polygon fill="#63b8ff" stroke="#63b8ff" points="419.18,-308.31 425.27,-299.64 415.1,-302.62 419.18,-308.31"/>
</a>
</g>
</g>
<!-- Node20 -->
<g id="Node000020" class="node">
<title>Node20</title>
<g id="a_Node000020"><a xlink:title=" ">
<polygon fill="#e0e0e0" stroke="#999999" points="372,-294 324,-294 324,-275 372,-275 372,-294"/>
<text text-anchor="middle" x="348" y="-282" font-family="Helvetica,sans-Serif" font-size="10.00">iosfwd</text>
</a>
</g>
</g>
<!-- Node16&#45;&gt;Node20 -->
<g id="edge22_Node000016_Node000020" class="edge">
<title>Node16&#45;&gt;Node20</title>
<g id="a_edge22_Node000016_Node000020"><a xlink:title=" ">
<path fill="none" stroke="#63b8ff" d="M348,-346.48C348,-336.06 348,-318.11 348,-304.38"/>
<polygon fill="#63b8ff" stroke="#63b8ff" points="351.5,-304.09 348,-294.09 344.5,-304.09 351.5,-304.09"/>
</a>
</g>
</g>
<!-- Node17&#45;&gt;Node3 -->
<g id="edge19_Node000017_Node000003" class="edge">
<title>Node17&#45;&gt;Node3</title>
<g id="a_edge19_Node000017_Node000003"><a xlink:title=" ">
<path fill="none" stroke="#63b8ff" d="M469.91,-269.45C496.48,-252.65 532.3,-223.59 513,-198 506.05,-188.79 450.03,-173.8 403.21,-162.64"/>
<polygon fill="#63b8ff" stroke="#63b8ff" points="403.92,-159.21 393.39,-160.32 402.31,-166.02 403.92,-159.21"/>
</a>
</g>
</g>
<!-- Node18 -->
<g id="Node000018" class="node">
<title>Node18</title>
<g id="a_Node000018"><a xlink:title=" ">
<polygon fill="#e0e0e0" stroke="#999999" points="368,-222.5 324,-222.5 324,-203.5 368,-203.5 368,-222.5"/>
<text text-anchor="middle" x="346" y="-210.5" font-family="Helvetica,sans-Serif" font-size="10.00">bitset</text>
</a>
</g>
</g>
<!-- Node17&#45;&gt;Node18 -->
<g id="edge20_Node000017_Node000018" class="edge">
<title>Node17&#45;&gt;Node18</title>
<g id="a_edge20_Node000017_Node000018"><a xlink:title=" ">
<path fill="none" stroke="#63b8ff" d="M424.97,-269.44C407.93,-257.48 383.58,-240.38 366.44,-228.35"/>
<polygon fill="#63b8ff" stroke="#63b8ff" points="368.4,-225.45 358.2,-222.57 364.38,-231.18 368.4,-225.45"/>
</a>
</g>
</g>
<!-- Node19 -->
<g id="Node000019" class="node">
<title>Node19</title>
<g id="a_Node000019"><a xlink:title=" ">
<polygon fill="#e0e0e0" stroke="#999999" points="503.5,-228 386.5,-228 386.5,-198 503.5,-198 503.5,-228"/>
<text text-anchor="start" x="394.5" y="-216" font-family="Helvetica,sans-Serif" font-size="10.00">packages/types/impl</text>
<text text-anchor="middle" x="445" y="-205" font-family="Helvetica,sans-Serif" font-size="10.00">/tags_impl.hpp</text>
</a>
</g>
</g>
<!-- Node17&#45;&gt;Node19 -->
<g id="edge21_Node000017_Node000019" class="edge">
<title>Node17&#45;&gt;Node19</title>
<g id="a_edge21_Node000017_Node000019"><a xlink:title=" ">
<path fill="none" stroke="#63b8ff" d="M445,-269.44C445,-260.49 445,-248.66 445,-238.23"/>
<polygon fill="#63b8ff" stroke="#63b8ff" points="448.5,-238.04 445,-228.04 441.5,-238.04 448.5,-238.04"/>
</a>
</g>
</g>
<!-- Node21&#45;&gt;Node5 -->
<g id="edge38_Node000021_Node000005" class="edge">
<title>Node21&#45;&gt;Node5</title>
<g id="a_edge38_Node000021_Node000005"><a xlink:title=" ">
<path fill="none" stroke="#63b8ff" d="M809.09,-340.87C837.86,-317.8 889,-269.04 889,-214 889,-214 889,-214 889,-146 889,-107.31 872.95,-64.77 861.45,-39.23"/>
<polygon fill="#63b8ff" stroke="#63b8ff" points="864.55,-37.6 857.15,-30.01 858.2,-40.56 864.55,-37.6"/>
</a>
</g>
</g>
<!-- Node22 -->
<g id="Node000022" class="node">
<title>Node22</title>
<g id="a_Node000022"><a xlink:href="exception_8hpp.html" target="_top" xlink:title=" ">
<polygon fill="white" stroke="#666666" points="717.5,-228 598.5,-228 598.5,-198 717.5,-198 717.5,-228"/>
<text text-anchor="start" x="606.5" y="-216" font-family="Helvetica,sans-Serif" font-size="10.00">packages/exceptions</text>
<text text-anchor="middle" x="658" y="-205" font-family="Helvetica,sans-Serif" font-size="10.00">/inc/exception.hpp</text>
</a>
</g>
</g>
<!-- Node21&#45;&gt;Node22 -->
<g id="edge26_Node000021_Node000022" class="edge">
<title>Node21&#45;&gt;Node22</title>
<g id="a_edge26_Node000021_Node000022"><a xlink:title=" ">
<path fill="none" stroke="#63b8ff" d="M732.65,-340.99C712.69,-333.42 691.85,-322 678,-305 662.74,-286.27 658.48,-258.42 657.58,-238.47"/>
<polygon fill="#63b8ff" stroke="#63b8ff" points="661.07,-238.24 657.37,-228.31 654.07,-238.38 661.07,-238.24"/>
</a>
</g>
</g>
<!-- Node27 -->
<g id="Node000027" class="node">
<title>Node27</title>
<g id="a_Node000027"><a xlink:href="exceptions_8hpp.html" target="_top" xlink:title=" ">
<polygon fill="white" stroke="#666666" points="805.5,-299.5 686.5,-299.5 686.5,-269.5 805.5,-269.5 805.5,-299.5"/>
<text text-anchor="start" x="694.5" y="-287.5" font-family="Helvetica,sans-Serif" font-size="10.00">packages/macros/inc</text>
<text text-anchor="middle" x="746" y="-276.5" font-family="Helvetica,sans-Serif" font-size="10.00">/exceptions.hpp</text>
</a>
</g>
</g>
<!-- Node21&#45;&gt;Node27 -->
<g id="edge33_Node000021_Node000027" class="edge">
<title>Node21&#45;&gt;Node27</title>
<g id="a_edge33_Node000021_Node000027"><a xlink:title=" ">
<path fill="none" stroke="#63b8ff" d="M781.1,-340.94C775.13,-331.52 767.15,-318.91 760.3,-308.09"/>
<polygon fill="#63b8ff" stroke="#63b8ff" points="763.2,-306.12 754.89,-299.54 757.28,-309.86 763.2,-306.12"/>
</a>
</g>
</g>
<!-- Node28 -->
<g id="Node000028" class="node">
<title>Node28</title>
<g id="a_Node000028"><a xlink:title=" ">
<polygon fill="#e0e0e0" stroke="#999999" points="861,-222.5 805,-222.5 805,-203.5 861,-203.5 861,-222.5"/>
<text text-anchor="middle" x="833" y="-210.5" font-family="Helvetica,sans-Serif" font-size="10.00">sstream</text>
</a>
</g>
</g>
<!-- Node21&#45;&gt;Node28 -->
<g id="edge40_Node000021_Node000028" class="edge">
<title>Node21&#45;&gt;Node28</title>
<g id="a_edge40_Node000021_Node000028"><a xlink:title=" ">
<path fill="none" stroke="#63b8ff" d="M798.51,-340.57C803.94,-330.82 810.73,-317.49 815,-305 823.28,-280.77 828.22,-251.53 830.77,-232.86"/>
<polygon fill="#63b8ff" stroke="#63b8ff" points="834.27,-233.09 832.06,-222.73 827.33,-232.21 834.27,-233.09"/>
</a>
</g>
</g>
<!-- Node29 -->
<g id="Node000029" class="node">
<title>Node29</title>
<g id="a_Node000029"><a xlink:title=" ">
<polygon fill="#e0e0e0" stroke="#999999" points="1037,-294 917,-294 917,-275 1037,-275 1037,-294"/>
<text text-anchor="middle" x="977" y="-282" font-family="Helvetica,sans-Serif" font-size="10.00">cmake_variables.hpp</text>
</a>
</g>
</g>
<!-- Node21&#45;&gt;Node29 -->
<g id="edge39_Node000021_Node000029" class="edge">
<title>Node21&#45;&gt;Node29</title>
<g id="a_edge39_Node000021_Node000029"><a xlink:title=" ">
<path fill="none" stroke="#63b8ff" d="M827.84,-340.94C862.08,-328.21 911.97,-309.67 944.46,-297.59"/>
<polygon fill="#63b8ff" stroke="#63b8ff" points="945.79,-300.83 953.95,-294.07 943.35,-294.27 945.79,-300.83"/>
</a>
</g>
</g>
<!-- Node22&#45;&gt;Node3 -->
<g id="edge27_Node000022_Node000003" class="edge">
<title>Node22&#45;&gt;Node3</title>
<g id="a_edge27_Node000022_Node000003"><a xlink:title=" ">
<path fill="none" stroke="#63b8ff" d="M598.41,-200.41C547.12,-190.39 471.14,-175.45 405,-162 404.4,-161.88 403.8,-161.76 403.19,-161.63"/>
<polygon fill="#63b8ff" stroke="#63b8ff" points="403.7,-158.16 393.2,-159.58 402.29,-165.02 403.7,-158.16"/>
</a>
</g>
</g>
<!-- Node22&#45;&gt;Node8 -->
<g id="edge29_Node000022_Node000008" class="edge">
<title>Node22&#45;&gt;Node8</title>
<g id="a_edge29_Node000022_Node000008"><a xlink:title=" ">
<path fill="none" stroke="#63b8ff" d="M627.97,-197.84C614.02,-189.53 598.81,-177.57 591,-162 585.02,-150.08 583.55,-143.06 591,-132 614.85,-96.62 640.77,-112.78 680,-96 681,-95.57 682.03,-95.13 683.06,-94.68"/>
<polygon fill="#63b8ff" stroke="#63b8ff" points="684.64,-97.81 692.37,-90.56 681.8,-91.41 684.64,-97.81"/>
</a>
</g>
</g>
<!-- Node23 -->
<g id="Node000023" class="node">
<title>Node23</title>
<g id="a_Node000023"><a xlink:title=" ">
<polygon fill="#e0e0e0" stroke="#999999" points="478.5,-156.5 413.5,-156.5 413.5,-137.5 478.5,-137.5 478.5,-156.5"/>
<text text-anchor="middle" x="446" y="-144.5" font-family="Helvetica,sans-Serif" font-size="10.00">stdexcept</text>
</a>
</g>
</g>
<!-- Node22&#45;&gt;Node23 -->
<g id="edge28_Node000022_Node000023" class="edge">
<title>Node22&#45;&gt;Node23</title>
<g id="a_edge28_Node000022_Node000023"><a xlink:title=" ">
<path fill="none" stroke="#63b8ff" d="M608.39,-197.91C574.41,-188.14 528.36,-174.66 488,-162 485.71,-161.28 483.35,-160.53 480.98,-159.77"/>
<polygon fill="#63b8ff" stroke="#63b8ff" points="481.86,-156.37 471.27,-156.59 479.69,-163.02 481.86,-156.37"/>
</a>
</g>
</g>
<!-- Node24 -->
<g id="Node000024" class="node">
<title>Node24</title>
<g id="a_Node000024"><a xlink:title=" ">
<polygon fill="#e0e0e0" stroke="#999999" points="543.5,-156.5 496.5,-156.5 496.5,-137.5 543.5,-137.5 543.5,-156.5"/>
<text text-anchor="middle" x="520" y="-144.5" font-family="Helvetica,sans-Serif" font-size="10.00">deque</text>
</a>
</g>
</g>
<!-- Node22&#45;&gt;Node24 -->
<g id="edge30_Node000022_Node000024" class="edge">
<title>Node22&#45;&gt;Node24</title>
<g id="a_edge30_Node000022_Node000024"><a xlink:title=" ">
<path fill="none" stroke="#63b8ff" d="M627.72,-197.95C603.83,-186.88 570.8,-171.56 547.64,-160.82"/>
<polygon fill="#63b8ff" stroke="#63b8ff" points="548.91,-157.55 538.37,-156.52 545.96,-163.9 548.91,-157.55"/>
</a>
</g>
</g>
<!-- Node25 -->
<g id="Node000025" class="node">
<title>Node25</title>
<g id="a_Node000025"><a xlink:title=" ">
<polygon fill="#e0e0e0" stroke="#999999" points="658,-156.5 600,-156.5 600,-137.5 658,-137.5 658,-156.5"/>
<text text-anchor="middle" x="629" y="-144.5" font-family="Helvetica,sans-Serif" font-size="10.00">memory</text>
</a>
</g>
</g>
<!-- Node22&#45;&gt;Node25 -->
<g id="edge31_Node000022_Node000025" class="edge">
<title>Node22&#45;&gt;Node25</title>
<g id="a_edge31_Node000022_Node000025"><a xlink:title=" ">
<path fill="none" stroke="#63b8ff" d="M651.56,-197.8C647.35,-188.5 641.81,-176.27 637.27,-166.26"/>
<polygon fill="#63b8ff" stroke="#63b8ff" points="640.32,-164.51 633.01,-156.84 633.95,-167.4 640.32,-164.51"/>
</a>
</g>
</g>
<!-- Node26 -->
<g id="Node000026" class="node">
<title>Node26</title>
<g id="a_Node000026"><a xlink:title=" ">
<polygon fill="#e0e0e0" stroke="#999999" points="822,-162 676,-162 676,-132 822,-132 822,-162"/>
<text text-anchor="start" x="684" y="-150" font-family="Helvetica,sans-Serif" font-size="10.00">packages/exceptions</text>
<text text-anchor="middle" x="749" y="-139" font-family="Helvetica,sans-Serif" font-size="10.00">/impl/exceptions_impl.hpp</text>
</a>
</g>
</g>
<!-- Node22&#45;&gt;Node26 -->
<g id="edge32_Node000022_Node000026" class="edge">
<title>Node22&#45;&gt;Node26</title>
<g id="a_edge32_Node000022_Node000026"><a xlink:title=" ">
<path fill="none" stroke="#63b8ff" d="M678.2,-197.8C690.68,-189.01 706.9,-177.61 720.66,-167.93"/>
<polygon fill="#63b8ff" stroke="#63b8ff" points="722.69,-170.78 728.86,-162.16 718.67,-165.05 722.69,-170.78"/>
</a>
</g>
</g>
<!-- Node27&#45;&gt;Node5 -->
<g id="edge35_Node000027_Node000005" class="edge">
<title>Node27&#45;&gt;Node5</title>
<g id="a_edge35_Node000027_Node000005"><a xlink:title=" ">
<path fill="none" stroke="#63b8ff" d="M752.99,-269.22C761.87,-251.69 778.2,-221.4 796,-198 809.51,-180.24 821.29,-182.09 831,-162 850.13,-122.44 852.13,-70.18 851.39,-40.11"/>
<polygon fill="#63b8ff" stroke="#63b8ff" points="854.89,-39.97 851.02,-30.1 847.89,-40.23 854.89,-39.97"/>
</a>
</g>
</g>
<!-- Node27&#45;&gt;Node13 -->
<g id="edge37_Node000027_Node000013" class="edge">
<title>Node27&#45;&gt;Node13</title>
<g id="a_edge37_Node000027_Node000013"><a xlink:title=" ">
<path fill="none" stroke="#63b8ff" d="M686.25,-276.8C602.92,-267.22 447.14,-248.51 315,-228 303.06,-226.15 290.12,-223.89 278.32,-221.74"/>
<polygon fill="#63b8ff" stroke="#63b8ff" points="278.76,-218.26 268.29,-219.88 277.49,-225.14 278.76,-218.26"/>
</a>
</g>
</g>
<!-- Node27&#45;&gt;Node22 -->
<g id="edge34_Node000027_Node000022" class="edge">
<title>Node27&#45;&gt;Node22</title>
<g id="a_edge34_Node000027_Node000022"><a xlink:title=" ">
<path fill="none" stroke="#63b8ff" d="M728.19,-269.44C715.43,-259.36 698.04,-245.63 683.77,-234.35"/>
<polygon fill="#63b8ff" stroke="#63b8ff" points="685.8,-231.49 675.78,-228.04 681.46,-236.99 685.8,-231.49"/>
</a>
</g>
</g>
<!-- Node27&#45;&gt;Node28 -->
<g id="edge36_Node000027_Node000028" class="edge">
<title>Node27&#45;&gt;Node28</title>
<g id="a_edge36_Node000027_Node000028"><a xlink:title=" ">
<path fill="none" stroke="#63b8ff" d="M763.61,-269.44C778.22,-257.76 798.95,-241.2 813.95,-229.22"/>
<polygon fill="#63b8ff" stroke="#63b8ff" points="816.4,-231.74 822.03,-222.77 812.03,-226.27 816.4,-231.74"/>
</a>
</g>
</g>
</g>
</svg>

<g id="navigator" transform="translate(0 0)" fill="#404254">
  <rect fill="#f2f5e9" fill-opacity="0.5" stroke="#606060" stroke-width=".5" x="0" y="0" width="60" height="60"/>
  <use id="zoomplus" xlink:href="#zoomPlus" x="17" y="9" onmousedown="handleZoom(evt,'in')"/>
  <use id="zoomminus" xlink:href="#zoomMin" x="42" y="9" onmousedown="handleZoom(evt,'out')"/>
  <use id="reset" xlink:href="#resetDef" x="30" y="36" onmousedown="handleReset()"/>
   <use id="arrowup" xlink:href="#arrowUp" x="0" y="0" onmousedown="handlePan(0,-1)"/>
  <use id="arrowright" xlink:href="#arrowRight" x="0" y="0" onmousedown="handlePan(1,0)"/>
  <use id="arrowdown" xlink:href="#arrowDown" x="0" y="0" onmousedown="handlePan(0,1)"/>
  <use id="arrowleft" xlink:href="#arrowLeft" x="0" y="0" onmousedown="handlePan(-1,0)"/>
</g>
<svg viewBox="0 0 15 15" width="100%" height="30px" preserveAspectRatio="xMaxYMin meet">
 <g id="arrow_out" transform="scale(0.3 0.3)">
  <a xlink:href="Serializer_8hpp__incl_org.svg" target="_base">
   <rect id="button" ry="5" rx="5" y="6" x="6" height="38" width="38"
        fill="#f2f5e9" fill-opacity="0.5" stroke="#606060" stroke-width="1.0"/>
   <path id="arrow"
     d="M 11.500037,31.436501 C 11.940474,20.09759 22.043105,11.32322 32.158766,21.979434 L 37.068811,17.246167 C 37.068811,17.246167 37.088388,32 37.088388,32 L 22.160133,31.978069 C 22.160133,31.978069 26.997745,27.140456 26.997745,27.140456 C 18.528582,18.264221 13.291696,25.230495 11.500037,31.436501 z"
     style="fill:#404040;"/>
  </a>
 </g>
</svg>

<style type='text/css'>
<![CDATA[
[data-mouse-over-selected='false'] { opacity: 0.7; }
[data-mouse-over-selected='true']  { opacity: 1.0; }
]]>
</style>
<script type="application/ecmascript"><![CDATA[
document.addEventListener('DOMContentLoaded', (event) => {
  highlightEdges();
  highlightAdjacentNodes();
});
]]></script>
</svg>
