<?xml version="1.0" encoding="UTF-8" standalone="no"?>
<!DOCTYPE svg PUBLIC "-//W3C//DTD SVG 1.1//EN"
 "http://www.w3.org/Graphics/SVG/1.1/DTD/svg11.dtd">
<!-- Generated by graphviz version 2.43.0 (0)
 -->
<!-- Title: Serializer.hpp Pages: 1 -->
<!--zoomable 441 -->
<svg id="main" version="1.1" xmlns="http://www.w3.org/2000/svg" xmlns:xlink="http://www.w3.org/1999/xlink" xml:space="preserve" onload="init(evt)">
<style type="text/css"><![CDATA[
.edge:hover path { stroke: red; }
.edge:hover polygon { stroke: red; fill: red; }
]]></style>
<script type="text/javascript"><![CDATA[
var edges = document.getElementsByTagName('g');
if (edges && edges.length) {
  for (var i=0;i<edges.length;i++) {
    if (edges[i].id.substr(0,4)=='edge') {
      edges[i].setAttribute('class','edge');
    }
  }
}
]]></script>
        <defs>
                <circle id="rim" cx="0" cy="0" r="7"/>
                <circle id="rim2" cx="0" cy="0" r="3.5"/>
                <g id="zoomPlus">
                        <use xlink:href="#rim" fill="#404040">
                                <set attributeName="fill" to="#808080" begin="zoomplus.mouseover" end="zoomplus.mouseout"/>
                        </use>
                        <path d="M-4,0h8M0,-4v8" fill="none" stroke="white" stroke-width="1.5" pointer-events="none"/>
                </g>
                <g id="zoomMin">
                        <use xlink:href="#rim" fill="#404040">
                                <set attributeName="fill" to="#808080" begin="zoomminus.mouseover" end="zoomminus.mouseout"/>
                        </use>
                        <path d="M-4,0h8" fill="none" stroke="white" stroke-width="1.5" pointer-events="none"/>
                </g>
                <g id="dirArrow">
                        <path fill="none" stroke="white" stroke-width="1.5" d="M0,-3.0v7 M-2.5,-0.5L0,-3.0L2.5,-0.5"/>
                </g>
               <g id="resetDef">
                       <use xlink:href="#rim2" fill="#404040">
                               <set attributeName="fill" to="#808080" begin="reset.mouseover" end="reset.mouseout"/>
                       </use>
               </g>
        </defs>

<script type="text/javascript">
var viewWidth = 1063;
var viewHeight = 441;
var sectionId = 'dynsection-0';
</script>
<script xlink:href="svgpan.js"/>
<svg id="graph" class="graph">
<g id="viewport">
<title>Serializer.hpp</title>
<polygon fill="white" stroke="transparent" points="-4,4 -4,-437 1059.39,-437 1059.39,4 -4,4"/>
<!-- Node1 -->
<g id="node1" class="node">
<title>Node1</title>
<g id="a_node1"><a xlink:title=" ">
<polygon fill="#bfbfbf" stroke="black" points="456,-413.5 456,-432.5 539,-432.5 539,-413.5 456,-413.5"/>
<text text-anchor="middle" x="497.5" y="-420.5" font-family="Helvetica,sans-Serif" font-size="10.00">Serializer.hpp</text>
</a>
</g>
</g>
<!-- Node2 -->
<g id="node2" class="node">
<title>Node2</title>
<g id="a_node2"><a xlink:href="basic__concepts_8hpp.html" target="_top" xlink:title=" ">
<polygon fill="white" stroke="black" points="92.5,-268.5 92.5,-309.5 224.5,-309.5 224.5,-268.5 92.5,-268.5"/>
<text text-anchor="start" x="100.5" y="-297.5" font-family="Helvetica,sans-Serif" font-size="10.00">packages/compile_time</text>
<text text-anchor="start" x="100.5" y="-286.5" font-family="Helvetica,sans-Serif" font-size="10.00">/packages/concepts/inc</text>
<text text-anchor="middle" x="158.5" y="-275.5" font-family="Helvetica,sans-Serif" font-size="10.00">/basic_concepts.hpp</text>
</a>
</g>
</g>
<!-- Node1&#45;&gt;Node2 -->
<g id="edge1" class="edge">
<title>Node1&#45;&gt;Node2</title>
<path fill="none" stroke="midnightblue" d="M455.81,-418.01C411.97,-412.72 341.7,-401.08 285.5,-377 249.75,-361.68 213.6,-335.66 189.06,-316.05"/>
<polygon fill="midnightblue" stroke="midnightblue" points="191.17,-313.26 181.2,-309.68 186.76,-318.7 191.17,-313.26"/>
</g>
<!-- Node3 -->
<g id="node3" class="node">
<title>Node3</title>
<g id="a_node3"><a xlink:href="types_8hpp.html" target="_top" xlink:title=" ">
<polygon fill="white" stroke="black" points="284.5,-134.5 284.5,-164.5 394.5,-164.5 394.5,-134.5 284.5,-134.5"/>
<text text-anchor="start" x="292.5" y="-152.5" font-family="Helvetica,sans-Serif" font-size="10.00">packages/types/inc</text>
<text text-anchor="middle" x="339.5" y="-141.5" font-family="Helvetica,sans-Serif" font-size="10.00">/types.hpp</text>
</a>
</g>
</g>
<!-- Node1&#45;&gt;Node3 -->
<g id="edge24" class="edge">
<title>Node1&#45;&gt;Node3</title>
<path fill="none" stroke="midnightblue" d="M455.72,-417.39C408.26,-411.2 335.2,-398.42 318.5,-377 271.54,-316.78 307.51,-218.3 327.91,-173.72"/>
<polygon fill="midnightblue" stroke="midnightblue" points="331.13,-175.11 332.23,-164.57 324.8,-172.12 331.13,-175.11"/>
</g>
<!-- Node8 -->
<g id="node8" class="node">
<title>Node8</title>
<g id="a_node8"><a xlink:title=" ">
<polygon fill="white" stroke="#bfbfbf" points="758.5,-73 758.5,-92 802.5,-92 802.5,-73 758.5,-73"/>
<text text-anchor="middle" x="780.5" y="-80" font-family="Helvetica,sans-Serif" font-size="10.00">string</text>
</a>
</g>
</g>
<!-- Node1&#45;&gt;Node8 -->
<g id="edge43" class="edge">
<title>Node1&#45;&gt;Node8</title>
<path fill="none" stroke="midnightblue" d="M507.33,-413.14C541.27,-381.53 648.39,-272.34 592.5,-201 551.29,-148.39 487.71,-217.61 446.5,-165 438,-154.15 437.52,-144.45 446.5,-134 451.43,-128.26 665.63,-98.94 748.36,-87.8"/>
<polygon fill="midnightblue" stroke="midnightblue" points="749.01,-91.24 758.45,-86.44 748.08,-84.31 749.01,-91.24"/>
</g>
<!-- Node16 -->
<g id="node16" class="node">
<title>Node16</title>
<g id="a_node16"><a xlink:href="Traits_8hpp.html" target="_top" xlink:title=" ">
<polygon fill="white" stroke="black" points="327.5,-352 327.5,-371 469.5,-371 469.5,-352 327.5,-352"/>
<text text-anchor="middle" x="398.5" y="-359" font-family="Helvetica,sans-Serif" font-size="10.00">packages/io/inc/Traits.hpp</text>
</a>
</g>
</g>
<!-- Node1&#45;&gt;Node16 -->
<g id="edge16" class="edge">
<title>Node1&#45;&gt;Node16</title>
<path fill="none" stroke="midnightblue" d="M483.32,-413.48C467.14,-403.75 440.47,-387.73 421.36,-376.24"/>
<polygon fill="midnightblue" stroke="midnightblue" points="423.03,-373.16 412.66,-371.01 419.43,-379.16 423.03,-373.16"/>
</g>
<!-- Node17 -->
<g id="node17" class="node">
<title>Node17</title>
<g id="a_node17"><a xlink:href="tags_8hpp.html" target="_top" xlink:title=" ">
<polygon fill="white" stroke="black" points="435.5,-274 435.5,-304 545.5,-304 545.5,-274 435.5,-274"/>
<text text-anchor="start" x="443.5" y="-292" font-family="Helvetica,sans-Serif" font-size="10.00">packages/types/inc</text>
<text text-anchor="middle" x="490.5" y="-281" font-family="Helvetica,sans-Serif" font-size="10.00">/tags.hpp</text>
</a>
</g>
</g>
<!-- Node1&#45;&gt;Node17 -->
<g id="edge23" class="edge">
<title>Node1&#45;&gt;Node17</title>
<path fill="none" stroke="midnightblue" d="M497.04,-413.34C495.99,-393.52 493.38,-344.27 491.79,-314.34"/>
<polygon fill="midnightblue" stroke="midnightblue" points="495.28,-314.08 491.26,-304.28 488.29,-314.45 495.28,-314.08"/>
</g>
<!-- Node21 -->
<g id="node21" class="node">
<title>Node21</title>
<g id="a_node21"><a xlink:href="checks_8hpp.html" target="_top" xlink:title=" ">
<polygon fill="white" stroke="black" points="726,-346.5 726,-376.5 845,-376.5 845,-346.5 726,-346.5"/>
<text text-anchor="start" x="734" y="-364.5" font-family="Helvetica,sans-Serif" font-size="10.00">packages/macros/inc</text>
<text text-anchor="middle" x="785.5" y="-353.5" font-family="Helvetica,sans-Serif" font-size="10.00">/checks.hpp</text>
</a>
</g>
</g>
<!-- Node1&#45;&gt;Node21 -->
<g id="edge25" class="edge">
<title>Node1&#45;&gt;Node21</title>
<path fill="none" stroke="midnightblue" d="M538.76,-413.48C584.89,-403.95 660.35,-388.36 715.7,-376.92"/>
<polygon fill="midnightblue" stroke="midnightblue" points="716.7,-380.29 725.79,-374.84 715.28,-373.43 716.7,-380.29"/>
</g>
<!-- Node31 -->
<g id="node31" class="node">
<title>Node31</title>
<g id="a_node31"><a xlink:title=" ">
<polygon fill="white" stroke="#bfbfbf" points="863,-352 863,-371 904,-371 904,-352 863,-352"/>
<text text-anchor="middle" x="883.5" y="-359" font-family="Helvetica,sans-Serif" font-size="10.00">tuple</text>
</a>
</g>
</g>
<!-- Node1&#45;&gt;Node31 -->
<g id="edge44" class="edge">
<title>Node1&#45;&gt;Node31</title>
<path fill="none" stroke="midnightblue" d="M539.13,-421.28C606.72,-419.11 743.91,-410.55 854.5,-377 856.17,-376.49 857.85,-375.9 859.53,-375.24"/>
<polygon fill="midnightblue" stroke="midnightblue" points="861.18,-378.34 868.85,-371.03 858.29,-371.96 861.18,-378.34"/>
</g>
<!-- Node2&#45;&gt;Node3 -->
<g id="edge2" class="edge">
<title>Node2&#45;&gt;Node3</title>
<path fill="none" stroke="midnightblue" d="M163.78,-268.44C170,-248.87 182.15,-219.13 202.5,-201 222.72,-182.99 249.91,-171.21 274.75,-163.61"/>
<polygon fill="midnightblue" stroke="midnightblue" points="275.85,-166.93 284.49,-160.8 273.91,-160.21 275.85,-166.93"/>
</g>
<!-- Node9 -->
<g id="node9" class="node">
<title>Node9</title>
<g id="a_node9"><a xlink:title=" ">
<polygon fill="white" stroke="#bfbfbf" points="0,-73 0,-92 69,-92 69,-73 0,-73"/>
<text text-anchor="middle" x="34.5" y="-80" font-family="Helvetica,sans-Serif" font-size="10.00">type_traits</text>
</a>
</g>
</g>
<!-- Node2&#45;&gt;Node9 -->
<g id="edge13" class="edge">
<title>Node2&#45;&gt;Node9</title>
<path fill="none" stroke="midnightblue" d="M92.34,-274.29C69.4,-266.03 46.07,-252.87 32.5,-232 6.35,-191.76 19.28,-131.53 28.29,-101.65"/>
<polygon fill="midnightblue" stroke="midnightblue" points="31.63,-102.7 31.35,-92.11 24.97,-100.56 31.63,-102.7"/>
</g>
<!-- Node13 -->
<g id="node13" class="node">
<title>Node13</title>
<g id="a_node13"><a xlink:title=" ">
<polygon fill="white" stroke="#bfbfbf" points="211.5,-207 211.5,-226 271.5,-226 271.5,-207 211.5,-207"/>
<text text-anchor="middle" x="241.5" y="-214" font-family="Helvetica,sans-Serif" font-size="10.00">concepts</text>
</a>
</g>
</g>
<!-- Node2&#45;&gt;Node13 -->
<g id="edge12" class="edge">
<title>Node2&#45;&gt;Node13</title>
<path fill="none" stroke="midnightblue" d="M181.62,-268.36C194.87,-257.11 211.25,-243.19 223.53,-232.76"/>
<polygon fill="midnightblue" stroke="midnightblue" points="225.93,-235.31 231.29,-226.17 221.4,-229.98 225.93,-235.31"/>
</g>
<!-- Node14 -->
<g id="node14" class="node">
<title>Node14</title>
<g id="a_node14"><a xlink:title=" ">
<polygon fill="white" stroke="#bfbfbf" points="41.5,-207 41.5,-226 91.5,-226 91.5,-207 41.5,-207"/>
<text text-anchor="middle" x="66.5" y="-214" font-family="Helvetica,sans-Serif" font-size="10.00">cstdint</text>
</a>
</g>
</g>
<!-- Node2&#45;&gt;Node14 -->
<g id="edge14" class="edge">
<title>Node2&#45;&gt;Node14</title>
<path fill="none" stroke="midnightblue" d="M132.87,-268.36C118.04,-257 99.68,-242.92 86.02,-232.46"/>
<polygon fill="midnightblue" stroke="midnightblue" points="87.88,-229.48 77.82,-226.17 83.63,-235.03 87.88,-229.48"/>
</g>
<!-- Node15 -->
<g id="node15" class="node">
<title>Node15</title>
<g id="a_node15"><a xlink:title=" ">
<polygon fill="white" stroke="#bfbfbf" points="110,-207 110,-226 155,-226 155,-207 110,-207"/>
<text text-anchor="middle" x="132.5" y="-214" font-family="Helvetica,sans-Serif" font-size="10.00">utility</text>
</a>
</g>
</g>
<!-- Node2&#45;&gt;Node15 -->
<g id="edge15" class="edge">
<title>Node2&#45;&gt;Node15</title>
<path fill="none" stroke="midnightblue" d="M151.26,-268.36C147.51,-258.19 142.95,-245.84 139.27,-235.86"/>
<polygon fill="midnightblue" stroke="midnightblue" points="142.44,-234.34 135.7,-226.17 135.88,-236.77 142.44,-234.34"/>
</g>
<!-- Node4 -->
<g id="node4" class="node">
<title>Node4</title>
<g id="a_node4"><a xlink:href="debug_8hpp.html" target="_top" xlink:title=" ">
<polygon fill="white" stroke="black" points="261,-67.5 261,-97.5 380,-97.5 380,-67.5 261,-67.5"/>
<text text-anchor="start" x="269" y="-85.5" font-family="Helvetica,sans-Serif" font-size="10.00">packages/macros/inc</text>
<text text-anchor="middle" x="320.5" y="-74.5" font-family="Helvetica,sans-Serif" font-size="10.00">/debug.hpp</text>
</a>
</g>
</g>
<!-- Node3&#45;&gt;Node4 -->
<g id="edge3" class="edge">
<title>Node3&#45;&gt;Node4</title>
<path fill="none" stroke="midnightblue" d="M335.38,-134.4C333.06,-126.47 330.11,-116.38 327.45,-107.27"/>
<polygon fill="midnightblue" stroke="midnightblue" points="330.78,-106.19 324.61,-97.58 324.06,-108.16 330.78,-106.19"/>
</g>
<!-- Node7 -->
<g id="node7" class="node">
<title>Node7</title>
<g id="a_node7"><a xlink:title=" ">
<polygon fill="white" stroke="#bfbfbf" points="398,-73 398,-92 451,-92 451,-73 398,-73"/>
<text text-anchor="middle" x="424.5" y="-80" font-family="Helvetica,sans-Serif" font-size="10.00">cstddef</text>
</a>
</g>
</g>
<!-- Node3&#45;&gt;Node7 -->
<g id="edge6" class="edge">
<title>Node3&#45;&gt;Node7</title>
<path fill="none" stroke="midnightblue" d="M357.94,-134.4C371.85,-123.76 390.89,-109.2 405.04,-98.38"/>
<polygon fill="midnightblue" stroke="midnightblue" points="407.31,-101.05 413.13,-92.19 403.06,-95.49 407.31,-101.05"/>
</g>
<!-- Node3&#45;&gt;Node8 -->
<g id="edge7" class="edge">
<title>Node3&#45;&gt;Node8</title>
<path fill="none" stroke="midnightblue" d="M394.84,-137.15C400.79,-136.03 406.77,-134.96 412.5,-134 477.04,-123.17 670.54,-97.77 747.96,-87.71"/>
<polygon fill="midnightblue" stroke="midnightblue" points="748.62,-91.16 758.09,-86.4 747.72,-84.21 748.62,-91.16"/>
</g>
<!-- Node3&#45;&gt;Node9 -->
<g id="edge8" class="edge">
<title>Node3&#45;&gt;Node9</title>
<path fill="none" stroke="midnightblue" d="M284.27,-136.73C225.56,-124.22 133.86,-104.67 79.42,-93.07"/>
<polygon fill="midnightblue" stroke="midnightblue" points="79.89,-89.59 69.38,-90.93 78.43,-96.44 79.89,-89.59"/>
</g>
<!-- Node10 -->
<g id="node10" class="node">
<title>Node10</title>
<g id="a_node10"><a xlink:title=" ">
<polygon fill="white" stroke="#bfbfbf" points="469.5,-73 469.5,-92 519.5,-92 519.5,-73 469.5,-73"/>
<text text-anchor="middle" x="494.5" y="-80" font-family="Helvetica,sans-Serif" font-size="10.00">climits</text>
</a>
</g>
</g>
<!-- Node3&#45;&gt;Node10 -->
<g id="edge9" class="edge">
<title>Node3&#45;&gt;Node10</title>
<path fill="none" stroke="midnightblue" d="M373.43,-134.42C397.7,-124.33 431.14,-110.39 460.5,-98 461.9,-97.41 463.34,-96.8 464.79,-96.19"/>
<polygon fill="midnightblue" stroke="midnightblue" points="466.54,-99.25 474.38,-92.11 463.8,-92.8 466.54,-99.25"/>
</g>
<!-- Node11 -->
<g id="node11" class="node">
<title>Node11</title>
<g id="a_node11"><a xlink:title=" ">
<polygon fill="white" stroke="#bfbfbf" points="538,-67.5 538,-97.5 655,-97.5 655,-67.5 538,-67.5"/>
<text text-anchor="start" x="546" y="-85.5" font-family="Helvetica,sans-Serif" font-size="10.00">packages/types/impl</text>
<text text-anchor="middle" x="596.5" y="-74.5" font-family="Helvetica,sans-Serif" font-size="10.00">/types_impl.hpp</text>
</a>
</g>
</g>
<!-- Node3&#45;&gt;Node11 -->
<g id="edge10" class="edge">
<title>Node3&#45;&gt;Node11</title>
<path fill="none" stroke="midnightblue" d="M394.63,-134.56C434.64,-124.44 488.92,-110.71 531.11,-100.04"/>
<polygon fill="midnightblue" stroke="midnightblue" points="532.18,-103.38 541.02,-97.53 530.46,-96.59 532.18,-103.38"/>
</g>
<!-- Node12 -->
<g id="node12" class="node">
<title>Node12</title>
<g id="a_node12"><a xlink:href="logging_8hpp.html" target="_top" xlink:title=" ">
<polygon fill="white" stroke="black" points="124,-67.5 124,-97.5 243,-97.5 243,-67.5 124,-67.5"/>
<text text-anchor="start" x="132" y="-85.5" font-family="Helvetica,sans-Serif" font-size="10.00">packages/macros/inc</text>
<text text-anchor="middle" x="183.5" y="-74.5" font-family="Helvetica,sans-Serif" font-size="10.00">/logging.hpp</text>
</a>
</g>
</g>
<!-- Node3&#45;&gt;Node12 -->
<g id="edge11" class="edge">
<title>Node3&#45;&gt;Node12</title>
<path fill="none" stroke="midnightblue" d="M305.65,-134.4C282.45,-124.73 251.47,-111.82 226.52,-101.43"/>
<polygon fill="midnightblue" stroke="midnightblue" points="227.86,-98.19 217.28,-97.58 225.17,-104.65 227.86,-98.19"/>
</g>
<!-- Node5 -->
<g id="node5" class="node">
<title>Node5</title>
<g id="a_node5"><a xlink:href="detail_8hpp.html" target="_top" xlink:title=" ">
<polygon fill="white" stroke="black" points="832,-0.5 832,-30.5 951,-30.5 951,-0.5 832,-0.5"/>
<text text-anchor="start" x="840" y="-18.5" font-family="Helvetica,sans-Serif" font-size="10.00">packages/macros/inc</text>
<text text-anchor="middle" x="891.5" y="-7.5" font-family="Helvetica,sans-Serif" font-size="10.00">/detail.hpp</text>
</a>
</g>
</g>
<!-- Node4&#45;&gt;Node5 -->
<g id="edge4" class="edge">
<title>Node4&#45;&gt;Node5</title>
<path fill="none" stroke="midnightblue" d="M380.27,-68.53C383.38,-67.98 386.48,-67.47 389.5,-67 542.91,-43.23 724.5,-28.17 821.74,-21.15"/>
<polygon fill="midnightblue" stroke="midnightblue" points="822.01,-24.64 831.74,-20.44 821.51,-17.66 822.01,-24.64"/>
</g>
<!-- Node6 -->
<g id="node6" class="node">
<title>Node6</title>
<g id="a_node6"><a xlink:title=" ">
<polygon fill="white" stroke="#bfbfbf" points="290.5,-6 290.5,-25 350.5,-25 350.5,-6 290.5,-6"/>
<text text-anchor="middle" x="320.5" y="-13" font-family="Helvetica,sans-Serif" font-size="10.00">iostream</text>
</a>
</g>
</g>
<!-- Node4&#45;&gt;Node6 -->
<g id="edge5" class="edge">
<title>Node4&#45;&gt;Node6</title>
<path fill="none" stroke="midnightblue" d="M320.5,-67.4C320.5,-58.06 320.5,-45.71 320.5,-35.52"/>
<polygon fill="midnightblue" stroke="midnightblue" points="324,-35.19 320.5,-25.19 317,-35.19 324,-35.19"/>
</g>
<!-- Node16&#45;&gt;Node3 -->
<g id="edge17" class="edge">
<title>Node16&#45;&gt;Node3</title>
<path fill="none" stroke="midnightblue" d="M389.61,-351.73C380.66,-342.31 367.22,-326.45 360.5,-310 342.07,-264.9 339,-207.21 338.92,-175.02"/>
<polygon fill="midnightblue" stroke="midnightblue" points="342.43,-174.79 339,-164.77 335.43,-174.74 342.43,-174.79"/>
</g>
<!-- Node16&#45;&gt;Node17 -->
<g id="edge18" class="edge">
<title>Node16&#45;&gt;Node17</title>
<path fill="none" stroke="midnightblue" d="M409.78,-351.86C423.14,-341.62 445.84,-324.22 463.77,-310.48"/>
<polygon fill="midnightblue" stroke="midnightblue" points="466.32,-312.94 472.13,-304.08 462.06,-307.38 466.32,-312.94"/>
</g>
<!-- Node20 -->
<g id="node20" class="node">
<title>Node20</title>
<g id="a_node20"><a xlink:title=" ">
<polygon fill="white" stroke="#bfbfbf" points="369.5,-279.5 369.5,-298.5 417.5,-298.5 417.5,-279.5 369.5,-279.5"/>
<text text-anchor="middle" x="393.5" y="-286.5" font-family="Helvetica,sans-Serif" font-size="10.00">iosfwd</text>
</a>
</g>
</g>
<!-- Node16&#45;&gt;Node20 -->
<g id="edge22" class="edge">
<title>Node16&#45;&gt;Node20</title>
<path fill="none" stroke="midnightblue" d="M397.89,-351.86C397.13,-341.18 395.82,-322.72 394.83,-308.73"/>
<polygon fill="midnightblue" stroke="midnightblue" points="398.32,-308.44 394.12,-298.72 391.33,-308.94 398.32,-308.44"/>
</g>
<!-- Node17&#45;&gt;Node3 -->
<g id="edge19" class="edge">
<title>Node17&#45;&gt;Node3</title>
<path fill="none" stroke="midnightblue" d="M459.12,-273.89C439.41,-264.02 414.26,-249.5 395.5,-232 377.28,-215 361.72,-191.09 351.66,-173.56"/>
<polygon fill="midnightblue" stroke="midnightblue" points="354.58,-171.6 346.66,-164.56 348.46,-175 354.58,-171.6"/>
</g>
<!-- Node18 -->
<g id="node18" class="node">
<title>Node18</title>
<g id="a_node18"><a xlink:title=" ">
<polygon fill="white" stroke="#bfbfbf" points="539.5,-207 539.5,-226 583.5,-226 583.5,-207 539.5,-207"/>
<text text-anchor="middle" x="561.5" y="-214" font-family="Helvetica,sans-Serif" font-size="10.00">bitset</text>
</a>
</g>
</g>
<!-- Node17&#45;&gt;Node18 -->
<g id="edge20" class="edge">
<title>Node17&#45;&gt;Node18</title>
<path fill="none" stroke="midnightblue" d="M504.87,-273.73C516.57,-262.12 533.08,-245.72 545.26,-233.62"/>
<polygon fill="midnightblue" stroke="midnightblue" points="547.91,-235.92 552.54,-226.39 542.98,-230.96 547.91,-235.92"/>
</g>
<!-- Node19 -->
<g id="node19" class="node">
<title>Node19</title>
<g id="a_node19"><a xlink:title=" ">
<polygon fill="white" stroke="#bfbfbf" points="404,-201.5 404,-231.5 521,-231.5 521,-201.5 404,-201.5"/>
<text text-anchor="start" x="412" y="-219.5" font-family="Helvetica,sans-Serif" font-size="10.00">packages/types/impl</text>
<text text-anchor="middle" x="462.5" y="-208.5" font-family="Helvetica,sans-Serif" font-size="10.00">/tags_impl.hpp</text>
</a>
</g>
</g>
<!-- Node17&#45;&gt;Node19 -->
<g id="edge21" class="edge">
<title>Node17&#45;&gt;Node19</title>
<path fill="none" stroke="midnightblue" d="M484.83,-273.73C481.11,-264.37 476.16,-251.9 471.86,-241.08"/>
<polygon fill="midnightblue" stroke="midnightblue" points="475.1,-239.75 468.16,-231.75 468.6,-242.33 475.1,-239.75"/>
</g>
<!-- Node21&#45;&gt;Node5 -->
<g id="edge38" class="edge">
<title>Node21&#45;&gt;Node5</title>
<path fill="none" stroke="midnightblue" d="M845.34,-347.91C848.43,-347.26 851.5,-346.62 854.5,-346 932.68,-329.79 972.87,-365.26 1030.5,-310 1061.08,-280.68 1053.5,-259.86 1053.5,-217.5 1053.5,-217.5 1053.5,-217.5 1053.5,-148.5 1053.5,-91.14 991.71,-54.28 944.45,-34.48"/>
<polygon fill="midnightblue" stroke="midnightblue" points="945.5,-31.13 934.91,-30.63 942.87,-37.62 945.5,-31.13"/>
</g>
<!-- Node22 -->
<g id="node22" class="node">
<title>Node22</title>
<g id="a_node22"><a xlink:href="exception_8hpp.html" target="_top" xlink:title=" ">
<polygon fill="white" stroke="black" points="640,-201.5 640,-231.5 759,-231.5 759,-201.5 640,-201.5"/>
<text text-anchor="start" x="648" y="-219.5" font-family="Helvetica,sans-Serif" font-size="10.00">packages/exceptions</text>
<text text-anchor="middle" x="699.5" y="-208.5" font-family="Helvetica,sans-Serif" font-size="10.00">/inc/exception.hpp</text>
</a>
</g>
</g>
<!-- Node21&#45;&gt;Node22 -->
<g id="edge26" class="edge">
<title>Node21&#45;&gt;Node22</title>
<path fill="none" stroke="midnightblue" d="M757.66,-346.37C743.48,-337.76 727.22,-325.43 717.5,-310 704.55,-289.44 700.57,-261.61 699.51,-241.86"/>
<polygon fill="midnightblue" stroke="midnightblue" points="703,-241.7 699.18,-231.82 696.01,-241.92 703,-241.7"/>
</g>
<!-- Node27 -->
<g id="node27" class="node">
<title>Node27</title>
<g id="a_node27"><a xlink:href="exceptions_8hpp.html" target="_top" xlink:title=" ">
<polygon fill="white" stroke="black" points="726,-274 726,-304 845,-304 845,-274 726,-274"/>
<text text-anchor="start" x="734" y="-292" font-family="Helvetica,sans-Serif" font-size="10.00">packages/macros/inc</text>
<text text-anchor="middle" x="785.5" y="-281" font-family="Helvetica,sans-Serif" font-size="10.00">/exceptions.hpp</text>
</a>
</g>
</g>
<!-- Node21&#45;&gt;Node27 -->
<g id="edge33" class="edge">
<title>Node21&#45;&gt;Node27</title>
<path fill="none" stroke="midnightblue" d="M785.5,-346.23C785.5,-337.16 785.5,-325.16 785.5,-314.58"/>
<polygon fill="midnightblue" stroke="midnightblue" points="789,-314.25 785.5,-304.25 782,-314.25 789,-314.25"/>
</g>
<!-- Node28 -->
<g id="node28" class="node">
<title>Node28</title>
<g id="a_node28"><a xlink:title=" ">
<polygon fill="white" stroke="#bfbfbf" points="845.5,-207 845.5,-226 901.5,-226 901.5,-207 845.5,-207"/>
<text text-anchor="middle" x="873.5" y="-214" font-family="Helvetica,sans-Serif" font-size="10.00">sstream</text>
</a>
</g>
</g>
<!-- Node21&#45;&gt;Node28 -->
<g id="edge42" class="edge">
<title>Node21&#45;&gt;Node28</title>
<path fill="none" stroke="midnightblue" d="M813.68,-346.42C828.05,-337.82 844.55,-325.49 854.5,-310 868.94,-287.51 872.69,-256.16 873.52,-236.35"/>
<polygon fill="midnightblue" stroke="midnightblue" points="877.02,-236.24 873.72,-226.17 870.02,-236.1 877.02,-236.24"/>
</g>
<!-- Node29 -->
<g id="node29" class="node">
<title>Node29</title>
<g id="a_node29"><a xlink:href="cmake__variables_8hpp.html" target="_top" xlink:title=" ">
<polygon fill="white" stroke="black" points="901.5,-279.5 901.5,-298.5 1021.5,-298.5 1021.5,-279.5 901.5,-279.5"/>
<text text-anchor="middle" x="961.5" y="-286.5" font-family="Helvetica,sans-Serif" font-size="10.00">cmake_variables.hpp</text>
</a>
</g>
</g>
<!-- Node21&#45;&gt;Node29 -->
<g id="edge39" class="edge">
<title>Node21&#45;&gt;Node29</title>
<path fill="none" stroke="midnightblue" d="M820.69,-346.4C852.92,-333.49 900.13,-314.58 930.85,-302.28"/>
<polygon fill="midnightblue" stroke="midnightblue" points="932.21,-305.5 940.2,-298.53 929.61,-299 932.21,-305.5"/>
</g>
<!-- Node22&#45;&gt;Node3 -->
<g id="edge27" class="edge">
<title>Node22&#45;&gt;Node3</title>
<path fill="none" stroke="midnightblue" d="M639.65,-204.69C574.8,-192.98 471.66,-174.36 404.77,-162.28"/>
<polygon fill="midnightblue" stroke="midnightblue" points="405.22,-158.81 394.76,-160.48 403.98,-165.7 405.22,-158.81"/>
</g>
<!-- Node22&#45;&gt;Node8 -->
<g id="edge29" class="edge">
<title>Node22&#45;&gt;Node8</title>
<path fill="none" stroke="midnightblue" d="M759.18,-208.7C786.91,-202.21 817.46,-189.57 834.5,-165 850.48,-141.95 823.34,-114.71 802.08,-98.28"/>
<polygon fill="midnightblue" stroke="midnightblue" points="803.88,-95.26 793.76,-92.15 799.73,-100.9 803.88,-95.26"/>
</g>
<!-- Node23 -->
<g id="node23" class="node">
<title>Node23</title>
<g id="a_node23"><a xlink:title=" ">
<polygon fill="white" stroke="#bfbfbf" points="455,-140 455,-159 520,-159 520,-140 455,-140"/>
<text text-anchor="middle" x="487.5" y="-147" font-family="Helvetica,sans-Serif" font-size="10.00">stdexcept</text>
</a>
</g>
</g>
<!-- Node22&#45;&gt;Node23 -->
<g id="edge28" class="edge">
<title>Node22&#45;&gt;Node23</title>
<path fill="none" stroke="midnightblue" d="M650.23,-201.48C616.19,-191.65 569.96,-177.99 529.5,-165 526.9,-164.17 524.22,-163.29 521.53,-162.39"/>
<polygon fill="midnightblue" stroke="midnightblue" points="522.46,-159.01 511.87,-159.11 520.22,-165.64 522.46,-159.01"/>
</g>
<!-- Node24 -->
<g id="node24" class="node">
<title>Node24</title>
<g id="a_node24"><a xlink:title=" ">
<polygon fill="white" stroke="#bfbfbf" points="538,-140 538,-159 585,-159 585,-140 538,-140"/>
<text text-anchor="middle" x="561.5" y="-147" font-family="Helvetica,sans-Serif" font-size="10.00">deque</text>
</a>
</g>
</g>
<!-- Node22&#45;&gt;Node24 -->
<g id="edge30" class="edge">
<title>Node22&#45;&gt;Node24</title>
<path fill="none" stroke="midnightblue" d="M669.56,-201.4C645.56,-190.09 612.16,-174.36 588.87,-163.39"/>
<polygon fill="midnightblue" stroke="midnightblue" points="590.1,-160.1 579.56,-159.01 587.12,-166.43 590.1,-160.1"/>
</g>
<!-- Node25 -->
<g id="node25" class="node">
<title>Node25</title>
<g id="a_node25"><a xlink:title=" ">
<polygon fill="white" stroke="#bfbfbf" points="603.5,-140 603.5,-159 661.5,-159 661.5,-140 603.5,-140"/>
<text text-anchor="middle" x="632.5" y="-147" font-family="Helvetica,sans-Serif" font-size="10.00">memory</text>
</a>
</g>
</g>
<!-- Node22&#45;&gt;Node25 -->
<g id="edge31" class="edge">
<title>Node22&#45;&gt;Node25</title>
<path fill="none" stroke="midnightblue" d="M684.96,-201.4C674.31,-191.06 659.84,-177.02 648.8,-166.31"/>
<polygon fill="midnightblue" stroke="midnightblue" points="651.08,-163.65 641.46,-159.19 646.2,-168.67 651.08,-163.65"/>
</g>
<!-- Node26 -->
<g id="node26" class="node">
<title>Node26</title>
<g id="a_node26"><a xlink:title=" ">
<polygon fill="white" stroke="#bfbfbf" points="679.5,-134.5 679.5,-164.5 825.5,-164.5 825.5,-134.5 679.5,-134.5"/>
<text text-anchor="start" x="687.5" y="-152.5" font-family="Helvetica,sans-Serif" font-size="10.00">packages/exceptions</text>
<text text-anchor="middle" x="752.5" y="-141.5" font-family="Helvetica,sans-Serif" font-size="10.00">/impl/exceptions_impl.hpp</text>
</a>
</g>
</g>
<!-- Node22&#45;&gt;Node26 -->
<g id="edge32" class="edge">
<title>Node22&#45;&gt;Node26</title>
<path fill="none" stroke="midnightblue" d="M711,-201.4C717.88,-192.96 726.76,-182.07 734.54,-172.52"/>
<polygon fill="midnightblue" stroke="midnightblue" points="737.42,-174.54 741.02,-164.58 731.99,-170.11 737.42,-174.54"/>
</g>
<!-- Node27&#45;&gt;Node5 -->
<g id="edge35" class="edge">
<title>Node27&#45;&gt;Node5</title>
<path fill="none" stroke="midnightblue" d="M794.36,-273.72C807.99,-251.28 834.2,-206.08 850.5,-165 867.37,-122.49 880,-70.51 886.52,-40.68"/>
<polygon fill="midnightblue" stroke="midnightblue" points="889.98,-41.26 888.65,-30.75 883.13,-39.8 889.98,-41.26"/>
</g>
<!-- Node27&#45;&gt;Node13 -->
<g id="edge37" class="edge">
<title>Node27&#45;&gt;Node13</title>
<path fill="none" stroke="midnightblue" d="M725.99,-280.29C614.38,-265.82 376.38,-234.98 281.63,-222.7"/>
<polygon fill="midnightblue" stroke="midnightblue" points="281.96,-219.21 271.59,-221.4 281.06,-226.16 281.96,-219.21"/>
</g>
<!-- Node27&#45;&gt;Node22 -->
<g id="edge34" class="edge">
<title>Node27&#45;&gt;Node22</title>
<path fill="none" stroke="midnightblue" d="M768.1,-273.73C755.54,-263.44 738.41,-249.4 724.41,-237.92"/>
<polygon fill="midnightblue" stroke="midnightblue" points="726.54,-235.14 716.58,-231.5 722.1,-240.55 726.54,-235.14"/>
</g>
<!-- Node27&#45;&gt;Node28 -->
<g id="edge36" class="edge">
<title>Node27&#45;&gt;Node28</title>
<path fill="none" stroke="midnightblue" d="M803.31,-273.73C818.09,-261.89 839.06,-245.09 854.23,-232.94"/>
<polygon fill="midnightblue" stroke="midnightblue" points="856.78,-235.38 862.4,-226.39 852.41,-229.91 856.78,-235.38"/>
</g>
<!-- Node29&#45;&gt;Node8 -->
<g id="edge41" class="edge">
<title>Node29&#45;&gt;Node8</title>
<path fill="none" stroke="midnightblue" d="M957.25,-279.5C949.09,-263.52 930.31,-228.16 910.5,-201 886.94,-168.71 880.21,-160.74 850.5,-134 835.51,-120.52 816.95,-107.26 802.7,-97.71"/>
<polygon fill="midnightblue" stroke="midnightblue" points="804.32,-94.59 794.05,-92.01 800.47,-100.43 804.32,-94.59"/>
</g>
<!-- Node30 -->
<g id="node30" class="node">
<title>Node30</title>
<g id="a_node30"><a xlink:title=" ">
<polygon fill="white" stroke="#bfbfbf" points="957.5,-207 957.5,-226 1025.5,-226 1025.5,-207 957.5,-207"/>
<text text-anchor="middle" x="991.5" y="-214" font-family="Helvetica,sans-Serif" font-size="10.00">filesystem</text>
</a>
</g>
</g>
<!-- Node29&#45;&gt;Node30 -->
<g id="edge40" class="edge">
<title>Node29&#45;&gt;Node30</title>
<path fill="none" stroke="midnightblue" d="M965.18,-279.36C969.77,-268.57 977.73,-249.85 983.7,-235.82"/>
<polygon fill="midnightblue" stroke="midnightblue" points="987.1,-236.79 987.79,-226.22 980.66,-234.05 987.1,-236.79"/>
</g>
</g>
</svg>
        <g id="navigator" transform="translate(0 0)" fill="#404254">
                <rect fill="#f2f5e9" fill-opacity="0.5" stroke="#606060" stroke-width=".5" x="0" y="0" width="60" height="60"/>
                <use id="zoomplus" xlink:href="#zoomPlus" x="17" y="9" onmousedown="handleZoom(evt,'in')"/>
                <use id="zoomminus" xlink:href="#zoomMin" x="42" y="9" onmousedown="handleZoom(evt,'out')"/>
                <use id="reset" xlink:href="#resetDef" x="30" y="36" onmousedown="handleReset()"/>
                <g id="arrowUp" xlink:href="#dirArrow" transform="translate(30 24)" onmousedown="handlePan(0,-1)">
                  <use xlink:href="#rim" fill="#404040">
                        <set attributeName="fill" to="#808080" begin="arrowUp.mouseover" end="arrowUp.mouseout"/>
                  </use>
                  <path fill="none" stroke="white" stroke-width="1.5" d="M0,-3.0v7 M-2.5,-0.5L0,-3.0L2.5,-0.5"/>
                </g>
                <g id="arrowRight" xlink:href="#dirArrow" transform="rotate(90) translate(36 -43)" onmousedown="handlePan(1,0)">
                  <use xlink:href="#rim" fill="#404040">
                        <set attributeName="fill" to="#808080" begin="arrowRight.mouseover" end="arrowRight.mouseout"/>
                  </use>
                  <path fill="none" stroke="white" stroke-width="1.5" d="M0,-3.0v7 M-2.5,-0.5L0,-3.0L2.5,-0.5"/>
                </g>
                <g id="arrowDown" xlink:href="#dirArrow" transform="rotate(180) translate(-30 -48)" onmousedown="handlePan(0,1)">
                  <use xlink:href="#rim" fill="#404040">
                        <set attributeName="fill" to="#808080" begin="arrowDown.mouseover" end="arrowDown.mouseout"/>
                  </use>
                  <path fill="none" stroke="white" stroke-width="1.5" d="M0,-3.0v7 M-2.5,-0.5L0,-3.0L2.5,-0.5"/>
                </g>
                <g id="arrowLeft" xlink:href="#dirArrow" transform="rotate(270) translate(-36 17)" onmousedown="handlePan(-1,0)">
                  <use xlink:href="#rim" fill="#404040">
                        <set attributeName="fill" to="#808080" begin="arrowLeft.mouseover" end="arrowLeft.mouseout"/>
                  </use>
                  <path fill="none" stroke="white" stroke-width="1.5" d="M0,-3.0v7 M-2.5,-0.5L0,-3.0L2.5,-0.5"/>
                </g>
        </g>
        <svg viewBox="0 0 15 15" width="100%" height="30px" preserveAspectRatio="xMaxYMin meet">
         <g id="arrow_out" transform="scale(0.3 0.3)">
          <a xlink:href="Serializer_8hpp__incl_org.svg" target="_base">
           <rect id="button" ry="5" rx="5" y="6" x="6" height="38" width="38"
                fill="#f2f5e9" fill-opacity="0.5" stroke="#606060" stroke-width="1.0"/>
           <path id="arrow"
             d="M 11.500037,31.436501 C 11.940474,20.09759 22.043105,11.32322 32.158766,21.979434 L 37.068811,17.246167 C 37.068811,17.246167 37.088388,32 37.088388,32 L 22.160133,31.978069 C 22.160133,31.978069 26.997745,27.140456 26.997745,27.140456 C 18.528582,18.264221 13.291696,25.230495 11.500037,31.436501 z"
             style="fill:#404040;"/>
          </a>
         </g>
        </svg>
</svg>
