<?xml version="1.0" encoding="UTF-8" standalone="no"?>
<!DOCTYPE svg PUBLIC "-//W3C//DTD SVG 1.1//EN"
 "http://www.w3.org/Graphics/SVG/1.1/DTD/svg11.dtd">
<!-- Generated by graphviz version 2.43.0 (0)
 -->
<!-- Title: Size.hpp Pages: 1 -->
<svg width="1889pt" height="532pt"
 viewBox="0.00 0.00 1889.00 532.00" xmlns="http://www.w3.org/2000/svg" xmlns:xlink="http://www.w3.org/1999/xlink">
<g id="graph0" class="graph" transform="scale(1 1) rotate(0) translate(4 528)">
<title>Size.hpp</title>
<polygon fill="white" stroke="transparent" points="-4,4 -4,-528 1885,-528 1885,4 -4,4"/>
<!-- Node1 -->
<g id="node1" class="node">
<title>Node1</title>
<g id="a_node1"><a xlink:title=" ">
<polygon fill="#bfbfbf" stroke="black" points="238,-504.5 238,-523.5 296,-523.5 296,-504.5 238,-504.5"/>
<text text-anchor="middle" x="267" y="-511.5" font-family="Helvetica,sans-Serif" font-size="10.00">Size.hpp</text>
</a>
</g>
</g>
<!-- Node2 -->
<g id="node2" class="node">
<title>Node2</title>
<g id="a_node2"><a xlink:href="iterator__concepts_8hpp.html" target="_top" xlink:title=" ">
<polygon fill="white" stroke="black" points="777,-448.5 777,-467.5 899,-467.5 899,-448.5 777,-448.5"/>
<text text-anchor="middle" x="838" y="-455.5" font-family="Helvetica,sans-Serif" font-size="10.00">iterator_concepts.hpp</text>
</a>
</g>
</g>
<!-- Node1&#45;&gt;Node2 -->
<g id="edge1" class="edge">
<title>Node1&#45;&gt;Node2</title>
<path fill="none" stroke="midnightblue" d="M306.14,-509.3C403.86,-500.06 659.11,-475.92 776.87,-464.78"/>
<polygon fill="midnightblue" stroke="midnightblue" points="305.73,-505.82 296.1,-510.25 306.39,-512.79 305.73,-505.82"/>
</g>
<!-- Node41 -->
<g id="node41" class="node">
<title>Node41</title>
<g id="a_node41"><a xlink:href="zip_8hpp.html" target="_top" xlink:title=" ">
<polygon fill="white" stroke="black" points="429,-336.5 429,-355.5 481,-355.5 481,-336.5 429,-336.5"/>
<text text-anchor="middle" x="455" y="-343.5" font-family="Helvetica,sans-Serif" font-size="10.00">zip.hpp</text>
</a>
</g>
</g>
<!-- Node1&#45;&gt;Node41 -->
<g id="edge67" class="edge">
<title>Node1&#45;&gt;Node41</title>
<path fill="none" stroke="midnightblue" d="M284.7,-497.37C323.54,-463.07 415.18,-382.16 445.25,-355.61"/>
<polygon fill="midnightblue" stroke="midnightblue" points="282.02,-495.07 276.84,-504.31 286.66,-500.31 282.02,-495.07"/>
</g>
<!-- Node45 -->
<g id="node45" class="node">
<title>Node45</title>
<g id="a_node45"><a xlink:href="logical_8hpp.html" target="_top" xlink:title=" ">
<polygon fill="white" stroke="black" points="62,-392.5 62,-411.5 132,-411.5 132,-392.5 62,-392.5"/>
<text text-anchor="middle" x="97" y="-399.5" font-family="Helvetica,sans-Serif" font-size="10.00">logical.hpp</text>
</a>
</g>
</g>
<!-- Node1&#45;&gt;Node45 -->
<g id="edge57" class="edge">
<title>Node1&#45;&gt;Node45</title>
<path fill="none" stroke="midnightblue" d="M227.72,-507.79C183.55,-501.05 115.89,-487.77 100,-468 86.98,-451.8 91.13,-425.31 94.49,-411.69"/>
<polygon fill="midnightblue" stroke="midnightblue" points="227.45,-511.29 237.85,-509.28 228.47,-504.36 227.45,-511.29"/>
</g>
<!-- Node46 -->
<g id="node46" class="node">
<title>Node46</title>
<g id="a_node46"><a xlink:href="ArgumentMapper_8hpp.html" target="_top" xlink:title=" ">
<polygon fill="white" stroke="black" points="917,-448.5 917,-467.5 1039,-467.5 1039,-448.5 917,-448.5"/>
<text text-anchor="middle" x="978" y="-455.5" font-family="Helvetica,sans-Serif" font-size="10.00">ArgumentMapper.hpp</text>
</a>
</g>
</g>
<!-- Node1&#45;&gt;Node46 -->
<g id="edge58" class="edge">
<title>Node1&#45;&gt;Node46</title>
<path fill="none" stroke="midnightblue" d="M306.4,-511.03C406.85,-505.83 680.66,-490.58 908,-468 910.93,-467.71 913.92,-467.39 916.94,-467.06"/>
<polygon fill="midnightblue" stroke="midnightblue" points="305.93,-507.55 296.12,-511.56 306.29,-514.54 305.93,-507.55"/>
</g>
<!-- Node47 -->
<g id="node47" class="node">
<title>Node47</title>
<g id="a_node47"><a xlink:href="Match_8hpp.html" target="_top" xlink:title=" ">
<polygon fill="white" stroke="black" points="233,-448.5 233,-467.5 301,-467.5 301,-448.5 233,-448.5"/>
<text text-anchor="middle" x="267" y="-455.5" font-family="Helvetica,sans-Serif" font-size="10.00">Match.hpp</text>
</a>
</g>
</g>
<!-- Node1&#45;&gt;Node47 -->
<g id="edge59" class="edge">
<title>Node1&#45;&gt;Node47</title>
<path fill="none" stroke="midnightblue" d="M267,-493.8C267,-484.91 267,-474.78 267,-467.75"/>
<polygon fill="midnightblue" stroke="midnightblue" points="263.5,-494.08 267,-504.08 270.5,-494.08 263.5,-494.08"/>
</g>
<!-- Node48 -->
<g id="node48" class="node">
<title>Node48</title>
<g id="a_node48"><a xlink:href="Unique_8hpp.html" target="_top" xlink:title=" ">
<polygon fill="white" stroke="black" points="150,-392.5 150,-411.5 222,-411.5 222,-392.5 150,-392.5"/>
<text text-anchor="middle" x="186" y="-399.5" font-family="Helvetica,sans-Serif" font-size="10.00">Unique.hpp</text>
</a>
</g>
</g>
<!-- Node1&#45;&gt;Node48 -->
<g id="edge66" class="edge">
<title>Node1&#45;&gt;Node48</title>
<path fill="none" stroke="midnightblue" d="M250.04,-497.11C241.7,-488.84 231.79,-478.33 224,-468 209.84,-449.21 196.8,-424.71 190.31,-411.82"/>
<polygon fill="midnightblue" stroke="midnightblue" points="247.82,-499.82 257.44,-504.26 252.68,-494.79 247.82,-499.82"/>
</g>
<!-- Node49 -->
<g id="node49" class="node">
<title>Node49</title>
<g id="a_node49"><a xlink:href="Range_8hpp.html" target="_top" xlink:title=" ">
<polygon fill="white" stroke="black" points="109,-448.5 109,-467.5 177,-467.5 177,-448.5 109,-448.5"/>
<text text-anchor="middle" x="143" y="-455.5" font-family="Helvetica,sans-Serif" font-size="10.00">Range.hpp</text>
</a>
</g>
</g>
<!-- Node1&#45;&gt;Node49 -->
<g id="edge63" class="edge">
<title>Node1&#45;&gt;Node49</title>
<path fill="none" stroke="midnightblue" d="M237.99,-500.37C214.77,-490.26 182.84,-476.35 162.56,-467.52"/>
<polygon fill="midnightblue" stroke="midnightblue" points="236.79,-503.66 247.35,-504.44 239.58,-497.24 236.79,-503.66"/>
</g>
<!-- Node3 -->
<g id="node3" class="node">
<title>Node3</title>
<g id="a_node3"><a xlink:href="container__concepts_8hpp.html" target="_top" xlink:title=" ">
<polygon fill="white" stroke="black" points="772,-392.5 772,-411.5 904,-411.5 904,-392.5 772,-392.5"/>
<text text-anchor="middle" x="838" y="-399.5" font-family="Helvetica,sans-Serif" font-size="10.00">container_concepts.hpp</text>
</a>
</g>
</g>
<!-- Node2&#45;&gt;Node3 -->
<g id="edge2" class="edge">
<title>Node2&#45;&gt;Node3</title>
<path fill="none" stroke="midnightblue" d="M838,-437.8C838,-428.91 838,-418.78 838,-411.75"/>
<polygon fill="midnightblue" stroke="midnightblue" points="834.5,-438.08 838,-448.08 841.5,-438.08 834.5,-438.08"/>
</g>
<!-- Node36 -->
<g id="node36" class="node">
<title>Node36</title>
<g id="a_node36"><a xlink:href="ContiguousTree_8hpp.html" target="_top" xlink:title=" ">
<polygon fill="white" stroke="black" points="1427.5,-56.5 1427.5,-75.5 1540.5,-75.5 1540.5,-56.5 1427.5,-56.5"/>
<text text-anchor="middle" x="1484" y="-63.5" font-family="Helvetica,sans-Serif" font-size="10.00">ContiguousTree.hpp</text>
</a>
</g>
</g>
<!-- Node2&#45;&gt;Node36 -->
<g id="edge56" class="edge">
<title>Node2&#45;&gt;Node36</title>
<path fill="none" stroke="midnightblue" d="M909.34,-447.12C1092.31,-421.66 1564,-355.22 1564,-347 1564,-347 1564,-347 1564,-177 1564,-131.66 1519,-92.46 1496.5,-75.69"/>
<polygon fill="midnightblue" stroke="midnightblue" points="908.7,-443.67 899.27,-448.52 909.66,-450.61 908.7,-443.67"/>
</g>
<!-- Node42 -->
<g id="node42" class="node">
<title>Node42</title>
<g id="a_node42"><a xlink:href="polynomial__evaluation_8hpp.html" target="_top" xlink:title=" ">
<polygon fill="white" stroke="black" points="1591.5,-392.5 1591.5,-411.5 1740.5,-411.5 1740.5,-392.5 1591.5,-392.5"/>
<text text-anchor="middle" x="1666" y="-399.5" font-family="Helvetica,sans-Serif" font-size="10.00">polynomial_evaluation.hpp</text>
</a>
</g>
</g>
<!-- Node2&#45;&gt;Node42 -->
<g id="edge53" class="edge">
<title>Node2&#45;&gt;Node42</title>
<path fill="none" stroke="midnightblue" d="M909.27,-447.95C1206.71,-421.28 1284.03,-434.92 1578,-412 1582.29,-411.67 1586.69,-411.3 1591.13,-410.91"/>
<polygon fill="midnightblue" stroke="midnightblue" points="908.7,-444.49 899.05,-448.88 909.33,-451.46 908.7,-444.49"/>
</g>
<!-- Node43 -->
<g id="node43" class="node">
<title>Node43</title>
<g id="a_node43"><a xlink:href="TransformIterator_8hpp.html" target="_top" xlink:title=" ">
<polygon fill="white" stroke="black" points="1759,-392.5 1759,-411.5 1881,-411.5 1881,-392.5 1759,-392.5"/>
<text text-anchor="middle" x="1820" y="-399.5" font-family="Helvetica,sans-Serif" font-size="10.00">TransformIterator.hpp</text>
</a>
</g>
</g>
<!-- Node2&#45;&gt;Node43 -->
<g id="edge54" class="edge">
<title>Node2&#45;&gt;Node43</title>
<path fill="none" stroke="midnightblue" d="M909.06,-447.99C1282.9,-416.57 1380.08,-443.63 1750,-412 1752.93,-411.75 1755.93,-411.47 1758.95,-411.16"/>
<polygon fill="midnightblue" stroke="midnightblue" points="908.72,-444.51 899.05,-448.84 909.31,-451.48 908.72,-444.51"/>
</g>
<!-- Node44 -->
<g id="node44" class="node">
<title>Node44</title>
<g id="a_node44"><a xlink:href="NoOpIterator_8hpp.html" target="_top" xlink:title=" ">
<polygon fill="white" stroke="black" points="654,-392.5 654,-411.5 754,-411.5 754,-392.5 654,-392.5"/>
<text text-anchor="middle" x="704" y="-399.5" font-family="Helvetica,sans-Serif" font-size="10.00">NoOpIterator.hpp</text>
</a>
</g>
</g>
<!-- Node2&#45;&gt;Node44 -->
<g id="edge55" class="edge">
<title>Node2&#45;&gt;Node44</title>
<path fill="none" stroke="midnightblue" d="M807.32,-444.64C782.18,-434.5 747.25,-420.43 725.13,-411.52"/>
<polygon fill="midnightblue" stroke="midnightblue" points="806.18,-447.95 816.77,-448.44 808.8,-441.46 806.18,-447.95"/>
</g>
<!-- Node4 -->
<g id="node4" class="node">
<title>Node4</title>
<g id="a_node4"><a xlink:href="container__extension_8hpp.html" target="_top" xlink:title=" ">
<polygon fill="white" stroke="black" points="567.5,-112.5 567.5,-131.5 704.5,-131.5 704.5,-112.5 567.5,-112.5"/>
<text text-anchor="middle" x="636" y="-119.5" font-family="Helvetica,sans-Serif" font-size="10.00">container_extension.hpp</text>
</a>
</g>
</g>
<!-- Node3&#45;&gt;Node4 -->
<g id="edge3" class="edge">
<title>Node3&#45;&gt;Node4</title>
<path fill="none" stroke="midnightblue" d="M776.33,-389.67C754.63,-383 731.55,-372.5 715,-356 693.19,-334.26 691,-321.8 691,-291 691,-291 691,-291 691,-233 691,-191.36 659.09,-149.33 643.88,-131.67"/>
<polygon fill="midnightblue" stroke="midnightblue" points="775.6,-393.1 786.18,-392.46 777.52,-386.36 775.6,-393.1"/>
</g>
<!-- Node5 -->
<g id="node5" class="node">
<title>Node5</title>
<g id="a_node5"><a xlink:href="ParallelFor_8hpp.html" target="_top" xlink:title=" ">
<polygon fill="white" stroke="black" points="1096,-56.5 1096,-75.5 1184,-75.5 1184,-56.5 1096,-56.5"/>
<text text-anchor="middle" x="1140" y="-63.5" font-family="Helvetica,sans-Serif" font-size="10.00">ParallelFor.hpp</text>
</a>
</g>
</g>
<!-- Node3&#45;&gt;Node5 -->
<g id="edge4" class="edge">
<title>Node3&#45;&gt;Node5</title>
<path fill="none" stroke="midnightblue" d="M809.73,-387.77C777.44,-370.47 729,-336.88 729,-291 729,-291 729,-291 729,-233 729,-202.9 726.38,-188.94 748,-168 797.86,-119.72 1004.1,-85.82 1095.76,-72.85"/>
<polygon fill="midnightblue" stroke="midnightblue" points="808.27,-390.96 818.76,-392.42 811.47,-384.73 808.27,-390.96"/>
</g>
<!-- Node6 -->
<g id="node6" class="node">
<title>Node6</title>
<g id="a_node6"><a xlink:href="json_8hpp.html" target="_top" xlink:title=" ">
<polygon fill="white" stroke="black" points="757,-168.5 757,-187.5 815,-187.5 815,-168.5 757,-168.5"/>
<text text-anchor="middle" x="786" y="-175.5" font-family="Helvetica,sans-Serif" font-size="10.00">json.hpp</text>
</a>
</g>
</g>
<!-- Node3&#45;&gt;Node6 -->
<g id="edge5" class="edge">
<title>Node3&#45;&gt;Node6</title>
<path fill="none" stroke="midnightblue" d="M831.95,-382.86C829.33,-374.7 826.34,-364.91 824,-356 807.17,-291.85 792.27,-213.21 787.55,-187.54"/>
<polygon fill="midnightblue" stroke="midnightblue" points="828.65,-384.03 835.08,-392.44 835.3,-381.85 828.65,-384.03"/>
</g>
<!-- Node7 -->
<g id="node7" class="node">
<title>Node7</title>
<g id="a_node7"><a xlink:href="OutputStream_8hpp.html" target="_top" xlink:title=" ">
<polygon fill="white" stroke="black" points="541,-336.5 541,-355.5 647,-355.5 647,-336.5 541,-336.5"/>
<text text-anchor="middle" x="594" y="-343.5" font-family="Helvetica,sans-Serif" font-size="10.00">OutputStream.hpp</text>
</a>
</g>
</g>
<!-- Node3&#45;&gt;Node7 -->
<g id="edge6" class="edge">
<title>Node3&#45;&gt;Node7</title>
<path fill="none" stroke="midnightblue" d="M789.57,-390.28C743.46,-380.08 674.97,-364.92 632.48,-355.52"/>
<polygon fill="midnightblue" stroke="midnightblue" points="788.82,-393.7 799.34,-392.44 790.33,-386.87 788.82,-393.7"/>
</g>
<!-- Node25 -->
<g id="node25" class="node">
<title>Node25</title>
<g id="a_node25"><a xlink:href="UnstructuredView_8hpp.html" target="_top" xlink:title=" ">
<polygon fill="white" stroke="black" points="1034,-168.5 1034,-187.5 1158,-187.5 1158,-168.5 1034,-168.5"/>
<text text-anchor="middle" x="1096" y="-175.5" font-family="Helvetica,sans-Serif" font-size="10.00">UnstructuredView.hpp</text>
</a>
</g>
</g>
<!-- Node3&#45;&gt;Node25 -->
<g id="edge27" class="edge">
<title>Node3&#45;&gt;Node25</title>
<path fill="none" stroke="midnightblue" d="M840.3,-382.26C842.78,-368.37 847.83,-349.57 858,-336 916.62,-257.77 1026.45,-206.8 1073.58,-187.59"/>
<polygon fill="midnightblue" stroke="midnightblue" points="836.84,-381.75 838.82,-392.16 843.76,-382.79 836.84,-381.75"/>
</g>
<!-- Node26 -->
<g id="node26" class="node">
<title>Node26</title>
<g id="a_node26"><a xlink:href="MarchingContainer_8hpp.html" target="_top" xlink:title=" ">
<polygon fill="white" stroke="black" points="866.5,-336.5 866.5,-355.5 995.5,-355.5 995.5,-336.5 866.5,-336.5"/>
<text text-anchor="middle" x="931" y="-343.5" font-family="Helvetica,sans-Serif" font-size="10.00">MarchingContainer.hpp</text>
</a>
</g>
</g>
<!-- Node3&#45;&gt;Node26 -->
<g id="edge28" class="edge">
<title>Node3&#45;&gt;Node26</title>
<path fill="none" stroke="midnightblue" d="M861.81,-387.18C878.92,-377.24 901.47,-364.15 916.1,-355.65"/>
<polygon fill="midnightblue" stroke="midnightblue" points="859.83,-384.28 852.94,-392.32 863.35,-390.33 859.83,-384.28"/>
</g>
<!-- Node27 -->
<g id="node27" class="node">
<title>Node27</title>
<g id="a_node27"><a xlink:href="resize_8hpp.html" target="_top" xlink:title=" ">
<polygon fill="white" stroke="black" points="1173.5,-336.5 1173.5,-355.5 1240.5,-355.5 1240.5,-336.5 1173.5,-336.5"/>
<text text-anchor="middle" x="1207" y="-343.5" font-family="Helvetica,sans-Serif" font-size="10.00">resize.hpp</text>
</a>
</g>
</g>
<!-- Node3&#45;&gt;Node27 -->
<g id="edge29" class="edge">
<title>Node3&#45;&gt;Node27</title>
<path fill="none" stroke="midnightblue" d="M914.4,-391.3C979.54,-382.78 1075.58,-369.66 1159,-356 1163.69,-355.23 1168.62,-354.37 1173.47,-353.49"/>
<polygon fill="midnightblue" stroke="midnightblue" points="913.69,-387.86 904.22,-392.62 914.59,-394.8 913.69,-387.86"/>
</g>
<!-- Node28 -->
<g id="node28" class="node">
<title>Node28</title>
<g id="a_node28"><a xlink:href="STLContainerBase_8hpp.html" target="_top" xlink:title=" ">
<polygon fill="white" stroke="black" points="1096,-280.5 1096,-299.5 1222,-299.5 1222,-280.5 1096,-280.5"/>
<text text-anchor="middle" x="1159" y="-287.5" font-family="Helvetica,sans-Serif" font-size="10.00">STLContainerBase.hpp</text>
</a>
</g>
</g>
<!-- Node3&#45;&gt;Node28 -->
<g id="edge51" class="edge">
<title>Node3&#45;&gt;Node28</title>
<path fill="none" stroke="midnightblue" d="M914.35,-396.87C988.03,-391.52 1093.1,-379.89 1126,-356 1145.05,-342.17 1153.84,-314.12 1157.22,-299.82"/>
<polygon fill="midnightblue" stroke="midnightblue" points="913.9,-393.39 904.17,-397.58 914.39,-400.37 913.9,-393.39"/>
</g>
<!-- Node40 -->
<g id="node40" class="node">
<title>Node40</title>
<g id="a_node40"><a xlink:href="state__iterator_8hpp.html" target="_top" xlink:title=" ">
<polygon fill="white" stroke="black" points="1013.5,-336.5 1013.5,-355.5 1116.5,-355.5 1116.5,-336.5 1013.5,-336.5"/>
<text text-anchor="middle" x="1065" y="-343.5" font-family="Helvetica,sans-Serif" font-size="10.00">state_iterator.hpp</text>
</a>
</g>
</g>
<!-- Node3&#45;&gt;Node40 -->
<g id="edge50" class="edge">
<title>Node3&#45;&gt;Node40</title>
<path fill="none" stroke="midnightblue" d="M883.87,-390.09C926.75,-379.89 989.92,-364.86 1029.2,-355.52"/>
<polygon fill="midnightblue" stroke="midnightblue" points="882.89,-386.72 873.97,-392.44 884.51,-393.53 882.89,-386.72"/>
</g>
<!-- Node3&#45;&gt;Node41 -->
<g id="edge52" class="edge">
<title>Node3&#45;&gt;Node41</title>
<path fill="none" stroke="midnightblue" d="M767.32,-391.03C680.95,-378.86 539.13,-358.86 481.05,-350.67"/>
<polygon fill="midnightblue" stroke="midnightblue" points="766.92,-394.51 777.31,-392.44 767.9,-387.58 766.92,-394.51"/>
</g>
<!-- Node8 -->
<g id="node8" class="node">
<title>Node8</title>
<g id="a_node8"><a xlink:href="ArgParse_8hpp.html" target="_top" xlink:title=" ">
<polygon fill="white" stroke="black" points="520,-168.5 520,-187.5 600,-187.5 600,-168.5 520,-168.5"/>
<text text-anchor="middle" x="560" y="-175.5" font-family="Helvetica,sans-Serif" font-size="10.00">ArgParse.hpp</text>
</a>
</g>
</g>
<!-- Node7&#45;&gt;Node8 -->
<g id="edge7" class="edge">
<title>Node7&#45;&gt;Node8</title>
<path fill="none" stroke="midnightblue" d="M612.79,-329.66C620.97,-321.76 629.66,-311.4 634,-300 637.16,-291.69 636.76,-288.45 634,-280 621.09,-240.54 586.25,-203.74 569.39,-187.6"/>
<polygon fill="midnightblue" stroke="midnightblue" points="610.36,-327.14 605.27,-336.43 615.04,-332.34 610.36,-327.14"/>
</g>
<!-- Node15 -->
<g id="node15" class="node">
<title>Node15</title>
<g id="a_node15"><a xlink:href="FileOutputStream_8hpp.html" target="_top" xlink:title=" ">
<polygon fill="white" stroke="black" points="278.5,-280.5 278.5,-299.5 401.5,-299.5 401.5,-280.5 278.5,-280.5"/>
<text text-anchor="middle" x="340" y="-287.5" font-family="Helvetica,sans-Serif" font-size="10.00">FileOutputStream.hpp</text>
</a>
</g>
</g>
<!-- Node7&#45;&gt;Node15 -->
<g id="edge15" class="edge">
<title>Node7&#45;&gt;Node15</title>
<path fill="none" stroke="midnightblue" d="M543.88,-334.35C495.88,-324.14 424.38,-308.94 380.06,-299.52"/>
<polygon fill="midnightblue" stroke="midnightblue" points="543.24,-337.79 553.75,-336.44 544.7,-330.94 543.24,-337.79"/>
</g>
<!-- Node23 -->
<g id="node23" class="node">
<title>Node23</title>
<g id="a_node23"><a xlink:href="StreamInterceptor_8hpp.html" target="_top" xlink:title=" ">
<polygon fill="white" stroke="black" points="419.5,-280.5 419.5,-299.5 544.5,-299.5 544.5,-280.5 419.5,-280.5"/>
<text text-anchor="middle" x="482" y="-287.5" font-family="Helvetica,sans-Serif" font-size="10.00">StreamInterceptor.hpp</text>
</a>
</g>
</g>
<!-- Node7&#45;&gt;Node23 -->
<g id="edge25" class="edge">
<title>Node7&#45;&gt;Node23</title>
<path fill="none" stroke="midnightblue" d="M566.75,-331.86C545.98,-321.85 517.98,-308.35 499.95,-299.65"/>
<polygon fill="midnightblue" stroke="midnightblue" points="565.48,-335.13 576.01,-336.32 568.52,-328.83 565.48,-335.13"/>
</g>
<!-- Node24 -->
<g id="node24" class="node">
<title>Node24</title>
<g id="a_node24"><a xlink:href="Color_8hpp.html" target="_top" xlink:title=" ">
<polygon fill="white" stroke="black" points="563,-280.5 563,-299.5 625,-299.5 625,-280.5 563,-280.5"/>
<text text-anchor="middle" x="594" y="-287.5" font-family="Helvetica,sans-Serif" font-size="10.00">Color.hpp</text>
</a>
</g>
</g>
<!-- Node7&#45;&gt;Node24 -->
<g id="edge26" class="edge">
<title>Node7&#45;&gt;Node24</title>
<path fill="none" stroke="midnightblue" d="M594,-325.8C594,-316.91 594,-306.78 594,-299.75"/>
<polygon fill="midnightblue" stroke="midnightblue" points="590.5,-326.08 594,-336.08 597.5,-326.08 590.5,-326.08"/>
</g>
<!-- Node8&#45;&gt;Node4 -->
<g id="edge13" class="edge">
<title>Node8&#45;&gt;Node4</title>
<path fill="none" stroke="midnightblue" d="M580.58,-162.38C594.31,-152.62 611.93,-140.11 623.57,-131.83"/>
<polygon fill="midnightblue" stroke="midnightblue" points="578.34,-159.68 572.21,-168.32 582.39,-165.38 578.34,-159.68"/>
</g>
<!-- Node9 -->
<g id="node9" class="node">
<title>Node9</title>
<g id="a_node9"><a xlink:href="AbsArgument_8hpp.html" target="_top" xlink:title=" ">
<polygon fill="white" stroke="black" points="445,-112.5 445,-131.5 549,-131.5 549,-112.5 445,-112.5"/>
<text text-anchor="middle" x="497" y="-119.5" font-family="Helvetica,sans-Serif" font-size="10.00">AbsArgument.hpp</text>
</a>
</g>
</g>
<!-- Node8&#45;&gt;Node9 -->
<g id="edge8" class="edge">
<title>Node8&#45;&gt;Node9</title>
<path fill="none" stroke="midnightblue" d="M541.96,-161.54C530.73,-151.91 516.68,-139.87 507.31,-131.83"/>
<polygon fill="midnightblue" stroke="midnightblue" points="540.01,-164.47 549.88,-168.32 544.56,-159.16 540.01,-164.47"/>
</g>
<!-- Node14 -->
<g id="node14" class="node">
<title>Node14</title>
<g id="a_node14"><a xlink:href="file__system__extension_8hpp.html" target="_top" xlink:title=" ">
<polygon fill="white" stroke="black" points="279.5,-112.5 279.5,-131.5 426.5,-131.5 426.5,-112.5 279.5,-112.5"/>
<text text-anchor="middle" x="353" y="-119.5" font-family="Helvetica,sans-Serif" font-size="10.00">file_system_extension.hpp</text>
</a>
</g>
</g>
<!-- Node8&#45;&gt;Node14 -->
<g id="edge14" class="edge">
<title>Node8&#45;&gt;Node14</title>
<path fill="none" stroke="midnightblue" d="M517.18,-165.83C478.09,-155.63 421.17,-140.78 385.65,-131.52"/>
<polygon fill="midnightblue" stroke="midnightblue" points="516.64,-169.31 527.2,-168.44 518.41,-162.53 516.64,-169.31"/>
</g>
<!-- Node10 -->
<g id="node10" class="node">
<title>Node10</title>
<g id="a_node10"><a xlink:href="AggregateArgument_8hpp.html" target="_top" xlink:title=" ">
<polygon fill="white" stroke="black" points="676,-56.5 676,-75.5 812,-75.5 812,-56.5 676,-56.5"/>
<text text-anchor="middle" x="744" y="-63.5" font-family="Helvetica,sans-Serif" font-size="10.00">AggregateArgument.hpp</text>
</a>
</g>
</g>
<!-- Node9&#45;&gt;Node10 -->
<g id="edge9" class="edge">
<title>Node9&#45;&gt;Node10</title>
<path fill="none" stroke="midnightblue" d="M546.03,-110.28C592.7,-100.08 662.03,-84.92 705.05,-75.52"/>
<polygon fill="midnightblue" stroke="midnightblue" points="545.16,-106.89 536.14,-112.44 546.65,-113.73 545.16,-106.89"/>
</g>
<!-- Node11 -->
<g id="node11" class="node">
<title>Node11</title>
<g id="a_node11"><a xlink:href="FlagArgument_8hpp.html" target="_top" xlink:title=" ">
<polygon fill="white" stroke="black" points="252.5,-56.5 252.5,-75.5 359.5,-75.5 359.5,-56.5 252.5,-56.5"/>
<text text-anchor="middle" x="306" y="-63.5" font-family="Helvetica,sans-Serif" font-size="10.00">FlagArgument.hpp</text>
</a>
</g>
</g>
<!-- Node9&#45;&gt;Node11 -->
<g id="edge10" class="edge">
<title>Node9&#45;&gt;Node11</title>
<path fill="none" stroke="midnightblue" d="M457.03,-109.7C420.98,-99.51 368.76,-84.74 336.12,-75.52"/>
<polygon fill="midnightblue" stroke="midnightblue" points="456.16,-113.09 466.74,-112.44 458.06,-106.35 456.16,-113.09"/>
</g>
<!-- Node12 -->
<g id="node12" class="node">
<title>Node12</title>
<g id="a_node12"><a xlink:href="KeywordArgument_8hpp.html" target="_top" xlink:title=" ">
<polygon fill="white" stroke="black" points="378,-56.5 378,-75.5 506,-75.5 506,-56.5 378,-56.5"/>
<text text-anchor="middle" x="442" y="-63.5" font-family="Helvetica,sans-Serif" font-size="10.00">KeywordArgument.hpp</text>
</a>
</g>
</g>
<!-- Node9&#45;&gt;Node12 -->
<g id="edge11" class="edge">
<title>Node9&#45;&gt;Node12</title>
<path fill="none" stroke="midnightblue" d="M480.71,-105C470.96,-95.43 458.95,-83.64 450.91,-75.75"/>
<polygon fill="midnightblue" stroke="midnightblue" points="478.33,-107.57 487.92,-112.08 483.23,-102.58 478.33,-107.57"/>
</g>
<!-- Node13 -->
<g id="node13" class="node">
<title>Node13</title>
<g id="a_node13"><a xlink:href="PositionalArgument_8hpp.html" target="_top" xlink:title=" ">
<polygon fill="white" stroke="black" points="524,-56.5 524,-75.5 658,-75.5 658,-56.5 524,-56.5"/>
<text text-anchor="middle" x="591" y="-63.5" font-family="Helvetica,sans-Serif" font-size="10.00">PositionalArgument.hpp</text>
</a>
</g>
</g>
<!-- Node9&#45;&gt;Node13 -->
<g id="edge12" class="edge">
<title>Node9&#45;&gt;Node13</title>
<path fill="none" stroke="midnightblue" d="M521.06,-107.18C538.36,-97.24 561.15,-84.15 575.93,-75.65"/>
<polygon fill="midnightblue" stroke="midnightblue" points="519.03,-104.31 512.1,-112.32 522.52,-110.38 519.03,-104.31"/>
</g>
<!-- Node16 -->
<g id="node16" class="node">
<title>Node16</title>
<g id="a_node16"><a xlink:href="Logger_8hpp.html" target="_top" xlink:title=" ">
<polygon fill="white" stroke="black" points="148,-224.5 148,-243.5 218,-243.5 218,-224.5 148,-224.5"/>
<text text-anchor="middle" x="183" y="-231.5" font-family="Helvetica,sans-Serif" font-size="10.00">Logger.hpp</text>
</a>
</g>
</g>
<!-- Node15&#45;&gt;Node16 -->
<g id="edge16" class="edge">
<title>Node15&#45;&gt;Node16</title>
<path fill="none" stroke="midnightblue" d="M305.61,-277.17C276.05,-267 234.13,-252.59 207.76,-243.52"/>
<polygon fill="midnightblue" stroke="midnightblue" points="304.53,-280.5 315.12,-280.44 306.8,-273.88 304.53,-280.5"/>
</g>
<!-- Node17 -->
<g id="node17" class="node">
<title>Node17</title>
<g id="a_node17"><a xlink:href="LogBlock_8hpp.html" target="_top" xlink:title=" ">
<polygon fill="white" stroke="black" points="134,-168.5 134,-187.5 216,-187.5 216,-168.5 134,-168.5"/>
<text text-anchor="middle" x="175" y="-175.5" font-family="Helvetica,sans-Serif" font-size="10.00">LogBlock.hpp</text>
</a>
</g>
</g>
<!-- Node16&#45;&gt;Node17 -->
<g id="edge17" class="edge">
<title>Node16&#45;&gt;Node17</title>
<path fill="none" stroke="midnightblue" d="M180.2,-214.1C178.87,-205.14 177.35,-194.86 176.3,-187.75"/>
<polygon fill="midnightblue" stroke="midnightblue" points="176.75,-214.7 181.68,-224.08 183.68,-213.68 176.75,-214.7"/>
</g>
<!-- Node18 -->
<g id="node18" class="node">
<title>Node18</title>
<g id="a_node18"><a xlink:href="Loggee_8hpp.html" target="_top" xlink:title=" ">
<polygon fill="white" stroke="black" points="188.5,-112.5 188.5,-131.5 261.5,-131.5 261.5,-112.5 188.5,-112.5"/>
<text text-anchor="middle" x="225" y="-119.5" font-family="Helvetica,sans-Serif" font-size="10.00">Loggee.hpp</text>
</a>
</g>
</g>
<!-- Node16&#45;&gt;Node18 -->
<g id="edge21" class="edge">
<title>Node16&#45;&gt;Node18</title>
<path fill="none" stroke="midnightblue" d="M203.05,-217.53C211.53,-209.71 220.49,-199.45 225,-188 232.45,-169.1 229.42,-144.64 226.97,-131.79"/>
<polygon fill="midnightblue" stroke="midnightblue" points="200.53,-215.07 195.21,-224.24 205.09,-220.39 200.53,-215.07"/>
</g>
<!-- Node21 -->
<g id="node21" class="node">
<title>Node21</title>
<g id="a_node21"><a xlink:href="LoggerSingleton_8hpp.html" target="_top" xlink:title=" ">
<polygon fill="white" stroke="black" points="0,-168.5 0,-187.5 116,-187.5 116,-168.5 0,-168.5"/>
<text text-anchor="middle" x="58" y="-175.5" font-family="Helvetica,sans-Serif" font-size="10.00">LoggerSingleton.hpp</text>
</a>
</g>
</g>
<!-- Node16&#45;&gt;Node21 -->
<g id="edge22" class="edge">
<title>Node16&#45;&gt;Node21</title>
<path fill="none" stroke="midnightblue" d="M153.76,-220.37C130.35,-210.26 98.16,-196.35 77.71,-187.52"/>
<polygon fill="midnightblue" stroke="midnightblue" points="152.63,-223.69 163.19,-224.44 155.4,-217.26 152.63,-223.69"/>
</g>
<!-- Node17&#45;&gt;Node18 -->
<g id="edge18" class="edge">
<title>Node17&#45;&gt;Node18</title>
<path fill="none" stroke="midnightblue" d="M190.08,-160.72C198.89,-151.2 209.67,-139.56 216.9,-131.75"/>
<polygon fill="midnightblue" stroke="midnightblue" points="187.48,-158.37 183.26,-168.08 192.62,-163.12 187.48,-158.37"/>
</g>
<!-- Node19 -->
<g id="node19" class="node">
<title>Node19</title>
<g id="a_node19"><a xlink:href="testing_8hpp.html" target="_top" xlink:title=" ">
<polygon fill="white" stroke="black" points="99.5,-112.5 99.5,-131.5 170.5,-131.5 170.5,-112.5 99.5,-112.5"/>
<text text-anchor="middle" x="135" y="-119.5" font-family="Helvetica,sans-Serif" font-size="10.00">testing.hpp</text>
</a>
</g>
</g>
<!-- Node17&#45;&gt;Node19 -->
<g id="edge19" class="edge">
<title>Node17&#45;&gt;Node19</title>
<path fill="none" stroke="midnightblue" d="M162.3,-159.86C155.37,-150.5 147.09,-139.33 141.48,-131.75"/>
<polygon fill="midnightblue" stroke="midnightblue" points="159.63,-162.13 168.39,-168.08 165.25,-157.96 159.63,-162.13"/>
</g>
<!-- Node20 -->
<g id="node20" class="node">
<title>Node20</title>
<g id="a_node20"><a xlink:href="essentials_8hpp.html" target="_top" xlink:title=" ">
<polygon fill="white" stroke="black" points="91.5,-56.5 91.5,-75.5 178.5,-75.5 178.5,-56.5 91.5,-56.5"/>
<text text-anchor="middle" x="135" y="-63.5" font-family="Helvetica,sans-Serif" font-size="10.00">essentials.hpp</text>
</a>
</g>
</g>
<!-- Node19&#45;&gt;Node20 -->
<g id="edge20" class="edge">
<title>Node19&#45;&gt;Node20</title>
<path fill="none" stroke="midnightblue" d="M135,-101.8C135,-92.91 135,-82.78 135,-75.75"/>
<polygon fill="midnightblue" stroke="midnightblue" points="131.5,-102.08 135,-112.08 138.5,-102.08 131.5,-102.08"/>
</g>
<!-- Node21&#45;&gt;Node19 -->
<g id="edge23" class="edge">
<title>Node21&#45;&gt;Node19</title>
<path fill="none" stroke="midnightblue" d="M78.9,-162.34C92.91,-152.52 110.88,-139.91 122.66,-131.65"/>
<polygon fill="midnightblue" stroke="midnightblue" points="76.55,-159.72 70.37,-168.32 80.57,-165.45 76.55,-159.72"/>
</g>
<!-- Node22 -->
<g id="node22" class="node">
<title>Node22</title>
<g id="a_node22"><a xlink:href="warning_8hpp.html" target="_top" xlink:title=" ">
<polygon fill="white" stroke="black" points="4.5,-112.5 4.5,-131.5 81.5,-131.5 81.5,-112.5 4.5,-112.5"/>
<text text-anchor="middle" x="43" y="-119.5" font-family="Helvetica,sans-Serif" font-size="10.00">warning.hpp</text>
</a>
</g>
</g>
<!-- Node21&#45;&gt;Node22 -->
<g id="edge24" class="edge">
<title>Node21&#45;&gt;Node22</title>
<path fill="none" stroke="midnightblue" d="M52.83,-158.4C50.32,-149.36 47.43,-138.94 45.43,-131.75"/>
<polygon fill="midnightblue" stroke="midnightblue" points="49.47,-159.38 55.52,-168.08 56.22,-157.51 49.47,-159.38"/>
</g>
<!-- Node27&#45;&gt;Node28 -->
<g id="edge30" class="edge">
<title>Node27&#45;&gt;Node28</title>
<path fill="none" stroke="midnightblue" d="M1192.27,-328.43C1183.86,-318.97 1173.65,-307.48 1166.78,-299.75"/>
<polygon fill="midnightblue" stroke="midnightblue" points="1189.81,-330.93 1199.07,-336.08 1195.05,-326.28 1189.81,-330.93"/>
</g>
<!-- Node29 -->
<g id="node29" class="node">
<title>Node29</title>
<g id="a_node29"><a xlink:href="DynamicArray_8hpp.html" target="_top" xlink:title=" ">
<polygon fill="white" stroke="black" points="1133,-224.5 1133,-243.5 1239,-243.5 1239,-224.5 1133,-224.5"/>
<text text-anchor="middle" x="1186" y="-231.5" font-family="Helvetica,sans-Serif" font-size="10.00">DynamicArray.hpp</text>
</a>
</g>
</g>
<!-- Node28&#45;&gt;Node29 -->
<g id="edge31" class="edge">
<title>Node28&#45;&gt;Node29</title>
<path fill="none" stroke="midnightblue" d="M1168.01,-270.98C1172.59,-261.82 1177.95,-251.09 1181.62,-243.75"/>
<polygon fill="midnightblue" stroke="midnightblue" points="1164.8,-269.57 1163.46,-280.08 1171.06,-272.7 1164.8,-269.57"/>
</g>
<!-- Node38 -->
<g id="node38" class="node">
<title>Node38</title>
<g id="a_node38"><a xlink:href="StaticArray_8hpp.html" target="_top" xlink:title=" ">
<polygon fill="white" stroke="black" points="814,-224.5 814,-243.5 904,-243.5 904,-224.5 814,-224.5"/>
<text text-anchor="middle" x="859" y="-231.5" font-family="Helvetica,sans-Serif" font-size="10.00">StaticArray.hpp</text>
</a>
</g>
</g>
<!-- Node28&#45;&gt;Node38 -->
<g id="edge46" class="edge">
<title>Node28&#45;&gt;Node38</title>
<path fill="none" stroke="midnightblue" d="M1101.46,-278.64C1044.06,-268.31 957.04,-252.65 904.35,-243.16"/>
<polygon fill="midnightblue" stroke="midnightblue" points="1101,-282.12 1111.46,-280.44 1102.24,-275.23 1101,-282.12"/>
</g>
<!-- Node29&#45;&gt;Node5 -->
<g id="edge33" class="edge">
<title>Node29&#45;&gt;Node5</title>
<path fill="none" stroke="midnightblue" d="M1180.84,-214.39C1170.92,-178.59 1149.52,-101.34 1142.37,-75.57"/>
<polygon fill="midnightblue" stroke="midnightblue" points="1177.48,-215.37 1183.53,-224.08 1184.23,-213.5 1177.48,-215.37"/>
</g>
<!-- Node29&#45;&gt;Node8 -->
<g id="edge32" class="edge">
<title>Node29&#45;&gt;Node8</title>
<path fill="none" stroke="midnightblue" d="M1122.83,-227.55C994.5,-216.48 706.49,-191.64 600.31,-182.48"/>
<polygon fill="midnightblue" stroke="midnightblue" points="1122.63,-231.05 1132.9,-228.42 1123.24,-224.07 1122.63,-231.05"/>
</g>
<!-- Node29&#45;&gt;Node25 -->
<g id="edge42" class="edge">
<title>Node29&#45;&gt;Node25</title>
<path fill="none" stroke="midnightblue" d="M1162.96,-219.18C1146.4,-209.24 1124.58,-196.15 1110.42,-187.65"/>
<polygon fill="midnightblue" stroke="midnightblue" points="1161.16,-222.18 1171.54,-224.32 1164.77,-216.18 1161.16,-222.18"/>
</g>
<!-- Node30 -->
<g id="node30" class="node">
<title>Node30</title>
<g id="a_node30"><a xlink:href="ThreadLocal_8hpp.html" target="_top" xlink:title=" ">
<polygon fill="white" stroke="black" points="1438.5,-168.5 1438.5,-187.5 1535.5,-187.5 1535.5,-168.5 1438.5,-168.5"/>
<text text-anchor="middle" x="1487" y="-175.5" font-family="Helvetica,sans-Serif" font-size="10.00">ThreadLocal.hpp</text>
</a>
</g>
</g>
<!-- Node29&#45;&gt;Node30 -->
<g id="edge34" class="edge">
<title>Node29&#45;&gt;Node30</title>
<path fill="none" stroke="midnightblue" d="M1243.61,-222.66C1300.5,-212.46 1386.45,-197.04 1439.53,-187.52"/>
<polygon fill="midnightblue" stroke="midnightblue" points="1242.92,-219.23 1233.69,-224.44 1244.16,-226.12 1242.92,-219.23"/>
</g>
<!-- Node31 -->
<g id="node31" class="node">
<title>Node31</title>
<g id="a_node31"><a xlink:href="ThreadPoolStorage_8hpp.html" target="_top" xlink:title=" ">
<polygon fill="white" stroke="black" points="1214,-168.5 1214,-187.5 1344,-187.5 1344,-168.5 1214,-168.5"/>
<text text-anchor="middle" x="1279" y="-175.5" font-family="Helvetica,sans-Serif" font-size="10.00">ThreadPoolStorage.hpp</text>
</a>
</g>
</g>
<!-- Node29&#45;&gt;Node31 -->
<g id="edge35" class="edge">
<title>Node29&#45;&gt;Node31</title>
<path fill="none" stroke="midnightblue" d="M1209.81,-219.18C1226.92,-209.24 1249.47,-196.15 1264.1,-187.65"/>
<polygon fill="midnightblue" stroke="midnightblue" points="1207.83,-216.28 1200.94,-224.32 1211.35,-222.33 1207.83,-216.28"/>
</g>
<!-- Node35 -->
<g id="node35" class="node">
<title>Node35</title>
<g id="a_node35"><a xlink:href="abstree_8hpp.html" target="_top" xlink:title=" ">
<polygon fill="white" stroke="black" points="1335,-56.5 1335,-75.5 1409,-75.5 1409,-56.5 1335,-56.5"/>
<text text-anchor="middle" x="1372" y="-63.5" font-family="Helvetica,sans-Serif" font-size="10.00">abstree.hpp</text>
</a>
</g>
</g>
<!-- Node29&#45;&gt;Node35 -->
<g id="edge43" class="edge">
<title>Node29&#45;&gt;Node35</title>
<path fill="none" stroke="midnightblue" d="M1249.18,-223.28C1290.36,-215.62 1338.96,-203.63 1353,-188 1382.12,-155.57 1376.79,-97.49 1373.51,-75.63"/>
<polygon fill="midnightblue" stroke="midnightblue" points="1248.39,-219.87 1239.17,-225.09 1249.63,-226.76 1248.39,-219.87"/>
</g>
<!-- Node29&#45;&gt;Node36 -->
<g id="edge44" class="edge">
<title>Node29&#45;&gt;Node36</title>
<path fill="none" stroke="midnightblue" d="M1249.02,-227.21C1287.03,-221.51 1335.23,-210.25 1373,-188 1423.6,-158.2 1464.64,-98.01 1478.74,-75.63"/>
<polygon fill="midnightblue" stroke="midnightblue" points="1248.51,-223.74 1239.09,-228.6 1249.48,-230.68 1248.51,-223.74"/>
</g>
<!-- Node37 -->
<g id="node37" class="node">
<title>Node37</title>
<g id="a_node37"><a xlink:href="stl__extension_8hpp.html" target="_top" xlink:title=" ">
<polygon fill="white" stroke="black" points="912.5,-168.5 912.5,-187.5 1015.5,-187.5 1015.5,-168.5 912.5,-168.5"/>
<text text-anchor="middle" x="964" y="-175.5" font-family="Helvetica,sans-Serif" font-size="10.00">stl_extension.hpp</text>
</a>
</g>
</g>
<!-- Node29&#45;&gt;Node37 -->
<g id="edge45" class="edge">
<title>Node29&#45;&gt;Node37</title>
<path fill="none" stroke="midnightblue" d="M1140.88,-222.02C1098.94,-211.82 1037.35,-196.84 999.01,-187.52"/>
<polygon fill="midnightblue" stroke="midnightblue" points="1140.28,-225.48 1150.82,-224.44 1141.93,-218.68 1140.28,-225.48"/>
</g>
<!-- Node32 -->
<g id="node32" class="node">
<title>Node32</title>
<g id="a_node32"><a xlink:href="ThreadPool_8hpp.html" target="_top" xlink:title=" ">
<polygon fill="white" stroke="black" points="1233,-112.5 1233,-131.5 1325,-131.5 1325,-112.5 1233,-112.5"/>
<text text-anchor="middle" x="1279" y="-119.5" font-family="Helvetica,sans-Serif" font-size="10.00">ThreadPool.hpp</text>
</a>
</g>
</g>
<!-- Node31&#45;&gt;Node32 -->
<g id="edge36" class="edge">
<title>Node31&#45;&gt;Node32</title>
<path fill="none" stroke="midnightblue" d="M1279,-157.8C1279,-148.91 1279,-138.78 1279,-131.75"/>
<polygon fill="midnightblue" stroke="midnightblue" points="1275.5,-158.08 1279,-168.08 1282.5,-158.08 1275.5,-158.08"/>
</g>
<!-- Node32&#45;&gt;Node5 -->
<g id="edge37" class="edge">
<title>Node32&#45;&gt;Node5</title>
<path fill="none" stroke="midnightblue" d="M1247.52,-108.77C1221.41,-98.63 1184.96,-84.47 1161.92,-75.52"/>
<polygon fill="midnightblue" stroke="midnightblue" points="1246.39,-112.08 1256.98,-112.44 1248.92,-105.56 1246.39,-112.08"/>
</g>
<!-- Node33 -->
<g id="node33" class="node">
<title>Node33</title>
<g id="a_node33"><a xlink:href="ResourceLoader_8hpp.html" target="_top" xlink:title=" ">
<polygon fill="white" stroke="black" points="1201.5,-56.5 1201.5,-75.5 1316.5,-75.5 1316.5,-56.5 1201.5,-56.5"/>
<text text-anchor="middle" x="1259" y="-63.5" font-family="Helvetica,sans-Serif" font-size="10.00">ResourceLoader.hpp</text>
</a>
</g>
</g>
<!-- Node32&#45;&gt;Node33 -->
<g id="edge38" class="edge">
<title>Node32&#45;&gt;Node33</title>
<path fill="none" stroke="midnightblue" d="M1272.22,-102.69C1268.85,-93.59 1264.93,-83.01 1262.24,-75.75"/>
<polygon fill="midnightblue" stroke="midnightblue" points="1268.94,-103.92 1275.7,-112.08 1275.51,-101.49 1268.94,-103.92"/>
</g>
<!-- Node32&#45;&gt;Node35 -->
<g id="edge40" class="edge">
<title>Node32&#45;&gt;Node35</title>
<path fill="none" stroke="midnightblue" d="M1302.81,-107.18C1319.92,-97.24 1342.47,-84.15 1357.1,-75.65"/>
<polygon fill="midnightblue" stroke="midnightblue" points="1300.83,-104.28 1293.94,-112.32 1304.35,-110.33 1300.83,-104.28"/>
</g>
<!-- Node32&#45;&gt;Node36 -->
<g id="edge41" class="edge">
<title>Node32&#45;&gt;Node36</title>
<path fill="none" stroke="midnightblue" d="M1321.41,-109.83C1360.11,-99.63 1416.49,-84.78 1451.67,-75.52"/>
<polygon fill="midnightblue" stroke="midnightblue" points="1320.26,-106.51 1311.48,-112.44 1322.04,-113.28 1320.26,-106.51"/>
</g>
<!-- Node34 -->
<g id="node34" class="node">
<title>Node34</title>
<g id="a_node34"><a xlink:href="ResourceQueue_8hpp.html" target="_top" xlink:title=" ">
<polygon fill="white" stroke="black" points="1202,-0.5 1202,-19.5 1316,-19.5 1316,-0.5 1202,-0.5"/>
<text text-anchor="middle" x="1259" y="-7.5" font-family="Helvetica,sans-Serif" font-size="10.00">ResourceQueue.hpp</text>
</a>
</g>
</g>
<!-- Node33&#45;&gt;Node34 -->
<g id="edge39" class="edge">
<title>Node33&#45;&gt;Node34</title>
<path fill="none" stroke="midnightblue" d="M1259,-45.8C1259,-36.91 1259,-26.78 1259,-19.75"/>
<polygon fill="midnightblue" stroke="midnightblue" points="1255.5,-46.08 1259,-56.08 1262.5,-46.08 1255.5,-46.08"/>
</g>
<!-- Node38&#45;&gt;Node6 -->
<g id="edge47" class="edge">
<title>Node38&#45;&gt;Node6</title>
<path fill="none" stroke="midnightblue" d="M838.86,-218.1C825.72,-208.38 809.02,-196.03 797.94,-187.83"/>
<polygon fill="midnightblue" stroke="midnightblue" points="837.15,-221.19 847.27,-224.32 841.31,-215.56 837.15,-221.19"/>
</g>
<!-- Node38&#45;&gt;Node37 -->
<g id="edge49" class="edge">
<title>Node38&#45;&gt;Node37</title>
<path fill="none" stroke="midnightblue" d="M884.81,-219.73C904.25,-209.73 930.35,-196.31 947.17,-187.65"/>
<polygon fill="midnightblue" stroke="midnightblue" points="883.16,-216.64 875.87,-224.32 886.36,-222.86 883.16,-216.64"/>
</g>
<!-- Node39 -->
<g id="node39" class="node">
<title>Node39</title>
<g id="a_node39"><a xlink:href="base_8hpp.html" target="_top" xlink:title=" ">
<polygon fill="white" stroke="black" points="833.5,-168.5 833.5,-187.5 894.5,-187.5 894.5,-168.5 833.5,-168.5"/>
<text text-anchor="middle" x="864" y="-175.5" font-family="Helvetica,sans-Serif" font-size="10.00">base.hpp</text>
</a>
</g>
</g>
<!-- Node38&#45;&gt;Node39 -->
<g id="edge48" class="edge">
<title>Node38&#45;&gt;Node39</title>
<path fill="none" stroke="midnightblue" d="M860.75,-214.1C861.58,-205.14 862.53,-194.86 863.19,-187.75"/>
<polygon fill="midnightblue" stroke="midnightblue" points="857.26,-213.8 859.83,-224.08 864.23,-214.45 857.26,-213.8"/>
</g>
<!-- Node47&#45;&gt;Node8 -->
<g id="edge60" class="edge">
<title>Node47&#45;&gt;Node8</title>
<path fill="none" stroke="midnightblue" d="M262.33,-438.36C257.3,-416.58 250,-379.42 250,-347 250,-347 250,-347 250,-289 250,-232.39 435.91,-197.49 519.79,-184.63"/>
<polygon fill="midnightblue" stroke="midnightblue" points="258.97,-439.33 264.71,-448.23 265.77,-437.69 258.97,-439.33"/>
</g>
<!-- Node47&#45;&gt;Node45 -->
<g id="edge61" class="edge">
<title>Node47&#45;&gt;Node45</title>
<path fill="none" stroke="midnightblue" d="M230.18,-445.3C198.15,-435.13 152.48,-420.62 123.81,-411.52"/>
<polygon fill="midnightblue" stroke="midnightblue" points="229.47,-448.75 240.06,-448.44 231.59,-442.08 229.47,-448.75"/>
</g>
<!-- Node47&#45;&gt;Node48 -->
<g id="edge62" class="edge">
<title>Node47&#45;&gt;Node48</title>
<path fill="none" stroke="midnightblue" d="M245.43,-442.62C230.64,-432.76 211.49,-419.99 198.98,-411.65"/>
<polygon fill="midnightblue" stroke="midnightblue" points="243.72,-445.69 253.99,-448.32 247.61,-439.86 243.72,-445.69"/>
</g>
<!-- Node49&#45;&gt;Node45 -->
<g id="edge64" class="edge">
<title>Node49&#45;&gt;Node45</title>
<path fill="none" stroke="midnightblue" d="M128.89,-440.43C120.82,-430.97 111.04,-419.48 104.45,-411.75"/>
<polygon fill="midnightblue" stroke="midnightblue" points="126.25,-442.74 135.4,-448.08 131.58,-438.2 126.25,-442.74"/>
</g>
<!-- Node49&#45;&gt;Node48 -->
<g id="edge65" class="edge">
<title>Node49&#45;&gt;Node48</title>
<path fill="none" stroke="midnightblue" d="M156.42,-440.14C163.91,-430.74 172.94,-419.4 179.03,-411.75"/>
<polygon fill="midnightblue" stroke="midnightblue" points="153.59,-438.08 150.1,-448.08 159.07,-442.44 153.59,-438.08"/>
</g>
</g>
</svg>
