<?xml version="1.0" encoding="UTF-8" standalone="no"?>
<!DOCTYPE svg PUBLIC "-//W3C//DTD SVG 1.1//EN"
 "http://www.w3.org/Graphics/SVG/1.1/DTD/svg11.dtd">
<!-- Generated by graphviz version 2.43.0 (0)
 -->
<!-- Title: state_iterator.hpp Pages: 1 -->
<svg width="1198pt" height="463pt"
 viewBox="0.00 0.00 1197.50 463.00" xmlns="http://www.w3.org/2000/svg" xmlns:xlink="http://www.w3.org/1999/xlink">
<g id="graph0" class="graph" transform="scale(1 1) rotate(0) translate(4 459)">
<title>state_iterator.hpp</title>
<polygon fill="white" stroke="transparent" points="-4,4 -4,-459 1193.5,-459 1193.5,4 -4,4"/>
<!-- Node1 -->
<g id="node1" class="node">
<title>Node1</title>
<g id="a_node1"><a xlink:title=" ">
<polygon fill="#bfbfbf" stroke="black" points="829,-435.5 829,-454.5 932,-454.5 932,-435.5 829,-435.5"/>
<text text-anchor="middle" x="880.5" y="-442.5" font-family="Helvetica,sans-Serif" font-size="10.00">state_iterator.hpp</text>
</a>
</g>
</g>
<!-- Node2 -->
<g id="node2" class="node">
<title>Node2</title>
<g id="a_node2"><a xlink:href="container__concepts_8hpp.html" target="_top" xlink:title=" ">
<polygon fill="white" stroke="black" points="691,-357.5 691,-398.5 826,-398.5 826,-357.5 691,-357.5"/>
<text text-anchor="start" x="699" y="-386.5" font-family="Helvetica,sans-Serif" font-size="10.00">packages/compile_time</text>
<text text-anchor="start" x="699" y="-375.5" font-family="Helvetica,sans-Serif" font-size="10.00">/packages/concepts/inc</text>
<text text-anchor="middle" x="758.5" y="-364.5" font-family="Helvetica,sans-Serif" font-size="10.00">/container_concepts.hpp</text>
</a>
</g>
</g>
<!-- Node1&#45;&gt;Node2 -->
<g id="edge1" class="edge">
<title>Node1&#45;&gt;Node2</title>
<path fill="none" stroke="midnightblue" d="M864.3,-435.37C848.99,-427.21 825.28,-414.58 804.18,-403.34"/>
<polygon fill="midnightblue" stroke="midnightblue" points="805.81,-400.24 795.34,-398.63 802.52,-406.42 805.81,-400.24"/>
</g>
<!-- Node5 -->
<g id="node5" class="node">
<title>Node5</title>
<g id="a_node5"><a xlink:href="types_8hpp.html" target="_top" xlink:title=" ">
<polygon fill="white" stroke="black" points="379.5,-134.5 379.5,-164.5 489.5,-164.5 489.5,-134.5 379.5,-134.5"/>
<text text-anchor="start" x="387.5" y="-152.5" font-family="Helvetica,sans-Serif" font-size="10.00">packages/types/inc</text>
<text text-anchor="middle" x="434.5" y="-141.5" font-family="Helvetica,sans-Serif" font-size="10.00">/types.hpp</text>
</a>
</g>
</g>
<!-- Node1&#45;&gt;Node5 -->
<g id="edge26" class="edge">
<title>Node1&#45;&gt;Node5</title>
<path fill="none" stroke="midnightblue" d="M828.64,-443.09C717.08,-437.93 455.98,-407.96 351.5,-243 341.51,-227.23 342.35,-217.27 351.5,-201 359.16,-187.37 372.16,-176.99 385.62,-169.29"/>
<polygon fill="midnightblue" stroke="midnightblue" points="387.27,-172.38 394.48,-164.62 384,-166.19 387.27,-172.38"/>
</g>
<!-- Node21 -->
<g id="node21" class="node">
<title>Node21</title>
<g id="a_node21"><a xlink:title=" ">
<polygon fill="white" stroke="#bfbfbf" points="919,-212.5 919,-231.5 972,-231.5 972,-212.5 919,-212.5"/>
<text text-anchor="middle" x="945.5" y="-219.5" font-family="Helvetica,sans-Serif" font-size="10.00">iterator</text>
</a>
</g>
</g>
<!-- Node1&#45;&gt;Node21 -->
<g id="edge28" class="edge">
<title>Node1&#45;&gt;Node21</title>
<path fill="none" stroke="midnightblue" d="M878.19,-435.45C874.3,-419.68 867.52,-385.06 874.5,-357 885.82,-311.46 915.79,-264.38 932.96,-239.98"/>
<polygon fill="midnightblue" stroke="midnightblue" points="935.85,-241.95 938.84,-231.79 930.17,-237.86 935.85,-241.95"/>
</g>
<!-- Node23 -->
<g id="node23" class="node">
<title>Node23</title>
<g id="a_node23"><a xlink:title=" ">
<polygon fill="white" stroke="#bfbfbf" points="883,-368.5 883,-387.5 930,-387.5 930,-368.5 883,-368.5"/>
<text text-anchor="middle" x="906.5" y="-375.5" font-family="Helvetica,sans-Serif" font-size="10.00">vector</text>
</a>
</g>
</g>
<!-- Node1&#45;&gt;Node23 -->
<g id="edge27" class="edge">
<title>Node1&#45;&gt;Node23</title>
<path fill="none" stroke="midnightblue" d="M884.01,-435.23C887.9,-425.49 894.31,-409.48 899.29,-397.03"/>
<polygon fill="midnightblue" stroke="midnightblue" points="902.58,-398.21 903.05,-387.63 896.09,-395.61 902.58,-398.21"/>
</g>
<!-- Node24 -->
<g id="node24" class="node">
<title>Node24</title>
<g id="a_node24"><a xlink:title=" ">
<polygon fill="white" stroke="#bfbfbf" points="948,-368.5 948,-387.5 1013,-387.5 1013,-368.5 948,-368.5"/>
<text text-anchor="middle" x="980.5" y="-375.5" font-family="Helvetica,sans-Serif" font-size="10.00">functional</text>
</a>
</g>
</g>
<!-- Node1&#45;&gt;Node24 -->
<g id="edge29" class="edge">
<title>Node1&#45;&gt;Node24</title>
<path fill="none" stroke="midnightblue" d="M893.99,-435.23C910.55,-424.46 938.88,-406.05 958.59,-393.24"/>
<polygon fill="midnightblue" stroke="midnightblue" points="960.75,-396.01 967.23,-387.63 956.94,-390.14 960.75,-396.01"/>
</g>
<!-- Node25 -->
<g id="node25" class="node">
<title>Node25</title>
<g id="a_node25"><a xlink:title=" ">
<polygon fill="white" stroke="#bfbfbf" points="1031.5,-363 1031.5,-393 1189.5,-393 1189.5,-363 1031.5,-363"/>
<text text-anchor="start" x="1039.5" y="-381" font-family="Helvetica,sans-Serif" font-size="10.00">packages/stl_extension</text>
<text text-anchor="middle" x="1110.5" y="-370" font-family="Helvetica,sans-Serif" font-size="10.00">/impl/state_iterator_impl.hpp</text>
</a>
</g>
</g>
<!-- Node1&#45;&gt;Node25 -->
<g id="edge30" class="edge">
<title>Node1&#45;&gt;Node25</title>
<path fill="none" stroke="midnightblue" d="M911.04,-435.37C946.6,-425.32 1006.17,-408.49 1050.97,-395.82"/>
<polygon fill="midnightblue" stroke="midnightblue" points="1052.19,-399.12 1060.86,-393.03 1050.29,-392.38 1052.19,-399.12"/>
</g>
<!-- Node3 -->
<g id="node3" class="node">
<title>Node3</title>
<g id="a_node3"><a xlink:href="iterator__concepts_8hpp.html" target="_top" xlink:title=" ">
<polygon fill="white" stroke="black" points="692.5,-279.5 692.5,-320.5 824.5,-320.5 824.5,-279.5 692.5,-279.5"/>
<text text-anchor="start" x="700.5" y="-308.5" font-family="Helvetica,sans-Serif" font-size="10.00">packages/compile_time</text>
<text text-anchor="start" x="700.5" y="-297.5" font-family="Helvetica,sans-Serif" font-size="10.00">/packages/concepts/inc</text>
<text text-anchor="middle" x="758.5" y="-286.5" font-family="Helvetica,sans-Serif" font-size="10.00">/iterator_concepts.hpp</text>
</a>
</g>
</g>
<!-- Node2&#45;&gt;Node3 -->
<g id="edge2" class="edge">
<title>Node2&#45;&gt;Node3</title>
<path fill="none" stroke="midnightblue" d="M758.5,-357.43C758.5,-349.27 758.5,-339.62 758.5,-330.63"/>
<polygon fill="midnightblue" stroke="midnightblue" points="762,-330.51 758.5,-320.51 755,-330.51 762,-330.51"/>
</g>
<!-- Node4 -->
<g id="node4" class="node">
<title>Node4</title>
<g id="a_node4"><a xlink:href="basic__concepts_8hpp.html" target="_top" xlink:title=" ">
<polygon fill="white" stroke="black" points="692.5,-201.5 692.5,-242.5 824.5,-242.5 824.5,-201.5 692.5,-201.5"/>
<text text-anchor="start" x="700.5" y="-230.5" font-family="Helvetica,sans-Serif" font-size="10.00">packages/compile_time</text>
<text text-anchor="start" x="700.5" y="-219.5" font-family="Helvetica,sans-Serif" font-size="10.00">/packages/concepts/inc</text>
<text text-anchor="middle" x="758.5" y="-208.5" font-family="Helvetica,sans-Serif" font-size="10.00">/basic_concepts.hpp</text>
</a>
</g>
</g>
<!-- Node3&#45;&gt;Node4 -->
<g id="edge3" class="edge">
<title>Node3&#45;&gt;Node4</title>
<path fill="none" stroke="midnightblue" d="M758.5,-279.43C758.5,-271.27 758.5,-261.62 758.5,-252.63"/>
<polygon fill="midnightblue" stroke="midnightblue" points="762,-252.51 758.5,-242.51 755,-252.51 762,-252.51"/>
</g>
<!-- Node18 -->
<g id="node18" class="node">
<title>Node18</title>
<g id="a_node18"><a xlink:href="Size_8hpp.html" target="_top" xlink:title=" ">
<polygon fill="white" stroke="black" points="360.5,-201.5 360.5,-242.5 508.5,-242.5 508.5,-201.5 360.5,-201.5"/>
<text text-anchor="start" x="368.5" y="-230.5" font-family="Helvetica,sans-Serif" font-size="10.00">packages/compile_time</text>
<text text-anchor="start" x="368.5" y="-219.5" font-family="Helvetica,sans-Serif" font-size="10.00">/packages/parameter_pack</text>
<text text-anchor="middle" x="434.5" y="-208.5" font-family="Helvetica,sans-Serif" font-size="10.00">/inc/Size.hpp</text>
</a>
</g>
</g>
<!-- Node3&#45;&gt;Node18 -->
<g id="edge18" class="edge">
<title>Node3&#45;&gt;Node18</title>
<path fill="none" stroke="midnightblue" d="M692.49,-283.81C646.4,-273.18 583.18,-258.51 518.65,-243.26"/>
<polygon fill="midnightblue" stroke="midnightblue" points="519.24,-239.81 508.7,-240.91 517.63,-246.62 519.24,-239.81"/>
</g>
<!-- Node19 -->
<g id="node19" class="node">
<title>Node19</title>
<g id="a_node19"><a xlink:href="Select_8hpp.html" target="_top" xlink:title=" ">
<polygon fill="white" stroke="black" points="526.5,-201.5 526.5,-242.5 674.5,-242.5 674.5,-201.5 526.5,-201.5"/>
<text text-anchor="start" x="534.5" y="-230.5" font-family="Helvetica,sans-Serif" font-size="10.00">packages/compile_time</text>
<text text-anchor="start" x="534.5" y="-219.5" font-family="Helvetica,sans-Serif" font-size="10.00">/packages/parameter_pack</text>
<text text-anchor="middle" x="600.5" y="-208.5" font-family="Helvetica,sans-Serif" font-size="10.00">/inc/Select.hpp</text>
</a>
</g>
</g>
<!-- Node3&#45;&gt;Node19 -->
<g id="edge20" class="edge">
<title>Node3&#45;&gt;Node19</title>
<path fill="none" stroke="midnightblue" d="M717.81,-279.43C697.17,-269.5 671.92,-257.36 650.15,-246.88"/>
<polygon fill="midnightblue" stroke="midnightblue" points="651.58,-243.69 641.05,-242.51 648.55,-249.99 651.58,-243.69"/>
</g>
<!-- Node3&#45;&gt;Node21 -->
<g id="edge24" class="edge">
<title>Node3&#45;&gt;Node21</title>
<path fill="none" stroke="midnightblue" d="M817.42,-279.49C845.69,-269.54 879.78,-256.67 909.5,-243 913.71,-241.07 918.09,-238.83 922.29,-236.57"/>
<polygon fill="midnightblue" stroke="midnightblue" points="924.02,-239.61 931.05,-231.69 920.61,-233.5 924.02,-239.61"/>
</g>
<!-- Node22 -->
<g id="node22" class="node">
<title>Node22</title>
<g id="a_node22"><a xlink:title=" ">
<polygon fill="white" stroke="#bfbfbf" points="842.5,-212.5 842.5,-231.5 900.5,-231.5 900.5,-212.5 842.5,-212.5"/>
<text text-anchor="middle" x="871.5" y="-219.5" font-family="Helvetica,sans-Serif" font-size="10.00">memory</text>
</a>
</g>
</g>
<!-- Node3&#45;&gt;Node22 -->
<g id="edge25" class="edge">
<title>Node3&#45;&gt;Node22</title>
<path fill="none" stroke="midnightblue" d="M787.6,-279.43C807.2,-266.24 832.61,-249.16 850.3,-237.26"/>
<polygon fill="midnightblue" stroke="midnightblue" points="852.44,-240.04 858.78,-231.55 848.53,-234.23 852.44,-240.04"/>
</g>
<!-- Node4&#45;&gt;Node5 -->
<g id="edge4" class="edge">
<title>Node4&#45;&gt;Node5</title>
<path fill="none" stroke="midnightblue" d="M692.3,-203.11C689.33,-202.39 686.39,-201.68 683.5,-201 621.43,-186.44 550.07,-172.23 499.7,-162.6"/>
<polygon fill="midnightblue" stroke="midnightblue" points="500.08,-159.11 489.6,-160.68 498.77,-165.99 500.08,-159.11"/>
</g>
<!-- Node11 -->
<g id="node11" class="node">
<title>Node11</title>
<g id="a_node11"><a xlink:title=" ">
<polygon fill="white" stroke="#bfbfbf" points="665,-73 665,-92 734,-92 734,-73 665,-73"/>
<text text-anchor="middle" x="699.5" y="-80" font-family="Helvetica,sans-Serif" font-size="10.00">type_traits</text>
</a>
</g>
</g>
<!-- Node4&#45;&gt;Node11 -->
<g id="edge15" class="edge">
<title>Node4&#45;&gt;Node11</title>
<path fill="none" stroke="midnightblue" d="M741.63,-201.44C733.57,-191.19 724.41,-178.06 718.5,-165 709.36,-144.78 704.36,-119.67 701.82,-102.71"/>
<polygon fill="midnightblue" stroke="midnightblue" points="705.24,-101.87 700.43,-92.43 698.3,-102.81 705.24,-101.87"/>
</g>
<!-- Node15 -->
<g id="node15" class="node">
<title>Node15</title>
<g id="a_node15"><a xlink:title=" ">
<polygon fill="white" stroke="#bfbfbf" points="727.5,-140 727.5,-159 787.5,-159 787.5,-140 727.5,-140"/>
<text text-anchor="middle" x="757.5" y="-147" font-family="Helvetica,sans-Serif" font-size="10.00">concepts</text>
</a>
</g>
</g>
<!-- Node4&#45;&gt;Node15 -->
<g id="edge14" class="edge">
<title>Node4&#45;&gt;Node15</title>
<path fill="none" stroke="midnightblue" d="M758.22,-201.36C758.08,-191.3 757.91,-179.1 757.76,-169.18"/>
<polygon fill="midnightblue" stroke="midnightblue" points="761.26,-169.12 757.62,-159.17 754.27,-169.22 761.26,-169.12"/>
</g>
<!-- Node16 -->
<g id="node16" class="node">
<title>Node16</title>
<g id="a_node16"><a xlink:title=" ">
<polygon fill="white" stroke="#bfbfbf" points="805.5,-140 805.5,-159 855.5,-159 855.5,-140 805.5,-140"/>
<text text-anchor="middle" x="830.5" y="-147" font-family="Helvetica,sans-Serif" font-size="10.00">cstdint</text>
</a>
</g>
</g>
<!-- Node4&#45;&gt;Node16 -->
<g id="edge16" class="edge">
<title>Node4&#45;&gt;Node16</title>
<path fill="none" stroke="midnightblue" d="M778.56,-201.36C789.83,-190.32 803.72,-176.72 814.3,-166.37"/>
<polygon fill="midnightblue" stroke="midnightblue" points="816.95,-168.67 821.64,-159.17 812.05,-163.67 816.95,-168.67"/>
</g>
<!-- Node17 -->
<g id="node17" class="node">
<title>Node17</title>
<g id="a_node17"><a xlink:title=" ">
<polygon fill="white" stroke="#bfbfbf" points="874,-140 874,-159 919,-159 919,-140 874,-140"/>
<text text-anchor="middle" x="896.5" y="-147" font-family="Helvetica,sans-Serif" font-size="10.00">utility</text>
</a>
</g>
</g>
<!-- Node4&#45;&gt;Node17 -->
<g id="edge17" class="edge">
<title>Node4&#45;&gt;Node17</title>
<path fill="none" stroke="midnightblue" d="M796.94,-201.36C820.35,-189.4 849.64,-174.44 870.37,-163.85"/>
<polygon fill="midnightblue" stroke="midnightblue" points="872.21,-166.84 879.52,-159.17 869.02,-160.61 872.21,-166.84"/>
</g>
<!-- Node6 -->
<g id="node6" class="node">
<title>Node6</title>
<g id="a_node6"><a xlink:href="debug_8hpp.html" target="_top" xlink:title=" ">
<polygon fill="white" stroke="black" points="54,-67.5 54,-97.5 173,-97.5 173,-67.5 54,-67.5"/>
<text text-anchor="start" x="62" y="-85.5" font-family="Helvetica,sans-Serif" font-size="10.00">packages/macros/inc</text>
<text text-anchor="middle" x="113.5" y="-74.5" font-family="Helvetica,sans-Serif" font-size="10.00">/debug.hpp</text>
</a>
</g>
</g>
<!-- Node5&#45;&gt;Node6 -->
<g id="edge5" class="edge">
<title>Node5&#45;&gt;Node6</title>
<path fill="none" stroke="midnightblue" d="M379.18,-137.67C330.1,-128.02 256.18,-113.36 183.04,-98.31"/>
<polygon fill="midnightblue" stroke="midnightblue" points="183.7,-94.87 173.19,-96.28 182.28,-101.72 183.7,-94.87"/>
</g>
<!-- Node9 -->
<g id="node9" class="node">
<title>Node9</title>
<g id="a_node9"><a xlink:title=" ">
<polygon fill="white" stroke="#bfbfbf" points="191,-73 191,-92 244,-92 244,-73 191,-73"/>
<text text-anchor="middle" x="217.5" y="-80" font-family="Helvetica,sans-Serif" font-size="10.00">cstddef</text>
</a>
</g>
</g>
<!-- Node5&#45;&gt;Node9 -->
<g id="edge8" class="edge">
<title>Node5&#45;&gt;Node9</title>
<path fill="none" stroke="midnightblue" d="M379.37,-134.81C343.26,-125.44 295.2,-112.17 253.5,-98 251.37,-97.28 249.19,-96.5 247.01,-95.69"/>
<polygon fill="midnightblue" stroke="midnightblue" points="248.12,-92.37 237.54,-92.03 245.6,-98.9 248.12,-92.37"/>
</g>
<!-- Node10 -->
<g id="node10" class="node">
<title>Node10</title>
<g id="a_node10"><a xlink:title=" ">
<polygon fill="white" stroke="#bfbfbf" points="262.5,-73 262.5,-92 306.5,-92 306.5,-73 262.5,-73"/>
<text text-anchor="middle" x="284.5" y="-80" font-family="Helvetica,sans-Serif" font-size="10.00">string</text>
</a>
</g>
</g>
<!-- Node5&#45;&gt;Node10 -->
<g id="edge9" class="edge">
<title>Node5&#45;&gt;Node10</title>
<path fill="none" stroke="midnightblue" d="M400.51,-134.46C376.63,-124.5 343.99,-110.7 315.5,-98 314.31,-97.47 313.1,-96.92 311.87,-96.37"/>
<polygon fill="midnightblue" stroke="midnightblue" points="313.03,-93.05 302.48,-92.04 310.1,-99.41 313.03,-93.05"/>
</g>
<!-- Node5&#45;&gt;Node11 -->
<g id="edge10" class="edge">
<title>Node5&#45;&gt;Node11</title>
<path fill="none" stroke="midnightblue" d="M489.81,-137.36C534.73,-127.96 599.57,-113.57 655.5,-98 658.68,-97.12 661.96,-96.14 665.25,-95.13"/>
<polygon fill="midnightblue" stroke="midnightblue" points="666.49,-98.41 674.96,-92.04 664.37,-91.74 666.49,-98.41"/>
</g>
<!-- Node12 -->
<g id="node12" class="node">
<title>Node12</title>
<g id="a_node12"><a xlink:title=" ">
<polygon fill="white" stroke="#bfbfbf" points="324.5,-73 324.5,-92 374.5,-92 374.5,-73 324.5,-73"/>
<text text-anchor="middle" x="349.5" y="-80" font-family="Helvetica,sans-Serif" font-size="10.00">climits</text>
</a>
</g>
</g>
<!-- Node5&#45;&gt;Node12 -->
<g id="edge11" class="edge">
<title>Node5&#45;&gt;Node12</title>
<path fill="none" stroke="midnightblue" d="M416.06,-134.4C402.15,-123.76 383.11,-109.2 368.96,-98.38"/>
<polygon fill="midnightblue" stroke="midnightblue" points="370.94,-95.49 360.87,-92.19 366.69,-101.05 370.94,-95.49"/>
</g>
<!-- Node13 -->
<g id="node13" class="node">
<title>Node13</title>
<g id="a_node13"><a xlink:title=" ">
<polygon fill="white" stroke="#bfbfbf" points="393,-67.5 393,-97.5 510,-97.5 510,-67.5 393,-67.5"/>
<text text-anchor="start" x="401" y="-85.5" font-family="Helvetica,sans-Serif" font-size="10.00">packages/types/impl</text>
<text text-anchor="middle" x="451.5" y="-74.5" font-family="Helvetica,sans-Serif" font-size="10.00">/types_impl.hpp</text>
</a>
</g>
</g>
<!-- Node5&#45;&gt;Node13 -->
<g id="edge12" class="edge">
<title>Node5&#45;&gt;Node13</title>
<path fill="none" stroke="midnightblue" d="M438.19,-134.4C440.26,-126.47 442.9,-116.38 445.28,-107.27"/>
<polygon fill="midnightblue" stroke="midnightblue" points="448.67,-108.14 447.82,-97.58 441.9,-106.37 448.67,-108.14"/>
</g>
<!-- Node14 -->
<g id="node14" class="node">
<title>Node14</title>
<g id="a_node14"><a xlink:href="logging_8hpp.html" target="_top" xlink:title=" ">
<polygon fill="white" stroke="black" points="528,-67.5 528,-97.5 647,-97.5 647,-67.5 528,-67.5"/>
<text text-anchor="start" x="536" y="-85.5" font-family="Helvetica,sans-Serif" font-size="10.00">packages/macros/inc</text>
<text text-anchor="middle" x="587.5" y="-74.5" font-family="Helvetica,sans-Serif" font-size="10.00">/logging.hpp</text>
</a>
</g>
</g>
<!-- Node5&#45;&gt;Node14 -->
<g id="edge13" class="edge">
<title>Node5&#45;&gt;Node14</title>
<path fill="none" stroke="midnightblue" d="M467.7,-134.4C490.35,-124.77 520.57,-111.94 544.98,-101.56"/>
<polygon fill="midnightblue" stroke="midnightblue" points="546.53,-104.71 554.37,-97.58 543.79,-98.27 546.53,-104.71"/>
</g>
<!-- Node7 -->
<g id="node7" class="node">
<title>Node7</title>
<g id="a_node7"><a xlink:href="detail_8hpp.html" target="_top" xlink:title=" ">
<polygon fill="white" stroke="black" points="0,-0.5 0,-30.5 119,-30.5 119,-0.5 0,-0.5"/>
<text text-anchor="start" x="8" y="-18.5" font-family="Helvetica,sans-Serif" font-size="10.00">packages/macros/inc</text>
<text text-anchor="middle" x="59.5" y="-7.5" font-family="Helvetica,sans-Serif" font-size="10.00">/detail.hpp</text>
</a>
</g>
</g>
<!-- Node6&#45;&gt;Node7 -->
<g id="edge6" class="edge">
<title>Node6&#45;&gt;Node7</title>
<path fill="none" stroke="midnightblue" d="M101.78,-67.4C94.78,-58.96 85.73,-48.07 77.79,-38.52"/>
<polygon fill="midnightblue" stroke="midnightblue" points="80.28,-36.03 71.19,-30.58 74.89,-40.51 80.28,-36.03"/>
</g>
<!-- Node8 -->
<g id="node8" class="node">
<title>Node8</title>
<g id="a_node8"><a xlink:title=" ">
<polygon fill="white" stroke="#bfbfbf" points="137.5,-6 137.5,-25 197.5,-25 197.5,-6 137.5,-6"/>
<text text-anchor="middle" x="167.5" y="-13" font-family="Helvetica,sans-Serif" font-size="10.00">iostream</text>
</a>
</g>
</g>
<!-- Node6&#45;&gt;Node8 -->
<g id="edge7" class="edge">
<title>Node6&#45;&gt;Node8</title>
<path fill="none" stroke="midnightblue" d="M125.22,-67.4C133.64,-57.26 145.01,-43.57 153.84,-32.94"/>
<polygon fill="midnightblue" stroke="midnightblue" points="156.58,-35.12 160.28,-25.19 151.19,-30.65 156.58,-35.12"/>
</g>
<!-- Node18&#45;&gt;Node5 -->
<g id="edge19" class="edge">
<title>Node18&#45;&gt;Node5</title>
<path fill="none" stroke="midnightblue" d="M434.5,-201.36C434.5,-193.23 434.5,-183.7 434.5,-175.11"/>
<polygon fill="midnightblue" stroke="midnightblue" points="438,-174.89 434.5,-164.89 431,-174.89 438,-174.89"/>
</g>
<!-- Node19&#45;&gt;Node5 -->
<g id="edge21" class="edge">
<title>Node19&#45;&gt;Node5</title>
<path fill="none" stroke="midnightblue" d="M554.26,-201.36C530.06,-191.08 500.64,-178.59 477.01,-168.55"/>
<polygon fill="midnightblue" stroke="midnightblue" points="478.18,-165.25 467.6,-164.56 475.44,-171.69 478.18,-165.25"/>
</g>
<!-- Node19&#45;&gt;Node11 -->
<g id="edge22" class="edge">
<title>Node19&#45;&gt;Node11</title>
<path fill="none" stroke="midnightblue" d="M600.56,-201.31C601.53,-182.45 605.48,-154 619.5,-134 631.24,-117.25 650.5,-104.84 667.17,-96.52"/>
<polygon fill="midnightblue" stroke="midnightblue" points="669.05,-99.5 676.62,-92.09 666.08,-93.17 669.05,-99.5"/>
</g>
<!-- Node20 -->
<g id="node20" class="node">
<title>Node20</title>
<g id="a_node20"><a xlink:title=" ">
<polygon fill="white" stroke="#bfbfbf" points="629,-140 629,-159 670,-159 670,-140 629,-140"/>
<text text-anchor="middle" x="649.5" y="-147" font-family="Helvetica,sans-Serif" font-size="10.00">tuple</text>
</a>
</g>
</g>
<!-- Node19&#45;&gt;Node20 -->
<g id="edge23" class="edge">
<title>Node19&#45;&gt;Node20</title>
<path fill="none" stroke="midnightblue" d="M614.15,-201.36C621.52,-190.76 630.53,-177.79 637.62,-167.6"/>
<polygon fill="midnightblue" stroke="midnightblue" points="640.64,-169.38 643.47,-159.17 634.89,-165.39 640.64,-169.38"/>
</g>
</g>
</svg>
