<?xml version="1.0" encoding="UTF-8" standalone="no"?>
<!DOCTYPE svg PUBLIC "-//W3C//DTD SVG 1.1//EN"
 "http://www.w3.org/Graphics/SVG/1.1/DTD/svg11.dtd">
<!-- Generated by graphviz version 2.43.0 (0)
 -->
<!-- Title: state_iterator.hpp Pages: 1 -->
<!--zoomable 456 -->

<svg id="main" version="1.1" xmlns="http://www.w3.org/2000/svg" xmlns:xlink="http://www.w3.org/1999/xlink" xml:space="preserve" onload="init(evt)">
<style type="text/css"><![CDATA[
.node, .edge {opacity: 0.7;}
.node.selected, .edge.selected {opacity: 1;}
.edge:hover path { stroke: red; }
.edge:hover polygon { stroke: red; fill: red; }
]]></style>

<defs>
  <circle id="rim" cx="0" cy="0" r="7"/>
  <circle id="rim2" cx="0" cy="0" r="3.5"/>
  <g id="zoomPlus">
    <use xlink:href="#rim" fill="#404040"><set attributeName="fill" to="#808080" begin="zoomplus.mouseover" end="zoomplus.mouseout"/></use>
    <path d="M-4,0h8M0,-4v8" fill="none" stroke="white" stroke-width="1.5" pointer-events="none"/>
  </g>
  <g id="zoomMin">
    <use xlink:href="#rim" fill="#404040"><set attributeName="fill" to="#808080" begin="zoomminus.mouseover" end="zoomminus.mouseout"/></use>
    <path d="M-4,0h8" fill="none" stroke="white" stroke-width="1.5" pointer-events="none"/>
  </g>
  <g id="arrowUp" transform="translate(30 24)">
    <use xlink:href="#rim"/>
    <path pointer-events="none" fill="none" stroke="white" stroke-width="1.5" d="M0,-3.0v7 M-2.5,-0.5L0,-3.0L2.5,-0.5"/>
  </g>
  <g id="arrowRight" transform="rotate(90) translate(36 -43)">
    <use xlink:href="#rim"/>
    <path pointer-events="none" fill="none" stroke="white" stroke-width="1.5" d="M0,-3.0v7 M-2.5,-0.5L0,-3.0L2.5,-0.5"/>
  </g>
  <g id="arrowDown" transform="rotate(180) translate(-30 -48)">
    <use xlink:href="#rim"/>
    <path pointer-events="none" fill="none" stroke="white" stroke-width="1.5" d="M0,-3.0v7 M-2.5,-0.5L0,-3.0L2.5,-0.5"/>
  </g>
  <g id="arrowLeft" transform="rotate(270) translate(-36 17)">
    <use xlink:href="#rim"/>
    <path pointer-events="none" fill="none" stroke="white" stroke-width="1.5" d="M0,-3.0v7 M-2.5,-0.5L0,-3.0L2.5,-0.5"/>
  </g>
  <g id="resetDef">
    <use xlink:href="#rim2" fill="#404040"><set attributeName="fill" to="#808080" begin="reset.mouseover" end="reset.mouseout"/></use>
  </g>
</defs>
<script type="application/ecmascript">
var viewWidth = 1070;
var viewHeight = 456;
var sectionId = 'dynsection-0';
</script>
<script type="application/ecmascript" xlink:href="svg.min.js"/>
<svg id="graph" class="graph">
<g id="viewport">
<title>state_iterator.hpp</title>
<!-- Node1 -->
<g id="Node000001" class="node">
<title>Node1</title>
<g id="a_Node000001"><a xlink:title=" ">
<polygon fill="#999999" stroke="#666666" points="804,-448 701,-448 701,-429 804,-429 804,-448"/>
<text text-anchor="middle" x="752.5" y="-436" font-family="Helvetica,sans-Serif" font-size="10.00">state_iterator.hpp</text>
</a>
</g>
</g>
<!-- Node2 -->
<g id="Node000002" class="node">
<title>Node2</title>
<g id="a_Node000002"><a xlink:href="container__concepts_8hpp.html" target="_top" xlink:title=" ">
<polygon fill="white" stroke="#666666" points="698,-393 563,-393 563,-352 698,-352 698,-393"/>
<text text-anchor="start" x="571" y="-381" font-family="Helvetica,sans-Serif" font-size="10.00">packages/compile_time</text>
<text text-anchor="start" x="571" y="-370" font-family="Helvetica,sans-Serif" font-size="10.00">/packages/concepts/inc</text>
<text text-anchor="middle" x="630.5" y="-359" font-family="Helvetica,sans-Serif" font-size="10.00">/container_concepts.hpp</text>
</a>
</g>
</g>
<!-- Node1&#45;&gt;Node2 -->
<g id="edge1_Node000001_Node000002" class="edge">
<title>Node1&#45;&gt;Node2</title>
<g id="a_edge1_Node000001_Node000002"><a xlink:title=" ">
<path fill="none" stroke="#63b8ff" d="M736.05,-428.87C720.86,-420.9 697.58,-408.69 676.74,-397.76"/>
<polygon fill="#63b8ff" stroke="#63b8ff" points="678.17,-394.56 667.69,-393.01 674.92,-400.75 678.17,-394.56"/>
</a>
</g>
</g>
<!-- Node5 -->
<g id="Node000005" class="node">
<title>Node5</title>
<g id="a_Node000005"><a xlink:href="types_8hpp.html" target="_top" xlink:title=" ">
<polygon fill="white" stroke="#666666" points="361.5,-162 251.5,-162 251.5,-132 361.5,-132 361.5,-162"/>
<text text-anchor="start" x="259.5" y="-150" font-family="Helvetica,sans-Serif" font-size="10.00">packages/types/inc</text>
<text text-anchor="middle" x="306.5" y="-139" font-family="Helvetica,sans-Serif" font-size="10.00">/types.hpp</text>
</a>
</g>
</g>
<!-- Node1&#45;&gt;Node5 -->
<g id="edge26_Node000001_Node000005" class="edge">
<title>Node1&#45;&gt;Node5</title>
<g id="a_edge26_Node000001_Node000005"><a xlink:title=" ">
<path fill="none" stroke="#63b8ff" d="M700.68,-436.83C589.19,-432.19 328.23,-403.44 223.5,-239 213.71,-223.63 214.54,-213.86 223.5,-198 231.03,-184.67 243.7,-174.5 256.89,-166.93"/>
<polygon fill="#63b8ff" stroke="#63b8ff" points="258.85,-169.85 266.06,-162.09 255.58,-163.66 258.85,-169.85"/>
</a>
</g>
</g>
<!-- Node21 -->
<g id="Node000021" class="node">
<title>Node21</title>
<g id="a_Node000021"><a xlink:title=" ">
<polygon fill="#e0e0e0" stroke="#999999" points="844,-228 791,-228 791,-209 844,-209 844,-228"/>
<text text-anchor="middle" x="817.5" y="-216" font-family="Helvetica,sans-Serif" font-size="10.00">iterator</text>
</a>
</g>
</g>
<!-- Node1&#45;&gt;Node21 -->
<g id="edge28_Node000001_Node000021" class="edge">
<title>Node1&#45;&gt;Node21</title>
<g id="a_edge28_Node000001_Node000021"><a xlink:title=" ">
<path fill="none" stroke="#63b8ff" d="M750.14,-428.85C746.26,-413.24 739.62,-379.42 746.5,-352 757.83,-306.89 787.8,-260.37 804.96,-236.26"/>
<polygon fill="#63b8ff" stroke="#63b8ff" points="807.79,-238.32 810.85,-228.17 802.13,-234.2 807.79,-238.32"/>
</a>
</g>
</g>
<!-- Node23 -->
<g id="Node000023" class="node">
<title>Node23</title>
<g id="a_Node000023"><a xlink:title=" ">
<polygon fill="#e0e0e0" stroke="#999999" points="802,-382 755,-382 755,-363 802,-363 802,-382"/>
<text text-anchor="middle" x="778.5" y="-370" font-family="Helvetica,sans-Serif" font-size="10.00">vector</text>
</a>
</g>
</g>
<!-- Node1&#45;&gt;Node23 -->
<g id="edge27_Node000001_Node000023" class="edge">
<title>Node1&#45;&gt;Node23</title>
<g id="a_edge27_Node000001_Node000023"><a xlink:title=" ">
<path fill="none" stroke="#63b8ff" d="M756.01,-428.87C759.82,-419.47 766.04,-404.17 770.97,-392.03"/>
<polygon fill="#63b8ff" stroke="#63b8ff" points="774.36,-392.99 774.88,-382.41 767.88,-390.35 774.36,-392.99"/>
</a>
</g>
</g>
<!-- Node24 -->
<g id="Node000024" class="node">
<title>Node24</title>
<g id="a_Node000024"><a xlink:title=" ">
<polygon fill="#e0e0e0" stroke="#999999" points="885,-382 820,-382 820,-363 885,-363 885,-382"/>
<text text-anchor="middle" x="852.5" y="-370" font-family="Helvetica,sans-Serif" font-size="10.00">functional</text>
</a>
</g>
</g>
<!-- Node1&#45;&gt;Node24 -->
<g id="edge29_Node000001_Node000024" class="edge">
<title>Node1&#45;&gt;Node24</title>
<g id="a_edge29_Node000001_Node000024"><a xlink:title=" ">
<path fill="none" stroke="#63b8ff" d="M765.99,-428.87C782.46,-418.32 810.57,-400.34 830.26,-387.73"/>
<polygon fill="#63b8ff" stroke="#63b8ff" points="832.37,-390.54 838.91,-382.2 828.6,-384.64 832.37,-390.54"/>
</a>
</g>
</g>
<!-- Node25 -->
<g id="Node000025" class="node">
<title>Node25</title>
<g id="a_Node000025"><a xlink:title=" ">
<polygon fill="#e0e0e0" stroke="#999999" points="1061.5,-387.5 903.5,-387.5 903.5,-357.5 1061.5,-357.5 1061.5,-387.5"/>
<text text-anchor="start" x="911.5" y="-375.5" font-family="Helvetica,sans-Serif" font-size="10.00">packages/stl_extension</text>
<text text-anchor="middle" x="982.5" y="-364.5" font-family="Helvetica,sans-Serif" font-size="10.00">/impl/state_iterator_impl.hpp</text>
</a>
</g>
</g>
<!-- Node1&#45;&gt;Node25 -->
<g id="edge30_Node000001_Node000025" class="edge">
<title>Node1&#45;&gt;Node25</title>
<g id="a_edge30_Node000001_Node000025"><a xlink:title=" ">
<path fill="none" stroke="#63b8ff" d="M783.52,-428.87C818.86,-419.04 877.46,-402.73 921.94,-390.35"/>
<polygon fill="#63b8ff" stroke="#63b8ff" points="923.08,-393.67 931.77,-387.62 921.2,-386.92 923.08,-393.67"/>
</a>
</g>
</g>
<!-- Node3 -->
<g id="Node000003" class="node">
<title>Node3</title>
<g id="a_Node000003"><a xlink:href="iterator__concepts_8hpp.html" target="_top" xlink:title=" ">
<polygon fill="white" stroke="#666666" points="696.5,-316 564.5,-316 564.5,-275 696.5,-275 696.5,-316"/>
<text text-anchor="start" x="572.5" y="-304" font-family="Helvetica,sans-Serif" font-size="10.00">packages/compile_time</text>
<text text-anchor="start" x="572.5" y="-293" font-family="Helvetica,sans-Serif" font-size="10.00">/packages/concepts/inc</text>
<text text-anchor="middle" x="630.5" y="-282" font-family="Helvetica,sans-Serif" font-size="10.00">/iterator_concepts.hpp</text>
</a>
</g>
</g>
<!-- Node2&#45;&gt;Node3 -->
<g id="edge2_Node000002_Node000003" class="edge">
<title>Node2&#45;&gt;Node3</title>
<g id="a_edge2_Node000002_Node000003"><a xlink:title=" ">
<path fill="none" stroke="#63b8ff" d="M630.5,-351.79C630.5,-343.96 630.5,-334.77 630.5,-326.16"/>
<polygon fill="#63b8ff" stroke="#63b8ff" points="634,-326.07 630.5,-316.07 627,-326.07 634,-326.07"/>
</a>
</g>
</g>
<!-- Node4 -->
<g id="Node000004" class="node">
<title>Node4</title>
<g id="a_Node000004"><a xlink:href="basic__concepts_8hpp.html" target="_top" xlink:title=" ">
<polygon fill="white" stroke="#666666" points="696.5,-239 564.5,-239 564.5,-198 696.5,-198 696.5,-239"/>
<text text-anchor="start" x="572.5" y="-227" font-family="Helvetica,sans-Serif" font-size="10.00">packages/compile_time</text>
<text text-anchor="start" x="572.5" y="-216" font-family="Helvetica,sans-Serif" font-size="10.00">/packages/concepts/inc</text>
<text text-anchor="middle" x="630.5" y="-205" font-family="Helvetica,sans-Serif" font-size="10.00">/basic_concepts.hpp</text>
</a>
</g>
</g>
<!-- Node3&#45;&gt;Node4 -->
<g id="edge3_Node000003_Node000004" class="edge">
<title>Node3&#45;&gt;Node4</title>
<g id="a_edge3_Node000003_Node000004"><a xlink:title=" ">
<path fill="none" stroke="#63b8ff" d="M630.5,-274.79C630.5,-266.96 630.5,-257.77 630.5,-249.16"/>
<polygon fill="#63b8ff" stroke="#63b8ff" points="634,-249.07 630.5,-239.07 627,-249.07 634,-249.07"/>
</a>
</g>
</g>
<!-- Node18 -->
<g id="Node000018" class="node">
<title>Node18</title>
<g id="a_Node000018"><a xlink:href="Size_8hpp.html" target="_top" xlink:title=" ">
<polygon fill="white" stroke="#666666" points="380.5,-239 232.5,-239 232.5,-198 380.5,-198 380.5,-239"/>
<text text-anchor="start" x="240.5" y="-227" font-family="Helvetica,sans-Serif" font-size="10.00">packages/compile_time</text>
<text text-anchor="start" x="240.5" y="-216" font-family="Helvetica,sans-Serif" font-size="10.00">/packages/parameter_pack</text>
<text text-anchor="middle" x="306.5" y="-205" font-family="Helvetica,sans-Serif" font-size="10.00">/inc/Size.hpp</text>
</a>
</g>
</g>
<!-- Node3&#45;&gt;Node18 -->
<g id="edge18_Node000003_Node000018" class="edge">
<title>Node3&#45;&gt;Node18</title>
<g id="a_edge18_Node000003_Node000018"><a xlink:title=" ">
<path fill="none" stroke="#63b8ff" d="M564.25,-279.33C518.19,-268.76 455.09,-254.24 390.64,-239.26"/>
<polygon fill="#63b8ff" stroke="#63b8ff" points="391.24,-235.81 380.71,-236.95 389.66,-242.63 391.24,-235.81"/>
</a>
</g>
</g>
<!-- Node19 -->
<g id="Node000019" class="node">
<title>Node19</title>
<g id="a_Node000019"><a xlink:href="Select_8hpp.html" target="_top" xlink:title=" ">
<polygon fill="white" stroke="#666666" points="546.5,-239 398.5,-239 398.5,-198 546.5,-198 546.5,-239"/>
<text text-anchor="start" x="406.5" y="-227" font-family="Helvetica,sans-Serif" font-size="10.00">packages/compile_time</text>
<text text-anchor="start" x="406.5" y="-216" font-family="Helvetica,sans-Serif" font-size="10.00">/packages/parameter_pack</text>
<text text-anchor="middle" x="472.5" y="-205" font-family="Helvetica,sans-Serif" font-size="10.00">/inc/Select.hpp</text>
</a>
</g>
</g>
<!-- Node3&#45;&gt;Node19 -->
<g id="edge20_Node000003_Node000019" class="edge">
<title>Node3&#45;&gt;Node19</title>
<g id="a_edge20_Node000003_Node000019"><a xlink:title=" ">
<path fill="none" stroke="#63b8ff" d="M589.4,-274.99C569.09,-265.35 544.4,-253.63 522.95,-243.45"/>
<polygon fill="#63b8ff" stroke="#63b8ff" points="524.2,-240.17 513.67,-239.04 521.2,-246.49 524.2,-240.17"/>
</a>
</g>
</g>
<!-- Node3&#45;&gt;Node21 -->
<g id="edge24_Node000003_Node000021" class="edge">
<title>Node3&#45;&gt;Node21</title>
<g id="a_edge24_Node000003_Node000021"><a xlink:title=" ">
<path fill="none" stroke="#63b8ff" d="M689.73,-274.95C717.91,-265.09 751.85,-252.4 781.5,-239 785.51,-237.19 789.68,-235.11 793.71,-233.01"/>
<polygon fill="#63b8ff" stroke="#63b8ff" points="795.55,-235.99 802.68,-228.15 792.22,-229.83 795.55,-235.99"/>
</a>
</g>
</g>
<!-- Node22 -->
<g id="Node000022" class="node">
<title>Node22</title>
<g id="a_Node000022"><a xlink:title=" ">
<polygon fill="#e0e0e0" stroke="#999999" points="772.5,-228 714.5,-228 714.5,-209 772.5,-209 772.5,-228"/>
<text text-anchor="middle" x="743.5" y="-216" font-family="Helvetica,sans-Serif" font-size="10.00">memory</text>
</a>
</g>
</g>
<!-- Node3&#45;&gt;Node22 -->
<g id="edge25_Node000003_Node000022" class="edge">
<title>Node3&#45;&gt;Node22</title>
<g id="a_edge25_Node000003_Node000022"><a xlink:title=" ">
<path fill="none" stroke="#63b8ff" d="M659.89,-274.99C679.38,-262.05 704.51,-245.38 722.11,-233.69"/>
<polygon fill="#63b8ff" stroke="#63b8ff" points="724.16,-236.53 730.56,-228.09 720.29,-230.7 724.16,-236.53"/>
</a>
</g>
</g>
<!-- Node4&#45;&gt;Node5 -->
<g id="edge4_Node000004_Node000005" class="edge">
<title>Node4&#45;&gt;Node5</title>
<g id="a_edge4_Node000004_Node000005"><a xlink:title=" ">
<path fill="none" stroke="#63b8ff" d="M564.3,-200.07C561.33,-199.36 558.38,-198.66 555.5,-198 493.39,-183.7 422.04,-169.61 371.68,-160.05"/>
<polygon fill="#63b8ff" stroke="#63b8ff" points="372.06,-156.56 361.58,-158.14 370.76,-163.44 372.06,-156.56"/>
</a>
</g>
</g>
<!-- Node11 -->
<g id="Node000011" class="node">
<title>Node11</title>
<g id="a_Node000011"><a xlink:title=" ">
<polygon fill="#e0e0e0" stroke="#999999" points="680,-90.5 611,-90.5 611,-71.5 680,-71.5 680,-90.5"/>
<text text-anchor="middle" x="645.5" y="-78.5" font-family="Helvetica,sans-Serif" font-size="10.00">type_traits</text>
</a>
</g>
</g>
<!-- Node4&#45;&gt;Node11 -->
<g id="edge15_Node000004_Node000011" class="edge">
<title>Node4&#45;&gt;Node11</title>
<g id="a_edge15_Node000004_Node000011"><a xlink:title=" ">
<path fill="none" stroke="#63b8ff" d="M632.68,-197.8C635.56,-171.83 640.58,-126.45 643.41,-100.89"/>
<polygon fill="#63b8ff" stroke="#63b8ff" points="646.92,-101.01 644.54,-90.69 639.96,-100.24 646.92,-101.01"/>
</a>
</g>
</g>
<!-- Node15 -->
<g id="Node000015" class="node">
<title>Node15</title>
<g id="a_Node000015"><a xlink:title=" ">
<polygon fill="#e0e0e0" stroke="#999999" points="586.5,-156.5 526.5,-156.5 526.5,-137.5 586.5,-137.5 586.5,-156.5"/>
<text text-anchor="middle" x="556.5" y="-144.5" font-family="Helvetica,sans-Serif" font-size="10.00">concepts</text>
</a>
</g>
</g>
<!-- Node4&#45;&gt;Node15 -->
<g id="edge14_Node000004_Node000015" class="edge">
<title>Node4&#45;&gt;Node15</title>
<g id="a_edge14_Node000004_Node000015"><a xlink:title=" ">
<path fill="none" stroke="#63b8ff" d="M609.49,-197.77C598.05,-187.02 584.08,-173.91 573.36,-163.84"/>
<polygon fill="#63b8ff" stroke="#63b8ff" points="575.58,-161.11 565.89,-156.82 570.78,-166.22 575.58,-161.11"/>
</a>
</g>
</g>
<!-- Node16 -->
<g id="Node000016" class="node">
<title>Node16</title>
<g id="a_Node000016"><a xlink:title=" ">
<polygon fill="#e0e0e0" stroke="#999999" points="700.5,-156.5 650.5,-156.5 650.5,-137.5 700.5,-137.5 700.5,-156.5"/>
<text text-anchor="middle" x="675.5" y="-144.5" font-family="Helvetica,sans-Serif" font-size="10.00">cstdint</text>
</a>
</g>
</g>
<!-- Node4&#45;&gt;Node16 -->
<g id="edge16_Node000004_Node000016" class="edge">
<title>Node4&#45;&gt;Node16</title>
<g id="a_edge16_Node000004_Node000016"><a xlink:title=" ">
<path fill="none" stroke="#63b8ff" d="M643.27,-197.77C649.89,-187.55 657.9,-175.19 664.27,-165.34"/>
<polygon fill="#63b8ff" stroke="#63b8ff" points="667.29,-167.12 669.79,-156.82 661.42,-163.31 667.29,-167.12"/>
</a>
</g>
</g>
<!-- Node17 -->
<g id="Node000017" class="node">
<title>Node17</title>
<g id="a_Node000017"><a xlink:title=" ">
<polygon fill="#e0e0e0" stroke="#999999" points="764,-156.5 719,-156.5 719,-137.5 764,-137.5 764,-156.5"/>
<text text-anchor="middle" x="741.5" y="-144.5" font-family="Helvetica,sans-Serif" font-size="10.00">utility</text>
</a>
</g>
</g>
<!-- Node4&#45;&gt;Node17 -->
<g id="edge17_Node000004_Node000017" class="edge">
<title>Node4&#45;&gt;Node17</title>
<g id="a_edge17_Node000004_Node000017"><a xlink:title=" ">
<path fill="none" stroke="#63b8ff" d="M661.72,-197.96C679.94,-186.54 702.52,-172.41 719,-162.09"/>
<polygon fill="#63b8ff" stroke="#63b8ff" points="721.3,-164.78 727.92,-156.5 717.59,-158.84 721.3,-164.78"/>
</a>
</g>
</g>
<!-- Node6 -->
<g id="Node000006" class="node">
<title>Node6</title>
<g id="a_Node000006"><a xlink:href="debug_8hpp.html" target="_top" xlink:title=" ">
<polygon fill="white" stroke="#666666" points="593,-96 474,-96 474,-66 593,-66 593,-96"/>
<text text-anchor="start" x="482" y="-84" font-family="Helvetica,sans-Serif" font-size="10.00">packages/macros/inc</text>
<text text-anchor="middle" x="533.5" y="-73" font-family="Helvetica,sans-Serif" font-size="10.00">/debug.hpp</text>
</a>
</g>
</g>
<!-- Node5&#45;&gt;Node6 -->
<g id="edge5_Node000005_Node000006" class="edge">
<title>Node5&#45;&gt;Node6</title>
<g id="a_edge5_Node000005_Node000006"><a xlink:title=" ">
<path fill="none" stroke="#63b8ff" d="M356.32,-131.95C390.91,-122.2 437.18,-109.16 473.76,-98.84"/>
<polygon fill="#63b8ff" stroke="#63b8ff" points="475.13,-102.09 483.8,-96.01 473.23,-95.36 475.13,-102.09"/>
</a>
</g>
</g>
<!-- Node9 -->
<g id="Node000009" class="node">
<title>Node9</title>
<g id="a_Node000009"><a xlink:title=" ">
<polygon fill="#e0e0e0" stroke="#999999" points="53,-90.5 0,-90.5 0,-71.5 53,-71.5 53,-90.5"/>
<text text-anchor="middle" x="26.5" y="-78.5" font-family="Helvetica,sans-Serif" font-size="10.00">cstddef</text>
</a>
</g>
</g>
<!-- Node5&#45;&gt;Node9 -->
<g id="edge8_Node000005_Node000009" class="edge">
<title>Node5&#45;&gt;Node9</title>
<g id="a_edge8_Node000005_Node000009"><a xlink:title=" ">
<path fill="none" stroke="#63b8ff" d="M251.1,-137.39C201.21,-129 126.17,-114.76 62.5,-96 60.57,-95.43 58.6,-94.8 56.62,-94.14"/>
<polygon fill="#63b8ff" stroke="#63b8ff" points="57.45,-90.72 46.85,-90.6 55.06,-97.3 57.45,-90.72"/>
</a>
</g>
</g>
<!-- Node10 -->
<g id="Node000010" class="node">
<title>Node10</title>
<g id="a_Node000010"><a xlink:title=" ">
<polygon fill="#e0e0e0" stroke="#999999" points="115.5,-90.5 71.5,-90.5 71.5,-71.5 115.5,-71.5 115.5,-90.5"/>
<text text-anchor="middle" x="93.5" y="-78.5" font-family="Helvetica,sans-Serif" font-size="10.00">string</text>
</a>
</g>
</g>
<!-- Node5&#45;&gt;Node10 -->
<g id="edge9_Node000005_Node000010" class="edge">
<title>Node5&#45;&gt;Node10</title>
<g id="a_edge9_Node000005_Node000010"><a xlink:title=" ">
<path fill="none" stroke="#63b8ff" d="M251.25,-133.21C214.81,-124.19 166.27,-111.06 124.5,-96 123.28,-95.56 122.04,-95.09 120.8,-94.61"/>
<polygon fill="#63b8ff" stroke="#63b8ff" points="121.91,-91.28 111.34,-90.63 119.2,-97.73 121.91,-91.28"/>
</a>
</g>
</g>
<!-- Node5&#45;&gt;Node11 -->
<g id="edge10_Node000005_Node000011" class="edge">
<title>Node5&#45;&gt;Node11</title>
<g id="a_edge10_Node000005_Node000011"><a xlink:title=" ">
<path fill="none" stroke="#63b8ff" d="M361.61,-139.01C421.22,-130.91 518.84,-116.05 601.5,-96 604.52,-95.27 607.63,-94.44 610.74,-93.55"/>
<polygon fill="#63b8ff" stroke="#63b8ff" points="611.97,-96.84 620.54,-90.61 609.96,-90.13 611.97,-96.84"/>
</a>
</g>
</g>
<!-- Node12 -->
<g id="Node000012" class="node">
<title>Node12</title>
<g id="a_Node000012"><a xlink:title=" ">
<polygon fill="#e0e0e0" stroke="#999999" points="183.5,-90.5 133.5,-90.5 133.5,-71.5 183.5,-71.5 183.5,-90.5"/>
<text text-anchor="middle" x="158.5" y="-78.5" font-family="Helvetica,sans-Serif" font-size="10.00">climits</text>
</a>
</g>
</g>
<!-- Node5&#45;&gt;Node12 -->
<g id="edge11_Node000005_Node000012" class="edge">
<title>Node5&#45;&gt;Node12</title>
<g id="a_edge11_Node000005_Node000012"><a xlink:title=" ">
<path fill="none" stroke="#63b8ff" d="M274.02,-131.95C248.18,-120.78 212.35,-105.29 187.47,-94.53"/>
<polygon fill="#63b8ff" stroke="#63b8ff" points="188.76,-91.27 178.2,-90.52 185.99,-97.7 188.76,-91.27"/>
</a>
</g>
</g>
<!-- Node13 -->
<g id="Node000013" class="node">
<title>Node13</title>
<g id="a_Node000013"><a xlink:title=" ">
<polygon fill="#e0e0e0" stroke="#999999" points="319,-96 202,-96 202,-66 319,-66 319,-96"/>
<text text-anchor="start" x="210" y="-84" font-family="Helvetica,sans-Serif" font-size="10.00">packages/types/impl</text>
<text text-anchor="middle" x="260.5" y="-73" font-family="Helvetica,sans-Serif" font-size="10.00">/types_impl.hpp</text>
</a>
</g>
</g>
<!-- Node5&#45;&gt;Node13 -->
<g id="edge12_Node000005_Node000013" class="edge">
<title>Node5&#45;&gt;Node13</title>
<g id="a_edge12_Node000005_Node000013"><a xlink:title=" ">
<path fill="none" stroke="#63b8ff" d="M296.29,-131.8C290.51,-123.76 283.16,-113.53 276.62,-104.43"/>
<polygon fill="#63b8ff" stroke="#63b8ff" points="279.36,-102.24 270.68,-96.16 273.67,-106.33 279.36,-102.24"/>
</a>
</g>
</g>
<!-- Node14 -->
<g id="Node000014" class="node">
<title>Node14</title>
<g id="a_Node000014"><a xlink:href="logging_8hpp.html" target="_top" xlink:title=" ">
<polygon fill="white" stroke="#666666" points="456,-96 337,-96 337,-66 456,-66 456,-96"/>
<text text-anchor="start" x="345" y="-84" font-family="Helvetica,sans-Serif" font-size="10.00">packages/macros/inc</text>
<text text-anchor="middle" x="396.5" y="-73" font-family="Helvetica,sans-Serif" font-size="10.00">/logging.hpp</text>
</a>
</g>
</g>
<!-- Node5&#45;&gt;Node14 -->
<g id="edge13_Node000005_Node000014" class="edge">
<title>Node5&#45;&gt;Node14</title>
<g id="a_edge13_Node000005_Node000014"><a xlink:title=" ">
<path fill="none" stroke="#63b8ff" d="M326.47,-131.8C338.71,-123.1 354.56,-111.82 368.09,-102.2"/>
<polygon fill="#63b8ff" stroke="#63b8ff" points="370.46,-104.81 376.58,-96.16 366.4,-99.11 370.46,-104.81"/>
</a>
</g>
</g>
<!-- Node7 -->
<g id="Node000007" class="node">
<title>Node7</title>
<g id="a_Node000007"><a xlink:href="detail_8hpp.html" target="_top" xlink:title=" ">
<polygon fill="white" stroke="#666666" points="539,-30 420,-30 420,0 539,0 539,-30"/>
<text text-anchor="start" x="428" y="-18" font-family="Helvetica,sans-Serif" font-size="10.00">packages/macros/inc</text>
<text text-anchor="middle" x="479.5" y="-7" font-family="Helvetica,sans-Serif" font-size="10.00">/detail.hpp</text>
</a>
</g>
</g>
<!-- Node6&#45;&gt;Node7 -->
<g id="edge6_Node000006_Node000007" class="edge">
<title>Node6&#45;&gt;Node7</title>
<g id="a_edge6_Node000006_Node000007"><a xlink:title=" ">
<path fill="none" stroke="#63b8ff" d="M521.52,-65.8C514.59,-57.59 505.74,-47.1 497.95,-37.87"/>
<polygon fill="#63b8ff" stroke="#63b8ff" points="500.57,-35.55 491.45,-30.16 495.22,-40.06 500.57,-35.55"/>
</a>
</g>
</g>
<!-- Node8 -->
<g id="Node000008" class="node">
<title>Node8</title>
<g id="a_Node000008"><a xlink:title=" ">
<polygon fill="#e0e0e0" stroke="#999999" points="617.5,-24.5 557.5,-24.5 557.5,-5.5 617.5,-5.5 617.5,-24.5"/>
<text text-anchor="middle" x="587.5" y="-12.5" font-family="Helvetica,sans-Serif" font-size="10.00">iostream</text>
</a>
</g>
</g>
<!-- Node6&#45;&gt;Node8 -->
<g id="edge7_Node000006_Node000008" class="edge">
<title>Node6&#45;&gt;Node8</title>
<g id="a_edge7_Node000006_Node000008"><a xlink:title=" ">
<path fill="none" stroke="#63b8ff" d="M545.48,-65.8C553.74,-56.01 564.74,-42.98 573.41,-32.7"/>
<polygon fill="#63b8ff" stroke="#63b8ff" points="576.26,-34.74 580.04,-24.84 570.91,-30.23 576.26,-34.74"/>
</a>
</g>
</g>
<!-- Node18&#45;&gt;Node5 -->
<g id="edge19_Node000018_Node000005" class="edge">
<title>Node18&#45;&gt;Node5</title>
<g id="a_edge19_Node000018_Node000005"><a xlink:title=" ">
<path fill="none" stroke="#63b8ff" d="M306.5,-197.77C306.5,-189.85 306.5,-180.63 306.5,-172.3"/>
<polygon fill="#63b8ff" stroke="#63b8ff" points="310,-172.04 306.5,-162.04 303,-172.04 310,-172.04"/>
</a>
</g>
</g>
<!-- Node19&#45;&gt;Node5 -->
<g id="edge21_Node000019_Node000005" class="edge">
<title>Node19&#45;&gt;Node5</title>
<g id="a_edge21_Node000019_Node000005"><a xlink:title=" ">
<path fill="none" stroke="#63b8ff" d="M425.82,-197.96C401.8,-187.9 372.72,-175.73 349.29,-165.91"/>
<polygon fill="#63b8ff" stroke="#63b8ff" points="350.52,-162.64 339.95,-162 347.82,-169.09 350.52,-162.64"/>
</a>
</g>
</g>
<!-- Node19&#45;&gt;Node15 -->
<g id="edge23_Node000019_Node000015" class="edge">
<title>Node19&#45;&gt;Node15</title>
<g id="a_edge23_Node000019_Node000015"><a xlink:title=" ">
<path fill="none" stroke="#63b8ff" d="M496.35,-197.77C509.59,-186.81 525.81,-173.39 538.07,-163.25"/>
<polygon fill="#63b8ff" stroke="#63b8ff" points="540.37,-165.89 545.84,-156.82 535.9,-160.5 540.37,-165.89"/>
</a>
</g>
</g>
<!-- Node20 -->
<g id="Node000020" class="node">
<title>Node20</title>
<g id="a_Node000020"><a xlink:title=" ">
<polygon fill="#e0e0e0" stroke="#999999" points="493,-156.5 452,-156.5 452,-137.5 493,-137.5 493,-156.5"/>
<text text-anchor="middle" x="472.5" y="-144.5" font-family="Helvetica,sans-Serif" font-size="10.00">tuple</text>
</a>
</g>
</g>
<!-- Node19&#45;&gt;Node20 -->
<g id="edge22_Node000019_Node000020" class="edge">
<title>Node19&#45;&gt;Node20</title>
<g id="a_edge22_Node000019_Node000020"><a xlink:title=" ">
<path fill="none" stroke="#63b8ff" d="M472.5,-197.77C472.5,-188.08 472.5,-176.46 472.5,-166.88"/>
<polygon fill="#63b8ff" stroke="#63b8ff" points="476,-166.82 472.5,-156.82 469,-166.82 476,-166.82"/>
</a>
</g>
</g>
</g>
</svg>

<g id="navigator" transform="translate(0 0)" fill="#404254">
  <rect fill="#f2f5e9" fill-opacity="0.5" stroke="#606060" stroke-width=".5" x="0" y="0" width="60" height="60"/>
  <use id="zoomplus" xlink:href="#zoomPlus" x="17" y="9" onmousedown="handleZoom(evt,'in')"/>
  <use id="zoomminus" xlink:href="#zoomMin" x="42" y="9" onmousedown="handleZoom(evt,'out')"/>
  <use id="reset" xlink:href="#resetDef" x="30" y="36" onmousedown="handleReset()"/>
   <use id="arrowup" xlink:href="#arrowUp" x="0" y="0" onmousedown="handlePan(0,-1)"/>
  <use id="arrowright" xlink:href="#arrowRight" x="0" y="0" onmousedown="handlePan(1,0)"/>
  <use id="arrowdown" xlink:href="#arrowDown" x="0" y="0" onmousedown="handlePan(0,1)"/>
  <use id="arrowleft" xlink:href="#arrowLeft" x="0" y="0" onmousedown="handlePan(-1,0)"/>
</g>
<svg viewBox="0 0 15 15" width="100%" height="30px" preserveAspectRatio="xMaxYMin meet">
 <g id="arrow_out" transform="scale(0.3 0.3)">
  <a xlink:href="state__iterator_8hpp__incl_org.svg" target="_base">
   <rect id="button" ry="5" rx="5" y="6" x="6" height="38" width="38"
        fill="#f2f5e9" fill-opacity="0.5" stroke="#606060" stroke-width="1.0"/>
   <path id="arrow"
     d="M 11.500037,31.436501 C 11.940474,20.09759 22.043105,11.32322 32.158766,21.979434 L 37.068811,17.246167 C 37.068811,17.246167 37.088388,32 37.088388,32 L 22.160133,31.978069 C 22.160133,31.978069 26.997745,27.140456 26.997745,27.140456 C 18.528582,18.264221 13.291696,25.230495 11.500037,31.436501 z"
     style="fill:#404040;"/>
  </a>
 </g>
</svg>

<style type='text/css'>
<![CDATA[
[data-mouse-over-selected='false'] { opacity: 0.7; }
[data-mouse-over-selected='true']  { opacity: 1.0; }
]]>
</style>
<script type="application/ecmascript"><![CDATA[
document.addEventListener('DOMContentLoaded', (event) => {
  highlightEdges();
  highlightAdjacentNodes();
});
]]></script>
</svg>
