<?xml version="1.0" encoding="UTF-8" standalone="no"?>
<!DOCTYPE svg PUBLIC "-//W3C//DTD SVG 1.1//EN"
 "http://www.w3.org/Graphics/SVG/1.1/DTD/svg11.dtd">
<!-- Generated by graphviz version 2.43.0 (0)
 -->
<!-- Title: stl_extension.hpp Pages: 1 -->
<svg width="1262pt" height="654pt"
 viewBox="0.00 0.00 1261.50 654.00" xmlns="http://www.w3.org/2000/svg" xmlns:xlink="http://www.w3.org/1999/xlink">
<g id="graph0" class="graph" transform="scale(1 1) rotate(0) translate(4 650)">
<title>stl_extension.hpp</title>
<!-- Node1 -->
<g id="Node000001" class="node">
<title>Node1</title>
<g id="a_Node000001"><a xlink:title=" ">
<polygon fill="#999999" stroke="#666666" points="567,-646 464,-646 464,-627 567,-627 567,-646"/>
<text text-anchor="middle" x="515.5" y="-634" font-family="Helvetica,sans-Serif" font-size="10.00">stl_extension.hpp</text>
</a>
</g>
</g>
<!-- Node2 -->
<g id="Node000002" class="node">
<title>Node2</title>
<g id="a_Node000002"><a xlink:title=" ">
<polygon fill="#e0e0e0" stroke="#999999" points="119,-305 0,-305 0,-286 119,-286 119,-305"/>
<text text-anchor="middle" x="59.5" y="-293" font-family="Helvetica,sans-Serif" font-size="10.00">pybind11/pybind11.h</text>
</a>
</g>
</g>
<!-- Node1&#45;&gt;Node2 -->
<g id="edge1_Node000001_Node000002" class="edge">
<title>Node1&#45;&gt;Node2</title>
<g id="a_edge1_Node000001_Node000002"><a xlink:title=" ">
<path fill="none" stroke="#63b8ff" d="M463.84,-634.91C400.55,-632.67 290.96,-623.84 203.5,-591 142.45,-568.08 80.5,-576.21 80.5,-511 80.5,-511 80.5,-511 80.5,-443 80.5,-396.48 70,-342.48 63.85,-314.85"/>
<polygon fill="#63b8ff" stroke="#63b8ff" points="67.24,-313.99 61.59,-305.03 60.42,-315.55 67.24,-313.99"/>
</a>
</g>
</g>
<!-- Node3 -->
<g id="Node000003" class="node">
<title>Node3</title>
<g id="a_Node000003"><a xlink:title=" ">
<polygon fill="#e0e0e0" stroke="#999999" points="622.5,-585.5 536.5,-585.5 536.5,-566.5 622.5,-566.5 622.5,-585.5"/>
<text text-anchor="middle" x="579.5" y="-573.5" font-family="Helvetica,sans-Serif" font-size="10.00">pybind11/stl.h</text>
</a>
</g>
</g>
<!-- Node1&#45;&gt;Node3 -->
<g id="edge2_Node000001_Node000003" class="edge">
<title>Node1&#45;&gt;Node3</title>
<g id="a_edge2_Node000001_Node000003"><a xlink:title=" ">
<path fill="none" stroke="#63b8ff" d="M524.94,-626.87C534.77,-617.88 550.39,-603.61 562.39,-592.64"/>
<polygon fill="#63b8ff" stroke="#63b8ff" points="565,-595 570.02,-585.67 560.28,-589.83 565,-595"/>
</a>
</g>
</g>
<!-- Node4 -->
<g id="Node000004" class="node">
<title>Node4</title>
<g id="a_Node000004"><a xlink:title=" ">
<polygon fill="#e0e0e0" stroke="#999999" points="746.5,-585.5 640.5,-585.5 640.5,-566.5 746.5,-566.5 746.5,-585.5"/>
<text text-anchor="middle" x="693.5" y="-573.5" font-family="Helvetica,sans-Serif" font-size="10.00">pybind11/numpy.h</text>
</a>
</g>
</g>
<!-- Node1&#45;&gt;Node4 -->
<g id="edge3_Node000001_Node000004" class="edge">
<title>Node1&#45;&gt;Node4</title>
<g id="a_edge3_Node000001_Node000004"><a xlink:title=" ">
<path fill="none" stroke="#63b8ff" d="M541.38,-626.99C572.1,-616.9 623.48,-600.01 657.92,-588.69"/>
<polygon fill="#63b8ff" stroke="#63b8ff" points="659.18,-591.96 667.59,-585.52 656.99,-585.31 659.18,-591.96"/>
</a>
</g>
</g>
<!-- Node5 -->
<g id="Node000005" class="node">
<title>Node5</title>
<g id="a_Node000005"><a xlink:href="StaticArray_8hpp.html" target="_top" xlink:title=" ">
<polygon fill="white" stroke="#666666" points="369,-591 238,-591 238,-561 369,-561 369,-591"/>
<text text-anchor="start" x="246" y="-579" font-family="Helvetica,sans-Serif" font-size="10.00">packages/stl_extension</text>
<text text-anchor="middle" x="303.5" y="-568" font-family="Helvetica,sans-Serif" font-size="10.00">/inc/StaticArray.hpp</text>
</a>
</g>
</g>
<!-- Node1&#45;&gt;Node5 -->
<g id="edge4_Node000001_Node000005" class="edge">
<title>Node1&#45;&gt;Node5</title>
<g id="a_edge4_Node000001_Node000005"><a xlink:title=" ">
<path fill="none" stroke="#63b8ff" d="M484.67,-626.99C453.23,-618.32 403.61,-604.62 364.24,-593.76"/>
<polygon fill="#63b8ff" stroke="#63b8ff" points="365.04,-590.35 354.47,-591.06 363.18,-597.1 365.04,-590.35"/>
</a>
</g>
</g>
<!-- Node41 -->
<g id="Node000041" class="node">
<title>Node41</title>
<g id="a_Node000041"><a xlink:href="DynamicArray_8hpp.html" target="_top" xlink:title=" ">
<polygon fill="white" stroke="#666666" points="518,-591 387,-591 387,-561 518,-561 518,-591"/>
<text text-anchor="start" x="395" y="-579" font-family="Helvetica,sans-Serif" font-size="10.00">packages/stl_extension</text>
<text text-anchor="middle" x="452.5" y="-568" font-family="Helvetica,sans-Serif" font-size="10.00">/inc/DynamicArray.hpp</text>
</a>
</g>
</g>
<!-- Node1&#45;&gt;Node41 -->
<g id="edge57_Node000001_Node000041" class="edge">
<title>Node1&#45;&gt;Node41</title>
<g id="a_edge57_Node000001_Node000041"><a xlink:title=" ">
<path fill="none" stroke="#63b8ff" d="M506.2,-626.87C498.05,-619.3 485.86,-607.98 475.16,-598.04"/>
<polygon fill="#63b8ff" stroke="#63b8ff" points="477.41,-595.35 467.7,-591.11 472.65,-600.48 477.41,-595.35"/>
</a>
</g>
</g>
<!-- Node43 -->
<g id="Node000043" class="node">
<title>Node43</title>
<g id="a_Node000043"><a xlink:href="common_8hpp.html" target="_top" xlink:title=" ">
<polygon fill="white" stroke="#666666" points="241.5,-387.5 129.5,-387.5 129.5,-357.5 241.5,-357.5 241.5,-387.5"/>
<text text-anchor="start" x="137.5" y="-375.5" font-family="Helvetica,sans-Serif" font-size="10.00">python/bindings/inc</text>
<text text-anchor="middle" x="185.5" y="-364.5" font-family="Helvetica,sans-Serif" font-size="10.00">/common.hpp</text>
</a>
</g>
</g>
<!-- Node1&#45;&gt;Node43 -->
<g id="edge60_Node000001_Node000043" class="edge">
<title>Node1&#45;&gt;Node43</title>
<g id="a_edge60_Node000001_Node000043"><a xlink:title=" ">
<path fill="none" stroke="#63b8ff" d="M463.8,-634.34C390.66,-631.58 262.24,-622.29 229.5,-591 175.98,-539.85 178.02,-442.95 182.36,-397.79"/>
<polygon fill="#63b8ff" stroke="#63b8ff" points="185.85,-398.05 183.45,-387.73 178.89,-397.3 185.85,-398.05"/>
</a>
</g>
</g>
<!-- Node44 -->
<g id="Node000044" class="node">
<title>Node44</title>
<g id="a_Node000044"><a xlink:title=" ">
<polygon fill="#e0e0e0" stroke="#999999" points="814.5,-585.5 764.5,-585.5 764.5,-566.5 814.5,-566.5 814.5,-585.5"/>
<text text-anchor="middle" x="789.5" y="-573.5" font-family="Helvetica,sans-Serif" font-size="10.00">ranges</text>
</a>
</g>
</g>
<!-- Node1&#45;&gt;Node44 -->
<g id="edge65_Node000001_Node000044" class="edge">
<title>Node1&#45;&gt;Node44</title>
<g id="a_edge65_Node000001_Node000044"><a xlink:title=" ">
<path fill="none" stroke="#63b8ff" d="M567.26,-629.07C616.36,-622.22 691.89,-609.77 755.5,-591 757.38,-590.44 759.3,-589.82 761.23,-589.15"/>
<polygon fill="#63b8ff" stroke="#63b8ff" points="762.58,-592.38 770.69,-585.56 760.1,-585.84 762.58,-592.38"/>
</a>
</g>
</g>
<!-- Node45 -->
<g id="Node000045" class="node">
<title>Node45</title>
<g id="a_Node000045"><a xlink:title=" ">
<polygon fill="#e0e0e0" stroke="#999999" points="872.5,-585.5 832.5,-585.5 832.5,-566.5 872.5,-566.5 872.5,-585.5"/>
<text text-anchor="middle" x="852.5" y="-573.5" font-family="Helvetica,sans-Serif" font-size="10.00">span</text>
</a>
</g>
</g>
<!-- Node1&#45;&gt;Node45 -->
<g id="edge66_Node000001_Node000045" class="edge">
<title>Node1&#45;&gt;Node45</title>
<g id="a_edge66_Node000001_Node000045"><a xlink:title=" ">
<path fill="none" stroke="#63b8ff" d="M567.23,-632.86C629.29,-628.6 735.92,-617.77 823.5,-591 824.76,-590.61 826.04,-590.18 827.32,-589.71"/>
<polygon fill="#63b8ff" stroke="#63b8ff" points="829.08,-592.76 836.9,-585.61 826.33,-586.33 829.08,-592.76"/>
</a>
</g>
</g>
<!-- Node6 -->
<g id="Node000006" class="node">
<title>Node6</title>
<g id="a_Node000006"><a xlink:href="STLContainerBase_8hpp.html" target="_top" xlink:title=" ">
<polygon fill="white" stroke="#666666" points="525.5,-525 379.5,-525 379.5,-495 525.5,-495 525.5,-525"/>
<text text-anchor="start" x="387.5" y="-513" font-family="Helvetica,sans-Serif" font-size="10.00">packages/stl_extension</text>
<text text-anchor="middle" x="452.5" y="-502" font-family="Helvetica,sans-Serif" font-size="10.00">/inc/STLContainerBase.hpp</text>
</a>
</g>
</g>
<!-- Node5&#45;&gt;Node6 -->
<g id="edge5_Node000005_Node000006" class="edge">
<title>Node5&#45;&gt;Node6</title>
<g id="a_edge5_Node000005_Node000006"><a xlink:title=" ">
<path fill="none" stroke="#63b8ff" d="M336.2,-560.95C358.03,-551.58 386.95,-539.16 410.49,-529.05"/>
<polygon fill="#63b8ff" stroke="#63b8ff" points="412.07,-532.17 419.88,-525.01 409.31,-525.74 412.07,-532.17"/>
</a>
</g>
</g>
<!-- Node40 -->
<g id="Node000040" class="node">
<title>Node40</title>
<g id="a_Node000040"><a xlink:title=" ">
<polygon fill="#e0e0e0" stroke="#999999" points="324.5,-519.5 282.5,-519.5 282.5,-500.5 324.5,-500.5 324.5,-519.5"/>
<text text-anchor="middle" x="303.5" y="-507.5" font-family="Helvetica,sans-Serif" font-size="10.00">array</text>
</a>
</g>
</g>
<!-- Node5&#45;&gt;Node40 -->
<g id="edge56_Node000005_Node000040" class="edge">
<title>Node5&#45;&gt;Node40</title>
<g id="a_edge56_Node000005_Node000040"><a xlink:title=" ">
<path fill="none" stroke="#63b8ff" d="M303.5,-560.8C303.5,-551.7 303.5,-539.79 303.5,-529.9"/>
<polygon fill="#63b8ff" stroke="#63b8ff" points="307,-529.84 303.5,-519.84 300,-529.84 307,-529.84"/>
</a>
</g>
</g>
<!-- Node7 -->
<g id="Node000007" class="node">
<title>Node7</title>
<g id="a_Node000007"><a xlink:href="container__concepts_8hpp.html" target="_top" xlink:title=" ">
<polygon fill="white" stroke="#666666" points="815,-393 680,-393 680,-352 815,-352 815,-393"/>
<text text-anchor="start" x="688" y="-381" font-family="Helvetica,sans-Serif" font-size="10.00">packages/compile_time</text>
<text text-anchor="start" x="688" y="-370" font-family="Helvetica,sans-Serif" font-size="10.00">/packages/concepts/inc</text>
<text text-anchor="middle" x="747.5" y="-359" font-family="Helvetica,sans-Serif" font-size="10.00">/container_concepts.hpp</text>
</a>
</g>
</g>
<!-- Node6&#45;&gt;Node7 -->
<g id="edge6_Node000006_Node000007" class="edge">
<title>Node6&#45;&gt;Node7</title>
<g id="a_edge6_Node000006_Node000007"><a xlink:title=" ">
<path fill="none" stroke="#63b8ff" d="M524.43,-494.95C583.56,-483.03 659.63,-466.67 672.5,-459 696.19,-444.89 716.34,-420.74 729.78,-401.7"/>
<polygon fill="#63b8ff" stroke="#63b8ff" points="732.72,-403.6 735.46,-393.36 726.94,-399.65 732.72,-403.6"/>
</a>
</g>
</g>
<!-- Node10 -->
<g id="Node000010" class="node">
<title>Node10</title>
<g id="a_Node000010"><a xlink:href="types_8hpp.html" target="_top" xlink:title=" ">
<polygon fill="white" stroke="#666666" points="824.5,-162 714.5,-162 714.5,-132 824.5,-132 824.5,-162"/>
<text text-anchor="start" x="722.5" y="-150" font-family="Helvetica,sans-Serif" font-size="10.00">packages/types/inc</text>
<text text-anchor="middle" x="769.5" y="-139" font-family="Helvetica,sans-Serif" font-size="10.00">/types.hpp</text>
</a>
</g>
</g>
<!-- Node6&#45;&gt;Node10 -->
<g id="edge33_Node000006_Node000010" class="edge">
<title>Node6&#45;&gt;Node10</title>
<g id="a_edge33_Node000006_Node000010"><a xlink:title=" ">
<path fill="none" stroke="#63b8ff" d="M525.72,-495.43C693.91,-464.02 1093.5,-387.87 1093.5,-373.5 1093.5,-373.5 1093.5,-373.5 1093.5,-294.5 1093.5,-250.79 1105.96,-228.35 1074.5,-198 1038.06,-162.84 899.44,-170.36 849.5,-162 844.71,-161.2 839.76,-160.36 834.78,-159.51"/>
<polygon fill="#63b8ff" stroke="#63b8ff" points="835.02,-155.99 824.57,-157.75 833.83,-162.89 835.02,-155.99"/>
</a>
</g>
</g>
<!-- Node28 -->
<g id="Node000028" class="node">
<title>Node28</title>
<g id="a_Node000028"><a xlink:href="typedefs_8hpp.html" target="_top" xlink:title=" ">
<polygon fill="white" stroke="#666666" points="663,-459 544,-459 544,-429 663,-429 663,-459"/>
<text text-anchor="start" x="552" y="-447" font-family="Helvetica,sans-Serif" font-size="10.00">packages/macros/inc</text>
<text text-anchor="middle" x="603.5" y="-436" font-family="Helvetica,sans-Serif" font-size="10.00">/typedefs.hpp</text>
</a>
</g>
</g>
<!-- Node6&#45;&gt;Node28 -->
<g id="edge31_Node000006_Node000028" class="edge">
<title>Node6&#45;&gt;Node28</title>
<g id="a_edge31_Node000006_Node000028"><a xlink:title=" ">
<path fill="none" stroke="#63b8ff" d="M485.64,-494.95C507.77,-485.58 537.07,-473.16 560.92,-463.05"/>
<polygon fill="#63b8ff" stroke="#63b8ff" points="562.6,-466.14 570.44,-459.01 559.87,-459.69 562.6,-466.14"/>
</a>
</g>
</g>
<!-- Node29 -->
<g id="Node000029" class="node">
<title>Node29</title>
<g id="a_Node000029"><a xlink:href="exceptions_8hpp.html" target="_top" xlink:title=" ">
<polygon fill="white" stroke="#666666" points="333,-310.5 214,-310.5 214,-280.5 333,-280.5 333,-310.5"/>
<text text-anchor="start" x="222" y="-298.5" font-family="Helvetica,sans-Serif" font-size="10.00">packages/macros/inc</text>
<text text-anchor="middle" x="273.5" y="-287.5" font-family="Helvetica,sans-Serif" font-size="10.00">/exceptions.hpp</text>
</a>
</g>
</g>
<!-- Node6&#45;&gt;Node29 -->
<g id="edge34_Node000006_Node000029" class="edge">
<title>Node6&#45;&gt;Node29</title>
<g id="a_edge34_Node000006_Node000029"><a xlink:title=" ">
<path fill="none" stroke="#63b8ff" d="M379.31,-501.84C350.07,-495.21 318.62,-482.66 298.5,-459 265.29,-419.96 266.37,-355.73 269.97,-320.87"/>
<polygon fill="#63b8ff" stroke="#63b8ff" points="273.48,-320.99 271.19,-310.65 266.53,-320.16 273.48,-320.99"/>
</a>
</g>
</g>
<!-- Node35 -->
<g id="Node000035" class="node">
<title>Node35</title>
<g id="a_Node000035"><a xlink:href="resize_8hpp.html" target="_top" xlink:title=" ">
<polygon fill="white" stroke="#666666" points="521,-459 390,-459 390,-429 521,-429 521,-459"/>
<text text-anchor="start" x="398" y="-447" font-family="Helvetica,sans-Serif" font-size="10.00">packages/stl_extension</text>
<text text-anchor="middle" x="455.5" y="-436" font-family="Helvetica,sans-Serif" font-size="10.00">/inc/resize.hpp</text>
</a>
</g>
</g>
<!-- Node6&#45;&gt;Node35 -->
<g id="edge45_Node000006_Node000035" class="edge">
<title>Node6&#45;&gt;Node35</title>
<g id="a_edge45_Node000006_Node000035"><a xlink:title=" ">
<path fill="none" stroke="#63b8ff" d="M453.17,-494.8C453.52,-487.34 453.95,-477.99 454.36,-469.41"/>
<polygon fill="#63b8ff" stroke="#63b8ff" points="457.86,-469.32 454.84,-459.16 450.87,-468.99 457.86,-469.32"/>
</a>
</g>
</g>
<!-- Node39 -->
<g id="Node000039" class="node">
<title>Node39</title>
<g id="a_Node000039"><a xlink:title=" ">
<polygon fill="#e0e0e0" stroke="#999999" points="371.5,-453.5 307.5,-453.5 307.5,-434.5 371.5,-434.5 371.5,-453.5"/>
<text text-anchor="middle" x="339.5" y="-441.5" font-family="Helvetica,sans-Serif" font-size="10.00">algorithm</text>
</a>
</g>
</g>
<!-- Node6&#45;&gt;Node39 -->
<g id="edge55_Node000006_Node000039" class="edge">
<title>Node6&#45;&gt;Node39</title>
<g id="a_edge55_Node000006_Node000039"><a xlink:title=" ">
<path fill="none" stroke="#63b8ff" d="M427.7,-494.95C408.58,-484.13 382.3,-469.24 363.41,-458.54"/>
<polygon fill="#63b8ff" stroke="#63b8ff" points="364.96,-455.4 354.54,-453.52 361.51,-461.49 364.96,-455.4"/>
</a>
</g>
</g>
<!-- Node8 -->
<g id="Node000008" class="node">
<title>Node8</title>
<g id="a_Node000008"><a xlink:href="iterator__concepts_8hpp.html" target="_top" xlink:title=" ">
<polygon fill="white" stroke="#666666" points="902.5,-316 770.5,-316 770.5,-275 902.5,-275 902.5,-316"/>
<text text-anchor="start" x="778.5" y="-304" font-family="Helvetica,sans-Serif" font-size="10.00">packages/compile_time</text>
<text text-anchor="start" x="778.5" y="-293" font-family="Helvetica,sans-Serif" font-size="10.00">/packages/concepts/inc</text>
<text text-anchor="middle" x="836.5" y="-282" font-family="Helvetica,sans-Serif" font-size="10.00">/iterator_concepts.hpp</text>
</a>
</g>
</g>
<!-- Node7&#45;&gt;Node8 -->
<g id="edge7_Node000007_Node000008" class="edge">
<title>Node7&#45;&gt;Node8</title>
<g id="a_edge7_Node000007_Node000008"><a xlink:title=" ">
<path fill="none" stroke="#63b8ff" d="M770.88,-351.79C781.41,-342.92 793.99,-332.32 805.3,-322.79"/>
<polygon fill="#63b8ff" stroke="#63b8ff" points="807.88,-325.19 813.27,-316.07 803.37,-319.84 807.88,-325.19"/>
</a>
</g>
</g>
<!-- Node9 -->
<g id="Node000009" class="node">
<title>Node9</title>
<g id="a_Node000009"><a xlink:href="basic__concepts_8hpp.html" target="_top" xlink:title=" ">
<polygon fill="white" stroke="#666666" points="1253.5,-239 1121.5,-239 1121.5,-198 1253.5,-198 1253.5,-239"/>
<text text-anchor="start" x="1129.5" y="-227" font-family="Helvetica,sans-Serif" font-size="10.00">packages/compile_time</text>
<text text-anchor="start" x="1129.5" y="-216" font-family="Helvetica,sans-Serif" font-size="10.00">/packages/concepts/inc</text>
<text text-anchor="middle" x="1187.5" y="-205" font-family="Helvetica,sans-Serif" font-size="10.00">/basic_concepts.hpp</text>
</a>
</g>
</g>
<!-- Node8&#45;&gt;Node9 -->
<g id="edge8_Node000008_Node000009" class="edge">
<title>Node8&#45;&gt;Node9</title>
<g id="a_edge8_Node000008_Node000009"><a xlink:title=" ">
<path fill="none" stroke="#63b8ff" d="M902.52,-280.39C961.87,-267.71 1049.03,-249.09 1111.32,-235.78"/>
<polygon fill="#63b8ff" stroke="#63b8ff" points="1112.43,-239.12 1121.48,-233.61 1110.97,-232.27 1112.43,-239.12"/>
</a>
</g>
</g>
<!-- Node23 -->
<g id="Node000023" class="node">
<title>Node23</title>
<g id="a_Node000023"><a xlink:href="Size_8hpp.html" target="_top" xlink:title=" ">
<polygon fill="white" stroke="#666666" points="827.5,-239 679.5,-239 679.5,-198 827.5,-198 827.5,-239"/>
<text text-anchor="start" x="687.5" y="-227" font-family="Helvetica,sans-Serif" font-size="10.00">packages/compile_time</text>
<text text-anchor="start" x="687.5" y="-216" font-family="Helvetica,sans-Serif" font-size="10.00">/packages/parameter_pack</text>
<text text-anchor="middle" x="753.5" y="-205" font-family="Helvetica,sans-Serif" font-size="10.00">/inc/Size.hpp</text>
</a>
</g>
</g>
<!-- Node8&#45;&gt;Node23 -->
<g id="edge23_Node000008_Node000023" class="edge">
<title>Node8&#45;&gt;Node23</title>
<g id="a_edge23_Node000008_Node000023"><a xlink:title=" ">
<path fill="none" stroke="#63b8ff" d="M814.69,-274.79C804.88,-265.92 793.14,-255.32 782.59,-245.79"/>
<polygon fill="#63b8ff" stroke="#63b8ff" points="784.93,-243.18 775.16,-239.07 780.23,-248.38 784.93,-243.18"/>
</a>
</g>
</g>
<!-- Node24 -->
<g id="Node000024" class="node">
<title>Node24</title>
<g id="a_Node000024"><a xlink:href="Select_8hpp.html" target="_top" xlink:title=" ">
<polygon fill="white" stroke="#666666" points="993.5,-239 845.5,-239 845.5,-198 993.5,-198 993.5,-239"/>
<text text-anchor="start" x="853.5" y="-227" font-family="Helvetica,sans-Serif" font-size="10.00">packages/compile_time</text>
<text text-anchor="start" x="853.5" y="-216" font-family="Helvetica,sans-Serif" font-size="10.00">/packages/parameter_pack</text>
<text text-anchor="middle" x="919.5" y="-205" font-family="Helvetica,sans-Serif" font-size="10.00">/inc/Select.hpp</text>
</a>
</g>
</g>
<!-- Node8&#45;&gt;Node24 -->
<g id="edge25_Node000008_Node000024" class="edge">
<title>Node8&#45;&gt;Node24</title>
<g id="a_edge25_Node000008_Node000024"><a xlink:title=" ">
<path fill="none" stroke="#63b8ff" d="M858.31,-274.79C868.12,-265.92 879.86,-255.32 890.41,-245.79"/>
<polygon fill="#63b8ff" stroke="#63b8ff" points="892.77,-248.38 897.84,-239.07 888.07,-243.18 892.77,-248.38"/>
</a>
</g>
</g>
<!-- Node26 -->
<g id="Node000026" class="node">
<title>Node26</title>
<g id="a_Node000026"><a xlink:title=" ">
<polygon fill="#e0e0e0" stroke="#999999" points="1065,-228 1012,-228 1012,-209 1065,-209 1065,-228"/>
<text text-anchor="middle" x="1038.5" y="-216" font-family="Helvetica,sans-Serif" font-size="10.00">iterator</text>
</a>
</g>
</g>
<!-- Node8&#45;&gt;Node26 -->
<g id="edge29_Node000008_Node000026" class="edge">
<title>Node8&#45;&gt;Node26</title>
<g id="a_edge29_Node000008_Node000026"><a xlink:title=" ">
<path fill="none" stroke="#63b8ff" d="M902.53,-275.33C933.37,-265.64 970.3,-252.98 1002.5,-239 1006.61,-237.22 1010.87,-235.13 1014.97,-233"/>
<polygon fill="#63b8ff" stroke="#63b8ff" points="1016.95,-235.9 1024.07,-228.06 1013.62,-229.75 1016.95,-235.9"/>
</a>
</g>
</g>
<!-- Node27 -->
<g id="Node000027" class="node">
<title>Node27</title>
<g id="a_Node000027"><a xlink:title=" ">
<polygon fill="#e0e0e0" stroke="#999999" points="604.5,-156.5 546.5,-156.5 546.5,-137.5 604.5,-137.5 604.5,-156.5"/>
<text text-anchor="middle" x="575.5" y="-144.5" font-family="Helvetica,sans-Serif" font-size="10.00">memory</text>
</a>
</g>
</g>
<!-- Node8&#45;&gt;Node27 -->
<g id="edge30_Node000008_Node000027" class="edge">
<title>Node8&#45;&gt;Node27</title>
<g id="a_edge30_Node000008_Node000027"><a xlink:title=" ">
<path fill="none" stroke="#63b8ff" d="M770.15,-279.55C738.54,-270.66 701.06,-257.46 670.5,-239 636.95,-218.74 605.69,-184.75 588.73,-164.54"/>
<polygon fill="#63b8ff" stroke="#63b8ff" points="591.23,-162.07 582.17,-156.57 585.82,-166.52 591.23,-162.07"/>
</a>
</g>
</g>
<!-- Node9&#45;&gt;Node10 -->
<g id="edge9_Node000009_Node000010" class="edge">
<title>Node9&#45;&gt;Node10</title>
<g id="a_edge9_Node000009_Node000010"><a xlink:title=" ">
<path fill="none" stroke="#63b8ff" d="M1121.26,-200.81C1116.61,-199.81 1111.99,-198.86 1107.5,-198 993.78,-176.26 963.87,-179.98 849.5,-162 844.7,-161.25 839.75,-160.44 834.77,-159.61"/>
<polygon fill="#63b8ff" stroke="#63b8ff" points="834.99,-156.1 824.54,-157.89 833.82,-163 834.99,-156.1"/>
</a>
</g>
</g>
<!-- Node16 -->
<g id="Node000016" class="node">
<title>Node16</title>
<g id="a_Node000016"><a xlink:title=" ">
<polygon fill="#e0e0e0" stroke="#999999" points="1157,-90.5 1088,-90.5 1088,-71.5 1157,-71.5 1157,-90.5"/>
<text text-anchor="middle" x="1122.5" y="-78.5" font-family="Helvetica,sans-Serif" font-size="10.00">type_traits</text>
</a>
</g>
</g>
<!-- Node9&#45;&gt;Node16 -->
<g id="edge20_Node000009_Node000016" class="edge">
<title>Node9&#45;&gt;Node16</title>
<g id="a_edge20_Node000009_Node000016"><a xlink:title=" ">
<path fill="none" stroke="#63b8ff" d="M1178.05,-197.8C1165.42,-171.48 1143.23,-125.22 1131.07,-99.87"/>
<polygon fill="#63b8ff" stroke="#63b8ff" points="1134.15,-98.19 1126.67,-90.69 1127.84,-101.22 1134.15,-98.19"/>
</a>
</g>
</g>
<!-- Node20 -->
<g id="Node000020" class="node">
<title>Node20</title>
<g id="a_Node000020"><a xlink:title=" ">
<polygon fill="#e0e0e0" stroke="#999999" points="918.5,-156.5 858.5,-156.5 858.5,-137.5 918.5,-137.5 918.5,-156.5"/>
<text text-anchor="middle" x="888.5" y="-144.5" font-family="Helvetica,sans-Serif" font-size="10.00">concepts</text>
</a>
</g>
</g>
<!-- Node9&#45;&gt;Node20 -->
<g id="edge19_Node000009_Node000020" class="edge">
<title>Node9&#45;&gt;Node20</title>
<g id="a_edge19_Node000009_Node000020"><a xlink:title=" ">
<path fill="none" stroke="#63b8ff" d="M1121.19,-201.12C1116.56,-200.04 1111.97,-198.99 1107.5,-198 1028.29,-180.39 1006.76,-183.45 928.5,-162 926.02,-161.32 923.46,-160.56 920.91,-159.76"/>
<polygon fill="#63b8ff" stroke="#63b8ff" points="921.77,-156.36 911.17,-156.55 919.57,-163.01 921.77,-156.36"/>
</a>
</g>
</g>
<!-- Node21 -->
<g id="Node000021" class="node">
<title>Node21</title>
<g id="a_Node000021"><a xlink:title=" ">
<polygon fill="#e0e0e0" stroke="#999999" points="1238.5,-156.5 1188.5,-156.5 1188.5,-137.5 1238.5,-137.5 1238.5,-156.5"/>
<text text-anchor="middle" x="1213.5" y="-144.5" font-family="Helvetica,sans-Serif" font-size="10.00">cstdint</text>
</a>
</g>
</g>
<!-- Node9&#45;&gt;Node21 -->
<g id="edge21_Node000009_Node000021" class="edge">
<title>Node9&#45;&gt;Node21</title>
<g id="a_edge21_Node000009_Node000021"><a xlink:title=" ">
<path fill="none" stroke="#63b8ff" d="M1194.88,-197.77C1198.59,-187.87 1203.04,-175.95 1206.67,-166.26"/>
<polygon fill="#63b8ff" stroke="#63b8ff" points="1209.97,-167.41 1210.2,-156.82 1203.42,-164.96 1209.97,-167.41"/>
</a>
</g>
</g>
<!-- Node22 -->
<g id="Node000022" class="node">
<title>Node22</title>
<g id="a_Node000022"><a xlink:title=" ">
<polygon fill="#e0e0e0" stroke="#999999" points="1132,-156.5 1087,-156.5 1087,-137.5 1132,-137.5 1132,-156.5"/>
<text text-anchor="middle" x="1109.5" y="-144.5" font-family="Helvetica,sans-Serif" font-size="10.00">utility</text>
</a>
</g>
</g>
<!-- Node9&#45;&gt;Node22 -->
<g id="edge22_Node000009_Node000022" class="edge">
<title>Node9&#45;&gt;Node22</title>
<g id="a_edge22_Node000009_Node000022"><a xlink:title=" ">
<path fill="none" stroke="#63b8ff" d="M1165.36,-197.77C1153.18,-186.92 1138.29,-173.65 1126.94,-163.54"/>
<polygon fill="#63b8ff" stroke="#63b8ff" points="1129.19,-160.86 1119.4,-156.82 1124.54,-166.09 1129.19,-160.86"/>
</a>
</g>
</g>
<!-- Node11 -->
<g id="Node000011" class="node">
<title>Node11</title>
<g id="a_Node000011"><a xlink:href="debug_8hpp.html" target="_top" xlink:title=" ">
<polygon fill="white" stroke="#666666" points="919,-96 800,-96 800,-66 919,-66 919,-96"/>
<text text-anchor="start" x="808" y="-84" font-family="Helvetica,sans-Serif" font-size="10.00">packages/macros/inc</text>
<text text-anchor="middle" x="859.5" y="-73" font-family="Helvetica,sans-Serif" font-size="10.00">/debug.hpp</text>
</a>
</g>
</g>
<!-- Node10&#45;&gt;Node11 -->
<g id="edge10_Node000010_Node000011" class="edge">
<title>Node10&#45;&gt;Node11</title>
<g id="a_edge10_Node000010_Node000011"><a xlink:title=" ">
<path fill="none" stroke="#63b8ff" d="M789.47,-131.8C801.71,-123.1 817.56,-111.82 831.09,-102.2"/>
<polygon fill="#63b8ff" stroke="#63b8ff" points="833.46,-104.81 839.58,-96.16 829.4,-99.11 833.46,-104.81"/>
</a>
</g>
</g>
<!-- Node14 -->
<g id="Node000014" class="node">
<title>Node14</title>
<g id="a_Node000014"><a xlink:title=" ">
<polygon fill="#e0e0e0" stroke="#999999" points="990,-90.5 937,-90.5 937,-71.5 990,-71.5 990,-90.5"/>
<text text-anchor="middle" x="963.5" y="-78.5" font-family="Helvetica,sans-Serif" font-size="10.00">cstddef</text>
</a>
</g>
</g>
<!-- Node10&#45;&gt;Node14 -->
<g id="edge13_Node000010_Node000014" class="edge">
<title>Node10&#45;&gt;Node14</title>
<g id="a_edge13_Node000010_Node000014"><a xlink:title=" ">
<path fill="none" stroke="#63b8ff" d="M817.47,-131.95C849.19,-122.41 891.57,-109.17 928.5,-96 930.11,-95.43 931.76,-94.82 933.41,-94.2"/>
<polygon fill="#63b8ff" stroke="#63b8ff" points="934.8,-97.42 942.87,-90.55 932.28,-90.89 934.8,-97.42"/>
</a>
</g>
</g>
<!-- Node15 -->
<g id="Node000015" class="node">
<title>Node15</title>
<g id="a_Node000015"><a xlink:title=" ">
<polygon fill="#e0e0e0" stroke="#999999" points="509.5,-90.5 465.5,-90.5 465.5,-71.5 509.5,-71.5 509.5,-90.5"/>
<text text-anchor="middle" x="487.5" y="-78.5" font-family="Helvetica,sans-Serif" font-size="10.00">string</text>
</a>
</g>
</g>
<!-- Node10&#45;&gt;Node15 -->
<g id="edge14_Node000010_Node000015" class="edge">
<title>Node10&#45;&gt;Node15</title>
<g id="a_edge14_Node000010_Node000015"><a xlink:title=" ">
<path fill="none" stroke="#63b8ff" d="M714.02,-138.41C662.79,-130.58 584.94,-116.6 519.5,-96 517.87,-95.49 516.21,-94.92 514.55,-94.31"/>
<polygon fill="#63b8ff" stroke="#63b8ff" points="515.76,-91.03 505.18,-90.54 513.15,-97.52 515.76,-91.03"/>
</a>
</g>
</g>
<!-- Node10&#45;&gt;Node16 -->
<g id="edge15_Node000010_Node000016" class="edge">
<title>Node10&#45;&gt;Node16</title>
<g id="a_edge15_Node000010_Node000016"><a xlink:title=" ">
<path fill="none" stroke="#63b8ff" d="M824.57,-136.29C832.92,-134.84 841.44,-133.37 849.5,-132 946.31,-115.54 971.38,-116.13 1067.5,-96 1071.9,-95.08 1076.49,-94.04 1081.05,-92.95"/>
<polygon fill="#63b8ff" stroke="#63b8ff" points="1082.03,-96.32 1090.91,-90.53 1080.36,-89.52 1082.03,-96.32"/>
</a>
</g>
</g>
<!-- Node17 -->
<g id="Node000017" class="node">
<title>Node17</title>
<g id="a_Node000017"><a xlink:title=" ">
<polygon fill="#e0e0e0" stroke="#999999" points="1058.5,-90.5 1008.5,-90.5 1008.5,-71.5 1058.5,-71.5 1058.5,-90.5"/>
<text text-anchor="middle" x="1033.5" y="-78.5" font-family="Helvetica,sans-Serif" font-size="10.00">climits</text>
</a>
</g>
</g>
<!-- Node10&#45;&gt;Node17 -->
<g id="edge16_Node000010_Node000017" class="edge">
<title>Node10&#45;&gt;Node17</title>
<g id="a_edge16_Node000010_Node000017"><a xlink:title=" ">
<path fill="none" stroke="#63b8ff" d="M824.61,-135.19C881.86,-123.74 967.46,-105.99 999.5,-96 1001.18,-95.48 1002.88,-94.91 1004.6,-94.3"/>
<polygon fill="#63b8ff" stroke="#63b8ff" points="1006.21,-97.43 1014.3,-90.6 1003.71,-90.89 1006.21,-97.43"/>
</a>
</g>
</g>
<!-- Node18 -->
<g id="Node000018" class="node">
<title>Node18</title>
<g id="a_Node000018"><a xlink:title=" ">
<polygon fill="#e0e0e0" stroke="#999999" points="645,-96 528,-96 528,-66 645,-66 645,-96"/>
<text text-anchor="start" x="536" y="-84" font-family="Helvetica,sans-Serif" font-size="10.00">packages/types/impl</text>
<text text-anchor="middle" x="586.5" y="-73" font-family="Helvetica,sans-Serif" font-size="10.00">/types_impl.hpp</text>
</a>
</g>
</g>
<!-- Node10&#45;&gt;Node18 -->
<g id="edge17_Node000010_Node000018" class="edge">
<title>Node10&#45;&gt;Node18</title>
<g id="a_edge17_Node000010_Node000018"><a xlink:title=" ">
<path fill="none" stroke="#63b8ff" d="M729.34,-131.95C701.93,-122.37 665.42,-109.6 636.18,-99.37"/>
<polygon fill="#63b8ff" stroke="#63b8ff" points="637.16,-96.01 626.57,-96.01 634.85,-102.62 637.16,-96.01"/>
</a>
</g>
</g>
<!-- Node19 -->
<g id="Node000019" class="node">
<title>Node19</title>
<g id="a_Node000019"><a xlink:href="logging_8hpp.html" target="_top" xlink:title=" ">
<polygon fill="white" stroke="#666666" points="782,-96 663,-96 663,-66 782,-66 782,-96"/>
<text text-anchor="start" x="671" y="-84" font-family="Helvetica,sans-Serif" font-size="10.00">packages/macros/inc</text>
<text text-anchor="middle" x="722.5" y="-73" font-family="Helvetica,sans-Serif" font-size="10.00">/logging.hpp</text>
</a>
</g>
</g>
<!-- Node10&#45;&gt;Node19 -->
<g id="edge18_Node000010_Node000019" class="edge">
<title>Node10&#45;&gt;Node19</title>
<g id="a_edge18_Node000010_Node000019"><a xlink:title=" ">
<path fill="none" stroke="#63b8ff" d="M759.07,-131.8C753.17,-123.76 745.65,-113.53 738.97,-104.43"/>
<polygon fill="#63b8ff" stroke="#63b8ff" points="741.64,-102.15 732.9,-96.16 736,-106.3 741.64,-102.15"/>
</a>
</g>
</g>
<!-- Node12 -->
<g id="Node000012" class="node">
<title>Node12</title>
<g id="a_Node000012"><a xlink:href="detail_8hpp.html" target="_top" xlink:title=" ">
<polygon fill="white" stroke="#666666" points="497,-30 378,-30 378,0 497,0 497,-30"/>
<text text-anchor="start" x="386" y="-18" font-family="Helvetica,sans-Serif" font-size="10.00">packages/macros/inc</text>
<text text-anchor="middle" x="437.5" y="-7" font-family="Helvetica,sans-Serif" font-size="10.00">/detail.hpp</text>
</a>
</g>
</g>
<!-- Node11&#45;&gt;Node12 -->
<g id="edge11_Node000011_Node000012" class="edge">
<title>Node11&#45;&gt;Node12</title>
<g id="a_edge11_Node000011_Node000012"><a xlink:title=" ">
<path fill="none" stroke="#63b8ff" d="M799.84,-67.5C797.02,-66.98 794.23,-66.47 791.5,-66 693.28,-48.97 578.98,-33.63 507.42,-24.56"/>
<polygon fill="#63b8ff" stroke="#63b8ff" points="507.54,-21.05 497.18,-23.27 506.67,-27.99 507.54,-21.05"/>
</a>
</g>
</g>
<!-- Node13 -->
<g id="Node000013" class="node">
<title>Node13</title>
<g id="a_Node000013"><a xlink:title=" ">
<polygon fill="#e0e0e0" stroke="#999999" points="889.5,-24.5 829.5,-24.5 829.5,-5.5 889.5,-5.5 889.5,-24.5"/>
<text text-anchor="middle" x="859.5" y="-12.5" font-family="Helvetica,sans-Serif" font-size="10.00">iostream</text>
</a>
</g>
</g>
<!-- Node11&#45;&gt;Node13 -->
<g id="edge12_Node000011_Node000013" class="edge">
<title>Node11&#45;&gt;Node13</title>
<g id="a_edge12_Node000011_Node000013"><a xlink:title=" ">
<path fill="none" stroke="#63b8ff" d="M859.5,-65.8C859.5,-56.7 859.5,-44.79 859.5,-34.9"/>
<polygon fill="#63b8ff" stroke="#63b8ff" points="863,-34.84 859.5,-24.84 856,-34.84 863,-34.84"/>
</a>
</g>
</g>
<!-- Node23&#45;&gt;Node10 -->
<g id="edge24_Node000023_Node000010" class="edge">
<title>Node23&#45;&gt;Node10</title>
<g id="a_edge24_Node000023_Node000010"><a xlink:title=" ">
<path fill="none" stroke="#63b8ff" d="M758.04,-197.77C759.89,-189.76 762.04,-180.42 763.97,-172.02"/>
<polygon fill="#63b8ff" stroke="#63b8ff" points="767.44,-172.57 766.27,-162.04 760.61,-171 767.44,-172.57"/>
</a>
</g>
</g>
<!-- Node24&#45;&gt;Node10 -->
<g id="edge26_Node000024_Node000010" class="edge">
<title>Node24&#45;&gt;Node10</title>
<g id="a_edge26_Node000024_Node000010"><a xlink:title=" ">
<path fill="none" stroke="#63b8ff" d="M877.32,-197.96C855.98,-188.07 830.22,-176.13 809.23,-166.41"/>
<polygon fill="#63b8ff" stroke="#63b8ff" points="810.5,-163.14 799.96,-162.11 807.56,-169.49 810.5,-163.14"/>
</a>
</g>
</g>
<!-- Node24&#45;&gt;Node20 -->
<g id="edge28_Node000024_Node000020" class="edge">
<title>Node24&#45;&gt;Node20</title>
<g id="a_edge28_Node000024_Node000020"><a xlink:title=" ">
<path fill="none" stroke="#63b8ff" d="M910.7,-197.77C906.28,-187.87 900.97,-175.95 896.64,-166.26"/>
<polygon fill="#63b8ff" stroke="#63b8ff" points="899.7,-164.53 892.43,-156.82 893.31,-167.38 899.7,-164.53"/>
</a>
</g>
</g>
<!-- Node25 -->
<g id="Node000025" class="node">
<title>Node25</title>
<g id="a_Node000025"><a xlink:title=" ">
<polygon fill="#e0e0e0" stroke="#999999" points="978,-156.5 937,-156.5 937,-137.5 978,-137.5 978,-156.5"/>
<text text-anchor="middle" x="957.5" y="-144.5" font-family="Helvetica,sans-Serif" font-size="10.00">tuple</text>
</a>
</g>
</g>
<!-- Node24&#45;&gt;Node25 -->
<g id="edge27_Node000024_Node000025" class="edge">
<title>Node24&#45;&gt;Node25</title>
<g id="a_edge27_Node000024_Node000025"><a xlink:title=" ">
<path fill="none" stroke="#63b8ff" d="M930.29,-197.77C935.82,-187.66 942.5,-175.44 947.85,-165.64"/>
<polygon fill="#63b8ff" stroke="#63b8ff" points="950.95,-167.27 952.68,-156.82 944.81,-163.91 950.95,-167.27"/>
</a>
</g>
</g>
<!-- Node28&#45;&gt;Node27 -->
<g id="edge32_Node000028_Node000027" class="edge">
<title>Node28&#45;&gt;Node27</title>
<g id="a_edge32_Node000028_Node000027"><a xlink:title=" ">
<path fill="none" stroke="#63b8ff" d="M603.19,-428.58C602.46,-399.48 600.24,-331.67 594.5,-275 590.58,-236.32 583.18,-191.41 578.87,-166.7"/>
<polygon fill="#63b8ff" stroke="#63b8ff" points="582.27,-165.82 577.07,-156.59 575.37,-167.05 582.27,-165.82"/>
</a>
</g>
</g>
<!-- Node29&#45;&gt;Node12 -->
<g id="edge42_Node000029_Node000012" class="edge">
<title>Node29&#45;&gt;Node12</title>
<g id="a_edge42_Node000029_Node000012"><a xlink:title=" ">
<path fill="none" stroke="#63b8ff" d="M213.7,-283.25C182.27,-275.03 144.56,-261.32 116.5,-239 75.57,-206.44 36.54,-174.16 67.5,-132 103.29,-83.27 271.05,-45.81 367.94,-27.8"/>
<polygon fill="#63b8ff" stroke="#63b8ff" points="368.75,-31.21 377.95,-25.96 367.48,-24.32 368.75,-31.21"/>
</a>
</g>
</g>
<!-- Node29&#45;&gt;Node20 -->
<g id="edge44_Node000029_Node000020" class="edge">
<title>Node29&#45;&gt;Node20</title>
<g id="a_edge44_Node000029_Node000020"><a xlink:title=" ">
<path fill="none" stroke="#63b8ff" d="M278.68,-280.31C287.55,-258.31 307.9,-216.59 340.5,-198 435.91,-143.57 725.07,-179.62 833.5,-162 838.6,-161.17 843.91,-160.1 849.14,-158.91"/>
<polygon fill="#63b8ff" stroke="#63b8ff" points="850.12,-162.27 859.02,-156.52 848.47,-155.47 850.12,-162.27"/>
</a>
</g>
</g>
<!-- Node30 -->
<g id="Node000030" class="node">
<title>Node30</title>
<g id="a_Node000030"><a xlink:href="exception_8hpp.html" target="_top" xlink:title=" ">
<polygon fill="white" stroke="#666666" points="245,-233.5 126,-233.5 126,-203.5 245,-203.5 245,-233.5"/>
<text text-anchor="start" x="134" y="-221.5" font-family="Helvetica,sans-Serif" font-size="10.00">packages/exceptions</text>
<text text-anchor="middle" x="185.5" y="-210.5" font-family="Helvetica,sans-Serif" font-size="10.00">/inc/exception.hpp</text>
</a>
</g>
</g>
<!-- Node29&#45;&gt;Node30 -->
<g id="edge35_Node000029_Node000030" class="edge">
<title>Node29&#45;&gt;Node30</title>
<g id="a_edge35_Node000029_Node000030"><a xlink:title=" ">
<path fill="none" stroke="#63b8ff" d="M256.95,-280.39C243.67,-269.08 224.85,-253.04 209.85,-240.26"/>
<polygon fill="#63b8ff" stroke="#63b8ff" points="211.86,-237.37 201.98,-233.54 207.32,-242.69 211.86,-237.37"/>
</a>
</g>
</g>
<!-- Node34 -->
<g id="Node000034" class="node">
<title>Node34</title>
<g id="a_Node000034"><a xlink:title=" ">
<polygon fill="#e0e0e0" stroke="#999999" points="405.5,-228 349.5,-228 349.5,-209 405.5,-209 405.5,-228"/>
<text text-anchor="middle" x="377.5" y="-216" font-family="Helvetica,sans-Serif" font-size="10.00">sstream</text>
</a>
</g>
</g>
<!-- Node29&#45;&gt;Node34 -->
<g id="edge43_Node000029_Node000034" class="edge">
<title>Node29&#45;&gt;Node34</title>
<g id="a_edge43_Node000029_Node000034"><a xlink:title=" ">
<path fill="none" stroke="#63b8ff" d="M293.06,-280.39C311.37,-267.19 338.6,-247.55 357.15,-234.17"/>
<polygon fill="#63b8ff" stroke="#63b8ff" points="359.43,-236.85 365.49,-228.16 355.33,-231.17 359.43,-236.85"/>
</a>
</g>
</g>
<!-- Node30&#45;&gt;Node10 -->
<g id="edge36_Node000030_Node000010" class="edge">
<title>Node30&#45;&gt;Node10</title>
<g id="a_edge36_Node000030_Node000010"><a xlink:title=" ">
<path fill="none" stroke="#63b8ff" d="M234.21,-203.48C242.6,-201.41 251.26,-199.48 259.5,-198 302.23,-190.33 576.35,-165.28 704.12,-153.82"/>
<polygon fill="#63b8ff" stroke="#63b8ff" points="704.52,-157.3 714.17,-152.92 703.9,-150.33 704.52,-157.3"/>
</a>
</g>
</g>
<!-- Node30&#45;&gt;Node15 -->
<g id="edge38_Node000030_Node000015" class="edge">
<title>Node30&#45;&gt;Node15</title>
<g id="a_edge38_Node000030_Node000015"><a xlink:title=" ">
<path fill="none" stroke="#63b8ff" d="M238.43,-203.5C291.64,-189.25 367.61,-168.38 380.5,-162 415.6,-144.62 450.96,-115.36 470.95,-97.45"/>
<polygon fill="#63b8ff" stroke="#63b8ff" points="473.5,-99.86 478.54,-90.54 468.79,-94.69 473.5,-99.86"/>
</a>
</g>
</g>
<!-- Node30&#45;&gt;Node27 -->
<g id="edge40_Node000030_Node000027" class="edge">
<title>Node30&#45;&gt;Node27</title>
<g id="a_edge40_Node000030_Node000027"><a xlink:title=" ">
<path fill="none" stroke="#63b8ff" d="M235.89,-203.5C243.76,-201.52 251.83,-199.61 259.5,-198 358.21,-177.24 475.88,-160.77 535.95,-152.95"/>
<polygon fill="#63b8ff" stroke="#63b8ff" points="536.66,-156.39 546.13,-151.64 535.76,-149.45 536.66,-156.39"/>
</a>
</g>
</g>
<!-- Node31 -->
<g id="Node000031" class="node">
<title>Node31</title>
<g id="a_Node000031"><a xlink:title=" ">
<polygon fill="#e0e0e0" stroke="#999999" points="142,-156.5 77,-156.5 77,-137.5 142,-137.5 142,-156.5"/>
<text text-anchor="middle" x="109.5" y="-144.5" font-family="Helvetica,sans-Serif" font-size="10.00">stdexcept</text>
</a>
</g>
</g>
<!-- Node30&#45;&gt;Node31 -->
<g id="edge37_Node000030_Node000031" class="edge">
<title>Node30&#45;&gt;Node31</title>
<g id="a_edge37_Node000030_Node000031"><a xlink:title=" ">
<path fill="none" stroke="#63b8ff" d="M170.12,-203.44C157.48,-191.87 139.58,-175.51 126.51,-163.56"/>
<polygon fill="#63b8ff" stroke="#63b8ff" points="128.83,-160.93 119.09,-156.77 124.1,-166.1 128.83,-160.93"/>
</a>
</g>
</g>
<!-- Node32 -->
<g id="Node000032" class="node">
<title>Node32</title>
<g id="a_Node000032"><a xlink:title=" ">
<polygon fill="#e0e0e0" stroke="#999999" points="207,-156.5 160,-156.5 160,-137.5 207,-137.5 207,-156.5"/>
<text text-anchor="middle" x="183.5" y="-144.5" font-family="Helvetica,sans-Serif" font-size="10.00">deque</text>
</a>
</g>
</g>
<!-- Node30&#45;&gt;Node32 -->
<g id="edge39_Node000030_Node000032" class="edge">
<title>Node30&#45;&gt;Node32</title>
<g id="a_edge39_Node000030_Node000032"><a xlink:title=" ">
<path fill="none" stroke="#63b8ff" d="M185.1,-203.44C184.79,-192.96 184.38,-178.55 184.05,-167.05"/>
<polygon fill="#63b8ff" stroke="#63b8ff" points="187.54,-166.66 183.75,-156.77 180.54,-166.86 187.54,-166.66"/>
</a>
</g>
</g>
<!-- Node33 -->
<g id="Node000033" class="node">
<title>Node33</title>
<g id="a_Node000033"><a xlink:title=" ">
<polygon fill="#e0e0e0" stroke="#999999" points="371.5,-162 225.5,-162 225.5,-132 371.5,-132 371.5,-162"/>
<text text-anchor="start" x="233.5" y="-150" font-family="Helvetica,sans-Serif" font-size="10.00">packages/exceptions</text>
<text text-anchor="middle" x="298.5" y="-139" font-family="Helvetica,sans-Serif" font-size="10.00">/impl/exceptions_impl.hpp</text>
</a>
</g>
</g>
<!-- Node30&#45;&gt;Node33 -->
<g id="edge41_Node000030_Node000033" class="edge">
<title>Node30&#45;&gt;Node33</title>
<g id="a_edge41_Node000030_Node000033"><a xlink:title=" ">
<path fill="none" stroke="#63b8ff" d="M208.37,-203.44C225.22,-193.07 248.34,-178.85 266.94,-167.41"/>
<polygon fill="#63b8ff" stroke="#63b8ff" points="268.98,-170.26 275.67,-162.04 265.32,-164.3 268.98,-170.26"/>
</a>
</g>
</g>
<!-- Node35&#45;&gt;Node7 -->
<g id="edge52_Node000035_Node000007" class="edge">
<title>Node35&#45;&gt;Node7</title>
<g id="a_edge52_Node000035_Node000007"><a xlink:title=" ">
<path fill="none" stroke="#63b8ff" d="M514.59,-428.94C559.34,-418.29 621.2,-403.56 669.93,-391.96"/>
<polygon fill="#63b8ff" stroke="#63b8ff" points="670.89,-395.33 679.8,-389.61 669.27,-388.52 670.89,-395.33"/>
</a>
</g>
</g>
<!-- Node35&#45;&gt;Node10 -->
<g id="edge53_Node000035_Node000010" class="edge">
<title>Node35&#45;&gt;Node10</title>
<g id="a_edge53_Node000035_Node000010"><a xlink:title=" ">
<path fill="none" stroke="#63b8ff" d="M474.01,-428.69C502.05,-406.47 556.11,-361.45 594.5,-316 634.75,-268.34 624.15,-239.75 670.5,-198 685.11,-184.84 703.81,-174.23 721.02,-166.22"/>
<polygon fill="#63b8ff" stroke="#63b8ff" points="722.68,-169.31 730.39,-162.04 719.83,-162.92 722.68,-169.31"/>
</a>
</g>
</g>
<!-- Node36 -->
<g id="Node000036" class="node">
<title>Node36</title>
<g id="a_Node000036"><a xlink:href="checks_8hpp.html" target="_top" xlink:title=" ">
<polygon fill="white" stroke="#666666" points="497,-387.5 378,-387.5 378,-357.5 497,-357.5 497,-387.5"/>
<text text-anchor="start" x="386" y="-375.5" font-family="Helvetica,sans-Serif" font-size="10.00">packages/macros/inc</text>
<text text-anchor="middle" x="437.5" y="-364.5" font-family="Helvetica,sans-Serif" font-size="10.00">/checks.hpp</text>
</a>
</g>
</g>
<!-- Node35&#45;&gt;Node36 -->
<g id="edge46_Node000035_Node000036" class="edge">
<title>Node35&#45;&gt;Node36</title>
<g id="a_edge46_Node000035_Node000036"><a xlink:title=" ">
<path fill="none" stroke="#63b8ff" d="M451.86,-428.94C449.52,-419.89 446.41,-407.91 443.69,-397.4"/>
<polygon fill="#63b8ff" stroke="#63b8ff" points="447.03,-396.35 441.14,-387.54 440.26,-398.1 447.03,-396.35"/>
</a>
</g>
</g>
<!-- Node38 -->
<g id="Node000038" class="node">
<title>Node38</title>
<g id="a_Node000038"><a xlink:title=" ">
<polygon fill="#e0e0e0" stroke="#999999" points="359.5,-382 307.5,-382 307.5,-363 359.5,-363 359.5,-382"/>
<text text-anchor="middle" x="333.5" y="-370" font-family="Helvetica,sans-Serif" font-size="10.00">cassert</text>
</a>
</g>
</g>
<!-- Node35&#45;&gt;Node38 -->
<g id="edge54_Node000035_Node000038" class="edge">
<title>Node35&#45;&gt;Node38</title>
<g id="a_edge54_Node000035_Node000038"><a xlink:title=" ">
<path fill="none" stroke="#63b8ff" d="M430.81,-428.94C409.34,-416.7 378.43,-399.1 357.25,-387.03"/>
<polygon fill="#63b8ff" stroke="#63b8ff" points="358.96,-383.98 348.54,-382.07 355.5,-390.06 358.96,-383.98"/>
</a>
</g>
</g>
<!-- Node36&#45;&gt;Node12 -->
<g id="edge49_Node000036_Node000012" class="edge">
<title>Node36&#45;&gt;Node12</title>
<g id="a_edge49_Node000036_Node000012"><a xlink:title=" ">
<path fill="none" stroke="#63b8ff" d="M437.5,-357.25C437.5,-330.33 437.5,-270.17 437.5,-219.5 437.5,-219.5 437.5,-219.5 437.5,-146 437.5,-109.07 437.5,-66.24 437.5,-40.14"/>
<polygon fill="#63b8ff" stroke="#63b8ff" points="441,-40.04 437.5,-30.04 434,-40.04 441,-40.04"/>
</a>
</g>
</g>
<!-- Node36&#45;&gt;Node29 -->
<g id="edge48_Node000036_Node000029" class="edge">
<title>Node36&#45;&gt;Node29</title>
<g id="a_edge48_Node000036_Node000029"><a xlink:title=" ">
<path fill="none" stroke="#63b8ff" d="M406.65,-357.39C380.31,-345.35 342.24,-327.94 313.55,-314.82"/>
<polygon fill="#63b8ff" stroke="#63b8ff" points="314.76,-311.52 304.21,-310.54 311.85,-317.89 314.76,-311.52"/>
</a>
</g>
</g>
<!-- Node36&#45;&gt;Node30 -->
<g id="edge47_Node000036_Node000030" class="edge">
<title>Node36&#45;&gt;Node30</title>
<g id="a_edge47_Node000036_Node000030"><a xlink:title=" ">
<path fill="none" stroke="#63b8ff" d="M427.06,-357.39C411.03,-336.62 378.4,-297.84 342.5,-275 315.77,-258 283.16,-245.38 254.59,-236.51"/>
<polygon fill="#63b8ff" stroke="#63b8ff" points="255.26,-233.06 244.68,-233.53 253.25,-239.76 255.26,-233.06"/>
</a>
</g>
</g>
<!-- Node36&#45;&gt;Node34 -->
<g id="edge51_Node000036_Node000034" class="edge">
<title>Node36&#45;&gt;Node34</title>
<g id="a_edge51_Node000036_Node000034"><a xlink:title=" ">
<path fill="none" stroke="#63b8ff" d="M431.96,-357.47C421.06,-329.86 396.83,-268.48 384.71,-237.76"/>
<polygon fill="#63b8ff" stroke="#63b8ff" points="387.89,-236.29 380.96,-228.27 381.38,-238.86 387.89,-236.29"/>
</a>
</g>
</g>
<!-- Node37 -->
<g id="Node000037" class="node">
<title>Node37</title>
<g id="a_Node000037"><a xlink:title=" ">
<polygon fill="#e0e0e0" stroke="#999999" points="585.5,-305 465.5,-305 465.5,-286 585.5,-286 585.5,-305"/>
<text text-anchor="middle" x="525.5" y="-293" font-family="Helvetica,sans-Serif" font-size="10.00">cmake_variables.hpp</text>
</a>
</g>
</g>
<!-- Node36&#45;&gt;Node37 -->
<g id="edge50_Node000036_Node000037" class="edge">
<title>Node36&#45;&gt;Node37</title>
<g id="a_edge50_Node000036_Node000037"><a xlink:title=" ">
<path fill="none" stroke="#63b8ff" d="M454.05,-357.39C469.18,-344.5 491.5,-325.48 507.16,-312.13"/>
<polygon fill="#63b8ff" stroke="#63b8ff" points="509.75,-314.53 515.09,-305.37 505.21,-309.2 509.75,-314.53"/>
</a>
</g>
</g>
<!-- Node41&#45;&gt;Node6 -->
<g id="edge58_Node000041_Node000006" class="edge">
<title>Node41&#45;&gt;Node6</title>
<g id="a_edge58_Node000041_Node000006"><a xlink:title=" ">
<path fill="none" stroke="#63b8ff" d="M452.5,-560.8C452.5,-553.34 452.5,-543.99 452.5,-535.41"/>
<polygon fill="#63b8ff" stroke="#63b8ff" points="456,-535.16 452.5,-525.16 449,-535.16 456,-535.16"/>
</a>
</g>
</g>
<!-- Node42 -->
<g id="Node000042" class="node">
<title>Node42</title>
<g id="a_Node000042"><a xlink:title=" ">
<polygon fill="#e0e0e0" stroke="#999999" points="591,-519.5 544,-519.5 544,-500.5 591,-500.5 591,-519.5"/>
<text text-anchor="middle" x="567.5" y="-507.5" font-family="Helvetica,sans-Serif" font-size="10.00">vector</text>
</a>
</g>
</g>
<!-- Node41&#45;&gt;Node42 -->
<g id="edge59_Node000041_Node000042" class="edge">
<title>Node41&#45;&gt;Node42</title>
<g id="a_edge59_Node000041_Node000042"><a xlink:title=" ">
<path fill="none" stroke="#63b8ff" d="M477.74,-560.95C497.28,-550.08 524.18,-535.11 543.43,-524.4"/>
<polygon fill="#63b8ff" stroke="#63b8ff" points="545.16,-527.44 552.2,-519.52 541.76,-521.32 545.16,-527.44"/>
</a>
</g>
</g>
<!-- Node43&#45;&gt;Node2 -->
<g id="edge62_Node000043_Node000002" class="edge">
<title>Node43&#45;&gt;Node2</title>
<g id="a_edge62_Node000043_Node000002"><a xlink:title=" ">
<path fill="none" stroke="#63b8ff" d="M161.8,-357.39C139.22,-343.95 105.43,-323.84 82.93,-310.45"/>
<polygon fill="#63b8ff" stroke="#63b8ff" points="84.44,-307.27 74.05,-305.16 80.85,-313.28 84.44,-307.27"/>
</a>
</g>
</g>
<!-- Node43&#45;&gt;Node10 -->
<g id="edge63_Node000043_Node000010" class="edge">
<title>Node43&#45;&gt;Node10</title>
<g id="a_edge63_Node000043_Node000010"><a xlink:title=" ">
<path fill="none" stroke="#63b8ff" d="M185.36,-357.22C185.8,-337.27 189.05,-300.63 205.5,-275 220.1,-252.26 233.89,-256.48 254.5,-239 274.39,-222.13 272.89,-209.1 296.5,-198 314.67,-189.46 578.35,-165.03 703.93,-153.79"/>
<polygon fill="#63b8ff" stroke="#63b8ff" points="704.53,-157.25 714.18,-152.87 703.91,-150.27 704.53,-157.25"/>
</a>
</g>
</g>
<!-- Node43&#45;&gt;Node29 -->
<g id="edge64_Node000043_Node000029" class="edge">
<title>Node43&#45;&gt;Node29</title>
<g id="a_edge64_Node000043_Node000029"><a xlink:title=" ">
<path fill="none" stroke="#63b8ff" d="M202.05,-357.39C215.33,-346.08 234.15,-330.04 249.15,-317.26"/>
<polygon fill="#63b8ff" stroke="#63b8ff" points="251.68,-319.69 257.02,-310.54 247.14,-314.37 251.68,-319.69"/>
</a>
</g>
</g>
<!-- Node43&#45;&gt;Node30 -->
<g id="edge61_Node000043_Node000030" class="edge">
<title>Node43&#45;&gt;Node30</title>
<g id="a_edge61_Node000043_Node000030"><a xlink:title=" ">
<path fill="none" stroke="#63b8ff" d="M180.82,-357.08C177.47,-345.99 173.26,-330.2 171.5,-316 169.25,-297.92 169.25,-293.08 171.5,-275 172.8,-264.57 175.41,-253.29 178.03,-243.64"/>
<polygon fill="#63b8ff" stroke="#63b8ff" points="181.43,-244.5 180.82,-233.92 174.7,-242.57 181.43,-244.5"/>
</a>
</g>
</g>
</g>
</svg>
