<?xml version="1.0" encoding="UTF-8" standalone="no"?>
<!DOCTYPE svg PUBLIC "-//W3C//DTD SVG 1.1//EN"
 "http://www.w3.org/Graphics/SVG/1.1/DTD/svg11.dtd">
<!-- Generated by graphviz version 2.43.0 (0)
 -->
<!-- Title: stl_extension.hpp Pages: 1 -->
<svg width="1333pt" height="664pt"
 viewBox="0.00 0.00 1333.00 664.00" xmlns="http://www.w3.org/2000/svg" xmlns:xlink="http://www.w3.org/1999/xlink">
<g id="graph0" class="graph" transform="scale(1 1) rotate(0) translate(4 660)">
<title>stl_extension.hpp</title>
<polygon fill="white" stroke="transparent" points="-4,4 -4,-660 1329,-660 1329,4 -4,4"/>
<!-- Node1 -->
<g id="node1" class="node">
<title>Node1</title>
<g id="a_node1"><a xlink:title=" ">
<polygon fill="#bfbfbf" stroke="black" points="523,-636.5 523,-655.5 626,-655.5 626,-636.5 523,-636.5"/>
<text text-anchor="middle" x="574.5" y="-643.5" font-family="Helvetica,sans-Serif" font-size="10.00">stl_extension.hpp</text>
</a>
</g>
</g>
<!-- Node2 -->
<g id="node2" class="node">
<title>Node2</title>
<g id="a_node2"><a xlink:title=" ">
<polygon fill="white" stroke="#bfbfbf" points="0,-290.5 0,-309.5 119,-309.5 119,-290.5 0,-290.5"/>
<text text-anchor="middle" x="59.5" y="-297.5" font-family="Helvetica,sans-Serif" font-size="10.00">pybind11/pybind11.h</text>
</a>
</g>
</g>
<!-- Node1&#45;&gt;Node2 -->
<g id="edge1" class="edge">
<title>Node1&#45;&gt;Node2</title>
<path fill="none" stroke="midnightblue" d="M522.97,-642.02C401.13,-633.56 105.5,-604.2 105.5,-518.5 105.5,-518.5 105.5,-518.5 105.5,-449.5 105.5,-400.44 82.31,-346.18 68.86,-318.84"/>
<polygon fill="midnightblue" stroke="midnightblue" points="71.89,-317.08 64.25,-309.75 65.65,-320.25 71.89,-317.08"/>
</g>
<!-- Node3 -->
<g id="node3" class="node">
<title>Node3</title>
<g id="a_node3"><a xlink:title=" ">
<polygon fill="white" stroke="#bfbfbf" points="595.5,-575 595.5,-594 681.5,-594 681.5,-575 595.5,-575"/>
<text text-anchor="middle" x="638.5" y="-582" font-family="Helvetica,sans-Serif" font-size="10.00">pybind11/stl.h</text>
</a>
</g>
</g>
<!-- Node1&#45;&gt;Node3 -->
<g id="edge2" class="edge">
<title>Node1&#45;&gt;Node3</title>
<path fill="none" stroke="midnightblue" d="M583.67,-636.48C593.65,-627.2 609.81,-612.17 622.01,-600.83"/>
<polygon fill="midnightblue" stroke="midnightblue" points="624.41,-603.38 629.35,-594.01 619.64,-598.25 624.41,-603.38"/>
</g>
<!-- Node4 -->
<g id="node4" class="node">
<title>Node4</title>
<g id="a_node4"><a xlink:title=" ">
<polygon fill="white" stroke="#bfbfbf" points="699.5,-575 699.5,-594 805.5,-594 805.5,-575 699.5,-575"/>
<text text-anchor="middle" x="752.5" y="-582" font-family="Helvetica,sans-Serif" font-size="10.00">pybind11/numpy.h</text>
</a>
</g>
</g>
<!-- Node1&#45;&gt;Node4 -->
<g id="edge3" class="edge">
<title>Node1&#45;&gt;Node4</title>
<path fill="none" stroke="midnightblue" d="M600,-636.48C630.8,-626.18 682.77,-608.81 717.35,-597.25"/>
<polygon fill="midnightblue" stroke="midnightblue" points="718.67,-600.5 727.04,-594.01 716.45,-593.86 718.67,-600.5"/>
</g>
<!-- Node5 -->
<g id="node5" class="node">
<title>Node5</title>
<g id="a_node5"><a xlink:href="StaticArray_8hpp.html" target="_top" xlink:title=" ">
<polygon fill="white" stroke="black" points="297,-569.5 297,-599.5 428,-599.5 428,-569.5 297,-569.5"/>
<text text-anchor="start" x="305" y="-587.5" font-family="Helvetica,sans-Serif" font-size="10.00">packages/stl_extension</text>
<text text-anchor="middle" x="362.5" y="-576.5" font-family="Helvetica,sans-Serif" font-size="10.00">/inc/StaticArray.hpp</text>
</a>
</g>
</g>
<!-- Node1&#45;&gt;Node5 -->
<g id="edge4" class="edge">
<title>Node1&#45;&gt;Node5</title>
<path fill="none" stroke="midnightblue" d="M544.13,-636.48C512.46,-627.59 462.01,-613.43 422.31,-602.29"/>
<polygon fill="midnightblue" stroke="midnightblue" points="423.04,-598.86 412.46,-599.52 421.15,-605.6 423.04,-598.86"/>
</g>
<!-- Node42 -->
<g id="node42" class="node">
<title>Node42</title>
<g id="a_node42"><a xlink:href="DynamicArray_8hpp.html" target="_top" xlink:title=" ">
<polygon fill="white" stroke="black" points="446,-569.5 446,-599.5 577,-599.5 577,-569.5 446,-569.5"/>
<text text-anchor="start" x="454" y="-587.5" font-family="Helvetica,sans-Serif" font-size="10.00">packages/stl_extension</text>
<text text-anchor="middle" x="511.5" y="-576.5" font-family="Helvetica,sans-Serif" font-size="10.00">/inc/DynamicArray.hpp</text>
</a>
</g>
</g>
<!-- Node1&#45;&gt;Node42 -->
<g id="edge59" class="edge">
<title>Node1&#45;&gt;Node42</title>
<path fill="none" stroke="midnightblue" d="M565.47,-636.48C557.26,-628.72 544.79,-616.94 533.91,-606.66"/>
<polygon fill="midnightblue" stroke="midnightblue" points="536.02,-603.84 526.35,-599.52 531.21,-608.93 536.02,-603.84"/>
</g>
<!-- Node44 -->
<g id="node44" class="node">
<title>Node44</title>
<g id="a_node44"><a xlink:href="common_8hpp.html" target="_top" xlink:title=" ">
<polygon fill="white" stroke="black" points="179.5,-363 179.5,-393 291.5,-393 291.5,-363 179.5,-363"/>
<text text-anchor="start" x="187.5" y="-381" font-family="Helvetica,sans-Serif" font-size="10.00">python/bindings/inc</text>
<text text-anchor="middle" x="235.5" y="-370" font-family="Helvetica,sans-Serif" font-size="10.00">/common.hpp</text>
</a>
</g>
</g>
<!-- Node1&#45;&gt;Node44 -->
<g id="edge62" class="edge">
<title>Node1&#45;&gt;Node44</title>
<path fill="none" stroke="midnightblue" d="M522.94,-643.59C449.98,-640.5 321.78,-630.74 288.5,-600 232.67,-548.43 230.85,-449.35 233.37,-403.45"/>
<polygon fill="midnightblue" stroke="midnightblue" points="236.88,-403.45 234.06,-393.24 229.89,-402.98 236.88,-403.45"/>
</g>
<!-- Node45 -->
<g id="node45" class="node">
<title>Node45</title>
<g id="a_node45"><a xlink:title=" ">
<polygon fill="white" stroke="#bfbfbf" points="823.5,-575 823.5,-594 873.5,-594 873.5,-575 823.5,-575"/>
<text text-anchor="middle" x="848.5" y="-582" font-family="Helvetica,sans-Serif" font-size="10.00">ranges</text>
</a>
</g>
</g>
<!-- Node1&#45;&gt;Node45 -->
<g id="edge67" class="edge">
<title>Node1&#45;&gt;Node45</title>
<path fill="none" stroke="midnightblue" d="M626.31,-638.61C675.45,-631.77 751.01,-619.24 814.5,-600 816.65,-599.35 818.84,-598.61 821.03,-597.81"/>
<polygon fill="midnightblue" stroke="midnightblue" points="822.42,-601.02 830.42,-594.07 819.83,-594.52 822.42,-601.02"/>
</g>
<!-- Node46 -->
<g id="node46" class="node">
<title>Node46</title>
<g id="a_node46"><a xlink:title=" ">
<polygon fill="white" stroke="#bfbfbf" points="891.5,-575 891.5,-594 931.5,-594 931.5,-575 891.5,-575"/>
<text text-anchor="middle" x="911.5" y="-582" font-family="Helvetica,sans-Serif" font-size="10.00">span</text>
</a>
</g>
</g>
<!-- Node1&#45;&gt;Node46 -->
<g id="edge68" class="edge">
<title>Node1&#45;&gt;Node46</title>
<path fill="none" stroke="midnightblue" d="M626.02,-642.48C688.11,-638.31 794.98,-627.49 882.5,-600 884.12,-599.49 885.77,-598.9 887.41,-598.25"/>
<polygon fill="midnightblue" stroke="midnightblue" points="888.86,-601.43 896.53,-594.12 885.98,-595.06 888.86,-601.43"/>
</g>
<!-- Node6 -->
<g id="node6" class="node">
<title>Node6</title>
<g id="a_node6"><a xlink:href="STLContainerBase_8hpp.html" target="_top" xlink:title=" ">
<polygon fill="white" stroke="black" points="438.5,-502.5 438.5,-532.5 584.5,-532.5 584.5,-502.5 438.5,-502.5"/>
<text text-anchor="start" x="446.5" y="-520.5" font-family="Helvetica,sans-Serif" font-size="10.00">packages/stl_extension</text>
<text text-anchor="middle" x="511.5" y="-509.5" font-family="Helvetica,sans-Serif" font-size="10.00">/inc/STLContainerBase.hpp</text>
</a>
</g>
</g>
<!-- Node5&#45;&gt;Node6 -->
<g id="edge5" class="edge">
<title>Node5&#45;&gt;Node6</title>
<path fill="none" stroke="midnightblue" d="M394.83,-569.4C416.8,-559.81 446.06,-547.05 469.78,-536.7"/>
<polygon fill="midnightblue" stroke="midnightblue" points="471.47,-539.78 479.23,-532.58 468.67,-533.37 471.47,-539.78"/>
</g>
<!-- Node41 -->
<g id="node41" class="node">
<title>Node41</title>
<g id="a_node41"><a xlink:title=" ">
<polygon fill="white" stroke="#bfbfbf" points="341.5,-508 341.5,-527 383.5,-527 383.5,-508 341.5,-508"/>
<text text-anchor="middle" x="362.5" y="-515" font-family="Helvetica,sans-Serif" font-size="10.00">array</text>
</a>
</g>
</g>
<!-- Node5&#45;&gt;Node41 -->
<g id="edge58" class="edge">
<title>Node5&#45;&gt;Node41</title>
<path fill="none" stroke="midnightblue" d="M362.5,-569.4C362.5,-560.06 362.5,-547.71 362.5,-537.52"/>
<polygon fill="midnightblue" stroke="midnightblue" points="366,-537.19 362.5,-527.19 359,-537.19 366,-537.19"/>
</g>
<!-- Node7 -->
<g id="node7" class="node">
<title>Node7</title>
<g id="a_node7"><a xlink:href="container__concepts_8hpp.html" target="_top" xlink:title=" ">
<polygon fill="white" stroke="black" points="744,-357.5 744,-398.5 879,-398.5 879,-357.5 744,-357.5"/>
<text text-anchor="start" x="752" y="-386.5" font-family="Helvetica,sans-Serif" font-size="10.00">packages/compile_time</text>
<text text-anchor="start" x="752" y="-375.5" font-family="Helvetica,sans-Serif" font-size="10.00">/packages/concepts/inc</text>
<text text-anchor="middle" x="811.5" y="-364.5" font-family="Helvetica,sans-Serif" font-size="10.00">/container_concepts.hpp</text>
</a>
</g>
</g>
<!-- Node6&#45;&gt;Node7 -->
<g id="edge6" class="edge">
<title>Node6&#45;&gt;Node7</title>
<path fill="none" stroke="midnightblue" d="M584.64,-503.61C667.58,-488.95 791.55,-466.91 792.5,-466 807.65,-451.41 812.06,-427.75 812.87,-408.79"/>
<polygon fill="midnightblue" stroke="midnightblue" points="816.37,-408.59 812.99,-398.55 809.37,-408.51 816.37,-408.59"/>
</g>
<!-- Node10 -->
<g id="node10" class="node">
<title>Node10</title>
<g id="a_node10"><a xlink:href="types_8hpp.html" target="_top" xlink:title=" ">
<polygon fill="white" stroke="black" points="742.5,-134.5 742.5,-164.5 852.5,-164.5 852.5,-134.5 742.5,-134.5"/>
<text text-anchor="start" x="750.5" y="-152.5" font-family="Helvetica,sans-Serif" font-size="10.00">packages/types/inc</text>
<text text-anchor="middle" x="797.5" y="-141.5" font-family="Helvetica,sans-Serif" font-size="10.00">/types.hpp</text>
</a>
</g>
</g>
<!-- Node6&#45;&gt;Node10 -->
<g id="edge33" class="edge">
<title>Node6&#45;&gt;Node10</title>
<path fill="none" stroke="midnightblue" d="M584.81,-503.65C588.09,-503.09 591.33,-502.54 594.5,-502 765.78,-473.03 965.5,-552.71 965.5,-379 965.5,-379 965.5,-379 965.5,-299 965.5,-254.63 975.68,-234.42 946.5,-201 925.36,-176.78 892.16,-164.16 862.46,-157.59"/>
<polygon fill="midnightblue" stroke="midnightblue" points="863.04,-154.14 852.55,-155.58 861.66,-161 863.04,-154.14"/>
</g>
<!-- Node28 -->
<g id="node28" class="node">
<title>Node28</title>
<g id="a_node28"><a xlink:href="typedefs_8hpp.html" target="_top" xlink:title=" ">
<polygon fill="white" stroke="black" points="433,-435.5 433,-465.5 552,-465.5 552,-435.5 433,-435.5"/>
<text text-anchor="start" x="441" y="-453.5" font-family="Helvetica,sans-Serif" font-size="10.00">packages/macros/inc</text>
<text text-anchor="middle" x="492.5" y="-442.5" font-family="Helvetica,sans-Serif" font-size="10.00">/typedefs.hpp</text>
</a>
</g>
</g>
<!-- Node6&#45;&gt;Node28 -->
<g id="edge31" class="edge">
<title>Node6&#45;&gt;Node28</title>
<path fill="none" stroke="midnightblue" d="M507.38,-502.4C505.06,-494.47 502.11,-484.38 499.45,-475.27"/>
<polygon fill="midnightblue" stroke="midnightblue" points="502.78,-474.19 496.61,-465.58 496.06,-476.16 502.78,-474.19"/>
</g>
<!-- Node29 -->
<g id="node29" class="node">
<title>Node29</title>
<g id="a_node29"><a xlink:href="exceptions_8hpp.html" target="_top" xlink:title=" ">
<polygon fill="white" stroke="black" points="176,-285 176,-315 295,-315 295,-285 176,-285"/>
<text text-anchor="start" x="184" y="-303" font-family="Helvetica,sans-Serif" font-size="10.00">packages/macros/inc</text>
<text text-anchor="middle" x="235.5" y="-292" font-family="Helvetica,sans-Serif" font-size="10.00">/exceptions.hpp</text>
</a>
</g>
</g>
<!-- Node6&#45;&gt;Node29 -->
<g id="edge34" class="edge">
<title>Node6&#45;&gt;Node29</title>
<path fill="none" stroke="midnightblue" d="M484,-502.33C466.44,-492.86 443.5,-479.66 424.5,-466 364.93,-423.16 355.85,-405.17 300.5,-357 287.04,-345.29 271.95,-332.28 259.7,-321.75"/>
<polygon fill="midnightblue" stroke="midnightblue" points="261.97,-319.09 252.1,-315.23 257.41,-324.4 261.97,-319.09"/>
</g>
<!-- Node35 -->
<g id="node35" class="node">
<title>Node35</title>
<g id="a_node35"><a xlink:href="resize_8hpp.html" target="_top" xlink:title=" ">
<polygon fill="white" stroke="black" points="570,-435.5 570,-465.5 701,-465.5 701,-435.5 570,-435.5"/>
<text text-anchor="start" x="578" y="-453.5" font-family="Helvetica,sans-Serif" font-size="10.00">packages/stl_extension</text>
<text text-anchor="middle" x="635.5" y="-442.5" font-family="Helvetica,sans-Serif" font-size="10.00">/inc/resize.hpp</text>
</a>
</g>
</g>
<!-- Node6&#45;&gt;Node35 -->
<g id="edge45" class="edge">
<title>Node6&#45;&gt;Node35</title>
<path fill="none" stroke="midnightblue" d="M538.41,-502.4C556.36,-492.98 580.17,-480.5 599.72,-470.26"/>
<polygon fill="midnightblue" stroke="midnightblue" points="601.41,-473.32 608.65,-465.58 598.16,-467.12 601.41,-473.32"/>
</g>
<!-- Node40 -->
<g id="node40" class="node">
<title>Node40</title>
<g id="a_node40"><a xlink:title=" ">
<polygon fill="white" stroke="#bfbfbf" points="719.5,-441 719.5,-460 783.5,-460 783.5,-441 719.5,-441"/>
<text text-anchor="middle" x="751.5" y="-448" font-family="Helvetica,sans-Serif" font-size="10.00">algorithm</text>
</a>
</g>
</g>
<!-- Node6&#45;&gt;Node40 -->
<g id="edge57" class="edge">
<title>Node6&#45;&gt;Node40</title>
<path fill="none" stroke="midnightblue" d="M572.87,-502.46C612.41,-493.04 664.79,-479.85 710.5,-466 713.28,-465.16 716.14,-464.24 719.01,-463.29"/>
<polygon fill="midnightblue" stroke="midnightblue" points="720.31,-466.55 728.64,-460 718.04,-459.93 720.31,-466.55"/>
</g>
<!-- Node8 -->
<g id="node8" class="node">
<title>Node8</title>
<g id="a_node8"><a xlink:href="iterator__concepts_8hpp.html" target="_top" xlink:title=" ">
<polygon fill="white" stroke="black" points="775.5,-279.5 775.5,-320.5 907.5,-320.5 907.5,-279.5 775.5,-279.5"/>
<text text-anchor="start" x="783.5" y="-308.5" font-family="Helvetica,sans-Serif" font-size="10.00">packages/compile_time</text>
<text text-anchor="start" x="783.5" y="-297.5" font-family="Helvetica,sans-Serif" font-size="10.00">/packages/concepts/inc</text>
<text text-anchor="middle" x="841.5" y="-286.5" font-family="Helvetica,sans-Serif" font-size="10.00">/iterator_concepts.hpp</text>
</a>
</g>
</g>
<!-- Node7&#45;&gt;Node8 -->
<g id="edge7" class="edge">
<title>Node7&#45;&gt;Node8</title>
<path fill="none" stroke="midnightblue" d="M819.23,-357.43C822.52,-349.1 826.42,-339.2 830.03,-330.04"/>
<polygon fill="midnightblue" stroke="midnightblue" points="833.38,-331.09 833.8,-320.51 826.87,-328.52 833.38,-331.09"/>
</g>
<!-- Node9 -->
<g id="node9" class="node">
<title>Node9</title>
<g id="a_node9"><a xlink:href="basic__concepts_8hpp.html" target="_top" xlink:title=" ">
<polygon fill="white" stroke="black" points="1159.5,-201.5 1159.5,-242.5 1291.5,-242.5 1291.5,-201.5 1159.5,-201.5"/>
<text text-anchor="start" x="1167.5" y="-230.5" font-family="Helvetica,sans-Serif" font-size="10.00">packages/compile_time</text>
<text text-anchor="start" x="1167.5" y="-219.5" font-family="Helvetica,sans-Serif" font-size="10.00">/packages/concepts/inc</text>
<text text-anchor="middle" x="1225.5" y="-208.5" font-family="Helvetica,sans-Serif" font-size="10.00">/basic_concepts.hpp</text>
</a>
</g>
</g>
<!-- Node8&#45;&gt;Node9 -->
<g id="edge8" class="edge">
<title>Node8&#45;&gt;Node9</title>
<path fill="none" stroke="midnightblue" d="M907.52,-288.63C968.02,-278.77 1060.27,-262.82 1149.32,-243.18"/>
<polygon fill="midnightblue" stroke="midnightblue" points="1150.32,-246.55 1159.32,-240.96 1148.8,-239.72 1150.32,-246.55"/>
</g>
<!-- Node23 -->
<g id="node23" class="node">
<title>Node23</title>
<g id="a_node23"><a xlink:href="Size_8hpp.html" target="_top" xlink:title=" ">
<polygon fill="white" stroke="black" points="717.5,-201.5 717.5,-242.5 865.5,-242.5 865.5,-201.5 717.5,-201.5"/>
<text text-anchor="start" x="725.5" y="-230.5" font-family="Helvetica,sans-Serif" font-size="10.00">packages/compile_time</text>
<text text-anchor="start" x="725.5" y="-219.5" font-family="Helvetica,sans-Serif" font-size="10.00">/packages/parameter_pack</text>
<text text-anchor="middle" x="791.5" y="-208.5" font-family="Helvetica,sans-Serif" font-size="10.00">/inc/Size.hpp</text>
</a>
</g>
</g>
<!-- Node8&#45;&gt;Node23 -->
<g id="edge23" class="edge">
<title>Node8&#45;&gt;Node23</title>
<path fill="none" stroke="midnightblue" d="M828.62,-279.43C822.91,-270.74 816.08,-260.36 809.84,-250.88"/>
<polygon fill="midnightblue" stroke="midnightblue" points="812.75,-248.94 804.33,-242.51 806.9,-252.78 812.75,-248.94"/>
</g>
<!-- Node24 -->
<g id="node24" class="node">
<title>Node24</title>
<g id="a_node24"><a xlink:href="Select_8hpp.html" target="_top" xlink:title=" ">
<polygon fill="white" stroke="black" points="993.5,-201.5 993.5,-242.5 1141.5,-242.5 1141.5,-201.5 993.5,-201.5"/>
<text text-anchor="start" x="1001.5" y="-230.5" font-family="Helvetica,sans-Serif" font-size="10.00">packages/compile_time</text>
<text text-anchor="start" x="1001.5" y="-219.5" font-family="Helvetica,sans-Serif" font-size="10.00">/packages/parameter_pack</text>
<text text-anchor="middle" x="1067.5" y="-208.5" font-family="Helvetica,sans-Serif" font-size="10.00">/inc/Select.hpp</text>
</a>
</g>
</g>
<!-- Node8&#45;&gt;Node24 -->
<g id="edge25" class="edge">
<title>Node8&#45;&gt;Node24</title>
<path fill="none" stroke="midnightblue" d="M899.7,-279.43C930.28,-269.14 967.92,-256.49 999.8,-245.77"/>
<polygon fill="midnightblue" stroke="midnightblue" points="1001.13,-249.01 1009.5,-242.51 998.9,-242.38 1001.13,-249.01"/>
</g>
<!-- Node26 -->
<g id="node26" class="node">
<title>Node26</title>
<g id="a_node26"><a xlink:title=" ">
<polygon fill="white" stroke="#bfbfbf" points="884,-212.5 884,-231.5 937,-231.5 937,-212.5 884,-212.5"/>
<text text-anchor="middle" x="910.5" y="-219.5" font-family="Helvetica,sans-Serif" font-size="10.00">iterator</text>
</a>
</g>
</g>
<!-- Node8&#45;&gt;Node26 -->
<g id="edge29" class="edge">
<title>Node8&#45;&gt;Node26</title>
<path fill="none" stroke="midnightblue" d="M859.27,-279.43C870.58,-266.97 885.05,-251.03 895.73,-239.27"/>
<polygon fill="midnightblue" stroke="midnightblue" points="898.61,-241.31 902.74,-231.55 893.42,-236.6 898.61,-241.31"/>
</g>
<!-- Node27 -->
<g id="node27" class="node">
<title>Node27</title>
<g id="a_node27"><a xlink:title=" ">
<polygon fill="white" stroke="#bfbfbf" points="584.5,-140 584.5,-159 642.5,-159 642.5,-140 584.5,-140"/>
<text text-anchor="middle" x="613.5" y="-147" font-family="Helvetica,sans-Serif" font-size="10.00">memory</text>
</a>
</g>
</g>
<!-- Node8&#45;&gt;Node27 -->
<g id="edge30" class="edge">
<title>Node8&#45;&gt;Node27</title>
<path fill="none" stroke="midnightblue" d="M782.16,-279.48C758.25,-270.25 731.05,-257.95 708.5,-243 675.59,-221.19 644.14,-187.09 626.96,-166.95"/>
<polygon fill="midnightblue" stroke="midnightblue" points="629.62,-164.67 620.51,-159.25 624.25,-169.17 629.62,-164.67"/>
</g>
<!-- Node9&#45;&gt;Node10 -->
<g id="edge9" class="edge">
<title>Node9&#45;&gt;Node10</title>
<path fill="none" stroke="midnightblue" d="M1159.35,-202.9C1156.36,-202.23 1153.4,-201.59 1150.5,-201 1050.91,-180.67 933.88,-165.65 862.73,-157.49"/>
<polygon fill="midnightblue" stroke="midnightblue" points="862.91,-153.98 852.57,-156.33 862.11,-160.94 862.91,-153.98"/>
</g>
<!-- Node16 -->
<g id="node16" class="node">
<title>Node16</title>
<g id="a_node16"><a xlink:title=" ">
<polygon fill="white" stroke="#bfbfbf" points="1050,-73 1050,-92 1119,-92 1119,-73 1050,-73"/>
<text text-anchor="middle" x="1084.5" y="-80" font-family="Helvetica,sans-Serif" font-size="10.00">type_traits</text>
</a>
</g>
</g>
<!-- Node9&#45;&gt;Node16 -->
<g id="edge20" class="edge">
<title>Node9&#45;&gt;Node16</title>
<path fill="none" stroke="midnightblue" d="M1214.8,-201.35C1203.89,-182.53 1185.6,-154.1 1164.5,-134 1148.79,-119.04 1128,-106.07 1111.55,-97.02"/>
<polygon fill="midnightblue" stroke="midnightblue" points="1112.91,-93.78 1102.43,-92.17 1109.61,-99.96 1112.91,-93.78"/>
</g>
<!-- Node20 -->
<g id="node20" class="node">
<title>Node20</title>
<g id="a_node20"><a xlink:title=" ">
<polygon fill="white" stroke="#bfbfbf" points="1095.5,-140 1095.5,-159 1155.5,-159 1155.5,-140 1095.5,-140"/>
<text text-anchor="middle" x="1125.5" y="-147" font-family="Helvetica,sans-Serif" font-size="10.00">concepts</text>
</a>
</g>
</g>
<!-- Node9&#45;&gt;Node20 -->
<g id="edge19" class="edge">
<title>Node9&#45;&gt;Node20</title>
<path fill="none" stroke="midnightblue" d="M1197.64,-201.36C1181.37,-189.89 1161.18,-175.65 1146.3,-165.16"/>
<polygon fill="midnightblue" stroke="midnightblue" points="1147.99,-162.07 1137.8,-159.17 1143.96,-167.8 1147.99,-162.07"/>
</g>
<!-- Node21 -->
<g id="node21" class="node">
<title>Node21</title>
<g id="a_node21"><a xlink:title=" ">
<polygon fill="white" stroke="#bfbfbf" points="1211.5,-140 1211.5,-159 1261.5,-159 1261.5,-140 1211.5,-140"/>
<text text-anchor="middle" x="1236.5" y="-147" font-family="Helvetica,sans-Serif" font-size="10.00">cstdint</text>
</a>
</g>
</g>
<!-- Node9&#45;&gt;Node21 -->
<g id="edge21" class="edge">
<title>Node9&#45;&gt;Node21</title>
<path fill="none" stroke="midnightblue" d="M1228.56,-201.36C1230.13,-191.3 1232.04,-179.1 1233.59,-169.18"/>
<polygon fill="midnightblue" stroke="midnightblue" points="1237.06,-169.59 1235.15,-159.17 1230.15,-168.51 1237.06,-169.59"/>
</g>
<!-- Node22 -->
<g id="node22" class="node">
<title>Node22</title>
<g id="a_node22"><a xlink:title=" ">
<polygon fill="white" stroke="#bfbfbf" points="1280,-140 1280,-159 1325,-159 1325,-140 1280,-140"/>
<text text-anchor="middle" x="1302.5" y="-147" font-family="Helvetica,sans-Serif" font-size="10.00">utility</text>
</a>
</g>
</g>
<!-- Node9&#45;&gt;Node22 -->
<g id="edge22" class="edge">
<title>Node9&#45;&gt;Node22</title>
<path fill="none" stroke="midnightblue" d="M1246.95,-201.36C1259.12,-190.21 1274.15,-176.46 1285.5,-166.06"/>
<polygon fill="midnightblue" stroke="midnightblue" points="1288.01,-168.51 1293.03,-159.17 1283.29,-163.34 1288.01,-168.51"/>
</g>
<!-- Node11 -->
<g id="node11" class="node">
<title>Node11</title>
<g id="a_node11"><a xlink:href="debug_8hpp.html" target="_top" xlink:title=" ">
<polygon fill="white" stroke="black" points="638,-67.5 638,-97.5 757,-97.5 757,-67.5 638,-67.5"/>
<text text-anchor="start" x="646" y="-85.5" font-family="Helvetica,sans-Serif" font-size="10.00">packages/macros/inc</text>
<text text-anchor="middle" x="697.5" y="-74.5" font-family="Helvetica,sans-Serif" font-size="10.00">/debug.hpp</text>
</a>
</g>
</g>
<!-- Node10&#45;&gt;Node11 -->
<g id="edge10" class="edge">
<title>Node10&#45;&gt;Node11</title>
<path fill="none" stroke="midnightblue" d="M775.8,-134.4C761.78,-125.28 743.33,-113.29 727.86,-103.24"/>
<polygon fill="midnightblue" stroke="midnightblue" points="729.45,-100.09 719.16,-97.58 725.63,-105.96 729.45,-100.09"/>
</g>
<!-- Node14 -->
<g id="node14" class="node">
<title>Node14</title>
<g id="a_node14"><a xlink:title=" ">
<polygon fill="white" stroke="#bfbfbf" points="775,-73 775,-92 828,-92 828,-73 775,-73"/>
<text text-anchor="middle" x="801.5" y="-80" font-family="Helvetica,sans-Serif" font-size="10.00">cstddef</text>
</a>
</g>
</g>
<!-- Node10&#45;&gt;Node14 -->
<g id="edge13" class="edge">
<title>Node10&#45;&gt;Node14</title>
<path fill="none" stroke="midnightblue" d="M798.37,-134.4C798.95,-124.96 799.72,-112.45 800.35,-102.19"/>
<polygon fill="midnightblue" stroke="midnightblue" points="803.84,-102.39 800.96,-92.19 796.86,-101.96 803.84,-102.39"/>
</g>
<!-- Node15 -->
<g id="node15" class="node">
<title>Node15</title>
<g id="a_node15"><a xlink:title=" ">
<polygon fill="white" stroke="#bfbfbf" points="438.5,-73 438.5,-92 482.5,-92 482.5,-73 438.5,-73"/>
<text text-anchor="middle" x="460.5" y="-80" font-family="Helvetica,sans-Serif" font-size="10.00">string</text>
</a>
</g>
</g>
<!-- Node10&#45;&gt;Node15 -->
<g id="edge14" class="edge">
<title>Node10&#45;&gt;Node15</title>
<path fill="none" stroke="midnightblue" d="M742.25,-143.73C680.38,-137.39 577.62,-123.84 492.5,-98 490.57,-97.42 488.61,-96.74 486.66,-96.01"/>
<polygon fill="midnightblue" stroke="midnightblue" points="487.7,-92.65 477.12,-92.02 485,-99.11 487.7,-92.65"/>
</g>
<!-- Node10&#45;&gt;Node16 -->
<g id="edge15" class="edge">
<title>Node10&#45;&gt;Node16</title>
<path fill="none" stroke="midnightblue" d="M852.7,-139.05C902.45,-130.07 977.41,-115.37 1041.5,-98 1044.52,-97.18 1047.64,-96.27 1050.75,-95.31"/>
<polygon fill="midnightblue" stroke="midnightblue" points="1052.11,-98.55 1060.55,-92.15 1049.96,-91.89 1052.11,-98.55"/>
</g>
<!-- Node17 -->
<g id="node17" class="node">
<title>Node17</title>
<g id="a_node17"><a xlink:title=" ">
<polygon fill="white" stroke="#bfbfbf" points="846.5,-73 846.5,-92 896.5,-92 896.5,-73 846.5,-73"/>
<text text-anchor="middle" x="871.5" y="-80" font-family="Helvetica,sans-Serif" font-size="10.00">climits</text>
</a>
</g>
</g>
<!-- Node10&#45;&gt;Node17 -->
<g id="edge16" class="edge">
<title>Node10&#45;&gt;Node17</title>
<path fill="none" stroke="midnightblue" d="M813.56,-134.4C825.44,-123.96 841.61,-109.75 853.86,-99"/>
<polygon fill="midnightblue" stroke="midnightblue" points="856.4,-101.42 861.6,-92.19 851.78,-96.16 856.4,-101.42"/>
</g>
<!-- Node18 -->
<g id="node18" class="node">
<title>Node18</title>
<g id="a_node18"><a xlink:title=" ">
<polygon fill="white" stroke="#bfbfbf" points="915,-67.5 915,-97.5 1032,-97.5 1032,-67.5 915,-67.5"/>
<text text-anchor="start" x="923" y="-85.5" font-family="Helvetica,sans-Serif" font-size="10.00">packages/types/impl</text>
<text text-anchor="middle" x="973.5" y="-74.5" font-family="Helvetica,sans-Serif" font-size="10.00">/types_impl.hpp</text>
</a>
</g>
</g>
<!-- Node10&#45;&gt;Node18 -->
<g id="edge17" class="edge">
<title>Node10&#45;&gt;Node18</title>
<path fill="none" stroke="midnightblue" d="M835.69,-134.4C862.1,-124.64 897.43,-111.59 925.7,-101.15"/>
<polygon fill="midnightblue" stroke="midnightblue" points="927.22,-104.32 935.39,-97.58 924.79,-97.76 927.22,-104.32"/>
</g>
<!-- Node19 -->
<g id="node19" class="node">
<title>Node19</title>
<g id="a_node19"><a xlink:href="logging_8hpp.html" target="_top" xlink:title=" ">
<polygon fill="white" stroke="black" points="501,-67.5 501,-97.5 620,-97.5 620,-67.5 501,-67.5"/>
<text text-anchor="start" x="509" y="-85.5" font-family="Helvetica,sans-Serif" font-size="10.00">packages/macros/inc</text>
<text text-anchor="middle" x="560.5" y="-74.5" font-family="Helvetica,sans-Serif" font-size="10.00">/logging.hpp</text>
</a>
</g>
</g>
<!-- Node10&#45;&gt;Node19 -->
<g id="edge18" class="edge">
<title>Node10&#45;&gt;Node19</title>
<path fill="none" stroke="midnightblue" d="M746.37,-134.48C709.89,-124.47 660.66,-110.97 622.04,-100.38"/>
<polygon fill="midnightblue" stroke="midnightblue" points="622.52,-96.88 611.95,-97.61 620.67,-103.63 622.52,-96.88"/>
</g>
<!-- Node12 -->
<g id="node12" class="node">
<title>Node12</title>
<g id="a_node12"><a xlink:href="detail_8hpp.html" target="_top" xlink:title=" ">
<polygon fill="white" stroke="black" points="351,-0.5 351,-30.5 470,-30.5 470,-0.5 351,-0.5"/>
<text text-anchor="start" x="359" y="-18.5" font-family="Helvetica,sans-Serif" font-size="10.00">packages/macros/inc</text>
<text text-anchor="middle" x="410.5" y="-7.5" font-family="Helvetica,sans-Serif" font-size="10.00">/detail.hpp</text>
</a>
</g>
</g>
<!-- Node11&#45;&gt;Node12 -->
<g id="edge11" class="edge">
<title>Node11&#45;&gt;Node12</title>
<path fill="none" stroke="midnightblue" d="M637.68,-67.95C591.83,-57.57 528.44,-43.21 480.27,-32.3"/>
<polygon fill="midnightblue" stroke="midnightblue" points="480.76,-28.82 470.24,-30.03 479.22,-35.65 480.76,-28.82"/>
</g>
<!-- Node13 -->
<g id="node13" class="node">
<title>Node13</title>
<g id="a_node13"><a xlink:title=" ">
<polygon fill="white" stroke="#bfbfbf" points="667.5,-6 667.5,-25 727.5,-25 727.5,-6 667.5,-6"/>
<text text-anchor="middle" x="697.5" y="-13" font-family="Helvetica,sans-Serif" font-size="10.00">iostream</text>
</a>
</g>
</g>
<!-- Node11&#45;&gt;Node13 -->
<g id="edge12" class="edge">
<title>Node11&#45;&gt;Node13</title>
<path fill="none" stroke="midnightblue" d="M697.5,-67.4C697.5,-58.06 697.5,-45.71 697.5,-35.52"/>
<polygon fill="midnightblue" stroke="midnightblue" points="701,-35.19 697.5,-25.19 694,-35.19 701,-35.19"/>
</g>
<!-- Node23&#45;&gt;Node10 -->
<g id="edge24" class="edge">
<title>Node23&#45;&gt;Node10</title>
<path fill="none" stroke="midnightblue" d="M793.17,-201.36C793.86,-193.23 794.67,-183.7 795.41,-175.11"/>
<polygon fill="midnightblue" stroke="midnightblue" points="798.91,-175.15 796.28,-164.89 791.94,-174.56 798.91,-175.15"/>
</g>
<!-- Node24&#45;&gt;Node10 -->
<g id="edge26" class="edge">
<title>Node24&#45;&gt;Node10</title>
<path fill="none" stroke="midnightblue" d="M993.36,-201.64C951.92,-190.82 900.79,-177.47 861.16,-167.12"/>
<polygon fill="midnightblue" stroke="midnightblue" points="861.91,-163.7 851.35,-164.56 860.14,-170.47 861.91,-163.7"/>
</g>
<!-- Node24&#45;&gt;Node16 -->
<g id="edge27" class="edge">
<title>Node24&#45;&gt;Node16</title>
<path fill="none" stroke="midnightblue" d="M1069.94,-201.3C1073.21,-174.78 1079.01,-127.94 1082.21,-102.03"/>
<polygon fill="midnightblue" stroke="midnightblue" points="1085.69,-102.39 1083.44,-92.04 1078.74,-101.53 1085.69,-102.39"/>
</g>
<!-- Node25 -->
<g id="node25" class="node">
<title>Node25</title>
<g id="a_node25"><a xlink:title=" ">
<polygon fill="white" stroke="#bfbfbf" points="998,-140 998,-159 1039,-159 1039,-140 998,-140"/>
<text text-anchor="middle" x="1018.5" y="-147" font-family="Helvetica,sans-Serif" font-size="10.00">tuple</text>
</a>
</g>
</g>
<!-- Node24&#45;&gt;Node25 -->
<g id="edge28" class="edge">
<title>Node24&#45;&gt;Node25</title>
<path fill="none" stroke="midnightblue" d="M1053.85,-201.36C1046.48,-190.76 1037.47,-177.79 1030.38,-167.6"/>
<polygon fill="midnightblue" stroke="midnightblue" points="1033.11,-165.39 1024.53,-159.17 1027.36,-169.38 1033.11,-165.39"/>
</g>
<!-- Node28&#45;&gt;Node27 -->
<g id="edge32" class="edge">
<title>Node28&#45;&gt;Node27</title>
<path fill="none" stroke="midnightblue" d="M508.58,-435.15C532,-413.16 574.85,-368.66 594.5,-321 615.83,-269.25 616.08,-201.6 614.71,-169.28"/>
<polygon fill="midnightblue" stroke="midnightblue" points="618.19,-168.87 614.17,-159.07 611.2,-169.24 618.19,-168.87"/>
</g>
<!-- Node29&#45;&gt;Node12 -->
<g id="edge42" class="edge">
<title>Node29&#45;&gt;Node12</title>
<path fill="none" stroke="midnightblue" d="M202.75,-284.84C144.9,-257.81 34.68,-196 78.5,-134 137.69,-50.26 261.83,-25.81 340.4,-18.91"/>
<polygon fill="midnightblue" stroke="midnightblue" points="341.02,-22.37 350.7,-18.08 340.45,-15.39 341.02,-22.37"/>
</g>
<!-- Node29&#45;&gt;Node20 -->
<g id="edge44" class="edge">
<title>Node29&#45;&gt;Node20</title>
<path fill="none" stroke="midnightblue" d="M247.18,-284.96C269.31,-258.44 315.59,-203.39 320.5,-201 393.32,-165.56 968.07,-174.52 1048.5,-165 1060.52,-163.58 1073.48,-161.39 1085.28,-159.15"/>
<polygon fill="midnightblue" stroke="midnightblue" points="1086.16,-162.54 1095.29,-157.18 1084.81,-155.67 1086.16,-162.54"/>
</g>
<!-- Node30 -->
<g id="node30" class="node">
<title>Node30</title>
<g id="a_node30"><a xlink:href="exception_8hpp.html" target="_top" xlink:title=" ">
<polygon fill="white" stroke="black" points="154,-207 154,-237 273,-237 273,-207 154,-207"/>
<text text-anchor="start" x="162" y="-225" font-family="Helvetica,sans-Serif" font-size="10.00">packages/exceptions</text>
<text text-anchor="middle" x="213.5" y="-214" font-family="Helvetica,sans-Serif" font-size="10.00">/inc/exception.hpp</text>
</a>
</g>
</g>
<!-- Node29&#45;&gt;Node30 -->
<g id="edge35" class="edge">
<title>Node29&#45;&gt;Node30</title>
<path fill="none" stroke="midnightblue" d="M231.36,-284.7C228.29,-274.09 224.03,-259.37 220.44,-246.96"/>
<polygon fill="midnightblue" stroke="midnightblue" points="223.76,-245.86 217.62,-237.23 217.04,-247.81 223.76,-245.86"/>
</g>
<!-- Node34 -->
<g id="node34" class="node">
<title>Node34</title>
<g id="a_node34"><a xlink:title=" ">
<polygon fill="white" stroke="#bfbfbf" points="329.5,-212.5 329.5,-231.5 385.5,-231.5 385.5,-212.5 329.5,-212.5"/>
<text text-anchor="middle" x="357.5" y="-219.5" font-family="Helvetica,sans-Serif" font-size="10.00">sstream</text>
</a>
</g>
</g>
<!-- Node29&#45;&gt;Node34 -->
<g id="edge43" class="edge">
<title>Node29&#45;&gt;Node34</title>
<path fill="none" stroke="midnightblue" d="M258.16,-284.88C280.11,-271.21 313.19,-250.6 335.06,-236.98"/>
<polygon fill="midnightblue" stroke="midnightblue" points="337.05,-239.86 343.68,-231.61 333.35,-233.92 337.05,-239.86"/>
</g>
<!-- Node30&#45;&gt;Node10 -->
<g id="edge36" class="edge">
<title>Node30&#45;&gt;Node10</title>
<path fill="none" stroke="midnightblue" d="M261,-206.92C269.76,-204.68 278.86,-202.58 287.5,-201 447.4,-171.69 489.73,-181.03 651.5,-165 677.9,-162.38 706.98,-159.5 732.2,-156.99"/>
<polygon fill="midnightblue" stroke="midnightblue" points="732.78,-160.45 742.38,-155.98 732.09,-153.49 732.78,-160.45"/>
</g>
<!-- Node30&#45;&gt;Node15 -->
<g id="edge38" class="edge">
<title>Node30&#45;&gt;Node15</title>
<path fill="none" stroke="midnightblue" d="M263,-206.96C311.77,-192.88 380.54,-172.28 391.5,-165 417.01,-148.05 438.33,-119.04 450.24,-100.59"/>
<polygon fill="midnightblue" stroke="midnightblue" points="453.26,-102.36 455.59,-92.02 447.33,-98.65 453.26,-102.36"/>
</g>
<!-- Node30&#45;&gt;Node27 -->
<g id="edge40" class="edge">
<title>Node30&#45;&gt;Node27</title>
<path fill="none" stroke="midnightblue" d="M262.67,-206.9C270.93,-204.77 279.43,-202.71 287.5,-201 389.99,-179.28 512.45,-162.82 574.02,-155.19"/>
<polygon fill="midnightblue" stroke="midnightblue" points="574.58,-158.64 584.08,-153.95 573.73,-151.7 574.58,-158.64"/>
</g>
<!-- Node31 -->
<g id="node31" class="node">
<title>Node31</title>
<g id="a_node31"><a xlink:title=" ">
<polygon fill="white" stroke="#bfbfbf" points="88,-140 88,-159 153,-159 153,-140 88,-140"/>
<text text-anchor="middle" x="120.5" y="-147" font-family="Helvetica,sans-Serif" font-size="10.00">stdexcept</text>
</a>
</g>
</g>
<!-- Node30&#45;&gt;Node31 -->
<g id="edge37" class="edge">
<title>Node30&#45;&gt;Node31</title>
<path fill="none" stroke="midnightblue" d="M194.68,-206.73C178.83,-194.72 156.23,-177.58 140.14,-165.39"/>
<polygon fill="midnightblue" stroke="midnightblue" points="142.05,-162.44 131.96,-159.19 137.82,-168.02 142.05,-162.44"/>
</g>
<!-- Node32 -->
<g id="node32" class="node">
<title>Node32</title>
<g id="a_node32"><a xlink:title=" ">
<polygon fill="white" stroke="#bfbfbf" points="171,-140 171,-159 218,-159 218,-140 171,-140"/>
<text text-anchor="middle" x="194.5" y="-147" font-family="Helvetica,sans-Serif" font-size="10.00">deque</text>
</a>
</g>
</g>
<!-- Node30&#45;&gt;Node32 -->
<g id="edge39" class="edge">
<title>Node30&#45;&gt;Node32</title>
<path fill="none" stroke="midnightblue" d="M209.66,-206.73C206.73,-195.89 202.69,-180.88 199.51,-169.1"/>
<polygon fill="midnightblue" stroke="midnightblue" points="202.88,-168.14 196.9,-159.39 196.12,-169.96 202.88,-168.14"/>
</g>
<!-- Node33 -->
<g id="node33" class="node">
<title>Node33</title>
<g id="a_node33"><a xlink:title=" ">
<polygon fill="white" stroke="#bfbfbf" points="236.5,-134.5 236.5,-164.5 382.5,-164.5 382.5,-134.5 236.5,-134.5"/>
<text text-anchor="start" x="244.5" y="-152.5" font-family="Helvetica,sans-Serif" font-size="10.00">packages/exceptions</text>
<text text-anchor="middle" x="309.5" y="-141.5" font-family="Helvetica,sans-Serif" font-size="10.00">/impl/exceptions_impl.hpp</text>
</a>
</g>
</g>
<!-- Node30&#45;&gt;Node33 -->
<g id="edge41" class="edge">
<title>Node30&#45;&gt;Node33</title>
<path fill="none" stroke="midnightblue" d="M232.93,-206.73C247.07,-196.35 266.42,-182.13 282.13,-170.6"/>
<polygon fill="midnightblue" stroke="midnightblue" points="284.44,-173.25 290.43,-164.5 280.3,-167.6 284.44,-173.25"/>
</g>
<!-- Node35&#45;&gt;Node7 -->
<g id="edge54" class="edge">
<title>Node35&#45;&gt;Node7</title>
<path fill="none" stroke="midnightblue" d="M670.69,-435.4C694.29,-425.95 725.93,-413.27 753.24,-402.34"/>
<polygon fill="midnightblue" stroke="midnightblue" points="754.72,-405.51 762.7,-398.55 752.12,-399.02 754.72,-405.51"/>
</g>
<!-- Node35&#45;&gt;Node10 -->
<g id="edge55" class="edge">
<title>Node35&#45;&gt;Node10</title>
<path fill="none" stroke="midnightblue" d="M647.66,-435.43C655.35,-425.79 664.88,-412.37 670.5,-399 705.22,-316.39 656.28,-273.82 708.5,-201 718.27,-187.37 732.94,-176.93 747.57,-169.17"/>
<polygon fill="midnightblue" stroke="midnightblue" points="749.22,-172.26 756.62,-164.68 746.11,-165.99 749.22,-172.26"/>
</g>
<!-- Node36 -->
<g id="node36" class="node">
<title>Node36</title>
<g id="a_node36"><a xlink:href="checks_8hpp.html" target="_top" xlink:title=" ">
<polygon fill="white" stroke="black" points="370,-363 370,-393 489,-393 489,-363 370,-363"/>
<text text-anchor="start" x="378" y="-381" font-family="Helvetica,sans-Serif" font-size="10.00">packages/macros/inc</text>
<text text-anchor="middle" x="429.5" y="-370" font-family="Helvetica,sans-Serif" font-size="10.00">/checks.hpp</text>
</a>
</g>
</g>
<!-- Node35&#45;&gt;Node36 -->
<g id="edge46" class="edge">
<title>Node35&#45;&gt;Node36</title>
<path fill="none" stroke="midnightblue" d="M594.31,-435.4C561.47,-424.16 515.32,-408.37 480.21,-396.36"/>
<polygon fill="midnightblue" stroke="midnightblue" points="481.22,-393 470.62,-393.07 478.95,-399.62 481.22,-393"/>
</g>
<!-- Node39 -->
<g id="node39" class="node">
<title>Node39</title>
<g id="a_node39"><a xlink:title=" ">
<polygon fill="white" stroke="#bfbfbf" points="609.5,-368.5 609.5,-387.5 661.5,-387.5 661.5,-368.5 609.5,-368.5"/>
<text text-anchor="middle" x="635.5" y="-375.5" font-family="Helvetica,sans-Serif" font-size="10.00">cassert</text>
</a>
</g>
</g>
<!-- Node35&#45;&gt;Node39 -->
<g id="edge56" class="edge">
<title>Node35&#45;&gt;Node39</title>
<path fill="none" stroke="midnightblue" d="M635.5,-435.23C635.5,-424.5 635.5,-409.69 635.5,-397.96"/>
<polygon fill="midnightblue" stroke="midnightblue" points="639,-397.89 635.5,-387.89 632,-397.89 639,-397.89"/>
</g>
<!-- Node36&#45;&gt;Node12 -->
<g id="edge49" class="edge">
<title>Node36&#45;&gt;Node12</title>
<path fill="none" stroke="midnightblue" d="M428.76,-362.87C425.88,-308.24 415.45,-110.48 411.79,-40.91"/>
<polygon fill="midnightblue" stroke="midnightblue" points="415.26,-40.34 411.24,-30.53 408.27,-40.7 415.26,-40.34"/>
</g>
<!-- Node36&#45;&gt;Node29 -->
<g id="edge48" class="edge">
<title>Node36&#45;&gt;Node29</title>
<path fill="none" stroke="midnightblue" d="M393.46,-362.88C361.61,-350.41 315.01,-332.15 280.68,-318.7"/>
<polygon fill="midnightblue" stroke="midnightblue" points="281.93,-315.43 271.34,-315.04 279.38,-321.95 281.93,-315.43"/>
</g>
<!-- Node36&#45;&gt;Node30 -->
<g id="edge47" class="edge">
<title>Node36&#45;&gt;Node30</title>
<path fill="none" stroke="midnightblue" d="M412.58,-362.73C388.98,-343.06 344.55,-306.89 304.5,-279 285.83,-266 264.17,-252.61 246.66,-242.18"/>
<polygon fill="midnightblue" stroke="midnightblue" points="248.32,-239.09 237.93,-237.01 244.75,-245.11 248.32,-239.09"/>
</g>
<!-- Node36&#45;&gt;Node34 -->
<g id="edge53" class="edge">
<title>Node36&#45;&gt;Node34</title>
<path fill="none" stroke="midnightblue" d="M422.86,-362.79C409.66,-334.56 380.17,-271.48 365.75,-240.65"/>
<polygon fill="midnightblue" stroke="midnightblue" points="368.89,-239.1 361.49,-231.53 362.55,-242.07 368.89,-239.1"/>
</g>
<!-- Node37 -->
<g id="node37" class="node">
<title>Node37</title>
<g id="a_node37"><a xlink:href="cmake__variables_8hpp.html" target="_top" xlink:title=" ">
<polygon fill="white" stroke="black" points="465.5,-290.5 465.5,-309.5 585.5,-309.5 585.5,-290.5 465.5,-290.5"/>
<text text-anchor="middle" x="525.5" y="-297.5" font-family="Helvetica,sans-Serif" font-size="10.00">cmake_variables.hpp</text>
</a>
</g>
</g>
<!-- Node36&#45;&gt;Node37 -->
<g id="edge50" class="edge">
<title>Node36&#45;&gt;Node37</title>
<path fill="none" stroke="midnightblue" d="M447.56,-362.7C464.39,-349.38 489.41,-329.57 506.53,-316.01"/>
<polygon fill="midnightblue" stroke="midnightblue" points="509.01,-318.51 514.68,-309.56 504.67,-313.03 509.01,-318.51"/>
</g>
<!-- Node37&#45;&gt;Node15 -->
<g id="edge52" class="edge">
<title>Node37&#45;&gt;Node15</title>
<path fill="none" stroke="midnightblue" d="M522.84,-290.27C519.49,-279.26 513.56,-259.73 508.5,-243 493.07,-191.95 474.96,-131.67 466.04,-101.95"/>
<polygon fill="midnightblue" stroke="midnightblue" points="469.32,-100.72 463.09,-92.15 462.62,-102.73 469.32,-100.72"/>
</g>
<!-- Node38 -->
<g id="node38" class="node">
<title>Node38</title>
<g id="a_node38"><a xlink:title=" ">
<polygon fill="white" stroke="#bfbfbf" points="517.5,-212.5 517.5,-231.5 585.5,-231.5 585.5,-212.5 517.5,-212.5"/>
<text text-anchor="middle" x="551.5" y="-219.5" font-family="Helvetica,sans-Serif" font-size="10.00">filesystem</text>
</a>
</g>
</g>
<!-- Node37&#45;&gt;Node38 -->
<g id="edge51" class="edge">
<title>Node37&#45;&gt;Node38</title>
<path fill="none" stroke="midnightblue" d="M528.48,-290.28C532.56,-278.37 539.96,-256.72 545.28,-241.19"/>
<polygon fill="midnightblue" stroke="midnightblue" points="548.63,-242.21 548.55,-231.62 542,-239.95 548.63,-242.21"/>
</g>
<!-- Node42&#45;&gt;Node6 -->
<g id="edge60" class="edge">
<title>Node42&#45;&gt;Node6</title>
<path fill="none" stroke="midnightblue" d="M511.5,-569.4C511.5,-561.64 511.5,-551.81 511.5,-542.86"/>
<polygon fill="midnightblue" stroke="midnightblue" points="515,-542.58 511.5,-532.58 508,-542.58 515,-542.58"/>
</g>
<!-- Node43 -->
<g id="node43" class="node">
<title>Node43</title>
<g id="a_node43"><a xlink:title=" ">
<polygon fill="white" stroke="#bfbfbf" points="603,-508 603,-527 650,-527 650,-508 603,-508"/>
<text text-anchor="middle" x="626.5" y="-515" font-family="Helvetica,sans-Serif" font-size="10.00">vector</text>
</a>
</g>
</g>
<!-- Node42&#45;&gt;Node43 -->
<g id="edge61" class="edge">
<title>Node42&#45;&gt;Node43</title>
<path fill="none" stroke="midnightblue" d="M536.45,-569.4C556.1,-558.29 583.29,-542.92 602.65,-531.98"/>
<polygon fill="midnightblue" stroke="midnightblue" points="604.47,-534.97 611.45,-527.01 601.02,-528.88 604.47,-534.97"/>
</g>
<!-- Node44&#45;&gt;Node2 -->
<g id="edge64" class="edge">
<title>Node44&#45;&gt;Node2</title>
<path fill="none" stroke="midnightblue" d="M202.81,-362.88C170.16,-348.78 120.42,-327.31 88.96,-313.72"/>
<polygon fill="midnightblue" stroke="midnightblue" points="90,-310.36 79.43,-309.61 87.22,-316.78 90,-310.36"/>
</g>
<!-- Node44&#45;&gt;Node10 -->
<g id="edge65" class="edge">
<title>Node44&#45;&gt;Node10</title>
<path fill="none" stroke="midnightblue" d="M252.05,-362.85C292.69,-328.93 401.89,-242.7 508.5,-201 548.31,-185.43 660.16,-168.57 732.47,-158.8"/>
<polygon fill="midnightblue" stroke="midnightblue" points="732.95,-162.27 742.4,-157.47 732.02,-155.33 732.95,-162.27"/>
</g>
<!-- Node44&#45;&gt;Node29 -->
<g id="edge66" class="edge">
<title>Node44&#45;&gt;Node29</title>
<path fill="none" stroke="midnightblue" d="M235.5,-362.7C235.5,-352.2 235.5,-337.66 235.5,-325.33"/>
<polygon fill="midnightblue" stroke="midnightblue" points="239,-325.23 235.5,-315.23 232,-325.23 239,-325.23"/>
</g>
<!-- Node44&#45;&gt;Node30 -->
<g id="edge63" class="edge">
<title>Node44&#45;&gt;Node30</title>
<path fill="none" stroke="midnightblue" d="M208.08,-362.82C192.78,-353.27 175.12,-339.11 166.5,-321 158.47,-304.15 160.11,-296.54 166.5,-279 171.23,-266.01 180.44,-253.94 189.46,-244.36"/>
<polygon fill="midnightblue" stroke="midnightblue" points="191.98,-246.79 196.57,-237.23 187.03,-241.84 191.98,-246.79"/>
</g>
</g>
</svg>
