<?xml version="1.0" encoding="UTF-8" standalone="no"?>
<!DOCTYPE svg PUBLIC "-//W3C//DTD SVG 1.1//EN"
 "http://www.w3.org/Graphics/SVG/1.1/DTD/svg11.dtd">
<!-- Generated by graphviz version 2.43.0 (0)
 -->
<!-- Title: STLContainerBase.hpp Pages: 1 -->
<svg width="1099pt" height="308pt"
 viewBox="0.00 0.00 1099.00 308.00" xmlns="http://www.w3.org/2000/svg" xmlns:xlink="http://www.w3.org/1999/xlink">
<g id="graph0" class="graph" transform="scale(1 1) rotate(0) translate(4 304)">
<title>STLContainerBase.hpp</title>
<polygon fill="white" stroke="transparent" points="-4,4 -4,-304 1095,-304 1095,4 -4,4"/>
<!-- Node1 -->
<g id="node1" class="node">
<title>Node1</title>
<g id="a_node1"><a xlink:title=" ">
<polygon fill="#bfbfbf" stroke="black" points="459,-280.5 459,-299.5 585,-299.5 585,-280.5 459,-280.5"/>
<text text-anchor="middle" x="522" y="-287.5" font-family="Helvetica,sans-Serif" font-size="10.00">STLContainerBase.hpp</text>
</a>
</g>
</g>
<!-- Node2 -->
<g id="node2" class="node">
<title>Node2</title>
<g id="a_node2"><a xlink:href="DynamicArray_8hpp.html" target="_top" xlink:title=" ">
<polygon fill="white" stroke="black" points="323,-224.5 323,-243.5 429,-243.5 429,-224.5 323,-224.5"/>
<text text-anchor="middle" x="376" y="-231.5" font-family="Helvetica,sans-Serif" font-size="10.00">DynamicArray.hpp</text>
</a>
</g>
</g>
<!-- Node1&#45;&gt;Node2 -->
<g id="edge1" class="edge">
<title>Node1&#45;&gt;Node2</title>
<path fill="none" stroke="midnightblue" d="M489.3,-276.91C461.85,-266.75 423.33,-252.51 399.03,-243.52"/>
<polygon fill="midnightblue" stroke="midnightblue" points="488.27,-280.26 498.87,-280.44 490.7,-273.69 488.27,-280.26"/>
</g>
<!-- Node21 -->
<g id="node21" class="node">
<title>Node21</title>
<g id="a_node21"><a xlink:href="StaticArray_8hpp.html" target="_top" xlink:title=" ">
<polygon fill="white" stroke="black" points="673,-224.5 673,-243.5 763,-243.5 763,-224.5 673,-224.5"/>
<text text-anchor="middle" x="718" y="-231.5" font-family="Helvetica,sans-Serif" font-size="10.00">StaticArray.hpp</text>
</a>
</g>
</g>
<!-- Node1&#45;&gt;Node21 -->
<g id="edge23" class="edge">
<title>Node1&#45;&gt;Node21</title>
<path fill="none" stroke="midnightblue" d="M563.02,-277.7C600.01,-267.51 653.6,-252.74 687.09,-243.52"/>
<polygon fill="midnightblue" stroke="midnightblue" points="561.77,-274.41 553.06,-280.44 563.63,-281.16 561.77,-274.41"/>
</g>
<!-- Node3 -->
<g id="node3" class="node">
<title>Node3</title>
<g id="a_node3"><a xlink:href="ArgParse_8hpp.html" target="_top" xlink:title=" ">
<polygon fill="white" stroke="black" points="404,-168.5 404,-187.5 484,-187.5 484,-168.5 404,-168.5"/>
<text text-anchor="middle" x="444" y="-175.5" font-family="Helvetica,sans-Serif" font-size="10.00">ArgParse.hpp</text>
</a>
</g>
</g>
<!-- Node2&#45;&gt;Node3 -->
<g id="edge2" class="edge">
<title>Node2&#45;&gt;Node3</title>
<path fill="none" stroke="midnightblue" d="M394.76,-218.1C407,-208.38 422.56,-196.03 432.88,-187.83"/>
<polygon fill="midnightblue" stroke="midnightblue" points="392.58,-215.36 386.93,-224.32 396.93,-220.85 392.58,-215.36"/>
</g>
<!-- Node11 -->
<g id="node11" class="node">
<title>Node11</title>
<g id="a_node11"><a xlink:href="ParallelFor_8hpp.html" target="_top" xlink:title=" ">
<polygon fill="white" stroke="black" points="294,-56.5 294,-75.5 382,-75.5 382,-56.5 294,-56.5"/>
<text text-anchor="middle" x="338" y="-63.5" font-family="Helvetica,sans-Serif" font-size="10.00">ParallelFor.hpp</text>
</a>
</g>
</g>
<!-- Node2&#45;&gt;Node11 -->
<g id="edge10" class="edge">
<title>Node2&#45;&gt;Node11</title>
<path fill="none" stroke="midnightblue" d="M369.88,-214.87C367.25,-206.72 364.27,-196.93 362,-188 351.4,-146.28 342.65,-95.48 339.38,-75.58"/>
<polygon fill="midnightblue" stroke="midnightblue" points="366.58,-216.05 373.04,-224.45 373.23,-213.86 366.58,-216.05"/>
</g>
<!-- Node12 -->
<g id="node12" class="node">
<title>Node12</title>
<g id="a_node12"><a xlink:href="ThreadLocal_8hpp.html" target="_top" xlink:title=" ">
<polygon fill="white" stroke="black" points="502.5,-168.5 502.5,-187.5 599.5,-187.5 599.5,-168.5 502.5,-168.5"/>
<text text-anchor="middle" x="551" y="-175.5" font-family="Helvetica,sans-Serif" font-size="10.00">ThreadLocal.hpp</text>
</a>
</g>
</g>
<!-- Node2&#45;&gt;Node12 -->
<g id="edge11" class="edge">
<title>Node2&#45;&gt;Node12</title>
<path fill="none" stroke="midnightblue" d="M413.47,-221.44C446.47,-211.26 493.76,-196.66 523.4,-187.52"/>
<polygon fill="midnightblue" stroke="midnightblue" points="412.25,-218.15 403.73,-224.44 414.32,-224.84 412.25,-218.15"/>
</g>
<!-- Node13 -->
<g id="node13" class="node">
<title>Node13</title>
<g id="a_node13"><a xlink:href="ThreadPoolStorage_8hpp.html" target="_top" xlink:title=" ">
<polygon fill="white" stroke="black" points="180,-168.5 180,-187.5 310,-187.5 310,-168.5 180,-168.5"/>
<text text-anchor="middle" x="245" y="-175.5" font-family="Helvetica,sans-Serif" font-size="10.00">ThreadPoolStorage.hpp</text>
</a>
</g>
</g>
<!-- Node2&#45;&gt;Node13 -->
<g id="edge12" class="edge">
<title>Node2&#45;&gt;Node13</title>
<path fill="none" stroke="midnightblue" d="M345.68,-220.5C321.12,-210.38 287.18,-196.39 265.66,-187.52"/>
<polygon fill="midnightblue" stroke="midnightblue" points="344.66,-223.87 355.24,-224.44 347.33,-217.4 344.66,-223.87"/>
</g>
<!-- Node17 -->
<g id="node17" class="node">
<title>Node17</title>
<g id="a_node17"><a xlink:href="abstree_8hpp.html" target="_top" xlink:title=" ">
<polygon fill="white" stroke="black" points="400,-56.5 400,-75.5 474,-75.5 474,-56.5 400,-56.5"/>
<text text-anchor="middle" x="437" y="-63.5" font-family="Helvetica,sans-Serif" font-size="10.00">abstree.hpp</text>
</a>
</g>
</g>
<!-- Node2&#45;&gt;Node17 -->
<g id="edge20" class="edge">
<title>Node2&#45;&gt;Node17</title>
<path fill="none" stroke="midnightblue" d="M375.61,-214.11C375.83,-189.4 378.76,-145.34 395,-112 402.21,-97.21 415.94,-83.93 425.74,-75.69"/>
<polygon fill="midnightblue" stroke="midnightblue" points="372.11,-214.29 375.67,-224.27 379.11,-214.25 372.11,-214.29"/>
</g>
<!-- Node18 -->
<g id="node18" class="node">
<title>Node18</title>
<g id="a_node18"><a xlink:href="ContiguousTree_8hpp.html" target="_top" xlink:title=" ">
<polygon fill="white" stroke="black" points="29.5,-56.5 29.5,-75.5 142.5,-75.5 142.5,-56.5 29.5,-56.5"/>
<text text-anchor="middle" x="86" y="-63.5" font-family="Helvetica,sans-Serif" font-size="10.00">ContiguousTree.hpp</text>
</a>
</g>
</g>
<!-- Node2&#45;&gt;Node18 -->
<g id="edge21" class="edge">
<title>Node2&#45;&gt;Node18</title>
<path fill="none" stroke="midnightblue" d="M312.55,-230.93C269.49,-226.82 212.98,-215.94 171,-188 126.98,-158.7 98.76,-98.2 89.42,-75.69"/>
<polygon fill="midnightblue" stroke="midnightblue" points="312.37,-234.42 322.63,-231.79 312.96,-227.45 312.37,-234.42"/>
</g>
<!-- Node19 -->
<g id="node19" class="node">
<title>Node19</title>
<g id="a_node19"><a xlink:href="UnstructuredView_8hpp.html" target="_top" xlink:title=" ">
<polygon fill="white" stroke="black" points="0,-168.5 0,-187.5 124,-187.5 124,-168.5 0,-168.5"/>
<text text-anchor="middle" x="62" y="-175.5" font-family="Helvetica,sans-Serif" font-size="10.00">UnstructuredView.hpp</text>
</a>
</g>
</g>
<!-- Node2&#45;&gt;Node19 -->
<g id="edge19" class="edge">
<title>Node2&#45;&gt;Node19</title>
<path fill="none" stroke="midnightblue" d="M316.27,-222.73C256.93,-212.52 167.01,-197.06 111.52,-187.52"/>
<polygon fill="midnightblue" stroke="midnightblue" points="315.8,-226.2 326.25,-224.44 316.98,-219.3 315.8,-226.2"/>
</g>
<!-- Node20 -->
<g id="node20" class="node">
<title>Node20</title>
<g id="a_node20"><a xlink:href="stl__extension_8hpp.html" target="_top" xlink:title=" ">
<polygon fill="white" stroke="black" points="617.5,-168.5 617.5,-187.5 720.5,-187.5 720.5,-168.5 617.5,-168.5"/>
<text text-anchor="middle" x="669" y="-175.5" font-family="Helvetica,sans-Serif" font-size="10.00">stl_extension.hpp</text>
</a>
</g>
</g>
<!-- Node2&#45;&gt;Node20 -->
<g id="edge22" class="edge">
<title>Node2&#45;&gt;Node20</title>
<path fill="none" stroke="midnightblue" d="M432.43,-222.6C487.8,-212.4 571.23,-197.02 622.79,-187.52"/>
<polygon fill="midnightblue" stroke="midnightblue" points="431.63,-219.19 422.43,-224.44 432.9,-226.07 431.63,-219.19"/>
</g>
<!-- Node4 -->
<g id="node4" class="node">
<title>Node4</title>
<g id="a_node4"><a xlink:href="AbsArgument_8hpp.html" target="_top" xlink:title=" ">
<polygon fill="white" stroke="black" points="725,-112.5 725,-131.5 829,-131.5 829,-112.5 725,-112.5"/>
<text text-anchor="middle" x="777" y="-119.5" font-family="Helvetica,sans-Serif" font-size="10.00">AbsArgument.hpp</text>
</a>
</g>
</g>
<!-- Node3&#45;&gt;Node4 -->
<g id="edge3" class="edge">
<title>Node3&#45;&gt;Node4</title>
<path fill="none" stroke="midnightblue" d="M494.1,-167.84C580.75,-153.1 669.96,-139.24 724.85,-130.87"/>
<polygon fill="midnightblue" stroke="midnightblue" points="493.37,-164.42 484.1,-169.55 494.54,-171.32 493.37,-164.42"/>
</g>
<!-- Node9 -->
<g id="node9" class="node">
<title>Node9</title>
<g id="a_node9"><a xlink:href="container__extension_8hpp.html" target="_top" xlink:title=" ">
<polygon fill="white" stroke="black" points="404.5,-112.5 404.5,-131.5 541.5,-131.5 541.5,-112.5 404.5,-112.5"/>
<text text-anchor="middle" x="473" y="-119.5" font-family="Helvetica,sans-Serif" font-size="10.00">container_extension.hpp</text>
</a>
</g>
</g>
<!-- Node3&#45;&gt;Node9 -->
<g id="edge8" class="edge">
<title>Node3&#45;&gt;Node9</title>
<path fill="none" stroke="midnightblue" d="M453.68,-158.98C458.6,-149.82 464.36,-139.09 468.3,-131.75"/>
<polygon fill="midnightblue" stroke="midnightblue" points="450.44,-157.62 448.79,-168.08 456.6,-160.93 450.44,-157.62"/>
</g>
<!-- Node10 -->
<g id="node10" class="node">
<title>Node10</title>
<g id="a_node10"><a xlink:href="file__system__extension_8hpp.html" target="_top" xlink:title=" ">
<polygon fill="white" stroke="black" points="559.5,-112.5 559.5,-131.5 706.5,-131.5 706.5,-112.5 559.5,-112.5"/>
<text text-anchor="middle" x="633" y="-119.5" font-family="Helvetica,sans-Serif" font-size="10.00">file_system_extension.hpp</text>
</a>
</g>
</g>
<!-- Node3&#45;&gt;Node10 -->
<g id="edge9" class="edge">
<title>Node3&#45;&gt;Node10</title>
<path fill="none" stroke="midnightblue" d="M484.01,-165.57C519.67,-155.38 571.04,-140.7 603.19,-131.52"/>
<polygon fill="midnightblue" stroke="midnightblue" points="482.6,-162.33 473.95,-168.44 484.52,-169.06 482.6,-162.33"/>
</g>
<!-- Node5 -->
<g id="node5" class="node">
<title>Node5</title>
<g id="a_node5"><a xlink:href="AggregateArgument_8hpp.html" target="_top" xlink:title=" ">
<polygon fill="white" stroke="black" points="531,-56.5 531,-75.5 667,-75.5 667,-56.5 531,-56.5"/>
<text text-anchor="middle" x="599" y="-63.5" font-family="Helvetica,sans-Serif" font-size="10.00">AggregateArgument.hpp</text>
</a>
</g>
</g>
<!-- Node4&#45;&gt;Node5 -->
<g id="edge4" class="edge">
<title>Node4&#45;&gt;Node5</title>
<path fill="none" stroke="midnightblue" d="M738.88,-109.44C705.32,-99.26 657.23,-84.66 627.07,-75.52"/>
<polygon fill="midnightblue" stroke="midnightblue" points="738.21,-112.89 748.8,-112.44 740.24,-106.19 738.21,-112.89"/>
</g>
<!-- Node6 -->
<g id="node6" class="node">
<title>Node6</title>
<g id="a_node6"><a xlink:href="FlagArgument_8hpp.html" target="_top" xlink:title=" ">
<polygon fill="white" stroke="black" points="685.5,-56.5 685.5,-75.5 792.5,-75.5 792.5,-56.5 685.5,-56.5"/>
<text text-anchor="middle" x="739" y="-63.5" font-family="Helvetica,sans-Serif" font-size="10.00">FlagArgument.hpp</text>
</a>
</g>
</g>
<!-- Node4&#45;&gt;Node6 -->
<g id="edge5" class="edge">
<title>Node4&#45;&gt;Node6</title>
<path fill="none" stroke="midnightblue" d="M764.94,-103.86C758.36,-94.5 750.49,-83.33 745.16,-75.75"/>
<polygon fill="midnightblue" stroke="midnightblue" points="762.11,-105.92 770.73,-112.08 767.83,-101.89 762.11,-105.92"/>
</g>
<!-- Node7 -->
<g id="node7" class="node">
<title>Node7</title>
<g id="a_node7"><a xlink:href="KeywordArgument_8hpp.html" target="_top" xlink:title=" ">
<polygon fill="white" stroke="black" points="811,-56.5 811,-75.5 939,-75.5 939,-56.5 811,-56.5"/>
<text text-anchor="middle" x="875" y="-63.5" font-family="Helvetica,sans-Serif" font-size="10.00">KeywordArgument.hpp</text>
</a>
</g>
</g>
<!-- Node4&#45;&gt;Node7 -->
<g id="edge6" class="edge">
<title>Node4&#45;&gt;Node7</title>
<path fill="none" stroke="midnightblue" d="M801.59,-107.45C819.68,-97.48 843.73,-84.23 859.29,-75.65"/>
<polygon fill="midnightblue" stroke="midnightblue" points="799.81,-104.43 792.75,-112.32 803.19,-110.56 799.81,-104.43"/>
</g>
<!-- Node8 -->
<g id="node8" class="node">
<title>Node8</title>
<g id="a_node8"><a xlink:href="PositionalArgument_8hpp.html" target="_top" xlink:title=" ">
<polygon fill="white" stroke="black" points="957,-56.5 957,-75.5 1091,-75.5 1091,-56.5 957,-56.5"/>
<text text-anchor="middle" x="1024" y="-63.5" font-family="Helvetica,sans-Serif" font-size="10.00">PositionalArgument.hpp</text>
</a>
</g>
</g>
<!-- Node4&#45;&gt;Node8 -->
<g id="edge7" class="edge">
<title>Node4&#45;&gt;Node8</title>
<path fill="none" stroke="midnightblue" d="M826.03,-110.28C872.7,-100.08 942.03,-84.92 985.05,-75.52"/>
<polygon fill="midnightblue" stroke="midnightblue" points="825.16,-106.89 816.14,-112.44 826.65,-113.73 825.16,-106.89"/>
</g>
<!-- Node14 -->
<g id="node14" class="node">
<title>Node14</title>
<g id="a_node14"><a xlink:href="ThreadPool_8hpp.html" target="_top" xlink:title=" ">
<polygon fill="white" stroke="black" points="199,-112.5 199,-131.5 291,-131.5 291,-112.5 199,-112.5"/>
<text text-anchor="middle" x="245" y="-119.5" font-family="Helvetica,sans-Serif" font-size="10.00">ThreadPool.hpp</text>
</a>
</g>
</g>
<!-- Node13&#45;&gt;Node14 -->
<g id="edge13" class="edge">
<title>Node13&#45;&gt;Node14</title>
<path fill="none" stroke="midnightblue" d="M245,-157.8C245,-148.91 245,-138.78 245,-131.75"/>
<polygon fill="midnightblue" stroke="midnightblue" points="241.5,-158.08 245,-168.08 248.5,-158.08 241.5,-158.08"/>
</g>
<!-- Node14&#45;&gt;Node11 -->
<g id="edge14" class="edge">
<title>Node14&#45;&gt;Node11</title>
<path fill="none" stroke="midnightblue" d="M268.81,-107.18C285.92,-97.24 308.47,-84.15 323.1,-75.65"/>
<polygon fill="midnightblue" stroke="midnightblue" points="266.83,-104.28 259.94,-112.32 270.35,-110.33 266.83,-104.28"/>
</g>
<!-- Node15 -->
<g id="node15" class="node">
<title>Node15</title>
<g id="a_node15"><a xlink:href="ResourceLoader_8hpp.html" target="_top" xlink:title=" ">
<polygon fill="white" stroke="black" points="160.5,-56.5 160.5,-75.5 275.5,-75.5 275.5,-56.5 160.5,-56.5"/>
<text text-anchor="middle" x="218" y="-63.5" font-family="Helvetica,sans-Serif" font-size="10.00">ResourceLoader.hpp</text>
</a>
</g>
</g>
<!-- Node14&#45;&gt;Node15 -->
<g id="edge15" class="edge">
<title>Node14&#45;&gt;Node15</title>
<path fill="none" stroke="midnightblue" d="M235.99,-102.98C231.41,-93.82 226.05,-83.09 222.38,-75.75"/>
<polygon fill="midnightblue" stroke="midnightblue" points="232.94,-104.7 240.54,-112.08 239.2,-101.57 232.94,-104.7"/>
</g>
<!-- Node14&#45;&gt;Node17 -->
<g id="edge17" class="edge">
<title>Node14&#45;&gt;Node17</title>
<path fill="none" stroke="midnightblue" d="M285.18,-109.7C321.42,-99.51 373.91,-84.74 406.72,-75.52"/>
<polygon fill="midnightblue" stroke="midnightblue" points="284.1,-106.37 275.42,-112.44 286,-113.11 284.1,-106.37"/>
</g>
<!-- Node14&#45;&gt;Node18 -->
<g id="edge18" class="edge">
<title>Node14&#45;&gt;Node18</title>
<path fill="none" stroke="midnightblue" d="M210.17,-109.17C180.23,-99 137.78,-84.59 111.08,-75.52"/>
<polygon fill="midnightblue" stroke="midnightblue" points="209.21,-112.54 219.81,-112.44 211.46,-105.91 209.21,-112.54"/>
</g>
<!-- Node16 -->
<g id="node16" class="node">
<title>Node16</title>
<g id="a_node16"><a xlink:href="ResourceQueue_8hpp.html" target="_top" xlink:title=" ">
<polygon fill="white" stroke="black" points="161,-0.5 161,-19.5 275,-19.5 275,-0.5 161,-0.5"/>
<text text-anchor="middle" x="218" y="-7.5" font-family="Helvetica,sans-Serif" font-size="10.00">ResourceQueue.hpp</text>
</a>
</g>
</g>
<!-- Node15&#45;&gt;Node16 -->
<g id="edge16" class="edge">
<title>Node15&#45;&gt;Node16</title>
<path fill="none" stroke="midnightblue" d="M218,-45.8C218,-36.91 218,-26.78 218,-19.75"/>
<polygon fill="midnightblue" stroke="midnightblue" points="214.5,-46.08 218,-56.08 221.5,-46.08 214.5,-46.08"/>
</g>
<!-- Node21&#45;&gt;Node20 -->
<g id="edge26" class="edge">
<title>Node21&#45;&gt;Node20</title>
<path fill="none" stroke="midnightblue" d="M702.97,-216.43C694.38,-206.97 683.96,-195.48 676.94,-187.75"/>
<polygon fill="midnightblue" stroke="midnightblue" points="700.6,-219.03 709.91,-224.08 705.78,-214.33 700.6,-219.03"/>
</g>
<!-- Node22 -->
<g id="node22" class="node">
<title>Node22</title>
<g id="a_node22"><a xlink:href="json_8hpp.html" target="_top" xlink:title=" ">
<polygon fill="white" stroke="black" points="739,-168.5 739,-187.5 797,-187.5 797,-168.5 739,-168.5"/>
<text text-anchor="middle" x="768" y="-175.5" font-family="Helvetica,sans-Serif" font-size="10.00">json.hpp</text>
</a>
</g>
</g>
<!-- Node21&#45;&gt;Node22 -->
<g id="edge24" class="edge">
<title>Node21&#45;&gt;Node22</title>
<path fill="none" stroke="midnightblue" d="M733.08,-216.72C741.89,-207.2 752.67,-195.56 759.9,-187.75"/>
<polygon fill="midnightblue" stroke="midnightblue" points="730.48,-214.37 726.26,-224.08 735.62,-219.12 730.48,-214.37"/>
</g>
<!-- Node23 -->
<g id="node23" class="node">
<title>Node23</title>
<g id="a_node23"><a xlink:href="base_8hpp.html" target="_top" xlink:title=" ">
<polygon fill="white" stroke="black" points="815.5,-168.5 815.5,-187.5 876.5,-187.5 876.5,-168.5 815.5,-168.5"/>
<text text-anchor="middle" x="846" y="-175.5" font-family="Helvetica,sans-Serif" font-size="10.00">base.hpp</text>
</a>
</g>
</g>
<!-- Node21&#45;&gt;Node23 -->
<g id="edge25" class="edge">
<title>Node21&#45;&gt;Node23</title>
<path fill="none" stroke="midnightblue" d="M747.62,-220.5C771.62,-210.38 804.78,-196.39 825.81,-187.52"/>
<polygon fill="midnightblue" stroke="midnightblue" points="746.14,-217.33 738.28,-224.44 748.86,-223.78 746.14,-217.33"/>
</g>
</g>
</svg>
