<?xml version="1.0" encoding="UTF-8" standalone="no"?>
<!DOCTYPE svg PUBLIC "-//W3C//DTD SVG 1.1//EN"
 "http://www.w3.org/Graphics/SVG/1.1/DTD/svg11.dtd">
<!-- Generated by graphviz version 2.43.0 (0)
 -->
<!-- Title: STLContainerBase.hpp Pages: 1 -->
<svg width="1248pt" height="530pt"
 viewBox="0.00 0.00 1248.00 530.00" xmlns="http://www.w3.org/2000/svg" xmlns:xlink="http://www.w3.org/1999/xlink">
<g id="graph0" class="graph" transform="scale(1 1) rotate(0) translate(4 526)">
<title>STLContainerBase.hpp</title>
<polygon fill="white" stroke="transparent" points="-4,4 -4,-526 1244,-526 1244,4 -4,4"/>
<!-- Node1 -->
<g id="node1" class="node">
<title>Node1</title>
<g id="a_node1"><a xlink:title=" ">
<polygon fill="#bfbfbf" stroke="black" points="558,-502.5 558,-521.5 684,-521.5 684,-502.5 558,-502.5"/>
<text text-anchor="middle" x="621" y="-509.5" font-family="Helvetica,sans-Serif" font-size="10.00">STLContainerBase.hpp</text>
</a>
</g>
</g>
<!-- Node2 -->
<g id="node2" class="node">
<title>Node2</title>
<g id="a_node2"><a xlink:href="container__concepts_8hpp.html" target="_top" xlink:title=" ">
<polygon fill="white" stroke="black" points="329.5,-357.5 329.5,-398.5 464.5,-398.5 464.5,-357.5 329.5,-357.5"/>
<text text-anchor="start" x="337.5" y="-386.5" font-family="Helvetica,sans-Serif" font-size="10.00">packages/compile_time</text>
<text text-anchor="start" x="337.5" y="-375.5" font-family="Helvetica,sans-Serif" font-size="10.00">/packages/concepts/inc</text>
<text text-anchor="middle" x="397" y="-364.5" font-family="Helvetica,sans-Serif" font-size="10.00">/container_concepts.hpp</text>
</a>
</g>
</g>
<!-- Node1&#45;&gt;Node2 -->
<g id="edge1" class="edge">
<title>Node1&#45;&gt;Node2</title>
<path fill="none" stroke="midnightblue" d="M557.78,-509.82C518.16,-505.96 468.28,-495.02 434,-466 416.8,-451.44 407.4,-427.47 402.39,-408.37"/>
<polygon fill="midnightblue" stroke="midnightblue" points="405.8,-407.56 400.09,-398.63 398.98,-409.16 405.8,-407.56"/>
</g>
<!-- Node5 -->
<g id="node5" class="node">
<title>Node5</title>
<g id="a_node5"><a xlink:href="types_8hpp.html" target="_top" xlink:title=" ">
<polygon fill="white" stroke="black" points="407,-134.5 407,-164.5 517,-164.5 517,-134.5 407,-134.5"/>
<text text-anchor="start" x="415" y="-152.5" font-family="Helvetica,sans-Serif" font-size="10.00">packages/types/inc</text>
<text text-anchor="middle" x="462" y="-141.5" font-family="Helvetica,sans-Serif" font-size="10.00">/types.hpp</text>
</a>
</g>
</g>
<!-- Node1&#45;&gt;Node5 -->
<g id="edge28" class="edge">
<title>Node1&#45;&gt;Node5</title>
<path fill="none" stroke="midnightblue" d="M618.89,-502.41C613.95,-481.46 602,-426 602,-379 602,-379 602,-379 602,-299 602,-252.9 598.75,-235.35 568,-201 555.27,-186.77 537.66,-176.2 520.46,-168.51"/>
<polygon fill="midnightblue" stroke="midnightblue" points="521.55,-165.17 510.97,-164.52 518.84,-171.62 521.55,-165.17"/>
</g>
<!-- Node23 -->
<g id="node23" class="node">
<title>Node23</title>
<g id="a_node23"><a xlink:href="typedefs_8hpp.html" target="_top" xlink:title=" ">
<polygon fill="white" stroke="black" points="668.5,-435.5 668.5,-465.5 787.5,-465.5 787.5,-435.5 668.5,-435.5"/>
<text text-anchor="start" x="676.5" y="-453.5" font-family="Helvetica,sans-Serif" font-size="10.00">packages/macros/inc</text>
<text text-anchor="middle" x="728" y="-442.5" font-family="Helvetica,sans-Serif" font-size="10.00">/typedefs.hpp</text>
</a>
</g>
</g>
<!-- Node1&#45;&gt;Node23 -->
<g id="edge26" class="edge">
<title>Node1&#45;&gt;Node23</title>
<path fill="none" stroke="midnightblue" d="M636.33,-502.48C651.3,-494.15 674.58,-481.21 693.93,-470.45"/>
<polygon fill="midnightblue" stroke="midnightblue" points="695.74,-473.44 702.78,-465.52 692.34,-467.32 695.74,-473.44"/>
</g>
<!-- Node24 -->
<g id="node24" class="node">
<title>Node24</title>
<g id="a_node24"><a xlink:href="exceptions_8hpp.html" target="_top" xlink:title=" ">
<polygon fill="white" stroke="black" points="690.5,-285 690.5,-315 809.5,-315 809.5,-285 690.5,-285"/>
<text text-anchor="start" x="698.5" y="-303" font-family="Helvetica,sans-Serif" font-size="10.00">packages/macros/inc</text>
<text text-anchor="middle" x="750" y="-292" font-family="Helvetica,sans-Serif" font-size="10.00">/exceptions.hpp</text>
</a>
</g>
</g>
<!-- Node1&#45;&gt;Node24 -->
<g id="edge29" class="edge">
<title>Node1&#45;&gt;Node24</title>
<path fill="none" stroke="midnightblue" d="M625.01,-502.39C631.75,-488.11 645.99,-458.76 660,-435 683.81,-394.62 714.93,-349.8 733.64,-323.58"/>
<polygon fill="midnightblue" stroke="midnightblue" points="736.73,-325.28 739.71,-315.12 731.04,-321.2 736.73,-325.28"/>
</g>
<!-- Node30 -->
<g id="node30" class="node">
<title>Node30</title>
<g id="a_node30"><a xlink:href="resize_8hpp.html" target="_top" xlink:title=" ">
<polygon fill="white" stroke="black" points="442.5,-435.5 442.5,-465.5 573.5,-465.5 573.5,-435.5 442.5,-435.5"/>
<text text-anchor="start" x="450.5" y="-453.5" font-family="Helvetica,sans-Serif" font-size="10.00">packages/stl_extension</text>
<text text-anchor="middle" x="508" y="-442.5" font-family="Helvetica,sans-Serif" font-size="10.00">/inc/resize.hpp</text>
</a>
</g>
</g>
<!-- Node1&#45;&gt;Node30 -->
<g id="edge40" class="edge">
<title>Node1&#45;&gt;Node30</title>
<path fill="none" stroke="midnightblue" d="M604.81,-502.48C588.93,-494.12 564.2,-481.09 543.7,-470.3"/>
<polygon fill="midnightblue" stroke="midnightblue" points="545.11,-467.09 534.63,-465.52 541.85,-473.28 545.11,-467.09"/>
</g>
<!-- Node35 -->
<g id="node35" class="node">
<title>Node35</title>
<g id="a_node35"><a xlink:title=" ">
<polygon fill="white" stroke="#bfbfbf" points="806,-441 806,-460 870,-460 870,-441 806,-441"/>
<text text-anchor="middle" x="838" y="-448" font-family="Helvetica,sans-Serif" font-size="10.00">algorithm</text>
</a>
</g>
</g>
<!-- Node1&#45;&gt;Node35 -->
<g id="edge52" class="edge">
<title>Node1&#45;&gt;Node35</title>
<path fill="none" stroke="midnightblue" d="M658.35,-502.48C694.16,-494.06 749.63,-480.4 797,-466 799.62,-465.2 802.32,-464.34 805.02,-463.45"/>
<polygon fill="midnightblue" stroke="midnightblue" points="806.37,-466.69 814.7,-460.15 804.11,-460.06 806.37,-466.69"/>
</g>
<!-- Node3 -->
<g id="node3" class="node">
<title>Node3</title>
<g id="a_node3"><a xlink:href="iterator__concepts_8hpp.html" target="_top" xlink:title=" ">
<polygon fill="white" stroke="black" points="304,-279.5 304,-320.5 436,-320.5 436,-279.5 304,-279.5"/>
<text text-anchor="start" x="312" y="-308.5" font-family="Helvetica,sans-Serif" font-size="10.00">packages/compile_time</text>
<text text-anchor="start" x="312" y="-297.5" font-family="Helvetica,sans-Serif" font-size="10.00">/packages/concepts/inc</text>
<text text-anchor="middle" x="370" y="-286.5" font-family="Helvetica,sans-Serif" font-size="10.00">/iterator_concepts.hpp</text>
</a>
</g>
</g>
<!-- Node2&#45;&gt;Node3 -->
<g id="edge2" class="edge">
<title>Node2&#45;&gt;Node3</title>
<path fill="none" stroke="midnightblue" d="M390.05,-357.43C387.09,-349.1 383.57,-339.2 380.32,-330.04"/>
<polygon fill="midnightblue" stroke="midnightblue" points="383.58,-328.76 376.93,-320.51 376.98,-331.1 383.58,-328.76"/>
</g>
<!-- Node4 -->
<g id="node4" class="node">
<title>Node4</title>
<g id="a_node4"><a xlink:href="basic__concepts_8hpp.html" target="_top" xlink:title=" ">
<polygon fill="white" stroke="black" points="166,-201.5 166,-242.5 298,-242.5 298,-201.5 166,-201.5"/>
<text text-anchor="start" x="174" y="-230.5" font-family="Helvetica,sans-Serif" font-size="10.00">packages/compile_time</text>
<text text-anchor="start" x="174" y="-219.5" font-family="Helvetica,sans-Serif" font-size="10.00">/packages/concepts/inc</text>
<text text-anchor="middle" x="232" y="-208.5" font-family="Helvetica,sans-Serif" font-size="10.00">/basic_concepts.hpp</text>
</a>
</g>
</g>
<!-- Node3&#45;&gt;Node4 -->
<g id="edge3" class="edge">
<title>Node3&#45;&gt;Node4</title>
<path fill="none" stroke="midnightblue" d="M334.46,-279.43C316.76,-269.68 295.17,-257.79 276.39,-247.44"/>
<polygon fill="midnightblue" stroke="midnightblue" points="277.87,-244.26 267.42,-242.51 274.49,-250.4 277.87,-244.26"/>
</g>
<!-- Node18 -->
<g id="node18" class="node">
<title>Node18</title>
<g id="a_node18"><a xlink:href="Size_8hpp.html" target="_top" xlink:title=" ">
<polygon fill="white" stroke="black" points="388,-201.5 388,-242.5 536,-242.5 536,-201.5 388,-201.5"/>
<text text-anchor="start" x="396" y="-230.5" font-family="Helvetica,sans-Serif" font-size="10.00">packages/compile_time</text>
<text text-anchor="start" x="396" y="-219.5" font-family="Helvetica,sans-Serif" font-size="10.00">/packages/parameter_pack</text>
<text text-anchor="middle" x="462" y="-208.5" font-family="Helvetica,sans-Serif" font-size="10.00">/inc/Size.hpp</text>
</a>
</g>
</g>
<!-- Node3&#45;&gt;Node18 -->
<g id="edge18" class="edge">
<title>Node3&#45;&gt;Node18</title>
<path fill="none" stroke="midnightblue" d="M393.69,-279.43C404.85,-270.21 418.32,-259.08 430.34,-249.15"/>
<polygon fill="midnightblue" stroke="midnightblue" points="432.91,-251.57 438.39,-242.51 428.45,-246.18 432.91,-251.57"/>
</g>
<!-- Node19 -->
<g id="node19" class="node">
<title>Node19</title>
<g id="a_node19"><a xlink:href="Select_8hpp.html" target="_top" xlink:title=" ">
<polygon fill="white" stroke="black" points="0,-201.5 0,-242.5 148,-242.5 148,-201.5 0,-201.5"/>
<text text-anchor="start" x="8" y="-230.5" font-family="Helvetica,sans-Serif" font-size="10.00">packages/compile_time</text>
<text text-anchor="start" x="8" y="-219.5" font-family="Helvetica,sans-Serif" font-size="10.00">/packages/parameter_pack</text>
<text text-anchor="middle" x="74" y="-208.5" font-family="Helvetica,sans-Serif" font-size="10.00">/inc/Select.hpp</text>
</a>
</g>
</g>
<!-- Node3&#45;&gt;Node19 -->
<g id="edge20" class="edge">
<title>Node3&#45;&gt;Node19</title>
<path fill="none" stroke="midnightblue" d="M303.94,-282.04C260.83,-270.97 204.18,-256.42 157.9,-244.54"/>
<polygon fill="midnightblue" stroke="midnightblue" points="158.74,-241.14 148.19,-242.05 157,-247.92 158.74,-241.14"/>
</g>
<!-- Node21 -->
<g id="node21" class="node">
<title>Node21</title>
<g id="a_node21"><a xlink:title=" ">
<polygon fill="white" stroke="#bfbfbf" points="316.5,-212.5 316.5,-231.5 369.5,-231.5 369.5,-212.5 316.5,-212.5"/>
<text text-anchor="middle" x="343" y="-219.5" font-family="Helvetica,sans-Serif" font-size="10.00">iterator</text>
</a>
</g>
</g>
<!-- Node3&#45;&gt;Node21 -->
<g id="edge24" class="edge">
<title>Node3&#45;&gt;Node21</title>
<path fill="none" stroke="midnightblue" d="M363.05,-279.43C358.84,-267.58 353.5,-252.57 349.4,-241.01"/>
<polygon fill="midnightblue" stroke="midnightblue" points="352.68,-239.8 346.04,-231.55 346.09,-242.15 352.68,-239.8"/>
</g>
<!-- Node22 -->
<g id="node22" class="node">
<title>Node22</title>
<g id="a_node22"><a xlink:title=" ">
<polygon fill="white" stroke="#bfbfbf" points="1116,-140 1116,-159 1174,-159 1174,-140 1116,-140"/>
<text text-anchor="middle" x="1145" y="-147" font-family="Helvetica,sans-Serif" font-size="10.00">memory</text>
</a>
</g>
</g>
<!-- Node3&#45;&gt;Node22 -->
<g id="edge25" class="edge">
<title>Node3&#45;&gt;Node22</title>
<path fill="none" stroke="midnightblue" d="M436,-293.93C570.1,-283.37 865.44,-258.69 909,-243 940.66,-231.59 941.33,-214.85 972,-201 1028.59,-175.44 1047.91,-184.09 1107,-165 1109.41,-164.22 1111.89,-163.38 1114.38,-162.5"/>
<polygon fill="midnightblue" stroke="midnightblue" points="1115.66,-165.76 1123.83,-159.02 1113.24,-159.19 1115.66,-165.76"/>
</g>
<!-- Node4&#45;&gt;Node5 -->
<g id="edge4" class="edge">
<title>Node4&#45;&gt;Node5</title>
<path fill="none" stroke="midnightblue" d="M295.76,-201.46C330.49,-190.81 373.05,-177.76 406.42,-167.54"/>
<polygon fill="midnightblue" stroke="midnightblue" points="407.48,-170.87 416.01,-164.6 405.42,-164.18 407.48,-170.87"/>
</g>
<!-- Node11 -->
<g id="node11" class="node">
<title>Node11</title>
<g id="a_node11"><a xlink:title=" ">
<polygon fill="white" stroke="#bfbfbf" points="64.5,-73 64.5,-92 133.5,-92 133.5,-73 64.5,-73"/>
<text text-anchor="middle" x="99" y="-80" font-family="Helvetica,sans-Serif" font-size="10.00">type_traits</text>
</a>
</g>
</g>
<!-- Node4&#45;&gt;Node11 -->
<g id="edge15" class="edge">
<title>Node4&#45;&gt;Node11</title>
<path fill="none" stroke="midnightblue" d="M212.59,-201.36C202.03,-190.65 188.76,-177.13 177,-165 155.17,-142.49 130.14,-116.26 114.45,-99.77"/>
<polygon fill="midnightblue" stroke="midnightblue" points="116.59,-96.94 107.16,-92.1 111.52,-101.76 116.59,-96.94"/>
</g>
<!-- Node15 -->
<g id="node15" class="node">
<title>Node15</title>
<g id="a_node15"><a xlink:title=" ">
<polygon fill="white" stroke="#bfbfbf" points="686,-140 686,-159 746,-159 746,-140 686,-140"/>
<text text-anchor="middle" x="716" y="-147" font-family="Helvetica,sans-Serif" font-size="10.00">concepts</text>
</a>
</g>
</g>
<!-- Node4&#45;&gt;Node15 -->
<g id="edge14" class="edge">
<title>Node4&#45;&gt;Node15</title>
<path fill="none" stroke="midnightblue" d="M298.14,-202.83C301.13,-202.18 304.09,-201.56 307,-201 440.72,-175.04 601.76,-159.76 675.52,-153.64"/>
<polygon fill="midnightblue" stroke="midnightblue" points="676.08,-157.1 685.76,-152.8 675.51,-150.13 676.08,-157.1"/>
</g>
<!-- Node16 -->
<g id="node16" class="node">
<title>Node16</title>
<g id="a_node16"><a xlink:title=" ">
<polygon fill="white" stroke="#bfbfbf" points="186,-140 186,-159 236,-159 236,-140 186,-140"/>
<text text-anchor="middle" x="211" y="-147" font-family="Helvetica,sans-Serif" font-size="10.00">cstdint</text>
</a>
</g>
</g>
<!-- Node4&#45;&gt;Node16 -->
<g id="edge16" class="edge">
<title>Node4&#45;&gt;Node16</title>
<path fill="none" stroke="midnightblue" d="M226.15,-201.36C223.12,-191.19 219.44,-178.84 216.47,-168.86"/>
<polygon fill="midnightblue" stroke="midnightblue" points="219.79,-167.76 213.58,-159.17 213.08,-169.76 219.79,-167.76"/>
</g>
<!-- Node17 -->
<g id="node17" class="node">
<title>Node17</title>
<g id="a_node17"><a xlink:title=" ">
<polygon fill="white" stroke="#bfbfbf" points="254.5,-140 254.5,-159 299.5,-159 299.5,-140 254.5,-140"/>
<text text-anchor="middle" x="277" y="-147" font-family="Helvetica,sans-Serif" font-size="10.00">utility</text>
</a>
</g>
</g>
<!-- Node4&#45;&gt;Node17 -->
<g id="edge17" class="edge">
<title>Node4&#45;&gt;Node17</title>
<path fill="none" stroke="midnightblue" d="M244.54,-201.36C251.24,-190.86 259.41,-178.05 265.89,-167.91"/>
<polygon fill="midnightblue" stroke="midnightblue" points="269.03,-169.49 271.46,-159.17 263.13,-165.72 269.03,-169.49"/>
</g>
<!-- Node6 -->
<g id="node6" class="node">
<title>Node6</title>
<g id="a_node6"><a xlink:href="debug_8hpp.html" target="_top" xlink:title=" ">
<polygon fill="white" stroke="black" points="151.5,-67.5 151.5,-97.5 270.5,-97.5 270.5,-67.5 151.5,-67.5"/>
<text text-anchor="start" x="159.5" y="-85.5" font-family="Helvetica,sans-Serif" font-size="10.00">packages/macros/inc</text>
<text text-anchor="middle" x="211" y="-74.5" font-family="Helvetica,sans-Serif" font-size="10.00">/debug.hpp</text>
</a>
</g>
</g>
<!-- Node5&#45;&gt;Node6 -->
<g id="edge5" class="edge">
<title>Node5&#45;&gt;Node6</title>
<path fill="none" stroke="midnightblue" d="M407.85,-134.48C368.97,-124.41 316.42,-110.8 275.39,-100.17"/>
<polygon fill="midnightblue" stroke="midnightblue" points="276.05,-96.73 265.49,-97.61 274.29,-103.51 276.05,-96.73"/>
</g>
<!-- Node9 -->
<g id="node9" class="node">
<title>Node9</title>
<g id="a_node9"><a xlink:title=" ">
<polygon fill="white" stroke="#bfbfbf" points="629.5,-73 629.5,-92 682.5,-92 682.5,-73 629.5,-73"/>
<text text-anchor="middle" x="656" y="-80" font-family="Helvetica,sans-Serif" font-size="10.00">cstddef</text>
</a>
</g>
</g>
<!-- Node5&#45;&gt;Node9 -->
<g id="edge8" class="edge">
<title>Node5&#45;&gt;Node9</title>
<path fill="none" stroke="midnightblue" d="M510.02,-134.41C541.75,-124.82 584.14,-111.46 621,-98 622.85,-97.32 624.75,-96.61 626.66,-95.87"/>
<polygon fill="midnightblue" stroke="midnightblue" points="628.14,-99.04 636.13,-92.08 625.54,-92.55 628.14,-99.04"/>
</g>
<!-- Node10 -->
<g id="node10" class="node">
<title>Node10</title>
<g id="a_node10"><a xlink:title=" ">
<polygon fill="white" stroke="#bfbfbf" points="818,-73 818,-92 862,-92 862,-73 818,-73"/>
<text text-anchor="middle" x="840" y="-80" font-family="Helvetica,sans-Serif" font-size="10.00">string</text>
</a>
</g>
</g>
<!-- Node5&#45;&gt;Node10 -->
<g id="edge9" class="edge">
<title>Node5&#45;&gt;Node10</title>
<path fill="none" stroke="midnightblue" d="M517.37,-138.98C597.59,-125.18 743.59,-100.08 808,-89"/>
<polygon fill="midnightblue" stroke="midnightblue" points="808.71,-92.43 817.98,-87.29 807.53,-85.53 808.71,-92.43"/>
</g>
<!-- Node5&#45;&gt;Node11 -->
<g id="edge10" class="edge">
<title>Node5&#45;&gt;Node11</title>
<path fill="none" stroke="midnightblue" d="M406.8,-142.66C342.57,-135.2 233.62,-120.51 142,-98 138.61,-97.17 135.1,-96.19 131.62,-95.14"/>
<polygon fill="midnightblue" stroke="midnightblue" points="132.59,-91.77 122,-92.05 130.45,-98.44 132.59,-91.77"/>
</g>
<!-- Node12 -->
<g id="node12" class="node">
<title>Node12</title>
<g id="a_node12"><a xlink:title=" ">
<polygon fill="white" stroke="#bfbfbf" points="289,-73 289,-92 339,-92 339,-73 289,-73"/>
<text text-anchor="middle" x="314" y="-80" font-family="Helvetica,sans-Serif" font-size="10.00">climits</text>
</a>
</g>
</g>
<!-- Node5&#45;&gt;Node12 -->
<g id="edge11" class="edge">
<title>Node5&#45;&gt;Node12</title>
<path fill="none" stroke="midnightblue" d="M429.89,-134.4C403.92,-122.99 367.69,-107.08 342.68,-96.1"/>
<polygon fill="midnightblue" stroke="midnightblue" points="343.93,-92.82 333.37,-92.01 341.12,-99.23 343.93,-92.82"/>
</g>
<!-- Node13 -->
<g id="node13" class="node">
<title>Node13</title>
<g id="a_node13"><a xlink:title=" ">
<polygon fill="white" stroke="#bfbfbf" points="357.5,-67.5 357.5,-97.5 474.5,-97.5 474.5,-67.5 357.5,-67.5"/>
<text text-anchor="start" x="365.5" y="-85.5" font-family="Helvetica,sans-Serif" font-size="10.00">packages/types/impl</text>
<text text-anchor="middle" x="416" y="-74.5" font-family="Helvetica,sans-Serif" font-size="10.00">/types_impl.hpp</text>
</a>
</g>
</g>
<!-- Node5&#45;&gt;Node13 -->
<g id="edge12" class="edge">
<title>Node5&#45;&gt;Node13</title>
<path fill="none" stroke="midnightblue" d="M452.02,-134.4C446.11,-126.05 438.5,-115.29 431.79,-105.81"/>
<polygon fill="midnightblue" stroke="midnightblue" points="434.6,-103.72 425.96,-97.58 428.88,-107.76 434.6,-103.72"/>
</g>
<!-- Node14 -->
<g id="node14" class="node">
<title>Node14</title>
<g id="a_node14"><a xlink:href="logging_8hpp.html" target="_top" xlink:title=" ">
<polygon fill="white" stroke="black" points="492.5,-67.5 492.5,-97.5 611.5,-97.5 611.5,-67.5 492.5,-67.5"/>
<text text-anchor="start" x="500.5" y="-85.5" font-family="Helvetica,sans-Serif" font-size="10.00">packages/macros/inc</text>
<text text-anchor="middle" x="552" y="-74.5" font-family="Helvetica,sans-Serif" font-size="10.00">/logging.hpp</text>
</a>
</g>
</g>
<!-- Node5&#45;&gt;Node14 -->
<g id="edge13" class="edge">
<title>Node5&#45;&gt;Node14</title>
<path fill="none" stroke="midnightblue" d="M481.53,-134.4C494.03,-125.37 510.44,-113.51 524.28,-103.52"/>
<polygon fill="midnightblue" stroke="midnightblue" points="526.45,-106.27 532.51,-97.58 522.35,-100.59 526.45,-106.27"/>
</g>
<!-- Node7 -->
<g id="node7" class="node">
<title>Node7</title>
<g id="a_node7"><a xlink:href="detail_8hpp.html" target="_top" xlink:title=" ">
<polygon fill="white" stroke="black" points="651.5,-0.5 651.5,-30.5 770.5,-30.5 770.5,-0.5 651.5,-0.5"/>
<text text-anchor="start" x="659.5" y="-18.5" font-family="Helvetica,sans-Serif" font-size="10.00">packages/macros/inc</text>
<text text-anchor="middle" x="711" y="-7.5" font-family="Helvetica,sans-Serif" font-size="10.00">/detail.hpp</text>
</a>
</g>
</g>
<!-- Node6&#45;&gt;Node7 -->
<g id="edge6" class="edge">
<title>Node6&#45;&gt;Node7</title>
<path fill="none" stroke="midnightblue" d="M270.78,-68.59C273.89,-68.03 276.98,-67.49 280,-67 406.64,-46.32 555.56,-30.8 641.05,-22.73"/>
<polygon fill="midnightblue" stroke="midnightblue" points="641.52,-26.2 651.15,-21.79 640.87,-19.23 641.52,-26.2"/>
</g>
<!-- Node8 -->
<g id="node8" class="node">
<title>Node8</title>
<g id="a_node8"><a xlink:title=" ">
<polygon fill="white" stroke="#bfbfbf" points="181,-6 181,-25 241,-25 241,-6 181,-6"/>
<text text-anchor="middle" x="211" y="-13" font-family="Helvetica,sans-Serif" font-size="10.00">iostream</text>
</a>
</g>
</g>
<!-- Node6&#45;&gt;Node8 -->
<g id="edge7" class="edge">
<title>Node6&#45;&gt;Node8</title>
<path fill="none" stroke="midnightblue" d="M211,-67.4C211,-58.06 211,-45.71 211,-35.52"/>
<polygon fill="midnightblue" stroke="midnightblue" points="214.5,-35.19 211,-25.19 207.5,-35.19 214.5,-35.19"/>
</g>
<!-- Node18&#45;&gt;Node5 -->
<g id="edge19" class="edge">
<title>Node18&#45;&gt;Node5</title>
<path fill="none" stroke="midnightblue" d="M462,-201.36C462,-193.23 462,-183.7 462,-175.11"/>
<polygon fill="midnightblue" stroke="midnightblue" points="465.5,-174.89 462,-164.89 458.5,-174.89 465.5,-174.89"/>
</g>
<!-- Node19&#45;&gt;Node5 -->
<g id="edge21" class="edge">
<title>Node19&#45;&gt;Node5</title>
<path fill="none" stroke="midnightblue" d="M148.15,-202.85C151.14,-202.21 154.09,-201.59 157,-201 239.34,-184.29 335.02,-169.13 396.94,-159.88"/>
<polygon fill="midnightblue" stroke="midnightblue" points="397.58,-163.32 406.96,-158.39 396.55,-156.4 397.58,-163.32"/>
</g>
<!-- Node19&#45;&gt;Node11 -->
<g id="edge22" class="edge">
<title>Node19&#45;&gt;Node11</title>
<path fill="none" stroke="midnightblue" d="M77.58,-201.3C82.4,-174.78 90.92,-127.94 95.63,-102.03"/>
<polygon fill="midnightblue" stroke="midnightblue" points="99.1,-102.5 97.45,-92.04 92.22,-101.25 99.1,-102.5"/>
</g>
<!-- Node20 -->
<g id="node20" class="node">
<title>Node20</title>
<g id="a_node20"><a xlink:title=" ">
<polygon fill="white" stroke="#bfbfbf" points="29.5,-140 29.5,-159 70.5,-159 70.5,-140 29.5,-140"/>
<text text-anchor="middle" x="50" y="-147" font-family="Helvetica,sans-Serif" font-size="10.00">tuple</text>
</a>
</g>
</g>
<!-- Node19&#45;&gt;Node20 -->
<g id="edge23" class="edge">
<title>Node19&#45;&gt;Node20</title>
<path fill="none" stroke="midnightblue" d="M67.31,-201.36C63.85,-191.19 59.65,-178.84 56.25,-168.86"/>
<polygon fill="midnightblue" stroke="midnightblue" points="59.49,-167.51 52.95,-159.17 52.86,-169.77 59.49,-167.51"/>
</g>
<!-- Node23&#45;&gt;Node22 -->
<g id="edge27" class="edge">
<title>Node23&#45;&gt;Node22</title>
<path fill="none" stroke="midnightblue" d="M784.34,-435.45C873.38,-412.24 1040.97,-364.16 1084,-321 1126.48,-278.4 1139.54,-204.21 1143.42,-169.47"/>
<polygon fill="midnightblue" stroke="midnightblue" points="1146.93,-169.6 1144.42,-159.3 1139.96,-168.91 1146.93,-169.6"/>
</g>
<!-- Node24&#45;&gt;Node7 -->
<g id="edge37" class="edge">
<title>Node24&#45;&gt;Node7</title>
<path fill="none" stroke="midnightblue" d="M742.12,-284.99C723.59,-251.96 678.66,-171.51 677,-165 673.6,-151.65 674.3,-147.51 677,-134 680.4,-117 686.68,-114.5 692,-98 698.14,-78.94 703.18,-56.79 706.52,-40.39"/>
<polygon fill="midnightblue" stroke="midnightblue" points="709.96,-41.02 708.46,-30.54 703.09,-39.67 709.96,-41.02"/>
</g>
<!-- Node24&#45;&gt;Node15 -->
<g id="edge39" class="edge">
<title>Node24&#45;&gt;Node15</title>
<path fill="none" stroke="midnightblue" d="M746.85,-284.71C742.63,-265.61 734.87,-230.73 728,-201 725.55,-190.4 722.74,-178.56 720.46,-169.02"/>
<polygon fill="midnightblue" stroke="midnightblue" points="723.81,-167.98 718.07,-159.07 717,-169.61 723.81,-167.98"/>
</g>
<!-- Node25 -->
<g id="node25" class="node">
<title>Node25</title>
<g id="a_node25"><a xlink:href="exception_8hpp.html" target="_top" xlink:title=" ">
<polygon fill="white" stroke="black" points="780.5,-207 780.5,-237 899.5,-237 899.5,-207 780.5,-207"/>
<text text-anchor="start" x="788.5" y="-225" font-family="Helvetica,sans-Serif" font-size="10.00">packages/exceptions</text>
<text text-anchor="middle" x="840" y="-214" font-family="Helvetica,sans-Serif" font-size="10.00">/inc/exception.hpp</text>
</a>
</g>
</g>
<!-- Node24&#45;&gt;Node25 -->
<g id="edge30" class="edge">
<title>Node24&#45;&gt;Node25</title>
<path fill="none" stroke="midnightblue" d="M766.93,-284.7C780.5,-273.24 799.76,-256.98 815.09,-244.03"/>
<polygon fill="midnightblue" stroke="midnightblue" points="817.77,-246.36 823.15,-237.23 813.25,-241.01 817.77,-246.36"/>
</g>
<!-- Node29 -->
<g id="node29" class="node">
<title>Node29</title>
<g id="a_node29"><a xlink:title=" ">
<polygon fill="white" stroke="#bfbfbf" points="630,-212.5 630,-231.5 686,-231.5 686,-212.5 630,-212.5"/>
<text text-anchor="middle" x="658" y="-219.5" font-family="Helvetica,sans-Serif" font-size="10.00">sstream</text>
</a>
</g>
</g>
<!-- Node24&#45;&gt;Node29 -->
<g id="edge38" class="edge">
<title>Node24&#45;&gt;Node29</title>
<path fill="none" stroke="midnightblue" d="M732.7,-284.7C716.56,-271.38 692.59,-251.57 676.18,-238.01"/>
<polygon fill="midnightblue" stroke="midnightblue" points="678.31,-235.23 668.37,-231.56 673.85,-240.63 678.31,-235.23"/>
</g>
<!-- Node25&#45;&gt;Node5 -->
<g id="edge31" class="edge">
<title>Node25&#45;&gt;Node5</title>
<path fill="none" stroke="midnightblue" d="M780.1,-209.83C711.15,-196.97 598.29,-175.92 527.19,-162.66"/>
<polygon fill="midnightblue" stroke="midnightblue" points="527.48,-159.15 517.01,-160.76 526.2,-166.03 527.48,-159.15"/>
</g>
<!-- Node25&#45;&gt;Node10 -->
<g id="edge33" class="edge">
<title>Node25&#45;&gt;Node10</title>
<path fill="none" stroke="midnightblue" d="M840,-206.8C840,-181.84 840,-130.08 840,-102.22"/>
<polygon fill="midnightblue" stroke="midnightblue" points="843.5,-102.2 840,-92.2 836.5,-102.2 843.5,-102.2"/>
</g>
<!-- Node25&#45;&gt;Node22 -->
<g id="edge35" class="edge">
<title>Node25&#45;&gt;Node22</title>
<path fill="none" stroke="midnightblue" d="M899.69,-207.75C910.12,-205.47 920.87,-203.15 931,-201 1009.1,-184.43 1030.34,-187.31 1107,-165 1109.58,-164.25 1112.23,-163.4 1114.88,-162.5"/>
<polygon fill="midnightblue" stroke="midnightblue" points="1116.09,-165.79 1124.3,-159.1 1113.71,-159.2 1116.09,-165.79"/>
</g>
<!-- Node26 -->
<g id="node26" class="node">
<title>Node26</title>
<g id="a_node26"><a xlink:title=" ">
<polygon fill="white" stroke="#bfbfbf" points="1032.5,-140 1032.5,-159 1097.5,-159 1097.5,-140 1032.5,-140"/>
<text text-anchor="middle" x="1065" y="-147" font-family="Helvetica,sans-Serif" font-size="10.00">stdexcept</text>
</a>
</g>
</g>
<!-- Node25&#45;&gt;Node26 -->
<g id="edge32" class="edge">
<title>Node25&#45;&gt;Node26</title>
<path fill="none" stroke="midnightblue" d="M887.54,-206.96C924.56,-195.9 977.19,-179.91 1023,-165 1025.59,-164.16 1028.27,-163.27 1030.96,-162.37"/>
<polygon fill="midnightblue" stroke="midnightblue" points="1032.28,-165.61 1040.62,-159.08 1030.02,-158.99 1032.28,-165.61"/>
</g>
<!-- Node27 -->
<g id="node27" class="node">
<title>Node27</title>
<g id="a_node27"><a xlink:title=" ">
<polygon fill="white" stroke="#bfbfbf" points="764.5,-140 764.5,-159 811.5,-159 811.5,-140 764.5,-140"/>
<text text-anchor="middle" x="788" y="-147" font-family="Helvetica,sans-Serif" font-size="10.00">deque</text>
</a>
</g>
</g>
<!-- Node25&#45;&gt;Node27 -->
<g id="edge34" class="edge">
<title>Node25&#45;&gt;Node27</title>
<path fill="none" stroke="midnightblue" d="M829.48,-206.73C821.15,-195.45 809.5,-179.65 800.67,-167.67"/>
<polygon fill="midnightblue" stroke="midnightblue" points="803.31,-165.36 794.56,-159.39 797.68,-169.52 803.31,-165.36"/>
</g>
<!-- Node28 -->
<g id="node28" class="node">
<title>Node28</title>
<g id="a_node28"><a xlink:title=" ">
<polygon fill="white" stroke="#bfbfbf" points="868,-134.5 868,-164.5 1014,-164.5 1014,-134.5 868,-134.5"/>
<text text-anchor="start" x="876" y="-152.5" font-family="Helvetica,sans-Serif" font-size="10.00">packages/exceptions</text>
<text text-anchor="middle" x="941" y="-141.5" font-family="Helvetica,sans-Serif" font-size="10.00">/impl/exceptions_impl.hpp</text>
</a>
</g>
</g>
<!-- Node25&#45;&gt;Node28 -->
<g id="edge36" class="edge">
<title>Node25&#45;&gt;Node28</title>
<path fill="none" stroke="midnightblue" d="M860.44,-206.73C875.46,-196.25 896.06,-181.87 912.67,-170.28"/>
<polygon fill="midnightblue" stroke="midnightblue" points="914.74,-173.1 920.94,-164.5 910.73,-167.36 914.74,-173.1"/>
</g>
<!-- Node30&#45;&gt;Node2 -->
<g id="edge49" class="edge">
<title>Node30&#45;&gt;Node2</title>
<path fill="none" stroke="midnightblue" d="M485.8,-435.4C471.69,-426.44 453.01,-414.58 436.43,-404.04"/>
<polygon fill="midnightblue" stroke="midnightblue" points="438.3,-401.09 427.99,-398.68 434.55,-407 438.3,-401.09"/>
</g>
<!-- Node30&#45;&gt;Node5 -->
<g id="edge50" class="edge">
<title>Node30&#45;&gt;Node5</title>
<path fill="none" stroke="midnightblue" d="M521.71,-435.38C529.9,-425.92 539.56,-412.73 544,-399 571.09,-315.27 588.12,-277.71 545,-201 537.34,-187.37 524.34,-176.99 510.88,-169.29"/>
<polygon fill="midnightblue" stroke="midnightblue" points="512.5,-166.19 502.02,-164.62 509.23,-172.38 512.5,-166.19"/>
</g>
<!-- Node31 -->
<g id="node31" class="node">
<title>Node31</title>
<g id="a_node31"><a xlink:href="checks_8hpp.html" target="_top" xlink:title=" ">
<polygon fill="white" stroke="black" points="734.5,-363 734.5,-393 853.5,-393 853.5,-363 734.5,-363"/>
<text text-anchor="start" x="742.5" y="-381" font-family="Helvetica,sans-Serif" font-size="10.00">packages/macros/inc</text>
<text text-anchor="middle" x="794" y="-370" font-family="Helvetica,sans-Serif" font-size="10.00">/checks.hpp</text>
</a>
</g>
</g>
<!-- Node30&#45;&gt;Node31 -->
<g id="edge41" class="edge">
<title>Node30&#45;&gt;Node31</title>
<path fill="none" stroke="midnightblue" d="M564.85,-435.49C611.48,-423.99 677.61,-407.69 726.85,-395.55"/>
<polygon fill="midnightblue" stroke="midnightblue" points="727.9,-398.9 736.77,-393.11 726.23,-392.1 727.9,-398.9"/>
</g>
<!-- Node34 -->
<g id="node34" class="node">
<title>Node34</title>
<g id="a_node34"><a xlink:title=" ">
<polygon fill="white" stroke="#bfbfbf" points="483,-368.5 483,-387.5 535,-387.5 535,-368.5 483,-368.5"/>
<text text-anchor="middle" x="509" y="-375.5" font-family="Helvetica,sans-Serif" font-size="10.00">cassert</text>
</a>
</g>
</g>
<!-- Node30&#45;&gt;Node34 -->
<g id="edge51" class="edge">
<title>Node30&#45;&gt;Node34</title>
<path fill="none" stroke="midnightblue" d="M508.2,-435.23C508.35,-424.5 508.56,-409.69 508.73,-397.96"/>
<polygon fill="midnightblue" stroke="midnightblue" points="512.23,-397.94 508.87,-387.89 505.23,-397.84 512.23,-397.94"/>
</g>
<!-- Node31&#45;&gt;Node7 -->
<g id="edge44" class="edge">
<title>Node31&#45;&gt;Node7</title>
<path fill="none" stroke="midnightblue" d="M853.69,-369.16C975.22,-351.51 1240,-303.79 1240,-223 1240,-223 1240,-223 1240,-148.5 1240,-54.91 924.34,-27.14 780.69,-19.36"/>
<polygon fill="midnightblue" stroke="midnightblue" points="780.82,-15.86 770.65,-18.83 780.46,-22.85 780.82,-15.86"/>
</g>
<!-- Node31&#45;&gt;Node24 -->
<g id="edge43" class="edge">
<title>Node31&#45;&gt;Node24</title>
<path fill="none" stroke="midnightblue" d="M785.72,-362.7C779.46,-351.88 770.71,-336.77 763.44,-324.22"/>
<polygon fill="midnightblue" stroke="midnightblue" points="766.28,-322.13 758.24,-315.23 760.22,-325.64 766.28,-322.13"/>
</g>
<!-- Node31&#45;&gt;Node25 -->
<g id="edge42" class="edge">
<title>Node31&#45;&gt;Node25</title>
<path fill="none" stroke="midnightblue" d="M801.44,-362.59C806.93,-351.47 814.24,-335.58 819,-321 827.02,-296.44 832.8,-267.39 836.24,-247.33"/>
<polygon fill="midnightblue" stroke="midnightblue" points="839.74,-247.64 837.91,-237.2 832.83,-246.5 839.74,-247.64"/>
</g>
<!-- Node31&#45;&gt;Node29 -->
<g id="edge48" class="edge">
<title>Node31&#45;&gt;Node29</title>
<path fill="none" stroke="midnightblue" d="M744.83,-362.98C722.63,-354.28 697.87,-340.88 682,-321 663.66,-298.02 659.05,-263.05 658.05,-241.69"/>
<polygon fill="midnightblue" stroke="midnightblue" points="661.55,-241.55 657.81,-231.64 654.55,-241.72 661.55,-241.55"/>
</g>
<!-- Node32 -->
<g id="node32" class="node">
<title>Node32</title>
<g id="a_node32"><a xlink:href="cmake__variables_8hpp.html" target="_top" xlink:title=" ">
<polygon fill="white" stroke="black" points="955,-290.5 955,-309.5 1075,-309.5 1075,-290.5 955,-290.5"/>
<text text-anchor="middle" x="1015" y="-297.5" font-family="Helvetica,sans-Serif" font-size="10.00">cmake_variables.hpp</text>
</a>
</g>
</g>
<!-- Node31&#45;&gt;Node32 -->
<g id="edge45" class="edge">
<title>Node31&#45;&gt;Node32</title>
<path fill="none" stroke="midnightblue" d="M834.79,-362.97C876.67,-348.57 941.12,-326.41 980.53,-312.85"/>
<polygon fill="midnightblue" stroke="midnightblue" points="981.9,-316.08 990.22,-309.52 979.63,-309.46 981.9,-316.08"/>
</g>
<!-- Node32&#45;&gt;Node10 -->
<g id="edge47" class="edge">
<title>Node32&#45;&gt;Node10</title>
<path fill="none" stroke="midnightblue" d="M1036.77,-290.39C1093.63,-266.73 1238.44,-198.2 1183,-134 1142.99,-87.66 949.97,-83.08 872.39,-83.15"/>
<polygon fill="midnightblue" stroke="midnightblue" points="872.22,-79.65 862.23,-83.19 872.25,-86.65 872.22,-79.65"/>
</g>
<!-- Node33 -->
<g id="node33" class="node">
<title>Node33</title>
<g id="a_node33"><a xlink:title=" ">
<polygon fill="white" stroke="#bfbfbf" points="981,-212.5 981,-231.5 1049,-231.5 1049,-212.5 981,-212.5"/>
<text text-anchor="middle" x="1015" y="-219.5" font-family="Helvetica,sans-Serif" font-size="10.00">filesystem</text>
</a>
</g>
</g>
<!-- Node32&#45;&gt;Node33 -->
<g id="edge46" class="edge">
<title>Node32&#45;&gt;Node33</title>
<path fill="none" stroke="midnightblue" d="M1015,-290.28C1015,-278.49 1015,-257.13 1015,-241.64"/>
<polygon fill="midnightblue" stroke="midnightblue" points="1018.5,-241.62 1015,-231.62 1011.5,-241.62 1018.5,-241.62"/>
</g>
</g>
</svg>
