<?xml version="1.0" encoding="UTF-8" standalone="no"?>
<!DOCTYPE svg PUBLIC "-//W3C//DTD SVG 1.1//EN"
 "http://www.w3.org/Graphics/SVG/1.1/DTD/svg11.dtd">
<!-- Generated by graphviz version 2.43.0 (0)
 -->
<!-- Title: StrongTypeDef_overloads.hpp Pages: 1 -->
<svg width="170pt" height="82pt"
 viewBox="0.00 0.00 170.00 82.00" xmlns="http://www.w3.org/2000/svg" xmlns:xlink="http://www.w3.org/1999/xlink">
<g id="graph0" class="graph" transform="scale(1 1) rotate(0) translate(4 78)">
<title>StrongTypeDef_overloads.hpp</title>
<!-- Node1 -->
<g id="Node000001" class="node">
<title>Node1</title>
<g id="a_Node000001"><a xlink:title=" ">
<polygon fill="#999999" stroke="#666666" points="162,-74 0,-74 0,-55 162,-55 162,-74"/>
<text text-anchor="middle" x="81" y="-62" font-family="Helvetica,sans-Serif" font-size="10.00">StrongTypeDef_overloads.hpp</text>
</a>
</g>
</g>
<!-- Node2 -->
<g id="Node000002" class="node">
<title>Node2</title>
<g id="a_Node000002"><a xlink:href="StrongTypeDef_8hpp.html" target="_top" xlink:title=" ">
<polygon fill="white" stroke="#666666" points="135,-19 27,-19 27,0 135,0 135,-19"/>
<text text-anchor="middle" x="81" y="-7" font-family="Helvetica,sans-Serif" font-size="10.00">StrongTypeDef.hpp</text>
</a>
</g>
</g>
<!-- Node1&#45;&gt;Node2 -->
<g id="edge1_Node000001_Node000002" class="edge">
<title>Node1&#45;&gt;Node2</title>
<g id="a_edge1_Node000001_Node000002"><a xlink:title=" ">
<path fill="none" stroke="#63b8ff" d="M74.51,-44.66C73.91,-35.93 74.36,-25.99 75.87,-19.09"/>
<polygon fill="#63b8ff" stroke="#63b8ff" points="71.06,-45.29 75.83,-54.75 78,-44.38 71.06,-45.29"/>
</a>
</g>
</g>
<!-- Node2&#45;&gt;Node1 -->
<g id="edge2_Node000002_Node000001" class="edge">
<title>Node2&#45;&gt;Node1</title>
<g id="a_edge2_Node000002_Node000001"><a xlink:title=" ">
<path fill="none" stroke="#63b8ff" d="M87.48,-29.13C88.1,-37.85 87.66,-47.8 86.17,-54.75"/>
<polygon fill="#63b8ff" stroke="#63b8ff" points="90.93,-28.53 86.13,-19.09 83.99,-29.47 90.93,-28.53"/>
</a>
</g>
</g>
</g>
</svg>
