<?xml version="1.0" encoding="UTF-8" standalone="no"?>
<!DOCTYPE svg PUBLIC "-//W3C//DTD SVG 1.1//EN"
 "http://www.w3.org/Graphics/SVG/1.1/DTD/svg11.dtd">
<!-- Generated by graphviz version 2.43.0 (0)
 -->
<!-- Title: StrongTypeDef.hpp Pages: 1 -->
<svg width="1139pt" height="313pt"
 viewBox="0.00 0.00 1138.50 313.00" xmlns="http://www.w3.org/2000/svg" xmlns:xlink="http://www.w3.org/1999/xlink">
<g id="graph0" class="graph" transform="scale(1 1) rotate(0) translate(4 309)">
<title>StrongTypeDef.hpp</title>
<!-- Node1 -->
<g id="Node000001" class="node">
<title>Node1</title>
<g id="a_Node000001"><a xlink:title=" ">
<polygon fill="#999999" stroke="#666666" points="913.5,-305 805.5,-305 805.5,-286 913.5,-286 913.5,-305"/>
<text text-anchor="middle" x="859.5" y="-293" font-family="Helvetica,sans-Serif" font-size="10.00">StrongTypeDef.hpp</text>
</a>
</g>
</g>
<!-- Node2 -->
<g id="Node000002" class="node">
<title>Node2</title>
<g id="a_Node000002"><a xlink:href="basic__concepts_8hpp.html" target="_top" xlink:title=" ">
<polygon fill="white" stroke="#666666" points="731.5,-250 599.5,-250 599.5,-209 731.5,-209 731.5,-250"/>
<text text-anchor="start" x="607.5" y="-238" font-family="Helvetica,sans-Serif" font-size="10.00">packages/compile_time</text>
<text text-anchor="start" x="607.5" y="-227" font-family="Helvetica,sans-Serif" font-size="10.00">/packages/concepts/inc</text>
<text text-anchor="middle" x="665.5" y="-216" font-family="Helvetica,sans-Serif" font-size="10.00">/basic_concepts.hpp</text>
</a>
</g>
</g>
<!-- Node1&#45;&gt;Node2 -->
<g id="edge1_Node000001_Node000002" class="edge">
<title>Node1&#45;&gt;Node2</title>
<g id="a_edge1_Node000001_Node000002"><a xlink:title=" ">
<path fill="none" stroke="#63b8ff" d="M833.34,-285.87C808,-277.51 768.49,-264.48 734.16,-253.15"/>
<polygon fill="#63b8ff" stroke="#63b8ff" points="735.23,-249.82 724.64,-250.01 733.04,-256.47 735.23,-249.82"/>
</a>
</g>
</g>
<!-- Node13 -->
<g id="Node000013" class="node">
<title>Node13</title>
<g id="a_Node000013"><a xlink:title=" ">
<polygon fill="#e0e0e0" stroke="#999999" points="811.5,-162 751.5,-162 751.5,-143 811.5,-143 811.5,-162"/>
<text text-anchor="middle" x="781.5" y="-150" font-family="Helvetica,sans-Serif" font-size="10.00">concepts</text>
</a>
</g>
</g>
<!-- Node1&#45;&gt;Node13 -->
<g id="edge16_Node000001_Node000013" class="edge">
<title>Node1&#45;&gt;Node13</title>
<g id="a_edge16_Node000001_Node000013"><a xlink:title=" ">
<path fill="none" stroke="#63b8ff" d="M835.83,-286C819.89,-278.95 799.93,-267.25 789.5,-250 775.12,-226.21 775.98,-192.88 778.39,-172.27"/>
<polygon fill="#63b8ff" stroke="#63b8ff" points="781.87,-172.66 779.8,-162.27 774.94,-171.68 781.87,-172.66"/>
</a>
</g>
</g>
<!-- Node16 -->
<g id="Node000016" class="node">
<title>Node16</title>
<g id="a_Node000016"><a xlink:title=" ">
<polygon fill="#e0e0e0" stroke="#999999" points="846.5,-239 798.5,-239 798.5,-220 846.5,-220 846.5,-239"/>
<text text-anchor="middle" x="822.5" y="-227" font-family="Helvetica,sans-Serif" font-size="10.00">iosfwd</text>
</a>
</g>
</g>
<!-- Node1&#45;&gt;Node16 -->
<g id="edge17_Node000001_Node000016" class="edge">
<title>Node1&#45;&gt;Node16</title>
<g id="a_edge17_Node000001_Node000016"><a xlink:title=" ">
<path fill="none" stroke="#63b8ff" d="M854.51,-285.87C848.97,-276.28 839.87,-260.55 832.79,-248.3"/>
<polygon fill="#63b8ff" stroke="#63b8ff" points="835.68,-246.31 827.65,-239.41 829.62,-249.81 835.68,-246.31"/>
</a>
</g>
</g>
<!-- Node17 -->
<g id="Node000017" class="node">
<title>Node17</title>
<g id="a_Node000017"><a xlink:title=" ">
<polygon fill="#e0e0e0" stroke="#999999" points="930,-239 865,-239 865,-220 930,-220 930,-239"/>
<text text-anchor="middle" x="897.5" y="-227" font-family="Helvetica,sans-Serif" font-size="10.00">functional</text>
</a>
</g>
</g>
<!-- Node1&#45;&gt;Node17 -->
<g id="edge18_Node000001_Node000017" class="edge">
<title>Node1&#45;&gt;Node17</title>
<g id="a_edge18_Node000001_Node000017"><a xlink:title=" ">
<path fill="none" stroke="#63b8ff" d="M864.62,-285.87C870.32,-276.28 879.66,-260.55 886.93,-248.3"/>
<polygon fill="#63b8ff" stroke="#63b8ff" points="890.12,-249.79 892.21,-239.41 884.1,-246.22 890.12,-249.79"/>
</a>
</g>
</g>
<!-- Node18 -->
<g id="Node000018" class="node">
<title>Node18</title>
<g id="a_Node000018"><a xlink:href="StrongTypeDef__overloads_8hpp.html" target="_top" xlink:title=" ">
<polygon fill="white" stroke="#666666" points="1130.5,-244.5 948.5,-244.5 948.5,-214.5 1130.5,-214.5 1130.5,-244.5"/>
<text text-anchor="start" x="956.5" y="-232.5" font-family="Helvetica,sans-Serif" font-size="10.00">packages/stl_extension</text>
<text text-anchor="middle" x="1039.5" y="-221.5" font-family="Helvetica,sans-Serif" font-size="10.00">/inc/StrongTypeDef_overloads.hpp</text>
</a>
</g>
</g>
<!-- Node1&#45;&gt;Node18 -->
<g id="edge19_Node000001_Node000018" class="edge">
<title>Node1&#45;&gt;Node18</title>
<g id="a_edge19_Node000001_Node000018"><a xlink:title=" ">
<path fill="none" stroke="#63b8ff" d="M878.99,-285.87C904.11,-276.2 948.47,-260.27 984.25,-247.98"/>
<polygon fill="#63b8ff" stroke="#63b8ff" points="985.76,-251.16 994.09,-244.62 983.5,-244.54 985.76,-251.16"/>
</a>
</g>
</g>
<!-- Node3 -->
<g id="Node000003" class="node">
<title>Node3</title>
<g id="a_Node000003"><a xlink:href="types_8hpp.html" target="_top" xlink:title=" ">
<polygon fill="white" stroke="#666666" points="455.5,-167.5 345.5,-167.5 345.5,-137.5 455.5,-137.5 455.5,-167.5"/>
<text text-anchor="start" x="353.5" y="-155.5" font-family="Helvetica,sans-Serif" font-size="10.00">packages/types/inc</text>
<text text-anchor="middle" x="400.5" y="-144.5" font-family="Helvetica,sans-Serif" font-size="10.00">/types.hpp</text>
</a>
</g>
</g>
<!-- Node2&#45;&gt;Node3 -->
<g id="edge2_Node000002_Node000003" class="edge">
<title>Node2&#45;&gt;Node3</title>
<g id="a_edge2_Node000002_Node000003"><a xlink:title=" ">
<path fill="none" stroke="#63b8ff" d="M599.31,-209.77C556.45,-197.64 501.12,-181.98 459.71,-170.26"/>
<polygon fill="#63b8ff" stroke="#63b8ff" points="460.61,-166.88 450.04,-167.52 458.7,-173.61 460.61,-166.88"/>
</a>
</g>
</g>
<!-- Node9 -->
<g id="Node000009" class="node">
<title>Node9</title>
<g id="a_Node000009"><a xlink:title=" ">
<polygon fill="#e0e0e0" stroke="#999999" points="734,-90.5 665,-90.5 665,-71.5 734,-71.5 734,-90.5"/>
<text text-anchor="middle" x="699.5" y="-78.5" font-family="Helvetica,sans-Serif" font-size="10.00">type_traits</text>
</a>
</g>
</g>
<!-- Node2&#45;&gt;Node9 -->
<g id="edge13_Node000002_Node000009" class="edge">
<title>Node2&#45;&gt;Node9</title>
<g id="a_edge13_Node000002_Node000009"><a xlink:title=" ">
<path fill="none" stroke="#63b8ff" d="M638.36,-208.91C627.53,-199.43 616.28,-187.05 610.5,-173 603.56,-156.15 601.3,-147.73 610.5,-132 617.23,-120.51 646.73,-105.27 669.95,-94.66"/>
<polygon fill="#63b8ff" stroke="#63b8ff" points="671.42,-97.83 679.11,-90.55 668.55,-91.44 671.42,-97.83"/>
</a>
</g>
</g>
<!-- Node2&#45;&gt;Node13 -->
<g id="edge12_Node000002_Node000013" class="edge">
<title>Node2&#45;&gt;Node13</title>
<g id="a_edge12_Node000002_Node000013"><a xlink:title=" ">
<path fill="none" stroke="#63b8ff" d="M695.67,-208.99C715.68,-196.05 741.48,-179.38 759.55,-167.69"/>
<polygon fill="#63b8ff" stroke="#63b8ff" points="761.72,-170.46 768.22,-162.09 757.92,-164.58 761.72,-170.46"/>
</a>
</g>
</g>
<!-- Node14 -->
<g id="Node000014" class="node">
<title>Node14</title>
<g id="a_Node000014"><a xlink:title=" ">
<polygon fill="#e0e0e0" stroke="#999999" points="669.5,-162 619.5,-162 619.5,-143 669.5,-143 669.5,-162"/>
<text text-anchor="middle" x="644.5" y="-150" font-family="Helvetica,sans-Serif" font-size="10.00">cstdint</text>
</a>
</g>
</g>
<!-- Node2&#45;&gt;Node14 -->
<g id="edge14_Node000002_Node000014" class="edge">
<title>Node2&#45;&gt;Node14</title>
<g id="a_edge14_Node000002_Node000014"><a xlink:title=" ">
<path fill="none" stroke="#63b8ff" d="M659.98,-208.79C656.81,-197.47 652.85,-183.32 649.73,-172.17"/>
<polygon fill="#63b8ff" stroke="#63b8ff" points="653.01,-170.92 646.95,-162.24 646.27,-172.81 653.01,-170.92"/>
</a>
</g>
</g>
<!-- Node15 -->
<g id="Node000015" class="node">
<title>Node15</title>
<g id="a_Node000015"><a xlink:title=" ">
<polygon fill="#e0e0e0" stroke="#999999" points="733,-162 688,-162 688,-143 733,-143 733,-162"/>
<text text-anchor="middle" x="710.5" y="-150" font-family="Helvetica,sans-Serif" font-size="10.00">utility</text>
</a>
</g>
</g>
<!-- Node2&#45;&gt;Node15 -->
<g id="edge15_Node000002_Node000015" class="edge">
<title>Node2&#45;&gt;Node15</title>
<g id="a_edge15_Node000002_Node000015"><a xlink:title=" ">
<path fill="none" stroke="#63b8ff" d="M677.32,-208.79C684.33,-197.11 693.14,-182.43 699.92,-171.13"/>
<polygon fill="#63b8ff" stroke="#63b8ff" points="703.11,-172.61 705.26,-162.24 697.11,-169.01 703.11,-172.61"/>
</a>
</g>
</g>
<!-- Node4 -->
<g id="Node000004" class="node">
<title>Node4</title>
<g id="a_Node000004"><a xlink:href="debug_8hpp.html" target="_top" xlink:title=" ">
<polygon fill="white" stroke="#666666" points="173,-96 54,-96 54,-66 173,-66 173,-96"/>
<text text-anchor="start" x="62" y="-84" font-family="Helvetica,sans-Serif" font-size="10.00">packages/macros/inc</text>
<text text-anchor="middle" x="113.5" y="-73" font-family="Helvetica,sans-Serif" font-size="10.00">/debug.hpp</text>
</a>
</g>
</g>
<!-- Node3&#45;&gt;Node4 -->
<g id="edge3_Node000003_Node000004" class="edge">
<title>Node3&#45;&gt;Node4</title>
<g id="a_edge3_Node000003_Node000004"><a xlink:title=" ">
<path fill="none" stroke="#63b8ff" d="M345.16,-138.1C298.43,-126.78 231.34,-110.54 181.38,-98.44"/>
<polygon fill="#63b8ff" stroke="#63b8ff" points="182.16,-95.03 171.62,-96.07 180.52,-101.83 182.16,-95.03"/>
</a>
</g>
</g>
<!-- Node7 -->
<g id="Node000007" class="node">
<title>Node7</title>
<g id="a_Node000007"><a xlink:title=" ">
<polygon fill="#e0e0e0" stroke="#999999" points="244,-90.5 191,-90.5 191,-71.5 244,-71.5 244,-90.5"/>
<text text-anchor="middle" x="217.5" y="-78.5" font-family="Helvetica,sans-Serif" font-size="10.00">cstddef</text>
</a>
</g>
</g>
<!-- Node3&#45;&gt;Node7 -->
<g id="edge6_Node000003_Node000007" class="edge">
<title>Node3&#45;&gt;Node7</title>
<g id="a_edge6_Node000003_Node000007"><a xlink:title=" ">
<path fill="none" stroke="#63b8ff" d="M363,-137.46C333.27,-126.3 290.69,-110.25 253.5,-96 252.09,-95.46 250.65,-94.91 249.2,-94.35"/>
<polygon fill="#63b8ff" stroke="#63b8ff" points="250.16,-90.97 239.57,-90.62 247.64,-97.5 250.16,-90.97"/>
</a>
</g>
</g>
<!-- Node8 -->
<g id="Node000008" class="node">
<title>Node8</title>
<g id="a_Node000008"><a xlink:title=" ">
<polygon fill="#e0e0e0" stroke="#999999" points="306.5,-90.5 262.5,-90.5 262.5,-71.5 306.5,-71.5 306.5,-90.5"/>
<text text-anchor="middle" x="284.5" y="-78.5" font-family="Helvetica,sans-Serif" font-size="10.00">string</text>
</a>
</g>
</g>
<!-- Node3&#45;&gt;Node8 -->
<g id="edge7_Node000003_Node000008" class="edge">
<title>Node3&#45;&gt;Node8</title>
<g id="a_edge7_Node000003_Node000008"><a xlink:title=" ">
<path fill="none" stroke="#63b8ff" d="M377.03,-137.44C356.79,-125.31 327.75,-107.91 307.62,-95.85"/>
<polygon fill="#63b8ff" stroke="#63b8ff" points="309.18,-92.7 298.8,-90.57 305.58,-98.71 309.18,-92.7"/>
</a>
</g>
</g>
<!-- Node3&#45;&gt;Node9 -->
<g id="edge8_Node000003_Node000009" class="edge">
<title>Node3&#45;&gt;Node9</title>
<g id="a_edge8_Node000003_Node000009"><a xlink:title=" ">
<path fill="none" stroke="#63b8ff" d="M455.57,-141.06C507.46,-130.87 587.22,-114.25 655.5,-96 658.33,-95.24 661.25,-94.42 664.18,-93.56"/>
<polygon fill="#63b8ff" stroke="#63b8ff" points="665.48,-96.82 674.03,-90.55 663.44,-90.12 665.48,-96.82"/>
</a>
</g>
</g>
<!-- Node10 -->
<g id="Node000010" class="node">
<title>Node10</title>
<g id="a_Node000010"><a xlink:title=" ">
<polygon fill="#e0e0e0" stroke="#999999" points="374.5,-90.5 324.5,-90.5 324.5,-71.5 374.5,-71.5 374.5,-90.5"/>
<text text-anchor="middle" x="349.5" y="-78.5" font-family="Helvetica,sans-Serif" font-size="10.00">climits</text>
</a>
</g>
</g>
<!-- Node3&#45;&gt;Node10 -->
<g id="edge9_Node000003_Node000010" class="edge">
<title>Node3&#45;&gt;Node10</title>
<g id="a_edge9_Node000003_Node000010"><a xlink:title=" ">
<path fill="none" stroke="#63b8ff" d="M390.18,-137.44C382.02,-126.31 370.59,-110.74 361.92,-98.93"/>
<polygon fill="#63b8ff" stroke="#63b8ff" points="364.67,-96.76 355.93,-90.77 359.03,-100.9 364.67,-96.76"/>
</a>
</g>
</g>
<!-- Node11 -->
<g id="Node000011" class="node">
<title>Node11</title>
<g id="a_Node000011"><a xlink:title=" ">
<polygon fill="#e0e0e0" stroke="#999999" points="510,-96 393,-96 393,-66 510,-66 510,-96"/>
<text text-anchor="start" x="401" y="-84" font-family="Helvetica,sans-Serif" font-size="10.00">packages/types/impl</text>
<text text-anchor="middle" x="451.5" y="-73" font-family="Helvetica,sans-Serif" font-size="10.00">/types_impl.hpp</text>
</a>
</g>
</g>
<!-- Node3&#45;&gt;Node11 -->
<g id="edge10_Node000003_Node000011" class="edge">
<title>Node3&#45;&gt;Node11</title>
<g id="a_edge10_Node000003_Node000011"><a xlink:title=" ">
<path fill="none" stroke="#63b8ff" d="M410.82,-137.44C417.8,-127.92 427.17,-115.15 435.16,-104.27"/>
<polygon fill="#63b8ff" stroke="#63b8ff" points="438.1,-106.18 441.19,-96.04 432.46,-102.04 438.1,-106.18"/>
</a>
</g>
</g>
<!-- Node12 -->
<g id="Node000012" class="node">
<title>Node12</title>
<g id="a_Node000012"><a xlink:href="logging_8hpp.html" target="_top" xlink:title=" ">
<polygon fill="white" stroke="#666666" points="647,-96 528,-96 528,-66 647,-66 647,-96"/>
<text text-anchor="start" x="536" y="-84" font-family="Helvetica,sans-Serif" font-size="10.00">packages/macros/inc</text>
<text text-anchor="middle" x="587.5" y="-73" font-family="Helvetica,sans-Serif" font-size="10.00">/logging.hpp</text>
</a>
</g>
</g>
<!-- Node3&#45;&gt;Node12 -->
<g id="edge11_Node000003_Node000012" class="edge">
<title>Node3&#45;&gt;Node12</title>
<g id="a_edge11_Node000003_Node000012"><a xlink:title=" ">
<path fill="none" stroke="#63b8ff" d="M438.34,-137.44C467.74,-126.51 508.69,-111.29 540.25,-99.56"/>
<polygon fill="#63b8ff" stroke="#63b8ff" points="541.56,-102.81 549.71,-96.04 539.12,-96.25 541.56,-102.81"/>
</a>
</g>
</g>
<!-- Node5 -->
<g id="Node000005" class="node">
<title>Node5</title>
<g id="a_Node000005"><a xlink:href="detail_8hpp.html" target="_top" xlink:title=" ">
<polygon fill="white" stroke="#666666" points="119,-30 0,-30 0,0 119,0 119,-30"/>
<text text-anchor="start" x="8" y="-18" font-family="Helvetica,sans-Serif" font-size="10.00">packages/macros/inc</text>
<text text-anchor="middle" x="59.5" y="-7" font-family="Helvetica,sans-Serif" font-size="10.00">/detail.hpp</text>
</a>
</g>
</g>
<!-- Node4&#45;&gt;Node5 -->
<g id="edge4_Node000004_Node000005" class="edge">
<title>Node4&#45;&gt;Node5</title>
<g id="a_edge4_Node000004_Node000005"><a xlink:title=" ">
<path fill="none" stroke="#63b8ff" d="M101.52,-65.8C94.59,-57.59 85.74,-47.1 77.95,-37.87"/>
<polygon fill="#63b8ff" stroke="#63b8ff" points="80.57,-35.55 71.45,-30.16 75.22,-40.06 80.57,-35.55"/>
</a>
</g>
</g>
<!-- Node6 -->
<g id="Node000006" class="node">
<title>Node6</title>
<g id="a_Node000006"><a xlink:title=" ">
<polygon fill="#e0e0e0" stroke="#999999" points="197.5,-24.5 137.5,-24.5 137.5,-5.5 197.5,-5.5 197.5,-24.5"/>
<text text-anchor="middle" x="167.5" y="-12.5" font-family="Helvetica,sans-Serif" font-size="10.00">iostream</text>
</a>
</g>
</g>
<!-- Node4&#45;&gt;Node6 -->
<g id="edge5_Node000004_Node000006" class="edge">
<title>Node4&#45;&gt;Node6</title>
<g id="a_edge5_Node000004_Node000006"><a xlink:title=" ">
<path fill="none" stroke="#63b8ff" d="M125.48,-65.8C133.74,-56.01 144.74,-42.98 153.41,-32.7"/>
<polygon fill="#63b8ff" stroke="#63b8ff" points="156.26,-34.74 160.04,-24.84 150.91,-30.23 156.26,-34.74"/>
</a>
</g>
</g>
<!-- Node18&#45;&gt;Node1 -->
<g id="edge20_Node000018_Node000001" class="edge">
<title>Node18&#45;&gt;Node1</title>
<g id="a_edge20_Node000018_Node000001"><a xlink:title=" ">
<path fill="none" stroke="#63b8ff" d="M1005.51,-244.62C974.99,-255.99 930.39,-271.81 898.45,-282.57"/>
<polygon fill="#63b8ff" stroke="#63b8ff" points="896.94,-279.38 888.56,-285.87 899.16,-286.02 896.94,-279.38"/>
</a>
</g>
</g>
<!-- Node19 -->
<g id="Node000019" class="node">
<title>Node19</title>
<g id="a_Node000019"><a xlink:title=" ">
<polygon fill="#e0e0e0" stroke="#999999" points="1124,-173 955,-173 955,-132 1124,-132 1124,-173"/>
<text text-anchor="start" x="963" y="-161" font-family="Helvetica,sans-Serif" font-size="10.00">packages/stl_extension</text>
<text text-anchor="start" x="963" y="-150" font-family="Helvetica,sans-Serif" font-size="10.00">/impl/StrongTypeDef_overloads</text>
<text text-anchor="middle" x="1039.5" y="-139" font-family="Helvetica,sans-Serif" font-size="10.00">_impl.hpp</text>
</a>
</g>
</g>
<!-- Node18&#45;&gt;Node19 -->
<g id="edge21_Node000018_Node000019" class="edge">
<title>Node18&#45;&gt;Node19</title>
<g id="a_edge21_Node000018_Node000019"><a xlink:title=" ">
<path fill="none" stroke="#63b8ff" d="M1039.5,-214.39C1039.5,-205.67 1039.5,-194.14 1039.5,-183.46"/>
<polygon fill="#63b8ff" stroke="#63b8ff" points="1043,-183.2 1039.5,-173.2 1036,-183.2 1043,-183.2"/>
</a>
</g>
</g>
</g>
</svg>
