<?xml version="1.0" encoding="UTF-8" standalone="no"?>
<!DOCTYPE svg PUBLIC "-//W3C//DTD SVG 1.1//EN"
 "http://www.w3.org/Graphics/SVG/1.1/DTD/svg11.dtd">
<!-- Generated by graphviz version 2.43.0 (0)
 -->
<!-- Title: StrongTypeDef.hpp Pages: 1 -->
<svg width="1139pt" height="318pt"
 viewBox="0.00 0.00 1138.50 318.00" xmlns="http://www.w3.org/2000/svg" xmlns:xlink="http://www.w3.org/1999/xlink">
<g id="graph0" class="graph" transform="scale(1 1) rotate(0) translate(4 314)">
<title>StrongTypeDef.hpp</title>
<polygon fill="white" stroke="transparent" points="-4,4 -4,-314 1134.5,-314 1134.5,4 -4,4"/>
<!-- Node1 -->
<g id="node1" class="node">
<title>Node1</title>
<g id="a_node1"><a xlink:title=" ">
<polygon fill="#bfbfbf" stroke="black" points="805.5,-290.5 805.5,-309.5 913.5,-309.5 913.5,-290.5 805.5,-290.5"/>
<text text-anchor="middle" x="859.5" y="-297.5" font-family="Helvetica,sans-Serif" font-size="10.00">StrongTypeDef.hpp</text>
</a>
</g>
</g>
<!-- Node2 -->
<g id="node2" class="node">
<title>Node2</title>
<g id="a_node2"><a xlink:href="basic__concepts_8hpp.html" target="_top" xlink:title=" ">
<polygon fill="white" stroke="black" points="599.5,-212.5 599.5,-253.5 731.5,-253.5 731.5,-212.5 599.5,-212.5"/>
<text text-anchor="start" x="607.5" y="-241.5" font-family="Helvetica,sans-Serif" font-size="10.00">packages/compile_time</text>
<text text-anchor="start" x="607.5" y="-230.5" font-family="Helvetica,sans-Serif" font-size="10.00">/packages/concepts/inc</text>
<text text-anchor="middle" x="665.5" y="-219.5" font-family="Helvetica,sans-Serif" font-size="10.00">/basic_concepts.hpp</text>
</a>
</g>
</g>
<!-- Node1&#45;&gt;Node2 -->
<g id="edge1" class="edge">
<title>Node1&#45;&gt;Node2</title>
<path fill="none" stroke="midnightblue" d="M833.74,-290.37C808.3,-281.85 768.3,-268.44 733.68,-256.84"/>
<polygon fill="midnightblue" stroke="midnightblue" points="734.67,-253.48 724.07,-253.63 732.44,-260.12 734.67,-253.48"/>
</g>
<!-- Node13 -->
<g id="node13" class="node">
<title>Node13</title>
<g id="a_node13"><a xlink:title=" ">
<polygon fill="white" stroke="#bfbfbf" points="751.5,-145.5 751.5,-164.5 811.5,-164.5 811.5,-145.5 751.5,-145.5"/>
<text text-anchor="middle" x="781.5" y="-152.5" font-family="Helvetica,sans-Serif" font-size="10.00">concepts</text>
</a>
</g>
</g>
<!-- Node1&#45;&gt;Node13 -->
<g id="edge16" class="edge">
<title>Node1&#45;&gt;Node13</title>
<path fill="none" stroke="midnightblue" d="M836.16,-290.49C820.15,-283.34 799.98,-271.47 789.5,-254 774.9,-229.67 775.89,-195.62 778.37,-174.73"/>
<polygon fill="midnightblue" stroke="midnightblue" points="781.87,-175.02 779.82,-164.62 774.94,-174.02 781.87,-175.02"/>
</g>
<!-- Node16 -->
<g id="node16" class="node">
<title>Node16</title>
<g id="a_node16"><a xlink:title=" ">
<polygon fill="white" stroke="#bfbfbf" points="798.5,-223.5 798.5,-242.5 846.5,-242.5 846.5,-223.5 798.5,-223.5"/>
<text text-anchor="middle" x="822.5" y="-230.5" font-family="Helvetica,sans-Serif" font-size="10.00">iosfwd</text>
</a>
</g>
</g>
<!-- Node1&#45;&gt;Node16 -->
<g id="edge17" class="edge">
<title>Node1&#45;&gt;Node16</title>
<path fill="none" stroke="midnightblue" d="M854.51,-290.23C848.91,-280.39 839.67,-264.16 832.55,-251.66"/>
<polygon fill="midnightblue" stroke="midnightblue" points="835.4,-249.59 827.41,-242.63 829.32,-253.05 835.4,-249.59"/>
</g>
<!-- Node17 -->
<g id="node17" class="node">
<title>Node17</title>
<g id="a_node17"><a xlink:title=" ">
<polygon fill="white" stroke="#bfbfbf" points="865,-223.5 865,-242.5 930,-242.5 930,-223.5 865,-223.5"/>
<text text-anchor="middle" x="897.5" y="-230.5" font-family="Helvetica,sans-Serif" font-size="10.00">functional</text>
</a>
</g>
</g>
<!-- Node1&#45;&gt;Node17 -->
<g id="edge18" class="edge">
<title>Node1&#45;&gt;Node17</title>
<path fill="none" stroke="midnightblue" d="M864.62,-290.23C870.44,-280.29 880.06,-263.84 887.39,-251.29"/>
<polygon fill="midnightblue" stroke="midnightblue" points="890.43,-253.03 892.46,-242.63 884.39,-249.49 890.43,-253.03"/>
</g>
<!-- Node18 -->
<g id="node18" class="node">
<title>Node18</title>
<g id="a_node18"><a xlink:href="StrongTypeDef__overloads_8hpp.html" target="_top" xlink:title=" ">
<polygon fill="white" stroke="black" points="948.5,-218 948.5,-248 1130.5,-248 1130.5,-218 948.5,-218"/>
<text text-anchor="start" x="956.5" y="-236" font-family="Helvetica,sans-Serif" font-size="10.00">packages/stl_extension</text>
<text text-anchor="middle" x="1039.5" y="-225" font-family="Helvetica,sans-Serif" font-size="10.00">/inc/StrongTypeDef_overloads.hpp</text>
</a>
</g>
</g>
<!-- Node1&#45;&gt;Node18 -->
<g id="edge19" class="edge">
<title>Node1&#45;&gt;Node18</title>
<path fill="none" stroke="midnightblue" d="M878.64,-290.37C904,-280.45 949.37,-263.91 985.53,-251.31"/>
<polygon fill="midnightblue" stroke="midnightblue" points="986.68,-254.61 994.98,-248.03 984.39,-248 986.68,-254.61"/>
</g>
<!-- Node3 -->
<g id="node3" class="node">
<title>Node3</title>
<g id="a_node3"><a xlink:href="types_8hpp.html" target="_top" xlink:title=" ">
<polygon fill="white" stroke="black" points="345.5,-140 345.5,-170 455.5,-170 455.5,-140 345.5,-140"/>
<text text-anchor="start" x="353.5" y="-158" font-family="Helvetica,sans-Serif" font-size="10.00">packages/types/inc</text>
<text text-anchor="middle" x="400.5" y="-147" font-family="Helvetica,sans-Serif" font-size="10.00">/types.hpp</text>
</a>
</g>
</g>
<!-- Node2&#45;&gt;Node3 -->
<g id="edge2" class="edge">
<title>Node2&#45;&gt;Node3</title>
<path fill="none" stroke="midnightblue" d="M599.31,-213.02C556.31,-200.69 500.75,-184.75 459.3,-172.86"/>
<polygon fill="midnightblue" stroke="midnightblue" points="460.2,-169.48 449.62,-170.09 458.27,-176.21 460.2,-169.48"/>
</g>
<!-- Node9 -->
<g id="node9" class="node">
<title>Node9</title>
<g id="a_node9"><a xlink:title=" ">
<polygon fill="white" stroke="#bfbfbf" points="665,-73 665,-92 734,-92 734,-73 665,-73"/>
<text text-anchor="middle" x="699.5" y="-80" font-family="Helvetica,sans-Serif" font-size="10.00">type_traits</text>
</a>
</g>
</g>
<!-- Node2&#45;&gt;Node9 -->
<g id="edge13" class="edge">
<title>Node2&#45;&gt;Node9</title>
<path fill="none" stroke="midnightblue" d="M638.64,-212.44C627.73,-202.83 616.33,-190.25 610.5,-176 603.43,-158.72 601.11,-150.13 610.5,-134 617.22,-122.46 646.72,-107.07 669.94,-96.32"/>
<polygon fill="midnightblue" stroke="midnightblue" points="671.45,-99.48 679.11,-92.16 668.56,-93.11 671.45,-99.48"/>
</g>
<!-- Node2&#45;&gt;Node13 -->
<g id="edge12" class="edge">
<title>Node2&#45;&gt;Node13</title>
<path fill="none" stroke="midnightblue" d="M695.37,-212.43C715.49,-199.24 741.58,-182.16 759.74,-170.26"/>
<polygon fill="midnightblue" stroke="midnightblue" points="762,-172.96 768.45,-164.55 758.16,-167.1 762,-172.96"/>
</g>
<!-- Node14 -->
<g id="node14" class="node">
<title>Node14</title>
<g id="a_node14"><a xlink:title=" ">
<polygon fill="white" stroke="#bfbfbf" points="619.5,-145.5 619.5,-164.5 669.5,-164.5 669.5,-145.5 619.5,-145.5"/>
<text text-anchor="middle" x="644.5" y="-152.5" font-family="Helvetica,sans-Serif" font-size="10.00">cstdint</text>
</a>
</g>
</g>
<!-- Node2&#45;&gt;Node14 -->
<g id="edge14" class="edge">
<title>Node2&#45;&gt;Node14</title>
<path fill="none" stroke="midnightblue" d="M660.09,-212.43C656.85,-200.7 652.75,-185.87 649.57,-174.36"/>
<polygon fill="midnightblue" stroke="midnightblue" points="652.9,-173.26 646.86,-164.55 646.15,-175.12 652.9,-173.26"/>
</g>
<!-- Node15 -->
<g id="node15" class="node">
<title>Node15</title>
<g id="a_node15"><a xlink:title=" ">
<polygon fill="white" stroke="#bfbfbf" points="688,-145.5 688,-164.5 733,-164.5 733,-145.5 688,-145.5"/>
<text text-anchor="middle" x="710.5" y="-152.5" font-family="Helvetica,sans-Serif" font-size="10.00">utility</text>
</a>
</g>
</g>
<!-- Node2&#45;&gt;Node15 -->
<g id="edge15" class="edge">
<title>Node2&#45;&gt;Node15</title>
<path fill="none" stroke="midnightblue" d="M677.09,-212.43C684.25,-200.33 693.36,-184.95 700.25,-173.3"/>
<polygon fill="midnightblue" stroke="midnightblue" points="703.35,-174.94 705.44,-164.55 697.33,-171.37 703.35,-174.94"/>
</g>
<!-- Node4 -->
<g id="node4" class="node">
<title>Node4</title>
<g id="a_node4"><a xlink:href="debug_8hpp.html" target="_top" xlink:title=" ">
<polygon fill="white" stroke="black" points="54,-67.5 54,-97.5 173,-97.5 173,-67.5 54,-67.5"/>
<text text-anchor="start" x="62" y="-85.5" font-family="Helvetica,sans-Serif" font-size="10.00">packages/macros/inc</text>
<text text-anchor="middle" x="113.5" y="-74.5" font-family="Helvetica,sans-Serif" font-size="10.00">/debug.hpp</text>
</a>
</g>
</g>
<!-- Node3&#45;&gt;Node4 -->
<g id="edge3" class="edge">
<title>Node3&#45;&gt;Node4</title>
<path fill="none" stroke="midnightblue" d="M345.16,-140.41C298.13,-128.85 230.46,-112.23 180.4,-99.93"/>
<polygon fill="midnightblue" stroke="midnightblue" points="181.18,-96.52 170.63,-97.53 179.51,-103.32 181.18,-96.52"/>
</g>
<!-- Node7 -->
<g id="node7" class="node">
<title>Node7</title>
<g id="a_node7"><a xlink:title=" ">
<polygon fill="white" stroke="#bfbfbf" points="191,-73 191,-92 244,-92 244,-73 191,-73"/>
<text text-anchor="middle" x="217.5" y="-80" font-family="Helvetica,sans-Serif" font-size="10.00">cstddef</text>
</a>
</g>
</g>
<!-- Node3&#45;&gt;Node7 -->
<g id="edge6" class="edge">
<title>Node3&#45;&gt;Node7</title>
<path fill="none" stroke="midnightblue" d="M362.96,-139.92C333.22,-128.72 290.62,-112.55 253.5,-98 251.66,-97.28 249.78,-96.54 247.88,-95.78"/>
<polygon fill="midnightblue" stroke="midnightblue" points="249,-92.46 238.41,-92 246.4,-98.96 249,-92.46"/>
</g>
<!-- Node8 -->
<g id="node8" class="node">
<title>Node8</title>
<g id="a_node8"><a xlink:title=" ">
<polygon fill="white" stroke="#bfbfbf" points="262.5,-73 262.5,-92 306.5,-92 306.5,-73 262.5,-73"/>
<text text-anchor="middle" x="284.5" y="-80" font-family="Helvetica,sans-Serif" font-size="10.00">string</text>
</a>
</g>
</g>
<!-- Node3&#45;&gt;Node8 -->
<g id="edge7" class="edge">
<title>Node3&#45;&gt;Node8</title>
<path fill="none" stroke="midnightblue" d="M377.3,-139.9C356.89,-127.5 327.36,-109.55 307.12,-97.25"/>
<polygon fill="midnightblue" stroke="midnightblue" points="308.9,-94.24 298.54,-92.03 305.27,-100.22 308.9,-94.24"/>
</g>
<!-- Node3&#45;&gt;Node9 -->
<g id="edge8" class="edge">
<title>Node3&#45;&gt;Node9</title>
<path fill="none" stroke="midnightblue" d="M455.61,-143.59C507.53,-133.38 587.3,-116.67 655.5,-98 658.68,-97.13 661.97,-96.17 665.25,-95.16"/>
<polygon fill="midnightblue" stroke="midnightblue" points="666.5,-98.44 674.97,-92.08 664.38,-91.77 666.5,-98.44"/>
</g>
<!-- Node10 -->
<g id="node10" class="node">
<title>Node10</title>
<g id="a_node10"><a xlink:title=" ">
<polygon fill="white" stroke="#bfbfbf" points="324.5,-73 324.5,-92 374.5,-92 374.5,-73 324.5,-73"/>
<text text-anchor="middle" x="349.5" y="-80" font-family="Helvetica,sans-Serif" font-size="10.00">climits</text>
</a>
</g>
</g>
<!-- Node3&#45;&gt;Node10 -->
<g id="edge9" class="edge">
<title>Node3&#45;&gt;Node10</title>
<path fill="none" stroke="midnightblue" d="M390.18,-139.73C382.02,-128.45 370.59,-112.65 361.92,-100.67"/>
<polygon fill="midnightblue" stroke="midnightblue" points="364.63,-98.44 355.93,-92.39 358.96,-102.55 364.63,-98.44"/>
</g>
<!-- Node11 -->
<g id="node11" class="node">
<title>Node11</title>
<g id="a_node11"><a xlink:title=" ">
<polygon fill="white" stroke="#bfbfbf" points="393,-67.5 393,-97.5 510,-97.5 510,-67.5 393,-67.5"/>
<text text-anchor="start" x="401" y="-85.5" font-family="Helvetica,sans-Serif" font-size="10.00">packages/types/impl</text>
<text text-anchor="middle" x="451.5" y="-74.5" font-family="Helvetica,sans-Serif" font-size="10.00">/types_impl.hpp</text>
</a>
</g>
</g>
<!-- Node3&#45;&gt;Node11 -->
<g id="edge10" class="edge">
<title>Node3&#45;&gt;Node11</title>
<path fill="none" stroke="midnightblue" d="M410.82,-139.73C417.8,-130.08 427.17,-117.13 435.16,-106.09"/>
<polygon fill="midnightblue" stroke="midnightblue" points="438.17,-107.9 441.19,-97.75 432.5,-103.8 438.17,-107.9"/>
</g>
<!-- Node12 -->
<g id="node12" class="node">
<title>Node12</title>
<g id="a_node12"><a xlink:href="logging_8hpp.html" target="_top" xlink:title=" ">
<polygon fill="white" stroke="black" points="528,-67.5 528,-97.5 647,-97.5 647,-67.5 528,-67.5"/>
<text text-anchor="start" x="536" y="-85.5" font-family="Helvetica,sans-Serif" font-size="10.00">packages/macros/inc</text>
<text text-anchor="middle" x="587.5" y="-74.5" font-family="Helvetica,sans-Serif" font-size="10.00">/logging.hpp</text>
</a>
</g>
</g>
<!-- Node3&#45;&gt;Node12 -->
<g id="edge11" class="edge">
<title>Node3&#45;&gt;Node12</title>
<path fill="none" stroke="midnightblue" d="M437.89,-139.9C467.45,-128.76 508.88,-113.14 540.65,-101.16"/>
<polygon fill="midnightblue" stroke="midnightblue" points="542.05,-104.38 550.17,-97.57 539.58,-97.83 542.05,-104.38"/>
</g>
<!-- Node5 -->
<g id="node5" class="node">
<title>Node5</title>
<g id="a_node5"><a xlink:href="detail_8hpp.html" target="_top" xlink:title=" ">
<polygon fill="white" stroke="black" points="0,-0.5 0,-30.5 119,-30.5 119,-0.5 0,-0.5"/>
<text text-anchor="start" x="8" y="-18.5" font-family="Helvetica,sans-Serif" font-size="10.00">packages/macros/inc</text>
<text text-anchor="middle" x="59.5" y="-7.5" font-family="Helvetica,sans-Serif" font-size="10.00">/detail.hpp</text>
</a>
</g>
</g>
<!-- Node4&#45;&gt;Node5 -->
<g id="edge4" class="edge">
<title>Node4&#45;&gt;Node5</title>
<path fill="none" stroke="midnightblue" d="M101.78,-67.4C94.78,-58.96 85.73,-48.07 77.79,-38.52"/>
<polygon fill="midnightblue" stroke="midnightblue" points="80.28,-36.03 71.19,-30.58 74.89,-40.51 80.28,-36.03"/>
</g>
<!-- Node6 -->
<g id="node6" class="node">
<title>Node6</title>
<g id="a_node6"><a xlink:title=" ">
<polygon fill="white" stroke="#bfbfbf" points="137.5,-6 137.5,-25 197.5,-25 197.5,-6 137.5,-6"/>
<text text-anchor="middle" x="167.5" y="-13" font-family="Helvetica,sans-Serif" font-size="10.00">iostream</text>
</a>
</g>
</g>
<!-- Node4&#45;&gt;Node6 -->
<g id="edge5" class="edge">
<title>Node4&#45;&gt;Node6</title>
<path fill="none" stroke="midnightblue" d="M125.22,-67.4C133.64,-57.26 145.01,-43.57 153.84,-32.94"/>
<polygon fill="midnightblue" stroke="midnightblue" points="156.58,-35.12 160.28,-25.19 151.19,-30.65 156.58,-35.12"/>
</g>
<!-- Node18&#45;&gt;Node1 -->
<g id="edge20" class="edge">
<title>Node18&#45;&gt;Node1</title>
<path fill="none" stroke="midnightblue" d="M1006.32,-248.03C975.56,-259.69 929.99,-276.11 897.72,-287.13"/>
<polygon fill="midnightblue" stroke="midnightblue" points="896.51,-283.85 888.16,-290.37 898.76,-290.48 896.51,-283.85"/>
</g>
<!-- Node19 -->
<g id="node19" class="node">
<title>Node19</title>
<g id="a_node19"><a xlink:title=" ">
<polygon fill="white" stroke="#bfbfbf" points="955,-134.5 955,-175.5 1124,-175.5 1124,-134.5 955,-134.5"/>
<text text-anchor="start" x="963" y="-163.5" font-family="Helvetica,sans-Serif" font-size="10.00">packages/stl_extension</text>
<text text-anchor="start" x="963" y="-152.5" font-family="Helvetica,sans-Serif" font-size="10.00">/impl/StrongTypeDef_overloads</text>
<text text-anchor="middle" x="1039.5" y="-141.5" font-family="Helvetica,sans-Serif" font-size="10.00">_impl.hpp</text>
</a>
</g>
</g>
<!-- Node18&#45;&gt;Node19 -->
<g id="edge21" class="edge">
<title>Node18&#45;&gt;Node19</title>
<path fill="none" stroke="midnightblue" d="M1039.5,-217.7C1039.5,-208.71 1039.5,-196.77 1039.5,-185.79"/>
<polygon fill="midnightblue" stroke="midnightblue" points="1043,-185.68 1039.5,-175.68 1036,-185.68 1043,-185.68"/>
</g>
</g>
</svg>
