<?xml version="1.0" encoding="UTF-8" standalone="no"?>
<!DOCTYPE svg PUBLIC "-//W3C//DTD SVG 1.1//EN"
 "http://www.w3.org/Graphics/SVG/1.1/DTD/svg11.dtd">
<!-- Generated by graphviz version 2.43.0 (0)
 -->
<!-- Title: StrongTypeDef.hpp Pages: 1 -->
<svg width="170pt" height="84pt"
 viewBox="0.00 0.00 170.00 84.00" xmlns="http://www.w3.org/2000/svg" xmlns:xlink="http://www.w3.org/1999/xlink">
<g id="graph0" class="graph" transform="scale(1 1) rotate(0) translate(4 80)">
<title>StrongTypeDef.hpp</title>
<polygon fill="white" stroke="transparent" points="-4,4 -4,-80 166,-80 166,4 -4,4"/>
<!-- Node1 -->
<g id="node1" class="node">
<title>Node1</title>
<g id="a_node1"><a xlink:title=" ">
<polygon fill="#bfbfbf" stroke="black" points="27,-56.5 27,-75.5 135,-75.5 135,-56.5 27,-56.5"/>
<text text-anchor="middle" x="81" y="-63.5" font-family="Helvetica,sans-Serif" font-size="10.00">StrongTypeDef.hpp</text>
</a>
</g>
</g>
<!-- Node2 -->
<g id="node2" class="node">
<title>Node2</title>
<g id="a_node2"><a xlink:href="StrongTypeDef__overloads_8hpp.html" target="_top" xlink:title=" ">
<polygon fill="white" stroke="black" points="0,-0.5 0,-19.5 162,-19.5 162,-0.5 0,-0.5"/>
<text text-anchor="middle" x="81" y="-7.5" font-family="Helvetica,sans-Serif" font-size="10.00">StrongTypeDef_overloads.hpp</text>
</a>
</g>
</g>
<!-- Node1&#45;&gt;Node2 -->
<g id="edge1" class="edge">
<title>Node1&#45;&gt;Node2</title>
<path fill="none" stroke="midnightblue" d="M74.53,-46.1C73.9,-37.14 74.34,-26.86 75.87,-19.75"/>
<polygon fill="midnightblue" stroke="midnightblue" points="71.07,-46.62 75.83,-56.08 78.01,-45.71 71.07,-46.62"/>
</g>
<!-- Node2&#45;&gt;Node1 -->
<g id="edge2" class="edge">
<title>Node2&#45;&gt;Node1</title>
<path fill="none" stroke="midnightblue" d="M87.46,-29.69C88.11,-38.64 87.68,-48.93 86.17,-56.08"/>
<polygon fill="midnightblue" stroke="midnightblue" points="90.92,-29.2 86.13,-19.75 83.98,-30.13 90.92,-29.2"/>
</g>
</g>
</svg>
