<?xml version="1.0" encoding="UTF-8" standalone="no"?>
<!DOCTYPE svg PUBLIC "-//W3C//DTD SVG 1.1//EN"
 "http://www.w3.org/Graphics/SVG/1.1/DTD/svg11.dtd">
<!-- Generated by graphviz version 2.43.0 (0)
 -->
<!-- Title: StrongTypeDef_overloads.hpp Pages: 1 -->
<svg width="1057pt" height="385pt"
 viewBox="0.00 0.00 1057.00 385.00" xmlns="http://www.w3.org/2000/svg" xmlns:xlink="http://www.w3.org/1999/xlink">
<g id="graph0" class="graph" transform="scale(1 1) rotate(0) translate(4 381)">
<title>StrongTypeDef_overloads.hpp</title>
<polygon fill="white" stroke="transparent" points="-4,4 -4,-381 1053,-381 1053,4 -4,4"/>
<!-- Node1 -->
<g id="node1" class="node">
<title>Node1</title>
<g id="a_node1"><a xlink:title=" ">
<polygon fill="#bfbfbf" stroke="black" points="715.5,-357.5 715.5,-376.5 877.5,-376.5 877.5,-357.5 715.5,-357.5"/>
<text text-anchor="middle" x="796.5" y="-364.5" font-family="Helvetica,sans-Serif" font-size="10.00">StrongTypeDef_overloads.hpp</text>
</a>
</g>
</g>
<!-- Node2 -->
<g id="node2" class="node">
<title>Node2</title>
<g id="a_node2"><a xlink:href="StrongTypeDef_8hpp.html" target="_top" xlink:title=" ">
<polygon fill="white" stroke="black" points="731,-285 731,-315 862,-315 862,-285 731,-285"/>
<text text-anchor="start" x="739" y="-303" font-family="Helvetica,sans-Serif" font-size="10.00">packages/stl_extension</text>
<text text-anchor="middle" x="796.5" y="-292" font-family="Helvetica,sans-Serif" font-size="10.00">/inc/StrongTypeDef.hpp</text>
</a>
</g>
</g>
<!-- Node1&#45;&gt;Node2 -->
<g id="edge1" class="edge">
<title>Node1&#45;&gt;Node2</title>
<path fill="none" stroke="midnightblue" d="M791.71,-357.23C789.99,-349.04 789.4,-336.42 789.95,-325.21"/>
<polygon fill="midnightblue" stroke="midnightblue" points="793.45,-325.35 790.82,-315.09 786.48,-324.75 793.45,-325.35"/>
</g>
<!-- Node19 -->
<g id="node19" class="node">
<title>Node19</title>
<g id="a_node19"><a xlink:title=" ">
<polygon fill="white" stroke="#bfbfbf" points="880,-279.5 880,-320.5 1049,-320.5 1049,-279.5 880,-279.5"/>
<text text-anchor="start" x="888" y="-308.5" font-family="Helvetica,sans-Serif" font-size="10.00">packages/stl_extension</text>
<text text-anchor="start" x="888" y="-297.5" font-family="Helvetica,sans-Serif" font-size="10.00">/impl/StrongTypeDef_overloads</text>
<text text-anchor="middle" x="964.5" y="-286.5" font-family="Helvetica,sans-Serif" font-size="10.00">_impl.hpp</text>
</a>
</g>
</g>
<!-- Node1&#45;&gt;Node19 -->
<g id="edge21" class="edge">
<title>Node1&#45;&gt;Node19</title>
<path fill="none" stroke="midnightblue" d="M818.81,-357.37C840.55,-348.95 874.59,-335.79 904.3,-324.29"/>
<polygon fill="midnightblue" stroke="midnightblue" points="905.71,-327.5 913.78,-320.63 903.19,-320.97 905.71,-327.5"/>
</g>
<!-- Node2&#45;&gt;Node1 -->
<g id="edge20" class="edge">
<title>Node2&#45;&gt;Node1</title>
<path fill="none" stroke="midnightblue" d="M802.18,-315.09C803.41,-324.5 803.58,-336.99 802.68,-347.24"/>
<polygon fill="midnightblue" stroke="midnightblue" points="799.2,-346.85 801.29,-357.23 806.14,-347.81 799.2,-346.85"/>
</g>
<!-- Node3 -->
<g id="node3" class="node">
<title>Node3</title>
<g id="a_node3"><a xlink:href="basic__concepts_8hpp.html" target="_top" xlink:title=" ">
<polygon fill="white" stroke="black" points="599.5,-201.5 599.5,-242.5 731.5,-242.5 731.5,-201.5 599.5,-201.5"/>
<text text-anchor="start" x="607.5" y="-230.5" font-family="Helvetica,sans-Serif" font-size="10.00">packages/compile_time</text>
<text text-anchor="start" x="607.5" y="-219.5" font-family="Helvetica,sans-Serif" font-size="10.00">/packages/concepts/inc</text>
<text text-anchor="middle" x="665.5" y="-208.5" font-family="Helvetica,sans-Serif" font-size="10.00">/basic_concepts.hpp</text>
</a>
</g>
</g>
<!-- Node2&#45;&gt;Node3 -->
<g id="edge2" class="edge">
<title>Node2&#45;&gt;Node3</title>
<path fill="none" stroke="midnightblue" d="M772.17,-284.88C754.3,-274.52 729.55,-260.16 708.4,-247.89"/>
<polygon fill="midnightblue" stroke="midnightblue" points="709.99,-244.76 699.58,-242.77 706.47,-250.82 709.99,-244.76"/>
</g>
<!-- Node14 -->
<g id="node14" class="node">
<title>Node14</title>
<g id="a_node14"><a xlink:title=" ">
<polygon fill="white" stroke="#bfbfbf" points="751.5,-140 751.5,-159 811.5,-159 811.5,-140 751.5,-140"/>
<text text-anchor="middle" x="781.5" y="-147" font-family="Helvetica,sans-Serif" font-size="10.00">concepts</text>
</a>
</g>
</g>
<!-- Node2&#45;&gt;Node14 -->
<g id="edge17" class="edge">
<title>Node2&#45;&gt;Node14</title>
<path fill="none" stroke="midnightblue" d="M794.57,-284.75C793.07,-273.44 791,-257.23 789.5,-243 786.81,-217.51 784.37,-188 782.91,-169.3"/>
<polygon fill="midnightblue" stroke="midnightblue" points="786.39,-168.89 782.14,-159.18 779.41,-169.42 786.39,-168.89"/>
</g>
<!-- Node17 -->
<g id="node17" class="node">
<title>Node17</title>
<g id="a_node17"><a xlink:title=" ">
<polygon fill="white" stroke="#bfbfbf" points="798.5,-212.5 798.5,-231.5 846.5,-231.5 846.5,-212.5 798.5,-212.5"/>
<text text-anchor="middle" x="822.5" y="-219.5" font-family="Helvetica,sans-Serif" font-size="10.00">iosfwd</text>
</a>
</g>
</g>
<!-- Node2&#45;&gt;Node17 -->
<g id="edge18" class="edge">
<title>Node2&#45;&gt;Node17</title>
<path fill="none" stroke="midnightblue" d="M801.39,-284.7C805.62,-272.35 811.74,-254.44 816.31,-241.1"/>
<polygon fill="midnightblue" stroke="midnightblue" points="819.65,-242.16 819.57,-231.56 813.02,-239.89 819.65,-242.16"/>
</g>
<!-- Node18 -->
<g id="node18" class="node">
<title>Node18</title>
<g id="a_node18"><a xlink:title=" ">
<polygon fill="white" stroke="#bfbfbf" points="865,-212.5 865,-231.5 930,-231.5 930,-212.5 865,-212.5"/>
<text text-anchor="middle" x="897.5" y="-219.5" font-family="Helvetica,sans-Serif" font-size="10.00">functional</text>
</a>
</g>
</g>
<!-- Node2&#45;&gt;Node18 -->
<g id="edge19" class="edge">
<title>Node2&#45;&gt;Node18</title>
<path fill="none" stroke="midnightblue" d="M815.5,-284.7C833.37,-271.25 860.01,-251.21 878.04,-237.64"/>
<polygon fill="midnightblue" stroke="midnightblue" points="880.23,-240.37 886.12,-231.56 876.02,-234.78 880.23,-240.37"/>
</g>
<!-- Node4 -->
<g id="node4" class="node">
<title>Node4</title>
<g id="a_node4"><a xlink:href="types_8hpp.html" target="_top" xlink:title=" ">
<polygon fill="white" stroke="black" points="345.5,-134.5 345.5,-164.5 455.5,-164.5 455.5,-134.5 345.5,-134.5"/>
<text text-anchor="start" x="353.5" y="-152.5" font-family="Helvetica,sans-Serif" font-size="10.00">packages/types/inc</text>
<text text-anchor="middle" x="400.5" y="-141.5" font-family="Helvetica,sans-Serif" font-size="10.00">/types.hpp</text>
</a>
</g>
</g>
<!-- Node3&#45;&gt;Node4 -->
<g id="edge3" class="edge">
<title>Node3&#45;&gt;Node4</title>
<path fill="none" stroke="midnightblue" d="M599.31,-203.39C557.67,-192.31 504.27,-178.11 463.29,-167.2"/>
<polygon fill="midnightblue" stroke="midnightblue" points="463.99,-163.77 453.42,-164.58 462.19,-170.53 463.99,-163.77"/>
</g>
<!-- Node10 -->
<g id="node10" class="node">
<title>Node10</title>
<g id="a_node10"><a xlink:title=" ">
<polygon fill="white" stroke="#bfbfbf" points="665,-73 665,-92 734,-92 734,-73 665,-73"/>
<text text-anchor="middle" x="699.5" y="-80" font-family="Helvetica,sans-Serif" font-size="10.00">type_traits</text>
</a>
</g>
</g>
<!-- Node3&#45;&gt;Node10 -->
<g id="edge14" class="edge">
<title>Node3&#45;&gt;Node10</title>
<path fill="none" stroke="midnightblue" d="M638.88,-201.21C618.78,-183.74 596.83,-157.47 610.5,-134 617.22,-122.46 646.72,-107.07 669.94,-96.32"/>
<polygon fill="midnightblue" stroke="midnightblue" points="671.45,-99.48 679.11,-92.16 668.56,-93.11 671.45,-99.48"/>
</g>
<!-- Node3&#45;&gt;Node14 -->
<g id="edge13" class="edge">
<title>Node3&#45;&gt;Node14</title>
<path fill="none" stroke="midnightblue" d="M697.81,-201.36C717.04,-189.67 741,-175.12 758.34,-164.57"/>
<polygon fill="midnightblue" stroke="midnightblue" points="760.5,-167.36 767.23,-159.17 756.87,-161.38 760.5,-167.36"/>
</g>
<!-- Node15 -->
<g id="node15" class="node">
<title>Node15</title>
<g id="a_node15"><a xlink:title=" ">
<polygon fill="white" stroke="#bfbfbf" points="619.5,-140 619.5,-159 669.5,-159 669.5,-140 619.5,-140"/>
<text text-anchor="middle" x="644.5" y="-147" font-family="Helvetica,sans-Serif" font-size="10.00">cstdint</text>
</a>
</g>
</g>
<!-- Node3&#45;&gt;Node15 -->
<g id="edge15" class="edge">
<title>Node3&#45;&gt;Node15</title>
<path fill="none" stroke="midnightblue" d="M659.65,-201.36C656.62,-191.19 652.94,-178.84 649.97,-168.86"/>
<polygon fill="midnightblue" stroke="midnightblue" points="653.29,-167.76 647.08,-159.17 646.58,-169.76 653.29,-167.76"/>
</g>
<!-- Node16 -->
<g id="node16" class="node">
<title>Node16</title>
<g id="a_node16"><a xlink:title=" ">
<polygon fill="white" stroke="#bfbfbf" points="688,-140 688,-159 733,-159 733,-140 688,-140"/>
<text text-anchor="middle" x="710.5" y="-147" font-family="Helvetica,sans-Serif" font-size="10.00">utility</text>
</a>
</g>
</g>
<!-- Node3&#45;&gt;Node16 -->
<g id="edge16" class="edge">
<title>Node3&#45;&gt;Node16</title>
<path fill="none" stroke="midnightblue" d="M678.04,-201.36C684.74,-190.86 692.91,-178.05 699.39,-167.91"/>
<polygon fill="midnightblue" stroke="midnightblue" points="702.53,-169.49 704.96,-159.17 696.63,-165.72 702.53,-169.49"/>
</g>
<!-- Node5 -->
<g id="node5" class="node">
<title>Node5</title>
<g id="a_node5"><a xlink:href="debug_8hpp.html" target="_top" xlink:title=" ">
<polygon fill="white" stroke="black" points="54,-67.5 54,-97.5 173,-97.5 173,-67.5 54,-67.5"/>
<text text-anchor="start" x="62" y="-85.5" font-family="Helvetica,sans-Serif" font-size="10.00">packages/macros/inc</text>
<text text-anchor="middle" x="113.5" y="-74.5" font-family="Helvetica,sans-Serif" font-size="10.00">/debug.hpp</text>
</a>
</g>
</g>
<!-- Node4&#45;&gt;Node5 -->
<g id="edge4" class="edge">
<title>Node4&#45;&gt;Node5</title>
<path fill="none" stroke="midnightblue" d="M345.16,-135.97C298.99,-125.51 232.93,-110.55 183.16,-99.28"/>
<polygon fill="midnightblue" stroke="midnightblue" points="183.65,-95.8 173.12,-97 182.1,-102.63 183.65,-95.8"/>
</g>
<!-- Node8 -->
<g id="node8" class="node">
<title>Node8</title>
<g id="a_node8"><a xlink:title=" ">
<polygon fill="white" stroke="#bfbfbf" points="191,-73 191,-92 244,-92 244,-73 191,-73"/>
<text text-anchor="middle" x="217.5" y="-80" font-family="Helvetica,sans-Serif" font-size="10.00">cstddef</text>
</a>
</g>
</g>
<!-- Node4&#45;&gt;Node8 -->
<g id="edge7" class="edge">
<title>Node4&#45;&gt;Node8</title>
<path fill="none" stroke="midnightblue" d="M357.84,-134.5C328.38,-124.67 288.39,-111.01 253.5,-98 251.65,-97.31 249.76,-96.59 247.85,-95.85"/>
<polygon fill="midnightblue" stroke="midnightblue" points="248.96,-92.53 238.37,-92.12 246.39,-99.04 248.96,-92.53"/>
</g>
<!-- Node9 -->
<g id="node9" class="node">
<title>Node9</title>
<g id="a_node9"><a xlink:title=" ">
<polygon fill="white" stroke="#bfbfbf" points="262.5,-73 262.5,-92 306.5,-92 306.5,-73 262.5,-73"/>
<text text-anchor="middle" x="284.5" y="-80" font-family="Helvetica,sans-Serif" font-size="10.00">string</text>
</a>
</g>
</g>
<!-- Node4&#45;&gt;Node9 -->
<g id="edge8" class="edge">
<title>Node4&#45;&gt;Node9</title>
<path fill="none" stroke="midnightblue" d="M375.33,-134.4C355.52,-123.29 328.08,-107.92 308.56,-96.98"/>
<polygon fill="midnightblue" stroke="midnightblue" points="310.12,-93.84 299.68,-92.01 306.69,-99.95 310.12,-93.84"/>
</g>
<!-- Node4&#45;&gt;Node10 -->
<g id="edge9" class="edge">
<title>Node4&#45;&gt;Node10</title>
<path fill="none" stroke="midnightblue" d="M455.66,-139.59C507.61,-130.73 587.41,-115.89 655.5,-98 658.87,-97.11 662.36,-96.11 665.83,-95.06"/>
<polygon fill="midnightblue" stroke="midnightblue" points="666.97,-98.37 675.45,-92.02 664.86,-91.7 666.97,-98.37"/>
</g>
<!-- Node11 -->
<g id="node11" class="node">
<title>Node11</title>
<g id="a_node11"><a xlink:title=" ">
<polygon fill="white" stroke="#bfbfbf" points="324.5,-73 324.5,-92 374.5,-92 374.5,-73 324.5,-73"/>
<text text-anchor="middle" x="349.5" y="-80" font-family="Helvetica,sans-Serif" font-size="10.00">climits</text>
</a>
</g>
</g>
<!-- Node4&#45;&gt;Node11 -->
<g id="edge10" class="edge">
<title>Node4&#45;&gt;Node11</title>
<path fill="none" stroke="midnightblue" d="M389.43,-134.4C381.56,-124.36 370.95,-110.84 362.65,-100.25"/>
<polygon fill="midnightblue" stroke="midnightblue" points="365.25,-97.9 356.32,-92.19 359.74,-102.22 365.25,-97.9"/>
</g>
<!-- Node12 -->
<g id="node12" class="node">
<title>Node12</title>
<g id="a_node12"><a xlink:title=" ">
<polygon fill="white" stroke="#bfbfbf" points="393,-67.5 393,-97.5 510,-97.5 510,-67.5 393,-67.5"/>
<text text-anchor="start" x="401" y="-85.5" font-family="Helvetica,sans-Serif" font-size="10.00">packages/types/impl</text>
<text text-anchor="middle" x="451.5" y="-74.5" font-family="Helvetica,sans-Serif" font-size="10.00">/types_impl.hpp</text>
</a>
</g>
</g>
<!-- Node4&#45;&gt;Node12 -->
<g id="edge11" class="edge">
<title>Node4&#45;&gt;Node12</title>
<path fill="none" stroke="midnightblue" d="M411.57,-134.4C418.18,-125.96 426.73,-115.07 434.22,-105.52"/>
<polygon fill="midnightblue" stroke="midnightblue" points="437.04,-107.6 440.46,-97.58 431.53,-103.28 437.04,-107.6"/>
</g>
<!-- Node13 -->
<g id="node13" class="node">
<title>Node13</title>
<g id="a_node13"><a xlink:href="logging_8hpp.html" target="_top" xlink:title=" ">
<polygon fill="white" stroke="black" points="528,-67.5 528,-97.5 647,-97.5 647,-67.5 528,-67.5"/>
<text text-anchor="start" x="536" y="-85.5" font-family="Helvetica,sans-Serif" font-size="10.00">packages/macros/inc</text>
<text text-anchor="middle" x="587.5" y="-74.5" font-family="Helvetica,sans-Serif" font-size="10.00">/logging.hpp</text>
</a>
</g>
</g>
<!-- Node4&#45;&gt;Node13 -->
<g id="edge12" class="edge">
<title>Node4&#45;&gt;Node13</title>
<path fill="none" stroke="midnightblue" d="M441.08,-134.4C469.38,-124.56 507.33,-111.37 537.5,-100.88"/>
<polygon fill="midnightblue" stroke="midnightblue" points="538.71,-104.17 547,-97.58 536.41,-97.55 538.71,-104.17"/>
</g>
<!-- Node6 -->
<g id="node6" class="node">
<title>Node6</title>
<g id="a_node6"><a xlink:href="detail_8hpp.html" target="_top" xlink:title=" ">
<polygon fill="white" stroke="black" points="0,-0.5 0,-30.5 119,-30.5 119,-0.5 0,-0.5"/>
<text text-anchor="start" x="8" y="-18.5" font-family="Helvetica,sans-Serif" font-size="10.00">packages/macros/inc</text>
<text text-anchor="middle" x="59.5" y="-7.5" font-family="Helvetica,sans-Serif" font-size="10.00">/detail.hpp</text>
</a>
</g>
</g>
<!-- Node5&#45;&gt;Node6 -->
<g id="edge5" class="edge">
<title>Node5&#45;&gt;Node6</title>
<path fill="none" stroke="midnightblue" d="M101.78,-67.4C94.78,-58.96 85.73,-48.07 77.79,-38.52"/>
<polygon fill="midnightblue" stroke="midnightblue" points="80.28,-36.03 71.19,-30.58 74.89,-40.51 80.28,-36.03"/>
</g>
<!-- Node7 -->
<g id="node7" class="node">
<title>Node7</title>
<g id="a_node7"><a xlink:title=" ">
<polygon fill="white" stroke="#bfbfbf" points="137.5,-6 137.5,-25 197.5,-25 197.5,-6 137.5,-6"/>
<text text-anchor="middle" x="167.5" y="-13" font-family="Helvetica,sans-Serif" font-size="10.00">iostream</text>
</a>
</g>
</g>
<!-- Node5&#45;&gt;Node7 -->
<g id="edge6" class="edge">
<title>Node5&#45;&gt;Node7</title>
<path fill="none" stroke="midnightblue" d="M125.22,-67.4C133.64,-57.26 145.01,-43.57 153.84,-32.94"/>
<polygon fill="midnightblue" stroke="midnightblue" points="156.58,-35.12 160.28,-25.19 151.19,-30.65 156.58,-35.12"/>
</g>
</g>
</svg>
