<?xml version="1.0" encoding="UTF-8" standalone="no"?>
<!DOCTYPE svg PUBLIC "-//W3C//DTD SVG 1.1//EN"
 "http://www.w3.org/Graphics/SVG/1.1/DTD/svg11.dtd">
<!-- Generated by graphviz version 2.43.0 (0)
 -->
<!-- Title: StrongTypeDef.hpp Pages: 1 -->
<!--zoomable 318 -->
<svg id="main" version="1.1" xmlns="http://www.w3.org/2000/svg" xmlns:xlink="http://www.w3.org/1999/xlink" xml:space="preserve" onload="init(evt)">
<style type="text/css"><![CDATA[
.edge:hover path { stroke: red; }
.edge:hover polygon { stroke: red; fill: red; }
]]></style>
<script type="text/javascript"><![CDATA[
var edges = document.getElementsByTagName('g');
if (edges && edges.length) {
  for (var i=0;i<edges.length;i++) {
    if (edges[i].id.substr(0,4)=='edge') {
      edges[i].setAttribute('class','edge');
    }
  }
}
]]></script>
        <defs>
                <circle id="rim" cx="0" cy="0" r="7"/>
                <circle id="rim2" cx="0" cy="0" r="3.5"/>
                <g id="zoomPlus">
                        <use xlink:href="#rim" fill="#404040">
                                <set attributeName="fill" to="#808080" begin="zoomplus.mouseover" end="zoomplus.mouseout"/>
                        </use>
                        <path d="M-4,0h8M0,-4v8" fill="none" stroke="white" stroke-width="1.5" pointer-events="none"/>
                </g>
                <g id="zoomMin">
                        <use xlink:href="#rim" fill="#404040">
                                <set attributeName="fill" to="#808080" begin="zoomminus.mouseover" end="zoomminus.mouseout"/>
                        </use>
                        <path d="M-4,0h8" fill="none" stroke="white" stroke-width="1.5" pointer-events="none"/>
                </g>
                <g id="dirArrow">
                        <path fill="none" stroke="white" stroke-width="1.5" d="M0,-3.0v7 M-2.5,-0.5L0,-3.0L2.5,-0.5"/>
                </g>
               <g id="resetDef">
                       <use xlink:href="#rim2" fill="#404040">
                               <set attributeName="fill" to="#808080" begin="reset.mouseover" end="reset.mouseout"/>
                       </use>
               </g>
        </defs>

<script type="text/javascript">
var viewWidth = 1006;
var viewHeight = 318;
var sectionId = 'dynsection-0';
</script>
<script xlink:href="svgpan.js"/>
<svg id="graph" class="graph">
<g id="viewport">
<title>StrongTypeDef.hpp</title>
<polygon fill="white" stroke="transparent" points="-4,4 -4,-314 1002,-314 1002,4 -4,4"/>
<!-- Node1 -->
<g id="node1" class="node">
<title>Node1</title>
<g id="a_node1"><a xlink:title=" ">
<polygon fill="#bfbfbf" stroke="black" points="832.5,-290.5 832.5,-309.5 940.5,-309.5 940.5,-290.5 832.5,-290.5"/>
<text text-anchor="middle" x="886.5" y="-297.5" font-family="Helvetica,sans-Serif" font-size="10.00">StrongTypeDef.hpp</text>
</a>
</g>
</g>
<!-- Node2 -->
<g id="node2" class="node">
<title>Node2</title>
<g id="a_node2"><a xlink:href="basic__concepts_8hpp.html" target="_top" xlink:title=" ">
<polygon fill="white" stroke="black" points="619.5,-212.5 619.5,-253.5 751.5,-253.5 751.5,-212.5 619.5,-212.5"/>
<text text-anchor="start" x="627.5" y="-241.5" font-family="Helvetica,sans-Serif" font-size="10.00">packages/compile_time</text>
<text text-anchor="start" x="627.5" y="-230.5" font-family="Helvetica,sans-Serif" font-size="10.00">/packages/concepts/inc</text>
<text text-anchor="middle" x="685.5" y="-219.5" font-family="Helvetica,sans-Serif" font-size="10.00">/basic_concepts.hpp</text>
</a>
</g>
</g>
<!-- Node1&#45;&gt;Node2 -->
<g id="edge1" class="edge">
<title>Node1&#45;&gt;Node2</title>
<path fill="none" stroke="midnightblue" d="M859.81,-290.37C833.45,-281.85 792.01,-268.44 756.14,-256.84"/>
<polygon fill="midnightblue" stroke="midnightblue" points="756.78,-253.37 746.19,-253.63 754.63,-260.03 756.78,-253.37"/>
</g>
<!-- Node16 -->
<g id="node16" class="node">
<title>Node16</title>
<g id="a_node16"><a xlink:href="StrongTypeDef__overloads_8hpp.html" target="_top" xlink:title=" ">
<polygon fill="white" stroke="black" points="795.5,-218 795.5,-248 977.5,-248 977.5,-218 795.5,-218"/>
<text text-anchor="start" x="803.5" y="-236" font-family="Helvetica,sans-Serif" font-size="10.00">packages/stl_extension</text>
<text text-anchor="middle" x="886.5" y="-225" font-family="Helvetica,sans-Serif" font-size="10.00">/inc/StrongTypeDef_overloads.hpp</text>
</a>
</g>
</g>
<!-- Node1&#45;&gt;Node16 -->
<g id="edge16" class="edge">
<title>Node1&#45;&gt;Node16</title>
<path fill="none" stroke="midnightblue" d="M881.71,-290.23C879.99,-282.04 879.4,-269.42 879.95,-258.21"/>
<polygon fill="midnightblue" stroke="midnightblue" points="883.45,-258.35 880.82,-248.09 876.48,-257.75 883.45,-258.35"/>
</g>
<!-- Node3 -->
<g id="node3" class="node">
<title>Node3</title>
<g id="a_node3"><a xlink:href="types_8hpp.html" target="_top" xlink:title=" ">
<polygon fill="white" stroke="black" points="345.5,-140 345.5,-170 455.5,-170 455.5,-140 345.5,-140"/>
<text text-anchor="start" x="353.5" y="-158" font-family="Helvetica,sans-Serif" font-size="10.00">packages/types/inc</text>
<text text-anchor="middle" x="400.5" y="-147" font-family="Helvetica,sans-Serif" font-size="10.00">/types.hpp</text>
</a>
</g>
</g>
<!-- Node2&#45;&gt;Node3 -->
<g id="edge2" class="edge">
<title>Node2&#45;&gt;Node3</title>
<path fill="none" stroke="midnightblue" d="M619.4,-214.37C572.37,-201.83 509.57,-185.09 463.3,-172.75"/>
<polygon fill="midnightblue" stroke="midnightblue" points="463.96,-169.3 453.4,-170.11 462.16,-176.06 463.96,-169.3"/>
</g>
<!-- Node9 -->
<g id="node9" class="node">
<title>Node9</title>
<g id="a_node9"><a xlink:title=" ">
<polygon fill="white" stroke="#bfbfbf" points="665,-73 665,-92 734,-92 734,-73 665,-73"/>
<text text-anchor="middle" x="699.5" y="-80" font-family="Helvetica,sans-Serif" font-size="10.00">type_traits</text>
</a>
</g>
</g>
<!-- Node2&#45;&gt;Node9 -->
<g id="edge13" class="edge">
<title>Node2&#45;&gt;Node9</title>
<path fill="none" stroke="midnightblue" d="M645.98,-212.45C632.14,-203.41 618.15,-191.25 610.5,-176 602.13,-159.31 601.11,-150.13 610.5,-134 617.22,-122.46 646.72,-107.07 669.94,-96.32"/>
<polygon fill="midnightblue" stroke="midnightblue" points="671.45,-99.48 679.11,-92.16 668.56,-93.11 671.45,-99.48"/>
</g>
<!-- Node13 -->
<g id="node13" class="node">
<title>Node13</title>
<g id="a_node13"><a xlink:title=" ">
<polygon fill="white" stroke="#bfbfbf" points="619.5,-145.5 619.5,-164.5 679.5,-164.5 679.5,-145.5 619.5,-145.5"/>
<text text-anchor="middle" x="649.5" y="-152.5" font-family="Helvetica,sans-Serif" font-size="10.00">concepts</text>
</a>
</g>
</g>
<!-- Node2&#45;&gt;Node13 -->
<g id="edge12" class="edge">
<title>Node2&#45;&gt;Node13</title>
<path fill="none" stroke="midnightblue" d="M676.23,-212.43C670.56,-200.45 663.36,-185.26 657.86,-173.65"/>
<polygon fill="midnightblue" stroke="midnightblue" points="660.99,-172.09 653.55,-164.55 654.67,-175.09 660.99,-172.09"/>
</g>
<!-- Node14 -->
<g id="node14" class="node">
<title>Node14</title>
<g id="a_node14"><a xlink:title=" ">
<polygon fill="white" stroke="#bfbfbf" points="697.5,-145.5 697.5,-164.5 747.5,-164.5 747.5,-145.5 697.5,-145.5"/>
<text text-anchor="middle" x="722.5" y="-152.5" font-family="Helvetica,sans-Serif" font-size="10.00">cstdint</text>
</a>
</g>
</g>
<!-- Node2&#45;&gt;Node14 -->
<g id="edge14" class="edge">
<title>Node2&#45;&gt;Node14</title>
<path fill="none" stroke="midnightblue" d="M695.03,-212.43C700.86,-200.45 708.26,-185.26 713.9,-173.65"/>
<polygon fill="midnightblue" stroke="midnightblue" points="717.11,-175.08 718.34,-164.55 710.81,-172.01 717.11,-175.08"/>
</g>
<!-- Node15 -->
<g id="node15" class="node">
<title>Node15</title>
<g id="a_node15"><a xlink:title=" ">
<polygon fill="white" stroke="#bfbfbf" points="766,-145.5 766,-164.5 811,-164.5 811,-145.5 766,-145.5"/>
<text text-anchor="middle" x="788.5" y="-152.5" font-family="Helvetica,sans-Serif" font-size="10.00">utility</text>
</a>
</g>
</g>
<!-- Node2&#45;&gt;Node15 -->
<g id="edge15" class="edge">
<title>Node2&#45;&gt;Node15</title>
<path fill="none" stroke="midnightblue" d="M712.03,-212.43C729.73,-199.37 752.63,-182.47 768.73,-170.58"/>
<polygon fill="midnightblue" stroke="midnightblue" points="770.94,-173.31 776.91,-164.55 766.79,-167.67 770.94,-173.31"/>
</g>
<!-- Node4 -->
<g id="node4" class="node">
<title>Node4</title>
<g id="a_node4"><a xlink:href="debug_8hpp.html" target="_top" xlink:title=" ">
<polygon fill="white" stroke="black" points="54,-67.5 54,-97.5 173,-97.5 173,-67.5 54,-67.5"/>
<text text-anchor="start" x="62" y="-85.5" font-family="Helvetica,sans-Serif" font-size="10.00">packages/macros/inc</text>
<text text-anchor="middle" x="113.5" y="-74.5" font-family="Helvetica,sans-Serif" font-size="10.00">/debug.hpp</text>
</a>
</g>
</g>
<!-- Node3&#45;&gt;Node4 -->
<g id="edge3" class="edge">
<title>Node3&#45;&gt;Node4</title>
<path fill="none" stroke="midnightblue" d="M345.16,-140.41C298.13,-128.85 230.46,-112.23 180.4,-99.93"/>
<polygon fill="midnightblue" stroke="midnightblue" points="181.18,-96.52 170.63,-97.53 179.51,-103.32 181.18,-96.52"/>
</g>
<!-- Node7 -->
<g id="node7" class="node">
<title>Node7</title>
<g id="a_node7"><a xlink:title=" ">
<polygon fill="white" stroke="#bfbfbf" points="191,-73 191,-92 244,-92 244,-73 191,-73"/>
<text text-anchor="middle" x="217.5" y="-80" font-family="Helvetica,sans-Serif" font-size="10.00">cstddef</text>
</a>
</g>
</g>
<!-- Node3&#45;&gt;Node7 -->
<g id="edge6" class="edge">
<title>Node3&#45;&gt;Node7</title>
<path fill="none" stroke="midnightblue" d="M362.96,-139.92C333.22,-128.72 290.62,-112.55 253.5,-98 251.66,-97.28 249.78,-96.54 247.88,-95.78"/>
<polygon fill="midnightblue" stroke="midnightblue" points="249,-92.46 238.41,-92 246.4,-98.96 249,-92.46"/>
</g>
<!-- Node8 -->
<g id="node8" class="node">
<title>Node8</title>
<g id="a_node8"><a xlink:title=" ">
<polygon fill="white" stroke="#bfbfbf" points="262.5,-73 262.5,-92 306.5,-92 306.5,-73 262.5,-73"/>
<text text-anchor="middle" x="284.5" y="-80" font-family="Helvetica,sans-Serif" font-size="10.00">string</text>
</a>
</g>
</g>
<!-- Node3&#45;&gt;Node8 -->
<g id="edge7" class="edge">
<title>Node3&#45;&gt;Node8</title>
<path fill="none" stroke="midnightblue" d="M377.3,-139.9C356.89,-127.5 327.36,-109.55 307.12,-97.25"/>
<polygon fill="midnightblue" stroke="midnightblue" points="308.9,-94.24 298.54,-92.03 305.27,-100.22 308.9,-94.24"/>
</g>
<!-- Node3&#45;&gt;Node9 -->
<g id="edge8" class="edge">
<title>Node3&#45;&gt;Node9</title>
<path fill="none" stroke="midnightblue" d="M455.61,-143.59C507.53,-133.38 587.3,-116.67 655.5,-98 658.68,-97.13 661.97,-96.17 665.25,-95.16"/>
<polygon fill="midnightblue" stroke="midnightblue" points="666.5,-98.44 674.97,-92.08 664.38,-91.77 666.5,-98.44"/>
</g>
<!-- Node10 -->
<g id="node10" class="node">
<title>Node10</title>
<g id="a_node10"><a xlink:title=" ">
<polygon fill="white" stroke="#bfbfbf" points="324.5,-73 324.5,-92 374.5,-92 374.5,-73 324.5,-73"/>
<text text-anchor="middle" x="349.5" y="-80" font-family="Helvetica,sans-Serif" font-size="10.00">climits</text>
</a>
</g>
</g>
<!-- Node3&#45;&gt;Node10 -->
<g id="edge9" class="edge">
<title>Node3&#45;&gt;Node10</title>
<path fill="none" stroke="midnightblue" d="M390.18,-139.73C382.02,-128.45 370.59,-112.65 361.92,-100.67"/>
<polygon fill="midnightblue" stroke="midnightblue" points="364.63,-98.44 355.93,-92.39 358.96,-102.55 364.63,-98.44"/>
</g>
<!-- Node11 -->
<g id="node11" class="node">
<title>Node11</title>
<g id="a_node11"><a xlink:title=" ">
<polygon fill="white" stroke="#bfbfbf" points="393,-67.5 393,-97.5 510,-97.5 510,-67.5 393,-67.5"/>
<text text-anchor="start" x="401" y="-85.5" font-family="Helvetica,sans-Serif" font-size="10.00">packages/types/impl</text>
<text text-anchor="middle" x="451.5" y="-74.5" font-family="Helvetica,sans-Serif" font-size="10.00">/types_impl.hpp</text>
</a>
</g>
</g>
<!-- Node3&#45;&gt;Node11 -->
<g id="edge10" class="edge">
<title>Node3&#45;&gt;Node11</title>
<path fill="none" stroke="midnightblue" d="M410.82,-139.73C417.8,-130.08 427.17,-117.13 435.16,-106.09"/>
<polygon fill="midnightblue" stroke="midnightblue" points="438.17,-107.9 441.19,-97.75 432.5,-103.8 438.17,-107.9"/>
</g>
<!-- Node12 -->
<g id="node12" class="node">
<title>Node12</title>
<g id="a_node12"><a xlink:href="logging_8hpp.html" target="_top" xlink:title=" ">
<polygon fill="white" stroke="black" points="528,-67.5 528,-97.5 647,-97.5 647,-67.5 528,-67.5"/>
<text text-anchor="start" x="536" y="-85.5" font-family="Helvetica,sans-Serif" font-size="10.00">packages/macros/inc</text>
<text text-anchor="middle" x="587.5" y="-74.5" font-family="Helvetica,sans-Serif" font-size="10.00">/logging.hpp</text>
</a>
</g>
</g>
<!-- Node3&#45;&gt;Node12 -->
<g id="edge11" class="edge">
<title>Node3&#45;&gt;Node12</title>
<path fill="none" stroke="midnightblue" d="M437.89,-139.9C467.45,-128.76 508.88,-113.14 540.65,-101.16"/>
<polygon fill="midnightblue" stroke="midnightblue" points="542.05,-104.38 550.17,-97.57 539.58,-97.83 542.05,-104.38"/>
</g>
<!-- Node5 -->
<g id="node5" class="node">
<title>Node5</title>
<g id="a_node5"><a xlink:href="detail_8hpp.html" target="_top" xlink:title=" ">
<polygon fill="white" stroke="black" points="0,-0.5 0,-30.5 119,-30.5 119,-0.5 0,-0.5"/>
<text text-anchor="start" x="8" y="-18.5" font-family="Helvetica,sans-Serif" font-size="10.00">packages/macros/inc</text>
<text text-anchor="middle" x="59.5" y="-7.5" font-family="Helvetica,sans-Serif" font-size="10.00">/detail.hpp</text>
</a>
</g>
</g>
<!-- Node4&#45;&gt;Node5 -->
<g id="edge4" class="edge">
<title>Node4&#45;&gt;Node5</title>
<path fill="none" stroke="midnightblue" d="M101.78,-67.4C94.78,-58.96 85.73,-48.07 77.79,-38.52"/>
<polygon fill="midnightblue" stroke="midnightblue" points="80.28,-36.03 71.19,-30.58 74.89,-40.51 80.28,-36.03"/>
</g>
<!-- Node6 -->
<g id="node6" class="node">
<title>Node6</title>
<g id="a_node6"><a xlink:title=" ">
<polygon fill="white" stroke="#bfbfbf" points="137.5,-6 137.5,-25 197.5,-25 197.5,-6 137.5,-6"/>
<text text-anchor="middle" x="167.5" y="-13" font-family="Helvetica,sans-Serif" font-size="10.00">iostream</text>
</a>
</g>
</g>
<!-- Node4&#45;&gt;Node6 -->
<g id="edge5" class="edge">
<title>Node4&#45;&gt;Node6</title>
<path fill="none" stroke="midnightblue" d="M125.22,-67.4C133.64,-57.26 145.01,-43.57 153.84,-32.94"/>
<polygon fill="midnightblue" stroke="midnightblue" points="156.58,-35.12 160.28,-25.19 151.19,-30.65 156.58,-35.12"/>
</g>
<!-- Node16&#45;&gt;Node1 -->
<g id="edge17" class="edge">
<title>Node16&#45;&gt;Node1</title>
<path fill="none" stroke="midnightblue" d="M892.18,-248.09C893.41,-257.5 893.58,-269.99 892.68,-280.24"/>
<polygon fill="midnightblue" stroke="midnightblue" points="889.2,-279.85 891.29,-290.23 896.14,-280.81 889.2,-279.85"/>
</g>
<!-- Node17 -->
<g id="node17" class="node">
<title>Node17</title>
<g id="a_node17"><a xlink:title=" ">
<polygon fill="white" stroke="#bfbfbf" points="829,-134.5 829,-175.5 998,-175.5 998,-134.5 829,-134.5"/>
<text text-anchor="start" x="837" y="-163.5" font-family="Helvetica,sans-Serif" font-size="10.00">packages/stl_extension</text>
<text text-anchor="start" x="837" y="-152.5" font-family="Helvetica,sans-Serif" font-size="10.00">/impl/StrongTypeDef_overloads</text>
<text text-anchor="middle" x="913.5" y="-141.5" font-family="Helvetica,sans-Serif" font-size="10.00">_impl.hpp</text>
</a>
</g>
</g>
<!-- Node16&#45;&gt;Node17 -->
<g id="edge18" class="edge">
<title>Node16&#45;&gt;Node17</title>
<path fill="none" stroke="midnightblue" d="M891.58,-217.7C894.84,-208.53 899.19,-196.27 903.16,-185.11"/>
<polygon fill="midnightblue" stroke="midnightblue" points="906.46,-186.27 906.51,-175.68 899.86,-183.93 906.46,-186.27"/>
</g>
</g>
</svg>
        <g id="navigator" transform="translate(0 0)" fill="#404254">
                <rect fill="#f2f5e9" fill-opacity="0.5" stroke="#606060" stroke-width=".5" x="0" y="0" width="60" height="60"/>
                <use id="zoomplus" xlink:href="#zoomPlus" x="17" y="9" onmousedown="handleZoom(evt,'in')"/>
                <use id="zoomminus" xlink:href="#zoomMin" x="42" y="9" onmousedown="handleZoom(evt,'out')"/>
                <use id="reset" xlink:href="#resetDef" x="30" y="36" onmousedown="handleReset()"/>
                <g id="arrowUp" xlink:href="#dirArrow" transform="translate(30 24)" onmousedown="handlePan(0,-1)">
                  <use xlink:href="#rim" fill="#404040">
                        <set attributeName="fill" to="#808080" begin="arrowUp.mouseover" end="arrowUp.mouseout"/>
                  </use>
                  <path fill="none" stroke="white" stroke-width="1.5" d="M0,-3.0v7 M-2.5,-0.5L0,-3.0L2.5,-0.5"/>
                </g>
                <g id="arrowRight" xlink:href="#dirArrow" transform="rotate(90) translate(36 -43)" onmousedown="handlePan(1,0)">
                  <use xlink:href="#rim" fill="#404040">
                        <set attributeName="fill" to="#808080" begin="arrowRight.mouseover" end="arrowRight.mouseout"/>
                  </use>
                  <path fill="none" stroke="white" stroke-width="1.5" d="M0,-3.0v7 M-2.5,-0.5L0,-3.0L2.5,-0.5"/>
                </g>
                <g id="arrowDown" xlink:href="#dirArrow" transform="rotate(180) translate(-30 -48)" onmousedown="handlePan(0,1)">
                  <use xlink:href="#rim" fill="#404040">
                        <set attributeName="fill" to="#808080" begin="arrowDown.mouseover" end="arrowDown.mouseout"/>
                  </use>
                  <path fill="none" stroke="white" stroke-width="1.5" d="M0,-3.0v7 M-2.5,-0.5L0,-3.0L2.5,-0.5"/>
                </g>
                <g id="arrowLeft" xlink:href="#dirArrow" transform="rotate(270) translate(-36 17)" onmousedown="handlePan(-1,0)">
                  <use xlink:href="#rim" fill="#404040">
                        <set attributeName="fill" to="#808080" begin="arrowLeft.mouseover" end="arrowLeft.mouseout"/>
                  </use>
                  <path fill="none" stroke="white" stroke-width="1.5" d="M0,-3.0v7 M-2.5,-0.5L0,-3.0L2.5,-0.5"/>
                </g>
        </g>
        <svg viewBox="0 0 15 15" width="100%" height="30px" preserveAspectRatio="xMaxYMin meet">
         <g id="arrow_out" transform="scale(0.3 0.3)">
          <a xlink:href="StrongTypeDef_8hpp__incl_org.svg" target="_base">
           <rect id="button" ry="5" rx="5" y="6" x="6" height="38" width="38"
                fill="#f2f5e9" fill-opacity="0.5" stroke="#606060" stroke-width="1.0"/>
           <path id="arrow"
             d="M 11.500037,31.436501 C 11.940474,20.09759 22.043105,11.32322 32.158766,21.979434 L 37.068811,17.246167 C 37.068811,17.246167 37.088388,32 37.088388,32 L 22.160133,31.978069 C 22.160133,31.978069 26.997745,27.140456 26.997745,27.140456 C 18.528582,18.264221 13.291696,25.230495 11.500037,31.436501 z"
             style="fill:#404040;"/>
          </a>
         </g>
        </svg>
</svg>
