<?xml version="1.0" encoding="UTF-8" standalone="no"?>
<!DOCTYPE svg PUBLIC "-//W3C//DTD SVG 1.1//EN"
 "http://www.w3.org/Graphics/SVG/1.1/DTD/svg11.dtd">
<!-- Generated by graphviz version 2.43.0 (0)
 -->
<!-- Title: cie::MemoryException Pages: 1 -->
<svg width="127pt" height="467pt"
 viewBox="0.00 0.00 127.00 467.00" xmlns="http://www.w3.org/2000/svg" xmlns:xlink="http://www.w3.org/1999/xlink">
<g id="graph0" class="graph" transform="scale(1 1) rotate(0) translate(4 463)">
<title>cie::MemoryException</title>
<!-- Node1 -->
<g id="Node000001" class="node">
<title>Node1</title>
<g id="a_Node000001"><a xlink:title=" ">
<polygon fill="#999999" stroke="transparent" points="119,-94 0,-94 0,0 119,0 119,-94"/>
<text text-anchor="start" x="5.5" y="-82" font-family="Helvetica,sans-Serif" font-size="10.00">cie::MemoryException</text>
<text text-anchor="start" x="58" y="-67" font-family="Helvetica,sans-Serif" font-size="10.00"> </text>
<text text-anchor="start" x="4.5" y="-52" font-family="Helvetica,sans-Serif" font-size="10.00">+</text>
<text text-anchor="start" x="17.5" y="-52" font-family="Helvetica,sans-Serif" font-size="10.00">MemoryException()</text>
<text text-anchor="start" x="4.5" y="-37" font-family="Helvetica,sans-Serif" font-size="10.00">+</text>
<text text-anchor="start" x="17.5" y="-37" font-family="Helvetica,sans-Serif" font-size="10.00">MemoryException()</text>
<text text-anchor="start" x="4.5" y="-22" font-family="Helvetica,sans-Serif" font-size="10.00">+</text>
<text text-anchor="start" x="17.5" y="-22" font-family="Helvetica,sans-Serif" font-size="10.00">MemoryException()</text>
<text text-anchor="start" x="4.5" y="-7" font-family="Helvetica,sans-Serif" font-size="10.00">+</text>
<text text-anchor="start" x="17.5" y="-7" font-family="Helvetica,sans-Serif" font-size="10.00">name()</text>
<polygon fill="#666666" stroke="#666666" points="0.5,-77 0.5,-77 119.5,-77 119.5,-77 0.5,-77"/>
<polygon fill="#666666" stroke="#666666" points="0.5,-62 0.5,-62 119.5,-62 119.5,-62 0.5,-62"/>
<polygon fill="none" stroke="#666666" points="0,0 0,-94 119,-94 119,0 0,0"/>
</a>
</g>
</g>
<!-- Node2 -->
<g id="Node000002" class="node">
<title>Node2</title>
<g id="a_Node000002"><a xlink:href="classcie_1_1Exception.html" target="_top" xlink:title=" ">
<polygon fill="white" stroke="transparent" points="102,-374 17,-374 17,-130 102,-130 102,-374"/>
<text text-anchor="start" x="25.5" y="-362" font-family="Helvetica,sans-Serif" font-size="10.00">cie::Exception</text>
<text text-anchor="start" x="58" y="-347" font-family="Helvetica,sans-Serif" font-size="10.00"> </text>
<text text-anchor="start" x="21.5" y="-332" font-family="Helvetica,sans-Serif" font-size="10.00">+</text>
<text text-anchor="start" x="34.5" y="-332" font-family="Helvetica,sans-Serif" font-size="10.00">Exception()</text>
<text text-anchor="start" x="21.5" y="-317" font-family="Helvetica,sans-Serif" font-size="10.00">+</text>
<text text-anchor="start" x="34.5" y="-317" font-family="Helvetica,sans-Serif" font-size="10.00">Exception()</text>
<text text-anchor="start" x="21.5" y="-302" font-family="Helvetica,sans-Serif" font-size="10.00">+</text>
<text text-anchor="start" x="34.5" y="-302" font-family="Helvetica,sans-Serif" font-size="10.00">Exception()</text>
<text text-anchor="start" x="21.5" y="-287" font-family="Helvetica,sans-Serif" font-size="10.00">+</text>
<text text-anchor="start" x="34.5" y="-287" font-family="Helvetica,sans-Serif" font-size="10.00">Exception()</text>
<text text-anchor="start" x="21.5" y="-272" font-family="Helvetica,sans-Serif" font-size="10.00">+</text>
<text text-anchor="start" x="34.5" y="-272" font-family="Helvetica,sans-Serif" font-size="10.00">Exception()</text>
<text text-anchor="start" x="21.5" y="-257" font-family="Helvetica,sans-Serif" font-size="10.00">+</text>
<text text-anchor="start" x="34.5" y="-257" font-family="Helvetica,sans-Serif" font-size="10.00">Exception()</text>
<text text-anchor="start" x="21.5" y="-242" font-family="Helvetica,sans-Serif" font-size="10.00">+</text>
<text text-anchor="start" x="34.5" y="-242" font-family="Helvetica,sans-Serif" font-size="10.00">Exception()</text>
<text text-anchor="start" x="21.5" y="-227" font-family="Helvetica,sans-Serif" font-size="10.00">+</text>
<text text-anchor="start" x="34.5" y="-227" font-family="Helvetica,sans-Serif" font-size="10.00">Exception()</text>
<text text-anchor="start" x="21.5" y="-212" font-family="Helvetica,sans-Serif" font-size="10.00">+</text>
<text text-anchor="start" x="34.5" y="-212" font-family="Helvetica,sans-Serif" font-size="10.00">operator=()</text>
<text text-anchor="start" x="21.5" y="-197" font-family="Helvetica,sans-Serif" font-size="10.00">+</text>
<text text-anchor="start" x="34.5" y="-197" font-family="Helvetica,sans-Serif" font-size="10.00">operator=()</text>
<text text-anchor="start" x="21.5" y="-182" font-family="Helvetica,sans-Serif" font-size="10.00">+</text>
<text text-anchor="start" x="34.5" y="-182" font-family="Helvetica,sans-Serif" font-size="10.00">~Exception()</text>
<text text-anchor="start" x="21.5" y="-167" font-family="Helvetica,sans-Serif" font-size="10.00">+</text>
<text text-anchor="start" x="34.5" y="-167" font-family="Helvetica,sans-Serif" font-size="10.00">what()</text>
<text text-anchor="start" x="21.5" y="-152" font-family="Helvetica,sans-Serif" font-size="10.00">+</text>
<text text-anchor="start" x="34.5" y="-152" font-family="Helvetica,sans-Serif" font-size="10.00">name()</text>
<text text-anchor="start" x="21.5" y="-137" font-family="Helvetica,sans-Serif" font-size="10.00">+</text>
<text text-anchor="start" x="34.5" y="-137" font-family="Helvetica,sans-Serif" font-size="10.00">stackLevel()</text>
<polygon fill="#666666" stroke="#666666" points="17.5,-357 17.5,-357 102.5,-357 102.5,-357 17.5,-357"/>
<polygon fill="#666666" stroke="#666666" points="17.5,-342 17.5,-342 102.5,-342 102.5,-342 17.5,-342"/>
<polygon fill="none" stroke="#666666" points="17,-130 17,-374 102,-374 102,-130 17,-130"/>
</a>
</g>
</g>
<!-- Node2&#45;&gt;Node1 -->
<g id="edge1_Node000001_Node000002" class="edge">
<title>Node2&#45;&gt;Node1</title>
<g id="a_edge1_Node000001_Node000002"><a xlink:title=" ">
<path fill="none" stroke="#63b8ff" d="M59.5,-119.78C59.5,-110.86 59.5,-102.28 59.5,-94.34"/>
<polygon fill="none" stroke="#63b8ff" points="56,-119.98 59.5,-129.98 63,-119.98 56,-119.98"/>
</a>
</g>
</g>
<!-- Node3 -->
<g id="Node000003" class="node">
<title>Node3</title>
<g id="a_Node000003"><a xlink:title=" ">
<polygon fill="white" stroke="transparent" points="99.5,-459 19.5,-459 19.5,-410 99.5,-410 99.5,-459"/>
<text text-anchor="start" x="24.5" y="-446.5" font-family="Helvetica,sans-Serif" font-size="10.00">std::exception</text>
<text text-anchor="start" x="57.5" y="-431.5" font-family="Helvetica,sans-Serif" font-size="10.00"> </text>
<text text-anchor="start" x="57.5" y="-416.5" font-family="Helvetica,sans-Serif" font-size="10.00"> </text>
<polygon fill="#666666" stroke="#666666" points="19.5,-441.5 19.5,-441.5 99.5,-441.5 99.5,-441.5 19.5,-441.5"/>
<polygon fill="#666666" stroke="#666666" points="19.5,-426.5 19.5,-426.5 99.5,-426.5 99.5,-426.5 19.5,-426.5"/>
<polygon fill="none" stroke="#666666" points="19.5,-410 19.5,-459 99.5,-459 99.5,-410 19.5,-410"/>
</a>
</g>
</g>
<!-- Node3&#45;&gt;Node2 -->
<g id="edge2_Node000002_Node000003" class="edge">
<title>Node3&#45;&gt;Node2</title>
<g id="a_edge2_Node000002_Node000003"><a xlink:title=" ">
<path fill="none" stroke="#63b8ff" d="M59.5,-399.65C59.5,-391.93 59.5,-383.29 59.5,-374.18"/>
<polygon fill="none" stroke="#63b8ff" points="56,-399.9 59.5,-409.9 63,-399.9 56,-399.9"/>
</a>
</g>
</g>
</g>
</svg>
