<?xml version="1.0" encoding="UTF-8" standalone="no"?>
<!DOCTYPE svg PUBLIC "-//W3C//DTD SVG 1.1//EN"
 "http://www.w3.org/Graphics/SVG/1.1/DTD/svg11.dtd">
<!-- Generated by graphviz version 2.43.0 (0)
 -->
<!-- Title: cie::FunctionTraits&lt; std::function&lt; TReturn(TArguments...)&gt; &gt; Pages: 1 -->
<svg width="343pt" height="193pt"
 viewBox="0.00 0.00 343.00 193.00" xmlns="http://www.w3.org/2000/svg" xmlns:xlink="http://www.w3.org/1999/xlink">
<g id="graph0" class="graph" transform="scale(1 1) rotate(0) translate(4 189)">
<title>cie::FunctionTraits&lt; std::function&lt; TReturn(TArguments...)&gt; &gt;</title>
<polygon fill="white" stroke="transparent" points="-4,4 -4,-189 339,-189 339,4 -4,4"/>
<!-- Node1 -->
<g id="node1" class="node">
<title>Node1</title>
<g id="a_node1"><a xlink:title=" ">
<polygon fill="#bfbfbf" stroke="black" points="93,-0.5 93,-79.5 231,-79.5 231,-0.5 93,-0.5"/>
<text text-anchor="start" x="101" y="-67.5" font-family="Helvetica,sans-Serif" font-size="10.00">cie::FunctionTraits</text>
<text text-anchor="start" x="101" y="-56.5" font-family="Helvetica,sans-Serif" font-size="10.00">&lt; std::function&lt; TReturn</text>
<text text-anchor="middle" x="162" y="-45.5" font-family="Helvetica,sans-Serif" font-size="10.00">(TArguments...)&gt; &gt;</text>
<polyline fill="none" stroke="black" points="93,-38.5 231,-38.5 "/>
<text text-anchor="middle" x="162" y="-26.5" font-family="Helvetica,sans-Serif" font-size="10.00"> </text>
<polyline fill="none" stroke="black" points="93,-19.5 231,-19.5 "/>
<text text-anchor="middle" x="162" y="-7.5" font-family="Helvetica,sans-Serif" font-size="10.00"> </text>
</a>
</g>
</g>
<!-- Node2 -->
<g id="node2" class="node">
<title>Node2</title>
<g id="a_node2"><a xlink:title=" ">
<polygon fill="white" stroke="#bfbfbf" points="0,-127.5 0,-184.5 84,-184.5 84,-127.5 0,-127.5"/>
<text text-anchor="middle" x="42" y="-172.5" font-family="Helvetica,sans-Serif" font-size="10.00">std::true_type</text>
<polyline fill="none" stroke="#bfbfbf" points="0,-165.5 84,-165.5 "/>
<text text-anchor="middle" x="42" y="-153.5" font-family="Helvetica,sans-Serif" font-size="10.00"> </text>
<polyline fill="none" stroke="#bfbfbf" points="0,-146.5 84,-146.5 "/>
<text text-anchor="middle" x="42" y="-134.5" font-family="Helvetica,sans-Serif" font-size="10.00"> </text>
</a>
</g>
</g>
<!-- Node2&#45;&gt;Node1 -->
<g id="edge1" class="edge">
<title>Node2&#45;&gt;Node1</title>
<path fill="none" stroke="midnightblue" d="M78.38,-120.44C91.97,-107.53 107.49,-92.79 121.43,-79.54"/>
<polygon fill="none" stroke="midnightblue" points="75.89,-117.98 71.05,-127.4 80.71,-123.05 75.89,-117.98"/>
</g>
<!-- Node3 -->
<g id="node3" class="node">
<title>Node3</title>
<g id="a_node3"><a xlink:title=" ">
<polygon fill="white" stroke="#bfbfbf" points="102.5,-127.5 102.5,-184.5 221.5,-184.5 221.5,-127.5 102.5,-127.5"/>
<text text-anchor="middle" x="162" y="-172.5" font-family="Helvetica,sans-Serif" font-size="10.00">static constexpr bool</text>
<polyline fill="none" stroke="#bfbfbf" points="102.5,-165.5 221.5,-165.5 "/>
<text text-anchor="middle" x="162" y="-153.5" font-family="Helvetica,sans-Serif" font-size="10.00"> </text>
<polyline fill="none" stroke="#bfbfbf" points="102.5,-146.5 221.5,-146.5 "/>
<text text-anchor="middle" x="162" y="-134.5" font-family="Helvetica,sans-Serif" font-size="10.00"> </text>
</a>
</g>
</g>
<!-- Node3&#45;&gt;Node1 -->
<g id="edge2" class="edge">
<title>Node3&#45;&gt;Node1</title>
<path fill="none" stroke="#404040" d="M162,-127.4C162,-116.63 162,-103.93 162,-91.62"/>
<polygon fill="none" stroke="#404040" points="162,-91.54 158,-85.54 162,-79.54 166,-85.54 162,-91.54"/>
<text text-anchor="middle" x="181.5" y="-101" font-family="Helvetica,sans-Serif" font-size="10.00"> +Value</text>
</g>
<!-- Node4 -->
<g id="node4" class="node">
<title>Node4</title>
<g id="a_node4"><a xlink:title=" ">
<polygon fill="white" stroke="#bfbfbf" points="239.5,-127.5 239.5,-184.5 284.5,-184.5 284.5,-127.5 239.5,-127.5"/>
<text text-anchor="middle" x="262" y="-172.5" font-family="Helvetica,sans-Serif" font-size="10.00">size_t</text>
<polyline fill="none" stroke="#bfbfbf" points="239.5,-165.5 284.5,-165.5 "/>
<text text-anchor="middle" x="262" y="-153.5" font-family="Helvetica,sans-Serif" font-size="10.00"> </text>
<polyline fill="none" stroke="#bfbfbf" points="239.5,-146.5 284.5,-146.5 "/>
<text text-anchor="middle" x="262" y="-134.5" font-family="Helvetica,sans-Serif" font-size="10.00"> </text>
</a>
</g>
</g>
<!-- Node4&#45;&gt;Node1 -->
<g id="edge3" class="edge">
<title>Node4&#45;&gt;Node1</title>
<path fill="none" stroke="#404040" d="M239.31,-129.13C228.91,-117.28 216.25,-102.84 204.2,-89.11"/>
<polygon fill="none" stroke="#404040" points="203.91,-88.78 196.95,-86.91 196,-79.76 202.96,-81.63 203.91,-88.78"/>
<text text-anchor="middle" x="277.5" y="-101" font-family="Helvetica,sans-Serif" font-size="10.00"> +NumberOfArguments</text>
</g>
</g>
</svg>
