<?xml version="1.0" encoding="UTF-8" standalone="no"?>
<!DOCTYPE svg PUBLIC "-//W3C//DTD SVG 1.1//EN"
 "http://www.w3.org/Graphics/SVG/1.1/DTD/svg11.dtd">
<!-- Generated by graphviz version 2.43.0 (0)
 -->
<!-- Title: cie::FunctionTraits&lt; T &gt; Pages: 1 -->
<svg width="222pt" height="153pt"
 viewBox="0.00 0.00 222.00 153.00" xmlns="http://www.w3.org/2000/svg" xmlns:xlink="http://www.w3.org/1999/xlink">

<svg id="main" version="1.1" xmlns="http://www.w3.org/2000/svg" xmlns:xlink="http://www.w3.org/1999/xlink" xml:space="preserve" onload="init(evt)">
<style type="text/css"><![CDATA[
.node, .edge {opacity: 0.7;}
.node.selected, .edge.selected {opacity: 1;}
.edge:hover path { stroke: red; }
.edge:hover polygon { stroke: red; fill: red; }
]]></style>
<script type="application/ecmascript" xlink:href="svg.min.js"/>
<svg id="graph" class="graph">
<g id="graph0" class="graph" transform="scale(1 1) rotate(0) translate(4 149)">
<title>cie::FunctionTraits&lt; T &gt;</title>
<!-- Node1 -->
<g id="Node000001" class="node">
<title>Node1</title>
<g id="a_Node000001"><a xlink:title=" ">
<polygon fill="#999999" stroke="transparent" points="163,-49 36,-49 36,0 163,0 163,-49"/>
<text text-anchor="start" x="41.5" y="-36.5" font-family="Helvetica,sans-Serif" font-size="10.00">cie::FunctionTraits&lt; T &gt;</text>
<text text-anchor="start" x="98" y="-21.5" font-family="Helvetica,sans-Serif" font-size="10.00"> </text>
<text text-anchor="start" x="98" y="-6.5" font-family="Helvetica,sans-Serif" font-size="10.00"> </text>
<polygon fill="#666666" stroke="#666666" points="36.5,-31.5 36.5,-31.5 163.5,-31.5 163.5,-31.5 36.5,-31.5"/>
<polygon fill="#666666" stroke="#666666" points="36.5,-16.5 36.5,-16.5 163.5,-16.5 163.5,-16.5 36.5,-16.5"/>
<polygon fill="none" stroke="#666666" points="36,0 36,-49 163,-49 163,0 36,0"/>
</a>
</g>
</g>
<!-- Node2 -->
<g id="Node000002" class="node">
<title>Node2</title>
<g id="a_Node000002"><a xlink:title=" ">
<polygon fill="white" stroke="transparent" points="83,-145 0,-145 0,-96 83,-96 83,-145"/>
<text text-anchor="start" x="5.5" y="-132.5" font-family="Helvetica,sans-Serif" font-size="10.00">std::false_type</text>
<text text-anchor="start" x="40" y="-117.5" font-family="Helvetica,sans-Serif" font-size="10.00"> </text>
<text text-anchor="start" x="40" y="-102.5" font-family="Helvetica,sans-Serif" font-size="10.00"> </text>
<polygon fill="#666666" stroke="#666666" points="0.5,-127.5 0.5,-127.5 83.5,-127.5 83.5,-127.5 0.5,-127.5"/>
<polygon fill="#666666" stroke="#666666" points="0.5,-112.5 0.5,-112.5 83.5,-112.5 83.5,-112.5 0.5,-112.5"/>
<polygon fill="none" stroke="#666666" points="0,-96 0,-145 83,-145 83,-96 0,-96"/>
</a>
</g>
</g>
<!-- Node2&#45;&gt;Node1 -->
<g id="edge1_Node000001_Node000002" class="edge">
<title>Node2&#45;&gt;Node1</title>
<g id="a_edge1_Node000001_Node000002"><a xlink:title=" ">
<path fill="none" stroke="#63b8ff" d="M61.52,-87.05C69.19,-74.62 77.79,-60.68 84.87,-49.21"/>
<polygon fill="none" stroke="#63b8ff" points="58.41,-85.43 56.14,-95.78 64.37,-89.11 58.41,-85.43"/>
</a>
</g>
</g>
<!-- Node3 -->
<g id="Node000003" class="node">
<title>Node3</title>
<g id="a_Node000003"><a xlink:title=" ">
<polygon fill="white" stroke="transparent" points="214,-145 101,-145 101,-96 214,-96 214,-145"/>
<text text-anchor="start" x="106.5" y="-132.5" font-family="Helvetica,sans-Serif" font-size="10.00">static constexpr bool</text>
<text text-anchor="start" x="156" y="-117.5" font-family="Helvetica,sans-Serif" font-size="10.00"> </text>
<text text-anchor="start" x="156" y="-102.5" font-family="Helvetica,sans-Serif" font-size="10.00"> </text>
<polygon fill="#666666" stroke="#666666" points="101.5,-127.5 101.5,-127.5 214.5,-127.5 214.5,-127.5 101.5,-127.5"/>
<polygon fill="#666666" stroke="#666666" points="101.5,-112.5 101.5,-112.5 214.5,-112.5 214.5,-112.5 101.5,-112.5"/>
<polygon fill="none" stroke="#666666" points="101,-96 101,-145 214,-145 214,-96 101,-96"/>
</a>
</g>
</g>
<!-- Node3&#45;&gt;Node1 -->
<g id="edge2_Node000001_Node000003" class="edge">
<title>Node3&#45;&gt;Node1</title>
<g id="a_edge2_Node000001_Node000003"><a xlink:title=" ">
<path fill="none" stroke="#63b8ff" d="M142.86,-95.78C136.13,-84.87 128.02,-71.72 120.64,-59.76"/>
<polygon fill="none" stroke="#63b8ff" points="120.43,-59.43 113.88,-56.42 114.13,-49.21 120.69,-52.22 120.43,-59.43"/>
</a>
</g>
<text text-anchor="middle" x="149" y="-70" font-family="Helvetica,sans-Serif" font-size="10.00" fill="grey"> +Value</text>
</g>
</g>
</svg>
</svg>

<style type='text/css'>
<![CDATA[
[data-mouse-over-selected='false'] { opacity: 0.7; }
[data-mouse-over-selected='true']  { opacity: 1.0; }
]]>
</style>
<script type="application/ecmascript"><![CDATA[
document.addEventListener('DOMContentLoaded', (event) => {
  highlightEdges();
  highlightAdjacentNodes();
});
]]></script>
</svg>
