<?xml version="1.0" encoding="UTF-8" standalone="no"?>
<!DOCTYPE svg PUBLIC "-//W3C//DTD SVG 1.1//EN"
 "http://www.w3.org/Graphics/SVG/1.1/DTD/svg11.dtd">
<!-- Generated by graphviz version 2.43.0 (0)
 -->
<!-- Title: cie::FunctionTraits&lt; std::function&lt; TReturn(TArguments...)&gt; &gt; Pages: 1 -->
<svg width="331pt" height="175pt"
 viewBox="0.00 0.00 331.00 175.00" xmlns="http://www.w3.org/2000/svg" xmlns:xlink="http://www.w3.org/1999/xlink">
<g id="graph0" class="graph" transform="scale(1 1) rotate(0) translate(4 171)">
<title>cie::FunctionTraits&lt; std::function&lt; TReturn(TArguments...)&gt; &gt;</title>
<!-- Node1 -->
<g id="Node000001" class="node">
<title>Node1</title>
<g id="a_Node000001"><a xlink:title=" ">
<polygon fill="#999999" stroke="transparent" points="219,-71 87,-71 87,0 219,0 219,-71"/>
<text text-anchor="start" x="92" y="-58.5" font-family="Helvetica,sans-Serif" font-size="10.00">cie::FunctionTraits</text>
<text text-anchor="start" x="92" y="-47.5" font-family="Helvetica,sans-Serif" font-size="10.00">&lt; std::function&lt; TReturn</text>
<text text-anchor="start" x="105.5" y="-36.5" font-family="Helvetica,sans-Serif" font-size="10.00">(TArguments...)&gt; &gt;</text>
<text text-anchor="start" x="151" y="-21.5" font-family="Helvetica,sans-Serif" font-size="10.00"> </text>
<text text-anchor="start" x="151" y="-6.5" font-family="Helvetica,sans-Serif" font-size="10.00"> </text>
<polygon fill="#666666" stroke="#666666" points="87,-31.5 87,-31.5 219,-31.5 219,-31.5 87,-31.5"/>
<polygon fill="#666666" stroke="#666666" points="87,-16.5 87,-16.5 219,-16.5 219,-16.5 87,-16.5"/>
<polygon fill="none" stroke="#666666" points="87,0 87,-71 219,-71 219,0 87,0"/>
</a>
</g>
</g>
<!-- Node2 -->
<g id="Node000002" class="node">
<title>Node2</title>
<g id="a_Node000002"><a xlink:title=" ">
<polygon fill="white" stroke="transparent" points="78,-167 0,-167 0,-118 78,-118 78,-167"/>
<text text-anchor="start" x="5" y="-154.5" font-family="Helvetica,sans-Serif" font-size="10.00">std::true_type</text>
<text text-anchor="start" x="37" y="-139.5" font-family="Helvetica,sans-Serif" font-size="10.00"> </text>
<text text-anchor="start" x="37" y="-124.5" font-family="Helvetica,sans-Serif" font-size="10.00"> </text>
<polygon fill="#666666" stroke="#666666" points="0,-149.5 0,-149.5 78,-149.5 78,-149.5 0,-149.5"/>
<polygon fill="#666666" stroke="#666666" points="0,-134.5 0,-134.5 78,-134.5 78,-134.5 0,-134.5"/>
<polygon fill="none" stroke="#666666" points="0,-118 0,-167 78,-167 78,-118 0,-118"/>
</a>
</g>
</g>
<!-- Node2&#45;&gt;Node1 -->
<g id="edge1_Node000001_Node000002" class="edge">
<title>Node2&#45;&gt;Node1</title>
<g id="a_edge1_Node000001_Node000002"><a xlink:title=" ">
<path fill="none" stroke="#63b8ff" d="M72.26,-110.87C85.77,-98.42 101.46,-83.98 115.38,-71.15"/>
<polygon fill="none" stroke="#63b8ff" points="69.57,-108.59 64.58,-117.94 74.31,-113.74 69.57,-108.59"/>
</a>
</g>
</g>
<!-- Node3 -->
<g id="Node000003" class="node">
<title>Node3</title>
<g id="a_Node000003"><a xlink:title=" ">
<polygon fill="white" stroke="transparent" points="209.5,-167 96.5,-167 96.5,-118 209.5,-118 209.5,-167"/>
<text text-anchor="start" x="102" y="-154.5" font-family="Helvetica,sans-Serif" font-size="10.00">static constexpr bool</text>
<text text-anchor="start" x="151.5" y="-139.5" font-family="Helvetica,sans-Serif" font-size="10.00"> </text>
<text text-anchor="start" x="151.5" y="-124.5" font-family="Helvetica,sans-Serif" font-size="10.00"> </text>
<polygon fill="#666666" stroke="#666666" points="97,-149.5 97,-149.5 210,-149.5 210,-149.5 97,-149.5"/>
<polygon fill="#666666" stroke="#666666" points="97,-134.5 97,-134.5 210,-134.5 210,-134.5 97,-134.5"/>
<polygon fill="none" stroke="#666666" points="96.5,-118 96.5,-167 209.5,-167 209.5,-118 96.5,-118"/>
</a>
</g>
</g>
<!-- Node3&#45;&gt;Node1 -->
<g id="edge2_Node000001_Node000003" class="edge">
<title>Node3&#45;&gt;Node1</title>
<g id="a_edge2_Node000001_Node000003"><a xlink:title=" ">
<path fill="none" stroke="#63b8ff" d="M153,-117.94C153,-107.7 153,-95.34 153,-83.37"/>
<polygon fill="none" stroke="#63b8ff" points="153,-83.15 149,-77.15 153,-71.15 157,-77.15 153,-83.15"/>
</a>
</g>
<text text-anchor="middle" x="172.5" y="-92" font-family="Helvetica,sans-Serif" font-size="10.00" fill="grey"> +Value</text>
</g>
<!-- Node4 -->
<g id="Node000004" class="node">
<title>Node4</title>
<g id="a_Node000004"><a xlink:title=" ">
<polygon fill="white" stroke="transparent" points="266.5,-167 227.5,-167 227.5,-118 266.5,-118 266.5,-167"/>
<text text-anchor="start" x="233" y="-154.5" font-family="Helvetica,sans-Serif" font-size="10.00">size_t</text>
<text text-anchor="start" x="245.5" y="-139.5" font-family="Helvetica,sans-Serif" font-size="10.00"> </text>
<text text-anchor="start" x="245.5" y="-124.5" font-family="Helvetica,sans-Serif" font-size="10.00"> </text>
<polygon fill="#666666" stroke="#666666" points="228,-149.5 228,-149.5 267,-149.5 267,-149.5 228,-149.5"/>
<polygon fill="#666666" stroke="#666666" points="228,-134.5 228,-134.5 267,-134.5 267,-134.5 228,-134.5"/>
<polygon fill="none" stroke="#666666" points="227.5,-118 227.5,-167 266.5,-167 266.5,-118 227.5,-118"/>
</a>
</g>
</g>
<!-- Node4&#45;&gt;Node1 -->
<g id="edge3_Node000001_Node000004" class="edge">
<title>Node4&#45;&gt;Node1</title>
<g id="a_edge3_Node000001_Node000004"><a xlink:title=" ">
<path fill="none" stroke="#63b8ff" d="M227.29,-119.49C217.15,-108.15 204.4,-93.92 192.35,-80.45"/>
<polygon fill="none" stroke="#63b8ff" points="192.15,-80.24 185.17,-78.43 184.15,-71.29 191.13,-73.1 192.15,-80.24"/>
</a>
</g>
<text text-anchor="middle" x="265.5" y="-92" font-family="Helvetica,sans-Serif" font-size="10.00" fill="grey"> +NumberOfArguments</text>
</g>
</g>
</svg>
