<?xml version="1.0" encoding="UTF-8" standalone="no"?>
<!DOCTYPE svg PUBLIC "-//W3C//DTD SVG 1.1//EN"
 "http://www.w3.org/Graphics/SVG/1.1/DTD/svg11.dtd">
<!-- Generated by graphviz version 2.43.0 (0)
 -->
<!-- Title: cie::mp::IndexPartitionFactory::Partition Pages: 1 -->
<svg width="163pt" height="175pt"
 viewBox="0.00 0.00 163.00 175.00" xmlns="http://www.w3.org/2000/svg" xmlns:xlink="http://www.w3.org/1999/xlink">

<svg id="main" version="1.1" xmlns="http://www.w3.org/2000/svg" xmlns:xlink="http://www.w3.org/1999/xlink" xml:space="preserve" onload="init(evt)">
<style type="text/css"><![CDATA[
.node, .edge {opacity: 0.7;}
.node.selected, .edge.selected {opacity: 1;}
.edge:hover path { stroke: red; }
.edge:hover polygon { stroke: red; fill: red; }
]]></style>
<script type="application/ecmascript" xlink:href="svg.min.js"/>
<svg id="graph" class="graph">
<g id="graph0" class="graph" transform="scale(1 1) rotate(0) translate(4 171)">
<title>cie::mp::IndexPartitionFactory::Partition</title>
<!-- Node1 -->
<g id="Node000001" class="node">
<title>Node1</title>
<g id="a_Node000001"><a xlink:title=" ">
<polygon fill="#999999" stroke="transparent" points="155,-60 0,-60 0,0 155,0 155,-60"/>
<text text-anchor="start" x="5.5" y="-48" font-family="Helvetica,sans-Serif" font-size="10.00">cie::mp::IndexPartitionFactory</text>
<text text-anchor="start" x="54.5" y="-37" font-family="Helvetica,sans-Serif" font-size="10.00">::Partition</text>
<text text-anchor="start" x="76" y="-22" font-family="Helvetica,sans-Serif" font-size="10.00"> </text>
<text text-anchor="start" x="76" y="-7" font-family="Helvetica,sans-Serif" font-size="10.00"> </text>
<polygon fill="#666666" stroke="#666666" points="0.5,-32 0.5,-32 155.5,-32 155.5,-32 0.5,-32"/>
<polygon fill="#666666" stroke="#666666" points="0.5,-17 0.5,-17 155.5,-17 155.5,-17 0.5,-17"/>
<polygon fill="none" stroke="#666666" points="0,0 0,-60 155,-60 155,0 0,0"/>
</a>
</g>
</g>
<!-- Node2 -->
<g id="Node000002" class="node">
<title>Node2</title>
<g id="a_Node000002"><a xlink:title=" ">
<polygon fill="white" stroke="transparent" points="66,-167 27,-167 27,-118 66,-118 66,-167"/>
<text text-anchor="start" x="32.5" y="-154.5" font-family="Helvetica,sans-Serif" font-size="10.00">size_t</text>
<text text-anchor="start" x="45" y="-139.5" font-family="Helvetica,sans-Serif" font-size="10.00"> </text>
<text text-anchor="start" x="45" y="-124.5" font-family="Helvetica,sans-Serif" font-size="10.00"> </text>
<polygon fill="#666666" stroke="#666666" points="27.5,-149.5 27.5,-149.5 66.5,-149.5 66.5,-149.5 27.5,-149.5"/>
<polygon fill="#666666" stroke="#666666" points="27.5,-134.5 27.5,-134.5 66.5,-134.5 66.5,-134.5 27.5,-134.5"/>
<polygon fill="none" stroke="#666666" points="27,-118 27,-167 66,-167 66,-118 27,-118"/>
</a>
</g>
</g>
<!-- Node2&#45;&gt;Node1 -->
<g id="edge1_Node000001_Node000002" class="edge">
<title>Node2&#45;&gt;Node1</title>
<g id="a_edge1_Node000001_Node000002"><a xlink:title=" ">
<path fill="none" stroke="#63b8ff" d="M43.84,-117.81C43.23,-105.66 43.66,-90.78 47.5,-78 48.22,-75.61 49.1,-73.22 50.09,-70.87"/>
<polygon fill="none" stroke="#63b8ff" points="50.1,-70.85 49.22,-63.69 55.49,-60.13 56.37,-67.28 50.1,-70.85"/>
</a>
</g>
<text text-anchor="middle" x="67" y="-92" font-family="Helvetica,sans-Serif" font-size="10.00" fill="grey"> +begin</text>
<text text-anchor="middle" x="67" y="-81" font-family="Helvetica,sans-Serif" font-size="10.00" fill="grey">+end</text>
</g>
<!-- Node3 -->
<g id="Node000003" class="node">
<title>Node3</title>
<g id="a_Node000003"><a xlink:title=" ">
<polygon fill="white" stroke="transparent" points="124.5,-167 92.5,-167 92.5,-118 124.5,-118 124.5,-167"/>
<text text-anchor="start" x="97.5" y="-154.5" font-family="Helvetica,sans-Serif" font-size="10.00">long</text>
<text text-anchor="start" x="106.5" y="-139.5" font-family="Helvetica,sans-Serif" font-size="10.00"> </text>
<text text-anchor="start" x="106.5" y="-124.5" font-family="Helvetica,sans-Serif" font-size="10.00"> </text>
<polygon fill="#666666" stroke="#666666" points="92.5,-149.5 92.5,-149.5 124.5,-149.5 124.5,-149.5 92.5,-149.5"/>
<polygon fill="#666666" stroke="#666666" points="92.5,-134.5 92.5,-134.5 124.5,-134.5 124.5,-134.5 92.5,-134.5"/>
<polygon fill="none" stroke="#666666" points="92.5,-118 92.5,-167 124.5,-167 124.5,-118 92.5,-118"/>
</a>
</g>
</g>
<!-- Node3&#45;&gt;Node1 -->
<g id="edge2_Node000001_Node000003" class="edge">
<title>Node3&#45;&gt;Node1</title>
<g id="a_edge2_Node000001_Node000003"><a xlink:title=" ">
<path fill="none" stroke="#63b8ff" d="M101.85,-117.79C98.12,-104.48 93.35,-87.5 89.03,-72.09"/>
<polygon fill="none" stroke="#63b8ff" points="88.93,-71.73 83.45,-67.03 85.68,-60.17 91.16,-64.87 88.93,-71.73"/>
</a>
</g>
<text text-anchor="middle" x="113" y="-86.5" font-family="Helvetica,sans-Serif" font-size="10.00" fill="grey"> +step</text>
</g>
</g>
</svg>
</svg>

<style type='text/css'>
<![CDATA[
[data-mouse-over-selected='false'] { opacity: 0.7; }
[data-mouse-over-selected='true']  { opacity: 1.0; }
]]>
</style>
<script type="application/ecmascript"><![CDATA[
document.addEventListener('DOMContentLoaded', (event) => {
  highlightEdges();
  highlightAdjacentNodes();
});
]]></script>
</svg>
