<?xml version="1.0" encoding="UTF-8" standalone="no"?>
<!DOCTYPE svg PUBLIC "-//W3C//DTD SVG 1.1//EN"
 "http://www.w3.org/Graphics/SVG/1.1/DTD/svg11.dtd">
<!-- Generated by graphviz version 2.43.0 (0)
 -->
<!-- Title: cie::tags::Null Pages: 1 -->
<svg width="115pt" height="288pt"
 viewBox="0.00 0.00 115.00 288.00" xmlns="http://www.w3.org/2000/svg" xmlns:xlink="http://www.w3.org/1999/xlink">
<g id="graph0" class="graph" transform="scale(1 1) rotate(0) translate(4 284)">
<title>cie::tags::Null</title>
<polygon fill="white" stroke="transparent" points="-4,4 -4,-284 111,-284 111,4 -4,4"/>
<!-- Node1 -->
<g id="node1" class="node">
<title>Node1</title>
<g id="a_node1"><a xlink:title="Tag to indicate a void property.">
<polygon fill="#bfbfbf" stroke="black" points="7.5,-0.5 7.5,-57.5 90.5,-57.5 90.5,-0.5 7.5,-0.5"/>
<text text-anchor="middle" x="49" y="-45.5" font-family="Helvetica,sans-Serif" font-size="10.00">cie::tags::Null</text>
<polyline fill="none" stroke="black" points="7.5,-38.5 90.5,-38.5 "/>
<text text-anchor="middle" x="49" y="-26.5" font-family="Helvetica,sans-Serif" font-size="10.00"> </text>
<polyline fill="none" stroke="black" points="7.5,-19.5 90.5,-19.5 "/>
<text text-anchor="middle" x="49" y="-7.5" font-family="Helvetica,sans-Serif" font-size="10.00"> </text>
</a>
</g>
</g>
<!-- Node2 -->
<g id="node2" class="node">
<title>Node2</title>
<g id="a_node2"><a xlink:title=" ">
<polygon fill="white" stroke="#bfbfbf" points="0,-95.5 0,-163.5 98,-163.5 98,-95.5 0,-95.5"/>
<text text-anchor="start" x="8" y="-151.5" font-family="Helvetica,sans-Serif" font-size="10.00">cie::tags::detail::</text>
<text text-anchor="middle" x="49" y="-140.5" font-family="Helvetica,sans-Serif" font-size="10.00">Tag&lt; 0, Null &gt;</text>
<polyline fill="none" stroke="#bfbfbf" points="0,-133.5 98,-133.5 "/>
<text text-anchor="middle" x="49" y="-121.5" font-family="Helvetica,sans-Serif" font-size="10.00"> </text>
<polyline fill="none" stroke="#bfbfbf" points="0,-114.5 98,-114.5 "/>
<text text-anchor="middle" x="49" y="-102.5" font-family="Helvetica,sans-Serif" font-size="10.00"> </text>
</a>
</g>
</g>
<!-- Node2&#45;&gt;Node1 -->
<g id="edge1" class="edge">
<title>Node2&#45;&gt;Node1</title>
<path fill="none" stroke="midnightblue" d="M49,-85.38C49,-75.94 49,-66.2 49,-57.57"/>
<polygon fill="none" stroke="midnightblue" points="45.5,-85.43 49,-95.43 52.5,-85.43 45.5,-85.43"/>
</g>
<!-- Node3 -->
<g id="node3" class="node">
<title>Node3</title>
<g id="a_node3"><a xlink:title=" ">
<polygon fill="white" stroke="#bfbfbf" points="0,-211.5 0,-279.5 98,-279.5 98,-211.5 0,-211.5"/>
<text text-anchor="start" x="8" y="-267.5" font-family="Helvetica,sans-Serif" font-size="10.00">cie::tags::detail::</text>
<text text-anchor="middle" x="49" y="-256.5" font-family="Helvetica,sans-Serif" font-size="10.00">Tag&lt; ID, TSelf &gt;</text>
<polyline fill="none" stroke="#bfbfbf" points="0,-249.5 98,-249.5 "/>
<text text-anchor="middle" x="49" y="-237.5" font-family="Helvetica,sans-Serif" font-size="10.00"> </text>
<polyline fill="none" stroke="#bfbfbf" points="0,-230.5 98,-230.5 "/>
<text text-anchor="middle" x="49" y="-218.5" font-family="Helvetica,sans-Serif" font-size="10.00"> </text>
</a>
</g>
</g>
<!-- Node3&#45;&gt;Node2 -->
<g id="edge2" class="edge">
<title>Node3&#45;&gt;Node2</title>
<path fill="none" stroke="orange" d="M49,-201.06C49,-188.64 49,-175.32 49,-163.62"/>
<polygon fill="orange" stroke="orange" points="45.5,-201.22 49,-211.22 52.5,-201.22 45.5,-201.22"/>
<text text-anchor="middle" x="78" y="-185" font-family="Helvetica,sans-Serif" font-size="10.00"> &lt; 0, Null &gt;</text>
</g>
</g>
</svg>
