<?xml version="1.0" encoding="UTF-8" standalone="no"?>
<!DOCTYPE svg PUBLIC "-//W3C//DTD SVG 1.1//EN"
 "http://www.w3.org/Graphics/SVG/1.1/DTD/svg11.dtd">
<!-- Generated by graphviz version 2.43.0 (0)
 -->
<!-- Title: cie::mp::IndexPartitionFactory Pages: 1 -->
<svg width="198pt" height="248pt"
 viewBox="0.00 0.00 198.00 248.00" xmlns="http://www.w3.org/2000/svg" xmlns:xlink="http://www.w3.org/1999/xlink">
<g id="graph0" class="graph" transform="scale(1 1) rotate(0) translate(4 244)">
<title>cie::mp::IndexPartitionFactory</title>
<polygon fill="white" stroke="transparent" points="-4,4 -4,-244 194,-244 194,4 -4,4"/>
<!-- Node1 -->
<g id="node1" class="node">
<title>Node1</title>
<g id="a_node1"><a xlink:title=" ">
<polygon fill="#bfbfbf" stroke="black" points="14.5,-149.5 14.5,-239.5 175.5,-239.5 175.5,-149.5 14.5,-149.5"/>
<text text-anchor="middle" x="95" y="-227.5" font-family="Helvetica,sans-Serif" font-size="10.00">cie::mp::IndexPartitionFactory</text>
<polyline fill="none" stroke="black" points="14.5,-220.5 175.5,-220.5 "/>
<text text-anchor="middle" x="95" y="-208.5" font-family="Helvetica,sans-Serif" font-size="10.00"> </text>
<polyline fill="none" stroke="black" points="14.5,-201.5 175.5,-201.5 "/>
<text text-anchor="start" x="22.5" y="-189.5" font-family="Helvetica,sans-Serif" font-size="10.00">+ size()</text>
<text text-anchor="start" x="22.5" y="-178.5" font-family="Helvetica,sans-Serif" font-size="10.00">+ empty()</text>
<text text-anchor="start" x="22.5" y="-167.5" font-family="Helvetica,sans-Serif" font-size="10.00">+ getPartition()</text>
<text text-anchor="start" x="22.5" y="-156.5" font-family="Helvetica,sans-Serif" font-size="10.00">+ ~IndexPartitionFactory()</text>
</a>
</g>
</g>
<!-- Node2 -->
<g id="node2" class="node">
<title>Node2</title>
<g id="a_node2"><a xlink:href="classcie_1_1mp_1_1DynamicIndexPartitionFactory.html" target="_top" xlink:title=" ">
<polygon fill="white" stroke="black" points="0,-0.5 0,-112.5 190,-112.5 190,-0.5 0,-0.5"/>
<text text-anchor="start" x="8" y="-100.5" font-family="Helvetica,sans-Serif" font-size="10.00">cie::mp::DynamicIndexPartition</text>
<text text-anchor="middle" x="95" y="-89.5" font-family="Helvetica,sans-Serif" font-size="10.00">Factory</text>
<polyline fill="none" stroke="black" points="0,-82.5 190,-82.5 "/>
<text text-anchor="middle" x="95" y="-70.5" font-family="Helvetica,sans-Serif" font-size="10.00"> </text>
<polyline fill="none" stroke="black" points="0,-63.5 190,-63.5 "/>
<text text-anchor="start" x="8" y="-51.5" font-family="Helvetica,sans-Serif" font-size="10.00">+ DynamicIndexPartitionFactory()</text>
<text text-anchor="start" x="8" y="-40.5" font-family="Helvetica,sans-Serif" font-size="10.00">+ DynamicIndexPartitionFactory()</text>
<text text-anchor="start" x="8" y="-29.5" font-family="Helvetica,sans-Serif" font-size="10.00">+ ~DynamicIndexPartitionFactory()</text>
<text text-anchor="start" x="8" y="-18.5" font-family="Helvetica,sans-Serif" font-size="10.00">+ size()</text>
<text text-anchor="start" x="8" y="-7.5" font-family="Helvetica,sans-Serif" font-size="10.00">+ getPartition()</text>
</a>
</g>
</g>
<!-- Node1&#45;&gt;Node2 -->
<g id="edge1" class="edge">
<title>Node1&#45;&gt;Node2</title>
<path fill="none" stroke="midnightblue" d="M95,-139.31C95,-130.61 95,-121.59 95,-112.87"/>
<polygon fill="none" stroke="midnightblue" points="91.5,-139.34 95,-149.34 98.5,-139.34 91.5,-139.34"/>
</g>
</g>
</svg>
