<?xml version="1.0" encoding="UTF-8" standalone="no"?>
<!DOCTYPE svg PUBLIC "-//W3C//DTD SVG 1.1//EN"
 "http://www.w3.org/Graphics/SVG/1.1/DTD/svg11.dtd">
<!-- Generated by graphviz version 2.43.0 (0)
 -->
<!-- Title: cie::ct::SelectIntegral&lt; T, Is &gt; Pages: 1 -->
<svg width="121pt" height="175pt"
 viewBox="0.00 0.00 121.00 175.00" xmlns="http://www.w3.org/2000/svg" xmlns:xlink="http://www.w3.org/1999/xlink">
<g id="graph0" class="graph" transform="scale(1 1) rotate(0) translate(4 171)">
<title>cie::ct::SelectIntegral&lt; T, Is &gt;</title>
<!-- Node1 -->
<g id="Node000001" class="node">
<title>Node1</title>
<g id="a_Node000001"><a xlink:title=" ">
<polygon fill="#999999" stroke="transparent" points="113,-60 0,-60 0,0 113,0 113,-60"/>
<text text-anchor="start" x="5.5" y="-48" font-family="Helvetica,sans-Serif" font-size="10.00">cie::ct::SelectIntegral</text>
<text text-anchor="start" x="35.5" y="-37" font-family="Helvetica,sans-Serif" font-size="10.00">&lt; T, Is &gt;</text>
<text text-anchor="start" x="55" y="-22" font-family="Helvetica,sans-Serif" font-size="10.00"> </text>
<text text-anchor="start" x="55" y="-7" font-family="Helvetica,sans-Serif" font-size="10.00"> </text>
<polygon fill="#666666" stroke="#666666" points="0.5,-32 0.5,-32 113.5,-32 113.5,-32 0.5,-32"/>
<polygon fill="#666666" stroke="#666666" points="0.5,-17 0.5,-17 113.5,-17 113.5,-17 0.5,-17"/>
<polygon fill="none" stroke="#666666" points="0,0 0,-60 113,-60 113,0 0,0"/>
</a>
</g>
</g>
<!-- Node2 -->
<g id="Node000002" class="node">
<title>Node2</title>
<g id="a_Node000002"><a xlink:title=" ">
<polygon fill="white" stroke="transparent" points="65,-167 48,-167 48,-118 65,-118 65,-167"/>
<text text-anchor="start" x="53.5" y="-154.5" font-family="Helvetica,sans-Serif" font-size="10.00">T</text>
<text text-anchor="start" x="55" y="-139.5" font-family="Helvetica,sans-Serif" font-size="10.00"> </text>
<text text-anchor="start" x="55" y="-124.5" font-family="Helvetica,sans-Serif" font-size="10.00"> </text>
<polygon fill="#666666" stroke="#666666" points="48.5,-149.5 48.5,-149.5 65.5,-149.5 65.5,-149.5 48.5,-149.5"/>
<polygon fill="#666666" stroke="#666666" points="48.5,-134.5 48.5,-134.5 65.5,-134.5 65.5,-134.5 48.5,-134.5"/>
<polygon fill="none" stroke="#666666" points="48,-118 48,-167 65,-167 65,-118 48,-118"/>
</a>
</g>
</g>
<!-- Node2&#45;&gt;Node1 -->
<g id="edge1_Node000001_Node000002" class="edge">
<title>Node2&#45;&gt;Node1</title>
<g id="a_edge1_Node000001_Node000002"><a xlink:title=" ">
<path fill="none" stroke="#63b8ff" d="M56.5,-117.79C56.5,-104.62 56.5,-87.84 56.5,-72.55"/>
<polygon fill="none" stroke="#63b8ff" points="56.5,-72.17 52.5,-66.17 56.5,-60.17 60.5,-66.17 56.5,-72.17"/>
</a>
</g>
<text text-anchor="middle" x="73" y="-92" font-family="Helvetica,sans-Serif" font-size="10.00" fill="grey"> +First</text>
<text text-anchor="middle" x="73" y="-81" font-family="Helvetica,sans-Serif" font-size="10.00" fill="grey">+Last</text>
</g>
</g>
</svg>
