<?xml version="1.0" encoding="UTF-8" standalone="no"?>
<!DOCTYPE svg PUBLIC "-//W3C//DTD SVG 1.1//EN"
 "http://www.w3.org/Graphics/SVG/1.1/DTD/svg11.dtd">
<!-- Generated by graphviz version 2.43.0 (0)
 -->
<!-- Title: cie::utils::SymmetricPair&lt; TValue &gt; Pages: 1 -->
<svg width="143pt" height="259pt"
 viewBox="0.00 0.00 143.00 259.00" xmlns="http://www.w3.org/2000/svg" xmlns:xlink="http://www.w3.org/1999/xlink">
<g id="graph0" class="graph" transform="scale(1 1) rotate(0) translate(4 255)">
<title>cie::utils::SymmetricPair&lt; TValue &gt;</title>
<polygon fill="white" stroke="transparent" points="-4,4 -4,-255 139,-255 139,4 -4,4"/>
<!-- Node1 -->
<g id="node1" class="node">
<title>Node1</title>
<g id="a_node1"><a xlink:title="Identical to std::pair but overloads comparison and hash operators to disregard member order.">
<polygon fill="#bfbfbf" stroke="black" points="0,-0.5 0,-134.5 135,-134.5 135,-0.5 0,-0.5"/>
<text text-anchor="start" x="8" y="-122.5" font-family="Helvetica,sans-Serif" font-size="10.00">cie::utils::SymmetricPair</text>
<text text-anchor="middle" x="67.5" y="-111.5" font-family="Helvetica,sans-Serif" font-size="10.00">&lt; TValue &gt;</text>
<polyline fill="none" stroke="black" points="0,-104.5 135,-104.5 "/>
<text text-anchor="middle" x="67.5" y="-92.5" font-family="Helvetica,sans-Serif" font-size="10.00"> </text>
<polyline fill="none" stroke="black" points="0,-85.5 135,-85.5 "/>
<text text-anchor="start" x="8" y="-73.5" font-family="Helvetica,sans-Serif" font-size="10.00">+ SymmetricPair()</text>
<text text-anchor="start" x="8" y="-62.5" font-family="Helvetica,sans-Serif" font-size="10.00">+ SymmetricPair()</text>
<text text-anchor="start" x="8" y="-51.5" font-family="Helvetica,sans-Serif" font-size="10.00">+ SymmetricPair()</text>
<text text-anchor="start" x="8" y="-40.5" font-family="Helvetica,sans-Serif" font-size="10.00">+ SymmetricPair()</text>
<text text-anchor="start" x="8" y="-29.5" font-family="Helvetica,sans-Serif" font-size="10.00">+ SymmetricPair()</text>
<text text-anchor="start" x="8" y="-18.5" font-family="Helvetica,sans-Serif" font-size="10.00">+ operator std::pair</text>
<text text-anchor="start" x="8" y="-7.5" font-family="Helvetica,sans-Serif" font-size="10.00">&lt; TValue, TValue &gt;()</text>
</a>
</g>
</g>
<!-- Node2 -->
<g id="node2" class="node">
<title>Node2</title>
<g id="a_node2"><a xlink:title=" ">
<polygon fill="white" stroke="#bfbfbf" points="42.5,-193.5 42.5,-250.5 92.5,-250.5 92.5,-193.5 42.5,-193.5"/>
<text text-anchor="middle" x="67.5" y="-238.5" font-family="Helvetica,sans-Serif" font-size="10.00">TValue</text>
<polyline fill="none" stroke="#bfbfbf" points="42.5,-231.5 92.5,-231.5 "/>
<text text-anchor="middle" x="67.5" y="-219.5" font-family="Helvetica,sans-Serif" font-size="10.00"> </text>
<polyline fill="none" stroke="#bfbfbf" points="42.5,-212.5 92.5,-212.5 "/>
<text text-anchor="middle" x="67.5" y="-200.5" font-family="Helvetica,sans-Serif" font-size="10.00"> </text>
</a>
</g>
</g>
<!-- Node2&#45;&gt;Node1 -->
<g id="edge1" class="edge">
<title>Node2&#45;&gt;Node1</title>
<path fill="none" stroke="#404040" d="M67.5,-193.38C67.5,-180.12 67.5,-163.49 67.5,-146.74"/>
<polygon fill="none" stroke="#404040" points="67.5,-146.56 63.5,-140.56 67.5,-134.56 71.5,-140.56 67.5,-146.56"/>
<text text-anchor="middle" x="89" y="-167" font-family="Helvetica,sans-Serif" font-size="10.00"> +first</text>
<text text-anchor="middle" x="89" y="-156" font-family="Helvetica,sans-Serif" font-size="10.00">+second</text>
</g>
</g>
</svg>
