<?xml version="1.0" encoding="UTF-8" standalone="no"?>
<!DOCTYPE svg PUBLIC "-//W3C//DTD SVG 1.1//EN"
 "http://www.w3.org/Graphics/SVG/1.1/DTD/svg11.dtd">
<!-- Generated by graphviz version 2.43.0 (0)
 -->
<!-- Title: cie::ct::impl::StripIntegralArray&lt; T, TFirst, TRest... &gt; Pages: 1 -->
<svg width="149pt" height="175pt"
 viewBox="0.00 0.00 149.00 175.00" xmlns="http://www.w3.org/2000/svg" xmlns:xlink="http://www.w3.org/1999/xlink">

<svg id="main" version="1.1" xmlns="http://www.w3.org/2000/svg" xmlns:xlink="http://www.w3.org/1999/xlink" xml:space="preserve" onload="init(evt)">
<style type="text/css"><![CDATA[
.node, .edge {opacity: 0.7;}
.node.selected, .edge.selected {opacity: 1;}
.edge:hover path { stroke: red; }
.edge:hover polygon { stroke: red; fill: red; }
]]></style>
<script type="application/ecmascript" xlink:href="svg.min.js"/>
<svg id="graph" class="graph">
<g id="graph0" class="graph" transform="scale(1 1) rotate(0) translate(4 171)">
<title>cie::ct::impl::StripIntegralArray&lt; T, TFirst, TRest... &gt;</title>
<!-- Node1 -->
<g id="Node000001" class="node">
<title>Node1</title>
<g id="a_Node000001"><a xlink:title=" ">
<polygon fill="#999999" stroke="transparent" points="141,-60 0,-60 0,0 141,0 141,-60"/>
<text text-anchor="start" x="5.5" y="-48" font-family="Helvetica,sans-Serif" font-size="10.00">cie::ct::impl::StripIntegral</text>
<text text-anchor="start" x="5.5" y="-37" font-family="Helvetica,sans-Serif" font-size="10.00">Array&lt; T, TFirst, TRest... &gt;</text>
<text text-anchor="start" x="69" y="-22" font-family="Helvetica,sans-Serif" font-size="10.00"> </text>
<text text-anchor="start" x="69" y="-7" font-family="Helvetica,sans-Serif" font-size="10.00"> </text>
<polygon fill="#666666" stroke="#666666" points="0.5,-32 0.5,-32 141.5,-32 141.5,-32 0.5,-32"/>
<polygon fill="#666666" stroke="#666666" points="0.5,-17 0.5,-17 141.5,-17 141.5,-17 0.5,-17"/>
<polygon fill="none" stroke="#666666" points="0,0 0,-60 141,-60 141,0 0,0"/>
</a>
</g>
</g>
<!-- Node2 -->
<g id="Node000002" class="node">
<title>Node2</title>
<g id="a_Node000002"><a xlink:title=" ">
<polygon fill="white" stroke="transparent" points="79,-167 62,-167 62,-118 79,-118 79,-167"/>
<text text-anchor="start" x="67.5" y="-154.5" font-family="Helvetica,sans-Serif" font-size="10.00">T</text>
<text text-anchor="start" x="69" y="-139.5" font-family="Helvetica,sans-Serif" font-size="10.00"> </text>
<text text-anchor="start" x="69" y="-124.5" font-family="Helvetica,sans-Serif" font-size="10.00"> </text>
<polygon fill="#666666" stroke="#666666" points="62.5,-149.5 62.5,-149.5 79.5,-149.5 79.5,-149.5 62.5,-149.5"/>
<polygon fill="#666666" stroke="#666666" points="62.5,-134.5 62.5,-134.5 79.5,-134.5 79.5,-134.5 62.5,-134.5"/>
<polygon fill="none" stroke="#666666" points="62,-118 62,-167 79,-167 79,-118 62,-118"/>
</a>
</g>
</g>
<!-- Node2&#45;&gt;Node1 -->
<g id="edge1_Node000001_Node000002" class="edge">
<title>Node2&#45;&gt;Node1</title>
<g id="a_edge1_Node000001_Node000002"><a xlink:title=" ">
<path fill="none" stroke="#63b8ff" d="M70.5,-117.79C70.5,-104.62 70.5,-87.84 70.5,-72.55"/>
<polygon fill="none" stroke="#63b8ff" points="70.5,-72.17 66.5,-66.17 70.5,-60.17 74.5,-66.17 70.5,-72.17"/>
</a>
</g>
<text text-anchor="middle" x="87" y="-92" font-family="Helvetica,sans-Serif" font-size="10.00" fill="grey"> +First</text>
<text text-anchor="middle" x="87" y="-81" font-family="Helvetica,sans-Serif" font-size="10.00" fill="grey">+Last</text>
</g>
</g>
</svg>
</svg>

<style type='text/css'>
<![CDATA[
[data-mouse-over-selected='false'] { opacity: 0.7; }
[data-mouse-over-selected='true']  { opacity: 1.0; }
]]>
</style>
<script type="application/ecmascript"><![CDATA[
document.addEventListener('DOMContentLoaded', (event) => {
  highlightEdges();
  highlightAdjacentNodes();
});
]]></script>
</svg>
