<?xml version="1.0" encoding="UTF-8" standalone="no"?>
<!DOCTYPE svg PUBLIC "-//W3C//DTD SVG 1.1//EN"
 "http://www.w3.org/Graphics/SVG/1.1/DTD/svg11.dtd">
<!-- Generated by graphviz version 2.43.0 (0)
 -->
<!-- Title: cie::ct::impl::StripIntegralArray&lt; T, TLast &gt; Pages: 1 -->
<svg width="142pt" height="175pt"
 viewBox="0.00 0.00 142.00 175.00" xmlns="http://www.w3.org/2000/svg" xmlns:xlink="http://www.w3.org/1999/xlink">
<g id="graph0" class="graph" transform="scale(1 1) rotate(0) translate(4 171)">
<title>cie::ct::impl::StripIntegralArray&lt; T, TLast &gt;</title>
<!-- Node1 -->
<g id="Node000001" class="node">
<title>Node1</title>
<g id="a_Node000001"><a xlink:title=" ">
<polygon fill="#999999" stroke="transparent" points="134,-60 0,-60 0,0 134,0 134,-60"/>
<text text-anchor="start" x="5" y="-48" font-family="Helvetica,sans-Serif" font-size="10.00">cie::ct::impl::StripIntegral</text>
<text text-anchor="start" x="23" y="-37" font-family="Helvetica,sans-Serif" font-size="10.00">Array&lt; T, TLast &gt;</text>
<text text-anchor="start" x="65" y="-22" font-family="Helvetica,sans-Serif" font-size="10.00"> </text>
<text text-anchor="start" x="65" y="-7" font-family="Helvetica,sans-Serif" font-size="10.00"> </text>
<polygon fill="#666666" stroke="#666666" points="0,-32 0,-32 134,-32 134,-32 0,-32"/>
<polygon fill="#666666" stroke="#666666" points="0,-17 0,-17 134,-17 134,-17 0,-17"/>
<polygon fill="none" stroke="#666666" points="0,0 0,-60 134,-60 134,0 0,0"/>
</a>
</g>
</g>
<!-- Node2 -->
<g id="Node000002" class="node">
<title>Node2</title>
<g id="a_Node000002"><a xlink:title=" ">
<polygon fill="white" stroke="transparent" points="75.5,-167 58.5,-167 58.5,-118 75.5,-118 75.5,-167"/>
<text text-anchor="start" x="64" y="-154.5" font-family="Helvetica,sans-Serif" font-size="10.00">T</text>
<text text-anchor="start" x="65.5" y="-139.5" font-family="Helvetica,sans-Serif" font-size="10.00"> </text>
<text text-anchor="start" x="65.5" y="-124.5" font-family="Helvetica,sans-Serif" font-size="10.00"> </text>
<polygon fill="#666666" stroke="#666666" points="59,-149.5 59,-149.5 76,-149.5 76,-149.5 59,-149.5"/>
<polygon fill="#666666" stroke="#666666" points="59,-134.5 59,-134.5 76,-134.5 76,-134.5 59,-134.5"/>
<polygon fill="none" stroke="#666666" points="58.5,-118 58.5,-167 75.5,-167 75.5,-118 58.5,-118"/>
</a>
</g>
</g>
<!-- Node2&#45;&gt;Node1 -->
<g id="edge1_Node000001_Node000002" class="edge">
<title>Node2&#45;&gt;Node1</title>
<g id="a_edge1_Node000001_Node000002"><a xlink:title=" ">
<path fill="none" stroke="#63b8ff" d="M67,-117.79C67,-104.62 67,-87.84 67,-72.55"/>
<polygon fill="none" stroke="#63b8ff" points="67,-72.17 63,-66.17 67,-60.17 71,-66.17 67,-72.17"/>
</a>
</g>
<text text-anchor="middle" x="83.5" y="-92" font-family="Helvetica,sans-Serif" font-size="10.00" fill="grey"> +First</text>
<text text-anchor="middle" x="83.5" y="-81" font-family="Helvetica,sans-Serif" font-size="10.00" fill="grey">+Last</text>
</g>
</g>
</svg>
