<?xml version="1.0" encoding="UTF-8" standalone="no"?>
<!DOCTYPE svg PUBLIC "-//W3C//DTD SVG 1.1//EN"
 "http://www.w3.org/Graphics/SVG/1.1/DTD/svg11.dtd">
<!-- Generated by graphviz version 2.43.0 (0)
 -->
<!-- Title: cie::FunctionTraits&lt; T &gt; Pages: 1 -->
<svg width="234pt" height="171pt"
 viewBox="0.00 0.00 234.00 171.00" xmlns="http://www.w3.org/2000/svg" xmlns:xlink="http://www.w3.org/1999/xlink">
<g id="graph0" class="graph" transform="scale(1 1) rotate(0) translate(4 167)">
<title>cie::FunctionTraits&lt; T &gt;</title>
<polygon fill="white" stroke="transparent" points="-4,4 -4,-167 230,-167 230,4 -4,4"/>
<!-- Node1 -->
<g id="node1" class="node">
<title>Node1</title>
<g id="a_node1"><a xlink:title=" ">
<polygon fill="#bfbfbf" stroke="black" points="39,-0.5 39,-57.5 172,-57.5 172,-0.5 39,-0.5"/>
<text text-anchor="middle" x="105.5" y="-45.5" font-family="Helvetica,sans-Serif" font-size="10.00">cie::FunctionTraits&lt; T &gt;</text>
<polyline fill="none" stroke="black" points="39,-38.5 172,-38.5 "/>
<text text-anchor="middle" x="105.5" y="-26.5" font-family="Helvetica,sans-Serif" font-size="10.00"> </text>
<polyline fill="none" stroke="black" points="39,-19.5 172,-19.5 "/>
<text text-anchor="middle" x="105.5" y="-7.5" font-family="Helvetica,sans-Serif" font-size="10.00"> </text>
</a>
</g>
</g>
<!-- Node2 -->
<g id="node2" class="node">
<title>Node2</title>
<g id="a_node2"><a xlink:title=" ">
<polygon fill="white" stroke="#bfbfbf" points="0,-105.5 0,-162.5 89,-162.5 89,-105.5 0,-105.5"/>
<text text-anchor="middle" x="44.5" y="-150.5" font-family="Helvetica,sans-Serif" font-size="10.00">std::false_type</text>
<polyline fill="none" stroke="#bfbfbf" points="0,-143.5 89,-143.5 "/>
<text text-anchor="middle" x="44.5" y="-131.5" font-family="Helvetica,sans-Serif" font-size="10.00"> </text>
<polyline fill="none" stroke="#bfbfbf" points="0,-124.5 89,-124.5 "/>
<text text-anchor="middle" x="44.5" y="-112.5" font-family="Helvetica,sans-Serif" font-size="10.00"> </text>
</a>
</g>
</g>
<!-- Node2&#45;&gt;Node1 -->
<g id="edge1" class="edge">
<title>Node2&#45;&gt;Node1</title>
<path fill="none" stroke="midnightblue" d="M65.95,-96.77C73.56,-83.93 81.99,-69.69 89.11,-57.68"/>
<polygon fill="none" stroke="midnightblue" points="62.93,-95.01 60.85,-105.4 68.95,-98.58 62.93,-95.01"/>
</g>
<!-- Node3 -->
<g id="node3" class="node">
<title>Node3</title>
<g id="a_node3"><a xlink:title=" ">
<polygon fill="white" stroke="#bfbfbf" points="107,-105.5 107,-162.5 226,-162.5 226,-105.5 107,-105.5"/>
<text text-anchor="middle" x="166.5" y="-150.5" font-family="Helvetica,sans-Serif" font-size="10.00">static constexpr bool</text>
<polyline fill="none" stroke="#bfbfbf" points="107,-143.5 226,-143.5 "/>
<text text-anchor="middle" x="166.5" y="-131.5" font-family="Helvetica,sans-Serif" font-size="10.00"> </text>
<polyline fill="none" stroke="#bfbfbf" points="107,-124.5 226,-124.5 "/>
<text text-anchor="middle" x="166.5" y="-112.5" font-family="Helvetica,sans-Serif" font-size="10.00"> </text>
</a>
</g>
</g>
<!-- Node3&#45;&gt;Node1 -->
<g id="edge2" class="edge">
<title>Node3&#45;&gt;Node1</title>
<path fill="none" stroke="#404040" d="M150.15,-105.4C143.38,-93.97 135.42,-80.52 128.11,-68.17"/>
<polygon fill="none" stroke="#404040" points="128.01,-68 121.51,-64.88 121.89,-57.68 128.39,-60.8 128.01,-68"/>
<text text-anchor="middle" x="157" y="-79" font-family="Helvetica,sans-Serif" font-size="10.00"> +Value</text>
</g>
</g>
</svg>
