<?xml version="1.0" encoding="UTF-8" standalone="no"?>
<!DOCTYPE svg PUBLIC "-//W3C//DTD SVG 1.1//EN"
 "http://www.w3.org/Graphics/SVG/1.1/DTD/svg11.dtd">
<!-- Generated by graphviz version 2.43.0 (0)
 -->
<!-- Title: cie::FunctionTraits&lt; std::function&lt; TReturn(TArguments...)&gt; &gt; Pages: 1 -->
<svg width="140pt" height="179pt"
 viewBox="0.00 0.00 140.00 179.00" xmlns="http://www.w3.org/2000/svg" xmlns:xlink="http://www.w3.org/1999/xlink">
<g id="graph0" class="graph" transform="scale(1 1) rotate(0) translate(4 175)">
<title>cie::FunctionTraits&lt; std::function&lt; TReturn(TArguments...)&gt; &gt;</title>
<!-- Node1 -->
<g id="Node000001" class="node">
<title>Node1</title>
<g id="a_Node000001"><a xlink:title=" ">
<polygon fill="#999999" stroke="transparent" points="132,-86 0,-86 0,0 132,0 132,-86"/>
<text text-anchor="start" x="5" y="-74" font-family="Helvetica,sans-Serif" font-size="10.00">cie::FunctionTraits</text>
<text text-anchor="start" x="5" y="-63" font-family="Helvetica,sans-Serif" font-size="10.00">&lt; std::function&lt; TReturn</text>
<text text-anchor="start" x="18.5" y="-52" font-family="Helvetica,sans-Serif" font-size="10.00">(TArguments...)&gt; &gt;</text>
<text text-anchor="start" x="5.5" y="-37" font-family="Helvetica,sans-Serif" font-size="10.00">+</text>
<text text-anchor="start" x="20" y="-37" font-family="Helvetica,sans-Serif" font-size="10.00">Value</text>
<text text-anchor="start" x="5.5" y="-22" font-family="Helvetica,sans-Serif" font-size="10.00">+</text>
<text text-anchor="start" x="20" y="-22" font-family="Helvetica,sans-Serif" font-size="10.00">NumberOfArguments</text>
<text text-anchor="start" x="64" y="-7" font-family="Helvetica,sans-Serif" font-size="10.00"> </text>
<polygon fill="#666666" stroke="#666666" points="0,-47 0,-47 132,-47 132,-47 0,-47"/>
<polygon fill="#666666" stroke="#666666" points="0,-17 0,-17 18,-17 18,-17 0,-17"/>
<polygon fill="#666666" stroke="#666666" points="18,-17 18,-17 132,-17 132,-17 18,-17"/>
<polygon fill="none" stroke="#666666" points="0,0 0,-86 132,-86 132,0 0,0"/>
</a>
</g>
</g>
<!-- Node2 -->
<g id="Node000002" class="node">
<title>Node2</title>
<g id="a_Node000002"><a xlink:title=" ">
<polygon fill="white" stroke="transparent" points="105,-171 27,-171 27,-122 105,-122 105,-171"/>
<text text-anchor="start" x="32" y="-158.5" font-family="Helvetica,sans-Serif" font-size="10.00">std::true_type</text>
<text text-anchor="start" x="64" y="-143.5" font-family="Helvetica,sans-Serif" font-size="10.00"> </text>
<text text-anchor="start" x="64" y="-128.5" font-family="Helvetica,sans-Serif" font-size="10.00"> </text>
<polygon fill="#666666" stroke="#666666" points="27,-153.5 27,-153.5 105,-153.5 105,-153.5 27,-153.5"/>
<polygon fill="#666666" stroke="#666666" points="27,-138.5 27,-138.5 105,-138.5 105,-138.5 27,-138.5"/>
<polygon fill="none" stroke="#666666" points="27,-122 27,-171 105,-171 105,-122 27,-122"/>
</a>
</g>
</g>
<!-- Node2&#45;&gt;Node1 -->
<g id="edge1_Node000001_Node000002" class="edge">
<title>Node2&#45;&gt;Node1</title>
<g id="a_edge1_Node000001_Node000002"><a xlink:title=" ">
<path fill="none" stroke="#63b8ff" d="M66,-111.94C66,-103.68 66,-94.73 66,-86.13"/>
<polygon fill="none" stroke="#63b8ff" points="62.5,-111.96 66,-121.96 69.5,-111.96 62.5,-111.96"/>
</a>
</g>
</g>
</g>
</svg>
