<?xml version="1.0" encoding="UTF-8" standalone="no"?>
<!DOCTYPE svg PUBLIC "-//W3C//DTD SVG 1.1//EN"
 "http://www.w3.org/Graphics/SVG/1.1/DTD/svg11.dtd">
<!-- Generated by graphviz version 2.43.0 (0)
 -->
<!-- Title: cie::tags::Lazy Pages: 1 -->
<svg width="128pt" height="288pt"
 viewBox="0.00 0.00 127.50 288.00" xmlns="http://www.w3.org/2000/svg" xmlns:xlink="http://www.w3.org/1999/xlink">
<g id="graph0" class="graph" transform="scale(1 1) rotate(0) translate(4 284)">
<title>cie::tags::Lazy</title>
<polygon fill="white" stroke="transparent" points="-4,4 -4,-284 123.5,-284 123.5,4 -4,4"/>
<!-- Node1 -->
<g id="node1" class="node">
<title>Node1</title>
<g id="a_node1"><a xlink:title="Tag to indicate lazy execution.">
<polygon fill="#bfbfbf" stroke="black" points="0,-0.5 0,-57.5 117,-57.5 117,-0.5 0,-0.5"/>
<text text-anchor="middle" x="58.5" y="-45.5" font-family="Helvetica,sans-Serif" font-size="10.00">cie::tags::Lazy</text>
<polyline fill="none" stroke="black" points="0,-38.5 117,-38.5 "/>
<text text-anchor="middle" x="58.5" y="-26.5" font-family="Helvetica,sans-Serif" font-size="10.00"> </text>
<polyline fill="none" stroke="black" points="0,-19.5 117,-19.5 "/>
<text text-anchor="start" x="8" y="-7.5" font-family="Helvetica,sans-Serif" font-size="10.00">+ getCompatibility()</text>
</a>
</g>
</g>
<!-- Node2 -->
<g id="node2" class="node">
<title>Node2</title>
<g id="a_node2"><a xlink:title=" ">
<polygon fill="white" stroke="#bfbfbf" points="9.5,-95.5 9.5,-163.5 107.5,-163.5 107.5,-95.5 9.5,-95.5"/>
<text text-anchor="start" x="17.5" y="-151.5" font-family="Helvetica,sans-Serif" font-size="10.00">cie::tags::detail::</text>
<text text-anchor="middle" x="58.5" y="-140.5" font-family="Helvetica,sans-Serif" font-size="10.00">Tag&lt; 1, Lazy &gt;</text>
<polyline fill="none" stroke="#bfbfbf" points="9.5,-133.5 107.5,-133.5 "/>
<text text-anchor="middle" x="58.5" y="-121.5" font-family="Helvetica,sans-Serif" font-size="10.00"> </text>
<polyline fill="none" stroke="#bfbfbf" points="9.5,-114.5 107.5,-114.5 "/>
<text text-anchor="middle" x="58.5" y="-102.5" font-family="Helvetica,sans-Serif" font-size="10.00"> </text>
</a>
</g>
</g>
<!-- Node2&#45;&gt;Node1 -->
<g id="edge1" class="edge">
<title>Node2&#45;&gt;Node1</title>
<path fill="none" stroke="midnightblue" d="M58.5,-85.38C58.5,-75.94 58.5,-66.2 58.5,-57.57"/>
<polygon fill="none" stroke="midnightblue" points="55,-85.43 58.5,-95.43 62,-85.43 55,-85.43"/>
</g>
<!-- Node3 -->
<g id="node3" class="node">
<title>Node3</title>
<g id="a_node3"><a xlink:title=" ">
<polygon fill="white" stroke="#bfbfbf" points="9.5,-211.5 9.5,-279.5 107.5,-279.5 107.5,-211.5 9.5,-211.5"/>
<text text-anchor="start" x="17.5" y="-267.5" font-family="Helvetica,sans-Serif" font-size="10.00">cie::tags::detail::</text>
<text text-anchor="middle" x="58.5" y="-256.5" font-family="Helvetica,sans-Serif" font-size="10.00">Tag&lt; ID, TSelf &gt;</text>
<polyline fill="none" stroke="#bfbfbf" points="9.5,-249.5 107.5,-249.5 "/>
<text text-anchor="middle" x="58.5" y="-237.5" font-family="Helvetica,sans-Serif" font-size="10.00"> </text>
<polyline fill="none" stroke="#bfbfbf" points="9.5,-230.5 107.5,-230.5 "/>
<text text-anchor="middle" x="58.5" y="-218.5" font-family="Helvetica,sans-Serif" font-size="10.00"> </text>
</a>
</g>
</g>
<!-- Node3&#45;&gt;Node2 -->
<g id="edge2" class="edge">
<title>Node3&#45;&gt;Node2</title>
<path fill="none" stroke="orange" d="M58.5,-201.06C58.5,-188.64 58.5,-175.32 58.5,-163.62"/>
<polygon fill="orange" stroke="orange" points="55,-201.22 58.5,-211.22 62,-201.22 55,-201.22"/>
<text text-anchor="middle" x="89" y="-185" font-family="Helvetica,sans-Serif" font-size="10.00"> &lt; 1, Lazy &gt;</text>
</g>
</g>
</svg>
