<?xml version="1.0" encoding="UTF-8" standalone="no"?>
<!DOCTYPE svg PUBLIC "-//W3C//DTD SVG 1.1//EN"
 "http://www.w3.org/Graphics/SVG/1.1/DTD/svg11.dtd">
<!-- Generated by graphviz version 2.43.0 (0)
 -->
<!-- Title: cie::utils::SymmetricPair&lt; TValue &gt; Pages: 1 -->
<svg width="137pt" height="261pt"
 viewBox="0.00 0.00 137.00 261.00" xmlns="http://www.w3.org/2000/svg" xmlns:xlink="http://www.w3.org/1999/xlink">

<svg id="main" version="1.1" xmlns="http://www.w3.org/2000/svg" xmlns:xlink="http://www.w3.org/1999/xlink" xml:space="preserve" onload="init(evt)">
<style type="text/css"><![CDATA[
.node, .edge {opacity: 0.7;}
.node.selected, .edge.selected {opacity: 1;}
.edge:hover path { stroke: red; }
.edge:hover polygon { stroke: red; fill: red; }
]]></style>
<script type="application/ecmascript" xlink:href="svg.min.js"/>
<svg id="graph" class="graph">
<g id="graph0" class="graph" transform="scale(1 1) rotate(0) translate(4 257)">
<title>cie::utils::SymmetricPair&lt; TValue &gt;</title>
<!-- Node1 -->
<g id="Node000001" class="node">
<title>Node1</title>
<g id="a_Node000001"><a xlink:title="Identical to std::pair but overloads comparison and hash operators to disregard member order.">
<polygon fill="#999999" stroke="transparent" points="129,-146 0,-146 0,0 129,0 129,-146"/>
<text text-anchor="start" x="5.5" y="-134" font-family="Helvetica,sans-Serif" font-size="10.00">cie::utils::SymmetricPair</text>
<text text-anchor="start" x="37" y="-123" font-family="Helvetica,sans-Serif" font-size="10.00">&lt; TValue &gt;</text>
<text text-anchor="start" x="63" y="-108" font-family="Helvetica,sans-Serif" font-size="10.00"> </text>
<text text-anchor="start" x="5.5" y="-93" font-family="Helvetica,sans-Serif" font-size="10.00">+</text>
<text text-anchor="start" x="19.5" y="-93" font-family="Helvetica,sans-Serif" font-size="10.00">SymmetricPair()</text>
<text text-anchor="start" x="5.5" y="-78" font-family="Helvetica,sans-Serif" font-size="10.00">+</text>
<text text-anchor="start" x="19.5" y="-78" font-family="Helvetica,sans-Serif" font-size="10.00">SymmetricPair()</text>
<text text-anchor="start" x="5.5" y="-63" font-family="Helvetica,sans-Serif" font-size="10.00">+</text>
<text text-anchor="start" x="19.5" y="-63" font-family="Helvetica,sans-Serif" font-size="10.00">SymmetricPair()</text>
<text text-anchor="start" x="5.5" y="-48" font-family="Helvetica,sans-Serif" font-size="10.00">+</text>
<text text-anchor="start" x="19.5" y="-48" font-family="Helvetica,sans-Serif" font-size="10.00">SymmetricPair()</text>
<text text-anchor="start" x="5.5" y="-33" font-family="Helvetica,sans-Serif" font-size="10.00">+</text>
<text text-anchor="start" x="19.5" y="-33" font-family="Helvetica,sans-Serif" font-size="10.00">SymmetricPair()</text>
<text text-anchor="start" x="5.5" y="-18" font-family="Helvetica,sans-Serif" font-size="10.00">+</text>
<text text-anchor="start" x="19.5" y="-18" font-family="Helvetica,sans-Serif" font-size="10.00">operator std::pair</text>
<text text-anchor="start" x="19.5" y="-7" font-family="Helvetica,sans-Serif" font-size="10.00">&lt; TValue, TValue &gt;()</text>
<polygon fill="#666666" stroke="#666666" points="0.5,-118 0.5,-118 129.5,-118 129.5,-118 0.5,-118"/>
<polygon fill="#666666" stroke="#666666" points="0.5,-103 0.5,-103 129.5,-103 129.5,-103 0.5,-103"/>
<polygon fill="none" stroke="#666666" points="0,0 0,-146 129,-146 129,0 0,0"/>
</a>
</g>
</g>
<!-- Node2 -->
<g id="Node000002" class="node">
<title>Node2</title>
<g id="a_Node000002"><a xlink:title=" ">
<polygon fill="white" stroke="transparent" points="86.5,-253 42.5,-253 42.5,-204 86.5,-204 86.5,-253"/>
<text text-anchor="start" x="47.5" y="-240.5" font-family="Helvetica,sans-Serif" font-size="10.00">TValue</text>
<text text-anchor="start" x="62.5" y="-225.5" font-family="Helvetica,sans-Serif" font-size="10.00"> </text>
<text text-anchor="start" x="62.5" y="-210.5" font-family="Helvetica,sans-Serif" font-size="10.00"> </text>
<polygon fill="#666666" stroke="#666666" points="42.5,-235.5 42.5,-235.5 86.5,-235.5 86.5,-235.5 42.5,-235.5"/>
<polygon fill="#666666" stroke="#666666" points="42.5,-220.5 42.5,-220.5 86.5,-220.5 86.5,-220.5 42.5,-220.5"/>
<polygon fill="none" stroke="#666666" points="42.5,-204 42.5,-253 86.5,-253 86.5,-204 42.5,-204"/>
</a>
</g>
</g>
<!-- Node2&#45;&gt;Node1 -->
<g id="edge1_Node000001_Node000002" class="edge">
<title>Node2&#45;&gt;Node1</title>
<g id="a_edge1_Node000001_Node000002"><a xlink:title=" ">
<path fill="none" stroke="#63b8ff" d="M64.5,-203.85C64.5,-191.33 64.5,-175.12 64.5,-158.41"/>
<polygon fill="none" stroke="#63b8ff" points="64.5,-158.21 60.5,-152.21 64.5,-146.21 68.5,-152.21 64.5,-158.21"/>
</a>
</g>
<text text-anchor="middle" x="86" y="-178" font-family="Helvetica,sans-Serif" font-size="10.00" fill="grey"> +first</text>
<text text-anchor="middle" x="86" y="-167" font-family="Helvetica,sans-Serif" font-size="10.00" fill="grey">+second</text>
</g>
</g>
</svg>
</svg>

<style type='text/css'>
<![CDATA[
[data-mouse-over-selected='false'] { opacity: 0.7; }
[data-mouse-over-selected='true']  { opacity: 1.0; }
]]>
</style>
<script type="application/ecmascript"><![CDATA[
document.addEventListener('DOMContentLoaded', (event) => {
  highlightEdges();
  highlightAdjacentNodes();
});
]]></script>
</svg>
