<?xml version="1.0" encoding="UTF-8" standalone="no"?>
<!DOCTYPE svg PUBLIC "-//W3C//DTD SVG 1.1//EN"
 "http://www.w3.org/Graphics/SVG/1.1/DTD/svg11.dtd">
<!-- Generated by graphviz version 2.43.0 (0)
 -->
<!-- Title: cie::NotImplementedException Pages: 1 -->
<svg width="175pt" height="430pt"
 viewBox="0.00 0.00 175.00 430.00" xmlns="http://www.w3.org/2000/svg" xmlns:xlink="http://www.w3.org/1999/xlink">
<g id="graph0" class="graph" transform="scale(1 1) rotate(0) translate(4 426)">
<title>cie::NotImplementedException</title>
<polygon fill="white" stroke="transparent" points="-4,4 -4,-426 171,-426 171,4 -4,4"/>
<!-- Node1 -->
<g id="node1" class="node">
<title>Node1</title>
<g id="a_node1"><a xlink:title=" ">
<polygon fill="#bfbfbf" stroke="black" points="0,-0.5 0,-90.5 167,-90.5 167,-0.5 0,-0.5"/>
<text text-anchor="middle" x="83.5" y="-78.5" font-family="Helvetica,sans-Serif" font-size="10.00">cie::NotImplementedException</text>
<polyline fill="none" stroke="black" points="0,-71.5 167,-71.5 "/>
<text text-anchor="middle" x="83.5" y="-59.5" font-family="Helvetica,sans-Serif" font-size="10.00"> </text>
<polyline fill="none" stroke="black" points="0,-52.5 167,-52.5 "/>
<text text-anchor="start" x="8" y="-40.5" font-family="Helvetica,sans-Serif" font-size="10.00">+ NotImplementedException()</text>
<text text-anchor="start" x="8" y="-29.5" font-family="Helvetica,sans-Serif" font-size="10.00">+ NotImplementedException()</text>
<text text-anchor="start" x="8" y="-18.5" font-family="Helvetica,sans-Serif" font-size="10.00">+ NotImplementedException()</text>
<text text-anchor="start" x="8" y="-7.5" font-family="Helvetica,sans-Serif" font-size="10.00">+ name()</text>
</a>
</g>
</g>
<!-- Node2 -->
<g id="node2" class="node">
<title>Node2</title>
<g id="a_node2"><a xlink:href="classcie_1_1Exception.html" target="_top" xlink:title=" ">
<polygon fill="white" stroke="black" points="37.5,-127.5 37.5,-327.5 129.5,-327.5 129.5,-127.5 37.5,-127.5"/>
<text text-anchor="middle" x="83.5" y="-315.5" font-family="Helvetica,sans-Serif" font-size="10.00">cie::Exception</text>
<polyline fill="none" stroke="black" points="37.5,-308.5 129.5,-308.5 "/>
<text text-anchor="middle" x="83.5" y="-296.5" font-family="Helvetica,sans-Serif" font-size="10.00"> </text>
<polyline fill="none" stroke="black" points="37.5,-289.5 129.5,-289.5 "/>
<text text-anchor="start" x="45.5" y="-277.5" font-family="Helvetica,sans-Serif" font-size="10.00">+ Exception()</text>
<text text-anchor="start" x="45.5" y="-266.5" font-family="Helvetica,sans-Serif" font-size="10.00">+ Exception()</text>
<text text-anchor="start" x="45.5" y="-255.5" font-family="Helvetica,sans-Serif" font-size="10.00">+ Exception()</text>
<text text-anchor="start" x="45.5" y="-244.5" font-family="Helvetica,sans-Serif" font-size="10.00">+ Exception()</text>
<text text-anchor="start" x="45.5" y="-233.5" font-family="Helvetica,sans-Serif" font-size="10.00">+ Exception()</text>
<text text-anchor="start" x="45.5" y="-222.5" font-family="Helvetica,sans-Serif" font-size="10.00">+ Exception()</text>
<text text-anchor="start" x="45.5" y="-211.5" font-family="Helvetica,sans-Serif" font-size="10.00">+ Exception()</text>
<text text-anchor="start" x="45.5" y="-200.5" font-family="Helvetica,sans-Serif" font-size="10.00">+ Exception()</text>
<text text-anchor="start" x="45.5" y="-189.5" font-family="Helvetica,sans-Serif" font-size="10.00">+ operator=()</text>
<text text-anchor="start" x="45.5" y="-178.5" font-family="Helvetica,sans-Serif" font-size="10.00">+ operator=()</text>
<text text-anchor="start" x="45.5" y="-167.5" font-family="Helvetica,sans-Serif" font-size="10.00">+ ~Exception()</text>
<text text-anchor="start" x="45.5" y="-156.5" font-family="Helvetica,sans-Serif" font-size="10.00">+ what()</text>
<text text-anchor="start" x="45.5" y="-145.5" font-family="Helvetica,sans-Serif" font-size="10.00">+ name()</text>
<text text-anchor="start" x="45.5" y="-134.5" font-family="Helvetica,sans-Serif" font-size="10.00">+ stackLevel()</text>
</a>
</g>
</g>
<!-- Node2&#45;&gt;Node1 -->
<g id="edge1" class="edge">
<title>Node2&#45;&gt;Node1</title>
<path fill="none" stroke="midnightblue" d="M83.5,-117.23C83.5,-108.04 83.5,-99.13 83.5,-90.92"/>
<polygon fill="none" stroke="midnightblue" points="80,-117.29 83.5,-127.29 87,-117.29 80,-117.29"/>
</g>
<!-- Node3 -->
<g id="node3" class="node">
<title>Node3</title>
<g id="a_node3"><a xlink:title=" ">
<polygon fill="white" stroke="#bfbfbf" points="40.5,-364.5 40.5,-421.5 126.5,-421.5 126.5,-364.5 40.5,-364.5"/>
<text text-anchor="middle" x="83.5" y="-409.5" font-family="Helvetica,sans-Serif" font-size="10.00">std::exception</text>
<polyline fill="none" stroke="#bfbfbf" points="40.5,-402.5 126.5,-402.5 "/>
<text text-anchor="middle" x="83.5" y="-390.5" font-family="Helvetica,sans-Serif" font-size="10.00"> </text>
<polyline fill="none" stroke="#bfbfbf" points="40.5,-383.5 126.5,-383.5 "/>
<text text-anchor="middle" x="83.5" y="-371.5" font-family="Helvetica,sans-Serif" font-size="10.00"> </text>
</a>
</g>
</g>
<!-- Node3&#45;&gt;Node2 -->
<g id="edge2" class="edge">
<title>Node3&#45;&gt;Node2</title>
<path fill="none" stroke="midnightblue" d="M83.5,-354.04C83.5,-345.87 83.5,-336.87 83.5,-327.55"/>
<polygon fill="none" stroke="midnightblue" points="80,-354.26 83.5,-364.26 87,-354.26 80,-354.26"/>
</g>
</g>
</svg>
