<?xml version="1.0" encoding="UTF-8" standalone="no"?>
<!DOCTYPE svg PUBLIC "-//W3C//DTD SVG 1.1//EN"
 "http://www.w3.org/Graphics/SVG/1.1/DTD/svg11.dtd">
<!-- Generated by graphviz version 2.43.0 (0)
 -->
<!-- Title: cie::tags::Null Pages: 1 -->
<svg width="112pt" height="261pt"
 viewBox="0.00 0.00 112.00 261.00" xmlns="http://www.w3.org/2000/svg" xmlns:xlink="http://www.w3.org/1999/xlink">

<svg id="main" version="1.1" xmlns="http://www.w3.org/2000/svg" xmlns:xlink="http://www.w3.org/1999/xlink" xml:space="preserve" onload="init(evt)">
<style type="text/css"><![CDATA[
.node, .edge {opacity: 0.7;}
.node.selected, .edge.selected {opacity: 1;}
.edge:hover path { stroke: red; }
.edge:hover polygon { stroke: red; fill: red; }
]]></style>
<script type="application/ecmascript" xlink:href="svg.min.js"/>
<svg id="graph" class="graph">
<g id="graph0" class="graph" transform="scale(1 1) rotate(0) translate(4 257)">
<title>cie::tags::Null</title>
<!-- Node1 -->
<g id="Node000001" class="node">
<title>Node1</title>
<g id="a_Node000001"><a xlink:title="Tag to indicate a void property.">
<polygon fill="#999999" stroke="transparent" points="84.5,-49 7.5,-49 7.5,0 84.5,0 84.5,-49"/>
<text text-anchor="start" x="13" y="-36.5" font-family="Helvetica,sans-Serif" font-size="10.00">cie::tags::Null</text>
<text text-anchor="start" x="44.5" y="-21.5" font-family="Helvetica,sans-Serif" font-size="10.00"> </text>
<text text-anchor="start" x="44.5" y="-6.5" font-family="Helvetica,sans-Serif" font-size="10.00"> </text>
<polygon fill="#666666" stroke="#666666" points="8,-31.5 8,-31.5 85,-31.5 85,-31.5 8,-31.5"/>
<polygon fill="#666666" stroke="#666666" points="8,-16.5 8,-16.5 85,-16.5 85,-16.5 8,-16.5"/>
<polygon fill="none" stroke="#666666" points="7.5,0 7.5,-49 84.5,-49 84.5,0 7.5,0"/>
</a>
</g>
</g>
<!-- Node2 -->
<g id="Node000002" class="node">
<title>Node2</title>
<g id="a_Node000002"><a xlink:title=" ">
<polygon fill="white" stroke="transparent" points="92,-146 0,-146 0,-86 92,-86 92,-146"/>
<text text-anchor="start" x="5" y="-134" font-family="Helvetica,sans-Serif" font-size="10.00">cie::tags::detail::</text>
<text text-anchor="start" x="10.5" y="-123" font-family="Helvetica,sans-Serif" font-size="10.00">Tag&lt; 0, Null &gt;</text>
<text text-anchor="start" x="44" y="-108" font-family="Helvetica,sans-Serif" font-size="10.00"> </text>
<text text-anchor="start" x="44" y="-93" font-family="Helvetica,sans-Serif" font-size="10.00"> </text>
<polygon fill="#666666" stroke="#666666" points="0,-118 0,-118 92,-118 92,-118 0,-118"/>
<polygon fill="#666666" stroke="#666666" points="0,-103 0,-103 92,-103 92,-103 0,-103"/>
<polygon fill="none" stroke="#666666" points="0,-86 0,-146 92,-146 92,-86 0,-86"/>
</a>
</g>
</g>
<!-- Node2&#45;&gt;Node1 -->
<g id="edge1_Node000001_Node000002" class="edge">
<title>Node2&#45;&gt;Node1</title>
<g id="a_edge1_Node000001_Node000002"><a xlink:title=" ">
<path fill="none" stroke="#63b8ff" d="M46,-75.41C46,-66.47 46,-57.25 46,-49.21"/>
<polygon fill="none" stroke="#63b8ff" points="42.5,-75.69 46,-85.69 49.5,-75.69 42.5,-75.69"/>
</a>
</g>
</g>
<!-- Node3 -->
<g id="Node000003" class="node">
<title>Node3</title>
<g id="a_Node000003"><a xlink:title=" ">
<polygon fill="white" stroke="transparent" points="92,-253 0,-253 0,-193 92,-193 92,-253"/>
<text text-anchor="start" x="5" y="-241" font-family="Helvetica,sans-Serif" font-size="10.00">cie::tags::detail::</text>
<text text-anchor="start" x="5.5" y="-230" font-family="Helvetica,sans-Serif" font-size="10.00">Tag&lt; ID, TSelf &gt;</text>
<text text-anchor="start" x="44" y="-215" font-family="Helvetica,sans-Serif" font-size="10.00"> </text>
<text text-anchor="start" x="44" y="-200" font-family="Helvetica,sans-Serif" font-size="10.00"> </text>
<polygon fill="#666666" stroke="#666666" points="0,-225 0,-225 92,-225 92,-225 0,-225"/>
<polygon fill="#666666" stroke="#666666" points="0,-210 0,-210 92,-210 92,-210 0,-210"/>
<polygon fill="none" stroke="#666666" points="0,-193 0,-253 92,-253 92,-193 0,-193"/>
</a>
</g>
</g>
<!-- Node3&#45;&gt;Node2 -->
<g id="edge2_Node000002_Node000003" class="edge">
<title>Node3&#45;&gt;Node2</title>
<g id="a_edge2_Node000002_Node000003"><a xlink:title=" ">
<path fill="none" stroke="orange" d="M46,-182.46C46,-170.39 46,-157.34 46,-146.09"/>
<polygon fill="orange" stroke="orange" points="42.5,-182.75 46,-192.75 49.5,-182.75 42.5,-182.75"/>
</a>
</g>
<text text-anchor="middle" x="75" y="-167" font-family="Helvetica,sans-Serif" font-size="10.00" fill="grey"> &lt; 0, Null &gt;</text>
</g>
</g>
</svg>
</svg>

<style type='text/css'>
<![CDATA[
[data-mouse-over-selected='false'] { opacity: 0.7; }
[data-mouse-over-selected='true']  { opacity: 1.0; }
]]>
</style>
<script type="application/ecmascript"><![CDATA[
document.addEventListener('DOMContentLoaded', (event) => {
  highlightEdges();
  highlightAdjacentNodes();
});
]]></script>
</svg>
