<?xml version="1.0" encoding="UTF-8" standalone="no"?>
<!DOCTYPE svg PUBLIC "-//W3C//DTD SVG 1.1//EN"
 "http://www.w3.org/Graphics/SVG/1.1/DTD/svg11.dtd">
<!-- Generated by graphviz version 2.43.0 (0)
 -->
<!-- Title: Subject.hpp Pages: 1 -->
<svg width="407pt" height="162pt"
 viewBox="0.00 0.00 406.50 162.00" xmlns="http://www.w3.org/2000/svg" xmlns:xlink="http://www.w3.org/1999/xlink">
<g id="graph0" class="graph" transform="scale(1 1) rotate(0) translate(4 158)">
<title>Subject.hpp</title>
<polygon fill="white" stroke="transparent" points="-4,4 -4,-158 402.5,-158 402.5,4 -4,4"/>
<!-- Node1 -->
<g id="node1" class="node">
<title>Node1</title>
<g id="a_node1"><a xlink:title=" ">
<polygon fill="#bfbfbf" stroke="black" points="135,-134.5 135,-153.5 209,-153.5 209,-134.5 135,-134.5"/>
<text text-anchor="middle" x="172" y="-141.5" font-family="Helvetica,sans-Serif" font-size="10.00">Subject.hpp</text>
</a>
</g>
</g>
<!-- Node2 -->
<g id="node2" class="node">
<title>Node2</title>
<g id="a_node2"><a xlink:href="Observer_8hpp.html" target="_top" xlink:title=" ">
<polygon fill="white" stroke="black" points="57.5,-67.5 57.5,-97.5 182.5,-97.5 182.5,-67.5 57.5,-67.5"/>
<text text-anchor="start" x="65.5" y="-85.5" font-family="Helvetica,sans-Serif" font-size="10.00">packages/observer/inc</text>
<text text-anchor="middle" x="120" y="-74.5" font-family="Helvetica,sans-Serif" font-size="10.00">/Observer.hpp</text>
</a>
</g>
</g>
<!-- Node1&#45;&gt;Node2 -->
<g id="edge1" class="edge">
<title>Node1&#45;&gt;Node2</title>
<path fill="none" stroke="midnightblue" d="M164.55,-134.48C157.9,-126.87 147.88,-115.4 139.02,-105.26"/>
<polygon fill="midnightblue" stroke="midnightblue" points="141.47,-102.75 132.26,-97.52 136.2,-107.36 141.47,-102.75"/>
</g>
<!-- Node3 -->
<g id="node3" class="node">
<title>Node3</title>
<g id="a_node3"><a xlink:title=" ">
<polygon fill="white" stroke="#bfbfbf" points="0,-6 0,-25 58,-25 58,-6 0,-6"/>
<text text-anchor="middle" x="29" y="-13" font-family="Helvetica,sans-Serif" font-size="10.00">memory</text>
</a>
</g>
</g>
<!-- Node1&#45;&gt;Node3 -->
<g id="edge4" class="edge">
<title>Node1&#45;&gt;Node3</title>
<path fill="none" stroke="midnightblue" d="M135,-139.02C107.15,-134.05 70.12,-122.92 48,-98 32.74,-80.8 29.08,-53.72 28.52,-35.55"/>
<polygon fill="midnightblue" stroke="midnightblue" points="32.02,-35.31 28.5,-25.32 25.02,-35.33 32.02,-35.31"/>
</g>
<!-- Node5 -->
<g id="node5" class="node">
<title>Node5</title>
<g id="a_node5"><a xlink:title=" ">
<polygon fill="white" stroke="#bfbfbf" points="200.5,-73 200.5,-92 247.5,-92 247.5,-73 200.5,-73"/>
<text text-anchor="middle" x="224" y="-80" font-family="Helvetica,sans-Serif" font-size="10.00">vector</text>
</a>
</g>
</g>
<!-- Node1&#45;&gt;Node5 -->
<g id="edge5" class="edge">
<title>Node1&#45;&gt;Node5</title>
<path fill="none" stroke="midnightblue" d="M179.45,-134.48C187.33,-125.46 199.94,-111.02 209.74,-99.81"/>
<polygon fill="midnightblue" stroke="midnightblue" points="212.62,-101.84 216.56,-92.01 207.35,-97.24 212.62,-101.84"/>
</g>
<!-- Node6 -->
<g id="node6" class="node">
<title>Node6</title>
<g id="a_node6"><a xlink:title=" ">
<polygon fill="white" stroke="#bfbfbf" points="265.5,-67.5 265.5,-97.5 398.5,-97.5 398.5,-67.5 265.5,-67.5"/>
<text text-anchor="start" x="273.5" y="-85.5" font-family="Helvetica,sans-Serif" font-size="10.00">packages/observer/impl</text>
<text text-anchor="middle" x="332" y="-74.5" font-family="Helvetica,sans-Serif" font-size="10.00">/Subject_impl.hpp</text>
</a>
</g>
</g>
<!-- Node1&#45;&gt;Node6 -->
<g id="edge6" class="edge">
<title>Node1&#45;&gt;Node6</title>
<path fill="none" stroke="midnightblue" d="M194.92,-134.48C218.21,-125.81 254.97,-112.15 284.56,-101.14"/>
<polygon fill="midnightblue" stroke="midnightblue" points="286.14,-104.29 294.29,-97.52 283.7,-97.73 286.14,-104.29"/>
</g>
<!-- Node2&#45;&gt;Node3 -->
<g id="edge2" class="edge">
<title>Node2&#45;&gt;Node3</title>
<path fill="none" stroke="midnightblue" d="M100.25,-67.4C85.14,-56.6 64.36,-41.76 49.14,-30.89"/>
<polygon fill="midnightblue" stroke="midnightblue" points="51.08,-27.97 40.91,-25.01 47.01,-33.67 51.08,-27.97"/>
</g>
<!-- Node4 -->
<g id="node4" class="node">
<title>Node4</title>
<g id="a_node4"><a xlink:title=" ">
<polygon fill="white" stroke="#bfbfbf" points="76.5,-0.5 76.5,-30.5 209.5,-30.5 209.5,-0.5 76.5,-0.5"/>
<text text-anchor="start" x="84.5" y="-18.5" font-family="Helvetica,sans-Serif" font-size="10.00">packages/observer/impl</text>
<text text-anchor="middle" x="143" y="-7.5" font-family="Helvetica,sans-Serif" font-size="10.00">/Observer_impl.hpp</text>
</a>
</g>
</g>
<!-- Node2&#45;&gt;Node4 -->
<g id="edge3" class="edge">
<title>Node2&#45;&gt;Node4</title>
<path fill="none" stroke="midnightblue" d="M124.99,-67.4C127.79,-59.47 131.37,-49.38 134.59,-40.27"/>
<polygon fill="midnightblue" stroke="midnightblue" points="137.98,-41.17 138.02,-30.58 131.38,-38.84 137.98,-41.17"/>
</g>
</g>
</svg>
