<?xml version="1.0" encoding="UTF-8" standalone="no"?>
<!DOCTYPE svg PUBLIC "-//W3C//DTD SVG 1.1//EN"
 "http://www.w3.org/Graphics/SVG/1.1/DTD/svg11.dtd">
<!-- Generated by graphviz version 2.43.0 (0)
 -->
<!-- Title: SymmetricPair.hpp Pages: 1 -->
<svg width="454pt" height="159pt"
 viewBox="0.00 0.00 454.00 159.00" xmlns="http://www.w3.org/2000/svg" xmlns:xlink="http://www.w3.org/1999/xlink">

<svg id="main" version="1.1" xmlns="http://www.w3.org/2000/svg" xmlns:xlink="http://www.w3.org/1999/xlink" xml:space="preserve" onload="init(evt)">
<style type="text/css"><![CDATA[
.node, .edge {opacity: 0.7;}
.node.selected, .edge.selected {opacity: 1;}
.edge:hover path { stroke: red; }
.edge:hover polygon { stroke: red; fill: red; }
]]></style>
<script type="application/ecmascript" xlink:href="svg.min.js"/>
<svg id="graph" class="graph">
<g id="graph0" class="graph" transform="scale(1 1) rotate(0) translate(4 155)">
<title>SymmetricPair.hpp</title>
<!-- Node1 -->
<g id="Node000001" class="node">
<title>Node1</title>
<g id="a_Node000001"><a xlink:title=" ">
<polygon fill="#999999" stroke="#666666" points="308,-151 200,-151 200,-132 308,-132 308,-151"/>
<text text-anchor="middle" x="254" y="-139" font-family="Helvetica,sans-Serif" font-size="10.00">SymmetricPair.hpp</text>
</a>
</g>
</g>
<!-- Node2 -->
<g id="Node000002" class="node">
<title>Node2</title>
<g id="a_Node000002"><a xlink:href="Hash_8hpp.html" target="_top" xlink:title=" ">
<polygon fill="white" stroke="#666666" points="220.5,-96 89.5,-96 89.5,-66 220.5,-66 220.5,-96"/>
<text text-anchor="start" x="97.5" y="-84" font-family="Helvetica,sans-Serif" font-size="10.00">packages/stl_extension</text>
<text text-anchor="middle" x="155" y="-73" font-family="Helvetica,sans-Serif" font-size="10.00">/inc/Hash.hpp</text>
</a>
</g>
</g>
<!-- Node1&#45;&gt;Node2 -->
<g id="edge1_Node000001_Node000002" class="edge">
<title>Node1&#45;&gt;Node2</title>
<g id="a_edge1_Node000001_Node000002"><a xlink:title=" ">
<path fill="none" stroke="#63b8ff" d="M239.39,-131.87C225.83,-123.86 205.17,-111.65 187.69,-101.31"/>
<polygon fill="#63b8ff" stroke="#63b8ff" points="189.28,-98.19 178.89,-96.11 185.71,-104.22 189.28,-98.19"/>
</a>
</g>
</g>
<!-- Node4 -->
<g id="Node000004" class="node">
<title>Node4</title>
<g id="a_Node000004"><a xlink:title=" ">
<polygon fill="#e0e0e0" stroke="#999999" points="292.5,-24.5 227.5,-24.5 227.5,-5.5 292.5,-5.5 292.5,-24.5"/>
<text text-anchor="middle" x="260" y="-12.5" font-family="Helvetica,sans-Serif" font-size="10.00">functional</text>
</a>
</g>
</g>
<!-- Node1&#45;&gt;Node4 -->
<g id="edge5_Node000001_Node000004" class="edge">
<title>Node1&#45;&gt;Node4</title>
<g id="a_edge5_Node000001_Node000004"><a xlink:title=" ">
<path fill="none" stroke="#63b8ff" d="M254.41,-131.94C255.37,-112.04 257.77,-62.26 259.09,-34.85"/>
<polygon fill="#63b8ff" stroke="#63b8ff" points="262.6,-34.77 259.58,-24.62 255.61,-34.44 262.6,-34.77"/>
</a>
</g>
</g>
<!-- Node6 -->
<g id="Node000006" class="node">
<title>Node6</title>
<g id="a_Node000006"><a xlink:title=" ">
<polygon fill="#e0e0e0" stroke="#999999" points="446,-96 282,-96 282,-66 446,-66 446,-96"/>
<text text-anchor="start" x="290" y="-84" font-family="Helvetica,sans-Serif" font-size="10.00">packages/stl_extension</text>
<text text-anchor="middle" x="364" y="-73" font-family="Helvetica,sans-Serif" font-size="10.00">/impl/SymmetricPair_impl.hpp</text>
</a>
</g>
</g>
<!-- Node1&#45;&gt;Node6 -->
<g id="edge6_Node000001_Node000006" class="edge">
<title>Node1&#45;&gt;Node6</title>
<g id="a_edge6_Node000001_Node000006"><a xlink:title=" ">
<path fill="none" stroke="#63b8ff" d="M270.23,-131.87C285.5,-123.75 308.89,-111.31 328.48,-100.89"/>
<polygon fill="#63b8ff" stroke="#63b8ff" points="330.27,-103.9 337.46,-96.11 326.99,-97.72 330.27,-103.9"/>
</a>
</g>
</g>
<!-- Node3 -->
<g id="Node000003" class="node">
<title>Node3</title>
<g id="a_Node000003"><a xlink:title=" ">
<polygon fill="#e0e0e0" stroke="#999999" points="60,-24.5 0,-24.5 0,-5.5 60,-5.5 60,-24.5"/>
<text text-anchor="middle" x="30" y="-12.5" font-family="Helvetica,sans-Serif" font-size="10.00">concepts</text>
</a>
</g>
</g>
<!-- Node2&#45;&gt;Node3 -->
<g id="edge2_Node000002_Node000003" class="edge">
<title>Node2&#45;&gt;Node3</title>
<g id="a_edge2_Node000002_Node000003"><a xlink:title=" ">
<path fill="none" stroke="#63b8ff" d="M127.57,-65.95C106.13,-54.98 76.55,-39.83 55.6,-29.11"/>
<polygon fill="#63b8ff" stroke="#63b8ff" points="57.13,-25.96 46.64,-24.52 53.94,-32.19 57.13,-25.96"/>
</a>
</g>
</g>
<!-- Node2&#45;&gt;Node4 -->
<g id="edge3_Node000002_Node000004" class="edge">
<title>Node2&#45;&gt;Node4</title>
<g id="a_edge3_Node000002_Node000004"><a xlink:title=" ">
<path fill="none" stroke="#63b8ff" d="M178.04,-65.95C195.56,-55.27 219.56,-40.65 237.06,-29.98"/>
<polygon fill="#63b8ff" stroke="#63b8ff" points="239.31,-32.71 246.03,-24.52 235.67,-26.73 239.31,-32.71"/>
</a>
</g>
</g>
<!-- Node5 -->
<g id="Node000005" class="node">
<title>Node5</title>
<g id="a_Node000005"><a xlink:title=" ">
<polygon fill="#e0e0e0" stroke="#999999" points="209.5,-30 78.5,-30 78.5,0 209.5,0 209.5,-30"/>
<text text-anchor="start" x="86.5" y="-18" font-family="Helvetica,sans-Serif" font-size="10.00">packages/stl_extension</text>
<text text-anchor="middle" x="144" y="-7" font-family="Helvetica,sans-Serif" font-size="10.00">/impl/Hash_impl.hpp</text>
</a>
</g>
</g>
<!-- Node2&#45;&gt;Node5 -->
<g id="edge4_Node000002_Node000005" class="edge">
<title>Node2&#45;&gt;Node5</title>
<g id="a_edge4_Node000002_Node000005"><a xlink:title=" ">
<path fill="none" stroke="#63b8ff" d="M152.56,-65.8C151.26,-58.26 149.63,-48.78 148.15,-40.13"/>
<polygon fill="#63b8ff" stroke="#63b8ff" points="151.58,-39.43 146.43,-30.16 144.68,-40.61 151.58,-39.43"/>
</a>
</g>
</g>
</g>
</svg>
</svg>

<style type='text/css'>
<![CDATA[
[data-mouse-over-selected='false'] { opacity: 0.7; }
[data-mouse-over-selected='true']  { opacity: 1.0; }
]]>
</style>
<script type="application/ecmascript"><![CDATA[
document.addEventListener('DOMContentLoaded', (event) => {
  highlightEdges();
  highlightAdjacentNodes();
});
]]></script>
</svg>
