<?xml version="1.0" encoding="UTF-8" standalone="no"?>
<!DOCTYPE svg PUBLIC "-//W3C//DTD SVG 1.1//EN"
 "http://www.w3.org/Graphics/SVG/1.1/DTD/svg11.dtd">
<!-- Generated by graphviz version 2.43.0 (0)
 -->
<!-- Title: tags.hpp Pages: 1 -->
<svg width="306pt" height="252pt"
 viewBox="0.00 0.00 306.00 252.00" xmlns="http://www.w3.org/2000/svg" xmlns:xlink="http://www.w3.org/1999/xlink">
<g id="graph0" class="graph" transform="scale(1 1) rotate(0) translate(4 248)">
<title>tags.hpp</title>
<polygon fill="white" stroke="transparent" points="-4,4 -4,-248 302,-248 302,4 -4,4"/>
<!-- Node1 -->
<g id="node1" class="node">
<title>Node1</title>
<g id="a_node1"><a xlink:title=" ">
<polygon fill="#bfbfbf" stroke="black" points="86,-224.5 86,-243.5 145,-243.5 145,-224.5 86,-224.5"/>
<text text-anchor="middle" x="115.5" y="-231.5" font-family="Helvetica,sans-Serif" font-size="10.00">tags.hpp</text>
</a>
</g>
</g>
<!-- Node2 -->
<g id="node2" class="node">
<title>Node2</title>
<g id="a_node2"><a xlink:href="Mutex_8hpp.html" target="_top" xlink:title=" ">
<polygon fill="white" stroke="black" points="0.5,-168.5 0.5,-187.5 68.5,-187.5 68.5,-168.5 0.5,-168.5"/>
<text text-anchor="middle" x="34.5" y="-175.5" font-family="Helvetica,sans-Serif" font-size="10.00">Mutex.hpp</text>
</a>
</g>
</g>
<!-- Node1&#45;&gt;Node2 -->
<g id="edge1" class="edge">
<title>Node1&#45;&gt;Node2</title>
<path fill="none" stroke="midnightblue" d="M93.93,-218.62C79.14,-208.76 59.99,-195.99 47.48,-187.65"/>
<polygon fill="midnightblue" stroke="midnightblue" points="92.22,-221.69 102.49,-224.32 96.11,-215.86 92.22,-221.69"/>
</g>
<!-- Node3 -->
<g id="node3" class="node">
<title>Node3</title>
<g id="a_node3"><a xlink:href="ContiguousTree_8hpp.html" target="_top" xlink:title=" ">
<polygon fill="white" stroke="black" points="0,-112.5 0,-131.5 113,-131.5 113,-112.5 0,-112.5"/>
<text text-anchor="middle" x="56.5" y="-119.5" font-family="Helvetica,sans-Serif" font-size="10.00">ContiguousTree.hpp</text>
</a>
</g>
</g>
<!-- Node1&#45;&gt;Node3 -->
<g id="edge9" class="edge">
<title>Node1&#45;&gt;Node3</title>
<path fill="none" stroke="midnightblue" d="M106.02,-215.32C93.17,-191.37 70.74,-149.55 61.11,-131.59"/>
<polygon fill="midnightblue" stroke="midnightblue" points="103.06,-217.21 110.87,-224.37 109.23,-213.9 103.06,-217.21"/>
</g>
<!-- Node4 -->
<g id="node4" class="node">
<title>Node4</title>
<g id="a_node4"><a xlink:href="Serializer_8hpp.html" target="_top" xlink:title=" ">
<polygon fill="white" stroke="black" points="142,-112.5 142,-131.5 225,-131.5 225,-112.5 142,-112.5"/>
<text text-anchor="middle" x="183.5" y="-119.5" font-family="Helvetica,sans-Serif" font-size="10.00">Serializer.hpp</text>
</a>
</g>
</g>
<!-- Node1&#45;&gt;Node4 -->
<g id="edge3" class="edge">
<title>Node1&#45;&gt;Node4</title>
<path fill="none" stroke="midnightblue" d="M125.32,-215.57C132.83,-202.39 143.56,-183.9 153.5,-168 161.56,-155.1 171.43,-140.51 177.6,-131.53"/>
<polygon fill="midnightblue" stroke="midnightblue" points="122.15,-214.07 120.26,-224.49 128.24,-217.52 122.15,-214.07"/>
</g>
<!-- Node8 -->
<g id="node8" class="node">
<title>Node8</title>
<g id="a_node8"><a xlink:href="Traits_8hpp.html" target="_top" xlink:title=" ">
<polygon fill="white" stroke="black" points="162.5,-168.5 162.5,-187.5 226.5,-187.5 226.5,-168.5 162.5,-168.5"/>
<text text-anchor="middle" x="194.5" y="-175.5" font-family="Helvetica,sans-Serif" font-size="10.00">Traits.hpp</text>
</a>
</g>
</g>
<!-- Node1&#45;&gt;Node8 -->
<g id="edge7" class="edge">
<title>Node1&#45;&gt;Node8</title>
<path fill="none" stroke="midnightblue" d="M136.53,-218.62C150.97,-208.76 169.64,-195.99 181.84,-187.65"/>
<polygon fill="midnightblue" stroke="midnightblue" points="134.47,-215.79 128.19,-224.32 138.42,-221.57 134.47,-215.79"/>
</g>
<!-- Node2&#45;&gt;Node3 -->
<g id="edge2" class="edge">
<title>Node2&#45;&gt;Node3</title>
<path fill="none" stroke="midnightblue" d="M41.96,-158.69C45.67,-149.59 49.98,-139.01 52.93,-131.75"/>
<polygon fill="midnightblue" stroke="midnightblue" points="38.66,-157.5 38.13,-168.08 45.15,-160.14 38.66,-157.5"/>
</g>
<!-- Node5 -->
<g id="node5" class="node">
<title>Node5</title>
<g id="a_node5"><a xlink:href="MPI_8hpp.html" target="_top" xlink:title=" ">
<polygon fill="white" stroke="black" points="155.5,-56.5 155.5,-75.5 211.5,-75.5 211.5,-56.5 155.5,-56.5"/>
<text text-anchor="middle" x="183.5" y="-63.5" font-family="Helvetica,sans-Serif" font-size="10.00">MPI.hpp</text>
</a>
</g>
</g>
<!-- Node4&#45;&gt;Node5 -->
<g id="edge4" class="edge">
<title>Node4&#45;&gt;Node5</title>
<path fill="none" stroke="midnightblue" d="M183.5,-101.8C183.5,-92.91 183.5,-82.78 183.5,-75.75"/>
<polygon fill="midnightblue" stroke="midnightblue" points="180,-102.08 183.5,-112.08 187,-102.08 180,-102.08"/>
</g>
<!-- Node6 -->
<g id="node6" class="node">
<title>Node6</title>
<g id="a_node6"><a xlink:href="CommOperation_8hpp.html" target="_top" xlink:title=" ">
<polygon fill="white" stroke="black" points="60.5,-0.5 60.5,-19.5 178.5,-19.5 178.5,-0.5 60.5,-0.5"/>
<text text-anchor="middle" x="119.5" y="-7.5" font-family="Helvetica,sans-Serif" font-size="10.00">CommOperation.hpp</text>
</a>
</g>
</g>
<!-- Node5&#45;&gt;Node6 -->
<g id="edge5" class="edge">
<title>Node5&#45;&gt;Node6</title>
<path fill="none" stroke="midnightblue" d="M165.51,-49.82C154.04,-40.15 139.59,-27.95 129.97,-19.83"/>
<polygon fill="midnightblue" stroke="midnightblue" points="163.32,-52.55 173.22,-56.32 167.83,-47.2 163.32,-52.55"/>
</g>
<!-- Node7 -->
<g id="node7" class="node">
<title>Node7</title>
<g id="a_node7"><a xlink:href="MPISingleton_8hpp.html" target="_top" xlink:title=" ">
<polygon fill="white" stroke="black" points="197,-0.5 197,-19.5 298,-19.5 298,-0.5 197,-0.5"/>
<text text-anchor="middle" x="247.5" y="-7.5" font-family="Helvetica,sans-Serif" font-size="10.00">MPISingleton.hpp</text>
</a>
</g>
</g>
<!-- Node5&#45;&gt;Node7 -->
<g id="edge6" class="edge">
<title>Node5&#45;&gt;Node7</title>
<path fill="none" stroke="midnightblue" d="M201.49,-49.82C212.96,-40.15 227.41,-27.95 237.03,-19.83"/>
<polygon fill="midnightblue" stroke="midnightblue" points="199.17,-47.2 193.78,-56.32 203.68,-52.55 199.17,-47.2"/>
</g>
<!-- Node8&#45;&gt;Node4 -->
<g id="edge8" class="edge">
<title>Node8&#45;&gt;Node4</title>
<path fill="none" stroke="midnightblue" d="M190.65,-158.1C188.82,-149.14 186.73,-138.86 185.28,-131.75"/>
<polygon fill="midnightblue" stroke="midnightblue" points="187.26,-158.98 192.68,-168.08 194.12,-157.59 187.26,-158.98"/>
</g>
</g>
</svg>
