<?xml version="1.0" encoding="UTF-8" standalone="no"?>
<!DOCTYPE svg PUBLIC "-//W3C//DTD SVG 1.1//EN"
 "http://www.w3.org/Graphics/SVG/1.1/DTD/svg11.dtd">
<!-- Generated by graphviz version 2.43.0 (0)
 -->
<!-- Title: testing.hpp Pages: 1 -->
<svg width="1605pt" height="731pt"
 viewBox="0.00 0.00 1605.29 731.00" xmlns="http://www.w3.org/2000/svg" xmlns:xlink="http://www.w3.org/1999/xlink">
<g id="graph0" class="graph" transform="scale(1 1) rotate(0) translate(4 727)">
<title>testing.hpp</title>
<polygon fill="white" stroke="transparent" points="-4,4 -4,-727 1601.29,-727 1601.29,4 -4,4"/>
<!-- Node1 -->
<g id="node1" class="node">
<title>Node1</title>
<g id="a_node1"><a xlink:title=" ">
<polygon fill="#bfbfbf" stroke="black" points="678.39,-703.5 678.39,-722.5 749.39,-722.5 749.39,-703.5 678.39,-703.5"/>
<text text-anchor="middle" x="713.89" y="-710.5" font-family="Helvetica,sans-Serif" font-size="10.00">testing.hpp</text>
</a>
</g>
</g>
<!-- Node2 -->
<g id="node2" class="node">
<title>Node2</title>
<g id="a_node2"><a xlink:href="LogBlock_8hpp.html" target="_top" xlink:title=" ">
<polygon fill="white" stroke="black" points="58.39,-636.5 58.39,-666.5 177.39,-666.5 177.39,-636.5 58.39,-636.5"/>
<text text-anchor="start" x="66.39" y="-654.5" font-family="Helvetica,sans-Serif" font-size="10.00">packages/logging/inc</text>
<text text-anchor="middle" x="117.89" y="-643.5" font-family="Helvetica,sans-Serif" font-size="10.00">/LogBlock.hpp</text>
</a>
</g>
</g>
<!-- Node1&#45;&gt;Node2 -->
<g id="edge1" class="edge">
<title>Node1&#45;&gt;Node2</title>
<path fill="none" stroke="midnightblue" d="M678.3,-710.25C593.66,-705.82 373.84,-692.59 191.89,-667 190.43,-666.79 188.96,-666.58 187.48,-666.36"/>
<polygon fill="midnightblue" stroke="midnightblue" points="188,-662.9 177.57,-664.77 186.89,-669.81 188,-662.9"/>
</g>
<!-- Node15 -->
<g id="node15" class="node">
<title>Node15</title>
<g id="a_node15"><a xlink:title=" ">
<polygon fill="white" stroke="#bfbfbf" points="198.89,-73 198.89,-92 242.89,-92 242.89,-73 198.89,-73"/>
<text text-anchor="middle" x="220.89" y="-80" font-family="Helvetica,sans-Serif" font-size="10.00">string</text>
</a>
</g>
</g>
<!-- Node1&#45;&gt;Node15 -->
<g id="edge75" class="edge">
<title>Node1&#45;&gt;Node15</title>
<path fill="none" stroke="midnightblue" d="M678.17,-710.79C562.54,-705.91 205.89,-682.98 205.89,-585.5 205.89,-585.5 205.89,-585.5 205.89,-221 205.89,-178.33 213.12,-128.64 217.54,-102.24"/>
<polygon fill="midnightblue" stroke="midnightblue" points="221.03,-102.6 219.29,-92.15 214.13,-101.41 221.03,-102.6"/>
</g>
<!-- Node37 -->
<g id="node37" class="node">
<title>Node37</title>
<g id="a_node37"><a xlink:href="cmake__variables_8hpp.html" target="_top" xlink:title=" ">
<polygon fill="white" stroke="black" points="1316.89,-290.5 1316.89,-309.5 1436.89,-309.5 1436.89,-290.5 1316.89,-290.5"/>
<text text-anchor="middle" x="1376.89" y="-297.5" font-family="Helvetica,sans-Serif" font-size="10.00">cmake_variables.hpp</text>
</a>
</g>
</g>
<!-- Node1&#45;&gt;Node37 -->
<g id="edge74" class="edge">
<title>Node1&#45;&gt;Node37</title>
<path fill="none" stroke="midnightblue" d="M749.57,-711.66C859.41,-710.25 1191.2,-703.02 1291.89,-667 1389.87,-631.95 1435.77,-625.27 1483.89,-533 1525.53,-453.16 1433.84,-354.05 1394.1,-316.44"/>
<polygon fill="midnightblue" stroke="midnightblue" points="1396.4,-313.8 1386.68,-309.57 1391.64,-318.94 1396.4,-313.8"/>
</g>
<!-- Node47 -->
<g id="node47" class="node">
<title>Node47</title>
<g id="a_node47"><a xlink:href="LoggerSingleton_8hpp.html" target="_top" xlink:title=" ">
<polygon fill="white" stroke="black" points="1163.39,-636.5 1163.39,-666.5 1282.39,-666.5 1282.39,-636.5 1163.39,-636.5"/>
<text text-anchor="start" x="1171.39" y="-654.5" font-family="Helvetica,sans-Serif" font-size="10.00">packages/logging/inc</text>
<text text-anchor="middle" x="1222.89" y="-643.5" font-family="Helvetica,sans-Serif" font-size="10.00">/LoggerSingleton.hpp</text>
</a>
</g>
</g>
<!-- Node1&#45;&gt;Node47 -->
<g id="edge71" class="edge">
<title>Node1&#45;&gt;Node47</title>
<path fill="none" stroke="midnightblue" d="M749.68,-707.82C833.4,-698.03 1043.19,-673.51 1153.16,-660.65"/>
<polygon fill="midnightblue" stroke="midnightblue" points="1153.64,-664.12 1163.16,-659.48 1152.82,-657.17 1153.64,-664.12"/>
</g>
<!-- Node3 -->
<g id="node3" class="node">
<title>Node3</title>
<g id="a_node3"><a xlink:href="Logger_8hpp.html" target="_top" xlink:title=" ">
<polygon fill="white" stroke="black" points="1163.39,-569.5 1163.39,-599.5 1282.39,-599.5 1282.39,-569.5 1163.39,-569.5"/>
<text text-anchor="start" x="1171.39" y="-587.5" font-family="Helvetica,sans-Serif" font-size="10.00">packages/logging/inc</text>
<text text-anchor="middle" x="1222.89" y="-576.5" font-family="Helvetica,sans-Serif" font-size="10.00">/Logger.hpp</text>
</a>
</g>
</g>
<!-- Node2&#45;&gt;Node3 -->
<g id="edge2" class="edge">
<title>Node2&#45;&gt;Node3</title>
<path fill="none" stroke="midnightblue" d="M177.69,-646.98C366.72,-635.86 950.74,-601.51 1153.05,-589.61"/>
<polygon fill="midnightblue" stroke="midnightblue" points="1153.48,-593.09 1163.25,-589.01 1153.07,-586.1 1153.48,-593.09"/>
</g>
<!-- Node10 -->
<g id="node10" class="node">
<title>Node10</title>
<g id="a_node10"><a xlink:href="types_8hpp.html" target="_top" xlink:title=" ">
<polygon fill="white" stroke="black" points="438.89,-134.5 438.89,-164.5 548.89,-164.5 548.89,-134.5 438.89,-134.5"/>
<text text-anchor="start" x="446.89" y="-152.5" font-family="Helvetica,sans-Serif" font-size="10.00">packages/types/inc</text>
<text text-anchor="middle" x="493.89" y="-141.5" font-family="Helvetica,sans-Serif" font-size="10.00">/types.hpp</text>
</a>
</g>
</g>
<!-- Node2&#45;&gt;Node10 -->
<g id="edge68" class="edge">
<title>Node2&#45;&gt;Node10</title>
<path fill="none" stroke="midnightblue" d="M58.25,-637.95C37.78,-630.49 16.99,-618.66 4.89,-600 -2.6,-588.44 0.31,-582 4.89,-569 74.63,-371.03 124.71,-315.09 300.89,-201 321.99,-187.33 381.23,-172.93 428.56,-163.02"/>
<polygon fill="midnightblue" stroke="midnightblue" points="429.38,-166.42 438.46,-160.97 427.96,-159.57 429.38,-166.42"/>
</g>
<!-- Node2&#45;&gt;Node15 -->
<g id="edge69" class="edge">
<title>Node2&#45;&gt;Node15</title>
<path fill="none" stroke="midnightblue" d="M128.44,-636.14C135.16,-626.39 143.58,-612.94 148.89,-600 163.03,-565.6 167.89,-555.69 167.89,-518.5 167.89,-518.5 167.89,-518.5 167.89,-221 167.89,-175.15 193.87,-126.11 209.45,-100.82"/>
<polygon fill="midnightblue" stroke="midnightblue" points="212.6,-102.38 215.02,-92.06 206.7,-98.62 212.6,-102.38"/>
</g>
<!-- Node46 -->
<g id="node46" class="node">
<title>Node46</title>
<g id="a_node46"><a xlink:title=" ">
<polygon fill="white" stroke="#bfbfbf" points="13.89,-569.5 13.89,-599.5 139.89,-599.5 139.89,-569.5 13.89,-569.5"/>
<text text-anchor="start" x="21.89" y="-587.5" font-family="Helvetica,sans-Serif" font-size="10.00">packages/logging/impl</text>
<text text-anchor="middle" x="76.89" y="-576.5" font-family="Helvetica,sans-Serif" font-size="10.00">/LogBlock_impl.hpp</text>
</a>
</g>
</g>
<!-- Node2&#45;&gt;Node46 -->
<g id="edge70" class="edge">
<title>Node2&#45;&gt;Node46</title>
<path fill="none" stroke="midnightblue" d="M109,-636.4C103.78,-628.13 97.08,-617.51 91.15,-608.1"/>
<polygon fill="midnightblue" stroke="midnightblue" points="94.07,-606.17 85.77,-599.58 88.15,-609.9 94.07,-606.17"/>
</g>
<!-- Node4 -->
<g id="node4" class="node">
<title>Node4</title>
<g id="a_node4"><a xlink:href="FileOutputStream_8hpp.html" target="_top" xlink:title=" ">
<polygon fill="white" stroke="black" points="1068.89,-502.5 1068.89,-532.5 1194.89,-532.5 1194.89,-502.5 1068.89,-502.5"/>
<text text-anchor="start" x="1076.89" y="-520.5" font-family="Helvetica,sans-Serif" font-size="10.00">packages/logging/inc</text>
<text text-anchor="middle" x="1131.89" y="-509.5" font-family="Helvetica,sans-Serif" font-size="10.00">/FileOutputStream.hpp</text>
</a>
</g>
</g>
<!-- Node3&#45;&gt;Node4 -->
<g id="edge3" class="edge">
<title>Node3&#45;&gt;Node4</title>
<path fill="none" stroke="midnightblue" d="M1203.15,-569.4C1190.51,-560.37 1173.91,-548.51 1159.92,-538.52"/>
<polygon fill="midnightblue" stroke="midnightblue" points="1161.77,-535.54 1151.6,-532.58 1157.7,-541.24 1161.77,-535.54"/>
</g>
<!-- Node7 -->
<g id="node7" class="node">
<title>Node7</title>
<g id="a_node7"><a xlink:title=" ">
<polygon fill="white" stroke="#bfbfbf" points="1259.89,-140 1259.89,-159 1317.89,-159 1317.89,-140 1259.89,-140"/>
<text text-anchor="middle" x="1288.89" y="-147" font-family="Helvetica,sans-Serif" font-size="10.00">memory</text>
</a>
</g>
</g>
<!-- Node3&#45;&gt;Node7 -->
<g id="edge62" class="edge">
<title>Node3&#45;&gt;Node7</title>
<path fill="none" stroke="midnightblue" d="M1231.63,-569.21C1242.26,-552.33 1261.24,-523.8 1280.89,-502 1388.23,-382.95 1480.28,-394.76 1531.89,-243 1537.9,-225.33 1543.89,-215.3 1531.89,-201 1502.3,-165.73 1372.32,-177.07 1327.89,-165 1325.08,-164.24 1322.19,-163.35 1319.31,-162.41"/>
<polygon fill="midnightblue" stroke="midnightblue" points="1320.31,-159.05 1309.71,-159.04 1317.99,-165.65 1320.31,-159.05"/>
</g>
<!-- Node3&#45;&gt;Node15 -->
<g id="edge63" class="edge">
<title>Node3&#45;&gt;Node15</title>
<path fill="none" stroke="midnightblue" d="M1163.2,-584.04C1020.64,-582.52 654.14,-561.88 410.89,-399 298.56,-323.78 242.18,-157.6 225.95,-102.02"/>
<polygon fill="midnightblue" stroke="midnightblue" points="229.25,-100.84 223.16,-92.17 222.52,-102.75 229.25,-100.84"/>
</g>
<!-- Node24 -->
<g id="node24" class="node">
<title>Node24</title>
<g id="a_node24"><a xlink:title=" ">
<polygon fill="white" stroke="#bfbfbf" points="397.89,-290.5 397.89,-309.5 445.89,-309.5 445.89,-290.5 397.89,-290.5"/>
<text text-anchor="middle" x="421.89" y="-297.5" font-family="Helvetica,sans-Serif" font-size="10.00">iosfwd</text>
</a>
</g>
</g>
<!-- Node3&#45;&gt;Node24 -->
<g id="edge60" class="edge">
<title>Node3&#45;&gt;Node24</title>
<path fill="none" stroke="midnightblue" d="M1163.14,-582.08C977.28,-577.37 420.22,-560.98 393.89,-533 337.27,-472.82 388.47,-361.55 411.76,-318.57"/>
<polygon fill="midnightblue" stroke="midnightblue" points="414.94,-320.06 416.76,-309.62 408.83,-316.65 414.94,-320.06"/>
</g>
<!-- Node34 -->
<g id="node34" class="node">
<title>Node34</title>
<g id="a_node34"><a xlink:title=" ">
<polygon fill="white" stroke="#bfbfbf" points="1336.39,-140 1336.39,-159 1383.39,-159 1383.39,-140 1336.39,-140"/>
<text text-anchor="middle" x="1359.89" y="-147" font-family="Helvetica,sans-Serif" font-size="10.00">deque</text>
</a>
</g>
</g>
<!-- Node3&#45;&gt;Node34 -->
<g id="edge61" class="edge">
<title>Node3&#45;&gt;Node34</title>
<path fill="none" stroke="midnightblue" d="M1282.54,-579.43C1350.51,-573.55 1455.83,-560.25 1483.89,-533 1591.76,-428.25 1640.47,-320.25 1548.89,-201 1530.1,-176.53 1442.8,-161.36 1393.69,-154.61"/>
<polygon fill="midnightblue" stroke="midnightblue" points="1393.91,-151.11 1383.54,-153.26 1392.99,-158.05 1393.91,-151.11"/>
</g>
<!-- Node38 -->
<g id="node38" class="node">
<title>Node38</title>
<g id="a_node38"><a xlink:title=" ">
<polygon fill="white" stroke="#bfbfbf" points="1454.89,-212.5 1454.89,-231.5 1522.89,-231.5 1522.89,-212.5 1454.89,-212.5"/>
<text text-anchor="middle" x="1488.89" y="-219.5" font-family="Helvetica,sans-Serif" font-size="10.00">filesystem</text>
</a>
</g>
</g>
<!-- Node3&#45;&gt;Node38 -->
<g id="edge66" class="edge">
<title>Node3&#45;&gt;Node38</title>
<path fill="none" stroke="midnightblue" d="M1231.63,-569.21C1242.26,-552.33 1261.24,-523.8 1280.89,-502 1359.21,-415.14 1419.4,-425.51 1471.89,-321 1484.65,-295.6 1488.03,-262.35 1488.82,-241.84"/>
<polygon fill="midnightblue" stroke="midnightblue" points="1492.32,-241.71 1489.03,-231.64 1485.32,-241.57 1492.32,-241.71"/>
</g>
<!-- Node42 -->
<g id="node42" class="node">
<title>Node42</title>
<g id="a_node42"><a xlink:title=" ">
<polygon fill="white" stroke="#bfbfbf" points="1289.39,-508 1289.39,-527 1344.39,-527 1344.39,-508 1289.39,-508"/>
<text text-anchor="middle" x="1316.89" y="-515" font-family="Helvetica,sans-Serif" font-size="10.00">fstream</text>
</a>
</g>
</g>
<!-- Node3&#45;&gt;Node42 -->
<g id="edge59" class="edge">
<title>Node3&#45;&gt;Node42</title>
<path fill="none" stroke="midnightblue" d="M1243.29,-569.4C1258.91,-558.6 1280.37,-543.76 1296.09,-532.89"/>
<polygon fill="midnightblue" stroke="midnightblue" points="1298.36,-535.57 1304.59,-527.01 1294.37,-529.82 1298.36,-535.57"/>
</g>
<!-- Node43 -->
<g id="node43" class="node">
<title>Node43</title>
<g id="a_node43"><a xlink:title=" ">
<polygon fill="white" stroke="#bfbfbf" points="1362.89,-508 1362.89,-527 1412.89,-527 1412.89,-508 1362.89,-508"/>
<text text-anchor="middle" x="1387.89" y="-515" font-family="Helvetica,sans-Serif" font-size="10.00">chrono</text>
</a>
</g>
</g>
<!-- Node3&#45;&gt;Node43 -->
<g id="edge64" class="edge">
<title>Node3&#45;&gt;Node43</title>
<path fill="none" stroke="midnightblue" d="M1260.3,-569.48C1286.58,-559.53 1322.5,-545.74 1353.89,-533 1355.49,-532.35 1357.12,-531.68 1358.77,-531"/>
<polygon fill="midnightblue" stroke="midnightblue" points="1360.3,-534.15 1368.16,-527.05 1357.59,-527.7 1360.3,-534.15"/>
</g>
<!-- Node44 -->
<g id="node44" class="node">
<title>Node44</title>
<g id="a_node44"><a xlink:title=" ">
<polygon fill="white" stroke="#bfbfbf" points="1430.89,-508 1430.89,-527 1474.89,-527 1474.89,-508 1430.89,-508"/>
<text text-anchor="middle" x="1452.89" y="-515" font-family="Helvetica,sans-Serif" font-size="10.00">ctime</text>
</a>
</g>
</g>
<!-- Node3&#45;&gt;Node44 -->
<g id="edge65" class="edge">
<title>Node3&#45;&gt;Node44</title>
<path fill="none" stroke="midnightblue" d="M1282.54,-571.46C1322.54,-562.63 1376.07,-549.36 1421.89,-533 1423.51,-532.42 1425.15,-531.79 1426.8,-531.13"/>
<polygon fill="midnightblue" stroke="midnightblue" points="1428.32,-534.28 1436.08,-527.07 1425.52,-527.87 1428.32,-534.28"/>
</g>
<!-- Node45 -->
<g id="node45" class="node">
<title>Node45</title>
<g id="a_node45"><a xlink:title=" ">
<polygon fill="white" stroke="#bfbfbf" points="402.89,-502.5 402.89,-532.5 528.89,-532.5 528.89,-502.5 402.89,-502.5"/>
<text text-anchor="start" x="410.89" y="-520.5" font-family="Helvetica,sans-Serif" font-size="10.00">packages/logging/impl</text>
<text text-anchor="middle" x="465.89" y="-509.5" font-family="Helvetica,sans-Serif" font-size="10.00">/Logger_impl.hpp</text>
</a>
</g>
</g>
<!-- Node3&#45;&gt;Node45 -->
<g id="edge67" class="edge">
<title>Node3&#45;&gt;Node45</title>
<path fill="none" stroke="midnightblue" d="M1163.09,-581.31C1044.41,-576.47 770.9,-562.84 542.89,-533 541.78,-532.85 540.66,-532.7 539.53,-532.55"/>
<polygon fill="midnightblue" stroke="midnightblue" points="539.66,-529.03 529.25,-531.01 538.63,-535.95 539.66,-529.03"/>
</g>
<!-- Node5 -->
<g id="node5" class="node">
<title>Node5</title>
<g id="a_node5"><a xlink:href="OutputStream_8hpp.html" target="_top" xlink:title=" ">
<polygon fill="white" stroke="black" points="894.39,-435.5 894.39,-465.5 1013.39,-465.5 1013.39,-435.5 894.39,-435.5"/>
<text text-anchor="start" x="902.39" y="-453.5" font-family="Helvetica,sans-Serif" font-size="10.00">packages/logging/inc</text>
<text text-anchor="middle" x="953.89" y="-442.5" font-family="Helvetica,sans-Serif" font-size="10.00">/OutputStream.hpp</text>
</a>
</g>
</g>
<!-- Node4&#45;&gt;Node5 -->
<g id="edge4" class="edge">
<title>Node4&#45;&gt;Node5</title>
<path fill="none" stroke="midnightblue" d="M1093.27,-502.4C1066.44,-492.6 1030.52,-479.48 1001.86,-469.02"/>
<polygon fill="midnightblue" stroke="midnightblue" points="1003.03,-465.72 992.44,-465.58 1000.63,-472.29 1003.03,-465.72"/>
</g>
<!-- Node4&#45;&gt;Node38 -->
<g id="edge58" class="edge">
<title>Node4&#45;&gt;Node38</title>
<path fill="none" stroke="midnightblue" d="M1168.32,-502.4C1232.45,-475.92 1366.23,-412.99 1445.89,-321 1466.31,-297.43 1478.44,-262.64 1484.37,-241.48"/>
<polygon fill="midnightblue" stroke="midnightblue" points="1487.83,-242.09 1486.98,-231.53 1481.06,-240.31 1487.83,-242.09"/>
</g>
<!-- Node6 -->
<g id="node6" class="node">
<title>Node6</title>
<g id="a_node6"><a xlink:href="typedefs_8hpp.html" target="_top" xlink:title=" ">
<polygon fill="white" stroke="black" points="1141.39,-285 1141.39,-315 1260.39,-315 1260.39,-285 1141.39,-285"/>
<text text-anchor="start" x="1149.39" y="-303" font-family="Helvetica,sans-Serif" font-size="10.00">packages/macros/inc</text>
<text text-anchor="middle" x="1200.89" y="-292" font-family="Helvetica,sans-Serif" font-size="10.00">/typedefs.hpp</text>
</a>
</g>
</g>
<!-- Node5&#45;&gt;Node6 -->
<g id="edge5" class="edge">
<title>Node5&#45;&gt;Node6</title>
<path fill="none" stroke="midnightblue" d="M1013.58,-441.85C1068.46,-433.69 1144.58,-419.16 1166.89,-399 1187.79,-380.12 1195.84,-347.73 1198.95,-325.38"/>
<polygon fill="midnightblue" stroke="midnightblue" points="1202.44,-325.66 1200.11,-315.32 1195.48,-324.86 1202.44,-325.66"/>
</g>
<!-- Node5&#45;&gt;Node7 -->
<g id="edge56" class="edge">
<title>Node5&#45;&gt;Node7</title>
<path fill="none" stroke="midnightblue" d="M1013.42,-446.45C1063.88,-441.72 1136.79,-429.65 1192.89,-399 1235.64,-375.64 1248.93,-364.97 1269.89,-321 1293.98,-270.48 1292.94,-202.25 1290.69,-169.54"/>
<polygon fill="midnightblue" stroke="midnightblue" points="1294.14,-168.88 1289.84,-159.19 1287.17,-169.45 1294.14,-168.88"/>
</g>
<!-- Node8 -->
<g id="node8" class="node">
<title>Node8</title>
<g id="a_node8"><a xlink:href="streamable_8hpp.html" target="_top" xlink:title=" ">
<polygon fill="white" stroke="black" points="887.89,-357.5 887.89,-398.5 1019.89,-398.5 1019.89,-357.5 887.89,-357.5"/>
<text text-anchor="start" x="895.89" y="-386.5" font-family="Helvetica,sans-Serif" font-size="10.00">packages/compile_time</text>
<text text-anchor="start" x="895.89" y="-375.5" font-family="Helvetica,sans-Serif" font-size="10.00">/packages/concepts/inc</text>
<text text-anchor="middle" x="953.89" y="-364.5" font-family="Helvetica,sans-Serif" font-size="10.00">/streamable.hpp</text>
</a>
</g>
</g>
<!-- Node5&#45;&gt;Node8 -->
<g id="edge7" class="edge">
<title>Node5&#45;&gt;Node8</title>
<path fill="none" stroke="midnightblue" d="M953.89,-435.23C953.89,-427.57 953.89,-417.84 953.89,-408.63"/>
<polygon fill="midnightblue" stroke="midnightblue" points="957.39,-408.59 953.89,-398.59 950.39,-408.59 957.39,-408.59"/>
</g>
<!-- Node25 -->
<g id="node25" class="node">
<title>Node25</title>
<g id="a_node25"><a xlink:href="container__concepts_8hpp.html" target="_top" xlink:title=" ">
<polygon fill="white" stroke="black" points="420.39,-357.5 420.39,-398.5 555.39,-398.5 555.39,-357.5 420.39,-357.5"/>
<text text-anchor="start" x="428.39" y="-386.5" font-family="Helvetica,sans-Serif" font-size="10.00">packages/compile_time</text>
<text text-anchor="start" x="428.39" y="-375.5" font-family="Helvetica,sans-Serif" font-size="10.00">/packages/concepts/inc</text>
<text text-anchor="middle" x="487.89" y="-364.5" font-family="Helvetica,sans-Serif" font-size="10.00">/container_concepts.hpp</text>
</a>
</g>
</g>
<!-- Node5&#45;&gt;Node25 -->
<g id="edge25" class="edge">
<title>Node5&#45;&gt;Node25</title>
<path fill="none" stroke="midnightblue" d="M894.21,-444.09C819.56,-436.81 687.73,-422.23 565.7,-399.04"/>
<polygon fill="midnightblue" stroke="midnightblue" points="566.29,-395.58 555.81,-397.13 564.97,-402.46 566.29,-395.58"/>
</g>
<!-- Node31 -->
<g id="node31" class="node">
<title>Node31</title>
<g id="a_node31"><a xlink:href="checks_8hpp.html" target="_top" xlink:title=" ">
<polygon fill="white" stroke="black" points="1038.39,-363 1038.39,-393 1157.39,-393 1157.39,-363 1038.39,-363"/>
<text text-anchor="start" x="1046.39" y="-381" font-family="Helvetica,sans-Serif" font-size="10.00">packages/macros/inc</text>
<text text-anchor="middle" x="1097.89" y="-370" font-family="Helvetica,sans-Serif" font-size="10.00">/checks.hpp</text>
</a>
</g>
</g>
<!-- Node5&#45;&gt;Node31 -->
<g id="edge36" class="edge">
<title>Node5&#45;&gt;Node31</title>
<path fill="none" stroke="midnightblue" d="M982.69,-435.4C1004.86,-424.55 1035.71,-409.45 1059.9,-397.6"/>
<polygon fill="midnightblue" stroke="midnightblue" points="1061.71,-400.61 1069.15,-393.07 1058.63,-394.33 1061.71,-400.61"/>
</g>
<!-- Node39 -->
<g id="node39" class="node">
<title>Node39</title>
<g id="a_node39"><a xlink:title=" ">
<polygon fill="white" stroke="#bfbfbf" points="573.39,-368.5 573.39,-387.5 630.39,-387.5 630.39,-368.5 573.39,-368.5"/>
<text text-anchor="middle" x="601.89" y="-375.5" font-family="Helvetica,sans-Serif" font-size="10.00">ostream</text>
</a>
</g>
</g>
<!-- Node5&#45;&gt;Node39 -->
<g id="edge54" class="edge">
<title>Node5&#45;&gt;Node39</title>
<path fill="none" stroke="midnightblue" d="M894.37,-445.7C830.18,-440.28 725.66,-427.61 639.89,-399 634.72,-397.27 629.4,-394.9 624.45,-392.4"/>
<polygon fill="midnightblue" stroke="midnightblue" points="625.95,-389.23 615.49,-387.54 622.61,-395.38 625.95,-389.23"/>
</g>
<!-- Node40 -->
<g id="node40" class="node">
<title>Node40</title>
<g id="a_node40"><a xlink:title=" ">
<polygon fill="white" stroke="#bfbfbf" points="648.39,-368.5 648.39,-387.5 715.39,-387.5 715.39,-368.5 648.39,-368.5"/>
<text text-anchor="middle" x="681.89" y="-375.5" font-family="Helvetica,sans-Serif" font-size="10.00">streambuf</text>
</a>
</g>
</g>
<!-- Node5&#45;&gt;Node40 -->
<g id="edge55" class="edge">
<title>Node5&#45;&gt;Node40</title>
<path fill="none" stroke="midnightblue" d="M894.09,-440.01C847.31,-431.7 781,-417.98 724.89,-399 719.1,-397.04 713.04,-394.53 707.37,-391.96"/>
<polygon fill="midnightblue" stroke="midnightblue" points="708.83,-388.78 698.29,-387.66 705.83,-395.1 708.83,-388.78"/>
</g>
<!-- Node41 -->
<g id="node41" class="node">
<title>Node41</title>
<g id="a_node41"><a xlink:title=" ">
<polygon fill="white" stroke="#bfbfbf" points="733.89,-363 733.89,-393 869.89,-393 869.89,-363 733.89,-363"/>
<text text-anchor="start" x="741.89" y="-381" font-family="Helvetica,sans-Serif" font-size="10.00">packages/logging/impl</text>
<text text-anchor="middle" x="801.89" y="-370" font-family="Helvetica,sans-Serif" font-size="10.00">/OutputStream_impl.hpp</text>
</a>
</g>
</g>
<!-- Node5&#45;&gt;Node41 -->
<g id="edge57" class="edge">
<title>Node5&#45;&gt;Node41</title>
<path fill="none" stroke="midnightblue" d="M923.5,-435.4C899.89,-424.45 866.96,-409.18 841.32,-397.29"/>
<polygon fill="midnightblue" stroke="midnightblue" points="842.78,-394.11 832.23,-393.07 839.83,-400.46 842.78,-394.11"/>
</g>
<!-- Node6&#45;&gt;Node7 -->
<g id="edge6" class="edge">
<title>Node6&#45;&gt;Node7</title>
<path fill="none" stroke="midnightblue" d="M1209.33,-284.76C1225.49,-257.5 1260.75,-198 1278.39,-168.22"/>
<polygon fill="midnightblue" stroke="midnightblue" points="1281.56,-169.73 1283.65,-159.35 1275.54,-166.16 1281.56,-169.73"/>
</g>
<!-- Node9 -->
<g id="node9" class="node">
<title>Node9</title>
<g id="a_node9"><a xlink:href="basic__concepts_8hpp.html" target="_top" xlink:title=" ">
<polygon fill="white" stroke="black" points="713.89,-201.5 713.89,-242.5 845.89,-242.5 845.89,-201.5 713.89,-201.5"/>
<text text-anchor="start" x="721.89" y="-230.5" font-family="Helvetica,sans-Serif" font-size="10.00">packages/compile_time</text>
<text text-anchor="start" x="721.89" y="-219.5" font-family="Helvetica,sans-Serif" font-size="10.00">/packages/concepts/inc</text>
<text text-anchor="middle" x="779.89" y="-208.5" font-family="Helvetica,sans-Serif" font-size="10.00">/basic_concepts.hpp</text>
</a>
</g>
</g>
<!-- Node8&#45;&gt;Node9 -->
<g id="edge8" class="edge">
<title>Node8&#45;&gt;Node9</title>
<path fill="none" stroke="midnightblue" d="M923.66,-357.5C908.52,-347.26 890.21,-334.13 874.89,-321 849.17,-298.94 822.53,-270.94 804.04,-250.53"/>
<polygon fill="midnightblue" stroke="midnightblue" points="806.41,-247.93 797.12,-242.83 801.2,-252.61 806.41,-247.93"/>
</g>
<!-- Node23 -->
<g id="node23" class="node">
<title>Node23</title>
<g id="a_node23"><a xlink:title=" ">
<polygon fill="white" stroke="#bfbfbf" points="901.89,-212.5 901.89,-231.5 957.89,-231.5 957.89,-212.5 901.89,-212.5"/>
<text text-anchor="middle" x="929.89" y="-219.5" font-family="Helvetica,sans-Serif" font-size="10.00">sstream</text>
</a>
</g>
</g>
<!-- Node8&#45;&gt;Node23 -->
<g id="edge23" class="edge">
<title>Node8&#45;&gt;Node23</title>
<path fill="none" stroke="midnightblue" d="M918.19,-357.32C905.21,-348.13 891.99,-335.9 884.89,-321 876.87,-304.15 878.69,-296.61 884.89,-279 890.37,-263.44 902.2,-249.01 912.36,-238.69"/>
<polygon fill="midnightblue" stroke="midnightblue" points="914.89,-241.11 919.67,-231.66 910.04,-236.07 914.89,-241.11"/>
</g>
<!-- Node8&#45;&gt;Node24 -->
<g id="edge24" class="edge">
<title>Node8&#45;&gt;Node24</title>
<path fill="none" stroke="midnightblue" d="M887.76,-358.78C884.77,-358.14 881.81,-357.54 878.89,-357 733.42,-329.86 694.57,-340.61 547.89,-321 516.77,-316.84 481.48,-311.16 456.19,-306.91"/>
<polygon fill="midnightblue" stroke="midnightblue" points="456.44,-303.4 446,-305.19 455.27,-310.3 456.44,-303.4"/>
</g>
<!-- Node9&#45;&gt;Node10 -->
<g id="edge9" class="edge">
<title>Node9&#45;&gt;Node10</title>
<path fill="none" stroke="midnightblue" d="M713.66,-203.24C710.7,-202.48 707.77,-201.73 704.89,-201 656.04,-188.64 600.63,-175.41 558.85,-165.59"/>
<polygon fill="midnightblue" stroke="midnightblue" points="559.61,-162.18 549.08,-163.3 558.01,-168.99 559.61,-162.18"/>
</g>
<!-- Node16 -->
<g id="node16" class="node">
<title>Node16</title>
<g id="a_node16"><a xlink:title=" ">
<polygon fill="white" stroke="#bfbfbf" points="810.39,-73 810.39,-92 879.39,-92 879.39,-73 810.39,-73"/>
<text text-anchor="middle" x="844.89" y="-80" font-family="Helvetica,sans-Serif" font-size="10.00">type_traits</text>
</a>
</g>
</g>
<!-- Node9&#45;&gt;Node16 -->
<g id="edge20" class="edge">
<title>Node9&#45;&gt;Node16</title>
<path fill="none" stroke="midnightblue" d="M728.4,-201.43C694.09,-185.37 658.7,-160.95 678.89,-134 713.05,-88.42 747.56,-115.1 801.89,-98 804.64,-97.14 807.48,-96.22 810.33,-95.29"/>
<polygon fill="midnightblue" stroke="midnightblue" points="811.55,-98.57 819.94,-92.11 809.34,-91.93 811.55,-98.57"/>
</g>
<!-- Node20 -->
<g id="node20" class="node">
<title>Node20</title>
<g id="a_node20"><a xlink:title=" ">
<polygon fill="white" stroke="#bfbfbf" points="819.89,-140 819.89,-159 879.89,-159 879.89,-140 819.89,-140"/>
<text text-anchor="middle" x="849.89" y="-147" font-family="Helvetica,sans-Serif" font-size="10.00">concepts</text>
</a>
</g>
</g>
<!-- Node9&#45;&gt;Node20 -->
<g id="edge19" class="edge">
<title>Node9&#45;&gt;Node20</title>
<path fill="none" stroke="midnightblue" d="M799.39,-201.36C810.35,-190.32 823.85,-176.72 834.14,-166.37"/>
<polygon fill="midnightblue" stroke="midnightblue" points="836.72,-168.74 841.28,-159.17 831.75,-163.8 836.72,-168.74"/>
</g>
<!-- Node21 -->
<g id="node21" class="node">
<title>Node21</title>
<g id="a_node21"><a xlink:title=" ">
<polygon fill="white" stroke="#bfbfbf" points="687.89,-140 687.89,-159 737.89,-159 737.89,-140 687.89,-140"/>
<text text-anchor="middle" x="712.89" y="-147" font-family="Helvetica,sans-Serif" font-size="10.00">cstdint</text>
</a>
</g>
</g>
<!-- Node9&#45;&gt;Node21 -->
<g id="edge21" class="edge">
<title>Node9&#45;&gt;Node21</title>
<path fill="none" stroke="midnightblue" d="M761.23,-201.36C750.84,-190.43 738.07,-176.99 728.26,-166.67"/>
<polygon fill="midnightblue" stroke="midnightblue" points="730.56,-164.01 721.14,-159.17 725.49,-168.83 730.56,-164.01"/>
</g>
<!-- Node22 -->
<g id="node22" class="node">
<title>Node22</title>
<g id="a_node22"><a xlink:title=" ">
<polygon fill="white" stroke="#bfbfbf" points="756.39,-140 756.39,-159 801.39,-159 801.39,-140 756.39,-140"/>
<text text-anchor="middle" x="778.89" y="-147" font-family="Helvetica,sans-Serif" font-size="10.00">utility</text>
</a>
</g>
</g>
<!-- Node9&#45;&gt;Node22 -->
<g id="edge22" class="edge">
<title>Node9&#45;&gt;Node22</title>
<path fill="none" stroke="midnightblue" d="M779.61,-201.36C779.47,-191.3 779.3,-179.1 779.16,-169.18"/>
<polygon fill="midnightblue" stroke="midnightblue" points="782.66,-169.12 779.02,-159.17 775.66,-169.22 782.66,-169.12"/>
</g>
<!-- Node11 -->
<g id="node11" class="node">
<title>Node11</title>
<g id="a_node11"><a xlink:href="debug_8hpp.html" target="_top" xlink:title=" ">
<polygon fill="white" stroke="black" points="673.39,-67.5 673.39,-97.5 792.39,-97.5 792.39,-67.5 673.39,-67.5"/>
<text text-anchor="start" x="681.39" y="-85.5" font-family="Helvetica,sans-Serif" font-size="10.00">packages/macros/inc</text>
<text text-anchor="middle" x="732.89" y="-74.5" font-family="Helvetica,sans-Serif" font-size="10.00">/debug.hpp</text>
</a>
</g>
</g>
<!-- Node10&#45;&gt;Node11 -->
<g id="edge10" class="edge">
<title>Node10&#45;&gt;Node11</title>
<path fill="none" stroke="midnightblue" d="M545.46,-134.48C582.4,-124.43 632.3,-110.86 671.33,-100.24"/>
<polygon fill="midnightblue" stroke="midnightblue" points="672.28,-103.61 681.01,-97.61 670.44,-96.86 672.28,-103.61"/>
</g>
<!-- Node14 -->
<g id="node14" class="node">
<title>Node14</title>
<g id="a_node14"><a xlink:title=" ">
<polygon fill="white" stroke="#bfbfbf" points="261.39,-73 261.39,-92 314.39,-92 314.39,-73 261.39,-73"/>
<text text-anchor="middle" x="287.89" y="-80" font-family="Helvetica,sans-Serif" font-size="10.00">cstddef</text>
</a>
</g>
</g>
<!-- Node10&#45;&gt;Node14 -->
<g id="edge13" class="edge">
<title>Node10&#45;&gt;Node14</title>
<path fill="none" stroke="midnightblue" d="M442.16,-134.5C408.26,-124.99 363.14,-111.7 323.89,-98 321.98,-97.33 320.03,-96.62 318.06,-95.89"/>
<polygon fill="midnightblue" stroke="midnightblue" points="318.92,-92.47 308.33,-92.12 316.39,-99 318.92,-92.47"/>
</g>
<!-- Node10&#45;&gt;Node15 -->
<g id="edge14" class="edge">
<title>Node10&#45;&gt;Node15</title>
<path fill="none" stroke="midnightblue" d="M438.81,-138.54C378.52,-127.37 285.89,-109.33 251.89,-98 250.23,-97.44 248.53,-96.82 246.84,-96.16"/>
<polygon fill="midnightblue" stroke="midnightblue" points="247.9,-92.81 237.33,-92.05 245.12,-99.23 247.9,-92.81"/>
</g>
<!-- Node10&#45;&gt;Node16 -->
<g id="edge15" class="edge">
<title>Node10&#45;&gt;Node16</title>
<path fill="none" stroke="midnightblue" d="M549.21,-139.93C631.19,-127.16 777.87,-103.98 801.89,-98 805.28,-97.16 808.79,-96.17 812.27,-95.12"/>
<polygon fill="midnightblue" stroke="midnightblue" points="813.44,-98.42 821.89,-92.03 811.3,-91.75 813.44,-98.42"/>
</g>
<!-- Node17 -->
<g id="node17" class="node">
<title>Node17</title>
<g id="a_node17"><a xlink:title=" ">
<polygon fill="white" stroke="#bfbfbf" points="332.89,-73 332.89,-92 382.89,-92 382.89,-73 332.89,-73"/>
<text text-anchor="middle" x="357.89" y="-80" font-family="Helvetica,sans-Serif" font-size="10.00">climits</text>
</a>
</g>
</g>
<!-- Node10&#45;&gt;Node17 -->
<g id="edge16" class="edge">
<title>Node10&#45;&gt;Node17</title>
<path fill="none" stroke="midnightblue" d="M464.38,-134.4C440.73,-123.09 407.82,-107.36 384.86,-96.39"/>
<polygon fill="midnightblue" stroke="midnightblue" points="386.22,-93.16 375.69,-92.01 383.2,-99.48 386.22,-93.16"/>
</g>
<!-- Node18 -->
<g id="node18" class="node">
<title>Node18</title>
<g id="a_node18"><a xlink:title=" ">
<polygon fill="white" stroke="#bfbfbf" points="401.39,-67.5 401.39,-97.5 518.39,-97.5 518.39,-67.5 401.39,-67.5"/>
<text text-anchor="start" x="409.39" y="-85.5" font-family="Helvetica,sans-Serif" font-size="10.00">packages/types/impl</text>
<text text-anchor="middle" x="459.89" y="-74.5" font-family="Helvetica,sans-Serif" font-size="10.00">/types_impl.hpp</text>
</a>
</g>
</g>
<!-- Node10&#45;&gt;Node18 -->
<g id="edge17" class="edge">
<title>Node10&#45;&gt;Node18</title>
<path fill="none" stroke="midnightblue" d="M486.51,-134.4C482.28,-126.3 476.86,-115.94 472.02,-106.69"/>
<polygon fill="midnightblue" stroke="midnightblue" points="474.99,-104.82 467.26,-97.58 468.79,-108.06 474.99,-104.82"/>
</g>
<!-- Node19 -->
<g id="node19" class="node">
<title>Node19</title>
<g id="a_node19"><a xlink:href="logging_8hpp.html" target="_top" xlink:title=" ">
<polygon fill="white" stroke="black" points="536.39,-67.5 536.39,-97.5 655.39,-97.5 655.39,-67.5 536.39,-67.5"/>
<text text-anchor="start" x="544.39" y="-85.5" font-family="Helvetica,sans-Serif" font-size="10.00">packages/macros/inc</text>
<text text-anchor="middle" x="595.89" y="-74.5" font-family="Helvetica,sans-Serif" font-size="10.00">/logging.hpp</text>
</a>
</g>
</g>
<!-- Node10&#45;&gt;Node19 -->
<g id="edge18" class="edge">
<title>Node10&#45;&gt;Node19</title>
<path fill="none" stroke="midnightblue" d="M516.02,-134.4C530.46,-125.2 549.5,-113.07 565.36,-102.95"/>
<polygon fill="midnightblue" stroke="midnightblue" points="567.25,-105.9 573.8,-97.58 563.49,-100 567.25,-105.9"/>
</g>
<!-- Node12 -->
<g id="node12" class="node">
<title>Node12</title>
<g id="a_node12"><a xlink:href="detail_8hpp.html" target="_top" xlink:title=" ">
<polygon fill="white" stroke="black" points="848.39,-0.5 848.39,-30.5 967.39,-30.5 967.39,-0.5 848.39,-0.5"/>
<text text-anchor="start" x="856.39" y="-18.5" font-family="Helvetica,sans-Serif" font-size="10.00">packages/macros/inc</text>
<text text-anchor="middle" x="907.89" y="-7.5" font-family="Helvetica,sans-Serif" font-size="10.00">/detail.hpp</text>
</a>
</g>
</g>
<!-- Node11&#45;&gt;Node12 -->
<g id="edge11" class="edge">
<title>Node11&#45;&gt;Node12</title>
<path fill="none" stroke="midnightblue" d="M770.86,-67.4C797.12,-57.64 832.25,-44.59 860.37,-34.15"/>
<polygon fill="midnightblue" stroke="midnightblue" points="861.84,-37.34 869.99,-30.58 859.4,-30.78 861.84,-37.34"/>
</g>
<!-- Node13 -->
<g id="node13" class="node">
<title>Node13</title>
<g id="a_node13"><a xlink:title=" ">
<polygon fill="white" stroke="#bfbfbf" points="702.89,-6 702.89,-25 762.89,-25 762.89,-6 702.89,-6"/>
<text text-anchor="middle" x="732.89" y="-13" font-family="Helvetica,sans-Serif" font-size="10.00">iostream</text>
</a>
</g>
</g>
<!-- Node11&#45;&gt;Node13 -->
<g id="edge12" class="edge">
<title>Node11&#45;&gt;Node13</title>
<path fill="none" stroke="midnightblue" d="M732.89,-67.4C732.89,-58.06 732.89,-45.71 732.89,-35.52"/>
<polygon fill="midnightblue" stroke="midnightblue" points="736.39,-35.19 732.89,-25.19 729.39,-35.19 736.39,-35.19"/>
</g>
<!-- Node26 -->
<g id="node26" class="node">
<title>Node26</title>
<g id="a_node26"><a xlink:href="iterator__concepts_8hpp.html" target="_top" xlink:title=" ">
<polygon fill="white" stroke="black" points="556.89,-279.5 556.89,-320.5 688.89,-320.5 688.89,-279.5 556.89,-279.5"/>
<text text-anchor="start" x="564.89" y="-308.5" font-family="Helvetica,sans-Serif" font-size="10.00">packages/compile_time</text>
<text text-anchor="start" x="564.89" y="-297.5" font-family="Helvetica,sans-Serif" font-size="10.00">/packages/concepts/inc</text>
<text text-anchor="middle" x="622.89" y="-286.5" font-family="Helvetica,sans-Serif" font-size="10.00">/iterator_concepts.hpp</text>
</a>
</g>
</g>
<!-- Node25&#45;&gt;Node26 -->
<g id="edge26" class="edge">
<title>Node25&#45;&gt;Node26</title>
<path fill="none" stroke="midnightblue" d="M522.66,-357.43C539.98,-347.68 561.1,-335.79 579.47,-325.44"/>
<polygon fill="midnightblue" stroke="midnightblue" points="581.25,-328.46 588.24,-320.51 577.81,-322.36 581.25,-328.46"/>
</g>
<!-- Node26&#45;&gt;Node7 -->
<g id="edge35" class="edge">
<title>Node26&#45;&gt;Node7</title>
<path fill="none" stroke="midnightblue" d="M689.08,-293.56C737.76,-287.14 804.04,-273.21 854.89,-243 876.53,-230.14 870.49,-212.48 892.89,-201 1020.25,-135.71 1071.39,-186.43 1212.89,-165 1224.91,-163.18 1237.93,-160.84 1249.74,-158.56"/>
<polygon fill="midnightblue" stroke="midnightblue" points="1250.61,-161.96 1259.75,-156.6 1249.26,-155.09 1250.61,-161.96"/>
</g>
<!-- Node26&#45;&gt;Node9 -->
<g id="edge27" class="edge">
<title>Node26&#45;&gt;Node9</title>
<path fill="none" stroke="midnightblue" d="M663.32,-279.43C683.83,-269.5 708.92,-257.36 730.56,-246.88"/>
<polygon fill="midnightblue" stroke="midnightblue" points="732.12,-250.01 739.6,-242.51 729.07,-243.71 732.12,-250.01"/>
</g>
<!-- Node27 -->
<g id="node27" class="node">
<title>Node27</title>
<g id="a_node27"><a xlink:href="Size_8hpp.html" target="_top" xlink:title=" ">
<polygon fill="white" stroke="black" points="475.89,-201.5 475.89,-242.5 623.89,-242.5 623.89,-201.5 475.89,-201.5"/>
<text text-anchor="start" x="483.89" y="-230.5" font-family="Helvetica,sans-Serif" font-size="10.00">packages/compile_time</text>
<text text-anchor="start" x="483.89" y="-219.5" font-family="Helvetica,sans-Serif" font-size="10.00">/packages/parameter_pack</text>
<text text-anchor="middle" x="549.89" y="-208.5" font-family="Helvetica,sans-Serif" font-size="10.00">/inc/Size.hpp</text>
</a>
</g>
</g>
<!-- Node26&#45;&gt;Node27 -->
<g id="edge28" class="edge">
<title>Node26&#45;&gt;Node27</title>
<path fill="none" stroke="midnightblue" d="M604.09,-279.43C595.41,-270.39 584.96,-259.51 575.56,-249.72"/>
<polygon fill="midnightblue" stroke="midnightblue" points="578.08,-247.29 568.63,-242.51 573.03,-252.14 578.08,-247.29"/>
</g>
<!-- Node28 -->
<g id="node28" class="node">
<title>Node28</title>
<g id="a_node28"><a xlink:href="Select_8hpp.html" target="_top" xlink:title=" ">
<polygon fill="white" stroke="black" points="309.89,-201.5 309.89,-242.5 457.89,-242.5 457.89,-201.5 309.89,-201.5"/>
<text text-anchor="start" x="317.89" y="-230.5" font-family="Helvetica,sans-Serif" font-size="10.00">packages/compile_time</text>
<text text-anchor="start" x="317.89" y="-219.5" font-family="Helvetica,sans-Serif" font-size="10.00">/packages/parameter_pack</text>
<text text-anchor="middle" x="383.89" y="-208.5" font-family="Helvetica,sans-Serif" font-size="10.00">/inc/Select.hpp</text>
</a>
</g>
</g>
<!-- Node26&#45;&gt;Node28 -->
<g id="edge30" class="edge">
<title>Node26&#45;&gt;Node28</title>
<path fill="none" stroke="midnightblue" d="M561.34,-279.43C528.87,-269.1 488.85,-256.38 455.05,-245.63"/>
<polygon fill="midnightblue" stroke="midnightblue" points="455.82,-242.2 445.23,-242.51 453.7,-248.87 455.82,-242.2"/>
</g>
<!-- Node30 -->
<g id="node30" class="node">
<title>Node30</title>
<g id="a_node30"><a xlink:title=" ">
<polygon fill="white" stroke="#bfbfbf" points="642.39,-212.5 642.39,-231.5 695.39,-231.5 695.39,-212.5 642.39,-212.5"/>
<text text-anchor="middle" x="668.89" y="-219.5" font-family="Helvetica,sans-Serif" font-size="10.00">iterator</text>
</a>
</g>
</g>
<!-- Node26&#45;&gt;Node30 -->
<g id="edge34" class="edge">
<title>Node26&#45;&gt;Node30</title>
<path fill="none" stroke="midnightblue" d="M634.74,-279.43C642.06,-267.33 651.37,-251.95 658.42,-240.3"/>
<polygon fill="midnightblue" stroke="midnightblue" points="661.53,-241.92 663.72,-231.55 655.54,-238.29 661.53,-241.92"/>
</g>
<!-- Node27&#45;&gt;Node10 -->
<g id="edge29" class="edge">
<title>Node27&#45;&gt;Node10</title>
<path fill="none" stroke="midnightblue" d="M534.29,-201.36C527.26,-192.5 518.91,-182 511.64,-172.84"/>
<polygon fill="midnightblue" stroke="midnightblue" points="514.28,-170.54 505.32,-164.89 508.8,-174.9 514.28,-170.54"/>
</g>
<!-- Node28&#45;&gt;Node10 -->
<g id="edge31" class="edge">
<title>Node28&#45;&gt;Node10</title>
<path fill="none" stroke="midnightblue" d="M414.53,-201.36C429.73,-191.62 448.04,-179.89 463.24,-170.15"/>
<polygon fill="midnightblue" stroke="midnightblue" points="465.25,-173.01 471.78,-164.67 461.48,-167.12 465.25,-173.01"/>
</g>
<!-- Node28&#45;&gt;Node16 -->
<g id="edge32" class="edge">
<title>Node28&#45;&gt;Node16</title>
<path fill="none" stroke="midnightblue" d="M445.99,-201.42C503.61,-183.4 591.84,-156.18 668.89,-134 727.74,-117.06 743.3,-115.79 801.89,-98 804.81,-97.11 807.84,-96.16 810.86,-95.19"/>
<polygon fill="midnightblue" stroke="midnightblue" points="812.01,-98.49 820.42,-92.04 809.82,-91.84 812.01,-98.49"/>
</g>
<!-- Node29 -->
<g id="node29" class="node">
<title>Node29</title>
<g id="a_node29"><a xlink:title=" ">
<polygon fill="white" stroke="#bfbfbf" points="363.39,-140 363.39,-159 404.39,-159 404.39,-140 363.39,-140"/>
<text text-anchor="middle" x="383.89" y="-147" font-family="Helvetica,sans-Serif" font-size="10.00">tuple</text>
</a>
</g>
</g>
<!-- Node28&#45;&gt;Node29 -->
<g id="edge33" class="edge">
<title>Node28&#45;&gt;Node29</title>
<path fill="none" stroke="midnightblue" d="M383.89,-201.36C383.89,-191.3 383.89,-179.1 383.89,-169.18"/>
<polygon fill="midnightblue" stroke="midnightblue" points="387.39,-169.17 383.89,-159.17 380.39,-169.17 387.39,-169.17"/>
</g>
<!-- Node31&#45;&gt;Node12 -->
<g id="edge49" class="edge">
<title>Node31&#45;&gt;Node12</title>
<path fill="none" stroke="midnightblue" d="M1100.28,-362.8C1104.24,-342.57 1113.71,-305.03 1132.89,-279 1148.71,-257.53 1164.58,-264.09 1180.89,-243 1211.78,-203.06 1241.46,-175.63 1212.89,-134 1160.29,-57.37 1050.14,-30.7 977.62,-21.43"/>
<polygon fill="midnightblue" stroke="midnightblue" points="977.99,-17.94 967.65,-20.23 977.16,-24.9 977.99,-17.94"/>
</g>
<!-- Node31&#45;&gt;Node23 -->
<g id="edge53" class="edge">
<title>Node31&#45;&gt;Node23</title>
<path fill="none" stroke="midnightblue" d="M1050.63,-362.95C998.29,-347.29 920.93,-323.77 918.89,-321 901.64,-297.53 912.18,-261.96 921.19,-240.75"/>
<polygon fill="midnightblue" stroke="midnightblue" points="924.4,-242.16 925.36,-231.61 918.03,-239.25 924.4,-242.16"/>
</g>
<!-- Node32 -->
<g id="node32" class="node">
<title>Node32</title>
<g id="a_node32"><a xlink:href="exception_8hpp.html" target="_top" xlink:title=" ">
<polygon fill="white" stroke="black" points="1052.39,-207 1052.39,-237 1171.39,-237 1171.39,-207 1052.39,-207"/>
<text text-anchor="start" x="1060.39" y="-225" font-family="Helvetica,sans-Serif" font-size="10.00">packages/exceptions</text>
<text text-anchor="middle" x="1111.89" y="-214" font-family="Helvetica,sans-Serif" font-size="10.00">/inc/exception.hpp</text>
</a>
</g>
</g>
<!-- Node31&#45;&gt;Node32 -->
<g id="edge37" class="edge">
<title>Node31&#45;&gt;Node32</title>
<path fill="none" stroke="midnightblue" d="M1097.08,-362.98C1096.19,-343.9 1095.33,-308.73 1098.89,-279 1100.16,-268.37 1102.65,-256.83 1105.11,-246.99"/>
<polygon fill="midnightblue" stroke="midnightblue" points="1108.55,-247.68 1107.71,-237.12 1101.78,-245.9 1108.55,-247.68"/>
</g>
<!-- Node36 -->
<g id="node36" class="node">
<title>Node36</title>
<g id="a_node36"><a xlink:href="exceptions_8hpp.html" target="_top" xlink:title=" ">
<polygon fill="white" stroke="black" points="927.39,-285 927.39,-315 1046.39,-315 1046.39,-285 927.39,-285"/>
<text text-anchor="start" x="935.39" y="-303" font-family="Helvetica,sans-Serif" font-size="10.00">packages/macros/inc</text>
<text text-anchor="middle" x="986.89" y="-292" font-family="Helvetica,sans-Serif" font-size="10.00">/exceptions.hpp</text>
</a>
</g>
</g>
<!-- Node31&#45;&gt;Node36 -->
<g id="edge44" class="edge">
<title>Node31&#45;&gt;Node36</title>
<path fill="none" stroke="midnightblue" d="M1077.27,-362.88C1059.98,-351.05 1035.1,-334.01 1015.82,-320.8"/>
<polygon fill="midnightblue" stroke="midnightblue" points="1017.63,-317.8 1007.4,-315.04 1013.67,-323.58 1017.63,-317.8"/>
</g>
<!-- Node31&#45;&gt;Node37 -->
<g id="edge50" class="edge">
<title>Node31&#45;&gt;Node37</title>
<path fill="none" stroke="midnightblue" d="M1149.39,-362.97C1203.16,-348.33 1286.4,-325.65 1335.89,-312.17"/>
<polygon fill="midnightblue" stroke="midnightblue" points="1336.88,-315.53 1345.61,-309.52 1335.04,-308.77 1336.88,-315.53"/>
</g>
<!-- Node32&#45;&gt;Node7 -->
<g id="edge42" class="edge">
<title>Node32&#45;&gt;Node7</title>
<path fill="none" stroke="midnightblue" d="M1147.29,-206.9C1179.69,-193.99 1227.18,-175.08 1258.06,-162.78"/>
<polygon fill="midnightblue" stroke="midnightblue" points="1259.47,-165.99 1267.47,-159.03 1256.88,-159.48 1259.47,-165.99"/>
</g>
<!-- Node32&#45;&gt;Node10 -->
<g id="edge38" class="edge">
<title>Node32&#45;&gt;Node10</title>
<path fill="none" stroke="midnightblue" d="M1052.33,-212.37C1026.15,-208.68 995.02,-204.44 966.89,-201 821.46,-183.21 650.43,-165.82 559.13,-156.83"/>
<polygon fill="midnightblue" stroke="midnightblue" points="559.23,-153.32 548.94,-155.82 558.55,-160.29 559.23,-153.32"/>
</g>
<!-- Node32&#45;&gt;Node15 -->
<g id="edge40" class="edge">
<title>Node32&#45;&gt;Node15</title>
<path fill="none" stroke="midnightblue" d="M1074.62,-206.9C1045.08,-195.67 1002.78,-179.5 965.89,-165 931.56,-151.5 924.9,-142.04 888.89,-134 612.14,-72.23 526.85,-167.33 251.89,-98 249.9,-97.5 247.89,-96.87 245.89,-96.16"/>
<polygon fill="midnightblue" stroke="midnightblue" points="246.81,-92.74 236.23,-92.08 244.09,-99.19 246.81,-92.74"/>
</g>
<!-- Node33 -->
<g id="node33" class="node">
<title>Node33</title>
<g id="a_node33"><a xlink:title=" ">
<polygon fill="white" stroke="#bfbfbf" points="974.39,-140 974.39,-159 1039.39,-159 1039.39,-140 974.39,-140"/>
<text text-anchor="middle" x="1006.89" y="-147" font-family="Helvetica,sans-Serif" font-size="10.00">stdexcept</text>
</a>
</g>
</g>
<!-- Node32&#45;&gt;Node33 -->
<g id="edge39" class="edge">
<title>Node32&#45;&gt;Node33</title>
<path fill="none" stroke="midnightblue" d="M1090.9,-206.9C1072.67,-194.67 1046.41,-177.03 1028.11,-164.75"/>
<polygon fill="midnightblue" stroke="midnightblue" points="1029.86,-161.7 1019.6,-159.03 1025.95,-167.51 1029.86,-161.7"/>
</g>
<!-- Node32&#45;&gt;Node34 -->
<g id="edge41" class="edge">
<title>Node32&#45;&gt;Node34</title>
<path fill="none" stroke="midnightblue" d="M1171.51,-208.16C1215.09,-198.13 1275.34,-182.91 1326.89,-165 1328.75,-164.35 1330.66,-163.65 1332.56,-162.9"/>
<polygon fill="midnightblue" stroke="midnightblue" points="1334.05,-166.07 1341.94,-159 1331.37,-159.61 1334.05,-166.07"/>
</g>
<!-- Node35 -->
<g id="node35" class="node">
<title>Node35</title>
<g id="a_node35"><a xlink:title=" ">
<polygon fill="white" stroke="#bfbfbf" points="1057.89,-134.5 1057.89,-164.5 1203.89,-164.5 1203.89,-134.5 1057.89,-134.5"/>
<text text-anchor="start" x="1065.89" y="-152.5" font-family="Helvetica,sans-Serif" font-size="10.00">packages/exceptions</text>
<text text-anchor="middle" x="1130.89" y="-141.5" font-family="Helvetica,sans-Serif" font-size="10.00">/impl/exceptions_impl.hpp</text>
</a>
</g>
</g>
<!-- Node32&#45;&gt;Node35 -->
<g id="edge43" class="edge">
<title>Node32&#45;&gt;Node35</title>
<path fill="none" stroke="midnightblue" d="M1115.74,-206.73C1118.24,-197.46 1121.55,-185.15 1124.45,-174.41"/>
<polygon fill="midnightblue" stroke="midnightblue" points="1127.83,-175.31 1127.05,-164.75 1121.07,-173.49 1127.83,-175.31"/>
</g>
<!-- Node36&#45;&gt;Node12 -->
<g id="edge46" class="edge">
<title>Node36&#45;&gt;Node12</title>
<path fill="none" stroke="midnightblue" d="M989.82,-284.69C993.2,-265.29 997.29,-229.75 988.89,-201 983.57,-182.78 974.5,-181.92 965.89,-165 944.34,-122.63 925.6,-70.27 915.6,-40.4"/>
<polygon fill="midnightblue" stroke="midnightblue" points="918.9,-39.22 912.44,-30.82 912.25,-41.41 918.9,-39.22"/>
</g>
<!-- Node36&#45;&gt;Node20 -->
<g id="edge48" class="edge">
<title>Node36&#45;&gt;Node20</title>
<path fill="none" stroke="midnightblue" d="M987.85,-284.98C988.5,-264.28 986.71,-225.39 966.89,-201 961.19,-193.98 915,-175.31 882.4,-162.75"/>
<polygon fill="midnightblue" stroke="midnightblue" points="883.37,-159.37 872.78,-159.06 880.86,-165.91 883.37,-159.37"/>
</g>
<!-- Node36&#45;&gt;Node23 -->
<g id="edge47" class="edge">
<title>Node36&#45;&gt;Node23</title>
<path fill="none" stroke="midnightblue" d="M976.17,-284.7C966.63,-271.99 952.67,-253.37 942.58,-239.92"/>
<polygon fill="midnightblue" stroke="midnightblue" points="945.12,-237.46 936.32,-231.56 939.52,-241.66 945.12,-237.46"/>
</g>
<!-- Node36&#45;&gt;Node32 -->
<g id="edge45" class="edge">
<title>Node36&#45;&gt;Node32</title>
<path fill="none" stroke="midnightblue" d="M1010.11,-284.88C1029.84,-272.89 1058.36,-255.55 1080.2,-242.27"/>
<polygon fill="midnightblue" stroke="midnightblue" points="1082.07,-245.23 1088.8,-237.04 1078.44,-239.25 1082.07,-245.23"/>
</g>
<!-- Node37&#45;&gt;Node15 -->
<g id="edge52" class="edge">
<title>Node37&#45;&gt;Node15</title>
<path fill="none" stroke="midnightblue" d="M1381.71,-290.32C1396.15,-263.02 1435.55,-178.03 1392.89,-134 1348.76,-88.45 313.58,-112.74 251.89,-98 249.69,-97.47 247.45,-96.78 245.24,-95.98"/>
<polygon fill="midnightblue" stroke="midnightblue" points="246.47,-92.7 235.9,-92.01 243.73,-99.15 246.47,-92.7"/>
</g>
<!-- Node37&#45;&gt;Node38 -->
<g id="edge51" class="edge">
<title>Node37&#45;&gt;Node38</title>
<path fill="none" stroke="midnightblue" d="M1389.74,-290.28C1408.81,-277.34 1444.83,-252.9 1467.8,-237.31"/>
<polygon fill="midnightblue" stroke="midnightblue" points="1469.88,-240.13 1476.19,-231.62 1465.95,-234.34 1469.88,-240.13"/>
</g>
<!-- Node47&#45;&gt;Node3 -->
<g id="edge72" class="edge">
<title>Node47&#45;&gt;Node3</title>
<path fill="none" stroke="midnightblue" d="M1222.89,-636.4C1222.89,-628.64 1222.89,-618.81 1222.89,-609.86"/>
<polygon fill="midnightblue" stroke="midnightblue" points="1226.39,-609.58 1222.89,-599.58 1219.39,-609.58 1226.39,-609.58"/>
</g>
<!-- Node47&#45;&gt;Node38 -->
<g id="edge73" class="edge">
<title>Node47&#45;&gt;Node38</title>
<path fill="none" stroke="midnightblue" d="M1282.43,-642.01C1344.34,-629.72 1438.43,-600.49 1483.89,-533 1546.64,-439.83 1510.41,-292.56 1494.87,-241.3"/>
<polygon fill="midnightblue" stroke="midnightblue" points="1498.17,-240.12 1491.83,-231.63 1491.49,-242.22 1498.17,-240.12"/>
</g>
</g>
</svg>
