<?xml version="1.0" encoding="UTF-8" standalone="no"?>
<!DOCTYPE svg PUBLIC "-//W3C//DTD SVG 1.1//EN"
 "http://www.w3.org/Graphics/SVG/1.1/DTD/svg11.dtd">
<!-- Generated by graphviz version 2.43.0 (0)
 -->
<!-- Title: ThreadPoolStorage.hpp Pages: 1 -->
<svg width="453pt" height="196pt"
 viewBox="0.00 0.00 452.50 196.00" xmlns="http://www.w3.org/2000/svg" xmlns:xlink="http://www.w3.org/1999/xlink">
<g id="graph0" class="graph" transform="scale(1 1) rotate(0) translate(4 192)">
<title>ThreadPoolStorage.hpp</title>
<polygon fill="white" stroke="transparent" points="-4,4 -4,-192 448.5,-192 448.5,4 -4,4"/>
<!-- Node1 -->
<g id="node1" class="node">
<title>Node1</title>
<g id="a_node1"><a xlink:title=" ">
<polygon fill="#bfbfbf" stroke="black" points="154,-168.5 154,-187.5 284,-187.5 284,-168.5 154,-168.5"/>
<text text-anchor="middle" x="219" y="-175.5" font-family="Helvetica,sans-Serif" font-size="10.00">ThreadPoolStorage.hpp</text>
</a>
</g>
</g>
<!-- Node2 -->
<g id="node2" class="node">
<title>Node2</title>
<g id="a_node2"><a xlink:href="ThreadPool_8hpp.html" target="_top" xlink:title=" ">
<polygon fill="white" stroke="black" points="173,-112.5 173,-131.5 265,-131.5 265,-112.5 173,-112.5"/>
<text text-anchor="middle" x="219" y="-119.5" font-family="Helvetica,sans-Serif" font-size="10.00">ThreadPool.hpp</text>
</a>
</g>
</g>
<!-- Node1&#45;&gt;Node2 -->
<g id="edge1" class="edge">
<title>Node1&#45;&gt;Node2</title>
<path fill="none" stroke="midnightblue" d="M219,-157.8C219,-148.91 219,-138.78 219,-131.75"/>
<polygon fill="midnightblue" stroke="midnightblue" points="215.5,-158.08 219,-168.08 222.5,-158.08 215.5,-158.08"/>
</g>
<!-- Node3 -->
<g id="node3" class="node">
<title>Node3</title>
<g id="a_node3"><a xlink:href="ParallelFor_8hpp.html" target="_top" xlink:title=" ">
<polygon fill="white" stroke="black" points="0,-56.5 0,-75.5 88,-75.5 88,-56.5 0,-56.5"/>
<text text-anchor="middle" x="44" y="-63.5" font-family="Helvetica,sans-Serif" font-size="10.00">ParallelFor.hpp</text>
</a>
</g>
</g>
<!-- Node2&#45;&gt;Node3 -->
<g id="edge2" class="edge">
<title>Node2&#45;&gt;Node3</title>
<path fill="none" stroke="midnightblue" d="M181.53,-109.44C148.53,-99.26 101.24,-84.66 71.6,-75.52"/>
<polygon fill="midnightblue" stroke="midnightblue" points="180.68,-112.84 191.27,-112.44 182.75,-106.15 180.68,-112.84"/>
</g>
<!-- Node4 -->
<g id="node4" class="node">
<title>Node4</title>
<g id="a_node4"><a xlink:href="ResourceLoader_8hpp.html" target="_top" xlink:title=" ">
<polygon fill="white" stroke="black" points="105.5,-56.5 105.5,-75.5 220.5,-75.5 220.5,-56.5 105.5,-56.5"/>
<text text-anchor="middle" x="163" y="-63.5" font-family="Helvetica,sans-Serif" font-size="10.00">ResourceLoader.hpp</text>
</a>
</g>
</g>
<!-- Node2&#45;&gt;Node4 -->
<g id="edge3" class="edge">
<title>Node2&#45;&gt;Node4</title>
<path fill="none" stroke="midnightblue" d="M202.67,-105.25C192.74,-95.67 180.41,-83.79 172.16,-75.83"/>
<polygon fill="midnightblue" stroke="midnightblue" points="200.37,-107.9 210,-112.32 205.23,-102.86 200.37,-107.9"/>
</g>
<!-- Node6 -->
<g id="node6" class="node">
<title>Node6</title>
<g id="a_node6"><a xlink:href="abstree_8hpp.html" target="_top" xlink:title=" ">
<polygon fill="white" stroke="black" points="239,-56.5 239,-75.5 313,-75.5 313,-56.5 239,-56.5"/>
<text text-anchor="middle" x="276" y="-63.5" font-family="Helvetica,sans-Serif" font-size="10.00">abstree.hpp</text>
</a>
</g>
</g>
<!-- Node2&#45;&gt;Node6 -->
<g id="edge5" class="edge">
<title>Node2&#45;&gt;Node6</title>
<path fill="none" stroke="midnightblue" d="M235.62,-105.25C245.73,-95.67 258.28,-83.79 266.68,-75.83"/>
<polygon fill="midnightblue" stroke="midnightblue" points="233.01,-102.91 228.16,-112.32 237.82,-107.99 233.01,-102.91"/>
</g>
<!-- Node7 -->
<g id="node7" class="node">
<title>Node7</title>
<g id="a_node7"><a xlink:href="ContiguousTree_8hpp.html" target="_top" xlink:title=" ">
<polygon fill="white" stroke="black" points="331.5,-56.5 331.5,-75.5 444.5,-75.5 444.5,-56.5 331.5,-56.5"/>
<text text-anchor="middle" x="388" y="-63.5" font-family="Helvetica,sans-Serif" font-size="10.00">ContiguousTree.hpp</text>
</a>
</g>
</g>
<!-- Node2&#45;&gt;Node7 -->
<g id="edge6" class="edge">
<title>Node2&#45;&gt;Node7</title>
<path fill="none" stroke="midnightblue" d="M255.6,-109.3C287.45,-99.13 332.84,-84.62 361.35,-75.52"/>
<polygon fill="midnightblue" stroke="midnightblue" points="254.24,-106.07 245.78,-112.44 256.37,-112.73 254.24,-106.07"/>
</g>
<!-- Node5 -->
<g id="node5" class="node">
<title>Node5</title>
<g id="a_node5"><a xlink:href="ResourceQueue_8hpp.html" target="_top" xlink:title=" ">
<polygon fill="white" stroke="black" points="106,-0.5 106,-19.5 220,-19.5 220,-0.5 106,-0.5"/>
<text text-anchor="middle" x="163" y="-7.5" font-family="Helvetica,sans-Serif" font-size="10.00">ResourceQueue.hpp</text>
</a>
</g>
</g>
<!-- Node4&#45;&gt;Node5 -->
<g id="edge4" class="edge">
<title>Node4&#45;&gt;Node5</title>
<path fill="none" stroke="midnightblue" d="M163,-45.8C163,-36.91 163,-26.78 163,-19.75"/>
<polygon fill="midnightblue" stroke="midnightblue" points="159.5,-46.08 163,-56.08 166.5,-46.08 159.5,-46.08"/>
</g>
</g>
</svg>
