<?xml version="1.0" encoding="UTF-8" standalone="no"?>
<!DOCTYPE svg PUBLIC "-//W3C//DTD SVG 1.1//EN"
 "http://www.w3.org/Graphics/SVG/1.1/DTD/svg11.dtd">
<!-- Generated by graphviz version 2.43.0 (0)
 -->
<!-- Title: ThreadPoolBase.hpp Pages: 1 -->
<svg width="464pt" height="252pt"
 viewBox="0.00 0.00 464.21 252.00" xmlns="http://www.w3.org/2000/svg" xmlns:xlink="http://www.w3.org/1999/xlink">
<g id="graph0" class="graph" transform="scale(1 1) rotate(0) translate(4 248)">
<title>ThreadPoolBase.hpp</title>
<polygon fill="white" stroke="transparent" points="-4,4 -4,-248 460.21,-248 460.21,4 -4,4"/>
<!-- Node1 -->
<g id="node1" class="node">
<title>Node1</title>
<g id="a_node1"><a xlink:title=" ">
<polygon fill="#bfbfbf" stroke="black" points="23.71,-224.5 23.71,-243.5 139.71,-243.5 139.71,-224.5 23.71,-224.5"/>
<text text-anchor="middle" x="81.71" y="-231.5" font-family="Helvetica,sans-Serif" font-size="10.00">ThreadPoolBase.hpp</text>
</a>
</g>
</g>
<!-- Node2 -->
<g id="node2" class="node">
<title>Node2</title>
<g id="a_node2"><a xlink:href="ResourceQueue_8hpp.html" target="_top" xlink:title=" ">
<polygon fill="white" stroke="black" points="21.71,-0.5 21.71,-19.5 135.71,-19.5 135.71,-0.5 21.71,-0.5"/>
<text text-anchor="middle" x="78.71" y="-7.5" font-family="Helvetica,sans-Serif" font-size="10.00">ResourceQueue.hpp</text>
</a>
</g>
</g>
<!-- Node1&#45;&gt;Node2 -->
<g id="edge1" class="edge">
<title>Node1&#45;&gt;Node2</title>
<path fill="none" stroke="midnightblue" d="M69.64,-215.82C50.93,-188 15.7,-130.71 2.71,-76 0.66,-67.35 -1.69,-63.72 2.71,-56 12.97,-38.02 33.54,-26.49 50.7,-19.6"/>
<polygon fill="midnightblue" stroke="midnightblue" points="66.97,-218.1 75.51,-224.37 72.74,-214.15 66.97,-218.1"/>
</g>
<!-- Node3 -->
<g id="node3" class="node">
<title>Node3</title>
<g id="a_node3"><a xlink:href="ThreadPool_8hpp.html" target="_top" xlink:title=" ">
<polygon fill="white" stroke="black" points="128.71,-112.5 128.71,-131.5 220.71,-131.5 220.71,-112.5 128.71,-112.5"/>
<text text-anchor="middle" x="174.71" y="-119.5" font-family="Helvetica,sans-Serif" font-size="10.00">ThreadPool.hpp</text>
</a>
</g>
</g>
<!-- Node1&#45;&gt;Node3 -->
<g id="edge2" class="edge">
<title>Node1&#45;&gt;Node3</title>
<path fill="none" stroke="midnightblue" d="M83.54,-214.16C85.71,-200.22 90.44,-181.4 100.71,-168 113.8,-150.94 135.36,-138.9 151.84,-131.59"/>
<polygon fill="midnightblue" stroke="midnightblue" points="80.07,-213.74 82.29,-224.1 87.01,-214.62 80.07,-213.74"/>
</g>
<!-- Node8 -->
<g id="node8" class="node">
<title>Node8</title>
<g id="a_node8"><a xlink:href="ThreadPoolStorage_8hpp.html" target="_top" xlink:title=" ">
<polygon fill="white" stroke="black" points="109.71,-168.5 109.71,-187.5 239.71,-187.5 239.71,-168.5 109.71,-168.5"/>
<text text-anchor="middle" x="174.71" y="-175.5" font-family="Helvetica,sans-Serif" font-size="10.00">ThreadPoolStorage.hpp</text>
</a>
</g>
</g>
<!-- Node1&#45;&gt;Node8 -->
<g id="edge8" class="edge">
<title>Node1&#45;&gt;Node8</title>
<path fill="none" stroke="midnightblue" d="M105.52,-219.18C122.63,-209.24 145.18,-196.15 159.81,-187.65"/>
<polygon fill="midnightblue" stroke="midnightblue" points="103.55,-216.28 96.66,-224.32 107.06,-222.33 103.55,-216.28"/>
</g>
<!-- Node4 -->
<g id="node4" class="node">
<title>Node4</title>
<g id="a_node4"><a xlink:href="ParallelFor_8hpp.html" target="_top" xlink:title=" ">
<polygon fill="white" stroke="black" points="11.71,-56.5 11.71,-75.5 99.71,-75.5 99.71,-56.5 11.71,-56.5"/>
<text text-anchor="middle" x="55.71" y="-63.5" font-family="Helvetica,sans-Serif" font-size="10.00">ParallelFor.hpp</text>
</a>
</g>
</g>
<!-- Node3&#45;&gt;Node4 -->
<g id="edge3" class="edge">
<title>Node3&#45;&gt;Node4</title>
<path fill="none" stroke="midnightblue" d="M146.58,-108.23C124.32,-98.13 93.86,-84.31 74.48,-75.52"/>
<polygon fill="midnightblue" stroke="midnightblue" points="145.31,-111.5 155.86,-112.44 148.2,-105.12 145.31,-111.5"/>
</g>
<!-- Node5 -->
<g id="node5" class="node">
<title>Node5</title>
<g id="a_node5"><a xlink:href="ResourceLoader_8hpp.html" target="_top" xlink:title=" ">
<polygon fill="white" stroke="black" points="117.21,-56.5 117.21,-75.5 232.21,-75.5 232.21,-56.5 117.21,-56.5"/>
<text text-anchor="middle" x="174.71" y="-63.5" font-family="Helvetica,sans-Serif" font-size="10.00">ResourceLoader.hpp</text>
</a>
</g>
</g>
<!-- Node3&#45;&gt;Node5 -->
<g id="edge4" class="edge">
<title>Node3&#45;&gt;Node5</title>
<path fill="none" stroke="midnightblue" d="M174.71,-101.8C174.71,-92.91 174.71,-82.78 174.71,-75.75"/>
<polygon fill="midnightblue" stroke="midnightblue" points="171.21,-102.08 174.71,-112.08 178.21,-102.08 171.21,-102.08"/>
</g>
<!-- Node6 -->
<g id="node6" class="node">
<title>Node6</title>
<g id="a_node6"><a xlink:href="abstree_8hpp.html" target="_top" xlink:title=" ">
<polygon fill="white" stroke="black" points="250.71,-56.5 250.71,-75.5 324.71,-75.5 324.71,-56.5 250.71,-56.5"/>
<text text-anchor="middle" x="287.71" y="-63.5" font-family="Helvetica,sans-Serif" font-size="10.00">abstree.hpp</text>
</a>
</g>
</g>
<!-- Node3&#45;&gt;Node6 -->
<g id="edge6" class="edge">
<title>Node3&#45;&gt;Node6</title>
<path fill="none" stroke="midnightblue" d="M201.72,-108.1C222.83,-98.01 251.58,-84.27 269.89,-75.52"/>
<polygon fill="midnightblue" stroke="midnightblue" points="200.13,-104.97 192.62,-112.44 203.15,-111.29 200.13,-104.97"/>
</g>
<!-- Node7 -->
<g id="node7" class="node">
<title>Node7</title>
<g id="a_node7"><a xlink:href="ContiguousTree_8hpp.html" target="_top" xlink:title=" ">
<polygon fill="white" stroke="black" points="343.21,-56.5 343.21,-75.5 456.21,-75.5 456.21,-56.5 343.21,-56.5"/>
<text text-anchor="middle" x="399.71" y="-63.5" font-family="Helvetica,sans-Serif" font-size="10.00">ContiguousTree.hpp</text>
</a>
</g>
</g>
<!-- Node3&#45;&gt;Node7 -->
<g id="edge7" class="edge">
<title>Node3&#45;&gt;Node7</title>
<path fill="none" stroke="midnightblue" d="M220.18,-110.09C262.69,-99.89 325.29,-84.86 364.23,-75.52"/>
<polygon fill="midnightblue" stroke="midnightblue" points="219.27,-106.71 210.37,-112.44 220.91,-113.51 219.27,-106.71"/>
</g>
<!-- Node5&#45;&gt;Node2 -->
<g id="edge5" class="edge">
<title>Node5&#45;&gt;Node2</title>
<path fill="none" stroke="midnightblue" d="M150.14,-51.18C132.48,-41.24 109.2,-28.15 94.1,-19.65"/>
<polygon fill="midnightblue" stroke="midnightblue" points="148.86,-54.47 159.29,-56.32 152.29,-48.37 148.86,-54.47"/>
</g>
<!-- Node8&#45;&gt;Node3 -->
<g id="edge9" class="edge">
<title>Node8&#45;&gt;Node3</title>
<path fill="none" stroke="midnightblue" d="M174.71,-157.8C174.71,-148.91 174.71,-138.78 174.71,-131.75"/>
<polygon fill="midnightblue" stroke="midnightblue" points="171.21,-158.08 174.71,-168.08 178.21,-158.08 171.21,-158.08"/>
</g>
</g>
</svg>
