<?xml version="1.0" encoding="UTF-8" standalone="no"?>
<!DOCTYPE svg PUBLIC "-//W3C//DTD SVG 1.1//EN"
 "http://www.w3.org/Graphics/SVG/1.1/DTD/svg11.dtd">
<!-- Generated by graphviz version 2.43.0 (0)
 -->
<!-- Title: ThreadLocal.hpp Pages: 1 -->
<svg width="1524pt" height="664pt"
 viewBox="0.00 0.00 1523.50 664.00" xmlns="http://www.w3.org/2000/svg" xmlns:xlink="http://www.w3.org/1999/xlink">
<g id="graph0" class="graph" transform="scale(1 1) rotate(0) translate(4 660)">
<title>ThreadLocal.hpp</title>
<polygon fill="white" stroke="transparent" points="-4,4 -4,-660 1519.5,-660 1519.5,4 -4,4"/>
<!-- Node1 -->
<g id="node1" class="node">
<title>Node1</title>
<g id="a_node1"><a xlink:title=" ">
<polygon fill="#bfbfbf" stroke="black" points="1141,-636.5 1141,-655.5 1238,-655.5 1238,-636.5 1141,-636.5"/>
<text text-anchor="middle" x="1189.5" y="-643.5" font-family="Helvetica,sans-Serif" font-size="10.00">ThreadLocal.hpp</text>
</a>
</g>
</g>
<!-- Node2 -->
<g id="node2" class="node">
<title>Node2</title>
<g id="a_node2"><a xlink:title=" ">
<polygon fill="white" stroke="#bfbfbf" points="583.5,-575 583.5,-594 675.5,-594 675.5,-575 583.5,-575"/>
<text text-anchor="middle" x="629.5" y="-582" font-family="Helvetica,sans-Serif" font-size="10.00">tsl/robin_map.h</text>
</a>
</g>
</g>
<!-- Node1&#45;&gt;Node2 -->
<g id="edge1" class="edge">
<title>Node1&#45;&gt;Node2</title>
<path fill="none" stroke="midnightblue" d="M1140.93,-643.01C1051.24,-638.8 853.75,-627.09 689.5,-600 683.54,-599.02 677.29,-597.76 671.18,-596.41"/>
<polygon fill="midnightblue" stroke="midnightblue" points="671.62,-592.92 661.08,-594.06 670.03,-599.73 671.62,-592.92"/>
</g>
<!-- Node3 -->
<g id="node3" class="node">
<title>Node3</title>
<g id="a_node3"><a xlink:href="types_8hpp.html" target="_top" xlink:title=" ">
<polygon fill="white" stroke="black" points="763.5,-134.5 763.5,-164.5 873.5,-164.5 873.5,-134.5 763.5,-134.5"/>
<text text-anchor="start" x="771.5" y="-152.5" font-family="Helvetica,sans-Serif" font-size="10.00">packages/types/inc</text>
<text text-anchor="middle" x="818.5" y="-141.5" font-family="Helvetica,sans-Serif" font-size="10.00">/types.hpp</text>
</a>
</g>
</g>
<!-- Node1&#45;&gt;Node3 -->
<g id="edge2" class="edge">
<title>Node1&#45;&gt;Node3</title>
<path fill="none" stroke="midnightblue" d="M1140.68,-642.66C1017.43,-635.42 703.5,-608.19 703.5,-518.5 703.5,-518.5 703.5,-518.5 703.5,-449.5 703.5,-339.78 771.8,-221.59 803.13,-173.16"/>
<polygon fill="midnightblue" stroke="midnightblue" points="806.13,-174.96 808.7,-164.68 800.28,-171.12 806.13,-174.96"/>
</g>
<!-- Node13 -->
<g id="node13" class="node">
<title>Node13</title>
<g id="a_node13"><a xlink:href="DynamicArray_8hpp.html" target="_top" xlink:title=" ">
<polygon fill="white" stroke="black" points="1045,-569.5 1045,-599.5 1176,-599.5 1176,-569.5 1045,-569.5"/>
<text text-anchor="start" x="1053" y="-587.5" font-family="Helvetica,sans-Serif" font-size="10.00">packages/stl_extension</text>
<text text-anchor="middle" x="1110.5" y="-576.5" font-family="Helvetica,sans-Serif" font-size="10.00">/inc/DynamicArray.hpp</text>
</a>
</g>
</g>
<!-- Node1&#45;&gt;Node13 -->
<g id="edge12" class="edge">
<title>Node1&#45;&gt;Node13</title>
<path fill="none" stroke="midnightblue" d="M1178.18,-636.48C1167.58,-628.49 1151.33,-616.25 1137.41,-605.77"/>
<polygon fill="midnightblue" stroke="midnightblue" points="1139.21,-602.74 1129.12,-599.52 1135,-608.33 1139.21,-602.74"/>
</g>
<!-- Node23 -->
<g id="node23" class="node">
<title>Node23</title>
<g id="a_node23"><a xlink:title=" ">
<polygon fill="white" stroke="#bfbfbf" points="1183,-140 1183,-159 1224,-159 1224,-140 1183,-140"/>
<text text-anchor="middle" x="1203.5" y="-147" font-family="Helvetica,sans-Serif" font-size="10.00">tuple</text>
</a>
</g>
</g>
<!-- Node1&#45;&gt;Node23 -->
<g id="edge58" class="edge">
<title>Node1&#45;&gt;Node23</title>
<path fill="none" stroke="midnightblue" d="M1199.96,-636.39C1221.64,-617.49 1269.5,-569.95 1269.5,-518.5 1269.5,-518.5 1269.5,-518.5 1269.5,-299 1269.5,-254.63 1270.61,-240.55 1250.5,-201 1243.71,-187.66 1232.35,-175.3 1222.49,-166.15"/>
<polygon fill="midnightblue" stroke="midnightblue" points="1224.52,-163.27 1214.71,-159.27 1219.88,-168.52 1224.52,-163.27"/>
</g>
<!-- Node40 -->
<g id="node40" class="node">
<title>Node40</title>
<g id="a_node40"><a xlink:title=" ">
<polygon fill="white" stroke="#bfbfbf" points="1297.5,-575 1297.5,-594 1345.5,-594 1345.5,-575 1297.5,-575"/>
<text text-anchor="middle" x="1321.5" y="-582" font-family="Helvetica,sans-Serif" font-size="10.00">thread</text>
</a>
</g>
</g>
<!-- Node1&#45;&gt;Node40 -->
<g id="edge59" class="edge">
<title>Node1&#45;&gt;Node40</title>
<path fill="none" stroke="midnightblue" d="M1208.41,-636.48C1230.66,-626.45 1267.81,-609.7 1293.43,-598.15"/>
<polygon fill="midnightblue" stroke="midnightblue" points="1294.94,-601.31 1302.62,-594.01 1292.07,-594.93 1294.94,-601.31"/>
</g>
<!-- Node41 -->
<g id="node41" class="node">
<title>Node41</title>
<g id="a_node41"><a xlink:title=" ">
<polygon fill="white" stroke="#bfbfbf" points="1363.5,-569.5 1363.5,-599.5 1515.5,-599.5 1515.5,-569.5 1363.5,-569.5"/>
<text text-anchor="start" x="1371.5" y="-587.5" font-family="Helvetica,sans-Serif" font-size="10.00">packages/concurrency</text>
<text text-anchor="middle" x="1439.5" y="-576.5" font-family="Helvetica,sans-Serif" font-size="10.00">/impl/ThreadLocal_impl.hpp</text>
</a>
</g>
</g>
<!-- Node1&#45;&gt;Node41 -->
<g id="edge60" class="edge">
<title>Node1&#45;&gt;Node41</title>
<path fill="none" stroke="midnightblue" d="M1225.32,-636.48C1263.13,-627.48 1323.67,-613.07 1370.75,-601.86"/>
<polygon fill="midnightblue" stroke="midnightblue" points="1371.66,-605.24 1380.58,-599.52 1370.04,-598.43 1371.66,-605.24"/>
</g>
<!-- Node4 -->
<g id="node4" class="node">
<title>Node4</title>
<g id="a_node4"><a xlink:href="debug_8hpp.html" target="_top" xlink:title=" ">
<polygon fill="white" stroke="black" points="840,-67.5 840,-97.5 959,-97.5 959,-67.5 840,-67.5"/>
<text text-anchor="start" x="848" y="-85.5" font-family="Helvetica,sans-Serif" font-size="10.00">packages/macros/inc</text>
<text text-anchor="middle" x="899.5" y="-74.5" font-family="Helvetica,sans-Serif" font-size="10.00">/debug.hpp</text>
</a>
</g>
</g>
<!-- Node3&#45;&gt;Node4 -->
<g id="edge3" class="edge">
<title>Node3&#45;&gt;Node4</title>
<path fill="none" stroke="midnightblue" d="M836.08,-134.4C847.11,-125.54 861.54,-113.96 873.85,-104.09"/>
<polygon fill="midnightblue" stroke="midnightblue" points="876.35,-106.56 881.96,-97.58 871.97,-101.11 876.35,-106.56"/>
</g>
<!-- Node7 -->
<g id="node7" class="node">
<title>Node7</title>
<g id="a_node7"><a xlink:title=" ">
<polygon fill="white" stroke="#bfbfbf" points="977,-73 977,-92 1030,-92 1030,-73 977,-73"/>
<text text-anchor="middle" x="1003.5" y="-80" font-family="Helvetica,sans-Serif" font-size="10.00">cstddef</text>
</a>
</g>
</g>
<!-- Node3&#45;&gt;Node7 -->
<g id="edge6" class="edge">
<title>Node3&#45;&gt;Node7</title>
<path fill="none" stroke="midnightblue" d="M862.08,-134.44C891.91,-124.65 932.28,-111.05 967.5,-98 969.35,-97.32 971.24,-96.6 973.15,-95.86"/>
<polygon fill="midnightblue" stroke="midnightblue" points="974.61,-99.05 982.64,-92.13 972.05,-92.54 974.61,-99.05"/>
</g>
<!-- Node8 -->
<g id="node8" class="node">
<title>Node8</title>
<g id="a_node8"><a xlink:title=" ">
<polygon fill="white" stroke="#bfbfbf" points="437.5,-73 437.5,-92 481.5,-92 481.5,-73 437.5,-73"/>
<text text-anchor="middle" x="459.5" y="-80" font-family="Helvetica,sans-Serif" font-size="10.00">string</text>
</a>
</g>
</g>
<!-- Node3&#45;&gt;Node8 -->
<g id="edge7" class="edge">
<title>Node3&#45;&gt;Node8</title>
<path fill="none" stroke="midnightblue" d="M763.4,-135.7C760.4,-135.1 757.41,-134.53 754.5,-134 637.98,-112.9 604.09,-131.47 490.5,-98 488.62,-97.45 486.71,-96.79 484.81,-96.08"/>
<polygon fill="midnightblue" stroke="midnightblue" points="486.12,-92.83 475.55,-92.13 483.37,-99.27 486.12,-92.83"/>
</g>
<!-- Node9 -->
<g id="node9" class="node">
<title>Node9</title>
<g id="a_node9"><a xlink:title=" ">
<polygon fill="white" stroke="#bfbfbf" points="1048,-73 1048,-92 1117,-92 1117,-73 1048,-73"/>
<text text-anchor="middle" x="1082.5" y="-80" font-family="Helvetica,sans-Serif" font-size="10.00">type_traits</text>
</a>
</g>
</g>
<!-- Node3&#45;&gt;Node9 -->
<g id="edge8" class="edge">
<title>Node3&#45;&gt;Node9</title>
<path fill="none" stroke="midnightblue" d="M873.84,-137.47C918.77,-128.12 983.63,-113.76 1039.5,-98 1042.51,-97.15 1045.62,-96.22 1048.73,-95.24"/>
<polygon fill="midnightblue" stroke="midnightblue" points="1050.1,-98.48 1058.53,-92.06 1047.93,-91.82 1050.1,-98.48"/>
</g>
<!-- Node10 -->
<g id="node10" class="node">
<title>Node10</title>
<g id="a_node10"><a xlink:title=" ">
<polygon fill="white" stroke="#bfbfbf" points="499.5,-73 499.5,-92 549.5,-92 549.5,-73 499.5,-73"/>
<text text-anchor="middle" x="524.5" y="-80" font-family="Helvetica,sans-Serif" font-size="10.00">climits</text>
</a>
</g>
</g>
<!-- Node3&#45;&gt;Node10 -->
<g id="edge9" class="edge">
<title>Node3&#45;&gt;Node10</title>
<path fill="none" stroke="midnightblue" d="M763.37,-135.86C760.37,-135.22 757.4,-134.59 754.5,-134 667.74,-116.21 643.31,-123.53 558.5,-98 556.35,-97.35 554.16,-96.61 551.97,-95.82"/>
<polygon fill="midnightblue" stroke="midnightblue" points="553.16,-92.53 542.58,-92.09 550.58,-99.03 553.16,-92.53"/>
</g>
<!-- Node11 -->
<g id="node11" class="node">
<title>Node11</title>
<g id="a_node11"><a xlink:title=" ">
<polygon fill="white" stroke="#bfbfbf" points="568,-67.5 568,-97.5 685,-97.5 685,-67.5 568,-67.5"/>
<text text-anchor="start" x="576" y="-85.5" font-family="Helvetica,sans-Serif" font-size="10.00">packages/types/impl</text>
<text text-anchor="middle" x="626.5" y="-74.5" font-family="Helvetica,sans-Serif" font-size="10.00">/types_impl.hpp</text>
</a>
</g>
</g>
<!-- Node3&#45;&gt;Node11 -->
<g id="edge10" class="edge">
<title>Node3&#45;&gt;Node11</title>
<path fill="none" stroke="midnightblue" d="M776.84,-134.4C747.78,-124.56 708.81,-111.37 677.83,-100.88"/>
<polygon fill="midnightblue" stroke="midnightblue" points="678.67,-97.47 668.08,-97.58 676.43,-104.1 678.67,-97.47"/>
</g>
<!-- Node12 -->
<g id="node12" class="node">
<title>Node12</title>
<g id="a_node12"><a xlink:href="logging_8hpp.html" target="_top" xlink:title=" ">
<polygon fill="white" stroke="black" points="703,-67.5 703,-97.5 822,-97.5 822,-67.5 703,-67.5"/>
<text text-anchor="start" x="711" y="-85.5" font-family="Helvetica,sans-Serif" font-size="10.00">packages/macros/inc</text>
<text text-anchor="middle" x="762.5" y="-74.5" font-family="Helvetica,sans-Serif" font-size="10.00">/logging.hpp</text>
</a>
</g>
</g>
<!-- Node3&#45;&gt;Node12 -->
<g id="edge11" class="edge">
<title>Node3&#45;&gt;Node12</title>
<path fill="none" stroke="midnightblue" d="M806.35,-134.4C799.01,-125.88 789.51,-114.85 781.22,-105.23"/>
<polygon fill="midnightblue" stroke="midnightblue" points="783.81,-102.87 774.63,-97.58 778.5,-107.44 783.81,-102.87"/>
</g>
<!-- Node5 -->
<g id="node5" class="node">
<title>Node5</title>
<g id="a_node5"><a xlink:href="detail_8hpp.html" target="_top" xlink:title=" ">
<polygon fill="white" stroke="black" points="0,-0.5 0,-30.5 119,-30.5 119,-0.5 0,-0.5"/>
<text text-anchor="start" x="8" y="-18.5" font-family="Helvetica,sans-Serif" font-size="10.00">packages/macros/inc</text>
<text text-anchor="middle" x="59.5" y="-7.5" font-family="Helvetica,sans-Serif" font-size="10.00">/detail.hpp</text>
</a>
</g>
</g>
<!-- Node4&#45;&gt;Node5 -->
<g id="edge4" class="edge">
<title>Node4&#45;&gt;Node5</title>
<path fill="none" stroke="midnightblue" d="M839.75,-68.4C836.63,-67.89 833.53,-67.42 830.5,-67 573.72,-31.79 265.35,-20.96 129.54,-17.77"/>
<polygon fill="midnightblue" stroke="midnightblue" points="129.36,-14.26 119.28,-17.53 129.2,-21.26 129.36,-14.26"/>
</g>
<!-- Node6 -->
<g id="node6" class="node">
<title>Node6</title>
<g id="a_node6"><a xlink:title=" ">
<polygon fill="white" stroke="#bfbfbf" points="869.5,-6 869.5,-25 929.5,-25 929.5,-6 869.5,-6"/>
<text text-anchor="middle" x="899.5" y="-13" font-family="Helvetica,sans-Serif" font-size="10.00">iostream</text>
</a>
</g>
</g>
<!-- Node4&#45;&gt;Node6 -->
<g id="edge5" class="edge">
<title>Node4&#45;&gt;Node6</title>
<path fill="none" stroke="midnightblue" d="M899.5,-67.4C899.5,-58.06 899.5,-45.71 899.5,-35.52"/>
<polygon fill="midnightblue" stroke="midnightblue" points="903,-35.19 899.5,-25.19 896,-35.19 903,-35.19"/>
</g>
<!-- Node14 -->
<g id="node14" class="node">
<title>Node14</title>
<g id="a_node14"><a xlink:href="STLContainerBase_8hpp.html" target="_top" xlink:title=" ">
<polygon fill="white" stroke="black" points="840.5,-502.5 840.5,-532.5 986.5,-532.5 986.5,-502.5 840.5,-502.5"/>
<text text-anchor="start" x="848.5" y="-520.5" font-family="Helvetica,sans-Serif" font-size="10.00">packages/stl_extension</text>
<text text-anchor="middle" x="913.5" y="-509.5" font-family="Helvetica,sans-Serif" font-size="10.00">/inc/STLContainerBase.hpp</text>
</a>
</g>
</g>
<!-- Node13&#45;&gt;Node14 -->
<g id="edge13" class="edge">
<title>Node13&#45;&gt;Node14</title>
<path fill="none" stroke="midnightblue" d="M1067.75,-569.4C1037.81,-559.52 997.61,-546.25 965.76,-535.74"/>
<polygon fill="midnightblue" stroke="midnightblue" points="966.76,-532.39 956.16,-532.58 964.56,-539.03 966.76,-532.39"/>
</g>
<!-- Node39 -->
<g id="node39" class="node">
<title>Node39</title>
<g id="a_node39"><a xlink:title=" ">
<polygon fill="white" stroke="#bfbfbf" points="1087,-508 1087,-527 1134,-527 1134,-508 1087,-508"/>
<text text-anchor="middle" x="1110.5" y="-515" font-family="Helvetica,sans-Serif" font-size="10.00">vector</text>
</a>
</g>
</g>
<!-- Node13&#45;&gt;Node39 -->
<g id="edge57" class="edge">
<title>Node13&#45;&gt;Node39</title>
<path fill="none" stroke="midnightblue" d="M1110.5,-569.4C1110.5,-560.06 1110.5,-547.71 1110.5,-537.52"/>
<polygon fill="midnightblue" stroke="midnightblue" points="1114,-537.19 1110.5,-527.19 1107,-537.19 1114,-537.19"/>
</g>
<!-- Node14&#45;&gt;Node3 -->
<g id="edge32" class="edge">
<title>Node14&#45;&gt;Node3</title>
<path fill="none" stroke="midnightblue" d="M949.91,-502.45C994.88,-482.42 1065.5,-441.09 1065.5,-379 1065.5,-379 1065.5,-379 1065.5,-299 1065.5,-254.63 1077.45,-232.78 1046.5,-201 1024.21,-178.11 942.92,-164.26 883.75,-157"/>
<polygon fill="midnightblue" stroke="midnightblue" points="884.06,-153.51 873.71,-155.8 883.23,-160.46 884.06,-153.51"/>
</g>
<!-- Node15 -->
<g id="node15" class="node">
<title>Node15</title>
<g id="a_node15"><a xlink:href="container__concepts_8hpp.html" target="_top" xlink:title=" ">
<polygon fill="white" stroke="black" points="840,-357.5 840,-398.5 975,-398.5 975,-357.5 840,-357.5"/>
<text text-anchor="start" x="848" y="-386.5" font-family="Helvetica,sans-Serif" font-size="10.00">packages/compile_time</text>
<text text-anchor="start" x="848" y="-375.5" font-family="Helvetica,sans-Serif" font-size="10.00">/packages/concepts/inc</text>
<text text-anchor="middle" x="907.5" y="-364.5" font-family="Helvetica,sans-Serif" font-size="10.00">/container_concepts.hpp</text>
</a>
</g>
</g>
<!-- Node14&#45;&gt;Node15 -->
<g id="edge14" class="edge">
<title>Node14&#45;&gt;Node15</title>
<path fill="none" stroke="midnightblue" d="M929.53,-502.32C938.77,-493.04 949.52,-480.05 954.5,-466 959.11,-453.02 959.21,-447.95 954.5,-435 950.64,-424.41 943.81,-414.42 936.52,-405.9"/>
<polygon fill="midnightblue" stroke="midnightblue" points="939.1,-403.54 929.78,-398.51 933.93,-408.26 939.1,-403.54"/>
</g>
<!-- Node26 -->
<g id="node26" class="node">
<title>Node26</title>
<g id="a_node26"><a xlink:href="typedefs_8hpp.html" target="_top" xlink:title=" ">
<polygon fill="white" stroke="black" points="218,-435.5 218,-465.5 337,-465.5 337,-435.5 218,-435.5"/>
<text text-anchor="start" x="226" y="-453.5" font-family="Helvetica,sans-Serif" font-size="10.00">packages/macros/inc</text>
<text text-anchor="middle" x="277.5" y="-442.5" font-family="Helvetica,sans-Serif" font-size="10.00">/typedefs.hpp</text>
</a>
</g>
</g>
<!-- Node14&#45;&gt;Node26 -->
<g id="edge30" class="edge">
<title>Node14&#45;&gt;Node26</title>
<path fill="none" stroke="midnightblue" d="M840.47,-512.37C732.99,-505.74 526.07,-490.88 351.5,-466 350.04,-465.79 348.57,-465.57 347.09,-465.35"/>
<polygon fill="midnightblue" stroke="midnightblue" points="347.61,-461.89 337.18,-463.75 346.5,-468.8 347.61,-461.89"/>
</g>
<!-- Node27 -->
<g id="node27" class="node">
<title>Node27</title>
<g id="a_node27"><a xlink:href="exceptions_8hpp.html" target="_top" xlink:title=" ">
<polygon fill="white" stroke="black" points="306,-285 306,-315 425,-315 425,-285 306,-285"/>
<text text-anchor="start" x="314" y="-303" font-family="Helvetica,sans-Serif" font-size="10.00">packages/macros/inc</text>
<text text-anchor="middle" x="365.5" y="-292" font-family="Helvetica,sans-Serif" font-size="10.00">/exceptions.hpp</text>
</a>
</g>
</g>
<!-- Node14&#45;&gt;Node27 -->
<g id="edge33" class="edge">
<title>Node14&#45;&gt;Node27</title>
<path fill="none" stroke="midnightblue" d="M840.37,-510.05C710.45,-497.06 447.12,-463.34 384.5,-399 365.68,-379.66 362.72,-347.6 363.3,-325.44"/>
<polygon fill="midnightblue" stroke="midnightblue" points="366.81,-325.33 363.83,-315.17 359.82,-324.97 366.81,-325.33"/>
</g>
<!-- Node33 -->
<g id="node33" class="node">
<title>Node33</title>
<g id="a_node33"><a xlink:href="resize_8hpp.html" target="_top" xlink:title=" ">
<polygon fill="white" stroke="black" points="732,-435.5 732,-465.5 863,-465.5 863,-435.5 732,-435.5"/>
<text text-anchor="start" x="740" y="-453.5" font-family="Helvetica,sans-Serif" font-size="10.00">packages/stl_extension</text>
<text text-anchor="middle" x="797.5" y="-442.5" font-family="Helvetica,sans-Serif" font-size="10.00">/inc/resize.hpp</text>
</a>
</g>
</g>
<!-- Node14&#45;&gt;Node33 -->
<g id="edge44" class="edge">
<title>Node14&#45;&gt;Node33</title>
<path fill="none" stroke="midnightblue" d="M888.33,-502.4C871.76,-493.11 849.86,-480.84 831.72,-470.67"/>
<polygon fill="midnightblue" stroke="midnightblue" points="833.06,-467.41 822.62,-465.58 829.63,-473.52 833.06,-467.41"/>
</g>
<!-- Node38 -->
<g id="node38" class="node">
<title>Node38</title>
<g id="a_node38"><a xlink:title=" ">
<polygon fill="white" stroke="#bfbfbf" points="881.5,-441 881.5,-460 945.5,-460 945.5,-441 881.5,-441"/>
<text text-anchor="middle" x="913.5" y="-448" font-family="Helvetica,sans-Serif" font-size="10.00">algorithm</text>
</a>
</g>
</g>
<!-- Node14&#45;&gt;Node38 -->
<g id="edge56" class="edge">
<title>Node14&#45;&gt;Node38</title>
<path fill="none" stroke="midnightblue" d="M913.5,-502.4C913.5,-493.06 913.5,-480.71 913.5,-470.52"/>
<polygon fill="midnightblue" stroke="midnightblue" points="917,-470.19 913.5,-460.19 910,-470.19 917,-470.19"/>
</g>
<!-- Node16 -->
<g id="node16" class="node">
<title>Node16</title>
<g id="a_node16"><a xlink:href="iterator__concepts_8hpp.html" target="_top" xlink:title=" ">
<polygon fill="white" stroke="black" points="833.5,-279.5 833.5,-320.5 965.5,-320.5 965.5,-279.5 833.5,-279.5"/>
<text text-anchor="start" x="841.5" y="-308.5" font-family="Helvetica,sans-Serif" font-size="10.00">packages/compile_time</text>
<text text-anchor="start" x="841.5" y="-297.5" font-family="Helvetica,sans-Serif" font-size="10.00">/packages/concepts/inc</text>
<text text-anchor="middle" x="899.5" y="-286.5" font-family="Helvetica,sans-Serif" font-size="10.00">/iterator_concepts.hpp</text>
</a>
</g>
</g>
<!-- Node15&#45;&gt;Node16 -->
<g id="edge15" class="edge">
<title>Node15&#45;&gt;Node16</title>
<path fill="none" stroke="midnightblue" d="M905.44,-357.43C904.58,-349.27 903.57,-339.62 902.62,-330.63"/>
<polygon fill="midnightblue" stroke="midnightblue" points="906.08,-330.08 901.55,-320.51 899.12,-330.82 906.08,-330.08"/>
</g>
<!-- Node17 -->
<g id="node17" class="node">
<title>Node17</title>
<g id="a_node17"><a xlink:href="basic__concepts_8hpp.html" target="_top" xlink:title=" ">
<polygon fill="white" stroke="black" points="591.5,-201.5 591.5,-242.5 723.5,-242.5 723.5,-201.5 591.5,-201.5"/>
<text text-anchor="start" x="599.5" y="-230.5" font-family="Helvetica,sans-Serif" font-size="10.00">packages/compile_time</text>
<text text-anchor="start" x="599.5" y="-219.5" font-family="Helvetica,sans-Serif" font-size="10.00">/packages/concepts/inc</text>
<text text-anchor="middle" x="657.5" y="-208.5" font-family="Helvetica,sans-Serif" font-size="10.00">/basic_concepts.hpp</text>
</a>
</g>
</g>
<!-- Node16&#45;&gt;Node17 -->
<g id="edge16" class="edge">
<title>Node16&#45;&gt;Node17</title>
<path fill="none" stroke="midnightblue" d="M837.18,-279.43C804.29,-269.1 763.78,-256.38 729.55,-245.63"/>
<polygon fill="midnightblue" stroke="midnightblue" points="730.2,-242.16 719.61,-242.51 728.1,-248.84 730.2,-242.16"/>
</g>
<!-- Node21 -->
<g id="node21" class="node">
<title>Node21</title>
<g id="a_node21"><a xlink:href="Size_8hpp.html" target="_top" xlink:title=" ">
<polygon fill="white" stroke="black" points="817.5,-201.5 817.5,-242.5 965.5,-242.5 965.5,-201.5 817.5,-201.5"/>
<text text-anchor="start" x="825.5" y="-230.5" font-family="Helvetica,sans-Serif" font-size="10.00">packages/compile_time</text>
<text text-anchor="start" x="825.5" y="-219.5" font-family="Helvetica,sans-Serif" font-size="10.00">/packages/parameter_pack</text>
<text text-anchor="middle" x="891.5" y="-208.5" font-family="Helvetica,sans-Serif" font-size="10.00">/inc/Size.hpp</text>
</a>
</g>
</g>
<!-- Node16&#45;&gt;Node21 -->
<g id="edge22" class="edge">
<title>Node16&#45;&gt;Node21</title>
<path fill="none" stroke="midnightblue" d="M897.44,-279.43C896.58,-271.27 895.57,-261.62 894.62,-252.63"/>
<polygon fill="midnightblue" stroke="midnightblue" points="898.08,-252.08 893.55,-242.51 891.12,-252.82 898.08,-252.08"/>
</g>
<!-- Node22 -->
<g id="node22" class="node">
<title>Node22</title>
<g id="a_node22"><a xlink:href="Select_8hpp.html" target="_top" xlink:title=" ">
<polygon fill="white" stroke="black" points="1093.5,-201.5 1093.5,-242.5 1241.5,-242.5 1241.5,-201.5 1093.5,-201.5"/>
<text text-anchor="start" x="1101.5" y="-230.5" font-family="Helvetica,sans-Serif" font-size="10.00">packages/compile_time</text>
<text text-anchor="start" x="1101.5" y="-219.5" font-family="Helvetica,sans-Serif" font-size="10.00">/packages/parameter_pack</text>
<text text-anchor="middle" x="1167.5" y="-208.5" font-family="Helvetica,sans-Serif" font-size="10.00">/inc/Select.hpp</text>
</a>
</g>
</g>
<!-- Node16&#45;&gt;Node22 -->
<g id="edge24" class="edge">
<title>Node16&#45;&gt;Node22</title>
<path fill="none" stroke="midnightblue" d="M965.75,-280.21C1002.9,-269.68 1049.48,-256.47 1088.52,-245.4"/>
<polygon fill="midnightblue" stroke="midnightblue" points="1089.61,-248.73 1098.28,-242.63 1087.7,-241.99 1089.61,-248.73"/>
</g>
<!-- Node24 -->
<g id="node24" class="node">
<title>Node24</title>
<g id="a_node24"><a xlink:title=" ">
<polygon fill="white" stroke="#bfbfbf" points="984,-212.5 984,-231.5 1037,-231.5 1037,-212.5 984,-212.5"/>
<text text-anchor="middle" x="1010.5" y="-219.5" font-family="Helvetica,sans-Serif" font-size="10.00">iterator</text>
</a>
</g>
</g>
<!-- Node16&#45;&gt;Node24 -->
<g id="edge28" class="edge">
<title>Node16&#45;&gt;Node24</title>
<path fill="none" stroke="midnightblue" d="M928.09,-279.43C947.34,-266.24 972.3,-249.16 989.68,-237.26"/>
<polygon fill="midnightblue" stroke="midnightblue" points="991.74,-240.09 998.01,-231.55 987.78,-234.31 991.74,-240.09"/>
</g>
<!-- Node25 -->
<g id="node25" class="node">
<title>Node25</title>
<g id="a_node25"><a xlink:title=" ">
<polygon fill="white" stroke="#bfbfbf" points="439.5,-140 439.5,-159 497.5,-159 497.5,-140 439.5,-140"/>
<text text-anchor="middle" x="468.5" y="-147" font-family="Helvetica,sans-Serif" font-size="10.00">memory</text>
</a>
</g>
</g>
<!-- Node16&#45;&gt;Node25 -->
<g id="edge29" class="edge">
<title>Node16&#45;&gt;Node25</title>
<path fill="none" stroke="midnightblue" d="M833.21,-296.93C767.01,-292.69 663.72,-280.08 582.5,-243 541.77,-224.41 503.25,-187.77 483.1,-166.61"/>
<polygon fill="midnightblue" stroke="midnightblue" points="485.46,-164.01 476.08,-159.08 480.34,-168.78 485.46,-164.01"/>
</g>
<!-- Node17&#45;&gt;Node3 -->
<g id="edge17" class="edge">
<title>Node17&#45;&gt;Node3</title>
<path fill="none" stroke="midnightblue" d="M702.35,-201.36C725.71,-191.13 754.1,-178.7 776.96,-168.69"/>
<polygon fill="midnightblue" stroke="midnightblue" points="778.64,-171.78 786.39,-164.56 775.83,-165.36 778.64,-171.78"/>
</g>
<!-- Node17&#45;&gt;Node9 -->
<g id="edge19" class="edge">
<title>Node17&#45;&gt;Node9</title>
<path fill="none" stroke="midnightblue" d="M723.68,-207.15C768.88,-197.05 829.88,-182.17 882.5,-165 945.32,-144.5 1016.44,-113.6 1054.66,-96.33"/>
<polygon fill="midnightblue" stroke="midnightblue" points="1056.43,-99.37 1064.08,-92.05 1053.53,-93 1056.43,-99.37"/>
</g>
<!-- Node18 -->
<g id="node18" class="node">
<title>Node18</title>
<g id="a_node18"><a xlink:title=" ">
<polygon fill="white" stroke="#bfbfbf" points="553.5,-140 553.5,-159 613.5,-159 613.5,-140 553.5,-140"/>
<text text-anchor="middle" x="583.5" y="-147" font-family="Helvetica,sans-Serif" font-size="10.00">concepts</text>
</a>
</g>
</g>
<!-- Node17&#45;&gt;Node18 -->
<g id="edge18" class="edge">
<title>Node17&#45;&gt;Node18</title>
<path fill="none" stroke="midnightblue" d="M636.89,-201.36C625.3,-190.32 611.03,-176.72 600.15,-166.37"/>
<polygon fill="midnightblue" stroke="midnightblue" points="602.26,-163.54 592.6,-159.17 597.43,-168.61 602.26,-163.54"/>
</g>
<!-- Node19 -->
<g id="node19" class="node">
<title>Node19</title>
<g id="a_node19"><a xlink:title=" ">
<polygon fill="white" stroke="#bfbfbf" points="695.5,-140 695.5,-159 745.5,-159 745.5,-140 695.5,-140"/>
<text text-anchor="middle" x="720.5" y="-147" font-family="Helvetica,sans-Serif" font-size="10.00">cstdint</text>
</a>
</g>
</g>
<!-- Node17&#45;&gt;Node19 -->
<g id="edge20" class="edge">
<title>Node17&#45;&gt;Node19</title>
<path fill="none" stroke="midnightblue" d="M675.05,-201.36C684.82,-190.43 696.83,-176.99 706.05,-166.67"/>
<polygon fill="midnightblue" stroke="midnightblue" points="708.7,-168.96 712.75,-159.17 703.48,-164.3 708.7,-168.96"/>
</g>
<!-- Node20 -->
<g id="node20" class="node">
<title>Node20</title>
<g id="a_node20"><a xlink:title=" ">
<polygon fill="white" stroke="#bfbfbf" points="632,-140 632,-159 677,-159 677,-140 632,-140"/>
<text text-anchor="middle" x="654.5" y="-147" font-family="Helvetica,sans-Serif" font-size="10.00">utility</text>
</a>
</g>
</g>
<!-- Node17&#45;&gt;Node20 -->
<g id="edge21" class="edge">
<title>Node17&#45;&gt;Node20</title>
<path fill="none" stroke="midnightblue" d="M656.66,-201.36C656.24,-191.3 655.72,-179.1 655.29,-169.18"/>
<polygon fill="midnightblue" stroke="midnightblue" points="658.79,-169.02 654.87,-159.17 651.8,-169.31 658.79,-169.02"/>
</g>
<!-- Node21&#45;&gt;Node3 -->
<g id="edge23" class="edge">
<title>Node21&#45;&gt;Node3</title>
<path fill="none" stroke="midnightblue" d="M871.17,-201.36C861.71,-192.23 850.44,-181.35 840.76,-172"/>
<polygon fill="midnightblue" stroke="midnightblue" points="843.03,-169.32 833.4,-164.89 838.16,-174.36 843.03,-169.32"/>
</g>
<!-- Node22&#45;&gt;Node3 -->
<g id="edge25" class="edge">
<title>Node22&#45;&gt;Node3</title>
<path fill="none" stroke="midnightblue" d="M1093.12,-203.92C1088.51,-202.92 1083.95,-201.94 1079.5,-201 1012.88,-186.99 936.39,-172.36 883.52,-162.48"/>
<polygon fill="midnightblue" stroke="midnightblue" points="884.07,-159.02 873.6,-160.62 882.78,-165.9 884.07,-159.02"/>
</g>
<!-- Node22&#45;&gt;Node9 -->
<g id="edge26" class="edge">
<title>Node22&#45;&gt;Node9</title>
<path fill="none" stroke="midnightblue" d="M1155.32,-201.3C1138.63,-174.3 1108.93,-126.25 1093.11,-100.66"/>
<polygon fill="midnightblue" stroke="midnightblue" points="1096.01,-98.7 1087.78,-92.04 1090.06,-102.38 1096.01,-98.7"/>
</g>
<!-- Node22&#45;&gt;Node23 -->
<g id="edge27" class="edge">
<title>Node22&#45;&gt;Node23</title>
<path fill="none" stroke="midnightblue" d="M1177.53,-201.36C1182.83,-190.97 1189.3,-178.32 1194.45,-168.23"/>
<polygon fill="midnightblue" stroke="midnightblue" points="1197.64,-169.67 1199.07,-159.17 1191.41,-166.49 1197.64,-169.67"/>
</g>
<!-- Node26&#45;&gt;Node25 -->
<g id="edge31" class="edge">
<title>Node26&#45;&gt;Node25</title>
<path fill="none" stroke="midnightblue" d="M275.8,-435.3C271.54,-392.54 265.3,-264.05 334.5,-201 342.13,-194.04 396.3,-174.85 433.39,-162.22"/>
<polygon fill="midnightblue" stroke="midnightblue" points="434.53,-165.53 442.88,-159.01 432.28,-158.9 434.53,-165.53"/>
</g>
<!-- Node27&#45;&gt;Node5 -->
<g id="edge41" class="edge">
<title>Node27&#45;&gt;Node5</title>
<path fill="none" stroke="midnightblue" d="M305.72,-296.33C255.6,-291.52 184.16,-278.38 132.5,-243 65.94,-197.41 58.45,-89.57 58.64,-40.98"/>
<polygon fill="midnightblue" stroke="midnightblue" points="62.14,-40.82 58.8,-30.76 55.14,-40.71 62.14,-40.82"/>
</g>
<!-- Node27&#45;&gt;Node18 -->
<g id="edge43" class="edge">
<title>Node27&#45;&gt;Node18</title>
<path fill="none" stroke="midnightblue" d="M356.48,-284.97C344.43,-264.28 326.77,-225.38 346.5,-201 349.62,-197.15 476.53,-171.61 543.32,-158.39"/>
<polygon fill="midnightblue" stroke="midnightblue" points="544.37,-161.76 553.5,-156.38 543.01,-154.89 544.37,-161.76"/>
</g>
<!-- Node28 -->
<g id="node28" class="node">
<title>Node28</title>
<g id="a_node28"><a xlink:href="exception_8hpp.html" target="_top" xlink:title=" ">
<polygon fill="white" stroke="black" points="142,-207 142,-237 261,-237 261,-207 142,-207"/>
<text text-anchor="start" x="150" y="-225" font-family="Helvetica,sans-Serif" font-size="10.00">packages/exceptions</text>
<text text-anchor="middle" x="201.5" y="-214" font-family="Helvetica,sans-Serif" font-size="10.00">/inc/exception.hpp</text>
</a>
</g>
</g>
<!-- Node27&#45;&gt;Node28 -->
<g id="edge34" class="edge">
<title>Node27&#45;&gt;Node28</title>
<path fill="none" stroke="midnightblue" d="M335.04,-284.88C308.57,-272.62 270.06,-254.77 241.19,-241.39"/>
<polygon fill="midnightblue" stroke="midnightblue" points="242.34,-238.07 231.8,-237.04 239.4,-244.42 242.34,-238.07"/>
</g>
<!-- Node32 -->
<g id="node32" class="node">
<title>Node32</title>
<g id="a_node32"><a xlink:title=" ">
<polygon fill="white" stroke="#bfbfbf" points="355.5,-212.5 355.5,-231.5 411.5,-231.5 411.5,-212.5 355.5,-212.5"/>
<text text-anchor="middle" x="383.5" y="-219.5" font-family="Helvetica,sans-Serif" font-size="10.00">sstream</text>
</a>
</g>
</g>
<!-- Node27&#45;&gt;Node32 -->
<g id="edge42" class="edge">
<title>Node27&#45;&gt;Node32</title>
<path fill="none" stroke="midnightblue" d="M368.89,-284.7C371.78,-272.48 375.97,-254.8 379.12,-241.49"/>
<polygon fill="midnightblue" stroke="midnightblue" points="382.57,-242.1 381.47,-231.56 375.76,-240.49 382.57,-242.1"/>
</g>
<!-- Node28&#45;&gt;Node3 -->
<g id="edge35" class="edge">
<title>Node28&#45;&gt;Node3</title>
<path fill="none" stroke="midnightblue" d="M261.03,-212.12C287.21,-208.39 318.34,-204.18 346.5,-201 524.12,-180.93 572.9,-192.73 753.34,-165.04"/>
<polygon fill="midnightblue" stroke="midnightblue" points="754.09,-168.47 763.43,-163.47 753.01,-161.55 754.09,-168.47"/>
</g>
<!-- Node28&#45;&gt;Node8 -->
<g id="edge37" class="edge">
<title>Node28&#45;&gt;Node8</title>
<path fill="none" stroke="midnightblue" d="M251.76,-206.97C306,-191.71 385.48,-168.95 391.5,-165 416.95,-148.29 437.87,-119.21 449.51,-100.68"/>
<polygon fill="midnightblue" stroke="midnightblue" points="452.53,-102.44 454.72,-92.07 446.55,-98.81 452.53,-102.44"/>
</g>
<!-- Node28&#45;&gt;Node25 -->
<g id="edge39" class="edge">
<title>Node28&#45;&gt;Node25</title>
<path fill="none" stroke="midnightblue" d="M252.8,-206.93C260.4,-204.91 268.15,-202.87 275.5,-201 341.93,-184.05 359.62,-183.97 425.5,-165 428.51,-164.13 431.62,-163.19 434.72,-162.21"/>
<polygon fill="midnightblue" stroke="midnightblue" points="436.09,-165.44 444.51,-159.01 433.92,-158.79 436.09,-165.44"/>
</g>
<!-- Node29 -->
<g id="node29" class="node">
<title>Node29</title>
<g id="a_node29"><a xlink:title=" ">
<polygon fill="white" stroke="#bfbfbf" points="318,-140 318,-159 383,-159 383,-140 318,-140"/>
<text text-anchor="middle" x="350.5" y="-147" font-family="Helvetica,sans-Serif" font-size="10.00">stdexcept</text>
</a>
</g>
</g>
<!-- Node28&#45;&gt;Node29 -->
<g id="edge36" class="edge">
<title>Node28&#45;&gt;Node29</title>
<path fill="none" stroke="midnightblue" d="M231.29,-206.9C258.1,-194.22 297.17,-175.73 323.18,-163.42"/>
<polygon fill="midnightblue" stroke="midnightblue" points="324.92,-166.47 332.46,-159.03 321.93,-160.15 324.92,-166.47"/>
</g>
<!-- Node30 -->
<g id="node30" class="node">
<title>Node30</title>
<g id="a_node30"><a xlink:title=" ">
<polygon fill="white" stroke="#bfbfbf" points="88,-140 88,-159 135,-159 135,-140 88,-140"/>
<text text-anchor="middle" x="111.5" y="-147" font-family="Helvetica,sans-Serif" font-size="10.00">deque</text>
</a>
</g>
</g>
<!-- Node28&#45;&gt;Node30 -->
<g id="edge38" class="edge">
<title>Node28&#45;&gt;Node30</title>
<path fill="none" stroke="midnightblue" d="M183.29,-206.73C167.95,-194.72 146.07,-177.58 130.51,-165.39"/>
<polygon fill="midnightblue" stroke="midnightblue" points="132.63,-162.6 122.59,-159.19 128.31,-168.11 132.63,-162.6"/>
</g>
<!-- Node31 -->
<g id="node31" class="node">
<title>Node31</title>
<g id="a_node31"><a xlink:title=" ">
<polygon fill="white" stroke="#bfbfbf" points="153.5,-134.5 153.5,-164.5 299.5,-164.5 299.5,-134.5 153.5,-134.5"/>
<text text-anchor="start" x="161.5" y="-152.5" font-family="Helvetica,sans-Serif" font-size="10.00">packages/exceptions</text>
<text text-anchor="middle" x="226.5" y="-141.5" font-family="Helvetica,sans-Serif" font-size="10.00">/impl/exceptions_impl.hpp</text>
</a>
</g>
</g>
<!-- Node28&#45;&gt;Node31 -->
<g id="edge40" class="edge">
<title>Node28&#45;&gt;Node31</title>
<path fill="none" stroke="midnightblue" d="M206.56,-206.73C209.85,-197.46 214.21,-185.15 218.02,-174.41"/>
<polygon fill="midnightblue" stroke="midnightblue" points="221.4,-175.34 221.45,-164.75 214.81,-173 221.4,-175.34"/>
</g>
<!-- Node33&#45;&gt;Node3 -->
<g id="edge54" class="edge">
<title>Node33&#45;&gt;Node3</title>
<path fill="none" stroke="midnightblue" d="M797.38,-435.43C797.22,-397.45 797.81,-289.75 808.5,-201 809.55,-192.27 811.27,-182.78 812.99,-174.42"/>
<polygon fill="midnightblue" stroke="midnightblue" points="816.43,-175.07 815.12,-164.56 809.59,-173.59 816.43,-175.07"/>
</g>
<!-- Node33&#45;&gt;Node15 -->
<g id="edge53" class="edge">
<title>Node33&#45;&gt;Node15</title>
<path fill="none" stroke="midnightblue" d="M819.5,-435.4C833.36,-426.52 851.65,-414.79 867.97,-404.33"/>
<polygon fill="midnightblue" stroke="midnightblue" points="870.26,-407.02 876.79,-398.68 866.49,-401.13 870.26,-407.02"/>
</g>
<!-- Node34 -->
<g id="node34" class="node">
<title>Node34</title>
<g id="a_node34"><a xlink:href="checks_8hpp.html" target="_top" xlink:title=" ">
<polygon fill="white" stroke="black" points="394,-363 394,-393 513,-393 513,-363 394,-363"/>
<text text-anchor="start" x="402" y="-381" font-family="Helvetica,sans-Serif" font-size="10.00">packages/macros/inc</text>
<text text-anchor="middle" x="453.5" y="-370" font-family="Helvetica,sans-Serif" font-size="10.00">/checks.hpp</text>
</a>
</g>
</g>
<!-- Node33&#45;&gt;Node34 -->
<g id="edge45" class="edge">
<title>Node33&#45;&gt;Node34</title>
<path fill="none" stroke="midnightblue" d="M731.99,-436.07C672.16,-423.81 583.99,-405.74 522.95,-393.23"/>
<polygon fill="midnightblue" stroke="midnightblue" points="523.52,-389.78 513.02,-391.2 522.12,-396.63 523.52,-389.78"/>
</g>
<!-- Node37 -->
<g id="node37" class="node">
<title>Node37</title>
<g id="a_node37"><a xlink:title=" ">
<polygon fill="white" stroke="#bfbfbf" points="731.5,-368.5 731.5,-387.5 783.5,-387.5 783.5,-368.5 731.5,-368.5"/>
<text text-anchor="middle" x="757.5" y="-375.5" font-family="Helvetica,sans-Serif" font-size="10.00">cassert</text>
</a>
</g>
</g>
<!-- Node33&#45;&gt;Node37 -->
<g id="edge55" class="edge">
<title>Node33&#45;&gt;Node37</title>
<path fill="none" stroke="midnightblue" d="M789.41,-435.23C783.13,-424.17 774.39,-408.77 767.64,-396.88"/>
<polygon fill="midnightblue" stroke="midnightblue" points="770.52,-394.86 762.55,-387.89 764.44,-398.32 770.52,-394.86"/>
</g>
<!-- Node34&#45;&gt;Node5 -->
<g id="edge48" class="edge">
<title>Node34&#45;&gt;Node5</title>
<path fill="none" stroke="midnightblue" d="M393.89,-368.52C275.38,-349.97 21.5,-301.13 21.5,-223 21.5,-223 21.5,-223 21.5,-148.5 21.5,-109.34 37.13,-66.11 48.35,-40.14"/>
<polygon fill="midnightblue" stroke="midnightblue" points="51.65,-41.32 52.53,-30.76 45.26,-38.47 51.65,-41.32"/>
</g>
<!-- Node34&#45;&gt;Node27 -->
<g id="edge47" class="edge">
<title>Node34&#45;&gt;Node27</title>
<path fill="none" stroke="midnightblue" d="M436.95,-362.7C423.67,-351.24 404.85,-334.98 389.85,-322.03"/>
<polygon fill="midnightblue" stroke="midnightblue" points="391.83,-319.12 381.98,-315.23 387.26,-324.42 391.83,-319.12"/>
</g>
<!-- Node34&#45;&gt;Node28 -->
<g id="edge46" class="edge">
<title>Node34&#45;&gt;Node28</title>
<path fill="none" stroke="midnightblue" d="M394.64,-362.96C363.85,-353.94 326.43,-340.26 296.5,-321 264.66,-300.51 235.56,-267.42 218.18,-245.44"/>
<polygon fill="midnightblue" stroke="midnightblue" points="220.79,-243.09 211.9,-237.33 215.25,-247.38 220.79,-243.09"/>
</g>
<!-- Node34&#45;&gt;Node32 -->
<g id="edge52" class="edge">
<title>Node34&#45;&gt;Node32</title>
<path fill="none" stroke="midnightblue" d="M452.92,-362.94C451.62,-343.21 447.36,-306.63 433.5,-279 425.69,-263.44 412.42,-248.87 401.51,-238.5"/>
<polygon fill="midnightblue" stroke="midnightblue" points="403.84,-235.88 394.1,-231.73 399.12,-241.05 403.84,-235.88"/>
</g>
<!-- Node35 -->
<g id="node35" class="node">
<title>Node35</title>
<g id="a_node35"><a xlink:href="cmake__variables_8hpp.html" target="_top" xlink:title=" ">
<polygon fill="white" stroke="black" points="481.5,-290.5 481.5,-309.5 601.5,-309.5 601.5,-290.5 481.5,-290.5"/>
<text text-anchor="middle" x="541.5" y="-297.5" font-family="Helvetica,sans-Serif" font-size="10.00">cmake_variables.hpp</text>
</a>
</g>
</g>
<!-- Node34&#45;&gt;Node35 -->
<g id="edge49" class="edge">
<title>Node34&#45;&gt;Node35</title>
<path fill="none" stroke="midnightblue" d="M470.05,-362.7C485.34,-349.5 508,-329.93 523.68,-316.39"/>
<polygon fill="midnightblue" stroke="midnightblue" points="526.3,-318.75 531.58,-309.56 521.73,-313.45 526.3,-318.75"/>
</g>
<!-- Node35&#45;&gt;Node8 -->
<g id="edge51" class="edge">
<title>Node35&#45;&gt;Node8</title>
<path fill="none" stroke="midnightblue" d="M541.26,-290.22C540.24,-264.64 534.86,-188.57 506.5,-134 499.6,-120.72 488.23,-108.36 478.4,-99.2"/>
<polygon fill="midnightblue" stroke="midnightblue" points="480.44,-96.33 470.64,-92.3 475.79,-101.56 480.44,-96.33"/>
</g>
<!-- Node36 -->
<g id="node36" class="node">
<title>Node36</title>
<g id="a_node36"><a xlink:title=" ">
<polygon fill="white" stroke="#bfbfbf" points="429.5,-212.5 429.5,-231.5 497.5,-231.5 497.5,-212.5 429.5,-212.5"/>
<text text-anchor="middle" x="463.5" y="-219.5" font-family="Helvetica,sans-Serif" font-size="10.00">filesystem</text>
</a>
</g>
</g>
<!-- Node35&#45;&gt;Node36 -->
<g id="edge50" class="edge">
<title>Node35&#45;&gt;Node36</title>
<path fill="none" stroke="midnightblue" d="M532.55,-290.28C519.74,-277.8 495.95,-254.62 479.92,-239"/>
<polygon fill="midnightblue" stroke="midnightblue" points="481.95,-236.09 472.34,-231.62 477.06,-241.1 481.95,-236.09"/>
</g>
</g>
</svg>
