<?xml version="1.0" encoding="UTF-8" standalone="no"?>
<!DOCTYPE svg PUBLIC "-//W3C//DTD SVG 1.1//EN"
 "http://www.w3.org/Graphics/SVG/1.1/DTD/svg11.dtd">
<!-- Generated by graphviz version 2.43.0 (0)
 -->
<!-- Title: ThreadPoolBase.hpp Pages: 1 -->
<svg width="474pt" height="247pt"
 viewBox="0.00 0.00 473.60 247.00" xmlns="http://www.w3.org/2000/svg" xmlns:xlink="http://www.w3.org/1999/xlink">

<svg id="main" version="1.1" xmlns="http://www.w3.org/2000/svg" xmlns:xlink="http://www.w3.org/1999/xlink" xml:space="preserve" onload="init(evt)">
<style type="text/css"><![CDATA[
.node, .edge {opacity: 0.7;}
.node.selected, .edge.selected {opacity: 1;}
.edge:hover path { stroke: red; }
.edge:hover polygon { stroke: red; fill: red; }
]]></style>
<script type="application/ecmascript" xlink:href="svg.min.js"/>
<svg id="graph" class="graph">
<g id="graph0" class="graph" transform="scale(1 1) rotate(0) translate(4 243)">
<title>ThreadPoolBase.hpp</title>
<!-- Node1 -->
<g id="Node000001" class="node">
<title>Node1</title>
<g id="a_Node000001"><a xlink:title=" ">
<polygon fill="#999999" stroke="#666666" points="161.6,-239 45.6,-239 45.6,-220 161.6,-220 161.6,-239"/>
<text text-anchor="middle" x="103.6" y="-227" font-family="Helvetica,sans-Serif" font-size="10.00">ThreadPoolBase.hpp</text>
</a>
</g>
</g>
<!-- Node2 -->
<g id="Node000002" class="node">
<title>Node2</title>
<g id="a_Node000002"><a xlink:href="ResourceQueue_8hpp.html" target="_top" xlink:title=" ">
<polygon fill="white" stroke="#666666" points="210.6,-19 96.6,-19 96.6,0 210.6,0 210.6,-19"/>
<text text-anchor="middle" x="153.6" y="-7" font-family="Helvetica,sans-Serif" font-size="10.00">ResourceQueue.hpp</text>
</a>
</g>
</g>
<!-- Node1&#45;&gt;Node2 -->
<g id="edge1_Node000001_Node000002" class="edge">
<title>Node1&#45;&gt;Node2</title>
<g id="a_edge1_Node000001_Node000002"><a xlink:title=" ">
<path fill="none" stroke="#63b8ff" d="M84.38,-213.33C47.11,-182.07 -27.99,-108.9 11.6,-55 31.02,-28.56 66.12,-17.4 96.57,-12.87"/>
<polygon fill="#63b8ff" stroke="#63b8ff" points="82.17,-216.04 92.12,-219.68 86.61,-210.63 82.17,-216.04"/>
</a>
</g>
</g>
<!-- Node3 -->
<g id="Node000003" class="node">
<title>Node3</title>
<g id="a_Node000003"><a xlink:href="ThreadPool_8hpp.html" target="_top" xlink:title=" ">
<polygon fill="white" stroke="#666666" points="242.6,-129 150.6,-129 150.6,-110 242.6,-110 242.6,-129"/>
<text text-anchor="middle" x="196.6" y="-117" font-family="Helvetica,sans-Serif" font-size="10.00">ThreadPool.hpp</text>
</a>
</g>
</g>
<!-- Node1&#45;&gt;Node3 -->
<g id="edge2_Node000001_Node000003" class="edge">
<title>Node1&#45;&gt;Node3</title>
<g id="a_edge2_Node000001_Node000003"><a xlink:title=" ">
<path fill="none" stroke="#63b8ff" d="M105.58,-209.67C107.82,-196.08 112.57,-177.93 122.6,-165 135.65,-148.18 156.99,-136.33 173.41,-129.11"/>
<polygon fill="#63b8ff" stroke="#63b8ff" points="102.08,-209.42 104.23,-219.8 109.02,-210.35 102.08,-209.42"/>
</a>
</g>
</g>
<!-- Node8 -->
<g id="Node000008" class="node">
<title>Node8</title>
<g id="a_Node000008"><a xlink:href="ThreadPoolStorage_8hpp.html" target="_top" xlink:title=" ">
<polygon fill="white" stroke="#666666" points="261.6,-184 131.6,-184 131.6,-165 261.6,-165 261.6,-184"/>
<text text-anchor="middle" x="196.6" y="-172" font-family="Helvetica,sans-Serif" font-size="10.00">ThreadPoolStorage.hpp</text>
</a>
</g>
</g>
<!-- Node1&#45;&gt;Node8 -->
<g id="edge8_Node000001_Node000008" class="edge">
<title>Node1&#45;&gt;Node8</title>
<g id="a_edge8_Node000001_Node000008"><a xlink:title=" ">
<path fill="none" stroke="#63b8ff" d="M127.35,-214.97C144.35,-205.28 166.73,-192.52 181.39,-184.17"/>
<polygon fill="#63b8ff" stroke="#63b8ff" points="125.5,-211.99 118.54,-219.98 128.96,-218.07 125.5,-211.99"/>
</a>
</g>
</g>
<!-- Node4 -->
<g id="Node000004" class="node">
<title>Node4</title>
<g id="a_Node000004"><a xlink:href="ContiguousTree_8hpp.html" target="_top" xlink:title=" ">
<polygon fill="white" stroke="#666666" points="134.1,-74 21.1,-74 21.1,-55 134.1,-55 134.1,-74"/>
<text text-anchor="middle" x="77.6" y="-62" font-family="Helvetica,sans-Serif" font-size="10.00">ContiguousTree.hpp</text>
</a>
</g>
</g>
<!-- Node3&#45;&gt;Node4 -->
<g id="edge3_Node000003_Node000004" class="edge">
<title>Node3&#45;&gt;Node4</title>
<g id="a_edge3_Node000003_Node000004"><a xlink:title=" ">
<path fill="none" stroke="#63b8ff" d="M168.3,-105.9C146.33,-96.11 116.43,-82.79 97.07,-74.17"/>
<polygon fill="#63b8ff" stroke="#63b8ff" points="166.92,-109.11 177.48,-109.98 169.77,-102.72 166.92,-109.11"/>
</a>
</g>
</g>
<!-- Node5 -->
<g id="Node000005" class="node">
<title>Node5</title>
<g id="a_Node000005"><a xlink:href="ParallelFor_8hpp.html" target="_top" xlink:title=" ">
<polygon fill="white" stroke="#666666" points="240.6,-74 152.6,-74 152.6,-55 240.6,-55 240.6,-74"/>
<text text-anchor="middle" x="196.6" y="-62" font-family="Helvetica,sans-Serif" font-size="10.00">ParallelFor.hpp</text>
</a>
</g>
</g>
<!-- Node3&#45;&gt;Node5 -->
<g id="edge4_Node000003_Node000005" class="edge">
<title>Node3&#45;&gt;Node5</title>
<g id="a_edge4_Node000003_Node000005"><a xlink:title=" ">
<path fill="none" stroke="#63b8ff" d="M196.6,-99.66C196.6,-90.93 196.6,-80.99 196.6,-74.09"/>
<polygon fill="#63b8ff" stroke="#63b8ff" points="193.1,-99.75 196.6,-109.75 200.1,-99.75 193.1,-99.75"/>
</a>
</g>
</g>
<!-- Node6 -->
<g id="Node000006" class="node">
<title>Node6</title>
<g id="a_Node000006"><a xlink:href="ResourceLoader_8hpp.html" target="_top" xlink:title=" ">
<polygon fill="white" stroke="#666666" points="373.1,-74 258.1,-74 258.1,-55 373.1,-55 373.1,-74"/>
<text text-anchor="middle" x="315.6" y="-62" font-family="Helvetica,sans-Serif" font-size="10.00">ResourceLoader.hpp</text>
</a>
</g>
</g>
<!-- Node3&#45;&gt;Node6 -->
<g id="edge5_Node000003_Node000006" class="edge">
<title>Node3&#45;&gt;Node6</title>
<g id="a_edge5_Node000003_Node000006"><a xlink:title=" ">
<path fill="none" stroke="#63b8ff" d="M224.9,-105.9C246.88,-96.11 276.78,-82.79 296.13,-74.17"/>
<polygon fill="#63b8ff" stroke="#63b8ff" points="223.43,-102.72 215.72,-109.98 226.28,-109.11 223.43,-102.72"/>
</a>
</g>
</g>
<!-- Node7 -->
<g id="Node000007" class="node">
<title>Node7</title>
<g id="a_Node000007"><a xlink:href="abstree_8hpp.html" target="_top" xlink:title=" ">
<polygon fill="white" stroke="#666666" points="465.6,-74 391.6,-74 391.6,-55 465.6,-55 465.6,-74"/>
<text text-anchor="middle" x="428.6" y="-62" font-family="Helvetica,sans-Serif" font-size="10.00">abstree.hpp</text>
</a>
</g>
</g>
<!-- Node3&#45;&gt;Node7 -->
<g id="edge7_Node000003_Node000007" class="edge">
<title>Node3&#45;&gt;Node7</title>
<g id="a_edge7_Node000003_Node000007"><a xlink:title=" ">
<path fill="none" stroke="#63b8ff" d="M243.67,-107.75C287.29,-97.78 351.29,-83.16 391.42,-73.99"/>
<polygon fill="#63b8ff" stroke="#63b8ff" points="242.84,-104.35 233.88,-109.98 244.4,-111.17 242.84,-104.35"/>
</a>
</g>
</g>
<!-- Node6&#45;&gt;Node2 -->
<g id="edge6_Node000006_Node000002" class="edge">
<title>Node6&#45;&gt;Node2</title>
<g id="a_edge6_Node000006_Node000002"><a xlink:title=" ">
<path fill="none" stroke="#63b8ff" d="M279.83,-51.8C249.6,-41.91 206.99,-27.97 179.83,-19.08"/>
<polygon fill="#63b8ff" stroke="#63b8ff" points="278.98,-55.2 289.57,-54.98 281.16,-48.55 278.98,-55.2"/>
</a>
</g>
</g>
<!-- Node8&#45;&gt;Node3 -->
<g id="edge9_Node000008_Node000003" class="edge">
<title>Node8&#45;&gt;Node3</title>
<g id="a_edge9_Node000008_Node000003"><a xlink:title=" ">
<path fill="none" stroke="#63b8ff" d="M196.6,-154.66C196.6,-145.93 196.6,-135.99 196.6,-129.09"/>
<polygon fill="#63b8ff" stroke="#63b8ff" points="193.1,-154.75 196.6,-164.75 200.1,-154.75 193.1,-154.75"/>
</a>
</g>
</g>
</g>
</svg>
</svg>

<style type='text/css'>
<![CDATA[
[data-mouse-over-selected='false'] { opacity: 0.7; }
[data-mouse-over-selected='true']  { opacity: 1.0; }
]]>
</style>
<script type="application/ecmascript"><![CDATA[
document.addEventListener('DOMContentLoaded', (event) => {
  highlightEdges();
  highlightAdjacentNodes();
});
]]></script>
</svg>
