<?xml version="1.0" encoding="UTF-8" standalone="no"?>
<!DOCTYPE svg PUBLIC "-//W3C//DTD SVG 1.1//EN"
 "http://www.w3.org/Graphics/SVG/1.1/DTD/svg11.dtd">
<!-- Generated by graphviz version 2.43.0 (0)
 -->
<!-- Title: ThreadLocal.hpp Pages: 1 -->
<!--zoomable 654 -->

<svg id="main" version="1.1" xmlns="http://www.w3.org/2000/svg" xmlns:xlink="http://www.w3.org/1999/xlink" xml:space="preserve" onload="init(evt)">
<style type="text/css"><![CDATA[
.node, .edge {opacity: 0.7;}
.node.selected, .edge.selected {opacity: 1;}
.edge:hover path { stroke: red; }
.edge:hover polygon { stroke: red; fill: red; }
]]></style>

<defs>
  <circle id="rim" cx="0" cy="0" r="7"/>
  <circle id="rim2" cx="0" cy="0" r="3.5"/>
  <g id="zoomPlus">
    <use xlink:href="#rim" fill="#404040"><set attributeName="fill" to="#808080" begin="zoomplus.mouseover" end="zoomplus.mouseout"/></use>
    <path d="M-4,0h8M0,-4v8" fill="none" stroke="white" stroke-width="1.5" pointer-events="none"/>
  </g>
  <g id="zoomMin">
    <use xlink:href="#rim" fill="#404040"><set attributeName="fill" to="#808080" begin="zoomminus.mouseover" end="zoomminus.mouseout"/></use>
    <path d="M-4,0h8" fill="none" stroke="white" stroke-width="1.5" pointer-events="none"/>
  </g>
  <g id="arrowUp" transform="translate(30 24)">
    <use xlink:href="#rim"/>
    <path pointer-events="none" fill="none" stroke="white" stroke-width="1.5" d="M0,-3.0v7 M-2.5,-0.5L0,-3.0L2.5,-0.5"/>
  </g>
  <g id="arrowRight" transform="rotate(90) translate(36 -43)">
    <use xlink:href="#rim"/>
    <path pointer-events="none" fill="none" stroke="white" stroke-width="1.5" d="M0,-3.0v7 M-2.5,-0.5L0,-3.0L2.5,-0.5"/>
  </g>
  <g id="arrowDown" transform="rotate(180) translate(-30 -48)">
    <use xlink:href="#rim"/>
    <path pointer-events="none" fill="none" stroke="white" stroke-width="1.5" d="M0,-3.0v7 M-2.5,-0.5L0,-3.0L2.5,-0.5"/>
  </g>
  <g id="arrowLeft" transform="rotate(270) translate(-36 17)">
    <use xlink:href="#rim"/>
    <path pointer-events="none" fill="none" stroke="white" stroke-width="1.5" d="M0,-3.0v7 M-2.5,-0.5L0,-3.0L2.5,-0.5"/>
  </g>
  <g id="resetDef">
    <use xlink:href="#rim2" fill="#404040"><set attributeName="fill" to="#808080" begin="reset.mouseover" end="reset.mouseout"/></use>
  </g>
</defs>
<script type="application/ecmascript">
var viewWidth = 1410;
var viewHeight = 654;
var sectionId = 'dynsection-0';
</script>
<script type="application/ecmascript" xlink:href="svg.min.js"/>
<svg id="graph" class="graph">
<g id="viewport">
<title>ThreadLocal.hpp</title>
<!-- Node1 -->
<g id="Node000001" class="node">
<title>Node1</title>
<g id="a_Node000001"><a xlink:title=" ">
<polygon fill="#999999" stroke="#666666" points="1083,-646 986,-646 986,-627 1083,-627 1083,-646"/>
<text text-anchor="middle" x="1034.5" y="-634" font-family="Helvetica,sans-Serif" font-size="10.00">ThreadLocal.hpp</text>
</a>
</g>
</g>
<!-- Node2 -->
<g id="Node000002" class="node">
<title>Node2</title>
<g id="a_Node000002"><a xlink:title=" ">
<polygon fill="#e0e0e0" stroke="#999999" points="107.5,-585.5 15.5,-585.5 15.5,-566.5 107.5,-566.5 107.5,-585.5"/>
<text text-anchor="middle" x="61.5" y="-573.5" font-family="Helvetica,sans-Serif" font-size="10.00">tsl/robin_map.h</text>
</a>
</g>
</g>
<!-- Node1&#45;&gt;Node2 -->
<g id="edge1_Node000001_Node000002" class="edge">
<title>Node1&#45;&gt;Node2</title>
<g id="a_edge1_Node000001_Node000002"><a xlink:title=" ">
<path fill="none" stroke="#63b8ff" d="M985.89,-634.29C822.05,-630.03 290.85,-614.69 121.5,-591 115.6,-590.17 109.42,-589.04 103.37,-587.78"/>
<polygon fill="#63b8ff" stroke="#63b8ff" points="103.89,-584.31 93.37,-585.56 102.38,-591.15 103.89,-584.31"/>
</a>
</g>
</g>
<!-- Node3 -->
<g id="Node000003" class="node">
<title>Node3</title>
<g id="a_Node000003"><a xlink:href="types_8hpp.html" target="_top" xlink:title=" ">
<polygon fill="white" stroke="#666666" points="672.5,-162 562.5,-162 562.5,-132 672.5,-132 672.5,-162"/>
<text text-anchor="start" x="570.5" y="-150" font-family="Helvetica,sans-Serif" font-size="10.00">packages/types/inc</text>
<text text-anchor="middle" x="617.5" y="-139" font-family="Helvetica,sans-Serif" font-size="10.00">/types.hpp</text>
</a>
</g>
</g>
<!-- Node1&#45;&gt;Node3 -->
<g id="edge2_Node000001_Node000003" class="edge">
<title>Node1&#45;&gt;Node3</title>
<g id="a_edge2_Node000001_Node000003"><a xlink:title=" ">
<path fill="none" stroke="#63b8ff" d="M985.85,-633.94C798.68,-627.29 135.5,-597.61 135.5,-511 135.5,-511 135.5,-511 135.5,-371.5 135.5,-321.69 156.26,-309.18 192.5,-275 217.95,-251 233.25,-258.2 262.5,-239 286.52,-223.23 286.31,-209.84 312.5,-198 333.94,-188.3 469.23,-168.42 552.26,-156.86"/>
<polygon fill="#63b8ff" stroke="#63b8ff" points="552.94,-160.3 562.36,-155.46 551.98,-153.36 552.94,-160.3"/>
</a>
</g>
</g>
<!-- Node13 -->
<g id="Node000013" class="node">
<title>Node13</title>
<g id="a_Node000013"><a xlink:href="DynamicArray_8hpp.html" target="_top" xlink:title=" ">
<polygon fill="white" stroke="#666666" points="980,-591 849,-591 849,-561 980,-561 980,-591"/>
<text text-anchor="start" x="857" y="-579" font-family="Helvetica,sans-Serif" font-size="10.00">packages/stl_extension</text>
<text text-anchor="middle" x="914.5" y="-568" font-family="Helvetica,sans-Serif" font-size="10.00">/inc/DynamicArray.hpp</text>
</a>
</g>
</g>
<!-- Node1&#45;&gt;Node13 -->
<g id="edge12_Node000001_Node000013" class="edge">
<title>Node1&#45;&gt;Node13</title>
<g id="a_edge12_Node000001_Node000013"><a xlink:title=" ">
<path fill="none" stroke="#63b8ff" d="M1017.05,-626.99C1000.29,-618.82 974.4,-606.2 952.83,-595.69"/>
<polygon fill="#63b8ff" stroke="#63b8ff" points="954.1,-592.41 943.58,-591.18 951.04,-598.71 954.1,-592.41"/>
</a>
</g>
</g>
<!-- Node23 -->
<g id="Node000023" class="node">
<title>Node23</title>
<g id="a_Node000023"><a xlink:title=" ">
<polygon fill="#e0e0e0" stroke="#999999" points="952,-156.5 911,-156.5 911,-137.5 952,-137.5 952,-156.5"/>
<text text-anchor="middle" x="931.5" y="-144.5" font-family="Helvetica,sans-Serif" font-size="10.00">tuple</text>
</a>
</g>
</g>
<!-- Node1&#45;&gt;Node23 -->
<g id="edge56_Node000001_Node000023" class="edge">
<title>Node1&#45;&gt;Node23</title>
<g id="a_edge56_Node000001_Node000023"><a xlink:title=" ">
<path fill="none" stroke="#63b8ff" d="M1053.41,-626.9C1087.44,-609.97 1155.5,-568.87 1155.5,-511 1155.5,-511 1155.5,-511 1155.5,-294.5 1155.5,-250.79 1167.28,-229.04 1136.5,-198 1080.59,-141.61 1036.88,-186.96 961.5,-162 960.1,-161.54 958.68,-161.03 957.26,-160.48"/>
<polygon fill="#63b8ff" stroke="#63b8ff" points="958.61,-157.25 948.04,-156.56 955.87,-163.69 958.61,-157.25"/>
</a>
</g>
</g>
<!-- Node39 -->
<g id="Node000039" class="node">
<title>Node39</title>
<g id="a_Node000039"><a xlink:title=" ">
<polygon fill="#e0e0e0" stroke="#999999" points="1231.5,-585.5 1183.5,-585.5 1183.5,-566.5 1231.5,-566.5 1231.5,-585.5"/>
<text text-anchor="middle" x="1207.5" y="-573.5" font-family="Helvetica,sans-Serif" font-size="10.00">thread</text>
</a>
</g>
</g>
<!-- Node1&#45;&gt;Node39 -->
<g id="edge57_Node000001_Node000039" class="edge">
<title>Node1&#45;&gt;Node39</title>
<g id="a_edge57_Node000001_Node000039"><a xlink:title=" ">
<path fill="none" stroke="#63b8ff" d="M1061.23,-626.99C1088.53,-618.23 1132.1,-604.05 1169.5,-591 1171.34,-590.36 1173.23,-589.69 1175.14,-589.01"/>
<polygon fill="#63b8ff" stroke="#63b8ff" points="1176.43,-592.26 1184.64,-585.57 1174.04,-585.68 1176.43,-592.26"/>
</a>
</g>
</g>
<!-- Node40 -->
<g id="Node000040" class="node">
<title>Node40</title>
<g id="a_Node000040"><a xlink:title=" ">
<polygon fill="#e0e0e0" stroke="#999999" points="1401.5,-591 1249.5,-591 1249.5,-561 1401.5,-561 1401.5,-591"/>
<text text-anchor="start" x="1257.5" y="-579" font-family="Helvetica,sans-Serif" font-size="10.00">packages/concurrency</text>
<text text-anchor="middle" x="1325.5" y="-568" font-family="Helvetica,sans-Serif" font-size="10.00">/impl/ThreadLocal_impl.hpp</text>
</a>
</g>
</g>
<!-- Node1&#45;&gt;Node40 -->
<g id="edge58_Node000001_Node000040" class="edge">
<title>Node1&#45;&gt;Node40</title>
<g id="a_edge58_Node000001_Node000040"><a xlink:title=" ">
<path fill="none" stroke="#63b8ff" d="M1076.81,-626.99C1120.96,-618.12 1191.22,-603.99 1245.82,-593.02"/>
<polygon fill="#63b8ff" stroke="#63b8ff" points="1246.71,-596.41 1255.82,-591.01 1245.33,-589.55 1246.71,-596.41"/>
</a>
</g>
</g>
<!-- Node4 -->
<g id="Node000004" class="node">
<title>Node4</title>
<g id="a_Node000004"><a xlink:href="debug_8hpp.html" target="_top" xlink:title=" ">
<polygon fill="white" stroke="#666666" points="625,-96 506,-96 506,-66 625,-66 625,-96"/>
<text text-anchor="start" x="514" y="-84" font-family="Helvetica,sans-Serif" font-size="10.00">packages/macros/inc</text>
<text text-anchor="middle" x="565.5" y="-73" font-family="Helvetica,sans-Serif" font-size="10.00">/debug.hpp</text>
</a>
</g>
</g>
<!-- Node3&#45;&gt;Node4 -->
<g id="edge3_Node000003_Node000004" class="edge">
<title>Node3&#45;&gt;Node4</title>
<g id="a_edge3_Node000003_Node000004"><a xlink:title=" ">
<path fill="none" stroke="#63b8ff" d="M605.96,-131.8C599.36,-123.68 590.94,-113.31 583.5,-104.15"/>
<polygon fill="#63b8ff" stroke="#63b8ff" points="586.03,-101.72 577.01,-96.16 580.6,-106.13 586.03,-101.72"/>
</a>
</g>
</g>
<!-- Node7 -->
<g id="Node000007" class="node">
<title>Node7</title>
<g id="a_Node000007"><a xlink:title=" ">
<polygon fill="#e0e0e0" stroke="#999999" points="696,-90.5 643,-90.5 643,-71.5 696,-71.5 696,-90.5"/>
<text text-anchor="middle" x="669.5" y="-78.5" font-family="Helvetica,sans-Serif" font-size="10.00">cstddef</text>
</a>
</g>
</g>
<!-- Node3&#45;&gt;Node7 -->
<g id="edge6_Node000003_Node000007" class="edge">
<title>Node3&#45;&gt;Node7</title>
<g id="a_edge6_Node000003_Node000007"><a xlink:title=" ">
<path fill="none" stroke="#63b8ff" d="M629.04,-131.8C636.99,-122.01 647.58,-108.98 655.93,-98.7"/>
<polygon fill="#63b8ff" stroke="#63b8ff" points="658.72,-100.81 662.31,-90.84 653.29,-96.4 658.72,-100.81"/>
</a>
</g>
</g>
<!-- Node8 -->
<g id="Node000008" class="node">
<title>Node8</title>
<g id="a_Node000008"><a xlink:title=" ">
<polygon fill="#e0e0e0" stroke="#999999" points="350.5,-90.5 306.5,-90.5 306.5,-71.5 350.5,-71.5 350.5,-90.5"/>
<text text-anchor="middle" x="328.5" y="-78.5" font-family="Helvetica,sans-Serif" font-size="10.00">string</text>
</a>
</g>
</g>
<!-- Node3&#45;&gt;Node8 -->
<g id="edge7_Node000003_Node000008" class="edge">
<title>Node3&#45;&gt;Node8</title>
<g id="a_edge7_Node000003_Node000008"><a xlink:title=" ">
<path fill="none" stroke="#63b8ff" d="M562.47,-139.12C509.6,-131.64 427.87,-117.74 359.5,-96 358.06,-95.54 356.59,-95.03 355.13,-94.49"/>
<polygon fill="#63b8ff" stroke="#63b8ff" points="356.18,-91.14 345.6,-90.58 353.52,-97.62 356.18,-91.14"/>
</a>
</g>
</g>
<!-- Node9 -->
<g id="Node000009" class="node">
<title>Node9</title>
<g id="a_Node000009"><a xlink:title=" ">
<polygon fill="#e0e0e0" stroke="#999999" points="1093,-90.5 1024,-90.5 1024,-71.5 1093,-71.5 1093,-90.5"/>
<text text-anchor="middle" x="1058.5" y="-78.5" font-family="Helvetica,sans-Serif" font-size="10.00">type_traits</text>
</a>
</g>
</g>
<!-- Node3&#45;&gt;Node9 -->
<g id="edge8_Node000003_Node000009" class="edge">
<title>Node3&#45;&gt;Node9</title>
<g id="a_edge8_Node000003_Node000009"><a xlink:title=" ">
<path fill="none" stroke="#63b8ff" d="M672.91,-137.96C761.24,-125.14 932.3,-100.32 1013.55,-88.52"/>
<polygon fill="#63b8ff" stroke="#63b8ff" points="1014.54,-91.92 1023.93,-87.02 1013.53,-84.99 1014.54,-91.92"/>
</a>
</g>
</g>
<!-- Node10 -->
<g id="Node000010" class="node">
<title>Node10</title>
<g id="a_Node000010"><a xlink:title=" ">
<polygon fill="#e0e0e0" stroke="#999999" points="764.5,-90.5 714.5,-90.5 714.5,-71.5 764.5,-71.5 764.5,-90.5"/>
<text text-anchor="middle" x="739.5" y="-78.5" font-family="Helvetica,sans-Serif" font-size="10.00">climits</text>
</a>
</g>
</g>
<!-- Node3&#45;&gt;Node10 -->
<g id="edge9_Node000003_Node000010" class="edge">
<title>Node3&#45;&gt;Node10</title>
<g id="a_edge9_Node000003_Node000010"><a xlink:title=" ">
<path fill="none" stroke="#63b8ff" d="M644.27,-131.95C665.1,-121.03 693.81,-105.97 714.24,-95.25"/>
<polygon fill="#63b8ff" stroke="#63b8ff" points="716.03,-98.26 723.26,-90.52 712.78,-92.06 716.03,-98.26"/>
</a>
</g>
</g>
<!-- Node11 -->
<g id="Node000011" class="node">
<title>Node11</title>
<g id="a_Node000011"><a xlink:title=" ">
<polygon fill="#e0e0e0" stroke="#999999" points="900,-96 783,-96 783,-66 900,-66 900,-96"/>
<text text-anchor="start" x="791" y="-84" font-family="Helvetica,sans-Serif" font-size="10.00">packages/types/impl</text>
<text text-anchor="middle" x="841.5" y="-73" font-family="Helvetica,sans-Serif" font-size="10.00">/types_impl.hpp</text>
</a>
</g>
</g>
<!-- Node3&#45;&gt;Node11 -->
<g id="edge10_Node000003_Node000011" class="edge">
<title>Node3&#45;&gt;Node11</title>
<g id="a_edge10_Node000003_Node000011"><a xlink:title=" ">
<path fill="none" stroke="#63b8ff" d="M666.66,-131.95C700.8,-122.2 746.45,-109.16 782.55,-98.84"/>
<polygon fill="#63b8ff" stroke="#63b8ff" points="783.8,-102.12 792.46,-96.01 781.88,-95.39 783.8,-102.12"/>
</a>
</g>
</g>
<!-- Node12 -->
<g id="Node000012" class="node">
<title>Node12</title>
<g id="a_Node000012"><a xlink:href="logging_8hpp.html" target="_top" xlink:title=" ">
<polygon fill="white" stroke="#666666" points="488,-96 369,-96 369,-66 488,-66 488,-96"/>
<text text-anchor="start" x="377" y="-84" font-family="Helvetica,sans-Serif" font-size="10.00">packages/macros/inc</text>
<text text-anchor="middle" x="428.5" y="-73" font-family="Helvetica,sans-Serif" font-size="10.00">/logging.hpp</text>
</a>
</g>
</g>
<!-- Node3&#45;&gt;Node12 -->
<g id="edge11_Node000003_Node000012" class="edge">
<title>Node3&#45;&gt;Node12</title>
<g id="a_edge11_Node000003_Node000012"><a xlink:title=" ">
<path fill="none" stroke="#63b8ff" d="M576.02,-131.95C547.59,-122.33 509.68,-109.49 479.42,-99.24"/>
<polygon fill="#63b8ff" stroke="#63b8ff" points="480.47,-95.9 469.88,-96.01 478.23,-102.53 480.47,-95.9"/>
</a>
</g>
</g>
<!-- Node5 -->
<g id="Node000005" class="node">
<title>Node5</title>
<g id="a_Node000005"><a xlink:href="detail_8hpp.html" target="_top" xlink:title=" ">
<polygon fill="white" stroke="#666666" points="119,-30 0,-30 0,0 119,0 119,-30"/>
<text text-anchor="start" x="8" y="-18" font-family="Helvetica,sans-Serif" font-size="10.00">packages/macros/inc</text>
<text text-anchor="middle" x="59.5" y="-7" font-family="Helvetica,sans-Serif" font-size="10.00">/detail.hpp</text>
</a>
</g>
</g>
<!-- Node4&#45;&gt;Node5 -->
<g id="edge4_Node000004_Node000005" class="edge">
<title>Node4&#45;&gt;Node5</title>
<g id="a_edge4_Node000004_Node000005"><a xlink:title=" ">
<path fill="none" stroke="#63b8ff" d="M505.72,-67.54C502.6,-67 499.52,-66.48 496.5,-66 367.49,-45.57 215.79,-30.12 129.31,-22.11"/>
<polygon fill="#63b8ff" stroke="#63b8ff" points="129.37,-18.61 119.09,-21.18 128.73,-25.58 129.37,-18.61"/>
</a>
</g>
</g>
<!-- Node6 -->
<g id="Node000006" class="node">
<title>Node6</title>
<g id="a_Node000006"><a xlink:title=" ">
<polygon fill="#e0e0e0" stroke="#999999" points="595.5,-24.5 535.5,-24.5 535.5,-5.5 595.5,-5.5 595.5,-24.5"/>
<text text-anchor="middle" x="565.5" y="-12.5" font-family="Helvetica,sans-Serif" font-size="10.00">iostream</text>
</a>
</g>
</g>
<!-- Node4&#45;&gt;Node6 -->
<g id="edge5_Node000004_Node000006" class="edge">
<title>Node4&#45;&gt;Node6</title>
<g id="a_edge5_Node000004_Node000006"><a xlink:title=" ">
<path fill="none" stroke="#63b8ff" d="M565.5,-65.8C565.5,-56.7 565.5,-44.79 565.5,-34.9"/>
<polygon fill="#63b8ff" stroke="#63b8ff" points="569,-34.84 565.5,-24.84 562,-34.84 569,-34.84"/>
</a>
</g>
</g>
<!-- Node14 -->
<g id="Node000014" class="node">
<title>Node14</title>
<g id="a_Node000014"><a xlink:href="STLContainerBase_8hpp.html" target="_top" xlink:title=" ">
<polygon fill="white" stroke="#666666" points="725.5,-525 579.5,-525 579.5,-495 725.5,-495 725.5,-525"/>
<text text-anchor="start" x="587.5" y="-513" font-family="Helvetica,sans-Serif" font-size="10.00">packages/stl_extension</text>
<text text-anchor="middle" x="652.5" y="-502" font-family="Helvetica,sans-Serif" font-size="10.00">/inc/STLContainerBase.hpp</text>
</a>
</g>
</g>
<!-- Node13&#45;&gt;Node14 -->
<g id="edge13_Node000013_Node000014" class="edge">
<title>Node13&#45;&gt;Node14</title>
<g id="a_edge13_Node000013_Node000014"><a xlink:title=" ">
<path fill="none" stroke="#63b8ff" d="M857,-560.95C816.56,-551.08 762.3,-537.82 719.84,-527.45"/>
<polygon fill="#63b8ff" stroke="#63b8ff" points="720.41,-523.99 709.86,-525.01 718.75,-530.79 720.41,-523.99"/>
</a>
</g>
</g>
<!-- Node38 -->
<g id="Node000038" class="node">
<title>Node38</title>
<g id="a_Node000038"><a xlink:title=" ">
<polygon fill="#e0e0e0" stroke="#999999" points="938,-519.5 891,-519.5 891,-500.5 938,-500.5 938,-519.5"/>
<text text-anchor="middle" x="914.5" y="-507.5" font-family="Helvetica,sans-Serif" font-size="10.00">vector</text>
</a>
</g>
</g>
<!-- Node13&#45;&gt;Node38 -->
<g id="edge55_Node000013_Node000038" class="edge">
<title>Node13&#45;&gt;Node38</title>
<g id="a_edge55_Node000013_Node000038"><a xlink:title=" ">
<path fill="none" stroke="#63b8ff" d="M914.5,-560.8C914.5,-551.7 914.5,-539.79 914.5,-529.9"/>
<polygon fill="#63b8ff" stroke="#63b8ff" points="918,-529.84 914.5,-519.84 911,-529.84 918,-529.84"/>
</a>
</g>
</g>
<!-- Node14&#45;&gt;Node3 -->
<g id="edge32_Node000014_Node000003" class="edge">
<title>Node14&#45;&gt;Node3</title>
<g id="a_edge32_Node000014_Node000003"><a xlink:title=" ">
<path fill="none" stroke="#63b8ff" d="M621.27,-494.82C607.01,-486.57 591.54,-474.66 583.5,-459 530.54,-355.8 547.63,-308.63 582.5,-198 585.67,-187.95 591.66,-178.16 597.8,-169.95"/>
<polygon fill="#63b8ff" stroke="#63b8ff" points="600.63,-172.01 604.14,-162.02 595.16,-167.64 600.63,-172.01"/>
</a>
</g>
</g>
<!-- Node15 -->
<g id="Node000015" class="node">
<title>Node15</title>
<g id="a_Node000015"><a xlink:href="container__concepts_8hpp.html" target="_top" xlink:title=" ">
<polygon fill="white" stroke="#666666" points="852,-393 717,-393 717,-352 852,-352 852,-393"/>
<text text-anchor="start" x="725" y="-381" font-family="Helvetica,sans-Serif" font-size="10.00">packages/compile_time</text>
<text text-anchor="start" x="725" y="-370" font-family="Helvetica,sans-Serif" font-size="10.00">/packages/concepts/inc</text>
<text text-anchor="middle" x="784.5" y="-359" font-family="Helvetica,sans-Serif" font-size="10.00">/container_concepts.hpp</text>
</a>
</g>
</g>
<!-- Node14&#45;&gt;Node15 -->
<g id="edge14_Node000014_Node000015" class="edge">
<title>Node14&#45;&gt;Node15</title>
<g id="a_edge14_Node000014_Node000015"><a xlink:title=" ">
<path fill="none" stroke="#63b8ff" d="M725.68,-502.96C754.78,-496.55 785.55,-483.85 803.5,-459 815.29,-442.67 809.79,-420.35 801.74,-402.61"/>
<polygon fill="#63b8ff" stroke="#63b8ff" points="804.69,-400.68 797.1,-393.29 798.43,-403.8 804.69,-400.68"/>
</a>
</g>
</g>
<!-- Node26 -->
<g id="Node000026" class="node">
<title>Node26</title>
<g id="a_Node000026"><a xlink:href="typedefs_8hpp.html" target="_top" xlink:title=" ">
<polygon fill="white" stroke="#666666" points="712,-459 593,-459 593,-429 712,-429 712,-459"/>
<text text-anchor="start" x="601" y="-447" font-family="Helvetica,sans-Serif" font-size="10.00">packages/macros/inc</text>
<text text-anchor="middle" x="652.5" y="-436" font-family="Helvetica,sans-Serif" font-size="10.00">/typedefs.hpp</text>
</a>
</g>
</g>
<!-- Node14&#45;&gt;Node26 -->
<g id="edge30_Node000014_Node000026" class="edge">
<title>Node14&#45;&gt;Node26</title>
<g id="a_edge30_Node000014_Node000026"><a xlink:title=" ">
<path fill="none" stroke="#63b8ff" d="M652.5,-494.8C652.5,-487.34 652.5,-477.99 652.5,-469.41"/>
<polygon fill="#63b8ff" stroke="#63b8ff" points="656,-469.16 652.5,-459.16 649,-469.16 656,-469.16"/>
</a>
</g>
</g>
<!-- Node27 -->
<g id="Node000027" class="node">
<title>Node27</title>
<g id="a_Node000027"><a xlink:href="exceptions_8hpp.html" target="_top" xlink:title=" ">
<polygon fill="white" stroke="#666666" points="321,-310.5 202,-310.5 202,-280.5 321,-280.5 321,-310.5"/>
<text text-anchor="start" x="210" y="-298.5" font-family="Helvetica,sans-Serif" font-size="10.00">packages/macros/inc</text>
<text text-anchor="middle" x="261.5" y="-287.5" font-family="Helvetica,sans-Serif" font-size="10.00">/exceptions.hpp</text>
</a>
</g>
</g>
<!-- Node14&#45;&gt;Node27 -->
<g id="edge33_Node000014_Node000027" class="edge">
<title>Node14&#45;&gt;Node27</title>
<g id="a_edge33_Node000014_Node000027"><a xlink:title=" ">
<path fill="none" stroke="#63b8ff" d="M579.37,-501.88C526.84,-495.08 455.09,-482.28 395.5,-459 343.46,-438.67 322.11,-437.63 288.5,-393 272.55,-371.82 266.02,-341.65 263.35,-320.7"/>
<polygon fill="#63b8ff" stroke="#63b8ff" points="266.82,-320.26 262.27,-310.69 259.86,-321 266.82,-320.26"/>
</a>
</g>
</g>
<!-- Node33 -->
<g id="Node000033" class="node">
<title>Node33</title>
<g id="a_Node000033"><a xlink:href="resize_8hpp.html" target="_top" xlink:title=" ">
<polygon fill="white" stroke="#666666" points="536,-459 405,-459 405,-429 536,-429 536,-459"/>
<text text-anchor="start" x="413" y="-447" font-family="Helvetica,sans-Serif" font-size="10.00">packages/stl_extension</text>
<text text-anchor="middle" x="470.5" y="-436" font-family="Helvetica,sans-Serif" font-size="10.00">/inc/resize.hpp</text>
</a>
</g>
</g>
<!-- Node14&#45;&gt;Node33 -->
<g id="edge44_Node000014_Node000033" class="edge">
<title>Node14&#45;&gt;Node33</title>
<g id="a_edge44_Node000014_Node000033"><a xlink:title=" ">
<path fill="none" stroke="#63b8ff" d="M612.56,-494.95C585.3,-485.37 548.99,-472.6 519.91,-462.37"/>
<polygon fill="#63b8ff" stroke="#63b8ff" points="520.94,-459.03 510.35,-459.01 518.62,-465.63 520.94,-459.03"/>
</a>
</g>
</g>
<!-- Node37 -->
<g id="Node000037" class="node">
<title>Node37</title>
<g id="a_Node000037"><a xlink:title=" ">
<polygon fill="#e0e0e0" stroke="#999999" points="794.5,-453.5 730.5,-453.5 730.5,-434.5 794.5,-434.5 794.5,-453.5"/>
<text text-anchor="middle" x="762.5" y="-441.5" font-family="Helvetica,sans-Serif" font-size="10.00">algorithm</text>
</a>
</g>
</g>
<!-- Node14&#45;&gt;Node37 -->
<g id="edge54_Node000014_Node000037" class="edge">
<title>Node14&#45;&gt;Node37</title>
<g id="a_edge54_Node000014_Node000037"><a xlink:title=" ">
<path fill="none" stroke="#63b8ff" d="M676.64,-494.95C695.17,-484.18 720.6,-469.38 738.97,-458.69"/>
<polygon fill="#63b8ff" stroke="#63b8ff" points="740.98,-461.57 747.86,-453.52 737.46,-455.52 740.98,-461.57"/>
</a>
</g>
</g>
<!-- Node16 -->
<g id="Node000016" class="node">
<title>Node16</title>
<g id="a_Node000016"><a xlink:href="iterator__concepts_8hpp.html" target="_top" xlink:title=" ">
<polygon fill="white" stroke="#666666" points="850.5,-316 718.5,-316 718.5,-275 850.5,-275 850.5,-316"/>
<text text-anchor="start" x="726.5" y="-304" font-family="Helvetica,sans-Serif" font-size="10.00">packages/compile_time</text>
<text text-anchor="start" x="726.5" y="-293" font-family="Helvetica,sans-Serif" font-size="10.00">/packages/concepts/inc</text>
<text text-anchor="middle" x="784.5" y="-282" font-family="Helvetica,sans-Serif" font-size="10.00">/iterator_concepts.hpp</text>
</a>
</g>
</g>
<!-- Node15&#45;&gt;Node16 -->
<g id="edge15_Node000015_Node000016" class="edge">
<title>Node15&#45;&gt;Node16</title>
<g id="a_edge15_Node000015_Node000016"><a xlink:title=" ">
<path fill="none" stroke="#63b8ff" d="M784.5,-351.79C784.5,-343.96 784.5,-334.77 784.5,-326.16"/>
<polygon fill="#63b8ff" stroke="#63b8ff" points="788,-326.07 784.5,-316.07 781,-326.07 788,-326.07"/>
</a>
</g>
</g>
<!-- Node17 -->
<g id="Node000017" class="node">
<title>Node17</title>
<g id="a_Node000017"><a xlink:href="basic__concepts_8hpp.html" target="_top" xlink:title=" ">
<polygon fill="white" stroke="#666666" points="1127.5,-239 995.5,-239 995.5,-198 1127.5,-198 1127.5,-239"/>
<text text-anchor="start" x="1003.5" y="-227" font-family="Helvetica,sans-Serif" font-size="10.00">packages/compile_time</text>
<text text-anchor="start" x="1003.5" y="-216" font-family="Helvetica,sans-Serif" font-size="10.00">/packages/concepts/inc</text>
<text text-anchor="middle" x="1061.5" y="-205" font-family="Helvetica,sans-Serif" font-size="10.00">/basic_concepts.hpp</text>
</a>
</g>
</g>
<!-- Node16&#45;&gt;Node17 -->
<g id="edge16_Node000016_Node000017" class="edge">
<title>Node16&#45;&gt;Node17</title>
<g id="a_edge16_Node000016_Node000017"><a xlink:title=" ">
<path fill="none" stroke="#63b8ff" d="M850.85,-276.54C891.39,-265.56 943.36,-251.49 985.54,-240.07"/>
<polygon fill="#63b8ff" stroke="#63b8ff" points="986.48,-243.44 995.21,-237.45 984.65,-236.68 986.48,-243.44"/>
</a>
</g>
</g>
<!-- Node21 -->
<g id="Node000021" class="node">
<title>Node21</title>
<g id="a_Node000021"><a xlink:href="Size_8hpp.html" target="_top" xlink:title=" ">
<polygon fill="white" stroke="#666666" points="739.5,-239 591.5,-239 591.5,-198 739.5,-198 739.5,-239"/>
<text text-anchor="start" x="599.5" y="-227" font-family="Helvetica,sans-Serif" font-size="10.00">packages/compile_time</text>
<text text-anchor="start" x="599.5" y="-216" font-family="Helvetica,sans-Serif" font-size="10.00">/packages/parameter_pack</text>
<text text-anchor="middle" x="665.5" y="-205" font-family="Helvetica,sans-Serif" font-size="10.00">/inc/Size.hpp</text>
</a>
</g>
</g>
<!-- Node16&#45;&gt;Node21 -->
<g id="edge22_Node000016_Node000021" class="edge">
<title>Node16&#45;&gt;Node21</title>
<g id="a_edge22_Node000016_Node000021"><a xlink:title=" ">
<path fill="none" stroke="#63b8ff" d="M753.54,-274.99C738.79,-265.69 720.96,-254.45 705.21,-244.53"/>
<polygon fill="#63b8ff" stroke="#63b8ff" points="707.04,-241.54 696.71,-239.17 703.31,-247.47 707.04,-241.54"/>
</a>
</g>
</g>
<!-- Node22 -->
<g id="Node000022" class="node">
<title>Node22</title>
<g id="a_Node000022"><a xlink:href="Select_8hpp.html" target="_top" xlink:title=" ">
<polygon fill="white" stroke="#666666" points="977.5,-239 829.5,-239 829.5,-198 977.5,-198 977.5,-239"/>
<text text-anchor="start" x="837.5" y="-227" font-family="Helvetica,sans-Serif" font-size="10.00">packages/compile_time</text>
<text text-anchor="start" x="837.5" y="-216" font-family="Helvetica,sans-Serif" font-size="10.00">/packages/parameter_pack</text>
<text text-anchor="middle" x="903.5" y="-205" font-family="Helvetica,sans-Serif" font-size="10.00">/inc/Select.hpp</text>
</a>
</g>
</g>
<!-- Node16&#45;&gt;Node22 -->
<g id="edge24_Node000016_Node000022" class="edge">
<title>Node16&#45;&gt;Node22</title>
<g id="a_edge24_Node000016_Node000022"><a xlink:title=" ">
<path fill="none" stroke="#63b8ff" d="M815.46,-274.99C830.21,-265.69 848.04,-254.45 863.79,-244.53"/>
<polygon fill="#63b8ff" stroke="#63b8ff" points="865.69,-247.47 872.29,-239.17 861.96,-241.54 865.69,-247.47"/>
</a>
</g>
</g>
<!-- Node24 -->
<g id="Node000024" class="node">
<title>Node24</title>
<g id="a_Node000024"><a xlink:title=" ">
<polygon fill="#e0e0e0" stroke="#999999" points="811,-228 758,-228 758,-209 811,-209 811,-228"/>
<text text-anchor="middle" x="784.5" y="-216" font-family="Helvetica,sans-Serif" font-size="10.00">iterator</text>
</a>
</g>
</g>
<!-- Node16&#45;&gt;Node24 -->
<g id="edge28_Node000016_Node000024" class="edge">
<title>Node16&#45;&gt;Node24</title>
<g id="a_edge28_Node000016_Node000024"><a xlink:title=" ">
<path fill="none" stroke="#63b8ff" d="M784.5,-274.79C784.5,-263.59 784.5,-249.61 784.5,-238.52"/>
<polygon fill="#63b8ff" stroke="#63b8ff" points="788,-238.24 784.5,-228.24 781,-238.24 788,-238.24"/>
</a>
</g>
</g>
<!-- Node25 -->
<g id="Node000025" class="node">
<title>Node25</title>
<g id="a_Node000025"><a xlink:title=" ">
<polygon fill="#e0e0e0" stroke="#999999" points="496.5,-156.5 438.5,-156.5 438.5,-137.5 496.5,-137.5 496.5,-156.5"/>
<text text-anchor="middle" x="467.5" y="-144.5" font-family="Helvetica,sans-Serif" font-size="10.00">memory</text>
</a>
</g>
</g>
<!-- Node16&#45;&gt;Node25 -->
<g id="edge29_Node000016_Node000025" class="edge">
<title>Node16&#45;&gt;Node25</title>
<g id="a_edge29_Node000016_Node000025"><a xlink:title=" ">
<path fill="none" stroke="#63b8ff" d="M718.38,-283.32C677.7,-274.77 625.33,-260.69 582.5,-239 543,-219 504.09,-184.17 483.2,-163.9"/>
<polygon fill="#63b8ff" stroke="#63b8ff" points="485.45,-161.2 475.88,-156.66 480.53,-166.18 485.45,-161.2"/>
</a>
</g>
</g>
<!-- Node17&#45;&gt;Node3 -->
<g id="edge17_Node000017_Node000003" class="edge">
<title>Node17&#45;&gt;Node3</title>
<g id="a_edge17_Node000017_Node000003"><a xlink:title=" ">
<path fill="none" stroke="#63b8ff" d="M995.35,-199.84C992.36,-199.19 989.4,-198.57 986.5,-198 880.94,-177.2 756.68,-162.32 682.65,-154.44"/>
<polygon fill="#63b8ff" stroke="#63b8ff" points="682.85,-150.94 672.54,-153.38 682.12,-157.91 682.85,-150.94"/>
</a>
</g>
</g>
<!-- Node17&#45;&gt;Node9 -->
<g id="edge19_Node000017_Node000009" class="edge">
<title>Node17&#45;&gt;Node9</title>
<g id="a_edge19_Node000017_Node000009"><a xlink:title=" ">
<path fill="none" stroke="#63b8ff" d="M1076.87,-197.67C1088.27,-180.47 1100.7,-154.83 1093.5,-132 1089.59,-119.59 1081.38,-107.59 1073.89,-98.45"/>
<polygon fill="#63b8ff" stroke="#63b8ff" points="1076.31,-95.9 1067.1,-90.65 1071.03,-100.49 1076.31,-95.9"/>
</a>
</g>
</g>
<!-- Node18 -->
<g id="Node000018" class="node">
<title>Node18</title>
<g id="a_Node000018"><a xlink:title=" ">
<polygon fill="#e0e0e0" stroke="#999999" points="892.5,-156.5 832.5,-156.5 832.5,-137.5 892.5,-137.5 892.5,-156.5"/>
<text text-anchor="middle" x="862.5" y="-144.5" font-family="Helvetica,sans-Serif" font-size="10.00">concepts</text>
</a>
</g>
</g>
<!-- Node17&#45;&gt;Node18 -->
<g id="edge18_Node000017_Node000018" class="edge">
<title>Node17&#45;&gt;Node18</title>
<g id="a_edge18_Node000017_Node000018"><a xlink:title=" ">
<path fill="none" stroke="#63b8ff" d="M1005.57,-197.99C975.1,-187.36 936.72,-173.96 902.5,-162 900.62,-161.34 898.7,-160.67 896.76,-159.99"/>
<polygon fill="#63b8ff" stroke="#63b8ff" points="897.63,-156.59 887.04,-156.59 895.32,-163.2 897.63,-156.59"/>
</a>
</g>
</g>
<!-- Node19 -->
<g id="Node000019" class="node">
<title>Node19</title>
<g id="a_Node000019"><a xlink:title=" ">
<polygon fill="#e0e0e0" stroke="#999999" points="1020.5,-156.5 970.5,-156.5 970.5,-137.5 1020.5,-137.5 1020.5,-156.5"/>
<text text-anchor="middle" x="995.5" y="-144.5" font-family="Helvetica,sans-Serif" font-size="10.00">cstdint</text>
</a>
</g>
</g>
<!-- Node17&#45;&gt;Node19 -->
<g id="edge20_Node000017_Node000019" class="edge">
<title>Node17&#45;&gt;Node19</title>
<g id="a_edge20_Node000017_Node000019"><a xlink:title=" ">
<path fill="none" stroke="#63b8ff" d="M1042.76,-197.77C1032.66,-187.13 1020.35,-174.16 1010.82,-164.13"/>
<polygon fill="#63b8ff" stroke="#63b8ff" points="1013.3,-161.66 1003.88,-156.82 1008.22,-166.48 1013.3,-161.66"/>
</a>
</g>
</g>
<!-- Node20 -->
<g id="Node000020" class="node">
<title>Node20</title>
<g id="a_Node000020"><a xlink:title=" ">
<polygon fill="#e0e0e0" stroke="#999999" points="1084,-156.5 1039,-156.5 1039,-137.5 1084,-137.5 1084,-156.5"/>
<text text-anchor="middle" x="1061.5" y="-144.5" font-family="Helvetica,sans-Serif" font-size="10.00">utility</text>
</a>
</g>
</g>
<!-- Node17&#45;&gt;Node20 -->
<g id="edge21_Node000017_Node000020" class="edge">
<title>Node17&#45;&gt;Node20</title>
<g id="a_edge21_Node000017_Node000020"><a xlink:title=" ">
<path fill="none" stroke="#63b8ff" d="M1061.5,-197.77C1061.5,-188.08 1061.5,-176.46 1061.5,-166.88"/>
<polygon fill="#63b8ff" stroke="#63b8ff" points="1065,-166.82 1061.5,-156.82 1058,-166.82 1065,-166.82"/>
</a>
</g>
</g>
<!-- Node21&#45;&gt;Node3 -->
<g id="edge23_Node000021_Node000003" class="edge">
<title>Node21&#45;&gt;Node3</title>
<g id="a_edge23_Node000021_Node000003"><a xlink:title=" ">
<path fill="none" stroke="#63b8ff" d="M651.87,-197.77C645.97,-189.22 639.03,-179.17 632.94,-170.35"/>
<polygon fill="#63b8ff" stroke="#63b8ff" points="635.76,-168.28 627.2,-162.04 630,-172.26 635.76,-168.28"/>
</a>
</g>
</g>
<!-- Node22&#45;&gt;Node3 -->
<g id="edge25_Node000022_Node000003" class="edge">
<title>Node22&#45;&gt;Node3</title>
<g id="a_edge25_Node000022_Node000003"><a xlink:title=" ">
<path fill="none" stroke="#63b8ff" d="M829.48,-199.51C784.03,-188.47 726.35,-174.45 682.64,-163.83"/>
<polygon fill="#63b8ff" stroke="#63b8ff" points="683.24,-160.37 672.69,-161.41 681.58,-167.17 683.24,-160.37"/>
</a>
</g>
</g>
<!-- Node22&#45;&gt;Node18 -->
<g id="edge27_Node000022_Node000018" class="edge">
<title>Node22&#45;&gt;Node18</title>
<g id="a_edge27_Node000022_Node000018"><a xlink:title=" ">
<path fill="none" stroke="#63b8ff" d="M891.86,-197.77C885.89,-187.66 878.69,-175.44 872.91,-165.64"/>
<polygon fill="#63b8ff" stroke="#63b8ff" points="875.8,-163.65 867.7,-156.82 869.77,-167.21 875.8,-163.65"/>
</a>
</g>
</g>
<!-- Node22&#45;&gt;Node23 -->
<g id="edge26_Node000022_Node000023" class="edge">
<title>Node22&#45;&gt;Node23</title>
<g id="a_edge26_Node000022_Node000023"><a xlink:title=" ">
<path fill="none" stroke="#63b8ff" d="M911.45,-197.77C915.44,-187.87 920.24,-175.95 924.14,-166.26"/>
<polygon fill="#63b8ff" stroke="#63b8ff" points="927.46,-167.4 927.95,-156.82 920.96,-164.79 927.46,-167.4"/>
</a>
</g>
</g>
<!-- Node26&#45;&gt;Node25 -->
<g id="edge31_Node000026_Node000025" class="edge">
<title>Node26&#45;&gt;Node25</title>
<g id="a_edge31_Node000026_Node000025"><a xlink:title=" ">
<path fill="none" stroke="#63b8ff" d="M642.86,-428.84C620.53,-395.92 563.81,-311.52 519.5,-239 504.13,-213.85 487.39,-184.09 477.17,-165.62"/>
<polygon fill="#63b8ff" stroke="#63b8ff" points="480.1,-163.7 472.21,-156.63 473.97,-167.08 480.1,-163.7"/>
</a>
</g>
</g>
<!-- Node27&#45;&gt;Node5 -->
<g id="edge41_Node000027_Node000005" class="edge">
<title>Node27&#45;&gt;Node5</title>
<g id="a_edge41_Node000027_Node000005"><a xlink:title=" ">
<path fill="none" stroke="#63b8ff" d="M205.19,-280.4C178.84,-271.71 148.32,-258.42 125.5,-239 66.01,-188.37 58.74,-86.88 58.74,-40.34"/>
<polygon fill="#63b8ff" stroke="#63b8ff" points="62.24,-40.3 58.86,-30.26 55.24,-40.22 62.24,-40.3"/>
</a>
</g>
</g>
<!-- Node27&#45;&gt;Node18 -->
<g id="edge43_Node000027_Node000018" class="edge">
<title>Node27&#45;&gt;Node18</title>
<g id="a_edge43_Node000027_Node000018"><a xlink:title=" ">
<path fill="none" stroke="#63b8ff" d="M302.64,-280.47C363.31,-260.15 480.62,-222.33 582.5,-198 667.1,-177.8 767.85,-161.73 822.46,-153.66"/>
<polygon fill="#63b8ff" stroke="#63b8ff" points="823.04,-157.12 832.43,-152.21 822.03,-150.19 823.04,-157.12"/>
</a>
</g>
</g>
<!-- Node28 -->
<g id="Node000028" class="node">
<title>Node28</title>
<g id="a_Node000028"><a xlink:href="exception_8hpp.html" target="_top" xlink:title=" ">
<polygon fill="white" stroke="#666666" points="254,-233.5 135,-233.5 135,-203.5 254,-203.5 254,-233.5"/>
<text text-anchor="start" x="143" y="-221.5" font-family="Helvetica,sans-Serif" font-size="10.00">packages/exceptions</text>
<text text-anchor="middle" x="194.5" y="-210.5" font-family="Helvetica,sans-Serif" font-size="10.00">/inc/exception.hpp</text>
</a>
</g>
</g>
<!-- Node27&#45;&gt;Node28 -->
<g id="edge34_Node000027_Node000028" class="edge">
<title>Node27&#45;&gt;Node28</title>
<g id="a_edge34_Node000027_Node000028"><a xlink:title=" ">
<path fill="none" stroke="#63b8ff" d="M248.9,-280.39C239.07,-269.39 225.25,-253.92 214,-241.33"/>
<polygon fill="#63b8ff" stroke="#63b8ff" points="216.32,-238.67 207.05,-233.54 211.1,-243.33 216.32,-238.67"/>
</a>
</g>
</g>
<!-- Node32 -->
<g id="Node000032" class="node">
<title>Node32</title>
<g id="a_Node000032"><a xlink:title=" ">
<polygon fill="#e0e0e0" stroke="#999999" points="377.5,-228 321.5,-228 321.5,-209 377.5,-209 377.5,-228"/>
<text text-anchor="middle" x="349.5" y="-216" font-family="Helvetica,sans-Serif" font-size="10.00">sstream</text>
</a>
</g>
</g>
<!-- Node27&#45;&gt;Node32 -->
<g id="edge42_Node000027_Node000032" class="edge">
<title>Node27&#45;&gt;Node32</title>
<g id="a_edge42_Node000027_Node000032"><a xlink:title=" ">
<path fill="none" stroke="#63b8ff" d="M278.05,-280.39C293.18,-267.5 315.5,-248.48 331.16,-235.13"/>
<polygon fill="#63b8ff" stroke="#63b8ff" points="333.75,-237.53 339.09,-228.37 329.21,-232.2 333.75,-237.53"/>
</a>
</g>
</g>
<!-- Node28&#45;&gt;Node3 -->
<g id="edge35_Node000028_Node000003" class="edge">
<title>Node28&#45;&gt;Node3</title>
<g id="a_edge35_Node000028_Node000003"><a xlink:title=" ">
<path fill="none" stroke="#63b8ff" d="M244.47,-203.5C252.47,-201.5 260.69,-199.58 268.5,-198 321.32,-187.29 466.6,-167.66 552.15,-156.44"/>
<polygon fill="#63b8ff" stroke="#63b8ff" points="552.82,-159.89 562.28,-155.12 551.91,-152.95 552.82,-159.89"/>
</a>
</g>
</g>
<!-- Node28&#45;&gt;Node8 -->
<g id="edge37_Node000028_Node000008" class="edge">
<title>Node28&#45;&gt;Node8</title>
<g id="a_edge37_Node000028_Node000008"><a xlink:title=" ">
<path fill="none" stroke="#63b8ff" d="M247.28,-203.46C304.86,-188.02 389.24,-164.98 391.5,-162 409.27,-138.53 377.26,-111.74 352.71,-95.88"/>
<polygon fill="#63b8ff" stroke="#63b8ff" points="354.46,-92.84 344.11,-90.56 350.77,-98.8 354.46,-92.84"/>
</a>
</g>
</g>
<!-- Node28&#45;&gt;Node25 -->
<g id="edge39_Node000028_Node000025" class="edge">
<title>Node28&#45;&gt;Node25</title>
<g id="a_edge39_Node000028_Node000025"><a xlink:title=" ">
<path fill="none" stroke="#63b8ff" d="M247,-203.45C254.22,-201.58 261.54,-199.72 268.5,-198 337.58,-180.93 355.94,-181.03 424.5,-162 427.27,-161.23 430.12,-160.4 432.98,-159.53"/>
<polygon fill="#63b8ff" stroke="#63b8ff" points="434.11,-162.85 442.6,-156.52 432.01,-156.17 434.11,-162.85"/>
</a>
</g>
</g>
<!-- Node29 -->
<g id="Node000029" class="node">
<title>Node29</title>
<g id="a_Node000029"><a xlink:title=" ">
<polygon fill="#e0e0e0" stroke="#999999" points="153,-156.5 88,-156.5 88,-137.5 153,-137.5 153,-156.5"/>
<text text-anchor="middle" x="120.5" y="-144.5" font-family="Helvetica,sans-Serif" font-size="10.00">stdexcept</text>
</a>
</g>
</g>
<!-- Node28&#45;&gt;Node29 -->
<g id="edge36_Node000028_Node000029" class="edge">
<title>Node28&#45;&gt;Node29</title>
<g id="a_edge36_Node000028_Node000029"><a xlink:title=" ">
<path fill="none" stroke="#63b8ff" d="M179.52,-203.44C167.33,-191.98 150.12,-175.82 137.42,-163.9"/>
<polygon fill="#63b8ff" stroke="#63b8ff" points="139.52,-161.06 129.83,-156.77 134.73,-166.16 139.52,-161.06"/>
</a>
</g>
</g>
<!-- Node30 -->
<g id="Node000030" class="node">
<title>Node30</title>
<g id="a_Node000030"><a xlink:title=" ">
<polygon fill="#e0e0e0" stroke="#999999" points="218,-156.5 171,-156.5 171,-137.5 218,-137.5 218,-156.5"/>
<text text-anchor="middle" x="194.5" y="-144.5" font-family="Helvetica,sans-Serif" font-size="10.00">deque</text>
</a>
</g>
</g>
<!-- Node28&#45;&gt;Node30 -->
<g id="edge38_Node000028_Node000030" class="edge">
<title>Node28&#45;&gt;Node30</title>
<g id="a_edge38_Node000028_Node000030"><a xlink:title=" ">
<path fill="none" stroke="#63b8ff" d="M194.5,-203.44C194.5,-192.96 194.5,-178.55 194.5,-167.05"/>
<polygon fill="#63b8ff" stroke="#63b8ff" points="198,-166.77 194.5,-156.77 191,-166.77 198,-166.77"/>
</a>
</g>
</g>
<!-- Node31 -->
<g id="Node000031" class="node">
<title>Node31</title>
<g id="a_Node000031"><a xlink:title=" ">
<polygon fill="#e0e0e0" stroke="#999999" points="382.5,-162 236.5,-162 236.5,-132 382.5,-132 382.5,-162"/>
<text text-anchor="start" x="244.5" y="-150" font-family="Helvetica,sans-Serif" font-size="10.00">packages/exceptions</text>
<text text-anchor="middle" x="309.5" y="-139" font-family="Helvetica,sans-Serif" font-size="10.00">/impl/exceptions_impl.hpp</text>
</a>
</g>
</g>
<!-- Node28&#45;&gt;Node31 -->
<g id="edge40_Node000028_Node000031" class="edge">
<title>Node28&#45;&gt;Node31</title>
<g id="a_edge40_Node000028_Node000031"><a xlink:title=" ">
<path fill="none" stroke="#63b8ff" d="M217.77,-203.44C235,-193.03 258.66,-178.72 277.64,-167.25"/>
<polygon fill="#63b8ff" stroke="#63b8ff" points="279.51,-170.21 286.26,-162.04 275.89,-164.22 279.51,-170.21"/>
</a>
</g>
</g>
<!-- Node33&#45;&gt;Node3 -->
<g id="edge52_Node000033_Node000003" class="edge">
<title>Node33&#45;&gt;Node3</title>
<g id="a_edge52_Node000033_Node000003"><a xlink:title=" ">
<path fill="none" stroke="#63b8ff" d="M482.86,-428.6C490.44,-419.08 499.76,-405.99 505.5,-393 541.43,-311.74 500.86,-272.35 549.5,-198 557.5,-185.76 569.6,-175.47 581.38,-167.46"/>
<polygon fill="#63b8ff" stroke="#63b8ff" points="583.31,-170.39 589.84,-162.04 579.53,-164.49 583.31,-170.39"/>
</a>
</g>
</g>
<!-- Node33&#45;&gt;Node15 -->
<g id="edge51_Node000033_Node000015" class="edge">
<title>Node33&#45;&gt;Node15</title>
<g id="a_edge51_Node000033_Node000015"><a xlink:title=" ">
<path fill="none" stroke="#63b8ff" d="M534.04,-428.94C583.96,-417.89 653.69,-402.45 706.91,-390.67"/>
<polygon fill="#63b8ff" stroke="#63b8ff" points="707.97,-394.02 716.98,-388.44 706.46,-387.19 707.97,-394.02"/>
</a>
</g>
</g>
<!-- Node34 -->
<g id="Node000034" class="node">
<title>Node34</title>
<g id="a_Node000034"><a xlink:href="checks_8hpp.html" target="_top" xlink:title=" ">
<polygon fill="white" stroke="#666666" points="417,-387.5 298,-387.5 298,-357.5 417,-357.5 417,-387.5"/>
<text text-anchor="start" x="306" y="-375.5" font-family="Helvetica,sans-Serif" font-size="10.00">packages/macros/inc</text>
<text text-anchor="middle" x="357.5" y="-364.5" font-family="Helvetica,sans-Serif" font-size="10.00">/checks.hpp</text>
</a>
</g>
</g>
<!-- Node33&#45;&gt;Node34 -->
<g id="edge45_Node000033_Node000034" class="edge">
<title>Node33&#45;&gt;Node34</title>
<g id="a_edge45_Node000033_Node000034"><a xlink:title=" ">
<path fill="none" stroke="#63b8ff" d="M447.63,-428.94C430.78,-418.57 407.66,-404.35 389.06,-392.91"/>
<polygon fill="#63b8ff" stroke="#63b8ff" points="390.68,-389.8 380.33,-387.54 387.02,-395.76 390.68,-389.8"/>
</a>
</g>
</g>
<!-- Node36 -->
<g id="Node000036" class="node">
<title>Node36</title>
<g id="a_Node000036"><a xlink:title=" ">
<polygon fill="#e0e0e0" stroke="#999999" points="496.5,-382 444.5,-382 444.5,-363 496.5,-363 496.5,-382"/>
<text text-anchor="middle" x="470.5" y="-370" font-family="Helvetica,sans-Serif" font-size="10.00">cassert</text>
</a>
</g>
</g>
<!-- Node33&#45;&gt;Node36 -->
<g id="edge53_Node000033_Node000036" class="edge">
<title>Node33&#45;&gt;Node36</title>
<g id="a_edge53_Node000033_Node000036"><a xlink:title=" ">
<path fill="none" stroke="#63b8ff" d="M470.5,-428.94C470.5,-418.46 470.5,-404.05 470.5,-392.55"/>
<polygon fill="#63b8ff" stroke="#63b8ff" points="474,-392.27 470.5,-382.27 467,-392.27 474,-392.27"/>
</a>
</g>
</g>
<!-- Node34&#45;&gt;Node5 -->
<g id="edge48_Node000034_Node000005" class="edge">
<title>Node34&#45;&gt;Node5</title>
<g id="a_edge48_Node000034_Node000005"><a xlink:title=" ">
<path fill="none" stroke="#63b8ff" d="M297.82,-370.44C201.26,-365.21 21.5,-339.39 21.5,-219.5 21.5,-219.5 21.5,-219.5 21.5,-146 21.5,-107.39 37.13,-64.83 48.35,-39.27"/>
<polygon fill="#63b8ff" stroke="#63b8ff" points="51.59,-40.59 52.53,-30.03 45.21,-37.7 51.59,-40.59"/>
</a>
</g>
</g>
<!-- Node34&#45;&gt;Node27 -->
<g id="edge47_Node000034_Node000027" class="edge">
<title>Node34&#45;&gt;Node27</title>
<g id="a_edge47_Node000034_Node000027"><a xlink:title=" ">
<path fill="none" stroke="#63b8ff" d="M339.44,-357.39C324.83,-345.97 304.05,-329.74 287.62,-316.9"/>
<polygon fill="#63b8ff" stroke="#63b8ff" points="289.51,-313.94 279.48,-310.54 285.2,-319.46 289.51,-313.94"/>
</a>
</g>
</g>
<!-- Node34&#45;&gt;Node28 -->
<g id="edge46_Node000034_Node000028" class="edge">
<title>Node34&#45;&gt;Node28</title>
<g id="a_edge46_Node000034_Node000028"><a xlink:title=" ">
<path fill="none" stroke="#63b8ff" d="M297.72,-368.23C260.89,-362.75 216.31,-349.13 192.5,-316 177.52,-295.16 181.18,-264.73 186.54,-243.63"/>
<polygon fill="#63b8ff" stroke="#63b8ff" points="189.95,-244.4 189.31,-233.83 183.22,-242.49 189.95,-244.4"/>
</a>
</g>
</g>
<!-- Node34&#45;&gt;Node32 -->
<g id="edge50_Node000034_Node000032" class="edge">
<title>Node34&#45;&gt;Node32</title>
<g id="a_edge50_Node000034_Node000032"><a xlink:title=" ">
<path fill="none" stroke="#63b8ff" d="M412.76,-357.49C434,-349.12 456.1,-336.07 468.5,-316 478.08,-300.5 478.29,-290.37 468.5,-275 463.37,-266.95 414.03,-245.68 380.51,-231.93"/>
<polygon fill="#63b8ff" stroke="#63b8ff" points="381.69,-228.63 371.11,-228.1 379.05,-235.12 381.69,-228.63"/>
</a>
</g>
</g>
<!-- Node35 -->
<g id="Node000035" class="node">
<title>Node35</title>
<g id="a_Node000035"><a xlink:title=" ">
<polygon fill="#e0e0e0" stroke="#999999" points="459.5,-305 339.5,-305 339.5,-286 459.5,-286 459.5,-305"/>
<text text-anchor="middle" x="399.5" y="-293" font-family="Helvetica,sans-Serif" font-size="10.00">cmake_variables.hpp</text>
</a>
</g>
</g>
<!-- Node34&#45;&gt;Node35 -->
<g id="edge49_Node000034_Node000035" class="edge">
<title>Node34&#45;&gt;Node35</title>
<g id="a_edge49_Node000034_Node000035"><a xlink:title=" ">
<path fill="none" stroke="#63b8ff" d="M365.4,-357.39C372.22,-345.22 382.1,-327.57 389.47,-314.4"/>
<polygon fill="#63b8ff" stroke="#63b8ff" points="392.7,-315.81 394.53,-305.37 386.59,-312.39 392.7,-315.81"/>
</a>
</g>
</g>
</g>
</svg>

<g id="navigator" transform="translate(0 0)" fill="#404254">
  <rect fill="#f2f5e9" fill-opacity="0.5" stroke="#606060" stroke-width=".5" x="0" y="0" width="60" height="60"/>
  <use id="zoomplus" xlink:href="#zoomPlus" x="17" y="9" onmousedown="handleZoom(evt,'in')"/>
  <use id="zoomminus" xlink:href="#zoomMin" x="42" y="9" onmousedown="handleZoom(evt,'out')"/>
  <use id="reset" xlink:href="#resetDef" x="30" y="36" onmousedown="handleReset()"/>
   <use id="arrowup" xlink:href="#arrowUp" x="0" y="0" onmousedown="handlePan(0,-1)"/>
  <use id="arrowright" xlink:href="#arrowRight" x="0" y="0" onmousedown="handlePan(1,0)"/>
  <use id="arrowdown" xlink:href="#arrowDown" x="0" y="0" onmousedown="handlePan(0,1)"/>
  <use id="arrowleft" xlink:href="#arrowLeft" x="0" y="0" onmousedown="handlePan(-1,0)"/>
</g>
<svg viewBox="0 0 15 15" width="100%" height="30px" preserveAspectRatio="xMaxYMin meet">
 <g id="arrow_out" transform="scale(0.3 0.3)">
  <a xlink:href="ThreadLocal_8hpp__incl_org.svg" target="_base">
   <rect id="button" ry="5" rx="5" y="6" x="6" height="38" width="38"
        fill="#f2f5e9" fill-opacity="0.5" stroke="#606060" stroke-width="1.0"/>
   <path id="arrow"
     d="M 11.500037,31.436501 C 11.940474,20.09759 22.043105,11.32322 32.158766,21.979434 L 37.068811,17.246167 C 37.068811,17.246167 37.088388,32 37.088388,32 L 22.160133,31.978069 C 22.160133,31.978069 26.997745,27.140456 26.997745,27.140456 C 18.528582,18.264221 13.291696,25.230495 11.500037,31.436501 z"
     style="fill:#404040;"/>
  </a>
 </g>
</svg>

<style type='text/css'>
<![CDATA[
[data-mouse-over-selected='false'] { opacity: 0.7; }
[data-mouse-over-selected='true']  { opacity: 1.0; }
]]>
</style>
<script type="application/ecmascript"><![CDATA[
document.addEventListener('DOMContentLoaded', (event) => {
  highlightEdges();
  highlightAdjacentNodes();
});
]]></script>
</svg>
