<?xml version="1.0" encoding="UTF-8" standalone="no"?>
<!DOCTYPE svg PUBLIC "-//W3C//DTD SVG 1.1//EN"
 "http://www.w3.org/Graphics/SVG/1.1/DTD/svg11.dtd">
<!-- Generated by graphviz version 2.43.0 (0)
 -->
<!-- Title: ThreadStorage.hpp Pages: 1 -->
<svg width="746pt" height="302pt"
 viewBox="0.00 0.00 746.00 302.00" xmlns="http://www.w3.org/2000/svg" xmlns:xlink="http://www.w3.org/1999/xlink">
<g id="graph0" class="graph" transform="scale(1 1) rotate(0) translate(4 298)">
<title>ThreadStorage.hpp</title>
<!-- Node1 -->
<g id="Node000001" class="node">
<title>Node1</title>
<g id="a_Node000001"><a xlink:title=" ">
<polygon fill="#999999" stroke="#666666" points="636,-294 527,-294 527,-275 636,-275 636,-294"/>
<text text-anchor="middle" x="581.5" y="-282" font-family="Helvetica,sans-Serif" font-size="10.00">ThreadStorage.hpp</text>
</a>
</g>
</g>
<!-- Node2 -->
<g id="Node000002" class="node">
<title>Node2</title>
<g id="a_Node000002"><a xlink:href="basic__concepts_8hpp.html" target="_top" xlink:title=" ">
<polygon fill="white" stroke="#666666" points="595.5,-239 463.5,-239 463.5,-198 595.5,-198 595.5,-239"/>
<text text-anchor="start" x="471.5" y="-227" font-family="Helvetica,sans-Serif" font-size="10.00">packages/compile_time</text>
<text text-anchor="start" x="471.5" y="-216" font-family="Helvetica,sans-Serif" font-size="10.00">/packages/concepts/inc</text>
<text text-anchor="middle" x="529.5" y="-205" font-family="Helvetica,sans-Serif" font-size="10.00">/basic_concepts.hpp</text>
</a>
</g>
</g>
<!-- Node1&#45;&gt;Node2 -->
<g id="edge1_Node000001_Node000002" class="edge">
<title>Node1&#45;&gt;Node2</title>
<g id="a_edge1_Node000001_Node000002"><a xlink:title=" ">
<path fill="none" stroke="#63b8ff" d="M574.49,-274.87C568.62,-267.65 559.93,-256.95 551.74,-246.88"/>
<polygon fill="#63b8ff" stroke="#63b8ff" points="554.37,-244.56 545.35,-239.01 548.94,-248.98 554.37,-244.56"/>
</a>
</g>
</g>
<!-- Node3 -->
<g id="Node000003" class="node">
<title>Node3</title>
<g id="a_Node000003"><a xlink:href="types_8hpp.html" target="_top" xlink:title=" ">
<polygon fill="white" stroke="#666666" points="455.5,-162 345.5,-162 345.5,-132 455.5,-132 455.5,-162"/>
<text text-anchor="start" x="353.5" y="-150" font-family="Helvetica,sans-Serif" font-size="10.00">packages/types/inc</text>
<text text-anchor="middle" x="400.5" y="-139" font-family="Helvetica,sans-Serif" font-size="10.00">/types.hpp</text>
</a>
</g>
</g>
<!-- Node1&#45;&gt;Node3 -->
<g id="edge16_Node000001_Node000003" class="edge">
<title>Node1&#45;&gt;Node3</title>
<g id="a_edge16_Node000001_Node000003"><a xlink:title=" ">
<path fill="none" stroke="#63b8ff" d="M533.21,-274.92C507.66,-268.46 477,-257.43 454.5,-239 432.73,-221.18 417.69,-192.12 409.11,-171.64"/>
<polygon fill="#63b8ff" stroke="#63b8ff" points="412.26,-170.09 405.31,-162.09 405.75,-172.68 412.26,-170.09"/>
</a>
</g>
</g>
<!-- Node16 -->
<g id="Node000016" class="node">
<title>Node16</title>
<g id="a_Node000016"><a xlink:title=" ">
<polygon fill="#e0e0e0" stroke="#999999" points="655,-228 614,-228 614,-209 655,-209 655,-228"/>
<text text-anchor="middle" x="634.5" y="-216" font-family="Helvetica,sans-Serif" font-size="10.00">tuple</text>
</a>
</g>
</g>
<!-- Node1&#45;&gt;Node16 -->
<g id="edge17_Node000001_Node000016" class="edge">
<title>Node1&#45;&gt;Node16</title>
<g id="a_edge17_Node000001_Node000016"><a xlink:title=" ">
<path fill="none" stroke="#63b8ff" d="M588.65,-274.87C596.82,-265 610.39,-248.61 620.66,-236.22"/>
<polygon fill="#63b8ff" stroke="#63b8ff" points="623.44,-238.34 627.13,-228.41 618.05,-233.87 623.44,-238.34"/>
</a>
</g>
</g>
<!-- Node17 -->
<g id="Node000017" class="node">
<title>Node17</title>
<g id="a_Node000017"><a xlink:title=" ">
<polygon fill="#e0e0e0" stroke="#999999" points="738,-228 673,-228 673,-209 738,-209 738,-228"/>
<text text-anchor="middle" x="705.5" y="-216" font-family="Helvetica,sans-Serif" font-size="10.00">functional</text>
</a>
</g>
</g>
<!-- Node1&#45;&gt;Node17 -->
<g id="edge18_Node000001_Node000017" class="edge">
<title>Node1&#45;&gt;Node17</title>
<g id="a_edge18_Node000001_Node000017"><a xlink:title=" ">
<path fill="none" stroke="#63b8ff" d="M598.22,-274.87C619.12,-264.09 655.09,-245.52 679.57,-232.88"/>
<polygon fill="#63b8ff" stroke="#63b8ff" points="681.36,-235.9 688.65,-228.2 678.15,-229.68 681.36,-235.9"/>
</a>
</g>
</g>
<!-- Node2&#45;&gt;Node3 -->
<g id="edge2_Node000002_Node000003" class="edge">
<title>Node2&#45;&gt;Node3</title>
<g id="a_edge2_Node000002_Node000003"><a xlink:title=" ">
<path fill="none" stroke="#63b8ff" d="M493.22,-197.96C475.2,-188.25 453.52,-176.56 435.65,-166.94"/>
<polygon fill="#63b8ff" stroke="#63b8ff" points="437.16,-163.77 426.69,-162.11 433.84,-169.94 437.16,-163.77"/>
</a>
</g>
</g>
<!-- Node9 -->
<g id="Node000009" class="node">
<title>Node9</title>
<g id="a_Node000009"><a xlink:title=" ">
<polygon fill="#e0e0e0" stroke="#999999" points="734,-90.5 665,-90.5 665,-71.5 734,-71.5 734,-90.5"/>
<text text-anchor="middle" x="699.5" y="-78.5" font-family="Helvetica,sans-Serif" font-size="10.00">type_traits</text>
</a>
</g>
</g>
<!-- Node2&#45;&gt;Node9 -->
<g id="edge13_Node000002_Node000009" class="edge">
<title>Node2&#45;&gt;Node9</title>
<g id="a_edge13_Node000002_Node000009"><a xlink:title=" ">
<path fill="none" stroke="#63b8ff" d="M513.94,-197.98C501.08,-179.32 487.22,-151.27 502.5,-132 546.18,-76.93 588.8,-114.9 656.5,-96 659.26,-95.23 662.12,-94.39 664.98,-93.52"/>
<polygon fill="#63b8ff" stroke="#63b8ff" points="666.1,-96.84 674.6,-90.51 664.01,-90.16 666.1,-96.84"/>
</a>
</g>
</g>
<!-- Node13 -->
<g id="Node000013" class="node">
<title>Node13</title>
<g id="a_Node000013"><a xlink:title=" ">
<polygon fill="#e0e0e0" stroke="#999999" points="571.5,-156.5 511.5,-156.5 511.5,-137.5 571.5,-137.5 571.5,-156.5"/>
<text text-anchor="middle" x="541.5" y="-144.5" font-family="Helvetica,sans-Serif" font-size="10.00">concepts</text>
</a>
</g>
</g>
<!-- Node2&#45;&gt;Node13 -->
<g id="edge12_Node000002_Node000013" class="edge">
<title>Node2&#45;&gt;Node13</title>
<g id="a_edge12_Node000002_Node000013"><a xlink:title=" ">
<path fill="none" stroke="#63b8ff" d="M532.91,-197.77C534.58,-188.08 536.59,-176.46 538.24,-166.88"/>
<polygon fill="#63b8ff" stroke="#63b8ff" points="541.72,-167.27 539.98,-156.82 534.83,-166.08 541.72,-167.27"/>
</a>
</g>
</g>
<!-- Node14 -->
<g id="Node000014" class="node">
<title>Node14</title>
<g id="a_Node000014"><a xlink:title=" ">
<polygon fill="#e0e0e0" stroke="#999999" points="639.5,-156.5 589.5,-156.5 589.5,-137.5 639.5,-137.5 639.5,-156.5"/>
<text text-anchor="middle" x="614.5" y="-144.5" font-family="Helvetica,sans-Serif" font-size="10.00">cstdint</text>
</a>
</g>
</g>
<!-- Node2&#45;&gt;Node14 -->
<g id="edge14_Node000002_Node000014" class="edge">
<title>Node2&#45;&gt;Node14</title>
<g id="a_edge14_Node000002_Node000014"><a xlink:title=" ">
<path fill="none" stroke="#63b8ff" d="M553.63,-197.77C567.03,-186.81 583.45,-173.39 595.85,-163.25"/>
<polygon fill="#63b8ff" stroke="#63b8ff" points="598.19,-165.86 603.71,-156.82 593.76,-160.44 598.19,-165.86"/>
</a>
</g>
</g>
<!-- Node15 -->
<g id="Node000015" class="node">
<title>Node15</title>
<g id="a_Node000015"><a xlink:title=" ">
<polygon fill="#e0e0e0" stroke="#999999" points="703,-156.5 658,-156.5 658,-137.5 703,-137.5 703,-156.5"/>
<text text-anchor="middle" x="680.5" y="-144.5" font-family="Helvetica,sans-Serif" font-size="10.00">utility</text>
</a>
</g>
</g>
<!-- Node2&#45;&gt;Node15 -->
<g id="edge15_Node000002_Node000015" class="edge">
<title>Node2&#45;&gt;Node15</title>
<g id="a_edge15_Node000002_Node000015"><a xlink:title=" ">
<path fill="none" stroke="#63b8ff" d="M571.96,-197.96C597.8,-186.06 630.06,-171.21 652.67,-160.81"/>
<polygon fill="#63b8ff" stroke="#63b8ff" points="654.4,-163.86 662.02,-156.5 651.48,-157.51 654.4,-163.86"/>
</a>
</g>
</g>
<!-- Node4 -->
<g id="Node000004" class="node">
<title>Node4</title>
<g id="a_Node000004"><a xlink:href="debug_8hpp.html" target="_top" xlink:title=" ">
<polygon fill="white" stroke="#666666" points="173,-96 54,-96 54,-66 173,-66 173,-96"/>
<text text-anchor="start" x="62" y="-84" font-family="Helvetica,sans-Serif" font-size="10.00">packages/macros/inc</text>
<text text-anchor="middle" x="113.5" y="-73" font-family="Helvetica,sans-Serif" font-size="10.00">/debug.hpp</text>
</a>
</g>
</g>
<!-- Node3&#45;&gt;Node4 -->
<g id="edge3_Node000003_Node000004" class="edge">
<title>Node3&#45;&gt;Node4</title>
<g id="a_edge3_Node000003_Node000004"><a xlink:title=" ">
<path fill="none" stroke="#63b8ff" d="M345.16,-133.66C298.99,-123.36 232.93,-108.63 183.16,-97.53"/>
<polygon fill="#63b8ff" stroke="#63b8ff" points="183.64,-94.06 173.12,-95.29 182.12,-100.89 183.64,-94.06"/>
</a>
</g>
</g>
<!-- Node7 -->
<g id="Node000007" class="node">
<title>Node7</title>
<g id="a_Node000007"><a xlink:title=" ">
<polygon fill="#e0e0e0" stroke="#999999" points="244,-90.5 191,-90.5 191,-71.5 244,-71.5 244,-90.5"/>
<text text-anchor="middle" x="217.5" y="-78.5" font-family="Helvetica,sans-Serif" font-size="10.00">cstddef</text>
</a>
</g>
</g>
<!-- Node3&#45;&gt;Node7 -->
<g id="edge6_Node000003_Node000007" class="edge">
<title>Node3&#45;&gt;Node7</title>
<g id="a_edge6_Node000003_Node000007"><a xlink:title=" ">
<path fill="none" stroke="#63b8ff" d="M357.55,-131.93C328.15,-122.17 288.33,-108.69 253.5,-96 251.9,-95.42 250.26,-94.81 248.6,-94.19"/>
<polygon fill="#63b8ff" stroke="#63b8ff" points="249.74,-90.88 239.14,-90.59 247.25,-97.42 249.74,-90.88"/>
</a>
</g>
</g>
<!-- Node8 -->
<g id="Node000008" class="node">
<title>Node8</title>
<g id="a_Node000008"><a xlink:title=" ">
<polygon fill="#e0e0e0" stroke="#999999" points="306.5,-90.5 262.5,-90.5 262.5,-71.5 306.5,-71.5 306.5,-90.5"/>
<text text-anchor="middle" x="284.5" y="-78.5" font-family="Helvetica,sans-Serif" font-size="10.00">string</text>
</a>
</g>
</g>
<!-- Node3&#45;&gt;Node8 -->
<g id="edge7_Node000003_Node000008" class="edge">
<title>Node3&#45;&gt;Node8</title>
<g id="a_edge7_Node000003_Node000008"><a xlink:title=" ">
<path fill="none" stroke="#63b8ff" d="M375.04,-131.95C355.33,-121.08 328.19,-106.11 308.78,-95.4"/>
<polygon fill="#63b8ff" stroke="#63b8ff" points="310.38,-92.28 299.94,-90.52 307,-98.41 310.38,-92.28"/>
</a>
</g>
</g>
<!-- Node3&#45;&gt;Node9 -->
<g id="edge8_Node000003_Node000009" class="edge">
<title>Node3&#45;&gt;Node9</title>
<g id="a_edge8_Node000003_Node000009"><a xlink:title=" ">
<path fill="none" stroke="#63b8ff" d="M455.85,-134.72C460.47,-133.79 465.06,-132.88 469.5,-132 552.53,-115.58 574.55,-117.14 656.5,-96 659.45,-95.24 662.49,-94.39 665.52,-93.49"/>
<polygon fill="#63b8ff" stroke="#63b8ff" points="666.58,-96.83 675.1,-90.53 664.51,-90.14 666.58,-96.83"/>
</a>
</g>
</g>
<!-- Node10 -->
<g id="Node000010" class="node">
<title>Node10</title>
<g id="a_Node000010"><a xlink:title=" ">
<polygon fill="#e0e0e0" stroke="#999999" points="374.5,-90.5 324.5,-90.5 324.5,-71.5 374.5,-71.5 374.5,-90.5"/>
<text text-anchor="middle" x="349.5" y="-78.5" font-family="Helvetica,sans-Serif" font-size="10.00">climits</text>
</a>
</g>
</g>
<!-- Node3&#45;&gt;Node10 -->
<g id="edge9_Node000003_Node000010" class="edge">
<title>Node3&#45;&gt;Node10</title>
<g id="a_edge9_Node000003_Node000010"><a xlink:title=" ">
<path fill="none" stroke="#63b8ff" d="M389.18,-131.8C381.39,-122.01 371,-108.98 362.81,-98.7"/>
<polygon fill="#63b8ff" stroke="#63b8ff" points="365.52,-96.48 356.55,-90.84 360.04,-100.85 365.52,-96.48"/>
</a>
</g>
</g>
<!-- Node11 -->
<g id="Node000011" class="node">
<title>Node11</title>
<g id="a_Node000011"><a xlink:title=" ">
<polygon fill="#e0e0e0" stroke="#999999" points="510,-96 393,-96 393,-66 510,-66 510,-96"/>
<text text-anchor="start" x="401" y="-84" font-family="Helvetica,sans-Serif" font-size="10.00">packages/types/impl</text>
<text text-anchor="middle" x="451.5" y="-73" font-family="Helvetica,sans-Serif" font-size="10.00">/types_impl.hpp</text>
</a>
</g>
</g>
<!-- Node3&#45;&gt;Node11 -->
<g id="edge10_Node000003_Node000011" class="edge">
<title>Node3&#45;&gt;Node11</title>
<g id="a_edge10_Node000003_Node000011"><a xlink:title=" ">
<path fill="none" stroke="#63b8ff" d="M411.82,-131.8C418.29,-123.68 426.55,-113.31 433.85,-104.15"/>
<polygon fill="#63b8ff" stroke="#63b8ff" points="436.72,-106.17 440.21,-96.16 431.24,-101.8 436.72,-106.17"/>
</a>
</g>
</g>
<!-- Node12 -->
<g id="Node000012" class="node">
<title>Node12</title>
<g id="a_Node000012"><a xlink:href="logging_8hpp.html" target="_top" xlink:title=" ">
<polygon fill="white" stroke="#666666" points="647,-96 528,-96 528,-66 647,-66 647,-96"/>
<text text-anchor="start" x="536" y="-84" font-family="Helvetica,sans-Serif" font-size="10.00">packages/macros/inc</text>
<text text-anchor="middle" x="587.5" y="-73" font-family="Helvetica,sans-Serif" font-size="10.00">/logging.hpp</text>
</a>
</g>
</g>
<!-- Node3&#45;&gt;Node12 -->
<g id="edge11_Node000003_Node000012" class="edge">
<title>Node3&#45;&gt;Node12</title>
<g id="a_edge11_Node000003_Node000012"><a xlink:title=" ">
<path fill="none" stroke="#63b8ff" d="M441.54,-131.95C469.55,-122.37 506.85,-109.6 536.73,-99.37"/>
<polygon fill="#63b8ff" stroke="#63b8ff" points="538.23,-102.56 546.56,-96.01 535.96,-95.94 538.23,-102.56"/>
</a>
</g>
</g>
<!-- Node5 -->
<g id="Node000005" class="node">
<title>Node5</title>
<g id="a_Node000005"><a xlink:href="detail_8hpp.html" target="_top" xlink:title=" ">
<polygon fill="white" stroke="#666666" points="119,-30 0,-30 0,0 119,0 119,-30"/>
<text text-anchor="start" x="8" y="-18" font-family="Helvetica,sans-Serif" font-size="10.00">packages/macros/inc</text>
<text text-anchor="middle" x="59.5" y="-7" font-family="Helvetica,sans-Serif" font-size="10.00">/detail.hpp</text>
</a>
</g>
</g>
<!-- Node4&#45;&gt;Node5 -->
<g id="edge4_Node000004_Node000005" class="edge">
<title>Node4&#45;&gt;Node5</title>
<g id="a_edge4_Node000004_Node000005"><a xlink:title=" ">
<path fill="none" stroke="#63b8ff" d="M101.52,-65.8C94.59,-57.59 85.74,-47.1 77.95,-37.87"/>
<polygon fill="#63b8ff" stroke="#63b8ff" points="80.57,-35.55 71.45,-30.16 75.22,-40.06 80.57,-35.55"/>
</a>
</g>
</g>
<!-- Node6 -->
<g id="Node000006" class="node">
<title>Node6</title>
<g id="a_Node000006"><a xlink:title=" ">
<polygon fill="#e0e0e0" stroke="#999999" points="197.5,-24.5 137.5,-24.5 137.5,-5.5 197.5,-5.5 197.5,-24.5"/>
<text text-anchor="middle" x="167.5" y="-12.5" font-family="Helvetica,sans-Serif" font-size="10.00">iostream</text>
</a>
</g>
</g>
<!-- Node4&#45;&gt;Node6 -->
<g id="edge5_Node000004_Node000006" class="edge">
<title>Node4&#45;&gt;Node6</title>
<g id="a_edge5_Node000004_Node000006"><a xlink:title=" ">
<path fill="none" stroke="#63b8ff" d="M125.48,-65.8C133.74,-56.01 144.74,-42.98 153.41,-32.7"/>
<polygon fill="#63b8ff" stroke="#63b8ff" points="156.26,-34.74 160.04,-24.84 150.91,-30.23 156.26,-34.74"/>
</a>
</g>
</g>
</g>
</svg>
