<?xml version="1.0" encoding="UTF-8" standalone="no"?>
<!DOCTYPE svg PUBLIC "-//W3C//DTD SVG 1.1//EN"
 "http://www.w3.org/Graphics/SVG/1.1/DTD/svg11.dtd">
<!-- Generated by graphviz version 2.43.0 (0)
 -->
<!-- Title: Traits.hpp Pages: 1 -->
<svg width="743pt" height="291pt"
 viewBox="0.00 0.00 743.00 291.00" xmlns="http://www.w3.org/2000/svg" xmlns:xlink="http://www.w3.org/1999/xlink">
<g id="graph0" class="graph" transform="scale(1 1) rotate(0) translate(4 287)">
<title>Traits.hpp</title>
<!-- Node1 -->
<g id="Node000001" class="node">
<title>Node1</title>
<g id="a_Node000001"><a xlink:title=" ">
<polygon fill="#999999" stroke="#666666" points="483.5,-283 419.5,-283 419.5,-264 483.5,-264 483.5,-283"/>
<text text-anchor="middle" x="451.5" y="-271" font-family="Helvetica,sans-Serif" font-size="10.00">Traits.hpp</text>
</a>
</g>
</g>
<!-- Node2 -->
<g id="Node000002" class="node">
<title>Node2</title>
<g id="a_Node000002"><a xlink:href="types_8hpp.html" target="_top" xlink:title=" ">
<polygon fill="white" stroke="#666666" points="414.5,-162 304.5,-162 304.5,-132 414.5,-132 414.5,-162"/>
<text text-anchor="start" x="312.5" y="-150" font-family="Helvetica,sans-Serif" font-size="10.00">packages/types/inc</text>
<text text-anchor="middle" x="359.5" y="-139" font-family="Helvetica,sans-Serif" font-size="10.00">/types.hpp</text>
</a>
</g>
</g>
<!-- Node1&#45;&gt;Node2 -->
<g id="edge1_Node000001_Node000002" class="edge">
<title>Node1&#45;&gt;Node2</title>
<g id="a_edge1_Node000001_Node000002"><a xlink:title=" ">
<path fill="none" stroke="#63b8ff" d="M433.41,-263.94C419.12,-256.33 399.62,-243.95 387.5,-228 375.08,-211.66 367.88,-189.39 363.9,-172.49"/>
<polygon fill="#63b8ff" stroke="#63b8ff" points="367.24,-171.33 361.73,-162.28 360.39,-172.79 367.24,-171.33"/>
</a>
</g>
</g>
<!-- Node12 -->
<g id="Node000012" class="node">
<title>Node12</title>
<g id="a_Node000012"><a xlink:href="tags_8hpp.html" target="_top" xlink:title=" ">
<polygon fill="white" stroke="#666666" points="506.5,-228 396.5,-228 396.5,-198 506.5,-198 506.5,-228"/>
<text text-anchor="start" x="404.5" y="-216" font-family="Helvetica,sans-Serif" font-size="10.00">packages/types/inc</text>
<text text-anchor="middle" x="451.5" y="-205" font-family="Helvetica,sans-Serif" font-size="10.00">/tags.hpp</text>
</a>
</g>
</g>
<!-- Node1&#45;&gt;Node12 -->
<g id="edge11_Node000001_Node000012" class="edge">
<title>Node1&#45;&gt;Node12</title>
<g id="a_edge11_Node000001_Node000012"><a xlink:title=" ">
<path fill="none" stroke="#63b8ff" d="M451.5,-263.87C451.5,-257.11 451.5,-247.35 451.5,-238.26"/>
<polygon fill="#63b8ff" stroke="#63b8ff" points="455,-238.11 451.5,-228.11 448,-238.11 455,-238.11"/>
</a>
</g>
</g>
<!-- Node15 -->
<g id="Node000015" class="node">
<title>Node15</title>
<g id="a_Node000015"><a xlink:title=" ">
<polygon fill="#e0e0e0" stroke="#999999" points="572.5,-222.5 524.5,-222.5 524.5,-203.5 572.5,-203.5 572.5,-222.5"/>
<text text-anchor="middle" x="548.5" y="-210.5" font-family="Helvetica,sans-Serif" font-size="10.00">iosfwd</text>
</a>
</g>
</g>
<!-- Node1&#45;&gt;Node15 -->
<g id="edge15_Node000001_Node000015" class="edge">
<title>Node1&#45;&gt;Node15</title>
<g id="a_edge15_Node000001_Node000015"><a xlink:title=" ">
<path fill="none" stroke="#63b8ff" d="M465.81,-263.87C481.5,-254.41 506.9,-239.09 525.41,-227.92"/>
<polygon fill="#63b8ff" stroke="#63b8ff" points="527.37,-230.83 534.13,-222.67 523.76,-224.83 527.37,-230.83"/>
</a>
</g>
</g>
<!-- Node3 -->
<g id="Node000003" class="node">
<title>Node3</title>
<g id="a_Node000003"><a xlink:href="debug_8hpp.html" target="_top" xlink:title=" ">
<polygon fill="white" stroke="#666666" points="173,-96 54,-96 54,-66 173,-66 173,-96"/>
<text text-anchor="start" x="62" y="-84" font-family="Helvetica,sans-Serif" font-size="10.00">packages/macros/inc</text>
<text text-anchor="middle" x="113.5" y="-73" font-family="Helvetica,sans-Serif" font-size="10.00">/debug.hpp</text>
</a>
</g>
</g>
<!-- Node2&#45;&gt;Node3 -->
<g id="edge2_Node000002_Node000003" class="edge">
<title>Node2&#45;&gt;Node3</title>
<g id="a_edge2_Node000002_Node000003"><a xlink:title=" ">
<path fill="none" stroke="#63b8ff" d="M305.51,-131.95C267.7,-122.12 217.03,-108.93 177.23,-98.58"/>
<polygon fill="#63b8ff" stroke="#63b8ff" points="177.92,-95.14 167.36,-96.01 176.16,-101.92 177.92,-95.14"/>
</a>
</g>
</g>
<!-- Node6 -->
<g id="Node000006" class="node">
<title>Node6</title>
<g id="a_Node000006"><a xlink:title=" ">
<polygon fill="#e0e0e0" stroke="#999999" points="244,-90.5 191,-90.5 191,-71.5 244,-71.5 244,-90.5"/>
<text text-anchor="middle" x="217.5" y="-78.5" font-family="Helvetica,sans-Serif" font-size="10.00">cstddef</text>
</a>
</g>
</g>
<!-- Node2&#45;&gt;Node6 -->
<g id="edge5_Node000002_Node000006" class="edge">
<title>Node2&#45;&gt;Node6</title>
<g id="a_edge5_Node000002_Node000006"><a xlink:title=" ">
<path fill="none" stroke="#63b8ff" d="M328.34,-131.95C303.65,-120.83 269.47,-105.42 245.62,-94.67"/>
<polygon fill="#63b8ff" stroke="#63b8ff" points="246.95,-91.44 236.4,-90.52 244.08,-97.82 246.95,-91.44"/>
</a>
</g>
</g>
<!-- Node7 -->
<g id="Node000007" class="node">
<title>Node7</title>
<g id="a_Node000007"><a xlink:title=" ">
<polygon fill="#e0e0e0" stroke="#999999" points="306.5,-90.5 262.5,-90.5 262.5,-71.5 306.5,-71.5 306.5,-90.5"/>
<text text-anchor="middle" x="284.5" y="-78.5" font-family="Helvetica,sans-Serif" font-size="10.00">string</text>
</a>
</g>
</g>
<!-- Node2&#45;&gt;Node7 -->
<g id="edge6_Node000002_Node000007" class="edge">
<title>Node2&#45;&gt;Node7</title>
<g id="a_edge6_Node000002_Node000007"><a xlink:title=" ">
<path fill="none" stroke="#63b8ff" d="M342.86,-131.8C330.93,-121.62 314.89,-107.93 302.64,-97.48"/>
<polygon fill="#63b8ff" stroke="#63b8ff" points="304.74,-94.67 294.86,-90.84 300.2,-100 304.74,-94.67"/>
</a>
</g>
</g>
<!-- Node8 -->
<g id="Node000008" class="node">
<title>Node8</title>
<g id="a_Node000008"><a xlink:title=" ">
<polygon fill="#e0e0e0" stroke="#999999" points="394,-90.5 325,-90.5 325,-71.5 394,-71.5 394,-90.5"/>
<text text-anchor="middle" x="359.5" y="-78.5" font-family="Helvetica,sans-Serif" font-size="10.00">type_traits</text>
</a>
</g>
</g>
<!-- Node2&#45;&gt;Node8 -->
<g id="edge7_Node000002_Node000008" class="edge">
<title>Node2&#45;&gt;Node8</title>
<g id="a_edge7_Node000002_Node000008"><a xlink:title=" ">
<path fill="none" stroke="#63b8ff" d="M359.5,-131.8C359.5,-122.7 359.5,-110.79 359.5,-100.9"/>
<polygon fill="#63b8ff" stroke="#63b8ff" points="363,-100.84 359.5,-90.84 356,-100.84 363,-100.84"/>
</a>
</g>
</g>
<!-- Node9 -->
<g id="Node000009" class="node">
<title>Node9</title>
<g id="a_Node000009"><a xlink:title=" ">
<polygon fill="#e0e0e0" stroke="#999999" points="462.5,-90.5 412.5,-90.5 412.5,-71.5 462.5,-71.5 462.5,-90.5"/>
<text text-anchor="middle" x="437.5" y="-78.5" font-family="Helvetica,sans-Serif" font-size="10.00">climits</text>
</a>
</g>
</g>
<!-- Node2&#45;&gt;Node9 -->
<g id="edge8_Node000002_Node000009" class="edge">
<title>Node2&#45;&gt;Node9</title>
<g id="a_edge8_Node000002_Node000009"><a xlink:title=" ">
<path fill="none" stroke="#63b8ff" d="M376.81,-131.8C389.21,-121.62 405.9,-107.93 418.63,-97.48"/>
<polygon fill="#63b8ff" stroke="#63b8ff" points="421.21,-99.89 426.72,-90.84 416.77,-94.48 421.21,-99.89"/>
</a>
</g>
</g>
<!-- Node10 -->
<g id="Node000010" class="node">
<title>Node10</title>
<g id="a_Node000010"><a xlink:title=" ">
<polygon fill="#e0e0e0" stroke="#999999" points="598,-96 481,-96 481,-66 598,-66 598,-96"/>
<text text-anchor="start" x="489" y="-84" font-family="Helvetica,sans-Serif" font-size="10.00">packages/types/impl</text>
<text text-anchor="middle" x="539.5" y="-73" font-family="Helvetica,sans-Serif" font-size="10.00">/types_impl.hpp</text>
</a>
</g>
</g>
<!-- Node2&#45;&gt;Node10 -->
<g id="edge9_Node000002_Node000010" class="edge">
<title>Node2&#45;&gt;Node10</title>
<g id="a_edge9_Node000002_Node000010"><a xlink:title=" ">
<path fill="none" stroke="#63b8ff" d="M399,-131.95C425.97,-122.37 461.87,-109.6 490.63,-99.37"/>
<polygon fill="#63b8ff" stroke="#63b8ff" points="491.84,-102.66 500.09,-96.01 489.5,-96.06 491.84,-102.66"/>
</a>
</g>
</g>
<!-- Node11 -->
<g id="Node000011" class="node">
<title>Node11</title>
<g id="a_Node000011"><a xlink:href="logging_8hpp.html" target="_top" xlink:title=" ">
<polygon fill="white" stroke="#666666" points="735,-96 616,-96 616,-66 735,-66 735,-96"/>
<text text-anchor="start" x="624" y="-84" font-family="Helvetica,sans-Serif" font-size="10.00">packages/macros/inc</text>
<text text-anchor="middle" x="675.5" y="-73" font-family="Helvetica,sans-Serif" font-size="10.00">/logging.hpp</text>
</a>
</g>
</g>
<!-- Node2&#45;&gt;Node11 -->
<g id="edge10_Node000002_Node000011" class="edge">
<title>Node2&#45;&gt;Node11</title>
<g id="a_edge10_Node000002_Node000011"><a xlink:title=" ">
<path fill="none" stroke="#63b8ff" d="M414.64,-133.86C417.64,-133.22 420.6,-132.6 423.5,-132 501.91,-115.76 524.09,-112.63 605.57,-96.37"/>
<polygon fill="#63b8ff" stroke="#63b8ff" points="606.68,-99.72 615.8,-94.33 605.31,-92.86 606.68,-99.72"/>
</a>
</g>
</g>
<!-- Node4 -->
<g id="Node000004" class="node">
<title>Node4</title>
<g id="a_Node000004"><a xlink:href="detail_8hpp.html" target="_top" xlink:title=" ">
<polygon fill="white" stroke="#666666" points="119,-30 0,-30 0,0 119,0 119,-30"/>
<text text-anchor="start" x="8" y="-18" font-family="Helvetica,sans-Serif" font-size="10.00">packages/macros/inc</text>
<text text-anchor="middle" x="59.5" y="-7" font-family="Helvetica,sans-Serif" font-size="10.00">/detail.hpp</text>
</a>
</g>
</g>
<!-- Node3&#45;&gt;Node4 -->
<g id="edge3_Node000003_Node000004" class="edge">
<title>Node3&#45;&gt;Node4</title>
<g id="a_edge3_Node000003_Node000004"><a xlink:title=" ">
<path fill="none" stroke="#63b8ff" d="M101.52,-65.8C94.59,-57.59 85.74,-47.1 77.95,-37.87"/>
<polygon fill="#63b8ff" stroke="#63b8ff" points="80.57,-35.55 71.45,-30.16 75.22,-40.06 80.57,-35.55"/>
</a>
</g>
</g>
<!-- Node5 -->
<g id="Node000005" class="node">
<title>Node5</title>
<g id="a_Node000005"><a xlink:title=" ">
<polygon fill="#e0e0e0" stroke="#999999" points="197.5,-24.5 137.5,-24.5 137.5,-5.5 197.5,-5.5 197.5,-24.5"/>
<text text-anchor="middle" x="167.5" y="-12.5" font-family="Helvetica,sans-Serif" font-size="10.00">iostream</text>
</a>
</g>
</g>
<!-- Node3&#45;&gt;Node5 -->
<g id="edge4_Node000003_Node000005" class="edge">
<title>Node3&#45;&gt;Node5</title>
<g id="a_edge4_Node000003_Node000005"><a xlink:title=" ">
<path fill="none" stroke="#63b8ff" d="M125.48,-65.8C133.74,-56.01 144.74,-42.98 153.41,-32.7"/>
<polygon fill="#63b8ff" stroke="#63b8ff" points="156.26,-34.74 160.04,-24.84 150.91,-30.23 156.26,-34.74"/>
</a>
</g>
</g>
<!-- Node12&#45;&gt;Node2 -->
<g id="edge12_Node000012_Node000002" class="edge">
<title>Node12&#45;&gt;Node2</title>
<g id="a_edge12_Node000012_Node000002"><a xlink:title=" ">
<path fill="none" stroke="#63b8ff" d="M431.08,-197.8C418.46,-189.01 402.06,-177.61 388.15,-167.93"/>
<polygon fill="#63b8ff" stroke="#63b8ff" points="390.07,-165 379.86,-162.16 386.07,-170.75 390.07,-165"/>
</a>
</g>
</g>
<!-- Node13 -->
<g id="Node000013" class="node">
<title>Node13</title>
<g id="a_Node000013"><a xlink:title=" ">
<polygon fill="#e0e0e0" stroke="#999999" points="476.5,-156.5 432.5,-156.5 432.5,-137.5 476.5,-137.5 476.5,-156.5"/>
<text text-anchor="middle" x="454.5" y="-144.5" font-family="Helvetica,sans-Serif" font-size="10.00">bitset</text>
</a>
</g>
</g>
<!-- Node12&#45;&gt;Node13 -->
<g id="edge13_Node000012_Node000013" class="edge">
<title>Node12&#45;&gt;Node13</title>
<g id="a_edge13_Node000012_Node000013"><a xlink:title=" ">
<path fill="none" stroke="#63b8ff" d="M452.17,-197.8C452.59,-188.7 453.15,-176.79 453.61,-166.9"/>
<polygon fill="#63b8ff" stroke="#63b8ff" points="457.11,-167 454.09,-156.84 450.12,-166.67 457.11,-167"/>
</a>
</g>
</g>
<!-- Node14 -->
<g id="Node000014" class="node">
<title>Node14</title>
<g id="a_Node000014"><a xlink:title=" ">
<polygon fill="#e0e0e0" stroke="#999999" points="612,-162 495,-162 495,-132 612,-132 612,-162"/>
<text text-anchor="start" x="503" y="-150" font-family="Helvetica,sans-Serif" font-size="10.00">packages/types/impl</text>
<text text-anchor="middle" x="553.5" y="-139" font-family="Helvetica,sans-Serif" font-size="10.00">/tags_impl.hpp</text>
</a>
</g>
</g>
<!-- Node12&#45;&gt;Node14 -->
<g id="edge14_Node000012_Node000014" class="edge">
<title>Node12&#45;&gt;Node14</title>
<g id="a_edge14_Node000012_Node000014"><a xlink:title=" ">
<path fill="none" stroke="#63b8ff" d="M473.88,-197.95C488.1,-189.03 506.7,-177.36 522.35,-167.54"/>
<polygon fill="#63b8ff" stroke="#63b8ff" points="524.56,-170.29 531.17,-162.01 520.84,-164.36 524.56,-170.29"/>
</a>
</g>
</g>
</g>
</svg>
