<?xml version="1.0" encoding="UTF-8" standalone="no"?>
<!DOCTYPE svg PUBLIC "-//W3C//DTD SVG 1.1//EN"
 "http://www.w3.org/Graphics/SVG/1.1/DTD/svg11.dtd">
<!-- Generated by graphviz version 2.43.0 (0)
 -->
<!-- Title: Traits.hpp Pages: 1 -->
<svg width="246pt" height="196pt"
 viewBox="0.00 0.00 245.50 196.00" xmlns="http://www.w3.org/2000/svg" xmlns:xlink="http://www.w3.org/1999/xlink">
<g id="graph0" class="graph" transform="scale(1 1) rotate(0) translate(4 192)">
<title>Traits.hpp</title>
<polygon fill="white" stroke="transparent" points="-4,4 -4,-192 241.5,-192 241.5,4 -4,4"/>
<!-- Node1 -->
<g id="node1" class="node">
<title>Node1</title>
<g id="a_node1"><a xlink:title=" ">
<polygon fill="#bfbfbf" stroke="black" points="91,-168.5 91,-187.5 155,-187.5 155,-168.5 91,-168.5"/>
<text text-anchor="middle" x="123" y="-175.5" font-family="Helvetica,sans-Serif" font-size="10.00">Traits.hpp</text>
</a>
</g>
</g>
<!-- Node2 -->
<g id="node2" class="node">
<title>Node2</title>
<g id="a_node2"><a xlink:href="Serializer_8hpp.html" target="_top" xlink:title=" ">
<polygon fill="white" stroke="black" points="81.5,-112.5 81.5,-131.5 164.5,-131.5 164.5,-112.5 81.5,-112.5"/>
<text text-anchor="middle" x="123" y="-119.5" font-family="Helvetica,sans-Serif" font-size="10.00">Serializer.hpp</text>
</a>
</g>
</g>
<!-- Node1&#45;&gt;Node2 -->
<g id="edge1" class="edge">
<title>Node1&#45;&gt;Node2</title>
<path fill="none" stroke="midnightblue" d="M123,-157.8C123,-148.91 123,-138.78 123,-131.75"/>
<polygon fill="midnightblue" stroke="midnightblue" points="119.5,-158.08 123,-168.08 126.5,-158.08 119.5,-158.08"/>
</g>
<!-- Node3 -->
<g id="node3" class="node">
<title>Node3</title>
<g id="a_node3"><a xlink:href="MPI_8hpp.html" target="_top" xlink:title=" ">
<polygon fill="white" stroke="black" points="95,-56.5 95,-75.5 151,-75.5 151,-56.5 95,-56.5"/>
<text text-anchor="middle" x="123" y="-63.5" font-family="Helvetica,sans-Serif" font-size="10.00">MPI.hpp</text>
</a>
</g>
</g>
<!-- Node2&#45;&gt;Node3 -->
<g id="edge2" class="edge">
<title>Node2&#45;&gt;Node3</title>
<path fill="none" stroke="midnightblue" d="M123,-101.8C123,-92.91 123,-82.78 123,-75.75"/>
<polygon fill="midnightblue" stroke="midnightblue" points="119.5,-102.08 123,-112.08 126.5,-102.08 119.5,-102.08"/>
</g>
<!-- Node4 -->
<g id="node4" class="node">
<title>Node4</title>
<g id="a_node4"><a xlink:href="CommOperation_8hpp.html" target="_top" xlink:title=" ">
<polygon fill="white" stroke="black" points="0,-0.5 0,-19.5 118,-19.5 118,-0.5 0,-0.5"/>
<text text-anchor="middle" x="59" y="-7.5" font-family="Helvetica,sans-Serif" font-size="10.00">CommOperation.hpp</text>
</a>
</g>
</g>
<!-- Node3&#45;&gt;Node4 -->
<g id="edge3" class="edge">
<title>Node3&#45;&gt;Node4</title>
<path fill="none" stroke="midnightblue" d="M105.01,-49.82C93.54,-40.15 79.09,-27.95 69.47,-19.83"/>
<polygon fill="midnightblue" stroke="midnightblue" points="102.82,-52.55 112.72,-56.32 107.33,-47.2 102.82,-52.55"/>
</g>
<!-- Node5 -->
<g id="node5" class="node">
<title>Node5</title>
<g id="a_node5"><a xlink:href="MPISingleton_8hpp.html" target="_top" xlink:title=" ">
<polygon fill="white" stroke="black" points="136.5,-0.5 136.5,-19.5 237.5,-19.5 237.5,-0.5 136.5,-0.5"/>
<text text-anchor="middle" x="187" y="-7.5" font-family="Helvetica,sans-Serif" font-size="10.00">MPISingleton.hpp</text>
</a>
</g>
</g>
<!-- Node3&#45;&gt;Node5 -->
<g id="edge4" class="edge">
<title>Node3&#45;&gt;Node5</title>
<path fill="none" stroke="midnightblue" d="M140.99,-49.82C152.46,-40.15 166.91,-27.95 176.53,-19.83"/>
<polygon fill="midnightblue" stroke="midnightblue" points="138.67,-47.2 133.28,-56.32 143.18,-52.55 138.67,-47.2"/>
</g>
</g>
</svg>
