<?xml version="1.0" encoding="UTF-8" standalone="no"?>
<!DOCTYPE svg PUBLIC "-//W3C//DTD SVG 1.1//EN"
 "http://www.w3.org/Graphics/SVG/1.1/DTD/svg11.dtd">
<!-- Generated by graphviz version 2.43.0 (0)
 -->
<!-- Title: TransformIterator.hpp Pages: 1 -->
<svg width="877pt" height="385pt"
 viewBox="0.00 0.00 877.35 385.00" xmlns="http://www.w3.org/2000/svg" xmlns:xlink="http://www.w3.org/1999/xlink">
<g id="graph0" class="graph" transform="scale(1 1) rotate(0) translate(4 381)">
<title>TransformIterator.hpp</title>
<polygon fill="white" stroke="transparent" points="-4,4 -4,-381 873.35,-381 873.35,4 -4,4"/>
<!-- Node1 -->
<g id="node1" class="node">
<title>Node1</title>
<g id="a_node1"><a xlink:title=" ">
<polygon fill="#bfbfbf" stroke="black" points="524,-357.5 524,-376.5 646,-376.5 646,-357.5 524,-357.5"/>
<text text-anchor="middle" x="585" y="-364.5" font-family="Helvetica,sans-Serif" font-size="10.00">TransformIterator.hpp</text>
</a>
</g>
</g>
<!-- Node2 -->
<g id="node2" class="node">
<title>Node2</title>
<g id="a_node2"><a xlink:href="iterator__concepts_8hpp.html" target="_top" xlink:title=" ">
<polygon fill="white" stroke="black" points="321,-279.5 321,-320.5 453,-320.5 453,-279.5 321,-279.5"/>
<text text-anchor="start" x="329" y="-308.5" font-family="Helvetica,sans-Serif" font-size="10.00">packages/compile_time</text>
<text text-anchor="start" x="329" y="-297.5" font-family="Helvetica,sans-Serif" font-size="10.00">/packages/concepts/inc</text>
<text text-anchor="middle" x="387" y="-286.5" font-family="Helvetica,sans-Serif" font-size="10.00">/iterator_concepts.hpp</text>
</a>
</g>
</g>
<!-- Node1&#45;&gt;Node2 -->
<g id="edge1" class="edge">
<title>Node1&#45;&gt;Node2</title>
<path fill="none" stroke="midnightblue" d="M558.71,-357.37C532.75,-348.85 491.92,-335.44 456.58,-323.84"/>
<polygon fill="midnightblue" stroke="midnightblue" points="457.37,-320.42 446.78,-320.63 455.19,-327.07 457.37,-320.42"/>
</g>
<!-- Node20 -->
<g id="node20" class="node">
<title>Node20</title>
<g id="a_node20"><a xlink:title=" ">
<polygon fill="white" stroke="#bfbfbf" points="558.5,-212.5 558.5,-231.5 611.5,-231.5 611.5,-212.5 558.5,-212.5"/>
<text text-anchor="middle" x="585" y="-219.5" font-family="Helvetica,sans-Serif" font-size="10.00">iterator</text>
</a>
</g>
</g>
<!-- Node1&#45;&gt;Node20 -->
<g id="edge34" class="edge">
<title>Node1&#45;&gt;Node20</title>
<path fill="none" stroke="midnightblue" d="M585,-357.48C585,-334.88 585,-273 585,-241.68"/>
<polygon fill="midnightblue" stroke="midnightblue" points="588.5,-241.65 585,-231.65 581.5,-241.65 588.5,-241.65"/>
</g>
<!-- Node22 -->
<g id="node22" class="node">
<title>Node22</title>
<g id="a_node22"><a xlink:href="functional_8hpp.html" target="_top" xlink:title=" ">
<polygon fill="white" stroke="black" points="659,-279.5 659,-320.5 791,-320.5 791,-279.5 659,-279.5"/>
<text text-anchor="start" x="667" y="-308.5" font-family="Helvetica,sans-Serif" font-size="10.00">packages/compile_time</text>
<text text-anchor="start" x="667" y="-297.5" font-family="Helvetica,sans-Serif" font-size="10.00">/packages/concepts/inc</text>
<text text-anchor="middle" x="725" y="-286.5" font-family="Helvetica,sans-Serif" font-size="10.00">/functional.hpp</text>
</a>
</g>
</g>
<!-- Node1&#45;&gt;Node22 -->
<g id="edge25" class="edge">
<title>Node1&#45;&gt;Node22</title>
<path fill="none" stroke="midnightblue" d="M603.59,-357.37C621.4,-349.1 649.1,-336.24 673.55,-324.89"/>
<polygon fill="midnightblue" stroke="midnightblue" points="675.13,-328.01 682.73,-320.63 672.19,-321.66 675.13,-328.01"/>
</g>
<!-- Node3 -->
<g id="node3" class="node">
<title>Node3</title>
<g id="a_node3"><a xlink:href="basic__concepts_8hpp.html" target="_top" xlink:title=" ">
<polygon fill="white" stroke="black" points="242,-201.5 242,-242.5 374,-242.5 374,-201.5 242,-201.5"/>
<text text-anchor="start" x="250" y="-230.5" font-family="Helvetica,sans-Serif" font-size="10.00">packages/compile_time</text>
<text text-anchor="start" x="250" y="-219.5" font-family="Helvetica,sans-Serif" font-size="10.00">/packages/concepts/inc</text>
<text text-anchor="middle" x="308" y="-208.5" font-family="Helvetica,sans-Serif" font-size="10.00">/basic_concepts.hpp</text>
</a>
</g>
</g>
<!-- Node2&#45;&gt;Node3 -->
<g id="edge2" class="edge">
<title>Node2&#45;&gt;Node3</title>
<path fill="none" stroke="midnightblue" d="M366.66,-279.43C357.26,-270.39 345.95,-259.51 335.78,-249.72"/>
<polygon fill="midnightblue" stroke="midnightblue" points="337.91,-246.92 328.28,-242.51 333.06,-251.96 337.91,-246.92"/>
</g>
<!-- Node17 -->
<g id="node17" class="node">
<title>Node17</title>
<g id="a_node17"><a xlink:href="Size_8hpp.html" target="_top" xlink:title=" ">
<polygon fill="white" stroke="black" points="0,-201.5 0,-242.5 148,-242.5 148,-201.5 0,-201.5"/>
<text text-anchor="start" x="8" y="-230.5" font-family="Helvetica,sans-Serif" font-size="10.00">packages/compile_time</text>
<text text-anchor="start" x="8" y="-219.5" font-family="Helvetica,sans-Serif" font-size="10.00">/packages/parameter_pack</text>
<text text-anchor="middle" x="74" y="-208.5" font-family="Helvetica,sans-Serif" font-size="10.00">/inc/Size.hpp</text>
</a>
</g>
</g>
<!-- Node2&#45;&gt;Node17 -->
<g id="edge17" class="edge">
<title>Node2&#45;&gt;Node17</title>
<path fill="none" stroke="midnightblue" d="M320.62,-282.88C273.26,-271.38 209.2,-255.83 158.24,-243.45"/>
<polygon fill="midnightblue" stroke="midnightblue" points="158.78,-239.98 148.23,-241.02 157.12,-246.79 158.78,-239.98"/>
</g>
<!-- Node18 -->
<g id="node18" class="node">
<title>Node18</title>
<g id="a_node18"><a xlink:href="Select_8hpp.html" target="_top" xlink:title=" ">
<polygon fill="white" stroke="black" points="392,-201.5 392,-242.5 540,-242.5 540,-201.5 392,-201.5"/>
<text text-anchor="start" x="400" y="-230.5" font-family="Helvetica,sans-Serif" font-size="10.00">packages/compile_time</text>
<text text-anchor="start" x="400" y="-219.5" font-family="Helvetica,sans-Serif" font-size="10.00">/packages/parameter_pack</text>
<text text-anchor="middle" x="466" y="-208.5" font-family="Helvetica,sans-Serif" font-size="10.00">/inc/Select.hpp</text>
</a>
</g>
</g>
<!-- Node2&#45;&gt;Node18 -->
<g id="edge19" class="edge">
<title>Node2&#45;&gt;Node18</title>
<path fill="none" stroke="midnightblue" d="M407.34,-279.43C416.74,-270.39 428.05,-259.51 438.22,-249.72"/>
<polygon fill="midnightblue" stroke="midnightblue" points="440.94,-251.96 445.72,-242.51 436.09,-246.92 440.94,-251.96"/>
</g>
<!-- Node2&#45;&gt;Node20 -->
<g id="edge23" class="edge">
<title>Node2&#45;&gt;Node20</title>
<path fill="none" stroke="midnightblue" d="M451.86,-279.45C481.89,-269.67 517.75,-256.95 549,-243 553.3,-241.08 557.78,-238.82 562.05,-236.53"/>
<polygon fill="midnightblue" stroke="midnightblue" points="563.9,-239.5 570.93,-231.57 560.49,-233.39 563.9,-239.5"/>
</g>
<!-- Node21 -->
<g id="node21" class="node">
<title>Node21</title>
<g id="a_node21"><a xlink:title=" ">
<polygon fill="white" stroke="#bfbfbf" points="166,-212.5 166,-231.5 224,-231.5 224,-212.5 166,-212.5"/>
<text text-anchor="middle" x="195" y="-219.5" font-family="Helvetica,sans-Serif" font-size="10.00">memory</text>
</a>
</g>
</g>
<!-- Node2&#45;&gt;Node21 -->
<g id="edge24" class="edge">
<title>Node2&#45;&gt;Node21</title>
<path fill="none" stroke="midnightblue" d="M327.39,-279.44C298.52,-269.43 263.57,-256.53 233,-243 228.47,-240.99 223.72,-238.68 219.19,-236.35"/>
<polygon fill="midnightblue" stroke="midnightblue" points="220.77,-233.23 210.3,-231.66 217.5,-239.42 220.77,-233.23"/>
</g>
<!-- Node4 -->
<g id="node4" class="node">
<title>Node4</title>
<g id="a_node4"><a xlink:href="types_8hpp.html" target="_top" xlink:title=" ">
<polygon fill="white" stroke="black" points="349,-134.5 349,-164.5 459,-164.5 459,-134.5 349,-134.5"/>
<text text-anchor="start" x="357" y="-152.5" font-family="Helvetica,sans-Serif" font-size="10.00">packages/types/inc</text>
<text text-anchor="middle" x="404" y="-141.5" font-family="Helvetica,sans-Serif" font-size="10.00">/types.hpp</text>
</a>
</g>
</g>
<!-- Node3&#45;&gt;Node4 -->
<g id="edge3" class="edge">
<title>Node3&#45;&gt;Node4</title>
<path fill="none" stroke="midnightblue" d="M334.74,-201.36C347.76,-191.8 363.39,-180.33 376.5,-170.69"/>
<polygon fill="midnightblue" stroke="midnightblue" points="378.72,-173.41 384.7,-164.67 374.57,-167.77 378.72,-173.41"/>
</g>
<!-- Node10 -->
<g id="node10" class="node">
<title>Node10</title>
<g id="a_node10"><a xlink:title=" ">
<polygon fill="white" stroke="#bfbfbf" points="639.5,-73 639.5,-92 708.5,-92 708.5,-73 639.5,-73"/>
<text text-anchor="middle" x="674" y="-80" font-family="Helvetica,sans-Serif" font-size="10.00">type_traits</text>
</a>
</g>
</g>
<!-- Node3&#45;&gt;Node10 -->
<g id="edge14" class="edge">
<title>Node3&#45;&gt;Node10</title>
<path fill="none" stroke="midnightblue" d="M371.22,-201.49C401.01,-191.63 436.79,-178.84 468,-165 494.36,-153.31 498.58,-145.56 525,-134 526.37,-133.4 595.4,-110.06 639.01,-95.32"/>
<polygon fill="midnightblue" stroke="midnightblue" points="640.34,-98.56 648.69,-92.05 638.1,-91.93 640.34,-98.56"/>
</g>
<!-- Node14 -->
<g id="node14" class="node">
<title>Node14</title>
<g id="a_node14"><a xlink:title=" ">
<polygon fill="white" stroke="#bfbfbf" points="534,-140 534,-159 594,-159 594,-140 534,-140"/>
<text text-anchor="middle" x="564" y="-147" font-family="Helvetica,sans-Serif" font-size="10.00">concepts</text>
</a>
</g>
</g>
<!-- Node3&#45;&gt;Node14 -->
<g id="edge13" class="edge">
<title>Node3&#45;&gt;Node14</title>
<path fill="none" stroke="midnightblue" d="M374.41,-203.25C414.81,-192.38 467.44,-178.08 514,-165 517.61,-163.99 521.35,-162.92 525.1,-161.85"/>
<polygon fill="midnightblue" stroke="midnightblue" points="526.3,-165.15 534.94,-159.02 524.36,-158.42 526.3,-165.15"/>
</g>
<!-- Node15 -->
<g id="node15" class="node">
<title>Node15</title>
<g id="a_node15"><a xlink:title=" ">
<polygon fill="white" stroke="#bfbfbf" points="217,-140 217,-159 267,-159 267,-140 217,-140"/>
<text text-anchor="middle" x="242" y="-147" font-family="Helvetica,sans-Serif" font-size="10.00">cstdint</text>
</a>
</g>
</g>
<!-- Node3&#45;&gt;Node15 -->
<g id="edge15" class="edge">
<title>Node3&#45;&gt;Node15</title>
<path fill="none" stroke="midnightblue" d="M289.62,-201.36C279.38,-190.43 266.8,-176.99 257.14,-166.67"/>
<polygon fill="midnightblue" stroke="midnightblue" points="259.51,-164.08 250.12,-159.17 254.4,-168.87 259.51,-164.08"/>
</g>
<!-- Node16 -->
<g id="node16" class="node">
<title>Node16</title>
<g id="a_node16"><a xlink:title=" ">
<polygon fill="white" stroke="#bfbfbf" points="285.5,-140 285.5,-159 330.5,-159 330.5,-140 285.5,-140"/>
<text text-anchor="middle" x="308" y="-147" font-family="Helvetica,sans-Serif" font-size="10.00">utility</text>
</a>
</g>
</g>
<!-- Node3&#45;&gt;Node16 -->
<g id="edge16" class="edge">
<title>Node3&#45;&gt;Node16</title>
<path fill="none" stroke="midnightblue" d="M308,-201.36C308,-191.3 308,-179.1 308,-169.18"/>
<polygon fill="midnightblue" stroke="midnightblue" points="311.5,-169.17 308,-159.17 304.5,-169.17 311.5,-169.17"/>
</g>
<!-- Node5 -->
<g id="node5" class="node">
<title>Node5</title>
<g id="a_node5"><a xlink:href="debug_8hpp.html" target="_top" xlink:title=" ">
<polygon fill="white" stroke="black" points="431.5,-67.5 431.5,-97.5 550.5,-97.5 550.5,-67.5 431.5,-67.5"/>
<text text-anchor="start" x="439.5" y="-85.5" font-family="Helvetica,sans-Serif" font-size="10.00">packages/macros/inc</text>
<text text-anchor="middle" x="491" y="-74.5" font-family="Helvetica,sans-Serif" font-size="10.00">/debug.hpp</text>
</a>
</g>
</g>
<!-- Node4&#45;&gt;Node5 -->
<g id="edge4" class="edge">
<title>Node4&#45;&gt;Node5</title>
<path fill="none" stroke="midnightblue" d="M422.88,-134.4C434.85,-125.45 450.53,-113.74 463.83,-103.8"/>
<polygon fill="midnightblue" stroke="midnightblue" points="466.24,-106.37 472.16,-97.58 462.05,-100.76 466.24,-106.37"/>
</g>
<!-- Node8 -->
<g id="node8" class="node">
<title>Node8</title>
<g id="a_node8"><a xlink:title=" ">
<polygon fill="white" stroke="#bfbfbf" points="568.5,-73 568.5,-92 621.5,-92 621.5,-73 568.5,-73"/>
<text text-anchor="middle" x="595" y="-80" font-family="Helvetica,sans-Serif" font-size="10.00">cstddef</text>
</a>
</g>
</g>
<!-- Node4&#45;&gt;Node8 -->
<g id="edge7" class="edge">
<title>Node4&#45;&gt;Node8</title>
<path fill="none" stroke="midnightblue" d="M450.75,-134.43C481.91,-124.8 523.67,-111.38 560,-98 561.85,-97.32 563.75,-96.6 565.66,-95.85"/>
<polygon fill="midnightblue" stroke="midnightblue" points="567.14,-99.03 575.12,-92.06 564.53,-92.53 567.14,-99.03"/>
</g>
<!-- Node9 -->
<g id="node9" class="node">
<title>Node9</title>
<g id="a_node9"><a xlink:title=" ">
<polygon fill="white" stroke="#bfbfbf" points="29,-73 29,-92 73,-92 73,-73 29,-73"/>
<text text-anchor="middle" x="51" y="-80" font-family="Helvetica,sans-Serif" font-size="10.00">string</text>
</a>
</g>
</g>
<!-- Node4&#45;&gt;Node9 -->
<g id="edge8" class="edge">
<title>Node4&#45;&gt;Node9</title>
<path fill="none" stroke="midnightblue" d="M348.74,-135.86C345.45,-135.2 342.19,-134.58 339,-134 225.51,-113.43 192.58,-130.8 82,-98 80.12,-97.44 78.21,-96.79 76.31,-96.07"/>
<polygon fill="midnightblue" stroke="midnightblue" points="77.62,-92.83 67.05,-92.12 74.87,-99.26 77.62,-92.83"/>
</g>
<!-- Node4&#45;&gt;Node10 -->
<g id="edge9" class="edge">
<title>Node4&#45;&gt;Node10</title>
<path fill="none" stroke="midnightblue" d="M459.45,-137.88C505.66,-128.62 573.06,-114.17 631,-98 634.01,-97.16 637.13,-96.23 640.24,-95.26"/>
<polygon fill="midnightblue" stroke="midnightblue" points="641.6,-98.5 650.03,-92.08 639.44,-91.84 641.6,-98.5"/>
</g>
<!-- Node11 -->
<g id="node11" class="node">
<title>Node11</title>
<g id="a_node11"><a xlink:title=" ">
<polygon fill="white" stroke="#bfbfbf" points="91,-73 91,-92 141,-92 141,-73 91,-73"/>
<text text-anchor="middle" x="116" y="-80" font-family="Helvetica,sans-Serif" font-size="10.00">climits</text>
</a>
</g>
</g>
<!-- Node4&#45;&gt;Node11 -->
<g id="edge10" class="edge">
<title>Node4&#45;&gt;Node11</title>
<path fill="none" stroke="midnightblue" d="M348.71,-136.04C345.42,-135.34 342.17,-134.66 339,-134 255.26,-116.69 231.8,-122.92 150,-98 147.86,-97.35 145.66,-96.6 143.48,-95.8"/>
<polygon fill="midnightblue" stroke="midnightblue" points="144.67,-92.51 134.08,-92.06 142.08,-99.01 144.67,-92.51"/>
</g>
<!-- Node12 -->
<g id="node12" class="node">
<title>Node12</title>
<g id="a_node12"><a xlink:title=" ">
<polygon fill="white" stroke="#bfbfbf" points="159.5,-67.5 159.5,-97.5 276.5,-97.5 276.5,-67.5 159.5,-67.5"/>
<text text-anchor="start" x="167.5" y="-85.5" font-family="Helvetica,sans-Serif" font-size="10.00">packages/types/impl</text>
<text text-anchor="middle" x="218" y="-74.5" font-family="Helvetica,sans-Serif" font-size="10.00">/types_impl.hpp</text>
</a>
</g>
</g>
<!-- Node4&#45;&gt;Node12 -->
<g id="edge11" class="edge">
<title>Node4&#45;&gt;Node12</title>
<path fill="none" stroke="midnightblue" d="M363.64,-134.4C335.49,-124.56 297.74,-111.37 267.73,-100.88"/>
<polygon fill="midnightblue" stroke="midnightblue" points="268.88,-97.57 258.28,-97.58 266.57,-104.18 268.88,-97.57"/>
</g>
<!-- Node13 -->
<g id="node13" class="node">
<title>Node13</title>
<g id="a_node13"><a xlink:href="logging_8hpp.html" target="_top" xlink:title=" ">
<polygon fill="white" stroke="black" points="294.5,-67.5 294.5,-97.5 413.5,-97.5 413.5,-67.5 294.5,-67.5"/>
<text text-anchor="start" x="302.5" y="-85.5" font-family="Helvetica,sans-Serif" font-size="10.00">packages/macros/inc</text>
<text text-anchor="middle" x="354" y="-74.5" font-family="Helvetica,sans-Serif" font-size="10.00">/logging.hpp</text>
</a>
</g>
</g>
<!-- Node4&#45;&gt;Node13 -->
<g id="edge12" class="edge">
<title>Node4&#45;&gt;Node13</title>
<path fill="none" stroke="midnightblue" d="M393.15,-134.4C386.66,-125.96 378.28,-115.07 370.94,-105.52"/>
<polygon fill="midnightblue" stroke="midnightblue" points="373.7,-103.37 364.83,-97.58 368.15,-107.64 373.7,-103.37"/>
</g>
<!-- Node6 -->
<g id="node6" class="node">
<title>Node6</title>
<g id="a_node6"><a xlink:href="detail_8hpp.html" target="_top" xlink:title=" ">
<polygon fill="white" stroke="black" points="377.5,-0.5 377.5,-30.5 496.5,-30.5 496.5,-0.5 377.5,-0.5"/>
<text text-anchor="start" x="385.5" y="-18.5" font-family="Helvetica,sans-Serif" font-size="10.00">packages/macros/inc</text>
<text text-anchor="middle" x="437" y="-7.5" font-family="Helvetica,sans-Serif" font-size="10.00">/detail.hpp</text>
</a>
</g>
</g>
<!-- Node5&#45;&gt;Node6 -->
<g id="edge5" class="edge">
<title>Node5&#45;&gt;Node6</title>
<path fill="none" stroke="midnightblue" d="M479.28,-67.4C472.28,-58.96 463.23,-48.07 455.29,-38.52"/>
<polygon fill="midnightblue" stroke="midnightblue" points="457.78,-36.03 448.69,-30.58 452.39,-40.51 457.78,-36.03"/>
</g>
<!-- Node7 -->
<g id="node7" class="node">
<title>Node7</title>
<g id="a_node7"><a xlink:title=" ">
<polygon fill="white" stroke="#bfbfbf" points="515,-6 515,-25 575,-25 575,-6 515,-6"/>
<text text-anchor="middle" x="545" y="-13" font-family="Helvetica,sans-Serif" font-size="10.00">iostream</text>
</a>
</g>
</g>
<!-- Node5&#45;&gt;Node7 -->
<g id="edge6" class="edge">
<title>Node5&#45;&gt;Node7</title>
<path fill="none" stroke="midnightblue" d="M502.72,-67.4C511.14,-57.26 522.51,-43.57 531.34,-32.94"/>
<polygon fill="midnightblue" stroke="midnightblue" points="534.08,-35.12 537.78,-25.19 528.69,-30.65 534.08,-35.12"/>
</g>
<!-- Node17&#45;&gt;Node4 -->
<g id="edge18" class="edge">
<title>Node17&#45;&gt;Node4</title>
<path fill="none" stroke="midnightblue" d="M148.18,-202.97C151.15,-202.29 154.1,-201.63 157,-201 234.47,-184.01 256.64,-182.1 338.67,-165.03"/>
<polygon fill="midnightblue" stroke="midnightblue" points="339.63,-168.41 348.7,-162.93 338.2,-161.56 339.63,-168.41"/>
</g>
<!-- Node18&#45;&gt;Node4 -->
<g id="edge20" class="edge">
<title>Node18&#45;&gt;Node4</title>
<path fill="none" stroke="midnightblue" d="M448.73,-201.36C440.86,-192.41 431.51,-181.78 423.4,-172.56"/>
<polygon fill="midnightblue" stroke="midnightblue" points="425.89,-170.09 416.66,-164.89 420.63,-174.71 425.89,-170.09"/>
</g>
<!-- Node18&#45;&gt;Node10 -->
<g id="edge21" class="edge">
<title>Node18&#45;&gt;Node10</title>
<path fill="none" stroke="midnightblue" d="M531.25,-201.4C555.1,-192.47 581.48,-180.4 603,-165 627.95,-147.15 649.99,-118.85 662.66,-100.74"/>
<polygon fill="midnightblue" stroke="midnightblue" points="665.67,-102.54 668.4,-92.3 659.88,-98.6 665.67,-102.54"/>
</g>
<!-- Node19 -->
<g id="node19" class="node">
<title>Node19</title>
<g id="a_node19"><a xlink:title=" ">
<polygon fill="white" stroke="#bfbfbf" points="657.5,-140 657.5,-159 698.5,-159 698.5,-140 657.5,-140"/>
<text text-anchor="middle" x="678" y="-147" font-family="Helvetica,sans-Serif" font-size="10.00">tuple</text>
</a>
</g>
</g>
<!-- Node18&#45;&gt;Node19 -->
<g id="edge22" class="edge">
<title>Node18&#45;&gt;Node19</title>
<path fill="none" stroke="midnightblue" d="M528.68,-201.43C561.62,-190.96 602.62,-177.64 639,-165 641.91,-163.99 644.93,-162.91 647.95,-161.82"/>
<polygon fill="midnightblue" stroke="midnightblue" points="649.24,-165.08 657.41,-158.34 646.82,-158.51 649.24,-165.08"/>
</g>
<!-- Node22&#45;&gt;Node10 -->
<g id="edge32" class="edge">
<title>Node22&#45;&gt;Node10</title>
<path fill="none" stroke="midnightblue" d="M791.26,-288.91C818.54,-281.13 847.55,-267.36 864,-243 874.45,-227.53 866.05,-219.55 864,-201 860.65,-170.67 869.91,-156.22 849,-134 815.48,-98.38 758.58,-87.37 718.79,-84.23"/>
<polygon fill="midnightblue" stroke="midnightblue" points="718.77,-80.72 708.56,-83.57 718.31,-87.71 718.77,-80.72"/>
</g>
<!-- Node22&#45;&gt;Node14 -->
<g id="edge30" class="edge">
<title>Node22&#45;&gt;Node14</title>
<path fill="none" stroke="midnightblue" d="M704.46,-279.29C683.6,-259.36 650.3,-227.78 621,-201 608.09,-189.2 593.3,-176.11 582.02,-166.22"/>
<polygon fill="midnightblue" stroke="midnightblue" points="584,-163.3 574.17,-159.35 579.39,-168.57 584,-163.3"/>
</g>
<!-- Node22&#45;&gt;Node19 -->
<g id="edge33" class="edge">
<title>Node22&#45;&gt;Node19</title>
<path fill="none" stroke="midnightblue" d="M714.07,-279.27C708.61,-268.75 702.28,-255.45 698,-243 689.42,-218.05 683.74,-188 680.69,-169.07"/>
<polygon fill="midnightblue" stroke="midnightblue" points="684.14,-168.46 679.16,-159.1 677.22,-169.51 684.14,-168.46"/>
</g>
<!-- Node23 -->
<g id="node23" class="node">
<title>Node23</title>
<g id="a_node23"><a xlink:href="FunctionTraits_8hpp.html" target="_top" xlink:title=" ">
<polygon fill="white" stroke="black" points="706.5,-207 706.5,-237 837.5,-237 837.5,-207 706.5,-207"/>
<text text-anchor="start" x="714.5" y="-225" font-family="Helvetica,sans-Serif" font-size="10.00">packages/stl_extension</text>
<text text-anchor="middle" x="772" y="-214" font-family="Helvetica,sans-Serif" font-size="10.00">/inc/FunctionTraits.hpp</text>
</a>
</g>
</g>
<!-- Node22&#45;&gt;Node23 -->
<g id="edge26" class="edge">
<title>Node22&#45;&gt;Node23</title>
<path fill="none" stroke="midnightblue" d="M737.1,-279.43C743.41,-269.22 751.17,-256.68 757.77,-246.01"/>
<polygon fill="midnightblue" stroke="midnightblue" points="760.92,-247.57 763.2,-237.23 754.97,-243.89 760.92,-247.57"/>
</g>
<!-- Node24 -->
<g id="node24" class="node">
<title>Node24</title>
<g id="a_node24"><a xlink:title=" ">
<polygon fill="white" stroke="#bfbfbf" points="774.5,-140 774.5,-159 839.5,-159 839.5,-140 774.5,-140"/>
<text text-anchor="middle" x="807" y="-147" font-family="Helvetica,sans-Serif" font-size="10.00">functional</text>
</a>
</g>
</g>
<!-- Node22&#45;&gt;Node24 -->
<g id="edge31" class="edge">
<title>Node22&#45;&gt;Node24</title>
<path fill="none" stroke="midnightblue" d="M791.04,-284.06C812.62,-275.71 834.29,-262.81 847,-243 857.08,-227.29 853.14,-218.63 847,-201 842.39,-187.77 832.71,-175.39 824.03,-166.2"/>
<polygon fill="midnightblue" stroke="midnightblue" points="826.36,-163.58 816.81,-159 821.42,-168.54 826.36,-163.58"/>
</g>
<!-- Node23&#45;&gt;Node4 -->
<g id="edge27" class="edge">
<title>Node23&#45;&gt;Node4</title>
<path fill="none" stroke="midnightblue" d="M706.21,-208.4C639.15,-195.55 535.78,-175.75 469.01,-162.95"/>
<polygon fill="midnightblue" stroke="midnightblue" points="469.5,-159.49 459.02,-161.04 468.18,-166.36 469.5,-159.49"/>
</g>
<!-- Node23&#45;&gt;Node19 -->
<g id="edge29" class="edge">
<title>Node23&#45;&gt;Node19</title>
<path fill="none" stroke="midnightblue" d="M752.98,-206.73C736.95,-194.72 714.11,-177.58 697.85,-165.39"/>
<polygon fill="midnightblue" stroke="midnightblue" points="699.69,-162.39 689.59,-159.19 695.49,-167.99 699.69,-162.39"/>
</g>
<!-- Node23&#45;&gt;Node24 -->
<g id="edge28" class="edge">
<title>Node23&#45;&gt;Node24</title>
<path fill="none" stroke="midnightblue" d="M779.08,-206.73C784.58,-195.67 792.22,-180.27 798.12,-168.38"/>
<polygon fill="midnightblue" stroke="midnightblue" points="801.27,-169.91 802.58,-159.39 795,-166.79 801.27,-169.91"/>
</g>
</g>
</svg>
