<?xml version="1.0" encoding="UTF-8" standalone="no"?>
<!DOCTYPE svg PUBLIC "-//W3C//DTD SVG 1.1//EN"
 "http://www.w3.org/Graphics/SVG/1.1/DTD/svg11.dtd">
<!-- Generated by graphviz version 2.43.0 (0)
 -->
<!-- Title: TransformIterator.hpp Pages: 1 -->
<!--zoomable 379 -->

<svg id="main" version="1.1" xmlns="http://www.w3.org/2000/svg" xmlns:xlink="http://www.w3.org/1999/xlink" xml:space="preserve" onload="init(evt)">
<style type="text/css"><![CDATA[
.node, .edge {opacity: 0.7;}
.node.selected, .edge.selected {opacity: 1;}
.edge:hover path { stroke: red; }
.edge:hover polygon { stroke: red; fill: red; }
]]></style>

<defs>
  <circle id="rim" cx="0" cy="0" r="7"/>
  <circle id="rim2" cx="0" cy="0" r="3.5"/>
  <g id="zoomPlus">
    <use xlink:href="#rim" fill="#404040"><set attributeName="fill" to="#808080" begin="zoomplus.mouseover" end="zoomplus.mouseout"/></use>
    <path d="M-4,0h8M0,-4v8" fill="none" stroke="white" stroke-width="1.5" pointer-events="none"/>
  </g>
  <g id="zoomMin">
    <use xlink:href="#rim" fill="#404040"><set attributeName="fill" to="#808080" begin="zoomminus.mouseover" end="zoomminus.mouseout"/></use>
    <path d="M-4,0h8" fill="none" stroke="white" stroke-width="1.5" pointer-events="none"/>
  </g>
  <g id="arrowUp" transform="translate(30 24)">
    <use xlink:href="#rim"/>
    <path pointer-events="none" fill="none" stroke="white" stroke-width="1.5" d="M0,-3.0v7 M-2.5,-0.5L0,-3.0L2.5,-0.5"/>
  </g>
  <g id="arrowRight" transform="rotate(90) translate(36 -43)">
    <use xlink:href="#rim"/>
    <path pointer-events="none" fill="none" stroke="white" stroke-width="1.5" d="M0,-3.0v7 M-2.5,-0.5L0,-3.0L2.5,-0.5"/>
  </g>
  <g id="arrowDown" transform="rotate(180) translate(-30 -48)">
    <use xlink:href="#rim"/>
    <path pointer-events="none" fill="none" stroke="white" stroke-width="1.5" d="M0,-3.0v7 M-2.5,-0.5L0,-3.0L2.5,-0.5"/>
  </g>
  <g id="arrowLeft" transform="rotate(270) translate(-36 17)">
    <use xlink:href="#rim"/>
    <path pointer-events="none" fill="none" stroke="white" stroke-width="1.5" d="M0,-3.0v7 M-2.5,-0.5L0,-3.0L2.5,-0.5"/>
  </g>
  <g id="resetDef">
    <use xlink:href="#rim2" fill="#404040"><set attributeName="fill" to="#808080" begin="reset.mouseover" end="reset.mouseout"/></use>
  </g>
</defs>
<script type="application/ecmascript">
var viewWidth = 967;
var viewHeight = 379;
var sectionId = 'dynsection-0';
</script>
<script type="application/ecmascript" xlink:href="svg.min.js"/>
<svg id="graph" class="graph">
<g id="viewport">
<title>TransformIterator.hpp</title>
<!-- Node1 -->
<g id="Node000001" class="node">
<title>Node1</title>
<g id="a_Node000001"><a xlink:title=" ">
<polygon fill="#999999" stroke="#666666" points="721,-371 599,-371 599,-352 721,-352 721,-371"/>
<text text-anchor="middle" x="660" y="-359" font-family="Helvetica,sans-Serif" font-size="10.00">TransformIterator.hpp</text>
</a>
</g>
</g>
<!-- Node2 -->
<g id="Node000002" class="node">
<title>Node2</title>
<g id="a_Node000002"><a xlink:href="iterator__concepts_8hpp.html" target="_top" xlink:title=" ">
<polygon fill="white" stroke="#666666" points="547,-316 415,-316 415,-275 547,-275 547,-316"/>
<text text-anchor="start" x="423" y="-304" font-family="Helvetica,sans-Serif" font-size="10.00">packages/compile_time</text>
<text text-anchor="start" x="423" y="-293" font-family="Helvetica,sans-Serif" font-size="10.00">/packages/concepts/inc</text>
<text text-anchor="middle" x="481" y="-282" font-family="Helvetica,sans-Serif" font-size="10.00">/iterator_concepts.hpp</text>
</a>
</g>
</g>
<!-- Node1&#45;&gt;Node2 -->
<g id="edge1_Node000001_Node000002" class="edge">
<title>Node1&#45;&gt;Node2</title>
<g id="a_edge1_Node000001_Node000002"><a xlink:title=" ">
<path fill="none" stroke="#63b8ff" d="M635.86,-351.87C612.68,-343.58 576.65,-330.7 545.17,-319.44"/>
<polygon fill="#63b8ff" stroke="#63b8ff" points="546.16,-316.08 535.56,-316.01 543.8,-322.67 546.16,-316.08"/>
</a>
</g>
</g>
<!-- Node20 -->
<g id="Node000020" class="node">
<title>Node20</title>
<g id="a_Node000020"><a xlink:title=" ">
<polygon fill="#e0e0e0" stroke="#999999" points="686.5,-228 633.5,-228 633.5,-209 686.5,-209 686.5,-228"/>
<text text-anchor="middle" x="660" y="-216" font-family="Helvetica,sans-Serif" font-size="10.00">iterator</text>
</a>
</g>
</g>
<!-- Node1&#45;&gt;Node20 -->
<g id="edge34_Node000001_Node000020" class="edge">
<title>Node1&#45;&gt;Node20</title>
<g id="a_edge34_Node000001_Node000020"><a xlink:title=" ">
<path fill="none" stroke="#63b8ff" d="M660,-351.68C660,-329.23 660,-269.5 660,-238.61"/>
<polygon fill="#63b8ff" stroke="#63b8ff" points="663.5,-238.32 660,-228.32 656.5,-238.32 663.5,-238.32"/>
</a>
</g>
</g>
<!-- Node22 -->
<g id="Node000022" class="node">
<title>Node22</title>
<g id="a_Node000022"><a xlink:href="functional_8hpp.html" target="_top" xlink:title=" ">
<polygon fill="white" stroke="#666666" points="922,-316 790,-316 790,-275 922,-275 922,-316"/>
<text text-anchor="start" x="798" y="-304" font-family="Helvetica,sans-Serif" font-size="10.00">packages/compile_time</text>
<text text-anchor="start" x="798" y="-293" font-family="Helvetica,sans-Serif" font-size="10.00">/packages/concepts/inc</text>
<text text-anchor="middle" x="856" y="-282" font-family="Helvetica,sans-Serif" font-size="10.00">/functional.hpp</text>
</a>
</g>
</g>
<!-- Node1&#45;&gt;Node22 -->
<g id="edge25_Node000001_Node000022" class="edge">
<title>Node1&#45;&gt;Node22</title>
<g id="a_edge25_Node000001_Node000022"><a xlink:title=" ">
<path fill="none" stroke="#63b8ff" d="M686.43,-351.87C712.03,-343.51 751.95,-330.48 786.63,-319.15"/>
<polygon fill="#63b8ff" stroke="#63b8ff" points="787.83,-322.44 796.25,-316.01 785.66,-315.79 787.83,-322.44"/>
</a>
</g>
</g>
<!-- Node3 -->
<g id="Node000003" class="node">
<title>Node3</title>
<g id="a_Node000003"><a xlink:href="basic__concepts_8hpp.html" target="_top" xlink:title=" ">
<polygon fill="white" stroke="#666666" points="207,-239 75,-239 75,-198 207,-198 207,-239"/>
<text text-anchor="start" x="83" y="-227" font-family="Helvetica,sans-Serif" font-size="10.00">packages/compile_time</text>
<text text-anchor="start" x="83" y="-216" font-family="Helvetica,sans-Serif" font-size="10.00">/packages/concepts/inc</text>
<text text-anchor="middle" x="141" y="-205" font-family="Helvetica,sans-Serif" font-size="10.00">/basic_concepts.hpp</text>
</a>
</g>
</g>
<!-- Node2&#45;&gt;Node3 -->
<g id="edge2_Node000002_Node000003" class="edge">
<title>Node2&#45;&gt;Node3</title>
<g id="a_edge2_Node000002_Node000003"><a xlink:title=" ">
<path fill="none" stroke="#63b8ff" d="M414.92,-281.57C363.5,-271.31 290.13,-256.2 217.05,-239.2"/>
<polygon fill="#63b8ff" stroke="#63b8ff" points="217.74,-235.77 207.21,-236.9 216.15,-242.58 217.74,-235.77"/>
</a>
</g>
</g>
<!-- Node17 -->
<g id="Node000017" class="node">
<title>Node17</title>
<g id="a_Node000017"><a xlink:href="Size_8hpp.html" target="_top" xlink:title=" ">
<polygon fill="white" stroke="#666666" points="373,-239 225,-239 225,-198 373,-198 373,-239"/>
<text text-anchor="start" x="233" y="-227" font-family="Helvetica,sans-Serif" font-size="10.00">packages/compile_time</text>
<text text-anchor="start" x="233" y="-216" font-family="Helvetica,sans-Serif" font-size="10.00">/packages/parameter_pack</text>
<text text-anchor="middle" x="299" y="-205" font-family="Helvetica,sans-Serif" font-size="10.00">/inc/Size.hpp</text>
</a>
</g>
</g>
<!-- Node2&#45;&gt;Node17 -->
<g id="edge17_Node000002_Node000017" class="edge">
<title>Node2&#45;&gt;Node17</title>
<g id="a_edge17_Node000002_Node000017"><a xlink:title=" ">
<path fill="none" stroke="#63b8ff" d="M433.66,-274.99C409.84,-265.18 380.8,-253.21 355.79,-242.9"/>
<polygon fill="#63b8ff" stroke="#63b8ff" points="357,-239.62 346.42,-239.04 354.33,-246.09 357,-239.62"/>
</a>
</g>
</g>
<!-- Node18 -->
<g id="Node000018" class="node">
<title>Node18</title>
<g id="a_Node000018"><a xlink:href="Select_8hpp.html" target="_top" xlink:title=" ">
<polygon fill="white" stroke="#666666" points="615,-239 467,-239 467,-198 615,-198 615,-239"/>
<text text-anchor="start" x="475" y="-227" font-family="Helvetica,sans-Serif" font-size="10.00">packages/compile_time</text>
<text text-anchor="start" x="475" y="-216" font-family="Helvetica,sans-Serif" font-size="10.00">/packages/parameter_pack</text>
<text text-anchor="middle" x="541" y="-205" font-family="Helvetica,sans-Serif" font-size="10.00">/inc/Select.hpp</text>
</a>
</g>
</g>
<!-- Node2&#45;&gt;Node18 -->
<g id="edge19_Node000002_Node000018" class="edge">
<title>Node2&#45;&gt;Node18</title>
<g id="a_edge19_Node000002_Node000018"><a xlink:title=" ">
<path fill="none" stroke="#63b8ff" d="M496.76,-274.79C503.59,-266.27 511.68,-256.14 519.08,-246.9"/>
<polygon fill="#63b8ff" stroke="#63b8ff" points="521.83,-249.07 525.34,-239.07 516.36,-244.7 521.83,-249.07"/>
</a>
</g>
</g>
<!-- Node2&#45;&gt;Node20 -->
<g id="edge23_Node000002_Node000020" class="edge">
<title>Node2&#45;&gt;Node20</title>
<g id="a_edge23_Node000002_Node000020"><a xlink:title=" ">
<path fill="none" stroke="#63b8ff" d="M536.34,-274.88C563.15,-264.91 595.6,-252.14 624,-239 627.99,-237.15 632.16,-235.06 636.18,-232.95"/>
<polygon fill="#63b8ff" stroke="#63b8ff" points="638.02,-235.93 645.15,-228.09 634.69,-229.77 638.02,-235.93"/>
</a>
</g>
</g>
<!-- Node21 -->
<g id="Node000021" class="node">
<title>Node21</title>
<g id="a_Node000021"><a xlink:title=" ">
<polygon fill="#e0e0e0" stroke="#999999" points="449,-228 391,-228 391,-209 449,-209 449,-228"/>
<text text-anchor="middle" x="420" y="-216" font-family="Helvetica,sans-Serif" font-size="10.00">memory</text>
</a>
</g>
</g>
<!-- Node2&#45;&gt;Node21 -->
<g id="edge24_Node000002_Node000021" class="edge">
<title>Node2&#45;&gt;Node21</title>
<g id="a_edge24_Node000002_Node000021"><a xlink:title=" ">
<path fill="none" stroke="#63b8ff" d="M464.97,-274.79C455.18,-262.76 442.81,-247.54 433.51,-236.12"/>
<polygon fill="#63b8ff" stroke="#63b8ff" points="436.13,-233.79 427.11,-228.24 430.7,-238.2 436.13,-233.79"/>
</a>
</g>
</g>
<!-- Node4 -->
<g id="Node000004" class="node">
<title>Node4</title>
<g id="a_Node000004"><a xlink:href="types_8hpp.html" target="_top" xlink:title=" ">
<polygon fill="white" stroke="#666666" points="380,-162 270,-162 270,-132 380,-132 380,-162"/>
<text text-anchor="start" x="278" y="-150" font-family="Helvetica,sans-Serif" font-size="10.00">packages/types/inc</text>
<text text-anchor="middle" x="325" y="-139" font-family="Helvetica,sans-Serif" font-size="10.00">/types.hpp</text>
</a>
</g>
</g>
<!-- Node3&#45;&gt;Node4 -->
<g id="edge3_Node000003_Node000004" class="edge">
<title>Node3&#45;&gt;Node4</title>
<g id="a_edge3_Node000003_Node000004"><a xlink:title=" ">
<path fill="none" stroke="#63b8ff" d="M192.74,-197.96C219.61,-187.81 252.17,-175.51 278.27,-165.65"/>
<polygon fill="#63b8ff" stroke="#63b8ff" points="279.81,-168.81 287.92,-162 277.33,-162.26 279.81,-168.81"/>
</a>
</g>
</g>
<!-- Node10 -->
<g id="Node000010" class="node">
<title>Node10</title>
<g id="a_Node000010"><a xlink:title=" ">
<polygon fill="#e0e0e0" stroke="#999999" points="679.5,-90.5 610.5,-90.5 610.5,-71.5 679.5,-71.5 679.5,-90.5"/>
<text text-anchor="middle" x="645" y="-78.5" font-family="Helvetica,sans-Serif" font-size="10.00">type_traits</text>
</a>
</g>
</g>
<!-- Node3&#45;&gt;Node10 -->
<g id="edge14_Node000003_Node000010" class="edge">
<title>Node3&#45;&gt;Node10</title>
<g id="a_edge14_Node000003_Node000010"><a xlink:title=" ">
<path fill="none" stroke="#63b8ff" d="M207.21,-200.1C210.18,-199.38 213.12,-198.67 216,-198 292.47,-180.11 312.97,-181.7 389,-162 484.53,-137.25 506.87,-125.63 601,-96 603.41,-95.24 605.89,-94.46 608.39,-93.67"/>
<polygon fill="#63b8ff" stroke="#63b8ff" points="609.54,-96.97 618.02,-90.62 607.43,-90.3 609.54,-96.97"/>
</a>
</g>
</g>
<!-- Node14 -->
<g id="Node000014" class="node">
<title>Node14</title>
<g id="a_Node000014"><a xlink:title=" ">
<polygon fill="#e0e0e0" stroke="#999999" points="571,-156.5 511,-156.5 511,-137.5 571,-137.5 571,-156.5"/>
<text text-anchor="middle" x="541" y="-144.5" font-family="Helvetica,sans-Serif" font-size="10.00">concepts</text>
</a>
</g>
</g>
<!-- Node3&#45;&gt;Node14 -->
<g id="edge13_Node000003_Node000014" class="edge">
<title>Node3&#45;&gt;Node14</title>
<g id="a_edge13_Node000003_Node000014"><a xlink:title=" ">
<path fill="none" stroke="#63b8ff" d="M207.17,-199.91C210.15,-199.24 213.1,-198.6 216,-198 229.85,-195.14 417.12,-166.73 500.94,-154.05"/>
<polygon fill="#63b8ff" stroke="#63b8ff" points="501.5,-157.51 510.86,-152.55 500.45,-150.59 501.5,-157.51"/>
</a>
</g>
</g>
<!-- Node15 -->
<g id="Node000015" class="node">
<title>Node15</title>
<g id="a_Node000015"><a xlink:title=" ">
<polygon fill="#e0e0e0" stroke="#999999" points="133,-156.5 83,-156.5 83,-137.5 133,-137.5 133,-156.5"/>
<text text-anchor="middle" x="108" y="-144.5" font-family="Helvetica,sans-Serif" font-size="10.00">cstdint</text>
</a>
</g>
</g>
<!-- Node3&#45;&gt;Node15 -->
<g id="edge15_Node000003_Node000015" class="edge">
<title>Node3&#45;&gt;Node15</title>
<g id="a_edge15_Node000003_Node000015"><a xlink:title=" ">
<path fill="none" stroke="#63b8ff" d="M131.63,-197.77C126.88,-187.76 121.15,-175.7 116.52,-165.95"/>
<polygon fill="#63b8ff" stroke="#63b8ff" points="119.64,-164.35 112.19,-156.82 113.32,-167.35 119.64,-164.35"/>
</a>
</g>
</g>
<!-- Node16 -->
<g id="Node000016" class="node">
<title>Node16</title>
<g id="a_Node000016"><a xlink:title=" ">
<polygon fill="#e0e0e0" stroke="#999999" points="196.5,-156.5 151.5,-156.5 151.5,-137.5 196.5,-137.5 196.5,-156.5"/>
<text text-anchor="middle" x="174" y="-144.5" font-family="Helvetica,sans-Serif" font-size="10.00">utility</text>
</a>
</g>
</g>
<!-- Node3&#45;&gt;Node16 -->
<g id="edge16_Node000003_Node000016" class="edge">
<title>Node3&#45;&gt;Node16</title>
<g id="a_edge16_Node000003_Node000016"><a xlink:title=" ">
<path fill="none" stroke="#63b8ff" d="M150.37,-197.77C155.12,-187.76 160.85,-175.7 165.48,-165.95"/>
<polygon fill="#63b8ff" stroke="#63b8ff" points="168.68,-167.35 169.81,-156.82 162.36,-164.35 168.68,-167.35"/>
</a>
</g>
</g>
<!-- Node5 -->
<g id="Node000005" class="node">
<title>Node5</title>
<g id="a_Node000005"><a xlink:href="debug_8hpp.html" target="_top" xlink:title=" ">
<polygon fill="white" stroke="#666666" points="521.5,-96 402.5,-96 402.5,-66 521.5,-66 521.5,-96"/>
<text text-anchor="start" x="410.5" y="-84" font-family="Helvetica,sans-Serif" font-size="10.00">packages/macros/inc</text>
<text text-anchor="middle" x="462" y="-73" font-family="Helvetica,sans-Serif" font-size="10.00">/debug.hpp</text>
</a>
</g>
</g>
<!-- Node4&#45;&gt;Node5 -->
<g id="edge4_Node000004_Node000005" class="edge">
<title>Node4&#45;&gt;Node5</title>
<g id="a_edge4_Node000004_Node000005"><a xlink:title=" ">
<path fill="none" stroke="#63b8ff" d="M355.07,-131.95C374.96,-122.66 401.26,-110.38 422.79,-100.32"/>
<polygon fill="#63b8ff" stroke="#63b8ff" points="424.43,-103.42 432,-96.01 421.46,-97.07 424.43,-103.42"/>
</a>
</g>
</g>
<!-- Node8 -->
<g id="Node000008" class="node">
<title>Node8</title>
<g id="a_Node000008"><a xlink:title=" ">
<polygon fill="#e0e0e0" stroke="#999999" points="592.5,-90.5 539.5,-90.5 539.5,-71.5 592.5,-71.5 592.5,-90.5"/>
<text text-anchor="middle" x="566" y="-78.5" font-family="Helvetica,sans-Serif" font-size="10.00">cstddef</text>
</a>
</g>
</g>
<!-- Node4&#45;&gt;Node8 -->
<g id="edge7_Node000004_Node000008" class="edge">
<title>Node4&#45;&gt;Node8</title>
<g id="a_edge7_Node000004_Node000008"><a xlink:title=" ">
<path fill="none" stroke="#63b8ff" d="M380.36,-134.57C421.92,-125.49 480.03,-111.73 530,-96 531.87,-95.41 533.78,-94.77 535.71,-94.11"/>
<polygon fill="#63b8ff" stroke="#63b8ff" points="537.04,-97.34 545.23,-90.61 534.63,-90.77 537.04,-97.34"/>
</a>
</g>
</g>
<!-- Node9 -->
<g id="Node000009" class="node">
<title>Node9</title>
<g id="a_Node000009"><a xlink:title=" ">
<polygon fill="#e0e0e0" stroke="#999999" points="44,-90.5 0,-90.5 0,-71.5 44,-71.5 44,-90.5"/>
<text text-anchor="middle" x="22" y="-78.5" font-family="Helvetica,sans-Serif" font-size="10.00">string</text>
</a>
</g>
</g>
<!-- Node4&#45;&gt;Node9 -->
<g id="edge8_Node000004_Node000009" class="edge">
<title>Node4&#45;&gt;Node9</title>
<g id="a_edge8_Node000004_Node000009"><a xlink:title=" ">
<path fill="none" stroke="#63b8ff" d="M269.87,-139.85C214.24,-132.72 126.32,-118.92 53,-96 51.56,-95.55 50.09,-95.05 48.62,-94.51"/>
<polygon fill="#63b8ff" stroke="#63b8ff" points="49.67,-91.16 39.09,-90.61 47.02,-97.64 49.67,-91.16"/>
</a>
</g>
</g>
<!-- Node4&#45;&gt;Node10 -->
<g id="edge9_Node000004_Node000010" class="edge">
<title>Node4&#45;&gt;Node10</title>
<g id="a_edge9_Node000004_Node000010"><a xlink:title=" ">
<path fill="none" stroke="#63b8ff" d="M380.04,-136.89C448.13,-125.48 560.06,-106.18 601,-96 604.01,-95.25 607.12,-94.41 610.23,-93.52"/>
<polygon fill="#63b8ff" stroke="#63b8ff" points="611.47,-96.8 620.03,-90.56 609.45,-90.1 611.47,-96.8"/>
</a>
</g>
</g>
<!-- Node11 -->
<g id="Node000011" class="node">
<title>Node11</title>
<g id="a_Node000011"><a xlink:title=" ">
<polygon fill="#e0e0e0" stroke="#999999" points="112,-90.5 62,-90.5 62,-71.5 112,-71.5 112,-90.5"/>
<text text-anchor="middle" x="87" y="-78.5" font-family="Helvetica,sans-Serif" font-size="10.00">climits</text>
</a>
</g>
</g>
<!-- Node4&#45;&gt;Node11 -->
<g id="edge10_Node000004_Node000011" class="edge">
<title>Node4&#45;&gt;Node11</title>
<g id="a_edge10_Node000004_Node000011"><a xlink:title=" ">
<path fill="none" stroke="#63b8ff" d="M269.82,-134.83C228.42,-125.88 170.57,-112.18 121,-96 119.33,-95.46 117.63,-94.87 115.92,-94.25"/>
<polygon fill="#63b8ff" stroke="#63b8ff" points="116.82,-90.84 106.23,-90.51 114.3,-97.37 116.82,-90.84"/>
</a>
</g>
</g>
<!-- Node12 -->
<g id="Node000012" class="node">
<title>Node12</title>
<g id="a_Node000012"><a xlink:title=" ">
<polygon fill="#e0e0e0" stroke="#999999" points="247.5,-96 130.5,-96 130.5,-66 247.5,-66 247.5,-96"/>
<text text-anchor="start" x="138.5" y="-84" font-family="Helvetica,sans-Serif" font-size="10.00">packages/types/impl</text>
<text text-anchor="middle" x="189" y="-73" font-family="Helvetica,sans-Serif" font-size="10.00">/types_impl.hpp</text>
</a>
</g>
</g>
<!-- Node4&#45;&gt;Node12 -->
<g id="edge11_Node000004_Node000012" class="edge">
<title>Node4&#45;&gt;Node12</title>
<g id="a_edge11_Node000004_Node000012"><a xlink:title=" ">
<path fill="none" stroke="#63b8ff" d="M295.15,-131.95C275.4,-122.66 249.3,-110.38 227.92,-100.32"/>
<polygon fill="#63b8ff" stroke="#63b8ff" points="229.31,-97.1 218.78,-96.01 226.33,-103.44 229.31,-97.1"/>
</a>
</g>
</g>
<!-- Node13 -->
<g id="Node000013" class="node">
<title>Node13</title>
<g id="a_Node000013"><a xlink:href="logging_8hpp.html" target="_top" xlink:title=" ">
<polygon fill="white" stroke="#666666" points="384.5,-96 265.5,-96 265.5,-66 384.5,-66 384.5,-96"/>
<text text-anchor="start" x="273.5" y="-84" font-family="Helvetica,sans-Serif" font-size="10.00">packages/macros/inc</text>
<text text-anchor="middle" x="325" y="-73" font-family="Helvetica,sans-Serif" font-size="10.00">/logging.hpp</text>
</a>
</g>
</g>
<!-- Node4&#45;&gt;Node13 -->
<g id="edge12_Node000004_Node000013" class="edge">
<title>Node4&#45;&gt;Node13</title>
<g id="a_edge12_Node000004_Node000013"><a xlink:title=" ">
<path fill="none" stroke="#63b8ff" d="M325,-131.8C325,-124.34 325,-114.99 325,-106.41"/>
<polygon fill="#63b8ff" stroke="#63b8ff" points="328.5,-106.16 325,-96.16 321.5,-106.16 328.5,-106.16"/>
</a>
</g>
</g>
<!-- Node6 -->
<g id="Node000006" class="node">
<title>Node6</title>
<g id="a_Node000006"><a xlink:href="detail_8hpp.html" target="_top" xlink:title=" ">
<polygon fill="white" stroke="#666666" points="467.5,-30 348.5,-30 348.5,0 467.5,0 467.5,-30"/>
<text text-anchor="start" x="356.5" y="-18" font-family="Helvetica,sans-Serif" font-size="10.00">packages/macros/inc</text>
<text text-anchor="middle" x="408" y="-7" font-family="Helvetica,sans-Serif" font-size="10.00">/detail.hpp</text>
</a>
</g>
</g>
<!-- Node5&#45;&gt;Node6 -->
<g id="edge5_Node000005_Node000006" class="edge">
<title>Node5&#45;&gt;Node6</title>
<g id="a_edge5_Node000005_Node000006"><a xlink:title=" ">
<path fill="none" stroke="#63b8ff" d="M450.02,-65.8C443.09,-57.59 434.24,-47.1 426.45,-37.87"/>
<polygon fill="#63b8ff" stroke="#63b8ff" points="429.07,-35.55 419.95,-30.16 423.72,-40.06 429.07,-35.55"/>
</a>
</g>
</g>
<!-- Node7 -->
<g id="Node000007" class="node">
<title>Node7</title>
<g id="a_Node000007"><a xlink:title=" ">
<polygon fill="#e0e0e0" stroke="#999999" points="546,-24.5 486,-24.5 486,-5.5 546,-5.5 546,-24.5"/>
<text text-anchor="middle" x="516" y="-12.5" font-family="Helvetica,sans-Serif" font-size="10.00">iostream</text>
</a>
</g>
</g>
<!-- Node5&#45;&gt;Node7 -->
<g id="edge6_Node000005_Node000007" class="edge">
<title>Node5&#45;&gt;Node7</title>
<g id="a_edge6_Node000005_Node000007"><a xlink:title=" ">
<path fill="none" stroke="#63b8ff" d="M473.98,-65.8C482.24,-56.01 493.24,-42.98 501.91,-32.7"/>
<polygon fill="#63b8ff" stroke="#63b8ff" points="504.76,-34.74 508.54,-24.84 499.41,-30.23 504.76,-34.74"/>
</a>
</g>
</g>
<!-- Node17&#45;&gt;Node4 -->
<g id="edge18_Node000017_Node000004" class="edge">
<title>Node17&#45;&gt;Node4</title>
<g id="a_edge18_Node000017_Node000004"><a xlink:title=" ">
<path fill="none" stroke="#63b8ff" d="M306.38,-197.77C309.45,-189.58 313.03,-180.01 316.22,-171.46"/>
<polygon fill="#63b8ff" stroke="#63b8ff" points="319.52,-172.63 319.75,-162.04 312.97,-170.18 319.52,-172.63"/>
</a>
</g>
</g>
<!-- Node18&#45;&gt;Node4 -->
<g id="edge20_Node000018_Node000004" class="edge">
<title>Node18&#45;&gt;Node4</title>
<g id="a_edge20_Node000018_Node000004"><a xlink:title=" ">
<path fill="none" stroke="#63b8ff" d="M480.26,-197.96C448.17,-187.63 409.14,-175.07 378.25,-165.13"/>
<polygon fill="#63b8ff" stroke="#63b8ff" points="379.11,-161.74 368.52,-162 376.97,-168.4 379.11,-161.74"/>
</a>
</g>
</g>
<!-- Node18&#45;&gt;Node14 -->
<g id="edge22_Node000018_Node000014" class="edge">
<title>Node18&#45;&gt;Node14</title>
<g id="a_edge22_Node000018_Node000014"><a xlink:title=" ">
<path fill="none" stroke="#63b8ff" d="M541,-197.77C541,-188.08 541,-176.46 541,-166.88"/>
<polygon fill="#63b8ff" stroke="#63b8ff" points="544.5,-166.82 541,-156.82 537.5,-166.82 544.5,-166.82"/>
</a>
</g>
</g>
<!-- Node19 -->
<g id="Node000019" class="node">
<title>Node19</title>
<g id="a_Node000019"><a xlink:title=" ">
<polygon fill="#e0e0e0" stroke="#999999" points="829.5,-156.5 788.5,-156.5 788.5,-137.5 829.5,-137.5 829.5,-156.5"/>
<text text-anchor="middle" x="809" y="-144.5" font-family="Helvetica,sans-Serif" font-size="10.00">tuple</text>
</a>
</g>
</g>
<!-- Node18&#45;&gt;Node19 -->
<g id="edge21_Node000018_Node000019" class="edge">
<title>Node18&#45;&gt;Node19</title>
<g id="a_edge21_Node000018_Node000019"><a xlink:title=" ">
<path fill="none" stroke="#63b8ff" d="M615.3,-198.23C669.19,-184.26 739.28,-166.08 778.67,-155.86"/>
<polygon fill="#63b8ff" stroke="#63b8ff" points="779.66,-159.22 788.46,-153.33 777.91,-152.45 779.66,-159.22"/>
</a>
</g>
</g>
<!-- Node22&#45;&gt;Node10 -->
<g id="edge32_Node000022_Node000010" class="edge">
<title>Node22&#45;&gt;Node10</title>
<g id="a_edge32_Node000022_Node000010"><a xlink:title=" ">
<path fill="none" stroke="#63b8ff" d="M895.72,-274.98C909.82,-266 924.33,-253.97 933,-239 956.9,-197.73 971.78,-168.42 941,-132 909.35,-94.56 764.33,-85.14 689.69,-82.78"/>
<polygon fill="#63b8ff" stroke="#63b8ff" points="689.74,-79.28 679.64,-82.5 689.53,-86.28 689.74,-79.28"/>
</a>
</g>
</g>
<!-- Node22&#45;&gt;Node14 -->
<g id="edge30_Node000022_Node000014" class="edge">
<title>Node22&#45;&gt;Node14</title>
<g id="a_edge30_Node000022_Node000014"><a xlink:title=" ">
<path fill="none" stroke="#63b8ff" d="M802.5,-274.97C780.58,-265.73 755.59,-253.51 735,-239 714.19,-224.33 716.63,-211.43 695,-198 659.66,-176.05 613.72,-162.77 581.24,-155.47"/>
<polygon fill="#63b8ff" stroke="#63b8ff" points="581.71,-151.99 571.2,-153.31 580.24,-158.83 581.71,-151.99"/>
</a>
</g>
</g>
<!-- Node22&#45;&gt;Node19 -->
<g id="edge33_Node000022_Node000019" class="edge">
<title>Node22&#45;&gt;Node19</title>
<g id="a_edge33_Node000022_Node000019"><a xlink:title=" ">
<path fill="none" stroke="#63b8ff" d="M870.18,-274.73C882.76,-254.55 897.25,-222.76 884,-198 874.49,-180.24 855.58,-167.7 839.13,-159.62"/>
<polygon fill="#63b8ff" stroke="#63b8ff" points="840.37,-156.33 829.82,-155.37 837.46,-162.7 840.37,-156.33"/>
</a>
</g>
</g>
<!-- Node23 -->
<g id="Node000023" class="node">
<title>Node23</title>
<g id="a_Node000023"><a xlink:href="FunctionTraits_8hpp.html" target="_top" xlink:title=" ">
<polygon fill="white" stroke="#666666" points="874.5,-233.5 743.5,-233.5 743.5,-203.5 874.5,-203.5 874.5,-233.5"/>
<text text-anchor="start" x="751.5" y="-221.5" font-family="Helvetica,sans-Serif" font-size="10.00">packages/stl_extension</text>
<text text-anchor="middle" x="809" y="-210.5" font-family="Helvetica,sans-Serif" font-size="10.00">/inc/FunctionTraits.hpp</text>
</a>
</g>
</g>
<!-- Node22&#45;&gt;Node23 -->
<g id="edge26_Node000022_Node000023" class="edge">
<title>Node22&#45;&gt;Node23</title>
<g id="a_edge26_Node000022_Node000023"><a xlink:title=" ">
<path fill="none" stroke="#63b8ff" d="M843.65,-274.79C837.42,-264.86 829.84,-252.75 823.35,-242.4"/>
<polygon fill="#63b8ff" stroke="#63b8ff" points="826.28,-240.48 818,-233.86 820.34,-244.19 826.28,-240.48"/>
</a>
</g>
</g>
<!-- Node24 -->
<g id="Node000024" class="node">
<title>Node24</title>
<g id="a_Node000024"><a xlink:title=" ">
<polygon fill="#e0e0e0" stroke="#999999" points="931.5,-156.5 866.5,-156.5 866.5,-137.5 931.5,-137.5 931.5,-156.5"/>
<text text-anchor="middle" x="899" y="-144.5" font-family="Helvetica,sans-Serif" font-size="10.00">functional</text>
</a>
</g>
</g>
<!-- Node22&#45;&gt;Node24 -->
<g id="edge31_Node000022_Node000024" class="edge">
<title>Node22&#45;&gt;Node24</title>
<g id="a_edge31_Node000022_Node000024"><a xlink:title=" ">
<path fill="none" stroke="#63b8ff" d="M886.68,-274.99C898.47,-265.68 910.63,-253.4 917,-239 927.6,-215.01 917.43,-184.72 908.63,-165.85"/>
<polygon fill="#63b8ff" stroke="#63b8ff" points="911.63,-164.03 904.02,-156.66 905.37,-167.16 911.63,-164.03"/>
</a>
</g>
</g>
<!-- Node23&#45;&gt;Node4 -->
<g id="edge27_Node000023_Node000004" class="edge">
<title>Node23&#45;&gt;Node4</title>
<g id="a_edge27_Node000023_Node000004"><a xlink:title=" ">
<path fill="none" stroke="#63b8ff" d="M743.36,-205.87C727.54,-203.18 710.68,-200.4 695,-198 588.52,-181.7 464.37,-165.49 390.35,-156.13"/>
<polygon fill="#63b8ff" stroke="#63b8ff" points="390.61,-152.63 380.25,-154.85 389.73,-159.58 390.61,-152.63"/>
</a>
</g>
</g>
<!-- Node23&#45;&gt;Node19 -->
<g id="edge29_Node000023_Node000019" class="edge">
<title>Node23&#45;&gt;Node19</title>
<g id="a_edge29_Node000023_Node000019"><a xlink:title=" ">
<path fill="none" stroke="#63b8ff" d="M809,-203.44C809,-192.96 809,-178.55 809,-167.05"/>
<polygon fill="#63b8ff" stroke="#63b8ff" points="812.5,-166.77 809,-156.77 805.5,-166.77 812.5,-166.77"/>
</a>
</g>
</g>
<!-- Node23&#45;&gt;Node24 -->
<g id="edge28_Node000023_Node000024" class="edge">
<title>Node23&#45;&gt;Node24</title>
<g id="a_edge28_Node000023_Node000024"><a xlink:title=" ">
<path fill="none" stroke="#63b8ff" d="M827.21,-203.44C842.55,-191.59 864.43,-174.7 879.99,-162.68"/>
<polygon fill="#63b8ff" stroke="#63b8ff" points="882.13,-165.45 887.91,-156.57 877.85,-159.91 882.13,-165.45"/>
</a>
</g>
</g>
</g>
</svg>

<g id="navigator" transform="translate(0 0)" fill="#404254">
  <rect fill="#f2f5e9" fill-opacity="0.5" stroke="#606060" stroke-width=".5" x="0" y="0" width="60" height="60"/>
  <use id="zoomplus" xlink:href="#zoomPlus" x="17" y="9" onmousedown="handleZoom(evt,'in')"/>
  <use id="zoomminus" xlink:href="#zoomMin" x="42" y="9" onmousedown="handleZoom(evt,'out')"/>
  <use id="reset" xlink:href="#resetDef" x="30" y="36" onmousedown="handleReset()"/>
   <use id="arrowup" xlink:href="#arrowUp" x="0" y="0" onmousedown="handlePan(0,-1)"/>
  <use id="arrowright" xlink:href="#arrowRight" x="0" y="0" onmousedown="handlePan(1,0)"/>
  <use id="arrowdown" xlink:href="#arrowDown" x="0" y="0" onmousedown="handlePan(0,1)"/>
  <use id="arrowleft" xlink:href="#arrowLeft" x="0" y="0" onmousedown="handlePan(-1,0)"/>
</g>
<svg viewBox="0 0 15 15" width="100%" height="30px" preserveAspectRatio="xMaxYMin meet">
 <g id="arrow_out" transform="scale(0.3 0.3)">
  <a xlink:href="TransformIterator_8hpp__incl_org.svg" target="_base">
   <rect id="button" ry="5" rx="5" y="6" x="6" height="38" width="38"
        fill="#f2f5e9" fill-opacity="0.5" stroke="#606060" stroke-width="1.0"/>
   <path id="arrow"
     d="M 11.500037,31.436501 C 11.940474,20.09759 22.043105,11.32322 32.158766,21.979434 L 37.068811,17.246167 C 37.068811,17.246167 37.088388,32 37.088388,32 L 22.160133,31.978069 C 22.160133,31.978069 26.997745,27.140456 26.997745,27.140456 C 18.528582,18.264221 13.291696,25.230495 11.500037,31.436501 z"
     style="fill:#404040;"/>
  </a>
 </g>
</svg>

<style type='text/css'>
<![CDATA[
[data-mouse-over-selected='false'] { opacity: 0.7; }
[data-mouse-over-selected='true']  { opacity: 1.0; }
]]>
</style>
<script type="application/ecmascript"><![CDATA[
document.addEventListener('DOMContentLoaded', (event) => {
  highlightEdges();
  highlightAdjacentNodes();
});
]]></script>
</svg>
