<?xml version="1.0" encoding="UTF-8" standalone="no"?>
<!DOCTYPE svg PUBLIC "-//W3C//DTD SVG 1.1//EN"
 "http://www.w3.org/Graphics/SVG/1.1/DTD/svg11.dtd">
<!-- Generated by graphviz version 2.43.0 (0)
 -->
<!-- Title: types.hpp Pages: 1 -->
<svg width="743pt" height="162pt"
 viewBox="0.00 0.00 743.00 162.00" xmlns="http://www.w3.org/2000/svg" xmlns:xlink="http://www.w3.org/1999/xlink">
<g id="graph0" class="graph" transform="scale(1 1) rotate(0) translate(4 158)">
<title>types.hpp</title>
<polygon fill="white" stroke="transparent" points="-4,4 -4,-158 739,-158 739,4 -4,4"/>
<!-- Node1 -->
<g id="node1" class="node">
<title>Node1</title>
<g id="a_node1"><a xlink:title=" ">
<polygon fill="#bfbfbf" stroke="black" points="327,-134.5 327,-153.5 392,-153.5 392,-134.5 327,-134.5"/>
<text text-anchor="middle" x="359.5" y="-141.5" font-family="Helvetica,sans-Serif" font-size="10.00">types.hpp</text>
</a>
</g>
</g>
<!-- Node2 -->
<g id="node2" class="node">
<title>Node2</title>
<g id="a_node2"><a xlink:href="debug_8hpp.html" target="_top" xlink:title=" ">
<polygon fill="white" stroke="black" points="54,-67.5 54,-97.5 173,-97.5 173,-67.5 54,-67.5"/>
<text text-anchor="start" x="62" y="-85.5" font-family="Helvetica,sans-Serif" font-size="10.00">packages/macros/inc</text>
<text text-anchor="middle" x="113.5" y="-74.5" font-family="Helvetica,sans-Serif" font-size="10.00">/debug.hpp</text>
</a>
</g>
</g>
<!-- Node1&#45;&gt;Node2 -->
<g id="edge1" class="edge">
<title>Node1&#45;&gt;Node2</title>
<path fill="none" stroke="midnightblue" d="M326.83,-135.1C289.98,-126.19 229.03,-111.44 181.69,-99.99"/>
<polygon fill="midnightblue" stroke="midnightblue" points="182.35,-96.55 171.81,-97.6 180.7,-103.36 182.35,-96.55"/>
</g>
<!-- Node5 -->
<g id="node5" class="node">
<title>Node5</title>
<g id="a_node5"><a xlink:title=" ">
<polygon fill="white" stroke="#bfbfbf" points="191,-73 191,-92 244,-92 244,-73 191,-73"/>
<text text-anchor="middle" x="217.5" y="-80" font-family="Helvetica,sans-Serif" font-size="10.00">cstddef</text>
</a>
</g>
</g>
<!-- Node1&#45;&gt;Node5 -->
<g id="edge4" class="edge">
<title>Node1&#45;&gt;Node5</title>
<path fill="none" stroke="midnightblue" d="M339.15,-134.48C315.11,-124.4 274.9,-107.55 247.34,-96"/>
<polygon fill="midnightblue" stroke="midnightblue" points="248.38,-92.65 237.81,-92.01 245.68,-99.1 248.38,-92.65"/>
</g>
<!-- Node6 -->
<g id="node6" class="node">
<title>Node6</title>
<g id="a_node6"><a xlink:title=" ">
<polygon fill="white" stroke="#bfbfbf" points="262.5,-73 262.5,-92 306.5,-92 306.5,-73 262.5,-73"/>
<text text-anchor="middle" x="284.5" y="-80" font-family="Helvetica,sans-Serif" font-size="10.00">string</text>
</a>
</g>
</g>
<!-- Node1&#45;&gt;Node6 -->
<g id="edge5" class="edge">
<title>Node1&#45;&gt;Node6</title>
<path fill="none" stroke="midnightblue" d="M348.75,-134.48C336.95,-125.11 317.76,-109.88 303.42,-98.51"/>
<polygon fill="midnightblue" stroke="midnightblue" points="305.24,-95.48 295.23,-92.01 300.88,-100.97 305.24,-95.48"/>
</g>
<!-- Node7 -->
<g id="node7" class="node">
<title>Node7</title>
<g id="a_node7"><a xlink:title=" ">
<polygon fill="white" stroke="#bfbfbf" points="325,-73 325,-92 394,-92 394,-73 325,-73"/>
<text text-anchor="middle" x="359.5" y="-80" font-family="Helvetica,sans-Serif" font-size="10.00">type_traits</text>
</a>
</g>
</g>
<!-- Node1&#45;&gt;Node7 -->
<g id="edge6" class="edge">
<title>Node1&#45;&gt;Node7</title>
<path fill="none" stroke="midnightblue" d="M359.5,-134.48C359.5,-126.08 359.5,-112.98 359.5,-102.16"/>
<polygon fill="midnightblue" stroke="midnightblue" points="363,-102.01 359.5,-92.01 356,-102.01 363,-102.01"/>
</g>
<!-- Node8 -->
<g id="node8" class="node">
<title>Node8</title>
<g id="a_node8"><a xlink:title=" ">
<polygon fill="white" stroke="#bfbfbf" points="412.5,-73 412.5,-92 462.5,-92 462.5,-73 412.5,-73"/>
<text text-anchor="middle" x="437.5" y="-80" font-family="Helvetica,sans-Serif" font-size="10.00">climits</text>
</a>
</g>
</g>
<!-- Node1&#45;&gt;Node8 -->
<g id="edge7" class="edge">
<title>Node1&#45;&gt;Node8</title>
<path fill="none" stroke="midnightblue" d="M370.68,-134.48C383.07,-125.02 403.29,-109.6 418.25,-98.19"/>
<polygon fill="midnightblue" stroke="midnightblue" points="420.52,-100.86 426.35,-92.01 416.27,-95.29 420.52,-100.86"/>
</g>
<!-- Node9 -->
<g id="node9" class="node">
<title>Node9</title>
<g id="a_node9"><a xlink:title=" ">
<polygon fill="white" stroke="#bfbfbf" points="481,-67.5 481,-97.5 598,-97.5 598,-67.5 481,-67.5"/>
<text text-anchor="start" x="489" y="-85.5" font-family="Helvetica,sans-Serif" font-size="10.00">packages/types/impl</text>
<text text-anchor="middle" x="539.5" y="-74.5" font-family="Helvetica,sans-Serif" font-size="10.00">/types_impl.hpp</text>
</a>
</g>
</g>
<!-- Node1&#45;&gt;Node9 -->
<g id="edge8" class="edge">
<title>Node1&#45;&gt;Node9</title>
<path fill="none" stroke="midnightblue" d="M385.29,-134.48C411.83,-125.7 453.92,-111.79 487.43,-100.71"/>
<polygon fill="midnightblue" stroke="midnightblue" points="488.68,-103.98 497.08,-97.52 486.48,-97.34 488.68,-103.98"/>
</g>
<!-- Node10 -->
<g id="node10" class="node">
<title>Node10</title>
<g id="a_node10"><a xlink:href="logging_8hpp.html" target="_top" xlink:title=" ">
<polygon fill="white" stroke="black" points="616,-67.5 616,-97.5 735,-97.5 735,-67.5 616,-67.5"/>
<text text-anchor="start" x="624" y="-85.5" font-family="Helvetica,sans-Serif" font-size="10.00">packages/macros/inc</text>
<text text-anchor="middle" x="675.5" y="-74.5" font-family="Helvetica,sans-Serif" font-size="10.00">/logging.hpp</text>
</a>
</g>
</g>
<!-- Node1&#45;&gt;Node10 -->
<g id="edge9" class="edge">
<title>Node1&#45;&gt;Node10</title>
<path fill="none" stroke="midnightblue" d="M392.06,-137.42C437.66,-129.53 523.4,-114.44 605.79,-98.31"/>
<polygon fill="midnightblue" stroke="midnightblue" points="606.68,-101.7 615.82,-96.33 605.33,-94.83 606.68,-101.7"/>
</g>
<!-- Node3 -->
<g id="node3" class="node">
<title>Node3</title>
<g id="a_node3"><a xlink:href="detail_8hpp.html" target="_top" xlink:title=" ">
<polygon fill="white" stroke="black" points="0,-0.5 0,-30.5 119,-30.5 119,-0.5 0,-0.5"/>
<text text-anchor="start" x="8" y="-18.5" font-family="Helvetica,sans-Serif" font-size="10.00">packages/macros/inc</text>
<text text-anchor="middle" x="59.5" y="-7.5" font-family="Helvetica,sans-Serif" font-size="10.00">/detail.hpp</text>
</a>
</g>
</g>
<!-- Node2&#45;&gt;Node3 -->
<g id="edge2" class="edge">
<title>Node2&#45;&gt;Node3</title>
<path fill="none" stroke="midnightblue" d="M101.78,-67.4C94.78,-58.96 85.73,-48.07 77.79,-38.52"/>
<polygon fill="midnightblue" stroke="midnightblue" points="80.28,-36.03 71.19,-30.58 74.89,-40.51 80.28,-36.03"/>
</g>
<!-- Node4 -->
<g id="node4" class="node">
<title>Node4</title>
<g id="a_node4"><a xlink:title=" ">
<polygon fill="white" stroke="#bfbfbf" points="137.5,-6 137.5,-25 197.5,-25 197.5,-6 137.5,-6"/>
<text text-anchor="middle" x="167.5" y="-13" font-family="Helvetica,sans-Serif" font-size="10.00">iostream</text>
</a>
</g>
</g>
<!-- Node2&#45;&gt;Node4 -->
<g id="edge3" class="edge">
<title>Node2&#45;&gt;Node4</title>
<path fill="none" stroke="midnightblue" d="M125.22,-67.4C133.64,-57.26 145.01,-43.57 153.84,-32.94"/>
<polygon fill="midnightblue" stroke="midnightblue" points="156.58,-35.12 160.28,-25.19 151.19,-30.65 156.58,-35.12"/>
</g>
</g>
</svg>
