<?xml version="1.0" encoding="UTF-8" standalone="no"?>
<!DOCTYPE svg PUBLIC "-//W3C//DTD SVG 1.1//EN"
 "http://www.w3.org/Graphics/SVG/1.1/DTD/svg11.dtd">
<!-- Generated by graphviz version 2.43.0 (0)
 -->
<!-- Title: typedefs.hpp Pages: 1 -->
<svg width="1745pt" height="357pt"
 viewBox="0.00 0.00 1744.63 357.00" xmlns="http://www.w3.org/2000/svg" xmlns:xlink="http://www.w3.org/1999/xlink">
<g id="graph0" class="graph" transform="scale(1 1) rotate(0) translate(4 353)">
<title>typedefs.hpp</title>
<!-- Node1 -->
<g id="Node000001" class="node">
<title>Node1</title>
<g id="a_Node000001"><a xlink:title=" ">
<polygon fill="#999999" stroke="#666666" points="943,-349 863,-349 863,-330 943,-330 943,-349"/>
<text text-anchor="middle" x="903" y="-337" font-family="Helvetica,sans-Serif" font-size="10.00">typedefs.hpp</text>
</a>
</g>
</g>
<!-- Node2 -->
<g id="Node000002" class="node">
<title>Node2</title>
<g id="a_Node000002"><a xlink:href="AbsArgument_8hpp.html" target="_top" xlink:title=" ">
<polygon fill="white" stroke="#666666" points="261,-129 157,-129 157,-110 261,-110 261,-129"/>
<text text-anchor="middle" x="209" y="-117" font-family="Helvetica,sans-Serif" font-size="10.00">AbsArgument.hpp</text>
</a>
</g>
</g>
<!-- Node1&#45;&gt;Node2 -->
<g id="edge1_Node000001_Node000002" class="edge">
<title>Node1&#45;&gt;Node2</title>
<g id="a_edge1_Node000001_Node000002"><a xlink:title=" ">
<path fill="none" stroke="#63b8ff" d="M852.73,-338.86C778.24,-338.02 634.99,-331.12 520,-294 393.21,-253.07 259.5,-158.1 220.37,-129.08"/>
<polygon fill="#63b8ff" stroke="#63b8ff" points="852.74,-342.36 862.77,-338.94 852.8,-335.36 852.74,-342.36"/>
</a>
</g>
</g>
<!-- Node3 -->
<g id="Node000003" class="node">
<title>Node3</title>
<g id="a_Node000003"><a xlink:href="AggregateArgument_8hpp.html" target="_top" xlink:title=" ">
<polygon fill="white" stroke="#666666" points="136,-74 0,-74 0,-55 136,-55 136,-74"/>
<text text-anchor="middle" x="68" y="-62" font-family="Helvetica,sans-Serif" font-size="10.00">AggregateArgument.hpp</text>
</a>
</g>
</g>
<!-- Node1&#45;&gt;Node3 -->
<g id="edge6_Node000001_Node000003" class="edge">
<title>Node1&#45;&gt;Node3</title>
<g id="a_edge6_Node000001_Node000003"><a xlink:title=" ">
<path fill="none" stroke="#63b8ff" d="M852.83,-337.07C676.96,-331.39 99,-306.92 99,-230.5 99,-230.5 99,-230.5 99,-173.5 99,-135.27 80.83,-92.27 72.31,-74.22"/>
<polygon fill="#63b8ff" stroke="#63b8ff" points="852.75,-340.57 862.85,-337.38 852.97,-333.57 852.75,-340.57"/>
</a>
</g>
</g>
<!-- Node7 -->
<g id="Node000007" class="node">
<title>Node7</title>
<g id="a_Node000007"><a xlink:href="ArgParse_8hpp.html" target="_top" xlink:title=" ">
<polygon fill="white" stroke="#666666" points="520,-184 440,-184 440,-165 520,-165 520,-184"/>
<text text-anchor="middle" x="480" y="-172" font-family="Helvetica,sans-Serif" font-size="10.00">ArgParse.hpp</text>
</a>
</g>
</g>
<!-- Node1&#45;&gt;Node7 -->
<g id="edge7_Node000001_Node000007" class="edge">
<title>Node1&#45;&gt;Node7</title>
<g id="a_edge7_Node000001_Node000007"><a xlink:title=" ">
<path fill="none" stroke="#63b8ff" d="M852.73,-335.98C769.15,-331.15 605.68,-318.78 554,-294 522.26,-278.78 514.87,-269.33 497,-239 486.57,-221.3 482.4,-197.1 480.85,-184.29"/>
<polygon fill="#63b8ff" stroke="#63b8ff" points="852.58,-339.48 862.76,-336.54 852.97,-332.49 852.58,-339.48"/>
</a>
</g>
</g>
<!-- Node10 -->
<g id="Node000010" class="node">
<title>Node10</title>
<g id="a_Node000010"><a xlink:href="ArgumentMapper_8hpp.html" target="_top" xlink:title=" ">
<polygon fill="white" stroke="#666666" points="685,-294 563,-294 563,-275 685,-275 685,-294"/>
<text text-anchor="middle" x="624" y="-282" font-family="Helvetica,sans-Serif" font-size="10.00">ArgumentMapper.hpp</text>
</a>
</g>
</g>
<!-- Node1&#45;&gt;Node10 -->
<g id="edge11_Node000001_Node000010" class="edge">
<title>Node1&#45;&gt;Node10</title>
<g id="a_edge11_Node000001_Node000010"><a xlink:title=" ">
<path fill="none" stroke="#63b8ff" d="M852.66,-328.94C800.31,-318.99 719.11,-303.57 668.88,-294.03"/>
<polygon fill="#63b8ff" stroke="#63b8ff" points="852.25,-332.42 862.73,-330.85 853.56,-325.55 852.25,-332.42"/>
</a>
</g>
</g>
<!-- Node11 -->
<g id="Node000011" class="node">
<title>Node11</title>
<g id="a_Node000011"><a xlink:href="ContiguousTree_8hpp.html" target="_top" xlink:title=" ">
<polygon fill="white" stroke="#666666" points="1201.5,-74 1088.5,-74 1088.5,-55 1201.5,-55 1201.5,-74"/>
<text text-anchor="middle" x="1145" y="-62" font-family="Helvetica,sans-Serif" font-size="10.00">ContiguousTree.hpp</text>
</a>
</g>
</g>
<!-- Node1&#45;&gt;Node11 -->
<g id="edge12_Node000001_Node000011" class="edge">
<title>Node1&#45;&gt;Node11</title>
<g id="a_edge12_Node000001_Node000011"><a xlink:title=" ">
<path fill="none" stroke="#63b8ff" d="M900.21,-319.88C894.7,-280.38 884.33,-189.8 901,-165 942.6,-103.11 1030.14,-79.7 1088.26,-70.85"/>
<polygon fill="#63b8ff" stroke="#63b8ff" points="896.78,-320.57 901.67,-329.97 903.7,-319.57 896.78,-320.57"/>
</a>
</g>
</g>
<!-- Node12 -->
<g id="Node000012" class="node">
<title>Node12</title>
<g id="a_Node000012"><a xlink:href="OutputStream_8hpp.html" target="_top" xlink:title=" ">
<polygon fill="white" stroke="#666666" points="809,-294 703,-294 703,-275 809,-275 809,-294"/>
<text text-anchor="middle" x="756" y="-282" font-family="Helvetica,sans-Serif" font-size="10.00">OutputStream.hpp</text>
</a>
</g>
</g>
<!-- Node1&#45;&gt;Node12 -->
<g id="edge13_Node000001_Node000012" class="edge">
<title>Node1&#45;&gt;Node12</title>
<g id="a_edge13_Node000001_Node000012"><a xlink:title=" ">
<path fill="none" stroke="#63b8ff" d="M869.86,-326.55C842.56,-316.71 804.5,-302.98 780.05,-294.17"/>
<polygon fill="#63b8ff" stroke="#63b8ff" points="868.79,-329.89 879.38,-329.98 871.16,-323.3 868.79,-329.89"/>
</a>
</g>
</g>
<!-- Node23 -->
<g id="Node000023" class="node">
<title>Node23</title>
<g id="a_Node000023"><a xlink:href="STLContainerBase_8hpp.html" target="_top" xlink:title=" ">
<polygon fill="white" stroke="#666666" points="1260,-294 1134,-294 1134,-275 1260,-275 1260,-294"/>
<text text-anchor="middle" x="1197" y="-282" font-family="Helvetica,sans-Serif" font-size="10.00">STLContainerBase.hpp</text>
</a>
</g>
</g>
<!-- Node1&#45;&gt;Node23 -->
<g id="edge27_Node000001_Node000023" class="edge">
<title>Node1&#45;&gt;Node23</title>
<g id="a_edge27_Node000001_Node000023"><a xlink:title=" ">
<path fill="none" stroke="#63b8ff" d="M953.14,-329.46C1008.17,-319.54 1095.82,-303.74 1149.7,-294.03"/>
<polygon fill="#63b8ff" stroke="#63b8ff" points="952.48,-326.02 943.26,-331.24 953.73,-332.91 952.48,-326.02"/>
</a>
</g>
</g>
<!-- Node28 -->
<g id="Node000028" class="node">
<title>Node28</title>
<g id="a_Node000028"><a xlink:href="ThreadPool_8hpp.html" target="_top" xlink:title=" ">
<polygon fill="white" stroke="#666666" points="1370,-129 1278,-129 1278,-110 1370,-110 1370,-129"/>
<text text-anchor="middle" x="1324" y="-117" font-family="Helvetica,sans-Serif" font-size="10.00">ThreadPool.hpp</text>
</a>
</g>
</g>
<!-- Node1&#45;&gt;Node28 -->
<g id="edge47_Node000001_Node000028" class="edge">
<title>Node1&#45;&gt;Node28</title>
<g id="a_edge47_Node000001_Node000028"><a xlink:title=" ">
<path fill="none" stroke="#63b8ff" d="M953.7,-338.48C1120.53,-337.11 1645.74,-321.77 1715,-184 1718.79,-176.46 1720.62,-171.3 1715,-165 1692.37,-139.64 1468.65,-126.82 1370.15,-122.36"/>
<polygon fill="#63b8ff" stroke="#63b8ff" points="953.21,-334.99 943.24,-338.56 953.26,-341.99 953.21,-334.99"/>
</a>
</g>
</g>
<!-- Node31 -->
<g id="Node000031" class="node">
<title>Node31</title>
<g id="a_Node000031"><a xlink:href="abstree_8hpp.html" target="_top" xlink:title=" ">
<polygon fill="white" stroke="#666666" points="1533,-74 1459,-74 1459,-55 1533,-55 1533,-74"/>
<text text-anchor="middle" x="1496" y="-62" font-family="Helvetica,sans-Serif" font-size="10.00">abstree.hpp</text>
</a>
</g>
</g>
<!-- Node1&#45;&gt;Node31 -->
<g id="edge53_Node000001_Node000031" class="edge">
<title>Node1&#45;&gt;Node31</title>
<g id="a_edge53_Node000001_Node000031"><a xlink:title=" ">
<path fill="none" stroke="#63b8ff" d="M953.25,-336.91C1083.14,-332.49 1427.61,-318.73 1539,-294 1605.48,-279.24 1626.19,-278.02 1682,-239 1714.13,-216.54 1751.63,-197.7 1730,-165 1685.92,-98.36 1587.2,-76.21 1533.13,-68.96"/>
<polygon fill="#63b8ff" stroke="#63b8ff" points="953.06,-333.41 943.18,-337.25 953.3,-340.41 953.06,-333.41"/>
</a>
</g>
</g>
<!-- Node32 -->
<g id="Node000032" class="node">
<title>Node32</title>
<g id="a_Node000032"><a xlink:href="UnstructuredView_8hpp.html" target="_top" xlink:title=" ">
<polygon fill="white" stroke="#666666" points="1034,-184 910,-184 910,-165 1034,-165 1034,-184"/>
<text text-anchor="middle" x="972" y="-172" font-family="Helvetica,sans-Serif" font-size="10.00">UnstructuredView.hpp</text>
</a>
</g>
</g>
<!-- Node1&#45;&gt;Node32 -->
<g id="edge52_Node000001_Node000032" class="edge">
<title>Node1&#45;&gt;Node32</title>
<g id="a_edge52_Node000001_Node000032"><a xlink:title=" ">
<path fill="none" stroke="#63b8ff" d="M910.71,-320.28C925.51,-285.32 957.39,-210.01 968.27,-184.31"/>
<polygon fill="#63b8ff" stroke="#63b8ff" points="907.38,-319.16 906.71,-329.74 913.83,-321.89 907.38,-319.16"/>
</a>
</g>
</g>
<!-- Node37 -->
<g id="Node000037" class="node">
<title>Node37</title>
<g id="a_Node000037"><a xlink:href="ThreadPoolBase_8hpp.html" target="_top" xlink:title=" ">
<polygon fill="white" stroke="#666666" points="1632,-239 1516,-239 1516,-220 1632,-220 1632,-239"/>
<text text-anchor="middle" x="1574" y="-227" font-family="Helvetica,sans-Serif" font-size="10.00">ThreadPoolBase.hpp</text>
</a>
</g>
</g>
<!-- Node1&#45;&gt;Node37 -->
<g id="edge48_Node000001_Node000037" class="edge">
<title>Node1&#45;&gt;Node37</title>
<g id="a_edge48_Node000001_Node000037"><a xlink:title=" ">
<path fill="none" stroke="#63b8ff" d="M953.21,-333.75C1023.91,-326.75 1156.73,-312.48 1269,-294 1366.93,-277.88 1481.18,-252.24 1538.03,-239.02"/>
<polygon fill="#63b8ff" stroke="#63b8ff" points="952.84,-330.27 943.23,-334.73 953.53,-337.23 952.84,-330.27"/>
</a>
</g>
</g>
<!-- Node2&#45;&gt;Node3 -->
<g id="edge2_Node000002_Node000003" class="edge">
<title>Node2&#45;&gt;Node3</title>
<g id="a_edge2_Node000002_Node000003"><a xlink:title=" ">
<path fill="none" stroke="#63b8ff" d="M176.86,-106.42C150.71,-96.59 114.41,-82.95 91.07,-74.17"/>
<polygon fill="#63b8ff" stroke="#63b8ff" points="175.75,-109.74 186.35,-109.98 178.22,-103.19 175.75,-109.74"/>
</a>
</g>
</g>
<!-- Node4 -->
<g id="Node000004" class="node">
<title>Node4</title>
<g id="a_Node000004"><a xlink:href="FlagArgument_8hpp.html" target="_top" xlink:title=" ">
<polygon fill="white" stroke="#666666" points="261.5,-74 154.5,-74 154.5,-55 261.5,-55 261.5,-74"/>
<text text-anchor="middle" x="208" y="-62" font-family="Helvetica,sans-Serif" font-size="10.00">FlagArgument.hpp</text>
</a>
</g>
</g>
<!-- Node2&#45;&gt;Node4 -->
<g id="edge3_Node000002_Node000004" class="edge">
<title>Node2&#45;&gt;Node4</title>
<g id="a_edge3_Node000002_Node000004"><a xlink:title=" ">
<path fill="none" stroke="#63b8ff" d="M208.64,-99.66C208.48,-90.93 208.29,-80.99 208.16,-74.09"/>
<polygon fill="#63b8ff" stroke="#63b8ff" points="205.15,-99.82 208.83,-109.75 212.15,-99.68 205.15,-99.82"/>
</a>
</g>
</g>
<!-- Node5 -->
<g id="Node000005" class="node">
<title>Node5</title>
<g id="a_Node000005"><a xlink:href="KeywordArgument_8hpp.html" target="_top" xlink:title=" ">
<polygon fill="white" stroke="#666666" points="408,-74 280,-74 280,-55 408,-55 408,-74"/>
<text text-anchor="middle" x="344" y="-62" font-family="Helvetica,sans-Serif" font-size="10.00">KeywordArgument.hpp</text>
</a>
</g>
</g>
<!-- Node2&#45;&gt;Node5 -->
<g id="edge4_Node000002_Node000005" class="edge">
<title>Node2&#45;&gt;Node5</title>
<g id="a_edge4_Node000002_Node000005"><a xlink:title=" ">
<path fill="none" stroke="#63b8ff" d="M240.1,-106.29C265.12,-96.47 299.66,-82.91 321.92,-74.17"/>
<polygon fill="#63b8ff" stroke="#63b8ff" points="238.72,-103.07 230.69,-109.98 241.28,-109.59 238.72,-103.07"/>
</a>
</g>
</g>
<!-- Node6 -->
<g id="Node000006" class="node">
<title>Node6</title>
<g id="a_Node000006"><a xlink:href="PositionalArgument_8hpp.html" target="_top" xlink:title=" ">
<polygon fill="white" stroke="#666666" points="560,-74 426,-74 426,-55 560,-55 560,-74"/>
<text text-anchor="middle" x="493" y="-62" font-family="Helvetica,sans-Serif" font-size="10.00">PositionalArgument.hpp</text>
</a>
</g>
</g>
<!-- Node2&#45;&gt;Node6 -->
<g id="edge5_Node000002_Node000006" class="edge">
<title>Node2&#45;&gt;Node6</title>
<g id="a_edge5_Node000002_Node000006"><a xlink:title=" ">
<path fill="none" stroke="#63b8ff" d="M264.58,-108.13C317.83,-98.19 397.23,-83.37 447.01,-74.08"/>
<polygon fill="#63b8ff" stroke="#63b8ff" points="263.82,-104.71 254.63,-109.98 265.1,-111.59 263.82,-104.71"/>
</a>
</g>
</g>
<!-- Node7&#45;&gt;Node2 -->
<g id="edge8_Node000007_Node000002" class="edge">
<title>Node7&#45;&gt;Node2</title>
<g id="a_edge8_Node000007_Node000002"><a xlink:title=" ">
<path fill="none" stroke="#63b8ff" d="M429.61,-163.64C378.73,-153.7 300.97,-138.49 252.65,-129.04"/>
<polygon fill="#63b8ff" stroke="#63b8ff" points="429.24,-167.14 439.72,-165.62 430.58,-160.27 429.24,-167.14"/>
</a>
</g>
</g>
<!-- Node8 -->
<g id="Node000008" class="node">
<title>Node8</title>
<g id="a_Node000008"><a xlink:href="container__extension_8hpp.html" target="_top" xlink:title=" ">
<polygon fill="white" stroke="#666666" points="581.5,-129 444.5,-129 444.5,-110 581.5,-110 581.5,-129"/>
<text text-anchor="middle" x="513" y="-117" font-family="Helvetica,sans-Serif" font-size="10.00">container_extension.hpp</text>
</a>
</g>
</g>
<!-- Node7&#45;&gt;Node8 -->
<g id="edge9_Node000007_Node000008" class="edge">
<title>Node7&#45;&gt;Node8</title>
<g id="a_edge9_Node000007_Node000008"><a xlink:title=" ">
<path fill="none" stroke="#63b8ff" d="M490.83,-156.1C496.47,-147.04 503.12,-136.37 507.65,-129.09"/>
<polygon fill="#63b8ff" stroke="#63b8ff" points="487.76,-154.41 485.45,-164.75 493.71,-158.11 487.76,-154.41"/>
</a>
</g>
</g>
<!-- Node9 -->
<g id="Node000009" class="node">
<title>Node9</title>
<g id="a_Node000009"><a xlink:href="file__system__extension_8hpp.html" target="_top" xlink:title=" ">
<polygon fill="white" stroke="#666666" points="426.5,-129 279.5,-129 279.5,-110 426.5,-110 426.5,-129"/>
<text text-anchor="middle" x="353" y="-117" font-family="Helvetica,sans-Serif" font-size="10.00">file_system_extension.hpp</text>
</a>
</g>
</g>
<!-- Node7&#45;&gt;Node9 -->
<g id="edge10_Node000007_Node000009" class="edge">
<title>Node7&#45;&gt;Node9</title>
<g id="a_edge10_Node000007_Node000009"><a xlink:title=" ">
<path fill="none" stroke="#63b8ff" d="M450.12,-161.03C426.63,-151.23 394.53,-137.83 373.78,-129.17"/>
<polygon fill="#63b8ff" stroke="#63b8ff" points="449.02,-164.36 459.6,-164.98 451.71,-157.9 449.02,-164.36"/>
</a>
</g>
</g>
<!-- Node12&#45;&gt;Node7 -->
<g id="edge14_Node000012_Node000007" class="edge">
<title>Node12&#45;&gt;Node7</title>
<g id="a_edge14_Node000012_Node000007"><a xlink:title=" ">
<path fill="none" stroke="#63b8ff" d="M692.47,-274.37C626.9,-264.52 532.22,-248.9 518,-239 498.39,-225.35 487.22,-198.01 482.57,-184.08"/>
<polygon fill="#63b8ff" stroke="#63b8ff" points="692.32,-277.89 702.72,-275.9 693.35,-270.96 692.32,-277.89"/>
</a>
</g>
</g>
<!-- Node13 -->
<g id="Node000013" class="node">
<title>Node13</title>
<g id="a_Node000013"><a xlink:href="Color_8hpp.html" target="_top" xlink:title=" ">
<polygon fill="white" stroke="#666666" points="731,-239 669,-239 669,-220 731,-220 731,-239"/>
<text text-anchor="middle" x="700" y="-227" font-family="Helvetica,sans-Serif" font-size="10.00">Color.hpp</text>
</a>
</g>
</g>
<!-- Node12&#45;&gt;Node13 -->
<g id="edge15_Node000012_Node000013" class="edge">
<title>Node12&#45;&gt;Node13</title>
<g id="a_edge15_Node000012_Node000013"><a xlink:title=" ">
<path fill="none" stroke="#63b8ff" d="M739.67,-268.04C729.74,-258.64 717.41,-246.98 709.16,-239.17"/>
<polygon fill="#63b8ff" stroke="#63b8ff" points="737.33,-270.65 747,-274.98 742.15,-265.57 737.33,-270.65"/>
</a>
</g>
</g>
<!-- Node14 -->
<g id="Node000014" class="node">
<title>Node14</title>
<g id="a_Node000014"><a xlink:href="FileOutputStream_8hpp.html" target="_top" xlink:title=" ">
<polygon fill="white" stroke="#666666" points="650.5,-239 527.5,-239 527.5,-220 650.5,-220 650.5,-239"/>
<text text-anchor="middle" x="589" y="-227" font-family="Helvetica,sans-Serif" font-size="10.00">FileOutputStream.hpp</text>
</a>
</g>
</g>
<!-- Node12&#45;&gt;Node14 -->
<g id="edge16_Node000012_Node000014" class="edge">
<title>Node12&#45;&gt;Node14</title>
<g id="a_edge16_Node000012_Node000014"><a xlink:title=" ">
<path fill="none" stroke="#63b8ff" d="M719.54,-271.93C688.34,-262.03 644.16,-248.01 616.04,-239.08"/>
<polygon fill="#63b8ff" stroke="#63b8ff" points="718.58,-275.3 729.17,-274.98 720.7,-268.62 718.58,-275.3"/>
</a>
</g>
</g>
<!-- Node22 -->
<g id="Node000022" class="node">
<title>Node22</title>
<g id="a_Node000022"><a xlink:href="StreamInterceptor_8hpp.html" target="_top" xlink:title=" ">
<polygon fill="white" stroke="#666666" points="874.5,-239 749.5,-239 749.5,-220 874.5,-220 874.5,-239"/>
<text text-anchor="middle" x="812" y="-227" font-family="Helvetica,sans-Serif" font-size="10.00">StreamInterceptor.hpp</text>
</a>
</g>
</g>
<!-- Node12&#45;&gt;Node22 -->
<g id="edge26_Node000012_Node000022" class="edge">
<title>Node12&#45;&gt;Node22</title>
<g id="a_edge26_Node000012_Node000022"><a xlink:title=" ">
<path fill="none" stroke="#63b8ff" d="M772.33,-268.04C782.26,-258.64 794.59,-246.98 802.84,-239.17"/>
<polygon fill="#63b8ff" stroke="#63b8ff" points="769.85,-265.57 765,-274.98 774.67,-270.65 769.85,-265.57"/>
</a>
</g>
</g>
<!-- Node15 -->
<g id="Node000015" class="node">
<title>Node15</title>
<g id="a_Node000015"><a xlink:href="Logger_8hpp.html" target="_top" xlink:title=" ">
<polygon fill="white" stroke="#666666" points="679,-184 609,-184 609,-165 679,-165 679,-184"/>
<text text-anchor="middle" x="644" y="-172" font-family="Helvetica,sans-Serif" font-size="10.00">Logger.hpp</text>
</a>
</g>
</g>
<!-- Node14&#45;&gt;Node15 -->
<g id="edge17_Node000014_Node000015" class="edge">
<title>Node14&#45;&gt;Node15</title>
<g id="a_edge17_Node000014_Node000015"><a xlink:title=" ">
<path fill="none" stroke="#63b8ff" d="M605.29,-212.8C615.04,-203.41 627.05,-191.83 635.09,-184.09"/>
<polygon fill="#63b8ff" stroke="#63b8ff" points="602.85,-210.29 598.08,-219.75 607.71,-215.33 602.85,-210.29"/>
</a>
</g>
</g>
<!-- Node16 -->
<g id="Node000016" class="node">
<title>Node16</title>
<g id="a_Node000016"><a xlink:href="LogBlock_8hpp.html" target="_top" xlink:title=" ">
<polygon fill="white" stroke="#666666" points="720,-129 638,-129 638,-110 720,-110 720,-129"/>
<text text-anchor="middle" x="679" y="-117" font-family="Helvetica,sans-Serif" font-size="10.00">LogBlock.hpp</text>
</a>
</g>
</g>
<!-- Node15&#45;&gt;Node16 -->
<g id="edge18_Node000015_Node000016" class="edge">
<title>Node15&#45;&gt;Node16</title>
<g id="a_edge18_Node000015_Node000016"><a xlink:title=" ">
<path fill="none" stroke="#63b8ff" d="M655.3,-156.39C661.32,-147.27 668.47,-136.45 673.33,-129.09"/>
<polygon fill="#63b8ff" stroke="#63b8ff" points="652.37,-154.47 649.78,-164.75 658.21,-158.33 652.37,-154.47"/>
</a>
</g>
</g>
<!-- Node17 -->
<g id="Node000017" class="node">
<title>Node17</title>
<g id="a_Node000017"><a xlink:href="Loggee_8hpp.html" target="_top" xlink:title=" ">
<polygon fill="white" stroke="#666666" points="651.5,-74 578.5,-74 578.5,-55 651.5,-55 651.5,-74"/>
<text text-anchor="middle" x="615" y="-62" font-family="Helvetica,sans-Serif" font-size="10.00">Loggee.hpp</text>
</a>
</g>
</g>
<!-- Node15&#45;&gt;Node17 -->
<g id="edge22_Node000015_Node000017" class="edge">
<title>Node15&#45;&gt;Node17</title>
<g id="a_edge22_Node000015_Node000017"><a xlink:title=" ">
<path fill="none" stroke="#63b8ff" d="M637.37,-155.29C634.58,-147.29 631.43,-137.74 629,-129 623.62,-109.64 618.95,-86.5 616.61,-74.2"/>
<polygon fill="#63b8ff" stroke="#63b8ff" points="634.07,-156.48 640.73,-164.72 640.67,-154.13 634.07,-156.48"/>
</a>
</g>
</g>
<!-- Node20 -->
<g id="Node000020" class="node">
<title>Node20</title>
<g id="a_Node000020"><a xlink:href="LoggerSingleton_8hpp.html" target="_top" xlink:title=" ">
<polygon fill="white" stroke="#666666" points="854,-129 738,-129 738,-110 854,-110 854,-129"/>
<text text-anchor="middle" x="796" y="-117" font-family="Helvetica,sans-Serif" font-size="10.00">LoggerSingleton.hpp</text>
</a>
</g>
</g>
<!-- Node15&#45;&gt;Node20 -->
<g id="edge23_Node000015_Node000020" class="edge">
<title>Node15&#45;&gt;Node20</title>
<g id="a_edge23_Node000015_Node000020"><a xlink:title=" ">
<path fill="none" stroke="#63b8ff" d="M677.93,-161.67C706.27,-151.79 746.02,-137.93 771.39,-129.08"/>
<polygon fill="#63b8ff" stroke="#63b8ff" points="676.71,-158.39 668.42,-164.98 679.02,-165 676.71,-158.39"/>
</a>
</g>
</g>
<!-- Node16&#45;&gt;Node17 -->
<g id="edge19_Node000016_Node000017" class="edge">
<title>Node16&#45;&gt;Node17</title>
<g id="a_edge19_Node000016_Node000017"><a xlink:title=" ">
<path fill="none" stroke="#63b8ff" d="M661.01,-103.6C649.54,-94.11 635.09,-82.13 625.47,-74.17"/>
<polygon fill="#63b8ff" stroke="#63b8ff" points="658.78,-106.3 668.72,-109.98 663.25,-100.91 658.78,-106.3"/>
</a>
</g>
</g>
<!-- Node18 -->
<g id="Node000018" class="node">
<title>Node18</title>
<g id="a_Node000018"><a xlink:href="testing_8hpp.html" target="_top" xlink:title=" ">
<polygon fill="white" stroke="#666666" points="740.5,-74 669.5,-74 669.5,-55 740.5,-55 740.5,-74"/>
<text text-anchor="middle" x="705" y="-62" font-family="Helvetica,sans-Serif" font-size="10.00">testing.hpp</text>
</a>
</g>
</g>
<!-- Node16&#45;&gt;Node18 -->
<g id="edge20_Node000016_Node000018" class="edge">
<title>Node16&#45;&gt;Node18</title>
<g id="a_edge20_Node000016_Node000018"><a xlink:title=" ">
<path fill="none" stroke="#63b8ff" d="M687.82,-100.53C692.2,-91.6 697.29,-81.22 700.79,-74.09"/>
<polygon fill="#63b8ff" stroke="#63b8ff" points="684.56,-99.23 683.29,-109.75 690.84,-102.31 684.56,-99.23"/>
</a>
</g>
</g>
<!-- Node19 -->
<g id="Node000019" class="node">
<title>Node19</title>
<g id="a_Node000019"><a xlink:href="essentials_8hpp.html" target="_top" xlink:title=" ">
<polygon fill="white" stroke="#666666" points="748.5,-19 661.5,-19 661.5,0 748.5,0 748.5,-19"/>
<text text-anchor="middle" x="705" y="-7" font-family="Helvetica,sans-Serif" font-size="10.00">essentials.hpp</text>
</a>
</g>
</g>
<!-- Node18&#45;&gt;Node19 -->
<g id="edge21_Node000018_Node000019" class="edge">
<title>Node18&#45;&gt;Node19</title>
<g id="a_edge21_Node000018_Node000019"><a xlink:title=" ">
<path fill="none" stroke="#63b8ff" d="M705,-44.66C705,-35.93 705,-25.99 705,-19.09"/>
<polygon fill="#63b8ff" stroke="#63b8ff" points="701.5,-44.75 705,-54.75 708.5,-44.75 701.5,-44.75"/>
</a>
</g>
</g>
<!-- Node20&#45;&gt;Node18 -->
<g id="edge24_Node000020_Node000018" class="edge">
<title>Node20&#45;&gt;Node18</title>
<g id="a_edge24_Node000020_Node000018"><a xlink:title=" ">
<path fill="none" stroke="#63b8ff" d="M772.3,-104.7C755.72,-95.04 734.09,-82.44 719.89,-74.17"/>
<polygon fill="#63b8ff" stroke="#63b8ff" points="770.98,-107.98 781.38,-109.98 774.5,-101.93 770.98,-107.98"/>
</a>
</g>
</g>
<!-- Node21 -->
<g id="Node000021" class="node">
<title>Node21</title>
<g id="a_Node000021"><a xlink:href="warning_8hpp.html" target="_top" xlink:title=" ">
<polygon fill="white" stroke="#666666" points="835.5,-74 758.5,-74 758.5,-55 835.5,-55 835.5,-74"/>
<text text-anchor="middle" x="797" y="-62" font-family="Helvetica,sans-Serif" font-size="10.00">warning.hpp</text>
</a>
</g>
</g>
<!-- Node20&#45;&gt;Node21 -->
<g id="edge25_Node000020_Node000021" class="edge">
<title>Node20&#45;&gt;Node21</title>
<g id="a_edge25_Node000020_Node000021"><a xlink:title=" ">
<path fill="none" stroke="#63b8ff" d="M796.36,-99.66C796.52,-90.93 796.71,-80.99 796.84,-74.09"/>
<polygon fill="#63b8ff" stroke="#63b8ff" points="792.85,-99.68 796.17,-109.75 799.85,-99.82 792.85,-99.68"/>
</a>
</g>
</g>
<!-- Node24 -->
<g id="Node000024" class="node">
<title>Node24</title>
<g id="a_Node000024"><a xlink:href="DynamicArray_8hpp.html" target="_top" xlink:title=" ">
<polygon fill="white" stroke="#666666" points="1250,-239 1144,-239 1144,-220 1250,-220 1250,-239"/>
<text text-anchor="middle" x="1197" y="-227" font-family="Helvetica,sans-Serif" font-size="10.00">DynamicArray.hpp</text>
</a>
</g>
</g>
<!-- Node23&#45;&gt;Node24 -->
<g id="edge28_Node000023_Node000024" class="edge">
<title>Node23&#45;&gt;Node24</title>
<g id="a_edge28_Node000023_Node000024"><a xlink:title=" ">
<path fill="none" stroke="#63b8ff" d="M1197,-264.66C1197,-255.93 1197,-245.99 1197,-239.09"/>
<polygon fill="#63b8ff" stroke="#63b8ff" points="1193.5,-264.75 1197,-274.75 1200.5,-264.75 1193.5,-264.75"/>
</a>
</g>
</g>
<!-- Node34 -->
<g id="Node000034" class="node">
<title>Node34</title>
<g id="a_Node000034"><a xlink:href="StaticArray_8hpp.html" target="_top" xlink:title=" ">
<polygon fill="white" stroke="#666666" points="1452,-239 1362,-239 1362,-220 1452,-220 1452,-239"/>
<text text-anchor="middle" x="1407" y="-227" font-family="Helvetica,sans-Serif" font-size="10.00">StaticArray.hpp</text>
</a>
</g>
</g>
<!-- Node23&#45;&gt;Node34 -->
<g id="edge43_Node000023_Node000034" class="edge">
<title>Node23&#45;&gt;Node34</title>
<g id="a_edge43_Node000023_Node000034"><a xlink:title=" ">
<path fill="none" stroke="#63b8ff" d="M1240.58,-272.5C1279.9,-262.58 1336.95,-248.18 1373,-239.08"/>
<polygon fill="#63b8ff" stroke="#63b8ff" points="1239.58,-269.14 1230.74,-274.98 1241.29,-275.93 1239.58,-269.14"/>
</a>
</g>
</g>
<!-- Node24&#45;&gt;Node7 -->
<g id="edge29_Node000024_Node000007" class="edge">
<title>Node24&#45;&gt;Node7</title>
<g id="a_edge29_Node000024_Node000007"><a xlink:title=" ">
<path fill="none" stroke="#63b8ff" d="M1133.97,-223.84C989.83,-213.19 639.41,-187.28 520.36,-178.48"/>
<polygon fill="#63b8ff" stroke="#63b8ff" points="1133.76,-227.33 1143.99,-224.58 1134.27,-220.35 1133.76,-227.33"/>
</a>
</g>
</g>
<!-- Node24&#45;&gt;Node11 -->
<g id="edge30_Node000024_Node000011" class="edge">
<title>Node24&#45;&gt;Node11</title>
<g id="a_edge30_Node000024_Node000011"><a xlink:title=" ">
<path fill="none" stroke="#63b8ff" d="M1191.04,-209.83C1179.83,-174.67 1155.97,-99.9 1147.81,-74.31"/>
<polygon fill="#63b8ff" stroke="#63b8ff" points="1187.83,-211.27 1194.2,-219.74 1194.5,-209.15 1187.83,-211.27"/>
</a>
</g>
</g>
<!-- Node25 -->
<g id="Node000025" class="node">
<title>Node25</title>
<g id="a_Node000025"><a xlink:href="ParallelFor_8hpp.html" target="_top" xlink:title=" ">
<polygon fill="white" stroke="#666666" points="1308,-74 1220,-74 1220,-55 1308,-55 1308,-74"/>
<text text-anchor="middle" x="1264" y="-62" font-family="Helvetica,sans-Serif" font-size="10.00">ParallelFor.hpp</text>
</a>
</g>
</g>
<!-- Node24&#45;&gt;Node25 -->
<g id="edge31_Node000024_Node000025" class="edge">
<title>Node24&#45;&gt;Node25</title>
<g id="a_edge31_Node000024_Node000025"><a xlink:title=" ">
<path fill="none" stroke="#63b8ff" d="M1204.49,-210.28C1218.86,-175.32 1249.81,-100.01 1260.38,-74.31"/>
<polygon fill="#63b8ff" stroke="#63b8ff" points="1201.17,-209.16 1200.6,-219.74 1207.64,-211.82 1201.17,-209.16"/>
</a>
</g>
</g>
<!-- Node26 -->
<g id="Node000026" class="node">
<title>Node26</title>
<g id="a_Node000026"><a xlink:href="ThreadLocal_8hpp.html" target="_top" xlink:title=" ">
<polygon fill="white" stroke="#666666" points="1149.5,-184 1052.5,-184 1052.5,-165 1149.5,-165 1149.5,-184"/>
<text text-anchor="middle" x="1101" y="-172" font-family="Helvetica,sans-Serif" font-size="10.00">ThreadLocal.hpp</text>
</a>
</g>
</g>
<!-- Node24&#45;&gt;Node26 -->
<g id="edge32_Node000024_Node000026" class="edge">
<title>Node24&#45;&gt;Node26</title>
<g id="a_edge32_Node000024_Node000026"><a xlink:title=" ">
<path fill="none" stroke="#63b8ff" d="M1172.48,-214.97C1154.94,-205.28 1131.83,-192.52 1116.7,-184.17"/>
<polygon fill="#63b8ff" stroke="#63b8ff" points="1171.13,-218.22 1181.58,-219.98 1174.51,-212.09 1171.13,-218.22"/>
</a>
</g>
</g>
<!-- Node27 -->
<g id="Node000027" class="node">
<title>Node27</title>
<g id="a_Node000027"><a xlink:href="ThreadPoolStorage_8hpp.html" target="_top" xlink:title=" ">
<polygon fill="white" stroke="#666666" points="1613,-184 1483,-184 1483,-165 1613,-165 1613,-184"/>
<text text-anchor="middle" x="1548" y="-172" font-family="Helvetica,sans-Serif" font-size="10.00">ThreadPoolStorage.hpp</text>
</a>
</g>
</g>
<!-- Node24&#45;&gt;Node27 -->
<g id="edge33_Node000024_Node000027" class="edge">
<title>Node24&#45;&gt;Node27</title>
<g id="a_edge33_Node000024_Node000027"><a xlink:title=" ">
<path fill="none" stroke="#63b8ff" d="M1260.56,-218.9C1326.44,-208.95 1428.45,-193.55 1491.57,-184.02"/>
<polygon fill="#63b8ff" stroke="#63b8ff" points="1259.67,-215.5 1250.31,-220.45 1260.72,-222.42 1259.67,-215.5"/>
</a>
</g>
</g>
<!-- Node24&#45;&gt;Node31 -->
<g id="edge41_Node000024_Node000031" class="edge">
<title>Node24&#45;&gt;Node31</title>
<g id="a_edge41_Node000024_Node000031"><a xlink:title=" ">
<path fill="none" stroke="#63b8ff" d="M1212.48,-212.84C1227.2,-198.69 1250.52,-178.13 1274,-165 1317.06,-140.92 1333.83,-148.84 1379,-129 1417.51,-112.09 1460.4,-87.13 1481.98,-74.11"/>
<polygon fill="#63b8ff" stroke="#63b8ff" points="1209.92,-210.44 1205.24,-219.95 1214.83,-215.44 1209.92,-210.44"/>
</a>
</g>
</g>
<!-- Node24&#45;&gt;Node32 -->
<g id="edge40_Node000024_Node000032" class="edge">
<title>Node24&#45;&gt;Node32</title>
<g id="a_edge40_Node000024_Node000032"><a xlink:title=" ">
<path fill="none" stroke="#63b8ff" d="M1151.11,-217.69C1108.95,-207.76 1047.3,-193.24 1008.43,-184.08"/>
<polygon fill="#63b8ff" stroke="#63b8ff" points="1150.31,-221.1 1160.85,-219.98 1151.92,-214.28 1150.31,-221.1"/>
</a>
</g>
</g>
<!-- Node33 -->
<g id="Node000033" class="node">
<title>Node33</title>
<g id="a_Node000033"><a xlink:href="stl__extension_8hpp.html" target="_top" xlink:title=" ">
<polygon fill="white" stroke="#666666" points="1385.5,-184 1282.5,-184 1282.5,-165 1385.5,-165 1385.5,-184"/>
<text text-anchor="middle" x="1334" y="-172" font-family="Helvetica,sans-Serif" font-size="10.00">stl_extension.hpp</text>
</a>
</g>
</g>
<!-- Node24&#45;&gt;Node33 -->
<g id="edge42_Node000024_Node000033" class="edge">
<title>Node24&#45;&gt;Node33</title>
<g id="a_edge42_Node000024_Node000033"><a xlink:title=" ">
<path fill="none" stroke="#63b8ff" d="M1228.56,-216.29C1253.95,-206.47 1289,-192.91 1311.59,-184.17"/>
<polygon fill="#63b8ff" stroke="#63b8ff" points="1227.08,-213.11 1219.01,-219.98 1229.6,-219.64 1227.08,-213.11"/>
</a>
</g>
</g>
<!-- Node27&#45;&gt;Node28 -->
<g id="edge34_Node000027_Node000028" class="edge">
<title>Node27&#45;&gt;Node28</title>
<g id="a_edge34_Node000027_Node000028"><a xlink:title=" ">
<path fill="none" stroke="#63b8ff" d="M1502.05,-162.63C1460.09,-152.7 1398.88,-138.22 1360.27,-129.08"/>
<polygon fill="#63b8ff" stroke="#63b8ff" points="1501.47,-166.09 1512.01,-164.98 1503.09,-159.28 1501.47,-166.09"/>
</a>
</g>
</g>
<!-- Node28&#45;&gt;Node11 -->
<g id="edge35_Node000028_Node000011" class="edge">
<title>Node28&#45;&gt;Node11</title>
<g id="a_edge35_Node000028_Node000011"><a xlink:title=" ">
<path fill="none" stroke="#63b8ff" d="M1285.35,-107.06C1251.89,-97.15 1204.25,-83.04 1173.98,-74.08"/>
<polygon fill="#63b8ff" stroke="#63b8ff" points="1284.66,-110.5 1295.24,-109.98 1286.65,-103.79 1284.66,-110.5"/>
</a>
</g>
</g>
<!-- Node28&#45;&gt;Node25 -->
<g id="edge36_Node000028_Node000025" class="edge">
<title>Node28&#45;&gt;Node25</title>
<g id="a_edge36_Node000028_Node000025"><a xlink:title=" ">
<path fill="none" stroke="#63b8ff" d="M1306.82,-103.32C1296.12,-93.87 1282.74,-82.06 1273.82,-74.17"/>
<polygon fill="#63b8ff" stroke="#63b8ff" points="1304.55,-105.99 1314.36,-109.98 1309.18,-100.74 1304.55,-105.99"/>
</a>
</g>
</g>
<!-- Node29 -->
<g id="Node000029" class="node">
<title>Node29</title>
<g id="a_Node000029"><a xlink:href="ResourceLoader_8hpp.html" target="_top" xlink:title=" ">
<polygon fill="white" stroke="#666666" points="1440.5,-74 1325.5,-74 1325.5,-55 1440.5,-55 1440.5,-74"/>
<text text-anchor="middle" x="1383" y="-62" font-family="Helvetica,sans-Serif" font-size="10.00">ResourceLoader.hpp</text>
</a>
</g>
</g>
<!-- Node28&#45;&gt;Node29 -->
<g id="edge37_Node000028_Node000029" class="edge">
<title>Node28&#45;&gt;Node29</title>
<g id="a_edge37_Node000028_Node000029"><a xlink:title=" ">
<path fill="none" stroke="#63b8ff" d="M1341.2,-103.04C1351.67,-93.64 1364.65,-81.98 1373.35,-74.17"/>
<polygon fill="#63b8ff" stroke="#63b8ff" points="1338.58,-100.7 1333.48,-109.98 1343.26,-105.91 1338.58,-100.7"/>
</a>
</g>
</g>
<!-- Node28&#45;&gt;Node31 -->
<g id="edge39_Node000028_Node000031" class="edge">
<title>Node28&#45;&gt;Node31</title>
<g id="a_edge39_Node000028_Node000031"><a xlink:title=" ">
<path fill="none" stroke="#63b8ff" d="M1361.56,-106.93C1393.68,-97.03 1439.19,-83.01 1468.15,-74.08"/>
<polygon fill="#63b8ff" stroke="#63b8ff" points="1360.16,-103.69 1351.63,-109.98 1362.22,-110.38 1360.16,-103.69"/>
</a>
</g>
</g>
<!-- Node30 -->
<g id="Node000030" class="node">
<title>Node30</title>
<g id="a_Node000030"><a xlink:href="ResourceQueue_8hpp.html" target="_top" xlink:title=" ">
<polygon fill="white" stroke="#666666" points="1628,-19 1514,-19 1514,0 1628,0 1628,-19"/>
<text text-anchor="middle" x="1571" y="-7" font-family="Helvetica,sans-Serif" font-size="10.00">ResourceQueue.hpp</text>
</a>
</g>
</g>
<!-- Node29&#45;&gt;Node30 -->
<g id="edge38_Node000029_Node000030" class="edge">
<title>Node29&#45;&gt;Node30</title>
<g id="a_edge38_Node000029_Node000030"><a xlink:title=" ">
<path fill="none" stroke="#63b8ff" d="M1423.14,-52.18C1458.3,-42.27 1508.63,-28.08 1540.56,-19.08"/>
<polygon fill="#63b8ff" stroke="#63b8ff" points="1421.88,-48.9 1413.21,-54.98 1423.78,-55.64 1421.88,-48.9"/>
</a>
</g>
</g>
<!-- Node34&#45;&gt;Node33 -->
<g id="edge46_Node000034_Node000033" class="edge">
<title>Node34&#45;&gt;Node33</title>
<g id="a_edge46_Node000034_Node000033"><a xlink:title=" ">
<path fill="none" stroke="#63b8ff" d="M1386.86,-213.88C1373.72,-204.34 1357.02,-192.21 1345.94,-184.17"/>
<polygon fill="#63b8ff" stroke="#63b8ff" points="1385.12,-216.94 1395.27,-219.98 1389.24,-211.28 1385.12,-216.94"/>
</a>
</g>
</g>
<!-- Node35 -->
<g id="Node000035" class="node">
<title>Node35</title>
<g id="a_Node000035"><a xlink:href="base_8hpp.html" target="_top" xlink:title=" ">
<polygon fill="white" stroke="#666666" points="1464.5,-184 1403.5,-184 1403.5,-165 1464.5,-165 1464.5,-184"/>
<text text-anchor="middle" x="1434" y="-172" font-family="Helvetica,sans-Serif" font-size="10.00">base.hpp</text>
</a>
</g>
</g>
<!-- Node34&#45;&gt;Node35 -->
<g id="edge44_Node000034_Node000035" class="edge">
<title>Node34&#45;&gt;Node35</title>
<g id="a_edge44_Node000034_Node000035"><a xlink:title=" ">
<path fill="none" stroke="#63b8ff" d="M1416.01,-210.82C1420.59,-201.82 1425.95,-191.29 1429.62,-184.09"/>
<polygon fill="#63b8ff" stroke="#63b8ff" points="1412.88,-209.25 1411.46,-219.75 1419.12,-212.43 1412.88,-209.25"/>
</a>
</g>
</g>
<!-- Node36 -->
<g id="Node000036" class="node">
<title>Node36</title>
<g id="a_Node000036"><a xlink:href="json_8hpp.html" target="_top" xlink:title=" ">
<polygon fill="white" stroke="#666666" points="1689,-184 1631,-184 1631,-165 1689,-165 1689,-184"/>
<text text-anchor="middle" x="1660" y="-172" font-family="Helvetica,sans-Serif" font-size="10.00">json.hpp</text>
</a>
</g>
</g>
<!-- Node34&#45;&gt;Node36 -->
<g id="edge45_Node000034_Node000036" class="edge">
<title>Node34&#45;&gt;Node36</title>
<g id="a_edge45_Node000034_Node000036"><a xlink:title=" ">
<path fill="none" stroke="#63b8ff" d="M1459.27,-217.92C1502.84,-209.05 1566.51,-195.95 1622,-184 1624.91,-183.37 1627.94,-182.71 1630.96,-182.04"/>
<polygon fill="#63b8ff" stroke="#63b8ff" points="1458.57,-214.49 1449.47,-219.92 1459.97,-221.35 1458.57,-214.49"/>
</a>
</g>
</g>
<!-- Node37&#45;&gt;Node27 -->
<g id="edge51_Node000037_Node000027" class="edge">
<title>Node37&#45;&gt;Node27</title>
<g id="a_edge51_Node000037_Node000027"><a xlink:title=" ">
<path fill="none" stroke="#63b8ff" d="M1565.18,-210.53C1560.8,-201.6 1555.71,-191.22 1552.21,-184.09"/>
<polygon fill="#63b8ff" stroke="#63b8ff" points="1562.16,-212.31 1569.71,-219.75 1568.44,-209.23 1562.16,-212.31"/>
</a>
</g>
</g>
<!-- Node37&#45;&gt;Node28 -->
<g id="edge50_Node000037_Node000028" class="edge">
<title>Node37&#45;&gt;Node28</title>
<g id="a_edge50_Node000037_Node000028"><a xlink:title=" ">
<path fill="none" stroke="#63b8ff" d="M1637.35,-217.71C1678.75,-207.98 1721.19,-191.12 1698,-165 1676.56,-140.86 1465.6,-127.48 1370.31,-122.63"/>
<polygon fill="#63b8ff" stroke="#63b8ff" points="1636.45,-214.33 1627.45,-219.92 1637.97,-221.16 1636.45,-214.33"/>
</a>
</g>
</g>
<!-- Node37&#45;&gt;Node30 -->
<g id="edge49_Node000037_Node000030" class="edge">
<title>Node37&#45;&gt;Node30</title>
<g id="a_edge49_Node000037_Node000030"><a xlink:title=" ">
<path fill="none" stroke="#63b8ff" d="M1642.01,-224.01C1669.24,-218.47 1698.11,-207.05 1715,-184 1763.48,-117.86 1636.17,-43.78 1588.33,-19.05"/>
<polygon fill="#63b8ff" stroke="#63b8ff" points="1641.3,-220.58 1632.08,-225.8 1642.54,-227.47 1641.3,-220.58"/>
</a>
</g>
</g>
</g>
</svg>
