<?xml version="1.0" encoding="UTF-8" standalone="no"?>
<!DOCTYPE svg PUBLIC "-//W3C//DTD SVG 1.1//EN"
 "http://www.w3.org/Graphics/SVG/1.1/DTD/svg11.dtd">
<!-- Generated by graphviz version 2.43.0 (0)
 -->
<!-- Title: typedefs.hpp Pages: 1 -->
<!--zoomable 364 -->
<svg id="main" version="1.1" xmlns="http://www.w3.org/2000/svg" xmlns:xlink="http://www.w3.org/1999/xlink" xml:space="preserve" onload="init(evt)">
<style type="text/css"><![CDATA[
.edge:hover path { stroke: red; }
.edge:hover polygon { stroke: red; fill: red; }
]]></style>
<script type="text/javascript"><![CDATA[
var edges = document.getElementsByTagName('g');
if (edges && edges.length) {
  for (var i=0;i<edges.length;i++) {
    if (edges[i].id.substr(0,4)=='edge') {
      edges[i].setAttribute('class','edge');
    }
  }
}
]]></script>
        <defs>
                <circle id="rim" cx="0" cy="0" r="7"/>
                <circle id="rim2" cx="0" cy="0" r="3.5"/>
                <g id="zoomPlus">
                        <use xlink:href="#rim" fill="#404040">
                                <set attributeName="fill" to="#808080" begin="zoomplus.mouseover" end="zoomplus.mouseout"/>
                        </use>
                        <path d="M-4,0h8M0,-4v8" fill="none" stroke="white" stroke-width="1.5" pointer-events="none"/>
                </g>
                <g id="zoomMin">
                        <use xlink:href="#rim" fill="#404040">
                                <set attributeName="fill" to="#808080" begin="zoomminus.mouseover" end="zoomminus.mouseout"/>
                        </use>
                        <path d="M-4,0h8" fill="none" stroke="white" stroke-width="1.5" pointer-events="none"/>
                </g>
                <g id="dirArrow">
                        <path fill="none" stroke="white" stroke-width="1.5" d="M0,-3.0v7 M-2.5,-0.5L0,-3.0L2.5,-0.5"/>
                </g>
               <g id="resetDef">
                       <use xlink:href="#rim2" fill="#404040">
                               <set attributeName="fill" to="#808080" begin="reset.mouseover" end="reset.mouseout"/>
                       </use>
               </g>
        </defs>

<script type="text/javascript">
var viewWidth = 1990;
var viewHeight = 364;
var sectionId = 'dynsection-1';
</script>
<script xlink:href="svgpan.js"/>
<svg id="graph" class="graph">
<g id="viewport">
<title>typedefs.hpp</title>
<polygon fill="white" stroke="transparent" points="-4,4 -4,-360 1986,-360 1986,4 -4,4"/>
<!-- Node1 -->
<g id="node1" class="node">
<title>Node1</title>
<g id="a_node1"><a xlink:title=" ">
<polygon fill="#bfbfbf" stroke="black" points="966,-336.5 966,-355.5 1046,-355.5 1046,-336.5 966,-336.5"/>
<text text-anchor="middle" x="1006" y="-343.5" font-family="Helvetica,sans-Serif" font-size="10.00">typedefs.hpp</text>
</a>
</g>
</g>
<!-- Node2 -->
<g id="node2" class="node">
<title>Node2</title>
<g id="a_node2"><a xlink:href="AbsArgument_8hpp.html" target="_top" xlink:title=" ">
<polygon fill="white" stroke="black" points="157,-112.5 157,-131.5 261,-131.5 261,-112.5 157,-112.5"/>
<text text-anchor="middle" x="209" y="-119.5" font-family="Helvetica,sans-Serif" font-size="10.00">AbsArgument.hpp</text>
</a>
</g>
</g>
<!-- Node1&#45;&gt;Node2 -->
<g id="edge1" class="edge">
<title>Node1&#45;&gt;Node2</title>
<path fill="none" stroke="midnightblue" d="M955.24,-345.29C873.7,-344.51 709.19,-337.84 576,-300 429.02,-258.24 268.8,-160.94 222.31,-131.55"/>
<polygon fill="midnightblue" stroke="midnightblue" points="955.69,-348.79 965.71,-345.36 955.73,-341.79 955.69,-348.79"/>
</g>
<!-- Node3 -->
<g id="node3" class="node">
<title>Node3</title>
<g id="a_node3"><a xlink:href="AggregateArgument_8hpp.html" target="_top" xlink:title=" ">
<polygon fill="white" stroke="black" points="0,-56.5 0,-75.5 136,-75.5 136,-56.5 0,-56.5"/>
<text text-anchor="middle" x="68" y="-63.5" font-family="Helvetica,sans-Serif" font-size="10.00">AggregateArgument.hpp</text>
</a>
</g>
</g>
<!-- Node1&#45;&gt;Node3 -->
<g id="edge6" class="edge">
<title>Node1&#45;&gt;Node3</title>
<path fill="none" stroke="midnightblue" d="M955.85,-344.24C765.57,-340.68 99,-322.03 99,-235 99,-235 99,-235 99,-177 99,-137.91 80.64,-93.84 72.18,-75.61"/>
<polygon fill="midnightblue" stroke="midnightblue" points="955.8,-347.74 965.86,-344.42 955.92,-340.74 955.8,-347.74"/>
</g>
<!-- Node7 -->
<g id="node7" class="node">
<title>Node7</title>
<g id="a_node7"><a xlink:href="ArgParse_8hpp.html" target="_top" xlink:title=" ">
<polygon fill="white" stroke="black" points="454,-168.5 454,-187.5 534,-187.5 534,-168.5 454,-168.5"/>
<text text-anchor="middle" x="494" y="-175.5" font-family="Helvetica,sans-Serif" font-size="10.00">ArgParse.hpp</text>
</a>
</g>
</g>
<!-- Node1&#45;&gt;Node7 -->
<g id="edge7" class="edge">
<title>Node1&#45;&gt;Node7</title>
<path fill="none" stroke="midnightblue" d="M955.54,-341.7C842.52,-333.23 574.16,-306.84 513,-244 497.91,-228.5 494.7,-201.7 494.08,-187.85"/>
<polygon fill="midnightblue" stroke="midnightblue" points="955.43,-345.2 965.66,-342.44 955.94,-338.22 955.43,-345.2"/>
</g>
<!-- Node10 -->
<g id="node10" class="node">
<title>Node10</title>
<g id="a_node10"><a xlink:href="ArgumentMapper_8hpp.html" target="_top" xlink:title=" ">
<polygon fill="white" stroke="black" points="1860,-280.5 1860,-299.5 1982,-299.5 1982,-280.5 1860,-280.5"/>
<text text-anchor="middle" x="1921" y="-287.5" font-family="Helvetica,sans-Serif" font-size="10.00">ArgumentMapper.hpp</text>
</a>
</g>
</g>
<!-- Node1&#45;&gt;Node10 -->
<g id="edge11" class="edge">
<title>Node1&#45;&gt;Node10</title>
<path fill="none" stroke="midnightblue" d="M1056.38,-343.46C1186.98,-339.22 1547.1,-325.91 1846,-300 1850.44,-299.61 1855.03,-299.17 1859.64,-298.7"/>
<polygon fill="midnightblue" stroke="midnightblue" points="1056.17,-339.96 1046.28,-343.78 1056.39,-346.96 1056.17,-339.96"/>
</g>
<!-- Node11 -->
<g id="node11" class="node">
<title>Node11</title>
<g id="a_node11"><a xlink:href="ThreadPool_8hpp.html" target="_top" xlink:title=" ">
<polygon fill="white" stroke="black" points="1005,-112.5 1005,-131.5 1097,-131.5 1097,-112.5 1005,-112.5"/>
<text text-anchor="middle" x="1051" y="-119.5" font-family="Helvetica,sans-Serif" font-size="10.00">ThreadPool.hpp</text>
</a>
</g>
</g>
<!-- Node1&#45;&gt;Node11 -->
<g id="edge12" class="edge">
<title>Node1&#45;&gt;Node11</title>
<path fill="none" stroke="midnightblue" d="M987.81,-329.34C964.52,-307.3 928.36,-265.18 939,-224 946.12,-196.46 949.9,-188.13 970,-168 986.6,-151.38 1010.61,-139.08 1028.18,-131.58"/>
<polygon fill="midnightblue" stroke="midnightblue" points="985.66,-332.12 995.41,-336.27 990.37,-326.95 985.66,-332.12"/>
</g>
<!-- Node15 -->
<g id="node15" class="node">
<title>Node15</title>
<g id="a_node15"><a xlink:href="abstree_8hpp.html" target="_top" xlink:title=" ">
<polygon fill="white" stroke="black" points="1394,-56.5 1394,-75.5 1468,-75.5 1468,-56.5 1394,-56.5"/>
<text text-anchor="middle" x="1431" y="-63.5" font-family="Helvetica,sans-Serif" font-size="10.00">abstree.hpp</text>
</a>
</g>
</g>
<!-- Node1&#45;&gt;Node15 -->
<g id="edge52" class="edge">
<title>Node1&#45;&gt;Node15</title>
<path fill="none" stroke="midnightblue" d="M1056.54,-343.66C1215.36,-338.2 1698.36,-311.51 1775,-188 1779.69,-180.45 1780.33,-175.12 1775,-168 1756.19,-142.87 1553.37,-94.62 1468.26,-75.3"/>
<polygon fill="midnightblue" stroke="midnightblue" points="1056,-340.18 1046.12,-344.01 1056.23,-347.18 1056,-340.18"/>
</g>
<!-- Node16 -->
<g id="node16" class="node">
<title>Node16</title>
<g id="a_node16"><a xlink:href="ContiguousTree_8hpp.html" target="_top" xlink:title=" ">
<polygon fill="white" stroke="black" points="1486.5,-56.5 1486.5,-75.5 1599.5,-75.5 1599.5,-56.5 1486.5,-56.5"/>
<text text-anchor="middle" x="1543" y="-63.5" font-family="Helvetica,sans-Serif" font-size="10.00">ContiguousTree.hpp</text>
</a>
</g>
</g>
<!-- Node1&#45;&gt;Node16 -->
<g id="edge53" class="edge">
<title>Node1&#45;&gt;Node16</title>
<path fill="none" stroke="midnightblue" d="M1056.32,-343.63C1235.54,-338.07 1832,-313.68 1832,-235 1832,-235 1832,-235 1832,-177 1832,-126.6 1676.55,-90.96 1593.67,-75.54"/>
<polygon fill="midnightblue" stroke="midnightblue" points="1056.01,-340.13 1046.12,-343.93 1056.22,-347.13 1056.01,-340.13"/>
</g>
<!-- Node17 -->
<g id="node17" class="node">
<title>Node17</title>
<g id="a_node17"><a xlink:href="ThreadPoolBase_8hpp.html" target="_top" xlink:title=" ">
<polygon fill="white" stroke="black" points="948,-224.5 948,-243.5 1064,-243.5 1064,-224.5 948,-224.5"/>
<text text-anchor="middle" x="1006" y="-231.5" font-family="Helvetica,sans-Serif" font-size="10.00">ThreadPoolBase.hpp</text>
</a>
</g>
</g>
<!-- Node1&#45;&gt;Node17 -->
<g id="edge18" class="edge">
<title>Node1&#45;&gt;Node17</title>
<path fill="none" stroke="midnightblue" d="M1006,-326.35C1006,-302.25 1006,-261.31 1006,-243.59"/>
<polygon fill="midnightblue" stroke="midnightblue" points="1002.5,-326.37 1006,-336.37 1009.5,-326.37 1002.5,-326.37"/>
</g>
<!-- Node19 -->
<g id="node19" class="node">
<title>Node19</title>
<g id="a_node19"><a xlink:href="OutputStream_8hpp.html" target="_top" xlink:title=" ">
<polygon fill="white" stroke="black" points="696,-280.5 696,-299.5 802,-299.5 802,-280.5 696,-280.5"/>
<text text-anchor="middle" x="749" y="-287.5" font-family="Helvetica,sans-Serif" font-size="10.00">OutputStream.hpp</text>
</a>
</g>
</g>
<!-- Node1&#45;&gt;Node19 -->
<g id="edge23" class="edge">
<title>Node1&#45;&gt;Node19</title>
<path fill="none" stroke="midnightblue" d="M955.88,-334.47C907.38,-324.28 834.77,-309.02 789.72,-299.56"/>
<polygon fill="midnightblue" stroke="midnightblue" points="955.34,-337.93 965.84,-336.56 956.78,-331.08 955.34,-337.93"/>
</g>
<!-- Node30 -->
<g id="node30" class="node">
<title>Node30</title>
<g id="a_node30"><a xlink:href="UnstructuredView_8hpp.html" target="_top" xlink:title=" ">
<polygon fill="white" stroke="black" points="1134,-168.5 1134,-187.5 1258,-187.5 1258,-168.5 1134,-168.5"/>
<text text-anchor="middle" x="1196" y="-175.5" font-family="Helvetica,sans-Serif" font-size="10.00">UnstructuredView.hpp</text>
</a>
</g>
</g>
<!-- Node1&#45;&gt;Node30 -->
<g id="edge37" class="edge">
<title>Node1&#45;&gt;Node30</title>
<path fill="none" stroke="midnightblue" d="M1023.89,-329.37C1063.15,-295.07 1155.76,-214.16 1186.15,-187.61"/>
<polygon fill="midnightblue" stroke="midnightblue" points="1021.18,-327.09 1015.95,-336.31 1025.78,-332.37 1021.18,-327.09"/>
</g>
<!-- Node31 -->
<g id="node31" class="node">
<title>Node31</title>
<g id="a_node31"><a xlink:href="STLContainerBase_8hpp.html" target="_top" xlink:title=" ">
<polygon fill="white" stroke="black" points="1262,-280.5 1262,-299.5 1388,-299.5 1388,-280.5 1262,-280.5"/>
<text text-anchor="middle" x="1325" y="-287.5" font-family="Helvetica,sans-Serif" font-size="10.00">STLContainerBase.hpp</text>
</a>
</g>
</g>
<!-- Node1&#45;&gt;Node31 -->
<g id="edge38" class="edge">
<title>Node1&#45;&gt;Node31</title>
<path fill="none" stroke="midnightblue" d="M1056.02,-336.53C1115.66,-326.44 1214.77,-309.66 1274.59,-299.53"/>
<polygon fill="midnightblue" stroke="midnightblue" points="1055.35,-333.1 1046.08,-338.22 1056.52,-340 1055.35,-333.1"/>
</g>
<!-- Node2&#45;&gt;Node3 -->
<g id="edge2" class="edge">
<title>Node2&#45;&gt;Node3</title>
<path fill="none" stroke="midnightblue" d="M177.07,-108.77C150.59,-98.63 113.61,-84.47 90.24,-75.52"/>
<polygon fill="midnightblue" stroke="midnightblue" points="176.07,-112.14 186.66,-112.44 178.57,-105.6 176.07,-112.14"/>
</g>
<!-- Node4 -->
<g id="node4" class="node">
<title>Node4</title>
<g id="a_node4"><a xlink:href="FlagArgument_8hpp.html" target="_top" xlink:title=" ">
<polygon fill="white" stroke="black" points="154.5,-56.5 154.5,-75.5 261.5,-75.5 261.5,-56.5 154.5,-56.5"/>
<text text-anchor="middle" x="208" y="-63.5" font-family="Helvetica,sans-Serif" font-size="10.00">FlagArgument.hpp</text>
</a>
</g>
</g>
<!-- Node2&#45;&gt;Node4 -->
<g id="edge3" class="edge">
<title>Node2&#45;&gt;Node4</title>
<path fill="none" stroke="midnightblue" d="M208.64,-101.8C208.48,-92.91 208.29,-82.78 208.16,-75.75"/>
<polygon fill="midnightblue" stroke="midnightblue" points="205.15,-102.15 208.83,-112.08 212.15,-102.02 205.15,-102.15"/>
</g>
<!-- Node5 -->
<g id="node5" class="node">
<title>Node5</title>
<g id="a_node5"><a xlink:href="KeywordArgument_8hpp.html" target="_top" xlink:title=" ">
<polygon fill="white" stroke="black" points="280,-56.5 280,-75.5 408,-75.5 408,-56.5 280,-56.5"/>
<text text-anchor="middle" x="344" y="-63.5" font-family="Helvetica,sans-Serif" font-size="10.00">KeywordArgument.hpp</text>
</a>
</g>
</g>
<!-- Node2&#45;&gt;Node5 -->
<g id="edge4" class="edge">
<title>Node2&#45;&gt;Node5</title>
<path fill="none" stroke="midnightblue" d="M239.91,-108.64C265.24,-98.5 300.43,-84.43 322.71,-75.52"/>
<polygon fill="midnightblue" stroke="midnightblue" points="238.38,-105.48 230.39,-112.44 240.98,-111.98 238.38,-105.48"/>
</g>
<!-- Node6 -->
<g id="node6" class="node">
<title>Node6</title>
<g id="a_node6"><a xlink:href="PositionalArgument_8hpp.html" target="_top" xlink:title=" ">
<polygon fill="white" stroke="black" points="426,-56.5 426,-75.5 560,-75.5 560,-56.5 426,-56.5"/>
<text text-anchor="middle" x="493" y="-63.5" font-family="Helvetica,sans-Serif" font-size="10.00">PositionalArgument.hpp</text>
</a>
</g>
</g>
<!-- Node2&#45;&gt;Node6 -->
<g id="edge5" class="edge">
<title>Node2&#45;&gt;Node6</title>
<path fill="none" stroke="midnightblue" d="M264.03,-110.54C317.7,-100.33 398.34,-85 448.21,-75.52"/>
<polygon fill="midnightblue" stroke="midnightblue" points="263.17,-107.14 254,-112.44 264.48,-114.01 263.17,-107.14"/>
</g>
<!-- Node7&#45;&gt;Node2 -->
<g id="edge8" class="edge">
<title>Node7&#45;&gt;Node2</title>
<path fill="none" stroke="midnightblue" d="M443.8,-167.49C390.14,-157.32 305.85,-141.35 254.2,-131.56"/>
<polygon fill="midnightblue" stroke="midnightblue" points="443.29,-170.95 453.77,-169.38 444.6,-164.08 443.29,-170.95"/>
</g>
<!-- Node8 -->
<g id="node8" class="node">
<title>Node8</title>
<g id="a_node8"><a xlink:href="container__extension_8hpp.html" target="_top" xlink:title=" ">
<polygon fill="white" stroke="black" points="279.5,-112.5 279.5,-131.5 416.5,-131.5 416.5,-112.5 279.5,-112.5"/>
<text text-anchor="middle" x="348" y="-119.5" font-family="Helvetica,sans-Serif" font-size="10.00">container_extension.hpp</text>
</a>
</g>
</g>
<!-- Node7&#45;&gt;Node8 -->
<g id="edge9" class="edge">
<title>Node7&#45;&gt;Node8</title>
<path fill="none" stroke="midnightblue" d="M461.3,-164.91C433.85,-154.75 395.33,-140.51 371.03,-131.52"/>
<polygon fill="midnightblue" stroke="midnightblue" points="460.27,-168.26 470.87,-168.44 462.7,-161.69 460.27,-168.26"/>
</g>
<!-- Node9 -->
<g id="node9" class="node">
<title>Node9</title>
<g id="a_node9"><a xlink:href="file__system__extension_8hpp.html" target="_top" xlink:title=" ">
<polygon fill="white" stroke="black" points="434.5,-112.5 434.5,-131.5 581.5,-131.5 581.5,-112.5 434.5,-112.5"/>
<text text-anchor="middle" x="508" y="-119.5" font-family="Helvetica,sans-Serif" font-size="10.00">file_system_extension.hpp</text>
</a>
</g>
</g>
<!-- Node7&#45;&gt;Node9 -->
<g id="edge10" class="edge">
<title>Node7&#45;&gt;Node9</title>
<path fill="none" stroke="midnightblue" d="M498.82,-158.4C501.17,-149.36 503.87,-138.94 505.73,-131.75"/>
<polygon fill="midnightblue" stroke="midnightblue" points="495.43,-157.52 496.31,-168.08 502.21,-159.28 495.43,-157.52"/>
</g>
<!-- Node12 -->
<g id="node12" class="node">
<title>Node12</title>
<g id="a_node12"><a xlink:href="ParallelFor_8hpp.html" target="_top" xlink:title=" ">
<polygon fill="white" stroke="black" points="1163,-56.5 1163,-75.5 1251,-75.5 1251,-56.5 1163,-56.5"/>
<text text-anchor="middle" x="1207" y="-63.5" font-family="Helvetica,sans-Serif" font-size="10.00">ParallelFor.hpp</text>
</a>
</g>
</g>
<!-- Node11&#45;&gt;Node12 -->
<g id="edge13" class="edge">
<title>Node11&#45;&gt;Node12</title>
<path fill="none" stroke="midnightblue" d="M1085.17,-109.17C1114.54,-99 1156.2,-84.59 1182.4,-75.52"/>
<polygon fill="midnightblue" stroke="midnightblue" points="1084.02,-105.86 1075.72,-112.44 1086.31,-112.48 1084.02,-105.86"/>
</g>
<!-- Node13 -->
<g id="node13" class="node">
<title>Node13</title>
<g id="a_node13"><a xlink:href="ResourceLoader_8hpp.html" target="_top" xlink:title=" ">
<polygon fill="white" stroke="black" points="951.5,-56.5 951.5,-75.5 1066.5,-75.5 1066.5,-56.5 951.5,-56.5"/>
<text text-anchor="middle" x="1009" y="-63.5" font-family="Helvetica,sans-Serif" font-size="10.00">ResourceLoader.hpp</text>
</a>
</g>
</g>
<!-- Node11&#45;&gt;Node13 -->
<g id="edge14" class="edge">
<title>Node11&#45;&gt;Node13</title>
<path fill="none" stroke="midnightblue" d="M1037.89,-104.14C1030.57,-94.74 1021.76,-83.4 1015.81,-75.75"/>
<polygon fill="midnightblue" stroke="midnightblue" points="1035.16,-106.34 1044.06,-112.08 1040.69,-102.04 1035.16,-106.34"/>
</g>
<!-- Node11&#45;&gt;Node15 -->
<g id="edge16" class="edge">
<title>Node11&#45;&gt;Node15</title>
<path fill="none" stroke="midnightblue" d="M1107.44,-112.98C1186.26,-101.78 1327.12,-81.76 1393.91,-72.27"/>
<polygon fill="midnightblue" stroke="midnightblue" points="1106.62,-109.56 1097.22,-114.43 1107.61,-116.49 1106.62,-109.56"/>
</g>
<!-- Node11&#45;&gt;Node16 -->
<g id="edge17" class="edge">
<title>Node11&#45;&gt;Node16</title>
<path fill="none" stroke="midnightblue" d="M1107.12,-115.62C1188.65,-107.68 1344.6,-92.02 1477,-76 1480.1,-75.63 1483.28,-75.23 1486.49,-74.82"/>
<polygon fill="midnightblue" stroke="midnightblue" points="1106.68,-112.14 1097.07,-116.59 1107.36,-119.11 1106.68,-112.14"/>
</g>
<!-- Node14 -->
<g id="node14" class="node">
<title>Node14</title>
<g id="a_node14"><a xlink:href="ResourceQueue_8hpp.html" target="_top" xlink:title=" ">
<polygon fill="white" stroke="black" points="888,-0.5 888,-19.5 1002,-19.5 1002,-0.5 888,-0.5"/>
<text text-anchor="middle" x="945" y="-7.5" font-family="Helvetica,sans-Serif" font-size="10.00">ResourceQueue.hpp</text>
</a>
</g>
</g>
<!-- Node13&#45;&gt;Node14 -->
<g id="edge15" class="edge">
<title>Node13&#45;&gt;Node14</title>
<path fill="none" stroke="midnightblue" d="M991.01,-49.82C979.54,-40.15 965.09,-27.95 955.47,-19.83"/>
<polygon fill="midnightblue" stroke="midnightblue" points="988.82,-52.55 998.72,-56.32 993.33,-47.2 988.82,-52.55"/>
</g>
<!-- Node17&#45;&gt;Node11 -->
<g id="edge20" class="edge">
<title>Node17&#45;&gt;Node11</title>
<path fill="none" stroke="midnightblue" d="M990.32,-216.85C979.29,-203.45 967.97,-184.06 977,-168 987.02,-150.18 1007.28,-138.59 1024.07,-131.64"/>
<polygon fill="midnightblue" stroke="midnightblue" points="987.71,-219.19 996.97,-224.34 992.95,-214.54 987.71,-219.19"/>
</g>
<!-- Node17&#45;&gt;Node14 -->
<g id="edge19" class="edge">
<title>Node17&#45;&gt;Node14</title>
<path fill="none" stroke="midnightblue" d="M990.33,-216.94C983.2,-208.84 975.21,-198.51 970,-188 943.38,-134.26 940,-115.94 942,-56 942.42,-43.32 943.51,-28.67 944.25,-19.62"/>
<polygon fill="midnightblue" stroke="midnightblue" points="987.94,-219.52 997.3,-224.49 993.09,-214.77 987.94,-219.52"/>
</g>
<!-- Node18 -->
<g id="node18" class="node">
<title>Node18</title>
<g id="a_node18"><a xlink:href="ThreadPoolStorage_8hpp.html" target="_top" xlink:title=" ">
<polygon fill="white" stroke="black" points="986,-168.5 986,-187.5 1116,-187.5 1116,-168.5 986,-168.5"/>
<text text-anchor="middle" x="1051" y="-175.5" font-family="Helvetica,sans-Serif" font-size="10.00">ThreadPoolStorage.hpp</text>
</a>
</g>
</g>
<!-- Node17&#45;&gt;Node18 -->
<g id="edge21" class="edge">
<title>Node17&#45;&gt;Node18</title>
<path fill="none" stroke="midnightblue" d="M1020.05,-216.14C1027.89,-206.74 1037.33,-195.4 1043.71,-187.75"/>
<polygon fill="midnightblue" stroke="midnightblue" points="1017.14,-214.16 1013.43,-224.08 1022.52,-218.64 1017.14,-214.16"/>
</g>
<!-- Node18&#45;&gt;Node11 -->
<g id="edge22" class="edge">
<title>Node18&#45;&gt;Node11</title>
<path fill="none" stroke="midnightblue" d="M1051,-157.8C1051,-148.91 1051,-138.78 1051,-131.75"/>
<polygon fill="midnightblue" stroke="midnightblue" points="1047.5,-158.08 1051,-168.08 1054.5,-158.08 1047.5,-158.08"/>
</g>
<!-- Node19&#45;&gt;Node7 -->
<g id="edge24" class="edge">
<title>Node19&#45;&gt;Node7</title>
<path fill="none" stroke="midnightblue" d="M685.99,-288.26C640.72,-284.91 580.15,-274.37 536,-244 515.41,-229.83 502.57,-201.94 497.09,-187.74"/>
<polygon fill="midnightblue" stroke="midnightblue" points="685.78,-291.75 695.99,-288.9 686.23,-284.77 685.78,-291.75"/>
</g>
<!-- Node20 -->
<g id="node20" class="node">
<title>Node20</title>
<g id="a_node20"><a xlink:href="FileOutputStream_8hpp.html" target="_top" xlink:title=" ">
<polygon fill="white" stroke="black" points="545.5,-224.5 545.5,-243.5 668.5,-243.5 668.5,-224.5 545.5,-224.5"/>
<text text-anchor="middle" x="607" y="-231.5" font-family="Helvetica,sans-Serif" font-size="10.00">FileOutputStream.hpp</text>
</a>
</g>
</g>
<!-- Node19&#45;&gt;Node20 -->
<g id="edge25" class="edge">
<title>Node19&#45;&gt;Node20</title>
<path fill="none" stroke="midnightblue" d="M716.84,-276.77C690.17,-266.63 652.93,-252.47 629.4,-243.52"/>
<polygon fill="midnightblue" stroke="midnightblue" points="715.91,-280.16 726.5,-280.44 718.4,-273.62 715.91,-280.16"/>
</g>
<!-- Node28 -->
<g id="node28" class="node">
<title>Node28</title>
<g id="a_node28"><a xlink:href="StreamInterceptor_8hpp.html" target="_top" xlink:title=" ">
<polygon fill="white" stroke="black" points="686.5,-224.5 686.5,-243.5 811.5,-243.5 811.5,-224.5 686.5,-224.5"/>
<text text-anchor="middle" x="749" y="-231.5" font-family="Helvetica,sans-Serif" font-size="10.00">StreamInterceptor.hpp</text>
</a>
</g>
</g>
<!-- Node19&#45;&gt;Node28 -->
<g id="edge35" class="edge">
<title>Node19&#45;&gt;Node28</title>
<path fill="none" stroke="midnightblue" d="M749,-269.8C749,-260.91 749,-250.78 749,-243.75"/>
<polygon fill="midnightblue" stroke="midnightblue" points="745.5,-270.08 749,-280.08 752.5,-270.08 745.5,-270.08"/>
</g>
<!-- Node29 -->
<g id="node29" class="node">
<title>Node29</title>
<g id="a_node29"><a xlink:href="Color_8hpp.html" target="_top" xlink:title=" ">
<polygon fill="white" stroke="black" points="830,-224.5 830,-243.5 892,-243.5 892,-224.5 830,-224.5"/>
<text text-anchor="middle" x="861" y="-231.5" font-family="Helvetica,sans-Serif" font-size="10.00">Color.hpp</text>
</a>
</g>
</g>
<!-- Node19&#45;&gt;Node29 -->
<g id="edge36" class="edge">
<title>Node19&#45;&gt;Node29</title>
<path fill="none" stroke="midnightblue" d="M776.25,-275.86C797.02,-265.85 825.02,-252.35 843.05,-243.65"/>
<polygon fill="midnightblue" stroke="midnightblue" points="774.48,-272.83 766.99,-280.32 777.52,-279.13 774.48,-272.83"/>
</g>
<!-- Node21 -->
<g id="node21" class="node">
<title>Node21</title>
<g id="a_node21"><a xlink:href="Logger_8hpp.html" target="_top" xlink:title=" ">
<polygon fill="white" stroke="black" points="609,-168.5 609,-187.5 679,-187.5 679,-168.5 609,-168.5"/>
<text text-anchor="middle" x="644" y="-175.5" font-family="Helvetica,sans-Serif" font-size="10.00">Logger.hpp</text>
</a>
</g>
</g>
<!-- Node20&#45;&gt;Node21 -->
<g id="edge26" class="edge">
<title>Node20&#45;&gt;Node21</title>
<path fill="none" stroke="midnightblue" d="M618.95,-215.57C625.31,-206.27 632.87,-195.25 638,-187.75"/>
<polygon fill="midnightblue" stroke="midnightblue" points="615.87,-213.86 613.11,-224.08 621.65,-217.81 615.87,-213.86"/>
</g>
<!-- Node22 -->
<g id="node22" class="node">
<title>Node22</title>
<g id="a_node22"><a xlink:href="LogBlock_8hpp.html" target="_top" xlink:title=" ">
<polygon fill="white" stroke="black" points="638,-112.5 638,-131.5 720,-131.5 720,-112.5 638,-112.5"/>
<text text-anchor="middle" x="679" y="-119.5" font-family="Helvetica,sans-Serif" font-size="10.00">LogBlock.hpp</text>
</a>
</g>
</g>
<!-- Node21&#45;&gt;Node22 -->
<g id="edge27" class="edge">
<title>Node21&#45;&gt;Node22</title>
<path fill="none" stroke="midnightblue" d="M655.3,-159.57C661.32,-150.27 668.47,-139.25 673.33,-131.75"/>
<polygon fill="midnightblue" stroke="midnightblue" points="652.28,-157.79 649.78,-168.08 658.16,-161.6 652.28,-157.79"/>
</g>
<!-- Node23 -->
<g id="node23" class="node">
<title>Node23</title>
<g id="a_node23"><a xlink:href="Loggee_8hpp.html" target="_top" xlink:title=" ">
<polygon fill="white" stroke="black" points="578.5,-56.5 578.5,-75.5 651.5,-75.5 651.5,-56.5 578.5,-56.5"/>
<text text-anchor="middle" x="615" y="-63.5" font-family="Helvetica,sans-Serif" font-size="10.00">Loggee.hpp</text>
</a>
</g>
</g>
<!-- Node21&#45;&gt;Node23 -->
<g id="edge31" class="edge">
<title>Node21&#45;&gt;Node23</title>
<path fill="none" stroke="midnightblue" d="M637.46,-158.89C634.64,-150.73 631.45,-140.95 629,-132 623.58,-112.18 618.93,-88.5 616.6,-75.91"/>
<polygon fill="midnightblue" stroke="midnightblue" points="634.21,-160.2 640.84,-168.46 640.81,-157.86 634.21,-160.2"/>
</g>
<!-- Node26 -->
<g id="node26" class="node">
<title>Node26</title>
<g id="a_node26"><a xlink:href="LoggerSingleton_8hpp.html" target="_top" xlink:title=" ">
<polygon fill="white" stroke="black" points="738,-112.5 738,-131.5 854,-131.5 854,-112.5 738,-112.5"/>
<text text-anchor="middle" x="796" y="-119.5" font-family="Helvetica,sans-Serif" font-size="10.00">LoggerSingleton.hpp</text>
</a>
</g>
</g>
<!-- Node21&#45;&gt;Node26 -->
<g id="edge32" class="edge">
<title>Node21&#45;&gt;Node26</title>
<path fill="none" stroke="midnightblue" d="M677.67,-165.04C706.27,-154.88 746.61,-140.55 772.03,-131.52"/>
<polygon fill="midnightblue" stroke="midnightblue" points="676.34,-161.8 668.08,-168.44 678.68,-168.39 676.34,-161.8"/>
</g>
<!-- Node22&#45;&gt;Node23 -->
<g id="edge28" class="edge">
<title>Node22&#45;&gt;Node23</title>
<path fill="none" stroke="midnightblue" d="M661.01,-105.82C649.54,-96.15 635.09,-83.95 625.47,-75.83"/>
<polygon fill="midnightblue" stroke="midnightblue" points="658.82,-108.55 668.72,-112.32 663.33,-103.2 658.82,-108.55"/>
</g>
<!-- Node24 -->
<g id="node24" class="node">
<title>Node24</title>
<g id="a_node24"><a xlink:href="testing_8hpp.html" target="_top" xlink:title=" ">
<polygon fill="white" stroke="black" points="669.5,-56.5 669.5,-75.5 740.5,-75.5 740.5,-56.5 669.5,-56.5"/>
<text text-anchor="middle" x="705" y="-63.5" font-family="Helvetica,sans-Serif" font-size="10.00">testing.hpp</text>
</a>
</g>
</g>
<!-- Node22&#45;&gt;Node24 -->
<g id="edge29" class="edge">
<title>Node22&#45;&gt;Node24</title>
<path fill="none" stroke="midnightblue" d="M687.67,-102.98C692.09,-93.82 697.25,-83.09 700.79,-75.75"/>
<polygon fill="midnightblue" stroke="midnightblue" points="684.48,-101.55 683.29,-112.08 690.79,-104.59 684.48,-101.55"/>
</g>
<!-- Node25 -->
<g id="node25" class="node">
<title>Node25</title>
<g id="a_node25"><a xlink:href="essentials_8hpp.html" target="_top" xlink:title=" ">
<polygon fill="white" stroke="black" points="661.5,-0.5 661.5,-19.5 748.5,-19.5 748.5,-0.5 661.5,-0.5"/>
<text text-anchor="middle" x="705" y="-7.5" font-family="Helvetica,sans-Serif" font-size="10.00">essentials.hpp</text>
</a>
</g>
</g>
<!-- Node24&#45;&gt;Node25 -->
<g id="edge30" class="edge">
<title>Node24&#45;&gt;Node25</title>
<path fill="none" stroke="midnightblue" d="M705,-45.8C705,-36.91 705,-26.78 705,-19.75"/>
<polygon fill="midnightblue" stroke="midnightblue" points="701.5,-46.08 705,-56.08 708.5,-46.08 701.5,-46.08"/>
</g>
<!-- Node26&#45;&gt;Node24 -->
<g id="edge33" class="edge">
<title>Node26&#45;&gt;Node24</title>
<path fill="none" stroke="midnightblue" d="M772.71,-107.18C755.96,-97.24 733.9,-84.15 719.58,-75.65"/>
<polygon fill="midnightblue" stroke="midnightblue" points="770.99,-110.23 781.38,-112.32 774.57,-104.21 770.99,-110.23"/>
</g>
<!-- Node27 -->
<g id="node27" class="node">
<title>Node27</title>
<g id="a_node27"><a xlink:href="warning_8hpp.html" target="_top" xlink:title=" ">
<polygon fill="white" stroke="black" points="758.5,-56.5 758.5,-75.5 835.5,-75.5 835.5,-56.5 758.5,-56.5"/>
<text text-anchor="middle" x="797" y="-63.5" font-family="Helvetica,sans-Serif" font-size="10.00">warning.hpp</text>
</a>
</g>
</g>
<!-- Node26&#45;&gt;Node27 -->
<g id="edge34" class="edge">
<title>Node26&#45;&gt;Node27</title>
<path fill="none" stroke="midnightblue" d="M796.36,-101.8C796.52,-92.91 796.71,-82.78 796.84,-75.75"/>
<polygon fill="midnightblue" stroke="midnightblue" points="792.85,-102.02 796.17,-112.08 799.85,-102.15 792.85,-102.02"/>
</g>
<!-- Node32 -->
<g id="node32" class="node">
<title>Node32</title>
<g id="a_node32"><a xlink:href="DynamicArray_8hpp.html" target="_top" xlink:title=" ">
<polygon fill="white" stroke="black" points="1272,-224.5 1272,-243.5 1378,-243.5 1378,-224.5 1272,-224.5"/>
<text text-anchor="middle" x="1325" y="-231.5" font-family="Helvetica,sans-Serif" font-size="10.00">DynamicArray.hpp</text>
</a>
</g>
</g>
<!-- Node31&#45;&gt;Node32 -->
<g id="edge39" class="edge">
<title>Node31&#45;&gt;Node32</title>
<path fill="none" stroke="midnightblue" d="M1325,-269.8C1325,-260.91 1325,-250.78 1325,-243.75"/>
<polygon fill="midnightblue" stroke="midnightblue" points="1321.5,-270.08 1325,-280.08 1328.5,-270.08 1321.5,-270.08"/>
</g>
<!-- Node35 -->
<g id="node35" class="node">
<title>Node35</title>
<g id="a_node35"><a xlink:href="StaticArray_8hpp.html" target="_top" xlink:title=" ">
<polygon fill="white" stroke="black" points="1563,-224.5 1563,-243.5 1653,-243.5 1653,-224.5 1563,-224.5"/>
<text text-anchor="middle" x="1608" y="-231.5" font-family="Helvetica,sans-Serif" font-size="10.00">StaticArray.hpp</text>
</a>
</g>
</g>
<!-- Node31&#45;&gt;Node35 -->
<g id="edge48" class="edge">
<title>Node31&#45;&gt;Node35</title>
<path fill="none" stroke="midnightblue" d="M1379.83,-278.54C1433.32,-268.33 1513.67,-253 1563.37,-243.52"/>
<polygon fill="midnightblue" stroke="midnightblue" points="1379.01,-275.13 1369.84,-280.44 1380.32,-282.01 1379.01,-275.13"/>
</g>
<!-- Node32&#45;&gt;Node7 -->
<g id="edge40" class="edge">
<title>Node32&#45;&gt;Node7</title>
<path fill="none" stroke="midnightblue" d="M1261.52,-229.55C1135.4,-222.58 844.36,-205.95 600,-188 578.27,-186.4 554.05,-184.37 534.25,-182.63"/>
<polygon fill="midnightblue" stroke="midnightblue" points="1261.58,-233.05 1271.76,-230.11 1261.97,-226.07 1261.58,-233.05"/>
</g>
<!-- Node32&#45;&gt;Node12 -->
<g id="edge41" class="edge">
<title>Node32&#45;&gt;Node12</title>
<path fill="none" stroke="midnightblue" d="M1312.75,-215.76C1287.75,-180.59 1231.65,-101.68 1213.09,-75.57"/>
<polygon fill="midnightblue" stroke="midnightblue" points="1310.01,-217.95 1318.66,-224.08 1315.71,-213.9 1310.01,-217.95"/>
</g>
<!-- Node32&#45;&gt;Node15 -->
<g id="edge45" class="edge">
<title>Node32&#45;&gt;Node15</title>
<path fill="none" stroke="midnightblue" d="M1374.47,-220.99C1391.97,-214.22 1410.01,-203.81 1421,-188 1445.54,-152.69 1437.32,-96.82 1432.97,-75.58"/>
<polygon fill="midnightblue" stroke="midnightblue" points="1373.12,-217.76 1364.86,-224.39 1375.45,-224.36 1373.12,-217.76"/>
</g>
<!-- Node32&#45;&gt;Node16 -->
<g id="edge46" class="edge">
<title>Node32&#45;&gt;Node16</title>
<path fill="none" stroke="midnightblue" d="M1368.17,-221.44C1390.6,-214.12 1417.71,-203.15 1439,-188 1485.27,-155.08 1524.13,-97.29 1537.77,-75.57"/>
<polygon fill="midnightblue" stroke="midnightblue" points="1367.05,-218.12 1358.55,-224.45 1369.14,-224.8 1367.05,-218.12"/>
</g>
<!-- Node32&#45;&gt;Node18 -->
<g id="edge43" class="edge">
<title>Node32&#45;&gt;Node18</title>
<path fill="none" stroke="midnightblue" d="M1271.59,-222.47C1219.8,-212.27 1142.23,-196.98 1094.21,-187.52"/>
<polygon fill="midnightblue" stroke="midnightblue" points="1271.1,-225.94 1281.58,-224.44 1272.45,-219.08 1271.1,-225.94"/>
</g>
<!-- Node32&#45;&gt;Node30 -->
<g id="edge44" class="edge">
<title>Node32&#45;&gt;Node30</title>
<path fill="none" stroke="midnightblue" d="M1295.15,-220.5C1270.96,-210.38 1237.54,-196.39 1216.34,-187.52"/>
<polygon fill="midnightblue" stroke="midnightblue" points="1293.98,-223.81 1304.56,-224.44 1296.69,-217.35 1293.98,-223.81"/>
</g>
<!-- Node33 -->
<g id="node33" class="node">
<title>Node33</title>
<g id="a_node33"><a xlink:href="ThreadLocal_8hpp.html" target="_top" xlink:title=" ">
<polygon fill="white" stroke="black" points="1314.5,-168.5 1314.5,-187.5 1411.5,-187.5 1411.5,-168.5 1314.5,-168.5"/>
<text text-anchor="middle" x="1363" y="-175.5" font-family="Helvetica,sans-Serif" font-size="10.00">ThreadLocal.hpp</text>
</a>
</g>
</g>
<!-- Node32&#45;&gt;Node33 -->
<g id="edge42" class="edge">
<title>Node32&#45;&gt;Node33</title>
<path fill="none" stroke="midnightblue" d="M1337.06,-215.86C1343.64,-206.5 1351.51,-195.33 1356.84,-187.75"/>
<polygon fill="midnightblue" stroke="midnightblue" points="1334.17,-213.89 1331.27,-224.08 1339.89,-217.92 1334.17,-213.89"/>
</g>
<!-- Node34 -->
<g id="node34" class="node">
<title>Node34</title>
<g id="a_node34"><a xlink:href="stl__extension_8hpp.html" target="_top" xlink:title=" ">
<polygon fill="white" stroke="black" points="1506.5,-168.5 1506.5,-187.5 1609.5,-187.5 1609.5,-168.5 1506.5,-168.5"/>
<text text-anchor="middle" x="1558" y="-175.5" font-family="Helvetica,sans-Serif" font-size="10.00">stl_extension.hpp</text>
</a>
</g>
</g>
<!-- Node32&#45;&gt;Node34 -->
<g id="edge47" class="edge">
<title>Node32&#45;&gt;Node34</title>
<path fill="none" stroke="midnightblue" d="M1371.8,-222.15C1415.83,-211.95 1480.85,-196.88 1521.25,-187.52"/>
<polygon fill="midnightblue" stroke="midnightblue" points="1370.87,-218.78 1361.92,-224.44 1372.45,-225.6 1370.87,-218.78"/>
</g>
<!-- Node35&#45;&gt;Node34 -->
<g id="edge51" class="edge">
<title>Node35&#45;&gt;Node34</title>
<path fill="none" stroke="midnightblue" d="M1592.92,-216.72C1584.11,-207.2 1573.33,-195.56 1566.1,-187.75"/>
<polygon fill="midnightblue" stroke="midnightblue" points="1590.38,-219.12 1599.74,-224.08 1595.52,-214.37 1590.38,-219.12"/>
</g>
<!-- Node36 -->
<g id="node36" class="node">
<title>Node36</title>
<g id="a_node36"><a xlink:href="json_8hpp.html" target="_top" xlink:title=" ">
<polygon fill="white" stroke="black" points="1628,-168.5 1628,-187.5 1686,-187.5 1686,-168.5 1628,-168.5"/>
<text text-anchor="middle" x="1657" y="-175.5" font-family="Helvetica,sans-Serif" font-size="10.00">json.hpp</text>
</a>
</g>
</g>
<!-- Node35&#45;&gt;Node36 -->
<g id="edge49" class="edge">
<title>Node35&#45;&gt;Node36</title>
<path fill="none" stroke="midnightblue" d="M1623.03,-216.43C1631.62,-206.97 1642.04,-195.48 1649.06,-187.75"/>
<polygon fill="midnightblue" stroke="midnightblue" points="1620.22,-214.33 1616.09,-224.08 1625.4,-219.03 1620.22,-214.33"/>
</g>
<!-- Node37 -->
<g id="node37" class="node">
<title>Node37</title>
<g id="a_node37"><a xlink:href="base_8hpp.html" target="_top" xlink:title=" ">
<polygon fill="white" stroke="black" points="1704.5,-168.5 1704.5,-187.5 1765.5,-187.5 1765.5,-168.5 1704.5,-168.5"/>
<text text-anchor="middle" x="1735" y="-175.5" font-family="Helvetica,sans-Serif" font-size="10.00">base.hpp</text>
</a>
</g>
</g>
<!-- Node35&#45;&gt;Node37 -->
<g id="edge50" class="edge">
<title>Node35&#45;&gt;Node37</title>
<path fill="none" stroke="midnightblue" d="M1637.39,-220.5C1661.2,-210.38 1694.11,-196.39 1714.97,-187.52"/>
<polygon fill="midnightblue" stroke="midnightblue" points="1635.96,-217.31 1628.12,-224.44 1638.7,-223.75 1635.96,-217.31"/>
</g>
</g>
</svg>
        <g id="navigator" transform="translate(0 0)" fill="#404254">
                <rect fill="#f2f5e9" fill-opacity="0.5" stroke="#606060" stroke-width=".5" x="0" y="0" width="60" height="60"/>
                <use id="zoomplus" xlink:href="#zoomPlus" x="17" y="9" onmousedown="handleZoom(evt,'in')"/>
                <use id="zoomminus" xlink:href="#zoomMin" x="42" y="9" onmousedown="handleZoom(evt,'out')"/>
                <use id="reset" xlink:href="#resetDef" x="30" y="36" onmousedown="handleReset()"/>
                <g id="arrowUp" xlink:href="#dirArrow" transform="translate(30 24)" onmousedown="handlePan(0,-1)">
                  <use xlink:href="#rim" fill="#404040">
                        <set attributeName="fill" to="#808080" begin="arrowUp.mouseover" end="arrowUp.mouseout"/>
                  </use>
                  <path fill="none" stroke="white" stroke-width="1.5" d="M0,-3.0v7 M-2.5,-0.5L0,-3.0L2.5,-0.5"/>
                </g>
                <g id="arrowRight" xlink:href="#dirArrow" transform="rotate(90) translate(36 -43)" onmousedown="handlePan(1,0)">
                  <use xlink:href="#rim" fill="#404040">
                        <set attributeName="fill" to="#808080" begin="arrowRight.mouseover" end="arrowRight.mouseout"/>
                  </use>
                  <path fill="none" stroke="white" stroke-width="1.5" d="M0,-3.0v7 M-2.5,-0.5L0,-3.0L2.5,-0.5"/>
                </g>
                <g id="arrowDown" xlink:href="#dirArrow" transform="rotate(180) translate(-30 -48)" onmousedown="handlePan(0,1)">
                  <use xlink:href="#rim" fill="#404040">
                        <set attributeName="fill" to="#808080" begin="arrowDown.mouseover" end="arrowDown.mouseout"/>
                  </use>
                  <path fill="none" stroke="white" stroke-width="1.5" d="M0,-3.0v7 M-2.5,-0.5L0,-3.0L2.5,-0.5"/>
                </g>
                <g id="arrowLeft" xlink:href="#dirArrow" transform="rotate(270) translate(-36 17)" onmousedown="handlePan(-1,0)">
                  <use xlink:href="#rim" fill="#404040">
                        <set attributeName="fill" to="#808080" begin="arrowLeft.mouseover" end="arrowLeft.mouseout"/>
                  </use>
                  <path fill="none" stroke="white" stroke-width="1.5" d="M0,-3.0v7 M-2.5,-0.5L0,-3.0L2.5,-0.5"/>
                </g>
        </g>
        <svg viewBox="0 0 15 15" width="100%" height="30px" preserveAspectRatio="xMaxYMin meet">
         <g id="arrow_out" transform="scale(0.3 0.3)">
          <a xlink:href="typedefs_8hpp__dep__incl_org.svg" target="_base">
           <rect id="button" ry="5" rx="5" y="6" x="6" height="38" width="38"
                fill="#f2f5e9" fill-opacity="0.5" stroke="#606060" stroke-width="1.0"/>
           <path id="arrow"
             d="M 11.500037,31.436501 C 11.940474,20.09759 22.043105,11.32322 32.158766,21.979434 L 37.068811,17.246167 C 37.068811,17.246167 37.088388,32 37.088388,32 L 22.160133,31.978069 C 22.160133,31.978069 26.997745,27.140456 26.997745,27.140456 C 18.528582,18.264221 13.291696,25.230495 11.500037,31.436501 z"
             style="fill:#404040;"/>
          </a>
         </g>
        </svg>
</svg>
