<?xml version="1.0" encoding="UTF-8" standalone="no"?>
<!DOCTYPE svg PUBLIC "-//W3C//DTD SVG 1.1//EN"
 "http://www.w3.org/Graphics/SVG/1.1/DTD/svg11.dtd">
<!-- Generated by graphviz version 2.43.0 (0)
 -->
<!-- Title: Unique.hpp Pages: 1 -->
<!--zoomable 379 -->

<svg id="main" version="1.1" xmlns="http://www.w3.org/2000/svg" xmlns:xlink="http://www.w3.org/1999/xlink" xml:space="preserve" onload="init(evt)">
<style type="text/css"><![CDATA[
.node, .edge {opacity: 0.7;}
.node.selected, .edge.selected {opacity: 1;}
.edge:hover path { stroke: red; }
.edge:hover polygon { stroke: red; fill: red; }
]]></style>

<defs>
  <circle id="rim" cx="0" cy="0" r="7"/>
  <circle id="rim2" cx="0" cy="0" r="3.5"/>
  <g id="zoomPlus">
    <use xlink:href="#rim" fill="#404040"><set attributeName="fill" to="#808080" begin="zoomplus.mouseover" end="zoomplus.mouseout"/></use>
    <path d="M-4,0h8M0,-4v8" fill="none" stroke="white" stroke-width="1.5" pointer-events="none"/>
  </g>
  <g id="zoomMin">
    <use xlink:href="#rim" fill="#404040"><set attributeName="fill" to="#808080" begin="zoomminus.mouseover" end="zoomminus.mouseout"/></use>
    <path d="M-4,0h8" fill="none" stroke="white" stroke-width="1.5" pointer-events="none"/>
  </g>
  <g id="arrowUp" transform="translate(30 24)">
    <use xlink:href="#rim"/>
    <path pointer-events="none" fill="none" stroke="white" stroke-width="1.5" d="M0,-3.0v7 M-2.5,-0.5L0,-3.0L2.5,-0.5"/>
  </g>
  <g id="arrowRight" transform="rotate(90) translate(36 -43)">
    <use xlink:href="#rim"/>
    <path pointer-events="none" fill="none" stroke="white" stroke-width="1.5" d="M0,-3.0v7 M-2.5,-0.5L0,-3.0L2.5,-0.5"/>
  </g>
  <g id="arrowDown" transform="rotate(180) translate(-30 -48)">
    <use xlink:href="#rim"/>
    <path pointer-events="none" fill="none" stroke="white" stroke-width="1.5" d="M0,-3.0v7 M-2.5,-0.5L0,-3.0L2.5,-0.5"/>
  </g>
  <g id="arrowLeft" transform="rotate(270) translate(-36 17)">
    <use xlink:href="#rim"/>
    <path pointer-events="none" fill="none" stroke="white" stroke-width="1.5" d="M0,-3.0v7 M-2.5,-0.5L0,-3.0L2.5,-0.5"/>
  </g>
  <g id="resetDef">
    <use xlink:href="#rim2" fill="#404040"><set attributeName="fill" to="#808080" begin="reset.mouseover" end="reset.mouseout"/></use>
  </g>
</defs>
<script type="application/ecmascript">
var viewWidth = 781;
var viewHeight = 379;
var sectionId = 'dynsection-0';
</script>
<script type="application/ecmascript" xlink:href="svg.min.js"/>
<svg id="graph" class="graph">
<g id="viewport">
<title>Unique.hpp</title>
<!-- Node1 -->
<g id="Node000001" class="node">
<title>Node1</title>
<g id="a_Node000001"><a xlink:title=" ">
<polygon fill="#999999" stroke="#666666" points="303.21,-371 231.21,-371 231.21,-352 303.21,-352 303.21,-371"/>
<text text-anchor="middle" x="267.21" y="-359" font-family="Helvetica,sans-Serif" font-size="10.00">Unique.hpp</text>
</a>
</g>
</g>
<!-- Node2 -->
<g id="Node000002" class="node">
<title>Node2</title>
<g id="a_Node000002"><a xlink:href="Range_8hpp.html" target="_top" xlink:title=" ">
<polygon fill="white" stroke="#666666" points="169.21,-316 21.21,-316 21.21,-275 169.21,-275 169.21,-316"/>
<text text-anchor="start" x="29.21" y="-304" font-family="Helvetica,sans-Serif" font-size="10.00">packages/compile_time</text>
<text text-anchor="start" x="29.21" y="-293" font-family="Helvetica,sans-Serif" font-size="10.00">/packages/parameter_pack</text>
<text text-anchor="middle" x="95.21" y="-282" font-family="Helvetica,sans-Serif" font-size="10.00">/inc/Range.hpp</text>
</a>
</g>
</g>
<!-- Node1&#45;&gt;Node2 -->
<g id="edge1_Node000001_Node000002" class="edge">
<title>Node1&#45;&gt;Node2</title>
<g id="a_edge1_Node000001_Node000002"><a xlink:title=" ">
<path fill="none" stroke="#63b8ff" d="M244.01,-351.87C221.84,-343.62 187.41,-330.81 157.26,-319.59"/>
<polygon fill="#63b8ff" stroke="#63b8ff" points="158.23,-316.22 147.64,-316.01 155.79,-322.78 158.23,-316.22"/>
</a>
</g>
</g>
<!-- Node13 -->
<g id="Node000013" class="node">
<title>Node13</title>
<g id="a_Node000013"><a xlink:href="Size_8hpp.html" target="_top" xlink:title=" ">
<polygon fill="white" stroke="#666666" points="583.21,-239 435.21,-239 435.21,-198 583.21,-198 583.21,-239"/>
<text text-anchor="start" x="443.21" y="-227" font-family="Helvetica,sans-Serif" font-size="10.00">packages/compile_time</text>
<text text-anchor="start" x="443.21" y="-216" font-family="Helvetica,sans-Serif" font-size="10.00">/packages/parameter_pack</text>
<text text-anchor="middle" x="509.21" y="-205" font-family="Helvetica,sans-Serif" font-size="10.00">/inc/Size.hpp</text>
</a>
</g>
</g>
<!-- Node1&#45;&gt;Node13 -->
<g id="edge26_Node000001_Node000013" class="edge">
<title>Node1&#45;&gt;Node13</title>
<g id="a_edge26_Node000001_Node000013"><a xlink:title=" ">
<path fill="none" stroke="#63b8ff" d="M283.89,-351.89C300.75,-343.11 327.49,-328.97 350.21,-316 391.35,-292.51 437.55,-264.25 469.51,-244.4"/>
<polygon fill="#63b8ff" stroke="#63b8ff" points="471.49,-247.3 478.13,-239.04 467.79,-241.35 471.49,-247.3"/>
</a>
</g>
</g>
<!-- Node16 -->
<g id="Node000016" class="node">
<title>Node16</title>
<g id="a_Node000016"><a xlink:href="Match_8hpp.html" target="_top" xlink:title=" ">
<polygon fill="white" stroke="#666666" points="341.21,-316 193.21,-316 193.21,-275 341.21,-275 341.21,-316"/>
<text text-anchor="start" x="201.21" y="-304" font-family="Helvetica,sans-Serif" font-size="10.00">packages/compile_time</text>
<text text-anchor="start" x="201.21" y="-293" font-family="Helvetica,sans-Serif" font-size="10.00">/packages/parameter_pack</text>
<text text-anchor="middle" x="267.21" y="-282" font-family="Helvetica,sans-Serif" font-size="10.00">/inc/Match.hpp</text>
</a>
</g>
</g>
<!-- Node1&#45;&gt;Node16 -->
<g id="edge17_Node000001_Node000016" class="edge">
<title>Node1&#45;&gt;Node16</title>
<g id="a_edge17_Node000001_Node000016"><a xlink:title=" ">
<path fill="none" stroke="#63b8ff" d="M267.21,-351.87C267.21,-345.22 267.21,-335.63 267.21,-326.28"/>
<polygon fill="#63b8ff" stroke="#63b8ff" points="270.71,-326.01 267.21,-316.01 263.71,-326.01 270.71,-326.01"/>
</a>
</g>
</g>
<!-- Node3 -->
<g id="Node000003" class="node">
<title>Node3</title>
<g id="a_Node000003"><a xlink:href="types_8hpp.html" target="_top" xlink:title=" ">
<polygon fill="white" stroke="#666666" points="424.21,-162 314.21,-162 314.21,-132 424.21,-132 424.21,-162"/>
<text text-anchor="start" x="322.21" y="-150" font-family="Helvetica,sans-Serif" font-size="10.00">packages/types/inc</text>
<text text-anchor="middle" x="369.21" y="-139" font-family="Helvetica,sans-Serif" font-size="10.00">/types.hpp</text>
</a>
</g>
</g>
<!-- Node2&#45;&gt;Node3 -->
<g id="edge2_Node000002_Node000003" class="edge">
<title>Node2&#45;&gt;Node3</title>
<g id="a_edge2_Node000002_Node000003"><a xlink:title=" ">
<path fill="none" stroke="#63b8ff" d="M169.51,-278.21C174.48,-277.12 179.42,-276.04 184.21,-275 257.97,-258.92 297.03,-292.59 350.21,-239 367.46,-221.62 370.93,-192.87 370.9,-172.34"/>
<polygon fill="#63b8ff" stroke="#63b8ff" points="374.4,-172.07 370.61,-162.18 367.4,-172.28 374.4,-172.07"/>
</a>
</g>
</g>
<!-- Node9 -->
<g id="Node000009" class="node">
<title>Node9</title>
<g id="a_Node000009"><a xlink:title=" ">
<polygon fill="#e0e0e0" stroke="#999999" points="161.71,-90.5 92.71,-90.5 92.71,-71.5 161.71,-71.5 161.71,-90.5"/>
<text text-anchor="middle" x="127.21" y="-78.5" font-family="Helvetica,sans-Serif" font-size="10.00">type_traits</text>
</a>
</g>
</g>
<!-- Node2&#45;&gt;Node9 -->
<g id="edge14_Node000002_Node000009" class="edge">
<title>Node2&#45;&gt;Node9</title>
<g id="a_edge14_Node000002_Node000009"><a xlink:title=" ">
<path fill="none" stroke="#63b8ff" d="M44.78,-274.74C29.63,-266.15 14.78,-254.44 6.21,-239 -2.63,-223.07 -0.94,-214.76 6.21,-198 25.89,-151.87 73.91,-115.27 103.2,-96.29"/>
<polygon fill="#63b8ff" stroke="#63b8ff" points="105.39,-99.04 111.99,-90.75 101.66,-93.12 105.39,-99.04"/>
</a>
</g>
</g>
<!-- Node2&#45;&gt;Node13 -->
<g id="edge12_Node000002_Node000013" class="edge">
<title>Node2&#45;&gt;Node13</title>
<g id="a_edge12_Node000002_Node000013"><a xlink:title=" ">
<path fill="none" stroke="#63b8ff" d="M169.46,-277.96C174.44,-276.93 179.4,-275.94 184.21,-275 265.84,-259.1 359.5,-243.37 425.24,-232.74"/>
<polygon fill="#63b8ff" stroke="#63b8ff" points="425.82,-236.19 435.13,-231.14 424.7,-229.28 425.82,-236.19"/>
</a>
</g>
</g>
<!-- Node14 -->
<g id="Node000014" class="node">
<title>Node14</title>
<g id="a_Node000014"><a xlink:title=" ">
<polygon fill="#e0e0e0" stroke="#999999" points="196.71,-156.5 155.71,-156.5 155.71,-137.5 196.71,-137.5 196.71,-156.5"/>
<text text-anchor="middle" x="176.21" y="-144.5" font-family="Helvetica,sans-Serif" font-size="10.00">tuple</text>
</a>
</g>
</g>
<!-- Node2&#45;&gt;Node14 -->
<g id="edge15_Node000002_Node000014" class="edge">
<title>Node2&#45;&gt;Node14</title>
<g id="a_edge15_Node000002_Node000014"><a xlink:title=" ">
<path fill="none" stroke="#63b8ff" d="M106.13,-274.74C122.05,-245.94 151.39,-192.89 166.56,-165.46"/>
<polygon fill="#63b8ff" stroke="#63b8ff" points="169.68,-167.04 171.45,-156.6 163.55,-163.66 169.68,-167.04"/>
</a>
</g>
</g>
<!-- Node15 -->
<g id="Node000015" class="node">
<title>Node15</title>
<g id="a_Node000015"><a xlink:title=" ">
<polygon fill="#e0e0e0" stroke="#999999" points="60.71,-228 15.71,-228 15.71,-209 60.71,-209 60.71,-228"/>
<text text-anchor="middle" x="38.21" y="-216" font-family="Helvetica,sans-Serif" font-size="10.00">utility</text>
</a>
</g>
</g>
<!-- Node2&#45;&gt;Node15 -->
<g id="edge16_Node000002_Node000015" class="edge">
<title>Node2&#45;&gt;Node15</title>
<g id="a_edge16_Node000002_Node000015"><a xlink:title=" ">
<path fill="none" stroke="#63b8ff" d="M80.23,-274.79C71.17,-262.88 59.75,-247.84 51.09,-236.45"/>
<polygon fill="#63b8ff" stroke="#63b8ff" points="53.69,-234.08 44.85,-228.24 48.11,-238.32 53.69,-234.08"/>
</a>
</g>
</g>
<!-- Node4 -->
<g id="Node000004" class="node">
<title>Node4</title>
<g id="a_Node000004"><a xlink:href="debug_8hpp.html" target="_top" xlink:title=" ">
<polygon fill="white" stroke="#666666" points="701.71,-96 582.71,-96 582.71,-66 701.71,-66 701.71,-96"/>
<text text-anchor="start" x="590.71" y="-84" font-family="Helvetica,sans-Serif" font-size="10.00">packages/macros/inc</text>
<text text-anchor="middle" x="642.21" y="-73" font-family="Helvetica,sans-Serif" font-size="10.00">/debug.hpp</text>
</a>
</g>
</g>
<!-- Node3&#45;&gt;Node4 -->
<g id="edge3_Node000003_Node000004" class="edge">
<title>Node3&#45;&gt;Node4</title>
<g id="a_edge3_Node000003_Node000004"><a xlink:title=" ">
<path fill="none" stroke="#63b8ff" d="M424.45,-133.05C467.13,-123.04 526.46,-109.13 572.42,-98.36"/>
<polygon fill="#63b8ff" stroke="#63b8ff" points="573.37,-101.73 582.31,-96.04 571.77,-94.92 573.37,-101.73"/>
</a>
</g>
</g>
<!-- Node7 -->
<g id="Node000007" class="node">
<title>Node7</title>
<g id="a_Node000007"><a xlink:title=" ">
<polygon fill="#e0e0e0" stroke="#999999" points="772.71,-90.5 719.71,-90.5 719.71,-71.5 772.71,-71.5 772.71,-90.5"/>
<text text-anchor="middle" x="746.21" y="-78.5" font-family="Helvetica,sans-Serif" font-size="10.00">cstddef</text>
</a>
</g>
</g>
<!-- Node3&#45;&gt;Node7 -->
<g id="edge6_Node000003_Node000007" class="edge">
<title>Node3&#45;&gt;Node7</title>
<g id="a_edge6_Node000003_Node000007"><a xlink:title=" ">
<path fill="none" stroke="#63b8ff" d="M424.21,-141.97C492.47,-136.05 611.98,-122.7 711.21,-96 713.37,-95.42 715.57,-94.75 717.77,-94.01"/>
<polygon fill="#63b8ff" stroke="#63b8ff" points="719.05,-97.27 727.23,-90.53 716.64,-90.7 719.05,-97.27"/>
</a>
</g>
</g>
<!-- Node8 -->
<g id="Node000008" class="node">
<title>Node8</title>
<g id="a_Node000008"><a xlink:title=" ">
<polygon fill="#e0e0e0" stroke="#999999" points="224.21,-90.5 180.21,-90.5 180.21,-71.5 224.21,-71.5 224.21,-90.5"/>
<text text-anchor="middle" x="202.21" y="-78.5" font-family="Helvetica,sans-Serif" font-size="10.00">string</text>
</a>
</g>
</g>
<!-- Node3&#45;&gt;Node8 -->
<g id="edge7_Node000003_Node000008" class="edge">
<title>Node3&#45;&gt;Node8</title>
<g id="a_edge7_Node000003_Node000008"><a xlink:title=" ">
<path fill="none" stroke="#63b8ff" d="M328.75,-131.98C301.55,-122.35 264.99,-109 233.21,-96 232.04,-95.52 230.85,-95.03 229.65,-94.52"/>
<polygon fill="#63b8ff" stroke="#63b8ff" points="231.04,-91.31 220.47,-90.51 228.24,-97.72 231.04,-91.31"/>
</a>
</g>
</g>
<!-- Node3&#45;&gt;Node9 -->
<g id="edge8_Node000003_Node000009" class="edge">
<title>Node3&#45;&gt;Node9</title>
<g id="a_edge8_Node000003_Node000009"><a xlink:title=" ">
<path fill="none" stroke="#63b8ff" d="M313.92,-132.99C274.07,-123.38 219.11,-109.66 171.21,-96 168.46,-95.22 165.63,-94.38 162.78,-93.52"/>
<polygon fill="#63b8ff" stroke="#63b8ff" points="163.78,-90.16 153.19,-90.55 161.71,-96.85 163.78,-90.16"/>
</a>
</g>
</g>
<!-- Node10 -->
<g id="Node000010" class="node">
<title>Node10</title>
<g id="a_Node000010"><a xlink:title=" ">
<polygon fill="#e0e0e0" stroke="#999999" points="292.21,-90.5 242.21,-90.5 242.21,-71.5 292.21,-71.5 292.21,-90.5"/>
<text text-anchor="middle" x="267.21" y="-78.5" font-family="Helvetica,sans-Serif" font-size="10.00">climits</text>
</a>
</g>
</g>
<!-- Node3&#45;&gt;Node10 -->
<g id="edge9_Node000003_Node000010" class="edge">
<title>Node3&#45;&gt;Node10</title>
<g id="a_edge9_Node000003_Node000010"><a xlink:title=" ">
<path fill="none" stroke="#63b8ff" d="M346.82,-131.95C329.8,-121.27 306.49,-106.65 289.5,-95.98"/>
<polygon fill="#63b8ff" stroke="#63b8ff" points="291.11,-92.87 280.78,-90.52 287.39,-98.8 291.11,-92.87"/>
</a>
</g>
</g>
<!-- Node11 -->
<g id="Node000011" class="node">
<title>Node11</title>
<g id="a_Node000011"><a xlink:title=" ">
<polygon fill="#e0e0e0" stroke="#999999" points="427.71,-96 310.71,-96 310.71,-66 427.71,-66 427.71,-96"/>
<text text-anchor="start" x="318.71" y="-84" font-family="Helvetica,sans-Serif" font-size="10.00">packages/types/impl</text>
<text text-anchor="middle" x="369.21" y="-73" font-family="Helvetica,sans-Serif" font-size="10.00">/types_impl.hpp</text>
</a>
</g>
</g>
<!-- Node3&#45;&gt;Node11 -->
<g id="edge10_Node000003_Node000011" class="edge">
<title>Node3&#45;&gt;Node11</title>
<g id="a_edge10_Node000003_Node000011"><a xlink:title=" ">
<path fill="none" stroke="#63b8ff" d="M369.21,-131.8C369.21,-124.34 369.21,-114.99 369.21,-106.41"/>
<polygon fill="#63b8ff" stroke="#63b8ff" points="372.71,-106.16 369.21,-96.16 365.71,-106.16 372.71,-106.16"/>
</a>
</g>
</g>
<!-- Node12 -->
<g id="Node000012" class="node">
<title>Node12</title>
<g id="a_Node000012"><a xlink:href="logging_8hpp.html" target="_top" xlink:title=" ">
<polygon fill="white" stroke="#666666" points="564.71,-96 445.71,-96 445.71,-66 564.71,-66 564.71,-96"/>
<text text-anchor="start" x="453.71" y="-84" font-family="Helvetica,sans-Serif" font-size="10.00">packages/macros/inc</text>
<text text-anchor="middle" x="505.21" y="-73" font-family="Helvetica,sans-Serif" font-size="10.00">/logging.hpp</text>
</a>
</g>
</g>
<!-- Node3&#45;&gt;Node12 -->
<g id="edge11_Node000003_Node000012" class="edge">
<title>Node3&#45;&gt;Node12</title>
<g id="a_edge11_Node000003_Node000012"><a xlink:title=" ">
<path fill="none" stroke="#63b8ff" d="M399.05,-131.95C418.81,-122.66 444.91,-110.38 466.29,-100.32"/>
<polygon fill="#63b8ff" stroke="#63b8ff" points="467.87,-103.44 475.43,-96.01 464.89,-97.1 467.87,-103.44"/>
</a>
</g>
</g>
<!-- Node5 -->
<g id="Node000005" class="node">
<title>Node5</title>
<g id="a_Node000005"><a xlink:href="detail_8hpp.html" target="_top" xlink:title=" ">
<polygon fill="white" stroke="#666666" points="647.71,-30 528.71,-30 528.71,0 647.71,0 647.71,-30"/>
<text text-anchor="start" x="536.71" y="-18" font-family="Helvetica,sans-Serif" font-size="10.00">packages/macros/inc</text>
<text text-anchor="middle" x="588.21" y="-7" font-family="Helvetica,sans-Serif" font-size="10.00">/detail.hpp</text>
</a>
</g>
</g>
<!-- Node4&#45;&gt;Node5 -->
<g id="edge4_Node000004_Node000005" class="edge">
<title>Node4&#45;&gt;Node5</title>
<g id="a_edge4_Node000004_Node000005"><a xlink:title=" ">
<path fill="none" stroke="#63b8ff" d="M630.22,-65.8C623.3,-57.59 614.45,-47.1 606.66,-37.87"/>
<polygon fill="#63b8ff" stroke="#63b8ff" points="609.28,-35.55 600.16,-30.16 603.93,-40.06 609.28,-35.55"/>
</a>
</g>
</g>
<!-- Node6 -->
<g id="Node000006" class="node">
<title>Node6</title>
<g id="a_Node000006"><a xlink:title=" ">
<polygon fill="#e0e0e0" stroke="#999999" points="726.21,-24.5 666.21,-24.5 666.21,-5.5 726.21,-5.5 726.21,-24.5"/>
<text text-anchor="middle" x="696.21" y="-12.5" font-family="Helvetica,sans-Serif" font-size="10.00">iostream</text>
</a>
</g>
</g>
<!-- Node4&#45;&gt;Node6 -->
<g id="edge5_Node000004_Node000006" class="edge">
<title>Node4&#45;&gt;Node6</title>
<g id="a_edge5_Node000004_Node000006"><a xlink:title=" ">
<path fill="none" stroke="#63b8ff" d="M654.19,-65.8C662.45,-56.01 673.44,-42.98 682.12,-32.7"/>
<polygon fill="#63b8ff" stroke="#63b8ff" points="684.97,-34.74 688.75,-24.84 679.62,-30.23 684.97,-34.74"/>
</a>
</g>
</g>
<!-- Node13&#45;&gt;Node3 -->
<g id="edge13_Node000013_Node000003" class="edge">
<title>Node13&#45;&gt;Node3</title>
<g id="a_edge13_Node000013_Node000003"><a xlink:title=" ">
<path fill="none" stroke="#63b8ff" d="M469.84,-197.96C450.1,-188.16 426.31,-176.35 406.82,-166.67"/>
<polygon fill="#63b8ff" stroke="#63b8ff" points="408.15,-163.42 397.64,-162.11 405.04,-169.69 408.15,-163.42"/>
</a>
</g>
</g>
<!-- Node16&#45;&gt;Node3 -->
<g id="edge18_Node000016_Node000003" class="edge">
<title>Node16&#45;&gt;Node3</title>
<g id="a_edge18_Node000016_Node000003"><a xlink:title=" ">
<path fill="none" stroke="#63b8ff" d="M339.49,-274.93C356.71,-266.7 373.03,-255.15 383.21,-239 395.98,-218.73 389,-191 381.02,-171.5"/>
<polygon fill="#63b8ff" stroke="#63b8ff" points="384.11,-169.85 376.85,-162.13 377.72,-172.69 384.11,-169.85"/>
</a>
</g>
</g>
<!-- Node16&#45;&gt;Node9 -->
<g id="edge24_Node000016_Node000009" class="edge">
<title>Node16&#45;&gt;Node9</title>
<g id="a_edge24_Node000016_Node000009"><a xlink:title=" ">
<path fill="none" stroke="#63b8ff" d="M216.22,-274.95C199.19,-266.22 181.46,-254.37 169.21,-239 136.16,-197.53 129,-132.35 127.53,-100.61"/>
<polygon fill="#63b8ff" stroke="#63b8ff" points="131.02,-100.42 127.21,-90.53 124.03,-100.64 131.02,-100.42"/>
</a>
</g>
</g>
<!-- Node16&#45;&gt;Node13 -->
<g id="edge23_Node000016_Node000013" class="edge">
<title>Node16&#45;&gt;Node13</title>
<g id="a_edge23_Node000016_Node000013"><a xlink:title=" ">
<path fill="none" stroke="#63b8ff" d="M330.16,-274.99C362.66,-264.92 402.49,-252.57 436.32,-242.09"/>
<polygon fill="#63b8ff" stroke="#63b8ff" points="437.64,-245.35 446.15,-239.04 435.56,-238.66 437.64,-245.35"/>
</a>
</g>
</g>
<!-- Node16&#45;&gt;Node14 -->
<g id="edge25_Node000016_Node000014" class="edge">
<title>Node16&#45;&gt;Node14</title>
<g id="a_edge25_Node000016_Node000014"><a xlink:title=" ">
<path fill="none" stroke="#63b8ff" d="M223.02,-274.93C208.22,-266.12 193.22,-254.21 184.21,-239 171.04,-216.75 171.4,-185.94 173.39,-166.49"/>
<polygon fill="#63b8ff" stroke="#63b8ff" points="176.88,-166.87 174.67,-156.51 169.93,-165.98 176.88,-166.87"/>
</a>
</g>
</g>
<!-- Node17 -->
<g id="Node000017" class="node">
<title>Node17</title>
<g id="a_Node000017"><a xlink:href="Select_8hpp.html" target="_top" xlink:title=" ">
<polygon fill="white" stroke="#666666" points="341.21,-239 193.21,-239 193.21,-198 341.21,-198 341.21,-239"/>
<text text-anchor="start" x="201.21" y="-227" font-family="Helvetica,sans-Serif" font-size="10.00">packages/compile_time</text>
<text text-anchor="start" x="201.21" y="-216" font-family="Helvetica,sans-Serif" font-size="10.00">/packages/parameter_pack</text>
<text text-anchor="middle" x="267.21" y="-205" font-family="Helvetica,sans-Serif" font-size="10.00">/inc/Select.hpp</text>
</a>
</g>
</g>
<!-- Node16&#45;&gt;Node17 -->
<g id="edge19_Node000016_Node000017" class="edge">
<title>Node16&#45;&gt;Node17</title>
<g id="a_edge19_Node000016_Node000017"><a xlink:title=" ">
<path fill="none" stroke="#63b8ff" d="M267.21,-274.79C267.21,-266.96 267.21,-257.77 267.21,-249.16"/>
<polygon fill="#63b8ff" stroke="#63b8ff" points="270.71,-249.07 267.21,-239.07 263.71,-249.07 270.71,-249.07"/>
</a>
</g>
</g>
<!-- Node17&#45;&gt;Node3 -->
<g id="edge20_Node000017_Node000003" class="edge">
<title>Node17&#45;&gt;Node3</title>
<g id="a_edge20_Node000017_Node000003"><a xlink:title=" ">
<path fill="none" stroke="#63b8ff" d="M295.89,-197.96C309.62,-188.6 326.03,-177.42 339.85,-168.01"/>
<polygon fill="#63b8ff" stroke="#63b8ff" points="342.2,-170.64 348.5,-162.11 338.26,-164.85 342.2,-170.64"/>
</a>
</g>
</g>
<!-- Node17&#45;&gt;Node14 -->
<g id="edge21_Node000017_Node000014" class="edge">
<title>Node17&#45;&gt;Node14</title>
<g id="a_edge21_Node000017_Node000014"><a xlink:title=" ">
<path fill="none" stroke="#63b8ff" d="M241.37,-197.77C226.89,-186.71 209.12,-173.13 195.79,-162.96"/>
<polygon fill="#63b8ff" stroke="#63b8ff" points="197.83,-160.11 187.76,-156.82 193.58,-165.67 197.83,-160.11"/>
</a>
</g>
</g>
<!-- Node18 -->
<g id="Node000018" class="node">
<title>Node18</title>
<g id="a_Node000018"><a xlink:title=" ">
<polygon fill="#e0e0e0" stroke="#999999" points="296.21,-156.5 236.21,-156.5 236.21,-137.5 296.21,-137.5 296.21,-156.5"/>
<text text-anchor="middle" x="266.21" y="-144.5" font-family="Helvetica,sans-Serif" font-size="10.00">concepts</text>
</a>
</g>
</g>
<!-- Node17&#45;&gt;Node18 -->
<g id="edge22_Node000017_Node000018" class="edge">
<title>Node17&#45;&gt;Node18</title>
<g id="a_edge22_Node000017_Node000018"><a xlink:title=" ">
<path fill="none" stroke="#63b8ff" d="M266.92,-197.77C266.79,-188.08 266.62,-176.46 266.48,-166.88"/>
<polygon fill="#63b8ff" stroke="#63b8ff" points="269.98,-166.77 266.34,-156.82 262.98,-166.87 269.98,-166.77"/>
</a>
</g>
</g>
</g>
</svg>

<g id="navigator" transform="translate(0 0)" fill="#404254">
  <rect fill="#f2f5e9" fill-opacity="0.5" stroke="#606060" stroke-width=".5" x="0" y="0" width="60" height="60"/>
  <use id="zoomplus" xlink:href="#zoomPlus" x="17" y="9" onmousedown="handleZoom(evt,'in')"/>
  <use id="zoomminus" xlink:href="#zoomMin" x="42" y="9" onmousedown="handleZoom(evt,'out')"/>
  <use id="reset" xlink:href="#resetDef" x="30" y="36" onmousedown="handleReset()"/>
   <use id="arrowup" xlink:href="#arrowUp" x="0" y="0" onmousedown="handlePan(0,-1)"/>
  <use id="arrowright" xlink:href="#arrowRight" x="0" y="0" onmousedown="handlePan(1,0)"/>
  <use id="arrowdown" xlink:href="#arrowDown" x="0" y="0" onmousedown="handlePan(0,1)"/>
  <use id="arrowleft" xlink:href="#arrowLeft" x="0" y="0" onmousedown="handlePan(-1,0)"/>
</g>
<svg viewBox="0 0 15 15" width="100%" height="30px" preserveAspectRatio="xMaxYMin meet">
 <g id="arrow_out" transform="scale(0.3 0.3)">
  <a xlink:href="Unique_8hpp__incl_org.svg" target="_base">
   <rect id="button" ry="5" rx="5" y="6" x="6" height="38" width="38"
        fill="#f2f5e9" fill-opacity="0.5" stroke="#606060" stroke-width="1.0"/>
   <path id="arrow"
     d="M 11.500037,31.436501 C 11.940474,20.09759 22.043105,11.32322 32.158766,21.979434 L 37.068811,17.246167 C 37.068811,17.246167 37.088388,32 37.088388,32 L 22.160133,31.978069 C 22.160133,31.978069 26.997745,27.140456 26.997745,27.140456 C 18.528582,18.264221 13.291696,25.230495 11.500037,31.436501 z"
     style="fill:#404040;"/>
  </a>
 </g>
</svg>

<style type='text/css'>
<![CDATA[
[data-mouse-over-selected='false'] { opacity: 0.7; }
[data-mouse-over-selected='true']  { opacity: 1.0; }
]]>
</style>
<script type="application/ecmascript"><![CDATA[
document.addEventListener('DOMContentLoaded', (event) => {
  highlightEdges();
  highlightAdjacentNodes();
});
]]></script>
</svg>
