<?xml version="1.0" encoding="UTF-8" standalone="no"?>
<!DOCTYPE svg PUBLIC "-//W3C//DTD SVG 1.1//EN"
 "http://www.w3.org/Graphics/SVG/1.1/DTD/svg11.dtd">
<!-- Generated by graphviz version 2.43.0 (0)
 -->
<!-- Title: Unique.hpp Pages: 1 -->
<svg width="875pt" height="385pt"
 viewBox="0.00 0.00 875.49 385.00" xmlns="http://www.w3.org/2000/svg" xmlns:xlink="http://www.w3.org/1999/xlink">
<g id="graph0" class="graph" transform="scale(1 1) rotate(0) translate(4 381)">
<title>Unique.hpp</title>
<polygon fill="white" stroke="transparent" points="-4,4 -4,-381 871.49,-381 871.49,4 -4,4"/>
<!-- Node1 -->
<g id="node1" class="node">
<title>Node1</title>
<g id="a_node1"><a xlink:title=" ">
<polygon fill="#bfbfbf" stroke="black" points="495.5,-357.5 495.5,-376.5 567.5,-376.5 567.5,-357.5 495.5,-357.5"/>
<text text-anchor="middle" x="531.5" y="-364.5" font-family="Helvetica,sans-Serif" font-size="10.00">Unique.hpp</text>
</a>
</g>
</g>
<!-- Node2 -->
<g id="node2" class="node">
<title>Node2</title>
<g id="a_node2"><a xlink:href="Range_8hpp.html" target="_top" xlink:title=" ">
<polygon fill="white" stroke="black" points="317.5,-279.5 317.5,-320.5 465.5,-320.5 465.5,-279.5 317.5,-279.5"/>
<text text-anchor="start" x="325.5" y="-308.5" font-family="Helvetica,sans-Serif" font-size="10.00">packages/compile_time</text>
<text text-anchor="start" x="325.5" y="-297.5" font-family="Helvetica,sans-Serif" font-size="10.00">/packages/parameter_pack</text>
<text text-anchor="middle" x="391.5" y="-286.5" font-family="Helvetica,sans-Serif" font-size="10.00">/inc/Range.hpp</text>
</a>
</g>
</g>
<!-- Node1&#45;&gt;Node2 -->
<g id="edge1" class="edge">
<title>Node1&#45;&gt;Node2</title>
<path fill="none" stroke="midnightblue" d="M512.91,-357.37C495.1,-349.1 467.4,-336.24 442.95,-324.89"/>
<polygon fill="midnightblue" stroke="midnightblue" points="444.31,-321.66 433.77,-320.63 441.37,-328.01 444.31,-321.66"/>
</g>
<!-- Node13 -->
<g id="node13" class="node">
<title>Node13</title>
<g id="a_node13"><a xlink:href="Size_8hpp.html" target="_top" xlink:title=" ">
<polygon fill="white" stroke="black" points="457.5,-201.5 457.5,-242.5 605.5,-242.5 605.5,-201.5 457.5,-201.5"/>
<text text-anchor="start" x="465.5" y="-230.5" font-family="Helvetica,sans-Serif" font-size="10.00">packages/compile_time</text>
<text text-anchor="start" x="465.5" y="-219.5" font-family="Helvetica,sans-Serif" font-size="10.00">/packages/parameter_pack</text>
<text text-anchor="middle" x="531.5" y="-208.5" font-family="Helvetica,sans-Serif" font-size="10.00">/inc/Size.hpp</text>
</a>
</g>
</g>
<!-- Node1&#45;&gt;Node13 -->
<g id="edge26" class="edge">
<title>Node1&#45;&gt;Node13</title>
<path fill="none" stroke="midnightblue" d="M531.5,-357.48C531.5,-337.3 531.5,-285.78 531.5,-252.68"/>
<polygon fill="midnightblue" stroke="midnightblue" points="535,-252.65 531.5,-242.65 528,-252.65 535,-252.65"/>
</g>
<!-- Node16 -->
<g id="node16" class="node">
<title>Node16</title>
<g id="a_node16"><a xlink:href="Match_8hpp.html" target="_top" xlink:title=" ">
<polygon fill="white" stroke="black" points="578.5,-279.5 578.5,-320.5 726.5,-320.5 726.5,-279.5 578.5,-279.5"/>
<text text-anchor="start" x="586.5" y="-308.5" font-family="Helvetica,sans-Serif" font-size="10.00">packages/compile_time</text>
<text text-anchor="start" x="586.5" y="-297.5" font-family="Helvetica,sans-Serif" font-size="10.00">/packages/parameter_pack</text>
<text text-anchor="middle" x="652.5" y="-286.5" font-family="Helvetica,sans-Serif" font-size="10.00">/inc/Match.hpp</text>
</a>
</g>
</g>
<!-- Node1&#45;&gt;Node16 -->
<g id="edge17" class="edge">
<title>Node1&#45;&gt;Node16</title>
<path fill="none" stroke="midnightblue" d="M547.82,-357.23C562.99,-349.08 586.31,-336.56 607.1,-325.39"/>
<polygon fill="midnightblue" stroke="midnightblue" points="608.97,-328.36 616.12,-320.54 605.66,-322.19 608.97,-328.36"/>
</g>
<!-- Node3 -->
<g id="node3" class="node">
<title>Node3</title>
<g id="a_node3"><a xlink:href="types_8hpp.html" target="_top" xlink:title=" ">
<polygon fill="white" stroke="black" points="261.5,-134.5 261.5,-164.5 371.5,-164.5 371.5,-134.5 261.5,-134.5"/>
<text text-anchor="start" x="269.5" y="-152.5" font-family="Helvetica,sans-Serif" font-size="10.00">packages/types/inc</text>
<text text-anchor="middle" x="316.5" y="-141.5" font-family="Helvetica,sans-Serif" font-size="10.00">/types.hpp</text>
</a>
</g>
</g>
<!-- Node2&#45;&gt;Node3 -->
<g id="edge2" class="edge">
<title>Node2&#45;&gt;Node3</title>
<path fill="none" stroke="midnightblue" d="M349.62,-279.27C335.5,-270.33 321.34,-258.28 313.5,-243 302.61,-221.77 305.36,-194.05 309.6,-174.5"/>
<polygon fill="midnightblue" stroke="midnightblue" points="313.05,-175.13 312.02,-164.58 306.25,-173.46 313.05,-175.13"/>
</g>
<!-- Node9 -->
<g id="node9" class="node">
<title>Node9</title>
<g id="a_node9"><a xlink:title=" ">
<polygon fill="white" stroke="#bfbfbf" points="686,-73 686,-92 755,-92 755,-73 686,-73"/>
<text text-anchor="middle" x="720.5" y="-80" font-family="Helvetica,sans-Serif" font-size="10.00">type_traits</text>
</a>
</g>
</g>
<!-- Node2&#45;&gt;Node9 -->
<g id="edge14" class="edge">
<title>Node2&#45;&gt;Node9</title>
<path fill="none" stroke="midnightblue" d="M379.07,-279.49C367.31,-258.28 353.74,-224.31 370.5,-201 389.08,-175.16 589.47,-118.7 678.4,-94.68"/>
<polygon fill="midnightblue" stroke="midnightblue" points="679.42,-98.03 688.17,-92.05 677.6,-91.27 679.42,-98.03"/>
</g>
<!-- Node2&#45;&gt;Node13 -->
<g id="edge12" class="edge">
<title>Node2&#45;&gt;Node13</title>
<path fill="none" stroke="midnightblue" d="M427.55,-279.43C445.6,-269.63 467.61,-257.68 486.73,-247.3"/>
<polygon fill="midnightblue" stroke="midnightblue" points="488.45,-250.35 495.57,-242.51 485.11,-244.2 488.45,-250.35"/>
</g>
<!-- Node14 -->
<g id="node14" class="node">
<title>Node14</title>
<g id="a_node14"><a xlink:title=" ">
<polygon fill="white" stroke="#bfbfbf" points="651,-140 651,-159 692,-159 692,-140 651,-140"/>
<text text-anchor="middle" x="671.5" y="-147" font-family="Helvetica,sans-Serif" font-size="10.00">tuple</text>
</a>
</g>
</g>
<!-- Node2&#45;&gt;Node14 -->
<g id="edge15" class="edge">
<title>Node2&#45;&gt;Node14</title>
<path fill="none" stroke="midnightblue" d="M382.76,-279.22C374.64,-257.46 366.3,-222.69 384.5,-201 416.93,-162.37 572.96,-153.28 640.37,-151.15"/>
<polygon fill="midnightblue" stroke="midnightblue" points="640.87,-154.64 650.77,-150.85 640.67,-147.64 640.87,-154.64"/>
</g>
<!-- Node15 -->
<g id="node15" class="node">
<title>Node15</title>
<g id="a_node15"><a xlink:title=" ">
<polygon fill="white" stroke="#bfbfbf" points="394,-212.5 394,-231.5 439,-231.5 439,-212.5 394,-212.5"/>
<text text-anchor="middle" x="416.5" y="-219.5" font-family="Helvetica,sans-Serif" font-size="10.00">utility</text>
</a>
</g>
</g>
<!-- Node2&#45;&gt;Node15 -->
<g id="edge16" class="edge">
<title>Node2&#45;&gt;Node15</title>
<path fill="none" stroke="midnightblue" d="M397.94,-279.43C401.8,-267.7 406.67,-252.87 410.46,-241.36"/>
<polygon fill="midnightblue" stroke="midnightblue" points="413.89,-242.14 413.69,-231.55 407.24,-239.96 413.89,-242.14"/>
</g>
<!-- Node4 -->
<g id="node4" class="node">
<title>Node4</title>
<g id="a_node4"><a xlink:href="debug_8hpp.html" target="_top" xlink:title=" ">
<polygon fill="white" stroke="black" points="54,-67.5 54,-97.5 173,-97.5 173,-67.5 54,-67.5"/>
<text text-anchor="start" x="62" y="-85.5" font-family="Helvetica,sans-Serif" font-size="10.00">packages/macros/inc</text>
<text text-anchor="middle" x="113.5" y="-74.5" font-family="Helvetica,sans-Serif" font-size="10.00">/debug.hpp</text>
</a>
</g>
</g>
<!-- Node3&#45;&gt;Node4 -->
<g id="edge3" class="edge">
<title>Node3&#45;&gt;Node4</title>
<path fill="none" stroke="midnightblue" d="M272.45,-134.4C241.59,-124.52 200.17,-111.25 167.35,-100.74"/>
<polygon fill="midnightblue" stroke="midnightblue" points="168.05,-97.29 157.46,-97.58 165.92,-103.96 168.05,-97.29"/>
</g>
<!-- Node7 -->
<g id="node7" class="node">
<title>Node7</title>
<g id="a_node7"><a xlink:title=" ">
<polygon fill="white" stroke="#bfbfbf" points="191,-73 191,-92 244,-92 244,-73 191,-73"/>
<text text-anchor="middle" x="217.5" y="-80" font-family="Helvetica,sans-Serif" font-size="10.00">cstddef</text>
</a>
</g>
</g>
<!-- Node3&#45;&gt;Node7 -->
<g id="edge6" class="edge">
<title>Node3&#45;&gt;Node7</title>
<path fill="none" stroke="midnightblue" d="M295.02,-134.4C278.42,-123.5 255.54,-108.48 238.95,-97.58"/>
<polygon fill="midnightblue" stroke="midnightblue" points="240.74,-94.57 230.46,-92.01 236.9,-100.42 240.74,-94.57"/>
</g>
<!-- Node8 -->
<g id="node8" class="node">
<title>Node8</title>
<g id="a_node8"><a xlink:title=" ">
<polygon fill="white" stroke="#bfbfbf" points="262.5,-73 262.5,-92 306.5,-92 306.5,-73 262.5,-73"/>
<text text-anchor="middle" x="284.5" y="-80" font-family="Helvetica,sans-Serif" font-size="10.00">string</text>
</a>
</g>
</g>
<!-- Node3&#45;&gt;Node8 -->
<g id="edge7" class="edge">
<title>Node3&#45;&gt;Node8</title>
<path fill="none" stroke="midnightblue" d="M309.56,-134.4C304.76,-124.66 298.36,-111.65 293.22,-101.21"/>
<polygon fill="midnightblue" stroke="midnightblue" points="296.34,-99.62 288.78,-92.19 290.06,-102.71 296.34,-99.62"/>
</g>
<!-- Node3&#45;&gt;Node9 -->
<g id="edge8" class="edge">
<title>Node3&#45;&gt;Node9</title>
<path fill="none" stroke="midnightblue" d="M371.79,-136.5C376.42,-135.61 381.04,-134.77 385.5,-134 504.82,-113.54 536.31,-119.2 655.5,-98 662.15,-96.82 669.16,-95.42 676.01,-93.96"/>
<polygon fill="midnightblue" stroke="midnightblue" points="676.84,-97.36 685.87,-91.81 675.35,-90.52 676.84,-97.36"/>
</g>
<!-- Node10 -->
<g id="node10" class="node">
<title>Node10</title>
<g id="a_node10"><a xlink:title=" ">
<polygon fill="white" stroke="#bfbfbf" points="324.5,-73 324.5,-92 374.5,-92 374.5,-73 324.5,-73"/>
<text text-anchor="middle" x="349.5" y="-80" font-family="Helvetica,sans-Serif" font-size="10.00">climits</text>
</a>
</g>
</g>
<!-- Node3&#45;&gt;Node10 -->
<g id="edge9" class="edge">
<title>Node3&#45;&gt;Node10</title>
<path fill="none" stroke="midnightblue" d="M323.66,-134.4C328.6,-124.66 335.21,-111.65 340.51,-101.21"/>
<polygon fill="midnightblue" stroke="midnightblue" points="343.68,-102.7 345.09,-92.19 337.44,-99.53 343.68,-102.7"/>
</g>
<!-- Node11 -->
<g id="node11" class="node">
<title>Node11</title>
<g id="a_node11"><a xlink:title=" ">
<polygon fill="white" stroke="#bfbfbf" points="393,-67.5 393,-97.5 510,-97.5 510,-67.5 393,-67.5"/>
<text text-anchor="start" x="401" y="-85.5" font-family="Helvetica,sans-Serif" font-size="10.00">packages/types/impl</text>
<text text-anchor="middle" x="451.5" y="-74.5" font-family="Helvetica,sans-Serif" font-size="10.00">/types_impl.hpp</text>
</a>
</g>
</g>
<!-- Node3&#45;&gt;Node11 -->
<g id="edge10" class="edge">
<title>Node3&#45;&gt;Node11</title>
<path fill="none" stroke="midnightblue" d="M345.79,-134.4C365.52,-124.9 391.73,-112.28 413.12,-101.98"/>
<polygon fill="midnightblue" stroke="midnightblue" points="414.77,-105.07 422.26,-97.58 411.74,-98.76 414.77,-105.07"/>
</g>
<!-- Node12 -->
<g id="node12" class="node">
<title>Node12</title>
<g id="a_node12"><a xlink:href="logging_8hpp.html" target="_top" xlink:title=" ">
<polygon fill="white" stroke="black" points="528,-67.5 528,-97.5 647,-97.5 647,-67.5 528,-67.5"/>
<text text-anchor="start" x="536" y="-85.5" font-family="Helvetica,sans-Serif" font-size="10.00">packages/macros/inc</text>
<text text-anchor="middle" x="587.5" y="-74.5" font-family="Helvetica,sans-Serif" font-size="10.00">/logging.hpp</text>
</a>
</g>
</g>
<!-- Node3&#45;&gt;Node12 -->
<g id="edge11" class="edge">
<title>Node3&#45;&gt;Node12</title>
<path fill="none" stroke="midnightblue" d="M371.67,-135.27C414.34,-125.03 473.66,-110.8 519.31,-99.85"/>
<polygon fill="midnightblue" stroke="midnightblue" points="520.22,-103.24 529.13,-97.5 518.59,-96.43 520.22,-103.24"/>
</g>
<!-- Node5 -->
<g id="node5" class="node">
<title>Node5</title>
<g id="a_node5"><a xlink:href="detail_8hpp.html" target="_top" xlink:title=" ">
<polygon fill="white" stroke="black" points="0,-0.5 0,-30.5 119,-30.5 119,-0.5 0,-0.5"/>
<text text-anchor="start" x="8" y="-18.5" font-family="Helvetica,sans-Serif" font-size="10.00">packages/macros/inc</text>
<text text-anchor="middle" x="59.5" y="-7.5" font-family="Helvetica,sans-Serif" font-size="10.00">/detail.hpp</text>
</a>
</g>
</g>
<!-- Node4&#45;&gt;Node5 -->
<g id="edge4" class="edge">
<title>Node4&#45;&gt;Node5</title>
<path fill="none" stroke="midnightblue" d="M101.78,-67.4C94.78,-58.96 85.73,-48.07 77.79,-38.52"/>
<polygon fill="midnightblue" stroke="midnightblue" points="80.28,-36.03 71.19,-30.58 74.89,-40.51 80.28,-36.03"/>
</g>
<!-- Node6 -->
<g id="node6" class="node">
<title>Node6</title>
<g id="a_node6"><a xlink:title=" ">
<polygon fill="white" stroke="#bfbfbf" points="137.5,-6 137.5,-25 197.5,-25 197.5,-6 137.5,-6"/>
<text text-anchor="middle" x="167.5" y="-13" font-family="Helvetica,sans-Serif" font-size="10.00">iostream</text>
</a>
</g>
</g>
<!-- Node4&#45;&gt;Node6 -->
<g id="edge5" class="edge">
<title>Node4&#45;&gt;Node6</title>
<path fill="none" stroke="midnightblue" d="M125.22,-67.4C133.64,-57.26 145.01,-43.57 153.84,-32.94"/>
<polygon fill="midnightblue" stroke="midnightblue" points="156.58,-35.12 160.28,-25.19 151.19,-30.65 156.58,-35.12"/>
</g>
<!-- Node13&#45;&gt;Node3 -->
<g id="edge13" class="edge">
<title>Node13&#45;&gt;Node3</title>
<path fill="none" stroke="midnightblue" d="M471.9,-201.46C439.71,-190.9 400.33,-177.99 369.26,-167.8"/>
<polygon fill="midnightblue" stroke="midnightblue" points="370.08,-164.39 359.49,-164.6 367.9,-171.04 370.08,-164.39"/>
</g>
<!-- Node16&#45;&gt;Node3 -->
<g id="edge18" class="edge">
<title>Node16&#45;&gt;Node3</title>
<path fill="none" stroke="midnightblue" d="M650.6,-279.49C647.3,-256.96 638.39,-220.5 614.5,-201 579.72,-172.63 458.36,-159.62 381.65,-154.12"/>
<polygon fill="midnightblue" stroke="midnightblue" points="381.82,-150.62 371.6,-153.42 381.34,-157.6 381.82,-150.62"/>
</g>
<!-- Node16&#45;&gt;Node9 -->
<g id="edge24" class="edge">
<title>Node16&#45;&gt;Node9</title>
<path fill="none" stroke="midnightblue" d="M726.54,-288.25C778.14,-279.07 840.49,-263.99 856.5,-243 899.51,-186.59 798.16,-123.6 747.36,-96.77"/>
<polygon fill="midnightblue" stroke="midnightblue" points="748.71,-93.53 738.22,-92.04 745.5,-99.74 748.71,-93.53"/>
</g>
<!-- Node16&#45;&gt;Node13 -->
<g id="edge23" class="edge">
<title>Node16&#45;&gt;Node13</title>
<path fill="none" stroke="midnightblue" d="M621.34,-279.43C606.1,-269.85 587.57,-258.22 571.32,-248.01"/>
<polygon fill="midnightblue" stroke="midnightblue" points="572.88,-244.86 562.55,-242.51 569.16,-250.79 572.88,-244.86"/>
</g>
<!-- Node16&#45;&gt;Node14 -->
<g id="edge25" class="edge">
<title>Node16&#45;&gt;Node14</title>
<path fill="none" stroke="midnightblue" d="M655.02,-279.28C658.7,-250.57 665.47,-197.63 669.08,-169.39"/>
<polygon fill="midnightblue" stroke="midnightblue" points="672.58,-169.62 670.38,-159.26 665.64,-168.73 672.58,-169.62"/>
</g>
<!-- Node17 -->
<g id="node17" class="node">
<title>Node17</title>
<g id="a_node17"><a xlink:href="Select_8hpp.html" target="_top" xlink:title=" ">
<polygon fill="white" stroke="black" points="699.5,-201.5 699.5,-242.5 847.5,-242.5 847.5,-201.5 699.5,-201.5"/>
<text text-anchor="start" x="707.5" y="-230.5" font-family="Helvetica,sans-Serif" font-size="10.00">packages/compile_time</text>
<text text-anchor="start" x="707.5" y="-219.5" font-family="Helvetica,sans-Serif" font-size="10.00">/packages/parameter_pack</text>
<text text-anchor="middle" x="773.5" y="-208.5" font-family="Helvetica,sans-Serif" font-size="10.00">/inc/Select.hpp</text>
</a>
</g>
</g>
<!-- Node16&#45;&gt;Node17 -->
<g id="edge19" class="edge">
<title>Node16&#45;&gt;Node17</title>
<path fill="none" stroke="midnightblue" d="M683.66,-279.43C698.9,-269.85 717.43,-258.22 733.68,-248.01"/>
<polygon fill="midnightblue" stroke="midnightblue" points="735.84,-250.79 742.45,-242.51 732.12,-244.86 735.84,-250.79"/>
</g>
<!-- Node17&#45;&gt;Node3 -->
<g id="edge20" class="edge">
<title>Node17&#45;&gt;Node3</title>
<path fill="none" stroke="midnightblue" d="M699.22,-209.13C682.23,-206.44 664.24,-203.61 647.5,-201 555.17,-186.63 448.28,-170.39 381.52,-160.3"/>
<polygon fill="midnightblue" stroke="midnightblue" points="381.98,-156.83 371.57,-158.8 380.93,-163.75 381.98,-156.83"/>
</g>
<!-- Node17&#45;&gt;Node9 -->
<g id="edge21" class="edge">
<title>Node17&#45;&gt;Node9</title>
<path fill="none" stroke="midnightblue" d="M765.91,-201.3C755.64,-174.66 737.47,-127.52 727.51,-101.68"/>
<polygon fill="midnightblue" stroke="midnightblue" points="730.65,-100.11 723.79,-92.04 724.12,-102.63 730.65,-100.11"/>
</g>
<!-- Node17&#45;&gt;Node14 -->
<g id="edge22" class="edge">
<title>Node17&#45;&gt;Node14</title>
<path fill="none" stroke="midnightblue" d="M745.09,-201.36C728.33,-189.78 707.5,-175.39 692.29,-164.87"/>
<polygon fill="midnightblue" stroke="midnightblue" points="694.27,-161.98 684.05,-159.17 690.28,-167.74 694.27,-161.98"/>
</g>
</g>
</svg>
