<?xml version="1.0" encoding="UTF-8" standalone="no"?>
<!DOCTYPE svg PUBLIC "-//W3C//DTD SVG 1.1//EN"
 "http://www.w3.org/Graphics/SVG/1.1/DTD/svg11.dtd">
<!-- Generated by graphviz version 2.43.0 (0)
 -->
<!-- Title: UnstructuredView.hpp Pages: 1 -->
<svg width="1472pt" height="664pt"
 viewBox="0.00 0.00 1471.50 664.00" xmlns="http://www.w3.org/2000/svg" xmlns:xlink="http://www.w3.org/1999/xlink">
<g id="graph0" class="graph" transform="scale(1 1) rotate(0) translate(4 660)">
<title>UnstructuredView.hpp</title>
<polygon fill="white" stroke="transparent" points="-4,4 -4,-660 1467.5,-660 1467.5,4 -4,4"/>
<!-- Node1 -->
<g id="node1" class="node">
<title>Node1</title>
<g id="a_node1"><a xlink:title=" ">
<polygon fill="#bfbfbf" stroke="black" points="1141,-636.5 1141,-655.5 1265,-655.5 1265,-636.5 1141,-636.5"/>
<text text-anchor="middle" x="1203" y="-643.5" font-family="Helvetica,sans-Serif" font-size="10.00">UnstructuredView.hpp</text>
</a>
</g>
</g>
<!-- Node2 -->
<g id="node2" class="node">
<title>Node2</title>
<g id="a_node2"><a xlink:href="DynamicArray_8hpp.html" target="_top" xlink:title=" ">
<polygon fill="white" stroke="black" points="828.5,-569.5 828.5,-599.5 959.5,-599.5 959.5,-569.5 828.5,-569.5"/>
<text text-anchor="start" x="836.5" y="-587.5" font-family="Helvetica,sans-Serif" font-size="10.00">packages/stl_extension</text>
<text text-anchor="middle" x="894" y="-576.5" font-family="Helvetica,sans-Serif" font-size="10.00">/inc/DynamicArray.hpp</text>
</a>
</g>
</g>
<!-- Node1&#45;&gt;Node2 -->
<g id="edge1" class="edge">
<title>Node1&#45;&gt;Node2</title>
<path fill="none" stroke="midnightblue" d="M1158.73,-636.48C1109.43,-626.98 1028.89,-611.47 969.57,-600.05"/>
<polygon fill="midnightblue" stroke="midnightblue" points="969.98,-596.57 959.5,-598.11 968.66,-603.44 969.98,-596.57"/>
</g>
<!-- Node4 -->
<g id="node4" class="node">
<title>Node4</title>
<g id="a_node4"><a xlink:href="container__concepts_8hpp.html" target="_top" xlink:title=" ">
<polygon fill="white" stroke="black" points="896.5,-357.5 896.5,-398.5 1031.5,-398.5 1031.5,-357.5 896.5,-357.5"/>
<text text-anchor="start" x="904.5" y="-386.5" font-family="Helvetica,sans-Serif" font-size="10.00">packages/compile_time</text>
<text text-anchor="start" x="904.5" y="-375.5" font-family="Helvetica,sans-Serif" font-size="10.00">/packages/concepts/inc</text>
<text text-anchor="middle" x="964" y="-364.5" font-family="Helvetica,sans-Serif" font-size="10.00">/container_concepts.hpp</text>
</a>
</g>
</g>
<!-- Node1&#45;&gt;Node4 -->
<g id="edge56" class="edge">
<title>Node1&#45;&gt;Node4</title>
<path fill="none" stroke="midnightblue" d="M1195.32,-636.45C1163.57,-601.12 1041.8,-465.59 988.84,-406.65"/>
<polygon fill="midnightblue" stroke="midnightblue" points="991.13,-403.96 981.84,-398.86 985.92,-408.64 991.13,-403.96"/>
</g>
<!-- Node23 -->
<g id="node23" class="node">
<title>Node23</title>
<g id="a_node23"><a xlink:title=" ">
<polygon fill="white" stroke="#bfbfbf" points="1198.5,-212.5 1198.5,-231.5 1251.5,-231.5 1251.5,-212.5 1198.5,-212.5"/>
<text text-anchor="middle" x="1225" y="-219.5" font-family="Helvetica,sans-Serif" font-size="10.00">iterator</text>
</a>
</g>
</g>
<!-- Node1&#45;&gt;Node23 -->
<g id="edge58" class="edge">
<title>Node1&#45;&gt;Node23</title>
<path fill="none" stroke="midnightblue" d="M1205.52,-636.5C1211.3,-616.26 1225,-563.53 1225,-518.5 1225,-518.5 1225,-518.5 1225,-377 1225,-328.36 1225,-271.07 1225,-242"/>
<polygon fill="midnightblue" stroke="midnightblue" points="1228.5,-241.68 1225,-231.68 1221.5,-241.68 1228.5,-241.68"/>
</g>
<!-- Node24 -->
<g id="node24" class="node">
<title>Node24</title>
<g id="a_node24"><a xlink:title=" ">
<polygon fill="white" stroke="#bfbfbf" points="1113,-140 1113,-159 1171,-159 1171,-140 1113,-140"/>
<text text-anchor="middle" x="1142" y="-147" font-family="Helvetica,sans-Serif" font-size="10.00">memory</text>
</a>
</g>
</g>
<!-- Node1&#45;&gt;Node24 -->
<g id="edge59" class="edge">
<title>Node1&#45;&gt;Node24</title>
<path fill="none" stroke="midnightblue" d="M1213.07,-636.3C1233.94,-617.24 1280,-569.41 1280,-518.5 1280,-518.5 1280,-518.5 1280,-299 1280,-254.63 1288.91,-235.48 1261,-201 1241.22,-176.56 1207.45,-163.75 1180.92,-157.15"/>
<polygon fill="midnightblue" stroke="midnightblue" points="1181.69,-153.74 1171.16,-154.92 1180.12,-160.56 1181.69,-153.74"/>
</g>
<!-- Node25 -->
<g id="node25" class="node">
<title>Node25</title>
<g id="a_node25"><a xlink:href="typedefs_8hpp.html" target="_top" xlink:title=" ">
<polygon fill="white" stroke="black" points="1077.5,-435.5 1077.5,-465.5 1196.5,-465.5 1196.5,-435.5 1077.5,-435.5"/>
<text text-anchor="start" x="1085.5" y="-453.5" font-family="Helvetica,sans-Serif" font-size="10.00">packages/macros/inc</text>
<text text-anchor="middle" x="1137" y="-442.5" font-family="Helvetica,sans-Serif" font-size="10.00">/typedefs.hpp</text>
</a>
</g>
</g>
<!-- Node1&#45;&gt;Node25 -->
<g id="edge57" class="edge">
<title>Node1&#45;&gt;Node25</title>
<path fill="none" stroke="midnightblue" d="M1200.08,-636.44C1190.51,-608.39 1159.9,-518.65 1145.13,-475.34"/>
<polygon fill="midnightblue" stroke="midnightblue" points="1148.36,-473.96 1141.82,-465.63 1141.74,-476.22 1148.36,-473.96"/>
</g>
<!-- Node39 -->
<g id="node39" class="node">
<title>Node39</title>
<g id="a_node39"><a xlink:title=" ">
<polygon fill="white" stroke="#bfbfbf" points="1308.5,-569.5 1308.5,-599.5 1463.5,-599.5 1463.5,-569.5 1308.5,-569.5"/>
<text text-anchor="start" x="1316.5" y="-587.5" font-family="Helvetica,sans-Serif" font-size="10.00">packages/ranges/impl</text>
<text text-anchor="middle" x="1386" y="-576.5" font-family="Helvetica,sans-Serif" font-size="10.00">/UnstructuredView_impl.hpp</text>
</a>
</g>
</g>
<!-- Node1&#45;&gt;Node39 -->
<g id="edge60" class="edge">
<title>Node1&#45;&gt;Node39</title>
<path fill="none" stroke="midnightblue" d="M1229.22,-636.48C1256.2,-627.7 1299,-613.79 1333.06,-602.71"/>
<polygon fill="midnightblue" stroke="midnightblue" points="1334.44,-605.94 1342.87,-599.52 1332.28,-599.29 1334.44,-605.94"/>
</g>
<!-- Node3 -->
<g id="node3" class="node">
<title>Node3</title>
<g id="a_node3"><a xlink:href="STLContainerBase_8hpp.html" target="_top" xlink:title=" ">
<polygon fill="white" stroke="black" points="693,-502.5 693,-532.5 839,-532.5 839,-502.5 693,-502.5"/>
<text text-anchor="start" x="701" y="-520.5" font-family="Helvetica,sans-Serif" font-size="10.00">packages/stl_extension</text>
<text text-anchor="middle" x="766" y="-509.5" font-family="Helvetica,sans-Serif" font-size="10.00">/inc/STLContainerBase.hpp</text>
</a>
</g>
</g>
<!-- Node2&#45;&gt;Node3 -->
<g id="edge2" class="edge">
<title>Node2&#45;&gt;Node3</title>
<path fill="none" stroke="midnightblue" d="M866.23,-569.4C847.61,-559.94 822.89,-547.39 802.66,-537.12"/>
<polygon fill="midnightblue" stroke="midnightblue" points="804.22,-533.98 793.72,-532.58 801.05,-540.23 804.22,-533.98"/>
</g>
<!-- Node38 -->
<g id="node38" class="node">
<title>Node38</title>
<g id="a_node38"><a xlink:title=" ">
<polygon fill="white" stroke="#bfbfbf" points="870.5,-508 870.5,-527 917.5,-527 917.5,-508 870.5,-508"/>
<text text-anchor="middle" x="894" y="-515" font-family="Helvetica,sans-Serif" font-size="10.00">vector</text>
</a>
</g>
</g>
<!-- Node2&#45;&gt;Node38 -->
<g id="edge55" class="edge">
<title>Node2&#45;&gt;Node38</title>
<path fill="none" stroke="midnightblue" d="M894,-569.4C894,-560.06 894,-547.71 894,-537.52"/>
<polygon fill="midnightblue" stroke="midnightblue" points="897.5,-537.19 894,-527.19 890.5,-537.19 897.5,-537.19"/>
</g>
<!-- Node3&#45;&gt;Node4 -->
<g id="edge3" class="edge">
<title>Node3&#45;&gt;Node4</title>
<path fill="none" stroke="midnightblue" d="M786.44,-502.3C819.65,-479.24 885.77,-433.33 927.29,-404.5"/>
<polygon fill="midnightblue" stroke="midnightblue" points="929.53,-407.2 935.75,-398.62 925.54,-401.45 929.53,-407.2"/>
</g>
<!-- Node7 -->
<g id="node7" class="node">
<title>Node7</title>
<g id="a_node7"><a xlink:href="types_8hpp.html" target="_top" xlink:title=" ">
<polygon fill="white" stroke="black" points="659,-134.5 659,-164.5 769,-164.5 769,-134.5 659,-134.5"/>
<text text-anchor="start" x="667" y="-152.5" font-family="Helvetica,sans-Serif" font-size="10.00">packages/types/inc</text>
<text text-anchor="middle" x="714" y="-141.5" font-family="Helvetica,sans-Serif" font-size="10.00">/types.hpp</text>
</a>
</g>
</g>
<!-- Node3&#45;&gt;Node7 -->
<g id="edge30" class="edge">
<title>Node3&#45;&gt;Node7</title>
<path fill="none" stroke="midnightblue" d="M752.63,-502.3C743.98,-492.6 732.9,-479.17 725,-466 669.66,-373.77 652.31,-348.42 631,-243 627.3,-224.7 621.85,-217.27 631,-201 638.66,-187.37 651.66,-176.99 665.12,-169.29"/>
<polygon fill="midnightblue" stroke="midnightblue" points="666.77,-172.38 673.98,-164.62 663.5,-166.19 666.77,-172.38"/>
</g>
<!-- Node3&#45;&gt;Node25 -->
<g id="edge28" class="edge">
<title>Node3&#45;&gt;Node25</title>
<path fill="none" stroke="midnightblue" d="M839.3,-503.66C905.45,-492.07 1002.09,-475.14 1067.15,-463.74"/>
<polygon fill="midnightblue" stroke="midnightblue" points="1068.06,-467.13 1077.31,-461.96 1066.85,-460.24 1068.06,-467.13"/>
</g>
<!-- Node26 -->
<g id="node26" class="node">
<title>Node26</title>
<g id="a_node26"><a xlink:href="exceptions_8hpp.html" target="_top" xlink:title=" ">
<polygon fill="white" stroke="black" points="365.5,-285 365.5,-315 484.5,-315 484.5,-285 365.5,-285"/>
<text text-anchor="start" x="373.5" y="-303" font-family="Helvetica,sans-Serif" font-size="10.00">packages/macros/inc</text>
<text text-anchor="middle" x="425" y="-292" font-family="Helvetica,sans-Serif" font-size="10.00">/exceptions.hpp</text>
</a>
</g>
</g>
<!-- Node3&#45;&gt;Node26 -->
<g id="edge31" class="edge">
<title>Node3&#45;&gt;Node26</title>
<path fill="none" stroke="midnightblue" d="M692.87,-508.9C628.58,-500.98 541,-486.8 513,-466 465.32,-430.58 440.85,-361.52 430.76,-324.99"/>
<polygon fill="midnightblue" stroke="midnightblue" points="434.11,-323.97 428.19,-315.19 427.34,-325.75 434.11,-323.97"/>
</g>
<!-- Node32 -->
<g id="node32" class="node">
<title>Node32</title>
<g id="a_node32"><a xlink:href="resize_8hpp.html" target="_top" xlink:title=" ">
<polygon fill="white" stroke="black" points="522.5,-435.5 522.5,-465.5 653.5,-465.5 653.5,-435.5 522.5,-435.5"/>
<text text-anchor="start" x="530.5" y="-453.5" font-family="Helvetica,sans-Serif" font-size="10.00">packages/stl_extension</text>
<text text-anchor="middle" x="588" y="-442.5" font-family="Helvetica,sans-Serif" font-size="10.00">/inc/resize.hpp</text>
</a>
</g>
</g>
<!-- Node3&#45;&gt;Node32 -->
<g id="edge42" class="edge">
<title>Node3&#45;&gt;Node32</title>
<path fill="none" stroke="midnightblue" d="M727.38,-502.4C700.55,-492.6 664.62,-479.48 635.97,-469.02"/>
<polygon fill="midnightblue" stroke="midnightblue" points="637.14,-465.72 626.55,-465.58 634.74,-472.29 637.14,-465.72"/>
</g>
<!-- Node37 -->
<g id="node37" class="node">
<title>Node37</title>
<g id="a_node37"><a xlink:title=" ">
<polygon fill="white" stroke="#bfbfbf" points="734,-441 734,-460 798,-460 798,-441 734,-441"/>
<text text-anchor="middle" x="766" y="-448" font-family="Helvetica,sans-Serif" font-size="10.00">algorithm</text>
</a>
</g>
</g>
<!-- Node3&#45;&gt;Node37 -->
<g id="edge54" class="edge">
<title>Node3&#45;&gt;Node37</title>
<path fill="none" stroke="midnightblue" d="M766,-502.4C766,-493.06 766,-480.71 766,-470.52"/>
<polygon fill="midnightblue" stroke="midnightblue" points="769.5,-470.19 766,-460.19 762.5,-470.19 769.5,-470.19"/>
</g>
<!-- Node5 -->
<g id="node5" class="node">
<title>Node5</title>
<g id="a_node5"><a xlink:href="iterator__concepts_8hpp.html" target="_top" xlink:title=" ">
<polygon fill="white" stroke="black" points="955,-279.5 955,-320.5 1087,-320.5 1087,-279.5 955,-279.5"/>
<text text-anchor="start" x="963" y="-308.5" font-family="Helvetica,sans-Serif" font-size="10.00">packages/compile_time</text>
<text text-anchor="start" x="963" y="-297.5" font-family="Helvetica,sans-Serif" font-size="10.00">/packages/concepts/inc</text>
<text text-anchor="middle" x="1021" y="-286.5" font-family="Helvetica,sans-Serif" font-size="10.00">/iterator_concepts.hpp</text>
</a>
</g>
</g>
<!-- Node4&#45;&gt;Node5 -->
<g id="edge4" class="edge">
<title>Node4&#45;&gt;Node5</title>
<path fill="none" stroke="midnightblue" d="M978.68,-357.43C985.26,-348.65 993.14,-338.15 1000.31,-328.59"/>
<polygon fill="midnightblue" stroke="midnightblue" points="1003.17,-330.61 1006.37,-320.51 997.57,-326.41 1003.17,-330.61"/>
</g>
<!-- Node6 -->
<g id="node6" class="node">
<title>Node6</title>
<g id="a_node6"><a xlink:href="basic__concepts_8hpp.html" target="_top" xlink:title=" ">
<polygon fill="white" stroke="black" points="806,-201.5 806,-242.5 938,-242.5 938,-201.5 806,-201.5"/>
<text text-anchor="start" x="814" y="-230.5" font-family="Helvetica,sans-Serif" font-size="10.00">packages/compile_time</text>
<text text-anchor="start" x="814" y="-219.5" font-family="Helvetica,sans-Serif" font-size="10.00">/packages/concepts/inc</text>
<text text-anchor="middle" x="872" y="-208.5" font-family="Helvetica,sans-Serif" font-size="10.00">/basic_concepts.hpp</text>
</a>
</g>
</g>
<!-- Node5&#45;&gt;Node6 -->
<g id="edge5" class="edge">
<title>Node5&#45;&gt;Node6</title>
<path fill="none" stroke="midnightblue" d="M982.63,-279.43C963.34,-269.59 939.78,-257.57 919.37,-247.16"/>
<polygon fill="midnightblue" stroke="midnightblue" points="920.74,-243.93 910.24,-242.51 917.56,-250.17 920.74,-243.93"/>
</g>
<!-- Node20 -->
<g id="node20" class="node">
<title>Node20</title>
<g id="a_node20"><a xlink:href="Size_8hpp.html" target="_top" xlink:title=" ">
<polygon fill="white" stroke="black" points="640,-201.5 640,-242.5 788,-242.5 788,-201.5 640,-201.5"/>
<text text-anchor="start" x="648" y="-230.5" font-family="Helvetica,sans-Serif" font-size="10.00">packages/compile_time</text>
<text text-anchor="start" x="648" y="-219.5" font-family="Helvetica,sans-Serif" font-size="10.00">/packages/parameter_pack</text>
<text text-anchor="middle" x="714" y="-208.5" font-family="Helvetica,sans-Serif" font-size="10.00">/inc/Size.hpp</text>
</a>
</g>
</g>
<!-- Node5&#45;&gt;Node20 -->
<g id="edge20" class="edge">
<title>Node5&#45;&gt;Node20</title>
<path fill="none" stroke="midnightblue" d="M954.76,-282.6C908.92,-271.25 847.52,-256.05 798.21,-243.85"/>
<polygon fill="midnightblue" stroke="midnightblue" points="798.74,-240.37 788.2,-241.37 797.06,-247.17 798.74,-240.37"/>
</g>
<!-- Node21 -->
<g id="node21" class="node">
<title>Node21</title>
<g id="a_node21"><a xlink:href="Select_8hpp.html" target="_top" xlink:title=" ">
<polygon fill="white" stroke="black" points="956,-201.5 956,-242.5 1104,-242.5 1104,-201.5 956,-201.5"/>
<text text-anchor="start" x="964" y="-230.5" font-family="Helvetica,sans-Serif" font-size="10.00">packages/compile_time</text>
<text text-anchor="start" x="964" y="-219.5" font-family="Helvetica,sans-Serif" font-size="10.00">/packages/parameter_pack</text>
<text text-anchor="middle" x="1030" y="-208.5" font-family="Helvetica,sans-Serif" font-size="10.00">/inc/Select.hpp</text>
</a>
</g>
</g>
<!-- Node5&#45;&gt;Node21 -->
<g id="edge22" class="edge">
<title>Node5&#45;&gt;Node21</title>
<path fill="none" stroke="midnightblue" d="M1023.32,-279.43C1024.28,-271.27 1025.43,-261.62 1026.49,-252.63"/>
<polygon fill="midnightblue" stroke="midnightblue" points="1029.99,-252.85 1027.69,-242.51 1023.04,-252.02 1029.99,-252.85"/>
</g>
<!-- Node5&#45;&gt;Node23 -->
<g id="edge26" class="edge">
<title>Node5&#45;&gt;Node23</title>
<path fill="none" stroke="midnightblue" d="M1073.54,-279.43C1111.03,-265.46 1160.3,-247.11 1192.3,-235.18"/>
<polygon fill="midnightblue" stroke="midnightblue" points="1193.9,-238.32 1202.04,-231.55 1191.45,-231.76 1193.9,-238.32"/>
</g>
<!-- Node5&#45;&gt;Node24 -->
<g id="edge27" class="edge">
<title>Node5&#45;&gt;Node24</title>
<path fill="none" stroke="midnightblue" d="M1067.11,-279.42C1083.59,-270.43 1101.02,-258.32 1113,-243 1130.07,-221.18 1137.18,-189.18 1140.08,-169.11"/>
<polygon fill="midnightblue" stroke="midnightblue" points="1143.56,-169.43 1141.32,-159.08 1136.62,-168.58 1143.56,-169.43"/>
</g>
<!-- Node6&#45;&gt;Node7 -->
<g id="edge6" class="edge">
<title>Node6&#45;&gt;Node7</title>
<path fill="none" stroke="midnightblue" d="M827.99,-201.36C805.14,-191.17 777.39,-178.79 755,-168.79"/>
<polygon fill="midnightblue" stroke="midnightblue" points="756.32,-165.55 745.76,-164.67 753.46,-171.94 756.32,-165.55"/>
</g>
<!-- Node13 -->
<g id="node13" class="node">
<title>Node13</title>
<g id="a_node13"><a xlink:title=" ">
<polygon fill="white" stroke="#bfbfbf" points="984.5,-73 984.5,-92 1053.5,-92 1053.5,-73 984.5,-73"/>
<text text-anchor="middle" x="1019" y="-80" font-family="Helvetica,sans-Serif" font-size="10.00">type_traits</text>
</a>
</g>
</g>
<!-- Node6&#45;&gt;Node13 -->
<g id="edge17" class="edge">
<title>Node6&#45;&gt;Node13</title>
<path fill="none" stroke="midnightblue" d="M893.06,-201.3C922.56,-173.71 975.57,-124.12 1002.43,-99"/>
<polygon fill="midnightblue" stroke="midnightblue" points="1004.96,-101.43 1009.87,-92.04 1000.18,-96.31 1004.96,-101.43"/>
</g>
<!-- Node17 -->
<g id="node17" class="node">
<title>Node17</title>
<g id="a_node17"><a xlink:title=" ">
<polygon fill="white" stroke="#bfbfbf" points="523,-140 523,-159 583,-159 583,-140 523,-140"/>
<text text-anchor="middle" x="553" y="-147" font-family="Helvetica,sans-Serif" font-size="10.00">concepts</text>
</a>
</g>
</g>
<!-- Node6&#45;&gt;Node17 -->
<g id="edge16" class="edge">
<title>Node6&#45;&gt;Node17</title>
<path fill="none" stroke="midnightblue" d="M805.8,-203.13C802.83,-202.4 799.89,-201.68 797,-201 725.62,-184.11 641.76,-167.44 593.26,-158.11"/>
<polygon fill="midnightblue" stroke="midnightblue" points="593.65,-154.62 583.17,-156.18 592.33,-161.49 593.65,-154.62"/>
</g>
<!-- Node18 -->
<g id="node18" class="node">
<title>Node18</title>
<g id="a_node18"><a xlink:title=" ">
<polygon fill="white" stroke="#bfbfbf" points="803,-140 803,-159 853,-159 853,-140 803,-140"/>
<text text-anchor="middle" x="828" y="-147" font-family="Helvetica,sans-Serif" font-size="10.00">cstdint</text>
</a>
</g>
</g>
<!-- Node6&#45;&gt;Node18 -->
<g id="edge18" class="edge">
<title>Node6&#45;&gt;Node18</title>
<path fill="none" stroke="midnightblue" d="M859.74,-201.36C853.19,-190.86 845.2,-178.05 838.87,-167.91"/>
<polygon fill="midnightblue" stroke="midnightblue" points="841.68,-165.8 833.41,-159.17 835.74,-169.51 841.68,-165.8"/>
</g>
<!-- Node19 -->
<g id="node19" class="node">
<title>Node19</title>
<g id="a_node19"><a xlink:title=" ">
<polygon fill="white" stroke="#bfbfbf" points="871.5,-140 871.5,-159 916.5,-159 916.5,-140 871.5,-140"/>
<text text-anchor="middle" x="894" y="-147" font-family="Helvetica,sans-Serif" font-size="10.00">utility</text>
</a>
</g>
</g>
<!-- Node6&#45;&gt;Node19 -->
<g id="edge19" class="edge">
<title>Node6&#45;&gt;Node19</title>
<path fill="none" stroke="midnightblue" d="M878.13,-201.36C881.3,-191.19 885.16,-178.84 888.27,-168.86"/>
<polygon fill="midnightblue" stroke="midnightblue" points="891.66,-169.76 891.29,-159.17 884.97,-167.68 891.66,-169.76"/>
</g>
<!-- Node8 -->
<g id="node8" class="node">
<title>Node8</title>
<g id="a_node8"><a xlink:href="debug_8hpp.html" target="_top" xlink:title=" ">
<polygon fill="white" stroke="black" points="707.5,-67.5 707.5,-97.5 826.5,-97.5 826.5,-67.5 707.5,-67.5"/>
<text text-anchor="start" x="715.5" y="-85.5" font-family="Helvetica,sans-Serif" font-size="10.00">packages/macros/inc</text>
<text text-anchor="middle" x="767" y="-74.5" font-family="Helvetica,sans-Serif" font-size="10.00">/debug.hpp</text>
</a>
</g>
</g>
<!-- Node7&#45;&gt;Node8 -->
<g id="edge7" class="edge">
<title>Node7&#45;&gt;Node8</title>
<path fill="none" stroke="midnightblue" d="M725.5,-134.4C732.38,-125.96 741.26,-115.07 749.04,-105.52"/>
<polygon fill="midnightblue" stroke="midnightblue" points="751.92,-107.54 755.52,-97.58 746.49,-103.11 751.92,-107.54"/>
</g>
<!-- Node11 -->
<g id="node11" class="node">
<title>Node11</title>
<g id="a_node11"><a xlink:title=" ">
<polygon fill="white" stroke="#bfbfbf" points="844.5,-73 844.5,-92 897.5,-92 897.5,-73 844.5,-73"/>
<text text-anchor="middle" x="871" y="-80" font-family="Helvetica,sans-Serif" font-size="10.00">cstddef</text>
</a>
</g>
</g>
<!-- Node7&#45;&gt;Node11 -->
<g id="edge10" class="edge">
<title>Node7&#45;&gt;Node11</title>
<path fill="none" stroke="midnightblue" d="M748.07,-134.4C775.74,-122.94 814.39,-106.94 840.92,-95.95"/>
<polygon fill="midnightblue" stroke="midnightblue" points="842.55,-99.07 850.45,-92.01 839.87,-92.6 842.55,-99.07"/>
</g>
<!-- Node12 -->
<g id="node12" class="node">
<title>Node12</title>
<g id="a_node12"><a xlink:title=" ">
<polygon fill="white" stroke="#bfbfbf" points="138,-73 138,-92 182,-92 182,-73 138,-73"/>
<text text-anchor="middle" x="160" y="-80" font-family="Helvetica,sans-Serif" font-size="10.00">string</text>
</a>
</g>
</g>
<!-- Node7&#45;&gt;Node12 -->
<g id="edge11" class="edge">
<title>Node7&#45;&gt;Node12</title>
<path fill="none" stroke="midnightblue" d="M658.74,-141.91C637.83,-139.42 613.82,-136.57 592,-134 442.56,-116.39 264.02,-95.59 192.23,-87.25"/>
<polygon fill="midnightblue" stroke="midnightblue" points="192.37,-83.74 182.03,-86.06 191.56,-90.69 192.37,-83.74"/>
</g>
<!-- Node7&#45;&gt;Node13 -->
<g id="edge12" class="edge">
<title>Node7&#45;&gt;Node13</title>
<path fill="none" stroke="midnightblue" d="M769.08,-138.23C839.68,-125.01 955.38,-103.11 975,-98 978.37,-97.12 981.86,-96.13 985.33,-95.08"/>
<polygon fill="midnightblue" stroke="midnightblue" points="986.48,-98.39 994.96,-92.04 984.37,-91.71 986.48,-98.39"/>
</g>
<!-- Node14 -->
<g id="node14" class="node">
<title>Node14</title>
<g id="a_node14"><a xlink:title=" ">
<polygon fill="white" stroke="#bfbfbf" points="916,-73 916,-92 966,-92 966,-73 916,-73"/>
<text text-anchor="middle" x="941" y="-80" font-family="Helvetica,sans-Serif" font-size="10.00">climits</text>
</a>
</g>
</g>
<!-- Node7&#45;&gt;Node14 -->
<g id="edge13" class="edge">
<title>Node7&#45;&gt;Node14</title>
<path fill="none" stroke="midnightblue" d="M769.21,-136.08C807.9,-126.87 860.6,-113.3 906,-98 907.92,-97.35 909.88,-96.65 911.85,-95.92"/>
<polygon fill="midnightblue" stroke="midnightblue" points="913.53,-99.02 921.56,-92.1 910.97,-92.51 913.53,-99.02"/>
</g>
<!-- Node15 -->
<g id="node15" class="node">
<title>Node15</title>
<g id="a_node15"><a xlink:title=" ">
<polygon fill="white" stroke="#bfbfbf" points="435.5,-67.5 435.5,-97.5 552.5,-97.5 552.5,-67.5 435.5,-67.5"/>
<text text-anchor="start" x="443.5" y="-85.5" font-family="Helvetica,sans-Serif" font-size="10.00">packages/types/impl</text>
<text text-anchor="middle" x="494" y="-74.5" font-family="Helvetica,sans-Serif" font-size="10.00">/types_impl.hpp</text>
</a>
</g>
</g>
<!-- Node7&#45;&gt;Node15 -->
<g id="edge14" class="edge">
<title>Node7&#45;&gt;Node15</title>
<path fill="none" stroke="midnightblue" d="M666.53,-134.48C632.82,-124.51 587.37,-111.09 551.58,-100.51"/>
<polygon fill="midnightblue" stroke="midnightblue" points="552.34,-97.09 541.76,-97.61 550.36,-103.8 552.34,-97.09"/>
</g>
<!-- Node16 -->
<g id="node16" class="node">
<title>Node16</title>
<g id="a_node16"><a xlink:href="logging_8hpp.html" target="_top" xlink:title=" ">
<polygon fill="white" stroke="black" points="570.5,-67.5 570.5,-97.5 689.5,-97.5 689.5,-67.5 570.5,-67.5"/>
<text text-anchor="start" x="578.5" y="-85.5" font-family="Helvetica,sans-Serif" font-size="10.00">packages/macros/inc</text>
<text text-anchor="middle" x="630" y="-74.5" font-family="Helvetica,sans-Serif" font-size="10.00">/logging.hpp</text>
</a>
</g>
</g>
<!-- Node7&#45;&gt;Node16 -->
<g id="edge15" class="edge">
<title>Node7&#45;&gt;Node16</title>
<path fill="none" stroke="midnightblue" d="M695.77,-134.4C684.22,-125.45 669.08,-113.74 656.24,-103.8"/>
<polygon fill="midnightblue" stroke="midnightblue" points="658.24,-100.93 648.19,-97.58 653.96,-106.46 658.24,-100.93"/>
</g>
<!-- Node9 -->
<g id="node9" class="node">
<title>Node9</title>
<g id="a_node9"><a xlink:href="detail_8hpp.html" target="_top" xlink:title=" ">
<polygon fill="white" stroke="black" points="347.5,-0.5 347.5,-30.5 466.5,-30.5 466.5,-0.5 347.5,-0.5"/>
<text text-anchor="start" x="355.5" y="-18.5" font-family="Helvetica,sans-Serif" font-size="10.00">packages/macros/inc</text>
<text text-anchor="middle" x="407" y="-7.5" font-family="Helvetica,sans-Serif" font-size="10.00">/detail.hpp</text>
</a>
</g>
</g>
<!-- Node8&#45;&gt;Node9 -->
<g id="edge8" class="edge">
<title>Node8&#45;&gt;Node9</title>
<path fill="none" stroke="midnightblue" d="M707.19,-68.8C704.08,-68.18 701.01,-67.58 698,-67 622.55,-52.53 535.73,-37.7 476.7,-27.89"/>
<polygon fill="midnightblue" stroke="midnightblue" points="477.18,-24.42 466.75,-26.23 476.04,-31.32 477.18,-24.42"/>
</g>
<!-- Node10 -->
<g id="node10" class="node">
<title>Node10</title>
<g id="a_node10"><a xlink:title=" ">
<polygon fill="white" stroke="#bfbfbf" points="737,-6 737,-25 797,-25 797,-6 737,-6"/>
<text text-anchor="middle" x="767" y="-13" font-family="Helvetica,sans-Serif" font-size="10.00">iostream</text>
</a>
</g>
</g>
<!-- Node8&#45;&gt;Node10 -->
<g id="edge9" class="edge">
<title>Node8&#45;&gt;Node10</title>
<path fill="none" stroke="midnightblue" d="M767,-67.4C767,-58.06 767,-45.71 767,-35.52"/>
<polygon fill="midnightblue" stroke="midnightblue" points="770.5,-35.19 767,-25.19 763.5,-35.19 770.5,-35.19"/>
</g>
<!-- Node20&#45;&gt;Node7 -->
<g id="edge21" class="edge">
<title>Node20&#45;&gt;Node7</title>
<path fill="none" stroke="midnightblue" d="M714,-201.36C714,-193.23 714,-183.7 714,-175.11"/>
<polygon fill="midnightblue" stroke="midnightblue" points="717.5,-174.89 714,-164.89 710.5,-174.89 717.5,-174.89"/>
</g>
<!-- Node21&#45;&gt;Node7 -->
<g id="edge23" class="edge">
<title>Node21&#45;&gt;Node7</title>
<path fill="none" stroke="midnightblue" d="M955.81,-203.03C952.83,-202.34 949.89,-201.66 947,-201 890.43,-188.06 825.93,-174.14 779.16,-164.2"/>
<polygon fill="midnightblue" stroke="midnightblue" points="779.67,-160.73 769.16,-162.08 778.22,-167.58 779.67,-160.73"/>
</g>
<!-- Node21&#45;&gt;Node13 -->
<g id="edge24" class="edge">
<title>Node21&#45;&gt;Node13</title>
<path fill="none" stroke="midnightblue" d="M1028.42,-201.3C1026.3,-174.78 1022.56,-127.94 1020.48,-102.03"/>
<polygon fill="midnightblue" stroke="midnightblue" points="1023.97,-101.73 1019.68,-92.04 1016.99,-102.29 1023.97,-101.73"/>
</g>
<!-- Node22 -->
<g id="node22" class="node">
<title>Node22</title>
<g id="a_node22"><a xlink:title=" ">
<polygon fill="white" stroke="#bfbfbf" points="1047.5,-140 1047.5,-159 1088.5,-159 1088.5,-140 1047.5,-140"/>
<text text-anchor="middle" x="1068" y="-147" font-family="Helvetica,sans-Serif" font-size="10.00">tuple</text>
</a>
</g>
</g>
<!-- Node21&#45;&gt;Node22 -->
<g id="edge25" class="edge">
<title>Node21&#45;&gt;Node22</title>
<path fill="none" stroke="midnightblue" d="M1040.59,-201.36C1046.19,-190.97 1053.01,-178.32 1058.45,-168.23"/>
<polygon fill="midnightblue" stroke="midnightblue" points="1061.66,-169.64 1063.32,-159.17 1055.5,-166.32 1061.66,-169.64"/>
</g>
<!-- Node25&#45;&gt;Node24 -->
<g id="edge29" class="edge">
<title>Node25&#45;&gt;Node24</title>
<path fill="none" stroke="midnightblue" d="M1137.23,-435.48C1138.05,-386.76 1140.76,-224.77 1141.69,-169.31"/>
<polygon fill="midnightblue" stroke="midnightblue" points="1145.19,-169.23 1141.85,-159.17 1138.19,-169.11 1145.19,-169.23"/>
</g>
<!-- Node26&#45;&gt;Node9 -->
<g id="edge39" class="edge">
<title>Node26&#45;&gt;Node9</title>
<path fill="none" stroke="midnightblue" d="M424.11,-284.99C421.23,-239.9 412.2,-98.15 408.55,-40.87"/>
<polygon fill="midnightblue" stroke="midnightblue" points="412.03,-40.35 407.9,-30.59 405.04,-40.8 412.03,-40.35"/>
</g>
<!-- Node26&#45;&gt;Node17 -->
<g id="edge41" class="edge">
<title>Node26&#45;&gt;Node17</title>
<path fill="none" stroke="midnightblue" d="M430.74,-284.77C439.41,-264.51 457.37,-226.92 481,-201 494.54,-186.14 513.2,-173.21 528.13,-164.15"/>
<polygon fill="midnightblue" stroke="midnightblue" points="530.01,-167.11 536.87,-159.03 526.47,-161.07 530.01,-167.11"/>
</g>
<!-- Node27 -->
<g id="node27" class="node">
<title>Node27</title>
<g id="a_node27"><a xlink:href="exception_8hpp.html" target="_top" xlink:title=" ">
<polygon fill="white" stroke="black" points="270.5,-207 270.5,-237 389.5,-237 389.5,-207 270.5,-207"/>
<text text-anchor="start" x="278.5" y="-225" font-family="Helvetica,sans-Serif" font-size="10.00">packages/exceptions</text>
<text text-anchor="middle" x="330" y="-214" font-family="Helvetica,sans-Serif" font-size="10.00">/inc/exception.hpp</text>
</a>
</g>
</g>
<!-- Node26&#45;&gt;Node27 -->
<g id="edge32" class="edge">
<title>Node26&#45;&gt;Node27</title>
<path fill="none" stroke="midnightblue" d="M407.13,-284.7C392.67,-273.13 372.1,-256.68 355.84,-243.67"/>
<polygon fill="midnightblue" stroke="midnightblue" points="357.78,-240.74 347.79,-237.23 353.41,-246.21 357.78,-240.74"/>
</g>
<!-- Node31 -->
<g id="node31" class="node">
<title>Node31</title>
<g id="a_node31"><a xlink:title=" ">
<polygon fill="white" stroke="#bfbfbf" points="490,-212.5 490,-231.5 546,-231.5 546,-212.5 490,-212.5"/>
<text text-anchor="middle" x="518" y="-219.5" font-family="Helvetica,sans-Serif" font-size="10.00">sstream</text>
</a>
</g>
</g>
<!-- Node26&#45;&gt;Node31 -->
<g id="edge40" class="edge">
<title>Node26&#45;&gt;Node31</title>
<path fill="none" stroke="midnightblue" d="M442.49,-284.7C458.8,-271.38 483.04,-251.57 499.63,-238.01"/>
<polygon fill="midnightblue" stroke="midnightblue" points="501.99,-240.6 507.52,-231.56 497.56,-235.18 501.99,-240.6"/>
</g>
<!-- Node27&#45;&gt;Node7 -->
<g id="edge33" class="edge">
<title>Node27&#45;&gt;Node7</title>
<path fill="none" stroke="midnightblue" d="M389.58,-210.06C459.9,-197.15 576.42,-175.76 649.01,-162.43"/>
<polygon fill="midnightblue" stroke="midnightblue" points="649.75,-165.85 658.95,-160.61 648.49,-158.97 649.75,-165.85"/>
</g>
<!-- Node27&#45;&gt;Node12 -->
<g id="edge35" class="edge">
<title>Node27&#45;&gt;Node12</title>
<path fill="none" stroke="midnightblue" d="M270.37,-212.7C238.94,-205.3 202.2,-191.33 179,-165 163.8,-147.75 160.13,-120.68 159.55,-102.53"/>
<polygon fill="midnightblue" stroke="midnightblue" points="163.05,-102.3 159.51,-92.31 156.05,-102.32 163.05,-102.3"/>
</g>
<!-- Node27&#45;&gt;Node24 -->
<g id="edge37" class="edge">
<title>Node27&#45;&gt;Node24</title>
<path fill="none" stroke="midnightblue" d="M389.77,-212.06C417.47,-208.18 450.86,-203.87 481,-201 754.01,-174.98 827.44,-215.46 1097,-165 1101.18,-164.22 1105.5,-163.16 1109.75,-161.97"/>
<polygon fill="midnightblue" stroke="midnightblue" points="1110.86,-165.29 1119.4,-159.02 1108.81,-158.6 1110.86,-165.29"/>
</g>
<!-- Node28 -->
<g id="node28" class="node">
<title>Node28</title>
<g id="a_node28"><a xlink:title=" ">
<polygon fill="white" stroke="#bfbfbf" points="66.5,-140 66.5,-159 131.5,-159 131.5,-140 66.5,-140"/>
<text text-anchor="middle" x="99" y="-147" font-family="Helvetica,sans-Serif" font-size="10.00">stdexcept</text>
</a>
</g>
</g>
<!-- Node27&#45;&gt;Node28 -->
<g id="edge34" class="edge">
<title>Node27&#45;&gt;Node28</title>
<path fill="none" stroke="midnightblue" d="M283.48,-206.89C246.27,-195.6 192.77,-179.33 146,-165 142.9,-164.05 139.68,-163.06 136.45,-162.07"/>
<polygon fill="midnightblue" stroke="midnightblue" points="137.42,-158.7 126.83,-159.1 135.36,-165.39 137.42,-158.7"/>
</g>
<!-- Node29 -->
<g id="node29" class="node">
<title>Node29</title>
<g id="a_node29"><a xlink:title=" ">
<polygon fill="white" stroke="#bfbfbf" points="188.5,-140 188.5,-159 235.5,-159 235.5,-140 188.5,-140"/>
<text text-anchor="middle" x="212" y="-147" font-family="Helvetica,sans-Serif" font-size="10.00">deque</text>
</a>
</g>
</g>
<!-- Node27&#45;&gt;Node29 -->
<g id="edge36" class="edge">
<title>Node27&#45;&gt;Node29</title>
<path fill="none" stroke="midnightblue" d="M306.4,-206.9C285.64,-194.5 255.59,-176.55 235.01,-164.25"/>
<polygon fill="midnightblue" stroke="midnightblue" points="236.66,-161.16 226.28,-159.03 233.07,-167.17 236.66,-161.16"/>
</g>
<!-- Node30 -->
<g id="node30" class="node">
<title>Node30</title>
<g id="a_node30"><a xlink:title=" ">
<polygon fill="white" stroke="#bfbfbf" points="254,-134.5 254,-164.5 400,-164.5 400,-134.5 254,-134.5"/>
<text text-anchor="start" x="262" y="-152.5" font-family="Helvetica,sans-Serif" font-size="10.00">packages/exceptions</text>
<text text-anchor="middle" x="327" y="-141.5" font-family="Helvetica,sans-Serif" font-size="10.00">/impl/exceptions_impl.hpp</text>
</a>
</g>
</g>
<!-- Node27&#45;&gt;Node30 -->
<g id="edge38" class="edge">
<title>Node27&#45;&gt;Node30</title>
<path fill="none" stroke="midnightblue" d="M329.39,-206.73C329,-197.56 328.49,-185.41 328.03,-174.74"/>
<polygon fill="midnightblue" stroke="midnightblue" points="331.53,-174.59 327.61,-164.75 324.53,-174.89 331.53,-174.59"/>
</g>
<!-- Node32&#45;&gt;Node4 -->
<g id="edge51" class="edge">
<title>Node32&#45;&gt;Node4</title>
<path fill="none" stroke="midnightblue" d="M653.92,-437.14C718.76,-424.98 817.74,-406.42 886.35,-393.56"/>
<polygon fill="midnightblue" stroke="midnightblue" points="887.06,-396.99 896.25,-391.7 885.77,-390.11 887.06,-396.99"/>
</g>
<!-- Node32&#45;&gt;Node7 -->
<g id="edge52" class="edge">
<title>Node32&#45;&gt;Node7</title>
<path fill="none" stroke="midnightblue" d="M583.81,-435.27C572.74,-394.54 546.91,-275.65 598,-201 610.05,-183.4 629.65,-171.88 649.33,-164.37"/>
<polygon fill="midnightblue" stroke="midnightblue" points="650.69,-167.6 658.97,-161 648.38,-161 650.69,-167.6"/>
</g>
<!-- Node33 -->
<g id="node33" class="node">
<title>Node33</title>
<g id="a_node33"><a xlink:href="checks_8hpp.html" target="_top" xlink:title=" ">
<polygon fill="white" stroke="black" points="308.5,-363 308.5,-393 427.5,-393 427.5,-363 308.5,-363"/>
<text text-anchor="start" x="316.5" y="-381" font-family="Helvetica,sans-Serif" font-size="10.00">packages/macros/inc</text>
<text text-anchor="middle" x="368" y="-370" font-family="Helvetica,sans-Serif" font-size="10.00">/checks.hpp</text>
</a>
</g>
</g>
<!-- Node32&#45;&gt;Node33 -->
<g id="edge43" class="edge">
<title>Node32&#45;&gt;Node33</title>
<path fill="none" stroke="midnightblue" d="M544.27,-435.49C509.07,-424.21 459.44,-408.3 421.8,-396.24"/>
<polygon fill="midnightblue" stroke="midnightblue" points="422.61,-392.83 412.02,-393.11 420.48,-399.49 422.61,-392.83"/>
</g>
<!-- Node36 -->
<g id="node36" class="node">
<title>Node36</title>
<g id="a_node36"><a xlink:title=" ">
<polygon fill="white" stroke="#bfbfbf" points="602,-368.5 602,-387.5 654,-387.5 654,-368.5 602,-368.5"/>
<text text-anchor="middle" x="628" y="-375.5" font-family="Helvetica,sans-Serif" font-size="10.00">cassert</text>
</a>
</g>
</g>
<!-- Node32&#45;&gt;Node36 -->
<g id="edge53" class="edge">
<title>Node32&#45;&gt;Node36</title>
<path fill="none" stroke="midnightblue" d="M596.09,-435.23C602.37,-424.17 611.11,-408.77 617.86,-396.88"/>
<polygon fill="midnightblue" stroke="midnightblue" points="621.06,-398.32 622.95,-387.89 614.98,-394.86 621.06,-398.32"/>
</g>
<!-- Node33&#45;&gt;Node9 -->
<g id="edge46" class="edge">
<title>Node33&#45;&gt;Node9</title>
<path fill="none" stroke="midnightblue" d="M308.4,-375.28C249.93,-371.29 159.9,-358.85 92,-321 39.82,-291.91 0,-282.74 0,-223 0,-223 0,-223 0,-148.5 0,-78.47 220.81,-39.99 337.14,-24.57"/>
<polygon fill="midnightblue" stroke="midnightblue" points="337.92,-28 347.38,-23.24 337.01,-21.06 337.92,-28"/>
</g>
<!-- Node33&#45;&gt;Node26 -->
<g id="edge45" class="edge">
<title>Node33&#45;&gt;Node26</title>
<path fill="none" stroke="midnightblue" d="M378.72,-362.7C387,-351.67 398.61,-336.18 408.14,-323.49"/>
<polygon fill="midnightblue" stroke="midnightblue" points="411.13,-325.33 414.33,-315.23 405.53,-321.13 411.13,-325.33"/>
</g>
<!-- Node33&#45;&gt;Node27 -->
<g id="edge44" class="edge">
<title>Node33&#45;&gt;Node27</title>
<path fill="none" stroke="midnightblue" d="M364.49,-362.79C357.99,-336.43 343.99,-279.7 335.97,-247.19"/>
<polygon fill="midnightblue" stroke="midnightblue" points="339.29,-246.05 333.5,-237.18 332.5,-247.72 339.29,-246.05"/>
</g>
<!-- Node33&#45;&gt;Node31 -->
<g id="edge50" class="edge">
<title>Node33&#45;&gt;Node31</title>
<path fill="none" stroke="midnightblue" d="M426.52,-362.89C450.24,-354.4 476,-341.19 493,-321 511.98,-298.45 516.82,-263.35 517.9,-241.84"/>
<polygon fill="midnightblue" stroke="midnightblue" points="521.4,-241.81 518.18,-231.72 514.4,-241.62 521.4,-241.81"/>
</g>
<!-- Node34 -->
<g id="node34" class="node">
<title>Node34</title>
<g id="a_node34"><a xlink:href="cmake__variables_8hpp.html" target="_top" xlink:title=" ">
<polygon fill="white" stroke="black" points="101,-290.5 101,-309.5 221,-309.5 221,-290.5 101,-290.5"/>
<text text-anchor="middle" x="161" y="-297.5" font-family="Helvetica,sans-Serif" font-size="10.00">cmake_variables.hpp</text>
</a>
</g>
</g>
<!-- Node33&#45;&gt;Node34 -->
<g id="edge47" class="edge">
<title>Node33&#45;&gt;Node34</title>
<path fill="none" stroke="midnightblue" d="M329.55,-362.88C290.65,-348.6 231.13,-326.75 194.22,-313.2"/>
<polygon fill="midnightblue" stroke="midnightblue" points="195.03,-309.77 184.44,-309.61 192.62,-316.34 195.03,-309.77"/>
</g>
<!-- Node34&#45;&gt;Node12 -->
<g id="edge49" class="edge">
<title>Node34&#45;&gt;Node12</title>
<path fill="none" stroke="midnightblue" d="M150.65,-290.27C128.3,-270.66 75.99,-220.44 57,-165 52.54,-151.97 49.71,-145.69 57,-134 72.4,-109.3 103.77,-96.35 127.87,-89.78"/>
<polygon fill="midnightblue" stroke="midnightblue" points="128.83,-93.14 137.69,-87.33 127.14,-86.35 128.83,-93.14"/>
</g>
<!-- Node35 -->
<g id="node35" class="node">
<title>Node35</title>
<g id="a_node35"><a xlink:title=" ">
<polygon fill="white" stroke="#bfbfbf" points="127,-212.5 127,-231.5 195,-231.5 195,-212.5 127,-212.5"/>
<text text-anchor="middle" x="161" y="-219.5" font-family="Helvetica,sans-Serif" font-size="10.00">filesystem</text>
</a>
</g>
</g>
<!-- Node34&#45;&gt;Node35 -->
<g id="edge48" class="edge">
<title>Node34&#45;&gt;Node35</title>
<path fill="none" stroke="midnightblue" d="M161,-290.28C161,-278.49 161,-257.13 161,-241.64"/>
<polygon fill="midnightblue" stroke="midnightblue" points="164.5,-241.62 161,-231.62 157.5,-241.62 164.5,-241.62"/>
</g>
</g>
</svg>
