<?xml version="1.0" encoding="UTF-8" standalone="no"?>
<!DOCTYPE svg PUBLIC "-//W3C//DTD SVG 1.1//EN"
 "http://www.w3.org/Graphics/SVG/1.1/DTD/svg11.dtd">
<!-- Generated by graphviz version 2.43.0 (0)
 -->
<!-- Title: UnstructuredView.hpp Pages: 1 -->
<svg width="1330pt" height="654pt"
 viewBox="0.00 0.00 1329.50 654.00" xmlns="http://www.w3.org/2000/svg" xmlns:xlink="http://www.w3.org/1999/xlink">
<g id="graph0" class="graph" transform="scale(1 1) rotate(0) translate(4 650)">
<title>UnstructuredView.hpp</title>
<!-- Node1 -->
<g id="Node000001" class="node">
<title>Node1</title>
<g id="a_Node000001"><a xlink:title=" ">
<polygon fill="#999999" stroke="#666666" points="744,-646 620,-646 620,-627 744,-627 744,-646"/>
<text text-anchor="middle" x="682" y="-634" font-family="Helvetica,sans-Serif" font-size="10.00">UnstructuredView.hpp</text>
</a>
</g>
</g>
<!-- Node2 -->
<g id="Node000002" class="node">
<title>Node2</title>
<g id="a_Node000002"><a xlink:href="DynamicArray_8hpp.html" target="_top" xlink:title=" ">
<polygon fill="white" stroke="#666666" points="634.5,-591 503.5,-591 503.5,-561 634.5,-561 634.5,-591"/>
<text text-anchor="start" x="511.5" y="-579" font-family="Helvetica,sans-Serif" font-size="10.00">packages/stl_extension</text>
<text text-anchor="middle" x="569" y="-568" font-family="Helvetica,sans-Serif" font-size="10.00">/inc/DynamicArray.hpp</text>
</a>
</g>
</g>
<!-- Node1&#45;&gt;Node2 -->
<g id="edge1_Node000001_Node000002" class="edge">
<title>Node1&#45;&gt;Node2</title>
<g id="a_edge1_Node000001_Node000002"><a xlink:title=" ">
<path fill="none" stroke="#63b8ff" d="M665.33,-626.87C649.57,-618.71 625.4,-606.2 605.21,-595.75"/>
<polygon fill="#63b8ff" stroke="#63b8ff" points="606.75,-592.6 596.26,-591.11 603.54,-598.82 606.75,-592.6"/>
</a>
</g>
</g>
<!-- Node4 -->
<g id="Node000004" class="node">
<title>Node4</title>
<g id="a_Node000004"><a xlink:href="container__concepts_8hpp.html" target="_top" xlink:title=" ">
<polygon fill="white" stroke="#666666" points="412.5,-393 277.5,-393 277.5,-352 412.5,-352 412.5,-393"/>
<text text-anchor="start" x="285.5" y="-381" font-family="Helvetica,sans-Serif" font-size="10.00">packages/compile_time</text>
<text text-anchor="start" x="285.5" y="-370" font-family="Helvetica,sans-Serif" font-size="10.00">/packages/concepts/inc</text>
<text text-anchor="middle" x="345" y="-359" font-family="Helvetica,sans-Serif" font-size="10.00">/container_concepts.hpp</text>
</a>
</g>
</g>
<!-- Node1&#45;&gt;Node4 -->
<g id="edge54_Node000001_Node000004" class="edge">
<title>Node1&#45;&gt;Node4</title>
<g id="a_edge54_Node000001_Node000004"><a xlink:title=" ">
<path fill="none" stroke="#63b8ff" d="M619.77,-627.01C582.4,-620.39 534.58,-609.18 495,-591 449.6,-570.15 437.84,-561.76 404,-525 380.77,-499.77 376.78,-490.83 364,-459 356.84,-441.17 352.12,-420.12 349.18,-403.37"/>
<polygon fill="#63b8ff" stroke="#63b8ff" points="352.56,-402.36 347.49,-393.05 345.65,-403.49 352.56,-402.36"/>
</a>
</g>
</g>
<!-- Node23 -->
<g id="Node000023" class="node">
<title>Node23</title>
<g id="a_Node000023"><a xlink:title=" ">
<polygon fill="#e0e0e0" stroke="#999999" points="662.5,-228 609.5,-228 609.5,-209 662.5,-209 662.5,-228"/>
<text text-anchor="middle" x="636" y="-216" font-family="Helvetica,sans-Serif" font-size="10.00">iterator</text>
</a>
</g>
</g>
<!-- Node1&#45;&gt;Node23 -->
<g id="edge56_Node000001_Node000023" class="edge">
<title>Node1&#45;&gt;Node23</title>
<g id="a_edge56_Node000001_Node000023"><a xlink:title=" ">
<path fill="none" stroke="#63b8ff" d="M679.75,-626.81C674.71,-606.63 663,-554.95 663,-511 663,-511 663,-511 663,-371.5 663,-322.76 649.37,-266.56 641.48,-238.1"/>
<polygon fill="#63b8ff" stroke="#63b8ff" points="644.8,-236.97 638.69,-228.31 638.07,-238.89 644.8,-236.97"/>
</a>
</g>
</g>
<!-- Node24 -->
<g id="Node000024" class="node">
<title>Node24</title>
<g id="a_Node000024"><a xlink:title=" ">
<polygon fill="#e0e0e0" stroke="#999999" points="1128,-156.5 1070,-156.5 1070,-137.5 1128,-137.5 1128,-156.5"/>
<text text-anchor="middle" x="1099" y="-144.5" font-family="Helvetica,sans-Serif" font-size="10.00">memory</text>
</a>
</g>
</g>
<!-- Node1&#45;&gt;Node24 -->
<g id="edge57_Node000001_Node000024" class="edge">
<title>Node1&#45;&gt;Node24</title>
<g id="a_edge57_Node000001_Node000024"><a xlink:title=" ">
<path fill="none" stroke="#63b8ff" d="M744.45,-631.52C869.34,-621.83 1138,-591.63 1138,-511 1138,-511 1138,-511 1138,-294.5 1138,-246.87 1118.51,-193.37 1107.09,-166.1"/>
<polygon fill="#63b8ff" stroke="#63b8ff" points="1110.2,-164.49 1103.03,-156.7 1103.78,-167.27 1110.2,-164.49"/>
</a>
</g>
</g>
<!-- Node25 -->
<g id="Node000025" class="node">
<title>Node25</title>
<g id="a_Node000025"><a xlink:href="typedefs_8hpp.html" target="_top" xlink:title=" ">
<polygon fill="white" stroke="#666666" points="1024.5,-459 905.5,-459 905.5,-429 1024.5,-429 1024.5,-459"/>
<text text-anchor="start" x="913.5" y="-447" font-family="Helvetica,sans-Serif" font-size="10.00">packages/macros/inc</text>
<text text-anchor="middle" x="965" y="-436" font-family="Helvetica,sans-Serif" font-size="10.00">/typedefs.hpp</text>
</a>
</g>
</g>
<!-- Node1&#45;&gt;Node25 -->
<g id="edge55_Node000001_Node000025" class="edge">
<title>Node1&#45;&gt;Node25</title>
<g id="a_edge55_Node000001_Node000025"><a xlink:title=" ">
<path fill="none" stroke="#63b8ff" d="M694.9,-626.82C737.56,-598.1 874.9,-505.65 935.64,-464.77"/>
<polygon fill="#63b8ff" stroke="#63b8ff" points="937.68,-467.61 944.02,-459.12 933.77,-461.8 937.68,-467.61"/>
</a>
</g>
</g>
<!-- Node38 -->
<g id="Node000038" class="node">
<title>Node38</title>
<g id="a_Node000038"><a xlink:title=" ">
<polygon fill="#e0e0e0" stroke="#999999" points="1321.5,-591 1166.5,-591 1166.5,-561 1321.5,-561 1321.5,-591"/>
<text text-anchor="start" x="1174.5" y="-579" font-family="Helvetica,sans-Serif" font-size="10.00">packages/ranges/impl</text>
<text text-anchor="middle" x="1244" y="-568" font-family="Helvetica,sans-Serif" font-size="10.00">/UnstructuredView_impl.hpp</text>
</a>
</g>
</g>
<!-- Node1&#45;&gt;Node38 -->
<g id="edge58_Node000001_Node000038" class="edge">
<title>Node1&#45;&gt;Node38</title>
<g id="a_edge58_Node000001_Node000038"><a xlink:title=" ">
<path fill="none" stroke="#63b8ff" d="M744.09,-630.75C834.14,-623.6 1006.19,-608.98 1152,-591 1153.31,-590.84 1154.63,-590.67 1155.95,-590.5"/>
<polygon fill="#63b8ff" stroke="#63b8ff" points="1156.79,-593.93 1166.24,-589.15 1155.87,-586.99 1156.79,-593.93"/>
</a>
</g>
</g>
<!-- Node3 -->
<g id="Node000003" class="node">
<title>Node3</title>
<g id="a_Node000003"><a xlink:href="STLContainerBase_8hpp.html" target="_top" xlink:title=" ">
<polygon fill="white" stroke="#666666" points="559,-525 413,-525 413,-495 559,-495 559,-525"/>
<text text-anchor="start" x="421" y="-513" font-family="Helvetica,sans-Serif" font-size="10.00">packages/stl_extension</text>
<text text-anchor="middle" x="486" y="-502" font-family="Helvetica,sans-Serif" font-size="10.00">/inc/STLContainerBase.hpp</text>
</a>
</g>
</g>
<!-- Node2&#45;&gt;Node3 -->
<g id="edge2_Node000002_Node000003" class="edge">
<title>Node2&#45;&gt;Node3</title>
<g id="a_edge2_Node000002_Node000003"><a xlink:title=" ">
<path fill="none" stroke="#63b8ff" d="M550.58,-560.8C539.4,-552.18 524.95,-541.04 512.56,-531.48"/>
<polygon fill="#63b8ff" stroke="#63b8ff" points="514.43,-528.5 504.37,-525.16 510.15,-534.04 514.43,-528.5"/>
</a>
</g>
</g>
<!-- Node37 -->
<g id="Node000037" class="node">
<title>Node37</title>
<g id="a_Node000037"><a xlink:title=" ">
<polygon fill="#e0e0e0" stroke="#999999" points="624.5,-519.5 577.5,-519.5 577.5,-500.5 624.5,-500.5 624.5,-519.5"/>
<text text-anchor="middle" x="601" y="-507.5" font-family="Helvetica,sans-Serif" font-size="10.00">vector</text>
</a>
</g>
</g>
<!-- Node2&#45;&gt;Node37 -->
<g id="edge53_Node000002_Node000037" class="edge">
<title>Node2&#45;&gt;Node37</title>
<g id="a_edge53_Node000002_Node000037"><a xlink:title=" ">
<path fill="none" stroke="#63b8ff" d="M576.1,-560.8C580.8,-551.41 586.99,-539.02 592.03,-528.95"/>
<polygon fill="#63b8ff" stroke="#63b8ff" points="595.24,-530.35 596.58,-519.84 588.98,-527.22 595.24,-530.35"/>
</a>
</g>
</g>
<!-- Node3&#45;&gt;Node4 -->
<g id="edge3_Node000003_Node000004" class="edge">
<title>Node3&#45;&gt;Node4</title>
<g id="a_edge3_Node000003_Node000004"><a xlink:title=" ">
<path fill="none" stroke="#63b8ff" d="M481.79,-494.73C476.07,-477.4 464.41,-448.14 446,-429 433.94,-416.46 418.42,-406.04 403.19,-397.74"/>
<polygon fill="#63b8ff" stroke="#63b8ff" points="404.77,-394.62 394.28,-393.1 401.53,-400.83 404.77,-394.62"/>
</a>
</g>
</g>
<!-- Node7 -->
<g id="Node000007" class="node">
<title>Node7</title>
<g id="a_Node000007"><a xlink:href="types_8hpp.html" target="_top" xlink:title=" ">
<polygon fill="white" stroke="#666666" points="406,-162 296,-162 296,-132 406,-132 406,-162"/>
<text text-anchor="start" x="304" y="-150" font-family="Helvetica,sans-Serif" font-size="10.00">packages/types/inc</text>
<text text-anchor="middle" x="351" y="-139" font-family="Helvetica,sans-Serif" font-size="10.00">/types.hpp</text>
</a>
</g>
</g>
<!-- Node3&#45;&gt;Node7 -->
<g id="edge30_Node000003_Node000007" class="edge">
<title>Node3&#45;&gt;Node7</title>
<g id="a_edge30_Node000003_Node000007"><a xlink:title=" ">
<path fill="none" stroke="#63b8ff" d="M412.67,-503.9C331.2,-493.78 211,-463.58 211,-373.5 211,-373.5 211,-373.5 211,-294.5 211,-246.79 224.95,-232.4 258,-198 270.63,-184.85 287.49,-174.37 303.38,-166.47"/>
<polygon fill="#63b8ff" stroke="#63b8ff" points="305.04,-169.56 312.59,-162.12 302.05,-163.23 305.04,-169.56"/>
</a>
</g>
</g>
<!-- Node3&#45;&gt;Node25 -->
<g id="edge28_Node000003_Node000025" class="edge">
<title>Node3&#45;&gt;Node25</title>
<g id="a_edge28_Node000003_Node000025"><a xlink:title=" ">
<path fill="none" stroke="#63b8ff" d="M559.29,-496.41C562.57,-495.92 565.82,-495.45 569,-495 711.61,-475.02 748.6,-480.4 891,-459 892.45,-458.78 893.92,-458.55 895.4,-458.32"/>
<polygon fill="#63b8ff" stroke="#63b8ff" points="895.99,-461.77 905.29,-456.7 894.86,-454.87 895.99,-461.77"/>
</a>
</g>
</g>
<!-- Node26 -->
<g id="Node000026" class="node">
<title>Node26</title>
<g id="a_Node000026"><a xlink:href="exceptions_8hpp.html" target="_top" xlink:title=" ">
<polygon fill="white" stroke="#666666" points="1024.5,-310.5 905.5,-310.5 905.5,-280.5 1024.5,-280.5 1024.5,-310.5"/>
<text text-anchor="start" x="913.5" y="-298.5" font-family="Helvetica,sans-Serif" font-size="10.00">packages/macros/inc</text>
<text text-anchor="middle" x="965" y="-287.5" font-family="Helvetica,sans-Serif" font-size="10.00">/exceptions.hpp</text>
</a>
</g>
</g>
<!-- Node3&#45;&gt;Node26 -->
<g id="edge31_Node000003_Node000026" class="edge">
<title>Node3&#45;&gt;Node26</title>
<g id="a_edge31_Node000003_Node000026"><a xlink:title=" ">
<path fill="none" stroke="#63b8ff" d="M559.32,-495.89C637.2,-479.8 762.05,-447.69 858,-393 893.03,-373.03 926.37,-339.95 946.26,-318.18"/>
<polygon fill="#63b8ff" stroke="#63b8ff" points="948.88,-320.5 952.96,-310.72 943.67,-315.83 948.88,-320.5"/>
</a>
</g>
</g>
<!-- Node32 -->
<g id="Node000032" class="node">
<title>Node32</title>
<g id="a_Node000032"><a xlink:href="resize_8hpp.html" target="_top" xlink:title=" ">
<polygon fill="white" stroke="#666666" points="624.5,-459 493.5,-459 493.5,-429 624.5,-429 624.5,-459"/>
<text text-anchor="start" x="501.5" y="-447" font-family="Helvetica,sans-Serif" font-size="10.00">packages/stl_extension</text>
<text text-anchor="middle" x="559" y="-436" font-family="Helvetica,sans-Serif" font-size="10.00">/inc/resize.hpp</text>
</a>
</g>
</g>
<!-- Node3&#45;&gt;Node32 -->
<g id="edge42_Node000003_Node000032" class="edge">
<title>Node3&#45;&gt;Node32</title>
<g id="a_edge42_Node000003_Node000032"><a xlink:title=" ">
<path fill="none" stroke="#63b8ff" d="M502.2,-494.8C511.84,-486.34 524.25,-475.46 535.01,-466.03"/>
<polygon fill="#63b8ff" stroke="#63b8ff" points="537.63,-468.39 542.84,-459.16 533.02,-463.12 537.63,-468.39"/>
</a>
</g>
</g>
<!-- Node36 -->
<g id="Node000036" class="node">
<title>Node36</title>
<g id="a_Node000036"><a xlink:title=" ">
<polygon fill="#e0e0e0" stroke="#999999" points="437,-453.5 373,-453.5 373,-434.5 437,-434.5 437,-453.5"/>
<text text-anchor="middle" x="405" y="-441.5" font-family="Helvetica,sans-Serif" font-size="10.00">algorithm</text>
</a>
</g>
</g>
<!-- Node3&#45;&gt;Node36 -->
<g id="edge52_Node000003_Node000036" class="edge">
<title>Node3&#45;&gt;Node36</title>
<g id="a_edge52_Node000003_Node000036"><a xlink:title=" ">
<path fill="none" stroke="#63b8ff" d="M468.02,-494.8C455.02,-484.53 437.49,-470.67 424.21,-460.18"/>
<polygon fill="#63b8ff" stroke="#63b8ff" points="426.21,-457.3 416.19,-453.84 421.87,-462.79 426.21,-457.3"/>
</a>
</g>
</g>
<!-- Node5 -->
<g id="Node000005" class="node">
<title>Node5</title>
<g id="a_Node000005"><a xlink:href="iterator__concepts_8hpp.html" target="_top" xlink:title=" ">
<polygon fill="white" stroke="#666666" points="500,-316 368,-316 368,-275 500,-275 500,-316"/>
<text text-anchor="start" x="376" y="-304" font-family="Helvetica,sans-Serif" font-size="10.00">packages/compile_time</text>
<text text-anchor="start" x="376" y="-293" font-family="Helvetica,sans-Serif" font-size="10.00">/packages/concepts/inc</text>
<text text-anchor="middle" x="434" y="-282" font-family="Helvetica,sans-Serif" font-size="10.00">/iterator_concepts.hpp</text>
</a>
</g>
</g>
<!-- Node4&#45;&gt;Node5 -->
<g id="edge4_Node000004_Node000005" class="edge">
<title>Node4&#45;&gt;Node5</title>
<g id="a_edge4_Node000004_Node000005"><a xlink:title=" ">
<path fill="none" stroke="#63b8ff" d="M368.38,-351.79C378.91,-342.92 391.49,-332.32 402.8,-322.79"/>
<polygon fill="#63b8ff" stroke="#63b8ff" points="405.38,-325.19 410.77,-316.07 400.87,-319.84 405.38,-325.19"/>
</a>
</g>
</g>
<!-- Node6 -->
<g id="Node000006" class="node">
<title>Node6</title>
<g id="a_Node000006"><a xlink:href="basic__concepts_8hpp.html" target="_top" xlink:title=" ">
<polygon fill="white" stroke="#666666" points="183,-239 51,-239 51,-198 183,-198 183,-239"/>
<text text-anchor="start" x="59" y="-227" font-family="Helvetica,sans-Serif" font-size="10.00">packages/compile_time</text>
<text text-anchor="start" x="59" y="-216" font-family="Helvetica,sans-Serif" font-size="10.00">/packages/concepts/inc</text>
<text text-anchor="middle" x="117" y="-205" font-family="Helvetica,sans-Serif" font-size="10.00">/basic_concepts.hpp</text>
</a>
</g>
</g>
<!-- Node5&#45;&gt;Node6 -->
<g id="edge5_Node000005_Node000006" class="edge">
<title>Node5&#45;&gt;Node6</title>
<g id="a_edge5_Node000005_Node000006"><a xlink:title=" ">
<path fill="none" stroke="#63b8ff" d="M367.93,-278.87C316.94,-266.8 246.33,-250.1 193,-237.48"/>
<polygon fill="#63b8ff" stroke="#63b8ff" points="193.79,-234.07 183.25,-235.18 192.18,-240.88 193.79,-234.07"/>
</a>
</g>
</g>
<!-- Node20 -->
<g id="Node000020" class="node">
<title>Node20</title>
<g id="a_Node000020"><a xlink:href="Size_8hpp.html" target="_top" xlink:title=" ">
<polygon fill="white" stroke="#666666" points="425,-239 277,-239 277,-198 425,-198 425,-239"/>
<text text-anchor="start" x="285" y="-227" font-family="Helvetica,sans-Serif" font-size="10.00">packages/compile_time</text>
<text text-anchor="start" x="285" y="-216" font-family="Helvetica,sans-Serif" font-size="10.00">/packages/parameter_pack</text>
<text text-anchor="middle" x="351" y="-205" font-family="Helvetica,sans-Serif" font-size="10.00">/inc/Size.hpp</text>
</a>
</g>
</g>
<!-- Node5&#45;&gt;Node20 -->
<g id="edge20_Node000005_Node000020" class="edge">
<title>Node5&#45;&gt;Node20</title>
<g id="a_edge20_Node000005_Node000020"><a xlink:title=" ">
<path fill="none" stroke="#63b8ff" d="M412.19,-274.79C402.38,-265.92 390.64,-255.32 380.09,-245.79"/>
<polygon fill="#63b8ff" stroke="#63b8ff" points="382.43,-243.18 372.66,-239.07 377.73,-248.38 382.43,-243.18"/>
</a>
</g>
</g>
<!-- Node21 -->
<g id="Node000021" class="node">
<title>Node21</title>
<g id="a_Node000021"><a xlink:href="Select_8hpp.html" target="_top" xlink:title=" ">
<polygon fill="white" stroke="#666666" points="591,-239 443,-239 443,-198 591,-198 591,-239"/>
<text text-anchor="start" x="451" y="-227" font-family="Helvetica,sans-Serif" font-size="10.00">packages/compile_time</text>
<text text-anchor="start" x="451" y="-216" font-family="Helvetica,sans-Serif" font-size="10.00">/packages/parameter_pack</text>
<text text-anchor="middle" x="517" y="-205" font-family="Helvetica,sans-Serif" font-size="10.00">/inc/Select.hpp</text>
</a>
</g>
</g>
<!-- Node5&#45;&gt;Node21 -->
<g id="edge22_Node000005_Node000021" class="edge">
<title>Node5&#45;&gt;Node21</title>
<g id="a_edge22_Node000005_Node000021"><a xlink:title=" ">
<path fill="none" stroke="#63b8ff" d="M455.81,-274.79C465.62,-265.92 477.36,-255.32 487.91,-245.79"/>
<polygon fill="#63b8ff" stroke="#63b8ff" points="490.27,-248.38 495.34,-239.07 485.57,-243.18 490.27,-248.38"/>
</a>
</g>
</g>
<!-- Node5&#45;&gt;Node23 -->
<g id="edge26_Node000005_Node000023" class="edge">
<title>Node5&#45;&gt;Node23</title>
<g id="a_edge26_Node000005_Node000023"><a xlink:title=" ">
<path fill="none" stroke="#63b8ff" d="M500.03,-275.33C530.87,-265.64 567.8,-252.98 600,-239 604.11,-237.22 608.37,-235.13 612.47,-233"/>
<polygon fill="#63b8ff" stroke="#63b8ff" points="614.45,-235.9 621.57,-228.06 611.12,-229.75 614.45,-235.9"/>
</a>
</g>
</g>
<!-- Node5&#45;&gt;Node24 -->
<g id="edge27_Node000005_Node000024" class="edge">
<title>Node5&#45;&gt;Node24</title>
<g id="a_edge27_Node000005_Node000024"><a xlink:title=" ">
<path fill="none" stroke="#63b8ff" d="M500.13,-289.48C626.41,-279.55 892.79,-256.82 931,-239 954.93,-227.84 951.78,-212.27 974,-198 982.17,-192.75 1032.36,-173.27 1066.6,-160.23"/>
<polygon fill="#63b8ff" stroke="#63b8ff" points="1068.12,-163.4 1076.22,-156.57 1065.63,-156.85 1068.12,-163.4"/>
</a>
</g>
</g>
<!-- Node6&#45;&gt;Node7 -->
<g id="edge6_Node000006_Node000007" class="edge">
<title>Node6&#45;&gt;Node7</title>
<g id="a_edge6_Node000006_Node000007"><a xlink:title=" ">
<path fill="none" stroke="#63b8ff" d="M182.8,-197.96C217.87,-187.54 260.58,-174.86 294.18,-164.88"/>
<polygon fill="#63b8ff" stroke="#63b8ff" points="295.26,-168.21 303.85,-162 293.27,-161.5 295.26,-168.21"/>
</a>
</g>
</g>
<!-- Node13 -->
<g id="Node000013" class="node">
<title>Node13</title>
<g id="a_Node000013"><a xlink:title=" ">
<polygon fill="#e0e0e0" stroke="#999999" points="113.5,-90.5 44.5,-90.5 44.5,-71.5 113.5,-71.5 113.5,-90.5"/>
<text text-anchor="middle" x="79" y="-78.5" font-family="Helvetica,sans-Serif" font-size="10.00">type_traits</text>
</a>
</g>
</g>
<!-- Node6&#45;&gt;Node13 -->
<g id="edge17_Node000006_Node000013" class="edge">
<title>Node6&#45;&gt;Node13</title>
<g id="a_edge17_Node000006_Node000013"><a xlink:title=" ">
<path fill="none" stroke="#63b8ff" d="M122.54,-197.82C126.54,-180.05 129.96,-153.47 122,-132 117.02,-118.58 106.66,-106.35 97.35,-97.34"/>
<polygon fill="#63b8ff" stroke="#63b8ff" points="99.67,-94.72 89.92,-90.57 94.96,-99.89 99.67,-94.72"/>
</a>
</g>
</g>
<!-- Node17 -->
<g id="Node000017" class="node">
<title>Node17</title>
<g id="a_Node000017"><a xlink:title=" ">
<polygon fill="#e0e0e0" stroke="#999999" points="516,-156.5 456,-156.5 456,-137.5 516,-137.5 516,-156.5"/>
<text text-anchor="middle" x="486" y="-144.5" font-family="Helvetica,sans-Serif" font-size="10.00">concepts</text>
</a>
</g>
</g>
<!-- Node6&#45;&gt;Node17 -->
<g id="edge16_Node000006_Node000017" class="edge">
<title>Node6&#45;&gt;Node17</title>
<g id="a_edge16_Node000006_Node000017"><a xlink:title=" ">
<path fill="none" stroke="#63b8ff" d="M183.02,-205.41C243.44,-194.3 335.28,-177.28 415,-162 425.09,-160.07 435.97,-157.94 446.12,-155.94"/>
<polygon fill="#63b8ff" stroke="#63b8ff" points="446.83,-159.37 455.96,-154 445.47,-152.5 446.83,-159.37"/>
</a>
</g>
</g>
<!-- Node18 -->
<g id="Node000018" class="node">
<title>Node18</title>
<g id="a_Node000018"><a xlink:title=" ">
<polygon fill="#e0e0e0" stroke="#999999" points="50,-156.5 0,-156.5 0,-137.5 50,-137.5 50,-156.5"/>
<text text-anchor="middle" x="25" y="-144.5" font-family="Helvetica,sans-Serif" font-size="10.00">cstdint</text>
</a>
</g>
</g>
<!-- Node6&#45;&gt;Node18 -->
<g id="edge18_Node000006_Node000018" class="edge">
<title>Node6&#45;&gt;Node18</title>
<g id="a_edge18_Node000006_Node000018"><a xlink:title=" ">
<path fill="none" stroke="#63b8ff" d="M90.88,-197.77C76.24,-186.71 58.27,-173.13 44.8,-162.96"/>
<polygon fill="#63b8ff" stroke="#63b8ff" points="46.76,-160.05 36.68,-156.82 42.54,-165.64 46.76,-160.05"/>
</a>
</g>
</g>
<!-- Node19 -->
<g id="Node000019" class="node">
<title>Node19</title>
<g id="a_Node000019"><a xlink:title=" ">
<polygon fill="#e0e0e0" stroke="#999999" points="113.5,-156.5 68.5,-156.5 68.5,-137.5 113.5,-137.5 113.5,-156.5"/>
<text text-anchor="middle" x="91" y="-144.5" font-family="Helvetica,sans-Serif" font-size="10.00">utility</text>
</a>
</g>
</g>
<!-- Node6&#45;&gt;Node19 -->
<g id="edge19_Node000006_Node000019" class="edge">
<title>Node6&#45;&gt;Node19</title>
<g id="a_edge19_Node000006_Node000019"><a xlink:title=" ">
<path fill="none" stroke="#63b8ff" d="M109.62,-197.77C105.91,-187.87 101.46,-175.95 97.83,-166.26"/>
<polygon fill="#63b8ff" stroke="#63b8ff" points="101.08,-164.96 94.3,-156.82 94.53,-167.41 101.08,-164.96"/>
</a>
</g>
</g>
<!-- Node8 -->
<g id="Node000008" class="node">
<title>Node8</title>
<g id="a_Node000008"><a xlink:href="debug_8hpp.html" target="_top" xlink:title=" ">
<polygon fill="white" stroke="#666666" points="591.5,-96 472.5,-96 472.5,-66 591.5,-66 591.5,-96"/>
<text text-anchor="start" x="480.5" y="-84" font-family="Helvetica,sans-Serif" font-size="10.00">packages/macros/inc</text>
<text text-anchor="middle" x="532" y="-73" font-family="Helvetica,sans-Serif" font-size="10.00">/debug.hpp</text>
</a>
</g>
</g>
<!-- Node7&#45;&gt;Node8 -->
<g id="edge7_Node000007_Node000008" class="edge">
<title>Node7&#45;&gt;Node8</title>
<g id="a_edge7_Node000007_Node000008"><a xlink:title=" ">
<path fill="none" stroke="#63b8ff" d="M390.72,-131.95C417.83,-122.37 453.94,-109.6 482.86,-99.37"/>
<polygon fill="#63b8ff" stroke="#63b8ff" points="484.11,-102.65 492.37,-96.01 481.78,-96.05 484.11,-102.65"/>
</a>
</g>
</g>
<!-- Node11 -->
<g id="Node000011" class="node">
<title>Node11</title>
<g id="a_Node000011"><a xlink:title=" ">
<polygon fill="#e0e0e0" stroke="#999999" points="662.5,-90.5 609.5,-90.5 609.5,-71.5 662.5,-71.5 662.5,-90.5"/>
<text text-anchor="middle" x="636" y="-78.5" font-family="Helvetica,sans-Serif" font-size="10.00">cstddef</text>
</a>
</g>
</g>
<!-- Node7&#45;&gt;Node11 -->
<g id="edge10_Node000007_Node000011" class="edge">
<title>Node7&#45;&gt;Node11</title>
<g id="a_edge10_Node000007_Node000011"><a xlink:title=" ">
<path fill="none" stroke="#63b8ff" d="M406.33,-137.92C457.46,-129.76 535.24,-115.55 601,-96 602.88,-95.44 604.8,-94.82 606.73,-94.16"/>
<polygon fill="#63b8ff" stroke="#63b8ff" points="608.07,-97.39 616.23,-90.64 605.64,-90.83 608.07,-97.39"/>
</a>
</g>
</g>
<!-- Node12 -->
<g id="Node000012" class="node">
<title>Node12</title>
<g id="a_Node000012"><a xlink:title=" ">
<polygon fill="#e0e0e0" stroke="#999999" points="763,-90.5 719,-90.5 719,-71.5 763,-71.5 763,-90.5"/>
<text text-anchor="middle" x="741" y="-78.5" font-family="Helvetica,sans-Serif" font-size="10.00">string</text>
</a>
</g>
</g>
<!-- Node7&#45;&gt;Node12 -->
<g id="edge11_Node000007_Node000012" class="edge">
<title>Node7&#45;&gt;Node12</title>
<g id="a_edge11_Node000007_Node000012"><a xlink:title=" ">
<path fill="none" stroke="#63b8ff" d="M406.19,-137.72C484.02,-125.98 622.1,-104.94 672,-96 684.07,-93.84 697.27,-91.22 708.87,-88.84"/>
<polygon fill="#63b8ff" stroke="#63b8ff" points="709.91,-92.2 718.99,-86.73 708.48,-85.34 709.91,-92.2"/>
</a>
</g>
</g>
<!-- Node7&#45;&gt;Node13 -->
<g id="edge12_Node000007_Node000013" class="edge">
<title>Node7&#45;&gt;Node13</title>
<g id="a_edge12_Node000007_Node000013"><a xlink:title=" ">
<path fill="none" stroke="#63b8ff" d="M295.83,-135.39C249.44,-126.11 181.52,-111.69 123,-96 120.17,-95.24 117.25,-94.41 114.32,-93.55"/>
<polygon fill="#63b8ff" stroke="#63b8ff" points="115.06,-90.12 104.48,-90.54 113.02,-96.81 115.06,-90.12"/>
</a>
</g>
</g>
<!-- Node14 -->
<g id="Node000014" class="node">
<title>Node14</title>
<g id="a_Node000014"><a xlink:title=" ">
<polygon fill="#e0e0e0" stroke="#999999" points="182,-90.5 132,-90.5 132,-71.5 182,-71.5 182,-90.5"/>
<text text-anchor="middle" x="157" y="-78.5" font-family="Helvetica,sans-Serif" font-size="10.00">climits</text>
</a>
</g>
</g>
<!-- Node7&#45;&gt;Node14 -->
<g id="edge13_Node000007_Node000014" class="edge">
<title>Node7&#45;&gt;Node14</title>
<g id="a_edge13_Node000007_Node000014"><a xlink:title=" ">
<path fill="none" stroke="#63b8ff" d="M302.32,-132C270.42,-122.53 227.95,-109.35 191,-96 189.57,-95.48 188.12,-94.94 186.66,-94.39"/>
<polygon fill="#63b8ff" stroke="#63b8ff" points="187.61,-91 177.02,-90.59 185.04,-97.51 187.61,-91"/>
</a>
</g>
</g>
<!-- Node15 -->
<g id="Node000015" class="node">
<title>Node15</title>
<g id="a_Node000015"><a xlink:title=" ">
<polygon fill="#e0e0e0" stroke="#999999" points="317.5,-96 200.5,-96 200.5,-66 317.5,-66 317.5,-96"/>
<text text-anchor="start" x="208.5" y="-84" font-family="Helvetica,sans-Serif" font-size="10.00">packages/types/impl</text>
<text text-anchor="middle" x="259" y="-73" font-family="Helvetica,sans-Serif" font-size="10.00">/types_impl.hpp</text>
</a>
</g>
</g>
<!-- Node7&#45;&gt;Node15 -->
<g id="edge14_Node000007_Node000015" class="edge">
<title>Node7&#45;&gt;Node15</title>
<g id="a_edge14_Node000007_Node000015"><a xlink:title=" ">
<path fill="none" stroke="#63b8ff" d="M330.58,-131.8C317.96,-123.01 301.56,-111.61 287.65,-101.93"/>
<polygon fill="#63b8ff" stroke="#63b8ff" points="289.57,-99 279.36,-96.16 285.57,-104.75 289.57,-99"/>
</a>
</g>
</g>
<!-- Node16 -->
<g id="Node000016" class="node">
<title>Node16</title>
<g id="a_Node000016"><a xlink:href="logging_8hpp.html" target="_top" xlink:title=" ">
<polygon fill="white" stroke="#666666" points="454.5,-96 335.5,-96 335.5,-66 454.5,-66 454.5,-96"/>
<text text-anchor="start" x="343.5" y="-84" font-family="Helvetica,sans-Serif" font-size="10.00">packages/macros/inc</text>
<text text-anchor="middle" x="395" y="-73" font-family="Helvetica,sans-Serif" font-size="10.00">/logging.hpp</text>
</a>
</g>
</g>
<!-- Node7&#45;&gt;Node16 -->
<g id="edge15_Node000007_Node000016" class="edge">
<title>Node7&#45;&gt;Node16</title>
<g id="a_edge15_Node000007_Node000016"><a xlink:title=" ">
<path fill="none" stroke="#63b8ff" d="M360.77,-131.8C366.29,-123.76 373.33,-113.53 379.58,-104.43"/>
<polygon fill="#63b8ff" stroke="#63b8ff" points="382.48,-106.39 385.26,-96.16 376.71,-102.42 382.48,-106.39"/>
</a>
</g>
</g>
<!-- Node9 -->
<g id="Node000009" class="node">
<title>Node9</title>
<g id="a_Node000009"><a xlink:href="detail_8hpp.html" target="_top" xlink:title=" ">
<polygon fill="white" stroke="#666666" points="750.5,-30 631.5,-30 631.5,0 750.5,0 750.5,-30"/>
<text text-anchor="start" x="639.5" y="-18" font-family="Helvetica,sans-Serif" font-size="10.00">packages/macros/inc</text>
<text text-anchor="middle" x="691" y="-7" font-family="Helvetica,sans-Serif" font-size="10.00">/detail.hpp</text>
</a>
</g>
</g>
<!-- Node8&#45;&gt;Node9 -->
<g id="edge8_Node000008_Node000009" class="edge">
<title>Node8&#45;&gt;Node9</title>
<g id="a_edge8_Node000008_Node000009"><a xlink:title=" ">
<path fill="none" stroke="#63b8ff" d="M566.89,-65.95C590.4,-56.49 621.6,-43.93 646.84,-33.78"/>
<polygon fill="#63b8ff" stroke="#63b8ff" points="648.22,-36.99 656.19,-30.01 645.6,-30.5 648.22,-36.99"/>
</a>
</g>
</g>
<!-- Node10 -->
<g id="Node000010" class="node">
<title>Node10</title>
<g id="a_Node000010"><a xlink:title=" ">
<polygon fill="#e0e0e0" stroke="#999999" points="562,-24.5 502,-24.5 502,-5.5 562,-5.5 562,-24.5"/>
<text text-anchor="middle" x="532" y="-12.5" font-family="Helvetica,sans-Serif" font-size="10.00">iostream</text>
</a>
</g>
</g>
<!-- Node8&#45;&gt;Node10 -->
<g id="edge9_Node000008_Node000010" class="edge">
<title>Node8&#45;&gt;Node10</title>
<g id="a_edge9_Node000008_Node000010"><a xlink:title=" ">
<path fill="none" stroke="#63b8ff" d="M532,-65.8C532,-56.7 532,-44.79 532,-34.9"/>
<polygon fill="#63b8ff" stroke="#63b8ff" points="535.5,-34.84 532,-24.84 528.5,-34.84 535.5,-34.84"/>
</a>
</g>
</g>
<!-- Node20&#45;&gt;Node7 -->
<g id="edge21_Node000020_Node000007" class="edge">
<title>Node20&#45;&gt;Node7</title>
<g id="a_edge21_Node000020_Node000007"><a xlink:title=" ">
<path fill="none" stroke="#63b8ff" d="M351,-197.77C351,-189.85 351,-180.63 351,-172.3"/>
<polygon fill="#63b8ff" stroke="#63b8ff" points="354.5,-172.04 351,-162.04 347.5,-172.04 354.5,-172.04"/>
</a>
</g>
</g>
<!-- Node21&#45;&gt;Node7 -->
<g id="edge23_Node000021_Node000007" class="edge">
<title>Node21&#45;&gt;Node7</title>
<g id="a_edge23_Node000021_Node000007"><a xlink:title=" ">
<path fill="none" stroke="#63b8ff" d="M470.32,-197.96C446.3,-187.9 417.22,-175.73 393.79,-165.91"/>
<polygon fill="#63b8ff" stroke="#63b8ff" points="395.02,-162.64 384.45,-162 392.32,-169.09 395.02,-162.64"/>
</a>
</g>
</g>
<!-- Node21&#45;&gt;Node17 -->
<g id="edge25_Node000021_Node000017" class="edge">
<title>Node21&#45;&gt;Node17</title>
<g id="a_edge25_Node000021_Node000017"><a xlink:title=" ">
<path fill="none" stroke="#63b8ff" d="M508.2,-197.77C503.78,-187.87 498.47,-175.95 494.14,-166.26"/>
<polygon fill="#63b8ff" stroke="#63b8ff" points="497.2,-164.53 489.93,-156.82 490.81,-167.38 497.2,-164.53"/>
</a>
</g>
</g>
<!-- Node22 -->
<g id="Node000022" class="node">
<title>Node22</title>
<g id="a_Node000022"><a xlink:title=" ">
<polygon fill="#e0e0e0" stroke="#999999" points="575.5,-156.5 534.5,-156.5 534.5,-137.5 575.5,-137.5 575.5,-156.5"/>
<text text-anchor="middle" x="555" y="-144.5" font-family="Helvetica,sans-Serif" font-size="10.00">tuple</text>
</a>
</g>
</g>
<!-- Node21&#45;&gt;Node22 -->
<g id="edge24_Node000021_Node000022" class="edge">
<title>Node21&#45;&gt;Node22</title>
<g id="a_edge24_Node000021_Node000022"><a xlink:title=" ">
<path fill="none" stroke="#63b8ff" d="M527.79,-197.77C533.32,-187.66 540,-175.44 545.35,-165.64"/>
<polygon fill="#63b8ff" stroke="#63b8ff" points="548.45,-167.27 550.18,-156.82 542.31,-163.91 548.45,-167.27"/>
</a>
</g>
</g>
<!-- Node25&#45;&gt;Node24 -->
<g id="edge29_Node000025_Node000024" class="edge">
<title>Node25&#45;&gt;Node24</title>
<g id="a_edge29_Node000025_Node000024"><a xlink:title=" ">
<path fill="none" stroke="#63b8ff" d="M977.31,-428.66C996.21,-406.03 1032.56,-360.07 1055,-316 1071.39,-283.81 1071.7,-273.9 1081,-239 1087.59,-214.26 1092.94,-185.15 1096.05,-166.64"/>
<polygon fill="#63b8ff" stroke="#63b8ff" points="1099.52,-167.05 1097.68,-156.62 1092.62,-165.92 1099.52,-167.05"/>
</a>
</g>
</g>
<!-- Node26&#45;&gt;Node9 -->
<g id="edge39_Node000026_Node000009" class="edge">
<title>Node26&#45;&gt;Node9</title>
<g id="a_edge39_Node000026_Node000009"><a xlink:title=" ">
<path fill="none" stroke="#63b8ff" d="M967.21,-280.44C971.26,-259.38 981.89,-219.81 1007,-198 1052.26,-158.68 1100.7,-209.72 1137,-162 1145.07,-151.39 1145.16,-142.55 1137,-132 1091.22,-72.79 874.12,-38.16 760.58,-23.82"/>
<polygon fill="#63b8ff" stroke="#63b8ff" points="760.94,-20.34 750.59,-22.57 760.08,-27.28 760.94,-20.34"/>
</a>
</g>
</g>
<!-- Node26&#45;&gt;Node17 -->
<g id="edge41_Node000026_Node000017" class="edge">
<title>Node26&#45;&gt;Node17</title>
<g id="a_edge41_Node000026_Node000017"><a xlink:title=" ">
<path fill="none" stroke="#63b8ff" d="M921.38,-280.48C886.8,-269.33 837.27,-253.29 794,-239 739.68,-221.06 726.93,-213.97 672,-198 607.83,-179.34 590.06,-181.06 526,-162 523.59,-161.28 521.12,-160.51 518.63,-159.71"/>
<polygon fill="#63b8ff" stroke="#63b8ff" points="519.74,-156.39 509.14,-156.52 517.51,-163.02 519.74,-156.39"/>
</a>
</g>
</g>
<!-- Node27 -->
<g id="Node000027" class="node">
<title>Node27</title>
<g id="a_Node000027"><a xlink:href="exception_8hpp.html" target="_top" xlink:title=" ">
<polygon fill="white" stroke="#666666" points="921.5,-233.5 802.5,-233.5 802.5,-203.5 921.5,-203.5 921.5,-233.5"/>
<text text-anchor="start" x="810.5" y="-221.5" font-family="Helvetica,sans-Serif" font-size="10.00">packages/exceptions</text>
<text text-anchor="middle" x="862" y="-210.5" font-family="Helvetica,sans-Serif" font-size="10.00">/inc/exception.hpp</text>
</a>
</g>
</g>
<!-- Node26&#45;&gt;Node27 -->
<g id="edge32_Node000026_Node000027" class="edge">
<title>Node26&#45;&gt;Node27</title>
<g id="a_edge32_Node000026_Node000027"><a xlink:title=" ">
<path fill="none" stroke="#63b8ff" d="M945.63,-280.39C929.8,-268.87 907.24,-252.44 889.54,-239.55"/>
<polygon fill="#63b8ff" stroke="#63b8ff" points="891.43,-236.6 881.29,-233.54 887.31,-242.26 891.43,-236.6"/>
</a>
</g>
</g>
<!-- Node31 -->
<g id="Node000031" class="node">
<title>Node31</title>
<g id="a_Node000031"><a xlink:title=" ">
<polygon fill="#e0e0e0" stroke="#999999" points="1072,-228 1016,-228 1016,-209 1072,-209 1072,-228"/>
<text text-anchor="middle" x="1044" y="-216" font-family="Helvetica,sans-Serif" font-size="10.00">sstream</text>
</a>
</g>
</g>
<!-- Node26&#45;&gt;Node31 -->
<g id="edge40_Node000026_Node000031" class="edge">
<title>Node26&#45;&gt;Node31</title>
<g id="a_edge40_Node000026_Node000031"><a xlink:title=" ">
<path fill="none" stroke="#63b8ff" d="M979.86,-280.39C993.31,-267.62 1013.11,-248.83 1027.14,-235.5"/>
<polygon fill="#63b8ff" stroke="#63b8ff" points="1029.81,-237.8 1034.65,-228.37 1024.99,-232.72 1029.81,-237.8"/>
</a>
</g>
</g>
<!-- Node27&#45;&gt;Node7 -->
<g id="edge33_Node000027_Node000007" class="edge">
<title>Node27&#45;&gt;Node7</title>
<g id="a_edge33_Node000027_Node000007"><a xlink:title=" ">
<path fill="none" stroke="#63b8ff" d="M802.18,-209.73C721.5,-199.19 573.34,-179.66 447,-162 437.05,-160.61 426.53,-159.11 416.25,-157.62"/>
<polygon fill="#63b8ff" stroke="#63b8ff" points="416.46,-154.12 406.06,-156.14 415.46,-161.04 416.46,-154.12"/>
</a>
</g>
</g>
<!-- Node27&#45;&gt;Node12 -->
<g id="edge35_Node000027_Node000012" class="edge">
<title>Node27&#45;&gt;Node12</title>
<g id="a_edge35_Node000027_Node000012"><a xlink:title=" ">
<path fill="none" stroke="#63b8ff" d="M807.63,-203.43C785.92,-195.01 762.84,-181.93 749,-162 736.53,-144.04 736.32,-118.1 738.05,-100.67"/>
<polygon fill="#63b8ff" stroke="#63b8ff" points="741.53,-100.98 739.34,-90.62 734.59,-100.09 741.53,-100.98"/>
</a>
</g>
</g>
<!-- Node27&#45;&gt;Node24 -->
<g id="edge37_Node000027_Node000024" class="edge">
<title>Node27&#45;&gt;Node24</title>
<g id="a_edge37_Node000027_Node000024"><a xlink:title=" ">
<path fill="none" stroke="#63b8ff" d="M914.37,-203.41C963.67,-190.05 1033.87,-170.77 1061,-162 1062.91,-161.38 1064.86,-160.73 1066.83,-160.06"/>
<polygon fill="#63b8ff" stroke="#63b8ff" points="1068.34,-163.23 1076.6,-156.59 1066.01,-156.64 1068.34,-163.23"/>
</a>
</g>
</g>
<!-- Node28 -->
<g id="Node000028" class="node">
<title>Node28</title>
<g id="a_Node000028"><a xlink:title=" ">
<polygon fill="#e0e0e0" stroke="#999999" points="822.5,-156.5 757.5,-156.5 757.5,-137.5 822.5,-137.5 822.5,-156.5"/>
<text text-anchor="middle" x="790" y="-144.5" font-family="Helvetica,sans-Serif" font-size="10.00">stdexcept</text>
</a>
</g>
</g>
<!-- Node27&#45;&gt;Node28 -->
<g id="edge34_Node000027_Node000028" class="edge">
<title>Node27&#45;&gt;Node28</title>
<g id="a_edge34_Node000027_Node000028"><a xlink:title=" ">
<path fill="none" stroke="#63b8ff" d="M847.43,-203.44C835.56,-191.98 818.82,-175.82 806.47,-163.9"/>
<polygon fill="#63b8ff" stroke="#63b8ff" points="808.71,-161.19 799.08,-156.77 803.85,-166.23 808.71,-161.19"/>
</a>
</g>
</g>
<!-- Node29 -->
<g id="Node000029" class="node">
<title>Node29</title>
<g id="a_Node000029"><a xlink:title=" ">
<polygon fill="#e0e0e0" stroke="#999999" points="887.5,-156.5 840.5,-156.5 840.5,-137.5 887.5,-137.5 887.5,-156.5"/>
<text text-anchor="middle" x="864" y="-144.5" font-family="Helvetica,sans-Serif" font-size="10.00">deque</text>
</a>
</g>
</g>
<!-- Node27&#45;&gt;Node29 -->
<g id="edge36_Node000027_Node000029" class="edge">
<title>Node27&#45;&gt;Node29</title>
<g id="a_edge36_Node000027_Node000029"><a xlink:title=" ">
<path fill="none" stroke="#63b8ff" d="M862.4,-203.44C862.71,-192.96 863.12,-178.55 863.45,-167.05"/>
<polygon fill="#63b8ff" stroke="#63b8ff" points="866.96,-166.86 863.75,-156.77 859.96,-166.66 866.96,-166.86"/>
</a>
</g>
</g>
<!-- Node30 -->
<g id="Node000030" class="node">
<title>Node30</title>
<g id="a_Node000030"><a xlink:title=" ">
<polygon fill="#e0e0e0" stroke="#999999" points="1052,-162 906,-162 906,-132 1052,-132 1052,-162"/>
<text text-anchor="start" x="914" y="-150" font-family="Helvetica,sans-Serif" font-size="10.00">packages/exceptions</text>
<text text-anchor="middle" x="979" y="-139" font-family="Helvetica,sans-Serif" font-size="10.00">/impl/exceptions_impl.hpp</text>
</a>
</g>
</g>
<!-- Node27&#45;&gt;Node30 -->
<g id="edge38_Node000027_Node000030" class="edge">
<title>Node27&#45;&gt;Node30</title>
<g id="a_edge38_Node000027_Node000030"><a xlink:title=" ">
<path fill="none" stroke="#63b8ff" d="M885.68,-203.44C903.2,-193.03 927.28,-178.72 946.59,-167.25"/>
<polygon fill="#63b8ff" stroke="#63b8ff" points="948.55,-170.16 955.36,-162.04 944.97,-164.14 948.55,-170.16"/>
</a>
</g>
</g>
<!-- Node32&#45;&gt;Node4 -->
<g id="edge49_Node000032_Node000004" class="edge">
<title>Node32&#45;&gt;Node4</title>
<g id="a_edge49_Node000032_Node000004"><a xlink:title=" ">
<path fill="none" stroke="#63b8ff" d="M515.69,-428.94C486.79,-419.55 448.14,-407 414.93,-396.21"/>
<polygon fill="#63b8ff" stroke="#63b8ff" points="415.86,-392.83 405.27,-393.07 413.7,-399.49 415.86,-392.83"/>
</a>
</g>
</g>
<!-- Node32&#45;&gt;Node7 -->
<g id="edge50_Node000032_Node000007" class="edge">
<title>Node32&#45;&gt;Node7</title>
<g id="a_edge50_Node000032_Node000007"><a xlink:title=" ">
<path fill="none" stroke="#63b8ff" d="M538.39,-428.68C511.83,-410.37 464.04,-377.93 422,-352 349.75,-307.43 303.72,-316.01 268,-239 260.33,-222.47 259.04,-213.86 268,-198 275.53,-184.67 288.2,-174.5 301.39,-166.93"/>
<polygon fill="#63b8ff" stroke="#63b8ff" points="303.35,-169.85 310.56,-162.09 300.08,-163.66 303.35,-169.85"/>
</a>
</g>
</g>
<!-- Node33 -->
<g id="Node000033" class="node">
<title>Node33</title>
<g id="a_Node000033"><a xlink:href="checks_8hpp.html" target="_top" xlink:title=" ">
<polygon fill="white" stroke="#666666" points="848.5,-387.5 729.5,-387.5 729.5,-357.5 848.5,-357.5 848.5,-387.5"/>
<text text-anchor="start" x="737.5" y="-375.5" font-family="Helvetica,sans-Serif" font-size="10.00">packages/macros/inc</text>
<text text-anchor="middle" x="789" y="-364.5" font-family="Helvetica,sans-Serif" font-size="10.00">/checks.hpp</text>
</a>
</g>
</g>
<!-- Node32&#45;&gt;Node33 -->
<g id="edge43_Node000032_Node000033" class="edge">
<title>Node32&#45;&gt;Node33</title>
<g id="a_edge43_Node000032_Node000033"><a xlink:title=" ">
<path fill="none" stroke="#63b8ff" d="M605.54,-428.94C642.33,-417.82 693.81,-402.26 732.88,-390.46"/>
<polygon fill="#63b8ff" stroke="#63b8ff" points="733.97,-393.79 742.53,-387.54 731.94,-387.09 733.97,-393.79"/>
</a>
</g>
</g>
<!-- Node35 -->
<g id="Node000035" class="node">
<title>Node35</title>
<g id="a_Node000035"><a xlink:title=" ">
<polygon fill="#e0e0e0" stroke="#999999" points="585,-382 533,-382 533,-363 585,-363 585,-382"/>
<text text-anchor="middle" x="559" y="-370" font-family="Helvetica,sans-Serif" font-size="10.00">cassert</text>
</a>
</g>
</g>
<!-- Node32&#45;&gt;Node35 -->
<g id="edge51_Node000032_Node000035" class="edge">
<title>Node32&#45;&gt;Node35</title>
<g id="a_edge51_Node000032_Node000035"><a xlink:title=" ">
<path fill="none" stroke="#63b8ff" d="M559,-428.94C559,-418.46 559,-404.05 559,-392.55"/>
<polygon fill="#63b8ff" stroke="#63b8ff" points="562.5,-392.27 559,-382.27 555.5,-392.27 562.5,-392.27"/>
</a>
</g>
</g>
<!-- Node33&#45;&gt;Node9 -->
<g id="edge46_Node000033_Node000009" class="edge">
<title>Node33&#45;&gt;Node9</title>
<g id="a_edge46_Node000033_Node000009"><a xlink:title=" ">
<path fill="none" stroke="#63b8ff" d="M762.55,-357.4C747.41,-347.84 729.56,-333.72 720,-316 670.58,-224.43 680.44,-94.1 687.3,-40.48"/>
<polygon fill="#63b8ff" stroke="#63b8ff" points="690.82,-40.63 688.7,-30.25 683.88,-39.68 690.82,-40.63"/>
</a>
</g>
</g>
<!-- Node33&#45;&gt;Node26 -->
<g id="edge45_Node000033_Node000026" class="edge">
<title>Node33&#45;&gt;Node26</title>
<g id="a_edge45_Node000033_Node000026"><a xlink:title=" ">
<path fill="none" stroke="#63b8ff" d="M822.1,-357.39C850.62,-345.24 891.94,-327.63 922.82,-314.47"/>
<polygon fill="#63b8ff" stroke="#63b8ff" points="924.22,-317.68 932.04,-310.54 921.47,-311.24 924.22,-317.68"/>
</a>
</g>
</g>
<!-- Node33&#45;&gt;Node27 -->
<g id="edge44_Node000033_Node000027" class="edge">
<title>Node33&#45;&gt;Node27</title>
<g id="a_edge44_Node000033_Node000027"><a xlink:title=" ">
<path fill="none" stroke="#63b8ff" d="M816.15,-357.37C831.34,-347.87 848.99,-333.84 858,-316 869.34,-293.54 868.76,-264.26 866.34,-243.87"/>
<polygon fill="#63b8ff" stroke="#63b8ff" points="869.78,-243.24 864.91,-233.83 862.85,-244.22 869.78,-243.24"/>
</a>
</g>
</g>
<!-- Node33&#45;&gt;Node31 -->
<g id="edge48_Node000033_Node000031" class="edge">
<title>Node33&#45;&gt;Node31</title>
<g id="a_edge48_Node000033_Node000031"><a xlink:title=" ">
<path fill="none" stroke="#63b8ff" d="M848.77,-365.88C913.23,-358.51 1009.87,-343.2 1034,-316 1052.85,-294.76 1051.2,-259.63 1047.89,-238.13"/>
<polygon fill="#63b8ff" stroke="#63b8ff" points="1051.33,-237.49 1046.1,-228.27 1044.44,-238.74 1051.33,-237.49"/>
</a>
</g>
</g>
<!-- Node34 -->
<g id="Node000034" class="node">
<title>Node34</title>
<g id="a_Node000034"><a xlink:title=" ">
<polygon fill="#e0e0e0" stroke="#999999" points="849,-305 729,-305 729,-286 849,-286 849,-305"/>
<text text-anchor="middle" x="789" y="-293" font-family="Helvetica,sans-Serif" font-size="10.00">cmake_variables.hpp</text>
</a>
</g>
</g>
<!-- Node33&#45;&gt;Node34 -->
<g id="edge47_Node000033_Node000034" class="edge">
<title>Node33&#45;&gt;Node34</title>
<g id="a_edge47_Node000033_Node000034"><a xlink:title=" ">
<path fill="none" stroke="#63b8ff" d="M789,-357.39C789,-345.58 789,-328.6 789,-315.58"/>
<polygon fill="#63b8ff" stroke="#63b8ff" points="792.5,-315.37 789,-305.37 785.5,-315.37 792.5,-315.37"/>
</a>
</g>
</g>
</g>
</svg>
