<?xml version="1.0" encoding="UTF-8" standalone="no"?>
<!DOCTYPE svg PUBLIC "-//W3C//DTD SVG 1.1//EN"
 "http://www.w3.org/Graphics/SVG/1.1/DTD/svg11.dtd">
<!-- Generated by graphviz version 2.43.0 (0)
 -->
<!-- Title: warning.hpp Pages: 1 -->
<svg width="1369pt" height="720pt"
 viewBox="0.00 0.00 1368.97 720.00" xmlns="http://www.w3.org/2000/svg" xmlns:xlink="http://www.w3.org/1999/xlink">
<g id="graph0" class="graph" transform="scale(1 1) rotate(0) translate(4 716)">
<title>warning.hpp</title>
<!-- Node1 -->
<g id="Node000001" class="node">
<title>Node1</title>
<g id="a_Node000001"><a xlink:title=" ">
<polygon fill="#999999" stroke="#666666" points="1039.47,-712 962.47,-712 962.47,-693 1039.47,-693 1039.47,-712"/>
<text text-anchor="middle" x="1000.97" y="-700" font-family="Helvetica,sans-Serif" font-size="10.00">warning.hpp</text>
</a>
</g>
</g>
<!-- Node2 -->
<g id="Node000002" class="node">
<title>Node2</title>
<g id="a_Node000002"><a xlink:href="LoggerSingleton_8hpp.html" target="_top" xlink:title=" ">
<polygon fill="white" stroke="#666666" points="1060.47,-657 941.47,-657 941.47,-627 1060.47,-627 1060.47,-657"/>
<text text-anchor="start" x="949.47" y="-645" font-family="Helvetica,sans-Serif" font-size="10.00">packages/logging/inc</text>
<text text-anchor="middle" x="1000.97" y="-634" font-family="Helvetica,sans-Serif" font-size="10.00">/LoggerSingleton.hpp</text>
</a>
</g>
</g>
<!-- Node1&#45;&gt;Node2 -->
<g id="edge1_Node000001_Node000002" class="edge">
<title>Node1&#45;&gt;Node2</title>
<g id="a_edge1_Node000001_Node000002"><a xlink:title=" ">
<path fill="none" stroke="#63b8ff" d="M1000.97,-692.87C1000.97,-686.11 1000.97,-676.35 1000.97,-667.26"/>
<polygon fill="#63b8ff" stroke="#63b8ff" points="1004.47,-667.11 1000.97,-657.11 997.47,-667.11 1004.47,-667.11"/>
</a>
</g>
</g>
<!-- Node3 -->
<g id="Node000003" class="node">
<title>Node3</title>
<g id="a_Node000003"><a xlink:href="Logger_8hpp.html" target="_top" xlink:title=" ">
<polygon fill="white" stroke="#666666" points="876.47,-591 757.47,-591 757.47,-561 876.47,-561 876.47,-591"/>
<text text-anchor="start" x="765.47" y="-579" font-family="Helvetica,sans-Serif" font-size="10.00">packages/logging/inc</text>
<text text-anchor="middle" x="816.97" y="-568" font-family="Helvetica,sans-Serif" font-size="10.00">/Logger.hpp</text>
</a>
</g>
</g>
<!-- Node2&#45;&gt;Node3 -->
<g id="edge2_Node000002_Node000003" class="edge">
<title>Node2&#45;&gt;Node3</title>
<g id="a_edge2_Node000002_Node000003"><a xlink:title=" ">
<path fill="none" stroke="#63b8ff" d="M960.59,-626.95C933.03,-617.37 896.33,-604.6 866.93,-594.37"/>
<polygon fill="#63b8ff" stroke="#63b8ff" points="867.85,-590.99 857.26,-591.01 865.56,-597.6 867.85,-590.99"/>
</a>
</g>
</g>
<!-- Node41 -->
<g id="Node000041" class="node">
<title>Node41</title>
<g id="a_Node000041"><a xlink:title=" ">
<polygon fill="#e0e0e0" stroke="#999999" points="1180.97,-453.5 1112.97,-453.5 1112.97,-434.5 1180.97,-434.5 1180.97,-453.5"/>
<text text-anchor="middle" x="1146.97" y="-441.5" font-family="Helvetica,sans-Serif" font-size="10.00">filesystem</text>
</a>
</g>
</g>
<!-- Node2&#45;&gt;Node41 -->
<g id="edge66_Node000002_Node000041" class="edge">
<title>Node2&#45;&gt;Node41</title>
<g id="a_edge66_Node000002_Node000041"><a xlink:title=" ">
<path fill="none" stroke="#63b8ff" d="M1032.59,-626.94C1068.4,-609.07 1124.9,-574.46 1148.97,-525 1158.35,-505.74 1155.71,-480.65 1152.12,-463.75"/>
<polygon fill="#63b8ff" stroke="#63b8ff" points="1155.5,-462.86 1149.74,-453.96 1148.7,-464.51 1155.5,-462.86"/>
</a>
</g>
</g>
<!-- Node4 -->
<g id="Node000004" class="node">
<title>Node4</title>
<g id="a_Node000004"><a xlink:href="FileOutputStream_8hpp.html" target="_top" xlink:title=" ">
<polygon fill="white" stroke="#666666" points="770.97,-525 644.97,-525 644.97,-495 770.97,-495 770.97,-525"/>
<text text-anchor="start" x="652.97" y="-513" font-family="Helvetica,sans-Serif" font-size="10.00">packages/logging/inc</text>
<text text-anchor="middle" x="707.97" y="-502" font-family="Helvetica,sans-Serif" font-size="10.00">/FileOutputStream.hpp</text>
</a>
</g>
</g>
<!-- Node3&#45;&gt;Node4 -->
<g id="edge3_Node000003_Node000004" class="edge">
<title>Node3&#45;&gt;Node4</title>
<g id="a_edge3_Node000003_Node000004"><a xlink:title=" ">
<path fill="none" stroke="#63b8ff" d="M793.05,-560.95C777.72,-551.95 757.61,-540.14 740.79,-530.27"/>
<polygon fill="#63b8ff" stroke="#63b8ff" points="742.23,-527.06 731.84,-525.01 738.69,-533.09 742.23,-527.06"/>
</a>
</g>
</g>
<!-- Node7 -->
<g id="Node000007" class="node">
<title>Node7</title>
<g id="a_Node000007"><a xlink:title=" ">
<polygon fill="#e0e0e0" stroke="#999999" points="712.97,-156.5 654.97,-156.5 654.97,-137.5 712.97,-137.5 712.97,-156.5"/>
<text text-anchor="middle" x="683.97" y="-144.5" font-family="Helvetica,sans-Serif" font-size="10.00">memory</text>
</a>
</g>
</g>
<!-- Node3&#45;&gt;Node7 -->
<g id="edge60_Node000003_Node000007" class="edge">
<title>Node3&#45;&gt;Node7</title>
<g id="a_edge60_Node000003_Node000007"><a xlink:title=" ">
<path fill="none" stroke="#63b8ff" d="M757.23,-573.52C713.68,-569.52 655.61,-557.76 615.97,-525 585.78,-500.04 578.97,-484.17 578.97,-445 578.97,-445 578.97,-445 578.97,-294.5 578.97,-237.25 632.6,-187.01 663.2,-163"/>
<polygon fill="#63b8ff" stroke="#63b8ff" points="665.68,-165.51 671.52,-156.67 661.44,-159.94 665.68,-165.51"/>
</a>
</g>
</g>
<!-- Node15 -->
<g id="Node000015" class="node">
<title>Node15</title>
<g id="a_Node000015"><a xlink:title=" ">
<polygon fill="#e0e0e0" stroke="#999999" points="126.97,-90.5 82.97,-90.5 82.97,-71.5 126.97,-71.5 126.97,-90.5"/>
<text text-anchor="middle" x="104.97" y="-78.5" font-family="Helvetica,sans-Serif" font-size="10.00">string</text>
</a>
</g>
</g>
<!-- Node3&#45;&gt;Node15 -->
<g id="edge61_Node000003_Node000015" class="edge">
<title>Node3&#45;&gt;Node15</title>
<g id="a_edge61_Node000003_Node000015"><a xlink:title=" ">
<path fill="none" stroke="#63b8ff" d="M757.04,-572.4C623.77,-566.24 306.41,-549.45 201.97,-525 108.36,-503.08 0.97,-541.15 0.97,-445 0.97,-445 0.97,-445 0.97,-217.5 0.97,-178.57 -2.92,-163.48 19.97,-132 33.12,-113.93 54.96,-101.28 73.21,-93.23"/>
<polygon fill="#63b8ff" stroke="#63b8ff" points="74.73,-96.39 82.63,-89.33 72.05,-89.92 74.73,-96.39"/>
</a>
</g>
</g>
<!-- Node24 -->
<g id="Node000024" class="node">
<title>Node24</title>
<g id="a_Node000024"><a xlink:title=" ">
<polygon fill="#e0e0e0" stroke="#999999" points="654.97,-305 606.97,-305 606.97,-286 654.97,-286 654.97,-305"/>
<text text-anchor="middle" x="630.97" y="-293" font-family="Helvetica,sans-Serif" font-size="10.00">iosfwd</text>
</a>
</g>
</g>
<!-- Node3&#45;&gt;Node24 -->
<g id="edge58_Node000003_Node000024" class="edge">
<title>Node3&#45;&gt;Node24</title>
<g id="a_edge58_Node000003_Node000024"><a xlink:title=" ">
<path fill="none" stroke="#63b8ff" d="M757.3,-566.3C710.56,-558.14 651,-544.29 635.97,-525 586.97,-462.06 611.85,-357.06 624.79,-314.87"/>
<polygon fill="#63b8ff" stroke="#63b8ff" points="628.19,-315.73 627.91,-305.14 621.52,-313.6 628.19,-315.73"/>
</a>
</g>
</g>
<!-- Node34 -->
<g id="Node000034" class="node">
<title>Node34</title>
<g id="a_Node000034"><a xlink:title=" ">
<polygon fill="#e0e0e0" stroke="#999999" points="76.47,-156.5 29.47,-156.5 29.47,-137.5 76.47,-137.5 76.47,-156.5"/>
<text text-anchor="middle" x="52.97" y="-144.5" font-family="Helvetica,sans-Serif" font-size="10.00">deque</text>
</a>
</g>
</g>
<!-- Node3&#45;&gt;Node34 -->
<g id="edge59_Node000003_Node000034" class="edge">
<title>Node3&#45;&gt;Node34</title>
<g id="a_edge59_Node000003_Node000034"><a xlink:title=" ">
<path fill="none" stroke="#63b8ff" d="M757.24,-570.43C585.4,-556.5 101.97,-511.4 101.97,-445 101.97,-445 101.97,-445 101.97,-294.5 101.97,-245.75 77.27,-192.37 62.94,-165.51"/>
<polygon fill="#63b8ff" stroke="#63b8ff" points="65.92,-163.66 58.03,-156.58 59.78,-167.03 65.92,-163.66"/>
</a>
</g>
</g>
<!-- Node3&#45;&gt;Node41 -->
<g id="edge64_Node000003_Node000041" class="edge">
<title>Node3&#45;&gt;Node41</title>
<g id="a_edge64_Node000003_Node000041"><a xlink:title=" ">
<path fill="none" stroke="#63b8ff" d="M876.74,-573.1C956.65,-569.29 1092.41,-558.03 1127.97,-525 1144.69,-509.47 1147.94,-482.15 1148.02,-463.81"/>
<polygon fill="#63b8ff" stroke="#63b8ff" points="1151.52,-463.65 1147.76,-453.74 1144.52,-463.83 1151.52,-463.65"/>
</a>
</g>
</g>
<!-- Node42 -->
<g id="Node000042" class="node">
<title>Node42</title>
<g id="a_Node000042"><a xlink:title=" ">
<polygon fill="#e0e0e0" stroke="#999999" points="844.47,-519.5 789.47,-519.5 789.47,-500.5 844.47,-500.5 844.47,-519.5"/>
<text text-anchor="middle" x="816.97" y="-507.5" font-family="Helvetica,sans-Serif" font-size="10.00">fstream</text>
</a>
</g>
</g>
<!-- Node3&#45;&gt;Node42 -->
<g id="edge57_Node000003_Node000042" class="edge">
<title>Node3&#45;&gt;Node42</title>
<g id="a_edge57_Node000003_Node000042"><a xlink:title=" ">
<path fill="none" stroke="#63b8ff" d="M816.97,-560.8C816.97,-551.7 816.97,-539.79 816.97,-529.9"/>
<polygon fill="#63b8ff" stroke="#63b8ff" points="820.47,-529.84 816.97,-519.84 813.47,-529.84 820.47,-529.84"/>
</a>
</g>
</g>
<!-- Node43 -->
<g id="Node000043" class="node">
<title>Node43</title>
<g id="a_Node000043"><a xlink:title=" ">
<polygon fill="#e0e0e0" stroke="#999999" points="912.97,-519.5 862.97,-519.5 862.97,-500.5 912.97,-500.5 912.97,-519.5"/>
<text text-anchor="middle" x="887.97" y="-507.5" font-family="Helvetica,sans-Serif" font-size="10.00">chrono</text>
</a>
</g>
</g>
<!-- Node3&#45;&gt;Node43 -->
<g id="edge62_Node000003_Node000043" class="edge">
<title>Node3&#45;&gt;Node43</title>
<g id="a_edge62_Node000003_Node000043"><a xlink:title=" ">
<path fill="none" stroke="#63b8ff" d="M832.73,-560.8C843.91,-550.72 858.92,-537.19 870.47,-526.78"/>
<polygon fill="#63b8ff" stroke="#63b8ff" points="873.08,-529.14 878.16,-519.84 868.39,-523.94 873.08,-529.14"/>
</a>
</g>
</g>
<!-- Node44 -->
<g id="Node000044" class="node">
<title>Node44</title>
<g id="a_Node000044"><a xlink:title=" ">
<polygon fill="#e0e0e0" stroke="#999999" points="974.97,-519.5 930.97,-519.5 930.97,-500.5 974.97,-500.5 974.97,-519.5"/>
<text text-anchor="middle" x="952.97" y="-507.5" font-family="Helvetica,sans-Serif" font-size="10.00">ctime</text>
</a>
</g>
</g>
<!-- Node3&#45;&gt;Node44 -->
<g id="edge63_Node000003_Node000044" class="edge">
<title>Node3&#45;&gt;Node44</title>
<g id="a_edge63_Node000003_Node000044"><a xlink:title=" ">
<path fill="none" stroke="#63b8ff" d="M846.82,-560.95C870.36,-549.88 902.91,-534.56 925.74,-523.82"/>
<polygon fill="#63b8ff" stroke="#63b8ff" points="927.32,-526.94 934.88,-519.52 924.34,-520.61 927.32,-526.94"/>
</a>
</g>
</g>
<!-- Node45 -->
<g id="Node000045" class="node">
<title>Node45</title>
<g id="a_Node000045"><a xlink:title=" ">
<polygon fill="#e0e0e0" stroke="#999999" points="1118.97,-525 992.97,-525 992.97,-495 1118.97,-495 1118.97,-525"/>
<text text-anchor="start" x="1000.97" y="-513" font-family="Helvetica,sans-Serif" font-size="10.00">packages/logging/impl</text>
<text text-anchor="middle" x="1055.97" y="-502" font-family="Helvetica,sans-Serif" font-size="10.00">/Logger_impl.hpp</text>
</a>
</g>
</g>
<!-- Node3&#45;&gt;Node45 -->
<g id="edge65_Node000003_Node000045" class="edge">
<title>Node3&#45;&gt;Node45</title>
<g id="a_edge65_Node000003_Node000045"><a xlink:title=" ">
<path fill="none" stroke="#63b8ff" d="M869.42,-560.95C906,-551.16 954.98,-538.05 993.57,-527.71"/>
<polygon fill="#63b8ff" stroke="#63b8ff" points="994.89,-530.98 1003.65,-525.01 993.08,-524.22 994.89,-530.98"/>
</a>
</g>
</g>
<!-- Node5 -->
<g id="Node000005" class="node">
<title>Node5</title>
<g id="a_Node000005"><a xlink:href="OutputStream_8hpp.html" target="_top" xlink:title=" ">
<polygon fill="white" stroke="#666666" points="851.47,-459 732.47,-459 732.47,-429 851.47,-429 851.47,-459"/>
<text text-anchor="start" x="740.47" y="-447" font-family="Helvetica,sans-Serif" font-size="10.00">packages/logging/inc</text>
<text text-anchor="middle" x="791.97" y="-436" font-family="Helvetica,sans-Serif" font-size="10.00">/OutputStream.hpp</text>
</a>
</g>
</g>
<!-- Node4&#45;&gt;Node5 -->
<g id="edge4_Node000004_Node000005" class="edge">
<title>Node4&#45;&gt;Node5</title>
<g id="a_edge4_Node000004_Node000005"><a xlink:title=" ">
<path fill="none" stroke="#63b8ff" d="M726.62,-494.8C737.93,-486.18 752.55,-475.04 765.1,-465.48"/>
<polygon fill="#63b8ff" stroke="#63b8ff" points="767.55,-468.01 773.38,-459.16 763.31,-462.44 767.55,-468.01"/>
</a>
</g>
</g>
<!-- Node4&#45;&gt;Node41 -->
<g id="edge56_Node000004_Node000041" class="edge">
<title>Node4&#45;&gt;Node41</title>
<g id="a_edge56_Node000004_Node000041"><a xlink:title=" ">
<path fill="none" stroke="#63b8ff" d="M771.15,-496.51C774.13,-495.98 777.08,-495.48 779.97,-495 895.99,-475.83 1033.52,-458.54 1102.63,-450.22"/>
<polygon fill="#63b8ff" stroke="#63b8ff" points="1103.21,-453.67 1112.72,-449.01 1102.38,-446.72 1103.21,-453.67"/>
</a>
</g>
</g>
<!-- Node6 -->
<g id="Node000006" class="node">
<title>Node6</title>
<g id="a_Node000006"><a xlink:href="typedefs_8hpp.html" target="_top" xlink:title=" ">
<polygon fill="white" stroke="#666666" points="886.47,-310.5 767.47,-310.5 767.47,-280.5 886.47,-280.5 886.47,-310.5"/>
<text text-anchor="start" x="775.47" y="-298.5" font-family="Helvetica,sans-Serif" font-size="10.00">packages/macros/inc</text>
<text text-anchor="middle" x="826.97" y="-287.5" font-family="Helvetica,sans-Serif" font-size="10.00">/typedefs.hpp</text>
</a>
</g>
</g>
<!-- Node5&#45;&gt;Node6 -->
<g id="edge5_Node000005_Node000006" class="edge">
<title>Node5&#45;&gt;Node6</title>
<g id="a_edge5_Node000005_Node000006"><a xlink:title=" ">
<path fill="none" stroke="#63b8ff" d="M851.64,-443.39C940.86,-442.56 1102.51,-435.09 1138.97,-393 1150.91,-379.23 1150.68,-365.97 1138.97,-352 1131.19,-342.71 986.3,-319.91 896.74,-306.61"/>
<polygon fill="#63b8ff" stroke="#63b8ff" points="897.05,-303.11 886.64,-305.11 896.02,-310.04 897.05,-303.11"/>
</a>
</g>
</g>
<!-- Node5&#45;&gt;Node7 -->
<g id="edge54_Node000005_Node000007" class="edge">
<title>Node5&#45;&gt;Node7</title>
<g id="a_edge54_Node000005_Node000007"><a xlink:title=" ">
<path fill="none" stroke="#63b8ff" d="M732.25,-432.18C710.1,-424.95 687.18,-412.94 673.97,-393 661.63,-374.36 676.28,-221.32 681.93,-167.02"/>
<polygon fill="#63b8ff" stroke="#63b8ff" points="685.45,-167.06 683.02,-156.75 678.49,-166.33 685.45,-167.06"/>
</a>
</g>
</g>
<!-- Node8 -->
<g id="Node000008" class="node">
<title>Node8</title>
<g id="a_Node000008"><a xlink:href="streamable_8hpp.html" target="_top" xlink:title=" ">
<polygon fill="white" stroke="#666666" points="1129.97,-393 997.97,-393 997.97,-352 1129.97,-352 1129.97,-393"/>
<text text-anchor="start" x="1005.97" y="-381" font-family="Helvetica,sans-Serif" font-size="10.00">packages/compile_time</text>
<text text-anchor="start" x="1005.97" y="-370" font-family="Helvetica,sans-Serif" font-size="10.00">/packages/concepts/inc</text>
<text text-anchor="middle" x="1063.97" y="-359" font-family="Helvetica,sans-Serif" font-size="10.00">/streamable.hpp</text>
</a>
</g>
</g>
<!-- Node5&#45;&gt;Node8 -->
<g id="edge7_Node000005_Node000008" class="edge">
<title>Node5&#45;&gt;Node8</title>
<g id="a_edge7_Node000005_Node000008"><a xlink:title=" ">
<path fill="none" stroke="#63b8ff" d="M847.62,-428.97C884.77,-419.58 935,-406.85 987.83,-393.29"/>
<polygon fill="#63b8ff" stroke="#63b8ff" points="988.91,-396.62 997.73,-390.75 987.17,-389.84 988.91,-396.62"/>
</a>
</g>
</g>
<!-- Node25 -->
<g id="Node000025" class="node">
<title>Node25</title>
<g id="a_Node000025"><a xlink:href="container__concepts_8hpp.html" target="_top" xlink:title=" ">
<polygon fill="white" stroke="#666666" points="1321.47,-393 1186.47,-393 1186.47,-352 1321.47,-352 1321.47,-393"/>
<text text-anchor="start" x="1194.47" y="-381" font-family="Helvetica,sans-Serif" font-size="10.00">packages/compile_time</text>
<text text-anchor="start" x="1194.47" y="-370" font-family="Helvetica,sans-Serif" font-size="10.00">/packages/concepts/inc</text>
<text text-anchor="middle" x="1253.97" y="-359" font-family="Helvetica,sans-Serif" font-size="10.00">/container_concepts.hpp</text>
</a>
</g>
</g>
<!-- Node5&#45;&gt;Node25 -->
<g id="edge25_Node000005_Node000025" class="edge">
<title>Node5&#45;&gt;Node25</title>
<g id="a_edge25_Node000005_Node000025"><a xlink:title=" ">
<path fill="none" stroke="#63b8ff" d="M851.51,-437.08C926.57,-429.18 1059.42,-413.73 1171.97,-393 1173.27,-392.76 1174.58,-392.52 1175.89,-392.26"/>
<polygon fill="#63b8ff" stroke="#63b8ff" points="1176.96,-395.62 1186.08,-390.21 1175.58,-388.75 1176.96,-395.62"/>
</a>
</g>
</g>
<!-- Node31 -->
<g id="Node000031" class="node">
<title>Node31</title>
<g id="a_Node000031"><a xlink:href="checks_8hpp.html" target="_top" xlink:title=" ">
<polygon fill="white" stroke="#666666" points="443.47,-387.5 324.47,-387.5 324.47,-357.5 443.47,-357.5 443.47,-387.5"/>
<text text-anchor="start" x="332.47" y="-375.5" font-family="Helvetica,sans-Serif" font-size="10.00">packages/macros/inc</text>
<text text-anchor="middle" x="383.97" y="-364.5" font-family="Helvetica,sans-Serif" font-size="10.00">/checks.hpp</text>
</a>
</g>
</g>
<!-- Node5&#45;&gt;Node31 -->
<g id="edge36_Node000005_Node000031" class="edge">
<title>Node5&#45;&gt;Node31</title>
<g id="a_edge36_Node000005_Node000031"><a xlink:title=" ">
<path fill="none" stroke="#63b8ff" d="M732.21,-432.82C658.18,-420.21 532.25,-398.76 453.83,-385.4"/>
<polygon fill="#63b8ff" stroke="#63b8ff" points="454.01,-381.88 443.57,-383.65 452.84,-388.78 454.01,-381.88"/>
</a>
</g>
</g>
<!-- Node38 -->
<g id="Node000038" class="node">
<title>Node38</title>
<g id="a_Node000038"><a xlink:title=" ">
<polygon fill="#e0e0e0" stroke="#999999" points="740.47,-382 683.47,-382 683.47,-363 740.47,-363 740.47,-382"/>
<text text-anchor="middle" x="711.97" y="-370" font-family="Helvetica,sans-Serif" font-size="10.00">ostream</text>
</a>
</g>
</g>
<!-- Node5&#45;&gt;Node38 -->
<g id="edge52_Node000005_Node000038" class="edge">
<title>Node5&#45;&gt;Node38</title>
<g id="a_edge52_Node000005_Node000038"><a xlink:title=" ">
<path fill="none" stroke="#63b8ff" d="M775.79,-428.94C762.48,-417.37 743.64,-401.01 729.88,-389.06"/>
<polygon fill="#63b8ff" stroke="#63b8ff" points="731.91,-386.18 722.07,-382.27 727.32,-391.47 731.91,-386.18"/>
</a>
</g>
</g>
<!-- Node39 -->
<g id="Node000039" class="node">
<title>Node39</title>
<g id="a_Node000039"><a xlink:title=" ">
<polygon fill="#e0e0e0" stroke="#999999" points="825.47,-382 758.47,-382 758.47,-363 825.47,-363 825.47,-382"/>
<text text-anchor="middle" x="791.97" y="-370" font-family="Helvetica,sans-Serif" font-size="10.00">streambuf</text>
</a>
</g>
</g>
<!-- Node5&#45;&gt;Node39 -->
<g id="edge53_Node000005_Node000039" class="edge">
<title>Node5&#45;&gt;Node39</title>
<g id="a_edge53_Node000005_Node000039"><a xlink:title=" ">
<path fill="none" stroke="#63b8ff" d="M791.97,-428.94C791.97,-418.46 791.97,-404.05 791.97,-392.55"/>
<polygon fill="#63b8ff" stroke="#63b8ff" points="795.47,-392.27 791.97,-382.27 788.47,-392.27 795.47,-392.27"/>
</a>
</g>
</g>
<!-- Node40 -->
<g id="Node000040" class="node">
<title>Node40</title>
<g id="a_Node000040"><a xlink:title=" ">
<polygon fill="#e0e0e0" stroke="#999999" points="979.97,-387.5 843.97,-387.5 843.97,-357.5 979.97,-357.5 979.97,-387.5"/>
<text text-anchor="start" x="851.97" y="-375.5" font-family="Helvetica,sans-Serif" font-size="10.00">packages/logging/impl</text>
<text text-anchor="middle" x="911.97" y="-364.5" font-family="Helvetica,sans-Serif" font-size="10.00">/OutputStream_impl.hpp</text>
</a>
</g>
</g>
<!-- Node5&#45;&gt;Node40 -->
<g id="edge55_Node000005_Node000040" class="edge">
<title>Node5&#45;&gt;Node40</title>
<g id="a_edge55_Node000005_Node000040"><a xlink:title=" ">
<path fill="none" stroke="#63b8ff" d="M816.26,-428.94C834.31,-418.48 859.15,-404.09 879,-392.6"/>
<polygon fill="#63b8ff" stroke="#63b8ff" points="880.83,-395.58 887.73,-387.54 877.32,-389.53 880.83,-395.58"/>
</a>
</g>
</g>
<!-- Node6&#45;&gt;Node7 -->
<g id="edge6_Node000006_Node000007" class="edge">
<title>Node6&#45;&gt;Node7</title>
<g id="a_edge6_Node000006_Node000007"><a xlink:title=" ">
<path fill="none" stroke="#63b8ff" d="M813.71,-280.29C795.96,-261.35 763.42,-226.84 734.97,-198 723.57,-186.44 710.48,-173.62 700.42,-163.85"/>
<polygon fill="#63b8ff" stroke="#63b8ff" points="702.71,-161.2 693.09,-156.76 697.85,-166.23 702.71,-161.2"/>
</a>
</g>
</g>
<!-- Node9 -->
<g id="Node000009" class="node">
<title>Node9</title>
<g id="a_Node000009"><a xlink:href="basic__concepts_8hpp.html" target="_top" xlink:title=" ">
<polygon fill="white" stroke="#666666" points="956.97,-239 824.97,-239 824.97,-198 956.97,-198 956.97,-239"/>
<text text-anchor="start" x="832.97" y="-227" font-family="Helvetica,sans-Serif" font-size="10.00">packages/compile_time</text>
<text text-anchor="start" x="832.97" y="-216" font-family="Helvetica,sans-Serif" font-size="10.00">/packages/concepts/inc</text>
<text text-anchor="middle" x="890.97" y="-205" font-family="Helvetica,sans-Serif" font-size="10.00">/basic_concepts.hpp</text>
</a>
</g>
</g>
<!-- Node8&#45;&gt;Node9 -->
<g id="edge8_Node000008_Node000009" class="edge">
<title>Node8&#45;&gt;Node9</title>
<g id="a_edge8_Node000008_Node000009"><a xlink:title=" ">
<path fill="none" stroke="#63b8ff" d="M1034.24,-351.76C1019.58,-341.61 1001.89,-328.73 986.97,-316 961.42,-294.2 934.65,-266.86 915.89,-246.85"/>
<polygon fill="#63b8ff" stroke="#63b8ff" points="918.24,-244.24 908.86,-239.3 913.11,-249.01 918.24,-244.24"/>
</a>
</g>
</g>
<!-- Node23 -->
<g id="Node000023" class="node">
<title>Node23</title>
<g id="a_Node000023"><a xlink:title=" ">
<polygon fill="#e0e0e0" stroke="#999999" points="550.97,-228 494.97,-228 494.97,-209 550.97,-209 550.97,-228"/>
<text text-anchor="middle" x="522.97" y="-216" font-family="Helvetica,sans-Serif" font-size="10.00">sstream</text>
</a>
</g>
</g>
<!-- Node8&#45;&gt;Node23 -->
<g id="edge23_Node000008_Node000023" class="edge">
<title>Node8&#45;&gt;Node23</title>
<g id="a_edge23_Node000008_Node000023"><a xlink:title=" ">
<path fill="none" stroke="#63b8ff" d="M997.81,-353.91C994.83,-353.24 991.87,-352.6 988.97,-352 887.23,-330.9 857.75,-345.01 757.97,-316 714.21,-303.27 706.08,-292.46 663.97,-275 626.8,-259.58 583.71,-242.78 555.05,-231.74"/>
<polygon fill="#63b8ff" stroke="#63b8ff" points="556.13,-228.41 545.54,-228.09 553.62,-234.95 556.13,-228.41"/>
</a>
</g>
</g>
<!-- Node8&#45;&gt;Node24 -->
<g id="edge24_Node000008_Node000024" class="edge">
<title>Node8&#45;&gt;Node24</title>
<g id="a_edge24_Node000008_Node000024"><a xlink:title=" ">
<path fill="none" stroke="#63b8ff" d="M997.84,-353.76C994.85,-353.13 991.88,-352.54 988.97,-352 848.25,-325.93 805.99,-357.35 668.97,-316 663.87,-314.46 658.63,-312.25 653.75,-309.86"/>
<polygon fill="#63b8ff" stroke="#63b8ff" points="655.37,-306.76 644.89,-305.19 652.1,-312.95 655.37,-306.76"/>
</a>
</g>
</g>
<!-- Node10 -->
<g id="Node000010" class="node">
<title>Node10</title>
<g id="a_Node000010"><a xlink:href="types_8hpp.html" target="_top" xlink:title=" ">
<polygon fill="white" stroke="#666666" points="1088.97,-162 978.97,-162 978.97,-132 1088.97,-132 1088.97,-162"/>
<text text-anchor="start" x="986.97" y="-150" font-family="Helvetica,sans-Serif" font-size="10.00">packages/types/inc</text>
<text text-anchor="middle" x="1033.97" y="-139" font-family="Helvetica,sans-Serif" font-size="10.00">/types.hpp</text>
</a>
</g>
</g>
<!-- Node9&#45;&gt;Node10 -->
<g id="edge9_Node000009_Node000010" class="edge">
<title>Node9&#45;&gt;Node10</title>
<g id="a_edge9_Node000009_Node000010"><a xlink:title=" ">
<path fill="none" stroke="#63b8ff" d="M931.19,-197.96C951.44,-188.11 975.87,-176.24 995.83,-166.54"/>
<polygon fill="#63b8ff" stroke="#63b8ff" points="997.47,-169.63 1004.94,-162.11 994.41,-163.34 997.47,-169.63"/>
</a>
</g>
</g>
<!-- Node16 -->
<g id="Node000016" class="node">
<title>Node16</title>
<g id="a_Node000016"><a xlink:title=" ">
<polygon fill="#e0e0e0" stroke="#999999" points="767.47,-90.5 698.47,-90.5 698.47,-71.5 767.47,-71.5 767.47,-90.5"/>
<text text-anchor="middle" x="732.97" y="-78.5" font-family="Helvetica,sans-Serif" font-size="10.00">type_traits</text>
</a>
</g>
</g>
<!-- Node9&#45;&gt;Node16 -->
<g id="edge20_Node000009_Node000016" class="edge">
<title>Node9&#45;&gt;Node16</title>
<g id="a_edge20_Node000009_Node000016"><a xlink:title=" ">
<path fill="none" stroke="#63b8ff" d="M889.6,-197.73C887.26,-178.63 880.95,-150.01 863.97,-132 857.12,-124.74 805.24,-106.24 768.87,-93.9"/>
<polygon fill="#63b8ff" stroke="#63b8ff" points="769.66,-90.48 759.07,-90.6 767.43,-97.11 769.66,-90.48"/>
</a>
</g>
</g>
<!-- Node20 -->
<g id="Node000020" class="node">
<title>Node20</title>
<g id="a_Node000020"><a xlink:title=" ">
<polygon fill="#e0e0e0" stroke="#999999" points="854.97,-156.5 794.97,-156.5 794.97,-137.5 854.97,-137.5 854.97,-156.5"/>
<text text-anchor="middle" x="824.97" y="-144.5" font-family="Helvetica,sans-Serif" font-size="10.00">concepts</text>
</a>
</g>
</g>
<!-- Node9&#45;&gt;Node20 -->
<g id="edge19_Node000009_Node000020" class="edge">
<title>Node9&#45;&gt;Node20</title>
<g id="a_edge19_Node000009_Node000020"><a xlink:title=" ">
<path fill="none" stroke="#63b8ff" d="M872.24,-197.77C862.13,-187.13 849.82,-174.16 840.3,-164.13"/>
<polygon fill="#63b8ff" stroke="#63b8ff" points="842.77,-161.66 833.35,-156.82 837.7,-166.48 842.77,-161.66"/>
</a>
</g>
</g>
<!-- Node21 -->
<g id="Node000021" class="node">
<title>Node21</title>
<g id="a_Node000021"><a xlink:title=" ">
<polygon fill="#e0e0e0" stroke="#999999" points="960.97,-156.5 910.97,-156.5 910.97,-137.5 960.97,-137.5 960.97,-156.5"/>
<text text-anchor="middle" x="935.97" y="-144.5" font-family="Helvetica,sans-Serif" font-size="10.00">cstdint</text>
</a>
</g>
</g>
<!-- Node9&#45;&gt;Node21 -->
<g id="edge21_Node000009_Node000021" class="edge">
<title>Node9&#45;&gt;Node21</title>
<g id="a_edge21_Node000009_Node000021"><a xlink:title=" ">
<path fill="none" stroke="#63b8ff" d="M903.75,-197.77C910.37,-187.55 918.37,-175.19 924.75,-165.34"/>
<polygon fill="#63b8ff" stroke="#63b8ff" points="927.77,-167.12 930.26,-156.82 921.89,-163.31 927.77,-167.12"/>
</a>
</g>
</g>
<!-- Node22 -->
<g id="Node000022" class="node">
<title>Node22</title>
<g id="a_Node000022"><a xlink:title=" ">
<polygon fill="#e0e0e0" stroke="#999999" points="776.47,-156.5 731.47,-156.5 731.47,-137.5 776.47,-137.5 776.47,-156.5"/>
<text text-anchor="middle" x="753.97" y="-144.5" font-family="Helvetica,sans-Serif" font-size="10.00">utility</text>
</a>
</g>
</g>
<!-- Node9&#45;&gt;Node22 -->
<g id="edge22_Node000009_Node000022" class="edge">
<title>Node9&#45;&gt;Node22</title>
<g id="a_edge22_Node000009_Node000022"><a xlink:title=" ">
<path fill="none" stroke="#63b8ff" d="M852.45,-197.96C829.22,-186.17 800.26,-171.48 779.78,-161.09"/>
<polygon fill="#63b8ff" stroke="#63b8ff" points="781.24,-157.91 770.74,-156.5 778.07,-164.15 781.24,-157.91"/>
</a>
</g>
</g>
<!-- Node11 -->
<g id="Node000011" class="node">
<title>Node11</title>
<g id="a_Node000011"><a xlink:href="debug_8hpp.html" target="_top" xlink:title=" ">
<polygon fill="white" stroke="#666666" points="1041.47,-96 922.47,-96 922.47,-66 1041.47,-66 1041.47,-96"/>
<text text-anchor="start" x="930.47" y="-84" font-family="Helvetica,sans-Serif" font-size="10.00">packages/macros/inc</text>
<text text-anchor="middle" x="981.97" y="-73" font-family="Helvetica,sans-Serif" font-size="10.00">/debug.hpp</text>
</a>
</g>
</g>
<!-- Node10&#45;&gt;Node11 -->
<g id="edge10_Node000010_Node000011" class="edge">
<title>Node10&#45;&gt;Node11</title>
<g id="a_edge10_Node000010_Node000011"><a xlink:title=" ">
<path fill="none" stroke="#63b8ff" d="M1022.43,-131.8C1015.84,-123.68 1007.42,-113.31 999.97,-104.15"/>
<polygon fill="#63b8ff" stroke="#63b8ff" points="1002.51,-101.72 993.48,-96.16 997.07,-106.13 1002.51,-101.72"/>
</a>
</g>
</g>
<!-- Node14 -->
<g id="Node000014" class="node">
<title>Node14</title>
<g id="a_Node000014"><a xlink:title=" ">
<polygon fill="#e0e0e0" stroke="#999999" points="1112.47,-90.5 1059.47,-90.5 1059.47,-71.5 1112.47,-71.5 1112.47,-90.5"/>
<text text-anchor="middle" x="1085.97" y="-78.5" font-family="Helvetica,sans-Serif" font-size="10.00">cstddef</text>
</a>
</g>
</g>
<!-- Node10&#45;&gt;Node14 -->
<g id="edge13_Node000010_Node000014" class="edge">
<title>Node10&#45;&gt;Node14</title>
<g id="a_edge13_Node000010_Node000014"><a xlink:title=" ">
<path fill="none" stroke="#63b8ff" d="M1045.52,-131.8C1053.46,-122.01 1064.05,-108.98 1072.41,-98.7"/>
<polygon fill="#63b8ff" stroke="#63b8ff" points="1075.2,-100.81 1078.79,-90.84 1069.77,-96.4 1075.2,-100.81"/>
</a>
</g>
</g>
<!-- Node10&#45;&gt;Node15 -->
<g id="edge14_Node000010_Node000015" class="edge">
<title>Node10&#45;&gt;Node15</title>
<g id="a_edge14_Node000010_Node000015"><a xlink:title=" ">
<path fill="none" stroke="#63b8ff" d="M978.92,-133.38C975.9,-132.87 972.9,-132.4 969.97,-132 647.31,-87.67 251.69,-82.56 137.33,-82.04"/>
<polygon fill="#63b8ff" stroke="#63b8ff" points="137.17,-78.54 127.15,-82 137.14,-85.54 137.17,-78.54"/>
</a>
</g>
</g>
<!-- Node10&#45;&gt;Node16 -->
<g id="edge15_Node000010_Node000016" class="edge">
<title>Node10&#45;&gt;Node16</title>
<g id="a_edge15_Node000010_Node000016"><a xlink:title=" ">
<path fill="none" stroke="#63b8ff" d="M978.84,-133.82C975.84,-133.2 972.87,-132.59 969.97,-132 884.02,-114.63 860.96,-117.62 775.97,-96 773.03,-95.25 769.99,-94.41 766.95,-93.51"/>
<polygon fill="#63b8ff" stroke="#63b8ff" points="767.96,-90.16 757.37,-90.56 765.89,-96.85 767.96,-90.16"/>
</a>
</g>
</g>
<!-- Node17 -->
<g id="Node000017" class="node">
<title>Node17</title>
<g id="a_Node000017"><a xlink:title=" ">
<polygon fill="#e0e0e0" stroke="#999999" points="1180.97,-90.5 1130.97,-90.5 1130.97,-71.5 1180.97,-71.5 1180.97,-90.5"/>
<text text-anchor="middle" x="1155.97" y="-78.5" font-family="Helvetica,sans-Serif" font-size="10.00">climits</text>
</a>
</g>
</g>
<!-- Node10&#45;&gt;Node17 -->
<g id="edge16_Node000010_Node000017" class="edge">
<title>Node10&#45;&gt;Node17</title>
<g id="a_edge16_Node000010_Node000017"><a xlink:title=" ">
<path fill="none" stroke="#63b8ff" d="M1060.75,-131.95C1081.58,-121.03 1110.28,-105.97 1130.72,-95.25"/>
<polygon fill="#63b8ff" stroke="#63b8ff" points="1132.51,-98.26 1139.74,-90.52 1129.26,-92.06 1132.51,-98.26"/>
</a>
</g>
</g>
<!-- Node18 -->
<g id="Node000018" class="node">
<title>Node18</title>
<g id="a_Node000018"><a xlink:title=" ">
<polygon fill="#e0e0e0" stroke="#999999" points="1316.47,-96 1199.47,-96 1199.47,-66 1316.47,-66 1316.47,-96"/>
<text text-anchor="start" x="1207.47" y="-84" font-family="Helvetica,sans-Serif" font-size="10.00">packages/types/impl</text>
<text text-anchor="middle" x="1257.97" y="-73" font-family="Helvetica,sans-Serif" font-size="10.00">/types_impl.hpp</text>
</a>
</g>
</g>
<!-- Node10&#45;&gt;Node18 -->
<g id="edge17_Node000010_Node000018" class="edge">
<title>Node10&#45;&gt;Node18</title>
<g id="a_edge17_Node000010_Node000018"><a xlink:title=" ">
<path fill="none" stroke="#63b8ff" d="M1083.13,-131.95C1117.27,-122.2 1162.93,-109.16 1199.02,-98.84"/>
<polygon fill="#63b8ff" stroke="#63b8ff" points="1200.28,-102.12 1208.93,-96.01 1198.35,-95.39 1200.28,-102.12"/>
</a>
</g>
</g>
<!-- Node19 -->
<g id="Node000019" class="node">
<title>Node19</title>
<g id="a_Node000019"><a xlink:href="logging_8hpp.html" target="_top" xlink:title=" ">
<polygon fill="white" stroke="#666666" points="904.47,-96 785.47,-96 785.47,-66 904.47,-66 904.47,-96"/>
<text text-anchor="start" x="793.47" y="-84" font-family="Helvetica,sans-Serif" font-size="10.00">packages/macros/inc</text>
<text text-anchor="middle" x="844.97" y="-73" font-family="Helvetica,sans-Serif" font-size="10.00">/logging.hpp</text>
</a>
</g>
</g>
<!-- Node10&#45;&gt;Node19 -->
<g id="edge18_Node000010_Node000019" class="edge">
<title>Node10&#45;&gt;Node19</title>
<g id="a_edge18_Node000010_Node000019"><a xlink:title=" ">
<path fill="none" stroke="#63b8ff" d="M992.5,-131.95C964.06,-122.33 926.16,-109.49 895.89,-99.24"/>
<polygon fill="#63b8ff" stroke="#63b8ff" points="896.95,-95.9 886.35,-96.01 894.7,-102.53 896.95,-95.9"/>
</a>
</g>
</g>
<!-- Node12 -->
<g id="Node000012" class="node">
<title>Node12</title>
<g id="a_Node000012"><a xlink:href="detail_8hpp.html" target="_top" xlink:title=" ">
<polygon fill="white" stroke="#666666" points="488.47,-30 369.47,-30 369.47,0 488.47,0 488.47,-30"/>
<text text-anchor="start" x="377.47" y="-18" font-family="Helvetica,sans-Serif" font-size="10.00">packages/macros/inc</text>
<text text-anchor="middle" x="428.97" y="-7" font-family="Helvetica,sans-Serif" font-size="10.00">/detail.hpp</text>
</a>
</g>
</g>
<!-- Node11&#45;&gt;Node12 -->
<g id="edge11_Node000011_Node000012" class="edge">
<title>Node11&#45;&gt;Node12</title>
<g id="a_edge11_Node000011_Node000012"><a xlink:title=" ">
<path fill="none" stroke="#63b8ff" d="M922.2,-67.5C919.08,-66.97 916,-66.46 912.97,-66 766.34,-43.6 593.14,-28.41 498.81,-21.07"/>
<polygon fill="#63b8ff" stroke="#63b8ff" points="499.06,-17.58 488.82,-20.3 498.52,-24.56 499.06,-17.58"/>
</a>
</g>
</g>
<!-- Node13 -->
<g id="Node000013" class="node">
<title>Node13</title>
<g id="a_Node000013"><a xlink:title=" ">
<polygon fill="#e0e0e0" stroke="#999999" points="1011.97,-24.5 951.97,-24.5 951.97,-5.5 1011.97,-5.5 1011.97,-24.5"/>
<text text-anchor="middle" x="981.97" y="-12.5" font-family="Helvetica,sans-Serif" font-size="10.00">iostream</text>
</a>
</g>
</g>
<!-- Node11&#45;&gt;Node13 -->
<g id="edge12_Node000011_Node000013" class="edge">
<title>Node11&#45;&gt;Node13</title>
<g id="a_edge12_Node000011_Node000013"><a xlink:title=" ">
<path fill="none" stroke="#63b8ff" d="M981.97,-65.8C981.97,-56.7 981.97,-44.79 981.97,-34.9"/>
<polygon fill="#63b8ff" stroke="#63b8ff" points="985.47,-34.84 981.97,-24.84 978.47,-34.84 985.47,-34.84"/>
</a>
</g>
</g>
<!-- Node26 -->
<g id="Node000026" class="node">
<title>Node26</title>
<g id="a_Node000026"><a xlink:href="iterator__concepts_8hpp.html" target="_top" xlink:title=" ">
<polygon fill="white" stroke="#666666" points="1127.97,-316 995.97,-316 995.97,-275 1127.97,-275 1127.97,-316"/>
<text text-anchor="start" x="1003.97" y="-304" font-family="Helvetica,sans-Serif" font-size="10.00">packages/compile_time</text>
<text text-anchor="start" x="1003.97" y="-293" font-family="Helvetica,sans-Serif" font-size="10.00">/packages/concepts/inc</text>
<text text-anchor="middle" x="1061.97" y="-282" font-family="Helvetica,sans-Serif" font-size="10.00">/iterator_concepts.hpp</text>
</a>
</g>
</g>
<!-- Node25&#45;&gt;Node26 -->
<g id="edge26_Node000025_Node000026" class="edge">
<title>Node25&#45;&gt;Node26</title>
<g id="a_edge26_Node000025_Node000026"><a xlink:title=" ">
<path fill="none" stroke="#63b8ff" d="M1204.03,-351.99C1178.8,-342.13 1148,-330.1 1121.54,-319.77"/>
<polygon fill="#63b8ff" stroke="#63b8ff" points="1122.59,-316.42 1112,-316.04 1120.04,-322.94 1122.59,-316.42"/>
</a>
</g>
</g>
<!-- Node26&#45;&gt;Node7 -->
<g id="edge35_Node000026_Node000007" class="edge">
<title>Node26&#45;&gt;Node7</title>
<g id="a_edge35_Node000026_Node000007"><a xlink:title=" ">
<path fill="none" stroke="#63b8ff" d="M995.79,-288.52C944.48,-281.81 872.78,-267.83 815.97,-239 791.26,-226.46 791.46,-214.21 768.97,-198 749.87,-184.23 726.76,-170.83 709.46,-161.37"/>
<polygon fill="#63b8ff" stroke="#63b8ff" points="710.98,-158.21 700.51,-156.54 707.65,-164.37 710.98,-158.21"/>
</a>
</g>
</g>
<!-- Node26&#45;&gt;Node9 -->
<g id="edge27_Node000026_Node000009" class="edge">
<title>Node26&#45;&gt;Node9</title>
<g id="a_edge27_Node000026_Node000009"><a xlink:title=" ">
<path fill="none" stroke="#63b8ff" d="M1017.49,-274.99C995.31,-265.26 968.31,-253.42 944.95,-243.18"/>
<polygon fill="#63b8ff" stroke="#63b8ff" points="946.09,-239.85 935.53,-239.04 943.28,-246.26 946.09,-239.85"/>
</a>
</g>
</g>
<!-- Node27 -->
<g id="Node000027" class="node">
<title>Node27</title>
<g id="a_Node000027"><a xlink:href="Size_8hpp.html" target="_top" xlink:title=" ">
<polygon fill="white" stroke="#666666" points="1360.97,-239 1212.97,-239 1212.97,-198 1360.97,-198 1360.97,-239"/>
<text text-anchor="start" x="1220.97" y="-227" font-family="Helvetica,sans-Serif" font-size="10.00">packages/compile_time</text>
<text text-anchor="start" x="1220.97" y="-216" font-family="Helvetica,sans-Serif" font-size="10.00">/packages/parameter_pack</text>
<text text-anchor="middle" x="1286.97" y="-205" font-family="Helvetica,sans-Serif" font-size="10.00">/inc/Size.hpp</text>
</a>
</g>
</g>
<!-- Node26&#45;&gt;Node27 -->
<g id="edge28_Node000026_Node000027" class="edge">
<title>Node26&#45;&gt;Node27</title>
<g id="a_edge28_Node000026_Node000027"><a xlink:title=" ">
<path fill="none" stroke="#63b8ff" d="M1120.5,-274.99C1150.59,-264.96 1187.43,-252.68 1218.8,-242.22"/>
<polygon fill="#63b8ff" stroke="#63b8ff" points="1219.97,-245.52 1228.35,-239.04 1217.75,-238.88 1219.97,-245.52"/>
</a>
</g>
</g>
<!-- Node28 -->
<g id="Node000028" class="node">
<title>Node28</title>
<g id="a_Node000028"><a xlink:href="Select_8hpp.html" target="_top" xlink:title=" ">
<polygon fill="white" stroke="#666666" points="1194.97,-239 1046.97,-239 1046.97,-198 1194.97,-198 1194.97,-239"/>
<text text-anchor="start" x="1054.97" y="-227" font-family="Helvetica,sans-Serif" font-size="10.00">packages/compile_time</text>
<text text-anchor="start" x="1054.97" y="-216" font-family="Helvetica,sans-Serif" font-size="10.00">/packages/parameter_pack</text>
<text text-anchor="middle" x="1120.97" y="-205" font-family="Helvetica,sans-Serif" font-size="10.00">/inc/Select.hpp</text>
</a>
</g>
</g>
<!-- Node26&#45;&gt;Node28 -->
<g id="edge30_Node000026_Node000028" class="edge">
<title>Node26&#45;&gt;Node28</title>
<g id="a_edge30_Node000026_Node000028"><a xlink:title=" ">
<path fill="none" stroke="#63b8ff" d="M1077.48,-274.79C1084.12,-266.35 1091.99,-256.35 1099.2,-247.18"/>
<polygon fill="#63b8ff" stroke="#63b8ff" points="1102.14,-249.1 1105.58,-239.07 1096.64,-244.77 1102.14,-249.1"/>
</a>
</g>
</g>
<!-- Node30 -->
<g id="Node000030" class="node">
<title>Node30</title>
<g id="a_Node000030"><a xlink:title=" ">
<polygon fill="#e0e0e0" stroke="#999999" points="1028.47,-228 975.47,-228 975.47,-209 1028.47,-209 1028.47,-228"/>
<text text-anchor="middle" x="1001.97" y="-216" font-family="Helvetica,sans-Serif" font-size="10.00">iterator</text>
</a>
</g>
</g>
<!-- Node26&#45;&gt;Node30 -->
<g id="edge34_Node000026_Node000030" class="edge">
<title>Node26&#45;&gt;Node30</title>
<g id="a_edge34_Node000026_Node000030"><a xlink:title=" ">
<path fill="none" stroke="#63b8ff" d="M1046.21,-274.79C1036.58,-262.76 1024.41,-247.54 1015.27,-236.12"/>
<polygon fill="#63b8ff" stroke="#63b8ff" points="1017.94,-233.86 1008.96,-228.24 1012.48,-238.23 1017.94,-233.86"/>
</a>
</g>
</g>
<!-- Node27&#45;&gt;Node10 -->
<g id="edge29_Node000027_Node000010" class="edge">
<title>Node27&#45;&gt;Node10</title>
<g id="a_edge29_Node000027_Node000010"><a xlink:title=" ">
<path fill="none" stroke="#63b8ff" d="M1215.83,-197.96C1177.75,-187.5 1131.34,-174.75 1094.94,-164.75"/>
<polygon fill="#63b8ff" stroke="#63b8ff" points="1095.52,-161.28 1084.95,-162 1093.67,-168.03 1095.52,-161.28"/>
</a>
</g>
</g>
<!-- Node28&#45;&gt;Node10 -->
<g id="edge31_Node000028_Node000010" class="edge">
<title>Node28&#45;&gt;Node10</title>
<g id="a_edge31_Node000028_Node000010"><a xlink:title=" ">
<path fill="none" stroke="#63b8ff" d="M1096.28,-197.77C1084.8,-188.6 1071.15,-177.7 1059.56,-168.44"/>
<polygon fill="#63b8ff" stroke="#63b8ff" points="1061.55,-165.55 1051.55,-162.04 1057.18,-171.01 1061.55,-165.55"/>
</a>
</g>
</g>
<!-- Node28&#45;&gt;Node20 -->
<g id="edge33_Node000028_Node000020" class="edge">
<title>Node28&#45;&gt;Node20</title>
<g id="a_edge33_Node000028_Node000020"><a xlink:title=" ">
<path fill="none" stroke="#63b8ff" d="M1046.76,-200.06C1043.79,-199.37 1040.86,-198.68 1037.97,-198 977.72,-183.85 907.88,-167.46 865.07,-157.41"/>
<polygon fill="#63b8ff" stroke="#63b8ff" points="865.84,-154 855.31,-155.12 864.25,-160.81 865.84,-154"/>
</a>
</g>
</g>
<!-- Node29 -->
<g id="Node000029" class="node">
<title>Node29</title>
<g id="a_Node000029"><a xlink:title=" ">
<polygon fill="#e0e0e0" stroke="#999999" points="1148.47,-156.5 1107.47,-156.5 1107.47,-137.5 1148.47,-137.5 1148.47,-156.5"/>
<text text-anchor="middle" x="1127.97" y="-144.5" font-family="Helvetica,sans-Serif" font-size="10.00">tuple</text>
</a>
</g>
</g>
<!-- Node28&#45;&gt;Node29 -->
<g id="edge32_Node000028_Node000029" class="edge">
<title>Node28&#45;&gt;Node29</title>
<g id="a_edge32_Node000028_Node000029"><a xlink:title=" ">
<path fill="none" stroke="#63b8ff" d="M1122.96,-197.77C1123.94,-188.08 1125.11,-176.46 1126.07,-166.88"/>
<polygon fill="#63b8ff" stroke="#63b8ff" points="1129.57,-167.12 1127.09,-156.82 1122.6,-166.42 1129.57,-167.12"/>
</a>
</g>
</g>
<!-- Node31&#45;&gt;Node12 -->
<g id="edge49_Node000031_Node000012" class="edge">
<title>Node31&#45;&gt;Node12</title>
<g id="a_edge49_Node000031_Node000012"><a xlink:title=" ">
<path fill="none" stroke="#63b8ff" d="M324.27,-363.17C295.52,-355.82 263.54,-342 245.97,-316 235.77,-300.9 236.88,-290.79 245.97,-275 261.87,-247.39 283.64,-259.57 307.97,-239 341.96,-210.27 349.37,-200.33 371.97,-162 395.61,-121.92 413.1,-70.24 422.11,-40.34"/>
<polygon fill="#63b8ff" stroke="#63b8ff" points="425.58,-40.96 425.04,-30.37 418.87,-38.98 425.58,-40.96"/>
</a>
</g>
</g>
<!-- Node31&#45;&gt;Node23 -->
<g id="edge51_Node000031_Node000023" class="edge">
<title>Node31&#45;&gt;Node23</title>
<g id="a_edge51_Node000031_Node000023"><a xlink:title=" ">
<path fill="none" stroke="#63b8ff" d="M443.57,-363.09C472.29,-355.72 504.27,-341.91 521.97,-316 537.76,-292.9 533.38,-258.88 528.42,-238.01"/>
<polygon fill="#63b8ff" stroke="#63b8ff" points="531.76,-236.94 525.81,-228.17 524.99,-238.74 531.76,-236.94"/>
</a>
</g>
</g>
<!-- Node32 -->
<g id="Node000032" class="node">
<title>Node32</title>
<g id="a_Node000032"><a xlink:href="exception_8hpp.html" target="_top" xlink:title=" ">
<polygon fill="white" stroke="#666666" points="299.47,-233.5 180.47,-233.5 180.47,-203.5 299.47,-203.5 299.47,-233.5"/>
<text text-anchor="start" x="188.47" y="-221.5" font-family="Helvetica,sans-Serif" font-size="10.00">packages/exceptions</text>
<text text-anchor="middle" x="239.97" y="-210.5" font-family="Helvetica,sans-Serif" font-size="10.00">/inc/exception.hpp</text>
</a>
</g>
</g>
<!-- Node31&#45;&gt;Node32 -->
<g id="edge37_Node000031_Node000032" class="edge">
<title>Node31&#45;&gt;Node32</title>
<g id="a_edge37_Node000031_Node000032"><a xlink:title=" ">
<path fill="none" stroke="#63b8ff" d="M324.19,-369.15C285.66,-364.15 238.21,-350.72 212.97,-316 197.03,-294.06 210.52,-263.04 223.51,-242.15"/>
<polygon fill="#63b8ff" stroke="#63b8ff" points="226.56,-243.88 229.15,-233.6 220.72,-240.02 226.56,-243.88"/>
</a>
</g>
</g>
<!-- Node36 -->
<g id="Node000036" class="node">
<title>Node36</title>
<g id="a_Node000036"><a xlink:href="exceptions_8hpp.html" target="_top" xlink:title=" ">
<polygon fill="white" stroke="#666666" points="374.47,-310.5 255.47,-310.5 255.47,-280.5 374.47,-280.5 374.47,-310.5"/>
<text text-anchor="start" x="263.47" y="-298.5" font-family="Helvetica,sans-Serif" font-size="10.00">packages/macros/inc</text>
<text text-anchor="middle" x="314.97" y="-287.5" font-family="Helvetica,sans-Serif" font-size="10.00">/exceptions.hpp</text>
</a>
</g>
</g>
<!-- Node31&#45;&gt;Node36 -->
<g id="edge44_Node000031_Node000036" class="edge">
<title>Node31&#45;&gt;Node36</title>
<g id="a_edge44_Node000031_Node000036"><a xlink:title=" ">
<path fill="none" stroke="#63b8ff" d="M371,-357.39C360.78,-346.29 346.37,-330.63 334.73,-317.97"/>
<polygon fill="#63b8ff" stroke="#63b8ff" points="337.24,-315.53 327.89,-310.54 332.09,-320.27 337.24,-315.53"/>
</a>
</g>
</g>
<!-- Node37 -->
<g id="Node000037" class="node">
<title>Node37</title>
<g id="a_Node000037"><a xlink:title=" ">
<polygon fill="#e0e0e0" stroke="#999999" points="512.97,-305 392.97,-305 392.97,-286 512.97,-286 512.97,-305"/>
<text text-anchor="middle" x="452.97" y="-293" font-family="Helvetica,sans-Serif" font-size="10.00">cmake_variables.hpp</text>
</a>
</g>
</g>
<!-- Node31&#45;&gt;Node37 -->
<g id="edge50_Node000031_Node000037" class="edge">
<title>Node31&#45;&gt;Node37</title>
<g id="a_edge50_Node000031_Node000037"><a xlink:title=" ">
<path fill="none" stroke="#63b8ff" d="M396.95,-357.39C408.59,-344.74 425.67,-326.18 437.91,-312.88"/>
<polygon fill="#63b8ff" stroke="#63b8ff" points="440.61,-315.1 444.81,-305.37 435.46,-310.36 440.61,-315.1"/>
</a>
</g>
</g>
<!-- Node32&#45;&gt;Node7 -->
<g id="edge42_Node000032_Node000007" class="edge">
<title>Node32&#45;&gt;Node7</title>
<g id="a_edge42_Node000032_Node000007"><a xlink:title=" ">
<path fill="none" stroke="#63b8ff" d="M299.85,-208.13C392.09,-193.69 566.43,-166.4 644.47,-154.18"/>
<polygon fill="#63b8ff" stroke="#63b8ff" points="645.48,-157.57 654.82,-152.56 644.4,-150.65 645.48,-157.57"/>
</a>
</g>
</g>
<!-- Node32&#45;&gt;Node10 -->
<g id="edge38_Node000032_Node000010" class="edge">
<title>Node32&#45;&gt;Node10</title>
<g id="a_edge38_Node000032_Node000010"><a xlink:title=" ">
<path fill="none" stroke="#63b8ff" d="M299.62,-212.69C349.43,-208.69 422.33,-202.89 485.97,-198 697.79,-181.73 754.81,-192.78 968.92,-162.01"/>
<polygon fill="#63b8ff" stroke="#63b8ff" points="969.51,-165.46 978.91,-160.56 968.51,-158.53 969.51,-165.46"/>
</a>
</g>
</g>
<!-- Node32&#45;&gt;Node15 -->
<g id="edge40_Node000032_Node000015" class="edge">
<title>Node32&#45;&gt;Node15</title>
<g id="a_edge40_Node000032_Node000015"><a xlink:title=" ">
<path fill="none" stroke="#63b8ff" d="M187.25,-203.5C164.71,-194.98 139.96,-181.81 123.97,-162 109.86,-144.5 105.92,-118.25 104.98,-100.64"/>
<polygon fill="#63b8ff" stroke="#63b8ff" points="108.47,-100.41 104.72,-90.5 101.48,-100.59 108.47,-100.41"/>
</a>
</g>
</g>
<!-- Node33 -->
<g id="Node000033" class="node">
<title>Node33</title>
<g id="a_Node000033"><a xlink:title=" ">
<polygon fill="#e0e0e0" stroke="#999999" points="198.47,-156.5 133.47,-156.5 133.47,-137.5 198.47,-137.5 198.47,-156.5"/>
<text text-anchor="middle" x="165.97" y="-144.5" font-family="Helvetica,sans-Serif" font-size="10.00">stdexcept</text>
</a>
</g>
</g>
<!-- Node32&#45;&gt;Node33 -->
<g id="edge39_Node000032_Node000033" class="edge">
<title>Node32&#45;&gt;Node33</title>
<g id="a_edge39_Node000032_Node000033"><a xlink:title=" ">
<path fill="none" stroke="#63b8ff" d="M225,-203.44C212.8,-191.98 195.59,-175.82 182.9,-163.9"/>
<polygon fill="#63b8ff" stroke="#63b8ff" points="184.99,-161.06 175.31,-156.77 180.2,-166.16 184.99,-161.06"/>
</a>
</g>
</g>
<!-- Node32&#45;&gt;Node34 -->
<g id="edge41_Node000032_Node000034" class="edge">
<title>Node32&#45;&gt;Node34</title>
<g id="a_edge41_Node000032_Node000034"><a xlink:title=" ">
<path fill="none" stroke="#63b8ff" d="M202.13,-203.44C167.89,-190.71 118,-172.17 85.51,-160.09"/>
<polygon fill="#63b8ff" stroke="#63b8ff" points="86.62,-156.77 76.03,-156.57 84.18,-163.33 86.62,-156.77"/>
</a>
</g>
</g>
<!-- Node35 -->
<g id="Node000035" class="node">
<title>Node35</title>
<g id="a_Node000035"><a xlink:title=" ">
<polygon fill="#e0e0e0" stroke="#999999" points="362.97,-162 216.97,-162 216.97,-132 362.97,-132 362.97,-162"/>
<text text-anchor="start" x="224.97" y="-150" font-family="Helvetica,sans-Serif" font-size="10.00">packages/exceptions</text>
<text text-anchor="middle" x="289.97" y="-139" font-family="Helvetica,sans-Serif" font-size="10.00">/impl/exceptions_impl.hpp</text>
</a>
</g>
</g>
<!-- Node32&#45;&gt;Node35 -->
<g id="edge43_Node000032_Node000035" class="edge">
<title>Node32&#45;&gt;Node35</title>
<g id="a_edge43_Node000032_Node000035"><a xlink:title=" ">
<path fill="none" stroke="#63b8ff" d="M250.09,-203.44C256.94,-193.92 266.12,-181.15 273.95,-170.27"/>
<polygon fill="#63b8ff" stroke="#63b8ff" points="276.87,-172.21 279.87,-162.04 271.19,-168.12 276.87,-172.21"/>
</a>
</g>
</g>
<!-- Node36&#45;&gt;Node12 -->
<g id="edge46_Node000036_Node000012" class="edge">
<title>Node36&#45;&gt;Node12</title>
<g id="a_edge46_Node000036_Node000012"><a xlink:title=" ">
<path fill="none" stroke="#63b8ff" d="M349.33,-280.31C367.06,-271.17 387.36,-257.51 398.97,-239 438.41,-176.14 435.84,-83.78 431.89,-40.31"/>
<polygon fill="#63b8ff" stroke="#63b8ff" points="435.35,-39.72 430.85,-30.12 428.38,-40.43 435.35,-39.72"/>
</a>
</g>
</g>
<!-- Node36&#45;&gt;Node20 -->
<g id="edge48_Node000036_Node000020" class="edge">
<title>Node36&#45;&gt;Node20</title>
<g id="a_edge48_Node000036_Node000020"><a xlink:title=" ">
<path fill="none" stroke="#63b8ff" d="M357.22,-280.48C383.13,-270.87 416.33,-256.66 442.97,-239 464.98,-224.41 462.09,-209.26 485.97,-198 607.03,-140.9 654.6,-192.29 784.97,-162 787.8,-161.34 790.7,-160.56 793.58,-159.7"/>
<polygon fill="#63b8ff" stroke="#63b8ff" points="794.79,-162.99 803.22,-156.57 792.63,-156.33 794.79,-162.99"/>
</a>
</g>
</g>
<!-- Node36&#45;&gt;Node23 -->
<g id="edge47_Node000036_Node000023" class="edge">
<title>Node36&#45;&gt;Node23</title>
<g id="a_edge47_Node000036_Node000023"><a xlink:title=" ">
<path fill="none" stroke="#63b8ff" d="M361.63,-280.44C395.18,-269.96 441.3,-254.78 480.97,-239 485.98,-237.01 491.25,-234.72 496.29,-232.43"/>
<polygon fill="#63b8ff" stroke="#63b8ff" points="498,-235.5 505.59,-228.1 495.05,-229.15 498,-235.5"/>
</a>
</g>
</g>
<!-- Node36&#45;&gt;Node32 -->
<g id="edge45_Node000036_Node000032" class="edge">
<title>Node36&#45;&gt;Node32</title>
<g id="a_edge45_Node000036_Node000032"><a xlink:title=" ">
<path fill="none" stroke="#63b8ff" d="M300.87,-280.39C289.76,-269.29 274.1,-253.63 261.44,-240.97"/>
<polygon fill="#63b8ff" stroke="#63b8ff" points="263.56,-238.14 254.02,-233.54 258.61,-243.09 263.56,-238.14"/>
</a>
</g>
</g>
</g>
</svg>
