<?xml version="1.0" encoding="UTF-8" standalone="no"?>
<!DOCTYPE svg PUBLIC "-//W3C//DTD SVG 1.1//EN"
 "http://www.w3.org/Graphics/SVG/1.1/DTD/svg11.dtd">
<!-- Generated by graphviz version 2.43.0 (0)
 -->
<!-- Title: warning.hpp Pages: 1 -->
<svg width="1507pt" height="731pt"
 viewBox="0.00 0.00 1507.02 731.00" xmlns="http://www.w3.org/2000/svg" xmlns:xlink="http://www.w3.org/1999/xlink">
<g id="graph0" class="graph" transform="scale(1 1) rotate(0) translate(4 727)">
<title>warning.hpp</title>
<polygon fill="white" stroke="transparent" points="-4,4 -4,-727 1503.02,-727 1503.02,4 -4,4"/>
<!-- Node1 -->
<g id="node1" class="node">
<title>Node1</title>
<g id="a_node1"><a xlink:title=" ">
<polygon fill="#bfbfbf" stroke="black" points="1286.5,-703.5 1286.5,-722.5 1363.5,-722.5 1363.5,-703.5 1286.5,-703.5"/>
<text text-anchor="middle" x="1325" y="-710.5" font-family="Helvetica,sans-Serif" font-size="10.00">warning.hpp</text>
</a>
</g>
</g>
<!-- Node2 -->
<g id="node2" class="node">
<title>Node2</title>
<g id="a_node2"><a xlink:href="LoggerSingleton_8hpp.html" target="_top" xlink:title=" ">
<polygon fill="white" stroke="black" points="1265.5,-636.5 1265.5,-666.5 1384.5,-666.5 1384.5,-636.5 1265.5,-636.5"/>
<text text-anchor="start" x="1273.5" y="-654.5" font-family="Helvetica,sans-Serif" font-size="10.00">packages/logging/inc</text>
<text text-anchor="middle" x="1325" y="-643.5" font-family="Helvetica,sans-Serif" font-size="10.00">/LoggerSingleton.hpp</text>
</a>
</g>
</g>
<!-- Node1&#45;&gt;Node2 -->
<g id="edge1" class="edge">
<title>Node1&#45;&gt;Node2</title>
<path fill="none" stroke="midnightblue" d="M1325,-703.48C1325,-696.47 1325,-686.19 1325,-676.7"/>
<polygon fill="midnightblue" stroke="midnightblue" points="1328.5,-676.52 1325,-666.52 1321.5,-676.52 1328.5,-676.52"/>
</g>
<!-- Node3 -->
<g id="node3" class="node">
<title>Node3</title>
<g id="a_node3"><a xlink:href="Logger_8hpp.html" target="_top" xlink:title=" ">
<polygon fill="white" stroke="black" points="1098.5,-569.5 1098.5,-599.5 1217.5,-599.5 1217.5,-569.5 1098.5,-569.5"/>
<text text-anchor="start" x="1106.5" y="-587.5" font-family="Helvetica,sans-Serif" font-size="10.00">packages/logging/inc</text>
<text text-anchor="middle" x="1158" y="-576.5" font-family="Helvetica,sans-Serif" font-size="10.00">/Logger.hpp</text>
</a>
</g>
</g>
<!-- Node2&#45;&gt;Node3 -->
<g id="edge2" class="edge">
<title>Node2&#45;&gt;Node3</title>
<path fill="none" stroke="midnightblue" d="M1288.76,-636.4C1263.82,-626.69 1230.47,-613.71 1203.7,-603.29"/>
<polygon fill="midnightblue" stroke="midnightblue" points="1204.75,-599.94 1194.17,-599.58 1202.22,-606.47 1204.75,-599.94"/>
</g>
<!-- Node38 -->
<g id="node38" class="node">
<title>Node38</title>
<g id="a_node38"><a xlink:title=" ">
<polygon fill="white" stroke="#bfbfbf" points="1383,-212.5 1383,-231.5 1451,-231.5 1451,-212.5 1383,-212.5"/>
<text text-anchor="middle" x="1417" y="-219.5" font-family="Helvetica,sans-Serif" font-size="10.00">filesystem</text>
</a>
</g>
</g>
<!-- Node2&#45;&gt;Node38 -->
<g id="edge68" class="edge">
<title>Node2&#45;&gt;Node38</title>
<path fill="none" stroke="midnightblue" d="M1371.35,-636.36C1421.08,-617.97 1493,-580.63 1493,-518.5 1493,-518.5 1493,-518.5 1493,-377 1493,-322.09 1453.66,-266.48 1431.59,-239.6"/>
<polygon fill="midnightblue" stroke="midnightblue" points="1433.98,-237 1424.85,-231.62 1428.63,-241.52 1433.98,-237"/>
</g>
<!-- Node4 -->
<g id="node4" class="node">
<title>Node4</title>
<g id="a_node4"><a xlink:href="FileOutputStream_8hpp.html" target="_top" xlink:title=" ">
<polygon fill="white" stroke="black" points="915,-502.5 915,-532.5 1041,-532.5 1041,-502.5 915,-502.5"/>
<text text-anchor="start" x="923" y="-520.5" font-family="Helvetica,sans-Serif" font-size="10.00">packages/logging/inc</text>
<text text-anchor="middle" x="978" y="-509.5" font-family="Helvetica,sans-Serif" font-size="10.00">/FileOutputStream.hpp</text>
</a>
</g>
</g>
<!-- Node3&#45;&gt;Node4 -->
<g id="edge3" class="edge">
<title>Node3&#45;&gt;Node4</title>
<path fill="none" stroke="midnightblue" d="M1118.94,-569.4C1091.82,-559.6 1055.49,-546.48 1026.5,-536.02"/>
<polygon fill="midnightblue" stroke="midnightblue" points="1027.58,-532.68 1016.98,-532.58 1025.2,-539.26 1027.58,-532.68"/>
</g>
<!-- Node7 -->
<g id="node7" class="node">
<title>Node7</title>
<g id="a_node7"><a xlink:title=" ">
<polygon fill="white" stroke="#bfbfbf" points="65,-140 65,-159 123,-159 123,-140 65,-140"/>
<text text-anchor="middle" x="94" y="-147" font-family="Helvetica,sans-Serif" font-size="10.00">memory</text>
</a>
</g>
</g>
<!-- Node3&#45;&gt;Node7 -->
<g id="edge62" class="edge">
<title>Node3&#45;&gt;Node7</title>
<path fill="none" stroke="midnightblue" d="M1098.18,-583.03C861.05,-580.4 0,-563.17 0,-451.5 0,-451.5 0,-451.5 0,-299 0,-243.14 48.07,-191.24 75.46,-166.19"/>
<polygon fill="midnightblue" stroke="midnightblue" points="78.06,-168.56 83.22,-159.31 73.41,-163.33 78.06,-168.56"/>
</g>
<!-- Node15 -->
<g id="node15" class="node">
<title>Node15</title>
<g id="a_node15"><a xlink:title=" ">
<polygon fill="white" stroke="#bfbfbf" points="1269,-73 1269,-92 1313,-92 1313,-73 1269,-73"/>
<text text-anchor="middle" x="1291" y="-80" font-family="Helvetica,sans-Serif" font-size="10.00">string</text>
</a>
</g>
</g>
<!-- Node3&#45;&gt;Node15 -->
<g id="edge63" class="edge">
<title>Node3&#45;&gt;Node15</title>
<path fill="none" stroke="midnightblue" d="M1217.7,-578.32C1280.33,-571.65 1373.08,-557.84 1398,-533 1504.31,-427.03 1529.53,-334.03 1460,-201 1431.1,-145.7 1363,-111.18 1322.63,-94.81"/>
<polygon fill="midnightblue" stroke="midnightblue" points="1323.83,-91.52 1313.24,-91.13 1321.27,-98.04 1323.83,-91.52"/>
</g>
<!-- Node24 -->
<g id="node24" class="node">
<title>Node24</title>
<g id="a_node24"><a xlink:title=" ">
<polygon fill="white" stroke="#bfbfbf" points="28,-290.5 28,-309.5 76,-309.5 76,-290.5 28,-290.5"/>
<text text-anchor="middle" x="52" y="-297.5" font-family="Helvetica,sans-Serif" font-size="10.00">iosfwd</text>
</a>
</g>
</g>
<!-- Node3&#45;&gt;Node24 -->
<g id="edge60" class="edge">
<title>Node3&#45;&gt;Node24</title>
<path fill="none" stroke="midnightblue" d="M1098.21,-577.93C905.89,-559.21 306.08,-494.35 139,-399 104.57,-379.35 76.71,-341.06 62.42,-318.6"/>
<polygon fill="midnightblue" stroke="midnightblue" points="65.22,-316.46 56.99,-309.78 59.26,-320.13 65.22,-316.46"/>
</g>
<!-- Node34 -->
<g id="node34" class="node">
<title>Node34</title>
<g id="a_node34"><a xlink:title=" ">
<polygon fill="white" stroke="#bfbfbf" points="879.5,-140 879.5,-159 926.5,-159 926.5,-140 879.5,-140"/>
<text text-anchor="middle" x="903" y="-147" font-family="Helvetica,sans-Serif" font-size="10.00">deque</text>
</a>
</g>
</g>
<!-- Node3&#45;&gt;Node34 -->
<g id="edge61" class="edge">
<title>Node3&#45;&gt;Node34</title>
<path fill="none" stroke="midnightblue" d="M1098.49,-580.02C1031.84,-574.73 929.98,-562.03 906,-533 859.82,-477.1 890.24,-238.26 900.18,-169.24"/>
<polygon fill="midnightblue" stroke="midnightblue" points="903.69,-169.44 901.68,-159.04 896.76,-168.42 903.69,-169.44"/>
</g>
<!-- Node3&#45;&gt;Node38 -->
<g id="edge66" class="edge">
<title>Node3&#45;&gt;Node38</title>
<path fill="none" stroke="midnightblue" d="M1217.56,-579.67C1288.21,-573.93 1400.3,-560.68 1431,-533 1459.05,-507.72 1455,-489.26 1455,-451.5 1455,-451.5 1455,-451.5 1455,-377 1455,-326.45 1435.46,-269.22 1424.41,-240.88"/>
<polygon fill="midnightblue" stroke="midnightblue" points="1427.62,-239.48 1420.64,-231.5 1421.12,-242.08 1427.62,-239.48"/>
</g>
<!-- Node42 -->
<g id="node42" class="node">
<title>Node42</title>
<g id="a_node42"><a xlink:title=" ">
<polygon fill="white" stroke="#bfbfbf" points="1059.5,-508 1059.5,-527 1114.5,-527 1114.5,-508 1059.5,-508"/>
<text text-anchor="middle" x="1087" y="-515" font-family="Helvetica,sans-Serif" font-size="10.00">fstream</text>
</a>
</g>
</g>
<!-- Node3&#45;&gt;Node42 -->
<g id="edge59" class="edge">
<title>Node3&#45;&gt;Node42</title>
<path fill="none" stroke="midnightblue" d="M1142.59,-569.4C1131.19,-558.96 1115.67,-544.75 1103.93,-534"/>
<polygon fill="midnightblue" stroke="midnightblue" points="1106.24,-531.37 1096.5,-527.19 1101.51,-536.53 1106.24,-531.37"/>
</g>
<!-- Node43 -->
<g id="node43" class="node">
<title>Node43</title>
<g id="a_node43"><a xlink:title=" ">
<polygon fill="white" stroke="#bfbfbf" points="1133,-508 1133,-527 1183,-527 1183,-508 1133,-508"/>
<text text-anchor="middle" x="1158" y="-515" font-family="Helvetica,sans-Serif" font-size="10.00">chrono</text>
</a>
</g>
</g>
<!-- Node3&#45;&gt;Node43 -->
<g id="edge64" class="edge">
<title>Node3&#45;&gt;Node43</title>
<path fill="none" stroke="midnightblue" d="M1158,-569.4C1158,-560.06 1158,-547.71 1158,-537.52"/>
<polygon fill="midnightblue" stroke="midnightblue" points="1161.5,-537.19 1158,-527.19 1154.5,-537.19 1161.5,-537.19"/>
</g>
<!-- Node44 -->
<g id="node44" class="node">
<title>Node44</title>
<g id="a_node44"><a xlink:title=" ">
<polygon fill="white" stroke="#bfbfbf" points="1201,-508 1201,-527 1245,-527 1245,-508 1201,-508"/>
<text text-anchor="middle" x="1223" y="-515" font-family="Helvetica,sans-Serif" font-size="10.00">ctime</text>
</a>
</g>
</g>
<!-- Node3&#45;&gt;Node44 -->
<g id="edge65" class="edge">
<title>Node3&#45;&gt;Node44</title>
<path fill="none" stroke="midnightblue" d="M1172.1,-569.4C1182.44,-559.06 1196.48,-545.02 1207.19,-534.31"/>
<polygon fill="midnightblue" stroke="midnightblue" points="1209.71,-536.74 1214.31,-527.19 1204.76,-531.79 1209.71,-536.74"/>
</g>
<!-- Node45 -->
<g id="node45" class="node">
<title>Node45</title>
<g id="a_node45"><a xlink:title=" ">
<polygon fill="white" stroke="#bfbfbf" points="1263,-502.5 1263,-532.5 1389,-532.5 1389,-502.5 1263,-502.5"/>
<text text-anchor="start" x="1271" y="-520.5" font-family="Helvetica,sans-Serif" font-size="10.00">packages/logging/impl</text>
<text text-anchor="middle" x="1326" y="-509.5" font-family="Helvetica,sans-Serif" font-size="10.00">/Logger_impl.hpp</text>
</a>
</g>
</g>
<!-- Node3&#45;&gt;Node45 -->
<g id="edge67" class="edge">
<title>Node3&#45;&gt;Node45</title>
<path fill="none" stroke="midnightblue" d="M1194.45,-569.4C1219.55,-559.69 1253.09,-546.71 1280.02,-536.29"/>
<polygon fill="midnightblue" stroke="midnightblue" points="1281.55,-539.45 1289.62,-532.58 1279.03,-532.92 1281.55,-539.45"/>
</g>
<!-- Node5 -->
<g id="node5" class="node">
<title>Node5</title>
<g id="a_node5"><a xlink:href="OutputStream_8hpp.html" target="_top" xlink:title=" ">
<polygon fill="white" stroke="black" points="492.5,-435.5 492.5,-465.5 611.5,-465.5 611.5,-435.5 492.5,-435.5"/>
<text text-anchor="start" x="500.5" y="-453.5" font-family="Helvetica,sans-Serif" font-size="10.00">packages/logging/inc</text>
<text text-anchor="middle" x="552" y="-442.5" font-family="Helvetica,sans-Serif" font-size="10.00">/OutputStream.hpp</text>
</a>
</g>
</g>
<!-- Node4&#45;&gt;Node5 -->
<g id="edge4" class="edge">
<title>Node4&#45;&gt;Node5</title>
<path fill="none" stroke="midnightblue" d="M914.68,-506.84C836.22,-494.87 702.97,-474.53 621.67,-462.13"/>
<polygon fill="midnightblue" stroke="midnightblue" points="621.95,-458.63 611.54,-460.58 620.89,-465.55 621.95,-458.63"/>
</g>
<!-- Node4&#45;&gt;Node38 -->
<g id="edge58" class="edge">
<title>Node4&#45;&gt;Node38</title>
<path fill="none" stroke="midnightblue" d="M1024.25,-502.43C1101.66,-476.97 1258.88,-416.83 1360,-321 1384.2,-298.07 1401.33,-262.58 1410.15,-241.19"/>
<polygon fill="midnightblue" stroke="midnightblue" points="1413.49,-242.27 1413.9,-231.68 1406.98,-239.7 1413.49,-242.27"/>
</g>
<!-- Node6 -->
<g id="node6" class="node">
<title>Node6</title>
<g id="a_node6"><a xlink:href="typedefs_8hpp.html" target="_top" xlink:title=" ">
<polygon fill="white" stroke="black" points="132.5,-285 132.5,-315 251.5,-315 251.5,-285 132.5,-285"/>
<text text-anchor="start" x="140.5" y="-303" font-family="Helvetica,sans-Serif" font-size="10.00">packages/macros/inc</text>
<text text-anchor="middle" x="192" y="-292" font-family="Helvetica,sans-Serif" font-size="10.00">/typedefs.hpp</text>
</a>
</g>
</g>
<!-- Node5&#45;&gt;Node6 -->
<g id="edge5" class="edge">
<title>Node5&#45;&gt;Node6</title>
<path fill="none" stroke="midnightblue" d="M492.14,-448.7C405.25,-446.23 250.25,-436.54 211,-399 191.3,-380.16 188.64,-347.48 189.51,-325.08"/>
<polygon fill="midnightblue" stroke="midnightblue" points="193.01,-325.22 190.16,-315.01 186.02,-324.77 193.01,-325.22"/>
</g>
<!-- Node5&#45;&gt;Node7 -->
<g id="edge56" class="edge">
<title>Node5&#45;&gt;Node7</title>
<path fill="none" stroke="midnightblue" d="M492.17,-446.41C402.66,-440.93 238.96,-427.3 188,-399 104.56,-352.66 94.6,-218.89 93.84,-169.3"/>
<polygon fill="midnightblue" stroke="midnightblue" points="97.34,-169.07 93.8,-159.08 90.34,-169.09 97.34,-169.07"/>
</g>
<!-- Node8 -->
<g id="node8" class="node">
<title>Node8</title>
<g id="a_node8"><a xlink:href="streamable_8hpp.html" target="_top" xlink:title=" ">
<polygon fill="white" stroke="black" points="220,-357.5 220,-398.5 352,-398.5 352,-357.5 220,-357.5"/>
<text text-anchor="start" x="228" y="-386.5" font-family="Helvetica,sans-Serif" font-size="10.00">packages/compile_time</text>
<text text-anchor="start" x="228" y="-375.5" font-family="Helvetica,sans-Serif" font-size="10.00">/packages/concepts/inc</text>
<text text-anchor="middle" x="286" y="-364.5" font-family="Helvetica,sans-Serif" font-size="10.00">/streamable.hpp</text>
</a>
</g>
</g>
<!-- Node5&#45;&gt;Node8 -->
<g id="edge7" class="edge">
<title>Node5&#45;&gt;Node8</title>
<path fill="none" stroke="midnightblue" d="M498.89,-435.49C462.81,-425.96 413.73,-413 361.95,-399.25"/>
<polygon fill="midnightblue" stroke="midnightblue" points="362.81,-395.86 352.25,-396.68 361.02,-402.62 362.81,-395.86"/>
</g>
<!-- Node25 -->
<g id="node25" class="node">
<title>Node25</title>
<g id="a_node25"><a xlink:href="container__concepts_8hpp.html" target="_top" xlink:title=" ">
<polygon fill="white" stroke="black" points="370.5,-357.5 370.5,-398.5 505.5,-398.5 505.5,-357.5 370.5,-357.5"/>
<text text-anchor="start" x="378.5" y="-386.5" font-family="Helvetica,sans-Serif" font-size="10.00">packages/compile_time</text>
<text text-anchor="start" x="378.5" y="-375.5" font-family="Helvetica,sans-Serif" font-size="10.00">/packages/concepts/inc</text>
<text text-anchor="middle" x="438" y="-364.5" font-family="Helvetica,sans-Serif" font-size="10.00">/container_concepts.hpp</text>
</a>
</g>
</g>
<!-- Node5&#45;&gt;Node25 -->
<g id="edge25" class="edge">
<title>Node5&#45;&gt;Node25</title>
<path fill="none" stroke="midnightblue" d="M529.2,-435.4C514.71,-426.44 495.53,-414.58 478.5,-404.04"/>
<polygon fill="midnightblue" stroke="midnightblue" points="480.17,-400.96 469.82,-398.68 476.49,-406.92 480.17,-400.96"/>
</g>
<!-- Node31 -->
<g id="node31" class="node">
<title>Node31</title>
<g id="a_node31"><a xlink:href="checks_8hpp.html" target="_top" xlink:title=" ">
<polygon fill="white" stroke="black" points="915.5,-363 915.5,-393 1034.5,-393 1034.5,-363 915.5,-363"/>
<text text-anchor="start" x="923.5" y="-381" font-family="Helvetica,sans-Serif" font-size="10.00">packages/macros/inc</text>
<text text-anchor="middle" x="975" y="-370" font-family="Helvetica,sans-Serif" font-size="10.00">/checks.hpp</text>
</a>
</g>
</g>
<!-- Node5&#45;&gt;Node31 -->
<g id="edge36" class="edge">
<title>Node5&#45;&gt;Node31</title>
<path fill="none" stroke="midnightblue" d="M611.71,-439.55C688.99,-426.67 823.42,-404.26 905.29,-390.62"/>
<polygon fill="midnightblue" stroke="midnightblue" points="905.97,-394.05 915.25,-388.96 904.81,-387.15 905.97,-394.05"/>
</g>
<!-- Node39 -->
<g id="node39" class="node">
<title>Node39</title>
<g id="a_node39"><a xlink:title=" ">
<polygon fill="white" stroke="#bfbfbf" points="523.5,-368.5 523.5,-387.5 580.5,-387.5 580.5,-368.5 523.5,-368.5"/>
<text text-anchor="middle" x="552" y="-375.5" font-family="Helvetica,sans-Serif" font-size="10.00">ostream</text>
</a>
</g>
</g>
<!-- Node5&#45;&gt;Node39 -->
<g id="edge54" class="edge">
<title>Node5&#45;&gt;Node39</title>
<path fill="none" stroke="midnightblue" d="M552,-435.23C552,-424.5 552,-409.69 552,-397.96"/>
<polygon fill="midnightblue" stroke="midnightblue" points="555.5,-397.89 552,-387.89 548.5,-397.89 555.5,-397.89"/>
</g>
<!-- Node40 -->
<g id="node40" class="node">
<title>Node40</title>
<g id="a_node40"><a xlink:title=" ">
<polygon fill="white" stroke="#bfbfbf" points="598.5,-368.5 598.5,-387.5 665.5,-387.5 665.5,-368.5 598.5,-368.5"/>
<text text-anchor="middle" x="632" y="-375.5" font-family="Helvetica,sans-Serif" font-size="10.00">streambuf</text>
</a>
</g>
</g>
<!-- Node5&#45;&gt;Node40 -->
<g id="edge55" class="edge">
<title>Node5&#45;&gt;Node40</title>
<path fill="none" stroke="midnightblue" d="M568.19,-435.23C581.5,-423.5 600.34,-406.9 614.09,-394.78"/>
<polygon fill="midnightblue" stroke="midnightblue" points="616.72,-397.13 621.91,-387.89 612.09,-391.88 616.72,-397.13"/>
</g>
<!-- Node41 -->
<g id="node41" class="node">
<title>Node41</title>
<g id="a_node41"><a xlink:title=" ">
<polygon fill="white" stroke="#bfbfbf" points="1053,-363 1053,-393 1189,-393 1189,-363 1053,-363"/>
<text text-anchor="start" x="1061" y="-381" font-family="Helvetica,sans-Serif" font-size="10.00">packages/logging/impl</text>
<text text-anchor="middle" x="1121" y="-370" font-family="Helvetica,sans-Serif" font-size="10.00">/OutputStream_impl.hpp</text>
</a>
</g>
</g>
<!-- Node5&#45;&gt;Node41 -->
<g id="edge57" class="edge">
<title>Node5&#45;&gt;Node41</title>
<path fill="none" stroke="midnightblue" d="M611.86,-446.29C704.9,-440.65 889.57,-426.82 1044,-399 1049.75,-397.96 1055.7,-396.73 1061.62,-395.38"/>
<polygon fill="midnightblue" stroke="midnightblue" points="1062.62,-398.74 1071.54,-393.03 1061,-391.93 1062.62,-398.74"/>
</g>
<!-- Node6&#45;&gt;Node7 -->
<g id="edge6" class="edge">
<title>Node6&#45;&gt;Node7</title>
<path fill="none" stroke="midnightblue" d="M173.57,-284.94C160.84,-274.48 144.25,-259.26 133,-243 116.84,-219.65 105.46,-188.55 99.31,-169.03"/>
<polygon fill="midnightblue" stroke="midnightblue" points="102.6,-167.82 96.37,-159.26 95.9,-169.84 102.6,-167.82"/>
</g>
<!-- Node9 -->
<g id="node9" class="node">
<title>Node9</title>
<g id="a_node9"><a xlink:href="basic__concepts_8hpp.html" target="_top" xlink:title=" ">
<polygon fill="white" stroke="black" points="175,-201.5 175,-242.5 307,-242.5 307,-201.5 175,-201.5"/>
<text text-anchor="start" x="183" y="-230.5" font-family="Helvetica,sans-Serif" font-size="10.00">packages/compile_time</text>
<text text-anchor="start" x="183" y="-219.5" font-family="Helvetica,sans-Serif" font-size="10.00">/packages/concepts/inc</text>
<text text-anchor="middle" x="241" y="-208.5" font-family="Helvetica,sans-Serif" font-size="10.00">/basic_concepts.hpp</text>
</a>
</g>
</g>
<!-- Node8&#45;&gt;Node9 -->
<g id="edge8" class="edge">
<title>Node8&#45;&gt;Node9</title>
<path fill="none" stroke="midnightblue" d="M281.21,-357.37C276.26,-337.5 268.14,-305.96 260,-279 257.36,-270.24 254.25,-260.79 251.32,-252.2"/>
<polygon fill="midnightblue" stroke="midnightblue" points="254.58,-250.9 248.01,-242.59 247.96,-253.19 254.58,-250.9"/>
</g>
<!-- Node23 -->
<g id="node23" class="node">
<title>Node23</title>
<g id="a_node23"><a xlink:title=" ">
<polygon fill="white" stroke="#bfbfbf" points="729,-212.5 729,-231.5 785,-231.5 785,-212.5 729,-212.5"/>
<text text-anchor="middle" x="757" y="-219.5" font-family="Helvetica,sans-Serif" font-size="10.00">sstream</text>
</a>
</g>
</g>
<!-- Node8&#45;&gt;Node23 -->
<g id="edge23" class="edge">
<title>Node8&#45;&gt;Node23</title>
<path fill="none" stroke="midnightblue" d="M352.11,-359.32C410.34,-343.73 486.98,-323.15 494,-321 595.59,-289.84 622.72,-285.74 720,-243 724.41,-241.06 729,-238.8 733.38,-236.5"/>
<polygon fill="midnightblue" stroke="midnightblue" points="735.4,-239.39 742.51,-231.54 732.05,-233.24 735.4,-239.39"/>
</g>
<!-- Node8&#45;&gt;Node24 -->
<g id="edge24" class="edge">
<title>Node8&#45;&gt;Node24</title>
<path fill="none" stroke="midnightblue" d="M225.74,-357.43C181.3,-343 122.46,-323.88 85.93,-312.02"/>
<polygon fill="midnightblue" stroke="midnightblue" points="86.84,-308.64 76.25,-308.88 84.68,-315.29 86.84,-308.64"/>
</g>
<!-- Node10 -->
<g id="node10" class="node">
<title>Node10</title>
<g id="a_node10"><a xlink:href="types_8hpp.html" target="_top" xlink:title=" ">
<polygon fill="white" stroke="black" points="487,-134.5 487,-164.5 597,-164.5 597,-134.5 487,-134.5"/>
<text text-anchor="start" x="495" y="-152.5" font-family="Helvetica,sans-Serif" font-size="10.00">packages/types/inc</text>
<text text-anchor="middle" x="542" y="-141.5" font-family="Helvetica,sans-Serif" font-size="10.00">/types.hpp</text>
</a>
</g>
</g>
<!-- Node9&#45;&gt;Node10 -->
<g id="edge9" class="edge">
<title>Node9&#45;&gt;Node10</title>
<path fill="none" stroke="midnightblue" d="M307.22,-203.19C310.18,-202.44 313.12,-201.71 316,-201 318.01,-200.51 410.81,-179.78 476.86,-165.04"/>
<polygon fill="midnightblue" stroke="midnightblue" points="477.8,-168.41 486.8,-162.82 476.28,-161.58 477.8,-168.41"/>
</g>
<!-- Node16 -->
<g id="node16" class="node">
<title>Node16</title>
<g id="a_node16"><a xlink:title=" ">
<polygon fill="white" stroke="#bfbfbf" points="204.5,-73 204.5,-92 273.5,-92 273.5,-73 204.5,-73"/>
<text text-anchor="middle" x="239" y="-80" font-family="Helvetica,sans-Serif" font-size="10.00">type_traits</text>
</a>
</g>
</g>
<!-- Node9&#45;&gt;Node16 -->
<g id="edge20" class="edge">
<title>Node9&#45;&gt;Node16</title>
<path fill="none" stroke="midnightblue" d="M203.92,-201.27C190.68,-192.15 177.26,-179.97 170,-165 163.99,-152.6 163.77,-146.29 170,-134 178.34,-117.56 194.84,-105.18 209.6,-96.8"/>
<polygon fill="midnightblue" stroke="midnightblue" points="211.29,-99.86 218.49,-92.09 208.01,-93.68 211.29,-99.86"/>
</g>
<!-- Node20 -->
<g id="node20" class="node">
<title>Node20</title>
<g id="a_node20"><a xlink:title=" ">
<polygon fill="white" stroke="#bfbfbf" points="311,-140 311,-159 371,-159 371,-140 311,-140"/>
<text text-anchor="middle" x="341" y="-147" font-family="Helvetica,sans-Serif" font-size="10.00">concepts</text>
</a>
</g>
</g>
<!-- Node9&#45;&gt;Node20 -->
<g id="edge19" class="edge">
<title>Node9&#45;&gt;Node20</title>
<path fill="none" stroke="midnightblue" d="M268.86,-201.36C285.13,-189.89 305.32,-175.65 320.2,-165.16"/>
<polygon fill="midnightblue" stroke="midnightblue" points="322.54,-167.8 328.7,-159.17 318.51,-162.07 322.54,-167.8"/>
</g>
<!-- Node21 -->
<g id="node21" class="node">
<title>Node21</title>
<g id="a_node21"><a xlink:title=" ">
<polygon fill="white" stroke="#bfbfbf" points="179,-140 179,-159 229,-159 229,-140 179,-140"/>
<text text-anchor="middle" x="204" y="-147" font-family="Helvetica,sans-Serif" font-size="10.00">cstdint</text>
</a>
</g>
</g>
<!-- Node9&#45;&gt;Node21 -->
<g id="edge21" class="edge">
<title>Node9&#45;&gt;Node21</title>
<path fill="none" stroke="midnightblue" d="M230.69,-201.36C225.24,-190.97 218.6,-178.32 213.3,-168.23"/>
<polygon fill="midnightblue" stroke="midnightblue" points="216.3,-166.4 208.55,-159.17 210.1,-169.65 216.3,-166.4"/>
</g>
<!-- Node22 -->
<g id="node22" class="node">
<title>Node22</title>
<g id="a_node22"><a xlink:title=" ">
<polygon fill="white" stroke="#bfbfbf" points="247.5,-140 247.5,-159 292.5,-159 292.5,-140 247.5,-140"/>
<text text-anchor="middle" x="270" y="-147" font-family="Helvetica,sans-Serif" font-size="10.00">utility</text>
</a>
</g>
</g>
<!-- Node9&#45;&gt;Node22 -->
<g id="edge22" class="edge">
<title>Node9&#45;&gt;Node22</title>
<path fill="none" stroke="midnightblue" d="M249.08,-201.36C253.31,-191.08 258.45,-178.58 262.58,-168.54"/>
<polygon fill="midnightblue" stroke="midnightblue" points="265.86,-169.75 266.43,-159.17 259.39,-167.09 265.86,-169.75"/>
</g>
<!-- Node11 -->
<g id="node11" class="node">
<title>Node11</title>
<g id="a_node11"><a xlink:href="debug_8hpp.html" target="_top" xlink:title=" ">
<polygon fill="white" stroke="black" points="703.5,-67.5 703.5,-97.5 822.5,-97.5 822.5,-67.5 703.5,-67.5"/>
<text text-anchor="start" x="711.5" y="-85.5" font-family="Helvetica,sans-Serif" font-size="10.00">packages/macros/inc</text>
<text text-anchor="middle" x="763" y="-74.5" font-family="Helvetica,sans-Serif" font-size="10.00">/debug.hpp</text>
</a>
</g>
</g>
<!-- Node10&#45;&gt;Node11 -->
<g id="edge10" class="edge">
<title>Node10&#45;&gt;Node11</title>
<path fill="none" stroke="midnightblue" d="M589.68,-134.48C623.55,-124.51 669.21,-111.09 705.16,-100.51"/>
<polygon fill="midnightblue" stroke="midnightblue" points="706.42,-103.79 715.02,-97.61 704.44,-97.07 706.42,-103.79"/>
</g>
<!-- Node14 -->
<g id="node14" class="node">
<title>Node14</title>
<g id="a_node14"><a xlink:title=" ">
<polygon fill="white" stroke="#bfbfbf" points="291.5,-73 291.5,-92 344.5,-92 344.5,-73 291.5,-73"/>
<text text-anchor="middle" x="318" y="-80" font-family="Helvetica,sans-Serif" font-size="10.00">cstddef</text>
</a>
</g>
</g>
<!-- Node10&#45;&gt;Node14 -->
<g id="edge13" class="edge">
<title>Node10&#45;&gt;Node14</title>
<path fill="none" stroke="midnightblue" d="M486.77,-135.53C449.04,-126.21 398.07,-112.74 354,-98 351.87,-97.29 349.69,-96.52 347.5,-95.71"/>
<polygon fill="midnightblue" stroke="midnightblue" points="348.61,-92.39 338.02,-92.06 346.1,-98.92 348.61,-92.39"/>
</g>
<!-- Node10&#45;&gt;Node15 -->
<g id="edge14" class="edge">
<title>Node10&#45;&gt;Node15</title>
<path fill="none" stroke="midnightblue" d="M597.08,-143.72C744.17,-130.96 1142.92,-96.35 1258.93,-86.28"/>
<polygon fill="midnightblue" stroke="midnightblue" points="1259.3,-89.76 1268.96,-85.41 1258.69,-82.79 1259.3,-89.76"/>
</g>
<!-- Node10&#45;&gt;Node16 -->
<g id="edge15" class="edge">
<title>Node10&#45;&gt;Node16</title>
<path fill="none" stroke="midnightblue" d="M486.71,-136.02C483.43,-135.32 480.17,-134.65 477,-134 390.64,-116.4 367.31,-120.14 282,-98 278.8,-97.17 275.49,-96.22 272.19,-95.21"/>
<polygon fill="midnightblue" stroke="midnightblue" points="273.07,-91.82 262.47,-92.09 270.92,-98.48 273.07,-91.82"/>
</g>
<!-- Node17 -->
<g id="node17" class="node">
<title>Node17</title>
<g id="a_node17"><a xlink:title=" ">
<polygon fill="white" stroke="#bfbfbf" points="363,-73 363,-92 413,-92 413,-73 363,-73"/>
<text text-anchor="middle" x="388" y="-80" font-family="Helvetica,sans-Serif" font-size="10.00">climits</text>
</a>
</g>
</g>
<!-- Node10&#45;&gt;Node17 -->
<g id="edge16" class="edge">
<title>Node10&#45;&gt;Node17</title>
<path fill="none" stroke="midnightblue" d="M508.36,-134.39C484.29,-124.29 451.14,-110.34 422,-98 420.6,-97.41 419.16,-96.8 417.71,-96.18"/>
<polygon fill="midnightblue" stroke="midnightblue" points="418.7,-92.8 408.13,-92.1 415.96,-99.24 418.7,-92.8"/>
</g>
<!-- Node18 -->
<g id="node18" class="node">
<title>Node18</title>
<g id="a_node18"><a xlink:title=" ">
<polygon fill="white" stroke="#bfbfbf" points="431.5,-67.5 431.5,-97.5 548.5,-97.5 548.5,-67.5 431.5,-67.5"/>
<text text-anchor="start" x="439.5" y="-85.5" font-family="Helvetica,sans-Serif" font-size="10.00">packages/types/impl</text>
<text text-anchor="middle" x="490" y="-74.5" font-family="Helvetica,sans-Serif" font-size="10.00">/types_impl.hpp</text>
</a>
</g>
</g>
<!-- Node10&#45;&gt;Node18 -->
<g id="edge17" class="edge">
<title>Node10&#45;&gt;Node18</title>
<path fill="none" stroke="midnightblue" d="M530.72,-134.4C523.97,-125.96 515.25,-115.07 507.62,-105.52"/>
<polygon fill="midnightblue" stroke="midnightblue" points="510.24,-103.2 501.26,-97.58 504.78,-107.57 510.24,-103.2"/>
</g>
<!-- Node19 -->
<g id="node19" class="node">
<title>Node19</title>
<g id="a_node19"><a xlink:href="logging_8hpp.html" target="_top" xlink:title=" ">
<polygon fill="white" stroke="black" points="566.5,-67.5 566.5,-97.5 685.5,-97.5 685.5,-67.5 566.5,-67.5"/>
<text text-anchor="start" x="574.5" y="-85.5" font-family="Helvetica,sans-Serif" font-size="10.00">packages/macros/inc</text>
<text text-anchor="middle" x="626" y="-74.5" font-family="Helvetica,sans-Serif" font-size="10.00">/logging.hpp</text>
</a>
</g>
</g>
<!-- Node10&#45;&gt;Node19 -->
<g id="edge18" class="edge">
<title>Node10&#45;&gt;Node19</title>
<path fill="none" stroke="midnightblue" d="M560.23,-134.4C571.78,-125.45 586.92,-113.74 599.76,-103.8"/>
<polygon fill="midnightblue" stroke="midnightblue" points="602.04,-106.46 607.81,-97.58 597.76,-100.93 602.04,-106.46"/>
</g>
<!-- Node12 -->
<g id="node12" class="node">
<title>Node12</title>
<g id="a_node12"><a xlink:href="detail_8hpp.html" target="_top" xlink:title=" ">
<polygon fill="white" stroke="black" points="801.5,-0.5 801.5,-30.5 920.5,-30.5 920.5,-0.5 801.5,-0.5"/>
<text text-anchor="start" x="809.5" y="-18.5" font-family="Helvetica,sans-Serif" font-size="10.00">packages/macros/inc</text>
<text text-anchor="middle" x="861" y="-7.5" font-family="Helvetica,sans-Serif" font-size="10.00">/detail.hpp</text>
</a>
</g>
</g>
<!-- Node11&#45;&gt;Node12 -->
<g id="edge11" class="edge">
<title>Node11&#45;&gt;Node12</title>
<path fill="none" stroke="midnightblue" d="M784.26,-67.4C798.01,-58.28 816.09,-46.29 831.24,-36.24"/>
<polygon fill="midnightblue" stroke="midnightblue" points="833.38,-39.02 839.78,-30.58 829.51,-33.19 833.38,-39.02"/>
</g>
<!-- Node13 -->
<g id="node13" class="node">
<title>Node13</title>
<g id="a_node13"><a xlink:title=" ">
<polygon fill="white" stroke="#bfbfbf" points="723,-6 723,-25 783,-25 783,-6 723,-6"/>
<text text-anchor="middle" x="753" y="-13" font-family="Helvetica,sans-Serif" font-size="10.00">iostream</text>
</a>
</g>
</g>
<!-- Node11&#45;&gt;Node13 -->
<g id="edge12" class="edge">
<title>Node11&#45;&gt;Node13</title>
<path fill="none" stroke="midnightblue" d="M760.83,-67.4C759.38,-57.96 757.45,-45.45 755.88,-35.19"/>
<polygon fill="midnightblue" stroke="midnightblue" points="759.32,-34.55 754.34,-25.19 752.4,-35.61 759.32,-34.55"/>
</g>
<!-- Node26 -->
<g id="node26" class="node">
<title>Node26</title>
<g id="a_node26"><a xlink:href="iterator__concepts_8hpp.html" target="_top" xlink:title=" ">
<polygon fill="white" stroke="black" points="353,-279.5 353,-320.5 485,-320.5 485,-279.5 353,-279.5"/>
<text text-anchor="start" x="361" y="-308.5" font-family="Helvetica,sans-Serif" font-size="10.00">packages/compile_time</text>
<text text-anchor="start" x="361" y="-297.5" font-family="Helvetica,sans-Serif" font-size="10.00">/packages/concepts/inc</text>
<text text-anchor="middle" x="419" y="-286.5" font-family="Helvetica,sans-Serif" font-size="10.00">/iterator_concepts.hpp</text>
</a>
</g>
</g>
<!-- Node25&#45;&gt;Node26 -->
<g id="edge26" class="edge">
<title>Node25&#45;&gt;Node26</title>
<path fill="none" stroke="midnightblue" d="M433.11,-357.43C431.05,-349.18 428.6,-339.41 426.33,-330.34"/>
<polygon fill="midnightblue" stroke="midnightblue" points="429.7,-329.36 423.88,-320.51 422.91,-331.06 429.7,-329.36"/>
</g>
<!-- Node26&#45;&gt;Node7 -->
<g id="edge35" class="edge">
<title>Node26&#45;&gt;Node7</title>
<path fill="none" stroke="midnightblue" d="M352.98,-289.58C288.79,-279.51 196.61,-262.35 166,-243 165,-242.37 127.45,-193.84 106.99,-167.33"/>
<polygon fill="midnightblue" stroke="midnightblue" points="109.66,-165.07 100.78,-159.29 104.12,-169.35 109.66,-165.07"/>
</g>
<!-- Node26&#45;&gt;Node9 -->
<g id="edge27" class="edge">
<title>Node26&#45;&gt;Node9</title>
<path fill="none" stroke="midnightblue" d="M373.16,-279.43C349.6,-269.37 320.7,-257.03 295.95,-246.46"/>
<polygon fill="midnightblue" stroke="midnightblue" points="297.26,-243.21 286.68,-242.51 294.51,-249.65 297.26,-243.21"/>
</g>
<!-- Node27 -->
<g id="node27" class="node">
<title>Node27</title>
<g id="a_node27"><a xlink:href="Size_8hpp.html" target="_top" xlink:title=" ">
<polygon fill="white" stroke="black" points="491,-201.5 491,-242.5 639,-242.5 639,-201.5 491,-201.5"/>
<text text-anchor="start" x="499" y="-230.5" font-family="Helvetica,sans-Serif" font-size="10.00">packages/compile_time</text>
<text text-anchor="start" x="499" y="-219.5" font-family="Helvetica,sans-Serif" font-size="10.00">/packages/parameter_pack</text>
<text text-anchor="middle" x="565" y="-208.5" font-family="Helvetica,sans-Serif" font-size="10.00">/inc/Size.hpp</text>
</a>
</g>
</g>
<!-- Node26&#45;&gt;Node27 -->
<g id="edge28" class="edge">
<title>Node26&#45;&gt;Node27</title>
<path fill="none" stroke="midnightblue" d="M456.6,-279.43C475.5,-269.59 498.58,-257.57 518.58,-247.16"/>
<polygon fill="midnightblue" stroke="midnightblue" points="520.27,-250.23 527.53,-242.51 517.04,-244.02 520.27,-250.23"/>
</g>
<!-- Node28 -->
<g id="node28" class="node">
<title>Node28</title>
<g id="a_node28"><a xlink:href="Select_8hpp.html" target="_top" xlink:title=" ">
<polygon fill="white" stroke="black" points="325,-201.5 325,-242.5 473,-242.5 473,-201.5 325,-201.5"/>
<text text-anchor="start" x="333" y="-230.5" font-family="Helvetica,sans-Serif" font-size="10.00">packages/compile_time</text>
<text text-anchor="start" x="333" y="-219.5" font-family="Helvetica,sans-Serif" font-size="10.00">/packages/parameter_pack</text>
<text text-anchor="middle" x="399" y="-208.5" font-family="Helvetica,sans-Serif" font-size="10.00">/inc/Select.hpp</text>
</a>
</g>
</g>
<!-- Node26&#45;&gt;Node28 -->
<g id="edge30" class="edge">
<title>Node26&#45;&gt;Node28</title>
<path fill="none" stroke="midnightblue" d="M413.85,-279.43C411.68,-271.18 409.11,-261.41 406.72,-252.34"/>
<polygon fill="midnightblue" stroke="midnightblue" points="410.06,-251.29 404.13,-242.51 403.29,-253.07 410.06,-251.29"/>
</g>
<!-- Node30 -->
<g id="node30" class="node">
<title>Node30</title>
<g id="a_node30"><a xlink:title=" ">
<polygon fill="white" stroke="#bfbfbf" points="657.5,-212.5 657.5,-231.5 710.5,-231.5 710.5,-212.5 657.5,-212.5"/>
<text text-anchor="middle" x="684" y="-219.5" font-family="Helvetica,sans-Serif" font-size="10.00">iterator</text>
</a>
</g>
</g>
<!-- Node26&#45;&gt;Node30 -->
<g id="edge34" class="edge">
<title>Node26&#45;&gt;Node30</title>
<path fill="none" stroke="midnightblue" d="M485.08,-287.71C531.62,-278.59 594.84,-263.83 648,-243 652.46,-241.25 657.06,-239.05 661.41,-236.74"/>
<polygon fill="midnightblue" stroke="midnightblue" points="663.4,-239.64 670.4,-231.69 659.97,-233.54 663.4,-239.64"/>
</g>
<!-- Node27&#45;&gt;Node10 -->
<g id="edge29" class="edge">
<title>Node27&#45;&gt;Node10</title>
<path fill="none" stroke="midnightblue" d="M558.59,-201.36C555.88,-193.05 552.69,-183.28 549.84,-174.53"/>
<polygon fill="midnightblue" stroke="midnightblue" points="553.12,-173.31 546.7,-164.89 546.47,-175.48 553.12,-173.31"/>
</g>
<!-- Node28&#45;&gt;Node10 -->
<g id="edge31" class="edge">
<title>Node28&#45;&gt;Node10</title>
<path fill="none" stroke="midnightblue" d="M438.83,-201.36C459.24,-191.3 483.95,-179.12 504.08,-169.2"/>
<polygon fill="midnightblue" stroke="midnightblue" points="505.84,-172.23 513.26,-164.67 502.74,-165.95 505.84,-172.23"/>
</g>
<!-- Node28&#45;&gt;Node16 -->
<g id="edge32" class="edge">
<title>Node28&#45;&gt;Node16</title>
<path fill="none" stroke="midnightblue" d="M399.88,-201.31C399.67,-181.92 396.33,-152.58 380,-134 378.15,-131.89 314.58,-109.63 273.44,-95.38"/>
<polygon fill="midnightblue" stroke="midnightblue" points="274.37,-91.99 263.77,-92.03 272.08,-98.61 274.37,-91.99"/>
</g>
<!-- Node29 -->
<g id="node29" class="node">
<title>Node29</title>
<g id="a_node29"><a xlink:title=" ">
<polygon fill="white" stroke="#bfbfbf" points="427.5,-140 427.5,-159 468.5,-159 468.5,-140 427.5,-140"/>
<text text-anchor="middle" x="448" y="-147" font-family="Helvetica,sans-Serif" font-size="10.00">tuple</text>
</a>
</g>
</g>
<!-- Node28&#45;&gt;Node29 -->
<g id="edge33" class="edge">
<title>Node28&#45;&gt;Node29</title>
<path fill="none" stroke="midnightblue" d="M412.65,-201.36C420.02,-190.76 429.03,-177.79 436.12,-167.6"/>
<polygon fill="midnightblue" stroke="midnightblue" points="439.14,-169.38 441.97,-159.17 433.39,-165.39 439.14,-169.38"/>
</g>
<!-- Node31&#45;&gt;Node12 -->
<g id="edge49" class="edge">
<title>Node31&#45;&gt;Node12</title>
<path fill="none" stroke="midnightblue" d="M1004.51,-362.88C1076.04,-326.75 1248.18,-227.17 1183,-134 1126.19,-52.8 1007.04,-27.52 930.69,-19.77"/>
<polygon fill="midnightblue" stroke="midnightblue" points="930.96,-16.28 920.68,-18.83 930.31,-23.25 930.96,-16.28"/>
</g>
<!-- Node31&#45;&gt;Node23 -->
<g id="edge53" class="edge">
<title>Node31&#45;&gt;Node23</title>
<path fill="none" stroke="midnightblue" d="M915.43,-371.59C851.28,-364.38 755.38,-349.14 733,-321 714.28,-297.46 731.47,-261.41 744.82,-240.22"/>
<polygon fill="midnightblue" stroke="midnightblue" points="747.91,-241.89 750.54,-231.63 742.08,-238.01 747.91,-241.89"/>
</g>
<!-- Node32 -->
<g id="node32" class="node">
<title>Node32</title>
<g id="a_node32"><a xlink:href="exception_8hpp.html" target="_top" xlink:title=" ">
<polygon fill="white" stroke="black" points="917.5,-207 917.5,-237 1036.5,-237 1036.5,-207 917.5,-207"/>
<text text-anchor="start" x="925.5" y="-225" font-family="Helvetica,sans-Serif" font-size="10.00">packages/exceptions</text>
<text text-anchor="middle" x="977" y="-214" font-family="Helvetica,sans-Serif" font-size="10.00">/inc/exception.hpp</text>
</a>
</g>
</g>
<!-- Node31&#45;&gt;Node32 -->
<g id="edge37" class="edge">
<title>Node31&#45;&gt;Node32</title>
<path fill="none" stroke="midnightblue" d="M975.18,-362.79C975.53,-336.43 976.26,-279.7 976.69,-247.19"/>
<polygon fill="midnightblue" stroke="midnightblue" points="980.19,-247.22 976.82,-237.18 973.19,-247.13 980.19,-247.22"/>
</g>
<!-- Node36 -->
<g id="node36" class="node">
<title>Node36</title>
<g id="a_node36"><a xlink:href="exceptions_8hpp.html" target="_top" xlink:title=" ">
<polygon fill="white" stroke="black" points="741.5,-285 741.5,-315 860.5,-315 860.5,-285 741.5,-285"/>
<text text-anchor="start" x="749.5" y="-303" font-family="Helvetica,sans-Serif" font-size="10.00">packages/macros/inc</text>
<text text-anchor="middle" x="801" y="-292" font-family="Helvetica,sans-Serif" font-size="10.00">/exceptions.hpp</text>
</a>
</g>
</g>
<!-- Node31&#45;&gt;Node36 -->
<g id="edge44" class="edge">
<title>Node31&#45;&gt;Node36</title>
<path fill="none" stroke="midnightblue" d="M942.68,-362.88C914.36,-350.51 873.03,-332.46 842.31,-319.04"/>
<polygon fill="midnightblue" stroke="midnightblue" points="843.71,-315.84 833.15,-315.04 840.91,-322.25 843.71,-315.84"/>
</g>
<!-- Node37 -->
<g id="node37" class="node">
<title>Node37</title>
<g id="a_node37"><a xlink:href="cmake__variables_8hpp.html" target="_top" xlink:title=" ">
<polygon fill="white" stroke="black" points="1231,-290.5 1231,-309.5 1351,-309.5 1351,-290.5 1231,-290.5"/>
<text text-anchor="middle" x="1291" y="-297.5" font-family="Helvetica,sans-Serif" font-size="10.00">cmake_variables.hpp</text>
</a>
</g>
</g>
<!-- Node31&#45;&gt;Node37 -->
<g id="edge50" class="edge">
<title>Node31&#45;&gt;Node37</title>
<path fill="none" stroke="midnightblue" d="M1021.63,-362.96C1029.09,-360.86 1036.74,-358.81 1044,-357 1120.22,-338.05 1140.61,-339.25 1217,-321 1228.1,-318.35 1240.07,-315.23 1251.07,-312.25"/>
<polygon fill="midnightblue" stroke="midnightblue" points="1252.14,-315.59 1260.86,-309.58 1250.29,-308.84 1252.14,-315.59"/>
</g>
<!-- Node32&#45;&gt;Node7 -->
<g id="edge42" class="edge">
<title>Node32&#45;&gt;Node7</title>
<path fill="none" stroke="midnightblue" d="M917.32,-213.7C881.59,-209.52 835.24,-204.44 794,-201 517.17,-177.9 445.69,-199.1 170,-165 157.94,-163.51 144.91,-161.26 133.1,-158.97"/>
<polygon fill="midnightblue" stroke="midnightblue" points="133.58,-155.5 123.09,-156.98 132.21,-162.37 133.58,-155.5"/>
</g>
<!-- Node32&#45;&gt;Node10 -->
<g id="edge38" class="edge">
<title>Node32&#45;&gt;Node10</title>
<path fill="none" stroke="midnightblue" d="M917.43,-211.35C836.15,-198.17 691.03,-174.65 607.02,-161.04"/>
<polygon fill="midnightblue" stroke="midnightblue" points="607.51,-157.57 597.08,-159.43 606.39,-164.48 607.51,-157.57"/>
</g>
<!-- Node32&#45;&gt;Node15 -->
<g id="edge40" class="edge">
<title>Node32&#45;&gt;Node15</title>
<path fill="none" stroke="midnightblue" d="M1036.86,-211C1079.17,-202.45 1136.41,-187.85 1183,-165 1218.77,-147.46 1254.56,-117.38 1274.63,-99.08"/>
<polygon fill="midnightblue" stroke="midnightblue" points="1277.04,-101.62 1281.99,-92.25 1272.28,-96.49 1277.04,-101.62"/>
</g>
<!-- Node33 -->
<g id="node33" class="node">
<title>Node33</title>
<g id="a_node33"><a xlink:title=" ">
<polygon fill="white" stroke="#bfbfbf" points="944.5,-140 944.5,-159 1009.5,-159 1009.5,-140 944.5,-140"/>
<text text-anchor="middle" x="977" y="-147" font-family="Helvetica,sans-Serif" font-size="10.00">stdexcept</text>
</a>
</g>
</g>
<!-- Node32&#45;&gt;Node33 -->
<g id="edge39" class="edge">
<title>Node32&#45;&gt;Node33</title>
<path fill="none" stroke="midnightblue" d="M977,-206.73C977,-196 977,-181.19 977,-169.46"/>
<polygon fill="midnightblue" stroke="midnightblue" points="980.5,-169.39 977,-159.39 973.5,-169.39 980.5,-169.39"/>
</g>
<!-- Node32&#45;&gt;Node34 -->
<g id="edge41" class="edge">
<title>Node32&#45;&gt;Node34</title>
<path fill="none" stroke="midnightblue" d="M962.02,-206.73C949.83,-195.12 932.62,-178.72 919.92,-166.62"/>
<polygon fill="midnightblue" stroke="midnightblue" points="921.99,-163.76 912.33,-159.39 917.16,-168.83 921.99,-163.76"/>
</g>
<!-- Node35 -->
<g id="node35" class="node">
<title>Node35</title>
<g id="a_node35"><a xlink:title=" ">
<polygon fill="white" stroke="#bfbfbf" points="1028,-134.5 1028,-164.5 1174,-164.5 1174,-134.5 1028,-134.5"/>
<text text-anchor="start" x="1036" y="-152.5" font-family="Helvetica,sans-Serif" font-size="10.00">packages/exceptions</text>
<text text-anchor="middle" x="1101" y="-141.5" font-family="Helvetica,sans-Serif" font-size="10.00">/impl/exceptions_impl.hpp</text>
</a>
</g>
</g>
<!-- Node32&#45;&gt;Node35 -->
<g id="edge43" class="edge">
<title>Node32&#45;&gt;Node35</title>
<path fill="none" stroke="midnightblue" d="M1001.8,-206.9C1020.63,-196.19 1046.75,-181.35 1067.45,-169.57"/>
<polygon fill="midnightblue" stroke="midnightblue" points="1069.28,-172.56 1076.25,-164.57 1065.82,-166.47 1069.28,-172.56"/>
</g>
<!-- Node36&#45;&gt;Node12 -->
<g id="edge46" class="edge">
<title>Node36&#45;&gt;Node12</title>
<path fill="none" stroke="midnightblue" d="M804.74,-284.77C807.67,-273.48 811.77,-257.27 815,-243 831.63,-169.53 848.61,-82.02 856.48,-40.56"/>
<polygon fill="midnightblue" stroke="midnightblue" points="859.94,-41.07 858.36,-30.59 853.07,-39.77 859.94,-41.07"/>
</g>
<!-- Node36&#45;&gt;Node20 -->
<g id="edge48" class="edge">
<title>Node36&#45;&gt;Node20</title>
<path fill="none" stroke="midnightblue" d="M805.02,-284.74C810.07,-263.38 815.68,-223.21 794,-201 764.68,-170.97 459.55,-170.89 418,-165 406.02,-163.3 393.07,-161.03 381.27,-158.8"/>
<polygon fill="midnightblue" stroke="midnightblue" points="381.73,-155.32 371.25,-156.85 380.4,-162.19 381.73,-155.32"/>
</g>
<!-- Node36&#45;&gt;Node23 -->
<g id="edge47" class="edge">
<title>Node36&#45;&gt;Node23</title>
<path fill="none" stroke="midnightblue" d="M792.72,-284.7C785.43,-272.11 774.79,-253.73 767.02,-240.31"/>
<polygon fill="midnightblue" stroke="midnightblue" points="770,-238.46 761.96,-231.56 763.94,-241.97 770,-238.46"/>
</g>
<!-- Node36&#45;&gt;Node32 -->
<g id="edge45" class="edge">
<title>Node36&#45;&gt;Node32</title>
<path fill="none" stroke="midnightblue" d="M833.69,-284.88C862.34,-272.51 904.14,-254.46 935.21,-241.04"/>
<polygon fill="midnightblue" stroke="midnightblue" points="936.69,-244.22 944.48,-237.04 933.92,-237.79 936.69,-244.22"/>
</g>
<!-- Node37&#45;&gt;Node15 -->
<g id="edge52" class="edge">
<title>Node37&#45;&gt;Node15</title>
<path fill="none" stroke="midnightblue" d="M1291,-290.29C1291,-258.27 1291,-146.69 1291,-102.11"/>
<polygon fill="midnightblue" stroke="midnightblue" points="1294.5,-102.09 1291,-92.09 1287.5,-102.09 1294.5,-102.09"/>
</g>
<!-- Node37&#45;&gt;Node38 -->
<g id="edge51" class="edge">
<title>Node37&#45;&gt;Node38</title>
<path fill="none" stroke="midnightblue" d="M1305.45,-290.28C1327.1,-277.23 1368.15,-252.47 1393.96,-236.9"/>
<polygon fill="midnightblue" stroke="midnightblue" points="1395.96,-239.78 1402.71,-231.62 1392.34,-233.78 1395.96,-239.78"/>
</g>
</g>
</svg>
