<?xml version="1.0" encoding="UTF-8" standalone="no"?>
<!DOCTYPE svg PUBLIC "-//W3C//DTD SVG 1.1//EN"
 "http://www.w3.org/Graphics/SVG/1.1/DTD/svg11.dtd">
<!-- Generated by graphviz version 2.43.0 (0)
 -->
<!-- Title: zip.hpp Pages: 1 -->
<!--zoomable 463 -->
<svg id="main" version="1.1" xmlns="http://www.w3.org/2000/svg" xmlns:xlink="http://www.w3.org/1999/xlink" xml:space="preserve" onload="init(evt)">
<style type="text/css"><![CDATA[
.edge:hover path { stroke: red; }
.edge:hover polygon { stroke: red; fill: red; }
]]></style>
<script type="text/javascript"><![CDATA[
var edges = document.getElementsByTagName('g');
if (edges && edges.length) {
  for (var i=0;i<edges.length;i++) {
    if (edges[i].id.substr(0,4)=='edge') {
      edges[i].setAttribute('class','edge');
    }
  }
}
]]></script>
        <defs>
                <circle id="rim" cx="0" cy="0" r="7"/>
                <circle id="rim2" cx="0" cy="0" r="3.5"/>
                <g id="zoomPlus">
                        <use xlink:href="#rim" fill="#404040">
                                <set attributeName="fill" to="#808080" begin="zoomplus.mouseover" end="zoomplus.mouseout"/>
                        </use>
                        <path d="M-4,0h8M0,-4v8" fill="none" stroke="white" stroke-width="1.5" pointer-events="none"/>
                </g>
                <g id="zoomMin">
                        <use xlink:href="#rim" fill="#404040">
                                <set attributeName="fill" to="#808080" begin="zoomminus.mouseover" end="zoomminus.mouseout"/>
                        </use>
                        <path d="M-4,0h8" fill="none" stroke="white" stroke-width="1.5" pointer-events="none"/>
                </g>
                <g id="dirArrow">
                        <path fill="none" stroke="white" stroke-width="1.5" d="M0,-3.0v7 M-2.5,-0.5L0,-3.0L2.5,-0.5"/>
                </g>
               <g id="resetDef">
                       <use xlink:href="#rim2" fill="#404040">
                               <set attributeName="fill" to="#808080" begin="reset.mouseover" end="reset.mouseout"/>
                       </use>
               </g>
        </defs>

<script type="text/javascript">
var viewWidth = 1343;
var viewHeight = 463;
var sectionId = 'dynsection-0';
</script>
<script xlink:href="svgpan.js"/>
<svg id="graph" class="graph">
<g id="viewport">
<title>zip.hpp</title>
<polygon fill="white" stroke="transparent" points="-4,4 -4,-459 1338.5,-459 1338.5,4 -4,4"/>
<!-- Node1 -->
<g id="node1" class="node">
<title>Node1</title>
<g id="a_node1"><a xlink:title=" ">
<polygon fill="#bfbfbf" stroke="black" points="577.5,-435.5 577.5,-454.5 629.5,-454.5 629.5,-435.5 577.5,-435.5"/>
<text text-anchor="middle" x="603.5" y="-442.5" font-family="Helvetica,sans-Serif" font-size="10.00">zip.hpp</text>
</a>
</g>
</g>
<!-- Node2 -->
<g id="node2" class="node">
<title>Node2</title>
<g id="a_node2"><a xlink:href="modifiers_8hpp.html" target="_top" xlink:title=" ">
<polygon fill="white" stroke="black" points="465.5,-285 465.5,-315 575.5,-315 575.5,-285 465.5,-285"/>
<text text-anchor="start" x="473.5" y="-303" font-family="Helvetica,sans-Serif" font-size="10.00">packages/types/inc</text>
<text text-anchor="middle" x="520.5" y="-292" font-family="Helvetica,sans-Serif" font-size="10.00">/modifiers.hpp</text>
</a>
</g>
</g>
<!-- Node1&#45;&gt;Node2 -->
<g id="edge1" class="edge">
<title>Node1&#45;&gt;Node2</title>
<path fill="none" stroke="midnightblue" d="M598.56,-435.48C586.04,-413.92 552.77,-356.59 533.95,-324.18"/>
<polygon fill="midnightblue" stroke="midnightblue" points="536.88,-322.25 528.84,-315.36 530.83,-325.77 536.88,-322.25"/>
</g>
<!-- Node10 -->
<g id="node10" class="node">
<title>Node10</title>
<g id="a_node10"><a xlink:title=" ">
<polygon fill="white" stroke="#bfbfbf" points="549,-73 549,-92 618,-92 618,-73 549,-73"/>
<text text-anchor="middle" x="583.5" y="-80" font-family="Helvetica,sans-Serif" font-size="10.00">type_traits</text>
</a>
</g>
</g>
<!-- Node1&#45;&gt;Node10 -->
<g id="edge49" class="edge">
<title>Node1&#45;&gt;Node10</title>
<path fill="none" stroke="midnightblue" d="M629.67,-436.65C679.6,-420.84 783.5,-378.63 783.5,-301 783.5,-301 783.5,-301 783.5,-221 783.5,-181.42 791.68,-162.77 764.5,-134 729.39,-96.83 669.44,-86.24 628.21,-83.62"/>
<polygon fill="midnightblue" stroke="midnightblue" points="628.33,-80.12 618.16,-83.12 627.97,-87.12 628.33,-80.12"/>
</g>
<!-- Node16 -->
<g id="node16" class="node">
<title>Node16</title>
<g id="a_node16"><a xlink:title=" ">
<polygon fill="white" stroke="#bfbfbf" points="518,-140 518,-159 563,-159 563,-140 518,-140"/>
<text text-anchor="middle" x="540.5" y="-147" font-family="Helvetica,sans-Serif" font-size="10.00">utility</text>
</a>
</g>
</g>
<!-- Node1&#45;&gt;Node16 -->
<g id="edge50" class="edge">
<title>Node1&#45;&gt;Node16</title>
<path fill="none" stroke="midnightblue" d="M604.73,-435.15C608.88,-402.47 620.2,-286.06 584.5,-201 578.87,-187.6 568.25,-175.24 558.85,-166.11"/>
<polygon fill="midnightblue" stroke="midnightblue" points="561.11,-163.43 551.38,-159.24 556.38,-168.59 561.11,-163.43"/>
</g>
<!-- Node17 -->
<g id="node17" class="node">
<title>Node17</title>
<g id="a_node17"><a xlink:href="checks_8hpp.html" target="_top" xlink:title=" ">
<polygon fill="white" stroke="black" points="903,-363 903,-393 1022,-393 1022,-363 903,-363"/>
<text text-anchor="start" x="911" y="-381" font-family="Helvetica,sans-Serif" font-size="10.00">packages/macros/inc</text>
<text text-anchor="middle" x="962.5" y="-370" font-family="Helvetica,sans-Serif" font-size="10.00">/checks.hpp</text>
</a>
</g>
</g>
<!-- Node1&#45;&gt;Node17 -->
<g id="edge18" class="edge">
<title>Node1&#45;&gt;Node17</title>
<path fill="none" stroke="midnightblue" d="M629.61,-439.27C684.31,-429.37 812.51,-406.16 892.9,-391.6"/>
<polygon fill="midnightblue" stroke="midnightblue" points="893.73,-395.01 902.94,-389.78 892.48,-388.12 893.73,-395.01"/>
</g>
<!-- Node27 -->
<g id="node27" class="node">
<title>Node27</title>
<g id="a_node27"><a xlink:href="container__concepts_8hpp.html" target="_top" xlink:title=" ">
<polygon fill="white" stroke="black" points="310,-357.5 310,-398.5 445,-398.5 445,-357.5 310,-357.5"/>
<text text-anchor="start" x="318" y="-386.5" font-family="Helvetica,sans-Serif" font-size="10.00">packages/compile_time</text>
<text text-anchor="start" x="318" y="-375.5" font-family="Helvetica,sans-Serif" font-size="10.00">/packages/concepts/inc</text>
<text text-anchor="middle" x="377.5" y="-364.5" font-family="Helvetica,sans-Serif" font-size="10.00">/container_concepts.hpp</text>
</a>
</g>
</g>
<!-- Node1&#45;&gt;Node27 -->
<g id="edge36" class="edge">
<title>Node1&#45;&gt;Node27</title>
<path fill="none" stroke="midnightblue" d="M577.13,-436.42C547.32,-427.84 497.39,-413.48 454.93,-401.27"/>
<polygon fill="midnightblue" stroke="midnightblue" points="455.74,-397.86 445.16,-398.46 453.8,-404.59 455.74,-397.86"/>
</g>
<!-- Node29 -->
<g id="node29" class="node">
<title>Node29</title>
<g id="a_node29"><a xlink:href="Size_8hpp.html" target="_top" xlink:title=" ">
<polygon fill="white" stroke="black" points="39.5,-201.5 39.5,-242.5 187.5,-242.5 187.5,-201.5 39.5,-201.5"/>
<text text-anchor="start" x="47.5" y="-230.5" font-family="Helvetica,sans-Serif" font-size="10.00">packages/compile_time</text>
<text text-anchor="start" x="47.5" y="-219.5" font-family="Helvetica,sans-Serif" font-size="10.00">/packages/parameter_pack</text>
<text text-anchor="middle" x="113.5" y="-208.5" font-family="Helvetica,sans-Serif" font-size="10.00">/inc/Size.hpp</text>
</a>
</g>
</g>
<!-- Node1&#45;&gt;Node29 -->
<g id="edge47" class="edge">
<title>Node1&#45;&gt;Node29</title>
<path fill="none" stroke="midnightblue" d="M577.12,-442.11C512.74,-437.19 349.31,-422.66 300.5,-399 228.02,-363.88 164.72,-290.68 133.73,-250.64"/>
<polygon fill="midnightblue" stroke="midnightblue" points="136.46,-248.45 127.61,-242.62 130.9,-252.7 136.46,-248.45"/>
</g>
<!-- Node31 -->
<g id="node31" class="node">
<title>Node31</title>
<g id="a_node31"><a xlink:title=" ">
<polygon fill="white" stroke="#bfbfbf" points="103,-140 103,-159 144,-159 144,-140 103,-140"/>
<text text-anchor="middle" x="123.5" y="-147" font-family="Helvetica,sans-Serif" font-size="10.00">tuple</text>
</a>
</g>
</g>
<!-- Node1&#45;&gt;Node31 -->
<g id="edge48" class="edge">
<title>Node1&#45;&gt;Node31</title>
<path fill="none" stroke="midnightblue" d="M577.33,-442.6C503.87,-438.37 297.03,-424.49 234.5,-399 128.81,-355.91 81.07,-345.33 30.5,-243 22.23,-226.27 20.96,-217.04 30.5,-201 43.96,-178.37 71.49,-165.25 93.13,-158.09"/>
<polygon fill="midnightblue" stroke="midnightblue" points="94.33,-161.38 102.88,-155.12 92.29,-154.68 94.33,-161.38"/>
</g>
<!-- Node33 -->
<g id="node33" class="node">
<title>Node33</title>
<g id="a_node33"><a xlink:title=" ">
<polygon fill="white" stroke="#bfbfbf" points="1040.5,-368.5 1040.5,-387.5 1084.5,-387.5 1084.5,-368.5 1040.5,-368.5"/>
<text text-anchor="middle" x="1062.5" y="-375.5" font-family="Helvetica,sans-Serif" font-size="10.00">limits</text>
</a>
</g>
</g>
<!-- Node1&#45;&gt;Node33 -->
<g id="edge51" class="edge">
<title>Node1&#45;&gt;Node33</title>
<path fill="none" stroke="midnightblue" d="M629.6,-442.84C710.57,-439.01 956.54,-425.42 1031.5,-399 1035.53,-397.58 1039.57,-395.54 1043.33,-393.3"/>
<polygon fill="midnightblue" stroke="midnightblue" points="1045.57,-396.01 1051.97,-387.57 1041.7,-390.18 1045.57,-396.01"/>
</g>
<!-- Node34 -->
<g id="node34" class="node">
<title>Node34</title>
<g id="a_node34"><a xlink:title=" ">
<polygon fill="white" stroke="#bfbfbf" points="1103,-363 1103,-393 1234,-393 1234,-363 1103,-363"/>
<text text-anchor="start" x="1111" y="-381" font-family="Helvetica,sans-Serif" font-size="10.00">packages/stl_extension</text>
<text text-anchor="middle" x="1168.5" y="-370" font-family="Helvetica,sans-Serif" font-size="10.00">/impl/zip_impl.hpp</text>
</a>
</g>
</g>
<!-- Node1&#45;&gt;Node34 -->
<g id="edge52" class="edge">
<title>Node1&#45;&gt;Node34</title>
<path fill="none" stroke="midnightblue" d="M629.74,-443.15C703.39,-440.43 918.14,-430.2 1093.5,-399 1099.19,-397.99 1105.09,-396.75 1110.95,-395.4"/>
<polygon fill="midnightblue" stroke="midnightblue" points="1111.86,-398.78 1120.76,-393.02 1110.22,-391.97 1111.86,-398.78"/>
</g>
<!-- Node3 -->
<g id="node3" class="node">
<title>Node3</title>
<g id="a_node3"><a xlink:href="basic__concepts_8hpp.html" target="_top" xlink:title=" ">
<polygon fill="white" stroke="black" points="443.5,-201.5 443.5,-242.5 575.5,-242.5 575.5,-201.5 443.5,-201.5"/>
<text text-anchor="start" x="451.5" y="-230.5" font-family="Helvetica,sans-Serif" font-size="10.00">packages/compile_time</text>
<text text-anchor="start" x="451.5" y="-219.5" font-family="Helvetica,sans-Serif" font-size="10.00">/packages/concepts/inc</text>
<text text-anchor="middle" x="509.5" y="-208.5" font-family="Helvetica,sans-Serif" font-size="10.00">/basic_concepts.hpp</text>
</a>
</g>
</g>
<!-- Node2&#45;&gt;Node3 -->
<g id="edge2" class="edge">
<title>Node2&#45;&gt;Node3</title>
<path fill="none" stroke="midnightblue" d="M518.43,-284.7C517.13,-275.71 515.4,-263.77 513.81,-252.79"/>
<polygon fill="midnightblue" stroke="midnightblue" points="517.24,-252.08 512.35,-242.68 510.32,-253.08 517.24,-252.08"/>
</g>
<!-- Node2&#45;&gt;Node10 -->
<g id="edge17" class="edge">
<title>Node2&#45;&gt;Node10</title>
<path fill="none" stroke="midnightblue" d="M543.03,-284.89C574.63,-263.53 630.49,-219.63 650.5,-165 655.24,-152.06 656.65,-146.33 650.5,-134 642.45,-117.85 626.5,-105.51 612.19,-97.07"/>
<polygon fill="midnightblue" stroke="midnightblue" points="613.57,-93.83 603.12,-92.08 610.19,-99.97 613.57,-93.83"/>
</g>
<!-- Node4 -->
<g id="node4" class="node">
<title>Node4</title>
<g id="a_node4"><a xlink:href="types_8hpp.html" target="_top" xlink:title=" ">
<polygon fill="white" stroke="black" points="245.5,-134.5 245.5,-164.5 355.5,-164.5 355.5,-134.5 245.5,-134.5"/>
<text text-anchor="start" x="253.5" y="-152.5" font-family="Helvetica,sans-Serif" font-size="10.00">packages/types/inc</text>
<text text-anchor="middle" x="300.5" y="-141.5" font-family="Helvetica,sans-Serif" font-size="10.00">/types.hpp</text>
</a>
</g>
</g>
<!-- Node3&#45;&gt;Node4 -->
<g id="edge3" class="edge">
<title>Node3&#45;&gt;Node4</title>
<path fill="none" stroke="midnightblue" d="M451.56,-201.46C420.27,-190.9 381.99,-177.99 351.79,-167.8"/>
<polygon fill="midnightblue" stroke="midnightblue" points="352.88,-164.48 342.29,-164.6 350.65,-171.11 352.88,-164.48"/>
</g>
<!-- Node3&#45;&gt;Node10 -->
<g id="edge14" class="edge">
<title>Node3&#45;&gt;Node10</title>
<path fill="none" stroke="midnightblue" d="M476.21,-201.44C451.08,-184.11 423.58,-157.92 440.5,-134 442.14,-131.68 506.62,-109.52 548.42,-95.33"/>
<polygon fill="midnightblue" stroke="midnightblue" points="549.65,-98.61 558,-92.09 547.4,-91.98 549.65,-98.61"/>
</g>
<!-- Node14 -->
<g id="node14" class="node">
<title>Node14</title>
<g id="a_node14"><a xlink:title=" ">
<polygon fill="white" stroke="#bfbfbf" points="581.5,-140 581.5,-159 641.5,-159 641.5,-140 581.5,-140"/>
<text text-anchor="middle" x="611.5" y="-147" font-family="Helvetica,sans-Serif" font-size="10.00">concepts</text>
</a>
</g>
</g>
<!-- Node3&#45;&gt;Node14 -->
<g id="edge13" class="edge">
<title>Node3&#45;&gt;Node14</title>
<path fill="none" stroke="midnightblue" d="M537.91,-201.36C554.67,-189.78 575.5,-175.39 590.71,-164.87"/>
<polygon fill="midnightblue" stroke="midnightblue" points="592.72,-167.74 598.95,-159.17 588.73,-161.98 592.72,-167.74"/>
</g>
<!-- Node15 -->
<g id="node15" class="node">
<title>Node15</title>
<g id="a_node15"><a xlink:title=" ">
<polygon fill="white" stroke="#bfbfbf" points="449.5,-140 449.5,-159 499.5,-159 499.5,-140 449.5,-140"/>
<text text-anchor="middle" x="474.5" y="-147" font-family="Helvetica,sans-Serif" font-size="10.00">cstdint</text>
</a>
</g>
</g>
<!-- Node3&#45;&gt;Node15 -->
<g id="edge15" class="edge">
<title>Node3&#45;&gt;Node15</title>
<path fill="none" stroke="midnightblue" d="M499.75,-201.36C494.59,-190.97 488.31,-178.32 483.3,-168.23"/>
<polygon fill="midnightblue" stroke="midnightblue" points="486.39,-166.57 478.81,-159.17 480.12,-169.69 486.39,-166.57"/>
</g>
<!-- Node3&#45;&gt;Node16 -->
<g id="edge16" class="edge">
<title>Node3&#45;&gt;Node16</title>
<path fill="none" stroke="midnightblue" d="M518.14,-201.36C522.66,-191.08 528.15,-178.58 532.57,-168.54"/>
<polygon fill="midnightblue" stroke="midnightblue" points="535.86,-169.74 536.69,-159.17 529.46,-166.92 535.86,-169.74"/>
</g>
<!-- Node5 -->
<g id="node5" class="node">
<title>Node5</title>
<g id="a_node5"><a xlink:href="debug_8hpp.html" target="_top" xlink:title=" ">
<polygon fill="white" stroke="black" points="137,-67.5 137,-97.5 256,-97.5 256,-67.5 137,-67.5"/>
<text text-anchor="start" x="145" y="-85.5" font-family="Helvetica,sans-Serif" font-size="10.00">packages/macros/inc</text>
<text text-anchor="middle" x="196.5" y="-74.5" font-family="Helvetica,sans-Serif" font-size="10.00">/debug.hpp</text>
</a>
</g>
</g>
<!-- Node4&#45;&gt;Node5 -->
<g id="edge4" class="edge">
<title>Node4&#45;&gt;Node5</title>
<path fill="none" stroke="midnightblue" d="M277.93,-134.4C263.21,-125.2 243.81,-113.07 227.63,-102.95"/>
<polygon fill="midnightblue" stroke="midnightblue" points="229.36,-99.91 219.02,-97.58 225.65,-105.84 229.36,-99.91"/>
</g>
<!-- Node8 -->
<g id="node8" class="node">
<title>Node8</title>
<g id="a_node8"><a xlink:title=" ">
<polygon fill="white" stroke="#bfbfbf" points="274,-73 274,-92 327,-92 327,-73 274,-73"/>
<text text-anchor="middle" x="300.5" y="-80" font-family="Helvetica,sans-Serif" font-size="10.00">cstddef</text>
</a>
</g>
</g>
<!-- Node4&#45;&gt;Node8 -->
<g id="edge7" class="edge">
<title>Node4&#45;&gt;Node8</title>
<path fill="none" stroke="midnightblue" d="M300.5,-134.4C300.5,-125.06 300.5,-112.71 300.5,-102.52"/>
<polygon fill="midnightblue" stroke="midnightblue" points="304,-102.19 300.5,-92.19 297,-102.19 304,-102.19"/>
</g>
<!-- Node9 -->
<g id="node9" class="node">
<title>Node9</title>
<g id="a_node9"><a xlink:title=" ">
<polygon fill="white" stroke="#bfbfbf" points="1100.5,-73 1100.5,-92 1144.5,-92 1144.5,-73 1100.5,-73"/>
<text text-anchor="middle" x="1122.5" y="-80" font-family="Helvetica,sans-Serif" font-size="10.00">string</text>
</a>
</g>
</g>
<!-- Node4&#45;&gt;Node9 -->
<g id="edge8" class="edge">
<title>Node4&#45;&gt;Node9</title>
<path fill="none" stroke="midnightblue" d="M355.65,-142.41C381.41,-139.66 412.51,-136.49 440.5,-134 690.42,-111.81 992.47,-91.84 1090.28,-85.55"/>
<polygon fill="midnightblue" stroke="midnightblue" points="1090.65,-89.03 1100.4,-84.9 1090.2,-82.05 1090.65,-89.03"/>
</g>
<!-- Node4&#45;&gt;Node10 -->
<g id="edge9" class="edge">
<title>Node4&#45;&gt;Node10</title>
<path fill="none" stroke="midnightblue" d="M355.57,-136.9C425.45,-122.18 537.25,-98.61 539.5,-98 542.68,-97.14 545.98,-96.19 549.26,-95.19"/>
<polygon fill="midnightblue" stroke="midnightblue" points="550.5,-98.47 558.98,-92.11 548.39,-91.79 550.5,-98.47"/>
</g>
<!-- Node11 -->
<g id="node11" class="node">
<title>Node11</title>
<g id="a_node11"><a xlink:title=" ">
<polygon fill="white" stroke="#bfbfbf" points="345.5,-73 345.5,-92 395.5,-92 395.5,-73 345.5,-73"/>
<text text-anchor="middle" x="370.5" y="-80" font-family="Helvetica,sans-Serif" font-size="10.00">climits</text>
</a>
</g>
</g>
<!-- Node4&#45;&gt;Node11 -->
<g id="edge10" class="edge">
<title>Node4&#45;&gt;Node11</title>
<path fill="none" stroke="midnightblue" d="M315.69,-134.4C326.82,-124.06 341.94,-110.02 353.47,-99.31"/>
<polygon fill="midnightblue" stroke="midnightblue" points="356.19,-101.56 361.14,-92.19 351.43,-96.43 356.19,-101.56"/>
</g>
<!-- Node12 -->
<g id="node12" class="node">
<title>Node12</title>
<g id="a_node12"><a xlink:title=" ">
<polygon fill="white" stroke="#bfbfbf" points="414,-67.5 414,-97.5 531,-97.5 531,-67.5 414,-67.5"/>
<text text-anchor="start" x="422" y="-85.5" font-family="Helvetica,sans-Serif" font-size="10.00">packages/types/impl</text>
<text text-anchor="middle" x="472.5" y="-74.5" font-family="Helvetica,sans-Serif" font-size="10.00">/types_impl.hpp</text>
</a>
</g>
</g>
<!-- Node4&#45;&gt;Node12 -->
<g id="edge11" class="edge">
<title>Node4&#45;&gt;Node12</title>
<path fill="none" stroke="midnightblue" d="M337.82,-134.4C363.63,-124.64 398.16,-111.59 425.79,-101.15"/>
<polygon fill="midnightblue" stroke="midnightblue" points="427.13,-104.39 435.25,-97.58 424.66,-97.84 427.13,-104.39"/>
</g>
<!-- Node13 -->
<g id="node13" class="node">
<title>Node13</title>
<g id="a_node13"><a xlink:href="logging_8hpp.html" target="_top" xlink:title=" ">
<polygon fill="white" stroke="black" points="0,-67.5 0,-97.5 119,-97.5 119,-67.5 0,-67.5"/>
<text text-anchor="start" x="8" y="-85.5" font-family="Helvetica,sans-Serif" font-size="10.00">packages/macros/inc</text>
<text text-anchor="middle" x="59.5" y="-74.5" font-family="Helvetica,sans-Serif" font-size="10.00">/logging.hpp</text>
</a>
</g>
</g>
<!-- Node4&#45;&gt;Node13 -->
<g id="edge12" class="edge">
<title>Node4&#45;&gt;Node13</title>
<path fill="none" stroke="midnightblue" d="M248.5,-134.48C211.25,-124.43 160.93,-110.86 121.57,-100.24"/>
<polygon fill="midnightblue" stroke="midnightblue" points="122.39,-96.84 111.82,-97.61 120.56,-103.59 122.39,-96.84"/>
</g>
<!-- Node6 -->
<g id="node6" class="node">
<title>Node6</title>
<g id="a_node6"><a xlink:href="detail_8hpp.html" target="_top" xlink:title=" ">
<polygon fill="white" stroke="black" points="1113,-0.5 1113,-30.5 1232,-30.5 1232,-0.5 1113,-0.5"/>
<text text-anchor="start" x="1121" y="-18.5" font-family="Helvetica,sans-Serif" font-size="10.00">packages/macros/inc</text>
<text text-anchor="middle" x="1172.5" y="-7.5" font-family="Helvetica,sans-Serif" font-size="10.00">/detail.hpp</text>
</a>
</g>
</g>
<!-- Node5&#45;&gt;Node6 -->
<g id="edge5" class="edge">
<title>Node5&#45;&gt;Node6</title>
<path fill="none" stroke="midnightblue" d="M256.11,-68.24C258.94,-67.79 261.75,-67.37 264.5,-67 575.23,-25.48 950.2,-17.99 1102.81,-16.72"/>
<polygon fill="midnightblue" stroke="midnightblue" points="1103,-20.21 1112.98,-16.64 1102.95,-13.21 1103,-20.21"/>
</g>
<!-- Node7 -->
<g id="node7" class="node">
<title>Node7</title>
<g id="a_node7"><a xlink:title=" ">
<polygon fill="white" stroke="#bfbfbf" points="166.5,-6 166.5,-25 226.5,-25 226.5,-6 166.5,-6"/>
<text text-anchor="middle" x="196.5" y="-13" font-family="Helvetica,sans-Serif" font-size="10.00">iostream</text>
</a>
</g>
</g>
<!-- Node5&#45;&gt;Node7 -->
<g id="edge6" class="edge">
<title>Node5&#45;&gt;Node7</title>
<path fill="none" stroke="midnightblue" d="M196.5,-67.4C196.5,-58.06 196.5,-45.71 196.5,-35.52"/>
<polygon fill="midnightblue" stroke="midnightblue" points="200,-35.19 196.5,-25.19 193,-35.19 200,-35.19"/>
</g>
<!-- Node17&#45;&gt;Node6 -->
<g id="edge31" class="edge">
<title>Node17&#45;&gt;Node6</title>
<path fill="none" stroke="midnightblue" d="M1007.55,-362.97C1015.49,-360.78 1023.7,-358.69 1031.5,-357 1140.36,-333.44 1187.69,-384.05 1279.5,-321 1320.67,-292.73 1334.5,-272.95 1334.5,-223 1334.5,-223 1334.5,-223 1334.5,-148.5 1334.5,-91.14 1272.71,-54.28 1225.45,-34.48"/>
<polygon fill="midnightblue" stroke="midnightblue" points="1226.5,-31.13 1215.91,-30.63 1223.87,-37.62 1226.5,-31.13"/>
</g>
<!-- Node18 -->
<g id="node18" class="node">
<title>Node18</title>
<g id="a_node18"><a xlink:href="exception_8hpp.html" target="_top" xlink:title=" ">
<polygon fill="white" stroke="black" points="859,-207 859,-237 978,-237 978,-207 859,-207"/>
<text text-anchor="start" x="867" y="-225" font-family="Helvetica,sans-Serif" font-size="10.00">packages/exceptions</text>
<text text-anchor="middle" x="918.5" y="-214" font-family="Helvetica,sans-Serif" font-size="10.00">/inc/exception.hpp</text>
</a>
</g>
</g>
<!-- Node17&#45;&gt;Node18 -->
<g id="edge19" class="edge">
<title>Node17&#45;&gt;Node18</title>
<path fill="none" stroke="midnightblue" d="M955.35,-362.57C950.07,-351.44 943.05,-335.54 938.5,-321 930.8,-296.39 925.31,-267.35 922.05,-247.31"/>
<polygon fill="midnightblue" stroke="midnightblue" points="925.47,-246.52 920.47,-237.18 918.55,-247.6 925.47,-246.52"/>
</g>
<!-- Node23 -->
<g id="node23" class="node">
<title>Node23</title>
<g id="a_node23"><a xlink:href="exceptions_8hpp.html" target="_top" xlink:title=" ">
<polygon fill="white" stroke="black" points="947,-285 947,-315 1066,-315 1066,-285 947,-285"/>
<text text-anchor="start" x="955" y="-303" font-family="Helvetica,sans-Serif" font-size="10.00">packages/macros/inc</text>
<text text-anchor="middle" x="1006.5" y="-292" font-family="Helvetica,sans-Serif" font-size="10.00">/exceptions.hpp</text>
</a>
</g>
</g>
<!-- Node17&#45;&gt;Node23 -->
<g id="edge26" class="edge">
<title>Node17&#45;&gt;Node23</title>
<path fill="none" stroke="midnightblue" d="M970.78,-362.7C977.04,-351.88 985.79,-336.77 993.06,-324.22"/>
<polygon fill="midnightblue" stroke="midnightblue" points="996.28,-325.64 998.26,-315.23 990.22,-322.13 996.28,-325.64"/>
</g>
<!-- Node24 -->
<g id="node24" class="node">
<title>Node24</title>
<g id="a_node24"><a xlink:title=" ">
<polygon fill="white" stroke="#bfbfbf" points="1126.5,-212.5 1126.5,-231.5 1182.5,-231.5 1182.5,-212.5 1126.5,-212.5"/>
<text text-anchor="middle" x="1154.5" y="-219.5" font-family="Helvetica,sans-Serif" font-size="10.00">sstream</text>
</a>
</g>
</g>
<!-- Node17&#45;&gt;Node24 -->
<g id="edge35" class="edge">
<title>Node17&#45;&gt;Node24</title>
<path fill="none" stroke="midnightblue" d="M1000.75,-362.93C1023.84,-353.3 1053.04,-339.02 1075.5,-321 1104.77,-297.52 1130.31,-261.45 1143.96,-240.24"/>
<polygon fill="midnightblue" stroke="midnightblue" points="1147.01,-241.97 1149.37,-231.64 1141.08,-238.25 1147.01,-241.97"/>
</g>
<!-- Node25 -->
<g id="node25" class="node">
<title>Node25</title>
<g id="a_node25"><a xlink:href="cmake__variables_8hpp.html" target="_top" xlink:title=" ">
<polygon fill="white" stroke="black" points="1150.5,-290.5 1150.5,-309.5 1270.5,-309.5 1270.5,-290.5 1150.5,-290.5"/>
<text text-anchor="middle" x="1210.5" y="-297.5" font-family="Helvetica,sans-Serif" font-size="10.00">cmake_variables.hpp</text>
</a>
</g>
</g>
<!-- Node17&#45;&gt;Node25 -->
<g id="edge32" class="edge">
<title>Node17&#45;&gt;Node25</title>
<path fill="none" stroke="midnightblue" d="M1008.28,-362.97C1055.67,-348.45 1128.83,-326.03 1172.94,-312.51"/>
<polygon fill="midnightblue" stroke="midnightblue" points="1174.16,-315.8 1182.7,-309.52 1172.11,-309.1 1174.16,-315.8"/>
</g>
<!-- Node18&#45;&gt;Node4 -->
<g id="edge20" class="edge">
<title>Node18&#45;&gt;Node4</title>
<path fill="none" stroke="midnightblue" d="M858.96,-214.21C742.71,-200.95 486.35,-171.7 365.7,-157.94"/>
<polygon fill="midnightblue" stroke="midnightblue" points="365.83,-154.43 355.5,-156.77 365.04,-161.39 365.83,-154.43"/>
</g>
<!-- Node18&#45;&gt;Node9 -->
<g id="edge22" class="edge">
<title>Node18&#45;&gt;Node9</title>
<path fill="none" stroke="midnightblue" d="M978.11,-211.65C1029.44,-202.3 1097.96,-186.26 1115.5,-165 1129.87,-147.58 1129.09,-120.36 1126.44,-102.23"/>
<polygon fill="midnightblue" stroke="midnightblue" points="1129.86,-101.52 1124.66,-92.29 1122.97,-102.75 1129.86,-101.52"/>
</g>
<!-- Node19 -->
<g id="node19" class="node">
<title>Node19</title>
<g id="a_node19"><a xlink:title=" ">
<polygon fill="white" stroke="#bfbfbf" points="812,-140 812,-159 877,-159 877,-140 812,-140"/>
<text text-anchor="middle" x="844.5" y="-147" font-family="Helvetica,sans-Serif" font-size="10.00">stdexcept</text>
</a>
</g>
</g>
<!-- Node18&#45;&gt;Node19 -->
<g id="edge21" class="edge">
<title>Node18&#45;&gt;Node19</title>
<path fill="none" stroke="midnightblue" d="M903.52,-206.73C891.33,-195.12 874.12,-178.72 861.42,-166.62"/>
<polygon fill="midnightblue" stroke="midnightblue" points="863.49,-163.76 853.83,-159.39 858.66,-168.83 863.49,-163.76"/>
</g>
<!-- Node20 -->
<g id="node20" class="node">
<title>Node20</title>
<g id="a_node20"><a xlink:title=" ">
<polygon fill="white" stroke="#bfbfbf" points="895,-140 895,-159 942,-159 942,-140 895,-140"/>
<text text-anchor="middle" x="918.5" y="-147" font-family="Helvetica,sans-Serif" font-size="10.00">deque</text>
</a>
</g>
</g>
<!-- Node18&#45;&gt;Node20 -->
<g id="edge23" class="edge">
<title>Node18&#45;&gt;Node20</title>
<path fill="none" stroke="midnightblue" d="M918.5,-206.73C918.5,-196 918.5,-181.19 918.5,-169.46"/>
<polygon fill="midnightblue" stroke="midnightblue" points="922,-169.39 918.5,-159.39 915,-169.39 922,-169.39"/>
</g>
<!-- Node21 -->
<g id="node21" class="node">
<title>Node21</title>
<g id="a_node21"><a xlink:title=" ">
<polygon fill="white" stroke="#bfbfbf" points="697.5,-140 697.5,-159 755.5,-159 755.5,-140 697.5,-140"/>
<text text-anchor="middle" x="726.5" y="-147" font-family="Helvetica,sans-Serif" font-size="10.00">memory</text>
</a>
</g>
</g>
<!-- Node18&#45;&gt;Node21 -->
<g id="edge24" class="edge">
<title>Node18&#45;&gt;Node21</title>
<path fill="none" stroke="midnightblue" d="M880.11,-206.9C844.8,-193.94 793,-174.92 759.51,-162.62"/>
<polygon fill="midnightblue" stroke="midnightblue" points="760.33,-159.19 749.74,-159.03 757.92,-165.77 760.33,-159.19"/>
</g>
<!-- Node22 -->
<g id="node22" class="node">
<title>Node22</title>
<g id="a_node22"><a xlink:title=" ">
<polygon fill="white" stroke="#bfbfbf" points="960.5,-134.5 960.5,-164.5 1106.5,-164.5 1106.5,-134.5 960.5,-134.5"/>
<text text-anchor="start" x="968.5" y="-152.5" font-family="Helvetica,sans-Serif" font-size="10.00">packages/exceptions</text>
<text text-anchor="middle" x="1033.5" y="-141.5" font-family="Helvetica,sans-Serif" font-size="10.00">/impl/exceptions_impl.hpp</text>
</a>
</g>
</g>
<!-- Node18&#45;&gt;Node22 -->
<g id="edge25" class="edge">
<title>Node18&#45;&gt;Node22</title>
<path fill="none" stroke="midnightblue" d="M941.5,-206.9C958.81,-196.29 982.75,-181.61 1001.87,-169.89"/>
<polygon fill="midnightblue" stroke="midnightblue" points="1003.85,-172.78 1010.54,-164.57 1000.19,-166.82 1003.85,-172.78"/>
</g>
<!-- Node23&#45;&gt;Node6 -->
<g id="edge28" class="edge">
<title>Node23&#45;&gt;Node6</title>
<path fill="none" stroke="midnightblue" d="M1024.66,-284.99C1052.43,-262.62 1105.28,-216.11 1134.5,-165 1157.32,-125.08 1166.65,-71.4 1170.3,-40.72"/>
<polygon fill="midnightblue" stroke="midnightblue" points="1173.81,-40.84 1171.4,-30.53 1166.85,-40.09 1173.81,-40.84"/>
</g>
<!-- Node23&#45;&gt;Node14 -->
<g id="edge30" class="edge">
<title>Node23&#45;&gt;Node14</title>
<path fill="none" stroke="midnightblue" d="M966.65,-285C935.07,-273.83 889.86,-257.68 850.5,-243 775.54,-215.05 687.98,-180.73 642.49,-162.78"/>
<polygon fill="midnightblue" stroke="midnightblue" points="643.77,-159.52 633.18,-159.1 641.2,-166.03 643.77,-159.52"/>
</g>
<!-- Node23&#45;&gt;Node18 -->
<g id="edge27" class="edge">
<title>Node23&#45;&gt;Node18</title>
<path fill="none" stroke="midnightblue" d="M989.95,-284.7C976.67,-273.24 957.85,-256.98 942.85,-244.03"/>
<polygon fill="midnightblue" stroke="midnightblue" points="944.83,-241.12 934.98,-237.23 940.26,-246.42 944.83,-241.12"/>
</g>
<!-- Node23&#45;&gt;Node24 -->
<g id="edge29" class="edge">
<title>Node23&#45;&gt;Node24</title>
<path fill="none" stroke="midnightblue" d="M1033.99,-284.88C1061.09,-270.97 1102.19,-249.86 1128.69,-236.25"/>
<polygon fill="midnightblue" stroke="midnightblue" points="1130.44,-239.29 1137.74,-231.61 1127.25,-233.06 1130.44,-239.29"/>
</g>
<!-- Node25&#45;&gt;Node9 -->
<g id="edge34" class="edge">
<title>Node25&#45;&gt;Node9</title>
<path fill="none" stroke="midnightblue" d="M1209.81,-290.34C1208.22,-272.93 1203.44,-232.61 1191.5,-201 1177.01,-162.66 1150.53,-122.4 1134.93,-100.38"/>
<polygon fill="midnightblue" stroke="midnightblue" points="1137.66,-98.18 1128.97,-92.11 1131.98,-102.27 1137.66,-98.18"/>
</g>
<!-- Node26 -->
<g id="node26" class="node">
<title>Node26</title>
<g id="a_node26"><a xlink:title=" ">
<polygon fill="white" stroke="#bfbfbf" points="1238.5,-212.5 1238.5,-231.5 1306.5,-231.5 1306.5,-212.5 1238.5,-212.5"/>
<text text-anchor="middle" x="1272.5" y="-219.5" font-family="Helvetica,sans-Serif" font-size="10.00">filesystem</text>
</a>
</g>
</g>
<!-- Node25&#45;&gt;Node26 -->
<g id="edge33" class="edge">
<title>Node25&#45;&gt;Node26</title>
<path fill="none" stroke="midnightblue" d="M1217.61,-290.28C1227.7,-277.91 1246.36,-255.04 1259.1,-239.43"/>
<polygon fill="midnightblue" stroke="midnightblue" points="1261.86,-241.58 1265.47,-231.62 1256.44,-237.15 1261.86,-241.58"/>
</g>
<!-- Node28 -->
<g id="node28" class="node">
<title>Node28</title>
<g id="a_node28"><a xlink:href="iterator__concepts_8hpp.html" target="_top" xlink:title=" ">
<polygon fill="white" stroke="black" points="300.5,-279.5 300.5,-320.5 432.5,-320.5 432.5,-279.5 300.5,-279.5"/>
<text text-anchor="start" x="308.5" y="-308.5" font-family="Helvetica,sans-Serif" font-size="10.00">packages/compile_time</text>
<text text-anchor="start" x="308.5" y="-297.5" font-family="Helvetica,sans-Serif" font-size="10.00">/packages/concepts/inc</text>
<text text-anchor="middle" x="366.5" y="-286.5" font-family="Helvetica,sans-Serif" font-size="10.00">/iterator_concepts.hpp</text>
</a>
</g>
</g>
<!-- Node27&#45;&gt;Node28 -->
<g id="edge37" class="edge">
<title>Node27&#45;&gt;Node28</title>
<path fill="none" stroke="midnightblue" d="M374.67,-357.43C373.49,-349.27 372.09,-339.62 370.79,-330.63"/>
<polygon fill="midnightblue" stroke="midnightblue" points="374.22,-329.9 369.32,-320.51 367.29,-330.9 374.22,-329.9"/>
</g>
<!-- Node28&#45;&gt;Node3 -->
<g id="edge38" class="edge">
<title>Node28&#45;&gt;Node3</title>
<path fill="none" stroke="midnightblue" d="M403.33,-279.43C421.76,-269.63 444.25,-257.68 463.77,-247.3"/>
<polygon fill="midnightblue" stroke="midnightblue" points="465.61,-250.29 472.8,-242.51 462.33,-244.11 465.61,-250.29"/>
</g>
<!-- Node28&#45;&gt;Node21 -->
<g id="edge46" class="edge">
<title>Node28&#45;&gt;Node21</title>
<path fill="none" stroke="midnightblue" d="M432.54,-284.52C486.27,-272.29 557.45,-254.9 584.5,-243 632.17,-222.03 681.8,-185.84 707.89,-165.5"/>
<polygon fill="midnightblue" stroke="midnightblue" points="710.12,-168.2 715.8,-159.26 705.79,-162.71 710.12,-168.2"/>
</g>
<!-- Node28&#45;&gt;Node29 -->
<g id="edge39" class="edge">
<title>Node28&#45;&gt;Node29</title>
<path fill="none" stroke="midnightblue" d="M301.35,-279.43C266.82,-269.06 224.25,-256.27 188.36,-245.49"/>
<polygon fill="midnightblue" stroke="midnightblue" points="189.02,-242.03 178.43,-242.51 187,-248.73 189.02,-242.03"/>
</g>
<!-- Node30 -->
<g id="node30" class="node">
<title>Node30</title>
<g id="a_node30"><a xlink:href="Select_8hpp.html" target="_top" xlink:title=" ">
<polygon fill="white" stroke="black" points="277.5,-201.5 277.5,-242.5 425.5,-242.5 425.5,-201.5 277.5,-201.5"/>
<text text-anchor="start" x="285.5" y="-230.5" font-family="Helvetica,sans-Serif" font-size="10.00">packages/compile_time</text>
<text text-anchor="start" x="285.5" y="-219.5" font-family="Helvetica,sans-Serif" font-size="10.00">/packages/parameter_pack</text>
<text text-anchor="middle" x="351.5" y="-208.5" font-family="Helvetica,sans-Serif" font-size="10.00">/inc/Select.hpp</text>
</a>
</g>
</g>
<!-- Node28&#45;&gt;Node30 -->
<g id="edge41" class="edge">
<title>Node28&#45;&gt;Node30</title>
<path fill="none" stroke="midnightblue" d="M362.64,-279.43C361.01,-271.18 359.08,-261.41 357.29,-252.34"/>
<polygon fill="midnightblue" stroke="midnightblue" points="360.72,-251.64 355.35,-242.51 353.85,-252.99 360.72,-251.64"/>
</g>
<!-- Node32 -->
<g id="node32" class="node">
<title>Node32</title>
<g id="a_node32"><a xlink:title=" ">
<polygon fill="white" stroke="#bfbfbf" points="206,-212.5 206,-231.5 259,-231.5 259,-212.5 206,-212.5"/>
<text text-anchor="middle" x="232.5" y="-219.5" font-family="Helvetica,sans-Serif" font-size="10.00">iterator</text>
</a>
</g>
</g>
<!-- Node28&#45;&gt;Node32 -->
<g id="edge45" class="edge">
<title>Node28&#45;&gt;Node32</title>
<path fill="none" stroke="midnightblue" d="M331.99,-279.43C308.32,-266 277.51,-248.53 256.49,-236.61"/>
<polygon fill="midnightblue" stroke="midnightblue" points="258,-233.44 247.58,-231.55 254.55,-239.53 258,-233.44"/>
</g>
<!-- Node29&#45;&gt;Node4 -->
<g id="edge40" class="edge">
<title>Node29&#45;&gt;Node4</title>
<path fill="none" stroke="midnightblue" d="M165.59,-201.36C193.21,-190.95 226.88,-178.25 253.67,-168.15"/>
<polygon fill="midnightblue" stroke="midnightblue" points="255.08,-171.36 263.21,-164.56 252.62,-164.81 255.08,-171.36"/>
</g>
<!-- Node30&#45;&gt;Node4 -->
<g id="edge42" class="edge">
<title>Node30&#45;&gt;Node4</title>
<path fill="none" stroke="midnightblue" d="M337.29,-201.36C330.95,-192.59 323.44,-182.21 316.86,-173.12"/>
<polygon fill="midnightblue" stroke="midnightblue" points="319.61,-170.94 310.91,-164.89 313.94,-175.05 319.61,-170.94"/>
</g>
<!-- Node30&#45;&gt;Node10 -->
<g id="edge43" class="edge">
<title>Node30&#45;&gt;Node10</title>
<path fill="none" stroke="midnightblue" d="M364.91,-201.36C379.27,-181.72 403.76,-151.94 431.5,-134 432.14,-133.59 503.13,-110.07 547.86,-95.28"/>
<polygon fill="midnightblue" stroke="midnightblue" points="549.12,-98.55 557.51,-92.09 546.92,-91.91 549.12,-98.55"/>
</g>
<!-- Node30&#45;&gt;Node31 -->
<g id="edge44" class="edge">
<title>Node30&#45;&gt;Node31</title>
<path fill="none" stroke="midnightblue" d="M288.29,-201.46C244.46,-187.9 188.04,-170.46 153.88,-159.89"/>
<polygon fill="midnightblue" stroke="midnightblue" points="154.61,-156.46 144.03,-156.85 152.55,-163.15 154.61,-156.46"/>
</g>
</g>
</svg>
        <g id="navigator" transform="translate(0 0)" fill="#404254">
                <rect fill="#f2f5e9" fill-opacity="0.5" stroke="#606060" stroke-width=".5" x="0" y="0" width="60" height="60"/>
                <use id="zoomplus" xlink:href="#zoomPlus" x="17" y="9" onmousedown="handleZoom(evt,'in')"/>
                <use id="zoomminus" xlink:href="#zoomMin" x="42" y="9" onmousedown="handleZoom(evt,'out')"/>
                <use id="reset" xlink:href="#resetDef" x="30" y="36" onmousedown="handleReset()"/>
                <g id="arrowUp" xlink:href="#dirArrow" transform="translate(30 24)" onmousedown="handlePan(0,-1)">
                  <use xlink:href="#rim" fill="#404040">
                        <set attributeName="fill" to="#808080" begin="arrowUp.mouseover" end="arrowUp.mouseout"/>
                  </use>
                  <path fill="none" stroke="white" stroke-width="1.5" d="M0,-3.0v7 M-2.5,-0.5L0,-3.0L2.5,-0.5"/>
                </g>
                <g id="arrowRight" xlink:href="#dirArrow" transform="rotate(90) translate(36 -43)" onmousedown="handlePan(1,0)">
                  <use xlink:href="#rim" fill="#404040">
                        <set attributeName="fill" to="#808080" begin="arrowRight.mouseover" end="arrowRight.mouseout"/>
                  </use>
                  <path fill="none" stroke="white" stroke-width="1.5" d="M0,-3.0v7 M-2.5,-0.5L0,-3.0L2.5,-0.5"/>
                </g>
                <g id="arrowDown" xlink:href="#dirArrow" transform="rotate(180) translate(-30 -48)" onmousedown="handlePan(0,1)">
                  <use xlink:href="#rim" fill="#404040">
                        <set attributeName="fill" to="#808080" begin="arrowDown.mouseover" end="arrowDown.mouseout"/>
                  </use>
                  <path fill="none" stroke="white" stroke-width="1.5" d="M0,-3.0v7 M-2.5,-0.5L0,-3.0L2.5,-0.5"/>
                </g>
                <g id="arrowLeft" xlink:href="#dirArrow" transform="rotate(270) translate(-36 17)" onmousedown="handlePan(-1,0)">
                  <use xlink:href="#rim" fill="#404040">
                        <set attributeName="fill" to="#808080" begin="arrowLeft.mouseover" end="arrowLeft.mouseout"/>
                  </use>
                  <path fill="none" stroke="white" stroke-width="1.5" d="M0,-3.0v7 M-2.5,-0.5L0,-3.0L2.5,-0.5"/>
                </g>
        </g>
        <svg viewBox="0 0 15 15" width="100%" height="30px" preserveAspectRatio="xMaxYMin meet">
         <g id="arrow_out" transform="scale(0.3 0.3)">
          <a xlink:href="zip_8hpp__incl_org.svg" target="_base">
           <rect id="button" ry="5" rx="5" y="6" x="6" height="38" width="38"
                fill="#f2f5e9" fill-opacity="0.5" stroke="#606060" stroke-width="1.0"/>
           <path id="arrow"
             d="M 11.500037,31.436501 C 11.940474,20.09759 22.043105,11.32322 32.158766,21.979434 L 37.068811,17.246167 C 37.068811,17.246167 37.088388,32 37.088388,32 L 22.160133,31.978069 C 22.160133,31.978069 26.997745,27.140456 26.997745,27.140456 C 18.528582,18.264221 13.291696,25.230495 11.500037,31.436501 z"
             style="fill:#404040;"/>
          </a>
         </g>
        </svg>
</svg>
