<?xml version="1.0" encoding="UTF-8" standalone="no"?>
<!DOCTYPE svg PUBLIC "-//W3C//DTD SVG 1.1//EN"
 "http://www.w3.org/Graphics/SVG/1.1/DTD/svg11.dtd">
<!-- Generated by graphviz version 2.43.0 (0)
 -->
<!-- Title: zip.hpp Pages: 1 -->
<svg width="1421pt" height="456pt"
 viewBox="0.00 0.00 1421.00 456.00" xmlns="http://www.w3.org/2000/svg" xmlns:xlink="http://www.w3.org/1999/xlink">
<g id="graph0" class="graph" transform="scale(1 1) rotate(0) translate(4 452)">
<title>zip.hpp</title>
<!-- Node1 -->
<g id="Node000001" class="node">
<title>Node1</title>
<g id="a_Node000001"><a xlink:title=" ">
<polygon fill="#999999" stroke="#666666" points="1065.5,-448 1013.5,-448 1013.5,-429 1065.5,-429 1065.5,-448"/>
<text text-anchor="middle" x="1039.5" y="-436" font-family="Helvetica,sans-Serif" font-size="10.00">zip.hpp</text>
</a>
</g>
</g>
<!-- Node2 -->
<g id="Node000002" class="node">
<title>Node2</title>
<g id="a_Node000002"><a xlink:href="modifiers_8hpp.html" target="_top" xlink:title=" ">
<polygon fill="white" stroke="#666666" points="1094.5,-310.5 984.5,-310.5 984.5,-280.5 1094.5,-280.5 1094.5,-310.5"/>
<text text-anchor="start" x="992.5" y="-298.5" font-family="Helvetica,sans-Serif" font-size="10.00">packages/types/inc</text>
<text text-anchor="middle" x="1039.5" y="-287.5" font-family="Helvetica,sans-Serif" font-size="10.00">/modifiers.hpp</text>
</a>
</g>
</g>
<!-- Node1&#45;&gt;Node2 -->
<g id="edge1_Node000001_Node000002" class="edge">
<title>Node1&#45;&gt;Node2</title>
<g id="a_edge1_Node000001_Node000002"><a xlink:title=" ">
<path fill="none" stroke="#63b8ff" d="M1039.5,-428.68C1039.5,-407.43 1039.5,-352.8 1039.5,-320.82"/>
<polygon fill="#63b8ff" stroke="#63b8ff" points="1043,-320.54 1039.5,-310.54 1036,-320.54 1043,-320.54"/>
</a>
</g>
</g>
<!-- Node10 -->
<g id="Node000010" class="node">
<title>Node10</title>
<g id="a_Node000010"><a xlink:title=" ">
<polygon fill="#e0e0e0" stroke="#999999" points="1106,-90.5 1037,-90.5 1037,-71.5 1106,-71.5 1106,-90.5"/>
<text text-anchor="middle" x="1071.5" y="-78.5" font-family="Helvetica,sans-Serif" font-size="10.00">type_traits</text>
</a>
</g>
</g>
<!-- Node1&#45;&gt;Node10 -->
<g id="edge47_Node000001_Node000010" class="edge">
<title>Node1&#45;&gt;Node10</title>
<g id="a_edge47_Node000001_Node000010"><a xlink:title=" ">
<path fill="none" stroke="#63b8ff" d="M1061.93,-428.98C1104.21,-411.3 1191.5,-366.33 1191.5,-296.5 1191.5,-296.5 1191.5,-296.5 1191.5,-217.5 1191.5,-178.47 1195.69,-162.63 1171.5,-132 1157.13,-113.8 1134.4,-101.7 1114.24,-93.97"/>
<polygon fill="#63b8ff" stroke="#63b8ff" points="1115.19,-90.59 1104.59,-90.52 1112.83,-97.18 1115.19,-90.59"/>
</a>
</g>
</g>
<!-- Node16 -->
<g id="Node000016" class="node">
<title>Node16</title>
<g id="a_Node000016"><a xlink:title=" ">
<polygon fill="#e0e0e0" stroke="#999999" points="1163,-156.5 1118,-156.5 1118,-137.5 1163,-137.5 1163,-156.5"/>
<text text-anchor="middle" x="1140.5" y="-144.5" font-family="Helvetica,sans-Serif" font-size="10.00">utility</text>
</a>
</g>
</g>
<!-- Node1&#45;&gt;Node16 -->
<g id="edge48_Node000001_Node000016" class="edge">
<title>Node1&#45;&gt;Node16</title>
<g id="a_edge48_Node000001_Node000016"><a xlink:title=" ">
<path fill="none" stroke="#63b8ff" d="M1045.18,-428.74C1057.57,-409.26 1087.2,-360.55 1103.5,-316 1122.7,-263.54 1133.59,-198.06 1138.07,-166.59"/>
<polygon fill="#63b8ff" stroke="#63b8ff" points="1141.55,-167 1139.43,-156.62 1134.61,-166.05 1141.55,-167"/>
</a>
</g>
</g>
<!-- Node17 -->
<g id="Node000017" class="node">
<title>Node17</title>
<g id="a_Node000017"><a xlink:href="checks_8hpp.html" target="_top" xlink:title=" ">
<polygon fill="white" stroke="#666666" points="455,-387.5 336,-387.5 336,-357.5 455,-357.5 455,-387.5"/>
<text text-anchor="start" x="344" y="-375.5" font-family="Helvetica,sans-Serif" font-size="10.00">packages/macros/inc</text>
<text text-anchor="middle" x="395.5" y="-364.5" font-family="Helvetica,sans-Serif" font-size="10.00">/checks.hpp</text>
</a>
</g>
</g>
<!-- Node1&#45;&gt;Node17 -->
<g id="edge18_Node000001_Node000017" class="edge">
<title>Node1&#45;&gt;Node17</title>
<g id="a_edge18_Node000001_Node000017"><a xlink:title=" ">
<path fill="none" stroke="#63b8ff" d="M1013.46,-434.91C921.05,-425.73 606.91,-394.51 465.49,-380.46"/>
<polygon fill="#63b8ff" stroke="#63b8ff" points="465.51,-376.94 455.21,-379.43 464.81,-383.91 465.51,-376.94"/>
</a>
</g>
</g>
<!-- Node26 -->
<g id="Node000026" class="node">
<title>Node26</title>
<g id="a_Node000026"><a xlink:href="container__concepts_8hpp.html" target="_top" xlink:title=" ">
<polygon fill="white" stroke="#666666" points="848,-393 713,-393 713,-352 848,-352 848,-393"/>
<text text-anchor="start" x="721" y="-381" font-family="Helvetica,sans-Serif" font-size="10.00">packages/compile_time</text>
<text text-anchor="start" x="721" y="-370" font-family="Helvetica,sans-Serif" font-size="10.00">/packages/concepts/inc</text>
<text text-anchor="middle" x="780.5" y="-359" font-family="Helvetica,sans-Serif" font-size="10.00">/container_concepts.hpp</text>
</a>
</g>
</g>
<!-- Node1&#45;&gt;Node26 -->
<g id="edge34_Node000001_Node000026" class="edge">
<title>Node1&#45;&gt;Node26</title>
<g id="a_edge34_Node000001_Node000026"><a xlink:title=" ">
<path fill="none" stroke="#63b8ff" d="M1013.24,-431.01C977.18,-422.1 910.8,-405.7 858.13,-392.68"/>
<polygon fill="#63b8ff" stroke="#63b8ff" points="858.68,-389.21 848.13,-390.21 857,-396.01 858.68,-389.21"/>
</a>
</g>
</g>
<!-- Node28 -->
<g id="Node000028" class="node">
<title>Node28</title>
<g id="a_Node000028"><a xlink:href="Size_8hpp.html" target="_top" xlink:title=" ">
<polygon fill="white" stroke="#666666" points="655.5,-239 507.5,-239 507.5,-198 655.5,-198 655.5,-239"/>
<text text-anchor="start" x="515.5" y="-227" font-family="Helvetica,sans-Serif" font-size="10.00">packages/compile_time</text>
<text text-anchor="start" x="515.5" y="-216" font-family="Helvetica,sans-Serif" font-size="10.00">/packages/parameter_pack</text>
<text text-anchor="middle" x="581.5" y="-205" font-family="Helvetica,sans-Serif" font-size="10.00">/inc/Size.hpp</text>
</a>
</g>
</g>
<!-- Node1&#45;&gt;Node28 -->
<g id="edge45_Node000001_Node000028" class="edge">
<title>Node1&#45;&gt;Node28</title>
<g id="a_edge45_Node000001_Node000028"><a xlink:title=" ">
<path fill="none" stroke="#63b8ff" d="M1013.26,-436.71C943.58,-434.2 755.65,-424.6 703.5,-393 647.47,-359.05 610.39,-288.48 592.99,-248.6"/>
<polygon fill="#63b8ff" stroke="#63b8ff" points="596.11,-247 588.99,-239.16 589.67,-249.73 596.11,-247"/>
</a>
</g>
</g>
<!-- Node30 -->
<g id="Node000030" class="node">
<title>Node30</title>
<g id="a_Node000030"><a xlink:title=" ">
<polygon fill="#e0e0e0" stroke="#999999" points="926,-156.5 885,-156.5 885,-137.5 926,-137.5 926,-156.5"/>
<text text-anchor="middle" x="905.5" y="-144.5" font-family="Helvetica,sans-Serif" font-size="10.00">tuple</text>
</a>
</g>
</g>
<!-- Node1&#45;&gt;Node30 -->
<g id="edge46_Node000001_Node000030" class="edge">
<title>Node1&#45;&gt;Node30</title>
<g id="a_edge46_Node000001_Node000030"><a xlink:title=" ">
<path fill="none" stroke="#63b8ff" d="M1034.66,-428.75C1023.74,-408.89 996.49,-358.82 975.5,-316 958.96,-282.24 955.03,-273.67 940.5,-239 930,-213.94 918.91,-184.54 912.09,-166.08"/>
<polygon fill="#63b8ff" stroke="#63b8ff" points="915.34,-164.78 908.61,-156.6 908.77,-167.19 915.34,-164.78"/>
</a>
</g>
</g>
<!-- Node32 -->
<g id="Node000032" class="node">
<title>Node32</title>
<g id="a_Node000032"><a xlink:title=" ">
<polygon fill="#e0e0e0" stroke="#999999" points="1263.5,-382 1219.5,-382 1219.5,-363 1263.5,-363 1263.5,-382"/>
<text text-anchor="middle" x="1241.5" y="-370" font-family="Helvetica,sans-Serif" font-size="10.00">limits</text>
</a>
</g>
</g>
<!-- Node1&#45;&gt;Node32 -->
<g id="edge49_Node000001_Node000032" class="edge">
<title>Node1&#45;&gt;Node32</title>
<g id="a_edge49_Node000001_Node000032"><a xlink:title=" ">
<path fill="none" stroke="#63b8ff" d="M1065.7,-432.47C1098.94,-425.63 1157.69,-412.05 1205.5,-393 1209.85,-391.27 1214.35,-389.13 1218.63,-386.92"/>
<polygon fill="#63b8ff" stroke="#63b8ff" points="1220.41,-389.94 1227.51,-382.07 1217.05,-383.79 1220.41,-389.94"/>
</a>
</g>
</g>
<!-- Node33 -->
<g id="Node000033" class="node">
<title>Node33</title>
<g id="a_Node000033"><a xlink:title=" ">
<polygon fill="#e0e0e0" stroke="#999999" points="1413,-387.5 1282,-387.5 1282,-357.5 1413,-357.5 1413,-387.5"/>
<text text-anchor="start" x="1290" y="-375.5" font-family="Helvetica,sans-Serif" font-size="10.00">packages/stl_extension</text>
<text text-anchor="middle" x="1347.5" y="-364.5" font-family="Helvetica,sans-Serif" font-size="10.00">/impl/zip_impl.hpp</text>
</a>
</g>
</g>
<!-- Node1&#45;&gt;Node33 -->
<g id="edge50_Node000001_Node000033" class="edge">
<title>Node1&#45;&gt;Node33</title>
<g id="a_edge50_Node000001_Node000033"><a xlink:title=" ">
<path fill="none" stroke="#63b8ff" d="M1065.82,-433.05C1109.11,-425.61 1197.97,-409.79 1272.5,-393 1276.63,-392.07 1280.89,-391.07 1285.17,-390.04"/>
<polygon fill="#63b8ff" stroke="#63b8ff" points="1286.28,-393.37 1295.15,-387.58 1284.61,-386.57 1286.28,-393.37"/>
</a>
</g>
</g>
<!-- Node3 -->
<g id="Node000003" class="node">
<title>Node3</title>
<g id="a_Node000003"><a xlink:href="basic__concepts_8hpp.html" target="_top" xlink:title=" ">
<polygon fill="white" stroke="#666666" points="1081.5,-239 949.5,-239 949.5,-198 1081.5,-198 1081.5,-239"/>
<text text-anchor="start" x="957.5" y="-227" font-family="Helvetica,sans-Serif" font-size="10.00">packages/compile_time</text>
<text text-anchor="start" x="957.5" y="-216" font-family="Helvetica,sans-Serif" font-size="10.00">/packages/concepts/inc</text>
<text text-anchor="middle" x="1015.5" y="-205" font-family="Helvetica,sans-Serif" font-size="10.00">/basic_concepts.hpp</text>
</a>
</g>
</g>
<!-- Node2&#45;&gt;Node3 -->
<g id="edge2_Node000002_Node000003" class="edge">
<title>Node2&#45;&gt;Node3</title>
<g id="a_edge2_Node000002_Node000003"><a xlink:title=" ">
<path fill="none" stroke="#63b8ff" d="M1034.99,-280.39C1032.14,-271.49 1028.35,-259.66 1024.88,-248.8"/>
<polygon fill="#63b8ff" stroke="#63b8ff" points="1028.19,-247.66 1021.81,-239.2 1021.52,-249.79 1028.19,-247.66"/>
</a>
</g>
</g>
<!-- Node2&#45;&gt;Node10 -->
<g id="edge17_Node000002_Node000010" class="edge">
<title>Node2&#45;&gt;Node10</title>
<g id="a_edge17_Node000002_Node000010"><a xlink:title=" ">
<path fill="none" stroke="#63b8ff" d="M1058.35,-280.28C1070.05,-270.21 1084.04,-255.58 1090.5,-239 1109.06,-191.38 1090.58,-130.01 1079.12,-100.06"/>
<polygon fill="#63b8ff" stroke="#63b8ff" points="1082.27,-98.5 1075.29,-90.53 1075.77,-101.11 1082.27,-98.5"/>
</a>
</g>
</g>
<!-- Node4 -->
<g id="Node000004" class="node">
<title>Node4</title>
<g id="a_Node000004"><a xlink:href="types_8hpp.html" target="_top" xlink:title=" ">
<polygon fill="white" stroke="#666666" points="779.5,-162 669.5,-162 669.5,-132 779.5,-132 779.5,-162"/>
<text text-anchor="start" x="677.5" y="-150" font-family="Helvetica,sans-Serif" font-size="10.00">packages/types/inc</text>
<text text-anchor="middle" x="724.5" y="-139" font-family="Helvetica,sans-Serif" font-size="10.00">/types.hpp</text>
</a>
</g>
</g>
<!-- Node3&#45;&gt;Node4 -->
<g id="edge3_Node000003_Node000004" class="edge">
<title>Node3&#45;&gt;Node4</title>
<g id="a_edge3_Node000003_Node000004"><a xlink:title=" ">
<path fill="none" stroke="#63b8ff" d="M949.47,-201.73C901.56,-190.29 837.08,-174.89 789.43,-163.51"/>
<polygon fill="#63b8ff" stroke="#63b8ff" points="790.07,-160.06 779.53,-161.14 788.44,-166.87 790.07,-160.06"/>
</a>
</g>
</g>
<!-- Node3&#45;&gt;Node10 -->
<g id="edge14_Node000003_Node000010" class="edge">
<title>Node3&#45;&gt;Node10</title>
<g id="a_edge14_Node000003_Node000010"><a xlink:title=" ">
<path fill="none" stroke="#63b8ff" d="M1006.09,-197.76C998.92,-179.7 991.92,-152.73 1002.5,-132 1010.72,-115.89 1026.82,-103.77 1041.4,-95.5"/>
<polygon fill="#63b8ff" stroke="#63b8ff" points="1043.45,-98.37 1050.67,-90.61 1040.19,-92.18 1043.45,-98.37"/>
</a>
</g>
</g>
<!-- Node14 -->
<g id="Node000014" class="node">
<title>Node14</title>
<g id="a_Node000014"><a xlink:title=" ">
<polygon fill="#e0e0e0" stroke="#999999" points="857.5,-156.5 797.5,-156.5 797.5,-137.5 857.5,-137.5 857.5,-156.5"/>
<text text-anchor="middle" x="827.5" y="-144.5" font-family="Helvetica,sans-Serif" font-size="10.00">concepts</text>
</a>
</g>
</g>
<!-- Node3&#45;&gt;Node14 -->
<g id="edge13_Node000003_Node000014" class="edge">
<title>Node3&#45;&gt;Node14</title>
<g id="a_edge13_Node000003_Node000014"><a xlink:title=" ">
<path fill="none" stroke="#63b8ff" d="M962.63,-197.96C929.6,-185.74 888.13,-170.41 859.9,-159.98"/>
<polygon fill="#63b8ff" stroke="#63b8ff" points="861.1,-156.69 850.5,-156.5 858.67,-163.25 861.1,-156.69"/>
</a>
</g>
</g>
<!-- Node15 -->
<g id="Node000015" class="node">
<title>Node15</title>
<g id="a_Node000015"><a xlink:title=" ">
<polygon fill="#e0e0e0" stroke="#999999" points="1061.5,-156.5 1011.5,-156.5 1011.5,-137.5 1061.5,-137.5 1061.5,-156.5"/>
<text text-anchor="middle" x="1036.5" y="-144.5" font-family="Helvetica,sans-Serif" font-size="10.00">cstdint</text>
</a>
</g>
</g>
<!-- Node3&#45;&gt;Node15 -->
<g id="edge15_Node000003_Node000015" class="edge">
<title>Node3&#45;&gt;Node15</title>
<g id="a_edge15_Node000003_Node000015"><a xlink:title=" ">
<path fill="none" stroke="#63b8ff" d="M1021.46,-197.77C1024.42,-187.97 1027.98,-176.2 1030.89,-166.57"/>
<polygon fill="#63b8ff" stroke="#63b8ff" points="1034.29,-167.4 1033.84,-156.82 1027.59,-165.38 1034.29,-167.4"/>
</a>
</g>
</g>
<!-- Node3&#45;&gt;Node16 -->
<g id="edge16_Node000003_Node000016" class="edge">
<title>Node3&#45;&gt;Node16</title>
<g id="a_edge16_Node000003_Node000016"><a xlink:title=" ">
<path fill="none" stroke="#63b8ff" d="M1050.65,-197.96C1071.66,-186.28 1097.79,-171.75 1116.45,-161.37"/>
<polygon fill="#63b8ff" stroke="#63b8ff" points="1118.17,-164.42 1125.21,-156.5 1114.77,-158.3 1118.17,-164.42"/>
</a>
</g>
</g>
<!-- Node5 -->
<g id="Node000005" class="node">
<title>Node5</title>
<g id="a_Node000005"><a xlink:href="debug_8hpp.html" target="_top" xlink:title=" ">
<polygon fill="white" stroke="#666666" points="699,-96 580,-96 580,-66 699,-66 699,-96"/>
<text text-anchor="start" x="588" y="-84" font-family="Helvetica,sans-Serif" font-size="10.00">packages/macros/inc</text>
<text text-anchor="middle" x="639.5" y="-73" font-family="Helvetica,sans-Serif" font-size="10.00">/debug.hpp</text>
</a>
</g>
</g>
<!-- Node4&#45;&gt;Node5 -->
<g id="edge4_Node000004_Node000005" class="edge">
<title>Node4&#45;&gt;Node5</title>
<g id="a_edge4_Node000004_Node000005"><a xlink:title=" ">
<path fill="none" stroke="#63b8ff" d="M705.64,-131.8C694.08,-123.1 679.11,-111.82 666.33,-102.2"/>
<polygon fill="#63b8ff" stroke="#63b8ff" points="668.41,-99.38 658.31,-96.16 664.19,-104.98 668.41,-99.38"/>
</a>
</g>
</g>
<!-- Node8 -->
<g id="Node000008" class="node">
<title>Node8</title>
<g id="a_Node000008"><a xlink:title=" ">
<polygon fill="#e0e0e0" stroke="#999999" points="770,-90.5 717,-90.5 717,-71.5 770,-71.5 770,-90.5"/>
<text text-anchor="middle" x="743.5" y="-78.5" font-family="Helvetica,sans-Serif" font-size="10.00">cstddef</text>
</a>
</g>
</g>
<!-- Node4&#45;&gt;Node8 -->
<g id="edge7_Node000004_Node000008" class="edge">
<title>Node4&#45;&gt;Node8</title>
<g id="a_edge7_Node000004_Node000008"><a xlink:title=" ">
<path fill="none" stroke="#63b8ff" d="M728.72,-131.8C731.45,-122.6 735.03,-110.53 737.98,-100.58"/>
<polygon fill="#63b8ff" stroke="#63b8ff" points="741.38,-101.43 740.87,-90.84 734.67,-99.43 741.38,-101.43"/>
</a>
</g>
</g>
<!-- Node9 -->
<g id="Node000009" class="node">
<title>Node9</title>
<g id="a_Node000009"><a xlink:title=" ">
<polygon fill="#e0e0e0" stroke="#999999" points="424.5,-90.5 380.5,-90.5 380.5,-71.5 424.5,-71.5 424.5,-90.5"/>
<text text-anchor="middle" x="402.5" y="-78.5" font-family="Helvetica,sans-Serif" font-size="10.00">string</text>
</a>
</g>
</g>
<!-- Node4&#45;&gt;Node9 -->
<g id="edge8_Node000004_Node000009" class="edge">
<title>Node4&#45;&gt;Node9</title>
<g id="a_edge8_Node000004_Node000009"><a xlink:title=" ">
<path fill="none" stroke="#63b8ff" d="M669.37,-140.75C610.11,-134.13 513.64,-120.54 433.5,-96 431.87,-95.5 430.21,-94.94 428.56,-94.33"/>
<polygon fill="#63b8ff" stroke="#63b8ff" points="429.83,-91.07 419.25,-90.5 427.17,-97.54 429.83,-91.07"/>
</a>
</g>
</g>
<!-- Node4&#45;&gt;Node10 -->
<g id="edge9_Node000004_Node000010" class="edge">
<title>Node4&#45;&gt;Node10</title>
<g id="a_edge9_Node000004_Node000010"><a xlink:title=" ">
<path fill="none" stroke="#63b8ff" d="M779.63,-133.79C782.63,-133.17 785.6,-132.57 788.5,-132 872.36,-115.43 970.74,-98.64 1026.63,-89.35"/>
<polygon fill="#63b8ff" stroke="#63b8ff" points="1027.27,-92.79 1036.56,-87.71 1026.12,-85.89 1027.27,-92.79"/>
</a>
</g>
</g>
<!-- Node11 -->
<g id="Node000011" class="node">
<title>Node11</title>
<g id="a_Node000011"><a xlink:title=" ">
<polygon fill="#e0e0e0" stroke="#999999" points="838.5,-90.5 788.5,-90.5 788.5,-71.5 838.5,-71.5 838.5,-90.5"/>
<text text-anchor="middle" x="813.5" y="-78.5" font-family="Helvetica,sans-Serif" font-size="10.00">climits</text>
</a>
</g>
</g>
<!-- Node4&#45;&gt;Node11 -->
<g id="edge10_Node000004_Node000011" class="edge">
<title>Node4&#45;&gt;Node11</title>
<g id="a_edge10_Node000004_Node000011"><a xlink:title=" ">
<path fill="none" stroke="#63b8ff" d="M744.25,-131.8C758.76,-121.37 778.4,-107.24 793.06,-96.69"/>
<polygon fill="#63b8ff" stroke="#63b8ff" points="795.38,-99.34 801.46,-90.66 791.3,-93.66 795.38,-99.34"/>
</a>
</g>
</g>
<!-- Node12 -->
<g id="Node000012" class="node">
<title>Node12</title>
<g id="a_Node000012"><a xlink:title=" ">
<polygon fill="#e0e0e0" stroke="#999999" points="974,-96 857,-96 857,-66 974,-66 974,-96"/>
<text text-anchor="start" x="865" y="-84" font-family="Helvetica,sans-Serif" font-size="10.00">packages/types/impl</text>
<text text-anchor="middle" x="915.5" y="-73" font-family="Helvetica,sans-Serif" font-size="10.00">/types_impl.hpp</text>
</a>
</g>
</g>
<!-- Node4&#45;&gt;Node12 -->
<g id="edge11_Node000004_Node000012" class="edge">
<title>Node4&#45;&gt;Node12</title>
<g id="a_edge11_Node000004_Node000012"><a xlink:title=" ">
<path fill="none" stroke="#63b8ff" d="M766.42,-131.95C795.15,-122.33 833.46,-109.49 864.04,-99.24"/>
<polygon fill="#63b8ff" stroke="#63b8ff" points="865.31,-102.51 873.68,-96.01 863.09,-95.87 865.31,-102.51"/>
</a>
</g>
</g>
<!-- Node13 -->
<g id="Node000013" class="node">
<title>Node13</title>
<g id="a_Node000013"><a xlink:href="logging_8hpp.html" target="_top" xlink:title=" ">
<polygon fill="white" stroke="#666666" points="562,-96 443,-96 443,-66 562,-66 562,-96"/>
<text text-anchor="start" x="451" y="-84" font-family="Helvetica,sans-Serif" font-size="10.00">packages/macros/inc</text>
<text text-anchor="middle" x="502.5" y="-73" font-family="Helvetica,sans-Serif" font-size="10.00">/logging.hpp</text>
</a>
</g>
</g>
<!-- Node4&#45;&gt;Node13 -->
<g id="edge12_Node000004_Node000013" class="edge">
<title>Node4&#45;&gt;Node13</title>
<g id="a_edge12_Node000004_Node000013"><a xlink:title=" ">
<path fill="none" stroke="#63b8ff" d="M675.78,-131.95C641.95,-122.2 596.7,-109.16 560.93,-98.84"/>
<polygon fill="#63b8ff" stroke="#63b8ff" points="561.68,-95.42 551.11,-96.01 559.74,-102.15 561.68,-95.42"/>
</a>
</g>
</g>
<!-- Node6 -->
<g id="Node000006" class="node">
<title>Node6</title>
<g id="a_Node000006"><a xlink:href="detail_8hpp.html" target="_top" xlink:title=" ">
<polygon fill="white" stroke="#666666" points="119,-30 0,-30 0,0 119,0 119,-30"/>
<text text-anchor="start" x="8" y="-18" font-family="Helvetica,sans-Serif" font-size="10.00">packages/macros/inc</text>
<text text-anchor="middle" x="59.5" y="-7" font-family="Helvetica,sans-Serif" font-size="10.00">/detail.hpp</text>
</a>
</g>
</g>
<!-- Node5&#45;&gt;Node6 -->
<g id="edge5_Node000005_Node000006" class="edge">
<title>Node5&#45;&gt;Node6</title>
<g id="a_edge5_Node000005_Node000006"><a xlink:title=" ">
<path fill="none" stroke="#63b8ff" d="M579.73,-67.48C576.61,-66.95 573.52,-66.45 570.5,-66 413.63,-42.47 227.93,-27.5 129.29,-20.55"/>
<polygon fill="#63b8ff" stroke="#63b8ff" points="129.36,-17.05 119.14,-19.84 128.88,-24.03 129.36,-17.05"/>
</a>
</g>
</g>
<!-- Node7 -->
<g id="Node000007" class="node">
<title>Node7</title>
<g id="a_Node000007"><a xlink:title=" ">
<polygon fill="#e0e0e0" stroke="#999999" points="669.5,-24.5 609.5,-24.5 609.5,-5.5 669.5,-5.5 669.5,-24.5"/>
<text text-anchor="middle" x="639.5" y="-12.5" font-family="Helvetica,sans-Serif" font-size="10.00">iostream</text>
</a>
</g>
</g>
<!-- Node5&#45;&gt;Node7 -->
<g id="edge6_Node000005_Node000007" class="edge">
<title>Node5&#45;&gt;Node7</title>
<g id="a_edge6_Node000005_Node000007"><a xlink:title=" ">
<path fill="none" stroke="#63b8ff" d="M639.5,-65.8C639.5,-56.7 639.5,-44.79 639.5,-34.9"/>
<polygon fill="#63b8ff" stroke="#63b8ff" points="643,-34.84 639.5,-24.84 636,-34.84 643,-34.84"/>
</a>
</g>
</g>
<!-- Node17&#45;&gt;Node6 -->
<g id="edge31_Node000017_Node000006" class="edge">
<title>Node17&#45;&gt;Node6</title>
<g id="a_edge31_Node000017_Node000006"><a xlink:title=" ">
<path fill="none" stroke="#63b8ff" d="M335.83,-360.11C230.23,-338.24 21.5,-286.52 21.5,-219.5 21.5,-219.5 21.5,-219.5 21.5,-146 21.5,-107.39 37.13,-64.83 48.35,-39.27"/>
<polygon fill="#63b8ff" stroke="#63b8ff" points="51.59,-40.59 52.53,-30.03 45.21,-37.7 51.59,-40.59"/>
</a>
</g>
</g>
<!-- Node18 -->
<g id="Node000018" class="node">
<title>Node18</title>
<g id="a_Node000018"><a xlink:href="exception_8hpp.html" target="_top" xlink:title=" ">
<polygon fill="white" stroke="#666666" points="339,-233.5 220,-233.5 220,-203.5 339,-203.5 339,-233.5"/>
<text text-anchor="start" x="228" y="-221.5" font-family="Helvetica,sans-Serif" font-size="10.00">packages/exceptions</text>
<text text-anchor="middle" x="279.5" y="-210.5" font-family="Helvetica,sans-Serif" font-size="10.00">/inc/exception.hpp</text>
</a>
</g>
</g>
<!-- Node17&#45;&gt;Node18 -->
<g id="edge19_Node000017_Node000018" class="edge">
<title>Node17&#45;&gt;Node18</title>
<g id="a_edge19_Node000017_Node000018"><a xlink:title=" ">
<path fill="none" stroke="#63b8ff" d="M339.28,-357.42C317.81,-349.06 295.41,-336.02 282.5,-316 268.66,-294.53 270.23,-264.41 273.78,-243.56"/>
<polygon fill="#63b8ff" stroke="#63b8ff" points="277.24,-244.08 275.74,-233.6 270.37,-242.73 277.24,-244.08"/>
</a>
</g>
</g>
<!-- Node23 -->
<g id="Node000023" class="node">
<title>Node23</title>
<g id="a_Node000023"><a xlink:href="exceptions_8hpp.html" target="_top" xlink:title=" ">
<polygon fill="white" stroke="#666666" points="411,-310.5 292,-310.5 292,-280.5 411,-280.5 411,-310.5"/>
<text text-anchor="start" x="300" y="-298.5" font-family="Helvetica,sans-Serif" font-size="10.00">packages/macros/inc</text>
<text text-anchor="middle" x="351.5" y="-287.5" font-family="Helvetica,sans-Serif" font-size="10.00">/exceptions.hpp</text>
</a>
</g>
</g>
<!-- Node17&#45;&gt;Node23 -->
<g id="edge26_Node000017_Node000023" class="edge">
<title>Node17&#45;&gt;Node23</title>
<g id="a_edge26_Node000017_Node000023"><a xlink:title=" ">
<path fill="none" stroke="#63b8ff" d="M387.22,-357.39C380.96,-346.71 372.21,-331.8 364.94,-319.42"/>
<polygon fill="#63b8ff" stroke="#63b8ff" points="367.82,-317.4 359.74,-310.54 361.78,-320.94 367.82,-317.4"/>
</a>
</g>
</g>
<!-- Node24 -->
<g id="Node000024" class="node">
<title>Node24</title>
<g id="a_Node000024"><a xlink:title=" ">
<polygon fill="#e0e0e0" stroke="#999999" points="451.5,-228 395.5,-228 395.5,-209 451.5,-209 451.5,-228"/>
<text text-anchor="middle" x="423.5" y="-216" font-family="Helvetica,sans-Serif" font-size="10.00">sstream</text>
</a>
</g>
</g>
<!-- Node17&#45;&gt;Node24 -->
<g id="edge33_Node000017_Node000024" class="edge">
<title>Node17&#45;&gt;Node24</title>
<g id="a_edge33_Node000017_Node000024"><a xlink:title=" ">
<path fill="none" stroke="#63b8ff" d="M403.33,-357.39C408.96,-346.45 416.13,-330.74 419.5,-316 425.56,-289.49 425.55,-257.84 424.72,-238.2"/>
<polygon fill="#63b8ff" stroke="#63b8ff" points="428.22,-237.96 424.19,-228.16 421.23,-238.33 428.22,-237.96"/>
</a>
</g>
</g>
<!-- Node25 -->
<g id="Node000025" class="node">
<title>Node25</title>
<g id="a_Node000025"><a xlink:title=" ">
<polygon fill="#e0e0e0" stroke="#999999" points="587.5,-305 467.5,-305 467.5,-286 587.5,-286 587.5,-305"/>
<text text-anchor="middle" x="527.5" y="-293" font-family="Helvetica,sans-Serif" font-size="10.00">cmake_variables.hpp</text>
</a>
</g>
</g>
<!-- Node17&#45;&gt;Node25 -->
<g id="edge32_Node000017_Node000025" class="edge">
<title>Node17&#45;&gt;Node25</title>
<g id="a_edge32_Node000017_Node000025"><a xlink:title=" ">
<path fill="none" stroke="#63b8ff" d="M420.33,-357.39C444.09,-343.89 479.7,-323.66 503.27,-310.27"/>
<polygon fill="#63b8ff" stroke="#63b8ff" points="505.29,-313.15 512.26,-305.16 501.83,-307.06 505.29,-313.15"/>
</a>
</g>
</g>
<!-- Node18&#45;&gt;Node4 -->
<g id="edge20_Node000018_Node000004" class="edge">
<title>Node18&#45;&gt;Node4</title>
<g id="a_edge20_Node000018_Node000004"><a xlink:title=" ">
<path fill="none" stroke="#63b8ff" d="M329.46,-203.44C337.46,-201.45 345.68,-199.55 353.5,-198 459.75,-176.93 584.9,-162.1 659.31,-154.32"/>
<polygon fill="#63b8ff" stroke="#63b8ff" points="659.87,-157.78 669.46,-153.27 659.15,-150.82 659.87,-157.78"/>
</a>
</g>
</g>
<!-- Node18&#45;&gt;Node9 -->
<g id="edge22_Node000018_Node000009" class="edge">
<title>Node18&#45;&gt;Node9</title>
<g id="a_edge22_Node000018_Node000009"><a xlink:title=" ">
<path fill="none" stroke="#63b8ff" d="M331.03,-203.45C352.69,-194.94 376.13,-181.79 390.5,-162 403.43,-144.19 405.03,-118.22 404.32,-100.74"/>
<polygon fill="#63b8ff" stroke="#63b8ff" points="407.8,-100.39 403.62,-90.66 400.82,-100.87 407.8,-100.39"/>
</a>
</g>
</g>
<!-- Node19 -->
<g id="Node000019" class="node">
<title>Node19</title>
<g id="a_Node000019"><a xlink:title=" ">
<polygon fill="#e0e0e0" stroke="#999999" points="317,-156.5 252,-156.5 252,-137.5 317,-137.5 317,-156.5"/>
<text text-anchor="middle" x="284.5" y="-144.5" font-family="Helvetica,sans-Serif" font-size="10.00">stdexcept</text>
</a>
</g>
</g>
<!-- Node18&#45;&gt;Node19 -->
<g id="edge21_Node000018_Node000019" class="edge">
<title>Node18&#45;&gt;Node19</title>
<g id="a_edge21_Node000018_Node000019"><a xlink:title=" ">
<path fill="none" stroke="#63b8ff" d="M280.51,-203.44C281.27,-192.96 282.3,-178.55 283.13,-167.05"/>
<polygon fill="#63b8ff" stroke="#63b8ff" points="286.64,-166.99 283.87,-156.77 279.66,-166.49 286.64,-166.99"/>
</a>
</g>
</g>
<!-- Node20 -->
<g id="Node000020" class="node">
<title>Node20</title>
<g id="a_Node000020"><a xlink:title=" ">
<polygon fill="#e0e0e0" stroke="#999999" points="382,-156.5 335,-156.5 335,-137.5 382,-137.5 382,-156.5"/>
<text text-anchor="middle" x="358.5" y="-144.5" font-family="Helvetica,sans-Serif" font-size="10.00">deque</text>
</a>
</g>
</g>
<!-- Node18&#45;&gt;Node20 -->
<g id="edge23_Node000018_Node000020" class="edge">
<title>Node18&#45;&gt;Node20</title>
<g id="a_edge23_Node000018_Node000020"><a xlink:title=" ">
<path fill="none" stroke="#63b8ff" d="M295.49,-203.44C308.63,-191.87 327.23,-175.51 340.82,-163.56"/>
<polygon fill="#63b8ff" stroke="#63b8ff" points="343.34,-166 348.53,-156.77 338.71,-160.74 343.34,-166"/>
</a>
</g>
</g>
<!-- Node21 -->
<g id="Node000021" class="node">
<title>Node21</title>
<g id="a_Node000021"><a xlink:title=" ">
<polygon fill="#e0e0e0" stroke="#999999" points="504.5,-156.5 446.5,-156.5 446.5,-137.5 504.5,-137.5 504.5,-156.5"/>
<text text-anchor="middle" x="475.5" y="-144.5" font-family="Helvetica,sans-Serif" font-size="10.00">memory</text>
</a>
</g>
</g>
<!-- Node18&#45;&gt;Node21 -->
<g id="edge24_Node000018_Node000021" class="edge">
<title>Node18&#45;&gt;Node21</title>
<g id="a_edge24_Node000018_Node000021"><a xlink:title=" ">
<path fill="none" stroke="#63b8ff" d="M319.16,-203.44C355.2,-190.66 407.79,-172.01 441.83,-159.94"/>
<polygon fill="#63b8ff" stroke="#63b8ff" points="443.08,-163.21 451.34,-156.57 440.74,-156.61 443.08,-163.21"/>
</a>
</g>
</g>
<!-- Node22 -->
<g id="Node000022" class="node">
<title>Node22</title>
<g id="a_Node000022"><a xlink:title=" ">
<polygon fill="#e0e0e0" stroke="#999999" points="233.5,-162 87.5,-162 87.5,-132 233.5,-132 233.5,-162"/>
<text text-anchor="start" x="95.5" y="-150" font-family="Helvetica,sans-Serif" font-size="10.00">packages/exceptions</text>
<text text-anchor="middle" x="160.5" y="-139" font-family="Helvetica,sans-Serif" font-size="10.00">/impl/exceptions_impl.hpp</text>
</a>
</g>
</g>
<!-- Node18&#45;&gt;Node22 -->
<g id="edge25_Node000018_Node000022" class="edge">
<title>Node18&#45;&gt;Node22</title>
<g id="a_edge25_Node000018_Node000022"><a xlink:title=" ">
<path fill="none" stroke="#63b8ff" d="M255.42,-203.44C237.51,-192.98 212.88,-178.59 193.2,-167.1"/>
<polygon fill="#63b8ff" stroke="#63b8ff" points="194.95,-164.06 184.55,-162.04 191.42,-170.11 194.95,-164.06"/>
</a>
</g>
</g>
<!-- Node23&#45;&gt;Node6 -->
<g id="edge28_Node000023_Node000006" class="edge">
<title>Node23&#45;&gt;Node6</title>
<g id="a_edge28_Node000023_Node000006"><a xlink:title=" ">
<path fill="none" stroke="#63b8ff" d="M291.93,-283.9C227.3,-268.94 126.87,-234.86 78.5,-162 54.07,-125.21 53.96,-71.57 56.47,-40.59"/>
<polygon fill="#63b8ff" stroke="#63b8ff" points="59.99,-40.56 57.48,-30.27 53.03,-39.89 59.99,-40.56"/>
</a>
</g>
</g>
<!-- Node23&#45;&gt;Node14 -->
<g id="edge30_Node000023_Node000014" class="edge">
<title>Node23&#45;&gt;Node14</title>
<g id="a_edge30_Node000023_Node000014"><a xlink:title=" ">
<path fill="none" stroke="#63b8ff" d="M352.11,-280.29C353.88,-258.66 360.66,-217.89 386.5,-198 457.57,-143.29 700.91,-181.31 788.5,-162 791.33,-161.38 794.24,-160.6 797.13,-159.74"/>
<polygon fill="#63b8ff" stroke="#63b8ff" points="798.34,-163.02 806.74,-156.56 796.15,-156.38 798.34,-163.02"/>
</a>
</g>
</g>
<!-- Node23&#45;&gt;Node18 -->
<g id="edge27_Node000023_Node000018" class="edge">
<title>Node23&#45;&gt;Node18</title>
<g id="a_edge27_Node000023_Node000018"><a xlink:title=" ">
<path fill="none" stroke="#63b8ff" d="M337.96,-280.39C327.3,-269.29 312.26,-253.63 300.11,-240.97"/>
<polygon fill="#63b8ff" stroke="#63b8ff" points="302.43,-238.33 292.98,-233.54 297.38,-243.18 302.43,-238.33"/>
</a>
</g>
</g>
<!-- Node23&#45;&gt;Node24 -->
<g id="edge29_Node000023_Node000024" class="edge">
<title>Node23&#45;&gt;Node24</title>
<g id="a_edge29_Node000023_Node000024"><a xlink:title=" ">
<path fill="none" stroke="#63b8ff" d="M365.04,-280.39C377.19,-267.74 395.01,-249.18 407.78,-235.88"/>
<polygon fill="#63b8ff" stroke="#63b8ff" points="410.58,-238.01 414.98,-228.37 405.53,-233.16 410.58,-238.01"/>
</a>
</g>
</g>
<!-- Node27 -->
<g id="Node000027" class="node">
<title>Node27</title>
<g id="a_Node000027"><a xlink:href="iterator__concepts_8hpp.html" target="_top" xlink:title=" ">
<polygon fill="white" stroke="#666666" points="822.5,-316 690.5,-316 690.5,-275 822.5,-275 822.5,-316"/>
<text text-anchor="start" x="698.5" y="-304" font-family="Helvetica,sans-Serif" font-size="10.00">packages/compile_time</text>
<text text-anchor="start" x="698.5" y="-293" font-family="Helvetica,sans-Serif" font-size="10.00">/packages/concepts/inc</text>
<text text-anchor="middle" x="756.5" y="-282" font-family="Helvetica,sans-Serif" font-size="10.00">/iterator_concepts.hpp</text>
</a>
</g>
</g>
<!-- Node26&#45;&gt;Node27 -->
<g id="edge35_Node000026_Node000027" class="edge">
<title>Node26&#45;&gt;Node27</title>
<g id="a_edge35_Node000026_Node000027"><a xlink:title=" ">
<path fill="none" stroke="#63b8ff" d="M774.19,-351.79C771.66,-343.87 768.68,-334.57 765.9,-325.88"/>
<polygon fill="#63b8ff" stroke="#63b8ff" points="769.14,-324.53 762.76,-316.07 762.48,-326.66 769.14,-324.53"/>
</a>
</g>
</g>
<!-- Node27&#45;&gt;Node3 -->
<g id="edge36_Node000027_Node000003" class="edge">
<title>Node27&#45;&gt;Node3</title>
<g id="a_edge36_Node000027_Node000003"><a xlink:title=" ">
<path fill="none" stroke="#63b8ff" d="M822.53,-275.38C858.16,-265.06 902.31,-252.28 939.39,-241.54"/>
<polygon fill="#63b8ff" stroke="#63b8ff" points="940.51,-244.86 949.14,-238.72 938.57,-238.13 940.51,-244.86"/>
</a>
</g>
</g>
<!-- Node27&#45;&gt;Node21 -->
<g id="edge44_Node000027_Node000021" class="edge">
<title>Node27&#45;&gt;Node21</title>
<g id="a_edge44_Node000027_Node000021"><a xlink:title=" ">
<path fill="none" stroke="#63b8ff" d="M690.35,-288.19C623.22,-280.43 525.45,-265.01 498.5,-239 479.01,-220.19 475.13,-187.44 474.81,-166.79"/>
<polygon fill="#63b8ff" stroke="#63b8ff" points="478.31,-166.76 474.92,-156.72 471.31,-166.68 478.31,-166.76"/>
</a>
</g>
</g>
<!-- Node27&#45;&gt;Node28 -->
<g id="edge37_Node000027_Node000028" class="edge">
<title>Node27&#45;&gt;Node28</title>
<g id="a_edge37_Node000027_Node000028"><a xlink:title=" ">
<path fill="none" stroke="#63b8ff" d="M710.98,-274.99C688.18,-265.22 660.4,-253.31 636.42,-243.04"/>
<polygon fill="#63b8ff" stroke="#63b8ff" points="637.67,-239.76 627.1,-239.04 634.91,-246.2 637.67,-239.76"/>
</a>
</g>
</g>
<!-- Node29 -->
<g id="Node000029" class="node">
<title>Node29</title>
<g id="a_Node000029"><a xlink:href="Select_8hpp.html" target="_top" xlink:title=" ">
<polygon fill="white" stroke="#666666" points="893.5,-239 745.5,-239 745.5,-198 893.5,-198 893.5,-239"/>
<text text-anchor="start" x="753.5" y="-227" font-family="Helvetica,sans-Serif" font-size="10.00">packages/compile_time</text>
<text text-anchor="start" x="753.5" y="-216" font-family="Helvetica,sans-Serif" font-size="10.00">/packages/parameter_pack</text>
<text text-anchor="middle" x="819.5" y="-205" font-family="Helvetica,sans-Serif" font-size="10.00">/inc/Select.hpp</text>
</a>
</g>
</g>
<!-- Node27&#45;&gt;Node29 -->
<g id="edge39_Node000027_Node000029" class="edge">
<title>Node27&#45;&gt;Node29</title>
<g id="a_edge39_Node000027_Node000029"><a xlink:title=" ">
<path fill="none" stroke="#63b8ff" d="M773.05,-274.79C780.21,-266.27 788.72,-256.14 796.48,-246.9"/>
<polygon fill="#63b8ff" stroke="#63b8ff" points="799.31,-248.98 803.06,-239.07 793.95,-244.48 799.31,-248.98"/>
</a>
</g>
</g>
<!-- Node31 -->
<g id="Node000031" class="node">
<title>Node31</title>
<g id="a_Node000031"><a xlink:title=" ">
<polygon fill="#e0e0e0" stroke="#999999" points="727,-228 674,-228 674,-209 727,-209 727,-228"/>
<text text-anchor="middle" x="700.5" y="-216" font-family="Helvetica,sans-Serif" font-size="10.00">iterator</text>
</a>
</g>
</g>
<!-- Node27&#45;&gt;Node31 -->
<g id="edge43_Node000027_Node000031" class="edge">
<title>Node27&#45;&gt;Node31</title>
<g id="a_edge43_Node000027_Node000031"><a xlink:title=" ">
<path fill="none" stroke="#63b8ff" d="M741.79,-274.79C732.89,-262.88 721.66,-247.84 713.16,-236.45"/>
<polygon fill="#63b8ff" stroke="#63b8ff" points="715.81,-234.16 707.02,-228.24 710.2,-238.34 715.81,-234.16"/>
</a>
</g>
</g>
<!-- Node28&#45;&gt;Node4 -->
<g id="edge38_Node000028_Node000004" class="edge">
<title>Node28&#45;&gt;Node4</title>
<g id="a_edge38_Node000028_Node000004"><a xlink:title=" ">
<path fill="none" stroke="#63b8ff" d="M621.71,-197.96C641.97,-188.11 666.39,-176.24 686.35,-166.54"/>
<polygon fill="#63b8ff" stroke="#63b8ff" points="688,-169.63 695.46,-162.11 684.94,-163.34 688,-169.63"/>
</a>
</g>
</g>
<!-- Node29&#45;&gt;Node4 -->
<g id="edge40_Node000029_Node000004" class="edge">
<title>Node29&#45;&gt;Node4</title>
<g id="a_edge40_Node000029_Node000004"><a xlink:title=" ">
<path fill="none" stroke="#63b8ff" d="M792.78,-197.96C780.12,-188.69 765,-177.63 752.21,-168.27"/>
<polygon fill="#63b8ff" stroke="#63b8ff" points="753.93,-165.19 743.79,-162.11 749.8,-170.84 753.93,-165.19"/>
</a>
</g>
</g>
<!-- Node29&#45;&gt;Node14 -->
<g id="edge42_Node000029_Node000014" class="edge">
<title>Node29&#45;&gt;Node14</title>
<g id="a_edge42_Node000029_Node000014"><a xlink:title=" ">
<path fill="none" stroke="#63b8ff" d="M821.77,-197.77C822.89,-188.08 824.22,-176.46 825.33,-166.88"/>
<polygon fill="#63b8ff" stroke="#63b8ff" points="828.82,-167.15 826.48,-156.82 821.86,-166.35 828.82,-167.15"/>
</a>
</g>
</g>
<!-- Node29&#45;&gt;Node30 -->
<g id="edge41_Node000029_Node000030" class="edge">
<title>Node29&#45;&gt;Node30</title>
<g id="a_edge41_Node000029_Node000030"><a xlink:title=" ">
<path fill="none" stroke="#63b8ff" d="M843.91,-197.77C857.47,-186.81 874.08,-173.39 886.63,-163.25"/>
<polygon fill="#63b8ff" stroke="#63b8ff" points="889.01,-165.83 894.59,-156.82 884.61,-160.38 889.01,-165.83"/>
</a>
</g>
</g>
</g>
</svg>
